<svg height="512pt" viewBox="-26 0 512 512.0015" width="512pt" xmlns="http://www.w3.org/2000/svg"><path d="m137.457031 452.832031h72.996094l-23.484375 43.875c-5.5625 10.390625-20.460938 10.390625-26.027344 0zm0 0" fill="#74747c"/><path d="m66.980469 282.6875 51.617187-51.617188-47.632812-14.417968c-11.28125-3.417969-21.816406 7.121094-18.402344 18.402344zm0 0" fill="#74747c"/><path d="m229.3125 445.019531 51.617188-51.617187 14.417968 47.632812c3.414063 11.28125-7.121094 21.816406-18.402344 18.402344zm0 0" fill="#898890"/><path d="m59.167969 374.542969v-72.996094l-43.875 23.484375c-10.390625 5.5625-10.390625 20.464844 0 26.027344zm0 0" fill="#74747c"/><path d="m288.742188 374.542969v-72.996094l43.875 23.484375c10.390624 5.5625 10.390624 20.464844 0 26.027344zm0 0" fill="#898890"/><path d="m118.597656 445.019531-51.617187-51.617187-14.417969 47.632812c-3.414062 11.28125 7.121094 21.816406 18.402344 18.402344zm0 0" fill="#74747c"/><path d="m280.929688 282.6875-51.617188-51.617188 47.632812-14.417968c11.28125-3.417969 21.816407 7.121094 18.402344 18.402344zm0 0" fill="#898890"/><path d="m184.648438 171.15625h-21.382813c-10.582031 0-19.921875 6.902344-23.027344 17.011719l-12.878906 41.921875h93.191406l-12.878906-41.921875c-3.105469-10.109375-12.445313-17.011719-23.023437-17.011719zm0 0" fill="#898890"/><path d="m297.324219 338.042969c0 68.136719-55.234375 123.367187-123.367188 123.367187-68.136719 0-123.367187-55.230468-123.367187-123.367187 0-68.132813 55.230468-123.367188 123.367187-123.367188 68.132813 0 123.367188 55.234375 123.367188 123.367188zm0 0" fill="#c6c5ca"/><path d="m127.359375 367.644531c-30.738281-69.363281 46.597656-152.96875 46.597656-152.96875-68.136719 0-123.367187 55.234375-123.367187 123.367188 0 68.132812 55.230468 123.367187 123.367187 123.367187 11.867188 0 23.347657-1.675781 34.210938-4.804687-27.890625-44.515625-61.285157-44.898438-80.808594-88.960938zm0 0" fill="#aeadb2"/><path d="m142.800781 30.085938c-3.691406 15.453124 5.5625 31.042968 20.898438 35.203124l242.289062 65.679688c20.136719 5.460938 40.800781-6.808594 45.648438-27.101562 4.847656-20.292969-8.039063-40.574219-28.46875-44.804688l-245.8125-50.929688c-15.558594-3.222656-30.863281 6.5-34.554688 21.953126zm0 0" fill="#c68d6d"/><path d="m448.324219 112.644531c-76.910157-37.769531-219.863281-58.09375-253.511719-67.085937-24.945312-6.664063-38.832031-18.6875-46.03125-27.4375-2.804688 3.371094-4.898438 7.417968-5.980469 11.964844-3.691406 15.453124 5.5625 31.042968 20.898438 35.199218l242.289062 65.683594c17.03125 4.617188 34.441407-3.449219 42.335938-18.324219zm0 0" fill="#b2785b"/><path d="m194.8125 342.949219c0-13.640625-9.335938-24.699219-20.855469-24.699219s-20.859375 11.058594-20.859375 24.699219 9.339844 24.695312 20.859375 24.695312 20.855469-11.054687 20.855469-24.695312zm0 0" fill="#57565c"/><path d="m244.800781 22.105469-67.445312-13.972657c-15.558594-3.222656-30.863281 6.5-34.558594 21.953126-3.691406 15.453124 5.566406 31.042968 20.902344 35.203124l67.5625 18.316407zm0 0" fill="#c6c5ca"/><path d="m194.8125 45.558594c-24.945312-6.664063-38.832031-18.6875-46.03125-27.4375-2.804688 3.371094-4.898438 7.421875-5.980469 11.964844-3.691406 15.453124 5.5625 31.042968 20.898438 35.203124l67.566406 18.316407 6.40625-29.109375c-19.269531-3.746094-34.464844-6.695313-42.859375-8.9375zm0 0" fill="#aeadb2"/><path d="m453.210938 71.421875c-6.507813-10.246094-16.636719-17.242187-28.523438-19.707031l-245.8125-50.925782c-19.652344-4.074218-38.707031 8.03125-43.371094 27.554688-3.5625 14.910156 2.324219 29.742188 13.929688 38.265625-1.539063 3.507813-2.410156 7.375-2.410156 11.445313v38.789062c0 4.90625 1.242187 9.53125 3.429687 13.574219-2.1875 4.042969-3.429687 8.664062-3.429687 13.574219v24.132812c-6.53125 3.90625-11.585938 10.132812-13.953126 17.839844l-9.636718 31.359375c-3.253906 1.367187-6.4375 2.863281-9.554688 4.480469l-40.742187-12.332032c-7.867188-2.378906-16.371094-.25-22.1875 5.566406-5.8125 5.816407-7.945313 14.316407-5.5625 22.1875l12.332031 40.742188c-3.371094 6.496094-6.210938 13.308594-8.46875 20.378906l-37.496094 20.070313c-7.25 3.882812-11.753906 11.402343-11.753906 19.625 0 8.226562 4.503906 15.746093 11.753906 19.625l37.496094 20.074219c2.257812 7.070312 5.097656 13.882812 8.46875 20.378906l-12.332031 40.742187c-2.382813 7.871094-.25 16.371094 5.566406 22.1875 4.238281 4.242188 9.910156 6.523438 15.722656 6.523438 5.28125 0 17.257813-4.226563 17.257813-4.226563 3.964844-1.199218 6.207031-5.386718 5.003906-9.351562-1.199219-3.960938-5.386719-6.203125-9.351562-5.003906l-10.792969 3.265624c-3.753907 1.136719-6.3125-.886718-7.234375-1.8125-.925782-.925781-2.953125-3.480468-1.816406-7.238281l8.507812-28.105469c16.226562 22.199219 39.261719 39.117188 66.011719 47.648438l20.070312 37.496094c3.882813 7.25 11.402344 11.753906 19.625 11.753906 8.222657 0 15.742188-4.503906 19.625-11.753906l20.070313-37.496094c7.074218-2.253906 13.882812-5.09375 20.378906-8.464844l40.742188 12.332032c9.472656 1.925781 17.945312-1.324219 22.191406-5.566407 5.8125-5.816406 7.945312-14.316406 5.5625-22.1875l-12.332032-40.742187c3.371094-6.496094 6.210938-13.308594 8.46875-20.378906l37.492188-20.070313c7.253906-3.882813 11.757812-11.402344 11.757812-19.625 0-8.226563-4.503906-15.746094-11.757812-19.625l-37.492188-20.074219c-2.257812-7.070312-5.097656-13.882812-8.46875-20.378906l12.332032-40.738281c2.382812-7.875.25-16.375-5.5625-22.191407-5.816406-5.8125-14.320313-7.949218-22.191406-5.5625l-40.742188 12.332032c-3.113281-1.617188-6.300781-3.113282-9.554688-4.480469l-9.632812-31.359375c-1.933594-6.296875-5.675781-11.601562-10.535156-15.46875v-26.507812c0-4.910157-1.246094-9.539063-3.433594-13.585938 0 .003906.003906.007812.007812.011719 2.1875-4.042969 3.425782-8.660157 3.425782-13.574219v-32.777344l127.34375 34.519532c3.988281 1.085937 8.117187-1.277344 9.199218-5.273438 1.085938-4-1.277343-8.117188-5.277343-9.203125l-95.449219-25.875 10.410156-47.28125 171.113282 35.449219c7.875 1.632812 14.589843 6.273437 18.90625 13.0625 4.3125 6.789062 5.65625 14.835937 3.789062 22.660156-1.871094 7.824219-6.707031 14.394531-13.625 18.5-6.917969 4.109375-15.003906 5.210938-22.765625 3.105469l-39.5625-10.726563c-3.992187-1.082031-8.117187 1.277344-9.203125 5.277344-1.082031 3.996094 1.28125 8.117188 5.277344 9.199219l39.5625 10.726562c15.777344 3.484375 27.371094-.542969 34.347656-4.683593 10.4375-6.195313 17.738281-16.109376 20.558594-27.914063 2.816406-11.800781.785156-23.945313-5.722656-34.1875zm-393.46875 161.460937c-1.136719-3.757812.890624-6.3125 1.8125-7.238281.925781-.925781 3.476562-2.953125 7.238281-1.816406l28.105469 8.507813c-10.960938 8.015624-20.636719 17.691406-28.652344 28.652343zm-40.910157 111.5625c-3.457031-1.851562-3.832031-5.09375-3.832031-6.402343 0-1.304688.375-4.546875 3.832031-6.398438l25.820313-13.820312c-1.027344 6.589843-1.5625 13.34375-1.5625 20.21875 0 6.878906.535156 13.628906 1.5625 20.222656zm39.257813-6.402343c0-63.886719 51.976562-115.867188 115.867187-115.867188 63.886719 0 115.867188 51.980469 115.867188 115.867188 0 63.890625-51.980469 115.871093-115.867188 115.871093-63.890625 0-115.867187-51.980468-115.867187-115.871093zm122.265625 155.125c-1.851563 3.460937-5.09375 3.832031-6.398438 3.832031-1.308593 0-4.550781-.371094-6.402343-3.832031l-13.820313-25.820313c6.59375 1.027344 13.34375 1.566406 20.222656 1.566406 6.875 0 13.628907-.539062 20.21875-1.566406zm107.8125-49.960938c1.140625 3.757813-.890625 6.3125-1.8125 7.234375-.925781.925782-3.484375 2.953125-7.238281 1.816406l-28.105469-8.507812c10.960937-8.011719 20.636719-17.6875 28.648437-28.652344zm40.910156-111.5625c3.460937 1.851563 3.832031 5.09375 3.832031 6.398438 0 1.308593-.371094 4.550781-3.832031 6.402343l-25.820313 13.820313c1.027344-6.589844 1.566407-13.34375 1.566407-20.21875 0-6.878906-.539063-13.632813-1.566407-20.222656zm-49.960937-107.816406c3.757812-1.132813 6.3125.894531 7.238281 1.816406.921875.925781 2.949219 3.480469 1.8125 7.238281l-8.507813 28.105469c-8.011718-10.964843-17.6875-20.636719-28.648437-28.652343zm-105.160157-16.652344c-11.398437 0-22.460937 1.46875-33.007812 4.222657l6.460937-21.027344c2.152344-7.007813 8.523438-11.714844 15.855469-11.714844h21.382813c7.332031 0 13.703124 4.707031 15.855468 11.714844l6.457032 21.027344c-10.546876-2.753907-21.609376-4.222657-33.003907-4.222657zm-11.894531-43.472656c.023438-10.417969.0625-21.285156.109375-21.605469 4.023437 2.160156 8.617187 3.386719 13.492187 3.386719 4.871094 0 9.472657-1.234375 13.492188-3.386719.046875.324219.085938 11.394532.109375 21.90625-1.511719-.21875-26.804687-.3125-27.203125-.300781zm27.113281-44.957031c-4.027343-2.164063-8.628906-3.394532-13.511719-3.394532-4.875 0-9.46875 1.226563-13.492187 3.386719-.089844-.621093-1.84375-41.785156.875-45.855469l26.253906 7.117188c-.011719 8.015625-.074219 38.1875-.148437 38.730469.007812.003906.015625.011719.023437.015625zm36.457031-44.441406-59.972656-16.257813c-11.496094-3.113281-18.335937-14.632813-15.566406-26.21875s14.074219-18.773437 25.738281-16.351563l60.011719 12.433594zm0 0"/><path d="m202.3125 342.949219c0-17.753907-12.722656-32.199219-28.355469-32.199219-15.636719 0-28.359375 14.445312-28.359375 32.199219 0 17.753906 12.722656 32.195312 28.359375 32.195312s28.355469-14.441406 28.355469-32.195312zm-41.714844 0c0-9.484375 5.992188-17.199219 13.359375-17.199219 7.363281 0 13.355469 7.714844 13.355469 17.199219 0 9.480469-5.992188 17.195312-13.355469 17.195312-7.367187.003907-13.359375-7.714843-13.359375-17.195312zm0 0"/><path d="m254.609375 335.894531c4.144531 0 7.5-3.359375 7.5-7.5v-12.453125c0-4.140625-3.355469-7.5-7.5-7.5-4.140625 0-7.5 3.359375-7.5 7.5v12.453125c0 4.140625 3.359375 7.5 7.5 7.5zm0 0"/><path d="m93.300781 308.441406c-4.144531 0-7.5 3.359375-7.5 7.5v12.453125c0 4.140625 3.355469 7.5 7.5 7.5s7.5-3.359375 7.5-7.5v-12.453125c0-4.140625-3.355469-7.5-7.5-7.5zm0 0"/></svg>