<svg height="511pt" viewBox="-114 0 511 511.998" width="511pt" xmlns="http://www.w3.org/2000/svg"><path d="m67.035156 269.046875c-3.382812-20.011719-18.417968-34.160156-33.582031-31.597656-15.160156 2.566406-24.710937 20.867187-21.324219 40.882812 3.382813 20.015625 18.417969 34.160157 33.578125 31.597657 15.164063-2.5625 24.710938-20.867188 21.328125-40.882813zm0 0" fill="#8dc971"/><path d="m216.335938 269.050781c-3.382813 20.015625 6.167968 38.320313 21.328124 40.882813 15.164063 2.5625 30.199219-11.585938 33.582032-31.597656 3.382812-20.015626-6.164063-38.320313-21.328125-40.882813-15.160157-2.5625-30.195313 11.585937-33.582031 31.597656zm0 0" fill="#9ad880"/><path d="m150.285156 46.171875c-13.511718 0-24.46875 10.953125-24.46875 24.46875v22.167969c0 10.296875-8.347656 18.644531-18.644531 18.644531-10.300781 0-18.648437-8.347656-18.648437-18.644531v-60.835938c0-13.515625-10.953126-24.472656-24.46875-24.472656-13.515626 0-24.472657 10.957031-24.472657 24.472656v149.230469h135.175781v-110.5625c0-13.515625-10.957031-24.46875-24.472656-24.46875zm0 0" fill="#ffeb99"/><path d="m204.429688 344.328125h-125.492188s30.476562 23.691406 30.476562 65.683594c0 41.996093-10.496093 94.488281-10.496093 94.488281h85.53125s-10.5-52.492188-10.5-94.488281c.003906-41.992188 30.480469-65.683594 30.480469-65.683594zm0 0" fill="#c6c5ca"/><path d="m78.9375 344.328125s26.511719 20.613281 30.082031 57.457031c30.125.015625 51.996094-5.539062 67.441407-12.257812 7.300781-29.117188 27.96875-45.199219 27.96875-45.199219zm0 0" fill="#acabb1"/><path d="m32.296875 193.699219 10.171875 84.765625c6.027344 50.222656 48.632812 88.019531 99.214844 88.019531 50.582031 0 93.1875-37.796875 99.214844-88.019531l10.171874-84.765625zm0 0" fill="#d8d7da"/><path d="m42.46875 278.464844c6.027344 50.222656 48.632812 88.019531 99.214844 88.019531 2.695312 0 5.390625-.109375 8.035156-.320313-22.707031-13.808593-35.414062-32.867187-42.445312-51.238281-10.414063-27.222656 6.277343-57.402343 34.882812-63.011719 52.054688-10.210937 64.074219-35.960937 64.074219-35.960937v-22.253906h-173.933594zm0 0" fill="#c6c5ca"/><path d="m240.617188 215.953125h-197.867188c-19.191406 0-34.75-15.558594-34.75-34.75s15.558594-34.75 34.75-34.75h197.867188c19.195312 0 34.75 15.558594 34.75 34.75.003906 19.191406-15.554688 34.75-34.75 34.75zm0 0" fill="#ff929f"/><path d="m78.9375 181.203125c0-19.191406 15.558594-34.75 34.75-34.75h-70.941406c-19.191406 0-34.75 15.558594-34.75 34.75s15.558594 34.75 34.75 34.75h70.941406c-19.191406 0-34.75-15.558594-34.75-34.75zm0 0" fill="#ff737d"/><path d="m195.082031 504.5h-106.792969c-13.75 0-24.898437-11.144531-24.898437-24.894531s11.148437-24.898438 24.898437-24.898438h106.792969c13.746094 0 24.894531 11.148438 24.894531 24.898438s-11.148437 24.894531-24.894531 24.894531zm0 0" fill="#eaeaea"/><path d="m118.785156 479.605469c0-13.75 11.144532-24.898438 24.894532-24.898438h-55.390626c-13.75 0-24.898437 11.148438-24.898437 24.898438 0 13.746093 11.148437 24.894531 24.898437 24.894531h55.390626c-13.75 0-24.894532-11.144531-24.894532-24.894531zm0 0" fill="#d8d7da"/><path d="m169.527344 281.054688c0-20.300782-12.464844-36.753907-27.84375-36.753907s-27.84375 16.453125-27.84375 36.753907c0 20.296874 12.464844 36.753906 27.84375 36.753906s27.84375-16.457032 27.84375-36.753906zm0 0" fill="#ccf8ff"/><path d="m230.699219 92.808594c-13.515625 0-24.472657-10.957032-24.472657-24.472656v-20.382813c0-13.515625 10.957032-24.472656 24.472657-24.472656s24.472656 10.957031 24.472656 24.472656v20.382813c0 13.515624-10.957031 24.472656-24.472656 24.472656zm0 0" fill="#ffde55"/><path d="m141.683594 236.800781c-19.488282 0-35.34375 19.851563-35.34375 44.253907 0 24.402343 15.855468 44.253906 35.34375 44.253906 19.488281 0 35.34375-19.851563 35.34375-44.253906 0-24.402344-15.855469-44.253907-35.34375-44.253907zm0 73.507813c-11.027344 0-20.34375-13.398438-20.34375-29.253906 0-15.859376 9.316406-29.253907 20.34375-29.253907s20.34375 13.394531 20.34375 29.253907c0 15.855468-9.316406 29.253906-20.34375 29.253906zm0 0"/><path d="m254.179688 230.75 1.191406-9.960938c16.042968-5.996093 27.496094-21.476562 27.496094-39.585937 0-23.296875-18.953126-42.25-42.25-42.25h-58.359376v-68.3125c0-17.628906-14.34375-31.96875-31.972656-31.96875s-31.972656 14.339844-31.972656 31.96875v22.167969c0 6.144531-5 11.144531-11.144531 11.144531s-11.144531-5-11.144531-11.144531v-60.835938c0-17.628906-14.339844-31.972656-31.96875-31.972656-17.632813 0-31.972657 14.34375-31.972657 31.972656v84.367188c0 4.144531 3.355469 7.5 7.5 7.5 4.140625 0 7.5-3.355469 7.5-7.5v-84.367188c0-9.359375 7.613281-16.972656 16.972657-16.972656 9.355468 0 16.96875 7.613281 16.96875 16.972656v60.835938c0 14.417968 11.730468 26.144531 26.148437 26.144531 14.414063 0 26.144531-11.726563 26.144531-26.144531v-22.167969c0-9.355469 7.613282-16.96875 16.96875-16.96875 9.359375 0 16.972656 7.609375 16.972656 16.96875v68.3125h-124.507812c-23.296875 0-42.25 18.953125-42.25 42.25 0 18.109375 11.453125 33.589844 27.496094 39.585937l1.195312 9.960938c-17.46875 4.945312-28.308594 26.058594-24.457031 48.835938 1.90625 11.28125 11.398437 36.820312 42.226563 37.742187.015624 0 .03125-.007813.046874-.011719 6.855469 12.761719 16.191407 23.929688 27.332032 32.90625 0 0 27.578125 22.175782 27.578125 59.789063 0 10.800781-.71875 23.292969-2.132813 37.195312h-11.496094c-17.863281 0-32.394531 14.53125-32.394531 32.394531 0 17.863282 14.53125 32.394532 32.394531 32.394532h106.792969c17.863281 0 32.394531-14.53125 32.394531-32.394532 0-17.863281-14.53125-32.394531-32.394531-32.394531h-11.496093c-1.414063-13.902343-2.132813-26.394531-2.132813-37.195312 0-37.613281 27.558594-59.777344 27.558594-59.777344 11.148437-8.976563 20.492187-20.148437 27.347656-32.917969.019531.003906.035156.007813.050781.011719 30.125.476563 40.316406-26.464844 42.226563-37.746094 3.851562-22.769531-6.992188-43.886719-24.457031-48.832031zm-238.683594-49.546875c0-15.023437 12.226562-27.25 27.25-27.25h197.871094c15.027343 0 27.25 12.226563 27.25 27.25 0 15.027344-12.222657 27.25-27.25 27.25h-197.871094c-15.023438 0-27.25-12.222656-27.25-27.25zm4.027344 95.882813c-2.332032-13.789063 2.800781-26.890626 11.5-31.054688l4 33.328125c.96875 8.085937 2.832031 15.871094 5.46875 23.273437-14.765626-3.410156-19.605469-17.472656-20.96875-25.546874zm146.929687 132.925781c0 13.066406.988281 28.390625 2.941406 45.546875 0 0 .152344 6.648437 7.453125 6.648437h18.230469c9.59375 0 17.398437 7.804688 17.398437 17.398438 0 9.589843-7.804687 17.394531-17.398437 17.394531h-106.789063c-9.59375 0-17.398437-7.804688-17.398437-17.394531 0-9.59375 7.804687-17.398438 17.398437-17.398438h56.972657c4.140625 0 7.5-3.355469 7.5-7.5 0-4.140625-3.359375-7.5-7.5-7.5h-30.40625c1.363281-13.800781 2.058593-26.292969 2.058593-37.195312 0-16.726563-4.394531-30.734375-9.996093-41.804688 10.9375 3.746094 22.640625 5.777344 34.765625 5.777344s23.828125-2.03125 34.765625-5.777344c-5.601563 11.070313-9.996094 25.078125-9.996094 41.804688zm-24.769531-51.027344c-46.746094 0-86.199219-35-91.769532-81.414063l-6.492187-54.117187h196.523437l-6.496093 54.117187c-5.566407 46.414063-45.019531 81.414063-91.765625 81.414063zm122.164062-81.898437c-1.367187 8.074218-6.460937 24.367187-20.96875 25.542968 2.632813-7.398437 4.496094-15.183594 5.464844-23.269531l4-33.332031c8.703125 4.167968 13.832031 17.269531 11.503906 31.058594zm0 0"/><path d="m230.699219 100.308594c17.628906 0 31.972656-14.34375 31.972656-31.972656v-20.382813c0-17.628906-14.34375-31.972656-31.972656-31.972656-17.628907 0-31.96875 14.34375-31.96875 31.972656v20.382813c0 17.628906 14.339843 31.972656 31.96875 31.972656zm-16.96875-52.355469c0-9.355469 7.613281-16.972656 16.96875-16.972656 9.359375 0 16.972656 7.613281 16.972656 16.972656v20.382813c0 9.359374-7.613281 16.972656-16.972656 16.972656-9.355469 0-16.96875-7.613282-16.96875-16.972656zm0 0"/></svg>