<svg height="511pt" viewBox="-73 0 511 511.99936" width="511pt" xmlns="http://www.w3.org/2000/svg"><path d="m311.742188 307.25 31.988281-29.109375c10-9.097656 15.582031-22.066406 15.359375-35.585937-2.039063-122.398438-51.730469-194.363282-80.894532-226.191407-11.105468-12.121093-30.277343-11.761719-40.921874.769531-27.953126 32.894532-74.910157 106.671876-72.355469 229.0625.28125 13.515626 6.347656 26.269532 16.679687 34.984376l33.058594 27.886718-19.011719 7.46875c-11.34375 4.457032-12.125 20.214844-1.28125 25.769532l70.148438 35.945312 68.753906-38.546875c10.628906-5.960937 9.257813-21.679687-2.246094-25.707031zm0 0" fill="#b2e59c"/><path d="m319.777344 347.265625c-25.179688-17.597656-51.28125-46.574219-63.242188-93.847656-14.546875-57.488281-48.792968-99.410157-76.96875-125.675781-9.496094 32.808593-15.617187 72.152343-14.648437 118.453124.28125 13.515626 6.347656 26.269532 16.679687 34.984376l33.058594 27.890624-19.011719 7.464844c-11.347656 4.457032-12.128906 20.214844-1.28125 25.773438l70.148438 35.945312zm0 0" fill="#9ad880"/><path d="m257.558594 7.503906c-7.511719.140625-14.964844 3.363282-20.285156 9.628906-27.953126 32.898438-74.910157 106.675782-72.355469 229.066407.28125 13.511719 6.347656 26.265625 16.679687 34.980469l33.058594 27.890624-19.011719 7.464844c-11.34375 4.457032-12.125 20.214844-1.28125 25.773438l70.148438 35.945312zm0 0" fill="#9ad880"/><path d="m264.511719 378.253906-1.980469-105.542968c-2.257812-6.0625-4.277344-12.492188-5.996094-19.292969-14.546875-57.488281-48.792968-99.410157-76.96875-125.671875-9.496094 32.804687-15.617187 72.148437-14.652344 118.453125.285157 13.515625 6.347657 26.265625 16.679688 34.984375l33.058594 27.886718-19.007813 7.46875c-11.347656 4.457032-12.128906 20.210938-1.28125 25.769532zm0 0" fill="#8dc971"/><path d="m265.621094 437.339844c-10.542969.199218-19.25-8.1875-19.449219-18.734375l-5.878906-313.363281c-.195313-10.542969 8.191406-19.25 18.734375-19.449219 10.542968-.195313 19.253906 8.191406 19.449218 18.734375l5.878907 313.363281c.199219 10.542969-8.1875 19.25-18.734375 19.449219zm0 0" fill="#ffde55"/><path d="m188.367188 365.546875 21.695312-37.417969c6.777344-11.695312 8.179688-25.746094 3.878906-38.5625-38.949218-116.054687-108.070312-169.628906-145.492187-191.148437-14.253907-8.195313-32.417969-2.058594-38.777344 13.101562-16.699219 39.808594-39.152344 124.332031.285156 240.222657 4.355469 12.796874 13.992188 23.121093 26.476563 28.304687l39.941406 16.585937-15.863281 12.867188c-9.464844 7.675781-5.449219 22.933594 6.570312 24.953125l77.734375 13.054687 53.878906-57.53125c8.332032-8.898437 2.269532-23.464843-9.914062-23.824218zm0 0" fill="#dfaeff"/><path d="m46.101562 96.210938c-7.117187 2.402343-13.25 7.730468-16.429687 15.308593-16.699219 39.808594-39.152344 124.332031.285156 240.222657 4.355469 12.796874 13.992188 23.117187 26.476563 28.300781l39.941406 16.589843-15.863281 12.867188c-9.464844 7.675781-5.449219 22.933594 6.570312 24.949219l77.734375 13.058593zm0 0" fill="#cf92ff"/><path d="m183.738281 503.492188c-9.992187 3.378906-20.828125-1.984376-24.203125-11.976563l-100.34375-296.921875c-3.375-9.992188 1.988282-20.828125 11.980469-24.203125 9.988281-3.375 20.824219 1.988281 24.203125 11.976563l100.339844 296.921874c3.375 9.992188-1.988282 20.828126-11.976563 24.203126zm0 0" fill="#ffde55"/><path d="m242.320312 213.210938 3.851563 205.394531c.199219 10.546875 8.90625 18.933593 19.449219 18.734375 10.542968-.199219 18.929687-8.90625 18.734375-19.449219l-2.019531-107.621094c-10.792969-15.144531-19.976563-33.828125-25.800782-56.851562-3.636718-14.378907-8.515625-27.777344-14.214844-40.207031zm0 0" fill="#ffcd00"/><path d="m340.101562 103.066406c-1.53125-3.847656-5.890624-5.722656-9.738281-4.195312-3.851562 1.53125-5.730469 5.894531-4.195312 9.742187 16.058593 40.367188 24.613281 85.472657 25.421875 134.066407.1875 11.375-4.515625 22.277343-12.90625 29.914062l-31.988282 29.109375c-1.957031 1.777344-2.828124 4.453125-2.304687 7.042969.527344 2.589844 2.378906 4.710937 4.871094 5.582031l19.28125 6.75c3.761719 1.316406 4.339843 4.695313 4.429687 5.699219.085938 1.003906.101563 4.433594-3.375 6.382812l-38.921875 21.824219-4.699219-250.597656c-.226562-12.058594-8.488281-22.105469-19.570312-25.144531l-1.179688-62.890626c2.800782 1.09375 5.359376 2.8125 7.4375 5.082032 10.667969 11.640625 26.402344 31.367187 40.78125 59.226562 1.898438 3.683594 6.425782 5.125 10.105469 3.226563 3.679688-1.898438 5.125-6.421875 3.226563-10.101563-15.140625-29.332031-31.769532-50.167968-43.054688-62.484375-6.746094-7.367187-16.3125-11.484375-26.304687-11.2929685-9.96875.1874995-19.394531 4.6562495-25.863281 12.2695315-21.125 24.863281-56.816407 77.589844-69.527344 160.703125-32.4375-42.984375-66.839844-67.839844-89.839844-81.066407-8.65625-4.976562-19.039062-6.003906-28.488281-2.808593-9.445313 3.191406-17.078125 10.304687-20.941407 19.511719-17.207031 41.023437-40.074218 127.476562.101563 245.539062 5.050781 14.851562 16.242187 26.8125 30.699219 32.816406l28.320312 11.761719-6.089844 4.9375c-6.699218 5.433594-9.496093 13.992187-7.300781 22.332031 2.199219 8.34375 8.847657 14.414063 17.355469 15.84375l51.9375 8.722656 14.648438 43.347657c3.742187 11.078125 14.121093 18.082031 25.21875 18.082031 12.789062 0 20.664062-8.4375 23.8125-14.800781 3.148437-6.367188 3.632812-13.582031 1.359374-20.3125l-14.648437-43.347657 36-38.4375c5.894531-6.296874 7.5-15.15625 4.1875-23.121093-.847656-2.039063-1.972656-3.890625-3.3125-5.523438l12.769531 6.542969.859375 45.746094c.269531 14.492187 8.238281 26.09375 27.085938 26.09375 14.664062-.277344 26.367187-12.429688 26.09375-27.089844l-.859375-45.746094 45.9375-25.757812c7.523437-4.21875 11.730468-12.179688 10.980468-20.773438s-6.273437-15.703125-14.417968-18.554687l-7.402344-2.589844 22.683594-20.640625c11.582031-10.535156 18.070312-25.574219 17.808594-41.257812-.839844-50.414063-9.75-97.300782-26.484376-139.363282zm-158.765624 393.320313c-6.070313 2.023437-12.652344-1.214844-14.695313-7.273438l-55.417969-163.988281c-1.328125-3.921875-5.585937-6.027344-9.507812-4.703125-3.925782 1.324219-6.03125 5.582031-4.703125 9.507813l35.320312 104.515624-44.007812-7.390624c-3.933594-.660157-5.074219-3.894532-5.332031-4.867188-.257813-.976562-.851563-4.351562 2.246093-6.863281l15.863281-12.863281c2.050782-1.664063 3.074219-4.289063 2.695313-6.902344-.378906-2.613282-2.105469-4.835938-4.542969-5.851563l-39.945312-16.589843c-10.476563-4.351563-18.585938-13.023438-22.25-23.792969-38.582032-113.375-16.855469-195.839844-.46875-234.902344 1.1875-2.835937 3.019531-5.304687 5.289062-7.277344l20.128906 59.558594c-12.164062 8.375-12.195312 23.5625-9.921874 30.292969l35.09375 103.835937c1.324218 3.925781 5.582031 6.027344 9.503906 4.703125 3.925781-1.324218 6.03125-5.582031 4.707031-9.507812l-35.089844-103.832032c-.992187-2.9375-1.507812-11.132812 7.269531-14.699218 5.921876-2.40625 12.648438 1.214844 14.695313 7.273437l100.34375 296.921875c.992187 2.933594.3125 12.164063-7.273437 14.695313zm31.886718-111.539063-30.503906 32.566406-80.242188-237.449218c-3.859374-11.421875-14.773437-18.507813-26.253906-18.054688l-20.132812-59.566406c3 .191406 5.953125 1.042969 8.621094 2.574219 36.722656 21.117187 104.015624 73.496093 142.121093 187.035156 3.621094 10.785156 2.433594 22.597656-3.257812 32.414063l-21.691407 37.417968c-1.328124 2.285156-1.351562 5.097656-.066406 7.40625s3.691406 3.773438 6.332032 3.851563l20.414062.605469c3.984375.117187 5.558594 3.164062 5.945312 4.09375.386719.929687 1.441407 4.195312-1.285156 7.105468zm-2.644531-42.660156 5.96875-10.296875c7.855469-13.542969 9.492187-29.839844 4.503906-44.710937-12.878906-38.375-29.019531-70.066407-46.261719-96.136719 9.777344-88.65625 46.828126-143.902344 68.195313-169.054688 1.996094-2.34375 4.484375-4.160156 7.242187-5.355469l1.179688 62.886719c-10.957031 3.453125-18.835938 13.808594-18.613281 25.867188l4.703125 250.59375zm54.902344 87.652344c-.074219.003906-11.808594 1.246094-11.808594-11.375l-5.878906-313.363282c-.117188-6.390624 4.984375-11.6875 11.375-11.808593.074219 0 11.8125-.628907 11.8125 11.375l5.875 313.363281c.121093 6.390625-4.980469 11.691406-11.375 11.808594zm0 0"/></svg>