<svg height="511pt" viewBox="0 -36 511.99886 511" width="511pt" xmlns="http://www.w3.org/2000/svg"><path d="m339.695312 354.300781-14.792968 4.691407c-6.910156 2.191406-14.46875.347656-19.59375-4.777344l-8.117188-8.121094c-10.828125-10.828125-15.132812-26.570312-11.316406-41.402344l18.675781-72.554687 72.554688-18.671875c14.828125-3.816406 30.574219.484375 41.398437 11.3125l79.742188 79.738281c11.371094 11.375 6.511718 30.765625-8.878906 35.433594l-41.566407 12.605469c-10.945312 3.320312-19.511719 11.886718-22.832031 22.835937l-12.605469 41.5625c-4.667969 15.394531-24.0625 20.253906-35.433593 8.878906l-19.523438-19.523437c-4.632812-4.632813-6.617188-11.292969-5.269531-17.710938l4.0625-19.371094c2.023437-9.652343-7.105469-17.90625-16.503907-14.925781zm0 0" fill="#b2e59c"/><path d="m304.550781 232.136719 72.554688-18.671875c14.828125-3.816406 30.574219.484375 41.398437 11.3125l79.742188 79.738281c11.371094 11.375 6.511718 30.765625-8.878906 35.433594l-41.566407 12.605469c-5.472656 1.660156-10.351562 4.632812-14.277343 8.558593zm0 0" fill="#c8efb9"/><path d="m394.648438 322.234375c7.609374-7.613281 7.609374-19.953125 0-27.566406l-245.523438-245.519531-27.566406 27.566406 245.523437 245.519531c7.609375 7.613281 19.953125 7.613281 27.566407 0zm0 0" fill="#dd9f80"/><path d="m229.308594 129.328125c-3.625 9.527344-9.636719 22.019531-19.472656 35.660156l77.261718 77.261719c8.355469-8.789062 17.070313-18.894531 25.148438-29.984375zm0 0" fill="#c68d6d"/><path d="m107.085938 8.078125 96.199218 7.542969c16.675782 1.308594 22.316406 22.9375 8.402344 32.222656l-34.171875 22.808594c-13.636719 9.105468-25.34375 20.8125-34.449219 34.453125l-22.808594 34.171875c-9.289062 13.910156-30.914062 8.269531-32.222656-8.40625l-7.542968-96.195313c-1.191407-15.15625 11.441406-27.789062 26.59375-26.597656zm0 0" fill="#c6c5ca"/><path d="m107.085938 8.078125 96.195312 7.542969c16.675781 1.308594 22.320312 22.9375 8.40625 32.222656l-34.171875 22.808594c-6.820313 4.554687-13.15625 9.757812-18.925781 15.527344l-70.929688-70.933594c4.902344-4.902344 11.847656-7.761719 19.425782-7.167969zm0 0" fill="#d8d7da"/><path d="m172.304688 354.300781 14.792968 4.691407c6.910156 2.191406 14.46875.347656 19.59375-4.777344l8.117188-8.121094c10.832031-10.828125 15.132812-26.570312 11.316406-41.402344l-18.675781-72.554687-72.554688-18.671875c-14.828125-3.816406-30.574219.484375-41.402343 11.3125l-79.738282 79.738281c-11.371094 11.375-6.511718 30.765625 8.878906 35.433594l41.566407 12.605469c10.945312 3.320312 19.511719 11.886718 22.832031 22.835937l12.605469 41.5625c4.667969 15.394531 24.0625 20.253906 35.4375 8.878906l19.519531-19.523437c4.636719-4.632813 6.617188-11.292969 5.273438-17.710938l-4.066407-19.371094c-2.023437-9.652343 7.105469-17.90625 16.503907-14.925781zm0 0" fill="#ff929f"/><path d="m207.449219 232.136719-72.554688-18.671875c-14.828125-3.816406-30.574219.484375-41.402343 11.3125l-79.738282 79.738281c-11.371094 11.375-6.511718 30.765625 8.878906 35.433594l41.566407 12.605469c5.472656 1.660156 10.351562 4.632812 14.277343 8.558593zm0 0" fill="#ff737d"/><path d="m117.351562 322.234375c-7.609374-7.613281-7.609374-19.953125 0-27.566406l245.523438-245.519531 27.5625 27.566406-245.519531 245.519531c-7.613281 7.613281-19.953125 7.613281-27.566407 0zm0 0" fill="#eab9a4"/><path d="m404.914062 8.078125-96.195312 7.542969c-16.675781 1.308594-22.320312 22.9375-8.40625 32.222656l34.171875 22.808594c13.636719 9.105468 25.34375 20.8125 34.449219 34.453125l22.808594 34.171875c9.289062 13.910156 30.917968 8.269531 32.222656-8.40625l7.546875-96.195313c1.1875-15.15625-11.445313-27.789062-26.597657-26.597656zm0 0" fill="#eaeaea"/><path d="m404.914062 8.078125-96.195312 7.542969c-16.675781 1.308594-22.320312 22.9375-8.40625 32.222656l34.171875 22.808594c6.820313 4.554687 13.15625 9.757812 18.925781 15.527344l70.929688-70.933594c-4.902344-4.902344-11.851563-7.761719-19.425782-7.167969zm0 0" fill="#d8d7da"/><path d="m503.546875 299.210938-79.738281-79.738282c-12.644532-12.644531-31.257813-17.730468-48.574219-13.273437l-46.484375 11.964843-34.578125-34.578124 26.601563-26.601563c2.929687-2.929687 2.929687-7.675781 0-10.605469-2.929688-2.929687-7.675782-2.929687-10.605469 0l-31.890625 31.890625c-.003906.003907-.011719.007813-.015625.015625-.003907.003906-.007813.011719-.015625.015625l-138.628906 138.628907c-4.675782 4.675781-12.285157 4.675781-16.960938 0-4.675781-4.675782-4.675781-12.28125 0-16.957032l216.53125-216.53125c6.230469 5.0625 11.898438 10.726563 16.957031 16.960938l-22.683593 22.683594c-2.929688 2.925781-2.929688 7.675781 0 10.605468 1.464843 1.464844 6.578124 3.980469 10.609374 0l20.945313-20.949218 20.488281 30.699218c4.785156 7.164063 12.917969 13.625 27.234375 10.359375 10.59375-2.417969 17.855469-11.515625 18.703125-22.34375l7.546875-96.195312c.734375-9.414063-2.667969-18.640625-9.347656-25.316407-6.675781-6.679687-15.910156-10.085937-25.316406-9.347656l-96.195313 7.546875c-10.828125.847657-19.601562 8.1875-22.34375 18.703125-2.738281 10.511719 1.328125 21.199219 10.363282 27.234375l30.695312 20.488281-70.84375 70.84375-70.84375-70.84375 30.695312-20.492187c9.039063-6.03125 13.105469-16.71875 10.363282-27.230469-2.742188-10.515625-11.515625-17.855468-22.34375-18.707031l-96.195313-7.542969c-9.414062-.738281-18.644531 2.667969-25.320312 9.34375-6.675781 6.679688-10.082031 15.90625-9.34375 25.320313l7.546875 96.191406c.847656 10.832031 8.058594 20.15625 18.703125 22.34375 12.6875 2.613281 22.453125-3.195313 27.234375-10.359375l20.488281-30.695312 70.84375 70.84375-34.574219 34.578124-46.488281-11.964843c-17.316406-4.457031-35.929687.628906-48.574219 13.269531l-41.828125 41.828125c-2.929687 2.929687-2.929687 7.679687 0 10.605469 1.464844 1.464844 6.652344 3.320312 10.609375 0l41.824219-41.824219c8.910156-8.90625 22.023437-12.492187 34.230469-9.351563l37.90625 9.753907-58.882813 58.882812c-8.683593 8.683594-10.195312 21.859375-4.550781 32.113281l-29.5 29.503907c-3.511719-2.425781-7.421875-4.328125-11.625-5.605469l-41.566406-12.601562c-4.683594-1.417969-8.1875-5.101563-9.378906-9.847657-1.1875-4.746093.167968-9.648437 3.628906-13.109375l13.992187-13.992187c2.929688-2.925781 2.929688-7.675781 0-10.605469-2.929687-2.929688-7.679687-2.929688-10.605469 0l-13.992187 13.992188c-7.222656 7.222656-10.054687 17.453124-7.570313 27.359374 2.480469 9.910157 9.796876 17.59375 19.574219 20.558594l41.566407 12.601563c8.566406 2.597656 15.234374 9.265625 17.832031 17.835937l12.601562 41.5625c2.964844 9.777344 10.589844 17.347656 20.558594 19.578125 12.609375 2.816407 21.859375-2.074219 27.359375-7.574219l19.519531-19.519531c6.449219-6.449219 9.183594-15.628906 7.308594-24.554687l-4.0625-19.371094c-.574219-2.730469.96875-4.476562 1.65625-5.101562.691406-.621094 2.582031-1.980469 5.242187-1.136719l14.792969 4.6875c9.617188 3.050781 20.027344.511719 27.160157-6.621094l8.121093-8.121094c12.644531-12.644531 17.730469-31.253906 13.273438-48.574219l-11.964844-46.484374 62.140625-62.144532 105.78125 105.78125c4.675781 4.675782 4.675781 12.28125 0 16.957032-4.679688 4.675781-12.285156 4.675781-16.960938 0l-90.136718-90.136719c-2.929688-2.929688-7.679688-2.929688-10.609375 0-2.929688 2.929687-2.929688 7.675781 0 10.605469l18.9375 18.9375-11.964844 46.488281c-4.457031 17.316406.628906 35.925781 13.273437 48.574219l8.121094 8.117187c7.136719 7.136719 17.542969 9.675781 27.160156 6.625l14.792969-4.691406c2.664063-.84375 4.550781.515625 5.242188 1.140625.6875.621094 2.230469 2.367187 1.65625 5.097656l-4.0625 19.371094c-1.875 8.925781.859375 18.105468 7.308593 24.554687l19.519532 19.519531c5.5 5.5 16.855468 10.316407 27.359375 7.574219 9.882812-2.582031 17.59375-9.800781 20.554687-19.574219l12.609375-41.566406c2.597657-8.570312 9.261719-15.238281 17.832031-17.835937l41.566407-12.601563c9.773437-2.964844 17.089843-10.652344 19.574219-20.558594 2.484374-9.910156-.347657-20.136718-7.570313-27.359374zm-87.054687-168.925782c-.523438 6.664063-5.902344 8.574219-7.535157 9-1.640625.425782-7.265625 1.386719-10.976562-4.171875l-22.808594-34.171875c-3.445313-5.164062-7.222656-10.035156-11.304687-14.613281l59.25-59.25c.773437 2.222656-6.625 103.207031-6.625 103.207031zm-116.191407-99.652344c.425781-1.636718 2.335938-7.011718 9.003907-7.535156 0 0 100.980468-7.398437 103.203124-6.625l-59.246093 59.25c-4.582031-4.082031-9.453125-7.859375-14.613281-11.304687l-34.171876-22.8125c-5.5625-3.710938-4.601562-9.335938-4.175781-10.972657zm-97.605469-7.535156c6.667969.523438 8.578126 5.898438 9.003907 7.535156.425781 1.636719 1.386719 7.261719-4.175781 10.972657l-34.171876 22.8125c-5.160156 3.445312-10.03125 7.222656-14.609374 11.304687l-59.25-59.25c1.804687-.625 103.203124 6.625 103.203124 6.625zm-88.675781 112.015625c-3.714843 5.5625-9.339843 4.597657-10.976562 4.171875-1.632813-.425781-7.011719-2.335937-7.535157-9 0 0-7.398437-100.984375-6.625-103.207031l59.25 59.25c-4.082031 4.578125-7.859374 9.449219-11.304687 14.613281zm41.832031-34.714843c5.0625-6.230469 10.730469-11.898438 16.960938-16.957032l72.582031 72.578125-16.960937 16.960938zm63.007813 206.164062c3.140625 12.203125-.441406 25.316406-9.351563 34.226562l-8.121093 8.121094c-3.15625 3.15625-7.765625 4.28125-12.023438 2.933594l-14.789062-4.691406c-6.988281-2.214844-14.402344-.601563-19.835938 4.3125-5.433593 4.914062-7.78125 12.132812-6.277343 19.304687l4.066406 19.371094c.828125 3.949219-.382813 8.011719-3.234375 10.867187l-19.523438 19.523438c-3.460937 3.460938-8.363281 4.816406-13.105469 3.625-4.75-1.1875-8.429687-4.691406-9.851562-9.375l-12.601562-41.566406c-1.277344-4.203125-3.179688-8.113282-5.605469-11.625l29.503906-29.503906c4.039063 2.226562 19.976563 7.589843 32.113281-4.546876l58.882813-58.882812zm198.929687 66.648438-12.605468 41.566406c-1.417969 4.683594-5.101563 8.191406-9.847656 9.378906-4.746094 1.1875-9.644532-.167969-13.105469-3.628906l-19.519531-19.519532c-2.855469-2.855468-4.066407-6.917968-3.234376-10.871093l4.0625-19.371094c1.503907-7.167969-.839843-14.386719-6.273437-19.300781-5.4375-4.917969-12.855469-6.53125-19.835937-4.316406l-14.792969 4.691406c-4.257813 1.351562-8.863281.226562-12.023438-2.933594l-8.117187-8.117188c-8.914063-8.910156-12.496094-22.027343-9.355469-34.230468l9.753906-37.90625 58.882813 58.882812c5.265625 5.261719 18.066406 12.605469 32.113281 4.546875l29.503906 29.503907c-2.425781 3.515624-4.328125 7.421874-5.605469 11.625zm78.777344-50.285157c-1.1875 4.746094-4.695312 8.425781-9.375 9.847657l-41.566406 12.601562c-4.203125 1.277344-8.113281 3.179688-11.625 5.605469l-29.5-29.503907c5.644531-10.253906 4.132812-23.429687-4.550781-32.113281l-58.882813-58.882812 37.90625-9.753907c12.207032-3.140624 25.320313.441407 34.230469 9.351563l79.738281 79.738281c3.460938 3.460938 4.816406 8.359375 3.625 13.109375zm0 0"/></svg>