<svg height="512pt" viewBox="0 0 512.00303 512" width="512pt" xmlns="http://www.w3.org/2000/svg"><path d="m399.773438 203.269531 18.484374 5.773438c9.164063 2.863281 19.175782.605469 26.226563-5.910157 15.132813-13.984374 27.246094-26.007812 36.085937-35.109374 12.21875-12.585938 19.957032-28.855469 21.917969-46.285157 3.886719-34.511719 1.371094-67.125-1.167969-87.261719-1.570312-12.433593-11.355468-22.226562-23.789062-23.792968-20.140625-2.539063-52.769531-5.054688-87.296875-1.164063-17.414063 1.960938-33.667969 9.691407-46.238281 21.898438-38.414063 37.300781-128.800782 132.84375-199.441406 267.917969l68.113281 68.109374c63.175781-33.042968 117.703125-70.402343 161.667969-104.742187 6.53125-5.101563 10.367187-12.90625 10.367187-21.191406v-27.164063c0-7.832031 7.59375-13.414062 15.070313-11.078125zm0 0" fill="#eaeaea"/><path d="m212.667969 367.445312c23.277343-12.175781 45.371093-24.929687 66.203125-37.910156-8.035156-21.699218-19.171875-43.925781-34.511719-61.894531-20.609375-24.140625-30.929687-51.300781-36.035156-74.042969-21.753907 31.722656-43.570313 67.109375-63.769531 105.734375zm0 0" fill="#d8d7da"/><path d="m493.5 18.503906c-4.203125-4.199218-9.761719-7.042968-15.984375-7.824218-20.136719-2.542969-52.742187-5.054688-87.246094-1.167969-17.433593 1.960937-33.703125 9.695312-46.285156 21.917969-38.421875 37.308593-128.796875 132.847656-199.425781 267.898437l34.058594 34.054687zm0 0" fill="#d8d7da"/><path d="m208.324219 193.597656c-21.753907 31.71875-43.566407 67.109375-63.765625 105.730469l34.058594 34.058594 65.742187-65.746094c-20.605469-24.136719-30.925781-51.304687-36.035156-74.042969zm0 0" fill="#c6c5ca"/><path d="m106.46875 483.050781 75.058594-97.015625-55.5625-55.558594-97.015625 75.054688c-26.335938 20.375-28.804688 59.238281-5.261719 82.78125s62.40625 21.074219 82.78125-5.261719zm0 0" fill="#eab9a4"/><path d="m181.523438 386.035156-55.5625-55.5625-73.207032 56.640625zm0 0" fill="#dd9f80"/><path d="m157.898438 416.574219-141.050782 1.871093c-10.105468 15.050782-12.105468 34.195313-5.578125 50.914063h105.789063zm0 0" fill="#dd9f80"/><path d="m192.492188 423.5625c-20.546876-46.375-57.824219-83.183594-104.054688-104.054688-19.179688-8.660156-27.707031-31.226562-19.046875-50.40625 8.660156-19.175781 31.226563-27.703124 50.40625-19.046874 63.148437 28.515624 113.632813 78.996093 142.148437 142.148437 8.65625 19.179687.128907 41.746094-19.046874 50.40625-14.859376 6.707031-40.378907 3.582031-50.40625-19.046875zm0 0" fill="#ffcd00"/><path d="m240.785156 333.386719c0 34.339843-27.835937 62.175781-62.175781 62.175781-34.335937 0-62.171875-27.835938-62.171875-62.175781 0-34.335938 27.835938-62.171875 62.171875-62.171875 34.339844 0 62.175781 27.835937 62.175781 62.171875zm0 0" fill="#ffeb99"/><path d="m207.738281 333.386719c0 16.089843-13.042969 29.128906-29.128906 29.128906s-29.125-13.039063-29.125-29.128906c0-16.085938 13.039063-29.125 29.125-29.125s29.128906 13.039062 29.128906 29.125zm0 0" fill="#ff929f"/><path d="m290.117188 47.054688 4.75 8.683593c4.738281 8.664063 11.859374 15.789063 20.523437 20.527344l8.6875 4.75c8.890625 4.863281 8.890625 17.628906 0 22.492187l-8.6875 4.75c-8.664063 4.738282-15.785156 11.859376-20.523437 20.523438l-4.75 8.6875c-4.863282 8.890625-17.628907 8.890625-22.492188 0l-4.75-8.6875c-4.738281-8.664062-11.863281-15.785156-20.527344-20.523438l-8.683594-4.75c-8.890624-4.863281-8.890624-17.628906 0-22.492187l8.683594-4.75c8.664063-4.738281 15.789063-11.863281 20.527344-20.527344l4.75-8.683593c4.863281-8.890626 17.628906-8.890626 22.492188 0zm0 0" fill="#ffeb99"/><path d="m204.507812 307.488281c-14.28125-14.277343-37.515624-14.277343-51.796874 0-14.28125 14.28125-14.28125 37.519531 0 51.800781 5.246093 5.246094 11.867187 8.738282 19.140624 10.097657 4.070313.761719 7.988282-1.917969 8.75-5.992188.761719-4.070312-1.921874-7.988281-5.992187-8.75-4.285156-.800781-8.191406-2.863281-11.289063-5.964843-8.433593-8.429688-8.433593-22.148438 0-30.582032 8.429688-8.433594 22.152344-8.433594 30.582032 0 8.433594 8.429688 8.433594 22.152344 0 30.582032-2.929688 2.929687-2.929688 7.679687 0 10.609374 2.929687 2.925782 7.679687 2.925782 10.609375 0 14.277343-14.28125 14.277343-37.519531-.003907-51.800781zm0 0"/><path d="m268.78125 389.117188c-5.277344-11.679688-11.359375-23.058594-18.128906-33.960938 43.828125-25.164062 86.945312-54.238281 128.304687-86.546875 8.417969-6.574219 13.246094-16.449219 13.246094-27.097656v-27.164063c0-1.808594 1.050781-2.851562 1.675781-3.308594.625-.460937 1.929688-1.152343 3.65625-.613281l18.484375 5.777344c11.695313 3.652344 24.554688.753906 33.554688-7.5625 12.96875-11.984375 25.207031-23.894531 36.375-35.394531 13.339843-13.734375 21.859375-31.730469 23.992187-50.667969 3.917969-34.800781 1.523438-67.628906-1.179687-89.039063-2-15.839843-14.457031-28.296874-30.292969-30.296874-21.417969-2.703126-54.257812-5.097657-89.070312-1.175782-18.921876 2.128906-36.902344 10.644532-50.628907 23.972656-10.578125 10.269532-21.472656 21.421876-32.457031 33.210938-1.835938-2.199219-9.617188-15.796875-9.617188-15.796875-3.566406-6.515625-10.394531-10.566406-17.824218-10.566406-7.429688 0-14.261719 4.050781-17.828125 10.566406l-4.75 8.6875c-4.054688 7.417969-10.121094 13.488281-17.542969 17.542969l-8.6875 4.753906c-6.519531 3.5625-10.566406 10.394531-10.566406 17.824219 0 5.46875 2.5 13.8125 10.566406 17.824219l8.6875 4.75c4.429688 2.425781 8.363281 5.578124 11.691406 9.292968-35.136718 44.070313-66.585937 90.15625-93.601562 137.214844-10.894532-6.765625-22.285156-12.851562-33.957032-18.121094-22.917968-10.347656-49.980468-.121094-60.328124 22.796875-5.011719 11.101563-5.402344 23.488281-1.097657 34.882813 2.324219 6.152344 10.253907 18.847656 23.890625 25.441406 6.808594 3.289062 13.636719 6.628906 20.140625 10.488281l-81.132812 62.769531c-14.253907 11.027344-23.085938 27.667969-24.230469 45.65625-1.140625 17.988282 5.511719 35.613282 18.257812 48.359376 12.746094 12.742187 30.371094 19.398437 48.359376 18.253906 17.988281-1.140625 34.628906-9.972656 45.65625-24.230469l62.832031-81.210937c3.859375 6.523437 7.351562 13.273437 10.40625 20.171874 6.132812 13.863282 18.683593 21.234376 24.578125 23.488282 11.476562 4.382812 25.183594 4.136718 35.769531-.644532 22.917969-10.351562 33.140625-37.410156 22.796875-60.328124zm-114.601562 20.007812-119.667969 1.585938 20.832031-16.121094 88.65625-.742188c5.304688 3.035156 10.925781 5.3125 16.707031 6.839844zm-28.21875-30.125-51.015626.425781 36.324219-28.101562c2.691407 10.171875 7.675781 19.601562 14.691407 27.675781zm13.988281-6.949219c-10.324219-10.328125-16.011719-24.058593-16.011719-38.664062 0-14.601563 5.6875-28.332031 16.011719-38.660157 21.320312-21.316406 56.003906-21.316406 77.324219 0 21.316406 21.320313 21.316406 56.007813 0 77.324219-21.320313 21.316407-56.003907 21.316407-77.324219 0zm209.269531-335.253906c11.351562-11.023437 26.21875-18.066406 41.855469-19.824219 33.34375-3.757812 89.125 1.878906 90.773437 2.574219l-34.511718 34.511719c-2.929688 2.929687-2.929688 7.679687 0 10.609375 2.929687 2.925781 7.679687 2.925781 10.605468 0l34.515625-34.511719c.695313 1.648438 6.332031 57.410156 2.578125 90.742188-1.761718 15.65625-8.808594 30.535156-19.84375 41.898437-10.980468 11.304687-23.023437 23.023437-35.796875 34.828125-5.070312 4.6875-12.3125 6.320312-18.898437 4.261719l-18.484375-5.777344c-5.867188-1.832031-12.066407-.796875-17.019531 2.84375-4.949219 3.640625-7.789063 9.25-7.789063 15.394531v27.167969c0 5.992187-2.726563 11.5625-7.480469 15.277344-39.289062 30.6875-80.175781 58.410156-121.738281 82.574219 1.488281-17.429688-3.539063-35.3125-15.089844-49.652344l203.699219-203.699219c2.929688-2.925781 2.929688-7.675781 0-10.605469-2.929688-2.929687-7.679688-2.929687-10.609375 0l-203.699219 203.699219c-14.335937-11.554687-32.21875-16.582031-49.648437-15.09375 25.199219-43.34375 54.183593-85.832031 86.40625-126.613281 0 0 5.328125 14.019531 19.828125 14.234375 7.429687.109375 14.261718-4.050781 17.824218-10.566407l4.753907-8.6875c4.054687-7.421874 10.125-13.488281 17.542969-17.546874l8.6875-4.75c6.515624-3.566407 10.566406-10.394532 10.566406-17.824219 0-7.429688-4.050782-14.257813-10.566406-17.828125 0 0-9.5-5.234375-9.910157-5.472656 10.652344-11.417969 21.207031-22.214844 31.449219-32.164063zm-103.273438 64.878906-8.683593-4.75c-2.5-1.363281-2.765625-3.71875-2.765625-4.664062 0-.949219.269531-3.300781 2.765625-4.664063l8.683593-4.753906c9.941407-5.4375 18.070313-13.566406 23.507813-23.503906l4.75-8.6875c1.367187-2.496094 3.71875-2.707032 4.667969-2.765625 3.039062-.1875 4.664062 2.765625 4.664062 2.765625l4.75 8.6875c5.4375 9.9375 13.566406 18.066406 23.507813 23.503906l8.683593 4.753906c2.5 1.363282 2.769532 3.714844 2.769532 4.664063s-.273438 3.300781-2.769532 4.664062l-8.683593 4.75c-9.941407 5.4375-18.070313 13.566407-23.507813 23.507813l-4.75 8.6875c-1.367187 2.496094-3.71875 2.765625-4.667968 2.765625-.945313 0-3.296876-.269531-4.664063-2.765625l-4.75-8.6875c-5.433594-9.941406-13.5625-18.070313-23.507813-23.507813zm-154.421874 210.996094c-7.449219-3.363281-24.402344-20.148437-15.296876-40.484375 6.894532-15.398438 25.105469-22.238281 40.484376-15.296875 9.886718 4.464844 19.566406 9.546875 28.882812 15.152344-5.839844 3.140625-11.328125 7.15625-16.25 12.082031-10.441406 10.4375-17.140625 23.609375-19.472656 37.902344-5.964844-3.402344-12.101563-6.535156-18.347656-9.355469zm-25.734376 184.230469c-13.6875.835937-27.101562-4.195313-36.800781-13.894532-9.695312-9.699218-14.761719-23.113281-13.890625-36.800781.460938-7.21875 2.558594-14.144531 6.023438-20.316406l121.332031-1.609375-29.070313 37.578125h-67.191406c-4.144531 0-7.5 3.359375-7.5 7.5 0 2.070313 1.675782 7.449219 7.5 7.5h55.585938s-14.410156 18.722656-35.988282 20.042969zm174.023438-61.128906c-21.636719 10.101562-36.339844-5.941407-40.460938-15.25-2.78125-6.28125-5.902343-12.445313-9.304687-18.449219 13.863281-2.289063 27.164063-8.75 37.832031-19.417969 4.917969-4.917969 8.933594-10.402344 12.074219-16.238281 5.605469 9.320312 10.691406 18.980469 15.15625 28.871093 6.945313 15.378907-.007813 33.34375-15.296875 40.484376zm0 0"/></svg>