<svg height="512pt" viewBox="0 -76 512.00078 512" width="512pt" xmlns="http://www.w3.org/2000/svg"><path d="m20.710938 183.714844s-34.542969 75.703125 8.085937 98.488281c42.628906 22.78125 88.929687-20.582031 88.929687-20.582031l-31.136718-77.90625zm0 0" fill="#ba9280"/><path d="m106.242188 183.707031s-32.066407-44.351562-65.277344-30.609375c-11.652344 4.820313-18.9375 13.167969-23.480469 21.976563-9.207031 17.839843 2.21875 39.15625 22.175781 41.3125 22.3125 2.414062 51.539063-1.472657 66.582032-32.679688zm0 0" fill="#cca996"/><path d="m491.289062 183.714844s34.542969 75.703125-8.085937 98.488281c-42.625 22.78125-88.929687-20.582031-88.929687-20.582031l31.140624-77.90625zm0 0" fill="#cca996"/><path d="m405.761719 183.707031s32.0625-44.351562 65.273437-30.609375c11.65625 4.820313 18.9375 13.167969 23.480469 21.976563 9.207031 17.839843-2.214844 39.15625-22.175781 41.3125-22.3125 2.414062-51.539063-1.472657-66.578125-32.679688zm0 0" fill="#e0c1ad"/><path d="m391.839844 98.449219h-271.679688s-45.167968 42.21875-60.941406 110.03125c-14.960938 64.304687 28.578125 127.632812 93.902344 137.21875 29.6875 4.359375 65.070312 7.789062 102.878906 7.789062 37.8125 0 73.191406-3.429687 102.878906-7.789062 65.324219-9.589844 108.863282-72.914063 93.902344-137.21875-15.773438-67.8125-60.941406-110.03125-60.941406-110.03125zm0 0" fill="#efd4bf"/><path d="m371.617188 98.449219h-251.457032s-45.167968 42.21875-60.941406 110.03125c-14.960938 64.304687 28.578125 127.628906 93.902344 137.21875 11.84375 1.738281 24.597656 3.332031 38.046875 4.613281 5.945312-20.773438 22.988281-37.21875 44.976562-42.046875 29.074219-6.378906 43.949219-31.703125 43.949219-31.703125s-7.355469-19.945312-8.40625-19.21875c68.679688-16.785156 93.375-122.34375 99.929688-158.894531zm0 0" fill="#e0c1ad"/><path d="m256.109375 21.960938c-50.960937 0-92.011719 9.621093-122.390625 20.703124-41.824219 15.257813-56.402344 67.53125-28.164062 101.949219 26.644531 32.472657 72.613281 64.15625 150.554687 64.15625 77.183594 0 123.011719-31.070312 149.773437-63.214843 29.015626-34.855469 14.546876-87.710938-28.101562-103.152344-30.304688-10.972656-71.109375-20.441406-121.671875-20.441406zm0 0" fill="#fce6d4"/><path d="m268.332031 208.503906c-21.765625-14.824218-66.113281-47.667968-95.378906-87.203125-40.0625-54.113281 12.851563-92.882812 12.851563-92.882812-19.84375 3.765625-37.246094 8.832031-52.085938 14.246093-41.824219 15.257813-56.402344 67.53125-28.164062 101.949219 26.644531 32.476563 72.613281 64.15625 150.554687 64.15625 4.164063 0 8.242187-.089843 12.222656-.265625zm0 0" fill="#efd4bf"/><path d="m256 285.128906c-21.089844 0-38.183594-17.09375-38.183594-38.183594v-209.007812c0-16.808594 13.628906-30.4375 30.4375-30.4375h15.492188c16.8125 0 30.441406 13.628906 30.441406 30.4375v209.007812c0 21.089844-17.097656 38.183594-38.1875 38.183594zm0 0" fill="#dd9f80"/><path d="m271.6875 241.65625c0 8.664062-7.023438 15.6875-15.6875 15.6875s-15.6875-7.023438-15.6875-15.6875 7.023438-15.6875 15.6875-15.6875 15.6875 7.023438 15.6875 15.6875zm0 0" fill="#898890"/><path d="m91.277344 227.847656c-12.703125 0-24.628906 3.324219-34.96875 9.128906 1.351562 51.433594 38.21875 96.941407 90.484375 107.613282 10.035156-12.320313 16.058593-28.039063 16.058593-45.167969 0-39.53125-32.042968-71.574219-71.574218-71.574219zm0 0" fill="#b2785b"/><path d="m455.695312 236.988281c-10.34375-5.808593-22.285156-9.140625-34.992187-9.140625-39.527344 0-71.574219 32.042969-71.574219 71.574219 0 17.128906 6.027344 32.851563 16.0625 45.171875 52.269532-10.671875 89.152344-56.175781 90.503906-107.605469zm0 0" fill="#c68d6d"/><path d="m256 264.84375c12.785156 0 23.191406-10.398438 23.191406-23.1875 0-12.785156-10.40625-23.1875-23.191406-23.1875s-23.1875 10.402344-23.1875 23.1875c0 12.789062 10.402344 23.1875 23.1875 23.1875zm0-31.375c4.515625 0 8.191406 3.671875 8.191406 8.1875s-3.675781 8.191406-8.191406 8.191406-8.1875-3.675781-8.1875-8.191406 3.671875-8.1875 8.1875-8.1875zm0 0"/><path d="m504.199219 196.707031c2.023437-8.328125 1.027343-17.234375-3.019531-25.074219-6.171876-11.964843-15.351563-20.53125-27.277344-25.464843-11.355469-4.703125-23.882813-4.15625-36.59375 1.476562-4.257813-7.820312-8.546875-14.730469-12.519532-20.625 4.546876-13.375 5.492188-28.035156 1.1875-42.167969-14.042968-46.125-55.734374-53.011718-60.84375-54.582031-3.960937-1.21875-8.15625 1.003907-9.375 4.964844-1.21875 3.957031 1.007813 8.15625 4.964844 9.371094 4.878906 1.5 39.851563 6.675781 50.777344 44.167969 5.324219 18.273437.828125 37.320312-11.382812 51.984374-24.613282 29.566407-57.699219 48.5-98.433594 56.363282 0 0-.152344-163.101563-.445313-165 10.511719 1.261718 20.921875 2.882812 31.003907 5.117187 5.308593 1.175781 8.148437-2.253906 8.894531-5.78125.859375-4.050781-1.730469-8.03125-5.78125-8.894531-13.132813-2.78125-26.726563-4.867188-40.4375-6.214844-6.859375-9.871094-18.269531-16.347656-31.171875-16.347656h-15.492188c-12.910156 0-24.332031 6.488281-31.1875 16.371094-30.15625 2.980468-59.054687 9.449218-85.917968 19.25-22.347657 8.152344-38.78125 26.039062-45.078126 49.074218-3.917968 14.320313-3.425781 28.914063 1.15625 42.296876-3.972656 5.898437-8.269531 12.820312-12.53125 20.652343-12.710937-5.632812-25.238281-6.179687-36.597656-1.476562-11.925781 4.933593-21.105468 13.5-27.277344 25.464843-4.046874 7.839844-5.042968 16.746094-3.015624 25.074219-3.875 11.898438-7.964844 28.332031-7.80078175 44.398438.23437475 22.507812 8.96874975 39.003906 25.25781275 47.710937 9.359375 5.003906 25.703125 9.164063 40.589843 6.734375 1.222657 2.042969 28.074219 45.5625 86.179688 57.570313 35.210938 7.277344 70.554688 7.867187 103.96875 7.867187 33.417969 0 68.398438-2.644531 103.96875-7.867187 33.339844-4.894532 71.253906-28.28125 86.183594-57.574219 18.746094.269531 31.234375-1.730469 40.585937-6.730469 16.292969-8.707031 25.023438-25.203125 25.257813-47.710937.164062-16.066407-3.921875-32.5-7.796875-44.398438zm-36.03125-36.679687c8.558593 3.542968 27.820312 17.136718 19.578125 38.058594-5.230469 13.28125-23.574219 11.40625-27.074219 11.359374-.1875-.890624-.378906-1.777343-.582031-2.664062-3.953125-16.980469-9.710938-32.359375-16-45.757812 8.667968-3.691407 16.742187-4.03125 24.078125-.996094zm-242.851563-122.089844c0-12.644531 10.289063-22.9375 22.9375-22.9375h15.492188c12.648437 0 22.9375 10.292969 22.9375 22.9375v209.007812c0 16.917969-13.765625 30.683594-30.683594 30.683594-16.921875 0-30.6875-13.765625-30.6875-30.683594v-209.007812zm-124.777344 50.710938c5-18.28125 18.027344-32.472657 35.75-38.9375 23.367188-8.523438 48.375-14.414063 74.46875-17.5625-.289062 1.890624-.441406 164.925781-.441406 164.925781-41.058594-7.96875-74.324218-27.1875-98.960937-57.21875-11.832031-14.417969-15.773438-33.082031-10.816407-51.207031zm-56.707031 71.378906c7.53125-2.519532 15.414063-2.695313 24.082031.996094-6.292968 13.398437-11.605468 26.265624-16.582031 48.421874-14.703125 1.3125-23.777343-5.222656-27.078125-11.359374-3.308594-6.15625-2.625-30.632813 19.578125-38.058594zm-11.5 115.558594c-21.039062-11.242188-18.949219-39.988282-13.980469-61.023438 5.582032 5.125 17.792969 9.820312 30.839844 9.898438-1.515625 19.375 1.71875 38.890624 9.359375 56.753906-9.425781.527344-18.210937-1.347656-26.21875-5.628906zm127.34375 63.472656c6.933594-11.980469 10.679688-25.683594 10.679688-39.636719 0-43.601563-35.472657-79.074219-79.078125-79.074219-1.667969 0-12.5625.304688-12.027344 8.113282.539062 7.804687 10.671875 6.886718 12.027344 6.886718 35.332031 0 64.078125 28.742188 64.078125 64.074219 0 13.160156-4.105469 26.042969-11.621094 36.765625-24.953125-6.304688-47.027344-21.605469-61.640625-43.046875-16.765625-24.597656-22.292969-54.058594-15.570312-82.960937 6.417968-27.582032 17.972656-50.71875 28.382812-67.449219 20.828125 35.28125 69.527344 61.316406 115.410156 69.601562v34.613281c0 25.191407 20.492188 45.683594 45.683594 45.683594s45.6875-20.492187 45.6875-45.683594v-34.574218c45.511719-8.175782 92.589844-35.554688 115.472656-69.539063 10.386719 16.71875 21.914063 39.816407 28.320313 67.347657 1.160156 4.984374 1.945312 9.988281 2.378906 14.980468-8.667969-3.167968-17.875-4.8125-27.15625-4.8125-43.601563 0-79.074219 35.472656-79.074219 79.074219 0 13.953125 3.746094 27.65625 10.683594 39.636719-32.960938 4.597656-65.335938 6.929687-96.3125 6.929687s-63.355469-2.332031-96.324219-6.929687zm208.578125-2.867188c-7.515625-10.726562-11.625-23.609375-11.625-36.769531 0-35.332031 28.746094-64.074219 64.074219-64.074219 9.445313 0 18.796875 2.105469 27.304687 6.113282-1.277343 18.269531-7.390624 35.96875-18.101562 51.679687-14.617188 21.445313-36.695312 36.75-61.652344 43.050781zm111.414063-60.605468c-8 4.28125-16.792969 6.152343-26.21875 5.625 7.644531-17.863282 10.875-37.375 9.359375-56.75 13.972656.726562 25.257812-4.773438 30.839844-9.898438 4.96875 21.035156 7.058593 49.78125-13.980469 61.023438zm0 0"/></svg>