<svg height="512pt" viewBox="0 0 512.00025 512" width="512pt" xmlns="http://www.w3.org/2000/svg"><path d="m402.46875 496.703125c-162.519531-89.34375-295.648438-222.472656-384.992188-384.992187l26.289063-14.453126c86.597656 157.523438 215.632813 286.554688 373.15625 373.152344zm0 0" fill="#eaeaea"/><path d="m62.085938 163.492188c-38.65625-11.859376-62.9375-53.625-51.96875-89.378907 11.351562-37.003906 50.695312-57.875 87.699218-46.527343.003906 0 .007813.007812.007813.011718l-26.449219 39.226563c-9.808594 2.078125-18.238281 9.277343-21.382812 19.523437-4.21875 13.75 7.832031 32.207032 24.328124 37.269532 19.589844 6.007812 51.746094 5.113281 75.296876-8.238282 30.410156-17.230468 65.871093-22.226562 99.855468-14.070312 33.992188 8.148437 63.316406 28.699218 82.59375 57.851562l19.578125 29.605469-34.792969 23.007813-19.578124-29.605469c-20.777344-39.171875-83.476563-55.214844-127.089844-30.496094-30.808594 17.453125-74.246094 22.207031-108.097656 11.820313zm0 0" fill="#c68d6d"/><path d="m199.132812 141.410156c38.792969-6.839844 81.65625 9.679688 98.140626 40.757813l19.578124 29.605469 34.792969-23.007813-19.578125-29.605469c-19.277344-29.152344-48.601562-49.703125-82.59375-57.855468-13.199218-3.164063-26.613281-4.347657-39.875-3.601563-8.375 15.945313-10.742187 31.097656-10.464844 43.707031zm0 0" fill="#b2785b"/><path d="m121.578125 125.261719c-17.214844 3.214843-34.777344 2.1875-47.261719-1.640625-16.496094-5.0625-28.542968-23.523438-24.328125-37.269532 3.144531-10.246093 11.574219-17.445312 21.382813-19.523437l26.449218-39.226563c0-.003906 0-.011718-.007812-.011718-37.003906-11.347656-76.34375 9.523437-87.699219 46.527344-2.996093 9.769531-3.359375 19.972656-1.519531 29.902343 42.300781 52.347657 112.984375 21.242188 112.984375 21.242188zm0 0" fill="#b2785b"/><path d="m105.113281 36.214844c0 15.859375-12.859375 28.71875-28.71875 28.71875-15.863281 0-28.722656-12.859375-28.722656-28.71875 0-15.863282 12.859375-28.722656 28.722656-28.722656 15.859375 0 28.71875 12.859374 28.71875 28.722656zm0 0" fill="#9ad880"/><path d="m50.191406 82.453125-23.453125-27.28125c-6.816406-7.933594-5.914062-19.886719 2.019531-26.703125 7.929688-6.820312 19.886719-5.914062 26.703126 2.015625l23.449218 27.285156c6.816406 7.929688 5.914063 19.886719-2.015625 26.703125-7.929687 6.816406-19.886719 5.914063-26.703125-2.019531zm0 0" fill="#eab9a4"/><path d="m348.503906 449.910156c11.859375 38.65625 53.625 62.9375 89.378906 51.96875 37.007813-11.351562 57.875-50.695312 46.527344-87.699218 0-.003907-.003906-.007813-.007812-.003907l-39.035156 25.425781c-1.78125 10.242188-9.117188 19.148438-19.71875 22.402344-13.746094 4.21875-32.207032-7.832031-37.265626-24.324218-6.011718-19.59375-5.113281-51.75 8.234376-75.300782 17.230468-30.410156 22.226562-65.871094 14.074218-99.855468-8.152344-33.992188-28.703125-63.316407-57.855468-82.59375l-29.605469-19.578126-23.007813 34.792969 29.605469 19.578125c39.175781 20.777344 55.214844 83.476563 30.5 127.089844-17.457031 30.808594-22.207031 74.25-11.824219 108.097656zm0 0" fill="#c68d6d"/><path d="m370.582031 312.867188c6.84375-38.789063-9.675781-81.660157-40.753906-98.144532l-29.605469-19.578125 23.007813-34.792969 29.605469 19.578126c29.152343 19.277343 49.703124 48.601562 57.855468 82.59375 3.164063 13.199218 4.351563 26.617187 3.601563 39.878906-15.945313 8.371094-31.097657 10.746094-43.710938 10.464844zm0 0" fill="#b2785b"/><path d="m386.738281 390.398438c-3.214843 17.210937-2.191406 34.796874 1.636719 47.285156 5.0625 16.492187 23.523438 28.542968 37.269531 24.324218 10.601563-3.253906 17.9375-12.164062 19.71875-22.40625l39.035157-25.421874c.003906-.003907.007812 0 .007812.003906 11.347656 37.003906-9.523438 76.347656-46.527344 87.699218-9.769531 2.996094-19.960937 3.363282-29.894531 1.523438-52.347656-42.304688-21.246094-113.007812-21.246094-113.007812zm0 0" fill="#b2785b"/><path d="m504.503906 435.605469c0 15.859375-12.859375 28.71875-28.71875 28.71875-15.863281 0-28.722656-12.859375-28.722656-28.71875 0-15.863281 12.859375-28.722657 28.722656-28.722657 15.859375 0 28.71875 12.859376 28.71875 28.722657zm0 0" fill="#9ad880"/><path d="m429.542969 461.804688 27.285156 23.453124c7.929687 6.816407 19.886719 5.914063 26.703125-2.015624 6.816406-7.933594 5.914062-19.886719-2.019531-26.707032l-27.285157-23.449218c-7.929687-6.816407-19.886718-5.914063-26.703124 2.015624-6.816407 7.933594-5.914063 19.886719 2.019531 26.703126zm0 0" fill="#eab9a4"/><path d="m270.511719 177.515625-25.875-17.660156c-10.703125-7.304688-13.742188-21.75-6.894531-32.75l11.644531-18.699219c7.128906-11.449219 22.246093-14.851562 33.59375-7.558594l39.082031 25.113282zm0 0" fill="#dd9f80"/><path d="m336.664062 243.667969 17.660157 25.871093c7.304687 10.703126 21.746093 13.746094 32.746093 6.894532l18.699219-11.640625c11.449219-7.128907 14.851563-22.246094 7.5625-33.59375l-25.113281-39.085938zm0 0" fill="#dd9f80"/><path d="m382.867188 223.882812-9.988282 9.984376c-15.140625 15.140624-39.6875 15.140624-54.828125 0l-37.742187-37.742188c-15.140625-15.140625-15.140625-39.6875 0-54.824219l9.988281-9.988281c15.140625-15.140625 39.6875-15.140625 54.824219 0l37.746094 37.746094c15.140624 15.136718 15.140624 39.683594 0 54.824218zm0 0" fill="#ffde55"/><path d="m315.085938 112.5625-28.050782-18.023438c-17.105468-8.90625-31.082031-2.03125-34.121094-.105468-35.714843-10.367188-74.925781-3.75-106.992187 14.421875-21.476563 12.171875-51.789063 12.996093-69.402344 7.589843-9.695312-2.972656-17.890625-12.386718-19.574219-21.011718 1.808594.539062 15.535157 3.203125 24.835938-5.273438 10.148438-9.246094 9.21875-19.894531 9.195312-20.804687 4.121094-1.824219 7.847657-4.394531 10.992188-7.539063 5.265625-5.269531 8.925781-12.136718 10.171875-19.773437 1.558594-9.546875-.699219-19.132813-6.347656-26.984375-5.652344-7.851563-14.019531-13.035156-23.570313-14.59375-14.316406-2.335938-28.738281 4.296875-36.414062 16.347656-.894532-.160156-13.363282-2.191406-21.941406 5.96875-11.539063 10.972656-9.160157 22.863281-8.703126 25.183594-5.4375 7.195312-9.542968 15.234375-12.21875 23.949218-9.710937 31.660157 5.390626 67.507813 33.5625 87.261719 16.667969 26.941407 34.820313 53.351563 53.988282 78.511719 2.507812 3.296875 8.210937 3.679688 11.277344.753906 2.671874-2.550781 2.957031-6.820312.65625-9.84375-15.429688-20.253906-27.753907-37.402344-40.640626-57.382812 6.6875 1.929687 13.710938 3.308594 20.917969 4.160156 68.023438 100.742188 153.460938 186.402344 254.011719 254.679688.894531 7.273437 2.335938 14.347656 4.335938 21.078124-84.597657-54.867187-156.1875-120.25-220.113282-198.992187-2.609375-3.21875-7.332031-3.707031-10.550781-1.097656-3.21875 2.613281-3.707031 7.335937-1.09375 10.550781 69.054687 85.066406 151.335937 157.519531 244.570313 215.375 7.054687 9.65625 16.132812 17.933594 26.597656 24.019531 18.855468 10.964844 40.585937 13.902344 59.621094 8.0625 8.714843-2.671875 16.753906-6.78125 23.949218-12.214843 2.320313.453124 15.539063 2.992187 25.1875-8.707032 5.261719-6.378906 7.3125-14.367187 5.949219-21.929687 2.230469-1.417969 4.273437-3.058594 6.109375-4.894531 8.097656-8.101563 12.160156-19.847657 10.253906-31.53125-3.214844-19.710938-21.867187-33.128907-41.578125-29.917969-12.203125 1.992187-22.429687 10.148437-27.3125 21.179687-7.691406-.210937-15.414062 2.90625-20.804687 9.179688-6.078125 7.070312-7.742188 16.457031-5.265625 24.792968-12.828125-1.988281-19.113281-13.316406-21.019531-19.527343-5.402344-17.617188-4.582032-47.925781 7.589843-69.402344 2.042969-3.605469.777344-8.183594-2.828125-10.226563-3.601562-2.042968-8.175781-.777343-10.222656 2.828126-14.394531 25.398437-15.363281 60.070312-8.878906 81.199218 2.917968 9.511719 9.640625 18.261719 18.445312 24.011719 8.898438 5.808594 18.765625 7.792969 27.246094 5.539063l22.402344 19.25c-4.257813 2.527343-8.808594 4.550781-13.621094 6.027343-15.050781 4.617188-32.429688 2.179688-47.679688-6.6875-15.441406-8.976562-27.226562-23.667969-32.328124-40.308593-9.820313-32.003907-5.328126-73.074219 11.175781-102.199219 9.652343-17.035157 13.953125-37.414063 12.472656-58.308594 4.039063-.65625 8.015625-2.101563 11.707031-4.402344l14.28125-8.890625c3.039063 18.835938 1.929688 38.164063-3.320312 56.457032-1.144532 3.984374 1.085937 8.429687 5.136718 9.277343 6.539063 1.371094 8.917969-3.871093 9.28125-5.136719 6.648438-23.164062 7.347657-47.808593 2.082032-71.4375 2.570312-3.484374 12.59375-18.675781 1.144531-35.929687l-18.023437-28.046875c.714843-12.707031-3.761719-25.65625-13.449219-35.34375l-37.742188-37.742188c-9.683593-9.683593-22.632812-14.164062-35.339843-13.445312zm173.832031 306.386719c14.988281 11.347656 5.722656 29.09375-.570313 33.746093-.609375-.640624-30.617187-26.429687-31.339844-26.9375 3.058594-5.789062 16.921876-18.15625 31.910157-6.808593zm-55.703125 21.042969c4.109375-4.785157 11.34375-5.328126 16.128906-1.21875l27.285156 23.453124c4.78125 4.109376 5.230469 11.261719 1.214844 16.125-5.609375 6.800782-13.808594 3.210938-16.125 1.21875l-27.285156-23.453124c-4.78125-4.109376-5.328125-11.34375-1.21875-16.125zm-109.859375-211.425782-37.742188-37.742187c-12.191406-12.191407-12.191406-32.03125 0-44.222657l9.984375-9.984374c12.191406-12.191407 32.03125-12.191407 44.21875 0l37.746094 37.742187c12.191406 12.191406 12.191406 32.027344 0 44.21875l-9.988281 9.988281c-12.191407 12.191406-32.027344 12.191406-44.21875 0zm-44.429688-121.410156 16.855469 10.832031c-3.875 2.082031-7.519531 4.75-10.789062 8.019531l-9.984376 9.988282c-7.453124 7.453125-11.820312 16.835937-13.113281 26.554687l-13.027343-8.890625c-7.40625-5.054687-9.496094-14.976562-4.753907-22.589844l11.640625-18.699218c2.375-3.816406 6.105469-6.464844 10.496094-7.453125 4.386719-.988281 8.890625-.191407 12.675781 2.238281zm-185.308593-83.335938c12.535156 16.035157-1.585938 28.113282-7.378907 31.171876-.507812-.726563-26.292969-30.726563-26.9375-31.339844 4.652344-6.289063 21.78125-15.871094 34.316407.167968zm-37.738282 53.746094-23.453125-27.285156c-1.988281-2.316406-5.660156-10.398438 1.21875-16.125 6.882813-5.730469 14.136719-1.097656 16.128907 1.21875l23.449218 27.285156c1.992188 2.316406 5.835938 9.933594-1.214844 16.125-7.054687 6.1875-14.136718 1.097656-16.128906-1.21875zm-38.589844-1.253906c1.472657-4.8125 3.496094-9.363281 6.027344-13.621094l19.25 22.398438c-4.652344 17.542968 9.429688 39.523437 29.550782 45.695312 21.128906 6.480469 55.800781 5.511719 81.199218-8.882812 26.832032-15.203125 57.828125-20.328125 87.964844-14.675782 0 0-13.15625 22.296876-13.921875 25.65625-21.789063-2.035156-43.144531 2.210938-60.875 12.261719-29.125 16.503907-70.195313 20.992188-102.199219 11.175781-34.832031-10.683593-56.792968-48.070312-46.996094-80.007812zm336.515626 261.804688c-11.839844 20.886718-18.125 47.285156-18.199219 72.964843-91.722657-63.929687-170.347657-142.777343-234.027344-234.691406 25.46875-.179687 51.59375-6.460937 72.300781-18.195313 15.511719-8.789062 34.417969-12.339843 53.738282-10.210937 1.878906 7.109375 6.238281 13.59375 12.792968 18.066406l22.914063 15.640625c2.101562 7.230469 5.992187 14.046875 11.683593 19.738282l37.742188 37.742187c5.691406 5.691406 12.507812 9.582031 19.738281 11.683594l15.640625 22.914062c4.046875 5.929688 9.738282 10.054688 16.046875 12.179688 1.773438 18.773437-1.820312 37.078125-10.371093 52.167969zm53.21875-102.863282c2.429687 3.785156 3.226562 8.285156 2.238281 12.675782-.988281 4.390624-3.636719 8.117187-7.457031 10.496093l-18.695313 11.640625c-7.613281 4.742188-17.535156 2.652344-22.589844-4.753906l-8.894531-13.027344c9.71875-1.296875 19.105469-5.660156 26.558594-13.113281l9.984375-9.988281c3.269531-3.265625 5.9375-6.910156 8.023437-10.789063zm0 0"/></svg>