<svg height="512pt" viewBox="-1 0 512 512" width="512pt" xmlns="http://www.w3.org/2000/svg"><path d="m47.46875 366.210938-19.035156-23.191407c132.300781-108.585937 199.769531-270.4375 200.4375-272.058593l27.75 11.394531c-.710938 1.738281-17.867188 43.195312-52.210938 99.046875-31.71875 51.578125-84.695312 125.507812-156.941406 184.808594zm0 0" fill="#d8d7da"/><path d="m242.746094 29.292969s183.363281 31.578125 184.542968 198.785156c1.183594 167.210937-184.542968 134.152344-184.542968 134.152344s68.136718-50.765625 68.136718-123.964844c0-103.898437-68.136718-208.972656-68.136718-208.972656zm0 0" fill="#ccf8ff"/><path d="m242.746094 362.234375s124.476562 22.160156 168.96875-61.554687c-25.175782-100.824219-127.5-187.902344-127.5-187.902344 14.242187 36.527344 26.667968 81.109375 26.667968 125.488281 0 73.199219-68.136718 123.96875-68.136718 123.96875zm0 0" fill="#abebf4"/><path d="m376.253906 151.859375c-6.996094-29.226563-16.726562-54.839844-25.941406-75.144531-16.371094-12.164063-33.398438-21.414063-48.949219-28.375 8.316407 13.378906 32.78125 55.816406 45.941407 111.445312 9.234374 39.035156 11.1875 76.894532 5.792968 112.527344-4.730468 31.25-15.1875 60.949219-31.175781 88.683594 13.429687-2.582032 27.234375-6.714844 40.25-13.125 10.054687-22.882813 16.976563-46.839844 20.683594-71.691406 5.898437-39.578126 3.679687-81.40625-6.601563-124.320313zm0 0" fill="#ff929f"/><path d="m353.097656 272.3125c-4.730468 31.25-15.191406 60.949219-31.179687 88.683594 13.429687-2.582032 27.238281-6.714844 40.253906-13.125 10.054687-22.882813 16.976563-46.839844 20.679687-71.691406 1.902344-12.746094 2.960938-25.699219 3.175782-38.871094-10.128906-18.378906-21.785156-35.542969-33.527344-50.914063 4.550781 29.65625 4.757812 58.433594.597656 85.917969zm0 0" fill="#ff737d"/><path d="m262.914062 377.203125h-40.335937v-349.535156c0-11.140625 9.03125-20.167969 20.167969-20.167969 11.136718 0 20.167968 9.027344 20.167968 20.167969zm0 0" fill="#dd9f80"/><path d="m37.949219 354.617188 20.210937 70.191406c13.589844 47.191406 56.769532 79.691406 105.878906 79.691406h163.800782c49.105468 0 92.285156-32.5 105.875-79.691406l33.164062-115.171875-211.617187 72.824219zm0 0" fill="#dd9f80"/><path d="m215.382812 447.910156c24.429688-10.222656 37.03125-25.539062 37.03125-25.539062v-40.273438l-214.464843-27.480468 20.210937 70.191406c13.589844 47.191406 56.769532 79.691406 105.878906 79.691406h34.097657c-12.9375-19.101562-5.917969-46.894531 17.246093-56.589844zm0 0" fill="#c68d6d"/><path d="m263.796875 403.445312h-120.371094c-32.292969 0-64.484375-7.90625-93.101562-22.867187l-28.671875-14.984375c-12.910156-6.75-17.902344-22.683594-11.15625-35.59375 6.746094-12.90625 22.679687-17.898438 35.589844-11.152344l28.671874 14.988282c21.105469 11.03125 44.851563 16.863281 68.667969 16.863281h120.371094c40.328125 0 80.171875-10.535157 115.230469-30.464844l84.285156-47.917969c12.667969-7.199218 28.765625-2.765625 35.964844 9.890625 7.195312 12.664063 2.769531 28.765625-9.894532 35.964844l-84.289062 47.917969c-42.984375 24.4375-91.847656 37.355468-141.296875 37.355468zm0 0" fill="#eab9a4"/><path d="m236.238281 350.699219h-92.8125c-23.816406 0-47.5625-5.832031-68.667969-16.863281l-28.671874-14.988282c-12.910157-6.746094-28.84375-1.753906-35.589844 11.152344-6.746094 12.910156-1.753906 28.84375 11.15625 35.589844l28.671875 14.988281c28.617187 14.957031 60.808593 22.867187 93.101562 22.867187h92.8125zm0 0" fill="#dd9f80"/><path d="m209.558594 377.203125c0 26.496094-21.476563 47.972656-47.96875 47.972656-26.496094 0-47.972656-21.476562-47.972656-47.972656 0-26.492187 21.476562-47.96875 47.972656-47.96875 26.492187 0 47.96875 21.476563 47.96875 47.96875zm0 0" fill="#efd4bf"/><path d="m358.855469 377.203125c0 26.496094-21.476563 47.972656-47.972657 47.972656-26.492187 0-47.96875-21.476562-47.96875-47.972656 0-26.492187 21.476563-47.96875 47.96875-47.96875 26.496094 0 47.972657 21.476563 47.972657 47.96875zm0 0" fill="#efd4bf"/><path d="m284.207031 377.203125c0 26.496094-21.476562 47.972656-47.96875 47.972656-26.496093 0-47.972656-21.476562-47.972656-47.972656 0-26.492187 21.476563-47.96875 47.972656-47.96875 26.492188 0 47.96875 21.476563 47.96875 47.96875zm0 0" fill="#fce6d4"/><path d="m310.882812 395.175781c-9.90625 0-17.96875-8.0625-17.96875-17.972656 0-9.90625 8.058594-17.96875 17.96875-17.96875 9.910157 0 17.972657 8.0625 17.972657 17.96875 0 9.910156-8.0625 17.972656-17.972657 17.972656zm0 0" fill="#ff737d"/><path d="m236.238281 395.175781c-9.910156 0-17.972656-8.0625-17.972656-17.972656 0-9.90625 8.0625-17.96875 17.972656-17.96875 9.90625 0 17.96875 8.0625 17.96875 17.96875 0 9.910156-8.0625 17.972656-17.96875 17.972656zm0 0" fill="#ff929f"/><path d="m161.589844 395.175781c-9.910156 0-17.972656-8.0625-17.972656-17.972656 0-9.90625 8.0625-17.96875 17.972656-17.96875 9.90625 0 17.96875 8.0625 17.96875 17.96875 0 9.910156-8.0625 17.972656-17.96875 17.972656zm0 0" fill="#ff737d"/><path d="m236.238281 351.734375c-14.046875 0-25.472656 11.425781-25.472656 25.46875 0 14.046875 11.425781 25.472656 25.472656 25.472656 14.042969 0 25.46875-11.425781 25.46875-25.472656 0-14.042969-11.425781-25.46875-25.46875-25.46875zm0 35.941406c-5.773437 0-10.472656-4.695312-10.472656-10.472656 0-5.769531 4.695313-10.46875 10.472656-10.46875 5.769531 0 10.46875 4.695313 10.46875 10.46875s-4.695312 10.472656-10.46875 10.472656zm0 0"/><path d="m505.796875 278.503906c-9.230469-16.234375-29.949219-21.9375-46.1875-12.707031l-32.917969 18.714844c5.519532-16.679688 8.246094-35.585938 8.097656-56.484375-.027343-4.125-3.382812-7.445313-7.5-7.445313-.015624 0-.035156 0-.050781 0-4.144531.027344-7.480469 3.410157-7.449219 7.550781.191407 26.847657-4.667968 49.890626-14.433593 68.507813l-21.628907 12.296875c2.761719-10.402344 4.953126-20.988281 6.542969-31.648438 6.042969-40.535156 3.78125-83.324218-6.722656-127.175781-3.761719-15.714843-8.546875-31.429687-14.285156-46.988281 22.644531 22.910156 41.191406 53.238281 47.847656 93.148438.613281 3.667968 4.070313 6.832031 8.632813 6.160156 4.097656-.601563 6.84375-4.542969 6.164062-8.628906-17.988281-107.855469-114.960938-150.652344-161.492188-165.148438 0 0 .027344-28.65625-27.667968-28.65625-15.253906 0-27.667969 12.410156-27.667969 27.667969v55.652343c-64.828125 146.394532-163.890625 229.730469-163.890625 229.730469-19.8125-10.363281-38.6875-3.074219-47.339844 13.476563-8.648437 16.550781-2.222656 37.058594 14.328125 45.710937l20.0625 10.488281s9.875 45.328126 21.703125 66.492188c1.402344 2.515625 4.707032 5.75 10.128906 3.140625 3.730469-1.796875 5.25-6.566406 3.140626-10.132813-9.132813-15.425781-16.707032-50.273437-16.707032-50.273437 18.9375 8.695313 38.980469 14.46875 59.78125 17.203125 10.054688 14.214844 26.609375 23.519531 45.300782 23.519531 13.984374 0 27.191406-5.195312 37.339843-14.457031 9.859375 8.976562 22.957031 14.457031 37.3125 14.457031 14.351563 0 27.449219-5.480469 37.308594-14.457031 10.148437 9.261719 23.351563 14.457031 37.335937 14.457031 24.996094 0 46.179688-16.621093 53.085938-39.394531 34.832031-12.953125 83.261719-42.515625 83.261719-42.515625l-20.722657 71.96875c-6.214843 21.578125-18.980468 40.121094-36.921874 53.625-17.941407 13.503906-39.292969 20.640625-61.746094 20.640625h-163.800782c-28.140624 0-55.363281-11.742188-74.691406-32.21875-2.847656-3.011719-7.59375-3.144531-10.605468-.304688-3.011719 2.84375-3.148438 7.589844-.304688 10.601563 22.152344 23.464844 53.351562 36.921875 85.601562 36.921875h163.800782c25.734375 0 50.207031-8.179688 70.769531-23.65625 20.558594-15.476562 35.191406-36.730469 42.3125-61.460938l24.972656-86.730468 27.195313-15.460938c16.238281-9.230468 21.9375-29.953125 12.707031-46.1875zm-130.363281-3.429687c-2.230469 14.976562-5.726563 29.796875-10.367188 44.113281-6.164062 3.089844-12.476562 5.910156-18.90625 8.429688 6.726563-17.476563 11.550782-35.65625 14.351563-54.179688 5.535156-36.585938 3.550781-75.40625-5.90625-115.375-9.109375-38.492188-23.347657-70.5625-34.488281-91.871094 8.039062 4.515625 16.203124 9.667969 24.214843 15.53125 10.558594 23.5625 18.847657 47.738282 24.628907 71.882813 10.054687 41.972656 12.230468 82.84375 6.472656 121.46875zm-79.21875-220.78125c8.480468 13.960937 31.394531 54.832031 43.789062 107.222656 9.015625 38.09375 10.925782 74.996094 5.675782 109.675781-2.8125 18.601563-7.789063 36.832032-14.796876 54.289063-6.210937-2.410157-12.949218-3.746094-19.996093-3.746094-8.613281 0-16.933594 1.980469-24.425781 5.65625 16.707031-22.753906 31.925781-53.308594 31.925781-89.125 0-36.34375-8.363281-96.089844-47.972657-174.777344v-19.082031c7.625 2.511719 16.398438 5.757812 25.800782 9.886719zm-25.800782 44.527343c26.835938 61.914063 32.96875 109.222657 32.96875 139.445313 0 34.683594-16.277343 64.25-32.96875 85.449219zm-27.667968-83.820312c6.984375 0 12.667968 5.683594 12.667968 12.667969v297.488281c-11.300781-5.007812-23.3125-3.296875-25.335937-3.070312v-294.417969c0-6.984375 5.683594-12.667969 12.667969-12.667969zm-43.820313 321.195312c-10.148437-9.265624-23.355469-14.460937-37.335937-14.460937-16.820313 0-31.90625 7.535156-42.089844 19.398437-8.734375-1.511718-17.253906-3.816406-25.480469-6.898437 52.929688-52.363281 92.515625-109.449219 116.777344-148.902344 1.4375-2.335937 2.863281-4.679687 4.28125-7.035156v147.640625c-5.980469 2.476562-11.4375 5.964844-16.152344 10.257812zm16.152344-219.1875v31.226563s-11.5 20.199219-17.058594 29.242187c-24.46875 39.785157-64.78125 97.8125-118.769531 150.230469-.339844-.175781-14.007812-7.308593-14.007812-7.308593 73.65625-70.265626 123.421874-152.757813 149.835937-203.390626zm-161.28125 256.925782-28.671875-14.988282c-9.222656-4.820312-12.800781-16.246093-7.980469-25.46875 4.820313-9.222656 16.242188-12.800781 25.46875-7.984374l28.671875 14.988281c12.507813 6.539062 25.789063 11.320312 39.601563 14.265625-3.054688 6.871094-4.769531 14.46875-4.769531 22.460937 0 5.382813.789062 10.585938 2.226562 15.511719-19.054688-3.503906-37.34375-9.792969-54.546875-18.785156zm67.320313 3.269531c0-22.3125 18.15625-40.46875 40.472656-40.46875 10.410156 0 20.234375 3.953125 27.699218 10.980469-2.929687 4.644531-5.191406 9.746094-6.640624 15.179687-4.589844-6.730469-12.316407-11.160156-21.058594-11.160156-14.046875 0-25.472656 11.425781-25.472656 25.46875 0 14.046875 11.425781 25.472656 25.472656 25.472656 8.742187 0 16.46875-4.429687 21.058594-11.160156 1.449218 5.433594 3.710937 10.535156 6.640624 15.179687-7.464843 7.027344-17.285156 10.980469-27.699218 10.980469-22.316406 0-40.472656-18.15625-40.472656-40.472656zm50.941406 0c0 5.773437-4.695313 10.472656-10.46875 10.472656-5.773438 0-10.472656-4.695312-10.472656-10.472656 0-5.769531 4.699218-10.46875 10.472656-10.46875 5.773437 0 10.46875 4.699219 10.46875 10.46875zm64.179687 40.472656c-22.316406 0-40.472656-18.15625-40.472656-40.472656 0-22.3125 18.15625-40.46875 40.472656-40.46875 22.3125 0 40.46875 18.15625 40.46875 40.46875 0 22.316406-18.15625 40.472656-40.46875 40.472656zm74.644531 0c-10.414062 0-20.234374-3.953125-27.695312-10.980469 2.925781-4.644531 5.1875-9.746093 6.640625-15.179687 4.585937 6.730469 12.3125 11.160156 21.058594 11.160156 14.042969 0 25.46875-11.425781 25.46875-25.46875 0-14.046875-11.425781-25.472656-25.46875-25.472656-8.746094 0-16.472657 4.429687-21.058594 11.160156-1.453125-5.429687-3.714844-10.535156-6.640625-15.179687 7.460938-7.027344 17.285156-10.980469 27.695312-10.980469 22.316407 0 40.472657 18.15625 40.472657 40.472656 0 22.316407-18.15625 40.46875-40.472657 40.46875zm-10.46875-40.472656c0-5.769531 4.699219-10.46875 10.472657-10.46875 5.773437 0 10.46875 4.695313 10.46875 10.46875s-4.695313 10.472656-10.46875 10.472656c-5.773438 0-10.472657-4.699219-10.472657-10.472656zm185.261719-65.554687-84.285156 47.917968c-11.230469 6.386719-22.988281 12.003906-35.058594 16.78125-.203125-13.460937-5.226562-25.765625-13.414062-35.28125 10.261719-4.089844 20.253906-8.875 29.816406-14.3125l84.285156-47.917968c9.050781-5.144532 20.59375-1.96875 25.734375 7.078124 5.144532 9.050782 1.96875 20.59375-7.078125 25.734376zm0 0"/></svg>