<svg height="512pt" viewBox="-28 0 512 512" width="512pt" xmlns="http://www.w3.org/2000/svg"><path d="m411.636719 264.886719-20.214844-20.628907c-7.890625-8.054687-19.308594-11.59375-30.375-9.414062l-60.632813 11.929688c-11.066406 2.175781-20.289062 9.777343-24.542968 20.222656l-10.890625 26.746094c-6.050781 14.855468-7.621094 31.15625-4.527344 46.894531l14.246094 72.386719c4.464843 22.707031 26.492187 37.488281 49.199219 33.023437l90.914062-17.890625c22.703125-4.46875 37.488281-26.496094 33.019531-49.199219l-14.242187-72.386719c-3.097656-15.742187-10.726563-30.230468-21.953125-41.683593zm-65.167969 55.902343c-21.574219 4.246094-41.414062-4.238281-44.308594-18.949218-2.894531-14.710938 12.25-30.078125 33.828125-34.324219 21.574219-4.246094 41.410157 4.238281 44.308594 18.949219 2.890625 14.710937-12.25 30.078125-33.828125 34.324218zm0 0" fill="#fce6d4"/><path d="m359.347656 316.640625c-3.921875 1.816406-8.25 3.238281-12.878906 4.144531-21.574219 4.246094-41.410156-4.234375-44.304688-18.945312-2.894531-14.710938 12.246094-30.078125 33.824219-34.324219 2.40625-.476563 4.789063-.789063 7.132813-.953125-4.015625-10.101562-7.945313-18.804688-11.425782-25.945312l-31.28125 6.15625c-11.0625 2.175781-20.289062 9.777343-24.542968 20.222656l-10.890625 26.746094c-6.046875 14.855468-7.621094 31.15625-4.523438 46.894531l14.242188 72.386719c4.46875 22.703124 26.496093 37.488281 49.199219 33.019531l46.71875-9.191407c3.085937-45.285156-2.644532-86.269531-11.269532-120.210937zm0 0" fill="#efd4bf"/><path d="m311.597656 277.898438c-17.890625-59.753907-67.808594-71.070313-69.925781-71.523438l.226563.046875 9.65625-49.710937c3.320312.648437 81.65625 16.835937 108.554687 106.664062 4.011719 13.394531-3.453125 28.027344-16.992187 31.515625-17.355469 4.472656-28.507813-6.9375-31.519532-16.992187zm0 0" fill="#dd9f80"/><path d="m256.699219 111.023438h-186.476563v-65.515626c0-20.992187 17.015625-38.007812 38.007813-38.007812h110.460937c20.992188 0 38.007813 17.015625 38.007813 38.007812zm0 0" fill="#dd9f80"/><path d="m172.835938 7.5h-64.605469c-20.988281 0-38.003907 17.015625-38.003907 38.007812v65.515626h64.601563v-65.515626c0-20.992187 17.015625-38.007812 38.007813-38.007812zm0 0" fill="#c68d6d"/><path d="m271.183594 181.394531h-215.441406l-28.007813 52.757813c-13.285156 25.027344-20.234375 52.933594-20.234375 81.269531v116.9375c0 39.839844 32.300781 72.140625 72.140625 72.140625h167.640625c39.84375 0 72.144531-32.300781 72.144531-72.140625v-116.9375c0-28.335937-6.949219-56.242187-20.238281-81.269531zm0 0" fill="#abebf4"/><path d="m295.023438 226.300781-23.839844-44.90625h-215.441406l-28.007813 52.757813c-13.285156 25.027344-20.234375 52.933594-20.234375 81.269531v116.9375c0 39.839844 32.300781 72.140625 72.140625 72.140625h28.953125c-20.789062-45.640625-21.457031-109.386719-17.855469-156.789062 2.582031-33.96875 28.992188-61.5 62.878907-64.992188 87.015624-8.964844 141.40625-56.417969 141.40625-56.417969zm0 0" fill="#8ed7e8"/><path d="m244.40625 166.523438h-161.886719c-25.078125 0-45.410156-20.332032-45.410156-45.410157s20.332031-45.410156 45.410156-45.410156h161.886719c25.078125 0 45.410156 20.332031 45.410156 45.410156s-20.332031 45.410157-45.410156 45.410157zm0 0" fill="#ccf8ff"/><path d="m108.59375 121.113281c0-25.078125 20.332031-45.410156 45.410156-45.410156h-71.484375c-25.078125 0-45.410156 20.332031-45.410156 45.410156s20.332031 45.410157 45.410156 45.410157h71.484375c-25.078125 0-45.410156-20.332032-45.410156-45.410157zm0 0" fill="#abebf4"/><path d="m275.449219 206.074219h-223.976563c-13.628906 0-24.679687-11.046875-24.679687-24.679688 0-13.632812 11.050781-24.683593 24.679687-24.683593h223.976563c13.632812 0 24.683593 11.050781 24.683593 24.683593 0 13.628907-11.050781 24.679688-24.683593 24.679688zm0 0" fill="#eab9a4"/><path d="m120.789062 181.394531c0-13.632812 11.050782-24.683593 24.679688-24.683593h-93.996094c-13.628906 0-24.679687 11.050781-24.679687 24.683593 0 13.628907 11.050781 24.679688 24.679687 24.679688h93.996094c-13.628906 0-24.679688-11.050781-24.679688-24.679688zm0 0" fill="#dd9f80"/><path d="m319.425781 432.359375v-102.054687s-175.808593 40.144531-309.582031-43.308594c-1.554688 9.363281-2.34375 18.875-2.34375 28.425781v116.9375c0 39.839844 32.300781 72.140625 72.140625 72.140625h167.640625c39.84375 0 72.144531-32.300781 72.144531-72.140625zm0 0" fill="#8dc971"/><path d="m90.738281 347.710938c.625-8.21875 2.640625-16.058594 5.824219-23.277344-29.414062-8.132813-58.972656-20.128906-86.71875-37.4375-1.558594 9.363281-2.34375 18.875-2.34375 28.425781v116.9375c0 39.839844 32.296875 72.140625 72.140625 72.140625h28.953125c-20.789062-45.640625-21.457031-109.386719-17.855469-156.789062zm0 0" fill="#7fb762"/><path d="m319.425781 330.304688s-91.546875 5.75-152.757812-33.480469c-54.894531-35.179688-126.226563-82.359375-154.191407-18.816407-27.964843 63.542969 143.085938 148.933594 306.949219 52.296876zm0 0" fill="#9ad880"/><path d="m12.476562 278.007812c-13.652343 31.011719 20.109376 67.226563 77.296876 84.949219.261718-5.230469.589843-10.328125.964843-15.246093 2.394531-31.488282 25.253907-57.445313 55.574219-63.851563-51.027344-31.945313-109.222656-61.78125-133.835938-5.851563zm0 0" fill="#8dc971"/><path d="m99.4375 441.183594c0-13.183594-13.417969-23.867188-29.972656-23.867188-16.550782 0-29.972656 10.683594-29.972656 23.867188s13.421874 23.871094 29.972656 23.871094c16.554687 0 29.972656-10.6875 29.972656-23.871094zm0 0" fill="#ffa6bb"/><path d="m287.429688 441.183594c0-13.183594-13.417969-23.867188-29.972657-23.867188-16.550781 0-29.972656 10.683594-29.972656 23.867188s13.421875 23.871094 29.972656 23.871094c16.554688 0 29.972657-10.6875 29.972657-23.871094zm0 0" fill="#ffa6bb"/><path d="m181.78125 416.03125c-10.785156 8.367188-25.851562 8.367188-36.640625 0-3.273437-2.539062-7.984375-1.941406-10.523437 1.332031-2.539063 3.273438-1.941407 7.984375 1.332031 10.523438 8.097656 6.28125 17.804687 9.421875 27.511719 9.421875 9.707031 0 19.414062-3.140625 27.515624-9.421875 3.273438-2.539063 3.867188-7.25 1.328126-10.523438-2.539063-3.273437-7.25-3.871093-10.523438-1.332031zm0 0"/><path d="m82.804688 405.15625c-7.140626 0-13.738282 3.5625-17.660157 9.53125-2.273437 3.460938-1.308593 8.109375 2.152344 10.382812 3.460937 2.277344 8.109375 1.3125 10.386719-2.148437 1.636718-2.496094 4.125-2.765625 5.121094-2.765625.996093 0 3.441406.296875 5.125 2.765625 3.503906 5.144531 9.117187 2.984375 10.382812 2.148437 3.464844-2.273437 4.425781-6.921874 2.152344-10.382812-3.917969-5.96875-10.519532-9.53125-17.660156-9.53125zm0 0"/><path d="m244.117188 405.15625c-7.136719 0-13.738282 3.5625-17.65625 9.53125-2.277344 3.460938-1.3125 8.109375 2.148437 10.382812 3.460937 2.277344 8.113281 1.3125 10.386719-2.148437 1.640625-2.496094 4.128906-2.765625 5.121094-2.765625.996093 0 3.445312.296875 5.125 2.765625 3.503906 5.144531 9.117187 2.984375 10.386718 2.148437 3.460938-2.273437 4.425782-6.921874 2.148438-10.382812-3.917969-5.96875-10.519532-9.53125-17.660156-9.53125zm0 0"/><path d="m455.191406 377.507812-14.242187-72.390624c-3.390625-17.21875-11.671875-32.945313-23.957031-45.480469l-20.210938-20.628907c-23.90625-20.910156-42.753906-10.429687-42.753906-10.429687-11.507813-21.761719-27.308594-39.925781-47.191406-54.273437-2.328126-10.308594-9.613282-18.757813-19.21875-22.695313 6.242187-8.847656 9.695312-19.46875 9.695312-30.496094 0-22.175781-13.71875-41.199219-33.113281-49.050781v-26.554688c0-25.09375-20.414063-45.507812-45.507813-45.507812h-110.460937c-25.09375 0-45.507813 20.414062-45.507813 45.507812v26.550782c-19.394531 7.855468-33.113281 26.878906-33.113281 49.054687 0 11.023438 3.453125 21.648438 9.695313 30.496094-11.730469 4.808594-20.011719 16.34375-20.011719 29.785156 0 10.960938 5.511719 20.652344 13.90625 26.46875l-12.089844 22.769531c-13.808594 26.015626-21.109375 55.335938-21.109375 84.789063v116.9375c0 43.914063 35.726562 79.640625 79.640625 79.640625h167.640625c43.914062 0 79.644531-35.726562 79.644531-79.640625v-103.601563c2.773438.402344 11.046875 1.703126 20.992188-.613281 11.8125-2.746093 22.546875-7.785156 29.984375-15.332031 8.183594-8.300781 11.644531-18.175781 9.75-27.796875-1.925782-9.789063-9.09375-17.6875-19.921875-22.179687-.128907-.542969-4.609375-14.273438-7.117188-20.265626 0 0 12.105469-5.125 25.453125 6.9375l20.214844 20.625c10.230469 10.441407 17.128906 23.539063 19.949219 37.882813l14.246093 72.386719c3.660157 18.609375-8.5 36.730468-27.128906 40.394531l-65.386718 13.03125c-4.0625.8125-6.699219 4.761719-5.890626 8.820313.710938 3.570312 3.746094 6.710937 8.824219 5.890624l65.367188-13.027343c26.726562-5.257813 44.191406-31.277344 38.929687-58.003907zm-102.265625-111.980468c1.417969 4.742187.839844 9.925781-1.582031 14.226562-2.25 3.980469-5.832031 6.777344-10.097656 7.875-8.300782 2.136719-13.808594-.625-17.097656-3.570312-3.285157-18.609375-9.457032-36.703125-18.335938-53.421875l-12.085938-22.773438c5.4375-3.769531 9.671876-9.164062 11.972657-15.484375 22.335937 18.492188 38.210937 43.039063 47.226562 73.148438zm-275.199219-220.019532c0-16.824218 13.683594-30.507812 30.503907-30.507812h110.460937c16.824219 0 30.507813 13.683594 30.507813 30.507812v22.921876c-1.582031-.140626-169.894531-.140626-171.472657 0zm-26.253906 118.703126h148.960938c4.140625 0 7.5-3.355469 7.5-7.5 0-4.140626-3.359375-7.5-7.5-7.5h-143.347656c-7.933594-7.1875-12.476563-17.382813-12.476563-28.097657 0-20.902343 17.003906-37.910156 37.910156-37.910156h161.886719c20.902344 0 37.910156 17.007813 37.910156 37.910156 0 10.714844-4.546875 20.910157-12.480468 28.097657h-37.351563c-4.140625 0-7.5 3.359374-7.5 7.5 0 4.144531 3.359375 7.5 7.5 7.5h42.964844c9.476562 0 17.183593 7.710937 17.183593 17.183593 0 9.472657-7.707031 17.179688-17.183593 17.179688h-223.976563c-9.472656 0-17.179687-7.707031-17.179687-17.179688 0-9.476562 7.707031-17.183593 17.179687-17.183593zm228.152344 49.085937 12.9375 24.371094c12.667969 23.855469 19.359375 50.742187 19.359375 77.753906v7.617187c-22.226563.347657-92.40625-1.253906-141.207031-32.527343-67.390625-53.917969-116.832032-57.851563-140.6875-44.046875 1.355468-2.972656 2.796875-5.910156 4.332031-8.796875l12.9375-24.371094c1.367187.175781 230.960937.175781 232.328125 0zm-32.34375 283.703125h-167.640625c-35.644531 0-64.640625-28.996094-64.640625-64.640625v-107.292969c5.820312 8.144532 14.273438 16.019532 25.5 23.421875 3.457031 2.28125 8.109375 1.328125 10.390625-2.128906 2.277344-3.460937 1.324219-8.113281-2.132813-10.390625-22.476562-14.820312-40.652343-28.835938-29.417968-54.941406 5.902344-13.710938 14.210937-21.886719 25.054687-25.164063 39.640625-11.988281 118.226563 47.277344 118.226563 47.277344 40.902344 26.210937 93.902344 33.0625 126.773437 34.597656-82.945312 39.144531-163.472656 32.871094-214.0625 12.082031-3.835937-1.574218-8.214843.253907-9.789062 4.085938s.253906 8.214844 4.085937 9.789062c25.613282 10.523438 58.414063 17.566407 95.214844 17.566407 45 0 95.980469-10.542969 147.082031-38.121094v89.21875c0 35.644531-29 64.640625-64.644531 64.640625zm125.652344-209.085938c1.222656 6.214844-3.054688 11.671876-5.71875 14.371094-5.261719 5.34375-13.351563 9.40625-22.195313 11.144532-6.25 1.230468-12.519531 1.246093-18.125.109374-.039062-3.808593-.203125-7.613281-.488281-11.410156 2.898438.84375 7.089844 3.074219 18.582031.027344 19.734375-5.234375 21.742188-19.839844 22.453125-22.390625 2.972656 2.261719 4.882813 5.046875 5.492188 8.148437zm0 0"/></svg>