<svg height="512pt" viewBox="0 -68 512.0015 512" width="512pt" xmlns="http://www.w3.org/2000/svg"><path d="m132.203125 209.886719s-40.597656 21.675781-91.15625-10.710938c-16.027344-10.265625-36.667969 3.320313-33.152344 22.027344 5.945313 31.628906 20.605469 69.152344 55.136719 88.882813 72.242188 41.285156 138.414062 1.867187 138.414062 1.867187.28125-.964844-69.242187-102.066406-69.242187-102.066406zm0 0" fill="#9ad880"/><path d="m434.355469 45.230469c-42.492188-42.789063-107.6875-49.191407-156.972657-19.210938-14.621093 8.894531-32.933593 9.28125-47.511718.316407-49.222656-30.265626-114.523438-24.074219-157.167969 18.574218-49.894531 49.886719-49.894531 130.777344 0 180.667969l116.691406 116.695313c35.332031 35.332031 92.617188 35.332031 127.945313 0l115.714844-115.714844c49.925781-49.925782 51.054687-131.230469 1.300781-181.328125zm0 0" fill="#ff929f"/><path d="m345.5625 319.917969c-42.089844-19.359375-52.578125-75.09375-18.933594-106.941407 11.207032-10.613281 27.707032-19.210937 51.84375-22.980468 44.855469-6.996094 74.316406-21.894532 92.667969-35.222656 12.84375-9.328126 30.917969-1.015626 32.265625 14.800781 3.742188 43.867187.183594 111.273437-50.324219 139.867187-46.433593 26.285156-82.585937 21.945313-107.519531 10.476563zm0 0" fill="#b2e59c"/><path d="m503.40625 169.574219c-.675781-7.914063-5.539062-13.953125-11.839844-16.835938-11.457031 25.277344-38.195312 65.867188-96.722656 87.523438-43.203125 15.984375-68.109375 33.015625-82.332031 46.410156 6.296875 14.015625 17.523437 26.105469 33.050781 33.246094 24.9375 11.46875 61.085938 15.808593 107.519531-10.476563 50.507813-28.59375 54.066407-96 50.324219-139.867187zm0 0" fill="#9ad880"/><path d="m168.652344 169.769531c-40.714844-78.722656 10.652344-127.929687 46.855468-151.042969-47.007812-21.15625-104.191406-12.429687-142.804687 26.183594-49.890625 49.890625-49.894531 130.777344 0 180.667969l116.691406 116.695313c35.332031 35.332031 92.617188 35.332031 127.945313 0 0 0-105.671875-89.332032-148.6875-172.503907zm0 0" fill="#ff737d"/><path d="m253.1875 175.960938c-15.519531 0-28.101562-12.578126-28.101562-28.097657v-20.429687c0-4.238282 3.433593-7.671875 7.671874-7.671875h40.859376c4.234374 0 7.667968 3.433593 7.667968 7.671875v20.429687c0 15.519531-12.578125 28.097657-28.097656 28.097657zm0 0" fill="#57565c"/><path d="m189.167969 147.863281c0-13.183593-13.421875-23.867187-29.972657-23.867187-16.554687 0-29.972656 10.683594-29.972656 23.867187 0 13.179688 13.417969 23.867188 29.972656 23.867188 16.550782 0 29.972657-10.6875 29.972657-23.867188zm0 0" fill="#ffd9e8"/><path d="m377.152344 147.863281c0-13.183593-13.417969-23.867187-29.972656-23.867187-16.550782 0-29.972657 10.683594-29.972657 23.867187 0 13.179688 13.421875 23.867188 29.972657 23.867188 16.554687 0 29.972656-10.6875 29.972656-23.867188zm0 0" fill="#ffd9e8"/><path d="m326.339844 114.808594v12.453125c0 4.140625 3.359375 7.5 7.5 7.5 4.144531 0 7.5-3.359375 7.5-7.5v-12.453125c0-4.140625-3.355469-7.496094-7.5-7.496094-4.140625 0-7.5 3.355469-7.5 7.496094zm0 0"/><path d="m165.03125 114.808594v12.453125c0 4.140625 3.359375 7.5 7.5 7.5 4.144531 0 7.5-3.359375 7.5-7.5v-12.453125c0-4.140625-3.355469-7.496094-7.5-7.496094-4.140625 0-7.5 3.355469-7.5 7.496094zm0 0"/><path d="m510.878906 168.9375c-.867187-10.175781-6.925781-18.785156-16.207031-23.027344-5.285156-2.414062-10.957031-3.105468-16.386719-2.140625 1.082032-16.714843-.886718-33.605469-5.832031-49.460937-6.441406-20.660156-17.46875-38.953125-32.773437-54.363282-5.25-5.285156-10.953126-10.160156-16.953126-14.488281-3.355468-2.425781-8.046874-1.667969-10.46875 1.691407-2.425781 3.359374-1.667968 8.046874 1.691407 10.46875 5.335937 3.851562 10.410156 8.191406 15.085937 12.898437 26.550782 26.734375 38.648438 63.539063 33.363282 101.210937-16.5625 11.09375-43.882813 24.433594-85.078126 30.859376-23.4375 3.660156-42.226562 12.050781-55.847656 24.941406-17.523437 16.589844-25.304687 39.847656-21.351562 63.804687 3.207031 19.453125 13.949218 36.578125 29.601562 47.953125l-17.6875 17.683594c-32.347656 32.351562-84.988281 32.347656-117.335937 0l-55.601563-55.601562c-2.929687-2.929688-7.675781-2.929688-10.605468 0-2.929688 2.929687-2.929688 7.679687 0 10.609374l27.492187 27.492188c-24.03125 4.058594-55.964844 3.121094-89.234375-15.890625-33.097656-18.914063-46.265625-55.988281-51.484375-83.761719-1.0625-5.65625 1.144531-10.953125 5.910156-14.167968 3.785157-2.550782 9.929688-3.933594 15.824219-.15625 5.351562 3.429687 10.84375 6.421874 16.367188 8.941406 4.199218 5.789062 8.875 11.292968 14.027343 16.445312l38.527344 38.527344c1.464844 1.464844 6.644531 4.464844 10.605469 0 2.746094-3.101562 2.929687-7.679688 0-10.609375l-38.523438-38.523437c-22.714844-22.714844-35.222656-52.910157-35.222656-85.03125 0-32.121094 12.507812-62.320313 35.222656-85.03125 19.507813-19.511719 44.285156-31.433594 71.644532-34.476563 26.570312-2.960937 53.664062 3.074219 76.292968 16.988281 16.828125 10.34375 38.03125 10.230469 55.335938-.296875 31.957031-19.4375 71.855468-22.808593 106.730468-9.011719 3.851563 1.523438 8.210938-.363281 9.734376-4.214843 1.523437-3.851563-.367188-8.207031-4.21875-9.730469-39.214844-15.515625-84.089844-11.722656-120.039063 10.144531-12.476563 7.585938-27.683594 7.714844-39.683594.335938-25.464843-15.65625-55.941406-22.445313-85.8125-19.125-30.339843 3.378906-58.960937 17.152343-80.59375 38.78125-25.542969 25.546875-39.613281 59.511719-39.613281 95.636719 0 19.152343 3.957031 37.699218 11.480469 54.707031-8.75-3.25-18.445313-2.152344-26.476563 3.265625-9.734375 6.566406-14.433594 17.824218-12.261718 29.375 10.515624 55.945312 37.769531 82.003906 58.78125 94.011718 26.144531 14.9375 51.523437 19.839844 73.582031 19.839844 13.34375 0 25.476562-1.796875 35.820312-4.25l15.382813 15.382813c19.101562 19.101562 44.1875 28.652343 69.277344 28.652343 25.085937 0 50.175781-9.550781 69.273437-28.652343l20.519531-20.515625c14.738282 6.644531 29.375 9.320312 43.382813 9.320312 27.066406 0 51.773437-9.960937 70.230469-20.414062 24.253906-13.726563 40.761718-36.890625 49.070312-68.84375 5.847656-22.488282 7.542969-48.792969 5.035156-78.183594zm-179.09375 49.484375c11.242188-10.898437 27.4375-18.054687 47.847656-21.011719 63.976563-9.277344 98.953126-38.335937 100.605469-38.71875-12.351562 22.84375-38.015625 56.042969-88 74.535156-31.914062 11.8125-57.496093 25.421876-76.277343 40.539063-.40625-1.605469-6.324219-33.867187 15.824218-55.34375zm159.542969 24.925781c-7.851563 27.707032-21.355469 47.914063-41.941406 59.566406-36.542969 20.683594-70.417969 24.113282-100.691407 10.1875-11.519531-5.296874-20.828124-14.015624-26.878906-24.710937 22.007813-18.914063 52.917969-32.691406 75.628906-41.09375 55.316407-20.46875 83.371094-57.65625 96.644532-82.714844 1.011718 1.671875 8.90625 37.585938-2.761719 78.765625zm0 0"/><path d="m232.757812 112.261719c-8.363281 0-15.171874 6.808593-15.171874 15.171875v20.429687c0 19.628907 15.972656 35.597657 35.601562 35.597657s35.597656-15.96875 35.597656-35.597657v-20.429687c0-8.363282-6.804687-15.171875-15.167968-15.171875zm41.027344 35.601562c0 11.359375-9.238281 20.601563-20.597656 20.601563s-20.601562-9.242188-20.601562-20.601563v-20.429687c0-.09375 41.027343-.171875 41.027343-.171875.097657 0 .171875 20.601562.171875 20.601562zm0 0"/></svg>