<svg height="512pt" viewBox="0 -157 512 512" width="512pt" xmlns="http://www.w3.org/2000/svg"><path d="m412.996094 190.507812h-313.992188c-50.535156 0-91.503906-40.96875-91.503906-91.503906s40.96875-91.503906 91.503906-91.503906h313.992188c50.535156 0 91.503906 40.96875 91.503906 91.503906s-40.96875 91.503906-91.503906 91.503906zm0 0" fill="#898890"/><path d="m179.703125 99.003906c0-50.535156 40.96875-91.503906 91.503906-91.503906h-172.203125c-50.535156 0-91.503906 40.96875-91.503906 91.503906s40.96875 91.503906 91.503906 91.503906h172.203125c-50.535156 0-91.503906-40.96875-91.503906-91.503906zm0 0" fill="#77767c"/><path d="m469.335938 99.003906c0 31.113282-25.222657 56.339844-56.339844 56.339844-31.113282 0-56.339844-25.226562-56.339844-56.339844 0-31.117187 25.226562-56.339844 56.339844-56.339844 31.117187 0 56.339844 25.222657 56.339844 56.339844zm0 0" fill="#abebf4"/><path d="m397.5 99.003906c-19.375-14.710937-14.984375-37.246094-10.191406-50.15625-18.191406 9.34375-30.652344 28.300782-30.652344 50.15625 0 31.113282 25.226562 56.339844 56.339844 56.339844 4.273437 0 8.433594-.476562 12.433594-1.378906-2.148438-14.835938-8.59375-40.28125-27.929688-54.960938zm0 0" fill="#8ed7e8"/><path d="m110.21875 52.382812h-22.429688v93.242188h22.429688c16.632812 0 30.117188-20.875 30.117188-46.621094 0-25.75-13.484376-46.621094-30.117188-46.621094zm0 0" fill="#ffb600"/><path d="m117.90625 99.003906c0-25.75-13.484375-46.621094-30.117188-46.621094-16.632812 0-30.117187 20.871094-30.117187 46.621094 0 25.746094 13.484375 46.621094 30.117187 46.621094 16.632813 0 30.117188-20.875 30.117188-46.621094zm0 0" fill="#ffde55"/><path d="m412.996094 128.734375c4.144531 0 7.5-3.355469 7.5-7.5v-14.730469h14.734375c4.140625 0 7.5-3.359375 7.5-7.5 0-4.144531-3.359375-7.5-7.5-7.5h-14.734375v-14.734375c0-4.140625-3.355469-7.5-7.5-7.5-4.140625 0-7.5 3.359375-7.5 7.5v14.734375h-14.730469c-4.144531 0-7.5 3.355469-7.5 7.5 0 4.140625 3.355469 7.5 7.5 7.5h14.730469v14.730469c0 4.144531 3.359375 7.5 7.5 7.5zm0 0"/><path d="m202.882812 137.746094c4.144532 0 7.5-3.359375 7.5-7.5v-62.484375c0-3.035157-1.824218-5.769531-4.628906-6.929688-2.800781-1.160156-6.027344-.519531-8.171875 1.625l-25.835937 25.835938c-2.929688 2.929687-2.929688 7.679687 0 10.609375 2.929687 2.925781 7.675781 2.925781 10.605468 0l13.035157-13.035156v44.378906c-.003907 4.140625 3.355469 7.5 7.496093 7.5zm0 0"/><path d="m273.765625 112.722656v-27.441406c0-13.796875-11.226563-25.019531-25.023437-25.019531-13.796876 0-25.019532 11.226562-25.019532 25.019531v27.441406c0 13.796875 11.222656 25.023438 25.019532 25.023438 13.796874 0 25.023437-11.226563 25.023437-25.023438zm-35.042969 0v-27.441406c0-5.523438 4.496094-10.019531 10.019532-10.019531 5.527343 0 10.019531 4.496093 10.019531 10.019531v27.441406c0 5.527344-4.496094 10.023438-10.019531 10.023438-5.527344 0-10.019532-4.496094-10.019532-10.023438zm0 0"/><path d="m333.925781 112.722656v-27.441406c0-13.796875-11.226562-25.019531-25.023437-25.019531s-25.019532 11.226562-25.019532 25.019531v27.441406c0 13.796875 11.222657 25.023438 25.019532 25.023438s25.023437-11.226563 25.023437-25.023438zm-35.042969 0v-27.441406c0-5.523438 4.496094-10.019531 10.019532-10.019531 5.527344 0 10.019531 4.496093 10.019531 10.019531v27.441406c0 5.527344-4.496094 10.023438-10.019531 10.023438-5.527344 0-10.019532-4.496094-10.019532-10.023438zm0 0"/><path d="m412.996094 0h-313.992188c-17.238281 0-34.214844 4.5-49.097656 13.011719-3.59375 2.058593-4.839844 6.640625-2.785156 10.234375 2.058594 3.597656 6.640625 4.84375 10.234375 2.785156 12.617187-7.21875 27.015625-11.03125 41.648437-11.03125h313.992188c46.320312 0 84.003906 37.683594 84.003906 84.003906 0 46.316406-37.683594 84.003906-84.003906 84.003906h-313.992188c-46.320312 0-84.003906-37.6875-84.003906-84.003906 0-20.269531 7.316406-39.84375 20.605469-55.113281 2.71875-3.125 2.390625-7.863281-.734375-10.582031-3.125-2.714844-7.863282-2.386719-10.582032.734375-15.664062 18-24.289062 41.070312-24.289062 64.960937 0 54.589844 44.414062 99.003906 99.003906 99.003906h313.992188c54.59375 0 99.003906-44.414062 99.003906-99.003906 0-54.59375-44.410156-99.003906-99.003906-99.003906zm0 0"/><path d="m464.804688 122.421875c3.96875 1.199219 8.148437-1.058594 9.339843-5.023437 1.785157-5.945313 2.691407-12.132813 2.691407-18.394532 0-35.203125-28.636719-63.839844-63.839844-63.839844-35.199219 0-63.839844 28.636719-63.839844 63.839844 0 35.199219 28.640625 63.839844 63.839844 63.839844 14.75 0 29.140625-5.152344 40.515625-14.503906 3.199219-2.628906 3.660156-7.355469 1.03125-10.554688-2.632813-3.199218-7.355469-3.664062-10.558594-1.03125-8.699219 7.148438-19.703125 11.089844-30.988281 11.089844-26.929688 0-48.839844-21.910156-48.839844-48.839844 0-26.929687 21.910156-48.839844 48.839844-48.839844 26.929687 0 48.839844 21.910157 48.839844 48.839844 0 4.796875-.691407 9.535156-2.058594 14.078125-1.191406 3.96875 1.058594 8.148438 5.027344 9.339844zm0 0"/><path d="m110.21875 153.125c21.09375 0 37.617188-23.773438 37.617188-54.121094s-16.523438-54.121094-37.617188-54.121094h-22.402344c-.007812 0-.015625 0-.027344 0-21.09375 0-37.617187 23.769532-37.617187 54.121094 0 30.347656 16.523437 54.121094 37.617187 54.121094zm22.617188-54.121094c0 18.640625-8.007813 34.734375-18.269532 38.355469 6.730469-9.730469 10.839844-23.226563 10.839844-38.355469 0-15.132812-4.105469-28.625-10.839844-38.355468 10.261719 3.621093 18.269532 19.714843 18.269532 38.355468zm-67.664063 0c0-21.207031 10.355469-39.121094 22.617187-39.121094h.023438c12.25.019532 22.59375 17.925782 22.59375 39.121094 0 21.207032-10.355469 39.121094-22.617188 39.121094-12.261718 0-22.617187-17.914062-22.617187-39.121094zm0 0"/></svg>