<svg height="512pt" viewBox="0 -79 512.00192 512" width="512pt" xmlns="http://www.w3.org/2000/svg"><path d="m44.417969 205.5625c24.683593.21875 69.488281-4.488281 103.820312-50.90625 49.941407-67.507812 110.980469-146.835938 222.882813-104.398438s98.957031 180.835938 98.957031 180.835938-172.117187 176.65625-443.5625 40.769531c-18.65625-9.335937-24.789063-32.992187-12.992187-50.199219 0 0 11.183593-16.277343 30.894531-16.101562zm0 0" fill="#8ed7e8"/><path d="m180.90625 203.230469c-72.480469 94.699219-154.390625 68.636719-154.390625 68.636719 144.910156 72.542968 261.507813 56.011718 338.726563 24.839843l-4.863282-131.800781c0-.003906-106.992187-56.375-179.472656 38.324219zm0 0" fill="#7ac1dd"/><path d="m479.070312 176.507812c-15.417968-11.140624-34.144531-14.09375-51.132812-9.816406-9.511719 2.394532-19.667969.140625-27.074219-6.289062-14.902343-12.933594-35.027343-19.71875-56.144531-17.066406-22.761719 2.855468-41.695312 16.054687-52.683594 34.289062-4.339844 7.195312-12.457031 11.289062-20.757812 9.996094-14.746094-2.304688-30.378906.714844-43.804688 9.738281-27.714844 18.625-35.4375 56.601563-17.238281 84.597656 9.683594 14.894531 24.726563 24.210938 40.957031 27.058594 7.464844 1.3125 13.984375 5.933594 17.816406 12.476563 7.4375 12.703124 20.15625 22.210937 35.777344 25.0625 13.796875 2.519531 27.316406-.617188 38.171875-7.765626 8.378907-5.511718 19.152344-5.285156 27.570313.171876 13.871094 8.992187 31.765625 11.289062 48.242187 4.582031 17.589844-7.15625 29.175781-22.789063 31.972657-40.265625 1.433593-8.96875 7.433593-16.617188 15.824218-20.085938 11.347656-4.691406 21.429688-12.828125 28.527344-24.097656 17.167969-27.273438 10.09375-63.707031-16.023438-82.585938zm0 0" fill="#ccf8ff"/><path d="m132.714844 93.277344c-2.625 15.566406-21.140625 48.453125-36.703125 45.832031-15.566407-2.621094-22.289063-39.757813-19.667969-55.324219s17.363281-26.0625 32.929688-23.4375c15.566406 2.621094 26.0625 17.363282 23.441406 32.929688zm0 0" fill="#8ed7e8"/><path d="m212.308594 41.886719c-6.054688 11.4375-28.9375 32.253906-40.375 26.203125-11.4375-6.054688-7.09375-36.683594-1.042969-48.121094s20.230469-15.804688 31.667969-9.75c11.4375 6.050781 15.800781 20.230469 9.75 31.667969zm0 0" fill="#7ac1dd"/><g fill="#abebf4"><path d="m323.261719 245.09375c-24.675781-42.609375 10.957031-99.648438 10.957031-99.648438-18.054688 5.050782-32.9375 16.835938-42.183594 32.183594-4.339844 7.195313-12.457031 11.289063-20.757812 9.996094-14.746094-2.304688-30.378906.714844-43.804688 9.738281-27.714844 18.628907-35.4375 56.601563-17.238281 84.597657 9.683594 14.894531 24.726563 24.210937 40.957031 27.058593 7.464844 1.3125 13.984375 5.933594 17.816406 12.472657 7.4375 12.707031 20.15625 22.214843 35.777344 25.066406 13.796875 2.519531 27.316406-.621094 38.171875-7.765625 8.378907-5.511719 19.152344-5.285157 27.570313.171875 13.386718 8.675781 30.511718 11.117187 46.5 5.253906-5.785156-59.953125-71.714844-61.050781-93.765625-99.125zm0 0"/><path d="m390.292969 213.941406c0 9.082032-7.363281 16.441406-16.445313 16.441406-9.082031 0-16.441406-7.359374-16.441406-16.441406 0-9.082031 7.359375-16.445312 16.441406-16.445312 9.082032 0 16.445313 7.363281 16.445313 16.445312zm0 0"/><path d="m423.175781 262.878906c0 9.082032-7.359375 16.441406-16.441406 16.441406s-16.441406-7.359374-16.441406-16.441406c0-9.082031 7.359375-16.441406 16.441406-16.441406s16.441406 7.359375 16.441406 16.441406zm0 0"/><path d="m463.753906 220.339844c0 9.082031-7.363281 16.445312-16.445312 16.445312-9.078125 0-16.441406-7.363281-16.441406-16.445312 0-9.078125 7.363281-16.441406 16.441406-16.441406 9.082031 0 16.445312 7.363281 16.445312 16.441406zm0 0"/></g><path d="m483.460938 170.429688c-3.613282-2.609376-7.441407-4.820313-11.410157-6.667969-10.460937-46.46875-33.925781-82.785157-68.027343-105.179688-3.464844-2.273437-8.113282-1.3125-10.386719 2.152344-2.273438 3.460937-1.308594 8.109375 2.152343 10.382813 34.925782 22.9375 51.570313 58.167968 59.488282 87.316406-9.5625-1.730469-19.492188-1.453125-29.171875.988281-7.25 1.820313-14.847657.074219-20.328125-4.683594-17.035156-14.785156-39.632813-21.652343-61.992188-18.84375-9.019531 1.128907-17.605468 3.746094-25.488281 7.652344-23.839844-4.351563-46.617187-3.640625-67.734375 2.15625-29.457031 8.082031-54.898438 25.902344-75.613281 52.96875-10.851563 14.179687-22.589844 26.394531-34.878907 36.304687-3.226562 2.597657-4.09375 7.648438-1.132812 10.542969 3.996094 3.910157 9.160156 2.25 10.546875 1.132813 13.222656-10.660156 25.796875-23.734375 37.378906-38.863282 34.851563-45.539062 78.070313-54.371093 113.019531-51.570312-5.484374 5.0625-10.300781 10.945312-14.273437 17.535156-2.847656 4.730469-8.023437 7.257813-13.175781 6.457032-17.214844-2.6875-34.664063 1.191406-49.144532 10.925781-31.097656 20.902343-39.777343 63.476562-19.34375 94.910156 9.492188 14.597656 24.28125 25.070313 41.089844 29.296875-58.023437 2.679688-117.722656-8.492188-178.167968-33.328125 16.148437-1.609375 35.726562-6.441406 56.664062-17.910156 3.632812-1.988281 4.964844-6.546875 2.976562-10.179688-1.988281-3.632812-6.546874-4.960937-10.179687-2.976562-24.644531 13.5-47.09375 16.527343-61.582031 16.691406-13.675782.15625-23.097656-2.140625-25.40625-2.765625-6.6875-3.535156-11.585938-9.714844-13.484375-17.054688-1.945313-7.519531-.539063-15.507812 3.824219-21.871093.371093-.53125 8.660156-13.015625 26.203124-12.882813 45.4375.339844 81.898438-18.148437 108.382813-53.949218 22.621094-30.578126 50.773437-68.636719 86.25-91.59375 38.535156-24.9375 80.386719-28.289063 127.945313-10.253907 3.867187 1.464844 8.199218-.480469 9.671874-4.355469 1.46875-3.871093-.480468-8.199218-4.355468-9.671874-119.054688-45.148438-184.085938 42.765624-231.570313 106.953124-23.5 31.769532-55.910156 47.367188-96.351562 47.871094-26.800781.335938-37.96875 18.558594-38.519531 19.355469-6.84375 9.984375-9.03125 22.429687-6.003907 34.148437 2.996094 11.601563 10.820313 21.351563 21.476563 26.8125.039062.023438 97.175781 52.359376 205.292968 52.359376 12.324219 0 24.597657-.59375 36.792969-1.785157 8.996094 13.082031 23.441407 25.957031 49.371094 25.957031 11.589844 0 22.953125-3.375 32.8125-9.863281 5.746094-3.78125 13.347656-3.703125 19.367187.199219 16.425782 10.648438 37.042969 12.605469 55.148438 5.238281 19.546875-7.957031 33.210938-25.164062 36.550781-46.03125 1.019531-6.386719 5.347657-11.882812 11.285157-14.335937 13.253906-5.480469 24.320312-14.828125 32.007812-27.035156 19.332031-30.695313 11.433594-71.394532-17.976562-92.65625zm5.289062 84.667968c-6.023438 9.5625-14.683594 16.878906-25.046875 21.164063-10.722656 4.433593-18.527344 14.328125-20.367187 25.832031-2.503907 15.644531-12.742188 28.542969-27.390626 34.503906-13.570312 5.523438-29.023437 4.050782-41.339843-3.929687-11.011719-7.140625-25.050781-7.195313-35.769531-.144531-9.683594 6.371093-21.296876 8.734374-32.707032 6.652343-12.859375-2.347656-24.035156-10.175781-30.648437-21.476562-4.992188-8.523438-13.371094-14.382813-22.992188-16.070313-14.71875-2.582031-27.828125-11.242187-35.964843-23.757812-15.996094-24.605469-9.203126-57.929688 15.136718-74.289063 8.988282-6.042969 19.441406-9.203125 30.101563-9.203125 2.777343 0 5.574219.214844 8.359375.648438 11.203125 1.753906 22.328125-3.558594 28.335937-13.53125 10.273438-17.046875 27.476563-28.246094 47.195313-30.722656 18.144531-2.273438 36.472656 3.296874 50.292968 15.292968 9.179688 7.96875 21.824219 10.921875 33.824219 7.898438 15.539063-3.914063 31.90625-.773438 44.90625 8.621094 23.015625 16.636718 29.195313 48.488281 14.074219 72.511718zm0 0"/><path d="m94.765625 146.503906c10.941406 1.746094 21.621094-6.394531 30.589844-19.183594 7.265625-10.355468 13.195312-23.535156 14.753906-32.796874 3.304687-19.617188-9.96875-38.269532-29.589844-41.570313-19.617187-3.308594-38.265625 9.964844-41.570312 29.585937-1.5625 9.261719-.273438 23.65625 3.195312 35.820313 4.773438 16.726563 12.582031 26.546875 22.621094 28.144531zm-11.027344-61.472656c1.730469-10.285156 9.941407-19.476562 24.292969-17.289062 11.492188 1.75 19.21875 12.828124 17.289062 24.292968-1.019531 6.03125-5.546874 17.128906-12.242187 26.675782-6.792969 9.683593-12.855469 13.492187-15.820313 13.003906-2.980468-.5-7.441406-6.097656-10.6875-17.46875-3.199218-11.210938-3.847656-23.183594-2.832031-29.214844zm0 0"/><path d="m168.425781 74.714844c8.582031 4.867187 22.050781-1.101563 30.1875-7.148438 8.46875-6.296875 16.636719-15.207031 20.320313-22.171875 7.976562-15.074219 2.203125-33.828125-12.867188-41.804687-15.074218-7.976563-33.828125-2.203125-41.804687 12.871094-3.6875 6.964843-6.460938 18.726562-6.902344 29.269531-.621094 14.804687 3.328125 24.601562 11.066406 28.984375zm3.917969-28.351563c.394531-9.351562 2.902344-18.589843 5.175781-22.890625 2.855469-5.394531 12.390625-11.972656 21.53125-6.625 7.582031 4.433594 10.734375 13.765625 6.628907 21.53125-2.273438 4.296875-8.507813 11.566406-16.015626 17.148438-7.707031 5.726562-12.816406 6.675781-14.226562 5.933594-1.40625-.746094-3.492188-5.503907-3.09375-15.097657zm0 0"/><path d="m397.789062 213.941406c0-13.203125-10.738281-23.941406-23.9375-23.941406-13.203124 0-23.945312 10.738281-23.945312 23.941406 0 13.199219 10.742188 23.941406 23.945312 23.941406 13.199219 0 23.9375-10.742187 23.9375-23.941406zm-23.941406 8.941406c-4.929687 0-8.941406-4.011718-8.941406-8.941406 0-4.933594 4.011719-8.941406 8.941406-8.941406 4.933594 0 8.941406 4.007812 8.941406 8.941406.003907 4.929688-4.007812 8.941406-8.941406 8.941406zm0 0"/><path d="m406.734375 238.9375c-13.203125 0-23.941406 10.738281-23.941406 23.941406 0 13.199219 10.738281 23.941406 23.941406 23.941406s23.941406-10.742187 23.941406-23.941406c0-13.203125-10.738281-23.941406-23.941406-23.941406zm0 32.882812c-4.933594 0-8.945313-4.011718-8.945313-8.941406 0-4.933594 4.015626-8.945312 8.945313-8.945312s8.941406 4.015625 8.941406 8.945312c.003907 4.929688-4.011719 8.941406-8.941406 8.941406zm0 0"/><path d="m447.308594 196.398438c-13.199219 0-23.941406 10.742187-23.941406 23.941406 0 13.203125 10.742187 23.941406 23.941406 23.941406 13.203125 0 23.941406-10.738281 23.941406-23.941406.003906-13.199219-10.738281-23.941406-23.941406-23.941406zm0 32.886718c-4.929688 0-8.941406-4.011718-8.941406-8.945312 0-4.929688 4.011718-8.941406 8.941406-8.941406 4.933594 0 8.945312 4.011718 8.945312 8.941406 0 4.933594-4.011718 8.945312-8.945312 8.945312zm0 0"/></svg>