<svg height="512pt" viewBox="-181 0 512 512.00078" width="512pt" xmlns="http://www.w3.org/2000/svg"><path d="m125.703125 238.730469h-100.4375s-.433594 139.625 26.773437 247.5625c6.121094 24.277343 40.769532 24.277343 46.890626 0 27.207031-107.9375 26.773437-247.5625 26.773437-247.5625zm0 0" fill="#dd9f80"/><path d="m25.265625 238.730469s-.433594 139.625 26.773437 247.5625c5.816407 23.066406 37.367188 24.199219 45.75 3.433593-18.710937-42.136718-25.886718-92.007812-28.589843-127.34375-1.765625-23.097656 12.179687-44.6875 34.09375-52.195312 7.816406-2.679688 14.765625-5.828125 20.480469-8.78125 2.007812-37.375 1.929687-62.675781 1.929687-62.675781zm0 0" fill="#c68d6d"/><path d="m35.058594 183.535156s-41.96875-60.472656-7.425782-122.300781c11.515626-20.609375 18.527344-35.4375 22.757813-46.054687 3.859375-9.683594 17.335937-10.378907 22.089844-1.105469 9.386719 18.332031 18.480469 46.007812 13.730469 79.820312-.40625.066407 10.878906-6.773437 19.890624-17.640625 6.234376-7.523437 18.351563-5.390625 21.679688 3.796875 8.921875 24.609375 16.054688 62.71875-9.722656 90.3125.023437-.003906-83 13.171875-83 13.171875zm0 0" fill="#ffc477"/><path d="m62.632812 123.355469c-26.664062-3.476563-39.828124-17.699219-46-33.652344-11.527343 50.675781 18.421876 93.832031 18.421876 93.832031s83.023437-13.179687 83.003906-13.175781c12.878906-13.789063 17.542968-30.207031 17.871094-46.25-21.828126.816406-45.734376 2.84375-73.296876-.753906zm0 0" fill="#ffaa45"/><path d="m127.054688 270.414062c16.304687-16.304687 16.304687-42.734374 0-59.039062l-49.515626-49.515625c-16.304687-16.304687-42.734374-16.304687-59.039062 0s-16.304688 42.734375 0 59.039063l49.515625 49.515624c16.304687 16.304688 42.734375 16.304688 59.039063 0zm0 0" fill="#efd4bf"/><path d="m18.5 270.039062c-13.105469-13.105468-13.105469-34.355468 0-47.457031l66.511719-66.511719c13.105469-13.105468 34.351562-13.105468 47.457031 0 13.105469 13.101563 13.105469 34.351563 0 47.457032l-66.511719 66.511718c-13.105469 13.105469-34.351562 13.105469-47.457031 0zm0 0" fill="#fce6d4"/><path d="m98.929688 486.292969c7.546874-29.949219 12.96875-62.339844 16.863281-93.507813h-80.617188c3.894531 31.167969 9.316407 63.558594 16.867188 93.507813 6.117187 24.277343 40.765625 24.277343 46.886719 0zm0 0" fill="#898890"/><path d="m52.039062 486.292969c5.816407 23.066406 37.378907 24.230469 45.761719 3.460937-13.804687-31.085937-21.34375-66.402344-25.425781-96.972656h-37.199219c3.894531 31.171875 9.316407 63.5625 16.863281 93.511719zm0 0" fill="#6a6a72"/><path d="m137.398438 210.402344s25.445312-28.390625 2.242187-58.933594c9.671875-25.898438 3.539063-54.253906-3.609375-73.976562-2.492188-6.878907-8.300781-11.742188-15.535156-13-7.214844-1.253907-14.308594 1.351562-18.972656 6.972656-1.59375 1.925781-3.375 3.835937-5.332032 5.722656.347656-28.214844-8.003906-51.230469-15.839844-66.53125-3.546874-6.925781-10.570312-11.007812-18.363281-10.6328125-7.8125.3671875-14.46875 5.1093745-17.367187 12.3750005-3.703125 9.289062-9.066406 20.550781-15.945313 33.472656-1.949219 3.65625-.5625 8.199218 3.09375 10.144531s8.199219.5625 10.144531-3.097656c7.140626-13.402344 12.738282-25.167969 16.644532-34.964844 1.007812-2.53125 3.230468-2.902344 4.136718-2.945313.890626-.039062 3.09375.117188 4.308594 2.488282 8.371094 16.339844 17.394532 42.5 13.085938 74.597656-1.195313 6.191406 2.816406 12.515625 12.425781 7.347656 3.09375-2.148437 12.507813-8.691406 20.558594-18.402344 1.707031-2.058593 3.964843-1.921874 4.851562-1.765624.898438.152343 3.082031.792968 4.003907 3.332031 5.902343 16.28125 11.097656 39.089843 4.941406 59.773437-26.28125-13.730468-47.582032 10.003906-47.582032 10.003906-22.222656-15.761718-44.890624-8.558593-51.484374-5.371093-5.476563-18.3125-8.527344-43.175781 1.417968-69.019531 1.488282-3.867188-.441406-8.207032-4.304687-9.695313s-8.207031.441406-9.695313 4.308594c-12.324218 32.019531-7.363281 62.402343-.289062 83.4375-.175782.171875-.363282.335937-.539063.511719-17.792969 17.792968-19.085937 45.921874-3.902343 65.234374-16.714844 31.46875.839843 52.582032 9.402343 58.15625 1.863281 48.0625 7.71875 135.371094 26.074219 208.183594 3.597656 14.277344 15.941406 23.871094 30.714844 23.871094 14.773437 0 27.117187-9.59375 30.714844-23.871094 18.710937-74.226562 24.46875-163.03125 26.234374-212.488281 14.542969-14.109375 17.335938-43.257813 3.765626-65.238281zm-68.839844-47.289063-47.605469 47.601563c-9.125-13.328125-7.78125-31.722656 4.046875-43.550782 14.546875-14.546874 37.90625-7.9375 43.558594-4.050781zm-43.558594 64.769531 66.511719-66.511718c4.921875-4.921875 24.027343-12.824219 36.851562 0 10.160157 10.160156 10.160157 26.691406 0 36.851562l-33.472656 33.472656c-2.929687 2.929688-2.929687 7.679688 0 10.609376 2.929687 2.925781 7.679687 2.925781 10.605469 0l21.191406-21.191407c4.085938 5.742188 12.320312 27.941407-3.738281 43.996094-16.054688 16.058594-38.253907 7.824219-44 3.738281l5.089843-5.089844c2.929688-2.929687 2.929688-7.675781 0-10.605468-2.925781-2.929688-7.675781-2.929688-10.605468 0l-11.582032 11.582031c-10.160156 10.160156-26.691406 10.160156-36.851562 0-4.921875-4.921875-14.816406-22.03125 0-36.851563zm42.886719 51.398438c8.972656 7.222656 29.445312 15.34375 50.320312 6.832031-1.160156 26.6875-3.425781 61.882813-7.855469 99.167969h-67.320312c-4.464844-37.582031-6.71875-72.832031-7.855469-98.773438 14.601563 2.855469 25.476563-1.851562 32.710938-7.226562zm24.964843 205.179688c-2.328124 9.246093-9.878906 12.539062-16.167968 12.539062-6.292969 0-13.84375-3.292969-16.171875-12.539062-6.789063-26.933594-11.835938-55.941407-15.59375-84.179688h63.546875c-3.765625 28.269531-8.820313 57.230469-15.613282 84.179688zm0 0"/></svg>