<svg height="512pt" viewBox="-39 0 512 512.00173" width="512pt" xmlns="http://www.w3.org/2000/svg"><path d="m335.140625 419.1875c-97.425781 61.789062-194.851563-25.867188-292.273437 3.660156-17.625 5.339844-35.367188-8.066406-35.367188-26.484375v-298.894531c0-16.953125 10.738281-32.039062 26.746094-37.621094 100.296875-35 200.59375 76.640625 300.894531 13.03125zm0 0" fill="#efd4bf"/><g fill="#e0c1ad"><path d="m157.117188 68.410156c10.039062 38.292969 25.960937 114.59375 14.203124 178.933594-11.425781 62.511719-17.242187 137.488281-19.730468 177.476562 61.183594 13.035157 122.367187 33.167969 183.550781-5.632812v-346.308594c-59.34375 37.632813-118.683594 13.925782-178.023437-4.46875zm0 0"/><path d="m291.214844 63.175781s15.738281-40.769531 74.714844-55.140625c11.582031-2.824218 22.757812 5.941406 22.757812 17.863282v56.066406zm0 0"/><path d="m291.214844 448.824219s15.738281 40.769531 74.714844 55.140625c11.582031 2.824218 22.757812-5.941406 22.757812-17.863282v-56.066406zm0 0"/></g><path d="m426.023438 88.941406c0-24.878906-37.847657-45.050781-84.53125-45.050781-46.6875 0-84.53125 20.171875-84.53125 45.050781v334.117188c0 24.878906 37.84375 45.046875 84.527343 45.046875 46.6875 0 84.535157-20.167969 84.535157-45.046875zm0 0" fill="#fce6d4"/><path d="m355.203125 44.480469c5.542969 6.480469 8.644531 13.6875 8.644531 21.273437v380.492188c0 7.585937-3.101562 14.792968-8.644531 21.269531 40.15625-3.492187 70.820313-22.070313 70.820313-44.457031v-334.117188c0-22.390625-30.664063-40.964844-70.820313-44.460937zm0 0" fill="#efd4bf"/><path d="m181.050781 330.214844 6.382813-21.558594c2.351562-7.945312-2.183594-16.289062-10.125-18.640625-7.945313-2.351563-16.289063 2.183594-18.640625 10.125l-6.382813 21.5625-21.558594-6.382813c-7.941406-2.351562-16.289062 2.183594-18.636718 10.125-2.355469 7.945313 2.179687 16.289063 10.125 18.640626l21.558594 6.382812-6.382813 21.558594c-2.351563 7.941406 2.183594 16.289062 10.128906 18.636718 3.96875 1.175782 8.042969.632813 11.414063-1.199218 3.371094-1.832032 6.046875-4.953125 7.222656-8.925782l6.382812-21.558593 21.558594 6.378906c3.972656 1.175781 8.042969.632813 11.417969-1.199219 3.371094-1.835937 6.046875-4.953125 7.222656-8.925781 2.351563-7.945313-2.183593-16.289063-10.128906-18.640625zm0 0" fill="#ff929f"/><path d="m113.382812 279.015625c2.789063 3.109375 8.109376 8.195313 8.316407 8.375 1.089843.945313 5.332031 4.386719 10.550781-.746094 2.945312-2.894531 2.394531-7.84375-.710938-10.570312-.011718-.011719-4.84375-4.679688-6.988281-7.070313-2.765625-3.085937-7.507812-3.34375-10.589843-.578125-3.085938 2.765625-3.34375 7.503907-.578126 10.589844zm0 0"/><path d="m104.769531 248.882812c-2.074219-2.96875-4.039062-6.09375-5.832031-9.289062-2.027344-3.613281-6.601562-4.894531-10.210938-2.867188-3.613281 2.027344-4.894531 6.601563-2.867187 10.210938 2.035156 3.625 4.265625 7.171875 6.621094 10.542969 1.460937 2.085937 5.910156 4.976562 10.445312 1.847656 3.410157-2.355469 4.21875-7.054687 1.84375-10.445313zm0 0"/><path d="m74.011719 218.320312c.9375 3.296876 4.394531 6.113282 9.265625 5.160157 4.066406-.792969 6.296875-5.28125 5.160156-9.265625-.996094-3.5-1.855469-7.121094-2.5625-10.765625-.785156-4.0625-4.71875-6.726563-8.785156-5.9375-4.066406.785156-6.726563 4.722656-5.941406 8.789062.785156 4.0625 1.75 8.105469 2.863281 12.019531zm0 0"/><path d="m69.78125 162.75c-.773438 4.109375-1.234375 8.40625-1.371094 12.773438-.132812 4.140624 2.375 7.558593 7.5 7.738281 4.03125 0 7.363282-3.203125 7.492188-7.261719.113281-3.605469.488281-7.132812 1.117187-10.484375.765625-4.070313-1.917969-7.992187-5.984375-8.753906-4.078125-.765625-7.992187 1.917969-8.753906 5.988281zm0 0"/><path d="m84.226562 143.507812c3.992188 3.128907 9.046876.601563 10.527344-1.289062 2.078125-2.65625 4.441406-5.105469 7.03125-7.273438 3.175782-2.664062 3.589844-7.394531.929688-10.566406-2.660156-3.175781-7.394532-3.589844-10.566406-.929687-3.390626 2.84375-6.492188 6.046875-9.210938 9.527343-2.550781 3.265626-1.972656 7.976563 1.289062 10.53125zm0 0"/><path d="m198.371094 138.136719c3.238281 1.726562 6.386718 3.847656 9.769531 5.601562 5.097656 2.636719 8.898437-.167969 10.316406-2.476562 2.164063-3.53125 1.058594-8.148438-2.476562-10.3125-3.5-2.148438-7.050781-4.179688-10.550781-6.046875-3.65625-1.949219-8.195313-.566406-10.144532 3.085937-1.949218 3.65625-.566406 8.199219 3.085938 10.148438zm0 0"/><path d="m162.085938 124.339844c3.496093.765625 7.085937 1.703125 10.648437 2.859375 5.636719 1.828125 8.402344-1.6875 9.417969-4.882813 1.25-3.949218-.9375-8.164062-4.886719-9.414062-4.003906-1.269532-8.027344-2.351563-11.964844-3.214844-4.042969-.882812-8.046875 1.671875-8.933593 5.71875-.886719 4.046875 1.671874 8.046875 5.71875 8.933594zm0 0"/><path d="m124.738281 123.804688c3.332031-.789063 6.851563-1.3125 10.445313-1.589844 4.128906-.320313 7.21875-3.925782 6.898437-8.054688-.316406-4.132812-3.914062-7.234375-8.054687-6.898437-4.347656.335937-8.617188.984375-12.683594 1.929687-4.035156.9375-6.546875 4.96875-5.609375 9.003906.804687 3.460938 3.585937 6.886719 9.003906 5.609376zm0 0"/><path d="m426.023438 138.027344c4.140624 0 7.5-3.355469 7.5-7.5v-41.585938c0-17.679687-14.554688-33.054687-37.335938-42.53125v-20.511718c0-7.996094-3.605469-15.414063-9.894531-20.355469-6.292969-4.941407-14.363281-6.6875-22.140625-4.796875-37.027344 9.023437-58.222656 27.855468-69.75 42.824218-25.023438 8.351563-42.148438 23.273438-44.625 40.917969-25.222656-2.617187-51.09375-10.800781-76.191406-18.757812-46.097657-14.617188-93.765626-29.734375-141.8125-12.964844-19.003907 6.628906-31.773438 24.59375-31.773438 44.699219v298.898437c0 11.253907 5.191406 21.558594 14.238281 28.273438 6.132813 4.546875 13.324219 6.898437 20.660157 6.898437 3.382812 0 6.792968-.5 10.140624-1.515625 11.1875-3.390625 22.730469-5.289062 35.292969-5.808593 4.140625-.171876 7.355469-3.667969 7.183594-7.804688-.171875-4.140625-3.664063-7.371094-7.804687-7.183594-13.84375.574219-26.605469 2.683594-39.019532 6.441406-6.03125 1.828126-12.414062.707032-17.515625-3.078124-5.195312-3.851563-8.175781-9.765626-8.175781-16.226563v-298.890625c0-13.734375 8.726562-26.007812 21.714844-30.539062 43.335937-15.121094 86.566406-1.410157 132.339844 13.101562 26.230468 8.316406 53.28125 16.878906 80.40625 19.507812v323.519532c0 3.851562.695312 7.585937 2.011718 11.183594-26.046875-.5625-52.65625-6.542969-78.503906-12.371094-20.125-4.539063-40.9375-9.234375-61.621094-11.453125-4.125-.445313-7.816406 2.539062-8.257812 6.65625-.441406 4.121093 2.539062 7.816406 6.65625 8.257812 19.828125 2.128907 40.210937 6.726563 59.921875 11.171875 27.945312 6.300782 56.746093 12.800782 85.636719 12.800782 1.988281 0 3.980468-.042969 5.96875-.109376 7.867187 7.988282 19.292968 14.617188 33.132812 19.238282 11.527344 14.964844 48.917969 43.566406 75.9375 43.566406 5.726562 0 11.320312-1.90625 15.949219-5.542969 6.289062-4.941406 9.894531-12.359375 9.894531-20.355469v-20.511718c22.785156-9.476563 37.335938-24.851563 37.335938-42.53125v-262.476563c0-4.140625-3.355469-7.5-7.5-7.5-4.144532 0-7.5 3.359375-7.5 7.5v262.476563c0 18.132812-30.953126 37.550781-77.03125 37.550781-46.078126 0-77.03125-19.417969-77.03125-37.550781v-334.117188c0-18.132812 30.953124-37.550781 77.03125-37.550781 46.078124 0 77.03125 19.417969 77.03125 37.550781v41.585938c0 4.144531 3.355468 7.5 7.5 7.5zm-44.835938 332.617187v15.457031c0 3.359376-1.515625 6.480469-4.160156 8.558594-2.652344 2.082032-6.042969 2.816406-9.324219 2.019532-20.808594-5.074219-35.878906-13.515626-46.683594-22.328126 6.566407.820313 13.414063 1.253907 20.472657 1.253907 14.296874 0 27.734374-1.773438 39.695312-4.960938zm-60.167969-432.996093c10.804688-8.8125 25.871094-17.257813 46.683594-22.328126 3.277344-.800781 6.671875-.0625 9.324219 2.019532 2.644531 2.078125 4.160156 5.199218 4.160156 8.558594v15.457031c-11.960938-3.1875-25.398438-4.960938-39.695312-4.960938-7.058594 0-13.90625.433594-20.472657 1.253907zm0 0"/><path d="m104.898438 323.316406c-6.117188 18.625 9.425781 26.257813 15.1875 27.960938l14.367187 4.253906-4.253906 14.367188c-1.707031 5.761718-1.832031 23.507812 15.191406 27.960937 17.019531 4.449219 24.953125-4.550781 27.957031-15.191406l4.253906-14.367188 14.367188 4.253907c5.761719 1.707031 23.328125 3.328124 27.960938-15.191407 4.628906-18.515625-9.429688-26.253906-15.191407-27.960937l-14.367187-4.25 4.253906-14.367188c1.707031-5.761718 2.800781-23.085937-15.191406-27.960937-17.988282-4.871094-26.253906 9.429687-27.957032 15.1875l-4.253906 14.371093-14.367187-4.253906c-5.761719-1.703125-21.84375-3.433594-27.957031 15.1875zm14.382812 4.257813c1.632812-6.003907 7.445312-5.597657 9.316406-5.0625l21.558594 6.382812c1.90625.566407 3.960938.347657 5.710938-.601562 1.746093-.949219 3.046874-2.554688 3.609374-4.460938l6.382813-21.5625c.566406-1.921875 2.828125-6.878906 9.320313-5.0625 6.492187 1.816407 5.628906 7.398438 5.0625 9.320313l-6.378907 21.558594c-.566406 1.910156-.351562 3.960937.601563 5.710937.949218 1.746094 2.550781 3.046875 4.460937 3.609375l21.558594 6.378906c1.921875.570313 3.507813 1.851563 4.460937 3.613282.957032 1.757812 1.171876 3.785156.601563 5.707031-.566406 1.921875-1.851563 3.507812-3.609375 4.460937-1.761719.957032-3.789062 1.171875-5.707031.605469l-21.558594-6.382813c-3.976563-1.179687-8.148437 1.089844-9.320313 5.0625l-6.382812 21.558594c-.566406 1.921875-3.273438 6.511719-9.320312 5.066406-6.046876-1.445312-5.628907-7.398437-5.0625-9.320312l6.378906-21.558594c.566406-1.910156.351562-3.960937-.597656-5.710937-.949219-1.746094-2.554688-3.046875-4.464844-3.609375l-21.558594-6.378906c-1.921875-.570313-6.699219-3.316407-5.0625-9.324219zm0 0"/></svg>