<svg height="512pt" viewBox="0 0 512.002 512" width="512pt" xmlns="http://www.w3.org/2000/svg"><path d="m276.710938 380.175781-42.007813-102.878906-102.878906-42.003906c-26.144531-10.675781-56.316407-3.582031-74.640625 17.902343-33.070313 38.777344-72.121094 108.054688-33.847656 193.726563 8.285156 18.550781 23.191406 33.457031 41.746093 41.746094 85.667969 38.269531 154.949219-.78125 193.722657-33.851563 21.488281-18.324218 28.578124-48.496094 17.90625-74.640625zm0 0" fill="#d8d7da"/><path d="m235.382812 472.507812c8.710938-5.777343 16.550782-11.828124 23.421876-17.691406 21.488281-18.324218 28.578124-48.496094 17.90625-74.640625l-42.007813-102.878906-102.878906-42.007813c-26.144531-10.671874-56.316407-3.582031-74.640625 17.90625-5.863282 6.871094-11.914063 14.707032-17.691406 23.421876 43.777343 4.347656 91.152343 26.898437 130.074218 65.816406 38.921875 38.921875 61.46875 86.300781 65.816406 130.074218zm0 0" fill="#c6c5ca"/><path d="m131.824219 235.292969c-26.144531-10.675781-56.316407-3.582031-74.640625 17.902343-33.070313 38.777344-72.121094 108.054688-33.847656 193.726563 4.140624 9.273437 9.941406 17.640625 17.023437 24.722656l194.34375-194.347656zm0 0" fill="#c6c5ca"/><path d="m234.703125 277.296875-102.878906-42.003906c-26.144531-10.675781-56.316407-3.582031-74.640625 17.902343-5.863282 6.875-11.914063 14.710938-17.6875 23.421876 43.773437 4.347656 91.148437 26.898437 130.070312 65.820312zm0 0" fill="#acabb1"/><path d="m117.757812 394.246094c-12.660156-12.664063-12.660156-33.191406 0-45.851563l210.96875-210.96875 45.847657 45.851563-210.96875 210.96875c-12.660157 12.660156-33.1875 12.660156-45.847657 0zm0 0" fill="#dd9f80"/><path d="m268.738281 197.414062c23.816407 10.574219 43.890625 23.929688 57.519531 34.175782l48.316407-48.3125-45.851563-45.851563zm0 0" fill="#c68d6d"/><path d="m349.515625 197.625-35.140625-35.140625c-12.613281-12.613281-12.613281-33.066406 0-45.679687l30.003906-30.003907 80.820313 80.820313-30.003907 30.003906c-12.613281 12.613281-33.066406 12.613281-45.679687 0zm0 0" fill="#d8d7da"/><path d="m314.375 116.804688c-12.613281 12.617187-12.613281 33.066406 0 45.679687l19.816406 19.816406c7.828125-11.015625 24.019532-15.34375 36.683594-6.058593 12.644531 9.265624 23.722656 13.285156 30.679688 15.023437l23.644531-23.644531-80.820313-80.816406zm0 0" fill="#c6c5ca"/><path d="m388.734375 166.449219-43.183594-43.183594c-23.636719-23.636719-23.636719-62.097656 0-85.738281l12.304688-12.300782c23.636719-23.640624 62.101562-23.640624 85.738281 0l43.183594 43.179688c23.636718 23.640625 23.636718 62.101562 0 85.738281l-12.304688 12.304688c-23.636718 23.636719-62.101562 23.636719-85.738281 0zm19.914063-106.28125c-4.367188-4.371094-11.480469-4.371094-15.851563 0l-12.300781 12.304687c-4.371094 4.371094-4.371094 11.480469 0 15.851563l43.183594 43.183593c4.371093 4.371094 11.480468 4.367188 15.851562-.003906l12.300781-12.300781c4.371094-4.371094 4.371094-11.480469 0-15.851563zm0 0" fill="#eaeaea"/><path d="m380.496094 72.472656 12.304687-12.304687c23.636719-23.636719 62.585938-23.148438 86.222657.488281l-35.429688-35.429688c-23.636719-23.636718-62.097656-23.640624-85.738281 0l-12.300781 12.304688c-23.640626 23.636719-23.640626 62.097656 0 85.738281l35.429687 35.429688c-23.640625-23.640625-24.125-62.589844-.488281-86.226563zm0 0" fill="#d8d7da"/><path d="m418.375 136.808594c7.292969 7.296875 19.164062 7.292968 26.457031 0l12.304688-12.304688c7.292969-7.292968 7.292969-19.164062 0-26.457031l-43.183594-43.183594c-7.292969-7.292969-19.164063-7.292969-26.457031 0l-12.304688 12.304688c-7.292968 7.292969-7.296875 19.164062 0 26.457031zm-32.574219-59.035156 12.300781-12.300782c1.449219-1.449218 3.800782-1.445312 5.246094 0l43.183594 43.183594c1.445312 1.445312 1.445312 3.796875 0 5.242188l-12.304688 12.304687c-1.445312 1.445313-3.796874 1.445313-5.246093 0l-43.179688-43.179687c-1.449219-1.449219-1.449219-3.800782 0-5.25zm0 0"/><path d="m283.652344 377.34375-26.828125-65.710938 83.105469-83.105468c2.925781-2.929688 2.925781-7.675782 0-10.605469-2.929688-2.929687-7.679688-2.929687-10.609376 0l-171.015624 171.019531c-9.71875 9.714844-25.527344 9.714844-35.242188 0-9.71875-9.71875-9.71875-25.527344 0-35.242187l185.960938-185.964844c.015624.019531.035156.039063.050781.054687l35.140625 35.140626c15.515625 15.515624 40.765625 15.515624 56.285156 0l13.554688-13.554688c22.710937 6.015625 47.945312.15625 65.722656-17.621094l12.304687-12.304687c26.558594-26.5625 26.558594-69.78125-.003906-96.34375l-43.179687-43.183594c-26.5625-26.5625-69.785157-26.5625-96.34375 0-2.929688 2.929687-2.929688 7.679687 0 10.605469 2.925781 2.929687 7.675781 2.929687 10.605468 0 20.714844-20.710938 54.417969-20.710938 75.128906.003906l43.183594 43.179688c20.714844 20.714843 20.714844 54.417968 0 75.132812l-12.300781 12.304688c-20.714844 20.714843-54.421875 20.714843-75.132813 0l-43.183593-43.183594c-16.800781-16.800782-20.378907-42.996094-8.695313-63.695313 2.035156-3.609375.765625-8.183593-2.847656-10.21875-3.605469-2.035156-8.179688-.761719-10.214844 2.84375-8.949218 15.855469-10.910156 34.222657-6.449218 51.039063l-13.574219 13.570312c-11.746094 11.746094-14.59375 29.066406-8.554688 43.527344l-100.152343 100.144531-65.707032-26.828125c-29.34375-11.980468-62.773437-3.953125-83.183594 19.980469-12.609374 14.789063-23.128906 30.421875-31.261718 46.46875-1.503906 2.96875-1.824219 7.921875 3.296875 10.078125 3.820312 1.609375 8.207031.398438 10.082031-3.296875 7.597656-14.988281 17.453125-29.628906 29.296875-43.515625 16.199219-18.996094 42.761719-25.355469 66.097656-15.828125l59.875 24.445313-76.410156 76.414062c-13.75 13.75-15.34375 35.117188-4.796875 50.644531l-67.035156 67.035157c-4.175782-5.109376-7.699219-10.78125-10.441406-16.910157-16.832032-37.679687-19.660157-75.695312-8.402344-112.992187 1.195312-3.964844-1.050782-8.148438-5.015625-9.347656-3.964844-1.195313-8.148438 1.046874-9.347657 5.015624-12.324218 40.847657-9.273437 82.378907 9.070313 123.441407 4.535156 10.148437 10.84375 19.265625 18.558594 26.976562 7.710937 7.714844 16.828125 14.023438 26.976562 18.554688 39.71875 17.746093 79.929688 21.183593 119.507813 10.210937 28.652344-7.941406 56.289062-23.148437 82.144531-45.199218 23.933594-20.410157 31.964844-53.839844 19.980469-83.179688zm36.027344-255.234375 9.003906-9.003906c3.046875 5.585937 6.910156 10.808593 11.566406 15.464843l43.179688 43.183594c4.691406 4.691406 9.910156 8.535156 15.457031 11.570313l-8.996094 9c-9.667969 9.667969-25.402344 9.667969-35.074219-.003907l-35.136718-35.136718c-9.667969-9.671875-9.667969-25.402344 0-35.074219zm-65.738282 327c-24.179687 20.621094-49.890625 34.804687-76.414062 42.160156-36.132813 10.015625-72.933594 6.835938-109.386719-9.449219-6.132813-2.742187-11.800781-6.265624-16.910156-10.441406l67.035156-67.035156c15.527344 10.546875 36.890625 8.957031 50.644531-4.796875l76.410156-76.410156 24.445313 59.875c9.527344 23.335937 3.167969 49.898437-15.824219 66.097656zm0 0"/></svg>