<svg height="512pt" viewBox="-9 0 512 512.00085" width="512pt" xmlns="http://www.w3.org/2000/svg"><path d="m238.0625 98.027344s-16.539062-58.429688-58.429688-72.761719c-30.019531-10.269531-50.414062-6.953125-70.113281-16.011719-12.527343-5.761718-26.929687 3.300782-27.132812 17.089844-.5625 38.300781 11.179687 96.390625 87.324219 114.144531-2.203126-1.671875 68.351562 0 68.351562 0zm0 0" fill="#9ad880"/><path d="m91.222656 78.628906c10.679688 26.453125 33.1875 51.296875 78.488282 61.859375-2.203126-1.671875 68.351562 0 68.351562 0v-42.460937s-16.539062-58.429688-58.429688-72.761719c-7.351562-2.511719-14.125-4.214844-20.453124-5.480469 1.902343 4.234375 4.0625 9.335938 6.15625 14.914063 6.570312 17.519531-6.40625 36.277343-25.121094 36.125-15.425782-.125-33.5625 1.519531-48.992188 7.804687zm0 0" fill="#8dc971"/><path d="m225.671875 150.179688s-22.582031-71.628907 16.753906-125.441407c11.980469-16.390625 35.8125-18.1875 50.371094-4.035156.246094.238281 22.886719 21.945313 3.15625 46.257813-14.1875 17.484374-28.859375 47.011718-22.984375 93.035156-.890625-.894532-47.296875-9.816406-47.296875-9.816406zm0 0" fill="#b2785b"/><path d="m337.289062 107.539062c-23.503906 0-45.742187 5.421876-65.535156 15.074219-15.453125 7.535157-33.558594 7.535157-49.011718 0-19.792969-9.65625-42.027344-15.074219-65.53125-15.074219-82.683594 0-149.710938 67.027344-149.710938 149.710938s67.027344 247.25 149.710938 247.25c21.125 0 41.226562-10.746094 59.449218-28.121094 17.207032-16.40625 43.972656-16.40625 61.175782 0 18.226562 17.375 38.324218 28.121094 59.453124 28.121094 82.679688 0 149.707032-164.570312 149.707032-247.25 0-82.683594-67.027344-149.710938-149.707032-149.710938zm0 0" fill="#ff737d"/><path d="m238.0625 413.550781c-37.480469-21.921875-61.105469-56.652343-76.0625-91.875-23.046875-54.273437 6.472656-116.453125 63.039062-133.089843 62.082032-18.257813 93.128907-57.207032 106.863282-80.949219-21.511719.761719-41.875 6.0625-60.148438 14.976562-15.453125 7.535157-33.558594 7.535157-49.011718 0-19.792969-9.65625-42.03125-15.074219-65.53125-15.074219-82.683594 0-149.710938 67.027344-149.710938 149.710938 0 82.679688 67.027344 247.25 149.710938 247.25 21.125 0 41.226562-10.746094 59.449218-28.121094 17.207032-16.410156 43.96875-16.410156 61.175782 0 18.222656 17.375 38.324218 28.121094 59.449218 28.121094 8.835938 0 17.492188-1.878906 25.902344-5.335938-32.714844-42.808593-41.574219-36.742187-125.125-85.613281zm0 0" fill="#f46262"/><path d="m183.226562 312.101562c0-13.183593-13.421874-23.871093-29.976562-23.871093s-29.972656 10.6875-29.972656 23.871093c0 13.179688 13.417968 23.867188 29.972656 23.867188s29.976562-10.6875 29.976562-23.867188zm0 0" fill="#ffd9e8"/><path d="m371.21875 312.101562c0-13.183593-13.417969-23.871093-29.972656-23.871093-16.554688 0-29.972656 10.6875-29.972656 23.871093 0 13.179688 13.417968 23.867188 29.972656 23.867188 16.554687 0 29.972656-10.6875 29.972656-23.867188zm0 0" fill="#ffd9e8"/><path d="m265.570312 286.949219c-10.789062 8.367187-25.855468 8.367187-36.644531 0-3.269531-2.539063-7.984375-1.945313-10.519531 1.328125-2.539062 3.273437-1.945312 7.984375 1.328125 10.523437 8.101563 6.285157 17.808594 9.425781 27.515625 9.425781s19.414062-3.140624 27.511719-9.425781c3.273437-2.539062 3.871093-7.25 1.332031-10.523437-2.539062-3.273438-7.253906-3.867188-10.523438-1.328125zm0 0"/><path d="m166.589844 276.070312c-7.136719 0-13.738282 3.5625-17.660156 9.53125-2.273438 3.460938-1.3125 8.113282 2.152343 10.386719 3.460938 2.273438 8.109375 1.308594 10.386719-2.152343 1.636719-2.496094 4.125-2.765626 5.121094-2.765626s3.441406.300782 5.121094 2.765626c3.507812 5.144531 9.117187 2.984374 10.386718 2.152343 3.464844-2.273437 4.425782-6.925781 2.152344-10.386719-3.917969-5.96875-10.519531-9.53125-17.660156-9.53125zm0 0"/><path d="m327.90625 276.070312c-7.140625 0-13.742188 3.5625-17.660156 9.53125-2.273438 3.460938-1.3125 8.113282 2.152344 10.386719 3.460937 2.273438 8.109374 1.308594 10.382812-2.152343 1.640625-2.496094 4.128906-2.765626 5.125-2.765626.992188 0 3.441406.300782 5.121094 2.765626 3.507812 5.144531 9.117187 2.984374 10.386718 2.152343 3.460938-2.273437 4.425782-6.925781 2.152344-10.386719-3.917968-5.96875-10.519531-9.53125-17.660156-9.53125zm0 0"/><path d="m337.289062 100.039062c-18.875 0-37.148437 3.277344-54.523437 9.722657 3.640625-14.210938 10.003906-26.976563 19.015625-38.078125 18.953125-23.355469 6.109375-47.382813-3.753906-56.359375-15.734375-14.316407-44.929688-16.074219-61.65625 4.988281-6.921875 8.71875-11.519532 18.410156-15.203125 27.933594-11.359375-14.972656-24.472657-25.070313-39.105469-30.078125-15.542969-5.316407-28.53125-7.136719-39.988281-8.742188-10.988281-1.542969-20.476563-2.875-29.417969-6.984375-8.199219-3.773437-17.671875-3.140625-25.332031 1.6875-7.65625 4.824219-12.304688 13.089844-12.4375 22.105469-.0625 4.367187.03125 8.710937.285156 12.90625.25 4.136719 3.777344 7.292969 7.9375 7.035156 4.132813-.25 7.285156-3.804687 7.035156-7.9375-.230469-3.824219-.316406-7.789062-.257812-11.785156.058593-3.980469 2.039062-7.492187 5.4375-9.636719 3.402343-2.144531 7.433593-2.417968 11.0625-.75 10.945312 5.035156 21.949219 6.578125 33.605469 8.210938 11.320312 1.589844 23.023437 3.230468 37.210937 8.085937 14.453125 4.941407 27.355469 16.472657 38.371094 34.25-3.464844 15.105469-4.257813 29.9375-3.710938 43.199219-17.414062-6.480469-35.734375-9.773438-54.652343-9.773438-13.765626 0-27.121094 1.785157-39.851563 5.125-9.839844-9.902343-17.136719-22.09375-21.699219-36.308593-1.269531-3.945313-5.496094-6.113281-9.433594-4.847657-3.945312 1.269532-6.117187 5.492188-4.847656 9.433594 4.480469 13.964844 11.277344 26.277344 20.242188 36.757813-59.332032 22.503906-101.621094 79.925781-101.621094 147.050781 0 43.761719 17.96875 107.308594 44.710938 158.125 32.792968 62.308594 72.746093 96.625 112.5 96.625 21.871093 0 43.613281-10.160156 64.625-30.195312 14.25-13.585938 36.574218-13.585938 50.824218 0 21.011719 20.035156 42.753906 30.195312 64.628906 30.195312 38.589844 0 77.632813-32.621094 109.9375-91.851562 1.984376-3.636719.644532-8.191407-2.992187-10.175782s-8.191406-.644531-10.175781 2.992188c-39.878906 73.117187-77.746094 84.035156-96.769532 84.035156-17.886718 0-36.148437-8.765625-54.277343-26.050781-20.054688-19.125-51.472657-19.125-71.527344 0-18.125 17.285156-36.386719 26.050781-54.273437 26.050781-17.507813 0-35.394532-8.40625-53.15625-24.988281-16.183594-15.105469-32.109376-37.105469-46.066407-63.625-25.710937-48.855469-42.988281-109.589844-42.988281-151.136719 0-78.414062 63.796875-142.210938 142.210938-142.210938 21.832031 0 42.773437 4.816407 62.246093 14.3125 17.402344 8.488282 38.183594 8.488282 55.585938 0 19.472656-9.496093 40.414062-14.3125 62.246093-14.3125 78.414063 0 142.210938 63.796876 142.210938 142.210938 0 34.640625-12.171875 83.648438-31.765625 127.898438-1.675781 3.789062.035156 8.21875 3.824219 9.894531 3.785156 1.675781 8.21875-.03125 9.894531-3.820313 20.382813-46.042968 33.046875-97.375 33.046875-133.972656-.003906-86.6875-70.527344-157.210938-157.210938-157.210938zm-109.992187 16.40625c-2.097656-25.4375.566406-59.039062 21.183594-87.28125 13.140625-18 33.644531-8.375 39.105469-3.066406 1.828124 1.769532 17.417968 17.808594 2.546874 36.136719-12.683593 15.625-20.804687 34.039063-24.191406 54.78125-12.3125 5.132813-26.46875 4.933594-38.644531-.570313zm0 0"/></svg>