<svg height="512pt" viewBox="0 -12 512.00003 512" width="512pt" xmlns="http://www.w3.org/2000/svg"><path d="m197.675781 215.292969 27.085938 52.882812c20.433593 39.898438 98.507812 40.734375 174.386719 1.875 75.878906-38.863281 120.824218-102.710937 100.390624-142.605469l-27.085937-52.882812zm0 0" fill="#ffb600"/><path d="m197.675781 215.296875 27.085938 52.882813c19.640625 38.34375 92.515625 40.605468 165.515625 6.230468-8.011719-38.964844-24.027344-70.453125-36.78125-93.492187-6.273438-11.335938-8.539063-27.734375-6.3125-42.195313zm0 0" fill="#ff9d00"/><path d="m472.480469 74.546875c-20.433594-39.898437-98.515625-40.738281-174.394531-1.871094-75.882813 38.863281-120.828126 102.714844-100.394532 142.613281 20.4375 39.898438 98.515625 40.738282 174.398438 1.871094 75.878906-38.863281 120.828125-102.714844 100.390625-142.613281zm0 0" fill="#ffcd00"/><path d="m353.496094 180.914062c-9.117188-16.472656-9.765625-43.640624-.472656-60.015624 14.53125-25.597657 18.945312-54.039063 20.03125-73.96875-23.730469 4.117187-49.480469 12.695312-74.988282 25.757812-75.878906 38.863281-120.824218 102.707031-100.390625 142.605469 20.410157 39.84375 98.316407 40.726562 174.101563 2.015625-6.066406-13.796875-12.507813-25.964844-18.28125-36.394532zm0 0" fill="#ffb600"/><path d="m316.632812 108.9375c-32.070312 16.425781-95.527343 62.75-82.703124 87.785156 12.820312 25.035156 82.828124 3.007813 119.566406-15.808594 36.742187-18.816406 95.527344-62.75 82.703125-87.785156-12.820313-25.039062-87.496094-.617187-119.566407 15.808594zm0 0" fill="#ffde55"/><path d="m353.023438 120.898438c5.746093-10.125 9.910156-20.691407 12.914062-31-18.765625 5.398437-37.113281 12.796874-49.304688 19.039062-32.070312 16.425781-95.527343 62.75-82.703124 87.789062 12.820312 25.035157 82.828124 3.003907 119.566406-15.8125-9.121094-16.476562-9.769532-43.644531-.472656-60.015624zm0 0" fill="#ffcd00"/><path d="m14.277344 397.117188 27.085937 52.882812c20.433594 39.898438 98.507813 40.734375 174.386719 1.875 75.875-38.863281 120.824219-102.707031 100.386719-142.605469l-27.085938-52.882812zm0 0" fill="#ffcd00"/><path d="m320.949219 326.992188c-.421875-6.273438-1.988281-12.226563-4.804688-17.722657l-27.085937-52.882812-169.414063 86.765625c48.878907 9.359375 115.902344 9.976562 201.304688-16.160156zm0 0" fill="#ffb600"/><path d="m289.082031 256.386719c-20.433593-39.898438-98.515625-40.734375-174.398437-1.871094-75.878906 38.867187-120.828125 102.71875-100.390625 142.617187 20.433593 39.898438 98.515625 40.734376 174.394531 1.867188 75.882812-38.863281 120.832031-102.714844 100.394531-142.613281zm0 0" fill="#ffde55"/><path d="m114.667969 254.511719c-32.046875 16.414062-58.582031 37.285156-76.996094 58.929687 31.644531 18.636719 107.101563 50.613282 227.167969 27.578125 25.777344-29.878906 36.140625-61.34375 24.214844-84.632812-20.433594-39.898438-98.507813-40.738281-174.386719-1.875zm0 0" fill="#ffcd00"/><path d="m133.234375 290.761719c-32.070313 16.425781-95.527344 62.75-82.703125 87.785156 12.820312 25.039063 82.824219 3.007813 119.566406-15.808594 36.738282-18.816406 95.527344-62.75 82.703125-87.785156s-87.496093-.613281-119.566406 15.808594zm0 0" fill="#ffeb99"/><path d="m12.460938 178.710938 27.085937 52.882812c20.433594 39.898438 98.511719 40.738281 174.386719 1.875 75.875-38.859375 120.824218-102.707031 100.390625-142.601562l-27.085938-52.886719zm0 0" fill="#ffde55"/><path d="m287.257812 37.972656c-20.4375-39.898437-98.515624-40.734375-174.398437-1.871094-75.878906 38.867188-120.828125 102.71875-100.390625 142.617188 20.433594 39.898438 98.515625 40.734375 174.394531 1.871094 75.882813-38.867188 120.828125-102.71875 100.394531-142.617188zm0 0" fill="#ffeb99"/><path d="m131.417969 72.359375c-32.070313 16.425781-95.527344 62.75-82.703125 87.785156 12.820312 25.035157 82.824218 3.003907 119.566406-15.8125 36.738281-18.816406 95.527344-62.75 82.703125-87.785156-12.820313-25.035156-87.496094-.613281-119.566406 15.8125zm0 0" fill="#fff5ca"/><path d="m133.234375 290.761719c-15.914063 8.152343-39.566406 23.671875-57.78125 40.292969 28.390625 10.359374 67.808594 19.171874 118.375 17.863281 33.507813-21.683594 69.25-53.898438 58.972656-73.96875-12.824219-25.03125-87.496093-.609375-119.566406 15.8125zm0 0" fill="#ffde55"/><path d="m203.910156 67.882812c-1.988281-3.632812-6.546875-4.964843-10.179687-2.972656-3.632813 1.992188-4.960938 6.546875-2.972657 10.179688l5.984376 10.917968c1.992187 3.632813 6.546874 4.960938 10.179687 2.972657 3.632813-1.992188 4.964844-6.550781 2.972656-10.183594zm0 0"/><path d="m95.527344 127.285156c-1.992188-3.628906-6.546875-4.960937-10.179688-2.96875-3.632812 1.988282-4.964844 6.546875-2.972656 10.179688l5.984375 10.917968c1.988281 3.628907 6.546875 4.960938 10.179687 2.96875 3.632813-1.988281 4.960938-6.546874 2.972657-10.179687zm0 0"/><path d="m158.089844 96.195312c-1.511719-.121093-7.472656.683594-8.074219 6.878907-.285156 2.96875-2.289063 4.40625-3.160156 4.886719-.875.476562-3.1875 1.4375-5.820313.035156-3.660156-1.941406-8.199218-.550782-10.140625 3.105468-1.945312 3.660157-.554687 8.199219 3.105469 10.140626 6.304688 3.347656 13.804688 3.300781 20.0625-.128907 6.257812-3.433593 10.335938-9.726562 10.902344-16.84375.332031-4.128906-2.746094-7.742187-6.875-8.074219zm0 0"/><path d="m257.660156 53.128906c-7.421875-14.488281-27.863281-18.382812-60.761718-11.566406-25.285157 5.238281-52.824219 15.890625-68.898438 24.121094-16.074219 8.234375-40.8125 24.355468-59.839844 41.8125-24.753906 22.714844-33.542968 41.578125-26.121094 56.066406 5.226563 10.203125 16.492188 15.324219 33.613282 15.324219 7.367187 0 15.820312-.949219 25.34375-2.847657 26.378906-5.265624 53.820312-16.382812 70.703125-25.03125 16.886719-8.648437 41.941406-24.417968 61.628906-42.746093 23.621094-21.988281 31.808594-40.539063 24.332031-55.132813zm-34.550781 44.15625c-15.292969 14.238282-38.15625 30.085938-58.246094 40.375-20.089843 10.285156-46.3125 19.578125-66.804687 23.667969-22.898438 4.574219-38.851563 2.851563-42.667969-4.601563-3.746094-7.308593 4.820313-21.582031 22.910156-38.179687 17.996094-16.507813 41.359375-31.742187 56.535157-39.515625 15.175781-7.773438 41.210937-17.738281 65.105468-22.785156 25.914063-5.472656 42.109375-.691406 44.371094 3.71875 3.816406 7.457031-4.109375 21.40625-21.203125 37.320312zm0 0"/><path d="m198.714844 259.964844c-25.285156 5.238281-52.824219 15.890625-68.902344 24.125-16.074219 8.230468-40.808594 24.355468-59.835938 41.8125-24.753906 22.710937-33.542968 41.574218-26.121093 56.066406 5.222656 10.203125 16.492187 15.324219 33.613281 15.324219 7.367188 0 15.820312-.949219 25.34375-2.851563 26.378906-5.265625 53.816406-16.382812 70.703125-25.03125 16.882813-8.644531 41.941406-24.417968 61.628906-42.746094 23.617188-21.988281 31.804688-40.535156 24.328125-55.132812-7.417968-14.488281-27.859375-18.378906-60.757812-11.566406zm26.210937 55.722656c-15.292969 14.238281-38.15625 30.085938-58.25 40.375-20.085937 10.289062-46.308593 19.582031-66.800781 23.671875-22.902344 4.570313-38.855469 2.847656-42.671875-4.605469-3.742187-7.304687 4.824219-21.578125 22.914063-38.175781 17.992187-16.511719 41.359374-31.746094 56.535156-39.515625 15.175781-7.773438 41.191406-17.832031 65.105468-22.785156 9.53125-1.976563 17.890626-2.949219 24.742188-2.949219 10.429688 0 17.367188 2.253906 19.625 6.667969 3.820312 7.453125-4.105469 21.40625-21.199219 37.316406zm0 0"/><path d="m506.210938 124.027344-27.082032-52.886719c-10.964844-21.402344-36.121094-33.65625-70.839844-34.511719-30.800781-.765625-66.519531 7.527344-101.324218 23.421875l-13.054688-25.488281c-11.210937-21.894531-37.136718-34.167969-72.992187-34.5507812-34.167969-.3867188-73.726563 10.0820312-111.484375 29.4179692-37.761719 19.34375-69.375 45.363281-89.023438 73.273437-20.644531 29.324219-25.835937 57.53125-14.621094 79.425781l27.082032 52.886719c8.21875 16.046875 24.347656 26.914063 46.488281 31.730469-25.800781 17.605468-46.96875 38.320312-60.65625 59.585937-17.632813 27.398438-21.574219 53.75-11.101563 74.203125l27.085938 52.882813c11.214844 21.894531 37.136719 34.167969 72.996094 34.550781.582031.007812 1.160156.011719 1.746094.011719 33.730468 0 72.621093-10.421875 109.738281-29.433594 37.761719-19.339844 69.375-45.359375 89.023437-73.269531 20.644532-29.324219 25.835938-57.53125 14.621094-79.425782 0 0-27.816406-54.261718-28.199219-54.9375 26.300781-4.070312 53.980469-13.300781 80.867188-27.074218 37.761719-19.339844 69.378906-45.363282 89.027343-73.273438 9.414063-13.375 15.605469-26.519531 18.5-38.941406l9.855469 19.238281c8.550781 16.695313 3.742188 39.410157-13.535156 63.957031-18.273437 25.957032-47.964844 50.304688-83.597656 68.554688-18.128907 9.285156-36.648438 16.410156-55.050781 21.179688-4.007813 1.039062-6.183594 5.078124-5.378907 9.140624 1.40625 7.085938 8.511719 5.542969 9.144531 5.378907 19.464844-5.046875 39.019532-12.566407 58.121094-22.351563 37.761719-19.335937 69.378906-45.359375 89.023438-73.269531 20.644531-29.324219 25.835937-57.53125 14.621094-79.425781zm-121.054688-31.199219c24.039062-4.980469 40.628906-3.589844 44.371094 3.71875 3.816406 7.453125-4.109375 21.402344-21.203125 37.316406-15.292969 14.238281-38.15625 30.085938-58.246094 40.375-25.941406 13.285157-52.339844 21.367188-72.285156 24.570313 11.160156-10.152344 20.8125-20.894532 28.585937-31.9375 13.464844-19.132813 20.351563-37.785156 20.402344-54.523438 15.453125-7.136718 37.695312-15.238281 58.375-19.519531zm-338.933594 135.351563-9.855468-19.242188c11.773437 4.910156 33.386718 7.761719 44.160156 7.753906 33.730468-.023437 72.621094-10.421875 109.738281-29.433594 22.070313-11.300781 41.890625-24.746093 58.90625-39.964843 3.089844-2.761719 3.351563-7.5.59375-10.589844-2.761719-3.085937-7.503906-3.351563-10.589844-.589844-16.0625 14.363281-34.816406 27.078125-55.746093 37.796875-35.636719 18.25-72.769532 28.128906-104.484376 27.773438-30.015624-.324219-51.257812-9.695313-59.808593-26.390625-8.550781-16.695313-3.742188-39.410157 13.535156-63.953125 18.277344-25.960938 47.964844-50.308594 83.597656-68.558594 35.636719-18.25 72.710938-28.109375 104.488281-27.773438 30.015626.324219 51.253907 9.695313 59.804688 26.390626 9.386719 18.328124 2.476562 44.269531-18.957031 71.179687-2.578125 3.242187-2.042969 7.960937 1.195312 10.539063 3.242188 2.582031 7.957031 2.046874 10.539063-1.195313 12.726562-15.976563 20.9375-31.984375 24.402344-46.980469l9.90625 19.34375c8.550781 16.695313 3.746093 39.40625-13.535157 63.953125-18.273437 25.957031-47.960937 50.304688-83.597656 68.558594-35.632813 18.25-72.777344 28.113281-104.484375 27.773437-30.019531-.324218-51.257812-9.695312-59.808594-26.390624zm222.621094 95.578124c-18.273438 25.957032-47.964844 50.304688-83.597656 68.558594-31.167969 15.960938-64.359375 25.722656-93.464844 27.488282-4.132812.25-7.28125 3.804687-7.03125 7.9375.242188 3.980468 1.691406 7.371093 7.9375 7.03125 31.136719-1.695313 66.425781-12.226563 99.394531-29.109376 37.757813-19.339843 69.375-45.359374 89.023438-73.273437 9.417969-13.378906 15.609375-26.523437 18.503906-38.941406l9.855469 19.238281c8.550781 16.695312 3.742187 39.410156-13.535156 63.953125-18.277344 25.960937-47.964844 50.304687-83.597657 68.558594-35.636719 18.25-72.707031 28.128906-104.488281 27.773437-30.015625-.324218-51.253906-9.695312-59.804688-26.390625l-9.882812-19.296875c5.707031 2.382813 11.921875 4.738282 18.871094 5.570313 4.75.566406 8.082031-2.371094 8.765625-5.964844.773437-4.070313-1.894531-7.996094-5.964844-8.769531-13.328125-2.539063-30.890625-8.832032-38.875-24.425782-16.773437-32.746093 19.21875-87.113281 82.027344-124.191406.957031.027344 69.792969-2.65625 126.363281-35.851562 26.40625 1.601562 45.195312 10.84375 53.035156 26.152344 8.550782 16.695312 3.742188 39.40625-13.535156 63.953124zm183.398438-181.824218c-18.273438 25.960937-47.960938 50.304687-83.597657 68.554687-28.585937 14.644531-57.988281 23.855469-85.296875 26.785157-8.691406-7.558594-20.230468-12.980469-34.113281-16.019532 2.824219-1.925781 5.601563-3.886718 8.3125-5.886718 37.660156-1.609376 76.15625-15.890626 99.367187-27.777344 16.886719-8.648438 41.945313-24.417969 61.632813-42.75 23.617187-21.988282 31.804687-40.535156 24.328125-55.128906-7.417969-14.492188-27.863281-18.382813-60.761719-11.566407-19.992187 4.140625-41.390625 11.667969-57.421875 18.707031-.925781-3.246093-2.144531-6.386718-3.691406-9.40625l-7.1875-14.027343c67.617188-30.660157 134.757812-29.035157 151.964844 4.5625 8.550781 16.695312 3.742187 39.40625-13.535156 63.953125zm0 0"/></svg>