<svg height="512pt" viewBox="-42 0 512 512" width="512pt" xmlns="http://www.w3.org/2000/svg"><path d="m358.753906 193.464844h-57.171875l26.726563-96.035156c6.96875-25.050782-11.867188-49.84375-37.867188-49.84375h-124.105468c-23.800782 0-43.898438 17.671874-46.949219 41.277343l-24.722657 191.457031c-3.410156 26.433594 17.175782 49.851563 43.828126 49.851563h63.820312l-3.085938 152.246094c-.453124 22.328125 29.136719 30.578125 40.300782 11.234375l146.257812-253.375c12.011719-20.808594-3.007812-46.8125-27.03125-46.8125zm0 0" fill="#ffde55"/><path d="m358.753906 193.464844h-57.171875l26.726563-96.035156c6.96875-25.046876-11.867188-49.839844-37.867188-49.839844h-68.347656c-7.835938 10.703125-13.152344 25.230468-12.0625 44.851562 3.019531 54.347656 43.246094 77 30.382812 141.558594-3.542968 17.777344 10.171876 34.328125 28.300782 34.328125 0 0 25.191406-1.410156 25.191406 27.007813l-8.25 118.40625 100.128906-173.464844c12.011719-20.808594-3.007812-46.8125-27.03125-46.8125zm0 0" fill="#ffcd00"/><path d="m353.734375 18.308594 7.699219 14.082031c7.683594 14.046875 19.230468 25.59375 33.277344 33.277344l14.082031 7.703125c14.410156 7.882812 14.410156 28.578125 0 36.460937l-14.082031 7.703125c-14.046876 7.679688-25.59375 19.230469-33.277344 33.277344l-7.699219 14.082031c-7.882813 14.410157-28.582031 14.410157-36.464844 0l-7.699219-14.082031c-7.683593-14.046875-19.230468-25.597656-33.277343-33.277344l-14.082031-7.703125c-14.414063-7.882812-14.414063-28.578125 0-36.460937l14.082031-7.703125c14.042969-7.679688 25.59375-19.230469 33.277343-33.277344l7.699219-14.082031c7.882813-14.410156 28.582031-14.410156 36.464844 0zm0 0" fill="#ffeb99"/><path d="m67.945312 353.863281 4.550782 8.316407c4.539062 8.296874 11.359375 15.117187 19.65625 19.65625l8.316406 4.550781c8.515625 4.65625 8.515625 16.878906 0 21.535156l-8.316406 4.550781c-8.296875 4.539063-15.117188 11.359375-19.65625 19.65625l-4.550782 8.316406c-4.65625 8.515626-16.878906 8.515626-21.535156 0l-4.550781-8.316406c-4.539063-8.296875-11.359375-15.117187-19.65625-19.65625l-8.316406-4.550781c-8.515625-4.65625-8.515625-16.878906 0-21.535156l8.316406-4.550781c8.296875-4.539063 15.117187-11.359376 19.65625-19.65625l4.550781-8.316407c4.65625-8.515625 16.882813-8.515625 21.535156 0zm0 0" fill="#ffcd00"/><path d="m412.390625 66.789062c-3.632813-1.988281-8.191406-.652343-10.179687 2.980469-1.984376 3.632813-.652344 8.191407 2.980468 10.179688 4.328125 2.363281 6.910156 6.722656 6.910156 11.648437 0 4.933594-2.582031 9.289063-6.910156 11.652344l-14.082031 7.703125c-15.332031 8.382813-27.871094 20.921875-36.257813 36.257813l-7.699218 14.082031c-2.367188 4.324219-6.722656 6.90625-11.652344 6.90625s-9.285156-2.582031-11.648438-6.90625l-7.703124-14.082031c-8.386719-15.335938-20.921876-27.871094-36.257813-36.257813l-14.082031-7.703125c-4.324219-2.363281-6.90625-6.722656-6.90625-11.652344 0-4.929687 2.582031-9.285156 6.90625-11.648437l14.082031-7.699219c15.335937-8.390625 27.871094-20.925781 36.257813-36.261719l7.703124-14.082031c2.363282-4.324219 6.71875-6.90625 11.648438-6.90625s9.285156 2.582031 11.652344 6.90625l7.699218 14.085938c5.726563 10.464843 13.328126 19.582031 22.597657 27.09375 3.21875 2.605468 7.941406 2.109374 10.550781-1.105469 2.605469-3.21875 2.109375-7.941407-1.105469-10.550781-7.746093-6.273438-14.097656-13.890626-18.882812-22.636719l-7.699219-14.082031c-5.039062-9.210938-14.3125-14.710938-24.8125-14.710938-10.496094 0-19.773438 5.5-24.808594 14.710938l-7.703125 14.082031c-2.242187 4.101562-4.84375 7.957031-7.757812 11.542969-1.585938-.160157-128.894531-.25-128.894531-.25-27.484376 0-50.863282 20.558593-54.386719 47.8125l-17.691407 137.003906c-.527343 4.109375 2.335938 8.359375 6.480469 8.398437 4.714844.046875 7.910157-2.695312 8.398438-6.476562l17.691406-137.003907c2.554687-19.800781 19.539063-34.734374 39.507813-34.734374h112.863281c-6.925781 4.921874-20.585938 11.703124-20.585938 11.703124-9.210937 5.035157-14.710937 14.3125-14.710937 24.808594 0 10.5 5.5 19.773438 14.710937 24.8125l14.078125 7.703125c21.980469 10.511719 31.40625 32.324219 31.40625 32.324219l-9.742187 35.015625c-.628907 2.257813-.164063 4.679687 1.253906 6.546875s3.625 2.964844 5.972656 2.964844h57.171875c8.574219 0 16.25 4.429687 20.535156 11.851562 4.285157 7.421875 4.285157 16.285156 0 23.710938l-146.257812 253.375c-4.027344 6.984375-10.90625 7.953125-15.996094 6.535156-5.09375-1.417969-10.476562-5.808594-10.3125-13.867188l3.089844-152.246093c.039062-2.015625-.734375-3.960938-2.144531-5.402344-1.410157-1.4375-3.339844-2.25-5.355469-2.25h-63.820312c-10.546876 0-20.589844-4.542969-27.554688-12.464844s-10.183594-18.464843-8.832031-28.921875l2.875-22.273437c.53125-4.109375-2.371094-7.871094-6.476563-8.398438-4.113281-.53125-7.871094 2.371094-8.402344 6.476563l-2.875 22.269531c-1.902343 14.738281 2.632813 29.589844 12.445313 40.75s23.960937 17.5625 38.820313 17.5625h56.167968l-2.933594 144.59375c-.273437 13.496094 7.261719 29.734375 29.328126 29.734375 10.164062 0 19.617187-5.328125 24.96875-14.597656l146.257812-253.375c6.996094-12.121094 6.996094-26.59375-.003906-38.710938-6.996094-12.117187-19.527344-19.351562-33.519532-19.351562h-47.304687l3.289063-11.820313c5.261718 5.753907 12.640624 9.054688 20.757812 9.054688h.003906c10.496094 0 19.773438-5.496094 24.8125-14.707031l7.699219-14.082032c7.007813-12.816406 17.484375-23.289062 30.296875-30.296875l14.082031-7.703125c9.210938-5.035156 14.707031-14.3125 14.707031-24.8125 0-10.496094-5.5-19.769531-14.710937-24.808594zm0 0"/><path d="m104.070312 379.804688-8.316406-4.546876c-7.054687-3.859374-12.820312-9.625-16.675781-16.675781l-4.550781-8.320312c-3.46875-6.34375-10.117188-10.285157-17.347656-10.285157-7.234376 0-13.878907 3.941407-17.351563 10.285157l-4.546875 8.320312c-3.859375 7.050781-9.625 12.816407-16.675781 16.675781l-8.320313 4.546876c-6.34375 3.472656-10.285156 10.121093-10.285156 17.351562s3.941406 13.878906 10.285156 17.347656l8.320313 4.550782c7.050781 3.855468 12.816406 9.625 16.675781 16.675781l4.546875 8.316406c3.46875 6.347656 10.117187 10.289063 17.347656 10.289063 7.234375 0 13.878907-3.941407 17.351563-10.289063l4.546875-8.316406c3.859375-7.050781 9.625-12.816407 16.675781-16.675781l8.320312-4.550782c6.34375-3.46875 10.285157-10.113281 10.285157-17.347656 0-7.230469-3.941407-13.878906-10.285157-17.351562zm-7.199218 21.539062-8.316406 4.550781c-9.574219 5.234375-17.402344 13.0625-22.640626 22.636719l-4.546874 8.320312c-1.226563 2.238282-3.339844 2.480469-4.191407 2.480469-.847656 0-2.960937-.242187-4.1875-2.480469l-4.546875-8.320312c-5.238281-9.570312-13.066406-17.398438-22.640625-22.636719l-8.316406-4.550781c-2.242187-1.226562-2.484375-3.335938-2.484375-4.1875s.242188-2.964844 2.484375-4.1875l8.316406-4.550781c9.574219-5.234375 17.402344-13.0625 22.640625-22.636719l4.546875-8.320312c1.226563-2.242188 3.339844-2.480469 4.1875-2.480469.851563 0 2.964844.238281 4.191407 2.480469l4.546874 8.320312c5.238282 9.570312 13.066407 17.398438 22.640626 22.636719l8.316406 4.550781c2.242187 1.226562 2.484375 3.335938 2.484375 4.1875s-.242188 2.960938-2.484375 4.1875zm0 0"/></svg>