<svg height="511pt" viewBox="-30 0 511 511.998" width="511pt" xmlns="http://www.w3.org/2000/svg"><path d="m364.707031 504.507812h-276.820312c-16.320313 0-29.546875-13.226562-29.546875-29.546874v-14.226563c0-49.167969 39.859375-89.027344 89.027344-89.027344h157.859374c49.167969 0 89.027344 39.859375 89.027344 89.027344v14.226563c0 16.320312-13.230468 29.546874-29.546875 29.546874zm0 0" fill="#8faa83"/><path d="m240.28125 371.707031h-92.914062c-49.167969 0-89.027344 39.859375-89.027344 89.027344v14.226563c0 16.320312 13.226562 29.550781 29.546875 29.550781h123.5c23.480469-40.742188 28.441406-96.886719 28.894531-132.804688zm0 0" fill="#809674"/><path d="m94.230469 403.984375s42.582031 41.890625 42.582031 100.523437h48.296875s1.609375-65.96875-45.445313-121.214843c-1.621093-1.695313-45.433593 20.691406-45.433593 20.691406zm0 0" fill="#c68d6d"/><path d="m358.359375 403.984375s-42.578125 41.890625-42.578125 100.523437h-48.296875s-1.609375-65.96875 45.445313-121.214843c1.621093-1.695313 45.429687 20.691406 45.429687 20.691406zm0 0" fill="#dd9f80"/><path d="m140.75 361.867188s-56.09375-9.214844-79.910156 20.277343c-10.417969 12.90625-22.550782 20.082031-32.902344 24.074219-12.011719 4.628906-16.054688 19.742188-8.007812 29.789062 17.210937 21.484376 48.238281 45.644532 91.273437 21.617188 68.824219-38.425781 97.171875-64.257812 97.171875-64.257812zm0 0" fill="#c6c5ca"/><path d="m311.84375 361.867188s56.089844-9.214844 79.90625 20.277343c10.421875 12.90625 22.554688 20.082031 32.90625 24.074219 12.007812 4.628906 16.050781 19.742188 8.003906 29.789062-17.210937 21.484376-48.238281 45.644532-91.269531 21.617188-68.828125-38.425781-97.175781-64.257812-97.175781-64.257812zm0 0" fill="#d8d7da"/><path d="m95.851562 243.472656c17.132813 17.136719 17.132813 44.914063 0 62.046875-17.136718 17.132813-44.914062 17.132813-62.046874 0-17.132813-17.132812-36.257813-64.035156-19.125-81.171875 17.136718-17.132812 64.039062 1.992188 81.171874 19.125zm0 0" fill="#8faa83"/><path d="m356.742188 243.472656c-17.132813 17.136719-17.132813 44.914063 0 62.046875 17.132812 17.132813 44.914062 17.132813 62.046874 0 17.132813-17.132812 36.253907-64.035156 19.121094-81.171875-17.132812-17.132812-64.035156 1.992188-81.167968 19.125zm0 0" fill="#a1bf94"/><path d="m241.792969 410.59375h-30.996094c-81.21875 0-147.667969-66.449219-147.667969-147.667969v-67.847656c0-89.742187 73.425782-163.167969 163.167969-163.167969s163.167969 73.425782 163.167969 163.167969v67.847656c0 81.21875-66.453125 147.667969-147.671875 147.667969zm0 0" fill="#b3d1a7"/><path d="m141.253906 299.097656c-7.613281-40.296875 4.832032-81.539062 32.078125-112.1875 40.523438-45.582031 52.964844-155 52.964844-155-89.742187 0-163.167969 73.425782-163.167969 163.167969v67.847656c0 80.664063 65.570313 146.765625 146.035156 147.660157-42.941406-35.5625-61.242187-76.191407-67.910156-111.488282zm0 0" fill="#a1bf94"/><path d="m226.296875 336.578125c-15.503906 0-28.066406-12.566406-28.066406-28.066406v-20.40625c0-4.230469 3.429687-7.660157 7.660156-7.660157h40.808594c4.234375 0 7.664062 3.429688 7.664062 7.660157v20.40625c-.003906 15.5-12.566406 28.066406-28.066406 28.066406zm0 0" fill="#57565c"/><path d="m162.351562 308.511719c0-13.167969-13.402343-23.839844-29.933593-23.839844-16.535157 0-29.9375 10.671875-29.9375 23.839844 0 13.164062 13.402343 23.839843 29.9375 23.839843 16.53125 0 29.933593-10.675781 29.933593-23.839843zm0 0" fill="#ffa6bb"/><path d="m350.113281 308.511719c0-13.167969-13.402343-23.839844-29.9375-23.839844-16.535156 0-29.9375 10.671875-29.9375 23.839844 0 13.164062 13.402344 23.839843 29.9375 23.839843 16.535157 0 29.9375-10.675781 29.9375-23.839843zm0 0" fill="#ffa6bb"/><path d="m72.347656 396.925781c6.171875 6.757813 5.695313 17.238281-1.0625 23.410157-6.757812 6.171874-17.238281 5.695312-23.410156-1.0625-6.171875-6.753907-15.542969-28.019532-8.785156-34.191407 6.757812-6.171875 27.085937 5.085938 33.257812 11.84375zm0 0" fill="#d8d7da"/><path d="m380.246094 396.925781c-6.171875 6.757813-5.699219 17.238281 1.058594 23.410157 6.757812 6.171874 17.242187 5.695312 23.414062-1.0625 6.171875-6.753907 15.542969-28.019532 8.785156-34.191407-6.757812-6.171875-27.085937 5.085938-33.257812 11.84375zm0 0" fill="#eaeaea"/><path d="m264.34375 78.277344c0 21.011718-17.035156 38.042968-38.046875 38.042968-21.015625 0-38.046875-17.03125-38.046875-38.042968 0-21.015625 17.035156-70.785156 38.046875-70.785156s38.046875 49.769531 38.046875 70.785156zm0 0" fill="#976cc1"/><path d="m244.699219 91.070312c9.171875 17.378907 2.519531 38.902344-14.859375 48.074219-17.378906 9.167969-38.902344 2.515625-48.074219-14.863281s-31.207031-103.546875-13.832031-112.71875c17.378906-9.171875 67.59375 62.128906 76.765625 79.507812zm0 0" fill="#b189e0"/><path d="m314.34375 287.933594v-12.4375c0-4.136719-3.351562-7.488282-7.492188-7.488282-4.136718 0-7.488281 3.351563-7.488281 7.488282v12.4375c0 4.136718 3.351563 7.492187 7.488281 7.492187 4.140626 0 7.492188-3.355469 7.492188-7.492187zm0 0"/><path d="m153.230469 287.933594v-12.4375c0-4.136719-3.355469-7.488282-7.492188-7.488282s-7.492187 3.351563-7.492187 7.488282v12.4375c0 4.136718 3.355468 7.492187 7.492187 7.492187s7.492188-3.355469 7.492188-7.492187zm0 0"/><path d="m261.851562 308.511719v-20.40625c0-8.355469-6.796874-15.152344-15.152343-15.152344h-40.804688c-8.359375 0-15.15625 6.796875-15.15625 15.152344v20.40625c0 19.605469 15.953125 35.554687 35.558594 35.554687 19.601563 0 35.554687-15.949218 35.554687-35.554687zm-56.128906 0s.074219-20.578125.171875-20.578125c0 0 40.976563.078125 40.976563.171875v20.40625c0 11.34375-9.230469 20.574219-20.574219 20.574219-11.347656 0-20.574219-9.230469-20.574219-20.574219zm0 0"/><path d="m424.085938 310.816406c9.699218-9.757812 19.261718-26.894531 24.289062-43.738281 6.355469-21.28125 4.519531-38.335937-5.167969-48.027344-9.457031-9.453125-25.992187-11.390625-46.25-5.6875v-18.285156c0-40.558594-14.625-79.9375-41.179687-110.878906-25.402344-29.601563-60.0625-49.679688-97.949219-56.839844-9.105469-17.921875-19.949219-27.359375-31.53125-27.359375-9.667969 0-18.882813 6.652344-26.980469 19.355469-15.070312-14.554688-26.152344-19.027344-34.875-14.417969-5.523437 2.910156-11.863281 9.9375-10.242187 35.5625-16.347657 7.671875-31.332031 17.851562-44.59375 30.320312-3.015625 2.832032-3.191407 7.597657-.328125 10.585938 3.992187 4.171875 9.140625 1.6875 10.589844.328125 10.839843-10.1875 22.933593-18.703125 36.050781-25.402344 2.257812 18.109375 13.773437 61.113281 19.222656 71.445313 7.710937 14.609375 29.636719 31.550781 58.195313 17.988281 23.976562-11.382813 22.355468-30.441406 22.667968-33 9.960938-8.605469 23.917969-30.355469 8.960938-68.46875 30.660156 7.929687 58.496094 25.246094 79.445312 49.65625 24.222656 28.230469 37.566406 64.140625 37.566406 101.125v67.84375c0 37.28125-14.628906 72.4375-41.183593 98.996094-26.558594 26.558593-61.71875 41.183593-98.996094 41.183593h-30.996094c-37.28125 0-72.4375-14.625-98.996093-41.183593-26.558594-26.558594-41.183594-61.714844-41.183594-98.996094v-67.84375c0-32.996094 10.308594-64.578125 29.820312-91.339844 2.4375-3.339843 1.699219-8.027343-1.640625-10.464843-3.34375-2.433594-8.027343-1.703126-10.46875 1.640624-21.386719 29.339844-32.691406 63.976563-32.691406 100.164063v18.285156c-20.261719-5.703125-36.796875-3.765625-46.253906 5.6875-9.6875 9.6875-11.523438 26.746094-5.167969 48.027344 3.902344 13.070313 10.519531 26.316406 17.832031 36.148437-2.4375 5.132813-3.777343 10.824219-3.777343 16.761719 0 21.488281 17.480468 38.96875 38.96875 38.96875 9.5625 0 18.316406-3.476562 25.101562-9.214843 1.726562 2.535156 3.53125 5.023437 5.414062 7.464843-20.28125 7.46875-32.894531 20.40625-32.964843 20.496094-11.164063-3.757813-17.414063-1.207031-20.753907 1.847656-3.0625 2.796875-5.9375 8.058594-4.285156 17.75-11.242187 5.210938-18.324218 11.511719-20.5625 19.800781-2.242187 8.304688-.457031 16.90625 4.898438 23.585938 11.246094 14.039062 23.636718 23.824219 36.761718 29.28125v4.992188c0 20.421874 16.617188 37.035156 37.039063 37.035156h276.816406c20.425781 0 37.039063-16.613282 37.039063-37.035156v-4.996094c13.128906-5.453125 25.519531-15.238282 36.761718-29.277344 5.355469-6.679688 7.484376-15.378906 4.898438-23.585938-4.507812-14.304687-19.078125-19.109374-20.5625-19.800781 1.652344-9.691406-1.222656-14.953125-4.285156-17.75-3.339844-3.050781-9.589844-5.605469-20.753906-1.847656-.070313-.089844-6.933594-13.6875-32.964844-20.496094 7.566406-9.808593 13.878906-20.378906 18.84375-31.523437 1.375.113281 23.179687 2.457031 40.402344-14.867188zm-184.015626-194.84375c-2.21875 7.167969-7.09375 13.046875-13.726562 16.546875-13.695312 7.222657-30.722656 1.964844-37.953125-11.734375-4.074219-7.71875-11.394531-31.871094-15.800781-55.515625-6.265625-33.613281-2.882813-45.453125-1.210938-47.035156 2.46875-.269531 12.960938 4.585937 33.953125 29.945313 14.871094 17.964843 28.570313 38.480468 32.742188 46.386718 3.5 6.636719 4.210937 14.238282 1.996093 21.40625zm13.371094-23.714844c-.613281-1.585937-17.925781-32.640624-43.421875-61.632812 5.554688-9.757812 11.601563-15.644531 16.277344-15.644531 5.871094 0 13.570313 8.867187 20.085937 23.136719 6.875 15.039062 17.960938 34.167968 7.058594 54.140624zm179.171875 137.386719c5.453125 5.453125 5.980469 17.84375 1.40625 33.148438-4.304687 14.410156-12.550781 29.453125-20.53125 37.429687-6.523437 6.527344-15.125 10.234375-24.113281 10.628906 4.984375-15.292968 7.582031-31.421874 7.582031-47.925781v-33.886719c16.367188-5.40625 29.792969-5.253906 35.65625.605469zm-190.820312 188.441407c6.828125 0 13.59375-.453126 20.261719-1.324219 4.230468 3.042969 9.21875 6.535156 14.996093 10.417969-6.027343 13.933593-10.578125 28.664062-13.527343 43.878906-.785157 4.0625 1.808593 8.433594 5.933593 8.777344 4.441407.371093 8.082031-2.347657 8.777344-5.929688 2.570313-13.277344 6.457031-26.144531 11.546875-38.367188 8.34375 5.351563 17.882812 11.242188 28.660156 17.574219-5.75 14.554688-9.078125 29.273438-9.925781 43.902344h-116.113281c-.707032-12.714844-3.804688-39.679687-16.855469-69.84375 5.773437-3.878906 10.761719-7.367187 14.992187-10.414063 6.667969.875 13.429688 1.328126 20.257813 1.328126zm-221.816407-188.4375c5.863282-5.867188 19.289063-6.015626 35.660157-.609376v33.886719c0 16.503907 2.59375 32.632813 7.578125 47.925781-8.054688-.351562-15.796875-3.378906-22.015625-8.703124 1.566406-1.402344 3.328125-2.621094 5.269531-3.597657 3.695312-1.863281 5.183594-6.367187 3.320312-10.058593-1.859374-3.695313-6.363281-5.179688-10.058593-3.324219-3.007813 1.515625-5.742188 3.390625-8.195313 5.535156-5.261718-7.972656-10.03125-18.085937-12.964844-27.910156-4.570312-15.304688-4.042968-27.695313 1.40625-33.144531zm37.265626 114.328124c-13.226563 0-27.074219-11.628906-23.53125-28.628906 8.960937 6.84375 21.335937 11.246094 35.203124 10.339844 1.671876 3.75 3.503907 7.433594 5.472657 11.050781-4.355469 4.464844-10.429688 7.238281-17.144531 7.238281zm-12.945313 46.8125c1.359375-.101562 16.609375 4.753907 22.519531 11.191407 3.386719 3.683593 3.117188 9.449219-.582031 12.828125-3.699219 3.375-9.378906 3.042968-12.828125-.585938-5.804688-6.109375-9.3125-22.101562-9.109375-23.433594zm-18.519531 40.535157c-2.332032-2.914063-3.105469-6.675781-2.125-10.316407.980468-3.625 4.316406-6.945312 10.769531-9.378906 2.347656 5.074219 5.21875 9.738282 7.921875 12.695313 4.742188 5.191406 18.894531 13.78125 33.992188 1.542969 10.308593-8.355469 10.492187-24.195313 1.542968-33.992188-2.171875-2.378906-5.433594-4.96875-9.144531-7.34375 6.820313-7.125 16.886719-12 30.011719-14.542969.8125.847657 26.496094 32.183594 71.464844 42.707031-14.832032 10.101563-35.523438 23.238282-62.660157 38.390626-17.171875 9.589843-33.675781 11.535156-49.039062 5.78125-11.628907-4.351563-22.640625-12.945313-32.734375-25.542969zm40.050781 42.9375c3.417969.550781 27.242187 4.292969 55.191406-13.566407 4.558594 12.09375 7.253907 24.257813 8.042969 36.324219h-41.175781c-24.757813 0-22.058594-22.757812-22.058594-22.757812zm78.257813 22.757812c-.847657-14.636719-4.179688-29.351562-9.929688-43.90625 10.777344-6.332031 20.316406-12.226562 28.664062-17.578125 10.933594 26.3125 13.804688 50 14.546876 61.484375zm220.621093 0h-41.179687c.792968-12.0625 3.476562-24.230469 8.039062-36.328125 29.53125 16.996094 51.78125 14.121094 55.199219 13.566406-.003906 0 .039063 22.761719-22.058594 22.761719zm43.585938-106.230469c.203125 1.332032-1.582031 14.296876-9.109375 23.433594-3.179688 3.867188-9.128906 3.960938-12.828125.585938-3.695313-3.378906-4.226563-9.398438-.582031-12.828125 10.105468-9.507813 21.164062-11.28125 22.519531-11.191407zm-24.433594-6.257812c-3.710937 2.375-6.972656 4.964844-9.148437 7.34375-8.945313 9.796875-8.496094 25.320312 1.542968 33.992188 14.171875 12.238281 29.253906 3.648437 33.992188-1.542969 2.703125-2.957031 5.574218-7.621094 7.925781-12.695313 1.25.554688 8.984375 3.578125 10.765625 9.378906 1.109375 3.605469.210938 7.402344-2.125 10.316407-10.089844 12.59375-21.105469 21.191406-32.730469 25.542969-15.367187 5.753906-31.867187 3.808593-49.039062-5.78125-27.136719-15.152344-47.828125-28.289063-62.664063-38.390626 25.800782-7.003906 55.859375-25.601562 71.46875-42.707031 13.125 2.542969 23.191406 7.417969 30.011719 14.542969zm0 0"/></svg>