<svg height="512pt" viewBox="0 0 512 512.00435" width="512pt" xmlns="http://www.w3.org/2000/svg"><path d="m207.292969 404.367188c-3.75-12.808594-.089844-26.648438 9.347656-36.082032l64.632813-64.636718c8.113281-8.113282 11.15625-20.011719 7.929687-31.023438l-3.695313-12.613281c-3.171874-10.824219 7.242188-20.6875 17.878907-16.9375l9.777343 3.449219c11.398438 4.019531 24.09375 1.136718 32.644532-7.410157l22.472656-22.472656c9.4375-9.4375 23.273438-13.097656 36.082031-9.347656 15.113281 4.421875 29.5 6.925781 39.648438 6.925781 33.398437 0 61.273437-27.085938 60.472656-60.472656-1.089844-45.523438-31.375-58.890625-66.316406-56.582032-13.160157.871094-24.199219-10.167968-23.328125-23.328124 2.304687-34.945313-11.0625-65.226563-56.582032-66.316407-33.386718-.800781-60.472656 27.074219-60.472656 60.472657 0 10.148437 2.503906 24.535156 6.925782 39.648437 3.75 12.808594.089843 26.644531-9.347657 36.082031l-151.640625 151.644532c-9.4375 9.433593-23.277344 13.09375-36.085937 9.347656-15.109375-4.421875-29.496094-6.925782-39.644531-6.925782-33.398438 0-61.273438 27.082032-60.472657 60.46875 1.089844 45.523438 31.371094 58.890626 66.316407 56.582032 13.160156-.867188 24.199218 10.171875 23.328124 23.332031-2.308593 34.941406 11.058594 65.222656 56.582032 66.3125 33.386718.800781 60.472656-27.070313 60.472656-60.46875 0-10.152344-2.507812-24.539063-6.925781-39.648437zm0 0" fill="#ccf8ff"/><path d="m214.21875 444.015625c0-10.152344-2.507812-24.539063-6.925781-39.648437-3.75-12.808594-.089844-26.648438 9.347656-36.082032l10.710937-10.710937c-2.449218-7.316407-4.875-14.210938-7.199218-20.574219-10.042969-27.480469-3.300782-58.277344 17.386718-78.964844l89.863282-89.867187c14.75-14.746094 22.464844-35.128907 21.066406-55.941407-1.050781-15.644531 1.378906-34.722656 14.953125-49.425781 15.59375-16.898437 35.882813-15.050781 50.632813-10.207031-3.972657-25.164062-19.875-44.210938-55.796876-45.074219-33.386718-.800781-60.472656 27.074219-60.472656 60.472657 0 10.148437 2.507813 24.535156 6.925782 39.648437 3.75 12.808594.089843 26.644531-9.347657 36.082031l-151.640625 151.644532c-9.4375 9.433593-23.277344 13.09375-36.085937 9.347656-15.109375-4.421875-29.496094-6.925782-39.644531-6.925782-33.398438 0-61.273438 27.082032-60.472657 60.46875 1.089844 45.523438 31.371094 58.890626 66.316407 56.582032 13.160156-.867188 24.199218 10.167968 23.328124 23.332031-2.308593 34.941406 11.058594 65.222656 56.582032 66.316406 33.386718.796875 60.472656-27.074219 60.472656-60.472656zm0 0" fill="#abebf4"/><path d="m260.695312 324.222656c-2.925781-2.925781-2.925781-7.675781 0-10.605468l15.273438-15.269532c6.179688-6.179687 8.492188-15.226562 6.035156-23.617187 0 0-9.523437-22.46875 2.105469-34.097657 11.628906-11.632812 31.550781-1.183593 31.550781-1.183593 8.625 3.042969 18.375.828125 24.84375-5.636719l22.472656-22.476562c11.4375-11.4375 28.105469-15.746094 43.492188-11.242188 14.390625 4.210938 28.074219 6.625 37.542969 6.625 14.375 0 28.367187-5.890625 38.398437-16.164062 9.726563-9.960938 14.902344-22.972657 14.574219-36.628907-.402344-16.816406-5.140625-29.488281-14.089844-37.667969-12.257812-11.199218-30.820312-12.496093-44.234375-11.609374-8.429687.554687-16.710937-2.570313-22.722656-8.585938-6.011719-6.011719-9.140625-14.292969-8.585938-22.722656.886719-13.414063-.410156-31.976563-11.609374-44.234375-8.179688-8.945313-20.851563-13.6875-37.667969-14.089844-11.570313-.277344-22.59375 3.339844-31.882813 10.464844-3.289062 2.519531-7.988281 1.902343-10.515625-1.386719-2.519531-3.289062-1.902343-7.996094 1.386719-10.515625 12.035156-9.230469 26.339844-13.917969 41.371094-13.5585938 21.0625.5039068 37.335937 6.8828128 48.382812 18.9687498 11.6875 12.789063 17.050782 31.925781 15.503906 55.339844-.273437 4.117187 1.265626 8.171875 4.222657 11.128906s7.011719 4.496094 11.128906 4.222657c23.414063-1.546876 42.550781 3.816406 55.339844 15.503906 12.085937 11.050781 18.464843 27.320312 18.96875 48.382812.421875 17.730469-6.265625 34.585938-18.839844 47.464844-12.835937 13.148438-30.742187 20.6875-49.132813 20.6875-10.832031 0-26.050781-2.636719-41.753906-7.230469-10.125-2.960937-21.113281-.105469-28.671875 7.453125l-22.476562 22.476563c-10.523438 10.527343-26.398438 14.128906-40.4375 9.175781l-9.78125-3.449219c-3.296875-1.160156-5.617188.574219-6.464844 1.378907-.84375.800781-2.703125 3.023437-1.722656 6.378906l3.695312 12.613281c4 13.652344.234375 28.378906-9.824219 38.4375l-15.269531 15.269531c-2.925781 2.929688-7.671875 2.929688-10.605469 0zm0 0"/><path d="m106.796875 494.703125c-12.9375-12.9375-18.664063-33.613281-17.117187-57.027344.273437-4.117187-1.265626-8.171875-4.222657-11.128906s-7.011719-4.496094-11.128906-4.222656c-23.410156 1.546875-42.550781-3.816407-55.339844-15.503907-12.078125-11.027343-18.464843-27.320312-18.9687498-48.382812-.4218752-17.730469 6.2656248-34.589844 18.8398438-47.46875 12.835937-13.144531 30.742187-20.683594 49.132813-20.683594 10.835937 0 26.054687 2.636719 41.753906 7.230469 10.125 2.960937 21.113281.105469 28.671875-7.457031l151.644531-151.640625c7.558594-7.5625 10.414062-18.546875 7.453125-28.671875-4.59375-15.703125-7.226563-30.921875-7.230469-41.757813.003906-8.6875 1.617188-17.179687 4.804688-25.238281 1.523437-3.855469 5.882812-5.742188 9.730468-4.21875 3.851563 1.519531 5.742188 5.882812 4.21875 9.734375-2.488281 6.296875-3.753906 12.933594-3.753906 19.722656 0 9.46875 2.414063 23.152344 6.625 37.542969 4.503906 15.390625.195313 32.054688-11.242187 43.492188l-151.644531 151.644531c-11.4375 11.4375-28.101563 15.746093-43.492188 11.242187-14.386719-4.207031-28.070312-6.625-37.542969-6.621094-14.371093-.003906-28.367187 5.890626-38.394531 16.160157-9.726562 9.964843-14.90625 22.972656-14.578125 36.628906.402344 16.820313 5.136719 29.492187 14.09375 37.667969 12.253906 11.203125 30.816406 12.496094 44.230469 11.609375 8.429687-.554688 16.710937 2.574219 22.722656 8.585937 6.011719 6.011719 9.140625 14.292969 8.585938 22.722656-.886719 13.414063.410156 31.976563 11.609374 44.234376 8.175782 8.949218 20.847657 13.6875 37.667969 14.089843 13.65625.328125 26.664063-4.847656 36.628907-14.574219 10.273437-10.03125 16.164062-24.027343 16.164062-38.398437 0-9.46875-2.417969-23.15625-6.625-37.542969-4.503906-15.386718-.195312-32.054687 11.242188-43.492187l28.648437-28.648438c2.929687-2.929687 7.679687-2.929687 10.609375 0 2.925781 2.929688 2.925781 7.675781 0 10.605469l-28.652344 28.652344c-7.558594 7.558594-10.414062 18.546875-7.453125 28.671875 4.59375 15.699219 7.230469 30.917969 7.230469 41.753906 0 18.386719-7.539062 36.296875-20.683594 49.128906-12.878906 12.574219-29.738281 19.265625-47.46875 18.839844-20.058594-.480469-35.78125-6.292969-46.769531-17.28125zm0 0"/></svg>