<svg height="512pt" viewBox="-90 0 512 512" width="512pt" xmlns="http://www.w3.org/2000/svg"><path d="m288.707031 141.097656v-101.5h-244.6875v101.5c0 45.117188 27.324219 84.199219 67.175781 103.261719 10.089844 4.828125 10.089844 18.453125 0 23.277344-39.855468 19.066406-67.175781 58.144531-67.175781 103.265625v101.5h244.6875v-101.5c0-45.117188-27.324219-84.199219-67.179687-103.265625-10.089844-4.824219-10.089844-18.449219 0-23.277344 39.855468-19.0625 67.179687-58.140625 67.179687-103.261719zm0 0" fill="#ccf8ff"/><path d="m44.019531 39.597656v101.5c0 45.121094 27.324219 84.199219 67.175781 103.261719 10.089844 4.828125 10.089844 18.453125 0 23.28125-39.855468 19.0625-67.175781 58.144531-67.175781 103.261719v101.5h65.082031c-15.230468-54.792969-20.117187-114.273438 10.246094-153.289063 35.152344-45.167969 33.007813-93.867187 22.296875-131.113281-8.617187-29.964844 11.277344-60.441406 42.171875-64.648438 71.214844-9.695312 104.890625-39.230468 104.890625-39.230468v-44.523438zm0 0" fill="#abebf4"/><path d="m173.074219 122.089844c-56.488281-22.363282-105.894531-10.457032-129.058594-2.078125v21.085937c0 45.117188 27.324219 84.199219 67.179687 103.261719.007813.003906 34.179688 11.894531 34.179688 36.949219.21875 0 .222656 8.875.171875 18.023437-.058594 10.90625 9.277344 19.78125 20.8125 19.78125 11.539063 0 20.875-8.875 20.816406-19.78125-.054687-9.148437-.046875-18.023437.171875-18.023437 0-25.054688 34.171875-36.945313 34.179688-36.949219 39.855468-19.0625 67.175781-58.144531 67.175781-103.261719.003906 0-76.679687-3.589844-115.628906-19.007812zm0 0" fill="#efd4bf"/><path d="m173.074219 122.089844c-56.488281-22.363282-105.894531-10.457032-129.058594-2.078125v21.085937c0 45.117188 27.324219 84.199219 67.179687 103.261719.003907.003906 25.40625 8.824219 32.40625 27.324219 8.402344-30.011719 5.054688-59.292969-1.957031-83.683594-8.148437-28.335938 9.292969-57.15625 37.328125-63.757812-1.941406-.703126-3.96875-1.390626-5.898437-2.152344zm0 0" fill="#e0c1ad"/><path d="m187.175781 364.167969c0-10.914063-9.359375-19.761719-20.902343-19.761719-11.542969 0-20.898438 8.847656-20.898438 19.761719 0 10.914062 9.355469 19.757812 20.898438 19.757812 11.542968 0 20.902343-8.84375 20.902343-19.757812zm0 0" fill="#efd4bf"/><path d="m112.515625 446.503906h107.691406s-15.925781-37.285156-53.84375-37.285156c-37.921875 0-53.847656 37.285156-53.847656 37.285156zm0 0" fill="#efd4bf"/><path d="m293.121094 71.695312h-253.519532c-17.726562 0-32.097656-14.371093-32.097656-32.097656 0-17.726562 14.371094-32.097656 32.097656-32.097656h253.519532c17.730468 0 32.101562 14.371094 32.101562 32.097656 0 17.726563-14.371094 32.097656-32.101562 32.097656zm0 0" fill="#dd9f80"/><path d="m104.71875 39.597656c0-17.726562 14.371094-32.097656 32.097656-32.097656h-97.214844c-17.726562 0-32.097656 14.371094-32.097656 32.097656 0 17.730469 14.371094 32.097656 32.097656 32.097656h97.214844c-17.726562 0-32.097656-14.371093-32.097656-32.097656zm0 0" fill="#c68d6d"/><path d="m293.121094 440.304688h-253.519532c-17.726562 0-32.097656 14.371093-32.097656 32.097656 0 17.726562 14.371094 32.097656 32.097656 32.097656h253.519532c17.730468 0 32.101562-14.371094 32.101562-32.097656 0-17.726563-14.371094-32.097656-32.101562-32.097656zm0 0" fill="#dd9f80"/><path d="m104.71875 472.402344c0-17.726563 14.371094-32.097656 32.097656-32.097656h-97.214844c-17.726562 0-32.097656 14.371093-32.097656 32.097656 0 17.726562 14.371094 32.097656 32.097656 32.097656h97.214844c-17.726562 0-32.097656-14.371094-32.097656-32.097656zm0 0" fill="#c68d6d"/><path d="m247.019531 188.957031c4.140625 0 7.5-3.359375 7.5-7.5v-12.453125c0-4.140625-3.359375-7.5-7.5-7.5s-7.5 3.359375-7.5 7.5v12.453125c0 4.140625 3.355469 7.5 7.5 7.5zm0 0"/><path d="m85.703125 161.503906c-4.140625 0-7.5 3.359375-7.5 7.5v12.453125c0 4.140625 3.359375 7.5 7.5 7.5 4.144531 0 7.5-3.359375 7.5-7.5v-12.453125c0-4.140625-3.355469-7.5-7.5-7.5zm0 0"/><path d="m195.203125 176.863281c-2.535156-3.273437-7.25-3.871093-10.519531-1.332031-10.789063 8.367188-25.855469 8.367188-36.640625 0-3.273438-2.539062-7.984375-1.941406-10.523438 1.332031-2.539062 3.273438-1.945312 7.984375 1.328125 10.523438 8.101563 6.28125 17.808594 9.421875 27.515625 9.421875s19.414063-3.140625 27.515625-9.421875c3.269532-2.539063 3.863282-7.25 1.324219-10.523438zm0 0"/><path d="m296.207031 432.933594v-62.03125c0-46.789063-27.375-88.949219-71.441406-110.03125-2.980469-1.425782-3.304687-3.882813-3.304687-4.871094s.320312-3.445312 3.304687-4.871094c44.066406-21.082031 71.441406-63.242187 71.441406-110.027344v-62.035156c20.398438-1.582031 36.515625-18.671875 36.515625-39.46875 0-21.832031-17.765625-39.597656-39.601562-39.597656h-253.519532c-21.835937 0-39.59765575 17.765625-39.59765575 39.597656 0 20.796875 16.11718775 37.886719 36.51562475 39.46875v62.035156c0 46.785157 27.375 88.945313 71.441407 110.027344 2.980468 1.425782 3.300781 3.882813 3.300781 4.871094s-.320313 3.445312-3.300781 4.871094c-21.042969 10.070312-38.828126 25.394531-51.4375 44.316406-2.296876 3.445312-1.378907 8.128906 2.082031 10.398438 4.234375 2.773437 8.957031.085937 10.402343-2.082032 11.109376-16.679687 26.816407-30.195312 45.425782-39.101562 5.757812-2.753906 9.78125-7.726563 11.226562-13.566406 8.105469 6.273437 12.214844 13.152343 12.214844 20.472656 0 .449218.238281 5.878906.171875 17.980468-.039063 7.078126 2.800781 27.324219 28.3125 27.324219 25.515625 0 28.351563-20.246093 28.3125-27.324219-.066406-12.097656.175781-17.53125.175781-17.980468 0-7.324219 4.105469-14.203125 12.210938-20.476563 1.445312 5.839844 5.472656 10.816407 11.230468 13.570313 38.808594 18.566406 62.914063 55.542968 62.914063 96.5v61.902344h-60.207031c-8.347656-12.328126-25.792969-31.085938-54.636719-31.085938-28.839844 0-46.285156 18.757812-54.632813 31.085938h-60.210937v-61.902344c0-10.371094 1.554687-20.617188 4.617187-30.464844 1.230469-3.957031-.980468-8.160156-4.933593-9.390625-3.953125-1.234375-8.160157.976563-9.390625 4.933594-3.511719 11.289062-5.292969 23.039062-5.292969 34.921875v62.03125c-20.398437 1.582031-36.515625 18.671875-36.515625 39.46875 0 21.832031 17.765625 39.597656 39.597656 39.597656h253.523438c21.832031 0 39.597656-17.765625 39.597656-39.597656.003906-20.796875-16.113281-37.886719-36.511719-39.46875zm-281.203125-393.335938c0-13.5625 11.035156-24.597656 24.597656-24.597656h253.519532c13.566406 0 24.601562 11.035156 24.601562 24.597656 0 13.566406-11.035156 24.601563-24.601562 24.601563h-48.0625c-4.140625 0-7.5 3.355469-7.5 7.5 0 4.140625 3.359375 7.5 7.5 7.5h36.148437v53.933593c-20.324219-1.375-75.179687-6.0625-105.367187-18.015624-51.371094-20.332032-96.988282-13.574219-124.320313-5.457032v-30.464844h162.441407c4.144531 0 7.5-3.355468 7.5-7.5 0-4.140624-3.355469-7.5-7.5-7.5h-174.359376c-13.566406 0-24.597656-11.035156-24.597656-24.597656zm164.84375 241.542969c-.257812 2.980469-.230468 8.191406-.171875 18.230469.015625 3.058594-1.824219 12.242187-13.3125 12.242187-11.492187 0-13.332031-9.183593-13.3125-12.242187.054688-10.023438.082031-15.234375-.175781-18.214844-.121094-28.433594-34.144531-42.003906-38.71875-43.699219-38.644531-18.605469-62.636719-55.5-62.636719-96.355469v-15.734374c24.496094-7.988282 68.667969-16.144532 118.796875 3.695312 32.878906 13.019531 90.207032 17.773438 110.640625 19.101562-2.589843 38.011719-25.984375 71.765626-62.390625 89.292969-4.546875 1.6875-38.582031 15.273438-38.71875 43.683594zm-13.484375 135.578125c16.171875 0 27.820313 7.988281 35.476563 16.085938h-70.957032c7.65625-8.097657 19.304688-16.085938 35.480469-16.085938zm126.757813 80.28125h-253.519532c-13.5625 0-24.597656-11.035156-24.597656-24.597656s11.035156-24.597656 24.597656-24.597656h253.519532c13.566406 0 24.601562 11.035156 24.601562 24.597656s-11.035156 24.597656-24.601562 24.597656zm0 0"/><path d="m194.675781 364.167969c0-15.03125-12.742187-27.261719-28.402343-27.261719-15.660157 0-28.398438 12.230469-28.398438 27.261719 0 15.027343 12.742188 27.257812 28.398438 27.257812 15.660156 0 28.402343-12.230469 28.402343-27.257812zm-41.800781 0c0-6.761719 6.011719-12.261719 13.398438-12.261719 7.390624 0 13.402343 5.5 13.402343 12.261719 0 6.757812-6.011719 12.257812-13.402343 12.257812-7.386719 0-13.398438-5.5-13.398438-12.257812zm0 0"/></svg>