<svg height="512pt" viewBox="-51 0 512 512" width="512pt" xmlns="http://www.w3.org/2000/svg"><path d="m205.265625 504.5c-15.726563 0-28.476563-12.746094-28.476563-28.472656v-440.054688c0-15.722656 12.75-28.472656 28.476563-28.472656s28.472656 12.746094 28.472656 28.472656v440.054688c0 15.726562-12.746093 28.472656-28.472656 28.472656zm0 0" fill="#dd9f80"/><path d="m176.789062 281.277344v155.550781c23.347657-2.507813 42.097657-9.035156 56.949219-17.050781v-138.5zm0 0" fill="#c68d6d"/><path d="m376.109375 137.964844h-341.6875c-14.867187 0-26.921875-12.054688-26.921875-26.921875 0-14.867188 12.054688-26.921875 26.921875-26.921875h341.6875c14.867187 0 26.921875 12.054687 26.921875 26.921875 0 14.867187-12.054688 26.921875-26.921875 26.921875zm0 0" fill="#eab9a4"/><path d="m319.589844 84.121094h-228.648438v194.097656c0 22.175781 10.90625 42.933594 29.164063 55.519531l62.140625 42.816407c13.859375 9.550781 32.179687 9.550781 46.039062 0l62.140625-42.816407c18.257813-12.585937 29.164063-33.34375 29.164063-55.519531zm0 0" fill="#ff929f"/><path d="m90.941406 84.121094v194.097656c0 22.175781 10.90625 42.933594 29.164063 55.519531l62.140625 42.816407c6.929687 4.777343 14.976562 7.164062 23.019531 7.164062v-299.597656zm0 0" fill="#ff737d"/><path d="m252.765625 196.453125c-11.144531-11.21875-28.234375-12.894531-41.15625-5.035156-3.835937 2.332031-8.636719 2.433593-12.457031.082031-12.90625-7.933594-30.027344-6.3125-41.207032 4.871094-13.082031 13.078125-13.082031 34.285156 0 47.367187l30.59375 30.59375c9.265626 9.265625 24.28125 9.265625 33.546876 0l30.335937-30.335937c13.089844-13.089844 13.386719-34.40625.34375-47.542969zm0 0" fill="#fff"/><path d="m205.265625 281.277344v-88.066406c-2.121094.003906-4.234375-.554688-6.113281-1.710938-12.90625-7.933594-30.027344-6.3125-41.207032 4.867188-13.082031 13.082031-13.082031 34.289062 0 47.371093l30.59375 30.59375c4.621094 4.621094 10.671876 6.933594 16.726563 6.945313zm0 0" fill="#ccf8ff"/><path d="m376.109375 76.621094h-134.871094v-40.644532c0-19.839843-16.136719-35.976562-35.972656-35.976562s-35.976563 16.136719-35.976563 35.976562v40.644532h-134.867187c-18.980469 0-34.421875 15.441406-34.421875 34.421875s15.441406 34.421875 34.421875 34.421875h49.019531v75.332031c0 4.140625 3.355469 7.5 7.5 7.5 4.140625 0 7.5-3.359375 7.5-7.5v-129.175781h99.324219v90.738281c-15.234375-6.566406-33.078125-3.339844-45.125 8.707031-15.984375 15.984375-15.984375 41.992188 0 57.972656l30.597656 30.597657c4.074219 4.074219 9.074219 6.882812 14.527344 8.230469v87.457031c-3.972656-.914063-7.800781-2.558594-11.265625-4.945313l-62.136719-42.816406c-16.234375-11.183594-25.921875-29.632812-25.921875-49.34375v-24.535156c0-4.140625-3.359375-7.5-7.5-7.5-4.144531 0-7.5 3.359375-7.5 7.5v24.535156c0 24.648438 12.117188 47.710938 32.410156 61.695312l53.4375 36.824219v99.289063c0 19.835937 16.140626 35.972656 35.976563 35.972656s35.972656-16.136719 35.972656-35.972656v-99.289063l53.441407-36.824219c20.292968-13.984374 32.410156-37.050781 32.410156-61.695312v-186.597656h49.019531c10.707031 0 19.421875 8.710937 19.421875 19.421875 0 10.707031-8.710938 19.421875-19.421875 19.421875h-25.59375c-4.140625 0-7.5 3.355468-7.5 7.5 0 4.140625 3.359375 7.5 7.5 7.5h25.59375c18.980469 0 34.421875-15.441406 34.421875-34.421875s-15.441406-34.421875-34.421875-34.421875zm-292.667969 53.84375h-49.019531c-10.707031 0-19.421875-8.714844-19.421875-19.421875 0-10.710938 8.710938-19.421875 19.421875-19.421875h49.019531zm100.847656-94.488282c0-11.566406 9.410157-20.976562 20.976563-20.976562 11.5625 0 20.972656 9.410156 20.972656 20.976562v40.644532h-41.949219zm-21.042968 202.457032c-10.132813-10.132813-10.132813-26.625 0-36.757813 5.039062-5.039062 11.675781-7.648437 18.378906-7.648437 4.671875 0 9.378906 1.269531 13.601562 3.863281 6.1875 3.804687 13.957032 3.78125 20.28125-.066406 10.296876-6.261719 23.429688-4.652344 31.933594 3.914062 10.066406 10.136719 9.921875 26.710938-.320312 36.953125l-30.339844 30.339844c-3.0625 3.0625-7.136719 4.75-11.46875 4.75s-8.402344-1.6875-11.46875-4.75zm42.019531 258.566406c-11.566406 0-20.976563-9.410156-20.976563-20.972656v-89.636719c6.597657 3.179687 13.785157 4.773437 20.976563 4.773437 7.1875 0 14.378906-1.59375 20.972656-4.773437v89.636719c0 11.5625-9.410156 20.972656-20.972656 20.972656zm106.824219-218.78125c0 19.710938-9.691406 38.160156-25.921875 49.34375l-62.140625 42.816406c-3.460938 2.386719-7.292969 4.03125-11.261719 4.945313v-87.4375c5.488281-1.335938 10.523437-4.152344 14.621094-8.25l30.339843-30.335938c16.070313-16.070312 16.230469-42.148437.359376-58.132812-12.0625-12.144531-30.015626-15.40625-45.320313-8.769531v-90.777344h99.324219zm0 0"/></svg>