<svg height="511pt" viewBox="0 -45 511.99969 511" width="511pt" xmlns="http://www.w3.org/2000/svg"><path d="m11.992188 175.910156 52.660156-125.476562c10.789062-25.710938 35.949218-42.4375 63.828125-42.4375h255.039062c27.878907 0 53.039063 16.726562 63.828125 42.4375l52.664063 125.472656c9.675781 23.066406 3.117187 49.746094-16.152344 65.691406l-192.65625 159.441406c-20.421875 16.90625-49.980469 16.90625-70.40625 0l-192.65625-159.4375c-19.269531-15.949218-25.832031-42.628906-16.148437-65.691406zm0 0" fill="#8ed7e8"/><path d="m10.132812 214.746094c3.195313 10.257812 9.304688 19.652344 18.007813 26.855468l192.65625 159.4375c20.425781 16.90625 49.980469 16.90625 70.40625 0l192.65625-159.4375c8.703125-7.203124 14.8125-16.597656 18.007813-26.855468zm0 0" fill="#7ac1dd"/><path d="m427.746094 288.042969 56.113281-46.441407c8.703125-7.203124 14.8125-16.597656 18.007813-26.855468h-491.734376c3.195313 10.257812 9.304688 19.652344 18.007813 26.855468l56.113281 46.441407c113.09375-25.34375 230.398438-25.34375 343.492188 0zm0 0" fill="#61a5ce"/><path d="m169.230469 214.746094h173.539062l-86.769531-206.75zm0 0" fill="#ccf8ff"/><path d="m501.867188 214.746094c3.875-12.457032 3.449218-26.191406-1.859376-38.835938l-52.660156-125.476562c-5.03125-11.996094-13.199218-22.035156-23.308594-29.332032l-81.269531 193.644532zm0 0" fill="#abebf4"/><path d="m87.957031 21.097656c-10.109375 7.300782-18.273437 17.339844-23.308593 29.335938l-52.65625 125.476562c-5.308594 12.644532-5.734376 26.378906-1.859376 38.835938h159.097657zm0 0" fill="#abebf4"/><path d="m342.769531 214.746094h-173.539062l51.5625 186.292968c20.425781 16.90625 49.984375 16.90625 70.410156 0zm0 0" fill="#8ed7e8"/><path d="m256 166.558594c-15.515625 0-28.09375-12.578125-28.09375-28.089844v-20.425781c0-4.238281 3.433594-7.667969 7.667969-7.667969h40.851562c4.234375 0 7.667969 3.429688 7.667969 7.667969v20.425781c0 15.511719-12.578125 28.089844-28.09375 28.089844zm0 0" fill="#57565c"/><path d="m191.992188 138.464844c0-13.179688-13.414063-23.863282-29.964844-23.863282-16.546875 0-29.964844 10.683594-29.964844 23.863282 0 13.179687 13.417969 23.863281 29.964844 23.863281 16.550781 0 29.964844-10.683594 29.964844-23.863281zm0 0" fill="#ffc7de"/><path d="m379.9375 138.464844c0-13.179688-13.417969-23.863282-29.964844-23.863282-16.550781 0-29.96875 10.683594-29.96875 23.863282 0 13.179687 13.417969 23.863281 29.96875 23.863281 16.546875 0 29.964844-10.683594 29.964844-23.863281zm0 0" fill="#ffc7de"/><path d="m185.144531 272.238281c47.140625-4.269531 94.570313-4.269531 141.710938 0l15.914062-57.492187h-173.539062zm0 0" fill="#7ac1dd"/><path d="m336.636719 125.367188c4.140625 0 7.496093-3.355469 7.496093-7.496094v-12.449219c0-4.140625-3.355468-7.5-7.496093-7.5s-7.5 3.359375-7.5 7.5v12.449219c0 4.140625 3.359375 7.496094 7.5 7.496094zm0 0"/><path d="m175.363281 125.367188c4.144531 0 7.5-3.355469 7.5-7.496094v-12.449219c0-4.140625-3.355469-7.5-7.5-7.5-4.140625 0-7.496093 3.359375-7.496093 7.5v12.449219c0 4.140625 3.355468 7.496094 7.496093 7.496094zm0 0"/><path d="m506.925781 173.007812-52.664062-125.476562c-11.988281-28.570312-39.757813-47.03125-70.742188-47.03125h-255.039062c-30.984375 0-58.753907 18.460938-70.742188 47.03125l-52.660156 125.476562c-11.039063 26.296876-3.691406 56.183594 18.28125 74.371094l192.65625 159.4375c11.585937 9.589844 25.78125 14.382813 39.984375 14.382813 14.199219 0 28.402344-4.796875 39.984375-14.382813l192.65625-159.4375c21.972656-18.183594 29.320313-48.074218 18.285156-74.371094zm-488.023437 5.800782 52.660156-125.472656c3.199219-7.625 7.804688-14.347657 13.425781-19.9375l29.265625 69.730468c1.203125 2.871094 4.59375 5.722656 9.816406 4.011719 3.933594-1.289063 5.613282-5.996094 4.011719-9.816406l-30.800781-73.382813c9.257812-5.417968 19.964844-8.445312 31.199219-8.445312h116.242187l-23.730468 56.539062c-1.601563 3.816406.195312 8.214844 4.011718 9.816406 3.820313 1.601563 8.214844-.195312 9.816406-4.015624l21.179688-50.464844 21.179688 50.464844c1.207031 2.875 3.824218 6.398437 9.816406 4.015624 3.847656-1.53125 5.613281-6 4.011718-9.816406l-23.730468-56.539062h116.242187c11.234375 0 21.9375 3.027344 31.199219 8.445312l-30.800781 73.382813c-1.601563 3.820312.128906 8.378906 4.011719 9.816406 5.265624 1.953125 8.613281-1.140625 9.816406-4.011719l29.261718-69.730468c5.625 5.589843 10.226563 12.3125 13.425782 19.9375l52.660156 125.472656c3.894531 9.277344 4.796875 19.136718 3.003906 28.4375h-142.050781l17.636719-42.015625c1.601562-3.820313-.195313-8.214844-4.015625-9.816407-3.816407-1.597656-8.210938.195313-9.8125 4.011719l-20.070313 47.824219h-163.570312l-20.070313-47.824219c-1.601562-3.816406-5.996093-5.609375-9.816406-4.011719-3.816406 1.605469-5.613281 5.996094-4.011719 9.816407l17.636719 42.015625h-142.050781c-1.792969-9.296875-.890625-19.160156 3-28.4375zm2.558594 43.4375h142.0625l43.683593 157.816406-174.285156-144.238281c-4.722656-3.90625-8.5625-8.519531-11.460937-13.578125zm205.90625 174.425781-48.28125-174.425781h153.828124l-48.28125 174.425781c-16.933593 12.707031-40.335937 12.707031-57.265624 0zm251.710937-160.847656-174.285156 144.238281 43.679687-157.816406h142.066406c-2.898437 5.058594-6.738281 9.671875-11.460937 13.578125zm0 0"/><path d="m256 174.058594c19.625 0 35.589844-15.964844 35.589844-35.589844v-20.425781c0-8.363281-6.804688-15.167969-15.164063-15.167969h-40.851562c-8.363281 0-15.164063 6.804688-15.164063 15.167969v20.425781c0 19.625 15.964844 35.589844 35.589844 35.589844zm-20.421875-56.1875h40.847656c.09375 0 .171875 20.597656.171875 20.597656-.003906 11.355469-9.242187 20.59375-20.597656 20.59375s-20.59375-9.238281-20.59375-20.59375c0 0 .074219-20.597656.171875-20.597656zm0 0"/></svg>