<svg height="512pt" viewBox="0 -46 512.00062 512" width="512pt" xmlns="http://www.w3.org/2000/svg"><path d="m500.867188 117.703125c-10.375-10.542969-19.070313-25.621094-19.121094-46.574219-.078125-34.992187-23.691406-63.628906-58.6875-63.628906h-100.140625v131.480469h169.136719c11.109374 0 16.601562-13.359375 8.8125-21.277344zm0 0" fill="#e0c1ad"/><path d="m322.917969 7.5v76.492188h160.019531c-.761719-4.023438-1.179688-8.292969-1.191406-12.863282-.078125-34.992187-23.691406-63.628906-58.6875-63.628906zm0 0" fill="#ccaa97"/><path d="m198.605469 7.5c-49.550781 0-89.722657 40.171875-89.722657 89.722656v315.070313h205.5625c26.769532 0 48.46875-21.699219 48.46875-48.46875v-296.179688c0-33.21875 26.929688-60.144531 60.148438-60.144531zm0 0" fill="#efd4bf"/><path d="m222.742188 339.640625-113.859376 1.019531v71.632813h205.5625c26.769532 0 48.46875-21.703125 48.46875-48.472657v-24.265624c-73.066406 7.445312-140.171874.085937-140.171874.085937zm0 0" fill="#e0c1ad"/><path d="m265.972656 363.820312v-35.066406c0-26.476562-21.464844-47.941406-47.941406-47.941406h-198.042969c-11.109375 0-16.601562 13.359375-8.8125 21.277344 10.371094 10.539062 19.070313 25.621094 19.117188 46.570312.082031 34.996094 28.367187 63.632813 63.363281 63.632813h220.789062c-26.769531 0-48.472656-21.703125-48.472656-48.472657zm0 0" fill="#fce6d4"/><path d="m140.296875 350.964844c0-10.070313-8.164063-18.234375-18.230469-18.234375h-93.617187c1.171875 4.894531 1.832031 10.183593 1.84375 15.929687.019531 7.179688 1.21875 14.085938 3.425781 20.539063h88.347656c10.066406 0 18.230469-8.164063 18.230469-18.234375zm0 0" fill="#efd4bf"/><path d="m200.617188 369.199219h-14.667969c-10.070313 0-18.234375-8.164063-18.234375-18.234375 0-10.070313 8.164062-18.234375 18.234375-18.234375h14.667969c10.070312 0 18.234374 8.164062 18.234374 18.234375 0 10.070312-8.164062 18.234375-18.234374 18.234375zm0 0" fill="#efd4bf"/><path d="m316.554688 83.992188c-4.144532 0-7.5 3.359374-7.5 7.5v12.449218c0 4.144532 3.355468 7.5 7.5 7.5 4.140624 0 7.5-3.355468 7.5-7.5v-12.449218c0-4.140626-3.359376-7.5-7.5-7.5zm0 0"/><path d="m155.246094 111.441406c4.140625 0 7.496094-3.355468 7.496094-7.5v-12.449218c0-4.140626-3.355469-7.5-7.496094-7.5-4.144532 0-7.5 3.359374-7.5 7.5v12.449218c0 4.144532 3.355468 7.5 7.5 7.5zm0 0"/><path d="m208.386719 109.871094c8.097656 6.285156 17.804687 9.425781 27.511719 9.425781 9.707031 0 19.414062-3.140625 27.515624-9.425781 3.273438-2.539063 3.867188-7.25 1.328126-10.523438-2.539063-3.269531-7.25-3.867187-10.523438-1.328125-10.785156 8.367188-25.851562 8.367188-36.640625 0-3.269531-2.539062-7.984375-1.945312-10.519531 1.328125-2.539063 3.273438-1.945313 7.988282 1.328125 10.523438zm0 0"/><path d="m316.554688 162.128906h-160.796876c-4.144531 0-7.5 3.355469-7.5 7.5 0 4.140625 3.355469 7.5 7.5 7.5h160.796876c4.140624 0 7.5-3.359375 7.5-7.5 0-4.144531-3.359376-7.5-7.5-7.5zm0 0"/><path d="m316.554688 199.167969h-160.796876c-4.144531 0-7.5 3.359375-7.5 7.5s3.355469 7.5 7.5 7.5h160.796876c4.140624 0 7.5-3.359375 7.5-7.5s-3.359376-7.5-7.5-7.5zm0 0"/><path d="m316.554688 236.207031h-82.769532c-4.144531 0-7.5 3.359375-7.5 7.5 0 4.144531 3.355469 7.5 7.5 7.5h82.769532c4.140624 0 7.5-3.355469 7.5-7.5 0-4.140625-3.359376-7.5-7.5-7.5zm0 0"/><path d="m506.210938 112.441406c-11.21875-11.402344-16.925782-25.308594-16.964844-41.328125-.09375-40.539062-28.546875-71.113281-66.1875-71.113281h-224.453125c-53.609375 0-97.222657 43.613281-97.222657 97.222656v176.089844h-81.394531c-8.1875 0-15.230469 4.679688-18.386719 12.210938-3.175781 7.582031-1.5585932 15.945312 4.226563 21.828124 11.222656 11.402344 16.929687 25.304688 16.964844 41.328126.09375 39.210937 31.878906 71.113281 70.863281 71.113281h220.789062c30.859376 0 55.96875-25.109375 55.96875-55.972657v-296.175781c0-29.027343 23.617188-52.644531 52.648438-52.644531 29.582031 0 51.109375 23.613281 51.1875 56.148438.046875 20.082031 7.203125 37.515624 21.269531 51.8125 2.148438 2.183593 1.476563 4.582031 1.085938 5.511718-.378907.902344-1.582031 3.007813-4.550781 3.007813h-99.171876c-4.140624 0-7.5 3.359375-7.5 7.5s3.359376 7.5 7.5 7.5h99.171876c8.183593 0 15.230468-4.679688 18.386718-12.210938 3.128906-7.46875 1.46875-16.035156-4.230468-21.828125zm-150.796876-44.796875v296.175781c0 22.589844-18.378906 40.972657-40.96875 40.972657-22.59375 0-40.972656-18.382813-40.972656-40.972657v-35.070312c0-30.566406-24.871094-55.4375-55.441406-55.4375h-35.644531c-4.144531 0-7.5 3.355469-7.5 7.5 0 4.140625 3.355469 7.5 7.5 7.5h35.644531c22.300781 0 40.441406 18.140625 40.441406 40.4375v35.070312c0 16.164063 6.886719 30.746094 17.875 40.972657h-182.691406c-30.730469 0-55.789062-25.191407-55.863281-56.148438-.046875-20.082031-7.203125-37.515625-21.273438-51.816406-2.144531-2.183594-1.472656-4.578125-1.082031-5.507813.378906-.90625 1.578125-3.007812 4.550781-3.007812h130.179688c4.140625 0 7.5-3.359375 7.5-7.5 0-4.144531-3.359375-7.5-7.5-7.5h-33.785157v-176.089844c0-45.339844 36.886719-82.222656 82.222657-82.222656h182.023437c-15.367187 12.410156-25.214844 31.398438-25.214844 52.644531zm0 0"/></svg>