<svg height="512pt" viewBox="0 -44 512.00121 512" width="512pt" xmlns="http://www.w3.org/2000/svg"><path d="m134.210938 149.945312 11.53125 23.363282c5.667968 11.484375 16.621093 19.445312 29.296874 21.285156l25.78125 3.746094c18.597657 2.703125 26.023438 25.558594 12.566407 38.675781l-18.65625 18.183594c-9.167969 8.941406-13.355469 21.820312-11.191407 34.441406l4.40625 25.679687c3.175782 18.523438-16.265624 32.648438-32.898437 23.902344l-23.058594-12.125c-11.335937-5.957031-24.878906-5.957031-36.214843 0l-23.0625 12.125c-16.632813 8.746094-36.074219-5.378906-32.894532-23.902344l4.402344-25.679687c2.164062-12.621094-2.019531-25.5-11.191406-34.441406l-18.65625-18.183594c-13.457032-13.117187-6.03125-35.972656 12.566406-38.671875l25.78125-3.746094c12.671875-1.84375 23.628906-9.800781 29.296875-21.285156l11.53125-23.363281c8.316406-16.855469 32.347656-16.855469 40.664063-.003907zm0 0" fill="#b2e59c"/><path d="m200.820312 198.339844-25.78125-3.746094c-5.027343-.726562-9.792968-2.425781-14.054687-4.921875-12.398437 8.660156-31.421875 15.667969-53.949219 21.929687-48.441406 13.460938-39.695312 51.1875-13.667968 86.023438 6.710937 8.984375 11.5 17.570312 14.9375 25.40625 8.015624-1.15625 16.316406.199219 23.683593 4.070312l23.058594 12.121094c16.632813 8.746094 36.074219-5.378906 32.898437-23.902344l-4.40625-25.675781c-2.164062-12.625 2.023438-25.503906 11.191407-34.441406l18.65625-18.183594c13.457031-13.121093 6.03125-35.976562-12.566407-38.679687zm0 0" fill="#9ad880"/><path d="m418.457031 149.945312 11.527344 23.363282c5.667969 11.484375 16.625 19.445312 29.296875 21.285156l25.785156 3.746094c18.597656 2.703125 26.023438 25.558594 12.566406 38.675781l-18.65625 18.183594c-9.171874 8.941406-13.355468 21.820312-11.191406 34.441406l4.402344 25.679687c3.179688 18.523438-16.261719 32.648438-32.898438 23.902344l-23.058593-12.125c-11.335938-5.957031-24.878907-5.957031-36.214844 0l-23.058594 12.125c-16.632812 8.746094-36.074219-5.378906-32.898437-23.902344l4.402344-25.679687c2.164062-12.621094-2.019532-25.5-11.191407-34.441406l-18.65625-18.183594c-13.457031-13.117187-6.03125-35.972656 12.566407-38.671875l25.785156-3.746094c12.671875-1.84375 23.628906-9.800781 29.296875-21.285156l11.527343-23.363281c8.320313-16.855469 32.347657-16.855469 40.667969-.003907zm0 0" fill="#abebf4"/><path d="m311.179688 198.339844 25.785156-3.746094c5.027344-.726562 9.789062-2.425781 14.054687-4.921875 12.394531 8.660156 31.421875 15.667969 53.949219 21.929687 48.4375 13.460938 39.691406 51.183594 13.664062 86.023438-6.707031 8.980469-11.496093 17.570312-14.9375 25.40625-8.015624-1.160156-16.316406.199219-23.679687 4.070312l-23.058594 12.121094c-16.636719 8.746094-36.078125-5.378906-32.902343-23.902344l4.40625-25.679687c2.164062-12.621094-2.019532-25.5-11.191407-34.4375l-18.65625-18.1875c-13.457031-13.117187-6.03125-35.972656 12.566407-38.675781zm0 0" fill="#8ed7e8"/><path d="m283.265625 171.808594 14.652344 29.6875c7.199219 14.59375 21.121093 24.707031 37.226562 27.046875l32.765625 4.761719c23.632813 3.433593 33.066406 32.476562 15.964844 49.148437l-23.707031 23.109375c-11.652344 11.355469-16.96875 27.722656-14.21875 43.761719l5.597656 32.632812c4.035156 23.535157-20.667969 41.484375-41.808594 30.375l-29.300781-15.40625c-14.40625-7.574219-31.613281-7.574219-46.019531 0l-29.304688 15.40625c-21.136719 11.113281-45.839843-6.835937-41.804687-30.375l5.597656-32.632812c2.75-16.039063-2.570312-32.40625-14.222656-43.761719l-23.707032-23.109375c-17.101562-16.671875-7.664062-45.714844 15.96875-49.148437l32.761719-4.761719c16.105469-2.339844 30.027344-12.453125 37.230469-27.046875l14.652344-29.6875c10.566406-21.414063 41.105468-21.414063 51.675781 0zm0 0" fill="#ffde55"/><g fill="#ffeb99"><path d="m283.90625 35.402344c0 15.414062-12.492188 81.402344-27.90625 81.402344-15.410156 0-27.902344-65.988282-27.902344-81.402344 0-15.410156 12.492188-27.902344 27.902344-27.902344 15.414062 0 27.90625 12.492188 27.90625 27.902344zm0 0"/><path d="m194.371094 72.75c10.894531 10.894531 33.058594 50.726562 22.160156 61.621094-10.898438 10.898437-50.726562-11.261719-61.625-22.160156-10.898438-10.894532-10.898438-28.566407 0-39.460938 10.898438-10.898438 28.566406-10.898438 39.464844 0zm0 0"/><path d="m320.480469 72.75c-10.894531 10.894531-33.054688 50.726562-22.160157 61.621094 10.898438 10.898437 50.726563-11.261719 61.625-22.160156 10.898438-10.894532 10.898438-28.566407 0-39.460938-10.898437-10.898438-28.566406-10.898438-39.464843 0zm0 0"/></g><path d="m319.234375 285.613281c-4.144531 0-7.5 3.359375-7.5 7.5v12.453125c0 4.140625 3.355469 7.5 7.5 7.5 4.140625 0 7.5-3.359375 7.5-7.5v-12.453125c0-4.140625-3.359375-7.5-7.5-7.5zm0 0"/><path d="m195.617188 285.613281c-4.140626 0-7.5 3.359375-7.5 7.5v12.453125c0 4.140625 3.359374 7.5 7.5 7.5 4.144531 0 7.5-3.359375 7.5-7.5v-12.453125c0-4.140625-3.355469-7.5-7.5-7.5zm0 0"/><path d="m272.933594 295.921875c-1.269532-.832031-6.882813-2.992187-10.386719 2.152344-1.679687 2.464843-4.125 2.761719-5.121094 2.761719-.992187 0-3.484375-.269532-5.121093-2.761719-2.277344-3.464844-6.925782-4.425781-10.386719-2.152344-3.460938 2.273437-4.425781 6.921875-2.152344 10.386719 3.917969 5.964844 10.523437 9.527344 17.660156 9.527344 7.140625 0 13.742188-3.5625 17.660157-9.527344 2.273437-3.460938 1.3125-8.113282-2.152344-10.386719zm0 0"/><path d="m510.503906 211.457031c-3.578125-11.003906-12.910156-18.875-24.359375-20.539062l-25.78125-3.746094c-10.234375-1.484375-19.074219-7.910156-23.652343-17.179687l-11.53125-23.363282c-5.121094-10.375-15.488282-16.820312-27.058594-16.820312-11.566406 0-21.9375 6.445312-27.054688 16.820312l-11.53125 23.363282c-4.578125 9.269531-13.417968 15.691406-23.652344 17.179687 0 0-31.207031 4.929687-33.699218 6.023437l-12.195313-24.707031c-6.160156-12.484375-18.640625-20.242187-32.5625-20.242187s-26.402343 7.757812-32.5625 20.242187l-12.738281 25.808594c-3.117188-1.699219-36.007812-7.125-36.007812-7.125-10.234376-1.488281-19.074219-7.910156-23.652344-17.183594l-11.527344-23.359375c-5.121094-10.378906-15.488281-16.820312-27.058594-16.820312-11.570312 0-21.9375 6.441406-27.058594 16.820312l-11.53125 23.359375c-4.574218 9.273438-13.417968 15.695313-23.648437 17.183594l-25.785156 3.746094c-11.449219 1.664062-20.78125 9.535156-24.355469 20.539062-3.574219 11.003907-.648438 22.855469 7.632812 30.929688l18.660157 18.183593c7.402343 7.21875 10.78125 17.609376 9.03125 27.804688l-4.402344 25.675781c-1.957031 11.402344 2.640625 22.714844 12 29.511719 9.359375 6.800781 21.539063 7.679688 31.78125 2.300781l23.058594-12.125c9.152343-4.8125 20.082031-4.808593 29.234375 0 0 0 29.484375 14.828125 32.84375 15.320313l-5.425782 31.628906c-2.351562 13.722656 3.183594 27.332031 14.445313 35.515625 6.367187 4.625 23.703125 11.632813 38.242187 2.765625l29.304688-15.40625c12.222656-6.425781 26.816406-6.425781 39.039062 0l29.304688 15.40625c12.320312 6.480469 26.976562 5.421875 38.238281-2.765625 11.265625-8.183594 16.800781-21.792969 14.449219-35.515625l-5.519531-32.167969c2.417969-.589843 30.085937-14.78125 30.085937-14.78125 9.152344-4.8125 20.082032-4.808593 29.234375 0l23.0625 12.125c10.238281 5.382813 22.414063 4.5 31.777344-2.300781 9.359375-6.796875 13.957031-18.105469 12-29.511719l-4.402344-25.675781c-1.746093-10.191406 1.628907-20.585938 9.03125-27.804688l18.65625-18.183593c8.289063-8.074219 11.214844-19.925781 7.640625-30.929688zm-375.027344 109.003907c-13.523437-7.109376-29.671874-7.109376-43.195312 0l-23.058594 12.125c-5.230468 2.746093-11.203125 2.316406-15.980468-1.15625-4.777344-3.472657-7.035157-9.019532-6.035157-14.839844l4.402344-25.679688c2.582031-15.058594-2.40625-30.414062-13.347656-41.078125l-18.65625-18.1875c-4.230469-4.121093-5.664063-9.9375-3.839844-15.554687 1.824219-5.617188 6.402344-9.476563 12.25-10.328125l25.78125-3.746094c15.117187-2.195313 28.183594-11.6875 34.945313-25.386719l11.527343-23.363281c2.617188-5.296875 7.703125-8.457031 13.609375-8.457031s10.992188 3.160156 13.605469 8.457031l11.53125 23.363281c6.761719 13.699219 19.824219 23.191406 34.945313 25.386719 0 0 28.890624 4.449219 30.277343 5.113281-6.515625 7.492188-15.554687 12.53125-25.609375 13.992188l-32.761718 4.761718c-13.78125 2.003907-25.011719 11.472657-29.316407 24.714844-4.300781 13.242188-.78125 27.503906 9.1875 37.226563l23.707031 23.105469c6.402344 6.242187 10.535157 14.261718 12.027344 22.835937-.996094-.292969-25.996094-13.304687-25.996094-13.304687zm356.917969-88.816407-18.65625 18.1875c-10.9375 10.664063-15.929687 26.019531-13.34375 41.078125l4.402344 25.679688c1 5.820312-1.257813 11.367187-6.035156 14.839844-4.777344 3.472656-10.753907 3.90625-15.980469 1.15625l-23.0625-12.125c-13.523438-7.109376-29.667969-7.109376-43.191406 0l-22.921875 12.050781c1.667969-8.097657 5.710937-15.644531 11.796875-21.578125l23.707031-23.109375c9.972656-9.71875 13.492187-23.984375 9.191406-37.226563-4.304687-13.242187-15.535156-22.710937-29.316406-24.710937-4.101563-.601563-7.902344 2.242187-8.5 6.34375-.59375 4.097656 2.246094 7.902343 6.34375 8.5 8.210937 1.191406 14.644531 6.613281 17.207031 14.503906s.546875 16.058594-5.394531 21.847656l-23.707031 23.109375c-13.425782 13.085938-19.546875 31.925782-16.378906 50.402344l5.597656 32.632812c1.402344 8.175782-1.765625 15.96875-8.476563 20.84375-6.710937 4.878907-15.101562 5.484376-22.445312 1.621094l-29.304688-15.402344c-16.59375-8.726562-36.40625-8.726562-52.996093 0l-29.304688 15.402344c-7.34375 3.859375-15.734375 3.253906-22.445312-1.621094-6.710938-4.875-9.882813-12.667968-8.480469-20.84375l5.597656-32.632812c3.167969-18.476562-2.953125-37.316406-16.378906-50.402344l-23.707031-23.109375c-5.941407-5.789062-7.957032-13.957031-5.394532-21.847656s8.996094-13.3125 17.207032-14.503906l32.761718-4.761719c18.550782-2.695312 34.578125-14.339844 42.875-31.152344l14.652344-29.6875c3.671875-7.4375 10.816406-11.878906 19.113281-11.878906s15.441407 4.4375 19.113281 11.878906l14.652344 29.6875c8.296875 16.8125 24.324219 28.457032 42.875 31.152344 4.105469.605469 7.90625-2.246094 8.5-6.34375.597656-4.101562-2.246094-7.90625-6.34375-8.5-10.429687-1.515625-19.765625-6.878906-26.324218-14.835938.757812-.230468 28.144531-4.269531 28.144531-4.269531 15.117187-2.199219 28.183593-11.691406 34.945312-25.390625l11.527344-23.363281c2.617187-5.296875 7.703125-8.457031 13.609375-8.457031s10.992188 3.160156 13.605469 8.457031l11.53125 23.363281c6.761719 13.699219 19.824219 23.191406 34.945312 25.390625l25.78125 3.742188c5.84375.851562 10.421875 4.714843 12.25 10.328125 1.824219 5.617187.386719 11.433594-3.84375 15.554687zm0 0"/><path d="m232.328125 94.730469c6.785156 20.179687 14.304687 29.578125 23.671875 29.578125 10.984375 0 19.300781-12.472656 26.964844-40.441406 5.214844-19.019532 8.441406-39.964844 8.441406-48.460938 0-19.523438-15.882812-35.40625-35.40625-35.40625-11.777344 0-22.75 5.832031-29.355469 15.605469-2.316406 3.429687-1.414062 8.09375 2.019531 10.414062 3.433594 2.316407 8.09375 1.414063 10.414063-2.019531 3.804687-5.636719 10.132813-9 16.921875-9 11.25 0 20.40625 9.152344 20.40625 20.402344 0 5.929687-2.46875 23.636718-7.097656 41.472656-5.6875 21.886719-11.019532 30.085938-13.285156 32.089844-1.445313-1.300782-5.410157-6.050782-10.390626-21.816406-3.566406-11.289063-6.839843-25.832032-8.761718-38.902344-.601563-4.097656-4.40625-6.9375-8.507813-6.332032-4.101562.605469-6.933593 4.414063-6.332031 8.511719 2.234375 15.214844 6.085938 31.78125 10.296875 44.304688zm0 0"/><path d="m207.554688 144.808594c5.65625 0 10.636718-1.488282 14.28125-5.132813 16.980468-16.984375-12.824219-62.890625-22.164063-72.234375-13.804687-13.800781-36.265625-13.800781-50.066406.003906-13.804688 13.804688-13.804688 36.265626 0 50.070313 7.335937 7.335937 37.226562 27.292969 57.949219 27.292969zm-47.34375-66.757813c11.882812-11.355469 24.878906-3.976562 28.855468 0 4.5625 4.5625 12.425782 16.476563 17.683594 28.511719 6.199219 14.1875 5.691406 21.289062 4.476562 22.507812-1.214843 1.214844-8.316406 1.722657-22.503906-4.476562-12.035156-5.261719-23.949218-13.121094-28.511718-17.6875-7.957032-7.953125-8.132813-21.082031 0-28.855469zm0 0"/><path d="m293.015625 139.675781c15.53125 16.070313 64.898437-14.824219 72.230469-22.160156 13.804687-13.804687 13.804687-36.265625 0-50.070313-13.804688-13.804687-36.265625-13.804687-50.066406 0-9.339844 9.339844-38.851563 54.957032-22.164063 72.230469zm15.085937-33.113281c5.257813-12.035156 13.121094-23.945312 17.683594-28.511719 7.957032-7.957031 20.898438-7.957031 28.855469 0s7.957031 20.902344 0 28.855469c-4.5625 4.5625-16.476563 12.425781-28.511719 17.6875-14.1875 6.195312-21.289062 5.691406-22.503906 4.476562-1.21875-1.21875-1.722656-8.320312 4.476562-22.507812zm0 0"/></svg>