<svg height="511pt" viewBox="0 -3 511.9997 511" width="511pt" xmlns="http://www.w3.org/2000/svg"><path d="m211.796875 69.28125h88.40625l-27.984375-51.625c-6.980469-12.875-25.457031-12.875-32.4375 0zm0 0" fill="#c6c5ca"/><path d="m100.113281 200.578125h311.773438v269.347656h-311.773438zm0 0" fill="#74747c"/><path d="m256 332.414062c66.4375 0 124.492188 33.042969 155.886719 82.261719v-214.097656h-311.773438v214.097656c31.398438-49.21875 89.449219-82.261719 155.886719-82.261719zm0 0" fill="#66666d"/><path d="m65.417969 293.378906s-77.128907 103.839844-53.308594 139c23.816406 35.164063 63.515625 24.953125 63.515625 24.953125zm0 0" fill="#b2785b"/><path d="m446.582031 293.378906s77.128907 103.839844 53.308594 139c-23.820313 35.164063-63.515625 24.953125-63.515625 24.953125zm0 0" fill="#c68d6d"/><path d="m256 47.046875c-109.816406 0-198.839844 89.023437-198.839844 198.839844v214.824219c0 21.109374 17.113282 38.222656 38.226563 38.222656 21.109375 0 38.222656-17.113282 38.222656-38.222656v-145.714844c0-23.199219 18.804687-42.003906 42.003906-42.003906s42.007813 18.804687 42.007813 42.003906v32.285156c0 21.199219 17.183594 38.382812 38.378906 38.382812 21.199219 0 38.382812-17.183593 38.382812-38.382812v-32.285156c0-23.199219 18.804688-42.003906 42.003907-42.003906s42.007812 18.804687 42.007812 42.003906v145.714844c0 21.109374 17.113281 38.222656 38.222657 38.222656 21.109374 0 38.222656-17.113282 38.222656-38.222656v-214.824219c0-109.816407-89.023438-198.839844-198.839844-198.839844zm0 0" fill="#d8d7da"/><path d="m57.160156 245.886719v214.824219c0 21.109374 17.113282 38.222656 38.222656 38.222656 21.113282 0 38.226563-17.113282 38.226563-38.222656v-145.714844c0-23.199219 18.804687-42.003906 42.003906-42.003906 5.414063 0 10.574219 1.015624 15.328125 2.882812-7.210937-13.640625-17.144531-26.648438-30.648437-38.222656-43.492188-37.273438-46.019531-94.097656-39.574219-137.492188-39.089844 36.308594-63.558594 88.167969-63.558594 145.726563zm0 0" fill="#c6c5ca"/><path d="m95.382812 498.933594c21.113282 0 38.226563-17.113282 38.226563-38.222656v-145.714844c0-23.199219 18.804687-42.003906 42.003906-42.003906s42.003907 18.804687 42.003907 42.003906v32.285156c0 21.199219 17.1875 38.382812 38.382812 38.382812 21.199219 0 38.382812-17.183593 38.382812-38.382812v-32.285156c0-23.199219 18.804688-42.003906 42.003907-42.003906s42.007812 18.804687 42.007812 42.003906v145.714844c0 21.109374 17.113281 38.222656 38.222657 38.222656 21.109374 0 38.222656-17.113282 38.222656-38.222656v-214.824219s-49.050782-20.617188-128.945313-29.277344c-18.84375-2.039063-36.097656-11.511719-47.832031-26.394531l-9.570312-12.140625c-6.367188-8.074219-18.613282-8.074219-24.980469 0l-9.570313 12.140625c-11.734375 14.882812-28.988281 24.355468-47.832031 26.394531-79.898437 8.660156-128.945313 29.277344-128.945313 29.277344v214.824219c-.003906 21.109374 17.109376 38.222656 38.21875 38.222656zm0 0" fill="#dd9f80"/><path d="m160.292969 237.652344c-5.59375-4.792969-10.515625-9.917969-14.824219-15.289063-55.574219 9.757813-88.308594 23.523438-88.308594 23.523438v214.824219c0 21.109374 17.113282 38.222656 38.222656 38.222656 21.113282 0 38.226563-17.113282 38.226563-38.222656v-145.714844c0-23.199219 18.804687-42.003906 42.003906-42.003906 5.414063 0 10.574219 1.015624 15.328125 2.882812-7.210937-13.640625-17.144531-26.648438-30.648437-38.222656zm0 0" fill="#c68d6d"/><g fill="#acabb1"><path d="m214.816406 107.054688c0 9.960937-8.074218 18.03125-18.03125 18.03125-9.960937 0-18.03125-8.070313-18.03125-18.03125 0-9.957032 8.070313-18.03125 18.03125-18.03125 9.957032 0 18.03125 8.074218 18.03125 18.03125zm0 0"/><path d="m183.660156 167.046875c0 9.957031-8.074218 18.03125-18.03125 18.03125-9.957031 0-18.03125-8.074219-18.03125-18.03125s8.074219-18.03125 18.03125-18.03125c9.957032 0 18.03125 8.074219 18.03125 18.03125zm0 0"/><path d="m333.246094 107.054688c0 9.960937-8.074219 18.03125-18.03125 18.03125-9.957032 0-18.03125-8.070313-18.03125-18.03125 0-9.957032 8.074218-18.03125 18.03125-18.03125 9.957031 0 18.03125 8.074218 18.03125 18.03125zm0 0"/><path d="m364.402344 167.046875c0 9.957031-8.074219 18.03125-18.03125 18.03125-9.960938 0-18.03125-8.074219-18.03125-18.03125s8.070312-18.03125 18.03125-18.03125c9.957031 0 18.03125 8.074219 18.03125 18.03125zm0 0"/></g><path d="m222.316406 107.054688c0-14.078126-11.453125-25.53125-25.53125-25.53125s-25.53125 11.453124-25.53125 25.53125c0 14.078124 11.453125 25.53125 25.53125 25.53125s25.53125-11.453126 25.53125-25.53125zm-36.066406 0c0-5.808594 4.726562-10.53125 10.535156-10.53125s10.53125 4.722656 10.53125 10.53125c0 5.808593-4.722656 10.535156-10.53125 10.535156s-10.535156-4.726563-10.535156-10.535156zm0 0"/><path d="m140.097656 167.046875c0 14.078125 11.453125 25.53125 25.53125 25.53125s25.53125-11.453125 25.53125-25.53125-11.453125-25.53125-25.53125-25.53125-25.53125 11.453125-25.53125 25.53125zm36.0625 0c0 5.808594-4.722656 10.53125-10.53125 10.53125s-10.53125-4.722656-10.53125-10.53125 4.722656-10.53125 10.53125-10.53125 10.53125 4.722656 10.53125 10.53125zm0 0"/><path d="m340.746094 107.054688c0-14.078126-11.453125-25.53125-25.53125-25.53125s-25.53125 11.453124-25.53125 25.53125c0 14.078124 11.453125 25.53125 25.53125 25.53125s25.53125-11.453126 25.53125-25.53125zm-25.53125 10.535156c-5.808594 0-10.53125-4.726563-10.53125-10.535156 0-5.808594 4.722656-10.53125 10.53125-10.53125s10.535156 4.722656 10.535156 10.53125c0 5.808593-4.726562 10.535156-10.535156 10.535156zm0 0"/><path d="m346.371094 192.578125c14.078125 0 25.527344-11.453125 25.527344-25.53125s-11.449219-25.53125-25.527344-25.53125-25.53125 11.453125-25.53125 25.53125 11.453125 25.53125 25.53125 25.53125zm0-36.0625c5.808594 0 10.53125 4.722656 10.53125 10.53125s-4.726563 10.53125-10.53125 10.53125c-5.808594 0-10.535156-4.722656-10.535156-10.53125s4.726562-10.53125 10.535156-10.53125zm0 0"/><path d="m498.5 365.726562c-11.125-24.601562-26.929688-49.304687-36.164062-62.953124v-56.886719c0-39.511719-11.203126-77.910157-32.398438-111.046875-2.230469-3.488282-6.871094-4.507813-10.359375-2.277344-3.488281 2.234375-4.503906 6.871094-2.273437 10.359375 17.6875 27.652344 27.867187 59.261719 29.722656 92.027344-18.710938-6.546875-60.957032-19.359375-120.328125-25.792969-16.785157-1.820312-32.363281-10.417969-42.75-23.585938l-9.570313-12.136718c-4.464844-5.664063-11.164062-8.914063-18.378906-8.914063-7.210938 0-13.910156 3.25-18.375 8.914063l-9.574219 12.136718c-10.382812 13.171876-25.964843 21.765626-42.75 23.585938-59.363281 6.433594-101.605469 19.242188-120.320312 25.789062 5.691406-100.433593 89.1875-180.398437 191.019531-180.398437 54.886719 0 107.203125 23.625 143.542969 64.816406 2.738281 3.105469 7.476562 3.402344 10.582031.664063 3.105469-2.738282 3.402344-7.480469.664062-10.585938-30.542968-34.621094-71.558593-57.734375-116.195312-66.242187l-15.78125-29.117188c-4.609375-8.503906-13.140625-13.582031-22.8125-13.582031-9.675781 0-18.203125 5.078125-22.8125 13.582031l-15.773438 29.101563c-95.394531 18.121094-167.75 102.113281-167.75 202.703125v56.886719c-9.234374 13.648437-25.039062 38.351562-36.164062 62.953124-14.976562 33.117188-17.464844 56.296876-7.597656 70.859376 12.925781 19.082031 30.039062 26.222656 43.980468 28.585937 2.25 23.125 21.796876 41.261719 45.5 41.261719 19.316407 0 35.859376-12.046875 42.546876-29.011719h236.140624c6.6875 16.96875 23.230469 29.011719 42.546876 29.011719 23.703124 0 43.25-18.136719 45.5-41.261719 13.941406-2.363281 31.058593-9.503906 43.980468-28.585937 9.867188-14.5625 7.378906-37.742188-7.597656-70.859376zm-252.128906-344.496093c1.949218-3.589844 5.546875-5.734375 9.628906-5.734375s7.683594 2.144531 9.628906 5.734375l10.46875 19.316406c-6.648437-.652344-13.355468-.996094-20.097656-.996094-6.777344 0-13.476562.335938-20.089844.976563zm-105.308594 441.195312c.019531-.570312.042969-147.429687.042969-147.429687 0-19.027344 15.480469-34.507813 34.507812-34.507813 19.027344 0 34.507813 15.480469 34.507813 34.507813v32.289062c0 25.296875 20.582031 45.878906 45.878906 45.878906s45.878906-20.582031 45.878906-45.878906v-32.289062c0-19.027344 15.480469-34.507813 34.507813-34.507813 19.027343 0 34.507812 15.480469 34.507812 34.507813 0 0 .023438 146.859375.042969 147.429687zm275.554688 29.007813c-16.941407 0-30.726563-13.78125-30.726563-30.722656v-145.714844c0-27.296875-22.207031-49.503906-49.503906-49.503906s-49.503907 22.207031-49.503907 49.503906v32.289062c0 17.027344-13.855468 30.882813-30.882812 30.882813s-30.882812-13.855469-30.882812-30.882813v-32.289062c0-27.296875-22.207032-49.503906-49.507813-49.503906-27.296875 0-49.503906 22.207031-49.503906 49.503906v145.714844c0 16.941406-13.78125 30.722656-30.722657 30.722656-16.941406 0-30.722656-13.78125-30.722656-30.722656v-46.953126c0-4.140624-3.359375-7.5-7.5-7.5s-7.5 3.359376-7.5 7.5v36.101563c-12.96875-2.835937-23.492187-10.09375-31.34375-21.683594-9.699218-14.316406 2.246094-50.890625 31.34375-97.859375v51.484375c0 4.140625 3.359375 7.5 7.5 7.5s7.5-3.359375 7.5-7.5v-130.777343c13.8125-5.121094 58.019532-19.996094 122.253906-26.957032 20.765626-2.25 40.050782-12.898437 52.914063-29.207031l9.570313-12.140625c1.605468-2.035156 4.011718-3.203125 6.601562-3.203125s4.996094 1.167969 6.601562 3.203125l9.570313 12.140625c12.859375 16.308594 32.148437 26.957031 52.914063 29.207031 57.222656 6.203125 102.40625 19.398438 122.253906 26.914063v209.730469c0 16.941406-13.78125 30.722656-30.722656 30.722656zm77.066406-63.257813c-7.851563 11.589844-18.378906 18.847657-31.347656 21.679688v-119.542969c29.097656 46.972656 41.046874 83.542969 31.347656 97.863281zm0 0"/></svg>