<svg height="512pt" viewBox="0 -70 512 512" width="512pt" xmlns="http://www.w3.org/2000/svg"><path d="m462.820312 365.003906h-413.640624c-22.933594 0-41.523438-18.589844-41.523438-41.523437v-118.421875h496.6875v118.421875c0 22.933593-18.589844 41.523437-41.523438 41.523437zm0 0" fill="#b2785b"/><path d="m95.980469 285.125h-88.324219v38.355469c0 .960937.035156 1.914062.101562 2.859375h88.222657c11.378906 0 20.605469-9.226563 20.605469-20.605469 0-11.382813-9.226563-20.609375-20.605469-20.609375zm0 0" fill="#935b45"/><path d="m504.34375 323.480469v-118.421875h-299v118.421875c0 22.933593 18.59375 41.523437 41.523438 41.523437h215.953124c22.933594 0 41.523438-18.589844 41.523438-41.523437zm0 0" fill="#acabb1"/><path d="m58.433594 323.480469v-118.421875h-50.777344v118.421875c0 22.933593 18.589844 41.523437 41.523438 41.523437h50.773437c-22.933594 0-41.519531-18.589844-41.519531-41.523437zm0 0" fill="#acabb1"/><path d="m297.523438 365.003906h165.296874c22.933594 0 41.523438-18.589844 41.523438-41.523437v-118.421875h-248.34375v118.421875c0 22.933593 18.589844 41.523437 41.523438 41.523437zm0 0" fill="#c68d6d"/><path d="m380.171875 15h-248.34375c-68.578125 0-124.171875 55.59375-124.171875 124.171875v106.824219h372.515625zm0 0" fill="#c68d6d"/><path d="m146.722656 78.625c11.382813 0 20.609375-9.226562 20.609375-20.605469 0-11.382812-9.226562-20.609375-20.609375-20.609375h-86.070312c-15.3125 10.730469-28.089844 24.824219-37.261719 41.214844zm0 0" fill="#b2785b"/><path d="m193.914062 15s-22.40625-7.34375-64.6875-7.34375c-68.578124 0-121.570312 62.9375-121.570312 131.515625v106.824219h50.65625v-106.824219c0-60.816406 42.472656-124.171875 135.601562-124.171875zm0 0" fill="#c6c5ca"/><path d="m380.171875 245.996094v-230.996094c-34.238281-16.527344-92.585937 0-92.585937 0-55.304688 17.339844-82.242188 75.660156-82.242188 124.171875v106.820313h174.828125zm0 0" fill="#c6c5ca"/><path d="m504.34375 245.996094h-248.34375v-106.824219c0-68.578125 55.59375-124.171875 124.171875-124.171875s124.171875 55.59375 124.171875 124.171875zm0 0" fill="#dd9f80"/><path d="m359.566406 152.164062c11.378906 0 20.605469-9.222656 20.605469-20.605468 0-11.378906-9.226563-20.605469-20.605469-20.605469h-100.34375c-2.105468 9.066406-3.222656 18.511719-3.222656 28.21875v12.992187zm0 0" fill="#c68d6d"/><path d="m423.703125 285.125c-11.382813 0-20.609375 9.226562-20.609375 20.609375 0 11.378906 9.226562 20.605469 20.609375 20.605469h80.546875c.0625-.945313.09375-1.898438.09375-2.859375v-38.355469zm0 0" fill="#b2785b"/><path d="m139.699219 152.164062h-15.742188c-11.382812 0-20.609375-9.222656-20.609375-20.605468 0-11.378906 9.226563-20.605469 20.609375-20.605469h15.742188c11.382812 0 20.609375 9.222656 20.609375 20.605469-.003906 11.382812-9.226563 20.605468-20.609375 20.605468zm0 0" fill="#b2785b"/><g fill="#c68d6d"><path d="m451.351562 37.414062h-69.207031c-11.378906 0-20.605469 9.222657-20.605469 20.605469 0 11.378907 9.226563 20.605469 20.605469 20.605469h106.464844c-9.171875-16.390625-21.945313-30.484375-37.257813-41.210938zm0 0"/><path d="m256 225.707031h55.347656c11.378906 0 20.605469-9.226562 20.605469-20.605469 0-11.382812-9.226563-20.609374-20.605469-20.609374h-55.347656zm0 0"/><path d="m450.722656 131.558594c0 11.382812-9.226562 20.609375-20.605468 20.609375-11.382813 0-20.609376-9.226563-20.609376-20.609375 0-11.378906 9.226563-20.605469 20.609376-20.605469 11.378906 0 20.605468 9.226563 20.605468 20.605469zm0 0"/></g><path d="m165.214844 245.996094h-66.773438v-35.402344c0-18.441406 14.945313-33.386719 33.386719-33.386719 18.4375 0 33.386719 14.945313 33.386719 33.386719zm0 0" fill="#eaeaea"/><path d="m313.414062 326.339844h26.273438c11.40625 0 20.652344-9.246094 20.652344-20.652344 0-11.410156-9.246094-20.65625-20.652344-20.65625h-26.273438c-11.40625 0-20.65625 9.246094-20.65625 20.65625 0 11.40625 9.246094 20.652344 20.65625 20.652344zm0 0" fill="#b2785b"/><path d="m131.828125 198.207031c-4.226563 0-7.65625 3.425781-7.65625 7.652344v17.960937c0 4.226563 3.429687 7.652344 7.65625 7.652344s7.652344-3.425781 7.652344-7.652344v-17.960937c0-4.226563-3.425781-7.652344-7.652344-7.652344zm0 0"/><path d="m512 139.171875c0-33.40625-12.519531-65.273437-35.253906-89.730469-2.878906-3.097656-7.722656-3.273437-10.820313-.394531-3.09375 2.875-3.273437 7.71875-.394531 10.816406 20.09375 21.613281 31.15625 49.78125 31.15625 79.3125v99.167969h-233.03125v-99.167969c0-64.25 52.269531-116.519531 116.515625-116.519531 22.757813 0 44.804687 6.5625 63.753906 18.972656 3.535157 2.316406 8.28125 1.328125 10.597657-2.210937 2.316406-3.535157 1.328124-8.28125-2.210938-10.597657-20.960938-13.730468-45.261719-21.113281-70.386719-21.441406-34.296875-15.390625-87.003906-2.273437-95.367187-.03125h-91.511719c-5.386719-1.570312-27.832031-7.347656-65.816406-7.347656-34.804688 0-67.550781 15.121094-92.203125 42.582031-23.53125 26.214844-37.027344 61.421875-37.027344 96.589844v184.308594c0 27.117187 22.0625 49.179687 49.179688 49.179687h413.640624c27.117188 0 49.179688-22.0625 49.179688-49.179687zm-177.277344-123.75c-50.363281 18.554687-86.378906 67.027344-86.378906 123.75v99.167969h-35.34375v-99.167969c0-23.890625 7.03125-49.347656 19.292969-69.84375 13.933593-23.289063 33.800781-39.535156 57.464843-46.988281 1.558594-.425782 22.171876-5.976563 44.964844-6.917969zm-319.414062 123.75c0-31.441406 12.070312-62.921875 33.113281-86.363281 21.707031-24.179688 48.554687-37.34375 91.117187-37.34375-10.539062 3.453125-20.363281 8.007812-29.433593 13.644531-20.699219 12.867187-37.050781 31.4375-47.28125 53.699219-1.765625 3.84375-.082031 8.386718 3.761719 10.152344 3.839843 1.769531 8.386718.085937 10.152343-3.757813 8.972657-19.527344 23.304688-35.8125 41.449219-47.089844 20.769531-12.910156 46.246094-19.457031 75.726562-19.457031h60.894532c-14.035156 9.765625-26.097656 22.84375-35.652344 38.8125-13.84375 23.140625-21.464844 50.738281-21.464844 77.707031v99.167969h-24.820312v-27.75c0-22.628906-18.410156-41.042969-41.042969-41.042969-22.628906 0-41.042969 18.414063-41.042969 41.042969v27.75h-24.820312v-99.167969c0-6.800781.570312-13.632812 1.691406-20.308593.699219-4.167969-2.113281-8.117188-6.28125-8.816407s-8.117188 2.113281-8.816406 6.28125c-1.261719 7.511719-1.902344 15.195313-1.902344 22.84375v99.167969h-35.347656zm142.25 99.167969h-51.464844v-27.746094c0-14.191406 11.542969-25.734375 25.734375-25.734375 14.1875 0 25.730469 11.542969 25.730469 25.734375zm-142.25 85.140625v-69.832031h35.46875v69.832031c0 13.117187 5.171875 25.042969 13.574218 33.867187h-15.171874c-18.675782 0-33.871094-15.191406-33.871094-33.867187zm231.558594 33.867187c-18.675782 0-33.867188-15.191406-33.867188-33.867187v-41.996094c0-4.226563-3.429688-7.65625-7.65625-7.65625s-7.65625 3.429687-7.65625 7.65625v41.996094c0 13.117187 5.175781 25.042969 13.574219 33.867187h-111.308594c-18.671875 0-33.867187-15.191406-33.867187-33.867187v-69.832031h182.257812v69.832031c0 13.117187 5.171875 25.042969 13.574219 33.867187zm215.953124 0h-165.296874c-18.675782 0-33.867188-15.191406-33.867188-33.867187v-69.832031h233.035156v69.832031c0 18.675781-15.195312 33.867187-33.871094 33.867187zm0 0"/></svg>