<svg height="511pt" viewBox="1 -8 511.99988 511" width="511pt" xmlns="http://www.w3.org/2000/svg"><path d="m415.953125 404.5 46.246094-46.242188c9.679687-9.679687 25.375-9.679687 35.054687 0 9.679688 9.679688 9.679688 25.375 0 35.058594l-46.242187 46.242188zm0 0" fill="#acabb1"/><path d="m424.921875 290.339844-12.601563 12.601562c-6.078124 6.078125-15.929687 6.078125-22.007812 0-6.074219-6.074218-6.074219-15.925781 0-22.003906l21.683594-21.683594c9.640625-9.640625 9.640625-25.414062 0-35.054687s-25.414063-9.640625-35.054688 0l-70.644531 70.644531 92.78125 91.453125 60.902344-60.902344c9.640625-9.640625 9.640625-25.414062 0-35.054687s-25.417969-9.640625-35.058594 0zm0 0" fill="#acabb1"/><path d="m476.238281 476.738281c-14.164062 14.164063-37.125 14.164063-51.289062 0l-234.074219-234.074219 51.289062-51.289062 234.074219 234.074219c14.164063 14.164062 14.164063 37.125 0 51.289062zm0 0" fill="#c6c5ca"/><path d="m190.875 242.664062 110.660156 110.660157c33.882813-44.246094 24.429688-78.148438 24.429688-78.148438l-83.800782-83.800781zm0 0" fill="#acabb1"/><path d="m62.082031 35.28125c0 15.078125-12.222656 27.300781-27.300781 27.300781s-27.304688-12.222656-27.304688-27.300781 12.226563-27.300781 27.304688-27.300781 27.300781 12.222656 27.300781 27.300781zm0 0" fill="#acabb1"/><path d="m163.957031 60.238281-39.359375 27.902344.050782.074219c-4.808594-6.675782-32.148438-42.425782-55.753907-18.820313s12.144531 50.945313 18.820313 55.757813l-27.976563 39.300781c-4.488281-3.179687-43.933593-32.246094-47.367187-72.828125-1.207032-14.273438 1.703125-35.636719 22.410156-56.34375 20.710938-20.710938 42.070312-23.617188 56.347656-22.410156 40.578125 3.429687 69.644532 42.878906 72.828125 47.367187zm0 0" fill="#c6c5ca"/><path d="m233.53125 234.121094c-20.304688 20.304687-47.265625 32.195312-77.972656 34.394531-26.507813 1.894531-53.855469-3.675781-77.007813-15.691406-36.574219-18.980469-55.792969-50.957031-50.148437-83.453125 4.9375-28.421875 20.253906-42.664063 32.242187-49.605469 32.03125-18.558594 72.429688-4.742187 76.929688-3.105469l-16.484375 45.339844.117187.039062c-7.605469-2.671874-39.121093-10.867187-45.273437 15.589844-3.027344 13.027344 11.332031 25.367188 24.839844 32.375 29.003906 15.050782 72.199218 16.449219 98.640624-9.996094zm0 0" fill="#d8d7da"/><path d="m155.558594 268.515625c30.707031-2.199219 57.667968-14.089844 77.972656-34.394531l-34.117188-34.113282c-26.441406 26.445313-69.636718 25.046876-98.640624 9.996094-9.199219-4.773437-18.785157-12.007812-23.015626-20.257812 0 0-1.613281 46.007812 41.195313 76.746094 12.0625 2.191406 24.402344 2.894531 36.605469 2.023437zm0 0" fill="#c6c5ca"/><path d="m233.625 234.027344c20.300781-20.300782 32.191406-47.261719 34.390625-77.96875 1.894531-26.507813-3.675781-53.855469-15.6875-77.007813-18.980469-36.574219-50.960937-55.792969-83.453125-50.148437-28.421875 4.933594-42.667969 20.253906-49.609375 32.238281-18.558594 32.035156-4.742187 72.433594-3.105469 76.933594l45.339844-16.484375.042969.113281c-2.675781-7.605469-10.871094-39.117187 15.585937-45.269531 13.03125-3.03125 25.367188 11.328125 32.375 24.839844 15.050782 29 16.449219 72.195312-9.996094 98.640624zm0 0" fill="#d8d7da"/><path d="m268.015625 156.058594c-2.199219 30.707031-14.089844 57.667968-34.390625 77.96875l-34.117188-34.113282c26.445313-26.445312 25.046876-69.640624 9.996094-98.640624-4.773437-9.199219-12.007812-18.785157-20.253906-23.015626 0 0 46.007812-1.609374 76.746094 41.195313 2.191406 12.066406 2.890625 24.402344 2.019531 36.605469zm0 0" fill="#c6c5ca"/><path d="m317.148438 253.542969-64.105469 64.105469c-13.082031 13.082031-34.292969 13.082031-47.375 0l-34.011719-34.015626 111.476562-111.476562 34.015626 34.011719c13.082031 13.082031 13.082031 34.292969 0 47.375zm0 0" fill="#d8d7da"/><path d="m250.703125 272.613281-34.015625-34.011719-45.03125 45.03125 34.015625 34.011719c13.082031 13.082031 34.289063 13.082031 47.371094 0l45.03125-45.03125c-13.082031 13.082031-34.292969 13.082031-47.371094 0zm0 0" fill="#c6c5ca"/><path d="m304.675781 190.691406-114.484375 114.484375c-13.980468 13.976563-36.644531 13.976563-50.625 0-13.980468-13.980469-13.980468-36.644531 0-50.625l114.484375-114.484375c13.980469-13.980468 36.644531-13.980468 50.625 0 13.976563 13.980469 13.976563 36.644532 0 50.625zm0 0" fill="#eaeaea"/><path d="m189.628906 255.109375c-13.976562-13.976563-13.976562-36.644531 0-50.621094l-50.0625 50.0625c-13.980468 13.980469-13.980468 36.644531 0 50.625 13.980469 13.976563 36.644532 13.976563 50.625 0l50.0625-50.066406c-13.980468 13.980469-36.644531 13.980469-50.625 0zm0 0" fill="#d8d7da"/><path d="m159.90625 96.441406c-21.789062-21.789062-53.769531-25.128906-71.433594-7.464844-17.664062 17.664063-14.320312 49.644532 7.464844 71.429688 21.789062 21.785156 53.769531 25.128906 71.429688 7.464844 17.664062-17.664063 14.324218-49.644532-7.460938-71.429688zm0 0" fill="#ff929f"/><path d="m395.617188 286.242188 21.683593-21.6875c12.589844-12.585938 12.589844-33.074219 0-45.664063-12.589843-12.589844-33.074219-12.585937-45.664062 0l-45.675781 45.675781-4.617188-4.613281s28.730469-31.464844 1.105469-59.085937l-8.914063-8.917969c13.214844-16.972657 12.035156-41.59375-3.558594-57.1875-9.78125-9.78125-23.121093-13.882813-35.894531-12.324219-2.523437-16.488281-7.675781-32.535156-15.101562-46.839844-20.539063-39.582031-55.558594-60.308594-91.390625-54.085937-8.976563 1.5625-16.671875 4.082031-23.273438 7.195312-17.015625-13.945312-34.683594-21.796875-52.558594-23.308593-8.976562-.757813-20.464843-.066407-32.867187 4.800781-13.605469-13.085938-35.3125-12.933594-48.71875.472656s-13.558594 35.113281-.472656 48.71875c-4.867188 12.402344-5.5625 23.890625-4.800781 32.867187 1.488281 17.640626 9.53125 35.71875 23.304687 52.5625-10.492187 20.035157-8.617187 38.289063-7.582031 45.742188.566406 4.101562 4.398437 7.222656 8.457031 6.398438 5.894531-1.199219 6.800781-6.050782 6.398437-8.460938-7.273437-43.679688 32.570313-64.214844 34.496094-65.066406 1.0625 11.089844 5.269532 22.449218 12.492188 32.613281-6.988282 4.160156-11.75 10.917969-13.835938 19.882813-3.359375 14.441406 7.367188 29.667968 28.691406 40.730468 17.988282 9.335938 39.019532 13.050782 58.554688 10.972656l-21.613281 21.613282c-3.261719 3.261718-5.886719 6.921875-7.886719 10.824218-15.636719-2.144531-30.886719-6.90625-44.367188-13.902343-16.191406-8.402344-29.054687-19.699219-37.199218-32.667969-2.203125-3.507812-6.832032-4.566406-10.339844-2.363281-3.503906 2.203125-4.566406 6.832031-2.363281 10.339843 9.5625 15.230469 24.429687 28.371094 42.992187 38.003907 14.296875 7.421875 30.347656 12.582031 46.835938 15.105469-1.554688 12.773437 2.546875 26.109374 12.328125 35.890624 15.59375 15.59375 40.214843 16.769532 57.1875 3.554688l8.914062 8.917969c27.804688 27.804687 59.085938-1.105469 59.085938-1.105469l111.785156 111.785156c2.929687 2.929688 7.679687 2.929688 10.605469 0 2.929687-2.929687 2.929687-7.679687 0-10.605468l-111.78125-111.785157 40.679687-40.679687 160.199219 160.195312c11.214844 11.214844 11.214844 29.464844 0 40.679688-11.21875 11.21875-29.464844 11.21875-40.683594 0l-27.121094-27.121094c-2.929687-2.925781-7.675781-2.925781-10.605468 0-2.929688 2.929688-2.929688 7.679688 0 10.609375l27.121094 27.121094c17.0625 17.066406 44.832031 17.0625 61.894531 0 17.066406-17.0625 17.066406-44.832031 0-61.894531l-.257813-.257813 21.273438-21.269531c12.589844-12.589844 12.589844-33.078125 0-45.664063-12.589844-12.589843-33.074219-12.589843-45.664063 0l-21.273437 21.269531-6.929688-6.933593 36.59375-36.59375c12.589844-12.585938 12.589844-33.074219 0-45.664063s-33.074218-12.589844-45.664062 0l-12.605469 12.605469c-3.140625 3.140625-8.253906 3.140625-11.398437 0-3.140626-3.144531-3.140626-8.257813 0-11.398437zm-149.949219-203.734376c7 13.488282 11.761719 28.726563 13.902343 44.367188-3.898437 2-7.558593 4.625-10.820312 7.886719l-21.589844 21.589843c2.082032-19.507812-1.632812-40.488281-10.996094-58.535156-11.066406-21.320312-26.292968-32.046875-40.734374-28.6875-8.910157 2.070313-15.675782 6.867188-19.855469 13.855469-10.167969-7.234375-21.539063-11.449219-32.640625-12.511719.851562-1.925781 6.613281-25.660156 47.226562-34.183594 28.960938-6.074218 58.089844 12.648438 75.507813 46.21875zm-224.886719-61.226562c6.328125-6.332031 15.914062-7.460938 23.414062-3.410156-4.890624 3.230468-9.824218 7.214844-14.71875 12.105468-4.890624 4.894532-8.875 9.828126-12.105468 14.71875-4.050782-7.5-2.921875-17.085937 3.410156-23.414062zm15.75 109.851562c-12.207031-16.375-15.878906-30.597656-16.6875-40.136718-1.070312-12.691406 1.570312-31.738282 20.242188-50.414063 18.671874-18.671875 37.71875-21.3125 50.410156-20.238281 13.386718 1.132812 26.863281 6.742188 40.144531 16.683594-8.425781 6.484375-15.574219 14.570312-20.613281 25.613281-16.789063-11.957031-33.429688-11.554687-46.4375 1.449219-9.253906 9.257812-12.269532 20.40625-8.71875 32.25 1.40625 4.679687 3.855468 9.425781 7.261718 14.183594-11.433593 4.644531-19.117187 12.1875-25.601562 20.609374zm62.703125-57.738281c-5.960937 2.234375-11.425781 5.640625-16.0625 10.277344-4.621094 4.621094-8.023437 10.070313-10.261719 16.011719-1.683594-2.652344-2.9375-5.226563-3.667968-7.65625-1.949219-6.492188-.371094-12 4.957031-17.328125 3.078125-3.078125 10.597656-10.585938 25.035156-1.304688zm-5.453125 20.882813c14.710938-14.710938 41.996094-11.363282 60.820312 7.464844 18.828126 18.828124 22.175782 46.113281 7.464844 60.824218-14.710937 14.710938-41.996094 11.363282-60.824218-7.464844-18.824219-18.824218-22.171876-46.113281-7.460938-60.824218zm10.445312 109.070312c-6.769531-3.515625-12.609374-7.855468-16.433593-12.21875-3.828125-4.363281-11.859375-13.5 4.90625-23.441406 24.625 22.859375 59.980469 25.484375 79.976562 5.488281 19.988281-19.992187 17.371094-55.332031-5.46875-79.957031 7.261719-15.503906 19.058594-8.753906 23.421875-4.925781 4.367188 3.824219 8.703125 9.664062 12.21875 16.4375 11.917969 22.960937 13.191406 51.292969 3.363282 72.570312l-29.421876 29.421875c-21.242187 9.808594-49.6875 8.496094-72.5625-3.375zm106.746094 108.996094-8.671875-8.671875 62.453125-62.453125c2.929688-2.929688 2.929688-7.679688 0-10.609375-2.929687-2.925781-7.675781-2.925781-10.605468 0l-69.261719 69.261719c-11.03125 11.03125-28.984375 11.03125-40.015625 0-11.035156-11.03125-11.035156-28.984375 0-40.015625l114.484375-114.484375c11.03125-11.03125 28.984375-11.03125 40.015625 0s11.03125 28.984375 0 40.015625l-23.800782 23.800781c-2.929687 2.925781-2.929687 7.675781 0 10.605469 2.929688 2.929687 7.679688 2.929687 10.609376 0l16.992187-16.992188 8.671875 8.671875c10.136719 10.136719 10.136719 26.628906 0 36.765625l-64.105469 64.105469c-10.136719 10.136719-26.628906 10.136719-36.765625 0zm256.527344 51.21875c6.742188-6.742188 17.710938-6.742188 24.449219 0 6.742187 6.742188 6.742187 17.707031 0 24.449219l-21.269531 21.273437-24.449219-24.449218zm-49.875-55.316406 12.601562-12.601563c6.742188-6.742187 17.710938-6.742187 24.453126 0 6.738281 6.738281 6.738281 17.707031 0 24.449219l-36.597657 36.59375-81.511719-81.511719 45.675782-45.675781c6.742187-6.742188 17.707031-6.742188 24.449218 0 6.742188 6.742188 6.742188 17.707031 0 24.449219l-21.683593 21.683593c-8.992188 8.992188-8.992188 23.625 0 32.613282 8.992187 8.992187 23.621093 8.992187 32.613281 0zm0 0"/></svg>