<svg height="511pt" viewBox="0 0 511 511.99928" width="511pt" xmlns="http://www.w3.org/2000/svg"><path d="m289.390625 40.117188c0 16.394531-13.289063 29.683593-29.679687 29.683593-16.394532 0-29.683594-13.289062-29.683594-29.683593 0-16.394532 13.289062-29.683594 29.683594-29.683594 16.390624 0 29.679687 13.289062 29.679687 29.683594zm0 0" fill="#8dc971"/><path d="m501.335938 253.515625c0 16.390625-13.289063 29.679687-29.679688 29.679687-16.394531 0-29.683594-13.289062-29.683594-29.679687 0-16.394531 13.289063-29.683594 29.683594-29.683594 16.390625 0 29.679688 13.289063 29.679688 29.683594zm0 0" fill="#9ad880"/><path d="m204.976562 232.894531-187.769531 210.945313c-12.835937 14.421875-12.199219 36.347656 1.453125 50 13.648438 13.648437 35.578125 14.285156 49.996094 1.453125l210.949219-187.773438zm0 0" fill="#ffeb99"/><path d="m129.921875 317.214844c30.296875 31.238281 59.441406 44.53125 83.476563 49.234375l66.203124-58.929688-74.625-74.625zm0 0" fill="#ffde55"/><path d="m346.25 253.011719c0 47.917969-38.847656 86.765625-86.765625 86.765625s-86.761719-38.847656-86.761719-86.765625 38.84375-86.761719 86.761719-86.761719 86.765625 38.84375 86.765625 86.761719zm0 0" fill="#ffcd00"/><path d="m247.175781 251.484375 66.984375-65.847656c-34.078125-27.722657-84.285156-25.714844-116.027344 6.023437-33.882812 33.886719-33.882812 88.820313 0 122.703125 3.871094 3.871094 8.023438 7.304688 12.378907 10.289063-5.101563-45.480469 36.664062-73.167969 36.664062-73.167969zm0 0" fill="#ffb600"/><path d="m505.03125 60.394531c0 29.230469-23.695312 52.929688-52.925781 52.929688-29.234375 0-52.929688-23.699219-52.929688-52.929688s23.695313-52.929687 52.929688-52.929687c29.230469 0 52.925781 23.699218 52.925781 52.929687zm0 0" fill="#ffde55"/><path d="m445.0625 244.417969c56.765625-56.765625 63.164062-142.402344 14.289062-191.277344-48.871093-48.875-134.511718-42.476563-191.277343 14.289063-56.765625 56.765624-63.164063 142.40625-14.289063 191.28125 48.871094 48.871093 134.511719 42.476562 191.277344-14.292969zm0 0" fill="#ff929f"/><path d="m441.097656 38.441406c-49.96875-32.023437-122.800781-21.230468-173.023437 28.992188-56.765625 56.765625-63.164063 142.40625-14.289063 191.28125 4.566406 4.570312 9.457032 8.65625 14.617188 12.261718.128906-5.734374 1.113281-11.117187 2.601562-16.070312 5.523438-18.339844 24.679688-29.019531 43.210938-24.160156 26.527344 6.953125 55.886718 4 55.886718 4s-56.933593-92.261719-57.71875-93.046875c37.914063-75.136719 103.320313-97.304688 128.714844-103.257813zm0 0" fill="#ff737d"/><path d="m320.835938 191.660156c-28.90625-28.902344-54.203126-61.417968-75.089844-96.738281-12.246094-20.707031-5.386719-47.421875 15.320312-59.667969 20.707032-12.246094 47.421875-5.386718 59.667969 15.324219 34.324219 58.039063 83.148437 106.859375 141.1875 141.183594 20.707031 12.253906 27.566406 38.960937 15.320313 59.667969-12.246094 20.707031-38.960938 27.566406-59.667969 15.320312-35.316407-20.882812-67.832031-46.183594-96.738281-75.089844zm0 0" fill="#ffeb99"/><path d="m376.636719 160.863281c0 13.808594-11.191407 25.003907-25 25.003907-13.808594 0-25.003907-11.195313-25.003907-25.003907 0-13.808593 11.195313-25.003906 25.003907-25.003906 13.808593 0 25 11.195313 25 25.003906zm0 0" fill="#ff737d"/><path d="m18.660156 493.839844c13.648438 13.648437 35.578125 14.285156 49.996094 1.453125l63.425781-56.457031s-18.9375-3.15625-37.101562-21.320313c-18.160157-18.164063-21.320313-37.097656-21.320313-37.097656l-56.453125 63.421875c-12.835937 14.421875-12.199219 36.347656 1.453125 50zm0 0" fill="#ffcd00"/><path d="m294.523438 101.566406c26.609374-26.214844 53.734374-10.378906 53.734374-10.378906-9.984374-12.945312-19.179687-26.5-27.523437-40.609375-12.246094-20.710937-38.960937-27.566406-59.667969-15.320313-20.707031 12.246094-27.566406 38.960938-15.320312 59.667969 13.835937 23.390625 29.605468 45.554688 47.074218 66.25-1.027343-1.402343-24.332031-33.960937 1.703126-59.609375zm0 0" fill="#ffde55"/><path d="m374.617188 137.878906c-12.671876-12.671875-33.292969-12.671875-45.964844 0-12.671875 12.675782-12.671875 33.292969 0 45.96875 12.671875 12.671875 33.292968 12.671875 45.964844 0 12.675781-12.675781 12.675781-33.292968 0-45.96875zm-35.355469 35.359375c-6.824219-6.824219-6.824219-17.929687 0-24.75 6.820312-6.824219 17.925781-6.824219 24.75 0 6.824219 6.820313 6.824219 17.925781 0 24.75s-17.929688 6.824219-24.75 0zm0 0"/><path d="m503.367188 272.929688c5.1875-8.472657 6.761718-18.457032 4.4375-28.113282-2.394532-9.953125-8.863282-18.484375-17.652344-23.546875-1.011719-6.34375-3.210938-12.472656-6.496094-18.042969 24.296875-47.160156 13.554688-94.425781 11.898438-100.859374 22.824218-23.617188 22.59375-61.390626-.71875-84.703126-23.335938-23.335937-61.160157-23.546874-84.773438-.65625-31.632812-8.152343-67.464844-4.445312-100.808594 11.824219-5.195312-3.066406-10.878906-5.167969-16.765625-6.257812-5.261719-9.820313-14.511719-16.707031-25.433593-18.90625-20.097657-4.046875-39.742188 9.007812-43.792969 29.105469-2.398438 11.890624 1.140625 24.097656 9.449219 32.886718-1.363282 9.636719 0 19.714844 4.414062 28.992188-14.484375 23.726562-22.546875 50.121094-23.558594 76.027344-7.574218 4.226562-14.535156 9.480468-20.734375 15.679687-21.507812 21.507813-30.421875 50.90625-26.757812 78.960937l-154.46875 173.535157c-15.457031 17.367187-14.691407 43.847656 1.75 60.289062 16.441406 16.4375 42.921875 17.207031 60.289062 1.75l173.535157-154.46875c28.054687 3.664063 57.453124-5.25 78.960937-26.757812 6.195313-6.195313 11.445313-13.152344 15.671875-20.722657 25.992188-1.023437 52.472656-9.222656 76.015625-23.582031 8.863281 4.222657 18.457031 5.664063 27.703125 4.601563 9.0625 8.925781 22.273438 12.71875 34.820312 9.699218 9.65625-2.320312 17.832032-8.265624 23.015626-16.734374zm-19.140626-244.660157c15.546876 15.550781 17.445313 39.652344 5.699219 57.292969-5.90625-14.121094-14.394531-26.851562-25.265625-37.722656-10.945312-10.945313-23.777344-19.371094-37.800781-25.210938 17.644531-11.804687 41.796875-9.929687 57.367187 5.640625zm-236.789062-6.617187c12.179688-9.085938 23.265625-1.101563 25.949219 1.003906-18.183594 1.519531-30.308594 17.410156-34.554688 24.945312-1.34375-3.746093-3.574219-16.863281 8.605469-25.949218zm-183.765625 468.035156c-11.441406 10.183594-28.878906 9.675781-39.707031-1.152344s-11.335938-28.269531-1.15625-39.707031l47.816406-53.714844c3.375 7.738281 15.347656 25.203125 25.457031 33.550781 3.191407 2.636719 7.910157 2.214844 10.5625-.96875 2.648438-3.183593 2.015625-7.71875-.96875-10.5625-15.914062-15.160156-22.046875-29.019531-23.769531-34.695312l88.304688-99.207031c4.488281 13.324219 12.023437 25.839843 22.621093 36.4375 10.59375 10.597656 23.109375 18.132812 36.433594 22.617187zm139.765625-180.628906c-30.902344-30.902344-30.902344-81.1875 0-112.09375 3.269531-3.269532 6.792969-6.214844 10.527344-8.84375.484375 5.589844 1.304687 11.121094 2.484375 16.558594.316406 1.460937 2.96875 7.082031 8.917969 5.738281 4.042968-.910157 6.621093-4.871094 5.742187-8.917969-6.457031-29.734375-1.0625-62.652344 14.765625-91.972656 19.789062 31.582031 43.171875 60.953125 69.65625 87.4375 26.492188 26.492187 55.871094 49.878906 87.453125 69.667968-50.40625 27.339844-108.183594 22.488282-143.898437-13.222656-7.089844-7.09375-13.085938-15.183594-17.816407-24.050781-1.949219-3.648437-6.496093-5.035156-10.148437-3.085937-3.65625 1.949218-5.039063 6.496093-3.089844 10.148437 5.429688 10.171875 12.308594 19.457031 20.445312 27.59375 19.820313 19.816406 46.578126 31.945313 75.890626 34.523437-2.625 3.734376-5.570313 7.253907-8.835938 10.519532-30.902344 30.90625-81.1875 30.90625-112.09375 0zm217.953125-48.761719c-34.609375-20.46875-66.65625-45.347656-95.25-73.9375-28.589844-28.589844-53.46875-60.640625-73.9375-95.253906-10.121094-17.113281-4.433594-39.273438 12.683594-49.394531 17.113281-10.117188 39.269531-4.425782 49.390625 12.683593 26.605468 44.988281 61.179687 84.027344 102.765625 116.027344 3.28125 2.527344 7.992187 1.914063 10.519531-1.367187 2.523438-3.285157 1.910156-7.996094-1.371094-10.519532-40.0625-30.832031-74.378906-72.703125-104.214844-119.035156 47.660157-20.648438 99.542969-13.585938 132.074219 18.945312 42.714844 42.714844 28.40625 110.339844 18.960938 132.089844-2.234375-1.917968-17.957031-11.722656-23.144531-15.136718-3.460938-2.277344-8.113282-1.316407-10.390626 2.144531-2.277343 3.460937-1.320312 8.105469 2.144532 10.386719 5.386718 3.546874 10.929687 7.007812 16.480468 10.289062 17.113282 10.125 22.804688 32.285156 12.683594 49.394531-10.121094 17.113281-32.277344 22.804688-49.394531 12.683594zm42.46875 13.957031c7.972656-4.257812 21.992187-14.289062 25.707031-33.847656 1.699219 2.328125 8.691406 12.160156 1.007813 24.691406-7.6875 12.527344-22.632813 10.6875-26.714844 9.15625zm0 0"/></svg>