<svg height="512pt" viewBox="0 -157 512 512" width="512pt" xmlns="http://www.w3.org/2000/svg"><path d="m412.996094 190.507812h-313.992188c-50.535156 0-91.503906-40.96875-91.503906-91.503906s40.96875-91.503906 91.503906-91.503906h313.992188c50.535156 0 91.503906 40.96875 91.503906 91.503906s-40.96875 91.503906-91.503906 91.503906zm0 0" fill="#898890"/><path d="m179.703125 99.003906c0-50.535156 40.96875-91.503906 91.503906-91.503906h-172.203125c-50.535156 0-91.503906 40.96875-91.503906 91.503906s40.96875 91.503906 91.503906 91.503906h172.203125c-50.535156 0-91.503906-40.96875-91.503906-91.503906zm0 0" fill="#77767c"/><path d="m469.335938 99.003906c0 31.113282-25.222657 56.339844-56.339844 56.339844-31.113282 0-56.339844-25.226562-56.339844-56.339844 0-31.117187 25.226562-56.339844 56.339844-56.339844 31.117187 0 56.339844 25.222657 56.339844 56.339844zm0 0" fill="#abebf4"/><path d="m397.5 99.003906c-19.375-14.710937-14.984375-37.242187-10.195312-50.15625-18.1875 9.34375-30.648438 28.300782-30.648438 50.15625 0 31.113282 25.226562 56.339844 56.339844 56.339844 4.273437 0 8.433594-.476562 12.433594-1.378906-2.148438-14.835938-8.59375-40.28125-27.929688-54.960938zm0 0" fill="#8ed7e8"/><path d="m131.929688 80.027344h-16.144532l7.546875-27.117188c1.96875-7.074218-3.351562-14.074218-10.691406-14.074218h-35.046875c-6.71875 0-12.394531 4.988281-13.257812 11.652343l-6.980469 54.066407c-.964844 7.460937 4.851562 14.074218 12.375 14.074218h18.023437l-.632812 31.210938c-.191406 9.433594 12.3125 12.921875 17.03125 4.746094l35.410156-61.339844c3.390625-5.875-.851562-13.21875-7.632812-13.21875zm0 0" fill="#ffde55"/><path d="m186.28125 150.796875c-11.386719 0-20.621094-9.230469-20.621094-20.621094v-66.890625c0-11.390625 9.234375-20.621094 20.621094-20.621094 11.390625 0 20.621094 9.230469 20.621094 20.621094v66.890625c0 11.390625-9.230469 20.621094-20.621094 20.621094zm0 0" fill="#dfaeff"/><path d="m248.707031 150.796875c-11.390625 0-20.621093-9.230469-20.621093-20.621094v-66.890625c0-11.390625 9.230468-20.621094 20.621093-20.621094 11.386719 0 20.621094 9.230469 20.621094 20.621094v66.890625c0 11.390625-9.234375 20.621094-20.621094 20.621094zm0 0" fill="#dfaeff"/><path d="m311.128906 150.796875c-11.386718 0-20.621094-9.230469-20.621094-20.621094v-66.890625c0-11.390625 9.234376-20.621094 20.621094-20.621094 11.390625 0 20.621094 9.230469 20.621094 20.621094v66.890625c0 11.390625-9.230469 20.621094-20.621094 20.621094zm0 0" fill="#605f68"/><path d="m97.976562 95.554688c-6.5625-1.769532-10.84375-8.070313-10.074218-14.824219l4.792968-41.894531h-15.101562c-6.71875 0-12.394531 4.988281-13.257812 11.65625l-6.980469 54.0625c-.964844 7.464843 4.851562 14.078124 12.375 14.078124h18.023437l-.632812 31.207032c-.113282 5.476562 4.050781 8.949218 8.488281 9.300781l11.921875-47.285156c2.949219-13.75-9.554688-16.300781-9.554688-16.300781zm0 0" fill="#ffcd00"/><path d="m435.230469 91.503906h-14.734375v-14.734375c0-4.140625-3.359375-7.5-7.5-7.5s-7.5 3.359375-7.5 7.5v14.734375h-14.734375c-4.140625 0-7.5 3.355469-7.5 7.5 0 4.140625 3.359375 7.5 7.5 7.5h14.734375v14.730469c0 4.144531 3.359375 7.5 7.5 7.5s7.5-3.355469 7.5-7.5v-14.730469h14.734375c4.140625 0 7.5-3.359375 7.5-7.5 0-4.144531-3.359375-7.5-7.5-7.5zm0 0"/><path d="m412.996094 198.007812h-34.65625c-4.144532 0-7.5-3.359374-7.5-7.5 0-4.144531 3.355468-7.5 7.5-7.5h34.65625c46.320312 0 84.003906-37.6875 84.003906-84.003906 0-46.320312-37.683594-84.003906-84.003906-84.003906h-313.992188c-46.320312 0-84.003906 37.683594-84.003906 84.003906 0 46.316406 37.683594 84.003906 84.003906 84.003906h249.488282c4.140624 0 7.5 3.355469 7.5 7.5 0 4.140626-3.359376 7.5-7.5 7.5h-249.488282c-54.59375 0-99.003906-44.414062-99.003906-99.003906 0-54.59375 44.410156-99.003906 99.003906-99.003906h313.992188c54.59375 0 99.003906 44.410156 99.003906 99.003906 0 54.589844-44.410156 99.003906-99.003906 99.003906zm0 0"/><path d="m412.996094 162.84375c-35.199219 0-63.839844-28.640625-63.839844-63.839844 0-35.203125 28.640625-63.839844 63.839844-63.839844 35.203125 0 63.839844 28.636719 63.839844 63.839844 0 35.199219-28.636719 63.839844-63.839844 63.839844zm0-112.679688c-26.929688 0-48.839844 21.910157-48.839844 48.839844 0 26.929688 21.910156 48.839844 48.839844 48.839844 26.929687 0 48.839844-21.910156 48.839844-48.839844 0-26.929687-21.910157-48.839844-48.839844-48.839844zm0 0"/><path d="m96.378906 166.679688c-12.886718 0-16.914062-9.28125-16.757812-16.992188l.480468-23.558594h-10.371093c-5.742188 0-11.210938-2.472656-15.003907-6.785156-3.792968-4.3125-5.542968-10.054688-4.808593-15.75l6.980469-54.0625c1.339843-10.371094 10.234374-18.195312 20.695312-18.195312h35.042969c5.863281 0 11.261719 2.679687 14.808593 7.347656 3.546876 4.671875 4.679688 10.589844 3.109376 16.238281l-4.902344 17.605469h6.273437c5.898438 0 11.179688 3.050781 14.128907 8.15625 2.949218 5.105468 2.949218 11.207031 0 16.3125l-35.410157 61.34375c-3.054687 5.292968-8.457031 8.339844-14.265625 8.339844zm-18.785156-120.34375c-2.941406 0-5.441406 2.199218-5.816406 5.113281l-6.980469 54.066406c-.25 1.941406.640625 3.289063 1.195313 3.921875.558593.632812 1.78125 1.691406 3.742187 1.691406h18.019531c2.015625 0 3.945313.8125 5.355469 2.25 1.410156 1.441406 2.183594 3.386719 2.144531 5.402344l.558594 32.8125 37.515625-63.855469-17.542969-.210937c-2.34375 0-4.554687-1.097656-5.972656-2.964844s-1.878906-4.289062-1.253906-6.546875l7.546875-27.117187c.417969-1.496094-.195313-2.613282-.601563-3.140626-.402344-.53125-1.3125-1.421874-2.863281-1.421874zm0 0"/><path d="m186.28125 158.296875c-15.503906 0-28.121094-12.613281-28.121094-28.121094 0-4.144531 3.359375-7.5 7.5-7.5 4.144532 0 7.5 3.355469 7.5 7.5 0 7.234375 5.886719 13.121094 13.121094 13.121094s13.121094-5.886719 13.121094-13.121094v-66.890625c0-7.234375-5.886719-13.121094-13.121094-13.121094s-13.121094 5.886719-13.121094 13.121094v35.714844c0 4.144531-3.355468 7.5-7.5 7.5-4.140625 0-7.5-3.355469-7.5-7.5v-35.714844c0-15.507812 12.617188-28.121094 28.121094-28.121094 15.507812 0 28.121094 12.613282 28.121094 28.121094v66.890625c0 15.507813-12.613282 28.121094-28.121094 28.121094zm0 0"/><path d="m248.707031 158.296875c-15.507812 0-28.121093-12.613281-28.121093-28.121094v-66.890625c0-15.507812 12.613281-28.121094 28.121093-28.121094 15.507813 0 28.121094 12.613282 28.121094 28.121094v66.890625c0 15.507813-12.613281 28.121094-28.121094 28.121094zm0-108.132813c-7.234375 0-13.121093 5.886719-13.121093 13.121094v66.890625c0 7.234375 5.886718 13.121094 13.121093 13.121094s13.121094-5.886719 13.121094-13.121094v-66.890625c0-7.234375-5.886719-13.121094-13.121094-13.121094zm0 0"/><path d="m311.128906 158.296875c-15.503906 0-28.121094-12.613281-28.121094-28.121094v-66.890625c0-15.507812 12.617188-28.121094 28.121094-28.121094 15.507813 0 28.125 12.613282 28.125 28.121094v66.890625c0 15.507813-12.617187 28.121094-28.125 28.121094zm0-108.132813c-7.234375 0-13.121094 5.886719-13.121094 13.121094v66.890625c0 7.234375 5.886719 13.121094 13.121094 13.121094s13.125-5.886719 13.125-13.121094v-66.890625c0-7.234375-5.890625-13.121094-13.125-13.121094zm0 0"/></svg>