<svg height="512pt" viewBox="0 -157 512 512" width="512pt" xmlns="http://www.w3.org/2000/svg"><path d="m412.996094 190.507812h-313.992188c-50.535156 0-91.503906-40.96875-91.503906-91.503906s40.96875-91.503906 91.503906-91.503906h313.992188c50.535156 0 91.503906 40.96875 91.503906 91.503906s-40.96875 91.503906-91.503906 91.503906zm0 0" fill="#898890"/><path d="m179.703125 99.003906c0-50.535156 40.96875-91.503906 91.503906-91.503906h-172.203125c-50.535156 0-91.503906 40.96875-91.503906 91.503906s40.96875 91.503906 91.503906 91.503906h172.203125c-50.535156 0-91.503906-40.96875-91.503906-91.503906zm0 0" fill="#77767c"/><path d="m469.335938 99.003906c0 31.113282-25.222657 56.339844-56.339844 56.339844-31.113282 0-56.339844-25.226562-56.339844-56.339844 0-31.117187 25.226562-56.339844 56.339844-56.339844 31.117187 0 56.339844 25.222657 56.339844 56.339844zm0 0" fill="#abebf4"/><path d="m397.5 99.003906c-19.375-14.710937-14.984375-37.246094-10.191406-50.15625-18.191406 9.34375-30.652344 28.300782-30.652344 50.15625 0 31.113282 25.226562 56.339844 56.339844 56.339844 4.273437 0 8.433594-.476562 12.433594-1.378906-2.148438-14.835938-8.59375-40.28125-27.929688-54.960938zm0 0" fill="#8ed7e8"/><path d="m141.953125 65.125c-10.074219-10.144531-25.527344-11.660156-37.214844-4.554688-3.464843 2.109376-7.804687 2.199219-11.261719.074219-11.671874-7.171875-27.152343-5.707031-37.261718 4.40625-11.828125 11.824219-11.828125 31.003907 0 42.828125l27.664062 27.667969c8.378906 8.375 21.957032 8.375 30.332032 0l27.433593-27.433594c11.835938-11.835937 12.101563-31.109375.308594-42.988281zm0 0" fill="#ff929f"/><path d="m80.363281 93.195312c-10.789062-16.785156-4.429687-29.199218 2.601563-36.546874-9.414063-1.667969-19.476563 1.128906-26.75 8.398437-11.824219 11.828125-11.824219 31.003906 0 42.832031l27.667968 27.664063c8.375 8.378906 21.953126 8.378906 30.332032 0l4.65625-4.660157c-10.585938-13.945312-25.976563-18.191406-38.507813-37.6875zm0 0" fill="#ff737d"/><path d="m435.230469 91.503906h-14.734375v-14.734375c0-4.140625-3.359375-7.5-7.5-7.5s-7.5 3.359375-7.5 7.5v14.734375h-14.734375c-4.140625 0-7.5 3.355469-7.5 7.5 0 4.140625 3.359375 7.5 7.5 7.5h14.734375v14.730469c0 4.144531 3.359375 7.5 7.5 7.5s7.5-3.355469 7.5-7.5v-14.730469h14.734375c4.140625 0 7.5-3.359375 7.5-7.5 0-4.144531-3.359375-7.5-7.5-7.5zm0 0"/><path d="m228.902344 137.746094c-4.144532 0-7.5-3.359375-7.5-7.5v-44.378906l-13.035156 13.03125c-2.929688 2.929687-7.675782 2.929687-10.605469 0-2.929688-2.929688-2.929688-7.675782 0-10.605469l25.835937-25.835938c2.144532-2.144531 5.375-2.785156 8.171875-1.625 2.804688 1.160157 4.632813 3.894531 4.632813 6.929688v62.480469c0 4.144531-3.359375 7.503906-7.5 7.503906zm0 0"/><path d="m274.757812 137.746094c-13.796874 0-25.019531-11.226563-25.019531-25.023438v-27.441406c0-13.796875 11.226563-25.019531 25.019531-25.019531 13.796876 0 25.023438 11.226562 25.023438 25.019531v27.441406c0 13.796875-11.226562 25.023438-25.023438 25.023438zm0-62.484375c-5.523437 0-10.019531 4.496093-10.019531 10.019531v27.441406c0 5.523438 4.496094 10.019532 10.019531 10.019532 5.527344 0 10.023438-4.496094 10.023438-10.019532v-27.441406c0-5.523438-4.496094-10.019531-10.023438-10.019531zm0 0"/><path d="m412.996094 198.007812h-313.992188c-54.589844 0-99.003906-44.414062-99.003906-99.003906 0-54.59375 44.414062-99.003906 99.003906-99.003906h231.425782c4.140624 0 7.5 3.355469 7.5 7.5s-3.359376 7.5-7.5 7.5h-231.425782c-46.320312 0-84.003906 37.683594-84.003906 84.003906 0 46.316406 37.683594 84.003906 84.003906 84.003906h313.992188c46.320312 0 84.003906-37.6875 84.003906-84.003906 0-46.320312-37.683594-84.003906-84.003906-84.003906h-50.386719c-4.140625 0-7.5-3.355469-7.5-7.5s3.359375-7.5 7.5-7.5h50.386719c54.589844 0 99.003906 44.410156 99.003906 99.003906 0 54.589844-44.414062 99.003906-99.003906 99.003906zm0 0"/><path d="m412.996094 162.84375c-35.199219 0-63.839844-28.640625-63.839844-63.839844 0-35.203125 28.640625-63.839844 63.839844-63.839844 35.203125 0 63.839844 28.636719 63.839844 63.839844 0 35.199219-28.636719 63.839844-63.839844 63.839844zm0-112.679688c-26.929688 0-48.839844 21.910157-48.839844 48.839844 0 26.929688 21.910156 48.839844 48.839844 48.839844 26.929687 0 48.839844-21.910156 48.839844-48.839844 0-26.929687-21.910157-48.839844-48.839844-48.839844zm0 0"/><path d="m99.046875 149.3125c-7.414063 0-14.828125-2.820312-20.46875-8.464844l-5.683594-5.679687c-2.929687-2.929688-2.929687-7.679688 0-10.609375 2.929688-2.925782 7.679688-2.925782 10.609375 0l5.679688 5.683594c5.4375 5.4375 14.289062 5.4375 19.726562 0l27.433594-27.433594c8.980469-8.980469 9.109375-23.515625.289062-32.398438-7.457031-7.507812-18.96875-8.917968-27.996093-3.429687-5.949219 3.617187-13.261719 3.636719-19.085938.054687-9.011719-5.539062-20.539062-4.175781-28.03125 3.316406-4.304687 4.304688-6.671875 10.027344-6.671875 16.113282 0 6.085937 2.367188 11.808594 6.671875 16.109375 2.929688 2.929687 2.929688 7.679687 0 10.609375-2.929687 2.929687-7.675781 2.925781-10.605469 0-7.136718-7.136719-11.066406-16.625-11.066406-26.71875s3.929688-19.582032 11.066406-26.71875c12.425782-12.425782 31.542969-14.683594 46.492188-5.488282 1.007812.617188 2.324219.582032 3.4375-.097656 14.972656-9.105468 34.066406-6.773437 46.433594 5.679688 14.628906 14.730468 14.484375 38.765625-.328125 53.574218l-27.433594 27.433594c-5.644531 5.644532-13.054687 8.464844-20.46875 8.464844zm0 0"/></svg>