<svg height="512.001pt" viewBox="0 0 512.001 512.001" width="512.001pt" xmlns="http://www.w3.org/2000/svg"><path d="m504.5 256c0 137.242188-111.257812 248.5-248.5 248.5s-248.5-111.257812-248.5-248.5 111.257812-248.5 248.5-248.5 248.5 111.257812 248.5 248.5zm0 0" fill="#d8d7da"/><path d="m196.347656 247.238281c-56.691406-62.953125-51.894531-162.699219-43.820312-217.238281-85.578125 39.25-145.027344 125.6875-145.027344 226 0 137.242188 111.257812 248.5 248.5 248.5 37.90625 0 73.828125-8.484375 105.972656-23.664062-34.441406-83.296876-101.851562-162.78125-165.625-233.597657zm0 0" fill="#c6c5ca"/><path d="m256 444.5c-103.9375 0-188.5-84.5625-188.5-188.5 0-103.941406 84.5625-188.5 188.5-188.5 103.941406 0 188.5 84.5625 188.5 188.5 0 103.941406-84.558594 188.5-188.5 188.5zm0 0" fill="#dd9f80"/><path d="m196.347656 247.238281c-36.507812-40.539062-47.515625-96.34375-48.570312-145.496093-48.515625 34.140624-80.277344 90.5625-80.277344 154.257812 0 103.941406 84.5625 188.5 188.5 188.5 28.265625 0 55.097656-6.25 79.183594-17.449219-36.816406-63.6875-88.941406-124.40625-138.835938-179.8125zm0 0" fill="#c68d6d"/><path d="m67.5 256c0 25.179688 4.960938 49.214844 13.957031 71.191406h349.085938c8.996093-21.976562 13.957031-46.011718 13.957031-71.191406s-4.960938-49.214844-13.957031-71.191406h-349.085938c-8.996093 21.976562-13.957031 46.011718-13.957031 71.191406zm0 0" fill="#c68d6d"/><path d="m67.5 256c0 25.179688 4.960938 49.214844 13.957031 71.191406h183.734375c-22.273437-27.628906-45.792968-54.355468-68.84375-79.953125-16.535156-18.359375-27.835937-39.847656-35.351562-62.429687h-79.539063c-8.996093 21.976562-13.957031 46.011718-13.957031 71.191406zm0 0" fill="#b2785b"/><path d="m327.191406 256c0 39.316406-31.875 71.191406-71.191406 71.191406s-71.191406-31.875-71.191406-71.191406 31.875-71.191406 71.191406-71.191406 71.191406 31.875 71.191406 71.191406zm0 0" fill="#c6c5ca"/><path d="m246.082031 282.921875-17.003906-17.003906c-5.476563-5.476563-5.476563-14.359375 0-19.835938l17.003906-17.003906c5.476563-5.476563 14.359375-5.476563 19.835938 0l17.003906 17.003906c5.476563 5.476563 5.476563 14.359375 0 19.835938l-17.003906 17.003906c-5.476563 5.476563-14.359375 5.476563-19.835938 0zm0 0" fill="#eaeaea"/><path d="m243.417969 385.535156c0-11.296875-9.160157-20.457031-20.457031-20.457031h-120.613282c11.074219 15.554687 24.453125 29.351563 39.625 40.914063h80.988282c11.296874 0 20.457031-9.160157 20.457031-20.457032zm0 0" fill="#b2785b"/><path d="m443.398438 235.542969h-49.847657c-11.296875 0-20.457031 9.160156-20.457031 20.457031s9.160156 20.457031 20.457031 20.457031h49.847657c.730468-6.722656 1.101562-13.542969 1.101562-20.457031 0-6.910156-.371094-13.734375-1.101562-20.457031zm0 0" fill="#b2785b"/><path d="m130.304688 276.457031h-7.5c-11.300782 0-20.457032-9.160156-20.457032-20.457031s9.160156-20.457031 20.457032-20.457031h7.5c11.296874 0 20.453124 9.160156 20.453124 20.457031s-9.15625 20.457031-20.453124 20.457031zm0 0" fill="#935b45"/><path d="m317.808594 144.148438c4.140625 0 7.5-3.355469 7.5-7.5v-12.449219c0-4.144531-3.359375-7.5-7.5-7.5-4.144532 0-7.5 3.355469-7.5 7.5v12.449219c0 4.144531 3.355468 7.5 7.5 7.5zm0 0"/><path d="m194.191406 116.699219c-4.140625 0-7.5 3.355469-7.5 7.5v12.449219c0 4.144531 3.359375 7.5 7.5 7.5 4.144532 0 7.5-3.355469 7.5-7.5v-12.449219c0-4.144531-3.355468-7.5-7.5-7.5zm0 0"/><path d="m250.878906 129.15625c-2.277344-3.460938-6.925781-4.425781-10.386718-2.148438-3.460938 2.273438-4.425782 6.921876-2.152344 10.382813 3.917968 5.96875 10.523437 9.53125 17.660156 9.53125 7.140625 0 13.742188-3.5625 17.660156-9.53125 2.273438-3.460937 1.3125-8.109375-2.152344-10.382813-1.265624-.835937-6.878906-2.996093-10.382812 2.148438-1.683594 2.46875-4.128906 2.765625-5.125 2.765625s-3.484375-.269531-5.121094-2.765625zm0 0"/><path d="m483.214844 137.949219c-18.222656-35.003907-44.757813-65.804688-76.742188-89.078125-3.347656-2.4375-8.039062-1.699219-10.476562 1.648437-2.4375 3.351563-1.699219 8.042969 1.652344 10.480469 30.117187 21.914062 55.101562 50.917969 72.261718 83.875 17.722656 34.042969 27.089844 72.472656 27.089844 111.125 0 64.375-25.070312 124.894531-70.585938 170.414062-45.519531 45.519532-106.039062 70.585938-170.414062 70.585938s-124.894531-25.066406-170.414062-70.585938c-45.515626-45.519531-70.585938-106.039062-70.585938-170.414062s25.070312-124.894531 70.585938-170.414062c45.519531-45.515626 106.039062-70.585938 170.414062-70.585938 40.464844 0 80.480469 10.21875 115.726562 29.550781 3.628907 1.992188 8.1875.660157 10.179688-2.96875 1.992188-3.632812.664062-8.191406-2.96875-10.183593-37.449219-20.542969-79.960938-31.398438-122.9375-31.398438-68.378906 0-132.667969 26.628906-181.019531 74.980469-48.351563 48.351562-74.980469 112.640625-74.980469 181.019531 0 68.382812 26.628906 132.667969 74.980469 181.019531 48.351562 48.351563 112.640625 74.980469 181.019531 74.980469 68.382812 0 132.667969-26.628906 181.019531-74.980469 48.351563-48.351562 74.980469-112.636719 74.980469-181.019531 0-41.054688-9.953125-81.875-28.785156-118.050781zm0 0"/><path d="m60 256c0 108.074219 87.925781 196 196 196s196-87.925781 196-196-87.925781-196-196-196-196 87.925781-196 196zm26.582031-63.691406h123.28125c-19.707031 14.316406-32.554687 37.523437-32.554687 63.691406 0 8.5625 1.367187 16.984375 4.066406 25.03125 1.316406 3.929688 5.566406 6.042969 9.496094 4.726562 3.925781-1.316406 6.042968-5.566406 4.726562-9.496093-2.183594-6.507813-3.289062-13.324219-3.289062-20.261719 0-35.121094 28.570312-63.691406 63.691406-63.691406 35.117188 0 63.6875 28.570312 63.6875 63.691406 0 35.117188-28.570312 63.6875-63.6875 63.6875-17.867188 0-35.027344-7.574219-47.074219-20.785156-2.792969-3.0625-7.535156-3.28125-10.597656-.488282-3.058594 2.789063-3.277344 7.535157-.484375 10.59375 3.636719 3.992188 7.660156 7.558594 11.972656 10.679688h-123.234375c-7.476562-19.820312-11.582031-41.28125-11.582031-63.6875s4.105469-43.867188 11.582031-63.691406zm169.417969 244.691406c-71.617188 0-133.652344-41.8125-162.980469-102.308594h302.703125c4.140625 0 7.5-3.359375 7.5-7.5s-3.359375-7.5-7.5-7.5h-93.585937c19.707031-14.316406 32.554687-37.523437 32.554687-63.691406 0-26.164062-12.847656-49.375-32.554687-63.691406h123.28125c7.476562 19.824218 11.582031 41.285156 11.582031 63.691406 0 99.804688-81.195312 181-181 181zm162.980469-259.691406h-325.960938c29.328125-60.496094 91.363281-102.308594 162.980469-102.308594 71.621094 0 133.652344 41.8125 162.980469 102.308594zm0 0"/><path d="m240.777344 288.226562c4.195312 4.195313 9.710937 6.292969 15.222656 6.292969s11.023438-2.097656 15.21875-6.292969l17.003906-17.003906c8.394532-8.394531 8.394532-22.050781 0-30.441406l-17.003906-17.003906c-8.390625-8.394532-22.046875-8.394532-30.441406 0l-17.003906 17.003906c-8.390626 8.390625-8.390626 22.046875 0 30.441406zm-6.394532-36.839843 17.003907-17.003907c2.492187-2.324218 6.628906-2.53125 9.226562 0l17.003907 17.003907c2.546874 2.542969 2.546874 6.683593 0 9.226562l-17.003907 17.003907c-2.542969 2.546874-6.683593 2.546874-9.226562 0l-17.003907-17.003907c-2.546874-2.542969-2.546874-6.683593 0-9.226562zm0 0"/></svg>