<svg id="potato" enable-background="new 0 0 300 300" height="512" viewBox="0 0 300 300" width="512" xmlns="http://www.w3.org/2000/svg"><g><circle cx="121.516" cy="150.417" fill="#edebdc" r="92"/><path d="m241.849 53.562c-2.209 0-4-1.791-4-4v-8c0-2.209 1.791-4 4-4s4 1.791 4 4v8c0 2.209-1.791 4-4 4z" fill="#4c241d"/><path d="m241.849 77.562c-2.209 0-4-1.791-4-4v-8c0-2.209 1.791-4 4-4s4 1.791 4 4v8c0 2.209-1.791 4-4 4z" fill="#4c241d"/><path d="m233.849 61.562h-8c-2.209 0-4-1.791-4-4s1.791-4 4-4h8c2.209 0 4 1.791 4 4s-1.791 4-4 4z" fill="#4c241d"/><path d="m257.849 61.562h-8c-2.209 0-4-1.791-4-4s1.791-4 4-4h8c2.209 0 4 1.791 4 4s-1.791 4-4 4z" fill="#4c241d"/><path d="m63.517 62.416c-7.719 0-14-6.281-14-14s6.281-14 14-14 14 6.281 14 14-6.282 14-14 14zm0-20c-3.309 0-6 2.691-6 6s2.691 6 6 6 6-2.691 6-6-2.692-6-6-6z" fill="#4c241d"/><circle cx="116.115" cy="57.886" fill="#4c241d" r="4.276"/><circle cx="168.115" cy="113.886" fill="#4c241d" r="4.276"/><g><path d="m116.193 255.266c-4.009-.964-61.677-15.815-42.344-57.704 15.315-33.182 48.547-32.16 70.593-27.075 21.47 4.953 44.271-4.966 53.47-24.988 1.195-2.602 2.189-5.353 2.91-8.25 3.457-13.875 15.084-24.439 29.381-24.682 15.184-.259 31.589 8.477 35.646 44.994.081.727.156 1.45.225 2.169 5.463 56.532-44.225 101.831-97.638 101.854-17.931.008-36.961-2.642-52.243-6.318z" fill="#bf7e68"/><path d="m168.36 265.584c-16.762 0-36.111-2.342-53.104-6.43-3.609-.867-35.514-9.084-46.037-30.795-4.756-9.811-4.42-20.736.998-32.473 12.541-27.176 39.225-37.582 75.121-29.297 20.164 4.654 40.742-4.922 48.938-22.76 1.135-2.469 2.031-5.008 2.664-7.547 3.998-16.053 17.648-27.449 33.193-27.715 15.588-.26 35.178 7.938 39.689 48.553l.232 2.23c2.521 26.096-6.15 51.553-24.418 71.68-19.627 21.623-48.486 34.541-77.199 34.553-.024.001-.051.001-.077.001zm-45.836-93.783c-17.516 0-35.262 6.244-45.043 27.438-4.365 9.457-4.723 18.08-1.062 25.633 9.074 18.719 39.42 26.195 40.707 26.506h.002c16.406 3.945 35.074 6.207 51.232 6.207h.074c26.496-.01 53.143-11.947 71.279-31.93 16.734-18.436 24.68-41.711 22.377-65.539l-.218-2.116c-3.055-27.498-13.492-41.438-31.027-41.438-.191 0-.383.002-.574.006-11.93.203-22.443 9.105-25.568 21.648-.752 3.021-1.814 6.033-3.156 8.953-9.771 21.268-34.164 32.705-58.004 27.217-6.581-1.519-13.78-2.585-21.019-2.585z" fill="#4c241d"/></g><g fill="#4c241d"><path d="m189.849 209.564c-1.676 0-3.236-1.061-3.795-2.736-6.371-19.117-20.492-28.949-24.67-31.508-1.883-1.152-2.475-3.615-1.32-5.5 1.154-1.881 3.621-2.475 5.5-1.32 4.76 2.914 20.852 14.113 28.08 35.797.699 2.096-.434 4.361-2.529 5.061-.421.14-.848.206-1.266.206z"/><path d="m258.811 207.01c-1.6 0-3.109-.967-3.727-2.545-6.123-15.658-18.141-19.004-18.26-19.035-2.137-.566-3.408-2.756-2.844-4.891s2.758-3.406 4.891-2.844c.654.174 16.08 4.461 23.662 23.855.805 2.059-.211 4.379-2.268 5.182-.477.188-.969.278-1.454.278z"/><circle cx="181.849" cy="237.562" r="4"/><circle cx="157.849" cy="213.562" r="4"/><circle cx="221.849" cy="161.562" r="4"/><circle cx="245.849" cy="157.562" r="4"/><circle cx="229.849" cy="141.562" r="4"/><circle cx="133.849" cy="233.562" r="4"/></g><g><circle cx="85.849" cy="169.562" fill="#bf7e68" r="48"/><path d="m85.849 221.562c-28.674 0-52-23.326-52-52s23.326-52 52-52 52 23.326 52 52-23.327 52-52 52zm0-96c-24.262 0-44 19.738-44 44s19.738 44 44 44 44-19.738 44-44-19.739-44-44-44z" fill="#4c241d"/></g><g><circle cx="85.849" cy="169.562" fill="#efefd2" r="33.151"/><path d="m85.849 206.715c-20.486 0-37.152-16.666-37.152-37.152s16.666-37.152 37.152-37.152 37.152 16.666 37.152 37.152-16.666 37.152-37.152 37.152zm0-66.305c-16.074 0-29.152 13.078-29.152 29.152s13.078 29.152 29.152 29.152 29.152-13.078 29.152-29.152-13.078-29.152-29.152-29.152z" fill="#4c241d"/></g></g></svg>