<svg id="pumpkin" enable-background="new 0 0 300 300" height="512" viewBox="0 0 300 300" width="512" xmlns="http://www.w3.org/2000/svg"><g><circle cx="120.675" cy="144" fill="#edebdc" r="92"/><g><ellipse cx="206.898" cy="161.683" fill="#fc8c29" rx="48.648" ry="60.81" transform="matrix(.947 -.322 .322 .947 -41.046 75.243)"/><path d="m213.612 225.379c-9.275 0-18.729-2.885-27.586-8.537-13.16-8.402-23.449-21.971-28.971-38.205-5.523-16.232-5.641-33.26-.334-47.943 5.422-14.998 15.83-25.783 29.305-30.367 13.473-4.586 28.299-2.381 41.744 6.199 13.16 8.4 23.449 21.969 28.971 38.203 5.521 16.234 5.641 33.262.332 47.945-5.42 14.998-15.828 25.783-29.303 30.367-4.597 1.564-9.355 2.338-14.158 2.338zm-13.453-119.381c-3.936 0-7.816.631-11.555 1.902-11.129 3.785-19.781 12.846-24.359 25.512-4.691 12.982-4.555 28.129.385 42.648v.002c4.939 14.52 14.066 26.607 25.701 34.035 11.354 7.248 23.734 9.15 34.861 5.369 11.129-3.785 19.779-12.846 24.357-25.512 4.693-12.982 4.557-28.129-.383-42.65s-14.066-26.609-25.701-34.037c-7.536-4.81-15.53-7.269-23.306-7.269z" fill="#4c241d"/></g><g><ellipse cx="133.926" cy="161.683" fill="#fc8c29" rx="60.81" ry="48.648" transform="matrix(.322 -.947 .947 .322 -62.273 236.406)"/><path d="m127.068 225.348c-4.715 0-9.422-.744-14.014-2.307-13.475-4.584-23.883-15.369-29.303-30.367-5.309-14.684-5.189-31.711.332-47.947 5.521-16.232 15.811-29.801 28.971-38.201 13.443-8.578 28.268-10.779 41.744-6.199 27.482 9.348 40.48 44.479 28.973 78.311v.002c-9.588 28.178-33.2 46.708-56.703 46.708zm13.597-119.35c-7.777 0-15.768 2.459-23.307 7.27-11.635 7.428-20.762 19.516-25.701 34.035-4.939 14.523-5.076 29.67-.383 42.652 4.578 12.666 13.229 21.727 24.357 25.512 23.307 7.924 50.475-9.75 60.564-39.406v.002c10.088-29.658-.668-60.234-23.977-68.162-3.736-1.272-7.617-1.903-11.553-1.903zm39.319 71.352h.039z" fill="#4c241d"/></g><g><path d="m154.776 141.562 38.223 3.61 20.849-21.662-23.767-10.975c-4.216-1.947-6.242-6.969-4.622-11.457l4.229-11.716c1.84-5.099-.578-10.791-5.445-12.814-4.811-1.999-10.283.311-12.387 5.231l-5.813 13.588c-2.791 6.524-7.678 11.838-13.825 15.031l-25.241 13.112z" fill="#77a052"/><path d="m192.999 149.172c-.125 0-.25-.006-.377-.018l-38.225-3.609c-.643-.061-1.26-.275-1.801-.627l-27.799-18.051c-1.195-.775-1.887-2.127-1.818-3.549.07-1.422.889-2.699 2.152-3.355l25.242-13.113c5.312-2.76 9.57-7.396 11.99-13.055l5.812-13.588c2.986-6.982 10.711-10.219 17.602-7.352 6.887 2.861 10.256 10.709 7.67 17.865l-4.229 11.715c-.918 2.547.195 5.387 2.537 6.467l23.77 10.979c1.174.543 2.014 1.619 2.254 2.891.238 1.273-.152 2.582-1.049 3.514l-20.852 21.66c-.754.786-1.797 1.226-2.879 1.226zm-36.871-11.5 35.326 3.336 15.615-16.221-18.666-8.621c-6.076-2.803-9.023-10.027-6.707-16.445l4.229-11.717c1.113-3.082-.33-6.562-3.217-7.762-2.781-1.154-5.934.209-7.176 3.111l-5.812 13.586c-3.146 7.357-8.707 13.396-15.658 17.008l-19.148 9.949z" fill="#4c241d"/></g><g><ellipse cx="120.027" cy="182.532" fill="#fc8c29" rx="60.81" ry="48.648" transform="matrix(.322 -.947 .947 .322 -91.435 237.382)"/><path d="m113.314 246.229c-4.803 0-9.559-.773-14.158-2.338-27.482-9.348-40.48-44.48-28.973-78.312 11.512-33.834 43.238-53.738 70.717-44.404 13.475 4.584 23.883 15.369 29.303 30.367 5.309 14.686 5.189 31.713-.332 47.947-5.521 16.232-15.811 29.801-28.971 38.203-8.856 5.652-18.311 8.537-27.586 8.537zm13.482-119.375c-20.125 0-40.582 16.441-49.039 41.301-10.088 29.656.668 60.234 23.975 68.162 11.133 3.785 23.508 1.879 34.863-5.369 11.635-7.428 20.762-19.516 25.701-34.035 0-.002 0-.002 0-.002 4.939-14.52 5.076-29.666.383-42.648-4.578-12.668-13.229-21.729-24.357-25.514-3.77-1.284-7.643-1.895-11.526-1.895z" fill="#4c241d"/></g><g><path d="m94.158 159.933c4.323-6.525 9.931-11.604 16.079-14.761" fill="#fc8c29"/><path d="m94.153 163.934c-.758 0-1.525-.215-2.205-.666-1.842-1.219-2.346-3.701-1.125-5.543 4.65-7.021 10.73-12.592 17.588-16.111 1.961-1.018 4.375-.232 5.385 1.732 1.008 1.965.234 4.375-1.732 5.385-5.639 2.895-10.678 7.531-14.572 13.412-.77 1.162-2.042 1.791-3.339 1.791z" fill="#4c241d"/></g><g><ellipse cx="217.323" cy="182.532" fill="#fc8c29" rx="48.648" ry="60.81" transform="matrix(.947 -.322 .322 .947 -47.205 79.711)"/><path d="m224.036 246.229c-9.275 0-18.729-2.885-27.586-8.537-13.16-8.402-23.449-21.971-28.971-38.205v.002c-5.521-16.234-5.641-33.262-.332-47.947 5.42-14.998 15.828-25.783 29.303-30.367 27.479-9.338 59.209 10.57 70.717 44.402 11.508 33.834-1.49 68.967-28.973 78.314-4.597 1.564-9.355 2.338-14.158 2.338zm-13.482-119.375c-3.885 0-7.756.611-11.525 1.895-11.129 3.785-19.779 12.846-24.357 25.514-4.693 12.982-4.557 28.129.383 42.648v.002c4.939 14.52 14.066 26.607 25.701 34.035 11.354 7.246 23.736 9.148 34.861 5.369 23.309-7.928 34.064-38.506 23.977-68.164-8.458-24.858-28.917-41.299-49.04-41.299z" fill="#4c241d"/></g><g><ellipse cx="168.675" cy="182.532" fill="#f96e43" rx="48.648" ry="60.81"/><path d="m168.675 247.342c-29.031 0-52.648-29.074-52.648-64.811s23.617-64.809 52.648-64.809 52.648 29.072 52.648 64.809-23.617 64.811-52.648 64.811zm0-121.619c-24.619 0-44.648 25.484-44.648 56.809 0 31.326 20.029 56.811 44.648 56.811s44.648-25.484 44.648-56.811c0-31.325-20.029-56.809-44.648-56.809z" fill="#4c241d"/></g><g fill="#4c241d"><path d="m188.155 222.643c-1.137 0-2.268-.482-3.059-1.42-1.424-1.688-1.213-4.211.477-5.637 8.729-7.371 13.939-19.729 13.939-33.055 0-2.209 1.791-4 4-4s4 1.791 4 4c0 15.652-6.271 30.295-16.779 39.168-.749.633-1.665.944-2.578.944z"/><path d="m240.675 48c-2.209 0-4-1.791-4-4v-8c0-2.209 1.791-4 4-4s4 1.791 4 4v8c0 2.209-1.791 4-4 4z"/><path d="m240.675 72c-2.209 0-4-1.791-4-4v-8c0-2.209 1.791-4 4-4s4 1.791 4 4v8c0 2.209-1.791 4-4 4z"/><path d="m232.675 56h-8c-2.209 0-4-1.791-4-4s1.791-4 4-4h8c2.209 0 4 1.791 4 4s-1.791 4-4 4z"/><path d="m256.675 56h-8c-2.209 0-4-1.791-4-4s1.791-4 4-4h8c2.209 0 4 1.791 4 4s-1.791 4-4 4z"/><path d="m42.64 90.826c-7.719 0-14-6.281-14-14s6.281-14 14-14 14 6.281 14 14-6.281 14-14 14zm0-20c-3.309 0-6 2.691-6 6s2.691 6 6 6 6-2.691 6-6-2.692-6-6-6z"/><circle cx="80.969" cy="41.217" r="4.276"/><circle cx="260.969" cy="101.217" r="4.276"/></g><g><path d="m148.675 210c0 29.823-24.177 54-54 54s-54-24.177-54-54z" fill="#f96e43"/><path d="m94.675 268c-31.98 0-58-26.02-58-58 0-2.209 1.791-4 4-4h108c2.209 0 4 1.791 4 4 0 31.98-26.02 58-58 58zm-49.842-54c2.045 25.707 23.617 46 49.842 46s47.797-20.293 49.842-46z" fill="#4c241d"/></g><g><path d="m133.273 210c0 21.317-17.281 38.598-38.598 38.598s-38.598-17.281-38.598-38.598z" fill="#fc8c29"/><path d="m94.675 252.598c-23.488 0-42.598-19.109-42.598-42.598 0-2.209 1.791-4 4-4h77.195c2.209 0 4 1.791 4 4 .001 23.488-19.109 42.598-42.597 42.598zm-34.367-38.598c1.988 17.199 16.643 30.598 34.367 30.598s32.379-13.398 34.367-30.598z" fill="#4c241d"/></g><circle cx="114.675" cy="222" fill="#fff" r="3.411"/><circle cx="98.675" cy="234" fill="#fff" r="3.411"/><circle cx="90.675" cy="222" fill="#fff" r="3.411"/><circle cx="74.675" cy="222" fill="#fff" r="3.411"/></g></svg>