<svg id="celery" enable-background="new 0 0 300 300" height="512" viewBox="0 0 300 300" width="512" xmlns="http://www.w3.org/2000/svg"><g><circle cx="147.298" cy="144.331" fill="#edebdc" r="92"/><g fill="#4c241d"><path d="m244 48c-2.211 0-4-1.791-4-4v-8c0-2.209 1.789-4 4-4s4 1.791 4 4v8c0 2.209-1.789 4-4 4z"/><path d="m244 72c-2.211 0-4-1.791-4-4v-8c0-2.209 1.789-4 4-4s4 1.791 4 4v8c0 2.209-1.789 4-4 4z"/><path d="m236 56h-8c-2.211 0-4-1.791-4-4s1.789-4 4-4h8c2.211 0 4 1.791 4 4s-1.789 4-4 4z"/><path d="m260 56h-8c-2.211 0-4-1.791-4-4s1.789-4 4-4h8c2.211 0 4 1.791 4 4s-1.789 4-4 4z"/><path d="m50 184c-7.719 0-14-6.281-14-14s6.281-14 14-14 14 6.281 14 14-6.281 14-14 14zm0-20c-3.309 0-6 2.691-6 6s2.691 6 6 6 6-2.691 6-6-2.691-6-6-6z"/><circle cx="84.611" cy="213.097" r="4.276"/><circle cx="252.611" cy="121.097" r="4.276"/></g><g><path d="m171.788 89.713c-.728-.225-1.46-.34-2.191-.443.327-.662.646-1.331.872-2.058 2.031-6.563-1.023-13.461-6.906-16.527-1.496-6.124-6.979-10.685-13.563-10.685-.762 0-1.495.107-2.224.224.117-.729.224-1.462.224-2.224 0-7.732-6.268-14-14-14s-14 6.268-14 14c0 .762.107 1.495.224 2.224-.729-.117-1.462-.224-2.224-.224-6.584 0-12.067 4.561-13.562 10.684-5.884 3.065-8.937 9.964-6.906 16.527.225.728.544 1.397.872 2.058-.731.104-1.463.218-2.191.443-7.386 2.286-11.522 10.126-9.236 17.513 2.286 7.386 10.126 11.522 17.513 9.236 2.088-.646 3.877-1.77 5.374-3.167.293 1.092.605 2.192.949 3.304 3.466 11.202 8.607 20.213 13.188 23.96v115.442h20v-115.441c4.581-3.748 9.722-12.758 13.188-23.96.344-1.112.656-2.213.949-3.304 1.497 1.398 3.287 2.521 5.374 3.167 7.386 2.286 15.227-1.85 17.513-9.236 2.285-7.387-1.85-15.228-9.237-17.513z" fill="#a9ba5a"/><path d="m144 260h-20c-2.211 0-4-1.791-4-4v-113.672c-4.645-4.6-9.16-12.848-12.434-22.756-.621.275-1.254.512-1.898.711-4.59 1.416-9.465.965-13.715-1.275-4.254-2.242-7.375-6.008-8.797-10.602-1.422-4.592-.969-9.463 1.273-13.715 1.941-3.689 5.031-6.529 8.812-8.145-1.414-7.172 1.68-14.51 7.812-18.514 2.301-6.57 8.152-11.207 15.043-11.934.955-9.034 8.619-16.098 17.904-16.098s16.949 7.064 17.902 16.1c6.891.727 12.742 5.363 15.043 11.934 6.133 4.004 9.227 11.344 7.812 18.514 3.781 1.615 6.871 4.455 8.812 8.145 2.242 4.252 2.695 9.123 1.273 13.715-1.422 4.594-4.543 8.359-8.797 10.602-4.254 2.24-9.129 2.691-13.719 1.275-.645-.199-1.277-.438-1.895-.711-3.273 9.908-7.789 18.156-12.434 22.756v113.67c.003 2.209-1.786 4-3.997 4zm-16-8h12v-111.441c0-1.199.539-2.336 1.469-3.096 3.137-2.566 8.133-9.881 11.898-22.047.328-1.062.625-2.113.906-3.158.363-1.357 1.41-2.424 2.762-2.811 1.355-.387 2.805-.037 3.832.924 1.156 1.078 2.441 1.842 3.824 2.268 5.25 1.619 10.879-1.326 12.512-6.596.789-2.553.539-5.258-.707-7.621-1.246-2.361-3.336-4.096-5.883-4.885-.523-.162-1.051-.232-1.578-.307-1.27-.182-2.379-.961-2.977-2.096-.598-1.137-.613-2.49-.047-3.641.238-.475.477-.949.637-1.471 1.426-4.598-.652-9.561-4.934-11.793-1.023-.531-1.766-1.479-2.039-2.598-1.097-4.492-5.077-7.631-9.675-7.631-.543 0-1.066.09-1.586.174-1.258.197-2.555-.213-3.465-1.121-.906-.906-1.324-2.195-1.121-3.463.082-.522.172-1.045.172-1.59 0-5.514-4.484-10-10-10s-10 4.486-10 10c0 .545.09 1.068.172 1.59.203 1.268-.215 2.557-1.121 3.463-.91.906-2.215 1.309-3.465 1.121-.52-.084-1.043-.174-1.586-.174-4.598 0-8.578 3.139-9.676 7.633-.273 1.119-1.016 2.066-2.039 2.598-4.281 2.232-6.359 7.195-4.934 11.797.16.518.398.992.637 1.467.566 1.15.551 2.504-.047 3.641-.598 1.135-1.707 1.914-2.977 2.096-.527.074-1.055.145-1.578.307-2.543.787-4.637 2.521-5.883 4.885-1.246 2.363-1.496 5.068-.707 7.621 1.633 5.266 7.238 8.229 12.508 6.596 1.387-.426 2.672-1.189 3.828-2.268 1.027-.961 2.48-1.311 3.832-.924s2.398 1.453 2.762 2.811c.281 1.045.578 2.096.906 3.158 3.766 12.166 8.762 19.48 11.898 22.047.93.76 1.469 1.896 1.469 3.096v111.439z" fill="#4c241d"/></g><g><path d="m211.788 89.713c-.728-.225-1.46-.34-2.191-.443.327-.662.646-1.331.872-2.058 2.031-6.563-1.023-13.461-6.906-16.527-1.496-6.124-6.979-10.685-13.563-10.685-.762 0-1.495.107-2.224.224.117-.729.224-1.462.224-2.224 0-7.732-6.268-14-14-14s-14 6.268-14 14c0 .762.107 1.495.224 2.224-.729-.117-1.462-.224-2.224-.224-6.584 0-12.067 4.561-13.562 10.684-5.884 3.065-8.937 9.964-6.906 16.527.225.728.544 1.397.872 2.058-.731.104-1.463.218-2.191.443-7.386 2.286-11.522 10.126-9.236 17.513 2.286 7.386 10.126 11.522 17.513 9.236 2.088-.646 3.877-1.77 5.374-3.167.293 1.092.605 2.192.949 3.304 3.466 11.202 8.607 20.213 13.188 23.96v115.442h20v-115.441c4.581-3.748 9.722-12.758 13.188-23.96.344-1.112.656-2.213.949-3.304 1.497 1.398 3.287 2.521 5.374 3.167 7.386 2.286 15.227-1.85 17.513-9.236 2.285-7.387-1.85-15.228-9.237-17.513z" fill="#a9ba5a"/><path d="m184 260h-20c-2.211 0-4-1.791-4-4v-113.672c-4.645-4.6-9.16-12.848-12.434-22.756-.621.275-1.254.512-1.898.711-4.59 1.416-9.465.965-13.715-1.275-4.254-2.242-7.375-6.008-8.797-10.602-1.422-4.592-.969-9.463 1.273-13.715 1.941-3.689 5.031-6.529 8.812-8.145-1.414-7.172 1.68-14.51 7.812-18.514 2.301-6.57 8.152-11.207 15.043-11.934.955-9.034 8.619-16.098 17.904-16.098s16.949 7.064 17.902 16.1c6.891.727 12.742 5.363 15.043 11.934 6.133 4.004 9.227 11.344 7.812 18.514 3.781 1.615 6.871 4.455 8.812 8.145 2.242 4.252 2.695 9.123 1.273 13.715-1.422 4.594-4.543 8.359-8.797 10.602-4.254 2.24-9.129 2.691-13.719 1.275-.645-.199-1.277-.438-1.895-.711-3.273 9.908-7.789 18.156-12.434 22.756v113.67c.003 2.209-1.786 4-3.997 4zm-16-8h12v-111.441c0-1.199.539-2.336 1.469-3.096 3.137-2.566 8.133-9.881 11.898-22.047.328-1.062.625-2.113.906-3.158.363-1.357 1.41-2.424 2.762-2.811s2.805-.037 3.832.924c1.156 1.078 2.441 1.842 3.824 2.268 5.254 1.619 10.879-1.326 12.512-6.596.789-2.553.539-5.258-.707-7.621-1.246-2.361-3.336-4.096-5.883-4.885-.523-.162-1.051-.232-1.578-.307-1.27-.182-2.379-.961-2.977-2.096-.598-1.137-.613-2.49-.047-3.641.238-.475.477-.949.637-1.471 1.426-4.598-.652-9.561-4.934-11.793-1.023-.531-1.766-1.479-2.039-2.598-1.097-4.492-5.077-7.631-9.675-7.631-.543 0-1.066.09-1.586.174-1.258.197-2.555-.213-3.465-1.121-.906-.906-1.324-2.195-1.121-3.463.082-.522.172-1.045.172-1.59 0-5.514-4.484-10-10-10s-10 4.486-10 10c0 .545.09 1.068.172 1.59.203 1.268-.215 2.557-1.121 3.463-.91.906-2.211 1.309-3.465 1.121-.52-.084-1.043-.174-1.586-.174-4.598 0-8.578 3.139-9.676 7.633-.273 1.119-1.016 2.066-2.039 2.598-4.281 2.232-6.359 7.195-4.934 11.797.16.518.398.992.637 1.467.566 1.15.551 2.504-.047 3.641-.598 1.135-1.707 1.914-2.977 2.096-.527.074-1.055.145-1.578.307-2.543.787-4.637 2.521-5.883 4.885-1.246 2.363-1.496 5.068-.707 7.621 1.629 5.266 7.246 8.229 12.508 6.596 1.387-.426 2.672-1.189 3.828-2.268 1.023-.961 2.48-1.311 3.832-.924s2.398 1.453 2.762 2.811c.281 1.045.578 2.096.906 3.158 3.766 12.166 8.762 19.48 11.898 22.047.93.76 1.469 1.896 1.469 3.096v111.439z" fill="#4c241d"/></g><g><path d="m191.788 89.713c-.728-.225-1.46-.34-2.191-.443.327-.662.646-1.331.872-2.058 2.031-6.563-1.023-13.461-6.906-16.527-1.496-6.124-6.979-10.685-13.563-10.685-.762 0-1.495.107-2.224.224.117-.729.224-1.462.224-2.224 0-7.732-6.268-14-14-14s-14 6.268-14 14c0 .762.107 1.495.224 2.224-.729-.117-1.462-.224-2.224-.224-6.584 0-12.067 4.561-13.562 10.684-5.884 3.065-8.937 9.964-6.906 16.527.225.728.544 1.397.872 2.058-.731.104-1.463.218-2.191.443-7.386 2.286-11.522 10.126-9.236 17.513 2.286 7.386 10.126 11.522 17.513 9.236 2.088-.646 3.877-1.77 5.374-3.167.293 1.092.605 2.192.949 3.304 3.466 11.202 8.607 20.213 13.188 23.96v115.442h20v-115.441c4.581-3.748 9.722-12.758 13.188-23.96.344-1.112.656-2.213.949-3.304 1.497 1.398 3.287 2.521 5.374 3.167 7.386 2.286 15.227-1.85 17.513-9.236 2.285-7.387-1.85-15.228-9.237-17.513z" fill="#77a052"/><path d="m164 260h-20c-2.211 0-4-1.791-4-4v-113.672c-4.645-4.6-9.16-12.848-12.434-22.756-.621.275-1.254.512-1.898.711-4.59 1.416-9.465.965-13.715-1.275-4.254-2.242-7.375-6.008-8.797-10.602-1.422-4.592-.969-9.463 1.273-13.715 1.941-3.689 5.031-6.529 8.812-8.145-1.414-7.172 1.68-14.51 7.812-18.514 2.301-6.57 8.152-11.207 15.043-11.934.955-9.034 8.619-16.098 17.904-16.098s16.949 7.064 17.902 16.1c6.891.727 12.742 5.363 15.043 11.934 6.133 4.004 9.227 11.344 7.812 18.514 3.781 1.615 6.871 4.455 8.812 8.145 2.242 4.252 2.695 9.123 1.273 13.715-1.422 4.594-4.543 8.359-8.797 10.602-4.254 2.24-9.129 2.691-13.719 1.275-.645-.199-1.277-.438-1.895-.711-3.273 9.908-7.789 18.156-12.434 22.756v113.67c.003 2.209-1.786 4-3.997 4zm-16-8h12v-111.441c0-1.199.539-2.336 1.469-3.096 3.137-2.566 8.133-9.881 11.898-22.047.328-1.062.625-2.113.906-3.158.363-1.357 1.41-2.424 2.762-2.811 1.355-.387 2.805-.037 3.832.924 1.156 1.078 2.441 1.842 3.824 2.268 5.246 1.619 10.879-1.326 12.512-6.596.789-2.553.539-5.258-.707-7.621-1.246-2.361-3.336-4.096-5.883-4.885-.523-.162-1.051-.232-1.578-.307-1.27-.182-2.379-.961-2.977-2.096-.598-1.137-.613-2.49-.047-3.641.238-.475.477-.949.637-1.471 1.426-4.598-.652-9.561-4.934-11.793-1.023-.531-1.766-1.479-2.039-2.598-1.097-4.492-5.077-7.631-9.675-7.631-.543 0-1.066.09-1.586.174-1.258.197-2.555-.213-3.465-1.121-.906-.906-1.324-2.195-1.121-3.463.082-.522.172-1.045.172-1.59 0-5.514-4.484-10-10-10s-10 4.486-10 10c0 .545.09 1.068.172 1.59.203 1.268-.215 2.557-1.121 3.463-.91.906-2.215 1.309-3.465 1.121-.52-.084-1.043-.174-1.586-.174-4.598 0-8.578 3.139-9.676 7.633-.273 1.119-1.016 2.066-2.039 2.598-4.281 2.232-6.359 7.195-4.934 11.797.16.518.398.992.637 1.467.566 1.15.551 2.504-.047 3.641-.598 1.135-1.707 1.914-2.977 2.096-.527.074-1.055.145-1.578.307-2.543.787-4.637 2.521-5.883 4.885-1.246 2.363-1.496 5.068-.707 7.621 1.633 5.266 7.234 8.229 12.508 6.596 1.387-.426 2.672-1.189 3.828-2.268 1.023-.961 2.48-1.311 3.832-.924s2.398 1.453 2.762 2.811c.281 1.045.578 2.096.906 3.158 3.766 12.166 8.762 19.48 11.898 22.047.93.76 1.469 1.896 1.469 3.096v111.439z" fill="#4c241d"/></g><g><path d="m124 176h60v16h-60z" fill="#efefd2"/><path d="m184 196h-60c-2.211 0-4-1.791-4-4v-16c0-2.209 1.789-4 4-4h60c2.211 0 4 1.791 4 4v16c0 2.209-1.789 4-4 4zm-56-8h52v-8h-52z" fill="#4c241d"/></g><path d="m132 92c-2.211 0-4-1.791-4-4 0-8.822 7.176-16 16-16 2.211 0 4 1.791 4 4s-1.789 4-4 4c-4.41 0-8 3.588-8 8 0 2.209-1.789 4-4 4z" fill="#4c241d"/><path d="m160 116c-2.211 0-4-1.791-4-4s1.789-4 4-4c2.207 0 4-1.795 4-4 0-2.209 1.789-4 4-4s4 1.791 4 4c0 6.617-5.383 12-12 12z" fill="#4c241d"/><g><ellipse cx="154" cy="256" fill="#77a052" rx="30" ry="8"/><path d="m154 268c-5.676 0-34-.578-34-12s28.324-12 34-12 34 .578 34 12-28.324 12-34 12zm-25.117-12c3.074 1.693 11.762 4 25.117 4s22.043-2.307 25.117-4c-3.074-1.693-11.762-4-25.117-4s-22.043 2.307-25.117 4zm51.336.822h.039z" fill="#4c241d"/></g></g></svg>