<svg id="pea" enable-background="new 0 0 300 300" height="512" viewBox="0 0 300 300" width="512" xmlns="http://www.w3.org/2000/svg"><g><circle cx="150" cy="176.201" fill="#edebdc" r="92"/><g fill="#4c241d"><path d="m226 68.201c-2.209 0-4-1.791-4-4v-8c0-2.209 1.791-4 4-4s4 1.791 4 4v8c0 2.209-1.791 4-4 4z"/><path d="m226 92.201c-2.209 0-4-1.791-4-4v-8c0-2.209 1.791-4 4-4s4 1.791 4 4v8c0 2.209-1.791 4-4 4z"/><path d="m218 76.201h-8c-2.209 0-4-1.791-4-4s1.791-4 4-4h8c2.209 0 4 1.791 4 4s-1.791 4-4 4z"/><path d="m242 76.201h-8c-2.209 0-4-1.791-4-4s1.791-4 4-4h8c2.209 0 4 1.791 4 4s-1.791 4-4 4z"/><path d="m252 212.201c-7.719 0-14-6.281-14-14s6.281-14 14-14 14 6.281 14 14-6.281 14-14 14zm0-20c-3.309 0-6 2.691-6 6s2.691 6 6 6 6-2.691 6-6-2.691-6-6-6z"/><path d="m48 96.201c-7.719 0-14-6.281-14-14s6.281-14 14-14 14 6.281 14 14-6.281 14-14 14zm0-20c-3.309 0-6 2.691-6 6s2.691 6 6 6 6-2.691 6-6-2.691-6-6-6z"/><circle cx="62.328" cy="46.592" r="4.276"/></g><g><path d="m140.417 251.461h-9.524c-25.949 0-46.985-21.036-46.985-46.985v-80.085c0-14.085 11.418-25.504 25.504-25.504l4.051.671c8.791 1.455 15.238 9.057 15.238 17.968v84.951c.001 29.827 11.716 48.984 11.716 48.984z" fill="#77a052"/><path d="m140.418 255.461h-9.523c-28.113 0-50.986-22.871-50.986-50.984v-80.084c0-16.268 13.236-29.504 29.504-29.504.219 0 .438.018.652.053l4.051.67c10.77 1.783 18.586 11 18.586 21.916v84.951c0 28.369 11.018 46.713 11.129 46.895.756 1.236.785 2.781.076 4.043-.708 1.263-2.042 2.044-3.489 2.044zm-31.32-152.57c-11.713.17-21.189 9.75-21.189 21.502v80.084c0 23.701 19.283 42.984 42.986 42.984h3.016c-3.65-8.139-9.209-23.98-9.209-44.982v-84.951c0-6.984-5.002-12.883-11.891-14.021z" fill="#4c241d"/></g><g><path d="m75.065 122.227c8.641-4.1 16.61-9.142 22.603-16.953 0 0-4.089 8.889 8.844 21.868 0 0 12.611-9.786 11.302-22.603 1.309 12.817 10.478 13.23 16.953 16.953 0 0-2.871-32.872-24.54-33.905-2.836-.001-26.227-5.354-35.162 34.64z" fill="#a9ba5a"/><path d="m106.514 131.142c-1.033 0-2.059-.396-2.836-1.176-5.662-5.684-8.451-10.773-9.719-14.938-4.566 3.984-10.137 7.471-17.18 10.811-1.383.658-3.018.467-4.211-.488-1.195-.953-1.74-2.506-1.408-3.998 5.918-26.482 19.25-39.527 38.482-37.818l.619.051c25.027 1.191 28.359 36.074 28.488 37.559.131 1.484-.576 2.918-1.832 3.719-1.258.805-2.852.84-4.146.096-1.217-.699-2.631-1.297-4.127-1.932-2.961-1.254-6.486-2.746-9.373-5.607-3.672 7.65-9.916 12.58-10.307 12.883-.726.561-1.591.838-2.45.838zm-8.844-29.869c.707 0 1.42.186 2.064.574 1.744 1.053 2.418 3.246 1.568 5.098-.055.154-2.035 5.646 5.43 14.529 3.135-3.291 7.822-9.486 7.104-16.529-.016-.137-.021-.273-.021-.408-.002-2.027 1.533-3.768 3.594-3.977 2.211-.248 4.162 1.375 4.385 3.572.666 6.52 3.574 8.662 7.73 10.557-2.07-8.764-7.26-22.525-19.488-23.107-.082-.002-.545-.025-1.113-.078-12.77-1.172-22.008 6.502-27.521 22.793 5.564-3.414 9.75-7.1 13.094-11.459.781-1.02 1.967-1.565 3.174-1.565z" fill="#4c241d"/></g><circle cx="214.328" cy="138.592" fill="#4c241d" r="4.276"/><g><path d="m188.676 264.201h-11.931c-32.508 0-58.86-26.353-58.86-58.86v-100.326c0-17.645 14.304-31.95 31.95-31.95l5.075.84c11.013 1.823 19.09 11.347 19.09 22.51v106.422c0 37.364 14.676 61.364 14.676 61.364z" fill="#77a052"/><path d="m188.676 268.201h-11.93c-34.662 0-62.861-28.199-62.861-62.861v-100.324c0-19.824 16.127-35.951 35.949-35.951.219 0 .438.018.654.055l5.076.842c13 2.15 22.436 13.275 22.436 26.453v106.422c0 35.824 13.947 59.049 14.088 59.279.756 1.234.785 2.779.076 4.043-.707 1.261-2.041 2.042-3.488 2.042zm-39.16-191.135c-15.266.172-27.631 12.643-27.631 27.949v100.325c0 30.25 24.611 54.861 54.861 54.861h5.35c-4.479-9.586-12.096-29.918-12.096-57.365v-106.422c0-9.246-6.621-17.053-15.742-18.561z" fill="#4c241d"/></g><path d="m147.535 64.744c-1.865 0-3.523-1.293-3.902-3.189-.135-.684-3.074-16.855 18.629-29.227 1.918-1.1 4.359-.43 5.455 1.494 1.094 1.918.426 4.361-1.494 5.455-16.441 9.373-14.811 20.311-14.732 20.771.363 2.156-1.066 4.234-3.217 4.629-.249.046-.495.067-.739.067z" fill="#4c241d"/><g><circle cx="146" cy="120.201" fill="#a9ba5a" r="17.47"/><path d="m146 141.672c-11.84 0-21.471-9.631-21.471-21.471s9.631-21.471 21.471-21.471 21.471 9.631 21.471 21.471-9.631 21.471-21.471 21.471zm0-34.942c-7.428 0-13.471 6.043-13.471 13.471s6.043 13.471 13.471 13.471 13.471-6.043 13.471-13.471-6.043-13.471-13.471-13.471z" fill="#4c241d"/></g><g><circle cx="146" cy="164.201" fill="#a9ba5a" r="17.47"/><path d="m146 185.672c-11.84 0-21.471-9.631-21.471-21.471s9.631-21.471 21.471-21.471 21.471 9.631 21.471 21.471-9.631 21.471-21.471 21.471zm0-34.942c-7.428 0-13.471 6.043-13.471 13.471s6.043 13.471 13.471 13.471 13.471-6.043 13.471-13.471-6.043-13.471-13.471-13.471z" fill="#4c241d"/></g><g><circle cx="146" cy="208.201" fill="#a9ba5a" r="17.47"/><path d="m146 229.672c-11.84 0-21.471-9.631-21.471-21.471s9.631-21.471 21.471-21.471 21.471 9.631 21.471 21.471-9.631 21.471-21.471 21.471zm0-34.942c-7.428 0-13.471 6.043-13.471 13.471s6.043 13.471 13.471 13.471 13.471-6.043 13.471-13.471-6.043-13.471-13.471-13.471z" fill="#4c241d"/></g><g><path d="m106.806 102.303c10.826-5.136 20.809-11.453 28.316-21.237 0 0-5.122 11.136 11.079 27.396 0 0 15.799-12.26 14.158-28.316 1.64 16.057 13.126 16.573 21.237 21.237 0 0-3.597-41.181-30.743-42.475-3.55-.001-32.853-6.707-44.047 43.395z" fill="#a9ba5a"/><path d="m146.203 112.461c-1.033 0-2.059-.396-2.836-1.176-7.676-7.703-11.006-14.547-12.285-19.902-5.877 5.408-13.156 10.07-22.561 14.533-1.379.656-3.014.469-4.211-.488-1.195-.953-1.74-2.504-1.408-3.998 5.08-22.74 17.408-49.316 47.129-46.59.359.031.641.062.836.066 30.465 1.449 34.557 44.303 34.715 46.127.131 1.484-.576 2.918-1.832 3.719-1.252.803-2.852.842-4.145.098-1.578-.908-3.377-1.668-5.281-2.475-4.143-1.754-8.857-3.748-12.445-7.848-4.359 10.104-12.725 16.705-13.225 17.094-.726.563-1.592.84-2.451.84zm-11.078-35.397c.707 0 1.42.188 2.064.574 1.744 1.053 2.418 3.248 1.568 5.098-.105.266-3.006 7.943 7.67 20.119 4-3.998 10.955-12.482 9.953-22.305-.016-.137-.021-.273-.021-.408-.002-2.027 1.533-3.768 3.594-3.977 2.219-.264 4.162 1.375 4.385 3.572.988 9.656 5.844 12.172 12.109 14.848-2.326-10.994-8.863-30.877-25.785-31.684-.133-.012-.664-.033-1.352-.096-17.203-1.562-29.4 9.133-36.348 31.793 8.25-4.729 14.27-9.822 18.986-15.971.784-1.018 1.97-1.563 3.177-1.563z" fill="#4c241d"/></g></g></svg>