<svg height="512pt" viewBox="0 0 512.01683 512" width="512pt" xmlns="http://www.w3.org/2000/svg"><path d="m503.472656 366.941406c0 113.066406-110.761718 136.535156-247.464844 136.535156-2.902343 0-5.71875 0-8.535156-.085937-132.777344-.941406-238.933594-25.773437-238.933594-136.449219 1.363282-40.957031 12.230469-81.039062 31.746094-117.078125l206.847656-139.347656 8.53125-5.71875 216.066407 145.066406c19.511719 36.039063 30.378906 76.121094 31.742187 117.078125zm0 0" fill="#1566bf"/><g fill="#2295f2"><path d="m477.871094 366.941406c0 110.675782-104.257813 135.507813-234.664063 136.449219-130.40625-.941406-234.667969-25.773437-234.667969-136.449219 1.324219-40.894531 11.988282-80.941406 31.179688-117.078125l203.15625-139.347656 203.816406 139.347656c19.195313 36.136719 29.859375 76.183594 31.179688 117.078125zm0 0"/><path d="m350.554688 177.332031c-.441407 3.453125-.667969 6.929688-.683594 10.410157-.039063 26.398437 13.542968 50.949218 35.925781 64.9375 24.171875-18.320313 57.578125-18.320313 81.75 0 1.445313-.859376 2.84375-1.800782 4.183594-2.816407 23.367187-16.933593 35.257812-45.546875 30.773437-74.058593-4.480468-28.507813-24.574218-52.09375-52.011718-61.046876-27.433594-8.949218-57.574219-1.753906-78.007813 18.625-2.960937 2.847657-5.621094 5.992188-7.933594 9.386719zm0 0"/><path d="m162.140625 187.742188c.042969 26.398437-13.539063 50.949218-35.925781 64.9375-5.082032-4.449219-11-7.84375-17.410156-9.984376-15.242188-5.003906-31.6875-5.003906-46.933594 0-6.40625 2.140626-12.324219 5.535157-17.40625 9.984376-1.445313-.859376-2.839844-1.800782-4.179688-2.816407-23.367187-16.933593-35.257812-45.546875-30.777344-74.058593 4.480469-28.507813 24.574219-52.09375 52.011719-61.046876 27.4375-8.949218 57.574219-1.753906 78.007813 18.625 2.964844 2.867188 5.652344 6.011719 8.019531 9.386719l13.910156 34.5625c.441407 3.453125.671875 6.929688.683594 10.410157zm0 0"/></g><path d="m85.339844 128.007812c-2.859375-.035156-5.714844.195313-8.535156.683594-25.332032 3.695313-45.492188 23.117188-50.125 48.296875-4.636719 25.175781 7.289062 50.507813 29.644531 62.976563 1.789062 1.03125 3.640625 1.941406 5.546875 2.730468 4.84375-1.636718 9.851562-2.722656 14.933594-3.242187 2.832031-.34375 5.683593-.515625 8.535156-.511719 4.003906-.007812 8 .332032 11.945312 1.023438 3.921875.527344 7.78125 1.441406 11.519532 2.730468 26.125-11.128906 40.804687-39.109374 35.113281-66.925781-5.695313-27.820312-30.183594-47.789062-58.578125-47.761719zm0 0" fill="#fff"/><path d="m426.671875 128.007812c-2.859375-.035156-5.714844.195313-8.53125.683594-25.332031 3.695313-45.496094 23.117188-50.128906 48.296875-4.632813 25.175781 7.289062 50.507813 29.648437 62.976563 1.789063 1.03125 3.640625 1.941406 5.546875 2.730468 4.839844-1.636718 9.847657-2.722656 14.933594-3.242187 2.828125-.34375 5.679687-.515625 8.53125-.511719 4.003906-.007812 8.003906.332032 11.949219 1.023438 3.917968.527344 7.777344 1.441406 11.519531 2.730468 26.121094-11.128906 40.800781-39.109374 35.109375-66.925781-5.691406-27.820312-30.183594-47.789062-58.578125-47.761719zm0 0" fill="#fff"/><path d="m128.007812 187.742188c0 23.5625-19.105468 42.667968-42.667968 42.667968-23.566406 0-42.667969-19.105468-42.667969-42.667968 0-23.566407 19.101563-42.667969 42.667969-42.667969 23.5625 0 42.667968 19.101562 42.667968 42.667969zm0 0" fill="#f47c00"/><path d="m469.339844 187.742188c0 23.5625-19.101563 42.667968-42.667969 42.667968-23.5625 0-42.664063-19.105468-42.664063-42.667968 0-23.566407 19.101563-42.667969 42.664063-42.667969 23.566406 0 42.667969 19.101562 42.667969 42.667969zm0 0" fill="#f47c00"/><path d="m102.40625 187.742188c0 9.425781-7.640625 17.066406-17.066406 17.066406-9.425782 0-17.066406-7.640625-17.066406-17.066406 0-9.425782 7.640624-17.066407 17.066406-17.066407 9.425781 0 17.066406 7.640625 17.066406 17.066407zm0 0" fill="#37474f"/><path d="m443.738281 187.742188c0 9.425781-7.640625 17.066406-17.066406 17.066406s-17.066406-7.640625-17.066406-17.066406c0-9.425782 7.640625-17.066407 17.066406-17.066407s17.066406 7.640625 17.066406 17.066407zm0 0" fill="#37474f"/><path d="m238.9375 247.476562c0 9.425782-7.640625 17.066407-17.066406 17.066407-9.425782 0-17.066406-7.640625-17.066406-17.066407 0-9.425781 7.640624-17.066406 17.066406-17.066406 9.425781 0 17.066406 7.640625 17.066406 17.066406zm0 0" fill="#1566bf"/><path d="m307.207031 247.476562c0 9.425782-7.640625 17.066407-17.066406 17.066407s-17.066406-7.640625-17.066406-17.066407c0-9.425781 7.640625-17.066406 17.066406-17.066406s17.066406 7.640625 17.066406 17.066406zm0 0" fill="#1566bf"/><path d="m76.804688 170.675781c0 9.425781-7.640626 17.066407-17.066407 17.066407s-17.066406-7.640626-17.066406-17.066407 7.640625-17.066406 17.066406-17.066406 17.066407 7.640625 17.066407 17.066406zm0 0" fill="#fff"/><path d="m418.140625 170.675781c0 9.425781-7.640625 17.066407-17.066406 17.066407s-17.066407-7.640626-17.066407-17.066407 7.640626-17.066406 17.066407-17.066406 17.066406 7.640625 17.066406 17.066406zm0 0" fill="#fff"/><path d="m366.9375 119.476562c.03125 33.425782-15.054688 65.074219-41.042969 86.101563-2.917969-4.910156-6.542969-9.367187-10.753906-13.226563-6.789063-6.3125-14.6875-11.316406-23.292969-14.765624-23.007812-9.214844-48.675781-9.214844-71.679687 0-8.609375 3.449218-16.507813 8.453124-23.296875 14.765624-4.210938 3.859376-7.832032 8.316407-10.753906 13.226563-40.109376-32.539063-52.457032-88.453125-29.78125-134.855469 22.675781-46.402344 74.371093-71.019531 124.6875-59.371094 50.316406 11.648438 85.9375 56.476563 85.914062 108.125zm0 0" fill="#2295f2"/><path d="m256.007812 25.609375c-24.910156-.042969-48.808593 9.835937-66.421874 27.445313-17.609376 17.613281-27.488282 41.511718-27.445313 66.421874-.042969 25.734376 10.546875 50.347657 29.269531 68.007813 1.707032 1.707031 3.582032 3.328125 5.460938 4.867187 6.789062-6.3125 14.6875-11.316406 23.296875-14.765624 1.875-.765626 3.753906-1.449219 5.714843-2.132813 9.722657-3.195313 19.890626-4.808594 30.125-4.777344 12.28125-.066406 24.460938 2.28125 35.839844 6.910157 5.8125 2.359374 11.316406 5.425781 16.382813 9.132812 2.453125 1.6875 4.761719 3.570312 6.910156 5.632812 30.851563-25.046874 42.589844-66.800781 29.304687-104.253906-13.28125-37.449218-48.703124-62.476562-88.4375-62.488281zm0 0" fill="#fff"/><path d="m324.273438 119.476562c.011718 23.683594-12.261719 45.683594-32.425782 58.109376-11.378906-4.628907-23.558594-6.976563-35.839844-6.910157-10.234374-.03125-20.402343 1.582031-30.125 4.777344-1.960937.683594-3.839843 1.367187-5.714843 2.132813-27.984375-17.261719-39.6875-52.015626-27.847657-82.6875 11.839844-30.671876 43.863282-48.546876 76.183594-42.527344 32.324219 6.023437 55.765625 34.226562 55.769532 67.105468zm0 0" fill="#f47c00"/><path d="m273.074219 119.476562c0 9.425782-7.640625 17.066407-17.066407 17.066407-9.425781 0-17.070312-7.640625-17.070312-17.066407 0-9.425781 7.644531-17.066406 17.070312-17.066406 9.425782 0 17.066407 7.640625 17.066407 17.066406zm0 0" fill="#37474f"/><path d="m238.9375 93.875c0 14.136719-11.460938 25.601562-25.597656 25.601562-14.140625 0-25.601563-11.464843-25.601563-25.601562s11.460938-25.601562 25.601563-25.601562c14.136718 0 25.597656 11.464843 25.597656 25.601562zm0 0" fill="#fff"/><path d="m256.058594 469.339844h-.105469c-37.355469 0-65.527344-30.1875-58.640625-62.855469l15.53125-73.675781h86.324219l15.53125 73.675781c6.886719 32.667969-21.28125 62.855469-58.640625 62.855469zm0 0" fill="#e81e63"/><path d="m256.007812 512.007812c119.191407 0 256-16.496093 256-145.066406-1.269531-39.972656-11.40625-79.164062-29.671874-114.738281 27.050781-23.234375 36.761718-60.859375 24.34375-94.285156-12.421876-33.425781-44.347657-55.578125-80.007813-55.507813-18.488281-.023437-36.476563 6.019532-51.199219 17.203125v-.136719c0-65.980468-53.488281-119.4687495-119.464844-119.4687495-65.980468 0-119.46875 53.4882815-119.46875 119.4687495v.152344c-14.71875-11.191406-32.707031-17.242187-51.199218-17.21875-35.65625-.0625-67.582032 22.089844-80 55.515625-12.421875 33.425781-2.710938 71.046875 24.335937 94.285157-18.265625 35.574218-28.402343 74.761718-29.6679685 114.730468 0 128.570313 136.8046875 145.066406 255.9999995 145.066406zm0-17.066406c-167.476562 0-238.933593-38.28125-238.933593-128 1.214843-36.816406 10.507812-72.914062 27.210937-105.746094h.171875c.871094-.011718 1.730469-.15625 2.558594-.425781.207031-.066406.382813-.160156.589844-.238281.847656-.328125 1.636719-.796875 2.328125-1.382812.078125-.058594.171875-.078126.25-.136719 9.980468-7.890625 22.441406-11.980469 35.15625-11.535157 12.71875-.441406 25.183594 3.652344 35.164062 11.550782.0625.054687.128906.0625.1875.113281.652344.550781 1.386719.996094 2.175782 1.320313.226562.105468.457031.195312.691406.273437.847656.300781 1.738281.460937 2.636718.480469 1.03125-.023438 2.050782-.234375 3.003907-.625.257812-.09375.496093-.203125.742187-.324219.25-.117187.523438-.1875.761719-.339844 20.738281-12.914062 34.855469-34.183593 38.699219-58.308593 3.535156 3.769531 7.3125 7.304687 11.304687 10.582031.195313.113281.394531.21875.597657.316406.171874.117187.273437.296875.460937.40625.316406.132813.636719.242187.964844.335937.53125.25 1.085937.441407 1.65625.578126.515625.09375 1.042969.136718 1.570312.136718.546875.023438 1.097657-.011718 1.636719-.101562.527344-.101563 1.042969-.257813 1.535156-.460938.511719-.183594 1-.417968 1.460938-.699218.464844-.3125.902344-.671876 1.296875-1.066407.300781-.207031.585937-.4375.851562-.683593.148438-.1875.179688-.410157.316407-.597657.136718-.1875.300781-.273437.410156-.460937 7.105468-11.15625 17.617187-19.726563 29.976562-24.4375 20.945313-8.195313 44.207032-8.195313 65.152344 0 12.351562 4.714844 22.851562 13.28125 29.953125 24.429687.160156.230469.332031.449219.519531.65625.085938.128907.113282.28125.207032.402344.09375.117187.1875.109375.261718.195313.714844.835937 1.585938 1.523437 2.5625 2.023437.167969.078125.34375.144531.519532.203125 1.027343.457031 2.136718.703125 3.261718.726562.855469-.015624 1.703125-.160156 2.515625-.425781.292969-.097656.574219-.210937.851563-.34375.339844-.117187.671875-.257812.992187-.417969.160157-.09375.246094-.253906.398438-.355468.15625-.105469.460937-.207032.660156-.367188 3.992187-3.277344 7.769531-6.8125 11.304687-10.582031 3.84375 24.125 17.960938 45.394531 38.699219 58.308594.191407.097656.386719.183593.589844.253906.253906.132813.515625.25.785156.351563.71875.292968 1.476563.484374 2.25.5625.214844 0 .402344.078124.617188.085937.210937.007813.179687 0 .265625 0 .867187-.011719 1.730468-.15625 2.558594-.425781.203124-.070313.390624-.15625.597656-.230469.878906-.34375 1.699218-.828125 2.421875-1.433594.050781 0 .113281-.054687.164062-.09375 20.910157-15.40625 49.417969-15.40625 70.332031 0 .082032.066407.195313.09375.28125.160157.621094.519531 1.320313.945312 2.0625 1.261718.230469.105469.453126.199219.691407.28125.855469.300782 1.75.460938 2.65625.480469h.167969c16.703124 32.839844 25.988281 68.945313 27.195312 105.769531 0 89.71875-71.457031 128-238.929688 128zm34.515626-326.828125c-22.390626-7.566406-46.644532-7.566406-69.035157 0-21.230469-15.03125-30.289062-42.070312-22.402343-66.859375 7.886718-24.789062 30.90625-41.621094 56.921874-41.621094 26.011719 0 49.03125 16.832032 56.917969 41.621094 7.890625 24.789063-1.171875 51.828125-22.402343 66.859375zm87.996093-28.660156c12.734375-12.828125 30.078125-20.023437 48.152344-19.976563 29.335937-.042968 55.40625 18.691407 64.726563 46.507813 9.320312 27.8125-.199219 58.472656-23.636719 76.113281-25.167969-15.570312-56.976563-15.570312-82.144531 0-17.179688-12.773437-27.277344-32.945312-27.210938-54.355468.039062-2.605469.210938-5.203126.511719-7.792969 6.144531-10.367188 10.671875-21.613281 13.421875-33.347657 1.835937-2.578124 3.902344-4.984374 6.179687-7.183593zm-122.511719-122.378906c37.015626.011719 71.144532 20 89.261719 52.28125 18.117188 32.277343 17.40625 71.824219-1.863281 103.425781-.136719.222656-.257812.4375-.378906.667969-4.441406 7.089843-9.738282 13.609375-15.769532 19.414062-5.546874-6.625-12.15625-12.277343-19.558593-16.734375 23.460937-21.351562 31.378906-54.929687 19.933593-84.511718-11.449218-29.585938-39.90625-49.085938-71.625-49.085938-31.722656 0-60.179687 19.5-71.625 49.085938-11.449218 29.582031-3.53125 63.160156 19.929688 84.511718-7.402344 4.453125-14.011719 10.109375-19.558594 16.734375-6.039062-5.804687-11.339844-12.328125-15.789062-19.421875-.117188-.222656-.21875-.429687-.355469-.632812-19.285156-31.605469-20.003906-71.160156-1.886719-103.449219 18.121094-32.285156 52.257813-52.277344 89.285156-52.285156zm-238.933593 170.667969c-.019531-27.613282 16.609375-52.515626 42.121093-63.078126 25.515626-10.5625 54.878907-4.699218 74.382813 14.847657 2.207031 2.148437 4.234375 4.476562 6.058594 6.960937 2.746093 11.785156 7.285156 23.074219 13.457031 33.476563.300781 2.589843.472656 5.1875.511719 7.792969.058593 21.402343-10.039063 41.558593-27.210938 54.332031-12.230469-7.867188-26.515625-11.925781-41.054687-11.664063-14.554688-.265625-28.859375 3.800782-41.097656 11.6875-17.078126-12.855468-27.136719-32.980468-27.167969-54.355468zm0 0"/><path d="m256.007812 93.875c-14.140624 0-25.601562 11.460938-25.601562 25.601562 0 14.136719 11.460938 25.597657 25.601562 25.597657 14.136719 0 25.597657-11.460938 25.597657-25.597657 0-14.140624-11.460938-25.601562-25.597657-25.601562zm0 34.132812c-4.714843 0-8.535156-3.820312-8.535156-8.53125 0-4.714843 3.820313-8.535156 8.535156-8.535156 4.710938 0 8.53125 3.820313 8.53125 8.535156 0 4.710938-3.820312 8.53125-8.53125 8.53125zm0 0"/><path d="m85.339844 213.339844c10.355468 0 19.6875-6.234375 23.652344-15.800782 3.960937-9.566406 1.769531-20.578124-5.550782-27.898437-7.320312-7.324219-18.332031-9.511719-27.898437-5.550781-9.566407 3.964844-15.804688 13.296875-15.804688 23.652344 0 14.136718 11.460938 25.597656 25.601563 25.597656zm0-34.132813c4.710937 0 8.53125 3.820313 8.53125 8.535157 0 4.710937-3.820313 8.53125-8.53125 8.53125-4.714844 0-8.535156-3.820313-8.535156-8.53125 0-4.714844 3.820312-8.535157 8.535156-8.535157zm0 0"/><path d="m426.671875 213.339844c10.355469 0 19.691406-6.234375 23.652344-15.800782 3.960937-9.566406 1.773437-20.578124-5.550781-27.898437-7.320313-7.324219-18.332032-9.511719-27.898438-5.550781-9.566406 3.964844-15.800781 13.296875-15.800781 23.652344 0 14.136718 11.460937 25.597656 25.597656 25.597656zm0-34.132813c4.714844 0 8.535156 3.820313 8.535156 8.535157 0 4.710937-3.820312 8.53125-8.535156 8.53125-4.710937 0-8.53125-3.820313-8.53125-8.53125 0-4.714844 3.820313-8.535157 8.53125-8.535157zm0 0"/><path d="m221.871094 273.074219c14.140625 0 25.601562-11.460938 25.601562-25.597657 0-14.140624-11.460937-25.601562-25.601562-25.601562-14.136719 0-25.597656 11.460938-25.597656 25.601562 0 14.136719 11.460937 25.597657 25.597656 25.597657zm0-34.132813c4.714844 0 8.535156 3.820313 8.535156 8.535156 0 4.710938-3.820312 8.53125-8.535156 8.53125-4.710938 0-8.53125-3.820312-8.53125-8.53125 0-4.714843 3.820312-8.535156 8.53125-8.535156zm0 0"/><path d="m290.140625 273.074219c14.136719 0 25.597656-11.460938 25.597656-25.597657 0-14.140624-11.460937-25.601562-25.597656-25.601562-14.140625 0-25.601563 11.460938-25.601563 25.601562 0 14.136719 11.460938 25.597657 25.601563 25.597657zm0-34.132813c4.710937 0 8.53125 3.820313 8.53125 8.535156 0 4.710938-3.820313 8.53125-8.53125 8.53125-4.714844 0-8.535156-3.820312-8.535156-8.53125 0-4.714843 3.820312-8.535156 8.535156-8.535156zm0 0"/><path d="m426.671875 281.609375c-4.710937 0-8.53125 3.820313-8.53125 8.53125 0 18.851563-15.28125 34.132813-34.132813 34.132813h-256c-18.851562 0-34.136718-15.28125-34.136718-34.132813 0-4.710937-3.820313-8.53125-8.53125-8.53125-4.714844 0-8.535156 3.820313-8.535156 8.53125.03125 28.265625 22.9375 51.171875 51.203124 51.199219h74.316407l-13.355469 63.386718c-3.59375 16.96875.8125 34.648438 11.945312 47.949219 13.589844 16.296875 33.828126 25.5625 55.039063 25.199219h.105469c21.210937.359375 41.445312-8.90625 55.03125-25.199219 11.132812-13.300781 15.535156-30.980469 11.945312-47.949219l-13.347656-63.386718h74.320312c28.261719-.027344 51.171876-22.933594 51.199219-51.199219 0-4.710937-3.820312-8.53125-8.535156-8.53125zm-120.320313 126.632813c2.480469 11.941406-.664062 24.363281-8.53125 33.683593-10.414062 12.199219-25.726562 19.121094-41.761718 18.882813h-.105469c-16.035156.238281-31.347656-6.683594-41.761719-18.882813-7.863281-9.320312-11.011718-21.742187-8.53125-33.683593l14.105469-66.902344h27.707031v59.734375c0 4.714843 3.820313 8.535156 8.535156 8.535156 4.710938 0 8.53125-3.820313 8.53125-8.535156v-59.734375h27.707032zm0 0"/></svg>