<svg height="512pt" viewBox="0 0 512.0043 512" width="512pt" xmlns="http://www.w3.org/2000/svg"><path d="m139.179688 119.472656-77.480469 85.757813c-8.011719-3.761719-15.429688-8.675781-22.015625-14.589844-4.460938-4.121094-8.546875-8.632813-12.203125-13.484375-12.378907-16.675781-19.023438-36.914062-18.945313-57.683594v-1.023437c.066406-6.511719.78125-13 2.132813-19.371094 3.824219-20.859375 14.375-39.894531 30.039062-54.1875 2.238281-2.003906 5.363281-2.695313 8.238281-1.824219s5.089844 3.179688 5.839844 6.089844c10.582032 38.570312 44.289063 69.546875 84.394532 70.316406zm0 0" fill="#fdc008"/><path d="m503.46875 118.449219v1.023437c.082031 20.769532-6.566406 41.007813-18.945312 57.683594-3.65625 4.851562-7.738282 9.363281-12.199219 13.484375-6.589844 5.914063-14.007813 10.828125-22.019531 14.589844l-8.019532-8.871094-69.460937-76.886719c38.824219-.769531 71.679687-29.867187 83.285156-66.730468.425781-1.195313.765625-2.390626 1.109375-3.585938.75-2.910156 2.964844-5.21875 5.839844-6.089844 2.878906-.871094 6-.179687 8.238281 1.824219 15.667969 14.292969 26.21875 33.328125 30.039063 54.1875 1.351562 6.371094 2.066406 12.859375 2.132812 19.371094zm0 0" fill="#ff9701"/><path d="m480.515625 118.449219v1.023437c.078125 20.769532-6.566406 41.007813-18.945313 57.683594-3.65625 4.851562-7.742187 9.363281-12.203124 13.484375-2.261719 2.023437-4.625 3.929687-7.082032 5.71875l-69.460937-76.886719c38.824219-.769531 71.679687-29.867187 83.285156-66.730468 11.347656 13.230468 19.027344 29.207031 22.273437 46.335937 1.347657 6.371094 2.0625 12.859375 2.132813 19.371094zm0 0" fill="#fdc008"/><path d="m503.46875 366.9375c0 117.847656-110.761719 136.535156-247.464844 136.535156-2.902344 0-5.71875 0-8.535156-.085937-132.777344-.769531-238.933594-21.078125-238.933594-136.449219 0-49.832031 19.796875-109.480469 53.164063-161.707031 20.539062-32.949219 46.777343-61.988281 77.480469-85.757813 13.917968-10.578125 28.972656-19.5625 44.886718-26.796875 3.414063-1.535156 6.828125-2.898437 10.324219-4.179687l86.445313-6.316406 13.140624-.9375c118.699219 27.648437 209.492188 178.945312 209.492188 285.695312zm0 0" fill="#6a1b99"/><path d="m477.867188 366.9375c0 115.371094-104.257813 135.679688-234.664063 136.449219-130.40625-.769531-234.667969-21.078125-234.667969-136.449219 0-49.832031 19.449219-109.480469 52.214844-161.707031 20.09375-32.859375 45.863281-61.898438 76.101562-85.757813 13.632813-10.558594 28.410157-19.546875 44.058594-26.796875 3.351563-1.535156 6.699219-2.898437 10.136719-4.179687l84.898437-6.316406c114.679688 30.039062 201.921876 179.203124 201.921876 284.757812zm0 0" fill="#9c27af"/><path d="m215.957031 115.207031c-18.40625-14.429687-29.214843-36.476562-29.347656-59.863281-.042969-1.828125 1.082031-3.480469 2.796875-4.109375s3.640625-.09375 4.789062 1.328125c8.8125 12.140625 21.839844 20.554688 36.53125 23.59375 1.527344.230469 3.058594-.386719 4.003907-1.609375.945312-1.21875 1.15625-2.855469.554687-4.277344-4.703125-10.597656-9.738281-32.625 13.769532-55.585937 1.203124-1.179688 2.984374-1.546875 4.554687-.929688 1.566406.617188 2.625 2.097656 2.699219 3.777344.292968 9.214844 1.800781 18.351562 4.480468 27.171875.5625 1.425781 1.847657 2.433594 3.367188 2.632813 1.515625.203124 3.023438-.433594 3.9375-1.660157 8.996094-13.875 26.394531-19.675781 41.914062-13.96875 1.320313.453125 2.335938 1.519531 2.71875 2.859375.382813 1.339844.089844 2.78125-.789062 3.863282-7.515625 9.074218-22.996094 31.277343-16.359375 53.761718 1.273437 4.917969.3125 10.148438-2.628906 14.292969-2.9375 4.140625-7.554688 6.777344-12.617188 7.203125l-52.011719 5.195312c-4.445312.460938-8.894531-.863281-12.363281-3.675781zm0 0" fill="#6a1b99"/><path d="m332.800781 221.871094c-.59375 11.320312-4.511719 22.214844-11.261719 31.316406-9.53125 14.015625-22.933593 24.957031-38.570312 31.488281-17.242188 7.285157-36.691406 7.285157-53.933594 0-15.636718-6.53125-29.039062-17.472656-38.570312-31.488281-.082032-.082031 0-.082031 0-.082031-6.75-9.074219-10.667969-19.941407-11.261719-31.234375 0-28.246094 34.386719-34.132813 76.800781-34.132813 42.410156 0 76.796875 5.886719 76.796875 34.132813zm0 0" fill="#e81e63"/><g fill="#ac1457"><path d="m321.539062 253.1875c-9.53125 14.015625-22.933593 24.957031-38.570312 31.488281-6.285156-4.78125-9.949219-12.242187-9.898438-20.136719-.03125-11.890624 8.144532-22.226562 19.722657-24.9375 11.578125-2.710937 23.492187 2.921876 28.746093 13.585938zm0 0"/><path d="m238.9375 264.539062c.050781 7.894532-3.617188 15.355469-9.902344 20.136719-15.636718-6.53125-29.039062-17.472656-38.570312-31.488281-.082032-.082031 0-.082031 0-.082031 5.324218-10.585938 17.21875-16.132813 28.75-13.414063 11.53125 2.722656 19.6875 13 19.722656 24.847656zm0 0"/><path d="m401.070312 418.140625c0 43.261719-34.988281 68.949219-85.335937 79.613281-19.660156 3.957032-39.675781 5.871094-59.730469 5.71875-19.96875.136719-39.894531-1.75-59.480468-5.632812-50.429688-10.667969-85.585938-36.4375-85.585938-79.699219 0-29.527344 16.296875-61.613281 42.664062-86.273437 14.84375-13.910157 32.226563-24.835938 51.199219-32.171876 32.945313-12.742187 69.457031-12.742187 102.402344 0 18.972656 7.335938 36.355469 18.261719 51.199219 32.171876 26.367187 24.660156 42.667968 56.746093 42.667968 86.273437zm0 0"/></g><path d="m315.734375 426.671875v71.082031c-19.660156 3.957032-39.675781 5.871094-59.730469 5.71875-19.96875.136719-39.894531-1.75-59.480468-5.632812v-67.5c-.167969-1.214844-.253907-2.441406-.253907-3.667969 0-16.496094 13.371094-29.867187 29.867188-29.867187 16.492187 0 29.867187 13.371093 29.867187 29.867187 0-16.496094 13.371094-29.867187 29.863282-29.867187 16.496093 0 29.867187 13.371093 29.867187 29.867187zm0 0" fill="#f34335"/><path d="m256.003906 290.140625v42.664063c0 14.140624-11.464844 25.601562-25.601562 25.601562-14.136719 0-25.601563-11.460938-25.601563-25.601562v-33.109376c2.816407-1.023437 5.632813-2.046874 8.535157-2.902343 11.066406-3.53125 22.535156-5.652344 34.132812-6.3125 2.816406-.257813 5.632812-.339844 8.535156-.339844zm0 0" fill="#f9eab0"/><path d="m247.46875 290.480469v42.324219c0 14.167968-7.59375 25.601562-17.066406 25.601562s-17.066406-11.433594-17.066406-25.601562v-36.011719c11.066406-3.53125 22.535156-5.652344 34.132812-6.3125zm0 0" fill="#ffebb2"/><path d="m204.800781 299.695312v33.109376c0 14.140624-11.460937 25.601562-25.597656 25.601562-14.140625 0-25.601563-11.460938-25.601563-25.601562v-.9375c2.730469-2.558594 5.546876-5.035157 8.535157-7.339844 10.40625-8.535156 21.878906-15.675782 34.132812-21.246094 2.816407-1.28125 5.632813-2.476562 8.53125-3.585938zm0 0" fill="#f9eab0"/><path d="m196.269531 303.28125v29.523438c0 14.167968-7.59375 25.601562-17.066406 25.601562s-17.066406-11.433594-17.066406-25.601562v-8.277344c10.40625-8.535156 21.878906-15.675782 34.132812-21.246094zm0 0" fill="#ffebb2"/><path d="m358.402344 331.867188v.9375c0 14.140624-11.460938 25.601562-25.601563 25.601562-14.136719 0-25.597656-11.460938-25.597656-25.601562v-33.109376c2.902344 1.109376 5.714844 2.304688 8.53125 3.585938 12.253906 5.570312 23.726563 12.710938 34.132813 21.246094 2.988281 2.304687 5.804687 4.78125 8.535156 7.339844zm0 0" fill="#f9eab0"/><path d="m349.867188 324.527344v8.277344c0 14.167968-7.59375 25.601562-17.066407 25.601562-9.46875 0-17.066406-11.433594-17.066406-25.601562v-29.523438c12.253906 5.570312 23.726563 12.710938 34.132813 21.246094zm0 0" fill="#ffebb2"/><path d="m307.203125 299.695312v33.109376c0 14.140624-11.460937 25.601562-25.601563 25.601562-14.136718 0-25.597656-11.460938-25.597656-25.601562v-42.664063c2.898438 0 5.714844.082031 8.53125.339844 11.597656.660156 23.066406 2.78125 34.132813 6.3125 2.902343.855469 5.71875 1.878906 8.535156 2.902343zm0 0" fill="#f9eab0"/><path d="m298.667969 296.792969v36.011719c0 14.167968-7.59375 25.601562-17.066407 25.601562-9.472656 0-17.066406-11.433594-17.066406-25.601562v-42.324219c11.597656.660156 23.066406 2.78125 34.132813 6.3125zm0 0" fill="#ffebb2"/><path d="m512.003906 119.472656c.144532-30.730468-12.5625-60.121094-35.046875-81.066406-4.460937-3.929688-10.632812-5.273438-16.320312-3.554688-5.691407 1.722657-10.085938 6.261719-11.617188 12-8.507812 34.785157-38.0625 60.402344-73.703125 63.882813-21.691406-16.25-46.160156-28.410156-72.210937-35.890625 2.894531-13.066406 9.359375-25.070312 18.671875-34.679688 1.933594-1.941406 2.816406-4.691406 2.375-7.398437-.441406-2.703125-2.152344-5.03125-4.601563-6.253906-17.214843-10.003907-39.042969-6.90625-52.796875 7.492187-1.484375-8.40625-2.226562-16.929687-2.21875-25.464844 0-3.28125-1.878906-6.273437-4.835937-7.695312s-6.46875-1.019531-9.03125 1.03125c-29.738281 23.796875-30.121094 48.316406-25.890625 63.835938-12.496094-5.445313-22.824219-14.890626-29.363282-26.851563-1.652343-3.308594-5.246093-5.175781-8.902343-4.625s-6.542969 3.390625-7.148438 7.039063c-2.566406 14.296874-1.304687 29.015624 3.660157 42.664062-.792969.335938-1.609376.617188-2.394532.964844-15.507812 7.054687-30.21875 15.730468-43.898437 25.882812-35.660157-3.464844-65.238281-29.09375-73.742188-63.898437-1.527343-5.746094-5.917969-10.292969-11.609375-12.023438-5.6875-1.726562-11.867187-.386719-16.332031 3.542969-22.484375 20.945312-35.191406 50.335938-35.04296875 81.066406-.24218725 36.382813 18.67578175 70.210938 49.80078175 89.054688-31.625 52.171875-49.80078175 109.414062-49.80078175 158.410156 0 127.488281 123.03906275 145.066406 255.99999975 145.066406 132.957032 0 256-17.578125 256-145.066406 0-49.757812-18.425781-107.355469-49.496094-158.625 30.941407-18.882812 49.722657-52.59375 49.496094-88.839844zm-468.300781 63.050782c6.894531-18.023438 17.296875-34.503907 30.597656-48.484376 3.234375-3.347656 3.1875-8.671874-.101562-11.960937-3.292969-3.292969-8.613281-3.339844-11.964844-.105469-12.898437 13.335938-23.304687 28.878906-30.71875 45.890625-9.425781-14.378906-14.445313-31.199219-14.445313-48.390625 0-1.511718.160157-3.011718.238282-4.523437 8.84375-5.363281 18.261718-9.71875 28.074218-12.988281 2.894532-.96875 5.054688-3.410157 5.664063-6.402344.609375-2.992188-.425781-6.082032-2.714844-8.105469-2.285156-2.023437-5.480469-2.675781-8.375-1.703125-6.554687 2.191406-12.960937 4.796875-19.183593 7.796875 4.304687-16.25 13.257812-30.890625 25.761718-42.128906 9.261719 35.667969 36.761719 63.742187 72.234375 73.738281-22.894531 20.175781-43.003906 43.308594-59.800781 68.785156-5.519531-3.191406-10.644531-7.023437-15.265625-11.417968zm127.214844 145.921874c3.257812-2.484374 6.628906-4.796874 10.058593-7.007812 1.015626-.648438 2.039063-1.277344 3.0625-1.902344 2.941407-1.796875 5.945313-3.488281 9.003907-5.078125.855469-.425781 1.621093-.894531 2.441406-1.304687.253906-.128906.527344-.222656.785156-.339844v19.992188c-.054687 8.84375-6.851562 16.179687-15.667969 16.90625-8.8125.726562-16.71875-5.398438-18.21875-14.113282 2.613282-2.324218 5.222657-4.652344 7.996094-6.828125.171875-.09375.367188-.230469.539063-.351562zm42.417969-22.597656c1.5-.492187 2.996093-1.03125 4.503906-1.484375.914062-.273437 1.835937-.570312 2.757812-.851562 3.5-.957031 7.003906-1.792969 10.53125-2.46875.757813-.144531 1.519532-.238281 2.277344-.375 2.929688-.503907 5.863281-.914063 8.796875-1.226563.972656-.105468 1.945313-.207031 2.925781-.292968.777344-.058594 1.5625-.050782 2.339844-.101563v33.757813c0 9.425781-7.640625 17.066406-17.066406 17.066406-9.425782 0-17.066406-7.640625-17.066406-17.066406zm8.070312-34.703125c-2.484375-1.535156-4.882812-3.210937-7.183594-5.019531-.359375-.28125-.75-.519531-1.101562-.808594-2.613282-2.140625-5.085938-4.441406-7.40625-6.894531-.671875-.710937-1.296875-1.460937-1.945313-2.195313-.980469-1.109374-1.867187-2.285156-2.78125-3.414062 3.195313-3.414062 7.667969-5.347656 12.347657-5.339844 9.425781 0 17.066406 7.640625 17.066406 17.066406.007812 3.496094-1.074219 6.910157-3.097656 9.761719-1.058594-.527343-2.125-1-3.164063-1.578125-.914063-.503906-1.835937-1.015625-2.734375-1.578125zm60.195312-6.605469c-.019531-6.980468 4.222657-13.261718 10.703126-15.851562 6.480468-2.589844 13.882812-.960938 18.679687 4.109375-.8125 1.023437-1.5625 2.082031-2.425781 3.0625-.664063.761719-1.3125 1.535156-2.003906 2.269531-2.355469 2.515625-4.867188 4.878906-7.519532 7.074219l-.085937.070313c-2.625 2.117187-5.386719 4.066406-8.265625 5.828124-.855469.546876-1.769532 1.023438-2.65625 1.527344-1.089844.613282-2.21875 1.109375-3.328125 1.707032-2.03125-2.863282-3.113281-6.289063-3.097657-9.796876zm-17.066406 34.535157c.777344.042969 1.554688.042969 2.328125.101562.984375.085938 1.964844.1875 2.945313.289063 2.9375.316406 5.855468.726562 8.773437 1.230468.765625.136719 1.527344.230469 2.292969.375 3.527344.671876 7.035156 1.511719 10.523438 2.464844.914062.25 1.828124.546875 2.730468.855469 1.519532.449219 3.03125.988281 4.539063 1.5v26.914063c0 9.425781-7.640625 17.066406-17.066407 17.066406-9.425781 0-17.066406-7.640625-17.066406-17.066406zm51.199219 13.710937c.273437.136719.546875.230469.855469.367188.765625.375 1.507812.8125 2.269531 1.203125 3.109375 1.609375 6.171875 3.335937 9.179687 5.179687 1 .605469 2 1.222656 2.988282 1.851563 3.488281 2.253906 6.929687 4.601562 10.238281 7.136719.121094.09375.25.167968.378906.261718 2.78125 2.144532 5.398438 4.480469 8.019531 6.828125-1.378906 8.839844-9.351562 15.117188-18.269531 14.378907-8.917969-.738282-15.75-8.238282-15.660156-17.1875zm4.4375-74.675781c-12.519531-10.253906-30.53125-10.28125-43.082031-.0625-12.550782 10.21875-16.175782 27.859375-8.671875 42.203125-8.183594 1.746094-16.648438 1.746094-24.832031 0 7.429687-14.347656 3.78125-31.941406-8.742188-42.148438-12.523438-10.210937-30.488281-10.242187-43.046875-.074218-2.457031-5.046875-3.839844-10.546875-4.0625-16.15625 0-11.945313 7.757813-25.597656 68.269531-25.597656 60.507813 0 68.265625 13.652343 68.265625 25.597656-.246093 5.628906-1.640625 11.144531-4.097656 16.214844zm-170.964844 110.644531c5.175781 9.953125 14.957031 16.683594 26.101563 17.964844 11.140625 1.28125 22.195312-3.054688 29.492187-11.574219 6.402344 7.484375 15.753907 11.796875 25.601563 11.796875s19.199218-4.3125 25.601562-11.796875c6.398438 7.484375 15.75 11.796875 25.597656 11.796875 9.847657 0 19.203126-4.3125 25.601563-11.796875 7.296875 8.519531 18.347656 12.855469 29.492187 11.578125 11.144532-1.28125 20.921876-8.011718 26.101563-17.960937 17.804687 18.882812 28.339844 43.460937 29.738281 69.378906 0 40.890625-34.984375 59.902344-68.265625 68.777344v-60.246094c-.011719-16.269531-10.273437-30.761719-25.613281-36.179687-15.339844-5.417969-32.429688-.578126-42.652344 12.074218-10.226562-12.652344-27.316406-17.492187-42.65625-12.074218-15.335937 5.417968-25.601562 19.910156-25.613281 36.179687 0 1.425781.085937 2.851563.257813 4.265625v56.066406c-33.347657-8.882812-68.523438-27.90625-68.523438-68.863281 1.398438-25.917969 11.933594-50.5 29.738281-69.386719zm92.289063 145.859375c-1.527344-.066406-3.003906-.1875-4.515625-.273437-3.191407-.175782-6.355469-.375-9.453125-.648438-1.707032-.160156-3.414063-.355468-5.171875-.535156-2.789063-.308594-5.5625-.625-8.277344-1-1.707031-.246094-3.414063-.511719-5.121094-.785156-1.3125-.203125-2.558593-.453125-3.875-.683594v-60.347656c0-.414063-.03125-.832032-.082031-1.246094-.125-.800781-.191406-1.609375-.199219-2.421875 0-11.78125 9.554688-21.332031 21.335938-21.332031s21.332031 9.550781 21.332031 21.332031v25.601563c0 4.710937 3.820312 8.53125 8.535156 8.53125 4.710938 0 8.53125-3.820313 8.53125-8.53125v-25.601563c0-11.78125 9.550782-21.332031 21.332032-21.332031 11.785156 0 21.335937 9.550781 21.335937 21.332031v63.949219c-1.316406.238281-2.613281.496094-3.953125.714844-1.707031.265624-3.351562.53125-5.066406.769531-2.714844.382812-5.496094.71875-8.296875 1.015625-1.707031.1875-3.472657.394531-5.246094.554687-3.0625.273438-6.210937.46875-9.386719.648438-1.5625.09375-3.089844.222656-4.675781.289062-4.78125.207031-9.636719.324219-14.59375.324219s-9.71875-.117188-14.488281-.324219zm125.320312-6.613281c27.878906-16.261719 42.785156-40.113281 42.785156-69.859375 0-31.351563-16.953124-65.929687-45.371093-92.511719-15.65625-14.644531-33.980469-26.152344-53.972657-33.894531-4.421874-1.671875-8.871093-3.144531-13.355468-4.410156 12.601562-7.277344 23.414062-17.289063 31.632812-29.296875v-.109375c7.738282-10.484375 12.191406-23.03125 12.800782-36.046875 0-42.664063-59.800782-42.664063-85.332032-42.664063-25.535156 0-85.335937 0-85.335937 42.664063.566406 12.726562 4.832031 25.015625 12.273437 35.355468.136719.25.285156.492188.449219.722657 8.25 12.023437 19.09375 22.042969 31.726563 29.324219-3.285157.929687-6.542969 2.089843-9.792969 3.242187-1.195313.417969-2.40625.734375-3.59375 1.183594-4.941407 1.890625-9.78125 4.03125-14.507813 6.410156-14.394531 7.238281-27.683594 16.496094-39.464844 27.484375-28.398437 26.617188-45.355468 61.195312-45.355468 92.546875 0 29.738281 14.917968 53.578125 42.792968 69.867187-79.664062-12.628906-128.125-45.421874-128.125-121.070312 0-47.589844 19.378907-106.324219 51.832032-157.132812 19.996094-32.078126 45.527344-60.351563 75.40625-83.507813 13.417968-10.195313 27.933594-18.863281 43.273437-25.835937.957031-.429688 1.9375-.761719 2.894531-1.171876 6.898438 11.015626 16.113282 20.402344 26.996094 27.503907 1.328125.800781 2.847656 1.21875 4.394532 1.210937 3.832031.007813 7.195312-2.539062 8.230468-6.226562 1.035156-3.691406-.515625-7.613282-3.792968-9.601563-10.046876-6.683593-18.261719-15.777343-23.890626-26.453125 0-.050781 0-.109375 0-.171875-.070312-.1875-.222656-.304687-.308593-.492187-2.851563-5.570313-4.863281-11.53125-5.972657-17.691406 11.378907 11.34375 26.738282 17.792968 42.804688 17.972656 3.210938-.015625 6.144531-1.835938 7.585938-4.707032 1.441406-2.871093 1.148437-6.3125-.761719-8.894531-9.097657-13.511719-7.960938-31.453125 2.765625-43.710937.371094 10.503906 3.824218 20.660156 9.933594 29.210937 1.929687 1.953125 4.6875 2.84375 7.398437 2.390625 2.710937-.4375 5.042969-2.152344 6.269531-4.609375 5.195313-11.082031 16.722656-17.777343 28.921875-16.800781-14.507812 19.789062-26.453125 52.230469.074219 78.753906 3.351562 3.234375 8.671875 3.1875 11.964844-.105468 3.289062-3.289063 3.335937-8.613282.101562-11.960938-3.382812-3.324219-6.09375-7.277344-7.976562-11.632812 106.222656 34.074218 189.722656 173.550781 189.722656 273.664062 0 75.640625-48.453125 108.433594-128.105469 121.0625zm86.441406-294.195312c-16.851562-25.449219-37.011718-48.542969-59.953124-68.675782 35.488281-10.082031 63.011718-38.167968 72.378906-73.855468 12.390625 11.367187 21.257812 26.054687 25.539062 42.316406-6.222656-3.011719-12.632812-5.617188-19.191406-7.808594-4.476562-1.496094-9.320312.917969-10.820312 5.394531-1.496094 4.476563.917968 9.320313 5.394531 10.820313 9.8125 3.265625 19.230469 7.625 28.074219 12.988281.078124 1.507813.238281 3.011719.238281 4.523437-.003907 17.191407-5.027344 34.011719-14.453125 48.390626-7.414063-17.011719-17.820313-32.554688-30.722656-45.890626-3.347657-3.234374-8.667969-3.1875-11.960938.101563-3.292969 3.292969-3.339844 8.613281-.105469 11.964844 13.304688 13.980469 23.707031 30.460937 30.601563 48.484375-4.546875 4.320312-9.582032 8.09375-15 11.246094zm0 0"/><path d="m214.273438 145.125c-.851563-.09375-84.417969-8.535156-103.082032 66.148438-1.140625 4.570312 1.640625 9.199218 6.210938 10.34375.675781.167968 1.371094.253906 2.066406.253906 3.914062-.003906 7.320312-2.671875 8.269531-6.46875 15.007813-60.066406 81.824219-53.628906 84.667969-53.316406 4.660156.46875 8.824219-2.902344 9.335938-7.558594.507812-4.65625-2.828126-8.851563-7.476563-9.402344zm0 0"/><path d="m297.730469 145.125c-4.648438.550781-7.984375 4.746094-7.476563 9.402344.511719 4.65625 4.675782 8.027344 9.335938 7.558594 2.824218-.3125 69.660156-6.757813 84.667968 53.316406.949219 3.800781 4.359376 6.46875 8.277344 6.46875.699219 0 1.394532-.085938 2.074219-.253906 4.570313-1.144532 7.351563-5.773438 6.210937-10.34375-18.667968-74.65625-102.261718-66.261719-103.089843-66.148438zm0 0"/></svg>