<svg height="511pt" viewBox="0 -8 511.69178 511" width="511pt" xmlns="http://www.w3.org/2000/svg"><path d="m444.421875 232.792969c5.289063 12.03125 31.488281 76.800781 24.832031 143.191406l-16.382812-8.277344-6.0625-2.988281-6.996094-3.5c-.085938 1.027344-.171875 1.964844-.339844 2.902344-.171875 1.707031-.425781 3.414062-.683594 5.121094-10.582031 68.691406-65.195312 109.738281-65.195312 109.738281.296875-4.351563-.941406-8.667969-3.496094-12.203125-.828125-1.253906-1.742187-2.453125-2.734375-3.582032-4.539062-5.300781-9.863281-9.878906-15.785156-13.570312-.425781 1.195312-.851563 2.21875-1.363281 3.328125-.945313 2.183594-2.148438 4.25-3.585938 6.144531-19.285156 27.734375-74.238281 28.160156-92.332031 27.476563-.335937.085937-.6875.085937-1.023437 0-1.109376 0-1.960938-.085938-2.730469-.085938-1.363281-.082031-2.046875-.167969-2.046875-.167969 7.421875-29.441406-36.777344-29.441406-36.777344-29.441406l-.34375.339844c-.511719.597656-1.023438 1.109375-1.449219 1.625-6.527343 8.265625-5.753906 20.125 1.792969 27.476562-5.957031-.003906-11.910156-.316406-17.835938-.941406-2.390624-.253906-4.777343-.59375-6.996093-.9375-89.34375-13.824218-110.253907-100.09375-110.253907-100.09375-1.925781.632813-3.808593 1.402344-5.628906 2.300782-3.222656 1.5-6.210937 3.457031-8.875 5.804687-5.433594 4.527344-9.316406 10.644531-11.09375 17.492187-2.179687-5.960937-3.835937-12.097656-4.949218-18.347656-.257813-1.277344-.425782-2.558594-.597657-3.839844-9.898437-60.925781 14.078125-148.480468 14.078125-148.480468-2.148437-.019532-4.292968.179687-6.398437.597656-4.089844.578125-8.0625 1.785156-11.777344 3.585938-6.21875 3.042968-11.671875 7.445312-15.957031 12.886718.542968-5.035156 1.660156-9.988281 3.328125-14.765625.171875-.597656.425781-1.109375.597656-1.707031 7.425781-20.5625 23.210937-43.007812 29.527344-56.0625v-.085938l63.828125-133.800781.769531-1.707031 1.191406-2.476562c8.8125.394531 17.480469 2.359374 25.601563 5.804687 3.671875 1.484375 7.261718 3.164063 10.75 5.035156 4.097656 2.21875 6.574218 3.839844 6.574218 3.839844-1.90625-13.324219 2.402344-26.78125 11.6875-36.523437 1.988282-2.070313 4.160157-3.957032 6.488282-5.632813 5.644531-4.121094 11.929687-7.292969 18.601562-9.386719-2.167968 8.9375-2.226562 18.257813-.171875 27.222656.675781 2.410157 1.902344 4.628907 3.585938 6.484376 1.074219 1.289062 2.414062 2.335937 3.925781 3.070312 0 0 12.96875-21.671875 55.722656-25.171875 1.023438 0 2.132813-.085937 3.242188-.171875 14.753906-.660156 29.535156.425781 44.03125 3.242188-12.03125 4.617187-21.875 13.609374-27.5625 25.175781-.34375.597656-.597656 1.28125-.9375 1.960937v.085938c-.257813.683594-.511719 1.453125-.769532 2.132812 5.265626-2.019531 10.773438-3.339844 16.382813-3.925781.933594-.160156 1.875-.273437 2.816406-.339844h.171875c20.863282-1.550781 41.734375 2.890625 60.160156 12.800781l85.246094 124.585938c4.78125 10.324219 24.664063 39.425781 27.480469 53.246094-5.925781-3.636719-12.507813-6.074219-19.371094-7.167969-2.050781-.425781-4.269531-.765625-6.65625-1.023437-2.5625-.167969-5.207031-.339844-8.109375-.339844.0625.070312.089844.164062.085938.253906.171875.34375.425781.941406.769531 1.792969zm0 0" fill="#37474f"/><path d="m420.273438 230.746094c18.179687 42.289062 27.226562 87.945312 26.535156 133.972656l-6.996094-3.5c-.085938 1.027344-.171875 1.964844-.339844 2.902344l-5.890625-2.902344c-.253906 2.734375-.59375 5.378906-1.023437 8.023438l-16.042969-8.023438c-4.738281 38.46875-22.011719 74.304688-49.152344 101.976562-4.539062-5.300781-9.863281-9.878906-15.785156-13.570312-.425781 1.195312-.851563 2.21875-1.363281 3.328125-1.5625-1.195313-3.183594-2.308594-4.867188-3.328125-1.148437 3.394531-2.816406 6.589844-4.949218 9.472656-3.71875-3.570312-7.777344-6.769531-12.117188-9.558594-9.640625 28.757813-50.429688 35.585938-77.738281 36.949219-1.363281-.082031-2.046875-.167969-2.046875-.167969 7.421875-29.441406-36.777344-29.441406-36.777344-29.441406l-.34375.339844c-3.496094-.339844-5.886719-.339844-5.886719-.339844-.683593.683594-1.28125 1.367188-1.792969 1.964844-5.007812-1.195312-10.128906-1.851562-15.273437-1.964844-7.980469 7.214844-8.664063 19.507813-1.535156 27.5625-89.34375-13.824218-110.253907-100.09375-110.253907-100.09375-1.925781.632813-3.808593 1.402344-5.628906 2.300782-.429687-1.449219-.597656-2.300782-.597656-2.300782-5.339844 1.679688-10.277344 4.441406-14.507812 8.105469-1.792969-5.035156-2.558594-8.105469-2.558594-8.105469-2.722656.878906-5.351563 2.023438-7.851563 3.410156-9.898437-60.925781 14.078125-148.480468 14.078125-148.480468-2.148437-.019532-4.292968.179687-6.398437.597656.035156-.203125.089843-.402344.171875-.597656-6.300782-.003906-12.515625 1.425781-18.175782 4.183594.679688-2.730469 1.109376-4.183594 1.109376-4.183594-2.320313-.027344-4.632813.175781-6.914063.597656 7.425781-20.5625 23.210937-43.007812 29.527344-56.0625v-.085938l63.828125-133.800781c7.574218 2.65625 14.820312 6.179688 21.589844 10.496094-.453126-2.9375-.539063-5.917969-.257813-8.875 6.046875 2.394531 11.847656 5.367187 17.324219 8.875-.195313-1.273437-.308594-2.554687-.34375-3.839844 4.097656 2.21875 6.574218 3.839844 6.574218 3.839844-1.90625-13.324219 2.402344-26.78125 11.6875-36.523437-1.308593 8.394531 2.222657 16.8125 9.132813 21.757812 2.582031-3.734375 5.820313-6.972656 9.558594-9.554688 1.054687 4.09375 3.777343 7.558594 7.507812 9.554688.675781-1.085938 1.449219-2.113281 2.304688-3.070312 1.074219 1.289062 2.414062 2.335937 3.925781 3.070312 0 0 12.96875-21.671875 55.722656-25.171875 8.039063.605469 16.042969 1.628906 23.976563 3.070313-13.515625 5.132812-24.175781 15.824218-29.269531 29.355468 6.035156-2.246094 12.355468-3.65625 18.773437-4.179687-.671875 1.347656-1.242187 2.746093-1.707031 4.179687 2.273437-.894531 4.613281-1.609375 7-2.132812v-.085938c4.015625-.953125 8.09375-1.640625 12.199218-2.046875h.171876c1.023437.085938 2.132812.171875 3.242187.339844 13.929687 1.699219 27.4375 5.917969 39.851563 12.460937l85.25 124.585938c4.007812 8.617188 18.34375 30.121094 24.746093 45.054688.167969.34375.253907.683593.425781 1.023437-2.785156-.570313-5.609374-.9375-8.449218-1.109375-2.046875-.167969-4.09375-.253906-6.3125-.253906 0 0 .339844.683594.851562 2.046875-5.871094-1.390625-11.886718-2.078125-17.917968-2.046875zm0 0" fill="#607d8a"/><path d="m179.800781 102.746094-1.875 3.414062-23.808593 43.605469c-26.445313-44.027344-63.5-80.726563-107.777344-106.753906-11.871094-6.664063-24.324219-12.234375-37.203125-16.640625v-.425782c128-17.066406 170.664062 76.800782 170.664062 76.800782zm0 0" fill="#37474f"/><path d="m177.925781 106.160156-24.492187 56.320313c-35.414063-55.808594-73.8125-100.78125-107.09375-119.46875 75.179687-.253907 115.03125 40.023437 131.585937 63.148437zm0 0" fill="#607d8a"/><path d="m146.703125 163.332031-27.402344 50.175781c-123.304687-25.34375-111.019531-177.917968-110.164062-187.136718 35.925781 12.210937 79.613281 58.753906 127.230469 127.574218 5.523437 7.980469 14.984374.855469 10.335937 9.386719zm0 0" fill="#e81e63"/><path d="m503.300781 25.945312v.425782c-12.886719 4.390625-25.339843 9.960937-37.203125 16.640625-44.277344 26.027343-81.332031 62.726562-107.777344 106.753906l-24.148437-44.203125-1.539063-2.816406s42.667969-93.867188 170.667969-76.800782zm0 0" fill="#37474f"/><path d="m466.097656 43.011719c-33.28125 18.6875-72.449218 63.660156-107.863281 119.46875l-24.0625-56.917969c16.894531-23.296875 56.914063-63.148438 131.925781-62.550781zm0 0" fill="#607d8a"/><path d="m393.136719 213.507812-3.15625-5.714843-24.238281-44.460938c-4.691407-8.53125 4.011718-1.449219 9.558593-9.386719 38.058594-55.039062 74.15625-95.828124 105.386719-116.136718 7.007812-4.785156 14.609375-8.628906 22.613281-11.4375.855469 9.21875 13.140625 161.792968-110.164062 187.136718zm0 0" fill="#ac1457"/><path d="m389.980469 207.792969-24.238281-44.460938c-4.691407-8.53125 4.011718-1.449219 9.558593-9.386719 38.058594-55.039062 74.15625-95.828124 105.386719-116.136718.9375 35.242187-3.925781 138.664062-90.707031 169.984375zm0 0" fill="#e81e63"/><path d="m187.566406 145.414062c-2.851562-.003906-5.699218.167969-8.53125.511719-34.21875 4.214844-59.921875 33.277344-59.921875 67.753907 0 34.476562 25.703125 63.539062 59.921875 67.753906 2.832032.34375 5.679688.515625 8.53125.511718 37.703125 0 68.269532-30.5625 68.269532-68.265624 0-37.703126-30.566407-68.265626-68.269532-68.265626zm0 0" fill="#fff"/><path d="m324.101562 145.414062c-2.851562-.003906-5.703124.167969-8.535156.511719-34.214844 4.214844-59.921875 33.277344-59.921875 67.753907 0 34.476562 25.707031 63.539062 59.921875 67.753906 2.832032.34375 5.683594.515625 8.535156.511718 37.703126 0 68.265626-30.5625 68.265626-68.265624 0-37.703126-30.5625-68.265626-68.265626-68.265626zm0 0" fill="#fff"/><path d="m152.71875 354.386719c-12.503906-9.992188-22.285156-22.976563-28.433594-37.753907-1.234375-3.101562-.542968-6.636718 1.765625-9.046874 2.304688-2.414063 5.808594-3.257813 8.960938-2.164063 6.945312 2.484375 16.109375 5.390625 27.304687 8.183594h.085938c15.167968 3.738281 30.558594 6.5 46.082031 8.277343 15.714844 1.847657 31.527344 2.757813 47.351563 2.730469 15.742187.027344 31.46875-.886719 47.101562-2.730469 15.527344-1.734374 30.921875-4.5 46.082031-8.277343 11.375-2.808594 20.65625-5.742188 27.671875-8.234375 3.15625-1.09375 6.65625-.246094 8.960938 2.167968 2.304687 2.414063 2.992187 5.953126 1.757812 9.050782-6.1875 14.910156-16.066406 28-28.707031 38.042968-.363281.292969-.746094.558594-1.144531.800782l-24.292969 14.59375c-.359375.214844-.734375.40625-1.117187.570312-24.222657 9.785156-50.199219 14.46875-76.3125 13.75-26.175782.734375-52.21875-3.972656-76.476563-13.824218-.390625-.171876-.769531-.367188-1.136719-.589844l-24.371094-14.753906c-.390624-.242188-.769531-.507813-1.132812-.792969zm0 0" fill="#ac1457"/><path d="m208.472656 321.882812c-12.503906 14.375-22.539062 30.722657-29.695312 48.382813-4 9.90625-6.695313 20.289063-8.019532 30.890625-.859374 5.738281-.945312 11.5625-.257812 17.324219-11.503906-19.226563-17.472656-41.257813-17.234375-63.660157.269531-14.199218 3.34375-28.207031 9.042969-41.214843h.085937l8.019531 1.449219zm0 0" fill="#f9eab0"/><path d="m208.472656 321.882812c-12.503906 14.375-22.539062 30.722657-29.695312 48.382813-4 9.90625-6.695313 20.289063-8.019532 30.890625-6.105468-14.671875-9.097656-30.449219-8.789062-46.335938.261719-13.671874 3.128906-27.167968 8.445312-39.765624zm0 0" fill="#ffebb2"/><path d="m340.910156 418.480469c.644532-5.648438.589844-11.351563-.167968-16.984375-1.234376-10.699219-3.933594-21.179688-8.023438-31.144532-7.21875-17.671874-17.277344-34.042968-29.78125-48.46875l38.230469-6.828124 7.851562-1.449219c5.820313 13.0625 8.925781 27.171875 9.128907 41.472656.210937 22.316406-5.757813 44.261719-17.238282 63.402344zm0 0" fill="#f9eab0"/><path d="m349.703125 355.078125c.289063 15.929687-2.761719 31.742187-8.960937 46.417969-1.234376-10.699219-3.933594-21.179688-8.023438-31.144532-7.21875-17.671874-17.277344-34.042968-29.78125-48.46875l38.230469-6.828124c5.4375 12.652343 8.339843 26.25 8.535156 40.023437zm0 0" fill="#ffebb2"/><path d="m221.703125 213.679688c0 18.851562-15.285156 34.132812-34.136719 34.132812-18.851562 0-34.132812-15.28125-34.132812-34.132812 0-18.851563 15.28125-34.132813 34.132812-34.132813 18.851563 0 34.136719 15.28125 34.136719 34.132813zm0 0" fill="#f34335"/><path d="m358.234375 213.679688c0 18.851562-15.28125 34.132812-34.132813 34.132812-18.851562 0-34.132812-15.28125-34.132812-34.132812 0-18.851563 15.28125-34.132813 34.132812-34.132813 18.851563 0 34.132813 15.28125 34.132813 34.132813zm0 0" fill="#f34335"/><path d="m187.566406 196.613281c0 9.425781-7.640625 17.066407-17.066406 17.066407s-17.066406-7.640626-17.066406-17.066407 7.640625-17.066406 17.066406-17.066406 17.066406 7.640625 17.066406 17.066406zm0 0" fill="#fff"/><path d="m324.101562 196.613281c0 9.425781-7.640624 17.066407-17.066406 17.066407-9.425781 0-17.066406-7.640626-17.066406-17.066407s7.640625-17.066406 17.066406-17.066406c9.425782 0 17.066406 7.640625 17.066406 17.066406zm0 0" fill="#fff"/><path d="m341.167969 213.679688c0 9.425781-7.640625 17.066406-17.066407 17.066406-9.425781 0-17.066406-7.640625-17.066406-17.066406 0-9.425782 7.640625-17.066407 17.066406-17.066407 9.425782 0 17.066407 7.640625 17.066407 17.066407zm0 0" fill="#37474f"/><path d="m204.632812 213.679688c0 9.425781-7.640624 17.066406-17.066406 17.066406-9.425781 0-17.066406-7.640625-17.066406-17.066406 0-9.425782 7.640625-17.066407 17.066406-17.066407 9.425782 0 17.066406 7.640625 17.066406 17.066407zm0 0" fill="#37474f"/><path d="m510.980469 25.09375c-.410157-3.917969-3.449219-7.046875-7.355469-7.570312-66.535156-8.890626-111.375 11.453124-139.605469 34.023437-18.722656-9.0625-39.519531-12.96875-60.253906-11.324219 4.003906-3.660156 8.628906-6.578125 13.652344-8.621094 3.683593-1.246093 6.058593-4.828124 5.773437-8.707031-.285156-3.878906-3.15625-7.074219-6.984375-7.769531-61.355469-11.09375-91.597656 6.144531-104.257812 17.511719-1.320313-7.203125-1.078125-14.605469.707031-21.710938.746094-3.015625-.207031-6.203125-2.492188-8.3125-2.28125-2.109375-5.53125-2.8125-8.480468-1.832031-29.269532 9.738281-39.988282 29.386719-42.539063 45.320312-10.175781-4.894531-21.171875-7.847656-32.429687-8.710937-36.226563-19.722656-78.023438-26.730469-118.707032-19.902344-3.902343.542969-6.925781 3.683594-7.320312 7.605469-.144531 1.304688-9.753906 102.152344 47.71875 160.316406-1.785156 3.199219-3.78125 6.664063-6.109375 10.640625-10.582031 17.917969-23.75 40.292969-25.335937 59.628907-.320313 3.824218 1.953124 7.390624 5.554687 8.714843 3.601563 1.328125 7.644531.085938 9.882813-3.03125 4.117187-5.183593 9.5625-9.148437 15.761718-11.476562-7.425781 31.640625-23.597656 113.75-5.121094 163.097656 1.34375 3.558594 4.882813 5.800781 8.675782 5.492187 3.792968-.308593 6.925781-3.09375 7.671875-6.824218 1.921875-6.539063 6.257812-12.101563 12.128906-15.566406 9.871094 26.660156 45.394531 98.734374 140.203125 98.734374 3.425781-.019531 6.511719-2.085937 7.832031-5.25 1.316407-3.164062.617188-6.808593-1.785156-9.257812-4.15625-3.742188-5.085937-9.90625-2.207031-14.703125 8.558594.101563 16.820312 3.167969 23.378906 8.667969 2.082031 2.894531 2.5625 6.644531 1.28125 9.96875-.613281 2.429687-.125 5.007812 1.332031 7.046875 1.457031 2.039062 3.738281 3.335937 6.238281 3.542969.894532.078124 6.492188.503906 14.785157.503906 24.75 0 73.515625-3.875 92.160156-32.84375 5.839844 5.050781 10.898437 11.226562 10.371094 15.417968-.433594 3.398438 1.210937 6.726563 4.171875 8.449219 2.964844 1.726563 6.667968 1.507813 9.410156-.546875 34.9375-28.167968 58.953125-67.640625 67.910156-111.617187l18.773438 9.429687c2.515625 1.257813 5.492187 1.195313 7.957031-.167968 2.460937-1.363282 4.089844-3.855469 4.355469-6.660157 5.667968-56.890625-11.613282-111.734375-20.941406-136.285156 5.628906.933594 11.046874 2.878906 15.984374 5.734375 2.859376 2.054688 6.683594 2.140625 9.632813.21875 2.949219-1.917969 4.417969-5.453125 3.695313-8.894531-4.769532-14.363281-11.460938-28.019531-19.882813-40.59375-1.953125-3.292969-3.804687-6.433594-5.339844-9.148438 60.234375-57.78125 50.328125-161.449219 50.148438-162.738281zm-494.078125 13.011719c33.089844 11.785156 58.265625 26.019531 103.578125 103.101562 2.386719 4.0625 7.617187 5.417969 11.679687 3.027344s5.417969-7.617187 3.03125-11.679687c-36.746094-62.507813-62.117187-86.539063-87.707031-100.003907 25.410156.648438 50.269531 7.535157 72.386719 20.054688.570312.425781 1.195312.777343 1.855468 1.046875 21.382813 12.472656 38.832032 30.710937 50.34375 52.625 2.128907 3.96875 6.96875 5.601562 11.0625 3.734375 4.09375-1.867188 6.035157-6.59375 4.433594-10.796875-5.753906-11.117188-13.019531-21.382813-21.597656-30.5.535156.128906 1.082031.210937 1.632812.238281 2.554688 0 4.972657-1.144531 6.59375-3.117187 1.621094-1.976563 2.273438-4.574219 1.777344-7.078126-2.054687-14.539062 5.128906-28.824218 18.03125-35.839843-.230468 11 2.164063 24.480469 13.898438 30.351562 3.957031 1.929688 8.734375.578125 11.09375-3.140625.734375-1.152344 16.929687-25.121094 71.773437-21.109375-5.871093 5.667969-10.351562 12.613281-13.097656 20.300781-.460937 1.046876-.703125 2.179688-.707031 3.328126v.304687c.003906 1.046875.203125 2.082031.585937 3.054687v.15625c.40625 1.042969 1.015625 1.992188 1.792969 2.796876 2.449219 2.433593 6.125 3.152343 9.308594 1.816406 20.175781-6.488282 42.035156-5.296875 61.390625 3.339844-10.429688 10.269531-19.183594 22.113281-25.941407 35.097656-1.820312 4.257812.089844 9.191406 4.304688 11.113281 4.214844 1.925781 9.191406.132813 11.21875-4.03125 7.359375-14.273437 17.402344-26.992187 29.574219-37.460937.886719-.519532 1.671875-1.199219 2.3125-2 26.097656-21.621094 58.777343-33.714844 92.664062-34.285157-25.601562 13.464844-50.953125 37.496094-87.695312 100.003907-2.390625 4.0625-1.035157 9.289062 3.027343 11.679687s9.292969 1.035156 11.683594-3.027344c45.234375-76.945312 70.398438-91.265625 103.578125-103.09375 1.160157 34.9375-3.253906 139.367188-94.722656 164.769531-4.664063-33.117187-30.257813-59.390624-63.242187-64.921874-32.984376-5.535157-65.753907 10.949218-80.96875 40.730468-15.222657-29.78125-47.996094-46.261718-80.984376-40.722656-32.984374 5.542969-58.574218 31.828125-63.230468 64.949219-17.164063-4.589844-33.042969-13.054688-46.421875-24.746094-.257813-.308594-.546875-.59375-.851563-.851563-45.738281-41.210937-48.300781-111.71875-47.445312-139.214843zm366.933594 175.574219c0 32.988281-26.746094 59.734374-59.734376 59.734374-32.988281 0-59.734374-26.746093-59.734374-59.734374 0-32.992188 26.746093-59.734376 59.734374-59.734376 32.972657.039063 59.695313 26.757813 59.734376 59.734376zm-136.535157 0c0 32.988281-26.742187 59.734374-59.734375 59.734374-32.988281 0-59.730468-26.746093-59.730468-59.734374 0-32.992188 26.742187-59.734376 59.730468-59.734376 32.976563.039063 59.695313 26.757813 59.734375 59.734376zm204.1875-8.003907c3.328125 5.621094 7.25 12.269531 10.597657 18.507813-6.082032-1.328125-12.292969-1.988282-18.519532-1.972656-2.90625.003906-5.613281 1.484374-7.179687 3.933593-1.570313 2.449219-1.78125 5.527344-.566407 8.167969 17.3125 40.53125 26.09375 84.191406 25.796876 128.265625l-17.980469-9.011719c-2.519531-1.261718-5.5-1.203125-7.960938.164063-2.464843 1.363281-4.097656 3.859375-4.363281 6.664062-5.074219 50.96875-36.84375 87.550781-53.179688 103.25-5.726562-8.628906-13.265624-15.910156-22.089843-21.332031-2.21875-1.363281-4.9375-1.636719-7.382813-.75-2.449218.890625-4.355468 2.847656-5.179687 5.316406-9.214844 27.5625-58.699219 32.09375-85.675781 31.417969-.265626-5.273437-2.152344-10.339844-5.402344-14.503906-11.679688-15.046875-37.75-15.445313-40.683594-15.445313-2.265625 0-4.433594.898438-6.035156 2.5-7.296875 6.636719-10.472656 16.679688-8.3125 26.308594-90.015625-8.101562-111.539063-91.105469-112.441406-94.839844-.566407-2.316406-2.078126-4.289062-4.164063-5.441406s-4.558594-1.378906-6.820313-.628906c-7.476562 2.378906-14.285156 6.496094-19.863281 12.015625-10.191406-58.152344 13.449219-145.75 13.71875-146.773438.6875-2.558593.144531-5.296875-1.46875-7.398437-1.613281-2.105469-4.113281-3.339844-6.765625-3.34375-6.410156-.011719-12.761718 1.222656-18.703125 3.636718 4.851563-10.171874 10.222657-20.089843 16.09375-29.707031 1.636719-2.78125 3.121094-5.316406 4.539063-7.78125 14.742187 11.132813 31.632812 19.09375 49.605468 23.382813 2.917969 34.101562 28.078126 62.144531 61.667969 68.734375 33.589844 6.589843 67.476563-9.871094 83.066407-40.347657 15.589843 30.476563 49.488281 46.9375 83.078124 40.339844 33.59375-6.597656 58.746094-34.652344 61.65625-68.761718 16.867188-4.03125 32.804688-11.273438 46.929688-21.335938 1.257812 2.136719 2.5625 4.363281 3.988281 6.769531zm0 0"/><path d="m397.214844 292c-2.554688-1.769531-5.871094-2.007812-8.652344-.625-13.390625 5.996094-27.335938 10.671875-41.632812 13.960938-14.8125 3.683593-29.847657 6.378906-45.015626 8.074218-30.71875 3.550782-61.746093 3.550782-92.464843 0-15.164063-1.742187-30.195313-4.445312-45.015625-8.089844-.167969-.046874-.339844-.078124-.511719-.105468-14.011719-3.285156-27.675781-7.917969-40.796875-13.832032-2.785156-1.394531-6.105469-1.164062-8.667969.605469-2.5625 1.765625-3.960937 4.789063-3.648437 7.886719 3.902344 23.066406 15.960937 43.960938 33.980468 58.878906.523438 22.519532 6.824219 44.527344 18.296876 63.914063 1.507812 2.679687 4.339843 4.339843 7.414062 4.34375 2.503906.007812 4.878906-1.085938 6.503906-2.984375 1.628906-1.898438 2.339844-4.417969 1.945313-6.886719-.839844-12.164063.863281-24.371094 5-35.839844 23.089843 8.078125 47.425781 12 71.886719 11.578125 24.386718.394532 48.652343-3.519531 71.679687-11.5625 4.113281 11.445313 5.792969 23.621094 4.941406 35.753906-.6875 4.082032 1.652344 8.066407 5.550781 9.457032 3.894532 1.386718 8.226563-.21875 10.277344-3.816406 11.445313-19.304688 17.75-41.222657 18.3125-63.65625 18.191406-14.953126 30.375-35.972657 34.304688-59.1875.296875-3.101563-1.117188-6.113282-3.6875-7.867188zm-265.0625 21.460938c5.121094 1.832031 11.460937 3.890624 18.773437 5.972656-1.890625 5.621094-3.34375 11.375-4.351562 17.21875-6.03125-6.898438-10.902344-14.730469-14.421875-23.191406zm29.644531 41.523437c.226563-10.761719 2.214844-21.410156 5.886719-31.523437 8.246094 1.847656 16.578125 3.425781 24.996094 4.726562-8.863282 11.875-16.152344 24.84375-21.683594 38.589844 0 .082031-.085938.167968-.121094.253906-2.199219 5.5-4.050781 11.132812-5.546875 16.863281-2.535156-9.421875-3.726563-19.15625-3.53125-28.910156zm28.476563 10.433594c5.910156-12.398438 13.3125-24.03125 22.042968-34.636719 28.84375 2.988281 57.917969 2.988281 86.765625 0 8.734375 10.640625 16.148438 22.296875 22.09375 34.714844-21.015625 7.214844-43.125 10.707031-65.339843 10.316406-22.292969.394531-44.484376-3.125-65.5625-10.394531zm155.859374 18.527343c-1.46875-5.6875-3.300781-11.277343-5.484374-16.734374l-.113282-.246094v-.113282c-5.582031-13.757812-12.890625-26.75-21.75-38.664062 8.648438-1.320312 16.988282-2.894531 25.027344-4.726562 3.714844 10.203124 5.691406 20.957031 5.855469 31.8125.191406 9.675781-1 19.332031-3.535157 28.671874zm18.773438-47.113281c-1.035156-5.914062-2.53125-11.734375-4.46875-17.417969 7.480469-2.082031 13.898438-4.152343 19.105469-5.972656-3.566407 8.542969-8.507813 16.445313-14.625 23.390625zm0 0"/><path d="m187.566406 188.078125c-10.351562 0-19.6875 6.238281-23.648437 15.804687-3.964844 9.566407-1.773438 20.578126 5.546875 27.898438 7.324218 7.320312 18.332031 9.511719 27.898437 5.550781 9.566407-3.964843 15.804688-13.296875 15.804688-23.652343 0-14.140626-11.460938-25.601563-25.601563-25.601563zm0 34.132813c-4.710937 0-8.53125-3.820313-8.53125-8.53125 0-4.714844 3.820313-8.535157 8.53125-8.535157 4.714844 0 8.535156 3.820313 8.535156 8.535157 0 4.710937-3.820312 8.53125-8.535156 8.53125zm0 0"/><path d="m324.101562 188.078125c-14.140624 0-25.601562 11.460937-25.601562 25.601563 0 14.136718 11.460938 25.597656 25.601562 25.597656 14.136719 0 25.601563-11.460938 25.601563-25.597656 0-14.140626-11.464844-25.601563-25.601563-25.601563zm0 34.132813c-4.714843 0-8.535156-3.820313-8.535156-8.53125 0-4.714844 3.820313-8.535157 8.535156-8.535157 4.710938 0 8.53125 3.820313 8.53125 8.535157 0 4.710937-3.820312 8.53125-8.53125 8.53125zm0 0"/></svg>