<svg height="512pt" viewBox="0 0 512 512.00197" width="512pt" xmlns="http://www.w3.org/2000/svg"><path d="m144.042969 107.523438-61.355469 94.121093c-13.898438-1.996093-27.25-6.789062-39.25-14.078125-5.285156-3.199218-10.058594-7.167968-14.167969-11.777344-12.628906-13.910156-20.734375-34.390624-20.734375-64.855468-.019531-7.632813.609375-15.253906 1.875-22.78125 1.019532-6.09375 2.5625-12.089844 4.609375-17.921875 11.121094-30.6875 36.882813-53.757813 68.609375-61.4375 2.449219-.605469 5.042969-.085938 7.070313 1.414062 2.027343 1.503907 3.285156 3.828125 3.425781 6.347657 2.730469 51.457031 26.878906 78.507812 49.917969 90.96875zm0 0" fill="#fdc008"/><path d="m503.46875 110.933594c0 30.464844-8.109375 50.945312-20.738281 64.855468-4.105469 4.609376-8.882813 8.578126-14.164063 11.777344-12 7.289063-25.351562 12.082032-39.253906 14.078125l-3.667969-5.632812-57.6875-88.488281c23.042969-12.460938 47.191407-39.511719 49.921875-90.96875-.003906-.820313.171875-1.636719.511719-2.386719 1.429687-4.113281 5.765625-6.445313 9.984375-5.375 31.734375 7.695312 57.515625 30.753906 68.691406 61.4375 1.980469 5.84375 3.492188 11.835937 4.523438 17.921875 1.269531 7.527344 1.894531 15.148437 1.878906 22.78125zm0 0" fill="#ff9701"/><path d="m477.867188 110.933594c0 30.464844-8.105469 50.945312-20.734376 64.855468-4.109374 4.609376-8.882812 8.578126-14.167968 11.777344-5.4375 3.457032-11.246094 6.289063-17.320313 8.445313l-57.6875-88.488281c23.042969-12.460938 47.191407-39.511719 49.921875-90.96875-.003906-.820313.171875-1.636719.511719-2.386719 24.835937 10.324219 44.125 30.699219 53.078125 56.0625 1.976562 5.84375 3.488281 11.835937 4.523438 17.921875 1.265624 7.527344 1.894531 15.148437 1.875 22.78125zm0 0" fill="#fdc008"/><path d="m435.199219 247.46875v105.640625h-358.398438v-105.640625c-.027343-95.394531 74.710938-174.078125 169.984375-178.945312.449219-.085938.914063-.085938 1.363282 0 2.5625-.167969 5.207031-.253907 7.851562-.253907 98.96875 0 179.199219 80.230469 179.199219 179.199219zm0 0" fill="#c42828"/><path d="m409.601562 247.46875v105.640625h-332.800781v-105.640625c-1.117187-94.226562 71.699219-172.847656 165.734375-178.945312.441406-.085938.890625-.085938 1.332032 0 94.035156 6.097656 166.851562 84.71875 165.734374 178.945312zm0 0" fill="#f34335"/><path d="m477.867188 418.136719c.207031 22.171875-7.75 43.644531-22.355469 60.328125-13.660157 15.699218-33.382813 24.800781-54.1875 25.003906h-290.644531c-42.328126 0-76.546876-38.230469-76.546876-85.332031-.167968-17.757813 6.210938-34.953125 17.921876-48.300781 10.914062-12.519532 26.65625-19.785157 43.261718-19.96875h321.367188c33.792968 0 61.183594 30.550781 61.183594 68.269531zm0 0" fill="#c42828"/><path d="m452.269531 418.136719c.230469 22.097656-7.554687 43.53125-21.914062 60.328125-13.246094 15.632812-32.617188 24.757812-53.105469 25.003906h-268.097656c-41.480469 0-75.019532-38.230469-75.019532-85.332031-.1875-17.695313 6.054688-34.859375 17.5625-48.300781 10.585938-12.46875 26.046876-19.75 42.402344-19.96875h298.207032c33.117187 0 59.964843 30.550781 59.964843 68.269531zm0 0" fill="#f34335"/><path d="m315.734375 145.070312c-2.859375-.035156-5.714844.191407-8.535156.679688-29.398438 4.167969-51.242188 29.355469-51.199219 59.050781.042969-10.828125-2.910156-21.460937-8.53125-30.71875v-.085937c-10.808594-17.957032-30.242188-28.933594-51.199219-28.925782-2.777343-.03125-5.546875.195313-8.277343.679688-23.09375 3.183594-42.210938 19.535156-48.929688 41.859375-6.71875 22.320313.195312 46.507813 17.695312 61.90625l4.183594 3.328125c10.1875 7.636719 22.59375 11.742188 35.328125 11.691406h119.464844c12.734375.050782 25.136719-4.054687 35.328125-11.691406l4.179688-3.328125c18.636718-16.417969 25.152343-42.65625 16.367187-65.886719-8.785156-23.226562-31.039063-38.585937-55.875-38.558594zm0 0" fill="#fff"/><path d="m230.402344 204.800781c0 18.851563-15.285156 34.132813-34.132813 34.132813-18.851562 0-34.136719-15.28125-34.136719-34.132813 0-18.851562 15.285157-34.132812 34.136719-34.132812 18.847657 0 34.132813 15.28125 34.132813 34.132812zm0 0" fill="#fdc008"/><path d="m349.867188 204.800781c0 18.851563-15.28125 34.132813-34.132813 34.132813s-34.132813-15.28125-34.132813-34.132813c0-18.851562 15.28125-34.132812 34.132813-34.132812s34.132813 15.28125 34.132813 34.132812zm0 0" fill="#fdc008"/><path d="m213.335938 204.800781c0 9.425781-7.644532 17.066407-17.066407 17.066407-9.425781 0-17.070312-7.640626-17.070312-17.066407s7.644531-17.066406 17.070312-17.066406c9.421875 0 17.066407 7.640625 17.066407 17.066406zm0 0" fill="#2c2f38"/><path d="m332.800781 204.800781c0 9.425781-7.640625 17.066407-17.066406 17.066407s-17.066406-7.640626-17.066406-17.066407 7.640625-17.066406 17.066406-17.066406 17.066406 7.640625 17.066406 17.066406zm0 0" fill="#2c2f38"/><path d="m256 349.867188v68.269531c0 14.136719-11.460938 25.597656-25.597656 25.597656-14.140625 0-25.601563-11.460937-25.601563-25.597656 0-14.140625-11.460937-25.601563-25.601562-25.601563-14.136719 0-25.597657 11.460938-25.597657 25.601563v8.53125c0 14.140625-11.460937 25.601562-25.601562 25.601562-14.136719 0-25.597656-11.460937-25.597656-25.601562v-76.800781zm0 0" fill="#00bbd3"/><path d="m315.734375 264.535156c0 11.605469-10.070313 25.089844-25.601563 33.707032-15.722656 8.832031-34.25 11.25-51.710937 6.742187-5.773437-1.5625-11.332031-3.828125-16.554687-6.742187-15.53125-8.617188-25.597657-22.101563-25.597657-33.707032 0-18.859375 26.707031-25.601562 59.730469-25.601562s59.734375 6.742187 59.734375 25.601562zm0 0" fill="#e81e63"/><path d="m196.269531 179.203125c0 9.425781-7.644531 17.066406-17.070312 17.066406s-17.066407-7.640625-17.066407-17.066406 7.640626-17.066406 17.066407-17.066406 17.070312 7.640625 17.070312 17.066406zm0 0" fill="#fff"/><path d="m171.09375 349.867188h-59.734375s-6.738281-67.242188 33.539063-94.292969c.167968-.085938.253906-.167969.425781-.253907 2.9375-1.710937 6.605469-1.527343 9.359375.464844 2.75 1.996094 4.066406 5.425782 3.355468 8.75-5.460937 24.148438-10.921874 67.328125 13.054688 85.332032zm0 0" fill="#f9eab0"/><path d="m162.5625 349.867188h-51.203125s-6.738281-67.242188 33.539063-94.292969c.167968-.085938.253906-.167969.425781-.253907 3.300781 1.789063 5.007812 5.554688 4.179687 9.214844-5.460937 24.148438-10.921875 67.328125 13.058594 85.332032zm0 0" fill="#ffebb2"/><path d="m315.734375 179.203125c0 9.425781-7.640625 17.066406-17.066406 17.066406s-17.066407-7.640625-17.066407-17.066406 7.640626-17.066406 17.066407-17.066406 17.066406 7.640625 17.066406 17.066406zm0 0" fill="#fff"/><path d="m400.640625 349.867188h-59.734375c23.980469-18.003907 18.519531-61.183594 13.058594-85.332032-.851563-3.753906.984375-7.601562 4.4375-9.300781 2.71875-1.597656 6.117187-1.460937 8.703125.339844 40.277343 27.050781 33.535156 94.292969 33.535156 94.292969zm0 0" fill="#f9eab0"/><path d="m392.535156 349.867188h-51.628906c23.980469-18.003907 18.519531-61.183594 13.058594-85.332032-.851563-3.753906.984375-7.601562 4.4375-9.300781.167968.085937.425781.253906.597656.339844 40.277344 27.050781 33.535156 94.292969 33.535156 94.292969zm0 0" fill="#ffebb2"/><path d="m196.269531 230.402344c14.136719 0 25.597657-11.460938 25.597657-25.601563 0-14.136719-11.460938-25.597656-25.597657-25.597656-14.140625 0-25.601562 11.460937-25.601562 25.597656 0 14.140625 11.460937 25.601563 25.601562 25.601563zm0-34.132813c4.710938 0 8.53125 3.820313 8.53125 8.53125 0 4.714844-3.820312 8.535157-8.53125 8.535157-4.714843 0-8.535156-3.820313-8.535156-8.535157 0-4.710937 3.820313-8.53125 8.535156-8.53125zm0 0"/><path d="m315.734375 230.402344c14.136719 0 25.601563-11.460938 25.601563-25.601563 0-14.136719-11.464844-25.597656-25.601563-25.597656s-25.601563 11.460937-25.601563 25.597656c0 14.140625 11.464844 25.601563 25.601563 25.601563zm0-34.132813c4.710937 0 8.535156 3.820313 8.535156 8.53125 0 4.714844-3.824219 8.535157-8.535156 8.535157s-8.535156-3.820313-8.535156-8.535157c0-4.710937 3.824219-8.53125 8.535156-8.53125zm0 0"/><path d="m481.171875 188.777344c20.460937-16.980469 30.828125-42.976563 30.828125-77.84375 0-83.4375-62.429688-105.605469-81.550781-110.410156-4.921875-1.226563-10.128907-.195313-14.210938 2.816406-4.078125 3.011718-6.597656 7.683594-6.875 12.746094-2.5625 48.308593-24.945312 71.03125-40.859375 81.1875-28.742187-21.605469-63.117187-34.453126-98.984375-36.992188 6.726563-13.082031 21.148438-20.300781 35.652344-17.851562 4.539063 1.035156 9.070313-1.761719 10.183594-6.285157 1.109375-4.523437-1.609375-9.101562-6.113281-10.285156-13.734376-2.816406-28.015626.464844-39.144532 8.992187-.949218-13.179687-7.464844-25.332031-17.917968-33.414062-3.921876-2.617188-9.222657-1.558594-11.835938 2.363281-2.617188 3.917969-1.558594 9.21875 2.363281 11.835938 8.582031 7.480469 12.53125 18.96875 10.359375 30.148437-2.894531-3.121094-6.203125-5.828125-9.839844-8.039062-14.675781-8.953125-34.132812-10.046875-57.863281-3.285156-4.535156 1.292968-7.160156 6.019531-5.863281 10.554687s6.023438 7.15625 10.554688 5.863281c18.773437-5.367187 33.621093-4.933594 44.050781 1.296875 3.449219 2.058594 6.441406 4.800781 8.789062 8.0625-36.015625 2.476563-70.542969 15.34375-99.398437 37.042969-15.914063-10.152344-38.320313-32.878906-40.855469-81.175781-.269531-5.066407-2.789063-9.746094-6.867187-12.761719-4.078126-3.011719-9.289063-4.046875-14.210938-2.820312-19.132812 4.804687-81.5625 26.972656-81.5625 110.410156 0 34.867187 10.367188 60.863281 30.832031 77.84375.355469.375.742188.714844 1.160157 1.015625 11.917968 9.113281 25.734374 15.429687 40.421874 18.480469-2.753906 12.882812-4.144531 26.019531-4.144531 39.195312v99.890625c-26.683593 13.386719-43.289062 40.929687-42.667969 70.777344 0 51.753906 38.144532 93.867187 85.035157 93.867187h290.730469c46.890624 0 85.035156-42.113281 85.035156-93.867187.617187-29.847657-15.984375-57.390625-42.667969-70.777344v-99.890625c-.003906-13.175781-1.394531-26.3125-4.148437-39.195312 14.691406-3.050782 28.503906-9.367188 40.421874-18.480469.417969-.300781.808594-.640625 1.164063-1.015625zm-435.039063-9.789063c4.792969-21.300781 17.429688-40.015625 35.394532-52.417969 2.636718-1.648437 4.171875-4.597656 4.003906-7.703124-.167969-3.101563-2.011719-5.871094-4.808594-7.222657-2.800781-1.351562-6.113281-1.074219-8.648437.722657-18.921875 12.792968-32.957031 31.613281-39.824219 53.394531-10.980469-16.097657-16.316406-35.375-15.183594-54.828125-.035156-8.105469.722656-16.199219 2.269532-24.15625 12.621093-3.480469 25.867187-4.03125 38.734374-1.613282 3.019532.6875 6.175782-.320312 8.246094-2.625 2.066406-2.308593 2.71875-5.554687 1.707032-8.484374-1.011719-2.929688-3.53125-5.078126-6.582032-5.617188-11.984375-2.335938-24.296875-2.460938-36.328125-.375 11.167969-25.46875 33.503907-44.332031 60.484375-51.078125 2.699219 51.445313 25.6875 78.222656 44.210938 91.605469-24.78125 22.503906-43.113282 51.214844-53.101563 83.164062-10.917969-2.246094-21.300781-6.582031-30.574219-12.765625zm423.203126 239.148438c0 42.347656-30.492188 76.796875-67.96875 76.796875h-290.730469c-37.480469 0-67.96875-34.449219-67.96875-76.796875-.84375-25.035157 14.113281-47.910157 37.382812-57.175781h.085938c4.429687-1.503907 9.054687-2.339844 13.730469-2.472657v68.179688c0 18.851562 15.28125 34.132812 34.132812 34.132812s34.132812-15.28125 34.132812-34.132812v-8.53125c0-9.425781 7.640626-17.066407 17.066407-17.066407s17.070312 7.640626 17.070312 17.066407c0 18.851562 15.28125 34.132812 34.132813 34.132812 18.851562 0 34.132812-15.28125 34.132812-34.132812v-59.734375h152.132813c5.171875.007812 10.304687.875 15.195312 2.558594h.085938c23.273437 9.265624 38.230469 32.140624 37.386719 57.175781zm-319.703126-155.386719c-4.625 20.789062-9.128906 55.023438 3.414063 78.585938h-33.535156c-.28125-17.296876 2.070312-59.546876 30.121093-78.585938zm-4.566406-57.949219c0-28.277343 22.925782-51.199219 51.203125-51.199219 28.273438 0 51.199219 22.921876 51.199219 51.199219 0 4.714844 3.820312 8.535157 8.53125 8.535157 4.714844 0 8.535156-3.820313 8.535156-8.535157-.046875-22.976562 15.222656-43.167969 37.339844-49.386719 22.121094-6.21875 45.675781 3.058594 57.609375 22.691407 11.9375 19.636719 9.328125 44.816406-6.375 61.589843-.453125-.136718-.851563-.308593-1.3125-.4375-3.054687-.863281-6.335937.023438-8.535156 2.3125-1.886719 1.996094-2.6875 4.785157-2.140625 7.476563-5.648438 3.335937-11.90625 5.511719-18.40625 6.402344-4.589844-12.886719-21.042969-25.046875-66.714844-25.046875-45.667969 0-62.121094 12.160156-66.738281 25.046875-6.5-.890625-12.757813-3.066407-18.40625-6.402344.542969-2.691406-.253907-5.480469-2.140625-7.476563-2.195313-2.296874-5.480469-3.1875-8.535156-2.3125-.453126.128907-.851563.300782-1.3125.4375-8.875-9.449218-13.808594-21.929687-13.800782-34.894531zm247.40625 136.535157h-33.535156c12.5625-23.550782 8.054688-57.78125 3.414062-78.566407 27.957032 19.039063 30.371094 61.261719 30.121094 78.566407zm-136.472656 0h-81.628906c-16.851563-15.359376-13.390625-51.355469-8.019532-75.296876 7.074219 3.46875 14.710938 5.652344 22.550782 6.449219 6.484375 17.472657 20.363281 31.183594 37.914062 37.453125l.589844.238282c18.339844 7.402343 38.832031 7.402343 57.171875 0l.589844-.238282c17.550781-6.269531 31.433593-19.980468 37.914062-37.453125 7.839844-.796875 15.476563-2.980469 22.554688-6.449219 5.367187 23.941407 8.832031 59.945313-8.023438 75.296876zm-145.066406 17.066406h136.535156v59.734375c0 9.425781-7.640625 17.066406-17.066406 17.066406-9.425782 0-17.066406-7.640625-17.066406-17.066406 0-18.851563-15.285157-34.132813-34.136719-34.132813-18.847657 0-34.132813 15.28125-34.132813 34.132813v8.53125c0 9.425781-7.640625 17.066406-17.066406 17.066406s-17.066406-7.640625-17.066406-17.066406zm170.667968-85.332032c-4.714843 0-8.535156 3.820313-8.535156 8.53125v14.609376c-11.140625 3.277343-22.992187 3.277343-34.132812 0v-14.609376c0-4.710937-3.820313-8.53125-8.53125-8.53125-4.714844 0-8.535156 3.820313-8.535156 8.53125v6.707032c-9.003907-4.917969-15.285157-13.667969-17.066407-23.773438 0-10.519531 19.625-17.066406 51.199219-17.066406s51.199219 6.546875 51.199219 17.066406c-1.777344 10.105469-8.058594 18.855469-17.066407 23.773438v-6.707032c0-4.710937-3.820312-8.53125-8.53125-8.53125zm135.066407 68.265626h-7.066407c.375-21.128907-2.867187-71.929688-40.242187-94.464844 15.875-20.199219 19.054687-47.605469 8.21875-70.902344-10.832031-23.296875-33.839844-38.527344-59.515625-39.402344-25.679688-.875-49.667969 12.757813-62.0625 35.261719-12.378906-22.53125-36.378906-36.1875-62.074219-35.320313-25.695312.867188-48.71875 16.105469-59.554687 39.421876-10.835938 23.316406-7.640625 50.742187 8.265625 70.941406-37.378907 22.535156-40.621094 73.335937-40.234375 94.464844h-7.058594c-3.355469.015624-6.703125.300781-10.007812.851562v-94.71875c0-94.257812 76.410156-170.667969 170.664062-170.667969 94.257812 0 170.667969 76.410157 170.667969 170.667969v94.71875c-3.304688-.550781-6.648438-.835938-10-.851562zm-34.476563-232.746094c18.527344-13.382813 41.5-40.109375 44.09375-91.519532 27.046875 6.632813 49.464844 25.484376 60.644532 50.992188-12.03125-2.078125-24.339844-1.949219-36.324219.375-3.09375.492188-5.667969 2.632812-6.714844 5.582031-1.042969 2.949219-.390625 6.234375 1.703125 8.558594 2.097656 2.328125 5.296875 3.320313 8.339844 2.585937 12.863281-2.414062 26.109375-1.859374 38.730468 1.613282 1.546876 7.957031 2.308594 16.050781 2.269532 24.15625 1.136718 19.453125-4.203125 38.730468-15.179688 54.828125-6.867187-21.78125-20.902344-40.601563-39.824218-53.394531-2.535157-1.796876-5.847657-2.074219-8.648438-.722657-2.800781 1.351563-4.640625 4.121094-4.808594 7.222657-.167968 3.105468 1.363282 6.054687 4 7.703124 17.96875 12.402344 30.605469 31.117188 35.398438 52.417969-9.273438 6.195313-19.65625 10.542969-30.578125 12.800781-9.980469-31.964843-28.3125-60.683593-53.101563-83.199218zm0 0"/></svg>