<svg height="512pt" viewBox="0 0 512.06197 512" width="512pt" xmlns="http://www.w3.org/2000/svg"><path d="m433.855469 102.867188c-.882813 17.976562-6.28125 35.441406-15.703125 50.773437l-6.230469.257813-36.4375 1.363281-.425781-.765625-37.546875-72.535156c22.796875-15.660157 40.601562-37.550782 51.285156-63.058594.511719-1.28125.941406-2.648438 1.367187-3.925782.785157-3.039062 3.175782-5.402343 6.226563-6.148437 3.046875-.75 6.261719.234375 8.363281 2.5625 15.742188 20.050781 25.53125 44.117187 28.246094 69.460937.972656 7.296876 1.261719 14.667969.855469 22.015626zm0 0" fill="#ff9701"/><path d="m412.09375 102.867188c-.878906 17.976562-6.28125 35.441406-15.699219 50.773437l-6.230469.257813-15.105468.597656-37.546875-72.535156c22.796875-15.660157 40.601562-37.550782 51.285156-63.058594 12.175781 18.632812 19.859375 39.839844 22.445313 61.949218.972656 7.296876 1.257812 14.667969.851562 22.015626zm0 0" fill="#fdc008"/><path d="m174.527344 81.960938-31.0625 66.390624-42.921875 4.609376-6.65625.679687c-9.421875-15.332031-14.820313-32.796875-15.703125-50.773437-.40625-7.347657-.121094-14.71875.855468-22.015626 2.714844-25.34375 12.503907-49.410156 28.246094-69.460937 2.101563-2.328125 5.316406-3.3125 8.363282-2.5625 3.050781.746094 5.441406 3.109375 6.226562 6.148437 10.273438 27.195313 28.652344 50.578126 52.652344 66.984376zm0 0" fill="#fdc008"/><path d="m424.46875 384.894531c15.359375 14.25 42.410156 28.585938 79.015625 7.679688 0 0-7.679687 76.714843-95.742187 55.554687l-23.722657-47.019531zm0 0" fill="#4cae50"/><path d="m452.285156 285.480469c1.054688 46.097656-16.007812 90.769531-47.53125 124.417969l-91.5625 52.480468c-18.691406 4.703125-37.898437 7.050782-57.171875 6.996094-2.902343 0-5.71875-.085938-8.535156-.171875-16.492187-.535156-32.882813-2.824219-48.894531-6.824219l-91.476563-52.652344c-31.382812-33.652343-48.378906-78.238281-47.359375-124.246093.117188-25.339844 4.324219-50.492188 12.457032-74.496094l28.671874-58.707031c18.644532-28.929688 43.882813-53.027344 73.644532-70.316406 22.273437-12.90625 47.257812-20.417969 72.957031-21.929688 2.816406-.171875 5.71875-.253906 8.535156-.253906 28.632813.171875 56.722657 7.820312 81.492188 22.183594 29.761719 17.289062 55 41.386718 73.644531 70.316406l28.671875 58.707031c8.128906 24.003906 12.335937 49.15625 12.457031 74.496094zm0 0" fill="#2e7d32"/><path d="m426.6875 285.480469c1.101562 45.90625-15.53125 90.46875-46.449219 124.417969l-89.488281 52.480468c-15.550781 3.992188-31.484375 6.28125-47.53125 6.824219-16.128906-.535156-32.152344-2.824219-47.785156-6.824219l-89.394532-52.652344c-30.785156-33.949218-47.355468-78.425781-46.285156-124.246093.113282-25.316407 4.222656-50.457031 12.175782-74.496094l28.015624-58.707031c18.089844-28.800782 42.753907-52.898438 71.96875-70.316406 21.683594-12.878907 46.128907-20.398438 71.304688-21.929688 25.175781 1.53125 49.621094 9.050781 71.304688 21.929688 29.214843 17.417968 53.878906 41.515624 71.96875 70.316406l28.015624 58.707031c7.957032 24.039063 12.066407 49.179687 12.179688 74.496094zm0 0" fill="#4cae50"/><path d="m98.492188 150.304688c-11.671876-8.957032-47.929688-30.136719-89.941407 11.871093 15.808594 28.542969 44.582031 47.542969 77.039063 50.867188 4.574218.4375 8.695312-2.773438 9.386718-7.3125l6.777344-47.429688c.441406-3.058593-.804687-6.117187-3.261718-7.996093zm0 0" fill="#4cae50"/><path d="m413.542969 150.304688c11.675781-8.957032 47.933593-30.136719 89.941406 11.871093-15.804687 28.542969-44.582031 47.542969-77.039063 50.867188-4.570312.4375-8.691406-2.773438-9.386718-7.3125l-6.773438-47.429688c-.441406-3.058593.804688-6.117187 3.257813-7.996093zm0 0" fill="#2e7d32"/><path d="m111.890625 464.339844c-3.949219-6.460938-7.128906-13.363282-9.472656-20.5625-4.265625-11.417969-2.5-24.214844 4.695312-34.050782 11.179688-15.792968 33.484375-25.265624 48.46875-30.113281 8.398438-2.710937 17.480469 1.429688 20.941407 9.550781l19.363281 45.171876c.265625.628906.464843 1.28125.59375 1.949218 8.066406 42.023438-8.726563 67.222656-8.726563 67.222656h-110.933594s-8.535156-42.664062 68.265626-42.664062" fill="#4cae50"/><path d="m434.964844 503.507812h-110.933594s-17.066406-25.597656-8.535156-68.265624l23.039062-53.761719 2.5625-5.972657s45.824219 9.132813 63.574219 34.21875c7.191406 9.835938 8.957031 22.632813 4.691406 34.050782-2.34375 7.199218-5.523437 14.101562-9.472656 20.5625 40.875 10.242187 35.074219 39.167968 35.074219 39.167968zm0 0" fill="#2e7d32"/><path d="m412.007812 503.507812h-87.976562s-17.066406-25.597656-8.535156-68.265624l23.039062-53.761719c16.8125 5.070312 31.800782 14.875 43.179688 28.246093 7.195312 9.835938 8.960937 22.632813 4.695312 34.050782-1.976562 6.070312-4.550781 11.929687-7.679687 17.492187-.109375.273438-.253907.53125-.429688.765625-.425781.769532-.9375 1.539063-1.363281 2.304688 40.875 10.242187 35.070312 39.167968 35.070312 39.167968zm0 0" fill="#4cae50"/><path d="m251.753906 151.082031c-3 6.097657-4.464844 12.835938-4.269531 19.625 0-30.804687-23.292969-41.300781-53.246094-42.578125.679688-.070312 1.363281-.101562 2.046875-.085937 25.257813 0 46.761719 5.632812 55.46875 23.039062zm0 0" fill="#e6e7e8"/><path d="m375.484375 187.777344c.039063 18.230468-8.296875 35.46875-22.613281 46.761718-.972656-1.636718-2.054688-3.207031-3.242188-4.695312 16.691406-16.859375 21.820313-42 13.070313-64.050781s-29.722657-36.835938-53.433594-37.664063c2.136719-.085937 4.269531-.085937 6.488281-.085937 32.988282 0 59.730469 26.742187 59.730469 59.734375zm0 0" fill="#e6e7e8"/><path d="m366.953125 187.777344c.042969 15.765625-6.1875 30.902344-17.324219 42.066406-6.277344-7.953125-14.308594-14.351562-23.464844-18.6875-5.101562-2.597656-10.484374-4.601562-16.042968-5.972656-4.9375-1.324219-10-2.125-15.105469-2.390625-3.125-.210938-6.261719-.210938-9.386719 0-5.390625.25-10.722656 1.195312-15.871094 2.816406h-8.53125l-18.433593-.085937c-5.328125-1.582032-10.832031-2.5-16.382813-2.730469-2.21875-.085938-4.523437-.085938-6.914062 0h-.339844c-.742188-.011719-1.480469.015625-2.21875.085937-4.808594.371094-9.574219 1.140625-14.25 2.304688-5.691406 1.375-11.195312 3.441406-16.386719 6.144531-2.679687 1.308594-5.277343 2.789063-7.765625 4.4375-7.707031 4.800781-14.144531 11.386719-18.773437 19.199219-1.890625-1.449219-3.683594-3.015625-5.375-4.691406-17.019531-16.726563-22.429688-41.984376-13.757813-64.214844 8.671875-22.230469 29.761719-37.148438 53.609375-37.929688 29.953125 1.277344 53.246094 11.773438 53.246094 42.578125-.195313-6.789062 1.269531-13.527343 4.269531-19.625 3 6.097657 4.464844 12.835938 4.265625 19.625 0-30.804687 23.296875-41.300781 53.246094-42.578125 32.1875 1.03125 57.730469 27.445313 57.6875 59.648438zm0 0" fill="#fff"/><path d="m375.484375 363.136719c0 6.570312-5.03125 12.800781-13.992187 18.261719l-.359376-.128907c-11.070312-3.835937-23.21875 1.5625-27.792968 12.347657l-17.84375 41.625c-1.828125 8.925781-2.597656 18.03125-2.304688 27.136718-37.628906 9.332032-76.96875 9.332032-114.601562 0 .265625-8.242187-.34375-16.488281-1.816406-24.601562-.3125-1.675782-.808594-3.308594-1.484376-4.875l-17.007812-39.679688c-4.558594-10.617187-16.59375-15.851562-27.46875-11.945312l-.351562.128906c-8.875-5.46875-13.910157-11.699219-13.910157-18.269531 0-21.417969 53.507813-38.828125 119.46875-38.828125 65.960938 0 119.464844 17.410156 119.464844 38.828125zm0 0" fill="#fdc008"/><path d="m221.886719 187.777344c-.007813 5.429687-1.738281 10.71875-4.949219 15.101562-4.808594.371094-9.574219 1.140625-14.25 2.304688-5.691406 1.375-11.195312 3.441406-16.386719 6.144531-11.808593-5-18.09375-17.96875-14.707031-30.335937 3.390625-12.367188 15.40625-20.320313 28.113281-18.609376 12.710938 1.714844 22.1875 12.570313 22.179688 25.394532zm0 0" fill="#37474f"/><path d="m341.351562 187.777344c.039063 10.121094-5.925781 19.300781-15.1875 23.378906-5.101562-2.597656-10.484374-4.601562-16.042968-5.972656-4.9375-1.324219-10-2.125-15.105469-2.390625-3.183594-4.355469-4.886719-9.621094-4.863281-15.015625 0-14.140625 11.460937-25.601563 25.601562-25.601563 14.136719 0 25.597656 11.460938 25.597656 25.601563zm0 0" fill="#37474f"/><path d="m290.152344 221.910156c-1.605469 18.144532-15.988282 32.523438-34.132813 34.132813-18.144531-1.609375-32.527343-15.988281-34.132812-34.132813 0-14.140625 15.28125-17.066406 34.132812-17.066406 18.851563 0 34.132813 2.925781 34.132813 17.066406zm0 0" fill="#e81e63"/><path d="m436.429688 460.363281c15.910156.445313 31.550781-4.167969 44.671874-13.175781 17.035157-13.105469 28.15625-32.445312 30.917969-53.757812.316407-3.179688-1.164062-6.269532-3.84375-8.007813-2.679687-1.738281-6.105469-1.835937-8.878906-.253906-23.296875 13.3125-44.707031 12.417969-63.769531-2.304688 16.96875-29.621093 25.703125-63.246093 25.292968-97.382812-.140624-23.21875-3.632812-46.296875-10.367187-68.519531 25.867187-8.839844 47.5-27.015626 60.671875-50.972657 1.636719-3.285156.992188-7.25-1.605469-9.84375-26.769531-26.769531-51.804687-30.21875-70.828125-26.378906 3.992188-10.738281 6.1875-22.058594 6.496094-33.511719.136719-.867187.136719-1.753906 0-2.625-.832031-32.363281-12.867188-63.429687-34.058594-87.902344-4.035156-4.585937-10.246094-6.613281-16.210937-5.292968-6.160157 1.394531-11.09375 5.988281-12.921875 12.035156-9.074219 23.726562-24.726563 44.371094-45.125 59.519531-50.425782-27.394531-111.292969-27.394531-161.722656 0-20.394532-15.148437-36.046876-35.796875-45.125-59.519531-1.824219-6.042969-6.753907-10.640625-12.910157-12.035156-5.964843-1.332032-12.183593.695312-16.210937 5.292968-21.207032 24.460938-33.253906 55.53125-34.09375 87.890626-.136719.871093-.136719 1.757812 0 2.628906.316406 11.449218 2.519531 22.769531 6.519531 33.503906-19.011719-3.839844-44.039063-.386719-70.824219 26.382812-2.597656 2.597657-3.246094 6.5625-1.605468 9.847657 13.167968 23.957031 34.804687 42.132812 60.671874 50.96875-6.730468 22.226562-10.21875 45.308593-10.351562 68.53125-.851562 45.902343 15.332031 90.488281 45.433594 125.152343-5.695313 11.113282-6.535156 24.085938-2.324219 35.839844 1.496094 4.40625 3.25 8.722656 5.257813 12.917969-8.707032 3.089844-16.464844 8.378906-22.519532 15.359375-7.0625 8.472656-10.195312 19.550781-8.609375 30.464844.8125 3.972656 4.308594 6.828125 8.363281 6.828125h110.933594c2.851563 0 5.515625-1.425781 7.097656-3.796875 6.320313-10.859375 10.226563-22.953125 11.460938-35.457032 32.695312 6.792969 66.4375 6.792969 99.132812 0 1.238282 12.492188 5.148438 24.570313 11.460938 35.421876 1.582031 2.371093 4.246094 3.796874 7.097656 3.796874h110.933594c4.054688 0 7.550781-2.851562 8.363281-6.828124 1.566407-10.898438-1.5625-21.953126-8.609375-30.410157-6.054687-6.980469-13.8125-12.273437-22.519531-15.359375.238281-.496094.492187-.957031.722656-1.46875 7.753907 1.550782 15.632813 2.363282 23.535157 2.421875zm54.164062-52.605469c-3.921875 10.21875-10.6875 19.101563-19.5 25.597657-15.628906 9.675781-34.492188 12.660156-52.34375 8.277343 2.578125-10.371093 1.320312-21.324218-3.542969-30.839843 3.859375-4.363281 7.484375-8.882813 10.875-13.558594 18.3125 14.257813 42.617188 18.222656 64.511719 10.523437zm-92.1875-390.648437c14.734375 17.101563 24.574219 37.859375 28.484375 60.089844-7.542969-4.113281-15.667969-7.054688-24.097656-8.71875-4.617188-.945313-9.128907 2.035156-10.070313 6.65625-.941406 4.617187 2.039063 9.125 6.65625 10.066406 10.496094 1.9375 20.320313 6.523437 28.542969 13.324219-.808594 14.242187-5.078125 28.074218-12.429687 40.300781-.855469.488281-1.605469.972656-2.347657 1.449219-16.292969-23.265625-36.785156-43.285156-60.425781-59.03125 20.648438-16.949219 36.417969-39.085938 45.6875-64.136719zm-314.324219 81.417969c8.234375-6.804688 18.070313-11.390625 28.578125-13.324219 4.617188-.941406 7.597656-5.449219 6.65625-10.066406-.945312-4.621094-5.453125-7.601563-10.070312-6.65625-8.421875 1.660156-16.542969 4.59375-24.082032 8.703125 3.875-22.148438 13.75-42.808594 28.554688-59.734375 9.285156 24.917969 25.007812 46.929687 45.566406 63.796875-23.640625 15.742187-44.132812 35.757812-60.425781 59.023437-.742187-.484375-1.527344-.964843-2.355469-1.457031-7.347656-12.222656-11.609375-26.050781-12.421875-40.285156zm-5.820312 122.144531c5.171875.792969 10.394531 1.207031 15.625 1.238281 4.710937 0 8.53125-3.820312 8.53125-8.535156 0-4.710938-3.820313-8.53125-8.53125-8.53125-30.222657-.144531-58.300781-15.636719-74.53125-41.132812 28.628906-25.429688 53.238281-18.773438 66.558593-11.492188l.15625.074219c3.746094 2.023437 7.222657 4.511719 10.351563 7.398437 3.328125 3.320313 8.71875 3.320313 12.046875 0 1.75-1.777344 2.617188-4.242187 2.363281-6.722656 17.542969-26.050781 40.761719-47.785156 67.917969-63.566406 47.730469-27.988282 106.859375-27.988282 154.589844 0 27.148437 15.773437 50.367187 37.503906 67.898437 63.546875-.234375 2.46875.625 4.910156 2.355469 6.683593 3.3125 3.339844 8.699219 3.371094 12.050781.066407 3.15625-2.90625 6.664063-5.40625 10.445313-7.4375 13.292968-7.304688 37.9375-13.988281 66.558594 11.449219-16.21875 25.492187-44.285157 40.988281-74.496094 41.132812-4.710938 0-8.53125 3.820312-8.53125 8.53125 0 4.714844 3.820312 8.535156 8.53125 8.535156 5.230468-.03125 10.453125-.445312 15.625-1.238281 6.476562 21 9.839844 42.835937 9.976562 64.808594.804688 40.621093-13.050781 80.171875-39.03125 111.40625-7.949218-7.4375-17.078125-13.507813-27.007812-17.964844 3.925781-4.320313 6.164062-9.914063 6.304687-15.753906 0-31.109375-64.394531-47.390625-128-47.390625-63.609375 0-128 16.28125-128 47.390625.132813 5.796875 2.335938 11.351562 6.210938 15.660156-9.9375 4.445313-19.074219 10.5-27.039063 17.921875-25.875-31.234375-39.679687-70.71875-38.90625-111.269531.136719-21.972657 3.5-43.808594 9.976563-64.808594zm288.410156 231.636719c-4.714844 0-8.535156 3.820312-8.535156 8.535156 0 4.710938 3.820312 8.53125 8.535156 8.53125 34.003906 0 48.453125 8.671875 54.613281 15.941406 2.367188 2.785156 4.035156 6.097656 4.863282 9.660156h-97.09375c-7.949219-18.273437-9.78125-38.628906-5.222657-58.027343.851563-4.585938-2.140625-9.007813-6.714843-9.921875-4.578126-.914063-9.039063 2.015625-10.015626 6.578125-1.453124 7.234375-2.28125 14.578125-2.476562 21.953125-32.132812 6.917968-65.367188 6.917968-97.5 0-.195312-7.371094-1.023438-14.714844-2.476562-21.945313-1.054688-4.476562-5.46875-7.308593-9.976563-6.40625-4.511719.898438-7.496094 5.210938-6.75 9.75 4.554687 19.398438 2.726563 39.75-5.210937 58.027344h-97.101563c.832031-3.566406 2.511719-6.878906 4.890625-9.660156 6.132812-7.277344 20.582031-15.949219 54.585938-15.949219 4.714843 0 8.535156-3.820312 8.535156-8.53125 0-4.714844-3.820313-8.535156-8.535156-8.535156-9.609376-.058594-19.203126.761718-28.664063 2.449218-2.328125-4.386718-4.300781-8.953124-5.90625-13.652343-3.386719-8.851563-2.046875-18.816407 3.558594-26.453125 15.550781-21.972656 57.859375-30.722656 58.285156-30.78125 4.535156-1 7.441406-5.445313 6.53125-10-.90625-4.558594-5.292969-7.550782-9.867187-6.734375-5.859376 1.253906-11.640626 2.84375-17.316407 4.753906-4.144531-3.097656-6.621093-6.238281-6.621093-8.722656 0-12.074219 44.246093-30.324219 110.933593-30.324219s110.933594 18.25 110.933594 30.324219c0 2.503906-2.558594 5.660156-6.75 8.773437-5.726563-1.933594-11.558594-3.535156-17.46875-4.804687-4.621094-.921875-9.117187 2.082031-10.039063 6.703125-.921874 4.625 2.078126 9.117187 6.703126 10.039062 11.820312 2.355469 45.328124 12.46875 58.292968 30.78125 5.59375 7.621094 6.933594 17.5625 3.558594 26.394532-1.605469 4.714843-3.585938 9.300781-5.914062 13.703124-9.460938-1.6875-19.054688-2.507812-28.664063-2.449218zm0 0"/><path d="m154.582031 241.742188c1.957031 1.488281 4.464844 2.066406 6.875 1.574218 2.414063-.492187 4.496094-2 5.714844-4.136718 5.546875-8.898438 13.597656-15.960938 23.140625-20.300782 4.582031-2.375 9.4375-4.191406 14.457031-5.410156 3.585938-.875 7.230469-1.492188 10.902344-1.851562-1.558594 3.207031-2.351563 6.726562-2.320313 10.292968 1.710938 22.816406 19.847657 40.957032 42.667969 42.664063 22.820313-1.707031 40.957031-19.847657 42.667969-42.664063.050781-3.605468-.753906-7.175781-2.339844-10.410156 3.941406.300781 7.847656.953125 11.671875 1.953125 5 1.238281 9.835938 3.042969 14.421875 5.382813 9.464844 4.339843 17.484375 11.304687 23.101563 20.070312 1.257812 2.113281 3.367187 3.578125 5.785156 4.019531.507813.101563 1.027344.148438 1.542969.144531 1.921875.003907 3.785156-.644531 5.292968-1.832031 22.734376-18.054687 31.5625-48.507812 22.011719-75.921875-9.550781-27.414062-35.394531-45.789062-64.421875-45.808594-33 0-50.679687 9.550782-59.734375 22.128907-9.054687-12.578125-26.734375-22.128907-59.734375-22.128907-37.683594.042969-68.222656 30.582032-68.265625 68.269532-.105469 21.160156 9.730469 41.140625 26.5625 53.964844zm37.546875-42.226563c-.851562.324219-1.707031.683594-2.558594 1.027344-1.015624.40625-2.074218.765625-3.0625 1.210937-7.386718-5.171875-9.476562-15.195312-4.769531-22.886718 4.703125-7.691407 14.582031-10.394532 22.546875-6.175782 7.96875 4.222656 11.277344 13.910156 7.558594 22.125-.410156.050782-.855469.179688-1.257812.238282-3.332032.441406-6.644532 1.054687-9.914063 1.84375-2.890625.71875-5.738281 1.59375-8.53125 2.617187zm63.890625 47.992187c-13.449219-1.535156-24.0625-12.148437-25.601562-25.597656 0-2.050781 0-6.289062 13.226562-7.894531 8.378907-.871094 16.828125-.851563 25.199219.058594h.164062c12.535157 1.707031 12.59375 5.796875 12.59375 7.808593-1.523437 13.457032-12.128906 24.078126-25.582031 25.625zm44.082031-52.863281c-3.582031-8.1875-.238281-17.75 7.664063-21.925781s17.683594-1.550781 22.433594 6.019531c4.746093 7.574219 2.847656 17.523438-4.351563 22.820313-.921875-.410156-1.910156-.742188-2.867187-1.121094-.785157-.304688-1.542969-.621094-2.347657-.910156-2.6875-.964844-5.441406-1.863282-8.308593-2.5625-3.582031-.925782-7.21875-1.609375-10.890625-2.046875-.453125-.078125-.886719-.222657-1.332032-.273438zm-103.816406-58.070312c45.894532 0 51.199219 19.484375 51.199219 34.132812 0 4.714844 3.820313 8.535157 8.535156 8.535157 4.710938 0 8.53125-3.820313 8.53125-8.535157 0-14.648437 5.308594-34.132812 51.203125-34.132812 20.144532 0 38.421875 11.816406 46.691406 30.1875 8.265626 18.375 4.992188 39.886719-8.371093 54.96875-3.769531-4.285157-8.042969-8.105469-12.722657-11.375 10.042969-11.390625 11.359376-28.042969 3.222657-40.863281-8.132813-12.820313-23.757813-18.726563-38.339844-14.492188s-24.613281 17.589844-24.613281 32.777344c.023437 2.261718.269531 4.515625.730468 6.730468-4.4375.414063-8.828124 1.230469-13.121093 2.433594-4.390625-.46875-8.800781-.679687-13.210938-.632812-4.226562-.039063-8.449219.148437-12.65625.570312-4.480469-1.230468-9.0625-2.042968-13.695312-2.421875.472656-2.195312.722656-4.433593.75-6.679687-.011719-15.234375-10.113281-28.613282-24.761719-32.792969-14.644531-4.183594-30.289062 1.84375-38.34375 14.773437-8.050781 12.929688-6.566406 29.628907 3.648438 40.929688-4.648438 3.304688-8.875 7.164062-12.589844 11.484375-8.601563-9.382813-13.347656-21.664063-13.285156-34.394531.027343-28.265625 22.933593-51.171875 51.199218-51.203125zm0 0"/><path d="m324.285156 238.976562c-4.710937 0-8.53125 3.820313-8.53125 8.53125 0 18.851563-15.285156 34.132813-34.132812 34.132813h-51.203125c-18.851563 0-34.132813-15.28125-34.132813-34.132813 0-4.710937-3.820312-8.53125-8.53125-8.53125-4.714844 0-8.535156 3.820313-8.535156 8.53125.027344 28.265626 22.933594 51.171876 51.199219 51.199219h51.203125c28.261718-.027343 51.171875-22.933593 51.199218-51.199219 0-4.710937-3.820312-8.53125-8.535156-8.53125zm0 0"/><path d="m273.085938 358.441406c-4.710938 0-8.535157 3.820313-8.535157 8.535156 0 4.710938-3.820312 8.53125-8.53125 8.53125-4.714843 0-8.535156-3.820312-8.535156-8.53125 0-4.714843 3.820313-8.535156 8.535156-8.535156 4.710938 0 8.53125-3.820312 8.53125-8.53125 0-4.714844-3.820312-8.535156-8.53125-8.535156-14.136719 0-25.601562 11.460938-25.601562 25.601562 0 14.136719 11.464843 25.597657 25.601562 25.597657s25.601563-11.460938 25.601563-25.597657c0-4.714843-3.820313-8.535156-8.535156-8.535156zm0 0"/></svg>