<svg height="504pt" viewBox="0 0 504.02156 504" width="504pt" xmlns="http://www.w3.org/2000/svg"><path d="m69.824219 408.707031-33.992188 6.128907c-6.683593 1.234374-13.570312-.5625-18.792969-4.910157-5.222656-4.347656-8.238281-10.792969-8.234374-17.585937.003906-12.652344 10.257812-22.910156 22.914062-22.914063-6.082031.007813-11.914062-2.40625-16.210938-6.703125-4.300781-4.300781-6.710937-10.132812-6.703124-16.210937v-4.53125c-.007813-6.082031 2.402343-11.914063 6.703124-16.210938 4.296876-4.300781 10.128907-6.710937 16.210938-6.703125-12.65625.023438-22.933594-10.21875-22.957031-22.875-.023438-12.652344 10.21875-22.929687 22.871093-22.953125 1.410157.019531 2.8125.15625 4.199219.417969l38.691407 7.050781zm0 0" fill="#00bbd3"/><path d="m495.625 341.980469v4.53125c.003906 6.078125-2.40625 11.910156-6.707031 16.210937-4.296875 4.296875-10.128907 6.710938-16.207031 6.703125 12.652343.003907 22.90625 10.261719 22.914062 22.914063.003906 6.792968-3.015625 13.238281-8.238281 17.585937-5.222657 4.347657-12.109375 6.144531-18.789063 4.910157l-10.996094-2.015626-23-4.113281-4.699218-128 27.867187-5.121093 10.828125-1.929688c1.382813-.261719 2.785156-.398438 4.195313-.417969 12.65625.023438 22.894531 10.300781 22.871093 22.953125-.023437 12.65625-10.300781 22.898438-22.953124 22.875 6.078124-.007812 11.910156 2.402344 16.207031 6.703125 4.300781 4.296875 6.710937 10.128907 6.707031 16.210938zm0 0" fill="#00828e"/><path d="m470.441406 341.980469v4.53125c.007813 6.078125-2.402344 11.910156-6.703125 16.210937-4.296875 4.296875-10.128906 6.710938-16.210937 6.703125 10.652344-.019531 19.902344 7.3125 22.3125 17.6875 2.40625 10.375-2.667969 21.035157-12.238282 25.707031l-23-4.113281-4.699218-128 27.867187-5.121093c7.746094 3.933593 12.640625 11.875 12.671875 20.566406.007813 6.078125-2.402344 11.910156-6.703125 16.207031-4.296875 4.300781-10.128906 6.710937-16.210937 6.707031 6.082031-.007812 11.914062 2.402344 16.210937 6.703125 4.300781 4.296875 6.710938 10.128907 6.703125 16.210938zm0 0" fill="#00bbd3"/><path d="m176.671875 209.949219h151.082031c60.261719 0 109.113282 48.851562 109.113282 109.117187v67.144532c0 60.265624-48.851563 109.117187-109.113282 109.117187h-151.082031c-60.261719 0-109.113281-48.851563-109.113281-109.117187v-67.144532c0-60.265625 48.851562-109.117187 109.113281-109.117187zm0 0" fill="#1566bf"/><path d="m411.6875 319.066406v67.144532c.714844 59.542968-46.96875 108.394531-106.511719 109.117187h-131.105469c-59.542968-.722656-107.226562-49.574219-106.511718-109.117187v-67.144532c-.714844-59.542968 46.96875-108.394531 106.511718-109.117187h131.105469c59.542969.722656 107.226563 49.574219 106.511719 109.117187zm0 0" fill="#2295f2"/><path d="m84.34375 50.476562c-2.804688-.003906-5.609375.164063-8.394531.5-33.652344 4.148438-58.9375 32.734376-58.9375 66.644532s25.285156 62.5 58.9375 66.644531c2.785156.339844 5.589843.507813 8.394531.503906 37.085938 0 67.148438-30.0625 67.148438-67.148437 0-37.082032-30.0625-67.144532-67.148438-67.144532zm0 0" fill="#f4f4f4"/><path d="m327.753906 84.046875c0 37.085937-30.0625 67.148437-67.148437 67.148437-2.804688.003907-5.605469-.164062-8.390625-.503906-33.65625-4.144531-58.941406-32.734375-58.941406-66.644531s25.285156-62.496094 58.941406-66.640625c2.785156-.339844 5.585937-.507812 8.390625-.503906 37.085937 0 67.148437 30.0625 67.148437 67.144531zm0 0" fill="#f4f4f4"/><path d="m403.296875 33.6875c-2.808594 0-5.609375.167969-8.394531.503906-33.65625 4.144532-58.941406 32.734375-58.941406 66.644532 0 33.910156 25.285156 62.5 58.941406 66.644531 2.785156.335937 5.585937.503906 8.394531.503906 37.082031 0 67.144531-30.0625 67.144531-67.148437 0-37.085938-30.0625-67.148438-67.144531-67.148438zm0 0" fill="#f4f4f4"/><path d="m126.3125 117.621094c0 23.179687-18.789062 41.96875-41.96875 41.96875-23.175781 0-41.964844-18.789063-41.964844-41.96875 0-23.175782 18.789063-41.964844 41.964844-41.964844 23.179688 0 41.96875 18.789062 41.96875 41.964844zm0 0" fill="#fdc008"/><path d="m302.574219 84.046875c0 23.179687-18.789063 41.96875-41.96875 41.96875-23.175781 0-41.964844-18.789063-41.964844-41.96875 0-23.175781 18.789063-41.964844 41.964844-41.964844 23.179687 0 41.96875 18.789063 41.96875 41.964844zm0 0" fill="#fdc008"/><path d="m445.261719 100.835938c0 23.175781-18.789063 41.96875-41.964844 41.96875-23.179687 0-41.96875-18.792969-41.96875-41.96875 0-23.179688 18.789063-41.96875 41.96875-41.96875 23.175781 0 41.964844 18.789062 41.964844 41.96875zm0 0" fill="#fdc008"/><path d="m109.523438 117.621094c0 13.90625-11.273438 25.183594-25.179688 25.183594s-25.179688-11.277344-25.179688-25.183594 11.273438-25.179688 25.179688-25.179688 25.179688 11.273438 25.179688 25.179688zm0 0" fill="#37474f"/><path d="m285.789062 84.046875c0 13.910156-11.277343 25.183594-25.183593 25.183594s-25.179688-11.273438-25.179688-25.183594c0-13.90625 11.273438-25.179687 25.179688-25.179687s25.183593 11.273437 25.183593 25.179687zm0 0" fill="#37474f"/><path d="m428.476562 100.835938c0 13.90625-11.273437 25.179687-25.179687 25.179687-13.910156 0-25.183594-11.273437-25.183594-25.179687s11.273438-25.179688 25.183594-25.179688c13.90625 0 25.179687 11.273438 25.179687 25.179688zm0 0" fill="#37474f"/><path d="m67.558594 100.835938c0 9.269531-7.515625 16.785156-16.789063 16.785156-9.269531 0-16.785156-7.515625-16.785156-16.785156 0-9.273438 7.515625-16.789063 16.785156-16.789063 9.273438 0 16.789063 7.515625 16.789063 16.789063zm0 0" fill="#f4f4f4"/><path d="m243.820312 67.261719c0 9.269531-7.515624 16.785156-16.789062 16.785156-9.269531 0-16.785156-7.515625-16.785156-16.785156s7.515625-16.785157 16.785156-16.785157c9.273438 0 16.789062 7.515626 16.789062 16.785157zm0 0" fill="#f4f4f4"/><path d="m386.507812 84.046875c0 9.273437-7.515624 16.789063-16.785156 16.789063-9.273437 0-16.789062-7.515626-16.789062-16.789063 0-9.269531 7.515625-16.785156 16.789062-16.785156 9.269532 0 16.785156 7.515625 16.785156 16.785156zm0 0" fill="#f4f4f4"/><path d="m317.261719 34.109375c-6.714844 14.265625-29.542969 24.757813-56.65625 24.757813-27.109375 0-49.941407-10.492188-56.65625-24.757813 14.332031-16.277344 34.972656-25.601563 56.65625-25.601563 21.6875 0 42.324219 9.324219 56.65625 25.601563zm0 0" fill="#2295f2"/><path d="m141 67.679688c-6.714844 14.269531-29.542969 24.761718-56.65625 24.761718-27.109375 0-49.941406-10.492187-56.65625-24.761718 14.332031-16.273438 34.972656-25.597657 56.65625-25.597657 21.6875 0 42.324219 9.324219 56.65625 25.597657zm0 0" fill="#2295f2"/><path d="m459.949219 50.894531c-6.714844 14.269531-29.542969 24.761719-56.652344 24.761719-27.113281 0-49.859375-10.410156-56.65625-24.679688 14.304687-16.304687 34.941406-25.664062 56.636719-25.679687 21.691406-.015625 42.34375 9.3125 56.671875 25.597656zm0 0" fill="#2295f2"/><path d="m378.113281 310.671875v117.507813c.015625 15.308593-10.351562 28.679687-25.179687 32.484374-2.734375.746094-5.558594 1.113282-8.390625 1.089844h-184.65625c-2.835938.023438-5.660157-.34375-8.394531-1.089844-14.828126-3.804687-25.191407-17.175781-25.179688-32.484374v-117.507813c-.011719-15.308594 10.351562-28.679687 25.179688-32.484375 2.734374-.75 5.558593-1.117188 8.394531-1.089844h184.65625c2.832031-.027344 5.65625.339844 8.390625 1.089844 14.828125 3.804688 25.195312 17.175781 25.179687 32.484375zm0 0" fill="#ac1457"/><g fill="#ffebb2"><path d="m201.851562 277.097656h50.363282v8.394532c0 13.90625-11.273438 25.179687-25.183594 25.179687-13.90625 0-25.179688-11.273437-25.179688-25.179687zm0 0"/><path d="m201.851562 277.097656v8.394532c0 13.90625-11.273437 25.179687-25.179687 25.179687s-25.179687-11.273437-25.179687-25.179687v-7.304688c2.734374-.75 5.558593-1.117188 8.394531-1.089844zm0 0"/><path d="m252.214844 277.097656h50.359375v8.394532c0 13.90625-11.273438 25.179687-25.179688 25.179687s-25.179687-11.273437-25.179687-25.179687zm0 0"/><path d="m352.933594 278.1875v7.304688c0 13.90625-11.273438 25.179687-25.179688 25.179687s-25.179687-11.273437-25.179687-25.179687v-8.394532h41.96875c2.832031-.027344 5.65625.339844 8.390625 1.089844zm0 0"/><path d="m227.03125 428.179688c13.910156 0 25.183594 11.273437 25.183594 25.179687v8.394531h-50.363282v-8.394531c0-13.90625 11.273438-25.179687 25.179688-25.179687zm0 0"/><path d="m201.851562 453.359375v8.394531h-41.964843c-2.835938.023438-5.660157-.34375-8.394531-1.089844v-7.304687c0-6.675781 2.65625-13.078125 7.386718-17.792969.34375-.355468.707032-.691406 1.089844-1.007812 7.410156-6.566406 17.980469-8.183594 27.015625-4.128906 9.035156 4.054687 14.851563 13.027343 14.867187 22.929687zm0 0"/><path d="m277.394531 428.179688c13.90625 0 25.179688 11.273437 25.179688 25.179687v8.394531h-50.359375v-8.394531c0-13.90625 11.273437-25.179687 25.179687-25.179687zm0 0"/><path d="m352.933594 453.359375v7.304687c-2.734375.746094-5.558594 1.113282-8.390625 1.089844h-41.96875v-8.394531c0-13.90625 11.273437-25.179687 25.179687-25.179687s25.179688 11.273437 25.179688 25.179687zm0 0"/></g><path d="m344.542969 432.375c.011719.730469-.015625 1.457031-.085938 2.183594-7.410156-6.566406-17.980469-8.183594-27.015625-4.128906-9.03125 4.054687-14.851562 13.027343-14.867187 22.929687 0-13.90625-11.273438-25.179687-25.179688-25.179687s-25.179687 11.273437-25.179687 25.179687c0-13.90625-11.273438-25.179687-25.183594-25.179687-13.90625 0-25.179688 11.273437-25.179688 25.179687-.015624-9.902344-5.832031-18.875-14.867187-22.929687-9.035156-4.054688-19.605469-2.4375-27.015625 4.128906-.070312-.726563-.097656-1.453125-.082031-2.183594 0-30.132812 41.292969-54.554688 92.328125-54.554688 51.03125 0 92.328125 24.421876 92.328125 54.554688zm0 0" fill="#f34335"/><path d="m472.792969 264.84375c-1.914063.015625-3.820313.203125-5.699219.554688l-32.105469 5.875c-15.773437-35.25-47.832031-60.523438-85.789062-67.636719 2.726562-10.582031 6.476562-20.875 11.195312-30.734375 30.425781 18.074218 68.917969 15.113281 96.21875-7.402344 27.296875-22.511719 37.535157-59.734375 25.585938-93.042969-11.953125-33.308593-43.519531-55.535156-78.902344-55.554687-5.148437.027344-10.28125.53125-15.335937 1.507812-.839844.152344-1.679688.21875-2.519532.40625-2.347656.503906-4.640625 1.183594-6.921875 1.886719-.539062.167969-1.101562.269531-1.679687.445313-.738282.242187-1.425782.578124-2.15625.839843-13.246094 4.785157-25.058594 12.855469-34.339844 23.449219-1.183594 1.359375-2.164062 2.890625-3.265625 4.316406-3.402344-7.710937-7.960937-14.859375-13.519531-21.195312-24.347656-27.714844-63.933594-36.289063-97.566406-21.125-33.628907 15.164062-53.417969 50.507812-48.761719 87.105468 4.65625 36.597657 32.660156 65.863282 69.015625 72.125-.671875 11.820313-1.242188 23.148438-1.679688 34.894532h-67.894531c-7.550781.011718-15.085937.753906-22.492187 2.214844-3.921876-7.621094-8.183594-14.78125-12.59375-22.074219l-1.113282-1.871094c33.238282-30.042969 37.085938-80.867187 8.75-115.566406-28.335937-34.703125-78.90625-41.09375-114.984375-14.53125-36.078125 26.558593-44.992187 76.746093-20.273437 114.109375 24.722656 37.363281 74.394531 48.785156 112.953125 25.964844l.308593.511718c3.691407 6.152344 7.191407 12.011719 10.417969 18.023438-30.371093 10.765625-55.011719 33.488281-68.207031 62.882812l-32.136719-5.875c-1.871093-.347656-3.765625-.53125-5.667969-.546875-12.875.007813-24.429687 7.902344-29.121093 19.890625-4.691407 11.992188-1.558594 25.632813 7.894531 34.375-6.375 5.914063-10 14.214844-9.996094 22.914063v4.53125c-.007812 8.695312 3.609375 16.996093 9.980469 22.914062-.253906.234375-.503906.488281-.746094.738281-8.988281 8.921876-11.707031 22.382813-6.886719 34.09375 4.816407 11.710938 16.222657 19.359376 28.882813 19.371094 1.910156.011719 3.820313-.152344 5.699219-.484375l26.414062-4.769531c14.402344 50.445312 60.460938 85.257812 112.917969 85.347656h151.082031c52.476563-.085937 98.550782-34.921875 112.933594-85.386718l26.390625 4.757812c13.457031 2.480469 26.960937-4.074219 33.339844-16.183594 6.375-12.105468 4.140625-26.953125-5.515625-36.644531-.285156-.292969-.570313-.578125-.839844-.839844 6.359375-5.921875 9.96875-14.222656 9.953125-22.914062v-4.53125c.003906-8.699219-3.621094-17-9.996094-22.914063 9.421875-8.75 12.535157-22.367187 7.847657-34.339844-4.6875-11.96875-16.21875-19.855468-29.074219-19.882812zm-381.648438-214.007812c.738281.074218 1.460938.21875 2.199219.320312 1.5.199219 3.003906.417969 4.480469.730469.839843.167969 1.679687.402343 2.519531.609375 1.332031.328125 2.667969.671875 3.984375 1.085937.839844.277344 1.722656.585938 2.585937.886719 1.257813.453125 2.507813.941406 3.742188 1.460938.839844.363281 1.679688.738281 2.519531 1.140624 1.207031.582032 2.410157 1.203126 3.585938 1.855469.789062.4375 1.578125.839844 2.347656 1.335938 1.191406.722656 2.351563 1.511719 3.5 2.308593.707031.488282 1.410156.957032 2.089844 1.46875 1.234375.921876 2.410156 1.921876 3.585937 2.9375.535156.46875 1.105469.90625 1.628906 1.394532.117188.109375.207032.226562.324219.324218-7.394531 8.195313-23.894531 15.351563-45.894531 15.351563s-38.5-7.15625-45.910156-15.351563c.109375-.097656.199218-.207031.300781-.308593.578125-.527344 1.191406-1.007813 1.789063-1.519531 1.117187-.964844 2.25-1.921876 3.421874-2.8125.714844-.535157 1.453126-1.023438 2.183594-1.535157 1.117188-.773437 2.25-1.535156 3.40625-2.242187.789063-.484375 1.605469-.929688 2.417969-1.375 1.160156-.648438 2.324219-1.25 3.527344-1.820313.839843-.40625 1.675781-.789062 2.515625-1.160156 1.226562-.519531 2.464844-1 3.71875-1.441406.839844-.3125 1.679687-.621094 2.601562-.898438 1.3125-.414062 2.644532-.757812 3.980469-1.085937.839844-.207032 1.679687-.441406 2.515625-.609375 1.480469-.3125 2.980469-.53125 4.484375-.730469.738281-.101562 1.460937-.246094 2.199219-.320312 4.519531-.480469 9.078125-.480469 13.597656 0zm9.988281 66.785156c0 9.273437-7.515624 16.789062-16.789062 16.789062-9.269531 0-16.785156-7.515625-16.785156-16.789062 0-9.269532 7.515625-16.785156 16.785156-16.785156 9.273438 0 16.789062 7.515624 16.789062 16.785156zm-83.9375 0c.003907-12.773438 3.667969-25.28125 10.5625-36.039063 8.460938 7.761719 18.785157 13.207031 29.972657 15.804688-10.617188 13.804687-8.914063 33.4375 3.921875 45.210937 12.839844 11.769532 32.546875 11.769532 45.382812 0 12.835938-11.773437 14.542969-31.40625 3.925782-45.210937 11.1875-2.597657 21.515624-8.042969 29.980468-15.804688 15.394532 24.109375 13.820313 55.328125-3.917968 77.769531-17.738282 22.441407-47.746094 31.183594-74.761719 21.773438-27.015625-9.40625-45.105469-34.898438-45.066407-63.503906zm386.101563 50.363281c-31.136719-.0625-58.160156-21.476563-65.335937-51.773437 4.296874-10.179688 6.53125-21.113282 6.582031-32.164063-.039063-4.414063-.414063-8.824219-1.125-13.183594 1.039062-2.046875 2.113281-4.070312 3.355469-5.992187 8.46875 7.714844 18.773437 13.132812 29.929687 15.726562-10.613281 13.808594-8.910156 33.441406 3.925781 45.210938 12.839844 11.773437 32.542969 11.773437 45.382813 0 12.835937-11.769532 14.539062-31.402344 3.925781-45.210938 11.1875-2.597656 21.515625-8.039062 29.980469-15.804687 13.199219 20.664062 14.070312 46.882812 2.277343 68.378906-11.796874 21.496094-34.378906 34.84375-58.898437 34.8125zm-45.652344-116.300781c.644531-.613282 1.34375-1.160156 2.011719-1.738282 1.035156-.890624 2.074219-1.785156 3.15625-2.609374.765625-.578126 1.5625-1.117188 2.351562-1.679688 1.058594-.730469 2.125-1.460938 3.222657-2.132812.839843-.5 1.679687-.980469 2.519531-1.449219 1.125-.613281 2.25-1.210938 3.355469-1.753907.839843-.429687 1.761719-.839843 2.652343-1.210937 1.183594-.503906 2.394532-.972656 3.609376-1.410156.890624-.316407 1.78125-.636719 2.6875-.921875 1.292968-.402344 2.601562-.746094 3.910156-1.066406.839844-.21875 1.730468-.453126 2.601562-.628907 1.476563-.304687 2.964844-.519531 4.457032-.722656.746093-.101563 1.484374-.242187 2.242187-.328125 4.527344-.480469 9.09375-.480469 13.621094 0 .738281.078125 1.460937.21875 2.199219.320312 1.503906.199219 3.003906.417969 4.484374.730469.835938.167969 1.675782.402344 2.515626.613281 1.335937.324219 2.667968.671876 3.988281 1.082032.839843.277344 1.679687.585937 2.585937.890625 1.257813.453125 2.503906.9375 3.742188 1.460937.839844.359375 1.679687.738282 2.519531 1.140625 1.207031.578125 2.40625 1.199219 3.582031 1.855469.789063.433594 1.578125.835938 2.351563 1.332031 1.191406.722657 2.347656 1.511719 3.5 2.308594.703125.488281 1.410156.957031 2.089843 1.46875 1.234376.925781 2.40625 1.921875 3.582032 2.9375.539062.472656 1.109375.90625 1.628906 1.394531.117188.109375.210938.226563.328125.328125-7.34375 8.207031-23.847656 15.367188-45.84375 15.367188-16.722656 1.125-33.214844-4.375-45.914063-15.308594.09375-.09375.167969-.1875.261719-.269531zm62.4375 49.152344c0 9.269531-7.515625 16.785156-16.785156 16.785156-9.273437 0-16.789063-7.515625-16.789063-16.785156 0-9.273438 7.515626-16.789063 16.789063-16.789063 9.269531 0 16.785156 7.515625 16.785156 16.789063zm-152.675781-83.574219c.738281.074219 1.460938.21875 2.191406.320312 1.507813.199219 3.011719.417969 4.496094.730469.839844.175781 1.679688.402344 2.519531.601562 1.351563.335938 2.6875.679688 4.011719 1.101563.839844.269531 1.679688.570313 2.570312.839844 1.261719.453125 2.515626.941406 3.757813 1.46875.839844.359375 1.679687.730469 2.519531 1.125 1.214844.585937 2.425782 1.207031 3.609375 1.871093.78125.425782 1.558594.839844 2.324219 1.316407 1.207031.738281 2.375 1.527343 3.535156 2.335937.6875.476563 1.390625.9375 2.0625 1.441406 1.234375.933594 2.425782 1.9375 3.601563 2.964844.535156.46875 1.097656.898438 1.621093 1.382813l.316407.320312c-7.433594 8.234375-23.9375 15.394531-45.9375 15.394531-21.996094 0-38.5-7.160156-45.910157-15.351562.109376-.101562.199219-.210938.300782-.3125.578125-.527344 1.191406-1.007812 1.789062-1.519531 1.117188-.964844 2.25-1.921875 3.425782-2.8125.710937-.535157 1.449218-1.023438 2.179687-1.535157 1.117187-.773437 2.25-1.535156 3.410156-2.242187.789063-.484375 1.601563-.929687 2.414063-1.375 1.160156-.644531 2.328125-1.25 3.527344-1.820313.839843-.402343 1.679687-.789062 2.519531-1.160156 1.222656-.519531 2.464843-1 3.714843-1.441406.839844-.3125 1.722657-.621094 2.601563-.898438 1.3125-.414062 2.644531-.757812 3.980469-1.082031.839844-.210937 1.679687-.445312 2.519531-.613281 1.476563-.3125 2.976563-.53125 4.480469-.730469.738281-.101562 1.460937-.246093 2.199218-.320312 4.519532-.480469 9.078126-.480469 13.597657 0zm9.988281 66.785156c0 9.273437-7.515625 16.789063-16.789062 16.789063-9.269531 0-16.785157-7.515626-16.785157-16.789063 0-9.269531 7.515626-16.785156 16.785157-16.785156 9.273437 0 16.789062 7.515625 16.789062 16.785156zm-83.933593 0c0-12.773437 3.667968-25.28125 10.558593-36.039063 8.460938 7.761719 18.785157 13.207032 29.972657 15.804688-10.617188 13.808594-8.914063 33.4375 3.925781 45.210938 12.835937 11.769531 32.542969 11.769531 45.378906 0 12.835937-11.773438 14.542969-31.402344 3.925781-45.210938 11.175782-2.597656 21.496094-8.035156 29.957032-15.789062 4.480468 6.976562 7.632812 14.722656 9.300781 22.847656.839843 4.34375 1.269531 8.753906 1.273437 13.175781 0 37.085937-30.0625 67.148437-67.148437 67.148437-37.082031 0-67.144531-30.0625-67.144531-67.148437zm69.53125 83.761719c25.058593-.777344 48.460937-12.71875 63.789062-32.558594 4.695312 10.394531 11.460938 19.726562 19.890625 27.410156-6.238281 12.464844-11.0625 25.585938-14.375 39.125-1.519531-.050781-3.007813-.226562-4.542969-.226562h-66.382812c.417968-11.339844.980468-22.3125 1.621094-33.75zm-228.679688 238.773437c-5.394531.964844-10.875-1.195312-14.160156-5.582031-3.28125-4.386719-3.8125-10.25-1.363282-15.15625 2.445313-4.902344 7.449219-8.007812 12.929688-8.023438 4.632812 0 8.390625-3.757812 8.390625-8.394531s-3.757813-8.394531-8.390625-8.394531c-8.015625-.007812-14.511719-6.503906-14.523438-14.519531v-4.53125c.011719-8.015625 6.507813-14.511719 14.523438-14.523438 4.632812 0 8.390625-3.757812 8.390625-8.390625 0-4.636718-3.757813-8.394531-8.390625-8.394531-5.503906.011719-10.542969-3.089844-13.007812-8.011719-2.460938-4.921875-1.925782-10.816406 1.382812-15.214844 3.308594-4.394531 8.824219-6.542968 14.234375-5.539062l29.335937 5.347656c-2.960937 10.347656-4.472656 21.050782-4.5 31.8125v67.144532c.039063 5.246093.429688 10.480468 1.167969 15.671874zm293.441406 80.351563h-151.082031c-55.601563-.058594-100.660156-45.117188-100.722656-100.722656v-67.144532c.070312-43.332031 27.816406-81.777344 68.921875-95.492187 2.894531 7.046875 5.175781 14.332031 6.824218 21.769531.851563 3.839844 4.257813 6.574219 8.191407 6.574219.613281-.003907 1.226562-.066407 1.828125-.195313 2.175781-.480468 4.066406-1.808594 5.261718-3.6875 1.195313-1.882812 1.59375-4.160156 1.109376-6.332031-1.667969-7.515625-3.914063-14.894531-6.714844-22.066406 5.058594-.820313 10.175781-1.253907 15.300781-1.292969h67.425781c-.175781 7.941406-.277344 16.222656-.277344 25.179688 0 4.636718 3.757813 8.394531 8.394532 8.394531 4.632812 0 8.390625-3.757813 8.390625-8.394531 0-8.957032.101562-17.230469.277343-25.179688h66.871094c.519532 0 1.023438.066406 1.542969.074219-1.042969 8.328125-1.558594 16.714843-1.542969 25.105469 0 4.636718 3.757813 8.394531 8.394532 8.394531 4.636718 0 8.394531-3.757813 8.394531-8.394531-.023438-7.835938.472656-15.664063 1.484375-23.433594 47.722656 8.847656 82.367187 50.441406 82.449218 98.976562v67.144532c-.0625 55.605468-45.121093 100.664062-100.722656 100.722656zm144.957032-159.476563c8.015624.011719 14.507812 6.507813 14.519531 14.523438v4.53125c-.011719 8.015625-6.503907 14.511719-14.519531 14.519531-4.636719 0-8.394532 3.757812-8.394532 8.394531s3.757813 8.394531 8.394532 8.394531c5.511718-.027343 10.5625 3.074219 13.035156 8.003907 2.472656 4.929687 1.933594 10.832031-1.386719 15.234375s-8.851563 6.539062-14.269531 5.515625l-26.019532-4.691407c.746094-5.191406 1.144532-10.425781 1.191407-15.671874v-67.144532c-.027344-10.761718-1.539063-21.464844-4.488281-31.8125l29.292968-5.339844c4.242188-.839843 8.636719.273438 11.96875 3.035157 3.328125 2.761719 5.238282 6.875 5.195313 11.203125-.011719 8.015625-6.503907 14.511718-14.519531 14.519531-4.636719 0-8.394532 3.757813-8.394532 8.394531 0 4.632813 3.757813 8.390625 8.394532 8.390625zm0 0"/><path d="m356.492188 270.652344c-.402344-.167969-.820313-.300782-1.25-.394532-3.484376-.980468-7.082032-1.5-10.699219-1.554687h-184.65625c-3.621094.054687-7.21875.574219-10.703125 1.554687-.425782.09375-.84375.226563-1.25.394532-17.746094 5.242187-29.949219 21.511718-30.015625 40.019531v117.507813c.066406 18.507812 12.269531 34.777343 30.015625 40.027343.402344.160157.816406.289063 1.242187.378907 3.484375.984374 7.085938 1.511718 10.710938 1.5625h184.65625c3.621093-.050782 7.222656-.578126 10.707031-1.5625.425781-.089844.839844-.21875 1.242188-.378907 17.75-5.25 29.949218-21.519531 30.015624-40.027343v-117.507813c-.0625-18.507813-12.265624-34.777344-30.015624-40.019531zm-11.949219 14.839844c0 9.269531-7.515625 16.785156-16.789063 16.785156-9.269531 0-16.785156-7.515625-16.785156-16.785156zm-50.363281 0c0 9.269531-7.515626 16.785156-16.785157 16.785156-9.273437 0-16.789062-7.515625-16.789062-16.785156zm-50.359376 0c0 9.269531-7.515624 16.785156-16.789062 16.785156-9.269531 0-16.785156-7.515625-16.785156-16.785156zm-50.359374 0c0 9.269531-7.515626 16.785156-16.789063 16.785156-9.269531 0-16.785156-7.515625-16.785156-16.785156zm109.113281 145.902343c-6.292969-7.363281-15.492188-11.605469-25.179688-11.605469s-18.886719 4.242188-25.179687 11.605469c-6.296875-7.363281-15.496094-11.601562-25.183594-11.601562-9.683594 0-18.882812 4.238281-25.179688 11.601562-6.3125-7.339843-15.5-11.574219-25.179687-11.609375-1.753906.019532-3.507813.179688-5.238281.480469 9.964844-19.363281 42.882812-34.054687 80.78125-34.054687 37.894531 0 70.8125 14.691406 80.777344 34.054687-1.730469-.300781-3.480469-.460937-5.238282-.480469-8.90625-.019531-17.453125 3.523438-23.726562 9.847656-.546875.542969-.949219 1.183594-1.453125 1.761719zm-137.761719 10.070313.722656-.652344c3.058594-2.746094 7.027344-4.257812 11.136719-4.238281 9.273437 0 16.789063 7.515625 16.789063 16.785156h-33.574219c-.007813-4.453125 1.765625-8.722656 4.925781-11.859375zm62.21875-4.890625c9.273438 0 16.789062 7.515625 16.789062 16.785156h-33.574218c0-9.269531 7.515625-16.785156 16.785156-16.785156zm50.363281 0c9.269531 0 16.785157 7.515625 16.785157 16.785156h-33.574219c0-9.269531 7.515625-16.785156 16.789062-16.785156zm33.574219 16.785156c.015625-6.609375 3.910156-12.597656 9.949219-15.289063 6.039062-2.691406 13.097656-1.589843 18.023437 2.816407 3.582032 3.152343 5.625 7.703125 5.601563 12.472656zm58.753906-25.179687c-.027344 7.410156-3.335937 14.425781-9.03125 19.164062-1.097656-5.953125-3.808594-11.492188-7.839844-16.007812-.867187-34.800782-44.722656-61.910157-100.636718-61.910157-55.917969 0-99.730469 27.085938-100.640625 61.867188-4.042969 4.515625-6.765625 10.050781-7.878907 16.007812-5.675781-4.734375-8.964843-11.730469-8.988281-19.121093v-117.507813c.023438-7.398437 3.320313-14.402344 9.003907-19.136719 2.25 12.6875 11.605468 22.941406 24.035156 26.347656 12.425781 3.40625 25.703125-.648437 34.105468-10.417968 6.296876 7.363281 15.496094 11.601562 25.179688 11.601562 9.6875 0 18.886719-4.238281 25.183594-11.601562 6.292968 7.363281 15.492187 11.601562 25.179687 11.601562 9.683594 0 18.886719-4.238281 25.179688-11.601562 8.40625 9.769531 21.6875 13.820312 34.113281 10.414062 12.429688-3.410156 21.78125-13.671875 24.027344-26.359375 5.6875 4.734375 8.984375 11.75 9.007812 19.152344zm0 0"/></svg>