<svg height="512pt" viewBox="0 0 512 512.1193" width="512pt" xmlns="http://www.w3.org/2000/svg"><path d="m105.917969 416.203125c-15.191407 7.339844-29.015625 22.53125-29.015625 53.25 0 18.851563-15.28125 34.132813-34.132813 34.132813-18.851562 0-34.132812-15.28125-34.132812-34.132813 0-22.015625 0-81.835937 59.648437-103.59375zm0 0" fill="#4cae50"/><path d="m503.570312 469.453125c0 18.851563-15.28125 34.132813-34.132812 34.132813-3.871094.007812-7.710938-.65625-11.351562-1.960938-13.644532-4.8125-22.773438-17.703125-22.78125-32.171875 0-30.71875-13.824219-45.910156-29.015626-53.25l31.660157-42.324219 5.972656-8.019531c59.648437 21.757813 59.648437 81.578125 59.648437 103.59375zm0 0" fill="#2e7d32"/><path d="m469.4375 264.652344c0 56.578125-22.476562 110.84375-62.484375 150.851562-40.007813 40.007813-94.269531 62.480469-150.851563 62.480469-2.824218 0-5.714843-.082031-8.53125-.167969-74.570312-2.96875-142.167968-44.699218-178.238281-110.03125-36.074219-65.335937-35.371093-144.769531 1.84375-209.457031l19.542969-28.417969c7.121094-8.777344 14.941406-16.96875 23.382812-24.488281l34.214844-24.917969c30.203125-17.667968 64.289063-27.632812 99.253906-29.015625 2.816407-.082031 5.707032-.167969 8.53125-.167969 37.882813-.03125 75.085938 10.042969 107.777344 29.183594l34.21875 24.917969c8.4375 7.523437 16.253906 15.714844 23.382813 24.488281l19.53125 28.417969c18.671875 32.320313 28.480469 68.996094 28.425781 106.324219zm0 0" fill="#2e7d32"/><g fill="#4cae50"><path d="m443.835938 264.652344c1.171874 113.347656-87.324219 207.417968-200.53125 213.164062-113.210938-5.746094-201.707032-99.816406-200.535157-213.164062-.074219-37.25 9.511719-73.882813 27.820313-106.324219l19.113281-28.417969c6.960937-8.765625 14.617187-16.953125 22.894531-24.488281l33.503906-24.917969c29.46875-17.636718 62.886719-27.609375 97.203126-29.015625 34.304687 1.40625 67.714843 11.382813 97.175781 29.015625l33.511719 24.917969c8.277343 7.539063 15.9375 15.726563 22.910156 24.488281l19.132812 28.417969c18.300782 32.441406 27.878906 69.074219 27.800782 106.324219zm0 0"/><path d="m148.933594 109.167969c3.5-1.726563 6.09375-4.867188 7.125-8.628907 1.035156-3.761718.410156-7.789062-1.714844-11.058593-1.707031-2.707031-3.765625-5.726563-6.027344-8.976563-19.113281-27.734375-56.054687-71.851562-97.011718-71.851562-59.734376 0-51.203126 76.800781-8.535157 68.265625 27.648438-5.546875 55.296875 14.082031 71.339844 28.503906 2.839844 2.558594 5.324219 4.964844 7.371094 7.039063 4.160156 4.171874 10.53125 5.203124 15.796875 2.558593zm0 0"/><path d="m109.96875 156.628906c2.285156-3.226562 3.058594-7.285156 2.121094-11.128906-.9375-3.839844-3.496094-7.085938-7.011719-8.898438-4.128906-2.117187-9-4.453124-14.359375-6.691406-20.054688-8.445312-46.847656-15.53125-66.046875-5.117187-34.730469 18.855469-5.546875 60.671875 16.554687 42.324219 8.601563-6.433594 19.234376-9.554688 29.949219-8.789063 8.105469.261719 16.152344 1.496094 23.960938 3.675781 5.585937 1.535156 11.527343-.617187 14.832031-5.375zm0 0"/></g><path d="m469.4375 76.917969c-2.449219-.492188-4.929688-.777344-7.425781-.851563-4.578125-.230468-9.167969.144532-13.652344 1.109375-18.902344 4.941407-36.210937 14.667969-50.261719 28.246094-2.816406 2.558594-5.375 4.949219-7.425781 6.996094-4.128906 4.222656-10.53125 5.257812-15.785156 2.558593l-11.605469-5.800781c-3.503906-1.726562-6.101562-4.867187-7.144531-8.632812s-.433594-7.796875 1.683593-11.078125c1.792969-2.648438 3.753907-5.71875 6.058594-8.960938 17.324219-25.175781 49.324219-63.746094 85.589844-70.742187.085938-.085938.085938 0 .085938 0 3.734374-.753907 7.539062-1.125 11.347656-1.109375 59.734375 0 51.199218 76.800781 8.535156 68.265625zm0 0" fill="#2e7d32"/><path d="m471.398438 167.457031c-.171876-.085937-.253907-.253906-.425782-.339843-8.605468-6.433594-19.238281-9.554688-29.953125-8.789063-3.628906.085937-7.246093.398437-10.835937.9375-4.4375.617187-8.828125 1.53125-13.140625 2.730469-4.109375 1.144531-8.519531.257812-11.863281-2.390625h-.085938c-1.132812-.820313-2.113281-1.828125-2.898438-2.984375-2.261718-3.246094-3.015624-7.308594-2.070312-11.148438.949219-3.839844 3.507812-7.085937 7.019531-8.90625 4.09375-2.046875 8.957031-4.4375 14.335938-6.65625 9.976562-4.394531 20.472656-7.519531 31.230469-9.300781 11.75-2.480469 23.988281-1.007813 34.816406 4.183594 34.472656 18.773437 5.886718 60.160156-16.128906 42.664062zm0 0" fill="#2e7d32"/><path d="m480.871094 469.453125c-.007813 14.46875-9.140625 27.359375-22.785156 32.171875-13.644532-4.8125-22.773438-17.703125-22.78125-32.171875 0-30.71875-13.824219-45.910156-29.015626-53.25l31.660157-42.324219c42.921875 25.769532 42.921875 75.863282 42.921875 95.574219zm0 0" fill="#4cae50"/><path d="m462.011719 76.066406c-4.386719 1.507813-9.082031 1.890625-13.652344 1.109375l-1.707031-.257812c-27.648438-5.546875-55.296875 14.082031-71.339844 28.503906-2.558594 2.304687-4.777344 4.519531-6.742188 6.398437l-5.289062-2.644531c-3.503906-1.726562-6.101562-4.867187-7.144531-8.632812s-.433594-7.796875 1.683593-11.078125c1.792969-2.648438 3.753907-5.71875 6.058594-8.960938 17.324219-25.175781 49.324219-63.746094 85.589844-70.742187.085938-.085938.085938 0 .085938 0 40.105468 7.851562 38.570312 57.171875 12.457031 66.304687zm0 0" fill="#4cae50"/><path d="m471.398438 167.457031c-6.71875 5.75-16.664063 5.601563-23.210938-.339843-5.199219-4.167969-11.414062-6.878907-18.003906-7.851563-3.9375-.738281-7.941406-1.054687-11.949219-.9375-4.375.109375-8.738281.535156-13.054687 1.277344h-.085938c-1.132812-.820313-2.113281-1.828125-2.898438-2.984375-2.261718-3.246094-3.015624-7.308594-2.070312-11.148438.949219-3.839844 3.507812-7.085937 7.019531-8.90625 4.09375-2.046875 8.957031-4.4375 14.335938-6.65625 9.976562-4.394531 20.472656-7.519531 31.230469-9.300781 4.207031.75 8.269531 2.160156 12.03125 4.183594 22.273437 12.117187 18.261718 33.621093 6.65625 42.664062zm0 0" fill="#4cae50"/><path d="m256.101562 111.050781c-2.898437 0-5.714843.171875-8.53125.429688-39.808593 3.597656-72.960937 32.03125-82.582031 70.824219-9.621093 38.792968 6.402344 79.425781 39.914063 101.207031h102.402344c34.824218-22.652344 50.605468-65.515625 38.78125-105.34375-11.824219-39.828125-48.4375-67.136719-89.984376-67.117188zm0 0" fill="#f3f3f3"/><path d="m315.835938 204.917969c0 32.992187-26.742188 59.734375-59.734376 59.734375-32.988281 0-59.730468-26.742188-59.730468-59.734375 0-32.988281 26.742187-59.730469 59.730468-59.730469 32.992188 0 59.734376 26.742188 59.734376 59.730469zm0 0" fill="#f34335"/><path d="m290.234375 204.917969c0 18.851562-15.28125 34.132812-34.132813 34.132812-18.851562 0-34.132812-15.28125-34.132812-34.132812 0-18.851563 15.28125-34.132813 34.132812-34.132813 18.851563 0 34.132813 15.28125 34.132813 34.132813zm0 0" fill="#37474f"/><path d="m256.101562 298.785156v-17.066406c-.027343-9.414062-7.652343-17.039062-17.066406-17.066406h-17.066406c-7.109375.011718-13.46875 4.433594-15.957031 11.09375-.761719 1.898437-1.136719 3.929687-1.109375 5.972656v23.636719zm0 0" fill="#f9eab0"/><path d="m247.570312 298.785156v-17.066406c0-9.386719-5.121093-17.066406-11.375-17.066406h-11.382812c-4.832031 0-9.046875 4.609375-10.632812 11.09375-.515626 1.949218-.765626 3.957031-.742188 5.972656v23.636719zm0 0" fill="#ffebb2"/><path d="m307.304688 305.355469v-23.636719c.027343-2.042969-.351563-4.074219-1.109376-5.972656-2.492187-6.660156-8.847656-11.082032-15.960937-11.09375h-17.066406c-9.414063.027344-17.035157 7.652344-17.066407 17.066406v17.066406zm0 0" fill="#f5efca"/><path d="m307.304688 305.355469v-23.636719c.027343-2.042969-.351563-4.074219-1.109376-5.972656-2.492187-6.660156-8.847656-11.082032-15.960937-11.09375h-17.066406c-9.414063.027344-17.035157 7.652344-17.066407 17.066406v17.066406zm0 0" fill="#f9eab0"/><path d="m298.769531 305.355469v-23.636719c.023438-2.015625-.226562-4.023438-.742187-5.972656-1.585938-6.484375-5.804688-11.09375-10.632813-11.09375h-11.382812c-6.253907 0-11.375 7.679687-11.375 17.066406v17.066406zm0 0" fill="#ffebb2"/><path d="m239.035156 170.785156c0 9.425782-7.640625 17.066406-17.066406 17.066406s-17.066406-7.640624-17.066406-17.066406c0-9.425781 7.640625-17.066406 17.066406-17.066406s17.066406 7.640625 17.066406 17.066406zm0 0" fill="#f3f3f3"/><path d="m.101562 469.453125c0 23.5625 19.105469 42.667969 42.667969 42.667969s42.667969-19.105469 42.667969-42.667969c0-20.0625 6.527344-34.390625 19.335938-42.761719 5.363281 5.011719 10.96875 9.757813 16.808593 14.234375-13.371093 20.691407-13.652343 41.480469-.304687 59.246094 2.828125 3.769531 8.175781 4.535156 11.945312 1.707031 3.769532-2.828125 4.535156-8.175781 1.707032-11.945312-8.808594-11.671875-8.585938-27.828125.539062-39.253906 73.417969 47.792968 168.132812 47.730468 241.492188-.152344 9.242187 14.410156 9.472656 27.628906.648437 39.363281-2.828125 3.769531-2.0625 9.117187 1.707031 11.945313 3.769532 2.828124 9.117188 2.0625 11.945313-1.707032 13.378906-17.824218 13.082031-38.679687-.425781-59.425781 5.761718-4.417969 11.292968-9.105469 16.589843-14.0625 12.816407 8.421875 19.34375 22.75 19.34375 42.8125 0 23.5625 19.101563 42.667969 42.667969 42.667969 23.5625 0 42.664062-19.105469 42.664062-42.667969 0-20.675781-.136718-81.511719-56.480468-107.84375 29.601562-60.835937 29.796875-131.859375.527344-192.855469 3.414062 1.003906 6.589843 2.683594 9.34375 4.933594 7.632812 6.773438 18.535156 8.425781 27.828124 4.214844 11.070313-5.246094 18.304688-16.210938 18.78125-28.449219.089844-13.820313-7.925781-26.40625-20.480468-32.179687-20.425782-11.09375-47.015625-5.410157-67.546875 2.398437-4.207031-4.882813-8.574219-9.539063-13.109375-13.96875 14.320312-11.425781 36.105468-24.578125 56.824218-20.4375 13.386719 3.179687 27.386719-1.839844 35.703126-12.800781 9.898437-13.636719 11.417968-31.640625 3.953124-46.746094-9.148437-16.925781-27.347656-26.9375-46.542968-25.597656-41.976563 0-78.90625 40.761718-99.550782 69.179687-65.710937-35.351562-144.785156-35.351562-210.5 0-20.640624-28.417969-57.574218-69.179687-99.546874-69.179687-19.195313-1.339844-37.394532 8.671875-46.542969 25.597656-7.480469 15.125-5.949219 33.152344 3.976562 46.796875 8.339844 10.945313 22.347657 15.949219 35.738281 12.765625 20.746094-4.144531 42.503907 9.011719 56.824219 20.4375-4.550781 4.421875-8.921875 9.078125-13.109375 13.96875-20.5625-7.78125-47.128906-13.472656-67.609375-2.398438-12.546875 5.769532-20.5585935 18.351563-20.480469 32.164063.484376 12.226563 7.71875 23.175781 18.773438 28.425781 9.3125 4.207032 20.230469 2.535156 27.855469-4.269531 2.765625-2.253906 5.957031-3.933594 9.386719-4.929687-29.269532 60.992187-29.074219 132.019531.527343 192.851562-56.40625 26.410156-56.542969 87.246094-56.542969 107.921875zm494.933594 0c0 14.136719-11.460937 25.597656-25.597656 25.597656-14.140625 0-25.601562-11.460937-25.601562-25.597656 0-29.339844-11.683594-45.738281-24.226563-55.015625 10.601563-11.570312 19.949219-24.230469 27.886719-37.769531 47.402344 21.652343 47.539062 72.917969 47.539062 92.785156zm-418.898437-302.285156c8.519531.851562 16.90625 2.757812 24.957031 5.675781.988281.390625 2.042969.589844 3.105469.585938 4.101562.003906 7.621093-2.90625 8.386719-6.933594.769531-4.023438-1.433594-8.027344-5.246094-9.535156-11.535156-4.285157-23.683594-6.703126-35.984375-7.167969h-1.390625c-12.292969-.585938-24.398438 3.230469-34.132813 10.761719-2.628906 2.617187-6.609375 3.316406-9.976562 1.757812-5.117188-2.605469-8.4375-7.769531-8.6875-13.507812.234375-7.316407 4.777343-13.796876 11.574219-16.511719 12.882812-6.980469 33.730468-5.035157 58.664062 5.476562 9.203125 3.84375 18.089844 8.410157 26.574219 13.65625 3.960937 2.550781 9.242187 1.410157 11.796875-2.550781 2.554687-3.960938 1.414062-9.242188-2.546875-11.796875-5.984375-3.71875-12.160157-7.117187-18.507813-10.179687 3.054688-3.371094 6.195313-6.578126 9.386719-9.683594 4.632813 4.589844 7.363281 7.816406 7.398437 7.859375 3.027344 3.609375 8.410157 4.085937 12.023438 1.058593 3.609375-3.03125 4.085938-8.414062 1.058594-12.023437-4.601563-5.308594-9.53125-10.320313-14.765625-15.003906-19.222657-17.304688-48.46875-36.617188-78.761719-30.550781-6.984375 1.871093-14.402344-.671876-18.773438-6.433594-5.953124-8.496094-6.796874-19.566406-2.191406-28.867188 6.320313-11.042968 18.542969-17.335937 31.207032-16.066406 37.425781 0 72.445312 42.664062 90 68.152344 4.820312 6.839844 9.292968 13.917968 13.40625 21.207031 2.246093 4.144531 7.425781 5.683594 11.570312 3.4375 4.144531-2.242187 5.683594-7.425781 3.4375-11.570313-.167969-.304687-3.414062-6.203124-9.085938-14.925781 59.710938-31.570312 131.175782-31.570312 190.890626 0-5.699219 8.722657-8.917969 14.621094-9.089844 14.925781-2.246094 4.144532-.703125 9.328126 3.441406 11.570313 4.144531 2.246094 9.324219.707031 11.570312-3.4375 4.121094-7.273437 8.601563-14.335937 13.429688-21.164063 17.578125-25.53125 52.601562-68.195312 90.027344-68.195312 12.667968-1.277344 24.898437 5.019531 31.222656 16.066406 4.597656 9.304688 3.75 20.375-2.207031 28.867188-4.363281 5.773437-11.789063 8.320312-18.773438 6.433594-30.253906-6.058594-59.503906 13.246093-78.722656 30.515624-5.253906 4.691407-10.203125 9.710938-14.820313 15.027344-3.027343 3.613282-2.554687 8.996094 1.058594 12.023438 3.609375 3.03125 8.992188 2.554687 12.023438-1.058594 0-.039062 2.761718-3.265625 7.398437-7.855469 3.222657 3.105469 6.363281 6.3125 9.386719 9.683594-6.347656 3.058594-12.527344 6.457031-18.511719 10.179687-3.960937 2.554688-5.101562 7.835938-2.546875 11.796876 2.554688 3.960937 7.835938 5.101562 11.796875 2.546874 8.484375-5.242187 17.371094-9.808593 26.574219-13.652343 24.953125-10.519531 45.789062-12.476563 58.65625-5.476563 6.8125 2.703125 11.367188 9.195313 11.597656 16.519532-.242187 5.726562-3.542968 10.882812-8.644531 13.5-3.363281 1.554687-7.34375.855468-9.972656-1.757813-10.097657-7.734375-22.652344-11.550781-35.347657-10.746094h-.222656c-12.296875.464844-24.445312 2.882813-35.984375 7.167969-3.808593 1.507812-6.011719 5.511719-5.246093 9.535156.769531 4.027344 4.289062 6.9375 8.386718 6.9375 1.0625 0 2.117188-.199218 3.105469-.589844 8.054687-2.917968 16.4375-4.824218 24.960937-5.675781 46.796876 86.160157 25.960938 193.402344-49.691406 255.769531-75.652344 62.371094-184.898437 62.371094-260.550781 0-75.65625-62.367187-96.488281-169.609374-49.691406-255.769531zm-11.429688 209.5c7.941407 13.539062 17.289063 26.199219 27.886719 37.769531-12.542969 9.277344-24.222656 25.675781-24.222656 55.015625 0 14.136719-11.464844 25.597656-25.601563 25.597656s-25.601562-11.460937-25.601562-25.597656c0-19.867187.136719-71.132813 47.539062-92.785156zm0 0"/><path d="m256.101562 247.585938c23.566407 0 42.667969-19.101563 42.667969-42.667969 0-23.5625-19.101562-42.664063-42.667969-42.664063-23.5625 0-42.664062 19.101563-42.664062 42.664063.027344 23.554687 19.113281 42.640625 42.664062 42.667969zm0-68.265626c14.140626 0 25.601563 11.460938 25.601563 25.597657 0 14.140625-11.460937 25.601562-25.601563 25.601562-14.136718 0-25.597656-11.460937-25.597656-25.601562 0-14.136719 11.460938-25.597657 25.597656-25.597657zm0 0"/><path d="m126.25 383.914062c2.210938.492188 4.527344.089844 6.4375-1.125 1.910156-1.214843 3.261719-3.140624 3.753906-5.351562.144532-.699219 16.757813-70.117188 119.660156-70.117188 102.246094 0 119.015626 67.292969 119.664063 70.117188.867187 3.90625 4.335937 6.683594 8.335937 6.683594.625-.003906 1.25-.070313 1.863282-.207032 2.207031-.488281 4.132812-1.835937 5.351562-3.746093 1.214844-1.910157 1.621094-4.222657 1.132813-6.433594-.15625-.664063-12.742188-53.152344-76.605469-74.539063v-11.410156c36.117188-25.9375 51.367188-72.21875 37.742188-114.546875s-53.007813-71.023437-97.472657-71.023437c-44.46875 0-83.851562 28.695312-97.476562 71.023437s1.625 88.609375 37.742187 114.546875v11.410156c-63.863281 21.386719-76.449218 73.875-76.605468 74.539063-1.019532 4.597656 1.878906 9.15625 6.476562 10.179687zm138.386719-93.472656v-8.722656c0-4.710938 3.820312-8.53125 8.53125-8.53125h17.066406c3.640625.027344 6.867187 2.347656 8.058594 5.785156.339843.875.5 1.808594.476562 2.746094v12.800781c-11.234375-2.359375-22.65625-3.726562-34.132812-4.078125zm-93.867188-85.523437c-.070312-39.332031 26.753907-73.617188 64.949219-83.015625 38.195312-9.394532 77.863281 8.535156 96.050781 43.414062 18.183594 34.875 10.171875 77.667969-19.398437 103.601563-4.574219-7.898438-13.003906-12.773438-22.136719-12.796875h-17.066406c-6.316407.019531-12.398438 2.394531-17.066407 6.652344-4.664062-4.257813-10.746093-6.632813-17.066406-6.652344h-17.066406c-9.148438.003906-17.601562 4.882812-22.1875 12.796875-18.476562-16.125-29.0625-39.472657-29.011719-64zm42.667969 76.800781c-.015625-1.035156.179688-2.0625.578125-3.019531 1.253906-3.308594 4.417969-5.5 7.953125-5.511719h17.066406c4.714844 0 8.535156 3.820312 8.535156 8.53125v8.722656c-11.476562.363282-22.898437 1.738282-34.132812 4.113282zm0 0"/><path d="m284.417969 335.214844c-.070313.058594-7.460938 6.238281-28.316407 6.238281-20.257812 0-27.808593-5.828125-28.285156-6.222656-3.390625-3.234375-8.757812-3.128907-12.019531.234375-3.261719 3.367187-3.199219 8.734375.140625 12.019531 1.84375 1.84375 12.433594 11.035156 40.164062 11.035156 27.734376 0 38.324219-9.191406 40.167969-11.035156 3.214844-3.234375 3.257813-8.441406.101563-11.730469-3.203125-3.34375-8.464844-3.578125-11.953125-.539062zm0 0"/></svg>