<svg height="512pt" viewBox="0 0 512 512.04419" width="512pt" xmlns="http://www.w3.org/2000/svg"><path d="m503.519531 59.777344c0-28.277344-22.925781-51.199219-51.199219-51.199219-2.863281-.007813-5.71875.25-8.535156.765625-1.414062.222656-2.808594.539062-4.179687.941406h-.085938c-21.402343 5.53125-36.828125 24.1875-38.230469 46.25-4.863281-3.753906-9.898437-7.425781-15.1875-10.835937-2.304687-1.539063-4.695312-2.988281-7.085937-4.355469-37.3125-21.734375-79.78125-33.050781-122.964844-32.765625-2.898437 0-5.714843.085937-8.53125.171875-1.28125 0-2.5625.082031-3.753906.167969-48.167969 1.773437-94.609375 18.40625-132.953125 47.617187-.21875-3.671875-.851562-7.304687-1.875-10.835937-.425781-1.453125-.9375-2.902344-1.449219-4.355469-7.570312-19.753906-26.546875-32.789062-47.703125-32.765625-2.863281-.007813-5.71875.25-8.535156.765625-1.449219.257812-2.8125.515625-4.179688.855469-24.957031 6.433593-41.242187 30.417969-38.015624 55.988281 3.226562 25.570312 24.957031 44.757812 50.730468 44.789062 1.195313.027344 2.394532-.027343 3.582032-.167968-13.460938 23.421875-20.578126 49.953125-20.648438 76.96875 0 95.488281 88.746094 173.484375 200.875 178.773437 1.28125.171875 2.644531.171875 3.925781.257813 2.816407.082031 5.714844.167968 8.53125.167968 117.847657 0 213.335938-80.210937 213.335938-179.199218-.074219-27.015625-7.191407-53.546875-20.652344-76.96875 1.1875.140625 2.386719.195312 3.585937.167968 13.578126 0 26.601563-5.394531 36.203126-14.996093 9.601562-9.601563 14.996093-22.625 14.996093-36.203125zm0 0" fill="#9d9c24"/><g fill="#ccdb39"><path d="m477.917969 59.777344c.027343 13.585937-5.359375 26.625-14.96875 36.230468-9.605469 9.609376-22.644531 14.996094-36.230469 14.96875-1.199219.027344-2.394531-.027343-3.585938-.167968 13.460938 23.421875 20.582032 49.953125 20.652344 76.96875 0 95.316406-88.492187 173.140625-200.191406 178.773437-112.128906-5.289062-200.875-83.285156-200.875-178.773437.070312-27.015625 7.1875-53.546875 20.648438-76.96875-1.1875.140625-2.386719.195312-3.582032.167968-25.773437-.03125-47.503906-19.21875-50.730468-44.789062-3.226563-25.570312 13.058593-49.554688 38.015624-55.988281 1.367188-.339844 2.730469-.597657 4.179688-.855469 2.816406-.515625 5.671875-.773438 8.535156-.765625 21.15625-.023437 40.132813 13.011719 47.703125 32.765625.511719 1.453125 1.023438 2.902344 1.449219 4.355469 1.023438 3.53125 1.65625 7.164062 1.875 10.835937 38.34375-29.210937 84.785156-45.84375 132.953125-47.617187 1.191406-.085938 2.472656-.167969 3.753906-.167969 2.816407-.085938 5.632813-.171875 8.53125-.171875 43.183594-.285156 85.652344 11.03125 122.964844 32.765625 2.390625 1.367188 4.78125 2.816406 7.085937 4.355469 5.289063 3.410156 10.324219 7.082031 15.1875 10.835937 1.402344-22.0625 16.828126-40.71875 38.230469-46.25h.085938c22.558593 5.832032 38.320312 26.1875 38.3125 49.492188zm0 0"/><path d="m196.320312 477.910156c0-14.136718-22.925781-25.597656-51.203124-25.597656-28.277344 0-51.199219 11.460938-51.199219 25.597656 0 14.140625 22.921875 25.601563 51.199219 25.601563 28.277343 0 51.203124-11.460938 51.203124-25.601563zm0 0"/><path d="m110.984375 409.644531c0-14.140625-22.921875-25.601562-51.199219-25.601562s-51.199218 11.460937-51.199218 25.601562c0 14.136719 22.921874 25.601563 51.199218 25.601563s51.199219-11.464844 51.199219-25.601563zm0 0"/><path d="m418.183594 477.910156c0-14.136718-22.921875-25.597656-51.199219-25.597656s-51.199219 11.460938-51.199219 25.597656c0 14.140625 22.921875 25.601563 51.199219 25.601563s51.199219-11.460938 51.199219-25.601563zm0 0"/></g><path d="m503.519531 409.644531c0 14.164063-22.957031 25.601563-51.199219 25.601563-4.285156.023437-8.5625-.261719-12.800781-.855469-22.015625-2.816406-38.402343-12.800781-38.402343-24.746094 0-11.945312 16.386718-21.929687 38.402343-24.746093 4.238281-.59375 8.515625-.878907 12.800781-.855469 28.242188 0 51.199219 11.4375 51.199219 25.601562zm0 0" fill="#9d9c24"/><path d="m477.917969 409.644531c0 11.945313-16.382813 21.929688-38.398438 24.746094-22.015625-2.816406-38.402343-12.800781-38.402343-24.746094 0-11.945312 16.386718-21.929687 38.402343-24.746093 22.015625 2.816406 38.398438 12.800781 38.398438 24.746093zm0 0" fill="#ccdb39"/><path d="m187.785156 76.84375c-2.851562 0-5.703125.167969-8.535156.511719-34.214844 4.214843-59.917969 33.28125-59.917969 67.753906 0 34.476563 25.703125 63.542969 59.917969 67.757813 2.832031.339843 5.683594.511718 8.535156.511718 37.703125 0 68.265625-30.566406 68.265625-68.269531 0-37.699219-30.5625-68.265625-68.265625-68.265625zm0 0" fill="#fff"/><path d="m324.320312 76.84375c-2.855468 0-5.703124.167969-8.535156.511719-34.21875 4.214843-59.921875 33.28125-59.921875 67.753906 0 34.476563 25.703125 63.542969 59.921875 67.757813 2.832032.339843 5.679688.511718 8.535156.511718 37.699219 0 68.265626-30.566406 68.265626-68.269531 0-37.699219-30.566407-68.265625-68.265626-68.265625zm0 0" fill="#fff"/><path d="m230.453125 145.109375c0 23.566406-19.105469 42.667969-42.667969 42.667969s-42.667968-19.101563-42.667968-42.667969c0-23.5625 19.105468-42.664063 42.667968-42.664063s42.667969 19.101563 42.667969 42.664063zm0 0" fill="#9c27af"/><path d="m366.984375 145.109375c0 23.566406-19.101563 42.667969-42.664063 42.667969-23.566406 0-42.667968-19.101563-42.667968-42.667969 0-23.5625 19.101562-42.664063 42.667968-42.664063 23.5625 0 42.664063 19.101563 42.664063 42.664063zm0 0" fill="#9c27af"/><path d="m204.851562 145.109375c0 9.425781-7.640624 17.066406-17.066406 17.066406-9.425781 0-17.066406-7.640625-17.066406-17.066406s7.640625-17.066406 17.066406-17.066406c9.425782 0 17.066406 7.640625 17.066406 17.066406zm0 0" fill="#37474f"/><path d="m341.386719 145.109375c0 9.425781-7.644531 17.066406-17.066407 17.066406-9.425781 0-17.070312-7.640625-17.070312-17.066406s7.644531-17.066406 17.070312-17.066406c9.421876 0 17.066407 7.640625 17.066407 17.066406zm0 0" fill="#37474f"/><path d="m256.050781 332.84375c-8.199219 0-15.941406-3.777344-20.984375-10.238281-5.046875-6.464844-6.835937-14.890625-4.84375-22.84375l8.761719-35.183594h34.132813l8.800781 35.183594c1.988281 7.957031.199219 16.390625-4.855469 22.855469-5.054688 6.464843-12.804688 10.238281-21.011719 10.226562zm0 0" fill="#e81e63"/><path d="m76.851562 76.84375-17.066406 34.132812c-28.277344 0-51.199218-22.921874-51.199218-51.199218-.019532-8.660156 2.183593-17.179688 6.398437-24.746094 25.605469 4.566406 48.082031 19.757812 61.867187 41.8125zm0 0" fill="#e81e63"/><path d="m503.519531 59.777344c0 28.277344-22.925781 51.199218-51.199219 51.199218l-2.734374-5.375-14.335938-28.757812c9.675781-15.042969 23.320312-27.121094 39.425781-34.902344 7.15625-3.246094 14.699219-5.570312 22.441407-6.910156 4.214843 7.566406 6.417968 16.085938 6.402343 24.746094zm0 0" fill="#ac1457"/><path d="m477.917969 59.777344c.007812 19.410156-10.964844 37.15625-28.332031 45.824218l-14.335938-28.757812c9.675781-15.042969 23.320312-27.121094 39.425781-34.902344 2.171875 5.695313 3.273438 11.742188 3.242188 17.835938zm0 0" fill="#e81e63"/><path d="m179.25 128.042969c0 9.425781-7.640625 17.066406-17.066406 17.066406-9.425782 0-17.066406-7.640625-17.066406-17.066406s7.640624-17.066407 17.066406-17.066407c9.425781 0 17.066406 7.640626 17.066406 17.066407zm0 0" fill="#fff"/><path d="m315.785156 128.042969c0 9.425781-7.640625 17.066406-17.066406 17.066406s-17.066406-7.640625-17.066406-17.066406 7.640625-17.066407 17.066406-17.066407 17.066406 7.640626 17.066406 17.066407zm0 0" fill="#fff"/><path d="m512.050781 59.777344c.011719-10.253906-2.632812-20.335938-7.679687-29.261719l-.09375-.152344c-11.667969-20.699219-34.503906-32.5-58.136719-30.042969-23.632813 2.457032-43.554687 18.703126-50.714844 41.359376-41.230469-27.546876-89.789062-42.054688-139.375-41.6367192-49.582031-.4179688-98.144531 14.0898432-139.375 41.6367192-7.171875-22.636719-27.082031-38.863282-50.699219-41.320313-23.617187-2.457031-46.441406 9.328125-58.117187 30.003906l-.128906.152344c-9.554688 16.921875-10.269531 37.433594-1.914063 54.976563 8.355469 17.546874 24.730469 29.917968 43.890625 33.164062-10.222656 21.609375-15.523437 45.21875-15.523437 69.121094.296875 38.773437 14.039062 76.238281 38.878906 106.011718-12.132812 25.714844-19.089844 53.566407-20.480469 81.96875-30.402343 1.910157-52.5312498 15.828126-52.5312498 33.886719 0 19.457031 25.6874998 34.132813 59.7343748 34.132813s59.734375-14.675782 59.734375-34.132813c0-17.511719-20.839843-31.113281-49.828125-33.664062 1.375-23.519531 6.679688-46.640625 15.695313-68.402344 20.277343 20.382813 44.332031 36.613281 70.824219 47.785156-11.46875 28.207031-17.773438 58.242188-18.617188 88.679688-30.210938 1.988281-52.207031 15.871093-52.207031 33.867187 0 19.457032 25.683593 34.132813 59.730469 34.132813 34.050781 0 59.734374-14.675781 59.734374-34.132813 0-17.578125-21-31.214844-50.160156-33.6875.746094-28.398437 6.761719-56.410156 17.734375-82.613281 54.292969 18.554687 113.21875 18.535156 167.5-.058594 10.886719 26.242188 16.832031 54.269531 17.535157 82.671875-29.207032 2.464844-50.210938 16.101563-50.210938 33.6875 0 19.457032 25.6875 34.132813 59.734375 34.132813s59.734375-14.675781 59.734375-34.132813c0-17.996094-22-31.878906-52.242188-33.867187-.832031-30.433594-7.128906-60.472657-18.585937-88.679688 26.492187-11.175781 50.550781-27.414062 70.828125-47.804687 8.992188 21.777344 14.285156 44.902344 15.660156 68.421875-28.957031 2.550781-49.792968 16.144531-49.792968 33.664062 0 19.457031 25.683593 34.132813 59.734374 34.132813 34.046876 0 59.730469-14.675782 59.730469-34.132813 0-18.058593-22.125-31.976562-52.523437-33.886719-1.386719-28.402343-8.347656-56.253906-20.476563-81.96875 24.835938-29.773437 38.574219-67.242187 38.867188-106.011718.003906-23.902344-5.300781-47.511719-15.523438-69.121094 28.667969-4.941406 49.625-29.789062 49.65625-58.878906zm-324.265625 418.132812c0 6.957032-16.621094 17.066406-42.667968 17.066406-26.042969 0-42.664063-10.109374-42.664063-17.066406 0-6.1875 13.183594-14.8125 34.398437-16.664062-.164062 5.375-.265624 10.878906-.265624 16.664062 0 4.714844 3.820312 8.535156 8.53125 8.535156 4.714843 0 8.535156-3.820312 8.535156-8.535156 0-5.800781.109375-11.289062.265625-16.640625 20.914062 1.9375 33.867187 10.503907 33.867187 16.640625zm221.867188 0c0 6.957032-16.625 17.066406-42.667969 17.066406s-42.664063-10.109374-42.664063-17.066406c0-6.136718 12.953126-14.703125 33.867188-16.640625.152344 5.351563.265625 10.839844.265625 16.640625 0 4.714844 3.820313 8.535156 8.53125 8.535156 4.714844 0 8.535156-3.820312 8.535156-8.535156 0-5.785156-.101562-11.289062-.265625-16.664062 21.214844 1.851562 34.398438 10.476562 34.398438 16.664062zm-307.199219-68.265625c0 6.953125-16.625 17.066407-42.667969 17.066407-26.042968 0-42.667968-10.113282-42.667968-17.066407 0-6.195312 13.21875-14.839843 34.476562-16.675781-.207031 5.378906-.34375 10.882812-.34375 16.675781 0 4.710938 3.824219 8.53125 8.535156 8.53125 4.710938 0 8.535156-3.820312 8.535156-8.53125 0-5.804687.132813-11.308593.339844-16.640625 20.871094 1.953125 33.792969 10.511719 33.792969 16.640625zm392.53125 0c0 6.953125-16.621094 17.066407-42.664063 17.066407-26.046874 0-42.667968-10.113282-42.667968-17.066407 0-6.128906 12.917968-14.6875 33.792968-16.640625.203126 5.332032.339844 10.835938.339844 16.640625 0 4.710938 3.820313 8.53125 8.535156 8.53125 4.710938 0 8.53125-3.820312 8.53125-8.53125 0-5.792969-.136718-11.296875-.339843-16.675781 21.253906 1.835938 34.472656 10.480469 34.472656 16.675781zm-42.664063-307.199219c-.800781.035157-1.605468.003907-2.398437-.085937-3.21875-.453125-6.414063.964844-8.242187 3.648437-1.828126 2.6875-1.96875 6.179688-.371094 9.007813 12.753906 22.132813 19.492187 47.21875 19.542968 72.761719-.230468 32.804687-11.238281 64.621094-31.324218 90.554687-6.285156-9.609375-15.214844-17.195312-25.710938-21.84375-2.898437-.964843-6.085937-.308593-8.371094 1.71875-2.28125 2.027344-3.308593 5.117188-2.695312 8.105469s2.777344 5.425781 5.671875 6.390625c8.242187 4.429687 15.085937 11.074219 19.761719 19.179687-19.792969 21.003907-43.84375 37.539063-70.542969 48.496094-13.550781-20.574218-27.546875-23.976562-30.464844-24.457031-3.050781-.601563-6.1875.503906-8.1875 2.886719-2 2.378906-2.546875 5.660156-1.425781 8.5625s3.734375 4.960937 6.816406 5.378906c6.886719 2.675781 12.734375 7.496094 16.679688 13.746094-48.675782 15.851562-101.128906 15.875-149.820313.0625 3.972657-6.269532 9.8125-11.136719 16.691407-13.917969 4.476562-.988281 7.371093-5.332031 6.5625-9.839844-.808594-4.511719-5.035157-7.574219-9.574219-6.945312-2.917969.476562-16.910157 3.882812-30.464844 24.457031-26.691406-10.933594-50.742187-27.445312-70.535156-48.429688 4.710937-8.136718 11.59375-14.804687 19.875-19.257812 4.285156-1.644531 6.5-6.386719 5.011719-10.730469-1.484376-4.339843-6.136719-6.730469-10.53125-5.40625-10.5 4.648438-19.429688 12.234375-25.710938 21.84375-20.082031-25.933593-31.085938-57.753906-31.3125-90.554687.050781-25.542969 6.789062-50.628906 19.542969-72.761719 1.496093-2.644531 1.476562-5.882813-.050781-8.503906-1.527344-2.625-4.335938-4.238281-7.375-4.238281-.394532 0-.792969.027343-1.183594.085937-.535156.066406-1.074219.09375-1.613282.085937-11.425781.125-22.433593-4.304687-30.585937-12.3125-8.152344-8.003906-12.78125-18.929687-12.867187-30.355468.035156-5.113282 1-10.179688 2.851562-14.949219 20.640625 5.527344 38.421875 18.65625 49.785156 36.753906 2.613282 3.917969 7.914063 4.976563 11.832032 2.363281 3.921874-2.617187 4.980468-7.917968 2.367187-11.835937-12.695313-20-31.960937-34.953125-54.488281-42.285156 11.785156-11.980469 29.515625-15.90625 45.253906-10.023438 15.742188 5.886719 26.546875 20.480469 27.578125 37.253907.195313 3.164062 2.128906 5.960937 5.019531 7.261718 2.894532 1.300782 6.265625.890625 8.761719-1.066406 40.246094-30.488281 89.488281-46.722656 139.972656-46.140625 50.476563-.574219 99.710938 15.65625 139.949219 46.140625 2.496094 1.957031 5.867188 2.367188 8.761719 1.066406 2.890625-1.300781 4.824219-4.097656 5.019531-7.261718 1.023438-16.785157 11.832031-31.394532 27.582031-37.28125 15.753907-5.886719 33.492188-1.945313 45.273438 10.050781-22.523438 7.332031-41.789063 22.285156-54.484375 42.285156-2.617188 3.917969-1.558594 9.21875 2.363281 11.835937 3.921875 2.613282 9.21875 1.554688 11.835937-2.363281 11.359376-18.097656 29.144532-31.226562 49.785157-36.753906 1.847656 4.769531 2.816406 9.835937 2.847656 14.949219-.027344 23.550781-19.113281 42.636718-42.664063 42.667968zm0 0"/><path d="m324.320312 68.3125c-28.796874.035156-55.152343 16.179688-68.269531 41.8125-16.179687-31.570312-51.878906-47.949219-86.363281-39.628906-34.484375 8.324218-58.78125 39.183594-58.78125 74.65625 0 35.476562 24.296875 66.335937 58.78125 74.65625 34.484375 8.324218 70.183594-8.054688 86.363281-39.625 17.242188 33.589844 56.339844 49.664062 92.222657 37.914062 35.878906-11.746094 57.902343-47.832031 51.9375-85.113281-5.960938-37.285156-38.136719-64.703125-75.890626-64.671875zm-136.535156 136.53125c-32.988281 0-59.734375-26.742188-59.734375-59.734375 0-32.988281 26.746094-59.730469 59.734375-59.730469 32.988282 0 59.734375 26.742188 59.734375 59.730469-.042969 32.972656-26.761719 59.691406-59.734375 59.734375zm136.535156 0c-32.992187 0-59.734374-26.742188-59.734374-59.734375 0-32.988281 26.742187-59.730469 59.734374-59.730469 32.988282 0 59.730469 26.742188 59.730469 59.730469-.042969 32.972656-26.761719 59.691406-59.730469 59.734375zm0 0"/><path d="m187.785156 119.511719c-10.355468 0-19.6875 6.238281-23.652344 15.800781-3.960937 9.566406-1.769531 20.578125 5.550782 27.898438 7.320312 7.324218 18.332031 9.511718 27.898437 5.550781 9.566407-3.960938 15.804688-13.296875 15.804688-23.652344 0-14.136719-11.464844-25.597656-25.601563-25.597656zm0 34.132812c-4.710937 0-8.535156-3.820312-8.535156-8.535156 0-4.710937 3.824219-8.53125 8.535156-8.53125 4.710938 0 8.535156 3.820313 8.535156 8.53125 0 4.714844-3.824218 8.535156-8.535156 8.535156zm0 0"/><path d="m324.320312 119.511719c-14.140624 0-25.601562 11.460937-25.601562 25.597656 0 14.140625 11.460938 25.601563 25.601562 25.601563 14.136719 0 25.597657-11.460938 25.597657-25.601563 0-14.136719-11.460938-25.597656-25.597657-25.597656zm0 34.132812c-4.714843 0-8.535156-3.820312-8.535156-8.535156 0-4.710937 3.820313-8.53125 8.535156-8.53125 4.710938 0 8.53125 3.820313 8.53125 8.53125 0 4.714844-3.820312 8.535156-8.53125 8.535156zm0 0"/><path d="m349.917969 230.445312c-4.710938 0-8.53125 3.820313-8.53125 8.53125 0 9.425782-7.644531 17.066407-17.066407 17.066407h-136.535156c-9.425781 0-17.066406-7.640625-17.066406-17.066407 0-4.710937-3.820312-8.53125-8.535156-8.53125-4.710938 0-8.53125 3.820313-8.53125 8.53125 0 18.851563 15.28125 34.132813 34.132812 34.132813h40.277344l-6.144531 24.585937c-2.628907 10.507813-.265625 21.640626 6.402343 30.175782 6.667969 8.535156 16.898438 13.515625 27.730469 13.507812 10.832031.007813 21.0625-4.972656 27.734375-13.507812 6.667969-8.535156 9.03125-19.667969 6.398438-30.175782l-6.140625-24.585937h40.277343c18.847657 0 34.132813-15.28125 34.132813-34.132813 0-4.710937-3.820313-8.53125-8.535156-8.53125zm-76.269531 71.378907c1.355468 5.414062.136718 11.148437-3.300782 15.542969-3.441406 4.398437-8.714844 6.957031-14.296875 6.945312-5.574219.003906-10.839843-2.5625-14.269531-6.957031s-4.644531-10.121094-3.292969-15.53125l7.152344-28.714844h20.820313zm0 0"/></svg>