<svg height="512pt" viewBox="0 0 512 512.00071" width="512pt" xmlns="http://www.w3.org/2000/svg"><path d="m486.144531 503.46875h-460.289062c-5.03125.035156-9.828125-2.140625-13.113281-5.953125-3.285157-3.8125-4.730469-8.875-3.953126-13.84375l65.789063-398.335937 14.253906-63.40625c1.308594-5.6875 5.425781-10.320313 10.921875-12.285157h.085938c1.871094-.753906 3.871094-1.128906 5.886718-1.109375 14.570313-.097656 28.578126 5.609375 38.933594 15.851563 10.359375 10.246093 16.214844 24.191406 16.277344 38.761719.015625 5.898437 2.378906 11.546874 6.570312 15.699218 4.261719 4.171875 9.992188 6.503906 15.957032 6.488282h145.066406c5.933594.050781 11.644531-2.257813 15.871094-6.417969 4.226562-4.164063 6.621094-9.839844 6.65625-15.769531-.015625-14.527344 5.792968-28.453126 16.128906-38.65625 7.691406-7.515626 17.375-12.667969 27.90625-14.847657h.082031c3.648438-.757812 7.367188-1.128906 11.09375-1.109375 8.070313-.03125 15.085938 5.53125 16.898438 13.394532l14.25 63.40625 65.792969 398.335937c.773437 4.96875-.671876 10.03125-3.957032 13.84375s-8.078125 5.988281-13.109375 5.953125zm0 0" fill="#ac1457"/><path d="m460.875 503.46875h-435.328125c-4.988281-.027344-9.714844-2.234375-12.9375-6.039062-3.222656-3.808594-4.621094-8.835938-3.820313-13.757813l64.597657-398.335937 14-63.40625c1.257812-5.65625 5.304687-10.289063 10.746093-12.285157h.085938c25.28125 5.316407 43.347656 27.667969 43.246094 53.503907.003906 5.875 2.320312 11.515624 6.449218 15.699218 4.15625 4.160156 9.796876 6.492188 15.675782 6.488282h159.25c5.878906 0 11.515625-2.339844 15.667968-6.503907 4.152344-4.164062 6.476563-9.804687 6.460938-15.683593-.148438-25.851563 17.9375-48.226563 43.246094-53.503907h.085937c5.425781 2.011719 9.464844 6.636719 10.726563 12.285157l13.984375 63.40625 64.625 398.335937c.796875 4.921875-.601563 9.949219-3.824219 13.757813-3.222656 3.804687-7.949219 6.011718-12.9375 6.039062zm0 0" fill="#e81e63"/><path d="m381.183594 144.128906-7.425782 6.058594-15.699218 12.714844-36.277344 29.515625-37.707031 30.644531c7.390625 26.566406 30.054687 46.066406 57.429687 49.40625 2.765625.414062 5.5625.613281 8.363282.597656 31.503906.011719 58.925781-21.539062 66.359374-52.152344 7.4375-30.617187-7.042968-62.34375-35.042968-76.785156zm0 0" fill="#f4f4f4"/><path d="m213.074219 209.664062-8.359375-6.65625-42.242188-33.707031-8.019531-6.484375-23.46875-18.773437c-28.816406 14.800781-43.28125 47.796875-34.644531 79.019531 1.433594 5.113281 3.46875 10.039062 6.058594 14.675781.640624 1.234375 1.355468 2.433594 2.132812 3.585938 1.484375 2.417969 3.136719 4.730469 4.949219 6.910156.347656.449219.714843.875 1.109375 1.28125 1.023437 1.195313 2.132812 2.390625 3.242187 3.5s2.390625 2.300781 3.585938 3.328125c3.144531 2.738281 6.542969 5.167969 10.152343 7.25 1.375.878906 2.800782 1.679688 4.269532 2.390625 2.472656 1.195313 5.035156 2.21875 7.679687 3.242187 1.363281.425782 2.730469.855469 4.179688 1.28125 1.621093.425782 3.242187.851563 4.949219 1.195313.855468.167969 1.707031.253906 2.5625.425781 3.601562.660156 7.257812.976563 10.921874.9375 31.136719 0 58.332032-21.054687 66.132813-51.199218zm0 0" fill="#f4f4f4"/><path d="m204.796875 204.800781c-.003906 22.5625-17.578125 41.21875-40.101563 42.574219-22.523437 1.355469-42.207031-15.058594-44.921874-37.457031-2.710938-22.398438 12.484374-43.039063 34.679687-47.101563l50.261719 40.191406c.070312.59375.097656 1.195313.082031 1.792969zm0 0" fill="#00bbd3"/><path d="m392.53125 204.800781c0 23.5625-19.101562 42.667969-42.664062 42.667969-23.566407 0-42.667969-19.105469-42.667969-42.667969v-.511719l5.289062-4.265624 26.199219-21.335938 19.371094-15.785156c20.015625 3.949218 34.453125 21.496094 34.472656 41.898437zm0 0" fill="#00bbd3"/><path d="m187.730469 204.800781c0 14.136719-11.460938 25.601563-25.597657 25.601563-14.140624 0-25.601562-11.464844-25.601562-25.601563s11.460938-25.601562 25.601562-25.601562c14.136719 0 25.597657 11.464843 25.597657 25.601562zm0 0" fill="#37474f"/><path d="m375.464844 204.800781c0 14.136719-11.460938 25.601563-25.597656 25.601563-14.140626 0-25.601563-11.464844-25.601563-25.601563s11.460937-25.601562 25.601563-25.601562c14.136718 0 25.597656 11.464843 25.597656 25.601562zm0 0" fill="#37474f"/><path d="m415.144531 469.335938s-1.960937-9.730469-20.394531-19.882813c-5.0625-2.78125-10.34375-5.148437-15.785156-7.085937-11.703125-4.164063-23.753906-7.277344-36.011719-9.300782-3.753906-.683594-7.765625-1.277344-11.945313-1.875-1.964843-.257812-4.011718-.511718-6.058593-.855468-3.5-.425782-7.253907-.765626-11.09375-1.109376-14.167969-1.449218-30.292969-2.304687-48.640625-2.472656-2.988282-.085937-6.058594-.085937-9.214844-.085937-3.160156 0-6.230469 0-9.21875.085937-18.34375.167969-34.472656 1.023438-48.636719 2.472656-3.84375.34375-7.597656.683594-11.09375 1.109376-2.050781.34375-4.097656.597656-6.058593.855468-4.183594.597656-8.195313 1.191406-11.949219 1.875-12.253907 2.023438-24.308594 5.136719-36.007813 9.300782-5.445312 1.9375-10.722656 4.304687-15.789062 7.085937-18.429688 10.152344-20.394532 19.882813-20.394532 19.882813s-30.292968-65.28125 7.425782-112.984376c1.191406-1.535156 2.472656-3.070312 3.839844-4.523437 3.054687-3.429687 6.394531-6.601563 9.984374-9.46875.820313-.757813 1.707032-1.441406 2.644532-2.050781 22.183594-15.679688 47.941406-25.566406 74.921875-28.757813.632812-.070312 1.257812-.183593 1.878906-.339843 4.863281-.683594 9.980469-1.363282 15.273437-1.875.679688-.101563 1.363282-.15625 2.046876-.171876 27.359374-2.617187 54.902343-2.617187 82.261718 0 .6875.015626 1.371094.070313 2.046875.171876 5.292969.511718 10.414063 1.191406 15.277344 1.875.617187.15625 1.242187.269531 1.875.339843 26.980469 3.191407 52.738281 13.078125 74.921875 28.757813.941406.609375 1.824219 1.292968 2.648438 2.050781 3.589843 2.867187 6.929687 6.039063 9.984374 9.46875 1.363282 1.453125 2.644532 2.988281 3.839844 4.523437 37.714844 47.703126 7.421875 112.984376 7.421875 112.984376zm0 0" fill="#ffebb2"/><path d="m145.066406 187.734375c0 9.425781-7.640625 17.066406-17.066406 17.066406s-17.066406-7.640625-17.066406-17.066406 7.640625-17.066406 17.066406-17.066406 17.066406 7.640625 17.066406 17.066406zm0 0" fill="#f4f4f4"/><path d="m486.183594 512c7.601562.011719 14.824218-3.320312 19.746094-9.113281 4.851562-5.695313 6.945312-13.242188 5.71875-20.625l-65.917969-398.804688-14.261719-63.4375c-2.664062-11.742187-13.121094-20.0624998-25.164062-20.019531-35.042969-.144531-63.59375 28.101562-63.820313 63.148438-.085937 7.621093-6.332031 13.734374-13.953125 13.652343h-145.066406c-7.613282.066407-13.839844-6.042969-13.925782-13.652343-.226562-35.054688-28.792968-63.308594-63.847656-63.148438-12.054687-.0390625-22.515625 8.304688-25.164062 20.0625l-14.351563 63.878906-65.835937 398.320313c-1.21875 7.382812.875 14.925781 5.71875 20.625 4.925781 5.792969 12.148437 9.125 19.753906 9.113281zm-469-26.957031 65.707031-397.832031 14.269531-63.316407c.90625-3.980469 4.449219-6.796875 8.53125-6.785156 25.621094-.152344 46.535156 20.460937 46.753906 46.082031.117188 17.027344 13.992188 30.746094 31.019532 30.675782h145.066406c17.035156.058593 30.898438-13.6875 30.992188-30.71875.222656-25.632813 21.148437-46.246094 46.78125-46.082032 4.074218-.03125 7.621093 2.773438 8.535156 6.742188l14.164062 62.917968 65.824219 398.316407c.425781 2.445312-.269531 4.949219-1.894531 6.828125-1.679688 1.96875-4.140625 3.097656-6.730469 3.089844h-460.390625c-2.589844.007812-5.050781-1.121094-6.734375-3.089844-1.621094-1.878906-2.316406-4.382813-1.894531-6.828125zm0 0"/><path d="m162.132812 281.601562c34.941407.011719 65.484376-23.566406 74.324219-57.371093v-.230469c.050781-.378906.070313-.761719.058594-1.144531.128906-.683594.164063-1.382813.113281-2.082031-.109375-.539063-.269531-1.0625-.488281-1.570313-.132813-.523437-.3125-1.035156-.535156-1.527344-.386719-.585937-.839844-1.121093-1.351563-1.601562-.21875-.300781-.460937-.585938-.722656-.855469l-.15625-.117188-96.917969-77.613281-.128906-.101562c-.296875-.175781-.601563-.332031-.914063-.46875-.925781-.78125-2.101562-1.199219-3.3125-1.175781-.636718-.128907-1.285156-.179688-1.933593-.15625-.613281.105468-1.210938.277343-1.785157.511718-.441406.085938-.875.207032-1.296874.367188l-.121094.070312-.101563.058594c-31.449219 16.277344-47.695312 51.949219-39.324219 86.355469 8.367188 34.410156 39.179688 58.636719 74.59375 58.652343zm17.066407-76.800781c0 9.425781-7.640625 17.066407-17.066407 17.066407-9.425781 0-17.066406-7.640626-17.066406-17.066407s7.640625-17.066406 17.066406-17.066406c9.425782 0 17.066407 7.640625 17.066407 17.066406zm-48.914063-50.347656 22.246094 17.800781c-16.585938 4.847656-26.910156 21.351563-24.007812 38.386719 2.898437 17.035156 18.101562 29.191406 35.355468 28.277344 17.257813-.914063 31.089844-14.609375 32.171875-31.855469l22.1875 17.757812c-8.714843 24.640626-32.460937 40.738282-58.578125 39.703126-26.117187-1.03125-48.515625-18.953126-55.253906-44.207032-6.742188-25.253906 3.75-51.953125 25.878906-65.863281zm0 0"/><path d="m97.902344 477.808594c3.667968-.445313 6.632812-3.199219 7.347656-6.828125 0-.171875 3.242188-8.753907 22.605469-17.457031.5625-.1875 1.105469-.429688 1.621093-.726563 20.570313-8.847656 58.1875-17.597656 126.523438-17.597656 68.554688 0 106.1875 8.859375 126.710938 17.757812.203124.121094.433593.171875.640624.28125 20.152344 8.894531 23.378907 17.734375 23.398438 17.734375.710938 3.625 3.675781 6.382813 7.34375 6.828125.339844.039063.683594.058594 1.027344.058594 3.320312.003906 6.34375-1.921875 7.746094-4.933594 1.195312-2.558593 29.089843-63.957031-2.933594-114.175781-25.4375-39.867188-80.589844-60.082031-163.933594-60.082031-16.722656-.054688-33.429688.910156-50.03125 2.890625h-.113281c-1.132813.148437-2.277344.273437-3.410157.429687-.15625 0-.316406 0-.472656.058594-53.554687 7.246094-90.453125 26.195313-109.925781 56.703125-32.023437 50.21875-4.128906 111.582031-2.925781 114.175781 1.558594 3.359375 5.105468 5.332031 8.78125 4.882813zm232.207031-56.117188-12.628906-101.289062c24.699219 3.1875 48.246093 12.335937 68.617187 26.65625zm58.222656-49.160156-8.207031 61.347656c-10.304688-3.554687-20.855469-6.335937-31.574219-8.320312zm-75.550781 48.070312c-13.050781-1.222656-27.605469-2.03125-43.90625-2.3125l33.792969-78.773437zm-130.894531 1.089844-55.988281-74.632812c20.382812-14.328125 43.949218-23.476563 68.660156-26.65625zm27.441406-82.175781 33.792969 78.773437c-16.296875.28125-30.855469 1.089844-43.902344 2.3125zm-45.882813 86.042969c-10.714843 1.984375-21.269531 4.765625-31.574218 8.320312l-8.207032-61.355468zm249.011719 25.855468c-4.882812-4.195312-10.269531-7.765624-16.035156-10.632812l9.617187-71.996094c17.902344 28.960938 11.992188 63.609375 6.417969 82.628906zm-118.851562-134.066406-37.605469 87.679688-37.609375-87.679688c11.742187-1.050781 24.246094-1.613281 37.609375-1.613281s25.863281.5625 37.605469 1.613281zm-187.65625 51.472656 9.625 71.996094c-5.761719 2.855469-11.148438 6.414063-16.035157 10.597656-5.5625-19.019531-11.484374-53.667968 6.410157-82.59375zm0 0"/><path d="m275.769531 224.214844c0 .371094.027344.742187.078125 1.109375v.101562c9.429688 33.785157 40.554688 56.886719 75.621094 56.132813 35.070312-.753906 65.171875-25.171875 73.140625-59.332032 7.972656-34.160156-8.214844-69.378906-39.332031-85.574218l-.152344-.117188c-.128906-.070312-.273438-.0625-.410156-.121094-.867188-.414062-1.800782-.679687-2.753906-.785156-1.082032.082032-2.160157.195313-3.234376.332032-.710937.261718-1.382812.613281-2 1.050781-.3125.132812-.613281.292969-.902343.46875l-.070313.058593-97.066406 78.890626c-.257812.273437-.503906.558593-.734375.855468-.511719.488282-.960937 1.039063-1.339844 1.636719-.21875.488281-.390625 1-.511719 1.519531-.210937.515625-.375 1.050782-.484374 1.597656-.046876.726563.003906 1.460938.152343 2.175782zm133.828125-19.414063c.0625 28.84375-20.539062 53.59375-48.914062 58.769531-28.375 5.175782-56.386719-10.703124-66.515625-37.710937l21.898437-17.800781c1.582032 17.015625 15.53125 30.222656 32.609375 30.863281 17.078125.644531 31.984375-11.472656 34.84375-28.320313 2.855469-16.847656-7.21875-33.203124-23.550781-38.226562l21.949219-17.835938c17.234375 10.898438 27.679687 29.871094 27.679687 50.261719zm-59.730468-17.066406c9.421874 0 17.066406 7.640625 17.066406 17.066406s-7.644532 17.066407-17.066406 17.066407c-9.425782 0-17.070313-7.640626-17.070313-17.066407s7.644531-17.066406 17.070313-17.066406zm0 0"/></svg>