<svg height="512pt" viewBox="0 0 512 512.03415" width="512pt" xmlns="http://www.w3.org/2000/svg"><path d="m383.96875 392.617188c-9.640625 8.375-23.054688 10.890624-35.074219 6.570312h-1.449219l-23.382812.171875-160.425781 1.195313c-5.46875.695312-11.007813.667968-16.46875-.085938-7.109375-.570312-13.871094-3.308594-19.371094-7.851562-14.933594-15.019532-9.558594-44.714844 12.117187-66.386719 11.386719-12.195313 27.035157-19.527344 43.691407-20.480469h142.847656c17.273437.425781 33.644531 7.808594 45.398437 20.480469 21.671876 21.671875 27.050782 51.367187 12.117188 66.386719zm0 0" fill="#6a1b99"/><path d="m358.367188 392.617188c-3.046876 3.011718-6.757813 5.261718-10.835938 6.570312h-.085938c-7.605468 2.371094-15.742187 2.429688-23.382812.171875-.261719-.015625-.523438-.074219-.765625-.171875l-176.128906 1.28125c-7.109375-.570312-13.871094-3.308594-19.371094-7.851562-14.933594-15.019532-9.558594-44.714844 12.117187-66.386719 11.386719-12.195313 27.035157-19.527344 43.691407-20.480469h118.699219c16.746093.886719 32.496093 8.226562 43.945312 20.480469 21.675781 21.671875 27.050781 51.367187 12.117188 66.386719zm0 0" fill="#9c27af"/><path d="m349.75 418.132812c0 2.988282-.085938 5.800782-.171875 8.53125h-187.476563c.085938-2.644531.171876-5.542968.425782-8.53125.257812-5.546874.597656-11.519531 1.109375-17.578124.996093-14.640626 2.90625-29.203126 5.71875-43.605469 3.640625-16.035157 8.460937-31.777344 14.421875-47.105469.9375-2.472656 1.875-4.949219 2.898437-7.335938h138.410157c1.027343 2.386719 1.964843 4.863282 2.902343 7.335938 5.957031 15.328125 10.777344 31.070312 14.421875 47.105469 4.617188 20.074219 7.078125 40.585937 7.339844 61.183593zm0 0" fill="#9c27af"/><path d="m426.550781 162.132812c.027344 1.425782-.03125 2.847657-.171875 4.265626-2.390625 82.859374-77.824218 149.335937-170.496094 149.335937-92.671874 0-168.105468-66.476563-170.496093-149.335937-.140625-1.417969-.199219-2.839844-.171875-4.265626 0-84.820312 76.375-153.601562 170.667968-153.601562 94.292969 0 170.667969 68.78125 170.667969 153.601562zm0 0" fill="#cc66a1"/><path d="m426.550781 162.132812c.027344 1.425782-.03125 2.847657-.171875 4.265626-2.390625 82.859374-77.824218 149.335937-170.496094 149.335937-2.816406 0-5.632812-.085937-8.449218-.171875h-.171875c-88.660157-4.011719-159.570313-68.863281-161.875-149.164062-.140625-1.417969-.199219-2.839844-.171875-4.265626 0-82.175781 71.679687-149.25 161.878906-153.429687h.511719c2.730469-.085937 5.546875-.171875 8.277343-.171875 94.292969 0 170.667969 68.78125 170.667969 153.601562zm0 0" fill="#6a1b99"/><path d="m400.949219 162.132812c.027343 1.425782-.027344 2.847657-.164063 4.265626-2.242187 80.300781-71.292968 145.152343-157.617187 149.164062h-.171875c-86.324219-4.011719-155.375-68.863281-157.617188-149.164062-.136718-1.417969-.191406-2.839844-.164062-4.265626 0-82.175781 69.792968-149.25 157.621094-153.429687h.492187c87.828125 4.179687 157.621094 71.253906 157.621094 153.429687zm0 0" fill="#9c27af"/><path d="m187.617188 85.332031c-2.859376-.035156-5.71875.195313-8.535157.683594-29.371093 4.21875-51.175781 29.378906-51.175781 59.050781s21.804688 54.832032 51.175781 59.050782c2.816407.488281 5.675781.714843 8.535157.683593 32.988281 0 59.730468-26.746093 59.730468-59.734375 0-32.992187-26.742187-59.734375-59.730468-59.734375zm0 0" fill="#fff"/><path d="m324.148438 85.332031c-2.859376-.035156-5.714844.195313-8.53125.683594-29.371094 4.21875-51.175782 29.378906-51.175782 59.050781s21.804688 54.832032 51.175782 59.050782c2.816406.488281 5.671874.714843 8.53125.683593 32.992187 0 59.734374-26.746093 59.734374-59.734375 0-32.992187-26.742187-59.734375-59.734374-59.734375zm0 0" fill="#fff"/><path d="m230.28125 145.066406c0 23.5625-19.101562 42.667969-42.664062 42.667969-23.566407 0-42.667969-19.105469-42.667969-42.667969 0-23.566406 19.101562-42.667968 42.667969-42.667968 23.5625 0 42.664062 19.101562 42.664062 42.667968zm0 0" fill="#02a8f3"/><path d="m366.816406 145.066406c0 23.5625-19.101562 42.667969-42.667968 42.667969-23.5625 0-42.667969-19.105469-42.667969-42.667969 0-23.566406 19.105469-42.667968 42.667969-42.667968 23.566406 0 42.667968 19.101562 42.667968 42.667968zm0 0" fill="#02a8f3"/><path d="m204.683594 145.066406c0 9.425782-7.640625 17.066406-17.066406 17.066406-9.425782 0-17.066407-7.640624-17.066407-17.066406 0-9.425781 7.640625-17.066406 17.066407-17.066406 9.425781 0 17.066406 7.640625 17.066406 17.066406zm0 0" fill="#37474f"/><path d="m341.214844 145.066406c0 9.425782-7.640625 17.066406-17.066406 17.066406-9.425782 0-17.066407-7.640624-17.066407-17.066406 0-9.425781 7.640625-17.066406 17.066407-17.066406 9.425781 0 17.066406 7.640625 17.066406 17.066406zm0 0" fill="#37474f"/><path d="m264.414062 238.933594h51.203126v25.597656c0 14.140625-11.464844 25.601562-25.601563 25.601562s-25.601563-11.460937-25.601563-25.601562zm0 0" fill="#e81e63"/><path d="m315.617188 426.664062c0-28.242187-26.777344-76.796874-59.734376-76.796874-32.957031 0-59.734374 48.554687-59.734374 76.796874l8.535156 70.0625c4.753906 1.792969 9.667968 3.136719 14.675781 4.007813 12.0625 2.039063 24.289063 2.953125 36.523437 2.730469 12.230469.222656 24.457032-.691406 36.523438-2.730469 5.007812-.871094 9.921875-2.214844 14.675781-4.007813zm0 0" fill="#ff9701"/><path d="m204.683594 435.199219v59.734375c0 4.710937-3.820313 8.53125-8.535156 8.53125h-68.265626c-14.140624 0-25.601562-11.460938-25.601562-25.597656 0-1.738282.085938-3.476563.257812-5.207032 2.71875-26.105468 24.699219-45.949218 50.941407-45.996094h42.667969c4.714843 0 8.535156 3.824219 8.535156 8.535157zm0 0" fill="#9c27af"/><path d="m409.480469 477.867188c0 14.136718-11.460938 25.597656-25.597657 25.597656h-68.265624c-4.714844 0-8.535157-3.820313-8.535157-8.53125v-59.734375c0-4.710938 3.820313-8.535157 8.535157-8.535157h42.664062c26.253906.027344 48.246094 19.882813 50.945312 45.996094.171876 1.730469.257813 3.46875.253907 5.207032zm0 0" fill="#6a1b99"/><path d="m383.882812 477.867188c0 14.136718-11.460937 25.597656-25.601562 25.597656h-42.664062c-4.714844 0-8.535157-3.820313-8.535157-8.53125v-59.734375c0-4.710938 3.820313-8.535157 8.535157-8.535157h17.066406c26.25.027344 48.242187 19.882813 50.941406 45.996094.171875 1.730469.257812 3.46875.257812 5.207032zm0 0" fill="#9c27af"/><path d="m42.550781 145.066406c0 9.425782-7.644531 17.066406-17.070312 17.066406s-17.066407-7.640624-17.066407-17.066406c0-9.425781 7.640626-17.066406 17.066407-17.066406s17.070312 7.640625 17.070312 17.066406zm0 0" fill="#6a1b99"/><path d="m503.347656 145.066406c0 9.425782-7.640625 17.066406-17.066406 17.066406s-17.066406-7.640624-17.066406-17.066406c0-9.425781 7.640625-17.066406 17.066406-17.066406s17.066406 7.640625 17.066406 17.066406zm0 0" fill="#6a1b99"/><path d="m187.617188 119.464844c0 9.425781-7.644532 17.066406-17.066407 17.066406-9.425781 0-17.070312-7.640625-17.070312-17.066406 0-9.425782 7.644531-17.066406 17.070312-17.066406 9.421875 0 17.066407 7.640624 17.066407 17.066406zm0 0" fill="#fff"/><path d="m324.148438 119.464844c0 9.425781-7.640626 17.066406-17.066407 17.066406s-17.066406-7.640625-17.066406-17.066406c0-9.425782 7.640625-17.066406 17.066406-17.066406s17.066407 7.640624 17.066407 17.066406zm0 0" fill="#fff"/><path d="m460.683594 145.066406c-.066406 13.175782 9.886718 24.25 22.996094 25.589844 13.109374 1.339844 25.09375-7.488281 27.699218-20.40625 2.601563-12.917969-5.023437-25.703125-17.628906-29.546875-2.851562-26.742187-12.757812-67.90625-46.082031-87.320313-22.484375-13.125-51.71875-13.824218-87.039063-2.476562-63.808594-41.207031-145.839844-41.207031-209.648437 0-35.285157-11.347656-64.511719-10.640625-87.039063 2.476562-33.28125 19.414063-43.1875 60.585938-46.035156 87.320313-11.835938 3.691406-19.292969 15.367187-17.667969 27.65625s11.859375 21.621094 24.246094 22.113281c12.386719.488282 23.328125-8.011718 25.917969-20.132812 2.585937-12.121094-3.925782-24.347656-15.429688-28.960938 2.746094-23.246094 11.160156-57.789062 37.671875-73.25 15.746094-9.191406 36.3125-10.53125 61.226563-4.40625-35.695313 29.023438-56.648438 72.40625-57.1875 118.410156 0 58.921876 35.035156 110.445313 87.132812 138.835938-11.273437 4.136719-21.503906 10.703125-29.960937 19.226562-25.34375 25.34375-30.675781 59.792969-12.117188 78.457032 9.199219 7.480468 20.816407 11.34375 32.664063 10.863281-.203125 3.148437-.367188 5.972656-.492188 8.617187h-.429687c-32.972657.039063-59.695313 26.757813-59.730469 59.734376 0 18.851562 15.28125 34.132812 34.132812 34.132812h68.265626c4.574218-.003906 8.953124-1.847656 12.152343-5.121094 2.96875.855469 6.074219 1.613282 9.453125 2.234375 12.59375 2.152344 25.355469 3.117188 38.128906 2.886719 12.75.234375 25.496094-.726562 38.066407-2.867188 3.414062-.632812 6.535156-1.398437 9.515625-2.253906 3.195312 3.273438 7.574218 5.121094 12.152344 5.121094h68.265624c18.851563 0 34.132813-15.28125 34.132813-34.132812-.039063-32.976563-26.757813-59.695313-59.734375-59.734376 0-2.851562-.167969-5.878906-.289062-8.847656 1.253906.09375 2.558593.269532 3.761718.269532 10.503906.289062 20.683594-3.644532 28.265625-10.921876 18.542969-18.644531 13.207031-53.09375-12.136719-78.4375-8.453124-8.523437-18.683593-15.082031-29.960937-19.207031 52.113281-28.390625 87.160156-79.925781 87.160156-138.855469-.53125-46.003906-21.480469-89.390624-57.171875-118.417968 24.925782-6.117188 45.5-4.777344 61.234375 4.414062 26.511719 15.460938 34.925781 49.960938 37.546875 73.25-9.660156 3.902344-15.988281 13.269532-16.007812 23.6875zm-435.203125 8.53125c-4.710938 0-8.53125-3.820312-8.53125-8.53125 0-4.714844 3.820312-8.535156 8.53125-8.535156 4.714843 0 8.535156 3.820312 8.535156 8.535156 0 4.710938-3.820313 8.53125-8.535156 8.53125zm108.375 233.003906c-11.417969-11.484374-5.871094-36.367187 12.101562-54.339843 7.347657-7.492188 16.433594-13.046875 26.453125-16.171875-4.519531 12.769531-8.304687 25.789062-11.332031 38.988281-2.476563 12.351563-4.234375 24.832031-5.257813 37.386719-7.773437.578125-15.511718-1.488282-21.964843-5.863282zm267.09375 91.265626c0 9.425781-7.640625 17.066406-17.066407 17.066406h-68.265624v-17.066406c0-4.714844-3.820313-8.535157-8.535157-8.535157-4.710937 0-8.53125 3.820313-8.53125 8.535157v12.679687c-2.390625.671875-4.925781 1.289063-7.742187 1.808594-11.535156 1.941406-23.230469 2.804687-34.925782 2.578125-11.71875.234375-23.429687-.621094-34.988281-2.5625-2.78125-.511719-5.296875-1.125-7.679687-1.800782v-12.703124c0-4.714844-3.820313-8.535157-8.53125-8.535157-4.714844 0-8.535156 3.820313-8.535156 8.535157v17.066406h-68.265626c-9.425781 0-17.066406-7.640625-17.066406-17.066406.027344-23.554688 19.113282-42.640626 42.664063-42.667969h51.203125c4.582031.097656 8.410156-3.476563 8.632812-8.058594.21875-4.578125-3.25-8.503906-7.824218-8.847656 4.308593-25.597657 26.683593-59.894531 50.390624-59.894531 23.703126 0 46.078126 34.296874 50.390626 59.894531-4.574219.34375-8.042969 4.269531-7.824219 8.847656.21875 4.582031 4.046875 8.15625 8.632812 8.058594h51.199219c23.554688.027343 42.640625 19.113281 42.667969 42.667969zm-77.527344-59.734376c-4.394531-30.839843-30.964844-76.800781-67.539063-76.800781-36.574218 0-63.148437 45.960938-67.542968 76.800781h-17.296875c.289062-5.597656.640625-11.316406 1.109375-16.886718.9375-14.234375 2.78125-28.394532 5.523437-42.394532 3.550781-15.496093 8.203125-30.71875 13.925781-45.550781 41.605469 14.621094 86.953126 14.621094 128.5625 0 5.714844 14.816407 10.363282 30.019531 13.910157 45.5 4.492187 19.464844 6.886719 39.355469 7.140625 59.332031zm54.546875-31.574218c-5.84375 5.019531-13.699219 7.015625-21.230469 5.402344-1.300781-12.40625-3.308593-24.730469-6.015625-36.90625-3.03125-13.199219-6.8125-26.214844-11.332031-38.980469 10.027344 3.125 19.117187 8.695312 26.453125 16.214843 17.945312 17.945313 23.492188 42.828126 12.125 54.269532zm40.046875-224.425782c0 79.992188-72.730469 145.066407-162.132813 145.066407-89.40625 0-162.132812-65.074219-162.132812-145.066407.691406-44.871093 22.917969-86.675781 59.730469-112.339843 7.058593 2.558593 14.3125 5.503906 21.957031 9.121093 2.78125 1.527344 6.175781 1.390626 8.824219-.359374 2.644531-1.75 4.101562-4.824219 3.78125-7.980469-.320313-3.15625-2.367188-5.871094-5.308594-7.054688-3.882813-1.835937-7.59375-3.328125-11.359375-4.925781 52.695312-28.660156 116.320312-28.660156 169.011719 0-3.761719 1.597656-7.472657 3.089844-11.355469 4.925781-3.839844 2.230469-5.324219 7.03125-3.417969 11.042969 1.90625 4.007812 6.566407 5.886719 10.722657 4.316406 7.679687-3.625 14.890624-6.535156 21.953124-9.121094 36.820313 25.675782 59.042969 67.492188 59.726563 112.375zm68.265625-8.535156c-4.710938 0-8.53125-3.820312-8.53125-8.53125 0-4.714844 3.820312-8.535156 8.53125-8.535156 4.714844 0 8.535156 3.820312 8.535156 8.535156 0 4.710938-3.820312 8.53125-8.535156 8.53125zm0 0"/><path d="m187.617188 76.800781c-37.703126 0-68.269532 30.5625-68.269532 68.265625s30.566406 68.265625 68.269532 68.265625c37.699218 0 68.265624-30.5625 68.265624-68.265625-.042968-37.683594-30.582031-68.226562-68.265624-68.265625zm0 119.464844c-28.277344 0-51.203126-22.921875-51.203126-51.199219s22.925782-51.199218 51.203126-51.199218c28.273437 0 51.199218 22.921874 51.199218 51.199218-.027344 28.265625-22.9375 51.171875-51.199218 51.199219zm0 0"/><path d="m255.882812 145.066406c0 37.703125 30.5625 68.265625 68.265626 68.265625 37.703124 0 68.265624-30.5625 68.265624-68.265625s-30.5625-68.265625-68.265624-68.265625c-37.683594.039063-68.222657 30.582031-68.265626 68.265625zm119.464844 0c0 28.277344-22.921875 51.199219-51.199218 51.199219-28.277344 0-51.199219-22.921875-51.199219-51.199219s22.921875-51.199218 51.199219-51.199218c28.265624.027343 51.171874 22.933593 51.199218 51.199218zm0 0"/><path d="m187.617188 119.464844c-10.355469 0-19.691407 6.238281-23.652344 15.804687-3.964844 9.566407-1.773438 20.578125 5.546875 27.898438 7.324219 7.320312 18.335937 9.511719 27.902343 5.550781 9.5625-3.964844 15.800782-13.296875 15.800782-23.652344 0-14.140625-11.460938-25.601562-25.597656-25.601562zm0 34.132812c-4.714844 0-8.535157-3.820312-8.535157-8.53125 0-4.714844 3.820313-8.535156 8.535157-8.535156 4.710937 0 8.53125 3.820312 8.53125 8.535156 0 4.710938-3.820313 8.53125-8.53125 8.53125zm0 0"/><path d="m298.550781 145.066406c0 14.136719 11.460938 25.597656 25.597657 25.597656 14.140624 0 25.601562-11.460937 25.601562-25.597656 0-14.140625-11.460938-25.601562-25.601562-25.601562-14.136719 0-25.597657 11.460937-25.597657 25.601562zm34.132813 0c0 4.710938-3.820313 8.53125-8.535156 8.53125-4.710938 0-8.53125-3.820312-8.53125-8.53125 0-4.714844 3.820312-8.535156 8.53125-8.535156 4.714843 0 8.535156 3.820312 8.535156 8.535156zm0 0"/><path d="m324.148438 230.398438h-136.53125c-4.714844 0-8.535157 3.820312-8.535157 8.535156 0 4.710937 3.820313 8.53125 8.535157 8.53125h68.265624v17.066406c0 18.851562 15.28125 34.132812 34.132813 34.132812s34.132813-15.28125 34.132813-34.132812v-17.066406c4.714843 0 8.535156-3.820313 8.535156-8.53125 0-4.714844-3.820313-8.535156-8.535156-8.535156zm-17.066407 34.132812c0 9.425781-7.640625 17.066406-17.066406 17.066406s-17.066406-7.640625-17.066406-17.066406v-17.066406h34.132812zm0 0"/></svg>