<svg height="504pt" viewBox="0 0 504 504.43751" width="504pt" xmlns="http://www.w3.org/2000/svg"><path d="m469.648438 201.441406-53.800782 59.847656c-28.035156 21.570313-90.816406 75.121094-71.09375 108.023438 24.761719 41.292969 25.179688 58.25-22.914062 66.726562l-31.644532.421876h-75.539062l-31.644531-.421876c-48.09375-8.476562-47.675781-25.433593-22.914063-66.726562 19.726563-32.902344-43.058594-86.453125-71.09375-108.023438l-53.800781-59.847656c-18.464844-24.675781-5.289063-49.351562 3.023437-60.683594 1.640626-2.273437 3.433594-4.433593 5.371094-6.460937-.417968-2.753906-.644531-5.527344-.671875-8.3125-.921875-39.363281 34.582031-52.960937 51.117188-57.15625 2.738281-.707031 5.511719-1.269531 8.308593-1.679687 1.214844-2.484376 2.707032-4.820313 4.449219-6.96875 10.308594-11.632813 25-18.445313 40.539063-18.800782 2.097656-.167968 4.113281-.25 6.042968-.25 2.855469-.085937 5.457032 0 7.722657.082032 5.121093.253906 8.394531.757812 8.394531.757812 1.535156-2.316406 3.21875-4.53125 5.035156-6.632812 15.191406-18.382813 36.847656-25.683594 69.582032-26.773438 2.683593-.085938 5.453124-.167969 8.308593-.167969 37.433594.167969 61.441407 7.050781 77.890625 26.941407 1.59375 1.847656 3.023438 3.777343 4.449219 5.792968.167969.25.417969.585938.585937.839844 0 0 2.015626-.335938 5.457032-.589844.839844-.082031 1.847656-.082031 2.9375-.167968 13.515625-.753907 40.039062.589843 54.304687 18.96875 1.742188 2.148437 3.234375 4.484374 4.449219 6.96875 2.796875.410156 5.570312.972656 8.308594 1.679687 16.535156 4.195313 52.042968 17.792969 51.117187 57.074219-.023437 2.808594-.25 5.613281-.671875 8.394531 2.078125 2.171875 3.984375 4.503906 5.707032 6.964844 8.3125 11.582031 20.902343 35.839843 2.6875 60.179687zm0 0" fill="#d74315"/><path d="m444.703125 201.441406-52.761719 59.847656c-27.496094 21.570313-89.0625 75.121094-69.722656 108.023438 24.28125 41.292969 24.691406 58.25-22.46875 66.726562l-31.058594.421876h-57.679687l-31.054688-.421876c-47.171875-8.476562-46.761719-25.433593-22.476562-66.726562 19.304687-32.902344-42.226563-86.453125-69.71875-108.023438l-52.726563-59.847656c-18.105468-24.675781-5.179687-49.351562 2.972656-60.683594 1.601563-2.269531 3.351563-4.429687 5.246094-6.460937-.414062-2.753906-.632812-5.53125-.664062-8.3125-.90625-39.363281 33.910156-52.960937 50.125-57.15625 2.683594-.707031 5.40625-1.269531 8.152344-1.679687 1.1875-2.480469 2.652343-4.816407 4.363281-6.96875 10.011719-11.589844 24.449219-18.414063 39.757812-18.800782 3.359375.253906 5.347657.589844 5.347657.589844.167968-.253906.410156-.589844.578124-.839844 2.796876-.085937 5.347657 0 7.554688.082032 5.039062.253906 8.234375.757812 8.234375.757812 1.503906-2.316406 3.152344-4.53125 4.9375-6.632812 14.898437-18.382813 36.132813-25.683594 68.238281-26.773438 32.019532 1.175781 53.253906 8.390625 68.152344 26.773438 1.789062 2.101562 3.441406 4.316406 4.945312 6.632812 0 0 3.207032-.503906 8.234376-.757812 2.214843-.082032 4.765624-.167969 7.554687-.082032 1.886719 0 3.867187.082032 5.925781.25 15.308594.386719 29.746094 7.214844 39.757813 18.800782 1.710937 2.152343 3.171875 4.488281 4.355469 6.96875 2.746093.410156 5.46875.972656 8.152343 1.679687 16.214844 4.195313 51.039063 17.792969 50.132813 57.074219-.027344 2.808594-.246094 5.613281-.664063 8.394531 2.039063 2.175781 3.910157 4.503906 5.601563 6.964844 8.191406 11.582031 20.535156 35.839843 2.675781 60.179687zm0 0" fill="#ff5722"/><path d="m235.640625 402.886719c-20.734375 15.441406-25.351563 52.542969-25.9375 76.128906-.167969 4.53125-.082031 8.644531 0 11.917969.074219 1.835937-1.054687 3.507812-2.785156 4.125-1.734375.617187-3.667969.03125-4.769531-1.441406-38.019532-48.933594-8.476563-115.914063-8.476563-115.914063 7.886719-3.894531 16.894531-4.875 25.433594-2.769531 16.535156 5.457031 16.535156 27.953125 16.535156 27.953125zm0 0" fill="#ff9701"/><path d="m235.640625 402.886719c-20.734375 15.441406-25.351563 52.542969-25.9375 76.128906-23.332031-46.667969.753906-101.3125.753906-101.3125 2.800781-1.164063 5.691407-2.089844 8.648438-2.769531 16.535156 5.457031 16.535156 27.953125 16.535156 27.953125zm0 0" fill="#fdc008"/><path d="m302.785156 493.617188c-1.101562 1.472656-3.03125 2.058593-4.765625 1.441406-1.734375-.617188-2.863281-2.289063-2.785156-4.125.082031-3.359375.167969-7.386719 0-11.917969-.589844-23.671875-5.289063-60.601563-26.019531-76.128906 0 0 0-22.496094 16.53125-27.953125 8.539062-2.105469 17.550781-1.125 25.433594 2.769531 0 0 29.628906 66.980469-8.394532 115.914063zm0 0" fill="#ff9701"/><path d="m295.234375 479.015625c-.589844-23.671875-5.289063-60.601563-26.019531-76.128906 0 0 0-22.496094 16.53125-27.953125 2.957031.679687 5.847656 1.605468 8.648437 2.769531 0 0 24.171875 54.644531.839844 101.3125zm0 0" fill="#fdc008"/><path d="m192.246094 297.800781c-3.441406 10.742188-10.578125 39.53125 9.820312 46.332031 19.890625 6.628907 29.292969-7.722656 32.398438-22.246093zm0 0" fill="#f4f4f4"/><path d="m270.386719 321.886719c3.105469 14.523437 12.507812 28.875 32.398437 22.246093 20.398438-6.800781 13.261719-35.589843 9.820313-46.332031zm0 0" fill="#f4f4f4"/><path d="m140.710938 243.410156c-41.96875-16.789062-92.328126 33.574219-41.96875 151.082032 41.714843 97.28125-37.351563 102.484374-65.804688 101.476562-1.6875-.054688-3.171875-1.117188-3.777344-2.691406-.605468-1.574219-.207031-3.359375 1.007813-4.527344 43.730469-42.386719 28.371093-67.652344 8.980469-94.761719-3.1875-4.449219-6.546876-9.066406-9.820313-13.765625-6.082031-8.527344-10.96875-17.84375-14.519531-27.699218-3.660156-11.609376-5.695313-23.671876-6.042969-35.839844-.167969-5.621094-.167969-11.496094.082031-17.457032 1.417969-31.492187 9.488282-62.328124 23.671875-90.480468 2.628907-5.066406 5.515625-9.996094 8.644531-14.773438 8.59375-13.386718 19.574219-25.082031 32.398438-34.496094 9.832031-7.054687 20.632812-12.648437 32.0625-16.621093 5.746094-2.039063 11.636719-3.640625 17.625-4.785157 23.722656-4.617187 48.199219-3.550781 71.429688 3.105469 2.976562.84375 5.242187 3.269531 5.875 6.296875 31.390624 145.542969-18.296876 112.554688-59.84375 95.9375zm0 0" fill="#fdc008"/><path d="m495.667969 299.140625c.167969 5.960937.167969 11.753906-.082031 17.375-.371094 11.941406-2.378907 23.773437-5.960938 35.167969-3.632812 10.039062-8.632812 19.53125-14.855469 28.203125-3.191406 4.699219-6.546875 9.234375-9.738281 13.765625-19.21875 26.941406-34.160156 52.039062 9.234375 94.257812 1.207031 1.160156 1.609375 2.921875 1.027344 4.492188-.585938 1.566406-2.042969 2.640625-3.714844 2.726562-28.453125 1.089844-107.519531-4.195312-65.886719-101.476562 50.359375-117.507813 0-167.867188-41.96875-151.082032-41.464844 16.621094-91.234375 49.6875-59.761718-95.9375.632812-3.027343 2.898437-5.453124 5.875-6.292968 23.601562-6.710938 48.457031-7.714844 72.519531-2.9375 5.878906 1.214844 11.660156 2.871094 17.292969 4.949218 11.105468 3.964844 21.613281 9.445313 31.222656 16.285157 13.078125 9.617187 24.238281 21.601562 32.902344 35.335937 3.128906 4.757813 5.988281 9.691406 8.5625 14.773438 14.070312 28.144531 22.023437 58.953125 23.332031 90.394531zm0 0" fill="#fdc008"/><path d="m470.203125 131.585938c0-.078126-.09375-.128907-.117187-.210938 1.886718-15.296875-2.222657-30.730469-11.464844-43.058594-13.09375-15.121094-31-25.265625-50.699219-28.722656-17.195313-28.175781-54.597656-27.75-68.574219-26.507812-17.316406-23.015626-42.671875-32.742188-85.554687-33.085938h-2.734375c-42.882813.335938-68.238282 10.070312-85.554688 33.046875-13.984375-1.253906-51.386718-1.679687-68.574218 26.503906-19.707032 3.464844-37.609376 13.621094-50.695313 28.757813-9.257813 12.34375-13.367187 27.800781-11.457031 43.117187-12.464844 14.351563-26.75 43.519531-8.714844 71.46875-16.902344 32.457031-25.761719 68.5-25.824219 105.09375v.351563c-.2460935 15.863281 1.992188 31.667968 6.628907 46.835937 5.605468 14.628907 13.421874 28.304688 23.183593 40.558594 20.019531 27.847656 34.480469 47.960937-5.699219 86.980469-3.605468 3.507812-4.777343 8.828125-2.980468 13.523437 1.796875 4.699219 6.21875 7.878907 11.246094 8.082031 1.914062.074219 3.964843.117188 6.121093.117188 21.5625 0 54.320313-4.339844 70.773438-28.285156 13.636719-19.867188 12.589843-48.449219-3.039063-84.96875-23.59375-55.019532-23.835937-93.9375-14.511718-116.878906 38.953124 31.402343 73.375 69.945312 60.945312 90.652343-14.371094 23.953125-21.941406 41.707031-15.34375 56.167969 4.851562 10.625 16.191406 17.28125 37.175781 21.78125 1.226563 20.257812 8.464844 39.695312 20.789063 55.824219 2.367187 3.066406 6.019531 4.867187 9.894531 4.875 1.476563 0 2.941406-.257813 4.332031-.761719 5.125-1.835938 8.476563-6.765625 8.300782-12.203125-.601563-15.367187.714843-30.75 3.921874-45.789063h60.832032c3.265625 15.03125 4.632812 30.414063 4.074218 45.789063-.183593 5.441406 3.179688 10.375 8.308594 12.203125 1.382813.5 2.84375.761719 4.3125.761719 3.878906.003906 7.539063-1.785157 9.914063-4.851563 12.324219-16.128906 19.554687-35.570312 20.765625-55.832031 20.941406-4.5 32.265625-11.15625 37.105468-21.765625 6.597657-14.460938-.972656-32.210938-15.332031-56.167969-12.441406-20.738281 21.972657-59.28125 60.925781-90.648437 8.972657 23.039062 8.394532 61.691406-14.863281 116.046875-15.65625 36.503906-16.671875 65.09375-3.039062 84.949219 16.449219 23.929687 49.242187 28.269531 70.816406 28.269531 2.140625 0 4.195313-.039063 6.074219-.117188 5.03125-.203125 9.453125-3.382812 11.25-8.085937 1.796875-4.699219.621094-10.019532-2.988282-13.527344-40.171874-39.003906-25.710937-59.121094-5.691406-86.964844 9.757813-12.253906 17.578125-25.929687 23.191406-40.554687 12.421876-37.257813 7.957032-101.328125-18.785156-151.527344 17.894532-27.832031 3.777344-56.859375-8.644531-71.242187zm-11.296875 12.722656c10.109375 11.332031 13.785156 27.019531 9.761719 41.664062-8.828125-13.097656-19.847657-24.574218-32.578125-33.925781zm-412.699219-.261719 23.503907 7.976563c-.328126.226562-.65625.394531-.984376.628906-12.648437 9.226562-23.617187 20.558594-32.433593 33.496094-6.511719-18.078126 4.148437-34.824219 9.914062-42.101563zm44.847657 253.75c13.234374 30.882813 14.789062 54.039063 4.625 68.828125-11.417969 16.609375-36.175782 20.371094-52.621094 20.917969 38.914062-42.445313 22.042968-71.503907 3.964844-96.960938 4.675781-1.90625 9.476562-3.492187 14.367187-4.753906 2.914063-.71875 5.21875-2.9375 6.050781-5.816406.832032-2.882813.066406-5.988281-2.011718-8.152344-2.082032-2.160156-5.15625-3.050781-8.066407-2.328125-6.929687 1.804688-13.703125 4.167969-20.253906 7.066406-5.992187-8.207031-10.8125-17.210937-14.3125-26.75-3.523437-11.5625-5.402344-23.5625-5.589844-35.648437 8.230469-2.476563 16.789063-3.703125 25.382813-3.640625 4.636718 0 8.394531-3.757813 8.394531-8.394532 0-4.636718-3.757813-8.394531-8.394531-8.394531-8.484375-.007812-16.941406 1.011719-25.179688 3.039063 1.621094-29.867188 9.566406-59.046875 23.308594-85.613282 11.566406 2.816407 21.65625 9.875 28.269531 19.777344 2.382813 3.976563 7.539063 5.269532 11.515625 2.886719 3.976563-2.382813 5.269532-7.539063 2.886719-11.515625-7.863281-12.339844-19.851563-21.484375-33.824219-25.8125 7.808594-11.675781 17.597656-21.902344 28.921875-30.214844 10.015625-7.121094 21.078125-12.636718 32.792969-16.351562 14.011719 13.621094 22.441406 31.976562 23.636719 51.476562 0 4.636719 3.757812 8.394532 8.394531 8.394532 4.632812 0 8.390625-3.757813 8.390625-8.394532-.703125-20.628906-8.527344-40.382812-22.140625-55.898437 7.378906-1.207031 14.84375-1.824219 22.320312-1.847657 13.667969-.003906 27.277344 1.855469 40.445313 5.523438 16.082031 74.492188 8.664063 94.007812 2.703125 98.917969-7.277344 6.066406-24.996094-1.453125-40.632812-8.117188-3.53125-1.511719-7.066407-3.015625-10.542969-4.40625-18.6875-7.886719-40.304688-3.316406-54.203125 11.457031-2.59375 2.710938-4.925782 5.664063-6.96875 8.8125-.097656.117188-.242188.167969-.332032.292969-.144531.253907-.273437.515625-.386718.78125-19.316406 30.34375-16.292969 81.609375 9.089844 140.839844zm110.253906 79.085937c-19.414063-36.746093-5.65625-80.578124-1.207032-92.605468 6.125-2.824219 13.179688-2.824219 19.304688 0 4.378906 3.804687 7.089844 9.175781 7.554688 14.957031-8.628907 8.710937-14.890626 19.476563-18.199219 31.28125-1.59375 1.566406-2.496094 3.707031-2.5 5.945313.050781.457031.144531.914062.277343 1.359374-3.109374 12.800782-4.859374 25.894532-5.230468 39.0625zm102.324218 0c-.371093-13.226562-2.144531-26.371093-5.285156-39.222656.765625-2.550781-.070312-5.3125-2.125-7.007812-3.316406-11.851563-9.601562-22.660156-18.265625-31.402344.441407-5.773438 3.128907-11.144531 7.488281-14.957031 6.125-2.824219 13.179688-2.824219 19.304688 0 5.851562 15.921875 8.878906 32.742187 8.949219 49.707031-.304688 1.140625-.355469 2.335938-.160157 3.5v.101562c-.3125 13.675782-3.699218 27.101563-9.914062 39.289063zm33.929688-103.242187c8.710938 14.53125 18.230469 32.273437 14.460938 40.550781-2.117188 4.625-9.425782 8.460938-21.605469 11.472656-1.003907-17.625-4.910157-34.960937-11.558594-51.316406-.882813-2.007812-2.519531-3.589844-4.558594-4.40625-15.660156-6.261718-28.535156-6.09375-38.265625.496094-15.039062 10.144531-15.214844 31.542969-15.214844 32.449219 0 2.640625 1.242188 5.128906 3.355469 6.714843 5.941407 4.90625 10.511719 11.269532 13.269531 18.464844h-50.132812c2.789062-7.207031 7.390625-13.566406 13.363281-18.464844 2.113281-1.585937 3.355469-4.074218 3.355469-6.714843 0-.90625-.175781-22.304688-15.207031-32.484375-9.746094-6.582032-22.605469-6.714844-38.273438-.496094-2.039062.820312-3.675781 2.40625-4.558593 4.417969-6.640626 16.359375-10.527344 33.710937-11.507813 51.339843-12.210937-3.011718-19.539063-6.855468-21.65625-11.480468-3.765625-8.277344 5.75-26.019532 14.472656-40.550782 21.074219-35.160156-29.695312-84.429687-66.535156-113.789062.308594-.335938.585937-.730469.90625-1.046875 9.164063-9.898437 23.578125-12.925781 35.949219-7.554687 3.355468 1.339843 6.78125 2.800781 10.207031 4.253906 20.984375 8.9375 42.753906 18.199218 57.914063 5.589844 16.710937-13.898438 17.296874-50.964844 1.914062-120.183594-.613281-2.773438-2.589844-5.046875-5.246094-6.042969-29.574218-9.726563-61.351562-10.582031-91.40625-2.460937-.257812.082031-.519531.125-.78125.234374-7.335937 2.132813-14.480468 4.875-21.359375 8.199219l-37.308593-12.699219c-1.0625-10.496093 1.773437-21.015624 7.964843-29.558593 10.210938-11.527344 23.964844-19.335938 39.097657-22.195313l21.101562 29.261719c1.742188 2.457031 4.671875 3.789063 7.671875 3.492187 2.996094-.296874 5.605469-2.179687 6.835937-4.933593 1.226563-2.75.886719-5.949219-.894531-8.378907l-20.984375-29.074218c12.734375-18.074219 40.371094-17.855469 51.199219-16.980469l22.320313 54.160156c1.765624 4.289063 6.671874 6.335938 10.960937 4.566407 4.289063-1.765626 6.332031-6.671876 4.566406-10.960938l-22.335937-54.304688c14.203125-18.699218 35.261718-26.3125 73.367187-26.441406 38.105469.128906 59.175781 7.742188 73.367188 26.441406l-22.375 54.296876c-1.144531 2.773437-.71875 5.945312 1.109375 8.324218 1.832031 2.375 4.792968 3.59375 7.765625 3.195313 2.972656-.394531 5.507812-2.351563 6.652343-5.125l22.316407-54.160157c10.851562-.839843 38.492187-1.09375 51.199219 16.976563l-20.980469 29.078125c-1.78125 2.429688-2.125 5.628906-.894531 8.378906 1.226562 2.753906 3.835937 4.636719 6.835937 4.933594s5.925781-1.035156 7.671875-3.492188l21.140625-29.253906c15.132813 2.867188 28.886719 10.675782 39.097656 22.203125 6.257813 8.640625 9.085938 19.296875 7.941407 29.90625l-36.152344 12.269531c-36.082032-16.875-77.257813-19.277343-115.054688-6.714843-2.660156.996093-4.632812 3.273437-5.246094 6.042969-15.386718 69.222656-14.789062 106.285156 1.921876 120.179687 15.175781 12.589844 36.929687 3.355469 57.914062-5.589844 3.433594-1.453125 6.847656-2.914062 10.214844-4.257812 12.371094-5.363281 26.78125-2.332031 35.949218 7.554687.503907.519532.972657 1.140625 1.46875 1.679688-36.871093 29.359375-87.855468 78.746094-66.726562 113.980468zm129.46875 2.703125c-6.328125-2.777344-12.871094-5.050781-19.558594-6.789062-4.503906-1.101563-9.050781 1.65625-10.15625 6.160156-1.101562 4.507812 1.65625 9.054687 6.160156 10.15625 4.628907 1.183594 9.175782 2.675781 13.605469 4.464844-17.925781 25.324218-34.269531 54.265624 4.339844 96.398437-16.449219-.542969-41.210937-4.3125-52.617187-20.921875-10.164063-14.808594-8.613282-37.964844 4.625-68.828125 28.378906-66.207031 28.898437-122.542969 1.402343-150.730469-9.117187-9.65625-21.78125-15.164062-35.0625-15.242187-6.5625.035156-13.054687 1.320312-19.136719 3.792969-3.480468 1.394531-7.007812 2.890624-10.550781 4.398437-15.625 6.65625-33.335937 14.179687-40.632812 8.125-5.957031-4.949219-13.367188-24.421875 2.714843-98.933594 20.71875-5.8125 42.457032-7.035156 63.695313-3.582031-14.039063 15.589844-22.085937 35.660156-22.710937 56.628906 0 4.636719 3.757812 8.394532 8.390624 8.394532 4.636719 0 8.394532-3.757813 8.394532-8.394532 1.0625-19.828125 9.757812-38.476562 24.265625-52.039062 11.363281 3.726562 22.097656 9.152344 31.835937 16.089844 11.566406 8.476562 21.53125 18.945312 29.429688 30.914062-14.035156 4.320312-26.078125 13.488281-33.976563 25.867188-2.382812 3.980468-1.089843 9.136718 2.886719 11.515624 3.976562 2.382813 9.132812 1.09375 11.515625-2.886718 6.628906-9.921875 16.746094-16.988282 28.34375-19.800782 13.589844 26.605469 21.398437 55.78125 22.90625 85.613282-8.148437-1.964844-16.5-2.953125-24.878906-2.945313-4.636719 0-8.394531 3.757813-8.394531 8.394531 0 4.636719 3.757812 8.394532 8.394531 8.394532 8.464843-.054688 16.894531 1.140625 25.011719 3.539062-.234376 11.851563-2.109376 23.609375-5.570313 34.945313-3.585937 9.742187-8.527344 18.929687-14.671875 27.292969zm0 0"/><path d="m248.230469 320.058594-58.753907-33.574219c-2.609374-1.574219-5.867187-1.609375-8.507812-.097656-2.644531 1.515625-4.257812 4.34375-4.222656 7.390625.039062 3.042968 1.722656 5.832031 4.402344 7.277344l1.378906.789062c-6.507813 25.835938-.496094 44.488281 16.917968 50.246094 3.867188 1.335937 7.921876 2.039062 12.011719 2.078125 4.917969.050781 9.765625-1.195313 14.050781-3.609375 6.179688-3.851563 10.96875-9.578125 13.671876-16.339844l.722656.410156c1.257812.726563 2.679687 1.105469 4.128906 1.109375 3.8125.011719 7.152344-2.542969 8.136719-6.222656.988281-3.683594-.632813-7.566406-3.9375-9.457031zm-31.058594 15.949218c-3.914063 1.863282-8.449219 1.929688-12.421875.183594-9.398438-3.140625-8.953125-15.8125-7.066406-25.632812l26.859375 15.359375c-1.261719 4.082031-3.859375 7.625-7.371094 10.0625zm0 0"/><path d="m315.375 286.484375-58.753906 33.574219c-3.304688 1.890625-4.921875 5.773437-3.9375 9.457031.984375 3.679687 4.324218 6.234375 8.136718 6.222656 1.457032 0 2.890626-.378906 4.152344-1.109375l.722656-.410156c2.703126 6.761719 7.492188 12.488281 13.671876 16.339844 4.289062 2.414062 9.132812 3.660156 14.050781 3.609375 4.089843-.039063 8.148437-.738281 12.011719-2.070313 17.417968-5.800781 23.425781-24.417968 16.921874-50.253906l1.375-.789062c3.90625-2.351563 5.214844-7.390626 2.953126-11.351563-2.261719-3.957031-7.269532-5.386719-11.277344-3.21875zm-15.273438 49.691406c-3.972656 1.746094-8.507812 1.675781-12.421874-.195312-3.535157-2.429688-6.148438-5.976563-7.421876-10.070313l26.859376-15.359375c1.9375 9.828125 2.382812 22.5-6.984376 25.625zm0 0"/><path d="m269.214844 184.65625c3.894531.007812 7.285156-2.667969 8.183594-6.460938.894531-3.796874-.9375-7.707031-4.425782-9.445312l-16.785156-8.394531c-2.363281-1.179688-5.144531-1.179688-7.503906 0l-16.789063 8.394531c-2.683593 1.339844-4.449219 4.011719-4.628906 7.003906-.179687 2.996094 1.25 5.859375 3.753906 7.511719 2.5 1.65625 5.695313 1.847656 8.378907.507813l13.027343-6.519532 13.035157 6.519532c1.164062.582031 2.449218.882812 3.753906.882812zm0 0"/><path d="m256.179688 126.78125c-2.363282-1.179688-5.144532-1.179688-7.503907 0l-16.789062 8.394531c-2.683594 1.339844-4.449219 4.011719-4.628907 7.007813-.179687 2.992187 1.25 5.855468 3.75 7.511718 2.503907 1.652344 5.699219 1.847657 8.382813.503907l13.035156-6.519531 13.035157 6.519531c2.683593 1.34375 5.878906 1.148437 8.382812-.503907 2.5-1.65625 3.933594-4.519531 3.75-7.511718-.179688-2.996094-1.945312-5.667969-4.628906-7.007813zm0 0"/><path d="m280.257812 101.15625-25.179687-8.390625c-1.71875-.582031-3.582031-.582031-5.304687 0l-25.179688 8.390625c-2.847656.949219-4.976562 3.34375-5.578125 6.285156-.605469 2.941406.40625 5.980469 2.652344 7.972656 2.242187 1.996094 5.382812 2.640626 8.230469 1.691407l22.527343-7.539063 22.527344 7.503906c4.40625 1.464844 9.164063-.917968 10.628906-5.320312 1.464844-4.402344-.917969-9.160156-5.324219-10.625zm0 0"/><path d="m252.425781 75.800781 31.535157 7.882813c.667968.164062 1.351562.25 2.039062.25 4.234375-.003906 7.804688-3.164063 8.320312-7.371094.515626-4.203125-2.179687-8.132812-6.289062-9.164062l-33.574219-8.390626c-1.335937-.347656-2.742187-.347656-4.078125 0l-33.574218 8.390626c-4.464844 1.152343-7.164063 5.695312-6.042969 10.167968 1.121093 4.472656 5.640625 7.203125 10.121093 6.117188zm0 0"/></svg>