<svg height="504pt" viewBox="0 0 504.11109 504" width="504pt" xmlns="http://www.w3.org/2000/svg"><path d="m495.679688 302.21875c0 134.464844-108.945313 193.050781-243.410157 193.050781-2.855469 0-5.625 0-8.394531-.085937-130.601562-2.433594-235.015625-61.355469-235.015625-192.964844.59375-41.808594 9.644531-83.066406 26.609375-121.285156l111.632812-139.078125c28.703126-19.523438 62.128907-30.976563 96.773438-33.15625 2.769531-.167969 5.625-.25 8.394531-.25 37.519531.527343 74.046875 12.117187 105 33.320312l111.632813 138.746094c17.046875 38.34375 26.15625 79.746094 26.777344 121.703125zm0 0" fill="#ff9701"/><path d="m470.5 302.21875c0 131.609375-102.550781 190.53125-230.820312 192.964844-128.269532-2.433594-230.820313-61.355469-230.820313-192.964844.578125-41.761719 9.457031-82.988281 26.128906-121.285156l109.644531-139.078125c28.078126-19.484375 60.941407-30.949219 95.046876-33.15625 34.035156 2.183593 66.832031 13.617187 94.84375 33.070312l109.679687 138.746094c16.761719 38.417969 25.699219 79.792969 26.296875 121.703125zm0 0" fill="#fdc008"/><path d="m185.121094 75.597656-47.171875 50.277344c-22.074219-58.503906-83.261719-95.519531-128-117.425781 133.457031.335937 175.171875 67.148437 175.171875 67.148437zm0 0" fill="#fdc008"/><path d="m137.949219 125.875-73.308594 78.234375c-1.535156 1.636719-3.664063 2.597656-5.910156 2.667969-2.246094.066406-4.429688-.757813-6.066407-2.300782-51.558593-48.722656-43.804687-196.027343-43.804687-196.027343h1.089844c44.738281 21.90625 105.925781 58.921875 128 117.425781zm0 0" fill="#e81e63"/><path d="m494.589844 8.449219c-44.824219 21.90625-106.179688 59.089843-128.167969 117.761719l-47.425781-50.613282s41.800781-66.898437 175.59375-67.148437zm0 0" fill="#fdc008"/><path d="m451.445312 204.4375c-1.625 1.570312-3.8125 2.421875-6.070312 2.355469-2.261719-.0625-4.398438-1.03125-5.933594-2.691407l-4.699218-5.039062-4.53125-4.867188-63.789063-67.984374c17.457031-46.667969 59.84375-79.65625 98.957031-102.316407 2.855469-1.597656 5.625-3.191406 8.394532-4.617187 7.21875-3.945313 14.183593-7.554688 20.816406-10.828125h.667968s7.722657 147.304687-43.8125 195.988281zm0 0" fill="#ac1457"/><path d="m434.742188 199.0625-4.53125-4.867188-63.789063-67.984374c17.457031-46.667969 59.84375-79.65625 98.957031-102.316407 2.855469-1.597656 5.625-3.191406 8.394532-4.617187.585937 33.40625-.925782 135.636718-39.03125 179.785156zm0 0" fill="#e81e63"/><path d="m330.246094 169.519531c-4.410156 2.113281-8.953125 3.9375-13.597656 5.457031-7.925782 2.652344-16.035157 4.726563-24.257813 6.210938-13.242187 2.375-26.667969 3.554688-40.121094 3.523438-2.855469 0-5.625-.082032-8.394531-.167969-10.644531-.304688-21.253906-1.425781-31.726562-3.355469-13.070313-2.226562-25.796876-6.148438-37.855469-11.667969-1.089844 1.761719-2.179688 3.609375-3.1875 5.457031-12.222657 20.800782-18.953125 44.371094-19.558594 68.488282 0 52.796875 40.625 73.441406 92.328125 75.375 2.769531.082031 5.539062.167968 8.394531.167968 55.648438 0 100.722657-19.894531 100.722657-75.542968-.71875-26.257813-8.582032-51.824219-22.746094-73.945313zm0 0" fill="#fff"/><path d="m319.417969 335.878906c0 14.015625-17.375 30.96875-41.96875 38.1875-5.449219 1.628906-11.042969 2.726563-16.703125 3.273438-2.769532.253906-5.621094.421875-8.476563.421875s-5.707031-.167969-8.476562-.421875c-5.660157-.546875-11.253907-1.644532-16.703125-3.273438-24.59375-7.21875-41.96875-24.171875-41.96875-38.1875 0-18.550781 30.050781-16.789062 67.148437-16.789062 37.097657 0 67.148438-1.761719 67.148438 16.789062zm0 0" fill="#e81e63"/><path d="m319.417969 235.070312c-.019531 31.597657-22.066407 58.90625-52.953125 65.589844-30.882813 6.679688-62.246094-9.074218-75.320313-37.839844-13.078125-28.765624-4.332031-62.753906 21.003907-81.632812 13.242187 2.375 26.667968 3.554688 40.121093 3.523438 13.453125.03125 26.878907-1.148438 40.121094-3.523438 17.011719 12.683594 27.03125 32.664062 27.027344 53.882812zm0 0" fill="#00bbd3"/><path d="m302.628906 235.070312c0 27.816407-22.546875 50.363282-50.359375 50.363282s-50.359375-22.546875-50.359375-50.363282c0-27.8125 22.546875-50.359374 50.359375-50.359374s50.359375 22.546874 50.359375 50.359374zm0 0" fill="#37474f"/><path d="m210.300781 218.285156c0 13.90625-11.273437 25.179688-25.179687 25.179688s-25.179688-11.273438-25.179688-25.179688 11.273438-25.179687 25.179688-25.179687 25.179687 11.273437 25.179687 25.179687zm0 0" fill="#fff"/><path d="m503.644531 8.003906c-.238281-4.460937-3.925781-7.9531248-8.394531-7.9492185h-1.199219c-64.535156.2109375-108.375 15.4765625-136.863281 31.8281245-31.230469-20.382812-67.628906-31.421874-104.917969-31.8281245-37.375.4335935-73.847656 11.5195315-105.144531 31.9531245-28.402344-16.367187-72.167969-31.667968-136.644531-31.9531245h-.167969c-.496094 0-.957031 0-1.453125 0-4.46875-.0039063-8.15625 3.4882815-8.394531 7.9492185-.285156 5.429688-5.3125 110.339844 25.777344 173.324219-16.453126 38.210937-25.210938 79.292969-25.777344 120.890625-.160156 21.519531 2.933594 42.9375 9.175781 63.53125-2.257813 1.972656-4.53125 3.894531-6.714844 6.078125-2.183593 2.105469-3.058593 5.226563-2.289062 8.160156.769531 2.933594 3.058593 5.226563 5.996093 5.996094 2.933594.765625 6.054688-.109375 8.160157-2.289063.351562-.351562.730469-.628906 1.082031-.972656 5.824219 13.808594 13.441406 26.792969 22.664062 38.609375-15.539062 18.28125-25.753906 40.480469-29.535156 64.175781-.761718 4.566407 2.324219 8.886719 6.890625 9.652344.449219.074219.902344.109375 1.359375.109375 4.097656-.007812 7.59375-2.972656 8.265625-7.019531 3.203125-19.828125 11.558594-38.46875 24.222657-54.058594 42.882812 44.761719 112.273437 69.472656 202.527343 69.472656 90.253907 0 159.675781-24.730468 202.550781-69.507812 12.652344 15.609375 20.992188 34.261719 24.191407 54.09375.671875 4.050781 4.171875 7.015625 8.273437 7.019531.46875 0 .933594-.039062 1.394532-.117187 4.566406-.765625 7.648437-5.085938 6.890624-9.652344-3.78125-23.695312-14-45.894531-29.535156-64.175781 9.21875-11.816407 16.839844-24.800781 22.660156-38.613281.351563.347656.730469.621093 1.082032.976562 3.292968 3.179688 8.53125 3.132812 11.765625-.101562 3.238281-3.238282 3.285156-8.476563.105469-11.769532-2.183594-2.179687-4.457032-4.101562-6.714844-6.074218 6.230468-20.59375 9.308594-42.007813 9.140625-63.523438-.585938-41.769531-9.414063-83.015625-25.980469-121.367188 30.839844-63.035156 25.835938-167.425781 25.550781-172.847656zm-41.640625 168.003906c-.390625.542969-.714844 1.132813-.964844 1.753907-4.996093 9.910156-12.167968 18.5625-20.984374 25.304687-2.566407 1.691406-4.007813 4.652344-3.746094 7.71875.257812 3.0625 2.171875 5.742188 4.984375 6.976563 2.816406 1.238281 6.085937.835937 8.515625-1.046875 6.75-4.964844 12.660156-10.984375 17.507812-17.820313 12.789063 32.96875 19.554688 67.964844 19.96875 103.324219.105469 17.660156-2.183594 35.253906-6.796875 52.300781-33.351562-20.746093-72.484375-30.234375-111.632812-27.070312-2.980469.332031-5.558594 2.226562-6.765625 4.972656-1.203125 2.746094-.851563 5.925781.925781 8.34375 1.773437 2.414063 4.703125 3.699219 7.683594 3.371094.65625-.085938 58.4375-5.875 104.230469 27.136719-5.273438 13.371093-12.371094 25.949218-21.089844 37.375-28.363282-24.492188-62.78125-40.929688-99.65625-47.589844-4.589844-.660156-8.84375 2.527344-9.503906 7.117187-.65625 4.589844 2.53125 8.84375 7.121093 9.5 33.804688 6.042969 65.335938 21.160157 91.21875 43.730469-39.871093 42.144531-105.28125 65.46875-190.75 65.46875s-150.839843-23.308594-190.707031-65.46875c25.894531-22.535156 57.402344-37.644531 91.1875-43.730469 4.585938-.660156 7.773438-4.914062 7.113281-9.503906-.660156-4.589844-4.917969-7.773437-9.507812-7.113281-36.875 6.660156-71.292969 23.097656-99.65625 47.589844-8.714844-11.425782-15.808594-24-21.082031-37.367188 45.703124-32.886719 103.601562-27.203125 104.230468-27.144531 4.605469.507812 8.753906-2.816407 9.261719-7.425781.507813-4.605469-2.816406-8.753907-7.425781-9.261719-39.148438-3.144531-78.273438 6.347656-111.632813 27.078125-4.613281-17.050782-6.902343-34.644532-6.796875-52.308594.410156-35.226562 7.132813-70.089844 19.851563-102.945312 4.792969 6.683593 10.609375 12.570312 17.238281 17.441406 2.433594 1.882812 5.699219 2.285156 8.515625 1.046875 2.8125-1.234375 4.726563-3.914063 4.988281-6.976563.257813-3.066406-1.183594-6.027344-3.75-7.71875-8.6875-6.628906-15.78125-15.121094-20.757812-24.851562-.28125-.730469-.664063-1.414063-1.132813-2.039063-24.113281-46.257812-25.691406-124.527343-25.296875-154.785156 68.398438 35.421875 107.109375 75.8125 118.070313 123.242187.878906 3.804688 4.265625 6.503907 8.175781 6.503907.636719 0 1.273438-.070313 1.894531-.210938 2.171875-.5 4.050781-1.84375 5.230469-3.730469 1.179688-1.890624 1.558594-4.171874 1.058594-6.339843-10.820313-46.792969-45.03125-86.855469-104.039063-121.804688 97.214844 10.84375 130.359375 60.433594 130.703125 60.996094 2.457032 3.9375 7.644532 5.140625 11.582032 2.683594 3.941406-2.457031 5.144531-7.640625 2.6875-11.582031-8.027344-11.351563-18.011719-21.183594-29.488282-29.035157 54.914063-33.359375 123.828125-33.398437 178.773438-.089843-11.558594 7.855468-21.617188 17.71875-29.695313 29.125-1.59375 2.546874-1.710937 5.753906-.300781 8.410156s4.128906 4.359375 7.136719 4.464844c3.003906.109374 5.835937-1.394532 7.433593-3.945313.359376-.5625 33.625-50.359375 131.238282-61.085937-59.054688 34.964843-93.351563 75.070312-104.160156 121.863281-.503907 2.167969-.125 4.449219 1.054687 6.339843 1.179687 1.886719 3.058594 3.230469 5.230469 3.730469.621094.140625 1.253906.210938 1.886718.210938 3.90625-.003907 7.289063-2.699219 8.167969-6.503907 10.910157-47.339843 49.523438-87.660156 117.660157-123.039062.386718 30.375-1.191407 108.234375-25.207032 154.414062zm0 0"/><path d="m326.644531 161.929688c-23.476562 10.070312-48.839843 14.976562-74.375 14.386718-25.535156.589844-50.902343-4.316406-74.375-14.386718-3.847656-1.828126-8.457031-.480469-10.71875 3.132812-14.976562 23.46875-23.28125 50.570312-24.019531 78.402344-1.800781 31.765625 16.945312 61.113281 46.523438 72.839844-2.5625 1.140624-4.914063 2.703124-6.957032 4.625-3.941406 3.945312-6.105468 9.328124-5.996094 14.90625 0 21.714843 28.742188 46.699218 67.148438 49.949218v29.746094c-5.875 6.066406-23.777344 22.660156-41.378906 20.890625-10.140625-.972656-19.179688-8.300781-27.261719-22.375-4.96875-7.554687-13.425781-12.082031-22.46875-12.03125-9.855469.699219-18.464844 8.226563-25.515625 22.378906-2.074219 4.148438-.390625 9.191407 3.757812 11.265625 4.152344 2.070313 9.195313.386719 11.265626-3.761718 5.875-11.800782 10.40625-13.035157 11.648437-13.136719 2.90625-.308594 6.332031 3.207031 7.128906 4.199219 10.566407 18.464843 23.988281 28.636718 39.902344 30.148437 1.351563.125 2.703125.191406 4.035156.191406 20.144531 0 38.125-13.957031 47.28125-22.535156 9.15625 8.585937 27.128907 22.535156 47.28125 22.535156 1.332031 0 2.683594-.066406 4.035157-.191406 15.949218-1.511719 29.378906-11.660156 39.449218-29.480469 1.226563-1.675781 4.828125-5.21875 7.554688-4.898437 1.242187.097656 5.757812 1.332031 11.652344 13.132812 2.070312 4.148438 7.113281 5.832031 11.261718 3.761719 4.148438-2.070312 5.832032-7.117188 3.761719-11.265625-7.085937-14.148437-15.664063-21.679687-25.515625-22.375-9.296875-.023437-17.941406 4.761719-22.855469 12.648437-7.699219 13.429688-16.738281 20.78125-26.859375 21.753907-17.6875 1.679687-35.480468-14.820313-41.378906-20.890625v-29.710938c38.40625-3.25 67.144531-28.234375 67.144531-49.949218.113281-5.578126-2.050781-10.960938-5.992187-14.90625-2.046875-1.921876-4.398438-3.488282-6.964844-4.625 29.582031-11.71875 48.335938-41.070313 46.539062-72.839844-.738281-27.832032-9.042968-54.933594-24.019531-78.402344-2.261719-3.613281-6.871093-4.960938-10.71875-3.132812zm-32.40625 73.140624c0 23.179688-18.789062 41.96875-41.96875 41.96875-23.179687 0-41.96875-18.789062-41.96875-41.96875 0-23.175781 18.789063-41.964843 41.96875-41.964843 23.167969.027343 41.9375 18.800781 41.96875 41.964843zm-16.789062 130.210938v-4.308594c0-4.632812-3.757813-8.390625-8.394531-8.390625-4.632813 0-8.390626 3.757813-8.390626 8.390625v7.90625c-5.578124.648438-11.210937.648438-16.789062 0v-7.90625c0-4.632812-3.757812-8.390625-8.390625-8.390625-4.636719 0-8.394531 3.757813-8.394531 8.390625v4.308594c-20.53125-6.859375-33.574219-20.816406-33.574219-29.445312-.125-1.113282.261719-2.222657 1.050781-3.015626 4.910156-4.890624 22.449219-5.421874 41.050782-5.421874h25.558593c21.242188-.050782 43.207031-.175782 48.796875 5.40625.789063.792968 1.175782 1.902343 1.050782 3.015624 0 8.644532-13.042969 22.636719-33.574219 29.460938zm-25.179688-54.667969c-42.117187 0-92.328125-11.652343-92.328125-67.148437.578125-22.246094 6.695313-43.996094 17.792969-63.285156 11.871094 4.644531 24.210937 7.96875 36.804687 9.921874-18.941406 15.863282-25.929687 41.886719-17.488281 65.109376 8.441407 23.222656 30.507813 38.683593 55.21875 38.683593 24.710938 0 46.777344-15.460937 55.21875-38.683593 8.441407-23.222657 1.453125-49.246094-17.492187-65.109376 12.597656-1.953124 24.9375-5.277343 36.808594-9.921874 11.097656 19.289062 17.214843 41.039062 17.792968 63.285156 0 55.496094-50.210937 67.148437-92.328125 67.148437zm0 0"/><path d="m220.148438 149.886719c.308593.257812.636718.496093.980468.714843 19.078125 11.816407 43.203125 11.816407 62.28125 0 .339844-.21875.667969-.457031.980469-.714843l40.457031-34.3125c3.535156-3 3.972656-8.296875.972656-11.835938-3-3.535156-8.296874-3.972656-11.832031-.972656l-39.972656 33.902344c-13.382813 8.03125-30.109375 8.03125-43.492187 0l-39.972657-33.902344c-2.285156-1.941406-5.433593-2.511719-8.257812-1.5s-4.894531 3.453125-5.433594 6.402344c-.535156 2.953125.542969 5.964843 2.832031 7.90625zm0 0"/></svg>