<svg height="512pt" viewBox="0 0 512 512.00002" width="512pt" xmlns="http://www.w3.org/2000/svg"><path d="m503.464844 145.066406c0 61.867188-29.351563 139.09375-76.457032 199.59375l-95.402343 80.898438c-23.496094 11.714844-49.351563 17.929687-75.605469 18.175781-2.902344 0-5.71875-.085937-8.535156-.257813-23.324219-1.464843-46.121094-7.558593-67.070313-17.917968l-95.402343-80.898438c-47.105469-60.5-76.457032-137.726562-76.457032-199.59375 0-117.589844 106.152344-135.765625 238.929688-136.449218 2.816406-.082032 5.632812-.082032 8.535156-.082032 136.703125 0 247.464844 16.382813 247.464844 136.53125zm0 0" fill="#0377bb"/><path d="m477.867188 145.066406c0 61.867188-28.835938 139.09375-75.09375 199.59375l-93.695313 80.898438c-20.527344 10.347656-42.9375 16.441406-65.878906 17.917968-22.941407-1.476562-45.347657-7.570312-65.875-17.917968l-93.699219-80.898438c-46.257812-60.5-75.089844-137.726562-75.089844-199.59375 0-117.589844 104.257813-135.765625 234.664063-136.449218 130.40625.683593 234.667969 18.859374 234.667969 136.449218zm0 0" fill="#02a8f3"/><path d="m119.464844 452.265625s-99.921875-15.359375-110.078125 41.421875c-.363281 2.457031.363281 4.949219 1.988281 6.828125s3.984375 2.957031 6.46875 2.949219h135.234375c9.363281.042968 16.996094-7.496094 17.066406-16.859375.070313-20.863281 2.707031-55.824219 18.230469-73.90625 9.144531-10.574219 8.117188-26.527344-2.304688-35.839844l-40.78125-36.25c-5.710937-5.105469-13.421874-7.367187-20.984374-6.152344-27.179688 4.402344-90.171876 19.761719-90.171876 66.609375-.675781 19.191406 3.929688 38.199219 13.3125 54.953125" fill="#02a8f3"/><path d="m502.613281 493.652344c.375 2.460937-.347656 4.960937-1.96875 6.847656-1.625 1.886719-3.992187 2.96875-6.480469 2.964844h-135.253906c-9.359375.003906-16.972656-7.535156-17.066406-16.894532-.082031-20.820312-2.644531-55.808593-18.175781-73.898437-9.171875-10.5625-8.144531-26.539063 2.304687-35.839844l40.703125-36.265625c1.96875-1.71875 4.183594-3.128906 6.570313-4.183594h.085937c.894531-.476562 1.839844-.851562 2.816407-1.109374 3.714843-1.222657 7.667968-1.515626 11.519531-.851563 27.222656 4.4375 90.199219 19.796875 90.199219 66.644531.675781 19.191406-3.929688 38.199219-13.3125 54.953125 18.515624 5.71875 34.304687 16.8125 38.058593 37.632813zm0 0" fill="#0377bb"/><path d="m477.78125 493.652344c.355469 2.472656-.382812 4.976562-2.023438 6.859375-1.636718 1.882812-4.011718 2.964843-6.511718 2.953125h-110.335938c-9.359375.003906-16.972656-7.535156-17.066406-16.894532-.082031-20.820312-2.644531-55.808593-18.175781-73.898437-9.171875-10.5625-8.144531-26.539063 2.304687-35.839844l40.703125-36.265625c1.96875-1.71875 4.183594-3.128906 6.570313-4.183594h.085937c30.210938 6.402344 79.617188 23.125 79.617188 64.683594.566406 17.867188-3.363281 35.589844-11.433594 51.542969-.417969.886719-.902344 1.742187-1.453125 2.558594-.105469.300781-.25.585937-.425781.851562 18.519531 5.71875 34.390625 16.8125 38.144531 37.632813zm0 0" fill="#02a8f3"/><path d="m153.601562 51.199219c-2.855468 0-5.703124.167969-8.535156.511719-38.730468 4.496093-67.945312 37.296874-67.945312 76.289062s29.214844 71.792969 67.945312 76.289062c2.832032.34375 5.679688.511719 8.535156.511719 42.414063 0 76.796876-34.386719 76.796876-76.800781s-34.382813-76.800781-76.796876-76.800781zm0 0" fill="#fff"/><path d="m358.398438 51.199219c-2.851563 0-5.699219.167969-8.53125.511719-38.730469 4.496093-67.945313 37.296874-67.945313 76.289062s29.214844 71.792969 67.945313 76.289062c2.832031.34375 5.679687.511719 8.53125.511719 42.417968 0 76.800781-34.386719 76.800781-76.800781s-34.382813-76.800781-76.800781-76.800781zm0 0" fill="#fff"/><path d="m204.800781 128c0 28.277344-22.921875 51.199219-51.199219 51.199219-28.277343 0-51.203124-22.921875-51.203124-51.199219s22.925781-51.199219 51.203124-51.199219c28.277344 0 51.199219 22.921875 51.199219 51.199219zm0 0" fill="#e81e63"/><path d="m409.601562 128c0 28.277344-22.925781 51.199219-51.203124 51.199219-28.277344 0-51.199219-22.921875-51.199219-51.199219s22.921875-51.199219 51.199219-51.199219c28.277343 0 51.203124 22.921875 51.203124 51.199219zm0 0" fill="#e81e63"/><path d="m179.199219 128c0 14.136719-11.460938 25.601562-25.597657 25.601562-14.140624 0-25.601562-11.464843-25.601562-25.601562s11.460938-25.601562 25.601562-25.601562c14.136719 0 25.597657 11.464843 25.597657 25.601562zm0 0" fill="#37474f"/><path d="m384 128c0 14.136719-11.460938 25.601562-25.601562 25.601562-14.136719 0-25.597657-11.464843-25.597657-25.601562s11.460938-25.601562 25.597657-25.601562c14.140624 0 25.601562 11.464843 25.601562 25.601562zm0 0" fill="#37474f"/><path d="m229.546875 8.703125 18.652344 45.960937c1.371093 3.085938 4.425781 5.070313 7.800781 5.070313s6.429688-1.984375 7.800781-5.070313l18.652344-45.960937zm0 0" fill="#00bbd3"/><path d="m136.535156 102.398438c0 9.425781-7.644531 17.066406-17.070312 17.066406-9.421875 0-17.066406-7.640625-17.066406-17.066406 0-9.425782 7.644531-17.066407 17.066406-17.066407 9.425781 0 17.070312 7.640625 17.070312 17.066407zm0 0" fill="#fff"/><path d="m341.332031 102.398438c0 9.425781-7.640625 17.066406-17.066406 17.066406s-17.066406-7.640625-17.066406-17.066406c0-9.425782 7.640625-17.066407 17.066406-17.066407s17.066406 7.640625 17.066406 17.066407zm0 0" fill="#fff"/><path d="m25.601562 401.066406c-.308593 17.246094 3.089844 34.351563 9.972657 50.167969-17.996094 6.53125-31.171875 22.125-34.609375 40.960937-.8671878 4.867188.476562 9.871094 3.667968 13.652344 3.273438 3.90625 8.113282 6.160156 13.210938 6.152344h135.226562c14.050782 0 25.472657-11.320312 25.601563-25.371094-.207031-16.738281 1.980469-33.421875 6.492187-49.542968 45.050782 20.234374 96.605469 20.234374 141.652344 0 4.511719 16.121093 6.703125 32.804687 6.503906 49.542968.125 14.050782 11.550782 25.371094 25.601563 25.371094h135.234375c5.105469 0 9.941406-2.265625 13.210938-6.1875 3.191406-3.777344 4.535156-8.78125 3.667968-13.652344-3.4375-18.832031-16.613281-34.425781-34.609375-40.960937 6.875-15.804688 10.277344-32.898438 9.972657-50.132813 0-30.328125-21.785157-48.835937-45.992188-60.074218 44.328125-60.492188 71.59375-134.613282 71.59375-195.925782 0-124.296875-113.9375-142.832031-229.382812-144.84375-.171876 0-.324219 0-.488282 0-8.722656-.1484372-17.429687-.222656-26.128906-.222656-8.6875 0-17.417969.0664062-26.136719.214844-.15625 0-.308593 0-.46875 0-115.449219 2.019531-229.394531 20.554687-229.394531 144.851562 0 61.3125 27.308594 135.433594 71.59375 195.925782-24.207031 11.238281-45.992188 29.746093-45.992188 60.074218zm244.273438-383.929687-13.765625 34.320312-13.933594-34.320312c4.558594-.070313 9.15625-.070313 13.824219-.070313s9.308594 0 13.875.070313zm-252.808594 127.929687c0-98.609375 78.300782-124.304687 206.832032-127.597656l16.503906 40.660156c2.757812 6.214844 8.9375 10.199219 15.738281 10.140625 6.796875-.054687 12.914063-4.140625 15.570313-10.394531l16.390624-40.40625c128.53125 3.292969 206.832032 28.988281 206.832032 127.597656 0 58.144532-27.742188 131.824219-70.964844 189.441406-15.507812-5.148437-31.535156-8.582031-47.792969-10.242187-3.050781-.253906-6 1.140625-7.746093 3.65625-1.742188 2.511719-2.011719 5.765625-.707032 8.53125 1.304688 2.765625 3.988282 4.628906 7.035156 4.878906 16.789063 1.777344 33.300782 5.558594 49.1875 11.265625.195313.078125.382813.160156.578126.222656 22.792968 8.609376 44.808593 23.378907 44.808593 48.246094.351563 15.453125-2.816406 30.78125-9.265625 44.824219-22.660156-4.597656-45.9375-5.292969-68.832031-2.054687-4.507813.855468-7.53125 5.125-6.84375 9.664062s4.84375 7.71875 9.40625 7.199219c22.472656-3.117188 45.324219-2.058594 67.414063 3.113281.597656.257812 1.226562.441406 1.867187.554688 15.480469 4.964843 28.152344 14.171874 31.078125 30.566406h-135.226562c-4.660157.042968-8.476563-3.695313-8.535157-8.355469-.203125-60.644531-18.574219-94.042969-51.726562-94.042969-4.714844 0-8.535157 3.820313-8.535157 8.53125 0 4.714844 3.820313 8.535156 8.535157 8.535156 8.585937.109376 16.503906 4.664063 20.914062 12.03125-40.480469 17.949219-86.664062 17.949219-127.148437 0 4.410156-7.363281 12.320312-11.917968 20.898437-12.03125 4.714844 0 8.535157-3.820312 8.535157-8.535156 0-4.710937-3.820313-8.53125-8.535157-8.53125-33.152343 0-51.523437 33.398438-51.726562 94.042969-.066407 4.65625-3.878907 8.386719-8.535157 8.355469l-135.304687.253906c2.980469-16.621094 15.863281-25.855469 31.464844-30.871094.355469-.082031.707031-.1875 1.046875-.316406 22.230468-5.332031 45.261718-6.453125 67.902344-3.300781 4.558593.519531 8.714843-2.660157 9.40625-7.199219.6875-4.539062-2.335938-8.808594-6.847657-9.664062-22.894531-3.238282-46.171875-2.542969-68.828125 2.054687-6.445312-14.046875-9.605468-29.375-9.242187-44.824219 0-51.199218 93.636719-59.683594 94.574219-59.734375 4.710937-.390625 8.214843-4.527343 7.824218-9.242187-.390625-4.710938-4.527344-8.214844-9.242187-7.824219-16.25 1.640625-32.277344 5.054687-47.785157 10.179687-43.230468-57.554687-70.972656-131.234374-70.972656-189.378906zm0 0"/><path d="m153.601562 213.332031c47.125 0 85.332032-38.203125 85.332032-85.332031s-38.207032-85.332031-85.332032-85.332031c-47.128906 0-85.335937 38.203125-85.335937 85.332031.054687 47.105469 38.226563 85.28125 85.335937 85.332031zm0-153.597656c37.699219 0 68.265626 30.5625 68.265626 68.265625s-30.566407 68.265625-68.265626 68.265625c-37.703124 0-68.269531-30.5625-68.269531-68.265625.042969-37.683594 30.582031-68.222656 68.269531-68.265625zm0 0"/><path d="m358.398438 213.332031c47.128906 0 85.335937-38.203125 85.335937-85.332031s-38.207031-85.332031-85.335937-85.332031c-47.125 0-85.332032 38.203125-85.332032 85.332031.050782 47.105469 38.226563 85.28125 85.332032 85.332031zm0-153.597656c37.703124 0 68.269531 30.5625 68.269531 68.265625s-30.566407 68.265625-68.269531 68.265625c-37.699219 0-68.265626-30.5625-68.265626-68.265625.042969-37.683594 30.582032-68.222656 68.265626-68.265625zm0 0"/><path d="m153.601562 162.132812c18.851563 0 34.132813-15.28125 34.132813-34.132812s-15.28125-34.132812-34.132813-34.132812c-18.851562 0-34.136718 15.28125-34.136718 34.132812s15.285156 34.132812 34.136718 34.132812zm0-51.199218c9.425782 0 17.066407 7.640625 17.066407 17.066406s-7.640625 17.066406-17.066407 17.066406c-9.425781 0-17.066406-7.640625-17.066406-17.066406s7.640625-17.066406 17.066406-17.066406zm0 0"/><path d="m358.398438 162.132812c18.851562 0 34.136718-15.28125 34.136718-34.132812s-15.285156-34.132812-34.136718-34.132812c-18.851563 0-34.132813 15.28125-34.132813 34.132812s15.28125 34.132812 34.132813 34.132812zm0-51.199218c9.425781 0 17.066406 7.640625 17.066406 17.066406s-7.640625 17.066406-17.066406 17.066406c-9.425782 0-17.066407-7.640625-17.066407-17.066406s7.640625-17.066406 17.066407-17.066406zm0 0"/><path d="m426.667969 230.398438c0-4.710938-3.820313-8.53125-8.535157-8.53125-4.710937 0-8.53125 3.820312-8.53125 8.53125 0 14.140624-11.464843 25.601562-25.601562 25.601562h-256c-14.136719 0-25.601562-11.460938-25.601562-25.601562 0-4.710938-3.820313-8.53125-8.53125-8.53125-4.714844 0-8.535157 3.820312-8.535157 8.53125.03125 23.554687 19.117188 42.640624 42.667969 42.667968h256c23.550781-.027344 42.636719-19.113281 42.667969-42.667968zm0 0"/><path d="m302.632812 291.25c-4.125-2.125-9.195312-.621094-11.492187 3.414062-.300781.496094-7.5 12.535157-35.140625 12.535157-27.308594 0-34.652344-11.722657-35.125-12.527344-2.15625-4.191406-7.300781-5.839844-11.492188-3.683594-4.191406 2.15625-5.84375 7.300781-3.6875 11.492188 1.117188 2.226562 12.007813 21.785156 50.304688 21.785156s49.1875-19.558594 50.347656-21.785156c2.03125-4.128907.378906-9.125-3.714844-11.230469zm0 0"/></svg>