<svg height="511pt" viewBox="0 -34 511.97483 511" width="511pt" xmlns="http://www.w3.org/2000/svg"><path d="m469.332031 256.453125c0 103.253906-73.300781 163.15625-170.667969 176.296875-5.628906.855469-11.261718 1.453125-16.980468 1.878906-5.714844.425782-11.347656.769532-17.152344.851563-2.816406.171875-5.714844.171875-8.53125.171875s-5.71875 0-8.535156-.171875c-5.800782-.082031-11.519532-.339844-17.152344-.851563-5.628906-.511718-11.347656-1.023437-16.980469-1.878906-97.363281-13.140625-170.667969-73.042969-170.667969-176.296875.335938-33.199219 7.148438-66.011719 20.054688-96.597656l72.105469-101.972657c31.003906-28.375 70.644531-45.503906 112.554687-48.640624h.171875c2.816407-.171876 5.632813-.253907 8.449219-.253907 44.988281 1.039063 88.058594 18.421875 121.171875 48.894531l72.105469 101.972657c12.910156 30.585937 19.722656 63.398437 20.054687 96.597656zm0 0" fill="#2e7d32"/><path d="m443.734375 256.453125c0 103.253906-71.777344 163.15625-167.109375 176.296875-5.523438.855469-11.035156 1.453125-16.632812 1.878906-5.597657.425782-11.09375.769532-16.792969.851563-5.683594-.082031-11.28125-.339844-16.792969-.851563-5.511719-.511718-11.09375-1.023437-16.632812-1.878906-95.332032-13.140625-167.109376-73.042969-167.109376-176.296875.320313-33.15625 6.980469-65.945313 19.628907-96.597656l70.605469-101.972657c30.136718-28.277343 69.011718-45.4375 110.214843-48.640624h.171875c41.199219 3.207031 80.074219 20.363281 110.207032 48.640624l70.613281 101.972657c12.648437 30.652343 19.308593 63.441406 19.628906 96.597656zm0 0" fill="#4cae50"/><path d="m162.132812 94.320312-25.601562 34.132813c-28.585938-45.738281-89.511719-69.972656-115.371094-75.433594-1.996094-5.480469-4.277344-10.851562-6.824218-16.09375-1.234376-2.550781-1.136719-5.546875.261718-8.007812 1.394532-2.464844 3.914063-4.089844 6.734375-4.339844 109.125-9.457031 140.800781 69.742187 140.800781 69.742187zm0 0" fill="#4cae50"/><path d="m136.53125 128.453125-20.980469 27.980469c-2.910156 3.945312-7.402343 6.421875-12.289062 6.777344-78.175781 4.777343-85.929688-44.078126-77.664063-68.890626 2.878906-13.894531 1.328125-28.339843-4.4375-41.300781 25.859375 5.460938 86.785156 29.695313 115.371094 75.433594zm0 0" fill="#e81e63"/><path d="m497.699219 36.925781c-2.550781 5.242188-4.828125 10.613281-6.828125 16.09375-25.890625 5.460938-86.820313 29.695313-115.40625 75.433594l-25.597656-34.132813s31.675781-79.199218 140.796874-69.742187c2.828126.242187 5.355469 1.859375 6.761719 4.324219 1.402344 2.46875 1.503907 5.464844.273438 8.023437zm0 0" fill="#4cae50"/><path d="m486.398438 94.320312c8.277343 24.832032.511718 73.640626-77.652344 68.863282-1.945313-.109375-3.851563-.570313-5.632813-1.367188-2.640625-1.191406-4.933593-3.042968-6.65625-5.375l-20.992187-27.988281c19.371094-30.976563 53.503906-52.054687 81.578125-64.171875 10.882812-4.8125 22.199219-8.582031 33.792969-11.261719-5.761719 12.960938-7.316407 27.40625-4.4375 41.300781zm0 0" fill="#ac1457"/><path d="m403.113281 161.816406c-2.640625-1.191406-4.933593-3.042968-6.65625-5.375l-20.992187-27.988281c19.371094-30.976563 53.503906-52.054687 81.578125-64.171875-2.894531 9.453125-3.128907 19.523438-.679688 29.101562 7.335938 21.929688 2.132813 62.71875-53.25 68.433594zm0 0" fill="#e81e63"/><path d="m326.65625 145.777344c-3.890625 2.503906-8.003906 4.648437-12.289062 6.398437-8.535157 3.53125-17.4375 6.105469-26.539063 7.679688-10.511719 1.820312-21.160156 2.730469-31.828125 2.730469-2.816406 0-5.632812-.085938-8.363281-.171876h-.339844c-7.753906-.382812-15.476563-1.238281-23.128906-2.558593-13.730469-2.132813-26.917969-6.914063-38.824219-14.078125-1.769531 1.996094-3.367188 4.136718-4.777344 6.398437-6.824218 10.746094-10.273437 23.289063-9.902344 36.011719 0 33.535156 19.371094 53.929688 47.53125 62.804688l29.269532 16.554687 8.535156 4.777344 37.800781-21.332031c28.160157-8.875 47.53125-29.269532 47.53125-62.804688.546875-15.46875-4.683593-30.589844-14.675781-42.410156zm0 0" fill="#fff"/><path d="m307.199219 186.753906c.042969 22.824219-15.027344 42.925782-36.953125 49.277344-21.925782 6.351562-45.40625-2.578125-57.570313-21.894531-12.164062-19.316407-10.074219-44.351563 5.128907-61.378907 12.613281 2.179688 25.390624 3.277344 38.195312 3.273438 12.800781.003906 25.578125-1.09375 38.195312-3.273438 8.363282 9.347657 12.996094 21.449219 13.003907 33.996094zm0 0" fill="#00bbd3"/><path d="m281.597656 188.1875c0 14.136719-11.460937 25.597656-25.597656 25.597656-14.140625 0-25.601562-11.460937-25.601562-25.597656 0-14.140625 11.460937-25.601562 25.601562-25.601562 14.136719 0 25.597656 11.460937 25.597656 25.601562zm0 0" fill="#37474f"/><path d="m230.398438 247.917969c14.140624 0 25.601562 11.464843 25.601562 25.601562v8.535157h-51.199219v-8.535157c0-14.136719 11.460938-25.601562 25.597657-25.601562zm0 0" fill="#ffebb2"/><path d="m281.597656 247.917969c14.140625 0 25.601563 11.464843 25.601563 25.601562v8.535157h-51.199219v-8.535157c0-14.136719 11.460938-25.601562 25.597656-25.601562zm0 0" fill="#ffebb2"/><path d="m311.976562 18.886719-55.976562 83.964843-55.980469-83.964843c36.152344-13.199219 75.804688-13.199219 111.957031 0zm0 0" fill="#00bbd3"/><path d="m230.398438 188.1875c0 9.425781-7.640626 17.066406-17.066407 17.066406s-17.066406-7.640625-17.066406-17.066406 7.640625-17.066406 17.066406-17.066406 17.066407 7.640625 17.066407 17.066406zm0 0" fill="#fff"/><path d="m1.21875 30.449219c6.554688 10.964843 22.265625 43.226562 16.289062 61.175781-6.375 18.785156-2.949218 39.515625 9.132813 55.25 6.660156 8.03125 15.269531 14.21875 25.003906 17.972656-11.269531 29.242188-17.203125 60.269532-17.511719 91.605469 0 114.039063 87.089844 187.734375 221.867188 187.734375 134.773438 0 221.867188-73.695312 221.867188-187.734375-.3125-31.335937-6.242188-62.363281-17.511719-91.605469 9.734375-3.753906 18.34375-9.941406 25.003906-17.972656 12.082031-15.734375 15.507813-36.464844 9.128906-55.25-5.972656-17.921875 9.746094-50.230469 16.289063-61.1875 1.453125-2.445312 1.59375-5.457031.367187-8.027344-1.226562-2.570312-3.652343-4.359375-6.46875-4.769531-61.957031-8.851563-102.398437 9.007813-127.484375 29.335937-18.589844-15.496093-39.722656-27.664062-62.457031-35.960937-.441406-.199219-.898437-.359375-1.367187-.476563-37.070313-13.402343-77.664063-13.402343-114.738282 0-.46875.117188-.925781.277344-1.363281.476563-22.730469 8.289063-43.855469 20.445313-62.441406 35.933594-25.101563-20.332031-65.550781-38.191407-127.503907-29.34375-2.828124.40625-5.269531 2.203125-6.496093 4.785156-1.226563 2.582031-1.078125 5.605469.394531 8.058594zm297.34375-6.828125-42.5625 63.871094-42.566406-63.871094c27.792968-8.136719 57.335937-8.136719 85.128906 0zm-170.28125 39.679687c.050781.058594.058594.136719.109375.195313.199219.222656.480469.324218.691406.53125 10.582031 9.320312 19.136719 20.714844 25.132813 33.476562 1.75 4.375 6.71875 6.5 11.097656 4.746094 4.375-1.75 6.5-6.71875 4.746094-11.097656-5.625-12.039063-13.257813-23.035156-22.570313-32.519532 14.871094-12.152343 31.449219-22.042968 49.203125-29.363281l52.207032 78.320313c1.582031 2.371094 4.246093 3.796875 7.101562 3.796875 2.851562 0 5.515625-1.425781 7.097656-3.796875l52.207032-78.320313c17.753906 7.320313 34.335937 17.210938 49.203124 29.363281-9.3125 9.480469-16.945312 20.480469-22.570312 32.519532-1.753906 4.378906.371094 9.347656 4.746094 11.101562 4.375 1.757813 9.34375-.367187 11.101562-4.742187 5.992188-12.796875 14.566406-24.21875 25.179688-33.546875.199218-.1875.460937-.261719.640625-.46875.0625-.066406.070312-.152344.128906-.21875 19.984375-17.75 53.273437-34.84375 106.265625-30.191406-1.773438 3.617187-3.730469 7.941406-5.597656 12.644531-40.910156 9.292969-76.511719 34.320312-99.105469 69.667969-2.5 4.003906-1.277344 9.277343 2.730469 11.773437 4.003906 2.5 9.277344 1.277344 11.777344-2.730469 18.164062-28.589844 46.042968-49.660156 78.503906-59.332031-2.855469 10.445313-2.855469 21.464844 0 31.90625 4.472656 13.324219 2.128906 27.992187-6.28125 39.253906-12.082032 15.035157-36.316406 21.195313-70.109375 17.824219-4.699219-.46875-8.894531 2.960938-9.363281 7.660156-.472657 4.703125 2.957031 8.894532 7.65625 9.367188 6.691406.664062 12.894531.972656 18.671874.972656 8.421876.058594 16.824219-.703125 25.097657-2.28125 10.796875 27.625 16.496093 56.980469 16.820312 86.640625 0 91.304687-62.347656 154.050781-162.136719 167.78125v-14.179687c0-4.714844-3.820312-8.535157-8.53125-8.535157-4.714843 0-8.535156 3.820313-8.535156 8.535157v15.988281c-5.5625.4375-11.296875.640625-17.066406.785156v-33.839844c0-4.714843-3.820312-8.535156-8.53125-8.535156-4.714844 0-8.535156 3.820313-8.535156 8.535156v33.839844c-5.765625-.144531-11.503906-.347656-17.066406-.785156v-15.988281c0-4.714844-3.820313-8.535157-8.53125-8.535157-4.714844 0-8.535157 3.820313-8.535157 8.535157v14.179687c-99.789062-13.730469-162.132812-76.476563-162.132812-167.78125.316406-29.671875 6.015625-59.042969 16.820312-86.683594 8.269531 1.578125 16.675781 2.339844 25.09375 2.28125 5.777344 0 11.949219-.308593 18.671875-.972656 4.691406-.472656 8.109375-4.65625 7.636719-9.34375-.46875-4.691406-4.652344-8.109375-9.34375-7.640625-33.800781 3.371094-58.027344-2.796875-70.109375-17.867188-8.40625-11.261718-10.753906-25.929687-6.28125-39.253906 2.859375-10.441406 2.859375-21.460937 0-31.90625 32.464844 9.671875 60.34375 30.742188 78.507812 59.332032 2.496094 4.007812 7.769532 5.230468 11.777344 2.730468 4.003906-2.496094 5.226563-7.769531 2.730469-11.773437-22.601563-35.332031-58.207031-60.34375-99.105469-69.625-1.871094-4.703125-3.824218-9.027344-5.597656-12.644531 52.988281-4.667969 86.289062 12.449218 106.28125 30.214843zm0 0"/><path d="m128 333.253906c4.710938 0 8.53125-3.820312 8.53125-8.535156 0-18.851562 15.285156-34.132812 34.132812-34.132812h170.667969c18.851563 0 34.132813 15.28125 34.132813 34.132812 0 4.714844 3.820312 8.535156 8.535156 8.535156 4.710938 0 8.53125-3.820312 8.53125-8.535156-.027344-28.265625-22.933594-51.171875-51.199219-51.199219h-25.597656c-.007813-7.035156-2.207031-13.898437-6.289063-19.625 25.601563-11.621093 41.59375-37.617187 40.421876-65.707031.554687-17.535156-5.425782-34.644531-16.777344-48.019531-2.804688-3.195313-7.535156-3.839844-11.09375-1.507813-20.195313 11.019532-43.007813 16.339844-65.996094 15.394532-22.972656.949218-45.769531-4.359376-65.953125-15.363282-3.558594-2.328125-8.289063-1.6875-11.09375 1.511719-11.359375 13.359375-17.355469 30.457031-16.820313 47.984375-1.171874 28.089844 14.820313 54.085938 40.421876 65.707031-4.085938 5.726563-6.285157 12.589844-6.289063 19.625h-25.601563c-28.261718.027344-51.171874 22.933594-51.199218 51.199219 0 4.714844 3.820312 8.535156 8.535156 8.535156zm136.53125-59.734375c0-9.425781 7.640625-17.066406 17.066406-17.066406 9.425782 0 17.066406 7.640625 17.066406 17.066406zm8.535156-85.332031c0 9.425781-7.640625 17.066406-17.066406 17.066406s-17.066406-7.640625-17.066406-17.066406 7.640625-17.066406 17.066406-17.066406 17.066406 7.640625 17.066406 17.066406zm-93.867187 0c-.300781-11.007812 2.613281-21.867188 8.386719-31.242188 12.664062 6.148438 26.226562 10.230469 40.175781 12.09375-9.660157 14.222657-7.230469 33.414063 5.667969 44.78125 12.898437 11.371094 32.242187 11.371094 45.140624 0 12.898438-11.367187 15.324219-30.558593 5.664063-44.78125 13.953125-1.863281 27.515625-5.945312 40.175781-12.09375 5.777344 9.375 8.691406 20.234376 8.390625 31.242188 1.023438 24.652344-14.929687 46.8125-38.632812 53.664062-13.402344-5.441406-28.785157-1.683593-38.167969 9.328126-9.382812-11.011719-24.765625-14.769532-38.171875-9.328126-23.703125-6.851562-39.65625-29.011718-38.628906-53.664062zm51.199219 68.265625c9.425781 0 17.066406 7.640625 17.066406 17.066406h-34.132813c0-9.425781 7.640625-17.066406 17.066407-17.066406zm0 0"/><path d="m273.066406 307.652344h-34.132812c-4.714844 0-8.535156 3.820312-8.535156 8.535156 0 4.710938 3.820312 8.53125 8.535156 8.53125h34.132812c4.710938 0 8.53125-3.820312 8.53125-8.53125 0-4.714844-3.820312-8.535156-8.53125-8.535156zm0 0"/></svg>