<svg height="511pt" viewBox="0 -51 511.99759 511" width="511pt" xmlns="http://www.w3.org/2000/svg"><path d="m443.21875 273.027344c-24.914062 74.496094-99.328125 128.511718-187.21875 128.511718-27.285156.042969-54.3125-5.292968-79.53125-15.703124-7.804688-3.226563-15.386719-6.960938-22.699219-11.179688-39.84375-22.296875-70.09375-58.46875-84.992187-101.628906l55.722656-190.976563c35.78125-30.039062 80.855469-46.773437 127.574219-47.359375h.9375c.9375-.085937 1.964843-.085937 2.988281-.085937 30.289062.539062 60.109375 7.550781 87.464844 20.5625.132812.003906.257812.066406.34375.171875 15.605468 7.183594 30.351562 16.117187 43.945312 26.625zm0 0" fill="#558a30"/><path d="m418.132812 264.492188c-24.917968 74.496093-99.328124 128.511718-187.222656 128.511718-18.382812.027344-36.691406-2.382812-54.441406-7.167968-7.804688-3.226563-15.386719-6.960938-22.699219-11.179688-39.84375-22.296875-70.09375-58.46875-84.992187-101.628906l55.722656-190.976563c35.78125-30.039062 80.855469-46.773437 127.574219-47.359375h.9375c28.390625 1.347656 56.234375 8.308594 81.921875 20.476563.132812.003906.257812.066406.339844.171875 9.898437 5.546875 48.894531 23.980468 57.257812 30.464844zm0 0" fill="#8ac24a"/><path d="m153.769531 103.640625-59.902343 84.5625c-8.605469-5.484375-16.921876-11.40625-24.917969-17.746094-.855469-.683593-1.535157-1.195312-2.050781-1.625-4.011719-3.269531-7.75-6.867187-11.175782-10.75-13.925781-16.28125-22.296875-36.578125-23.894531-57.941406-.257813-2.730469-.339844-5.460937-.339844-8.277344-.011719-3.847656.1875-7.695312.597657-11.519531 2.160156-25.988281 13.328124-50.402344 31.570312-69.035156 2.273438-1.972656 5.410156-2.625 8.28125-1.71875 2.875.902344 5.070312 3.234375 5.800781 6.15625 6.824219 25.601562 23.296875 53.246094 44.714844 65.28125 7.996094 4.519531 16.667969 7.714844 25.683594 9.46875 2.886719.421875 5.351562 2.3125 6.5 4.992187 1.148437 2.683594.820312 5.769531-.867188 8.152344zm0 0" fill="#fdc008"/><path d="m480.511719 91.863281c0 2.816407-.085938 5.546875-.34375 8.277344-1.539063 21.34375-9.949219 41.613281-23.976563 57.769531-1.390625 1.675782-2.871094 3.269532-4.4375 4.78125-2.789062 2.6875-5.722656 5.222656-8.789062 7.59375-7.96875 6.386719-16.257813 12.367188-24.832032 17.917969l-60.074218-84.820313c-1.636719-2.339843-1.945313-5.363281-.816406-7.984374 1.132812-2.625 3.535156-4.480469 6.363281-4.902344 11.050781-2.089844 21.582031-6.351563 30.976562-12.542969 19.113281-12.457031 33.535157-38.910156 39.761719-62.546875.75-2.894531 2.957031-5.183594 5.820312-6.039062 2.863282-.855469 5.964844-.152344 8.175782 1.855468 18.246094 18.664063 29.410156 43.109375 31.574218 69.121094.40625 3.824219.605469 7.671875.597657 11.519531zm0 0" fill="#fdc008"/><path d="m128 265.003906c-57.773438 19.285156-88.40625 3.15625-104.109375-14.507812 73.472656-54.527344 95.320313-19.027344 101.632813 2.050781l2.390624 11.945313c.046876.167968.074219.339843.085938.511718zm0 0" fill="#e81e63"/><path d="m125.523438 252.546875c-6.3125-21.078125-28.160157-56.578125-101.632813-2.050781-7.238281-8.0625-12.496094-17.707032-15.359375-28.15625 51.199219-59.734375 102.402344-42.667969 102.402344-42.667969zm0 0" fill="#8ac24a"/><path d="m488.105469 250.496094c-15.703125 17.664062-46.335938 33.792968-104.105469 14.507812l2.472656-12.457031c6.316406-21.078125 28.160156-56.578125 101.632813-2.050781zm0 0" fill="#e81e63"/><path d="m503.464844 222.339844c-2.859375 10.449218-8.121094 20.09375-15.359375 28.15625-73.472657-54.527344-95.316407-19.027344-101.632813 2.050781l14.59375-72.875s51.199219-17.066406 102.398438 42.667969zm0 0" fill="#8ac24a"/><path d="m256 85.804688c-2.816406 0-5.632812.171874-8.363281.425781h-.34375c-34.207031 3.5-62.96875 27.191406-72.960938 60.09375-9.992187 32.902343.738281 68.589843 27.222657 90.519531 1.964843 1.621094 3.925781 3.15625 6.058593 4.609375 12.460938-6.058594 26.015625-9.542969 39.851563-10.242187 2.816406-.253907 5.632812-.339844 8.535156-.339844 12.703125-.089844 25.332031 1.929687 37.375 5.972656 3.777344 1.261719 7.457031 2.800781 11.007812 4.609375 30.804688-21.183594 44.234376-59.945313 33.136719-95.644531-11.097656-35.699219-44.136719-60.019532-81.519531-60.003906zm0 0" fill="#f3f3f3"/><path d="m307.199219 171.136719c0 28.277343-22.921875 51.203125-51.199219 51.203125s-51.203125-22.925782-51.203125-51.203125c0-28.277344 22.925781-51.199219 51.203125-51.199219s51.199219 22.921875 51.199219 51.199219zm0 0" fill="#2295f2"/><path d="m281.597656 171.136719c0 14.140625-11.460937 25.601562-25.597656 25.601562-14.140625 0-25.601562-11.460937-25.601562-25.601562 0-14.136719 11.460937-25.597657 25.601562-25.597657 14.136719 0 25.597656 11.460938 25.597656 25.597657zm0 0" fill="#37474f"/><path d="m281.597656 327.210938v23.128906c-.027344 9.410156-7.652344 17.035156-17.066406 17.066406h-17.066406c-9.414063-.03125-17.039063-7.65625-17.066406-17.066406v-23.128906zm0 0" fill="#f9eab0"/><path d="m273.066406 327.210938v23.128906c0 9.382812-5.121094 17.066406-11.375 17.066406h-11.382812c-6.257813 0-11.375-7.683594-11.375-17.066406v-23.128906zm0 0" fill="#ffebb2"/><path d="m247.464844 145.539062c0 9.425782-7.640625 17.066407-17.066406 17.066407-9.425782 0-17.066407-7.640625-17.066407-17.066407 0-9.425781 7.640625-17.066406 17.066407-17.066406 9.425781 0 17.066406 7.640625 17.066406 17.066406zm0 0" fill="#f3f3f3"/><path d="m36.582031 271.644531c8.082031 4.460938 16.871094 7.507813 25.984375 9 28.398438 77.59375 105.359375 129.425781 193.433594 129.425781 88.070312 0 165.035156-51.832031 193.433594-129.425781 9.109375-1.496093 17.898437-4.542969 25.984375-9 17.914062-10.394531 30.992187-27.453125 36.375-47.453125.585937-2.625-.101563-5.367187-1.851563-7.410156-15.386718-19.101562-35.617187-33.730469-58.582031-42.359375 1.058594-.894531 2.082031-1.800781 3.089844-2.738281.390625-.289063.753906-.613282 1.085937-.964844.707032-.679688 1.535156-1.277344 2.21875-1.980469 20.210938-20.449219 31.464844-48.089843 31.289063-76.839843 0-33.171876-14.054688-68.132813-34.984375-86.988282-4.425782-4.003906-10.617188-5.40625-16.335938-3.695312-5.714844 1.707031-10.125 6.273437-11.628906 12.046875-6.621094 24.945312-20.820312 47.53125-36.214844 57.550781-.554687.367188-1.160156.621094-1.707031.972656-38.269531-28.539062-84.449219-44.511718-132.171875-45.714844-47.925781-.144531-94.488281 15.949219-132.089844 45.664063-18.617187-12.058594-32.425781-37.546875-37.996094-58.402344-1.488281-5.800781-5.902343-10.394531-11.636718-12.113281-5.734375-1.714844-11.953125-.304688-16.378906 3.722656-20.898438 18.851563-34.988282 53.804688-34.988282 86.957032-.25 29.789062 11.875 58.347656 33.476563 78.863281.335937.363281.699219.699219 1.09375 1 .988281.902343 1.925781 1.859375 2.953125 2.730469-22.878906 8.644531-43.035156 23.246093-58.378906 42.289062-1.75 2.042969-2.433594 4.785156-1.851563 7.410156 5.386719 20 18.464844 37.058594 36.378906 47.453125zm.757813-20.171875c27.367187-18.699218 49.109375-25.363281 63.085937-18.980468 9.636719 5.6875 16.214844 15.398437 17.921875 26.453124-15.671875 5.121094-32.214844 7.03125-48.640625 5.617188-.136719 0-.253906-.0625-.390625-.070312-8.445312-.941407-16.625-3.511719-24.089844-7.570313-2.78125-1.585937-5.417968-3.410156-7.886718-5.449219zm405.335937 13.0625c-.121093 0-.230469.042969-.34375.058594-16.425781 1.417969-32.96875-.492188-48.640625-5.613281 1.707032-11.058594 8.285156-20.769531 17.921875-26.453125 13.960938-6.375 35.703125.273437 63.085938 18.984375-2.464844 2.035156-5.101563 3.859375-7.875 5.445312-7.488281 4.078125-15.699219 6.652344-24.175781 7.578125zm-376.601562-73.914062c.320312-.082032.636719-.179688.945312-.292969 5.078125-1.734375 10.308594-2.972656 15.625-3.703125.230469-.042969.46875 0 .691407-.09375 8.3125-1.261719 16.796874-.835938 24.941406 1.253906 4.476562 1.480469 9.304687-.953125 10.78125-5.429687 1.480468-4.476563-.953125-9.304688-5.429688-10.78125-10.027344-2.734375-20.496094-3.464844-30.804687-2.144531-3.605469-2.054688-7.027344-4.40625-10.242188-7.03125 5.414063-14.15625 14.636719-26.542969 26.652344-35.789063 2.382813-1.902344 3.570313-4.929687 3.113281-7.945313-.453125-3.015624-2.484375-5.5625-5.324218-6.675781-2.839844-1.113281-6.054688-.625-8.441407 1.277344-12.28125 9.570313-22.238281 21.800781-29.121093 35.769531-11.90625-15.289062-18.648438-33.96875-19.246094-53.339844 6.433594-4.8125 13.78125-8.265624 21.589844-10.148437 2.976562-.722656 5.339843-2.984375 6.1875-5.929687.847656-2.941407.050781-6.113282-2.082032-8.308594-2.136718-2.199219-5.285156-3.082032-8.25-2.316406-5.570312 1.394531-10.976562 3.371093-16.128906 5.90625 2.84375-21.582032 12.636719-41.648438 27.894531-57.171876 6.265625 23.507813 22.816407 56.148438 48.820313 70.707032.851562.460937 1.707031.785156 2.507812 1.226562.144532.070313.28125.148438.425782.207032 12.585937 6.660156 26.554687 10.277343 40.789062 10.5625 2.273438.078124 4.480469-.765626 6.121094-2.34375 1.636718-1.578126 2.566406-3.75 2.574218-6.027344.042969-2.261719-.8125-4.449219-2.382812-6.082032-1.570312-1.628906-3.722656-2.570312-5.988281-2.613281-7.128907-.15625-14.199219-1.34375-20.992188-3.523437 33.421875-23.992188 73.558594-36.835938 114.699219-36.703125 40.839844 1.199219 80.5 13.984375 114.34375 36.875-6.691406 2.070312-13.644531 3.199219-20.648438 3.351562-4.714843.101563-8.453124 4-8.355468 8.714844.101562 4.710937 4 8.453125 8.714844 8.351563 14.296874-.363282 28.3125-4.035157 40.957031-10.71875.5625-.222657 1.097656-.511719 1.597656-.851563 2.21875-1.21875 4.496094-2.328125 6.621094-3.730469 22.691406-14.769531 37.273437-44.527344 43.402343-67.496094 15.203126 15.605469 24.964844 35.707032 27.824219 57.308594-5.148437-2.535156-10.554687-4.515625-16.125-5.90625-2.96875-.765625-6.117187.117188-8.25 2.316406-2.136719 2.195313-2.933593 5.367188-2.085937 8.308594.851562 2.945313 3.210937 5.207032 6.1875 5.929688 7.816406 1.882812 15.167968 5.335937 21.605468 10.15625-.683593 19.320312-7.429687 37.933594-19.285156 53.207031-6.851562-13.929687-16.769531-26.121094-29.011718-35.664063-3.683594-2.945312-9.054688-2.347656-12 1.332032-2.945313 3.679687-2.347657 9.054687 1.332031 12 11.9375 9.253906 21.136719 21.582031 26.617187 35.660156-3.191406 2.652344-6.578125 5.054688-10.140625 7.183594-10.339843-1.339844-20.84375-.621094-30.90625 2.125-4.476562 1.488281-6.898437 6.328125-5.410156 10.804687 1.488281 4.476563 6.324219 6.898438 10.804687 5.410157 13.761719-3.25 28.179688-2.3125 41.402344 2.695312h.121094c18.839844 6.953125 35.585938 18.621094 48.636719 33.886719-1.90625 5.128906-4.445313 10.003906-7.558594 14.507812-34.023437-23.699219-61.636719-31.199219-81.921875-21.863281-26.078125 11.945312-28.789062 45.941406-28.902344 47.382812 0 .214844.085938.410157.085938.625.011718.574219.085937 1.148438.222656 1.707032.089844.511718.230469 1.015625.417969 1.5.238281.503906.523437.984375.855469 1.433594.277343.441406.597656.851562.953124 1.230468.402344.386719.839844.730469 1.304688 1.03125.441406.316406.914062.585938 1.410156.804688.210938.09375.375.269531.605469.347656 15.851563 5.574219 32.472656 8.660156 49.269531 9.140625-28.160156 66.738281-96.664062 110.769531-174.691406 110.769531-78.03125 0-146.535156-44.03125-174.574219-110.761718 16.796875-.480469 33.417969-3.5625 49.269531-9.140626.214844-.074218.359376-.238281.554688-.324218.527344-.226563 1.03125-.511719 1.492188-.851563.921874-.550781 1.691406-1.324219 2.226562-2.253906.335938-.4375.621094-.910156.855469-1.40625.1875-.492187.328125-.996094.417969-1.511719.136718-.558594.210937-1.132812.222656-1.707031 0-.214844.09375-.410156.085937-.621094-.113281-1.445312-2.824219-35.414062-28.902343-47.386719-20.3125-9.328124-47.925782-1.835937-81.921876 21.863282-3.109374-4.503906-5.644531-9.378906-7.550781-14.507813 12.878907-15.097656 29.351563-26.710937 47.898438-33.773437zm0 0"/><path d="m202.769531 248.476562c2.574219 1.777344 5.914063 2 8.703125.585938 13.90625-6.582031 29.140625-9.890625 44.527344-9.65625 15.386719-.234375 30.617188 3.074219 44.527344 9.65625 2.789062 1.414062 6.128906 1.191406 8.703125-.585938 33.855469-23.3125 48.605469-65.9375 36.402343-105.1875-12.207031-39.25-48.53125-65.992187-89.632812-65.992187-41.105469 0-77.429688 26.742187-89.632812 65.992187-12.207032 39.25 2.542968 81.875 36.402343 105.1875zm53.230469-154.136718c32.757812-.015625 61.921875 20.757812 72.617188 51.722656 10.699218 30.964844.574218 65.304688-25.207032 85.515625-30.40625-12.320313-64.417968-12.320313-94.824218 0-25.78125-20.210937-35.902344-54.550781-25.207032-85.515625 10.699219-30.964844 39.859375-51.738281 72.621094-51.722656zm0 0"/><path d="m256 205.269531c18.851562 0 34.132812-15.28125 34.132812-34.132812 0-18.851563-15.28125-34.132813-34.132812-34.132813s-34.132812 15.28125-34.132812 34.132813c0 18.851562 15.28125 34.132812 34.132812 34.132812zm0-51.199219c9.425781 0 17.066406 7.640626 17.066406 17.066407s-7.640625 17.066406-17.066406 17.066406-17.066406-7.640625-17.066406-17.066406 7.640625-17.066407 17.066406-17.066407zm0 0"/><path d="m132.070312 307.433594c4.011719 2.464844 9.265626 1.210937 11.730469-2.800782l8.707031-14.15625c2.484376-4.535156 6.960938-7.628906 12.082032-8.355468 4.621094-.289063 9.101562 1.664062 12.03125 5.25l27.121094 30.019531c5.242187 5.851563 11.355468 10.859375 18.125 14.847656v18.101563c0 14.136718 11.460937 25.597656 25.597656 25.597656h17.066406c14.140625 0 25.601562-11.460938 25.601562-25.597656v-18.101563c6.761719-3.984375 12.871094-8.984375 18.105469-14.832031l27.136719-30.035156c2.933594-3.582032 7.410156-5.535156 12.03125-5.25 5.117188.726562 9.597656 3.816406 12.085938 8.347656l8.703124 14.164062c2.589844 3.703126 7.617188 4.742188 11.464844 2.371094 3.847656-2.367187 5.179688-7.324218 3.042969-11.304687l-8.707031-14.175781c-5.265625-9.105469-14.53125-15.183594-24.984375-16.390626-9.972657-.792968-19.726563 3.214844-26.257813 10.792969l-27.195312 30.039063c-4.972656 5.621094-10.984375 10.226562-17.707032 13.566406-13.75 6.886719-29.941406 6.886719-43.691406 0-6.730468-3.335938-12.753906-7.945312-17.738281-13.566406l-27.136719-30.039063c-6.535156-7.574219-16.285156-11.582031-26.257812-10.792969-10.480469 1.1875-19.777344 7.269532-25.0625 16.402344l-8.703125 14.164063c-2.464844 4.015625-1.207031 9.265625 2.808593 11.734375zm106.863282 32.058594c11.179687 2.988281 22.949218 2.988281 34.132812 0v10.847656c0 4.710937-3.820312 8.53125-8.535156 8.53125h-17.066406c-4.710938 0-8.53125-3.820313-8.53125-8.53125zm0 0"/></svg>