<svg height="512pt" viewBox="0 0 512 512.00328" width="512pt" xmlns="http://www.w3.org/2000/svg"><path d="m158.125 106.5v.085938l-84.308594 80.894531c2.816406-30.207031 4.09375-66.902344-5.546875-76.542969-10.242187-10.242188-34.050781 2.132812-47.957031 7.851562-3.042969 1.253907-6.535156.648438-8.976562-1.554687-2.441407-2.207031-3.398438-5.617187-2.460938-8.773437 6.316406-20.648438 20.652344-56.746094 41.644531-77.394532l.085938-.085937c5.285156-5.378907 11.578125-9.671875 18.515625-12.628907 7.859375-3.253906 16.597656-3.707031 24.746094-1.28125 15.679687 5.429688 28.964843 16.179688 37.546874 30.378907 3.289063 4.714843 6.253907 9.648437 8.875 14.761719 7.34375 14.160156 13.3125 28.992187 17.835938 44.289062zm0 0" fill="#fdc008"/><path d="m491.691406 118.789062c-13.910156-5.71875-37.714844-18.09375-47.957031-7.851562-9.640625 9.640625-8.363281 46.335938-5.546875 76.542969l-84.308594-80.894531v-.085938c4.519532-15.296875 10.492188-30.128906 17.835938-44.289062 2.621094-5.113282 5.585937-10.046876 8.875-14.761719 8.582031-14.199219 21.867187-24.949219 37.546875-30.378907 8.148437-2.425781 16.886719-1.972656 24.746093 1.28125 6.9375 2.957032 13.226563 7.25 18.515626 12.628907l.085937.085937c20.992187 20.648438 35.328125 56.746094 41.644531 77.394532.9375 3.15625-.019531 6.566406-2.460937 8.773437-2.441407 2.203125-5.933594 2.808594-8.976563 1.554687zm0 0" fill="#fdc008"/><path d="m503.46875 366.9375c0 102.742188-84.140625 130.132812-196.265625 135.421875-5.632813.257813-11.351563.511719-17.066406.597656-8.363281.257813-16.898438.425781-25.601563.425781-2.816406.085938-5.632812.085938-8.535156.085938-2.898438 0-5.714844 0-8.53125-.085938-8.703125 0-17.238281-.167968-25.601562-.425781-5.714844-.085937-11.433594-.339843-17.066407-.597656-112.128906-5.289063-196.265625-32.679687-196.265625-135.421875 0-49.835938 19.796875-109.484375 53.164063-161.707031 20.539062-32.953125 46.777343-61.992188 77.480469-85.761719 13.917968-10.574219 28.972656-19.5625 44.886718-26.792969 3.414063-1.535156 6.824219-2.902343 10.324219-4.183593l86.441406-6.3125 13.144531-.9375c118.695313 27.644531 209.492188 178.941406 209.492188 285.695312zm0 0" fill="#1566bf"/><path d="m477.867188 366.9375c0 102.742188-82.636719 130.132812-192.757813 135.421875-5.53125.257813-11.152344.511719-16.769531.597656-8.207032.257813-16.585938.425781-25.136719.425781s-16.929687-.167968-25.140625-.425781c-5.613281-.085937-11.238281-.339843-16.769531-.597656-110.121094-5.289063-192.757813-32.679687-192.757813-135.421875 0-49.835938 19.449219-109.484375 52.214844-161.707031 20.09375-32.863281 45.859375-61.898438 76.101562-85.761719 13.632813-10.558594 28.410157-19.546875 44.058594-26.792969 3.351563-1.535156 6.695313-2.902343 10.136719-4.183593l84.898437-6.3125c114.679688 30.035156 201.921876 179.199218 201.921876 284.757812zm0 0" fill="#2295f2"/><path d="m220.589844 118.617188c-20.988282-14.289063-33.671875-37.921876-33.980469-63.308594-.054687-1.835938 1.070313-3.496094 2.792969-4.128906 1.722656-.632813 3.652344-.09375 4.800781 1.335937 8.796875 12.140625 21.808594 20.558594 36.488281 23.605469 1.539063.242187 3.085938-.371094 4.042969-1.601563.953125-1.230469 1.160156-2.882812.539063-4.3125-4.710938-10.605469-9.703126-32.613281 13.773437-55.542969 1.199219-1.1875 2.988281-1.554687 4.558594-.9375 1.570312.617188 2.628906 2.101563 2.703125 3.789063.296875 9.199219 1.800781 18.324219 4.472656 27.132813.582031 1.414062 1.871094 2.40625 3.382812 2.605468 1.511719.203125 3.015626-.421875 3.945313-1.632812 8.988281-13.820313 26.328125-19.609375 41.8125-13.960938 1.339844.445313 2.371094 1.523438 2.757813 2.878906.390624 1.355469.082031 2.8125-.820313 3.898438-8.925781 10.835938-29.105469 40.242188-9.828125 66.527344.929688 1.222656 1.132812 2.851562.527344 4.265625-.605469 1.414062-1.925782 2.390625-3.457032 2.558593l-75.738281 7.570313c-.984375.089844-1.96875-.171875-2.773437-.742187zm0 0" fill="#1566bf"/><path d="m246.53125 202.074219c-4.15625 3.117187-8.582031 5.859375-13.226562 8.191406-7.332032 3.511719-15.03125 6.203125-22.957032 8.019531-10.207031 2.40625-20.660156 3.609375-31.144531 3.585938-2.902344 0-5.71875-.085938-8.535156-.257813-.851563-.085937-1.707031-.085937-2.558594-.253906-6.757813-.480469-13.464844-1.507813-20.054687-3.074219-1.707032-.425781-3.328126-.851562-4.949219-1.277344-11.269531-2.933593-21.875-8.003906-31.230469-14.933593-1.453125 2.644531-2.734375 5.382812-3.839844 8.191406-3.75 9.09375-5.664062 18.835937-5.632812 28.671875-.007813 39.109375 29.394531 71.96875 68.265625 76.289062 2.832031.339844 5.679687.511719 8.535156.511719 42.414063 0 76.796875-34.386719 76.796875-76.800781.023438-12.894531-3.234375-25.578125-9.46875-36.863281zm0 0" fill="#f3f3f3"/><path d="m400.128906 202.074219c-4.558594 3.441406-9.472656 6.390625-14.660156 8.789062-2.714844 1.261719-5.546875 2.457031-8.53125 3.53125-.71875.265625-1.453125.503907-2.175781.75-3.414063 1.152344-6.949219 2.21875-10.632813 3.089844l-.257812.058594c-4.625 1.085937-9.304688 1.914062-14.019532 2.476562-.777343.09375-1.5625.171875-2.347656.253907-4.882812.539062-9.789062.824218-14.703125.847656-3.121093 0-6.195312-.128906-9.230469-.324219-.625-.019531-1.246093-.085937-1.863281-.1875-3.488281-.257813-6.886719-.640625-10.238281-1.152344h-.195312c-3.253907-.503906-6.425782-1.117187-9.550782-1.871093-1.757812-.410157-3.480468-.851563-5.179687-1.339844-2.492188-.691406-4.871094-1.5-7.21875-2.328125-.664063-.238281-1.367188-.445313-2.023438-.699219-1.902343-.71875-3.695312-1.519531-5.476562-2.320312-.898438-.402344-1.828125-.761719-2.6875-1.1875-1.707031-.851563-3.253907-1.707032-4.824219-2.609376-.800781-.453124-1.703125-.855468-2.4375-1.339843-2.21875-1.355469-4.363281-2.824219-6.425781-4.40625-2.003907 3.703125-3.691407 7.570312-5.042969 11.554687-.554688 1.546875-1.085938 3.089844-1.539062 4.675782-.289063 1.035156-.535157 2.082031-.785157 3.140624-.460937 1.953126-.851562 3.941407-1.148437 5.972657-.128906.855469-.285156 1.757812-.386719 2.648437-.351563 2.933594-.535156 5.882813-.546875 8.839844 0 2.558594.136719 5.117188.386719 7.59375.085937.851562.246093 1.707031.355469 2.558594.214843 1.632812.429687 3.261718.746093 4.855468.195313.984376.457031 1.9375.699219 2.910157.332031 1.417969.664062 2.84375 1.082031 4.269531.300781 1.015625.664063 1.996094 1.015625 2.984375.445313 1.304687.894532 2.5625 1.417969 3.875.398437 1 .851563 1.960937 1.304687 2.933594.554688 1.222656 1.117188 2.425781 1.707032 3.609375.503906.957031 1.039062 1.894531 1.578125 2.828125.65625 1.140625 1.332031 2.269531 2.046875 3.367187.589844.90625 1.203125 1.800782 1.828125 2.679688.757812 1.066406 1.535156 2.109375 2.34375 3.132812.675781.855469 1.359375 1.707032 2.066406 2.507813.855469.984375 1.707031 1.945312 2.628906 2.886719.742188.785156 1.492188 1.558593 2.269531 2.3125.9375.851562 1.902344 1.757812 2.882813 2.617187.855469.710937 1.640625 1.425781 2.484375 2.109375 1.007812.800781 2.046875 1.5625 3.089844 2.3125.90625.648438 1.792968 1.304688 2.714844 1.910156 1.046874.691406 2.132812 1.316406 3.214843 1.957032 1.085938.636718 1.972657 1.183593 2.988281 1.703124 1.015626.523438 2.105469 1.027344 3.171876 1.53125 1.066406.5 2.246093 1.089844 3.414062 1.566407.855469.359375 1.765625.640625 2.644531.964843 30.050781 11.230469 63.914063 2.570313 84.890625-21.703124 20.972656-24.273438 24.625-59.035157 9.15625-87.136719zm0 0" fill="#f3f3f3"/><path d="m230.402344 246.121094c0 22.964844-15.289063 43.125-37.402344 49.3125-22.117188 6.1875-45.648438-3.105469-57.566406-22.738282-11.917969-19.628906-9.304688-44.796874 6.390625-61.558593 24.589843 5.734375 50.167969 5.734375 74.753906 0 8.90625 9.46875 13.851563 21.984375 13.824219 34.984375zm0 0" fill="#e81e63"/><path d="m384 246.121094c.003906 22.964844-15.285156 43.125-37.402344 49.3125-22.113281 6.1875-45.644531-3.105469-57.5625-22.738282-11.917968-19.628906-9.304687-44.796874 6.390625-61.558593 24.585938 5.734375 50.164063 5.734375 74.75 0 8.90625 9.46875 13.851563 21.984375 13.824219 34.984375zm0 0" fill="#e81e63"/><path d="m204.800781 247.46875c0 14.140625-11.460937 25.601562-25.597656 25.601562-14.140625 0-25.601563-11.460937-25.601563-25.601562 0-14.136719 11.460938-25.597656 25.601563-25.597656 14.136719 0 25.597656 11.460937 25.597656 25.597656zm0 0" fill="#37474f"/><path d="m358.402344 247.46875c0 14.140625-11.460938 25.601562-25.601563 25.601562-14.136719 0-25.597656-11.460937-25.597656-25.601562 0-14.136719 11.460937-25.597656 25.597656-25.597656 14.140625 0 25.601563 11.460937 25.601563 25.597656zm0 0" fill="#37474f"/><path d="m162.136719 230.402344c0 9.425781-7.644531 17.066406-17.070313 17.066406-9.421875 0-17.066406-7.640625-17.066406-17.066406-.015625-5.246094 2.414062-10.199219 6.574219-13.394532 1.621093.425782 3.242187.851563 4.949219 1.277344 6.589843 1.566406 13.292968 2.59375 20.050781 3.074219 1.675781 2.71875 2.5625 5.847656 2.5625 9.042969zm0 0" fill="#f3f3f3"/><path d="m315.734375 230.402344c0 9.425781-7.640625 17.066406-17.066406 17.066406s-17.066407-7.640625-17.066407-17.066406c-.019531-5.246094 2.410157-10.199219 6.570313-13.394532 1.621094.425782 3.242187.851563 4.949219 1.277344 6.589844 1.566406 13.296875 2.59375 20.054687 3.074219 1.675781 2.71875 2.5625 5.847656 2.558594 9.042969zm0 0" fill="#f3f3f3"/><path d="m23.511719 126.714844c1.765625-.734375 3.695312-1.5625 5.742187-2.441406 9.140625-3.941407 28.160156-12.140626 32.980469-7.304688 1.441406 1.453125 8.277344 11.519531 3.277344 67.414062-3.769531 5.300782-7.476563 10.691407-11 16.214844-34.644531 54.253906-54.511719 114.875-54.511719 166.339844 0 127.488281 123.042969 145.066406 256 145.066406 132.960938 0 256-17.578125 256-145.066406 0-57.832031-24.898438-126.234375-65.550781-182.988281-4.925781-55.46875 1.875-65.539063 3.320312-66.980469 4.855469-4.835938 23.890625 3.363281 32.980469 7.304688 2.046875.855468 3.976562 1.707031 5.742188 2.441406 6.085937 2.464844 13.046874 1.222656 17.898437-3.195313 4.855469-4.421875 6.746094-11.234375 4.859375-17.523437-5.828125-19.113282-37.699219-113.671875-95.453125-97.136719-33.835937 9.644531-54.613281 49.496094-66.765625 84.96875-14.496094-8.140625-29.914062-14.515625-45.925781-18.988281 2.894531-13.0625 9.359375-25.070313 18.671875-34.679688 1.933594-1.941406 2.816406-4.691406 2.375-7.394531s-2.152344-5.03125-4.601563-6.257813c-17.21875-9.996093-39.039062-6.898437-52.796875 7.492188-1.484375-8.40625-2.226562-16.925781-2.21875-25.464844 0-3.28125-1.878906-6.269531-4.835937-7.691406s-6.46875-1.023438-9.03125 1.027344c-29.738281 23.792968-30.121094 48.316406-25.890625 63.839844-12.496094-5.449219-22.824219-14.894532-29.363282-26.855469-1.652343-3.308594-5.242187-5.175781-8.898437-4.625-3.65625.546875-6.542969 3.386719-7.152344 7.03125-2.566406 14.296875-1.304687 29.015625 3.660157 42.667969-.792969.339843-1.613282.621093-2.40625.972656-3.980469 1.773437-7.925782 3.6875-11.835938 5.742187-1.925781 1.007813-3.839844 2.148438-5.757812 3.226563-12.117188-35.441406-32.929688-75.351563-66.773438-84.984375-57.71875-16.496094-89.667969 78.003906-95.496094 97.109375-1.886718 6.289062 0 13.101562 4.855469 17.523437 4.855469 4.417969 11.816406 5.660157 17.902344 3.195313zm355.839843-60.875c9.84375 5.125 17.769532 13.296875 22.585938 23.292968 1.359375 2.734376 4.070312 4.53125 7.113281 4.722657 3.042969.191406 5.957031-1.253907 7.644531-3.796875 1.6875-2.539063 1.890626-5.789063.535157-8.519532-6.230469-12.902343-16.320313-23.546874-28.875-30.457031 7.457031-12.003906 18.789062-21.109375 32.117187-25.8125 7.660156-2.097656 15.839844-1.050781 22.726563 2.910157 3.140625 9.304687 3.484375 19.328124.988281 28.828124-1.078125 2.910157-.484375 6.179688 1.542969 8.53125 2.03125 2.351563 5.175781 3.414063 8.214843 2.777344 3.039063-.640625 5.492188-2.878906 6.402344-5.847656 1.742188-5.488281 2.574219-11.21875 2.46875-16.972656 14.410156 19.796875 25.289063 41.9375 32.160156 65.441406-1.707031-.691406-3.523437-1.484375-5.46875-2.320312-16.375-7.058594-38.777343-16.734376-51.804687-3.695313-5.539063 5.527344-11.230469 17.125-9.898437 55.125-18.457032-21.988281-39.949219-41.238281-63.832032-57.175781 4.078125-12.757813 9.226563-25.144532 15.394532-37.03125zm-191.789062 34.617187c.964844-.433593 1.949219-.765625 2.910156-1.175781 6.90625 11.011719 16.117188 20.394531 27 27.5 4.023438 2.308594 9.15625.980469 11.554688-2.992188 2.394531-3.972656 1.179687-9.132812-2.738282-11.613281-10.046874-6.6875-18.261718-15.78125-23.894531-26.457031 0-.058594 0-.125 0-.1875-.074219-.203125-.238281-.332031-.324219-.527344-2.851562-5.550781-4.863281-11.496094-5.972656-17.636718 11.390625 11.34375 26.761719 17.792968 42.835938 17.96875 3.214844-.011719 6.148437-1.832032 7.589844-4.703126 1.441406-2.875 1.148437-6.3125-.761719-8.898437-9.097657-13.511719-7.964844-31.453125 2.765625-43.707031.371094 10.5 3.828125 20.65625 9.933594 29.210937 1.9375 1.933594 4.6875 2.816407 7.390624 2.378907 2.703126-.441407 5.035157-2.152344 6.261719-4.597657 5.1875-11.089843 16.71875-17.789062 28.917969-16.804687-14.507812 19.789062-26.453125 52.234375.078125 78.753906 3.347656 3.234375 8.671875 3.1875 11.960937-.101562 3.292969-3.292969 3.339844-8.617188.105469-11.964844-3.382812-3.324219-6.09375-7.269532-7.980469-11.621094 106.242188 34.074219 189.738282 173.542969 189.738282 273.65625 0 93.011719-73.230469 121.273438-187.730469 126.863281v-24.464843c0-4.710938-3.820313-8.53125-8.535156-8.53125-4.710938 0-8.53125 3.820312-8.53125 8.53125v25.113281c-8.335938.238281-16.871094.386719-25.601563.445312v-42.625c0-4.710937-3.820312-8.53125-8.535156-8.53125-4.710938 0-8.53125 3.820313-8.53125 8.53125v42.667969c-8.722656-.050781-17.253906-.199219-25.601562-.445312v-25.15625c0-4.710938-3.820313-8.53125-8.53125-8.53125-4.714844 0-8.535157 3.820312-8.535157 8.53125v24.464843c-114.5-5.589843-187.734375-33.851562-187.734375-126.863281 0-47.589844 19.382813-106.316406 51.832032-157.132812 20.003906-32.074219 45.535156-60.347657 75.410156-83.507813 13.414062-10.195313 27.921875-18.863281 43.253906-25.839844zm-138.375-54.800781c-.082031 5.699219.75 11.375 2.464844 16.8125.914062 2.96875 3.363281 5.207031 6.40625 5.847656 3.039062.636719 6.183594-.425781 8.214844-2.777344 2.027343-2.351562 2.621093-5.621093 1.542968-8.53125-2.488281-9.46875-2.15625-19.457031.964844-28.734374 6.871094-4.011719 15.070312-5.09375 22.75-2.996094 13.328125 4.703125 24.660156 13.804687 32.125 25.804687-12.578125 6.898438-22.691406 17.542969-28.933594 30.457031-2.097656 4.222657-.375 9.347657 3.847656 11.445313 4.222657 2.09375 9.347657.371094 11.441407-3.851563 4.820312-9.996093 12.742187-18.167968 22.589843-23.292968 6.15625 11.890625 11.296876 24.289062 15.359376 37.050781-4.710938 3.089844-9.386719 6.296875-13.984376 9.761719-18.328124 13.996094-35.042968 29.984375-49.84375 47.667968 1.363282-38.238281-4.335937-49.886718-9.890624-55.46875-13.03125-13.039062-35.449219-3.363281-51.804688 3.695313-1.949219.855469-3.78125 1.628906-5.410156 2.371094 6.871094-23.445313 17.753906-45.527344 32.160156-65.261719zm0 0"/><path d="m116.515625 195.03125c-.1875-.117188-.296875-.304688-.496094-.417969-.328125-.128906-.664062-.234375-1.003906-.316406-1.011719-.460937-2.121094-.664063-3.226563-.585937-.574218-.015626-1.144531.035156-1.707031.144531-1.039062.265625-2.035156.683593-2.953125 1.238281-.453125.324219-.875.695312-1.261718 1.097656-.300782.21875-.585938.453125-.855469.710938-.136719.179687-.160157.398437-.289063.585937-.128906.191407-.296875.292969-.410156.480469-13.917969 27.097656-12.324219 59.558594 4.183594 85.160156 16.507812 25.605469 45.417968 40.453125 75.84375 38.960938 30.425781-1.496094 57.742187-19.105469 71.660156-46.203125 13.363281 28.050781 40.933594 46.613281 71.953125 48.441406s60.574219-13.363281 77.144531-39.648437c16.566406-26.289063 17.523438-59.507813 2.488282-86.703126-.109376-.1875-.296876-.296874-.40625-.476562-.113282-.179688-.15625-.410156-.292969-.589844-.253907-.246094-.519531-.480468-.800781-.699218-.390626-.414063-.824219-.789063-1.289063-1.117188-.445313-.285156-.917969-.523438-1.40625-.71875-.503906-.21875-1.027344-.394531-1.5625-.519531-.53125-.097657-1.074219-.144531-1.613281-.144531-.535156-.019532-1.074219.015624-1.605469.101562-.554687.117188-1.097656.289062-1.621094.511719-.347656.085937-.6875.195312-1.023437.324219-.195313.109374-.308594.300781-.496094.417968-.1875.121094-.390625.144532-.570312.28125-18.300782 12.363282-40.023438 18.65625-62.097657 17.988282-22.082031.660156-43.8125-5.644532-62.113281-18.023438-.179688-.136719-.390625-.160156-.570312-.28125-.179688-.117188-.300782-.304688-.496094-.417969-.328125-.128906-.664063-.234375-1.007813-.324219-.53125-.230468-1.085937-.402343-1.65625-.519531-.519531-.070312-1.042969-.09375-1.570312-.058593-.570313-.015626-1.144531.03125-1.707031.144531-.511719.117187-1.011719.285156-1.492188.496093-.507812.199219-.996094.449219-1.457031.742188-.457031.324219-.878907.691406-1.265625 1.097656-.285156.21875-.554688.457032-.808594.710938-.136719.179687-.164062.398437-.28125.585937-.121094.191407-.308594.292969-.417969.480469-.761719 1.375-1.332031 2.847656-2.015625 4.265625-.683594-1.40625-1.253906-2.882813-2.011718-4.265625-.113282-.1875-.292969-.300781-.410157-.480469-.121093-.175781-.15625-.40625-.292969-.585937-.253906-.253906-.523437-.484375-.808593-.699219-.382813-.417969-.8125-.789063-1.28125-1.109375-.445313-.292969-.917969-.535156-1.414063-.726562-.972656-.460938-2.035156-.683594-3.109375-.65625-1.453125.140624-2.886719.457031-4.265625.9375-.195312.109374-.304687.300781-.496094.417968-.1875.121094-.390624.144532-.570312.28125-18.292969 12.359375-40.011719 18.652344-62.078125 17.988282-22.085937.660156-43.816406-5.644532-62.117187-18.023438-.175782-.136719-.390626-.160156-.570313-.28125zm233.351563 52.4375c0 9.425781-7.640626 17.066406-17.066407 17.066406s-17.066406-7.640625-17.066406-17.066406 7.640625-17.066406 17.066406-17.066406 17.066407 7.640625 17.066407 17.066406zm-80.808594-32.828125c11.179687 6.355469 23.355468 10.773437 36.007812 13.074219-10.152344 14.152344-8.023437 33.679687 4.945313 45.308594 12.96875 11.632812 32.613281 11.632812 45.578125 0 12.96875-11.628907 15.097656-31.15625 4.945312-45.308594 12.652344-2.300782 24.828125-6.71875 36.011719-13.074219 10.898437 28.433594 1.648437 60.644531-22.671875 78.960937-24.316406 18.320313-57.828125 18.320313-82.148438 0-24.320312-18.316406-33.566406-50.527343-22.667968-78.960937zm-89.855469 92.5625c-22.464844.039063-43.507813-10.992187-56.246094-29.496094-12.742187-18.5-15.546875-42.09375-7.5-63.066406 11.183594 6.355469 23.359375 10.773437 36.011719 13.074219-10.15625 14.152344-8.023438 33.679687 4.945312 45.308594 12.964844 11.632812 32.609376 11.632812 45.578126 0 12.964843-11.628907 15.097656-31.15625 4.941406-45.308594 12.65625-2.300782 24.828125-6.71875 36.011718-13.074219 8.046876 20.972656 5.242188 44.566406-7.5 63.066406-12.738281 18.503907-33.78125 29.535157-56.242187 29.496094zm17.066406-59.734375c0 9.425781-7.640625 17.066406-17.066406 17.066406s-17.066406-7.640625-17.066406-17.066406 7.640625-17.066406 17.066406-17.066406 17.066406 7.640625 17.066406 17.066406zm0 0"/><path d="m375.46875 358.402344c-4.714844 0-8.535156 3.820312-8.535156 8.535156 0 14.136719-11.460938 25.597656-25.597656 25.597656h-187.734376c-4.710937 0-8.535156 3.820313-8.535156 8.535156 0 4.710938 3.824219 8.53125 8.535156 8.53125h187.734376c23.550781-.027343 42.636718-19.113281 42.664062-42.664062 0-2.265625-.898438-4.433594-2.496094-6.035156-1.601562-1.601563-3.773437-2.5-6.035156-2.5zm0 0"/></svg>