<svg height="512pt" viewBox="0 0 512 512" width="512pt" xmlns="http://www.w3.org/2000/svg"><path d="m503.464844 371.199219c0 73.046875-110.761719 132.265625-247.464844 132.265625-2.902344 0-5.71875 0-8.535156-.085938-.710938.015625-1.421875-.011718-2.132813-.082031-115.199219-2.5625-210.003906-47.277344-232.019531-105.984375-3.152344-8.347656-4.773438-17.191406-4.777344-26.113281 0-2.046875.082032-4.179688.253906-6.230469.332032-4.152344 1.042969-8.265625 2.132813-12.285156.511719-1.792969 1.023437-3.671875 1.621094-5.460938 19.117187-55.808594 103.851562-99.5 209.921875-107.09375 4.445312-.3125 7.902344-3.992187 7.933594-8.449218v-69.546876c0-14.136718-11.460938-25.601562-25.597657-25.601562h-14.933593c0 .085938-.085938.085938-.085938.171875-15.230469 38.875-54.339844 62.988281-95.914062 59.136719-.289063.011718-.574219-.015625-.855469-.085938-1.191407-.085937-2.386719-.171875-3.582031-.339844-42.214844-6-75.144532-39.59375-80.300782-81.921874-1.09375-9.671876-.71875-19.453126 1.109375-29.011719 7.894531-40.707031 41.59375-71.386719 82.859375-75.4375.257813 0 .597656-.082031.855469-.082031 2.804687-.3125 5.625-.457032 8.445313-.429688 38.683593-.023438 73.414062 23.695312 87.46875 59.734375h132.265624c12.53125-32.136719 41.707032-54.789063 75.945313-58.964844 1.027344-.171875 1.964844-.257812 2.988281-.339843 7.160156-.667969 14.375-.523438 21.503906.425781 49.003907 6.648437 84.441407 50.179687 81.019532 99.511719-3.425782 49.335937-44.539063 87.550781-93.988282 87.367187-2.902343 0-5.804687-.171875-8.621093-.425781-1.109375-.085938-2.21875-.257813-3.328125-.425782-34.082032-4.253906-63.082032-26.867187-75.519532-58.882812h-14.933593c-.6875-.027344-1.375.03125-2.046875.171875-13.316406.964844-23.609375 12.078125-23.550782 25.429687v69.546876c.019532 3.839843 2.605469 7.191406 6.3125 8.191406.53125.132812 1.074219.21875 1.621094.257812 120.832032 8.703125 213.929688 64.082032 213.929688 131.070313zm0 0" fill="#2e7d32"/><path d="m477.867188 371.199219c0 71.082031-103.167969 129.109375-232.535157 132.097656-.707031.070313-1.417969.097656-2.132812.082031-114.089844-2.132812-208.210938-46.929687-229.886719-106.066406-3.152344-8.347656-4.773438-17.191406-4.777344-26.113281 0-2.046875.082032-4.179688.253906-6.230469.332032-4.152344 1.042969-8.265625 2.132813-12.285156.511719-1.792969 1.023437-3.671875 1.621094-5.460938 18.773437-55.808594 101.804687-99.5 206.082031-107.09375 4.390625-.367187 7.769531-4.042968 7.765625-8.449218v-69.546876c.152344-13.835937-10.828125-25.238281-24.664063-25.601562h-15.101562c0 .085938-.085938.085938-.085938.171875-.671874-.140625-1.359374-.199219-2.046874-.171875h11.773437c-12.285156 32.257812-68.09375 55.808594-103.253906 59.222656-.253907 0-.425781.085938-.679688.085938-1.453125-.085938-2.902343-.257813-4.351562-.425782-41.78125-6.347656-74.105469-39.929687-78.851563-81.921874-1.09375-9.671876-.71875-19.453126 1.109375-29.011719 7.460938-40.699219 40.996094-71.519531 82.175781-75.519531.257813 0 .429688.082031.683594.082031 35.074219 3.5 82.347656 26.96875 94.636719 59.222656h134.398437c12.53125-32.136719 41.707032-54.789063 75.945313-58.964844.101563.066407.222656.097657.34375.085938 45.90625 7.21875 79.667969 46.871093 79.476563 93.34375-.191407 46.46875-34.28125 85.84375-80.246094 92.683593-34.082032-4.253906-63.082032-26.867187-75.519532-58.882812h-20.308593c-.660157-.027344-1.320313.03125-1.960938.171875 0-.085937-.085937-.085937-.085937-.171875h-14.679688c-6.734375.054688-13.171875 2.78125-17.894531 7.582031-4.71875 4.800781-7.339844 11.285157-7.277344 18.019531v69.546876c0 4.4375 3.425781 8.121093 7.851563 8.449218 6.738281.511719 13.3125 1.191406 19.882812 1.875.511719.085938 1.109375.085938 1.621094.171875 107.945312 13.480469 188.585938 66.132813 188.585938 129.023438zm0 0" fill="#4cae50"/><path d="m170.667969 102.398438c0 37.703124-30.566407 68.269531-68.269531 68.269531-2.851563 0-5.699219-.171875-8.53125-.515625-34.21875-4.210938-59.921876-33.277344-59.921876-67.753906 0-34.472657 25.703126-63.539063 59.921876-67.753907 2.832031-.34375 5.679687-.515625 8.53125-.511719 37.703124 0 68.269531 30.5625 68.269531 68.265626zm0 0" fill="#e6e7e8"/><path d="m477.867188 102.398438c0 37.703124-30.566407 68.269531-68.265626 68.269531-2.855468 0-5.703124-.171875-8.535156-.515625-34.214844-4.210938-59.921875-33.277344-59.921875-67.753906 0-34.472657 25.707031-63.539063 59.921875-67.753907 2.832032-.34375 5.679688-.515625 8.535156-.511719 37.699219 0 68.265626 30.5625 68.265626 68.265626zm0 0" fill="#e6e7e8"/><path d="m153.601562 102.398438c0-37.417969-26.746093-67.753907-59.734374-67.753907-32.992188 0-59.734376 30.335938-59.734376 67.753907 0 37.421874 26.742188 67.753906 59.734376 67.753906 32.988281 0 59.734374-30.332032 59.734374-67.753906zm0 0" fill="#fff"/><path d="m460.800781 102.398438c0-37.417969-26.746093-67.753907-59.734375-67.753907-32.988281 0-59.734375 30.335938-59.734375 67.753907 0 37.421874 26.746094 67.753906 59.734375 67.753906 32.988282 0 59.734375-30.332032 59.734375-67.753906zm0 0" fill="#fff"/><path d="m136.535156 102.398438c0 18.851562-15.285156 34.132812-34.136718 34.132812-18.851563 0-34.132813-15.28125-34.132813-34.132812 0-18.851563 15.28125-34.132813 34.132813-34.132813 18.851562 0 34.136718 15.28125 34.136718 34.132813zm0 0" fill="#00bbd3"/><path d="m443.734375 102.398438c0 18.851562-15.28125 34.132812-34.132813 34.132812-18.851562 0-34.136718-15.28125-34.136718-34.132812 0-18.851563 15.285156-34.132813 34.136718-34.132813 18.851563 0 34.132813 15.28125 34.132813 34.132813zm0 0" fill="#00bbd3"/><path d="m119.464844 102.398438c0 9.425781-7.640625 17.066406-17.066406 17.066406-9.425782 0-17.066407-7.640625-17.066407-17.066406 0-9.425782 7.640625-17.066407 17.066407-17.066407 9.425781 0 17.066406 7.640625 17.066406 17.066407zm0 0" fill="#37474f"/><path d="m426.667969 102.398438c0 9.425781-7.640625 17.066406-17.066407 17.066406-9.425781 0-17.066406-7.640625-17.066406-17.066406 0-9.425782 7.640625-17.066407 17.066406-17.066407 9.425782 0 17.066407 7.640625 17.066407 17.066407zm0 0" fill="#37474f"/><path d="m375.464844 445.097656c-5.214844 3.097656-10.664063 5.777344-16.296875 8.023438-11.261719 4.574218-22.953125 8.007812-34.902344 10.238281-5.289063 1.136719-10.921875 2.078125-16.894531 2.816406-14.203125 1.890625-28.507813 2.917969-42.835938 3.070313-2.816406.085937-5.632812.085937-8.535156.085937s-5.71875 0-8.535156-.085937c-14.328125-.152344-28.632813-1.179688-42.835938-3.070313-5.972656-.738281-11.605468-1.679687-16.894531-2.816406-11.949219-2.230469-23.640625-5.664063-34.902344-10.238281-5.632812-2.246094-11.082031-4.925782-16.296875-8.023438-29.800781-16.328125-46.964844-48.875-43.605468-82.6875.339843-6.335937 1.140624-12.636718 2.386718-18.859375 2.273438-11.300781 5.652344-22.347656 10.085938-32.988281 1.097656-2.582031 3.394531-4.460938 6.144531-5.023438s5.597656.261719 7.621094 2.207032c5.703125 5.289062 11.921875 9.992187 18.558593 14.046875 5.117188 3.160156 10.417969 6.007812 15.875 8.53125 11.054688 5.050781 22.570313 9.023437 34.386719 11.863281 5.292969 1.363281 10.839844 2.558594 16.8125 3.582031 14.105469 2.347657 28.367188 3.660157 42.664063 3.925781 2.816406.171876 5.632812.171876 8.535156.171876s5.71875 0 8.535156-.171876c14.296875-.265624 28.558594-1.578124 42.664063-3.925781 5.972656-1.023437 11.519531-2.21875 16.8125-3.582031 11.816406-2.839844 23.332031-6.8125 34.386719-11.863281 5.457031-2.523438 10.757812-5.371094 15.875-8.53125 6.636718-4.054688 12.855468-8.757813 18.558593-14.046875 2.023438-1.945313 4.871094-2.769532 7.621094-2.207032s5.046875 2.441407 6.144531 5.023438c4.433594 10.640625 7.8125 21.6875 10.085938 32.988281 1.246094 6.222657 2.046875 12.523438 2.386718 18.859375 3.359376 33.8125-13.804687 66.359375-43.605468 82.6875zm0 0" fill="#f4f4f4"/><path d="m102.398438 76.800781c0 9.425781-7.640626 17.066407-17.066407 17.066407s-17.066406-7.640626-17.066406-17.066407 7.640625-17.066406 17.066406-17.066406 17.066407 7.640625 17.066407 17.066406zm0 0" fill="#fff"/><path d="m409.601562 76.800781c0 9.425781-7.640624 17.066407-17.066406 17.066407-9.425781 0-17.070312-7.640626-17.070312-17.066407s7.644531-17.066406 17.070312-17.066406c9.425782 0 17.066406 7.640625 17.066406 17.066406zm0 0" fill="#fff"/><path d="m290.132812 231.644531v-69.511719c0-9.425781 7.640626-17.066406 17.066407-17.066406h9.277343c14.417969 31.421875 43.710938 53.453125 77.898438 58.59375 34.191406 5.136719 68.664062-7.308594 91.683594-33.105468 26.703125-30.058594 33.34375-72.960938 16.980468-109.6875-16.363281-36.722657-52.707031-60.472657-92.910156-60.71875-40.207031-.2460942-76.835937 23.0625-93.644531 59.585937h-120.960937c-14.414063-31.421875-43.703126-53.453125-77.886719-58.59375-34.1875-5.140625-68.660157 7.304687-91.679688 33.09375-26.71875 30.054687-33.375 72.964844-17.015625 109.699219 16.363282 36.738281 52.710938 60.496094 92.921875 60.738281 40.214844.246094 76.847657-23.070313 93.652344-59.605469h9.285156c9.425781 0 17.066407 7.640625 17.066407 17.066406l-.050782 69.488282c-128.53125 9.28125-221.816406 67.984375-221.816406 139.578125 0 78.949219 112.453125 140.800781 256 140.800781s256-61.851562 256-140.800781c0-71.59375-93.285156-130.296875-221.867188-139.554688zm-34.132812 263.289063c-131.746094 0-238.933594-55.46875-238.933594-123.734375 0-61.378907 88.550782-114.074219 205.976563-122.5625 8.917969-.652344 15.839843-8.050781 15.890625-16.992188v-69.511719c0-18.851562-15.28125-34.132812-34.132813-34.132812h-14.933593c-3.519532 0-6.675782 2.15625-7.953126 5.433594-14.925781 38.230468-54.949218 60.417968-95.28125 52.824218-40.328124-7.59375-69.542968-42.820312-69.542968-83.859374 0-41.039063 29.214844-76.265626 69.542968-83.859376 40.332032-7.59375 80.355469 14.597657 95.28125 52.824219 1.277344 3.277344 4.433594 5.4375 7.953126 5.4375h132.265624c3.519532 0 6.675782-2.160156 7.953126-5.4375 14.925781-38.226562 54.949218-60.417969 95.28125-52.824219 40.328124 7.59375 69.542968 42.820313 69.542968 83.859376 0 41.039062-29.214844 76.265624-69.542968 83.859374-40.332032 7.59375-80.355469-14.59375-95.28125-52.824218-1.277344-3.277344-4.433594-5.433594-7.953126-5.433594h-14.933593c-18.851563 0-34.132813 15.28125-34.132813 34.132812v69.511719c.050782 8.941407 6.972656 16.339844 15.890625 16.992188 117.425781 8.488281 205.976563 61.183593 205.976563 122.5625 0 68.265625-107.1875 123.734375-238.933594 123.734375zm0 0"/><path d="m102.398438 34.132812c-37.699219 0-68.265626 30.5625-68.265626 68.265626 0 37.703124 30.566407 68.269531 68.265626 68.269531 37.703124 0 68.269531-30.566407 68.269531-68.269531-.042969-37.683594-30.582031-68.222657-68.269531-68.265626zm0 119.464844c-28.277344 0-51.199219-22.921875-51.199219-51.199218 0-28.277344 22.921875-51.199219 51.199219-51.199219 28.277343 0 51.203124 22.921875 51.203124 51.199219-.03125 28.265624-22.9375 51.171874-51.203124 51.199218zm0 0"/><path d="m102.398438 76.800781c-14.136719 0-25.597657 11.460938-25.597657 25.597657 0 14.140624 11.460938 25.601562 25.597657 25.601562 14.140624 0 25.601562-11.460938 25.601562-25.601562 0-14.136719-11.460938-25.597657-25.601562-25.597657zm0 34.132813c-4.710938 0-8.53125-3.820313-8.53125-8.535156 0-4.710938 3.820312-8.53125 8.53125-8.53125 4.714843 0 8.535156 3.820312 8.535156 8.53125 0 4.714843-3.820313 8.535156-8.535156 8.535156zm0 0"/><path d="m409.601562 170.667969c37.699219 0 68.265626-30.566407 68.265626-68.269531 0-37.703126-30.566407-68.265626-68.265626-68.265626-37.703124 0-68.269531 30.5625-68.269531 68.265626.042969 37.6875 30.582031 68.226562 68.269531 68.269531zm0-119.46875c28.277344 0 51.199219 22.921875 51.199219 51.199219 0 28.277343-22.921875 51.199218-51.199219 51.199218-28.277343 0-51.203124-22.921875-51.203124-51.199218.03125-28.265626 22.9375-51.171876 51.203124-51.199219zm0 0"/><path d="m409.601562 128c14.136719 0 25.597657-11.460938 25.597657-25.601562 0-14.136719-11.460938-25.597657-25.597657-25.597657-14.140624 0-25.601562 11.460938-25.601562 25.597657 0 14.140624 11.460938 25.601562 25.601562 25.601562zm0-34.132812c4.710938 0 8.53125 3.820312 8.53125 8.53125 0 4.714843-3.820312 8.535156-8.53125 8.535156-4.714843 0-8.535156-3.820313-8.535156-8.535156 0-4.710938 3.820313-8.53125 8.535156-8.53125zm0 0"/><path d="m401.433594 290.132812c-3.011719-.28125-5.917969 1.191407-7.464844 3.789063-.316406.476563-32.820312 47.410156-137.96875 47.410156-104.226562 0-137.667969-46.976562-137.96875-47.402343-1.617188-2.515626-4.46875-3.964844-7.457031-3.796876-2.980469.128907-5.679688 1.804688-7.117188 4.421876-1.570312 2.847656-38.039062 70.433593-6.449219 123.867187 10.53125 17.023437 25.90625 30.511719 44.152344 38.742187.300782.179688.617188.335938.945313.46875 28.09375 13.421876 66.058593 20.164063 113.894531 20.234376 47.835938.066406 85.800781-6.675782 113.894531-20.226563.328125-.132813.644531-.289063.945313-.46875 18.25-8.230469 33.625-21.71875 44.160156-38.742187 31.574219-53.433594-4.886719-121.019532-6.457031-123.867188-1.433594-2.617188-4.128907-4.296875-7.109375-4.429688zm-2.671875 23.808594c4.644531 11.167969 8.046875 22.8125 10.148437 34.722656-10.261718 9.046876-21.472656 16.949219-33.445312 23.566407v-41.136719c8.390625-4.8125 16.207031-10.566406 23.296875-17.144531zm-134.226563 44.277344c14.292969-.285156 28.550782-1.578125 42.664063-3.863281v42.027343c-14.082031 2.605469-28.347657 4.097657-42.664063 4.460938zm-17.070312 42.625c-14.316406-.363281-28.582032-1.855469-42.664063-4.460938v-42.027343c14.113281 2.285156 28.371094 3.578125 42.664063 3.863281zm-59.730469-8.226562c-11.675781-3.050782-23.089844-7.03125-34.132813-11.902344v-41.089844c11.019532 4.765625 22.441407 8.542969 34.132813 11.289062zm0 17.535156v44.539062c-11.707031-2.292968-23.144531-5.785156-34.132813-10.421875v-45.082031c11.09375 4.480469 22.503907 8.144531 34.132813 10.964844zm17.066406 3.578125c14.097657 2.441406 28.359375 3.835937 42.664063 4.179687v42.769532c-14.265625-.183594-28.515625-1.195313-42.664063-3.039063zm59.734375 4.179687c14.304688-.34375 28.566406-1.738281 42.664063-4.179687v43.910156c-14.148438 1.84375-28.398438 2.855469-42.664063 3.039063zm59.730469-7.757812c11.628906-2.820313 23.039063-6.484375 34.132813-10.964844v45.082031c-10.988282 4.640625-22.425782 8.132813-34.132813 10.421875zm0-17.535156v-41.667969c11.691406-2.757813 23.113281-6.546875 34.132813-11.324219v41.054688c-11.039063 4.882812-22.453126 8.875-34.132813 11.9375zm-211.011719-78.652344c7.085938 6.574218 14.894532 12.320312 23.28125 17.128906v41.148438c-11.953125-6.605469-23.152344-14.492188-33.402344-23.519532 2.101563-11.917968 5.496094-23.574218 10.121094-34.757812zm-1.519531 95.839844c-7.019531-12.308594-10.605469-26.273438-10.382813-40.441407 10.976563 8.511719 22.761719 15.933594 35.183594 22.152344v43.523437c-10.089844-6.40625-18.574218-15.039062-24.800781-25.234374zm288.574219-.058594c-6.226563 10.234375-14.726563 18.898437-24.84375 25.316406v-43.519531c12.4375-6.230469 24.238281-13.660157 35.226562-22.1875.195313 14.148437-3.386718 28.089843-10.382812 40.390625zm0 0"/></svg>