<svg height="512pt" viewBox="0 0 512.03594 512" width="512pt" xmlns="http://www.w3.org/2000/svg"><path d="m503.484375 290.152344c.085937 20.140625-2.523437 40.199218-7.765625 59.648437v.082031l-132.949219 135.9375c-34.296875 12.011719-70.414062 17.988282-106.75 17.664063-2.902343 0-5.71875 0-8.535156-.171875-33.472656-.464844-66.644531-6.375-98.21875-17.492188l-132.949219-135.9375v-.082031c-5.238281-19.449219-7.851562-39.507812-7.765625-59.648437.800781-55.28125 16.867188-109.265625 46.421875-155.992188v-.082031l88.574219-91.308594h.085937c30.988282-20.339843 66.832032-32.0625 103.851563-33.960937 2.816406-.171875 5.71875-.257813 8.535156-.257813 39.96875.378907 78.984375 12.257813 112.382813 34.21875h.085937l88.574219 91.390625c29.558594 46.726563 45.621094 100.710938 46.421875 155.992188zm0 0" fill="#ac1457"/><path d="m477.882812 290.152344c.089844 20.128906-2.476562 40.1875-7.628906 59.648437v.082031l-130.609375 135.9375c-30.957031 11.105469-63.539062 17.019532-96.425781 17.492188-32.886719-.472656-65.46875-6.386719-96.425781-17.492188l-130.613281-135.9375v-.082031c-5.152344-19.460937-7.714844-39.519531-7.628907-59.648437.753907-55.171875 16.515625-109.097656 45.59375-155.992188v-.082031l87.039063-91.308594h.078125c30.308593-20.292969 65.53125-32.027343 101.957031-33.960937 36.4375 1.925781 71.679688 13.660156 102 33.960937h.074219l87 91.390625c29.078125 46.894532 44.839843 100.820313 45.589843 155.992188zm0 0" fill="#e81e63"/><path d="m153.617188 102.417969-2.472657 1.621093-32.511719 21.675782c-15.105468-42.328125-56.152343-76.203125-82.007812-90.710938.511719-3.414062 1.109375-6.65625 1.707031-9.554687.425781-1.878907.855469-3.671875 1.195313-5.292969.601562-2.589844 2.394531-4.742188 4.832031-5.800781 2.441406-1.0625 5.238281-.902344 7.542969.425781 21.21875 10.367188 44.09375 16.921875 67.582031 19.371094 59.734375 8.53125 34.132813 68.265625 34.132813 68.265625zm0 0" fill="#e81e63"/><path d="m118.632812 125.714844-26.191406 17.476562c-10.441406 6.96875-24.394531 5.359375-32.972656-3.808594-28.578125-30.617187-27.367188-75.875-22.84375-104.378906 25.855469 14.507813 66.902344 48.382813 82.007812 90.710938zm0 0" fill="#fdc008"/><path d="m475.410156 35.003906c-25.855468 14.507813-66.902344 48.382813-82.003906 90.710938l-32.511719-21.675782-2.476562-1.621093s-25.601563-59.734375 34.132812-68.265625c23.488281-2.449219 46.367188-9.003906 67.585938-19.371094 2.300781-1.328125 5.097656-1.488281 7.539062-.425781 2.4375 1.058593 4.230469 3.210937 4.832031 5.800781.34375 1.621094.769532 3.414062 1.195313 5.292969.597656 2.898437 1.195313 6.140625 1.707031 9.554687zm0 0" fill="#e81e63"/><path d="m452.539062 139.367188c-8.085937 8.707031-21.121093 10.65625-31.402343 4.695312-.546875-.21875-1.0625-.507812-1.535157-.855469l-26.195312-17.492187c12.242188-29.746094 32.398438-55.566406 58.28125-74.667969 7.5-5.921875 15.429688-11.285156 23.722656-16.042969 4.523438 28.503906 5.71875 73.730469-22.871094 104.363282zm0 0" fill="#ff9701"/><path d="m426.941406 139.367188c-1.710937 1.820312-3.664062 3.398437-5.804687 4.695312-.546875-.21875-1.0625-.507812-1.535157-.855469l-26.195312-17.492187c12.242188-29.746094 32.398438-55.566406 58.28125-74.667969 2.132812 27.5625-1.109375 62.976563-24.746094 88.320313zm0 0" fill="#fdc008"/><path d="m170.683594 145.085938c-2.816406 0-5.632813.167968-8.363282.425781h-.339843c-43.609375 4.375-76.808594 41.078125-76.808594 84.90625s33.199219 80.53125 76.808594 84.90625h.339843c2.730469.257812 5.546876.425781 8.363282.425781 47.128906 0 85.335937-38.203125 85.335937-85.332031 0-47.128907-38.207031-85.332031-85.335937-85.332031zm0 0" fill="#fff"/><path d="m341.351562 145.085938c-2.816406 0-5.632812.167968-8.363281.425781h-.339843c-43.609376 4.375-76.8125 41.078125-76.8125 84.90625s33.203124 80.53125 76.8125 84.90625h.339843c2.730469.257812 5.546875.425781 8.363281.425781 47.128907 0 85.332032-38.203125 85.332032-85.332031 0-47.128907-38.203125-85.332031-85.332032-85.332031zm0 0" fill="#fff"/><path d="m230.417969 230.417969c0 32.988281-26.742188 59.734375-59.734375 59.734375-32.988282 0-59.730469-26.746094-59.730469-59.734375s26.742187-59.734375 59.730469-59.734375c32.992187 0 59.734375 26.746094 59.734375 59.734375zm0 0" fill="#f47c00"/><path d="m401.085938 230.417969c0 32.988281-26.746094 59.734375-59.734376 59.734375-32.988281 0-59.734374-26.746094-59.734374-59.734375s26.746093-59.734375 59.734374-59.734375c32.988282 0 59.734376 26.746094 59.734376 59.734375zm0 0" fill="#f47c00"/><path d="m204.816406 230.417969c0 18.851562-15.28125 34.132812-34.132812 34.132812-18.851563 0-34.132813-15.28125-34.132813-34.132812 0-18.851563 15.28125-34.132813 34.132813-34.132813 18.851562 0 34.132812 15.28125 34.132812 34.132813zm0 0" fill="#37474f"/><path d="m375.484375 230.417969c0 18.851562-15.28125 34.132812-34.132813 34.132812-18.851562 0-34.132812-15.28125-34.132812-34.132812 0-18.851563 15.28125-34.132813 34.132812-34.132813 18.851563 0 34.132813 15.28125 34.132813 34.132813zm0 0" fill="#37474f"/><path d="m186.386719 461.246094c-23.980469 18.855468-66.988281 46.589844-106.753907 41.640625-20.992187-2.558594-40.957031-14.164063-56.832031-40.875-28.757812-48.296875-7.421875-115.882813 6.570313-151.636719 5.578125-14.257812 18.019531-24.703125 33.027344-27.734375 9.320312-2.011719 19.039062-1.085937 27.816406 2.648437 16.570312 6.90625 27.4375 23.007813 27.648437 40.957032.011719 3.21875-.363281 6.429687-1.109375 9.558594-8.789062 38.570312-16.726562 107.945312 64.339844 110.25 3.613281.019531 6.824219 2.316406 8.011719 5.726562 1.1875 3.414062.097656 7.203125-2.71875 9.464844zm0 0" fill="#fdc008"/><path d="m489.234375 462.011719c-20.222656 34.050781-47.191406 43.605469-74.15625 41.132812-34.472656-3.160156-68.863281-25.773437-89.429687-41.898437-2.816407-2.261719-3.90625-6.050782-2.71875-9.464844 1.191406-3.410156 4.398437-5.707031 8.011718-5.726562 81.066406-2.304688 73.128906-71.679688 64.339844-110.25-.746094-3.128907-1.117188-6.339844-1.109375-9.558594.210937-17.949219 11.082031-34.050782 27.648437-40.957032 3.441407-1.449218 7.054688-2.453124 10.753907-2.988281 21.234375-3.664062 42.128906 8.050781 50.089843 28.074219 13.992188 35.753906 35.328126 103.339844 6.570313 151.636719zm0 0" fill="#ff9701"/><path d="m464.554688 462.011719c-15.425782 27.648437-34.933594 39.082031-55.320313 41.132812-32.308594-3.160156-64.519531-25.773437-83.789063-41.898437-2.695312-2.261719-3.746093-5.929688-2.652343-9.269532 1.089843-3.34375 4.101562-5.6875 7.609375-5.921874 75.949218-2.304688 68.515625-71.679688 60.28125-110.25-.703125-3.136719-1.050782-6.34375-1.042969-9.558594-.066406-17.527344 10.039063-33.507813 25.90625-40.957032 3.207031-1.445312 6.597656-2.449218 10.070313-2.988281 15.167968 2.8125 27.671874 13.519531 32.785156 28.074219 13.109375 35.753906 33.015625 103.339844 6.152344 151.636719zm0 0" fill="#fdc008"/><path d="m153.617188 196.285156c0 9.425782-7.640626 17.066406-17.066407 17.066406s-17.066406-7.640624-17.066406-17.066406c0-9.425781 7.640625-17.066406 17.066406-17.066406s17.066407 7.640625 17.066407 17.066406zm0 0" fill="#fff"/><path d="m324.285156 196.285156c0 9.425782-7.640625 17.066406-17.066406 17.066406s-17.066406-7.640624-17.066406-17.066406c0-9.425781 7.640625-17.066406 17.066406-17.066406s17.066406 7.640625 17.066406 17.066406zm0 0" fill="#fff"/><path d="m512.019531 290.152344c-.816406-54.828125-16.257812-108.445313-44.734375-155.308594 35.464844-50.867188 11.402344-125.269531 10.15625-128.988281-.941406-2.753907-3.21875-4.835938-6.042968-5.53125-2.839844-.683594-5.835938.101562-7.976563 2.089843-.171875.15625-17.015625 15.421876-72.082031 23.289063-8.003906 1.023437-15.761719 3.4375-22.929688 7.144531-33.683594-21.179687-72.605468-32.550781-112.390625-32.8281248-39.792969.2734378-78.71875 11.6406248-112.402343 32.8281248-7.164063-3.707031-14.921876-6.125-22.921876-7.144531-55.066406-7.867187-71.910156-23.125-71.976562-23.183594-2.09375-2.089843-5.117188-2.945312-7.992188-2.265625-2.875.679688-5.195312 2.796875-6.132812 5.601563-1.246094 3.71875-25.300781 78.113281 10.148438 128.988281-28.46875 46.867188-43.90625 100.480469-44.7226568 155.308594-.0546874 20.148437 2.4804688 40.226562 7.5351568 59.730468-12.222657 47.898438-9.636719 87.042969 7.917968 116.515626 11.824219 22.671874 33.140625 38.898437 58.144532 44.253906 5.046874.921875 10.164062 1.378906 15.292968 1.367187 21.367188-.839843 42.242188-6.652343 60.960938-16.984375 34.1875 11.542969 70.066406 17.28125 106.148437 16.984375 36.082031.292969 71.957031-5.453125 106.144531-17 18.71875 10.335938 39.59375 16.15625 60.960938 17 5.128906.007813 10.25-.457031 15.292969-1.382812 25.003906-5.359375 46.320312-21.582031 58.144531-44.253907 17.554688-29.519531 20.140625-68.625 7.921875-116.523437 5.050781-19.5 7.585937-39.566406 7.535156-59.707031zm-494.933593 0c.746093-49.8125 14.332031-98.585938 39.441406-141.613282 4.816406 4.640626 10.101562 8.765626 15.769531 12.316407 4.003906 2.496093 9.277344 1.273437 11.773437-2.730469 2.5-4.007812 1.277344-9.28125-2.730468-11.777344-36.597656-22.835937-40.636719-65.773437-37.800782-97.136718 27.46875 16.890624 48.382813 42.621093 59.304688 72.960937 1.160156 3.492187 4.425781 5.847656 8.109375 5.847656.910156-.003906 1.820313-.152343 2.6875-.4375 4.472656-1.484375 6.894531-6.3125 5.410156-10.785156-13.179687-36.523437-39.078125-67.078125-72.953125-86.058594.582032-3.089843 1.160156-5.972656 1.707032-8.441406 22.105468 10.875 45.964843 17.746094 70.46875 20.300781 11.402343.460938 21.917968 6.285156 28.363281 15.703125 9.175781 16.214844-.585938 40.105469-.851563 40.753907-1.253906 2.8125-.894531 6.082031.9375 8.554687 1.828125 2.472656 4.851563 3.765625 7.90625 3.390625 3.054688-.378906 5.667969-2.375 6.839844-5.21875.554688-1.296875 13.449219-32 .085938-55.792969-1.136719-1.980469-2.433594-3.867187-3.875-5.640625 29.792968-17.621094 63.726562-27.03125 98.339843-27.261718 34.617188.242187 68.554688 9.664062 98.34375 27.304687-1.4375 1.773437-2.734375 3.660156-3.871093 5.640625-13.363282 23.792969-.472657 54.496094.082031 55.792969 1.878906 4.289062 6.867187 6.265625 11.171875 4.425781 4.308594-1.839844 6.328125-6.8125 4.523437-11.132812-.101562-.242188-10.128906-24.382813-.855469-40.773438 6.445313-9.417969 16.960938-15.242188 28.367188-15.703125 24.5-2.566406 48.351562-9.453125 70.449219-20.34375.574219 2.449219 1.160156 5.34375 1.707031 8.433594-33.878906 18.984375-59.78125 49.539062-72.96875 86.066406-1.484375 4.472656.9375 9.300781 5.410156 10.785156.875.289063 1.785156.433594 2.707032.4375 3.675781 0 6.9375-2.355469 8.097656-5.847656 10.933594-30.359375 31.863281-56.097656 59.355468-72.992187 2.859376 31.339843-1.152343 74.238281-37.84375 97.203124-4.007812 2.496094-5.226562 7.769532-2.730468 11.773438 2.496094 4.007812 7.769531 5.230469 11.777344 2.730469 5.667968-3.546875 10.949218-7.671875 15.769531-12.3125 25.101562 43.015625 38.683593 91.777343 39.441406 141.578125-.03125 8.28125-.507813 16.558594-1.433594 24.789062-.941406-2.5625-1.855469-5.121094-2.867187-7.679687-5.25-13.523438-15.796875-24.3125-29.195313-29.867188-12.011719-5.097656-25.449219-5.734375-37.886719-1.792969 16.589844-30.105468 15.382813-66.875-3.148437-95.832031-18.53125-28.953125-51.414063-45.449219-85.699219-42.996093-34.289062 2.457031-64.488281 23.46875-78.703125 54.765624-14.285156-31.199218-44.464843-52.109374-78.695312-54.519531-34.226563-2.414062-67.042969 14.058594-85.558594 42.945313-18.519531 28.890625-19.785156 65.585937-3.300781 95.679687-12.4375-3.941406-25.875-3.304687-37.886719 1.792969-13.394531 5.527344-23.953125 16.285156-29.226563 29.78125-1.015624 2.558594-1.929687 5.121094-2.867187 7.679688-.914063-8.21875-1.382813-16.480469-1.398437-24.746094zm368.828124 34.011718c-26.148437 23.636719-68.394531 42.128907-125.039062 2.917969-2.921875-2.019531-6.792969-2.019531-9.710938 0-56.636718 39.253907-98.894531 20.738281-125.039062-2.917969-.140625-4.164062-.785156-8.296874-1.921875-12.304687 22.875 13.136719 50.230469 16.003906 75.332031 7.902344 25.097656-8.105469 45.613282-26.433594 56.484375-50.464844 10.871094 24.03125 31.382813 42.359375 56.484375 50.464844 25.097656 8.101562 52.457032 5.234375 75.328125-7.902344-1.136719 4.007813-1.78125 8.140625-1.917969 12.304687zm-292.03125-93.746093c0-42.414063 34.386719-76.800781 76.800782-76.800781 42.417968 0 76.800781 34.386718 76.800781 76.800781 0 42.414062-34.382813 76.800781-76.800781 76.800781-42.394532-.046875-76.75-34.40625-76.800782-76.800781zm247.46875 76.800781c-42.414062 0-76.800781-34.386719-76.800781-76.800781 0-42.414063 34.386719-76.800781 76.800781-76.800781 42.414063 0 76.800782 34.386718 76.800782 76.800781-.046875 42.394531-34.40625 76.753906-76.800782 76.800781zm-264.59375 186.625c-20.136718-4.554688-37.21875-17.8125-46.625-36.191406-19.628906-33.101563-17.261718-81.621094 7.148438-144.214844 3.59375-9.195312 10.785156-16.523438 19.910156-20.289062 9.46875-4.042969 20.175782-4.042969 29.644532 0 16.113281 6.546874 25.214843 23.707031 21.597656 40.71875-9.734375 42.582031-6.671875 73.34375 9.386718 94.019531 13.066407 16.878906 34.296876 25.847656 63.378907 26.632812-22.691407 17.765625-66.324219 46.40625-104.441407 39.324219zm179.261719 1.109375c-29.09375.167969-58.070312-3.707031-86.09375-11.511719 8.355469-5.367187 15.75-10.761718 21.75-15.457031 5.675781-4.355469 7.953125-11.835937 5.675781-18.617187-2.253906-6.953126-8.667968-11.710938-15.976562-11.84375-23.457031-.667969-40.308594-7.417969-50.097656-20.054688-11.742188-15.15625-14.183594-39.816406-7.527344-73.140625 27.214844 20.542969 72.996094 38.476563 132.269531.042969 20.089844 14.066406 43.875 21.917968 68.394531 22.582031 23.199219-.324219 45.644532-8.28125 63.871094-22.640625 6.664063 33.332031 4.222656 58.027344-7.519531 73.15625-9.785156 12.636719-26.640625 19.386719-50.097656 20.054688-7.308594.132812-13.722657 4.890624-15.976563 11.84375-2.277344 6.78125.003906 14.261718 5.675782 18.617187 5.972656 4.695313 13.398437 10.089844 21.753906 15.457031-28.03125 7.804688-57.007813 11.679688-86.101563 11.511719zm225.882813-37.300781c-9.40625 18.378906-26.484375 31.636718-46.625 36.191406-38.050782 7.082031-81.75-21.558594-104.105469-39.253906 28.808594-.855469 50.039063-9.789063 63.101563-26.667969 16.019531-20.675781 19.082031-51.4375 9.34375-94.019531-3.613282-17.015625 5.484374-34.171875 21.601562-40.722656 9.46875-4.03125 20.171875-4.03125 29.644531 0 9.128907 3.765624 16.320313 11.097656 19.914063 20.292968 24.390625 62.558594 26.796875 111.078125 7.125 144.179688zm0 0"/><path d="m170.683594 273.085938c23.566406 0 42.667968-19.105469 42.667968-42.667969s-19.101562-42.667969-42.667968-42.667969c-23.5625 0-42.664063 19.105469-42.664063 42.667969.027344 23.550781 19.113281 42.636719 42.664063 42.667969zm0-68.269532c14.140625 0 25.601562 11.464844 25.601562 25.601563s-11.460937 25.601562-25.601562 25.601562c-14.136719 0-25.597656-11.464843-25.597656-25.601562s11.460937-25.601563 25.597656-25.601563zm0 0"/><path d="m341.351562 187.75c-23.5625 0-42.667968 19.105469-42.667968 42.667969s19.105468 42.667969 42.667968 42.667969 42.667969-19.105469 42.667969-42.667969c-.03125-23.550781-19.117187-42.636719-42.667969-42.667969zm0 68.269531c-14.140624 0-25.601562-11.464843-25.601562-25.601562s11.460938-25.601563 25.601562-25.601563c14.136719 0 25.601563 11.464844 25.601563 25.601563s-11.464844 25.601562-25.601563 25.601562zm0 0"/><path d="m256.019531 384.019531c-4.714843 0-8.535156 3.820313-8.535156 8.53125v51.199219c0 4.714844 3.820313 8.535156 8.535156 8.535156 4.710938 0 8.53125-3.820312 8.53125-8.535156v-51.199219c0-4.710937-3.820312-8.53125-8.53125-8.53125zm0 0"/></svg>