<svg height="511pt" viewBox="-8 1 511 511.99887" width="511pt" xmlns="http://www.w3.org/2000/svg"><path d="m133.433594 98.558594c-10.667969-27.902344-29.867188-55.894532-64.171875-55.894532-68.265625 0-76.800781 59.734376-34.132813 68.269532 37.632813 7.507812 35.414063-38.058594 63.742188 21.417968v.085938zm0 0" fill="#00bbd3"/><path d="m461.28125 110.933594c-6.875 1.539062-14.054688 1.035156-20.648438-1.453125-13.058593-4.863281-18.519531-15.019531-29.269531-1.363281-5.53125 7.699218-10.222656 15.964843-13.996093 24.660156l-17.320313-16.980469-17.152344-16.898437c9.386719-24.832032 25.597657-49.917969 53.332031-55.125 3.589844-.769532 7.253907-1.140626 10.921876-1.109376 68.269531 0 76.800781 59.734376 34.132812 68.269532zm0 0" fill="#00828e"/><path d="m440.632812 109.480469c-13.058593-4.863281-18.519531-15.019531-29.269531-1.363281-12.628906-5.890626-17.835937-14.933594-31.316406 7.679687l-17.152344-16.898437c9.386719-24.832032 25.597657-49.917969 53.332031-55.125 51.457032 7.679687 57.683594 54.359374 24.40625 65.707031zm0 0" fill="#00bbd3"/><path d="m478.347656 281.597656c0 122.539063-103.167968 221.867188-230.398437 221.867188-2.902344 0-5.71875-.085938-8.53125-.171875-123.308594-4.265625-221.867188-101.886719-221.867188-221.695313 0-108.371094 180.308594-238.675781 221.867188-267.261718 5.460937-3.839844 8.53125-5.804688 8.53125-5.804688s230.398437 150.527344 230.398437 273.066406zm0 0" fill="#00828e"/><path d="m452.75 281.597656c-1.027344 120.429688-97.214844 218.425782-217.601562 221.695313-120.386719-3.269531-216.574219-101.265625-217.597657-221.695313 0-108.371094 176.84375-238.675781 217.597657-267.261718 40.757812 28.585937 217.601562 158.890624 217.601562 267.261718zm0 0" fill="#00bbd3"/><path d="m171.148438 273.066406c-2.851563-.003906-5.699219.167969-8.53125.511719-38.730469 4.492187-67.949219 37.296875-67.949219 76.289063 0 38.988281 29.21875 71.792968 67.949219 76.285156 2.832031.34375 5.679687.515625 8.53125.511718 42.417968 0 76.800781-34.382812 76.800781-76.796874 0-42.417969-34.382813-76.800782-76.800781-76.800782zm0 0" fill="#fff"/><path d="m324.75 273.066406c-2.851562-.003906-5.703125.167969-8.535156.511719-38.730469 4.492187-67.945313 37.296875-67.945313 76.289063 0 38.988281 29.214844 71.792968 67.945313 76.285156 2.832031.34375 5.683594.515625 8.535156.511718 42.414062 0 76.800781-34.382812 76.800781-76.796874 0-42.417969-34.386719-76.800782-76.800781-76.800782zm0 0" fill="#fff"/><path d="m222.347656 349.867188c0 28.273437-22.921875 51.199218-51.199218 51.199218-28.277344 0-51.199219-22.925781-51.199219-51.199218 0-28.277344 22.921875-51.203126 51.199219-51.203126 28.277343 0 51.199218 22.925782 51.199218 51.203126zm0 0" fill="#2295f2"/><path d="m375.949219 349.867188c0 28.273437-22.921875 51.199218-51.199219 51.199218s-51.199219-22.925781-51.199219-51.199218c0-28.277344 22.921875-51.203126 51.199219-51.203126s51.199219 22.925782 51.199219 51.203126zm0 0" fill="#2295f2"/><path d="m196.75 349.867188c0 14.136718-11.460938 25.597656-25.601562 25.597656-14.136719 0-25.597657-11.460938-25.597657-25.597656 0-14.140626 11.460938-25.601563 25.597657-25.601563 14.140624 0 25.601562 11.460937 25.601562 25.601563zm0 0" fill="#37474f"/><path d="m350.347656 349.867188c0 14.136718-11.460937 25.597656-25.597656 25.597656-14.140625 0-25.601562-11.460938-25.601562-25.597656 0-14.140626 11.460937-25.601563 25.601562-25.601563 14.136719 0 25.597656 11.460937 25.597656 25.601563zm0 0" fill="#37474f"/><path d="m154.082031 324.265625c0 14.136719-11.460937 25.601563-25.597656 25.601563-14.140625 0-25.601563-11.464844-25.601563-25.601563s11.460938-25.601563 25.601563-25.601563c14.136719 0 25.597656 11.464844 25.597656 25.601563zm0 0" fill="#fff"/><path d="m307.683594 324.265625c0 14.136719-11.460938 25.601563-25.601563 25.601563-14.136719 0-25.597656-11.464844-25.597656-25.601563s11.460937-25.601563 25.597656-25.601563c14.140625 0 25.601563 11.464844 25.601563 25.601563zm0 0" fill="#fff"/><path d="m252.820312 56.753906c3.699219-2.757812 4.539063-7.953125 1.894532-11.734375-2.644532-3.777343-7.816406-4.773437-11.671875-2.242187-74.238281 51.941406-199.894531 160.777344-199.894531 238.820312 0 4.714844 3.820312 8.535156 8.535156 8.535156 4.710937 0 8.53125-3.820312 8.53125-8.535156 0-61.832031 99.839844-159.886718 192.605468-224.84375zm0 0"/><path d="m324.75 264.53125c-32.765625.046875-62.613281 18.851562-76.800781 48.386719-17.246094-35.902344-57.03125-55.097657-95.867188-46.253907-38.832031 8.84375-66.386719 43.375-66.386719 83.203126 0 39.828124 27.554688 74.359374 66.386719 83.203124 38.835938 8.84375 78.621094-10.355468 95.867188-46.253906 18.304687 38.027344 61.667969 56.949219 101.996093 44.507813 40.328126-12.445313 65.492188-52.511719 59.1875-94.242188-6.304687-41.730469-42.179687-72.574219-84.382812-72.550781zm-153.601562 153.601562c-37.703126 0-68.265626-30.566406-68.265626-68.265624 0-37.703126 30.5625-68.269532 68.265626-68.269532 37.703124 0 68.269531 30.566406 68.269531 68.269532-.042969 37.683593-30.582031 68.222656-68.269531 68.265624zm153.601562 0c-37.703125 0-68.265625-30.566406-68.265625-68.265624 0-37.703126 30.5625-68.269532 68.265625-68.269532s68.265625 30.566406 68.265625 68.269532c-.042969 37.683593-30.582031 68.222656-68.265625 68.265624zm0 0"/><path d="m290.617188 443.730469c-4.714844 0-8.535157 3.820312-8.535157 8.535156 0 4.710937-3.820312 8.535156-8.53125 8.535156h-51.203125c-4.710937 0-8.53125-3.824219-8.53125-8.535156 0-4.714844-3.820312-8.535156-8.535156-8.535156-4.710938 0-8.53125 3.820312-8.53125 8.535156 0 14.136719 11.460938 25.601563 25.597656 25.601563h51.203125c14.136719 0 25.597657-11.464844 25.597657-25.601563 0-4.714844-3.820313-8.535156-8.53125-8.535156zm0 0"/><path d="m171.148438 315.730469c-18.851563 0-34.132813 15.285156-34.132813 34.136719 0 18.851562 15.28125 34.132812 34.132813 34.132812 18.851562 0 34.132812-15.28125 34.132812-34.132812 0-18.851563-15.28125-34.136719-34.132812-34.136719zm0 51.203125c-9.425782 0-17.066407-7.640625-17.066407-17.066406 0-9.425782 7.640625-17.066407 17.066407-17.066407 9.425781 0 17.066406 7.640625 17.066406 17.066407 0 9.425781-7.640625 17.066406-17.066406 17.066406zm0 0"/><path d="m324.75 315.730469c-18.851562 0-34.132812 15.285156-34.132812 34.136719 0 18.851562 15.28125 34.132812 34.132812 34.132812s34.132812-15.28125 34.132812-34.132812c0-18.851563-15.28125-34.136719-34.132812-34.136719zm0 51.203125c-9.425781 0-17.066406-7.640625-17.066406-17.066406 0-9.425782 7.640625-17.066407 17.066406-17.066407s17.066406 7.640625 17.066406 17.066407c0 9.425781-7.640625 17.066406-17.066406 17.066406zm0 0"/><path d="m421.789062 109.78125c1.992188.652344 3.886719 1.566406 5.632813 2.722656 10.453125 6.945313 23.253906 9.402344 35.535156 6.824219 21.535157-4.265625 34.703125-20.375 32.757813-39.996094-2.152344-21.785156-24.535156-45.199219-68.566406-45.199219-28.78125 0-51.863282 17.339844-67.335938 50.253907-33.804688-30.070313-69.617188-57.800781-107.195312-82.996094-2.835938-1.855469-6.5-1.855469-9.335938 0-37.433594 25.105469-73.121094 52.722656-106.820312 82.660156-15.511719-32.679687-38.554688-49.917969-67.199219-49.917969-44.03125 0-66.421875 23.414063-68.574219 45.167969-1.9375 19.625 11.230469 35.691407 32.769531 39.992188 12.269531 2.613281 25.074219.171875 35.523438-6.773438 1.742187-1.136719 3.621093-2.050781 5.589843-2.722656.714844.1875 4.582032 2.132813 13.992188 20.890625-43.707031 46.914062-79.546875 100.703125-79.546875 150.910156 0 127.046875 107.1875 230.402344 238.933594 230.402344 131.746093 0 238.933593-103.355469 238.933593-230.402344 0-50.074218-35.6875-103.703125-79.199218-150.535156 9.523437-19.097656 13.433594-21.09375 14.105468-21.28125zm-342.117187-16.273438c-6.691406-1.519531-13.710937.011719-19.15625 4.179688-6.882813 4.859375-15.476563 6.628906-23.714844 4.882812-12.859375-2.5625-20.191406-10.847656-19.125-21.589843 1.417969-14.335938 18.167969-29.78125 51.585938-29.78125 23.089843 0 41.148437 15.25 53.863281 44.980469-7.433594 6.925781-14.839844 14.09375-22.121094 21.476562-7.996094-14.976562-14.207031-21.914062-21.332031-24.148438zm168.277344 401.425782c-122.34375 0-221.867188-95.703125-221.867188-213.335938 0-46.480468 35.710938-97.960937 78.773438-143.152344l.101562-.113281c43.695313-44.359375 91.582031-84.386719 142.992188-119.515625 51.378906 35.101563 99.242187 75.097656 142.917969 119.421875.125.152344.261718.289063.398437.4375 42.957031 45.113281 78.550781 96.492188 78.550781 142.921875 0 117.632813-99.523437 213.335938-221.867187 213.335938zm147.285156-376.925782c-7.253906-7.375-14.652344-14.507812-22.066406-21.460937 12.671875-29.988281 30.761719-45.347656 53.980469-45.347656 33.417968 0 50.167968 15.445312 51.585937 29.78125 1.066406 10.742187-6.265625 19.011719-19.117187 21.589843-8.246094 1.726563-16.835938-.042968-23.730469-4.890624-5.433594-4.195313-12.464844-5.730469-19.15625-4.191407-7.160157 2.253907-13.414063 9.292969-21.496094 24.519531zm0 0"/></svg>