<svg height="512pt" viewBox="0 0 512 512.00004" width="512pt" xmlns="http://www.w3.org/2000/svg"><path d="m503.464844 145.066406c0 61.867188-29.351563 139.09375-76.457032 199.59375l-95.402343 80.898438c-23.496094 11.714844-49.351563 17.929687-75.605469 18.175781-2.902344 0-5.71875-.085937-8.535156-.257813-23.324219-1.464843-46.121094-7.558593-67.070313-17.917968l-95.402343-80.898438c-47.105469-60.5-76.457032-137.726562-76.457032-199.59375 0-117.589844 106.152344-135.765625 238.929688-136.449218 2.816406-.082032 5.632812-.082032 8.535156-.082032 136.703125 0 247.464844 16.382813 247.464844 136.53125zm0 0" fill="#d74315"/><path d="m477.867188 145.066406c0 61.867188-28.835938 139.09375-75.09375 199.59375l-93.695313 80.898438c-20.527344 10.347656-42.9375 16.441406-65.878906 17.917968-22.941407-1.476562-45.347657-7.570312-65.875-17.917968l-93.699219-80.898438c-46.257812-60.5-75.089844-137.726562-75.089844-199.59375 0-117.589844 104.257813-135.765625 234.664063-136.449218 130.40625.683593 234.667969 18.859374 234.667969 136.449218zm0 0" fill="#ff5722"/><path d="m119.464844 452.265625s-99.921875-15.359375-110.078125 41.421875c-.363281 2.457031.363281 4.949219 1.988281 6.828125s3.984375 2.957031 6.46875 2.949219h135.234375c9.363281.042968 16.996094-7.496094 17.066406-16.859375.070313-20.863281 2.707031-55.824219 18.230469-73.90625 9.144531-10.574219 8.117188-26.527344-2.304688-35.839844l-40.78125-36.25c-5.710937-5.105469-13.421874-7.367187-20.984374-6.152344-27.179688 4.402344-90.171876 19.761719-90.171876 66.609375-.675781 19.191406 3.929688 38.199219 13.3125 54.953125" fill="#ffdfb1"/><path d="m502.613281 493.652344c.375 2.460937-.347656 4.960937-1.96875 6.847656-1.625 1.886719-3.992187 2.96875-6.480469 2.964844h-135.253906c-9.359375.003906-16.972656-7.535156-17.066406-16.894532-.082031-20.820312-2.644531-55.808593-18.175781-73.898437-9.171875-10.5625-8.144531-26.539063 2.304687-35.839844l40.703125-36.265625c2.742188-2.425781 5.972657-4.230468 9.472657-5.292968 3.714843-1.222657 7.667968-1.515626 11.519531-.851563 27.222656 4.4375 90.199219 19.796875 90.199219 66.644531.675781 19.191406-3.929688 38.199219-13.3125 54.953125 18.515624 5.71875 34.304687 16.8125 38.058593 37.632813zm0 0" fill="#bea784"/><path d="m477.765625 493.652344c.390625 2.40625-.273437 4.867187-1.828125 6.746094-1.554688 1.882812-3.84375 3-6.28125 3.066406h-112.84375c-9.132812-.207032-16.378906-7.761719-16.214844-16.894532-.082031-20.820312-2.507812-55.808593-17.253906-73.898437-8.707031-10.695313-7.757812-26.28125 2.1875-35.839844l38.644531-36.265625c2.570313-2.40625 5.640625-4.210937 8.988281-5.292968 27.628907 5.378906 81.015626 21.503906 81.015626 65.792968.554687 17.800782-3.167969 35.476563-10.855469 51.542969-.398438.882813-.859375 1.742187-1.382813 2.558594-.097656.300781-.234375.585937-.402344.851562 17.554688 5.71875 32.660157 16.8125 36.226563 37.632813zm0 0" fill="#ffdfb1"/><path d="m153.601562 51.199219c-2.855468 0-5.703124.167969-8.535156.511719-38.730468 4.496093-67.945312 37.296874-67.945312 76.289062s29.214844 71.792969 67.945312 76.289062c2.832032.34375 5.679688.511719 8.535156.511719 42.414063 0 76.796876-34.386719 76.796876-76.800781s-34.382813-76.800781-76.796876-76.800781zm0 0" fill="#f4f4f4"/><path d="m358.398438 51.199219c-2.851563 0-5.699219.167969-8.53125.511719-38.730469 4.496093-67.945313 37.296874-67.945313 76.289062s29.214844 71.792969 67.945313 76.289062c2.832031.34375 5.679687.511719 8.53125.511719 42.417968 0 76.800781-34.386719 76.800781-76.800781s-34.382813-76.800781-76.800781-76.800781zm0 0" fill="#f4f4f4"/><path d="m204.800781 128c0 28.277344-22.921875 51.199219-51.199219 51.199219-28.277343 0-51.203124-22.921875-51.203124-51.199219s22.925781-51.199219 51.203124-51.199219c28.277344 0 51.199219 22.921875 51.199219 51.199219zm0 0" fill="#00bbd3"/><path d="m409.601562 128c0 28.277344-22.925781 51.199219-51.203124 51.199219-28.277344 0-51.199219-22.921875-51.199219-51.199219s22.921875-51.199219 51.199219-51.199219c28.277343 0 51.203124 22.921875 51.203124 51.199219zm0 0" fill="#00bbd3"/><path d="m179.199219 128c0 14.136719-11.460938 25.601562-25.597657 25.601562-14.140624 0-25.601562-11.464843-25.601562-25.601562s11.460938-25.601562 25.601562-25.601562c14.136719 0 25.597657 11.464843 25.597657 25.601562zm0 0" fill="#37474f"/><path d="m384 128c0 14.136719-11.460938 25.601562-25.601562 25.601562-14.136719 0-25.597657-11.464843-25.597657-25.601562s11.460938-25.601562 25.597657-25.601562c14.140624 0 25.601562 11.464843 25.601562 25.601562zm0 0" fill="#37474f"/><path d="m358.398438 252.414062c-13.566407 18.179688-65.960938 80.386719-102.398438 80.386719s-88.832031-62.207031-102.398438-80.386719c-2.246093-2.9375-2.28125-7.003906-.085937-9.980468 17.664063-25.679688 45.84375-42.160156 76.882813-44.972656 5.667968-.679688 11.363281-1.050782 17.066406-1.109376 3.074218-.085937 5.890625-.085937 8.535156-.085937s5.460938 0 8.535156.085937c5.703125.058594 11.398438.429688 17.066406 1.109376 31.039063 2.8125 59.21875 19.292968 76.882813 44.972656 2.195313 2.976562 2.160156 7.042968-.085937 9.980468zm0 0" fill="#ff9701"/><path d="m136.535156 102.398438c0 9.425781-7.644531 17.066406-17.070312 17.066406-9.421875 0-17.066406-7.640625-17.066406-17.066406 0-9.425782 7.644531-17.066407 17.066406-17.066407 9.425781 0 17.070312 7.640625 17.070312 17.066407zm0 0" fill="#f4f4f4"/><path d="m341.332031 102.398438c0 9.425781-7.640625 17.066406-17.066406 17.066406s-17.066406-7.640625-17.066406-17.066406c0-9.425782 7.640625-17.066407 17.066406-17.066407s17.066406 7.640625 17.066406 17.066407zm0 0" fill="#f4f4f4"/><path d="m256 0c-123.859375 0-256 11.203125-256 145.066406 0 61.3125 27.308594 135.425782 71.601562 195.933594-24.214843 11.230469-46 29.738281-46 60.066406-.3125 17.242188 3.085938 34.351563 9.964844 50.167969-17.992187 6.535156-31.164062 22.128906-34.601562 40.960937-.8671878 4.867188.476562 9.871094 3.667968 13.652344 3.273438 3.910156 8.113282 6.164063 13.210938 6.152344h135.226562c14.050782 0 25.472657-11.320312 25.601563-25.371094-.203125-16.738281 1.984375-33.421875 6.492187-49.542968 45.050782 20.234374 96.605469 20.234374 141.652344 0 4.507813 16.121093 6.699219 32.804687 6.503906 49.542968.125 14.050782 11.550782 25.371094 25.601563 25.371094h135.234375c5.105469.003906 9.945312-2.265625 13.210938-6.1875 3.191406-3.777344 4.535156-8.78125 3.667968-13.652344-3.441406-18.832031-16.613281-34.421875-34.601562-40.960937 6.875-15.804688 10.273437-32.902344 9.964844-50.132813 0-30.328125-21.785157-48.835937-46-60.066406 44.335937-60.507812 71.601562-134.621094 71.601562-195.933594 0-133.863281-132.136719-145.066406-256-145.066406zm167.96875 334.507812c-15.507812-5.152343-31.535156-8.585937-47.792969-10.242187-2.273437-.234375-4.546875.464844-6.289062 1.941406-1.746094 1.476563-2.8125 3.601563-2.953125 5.882813-.195313 2.265625.519531 4.515625 1.988281 6.25s3.570313 2.8125 5.835937 2.992187c16.789063 1.785157 33.304688 5.566407 49.195313 11.273438.1875.078125.375.152343.570313.214843 22.785156 8.609376 44.808593 23.371094 44.808593 48.246094.355469 15.449219-2.808593 30.78125-9.257812 44.824219-22.660157-4.59375-45.941407-5.289063-68.839844-2.054687-4.507813.855468-7.53125 5.125-6.84375 9.664062s4.84375 7.71875 9.40625 7.199219c22.335937-3.128907 45.054687-2.128907 67.027344 2.941406.808593.386719 1.671875.644531 2.5625.769531 15.273437 5 27.824219 14.183594 30.71875 30.523438h-135.175781c-4.664063.039062-8.476563-3.699219-8.535157-8.363282-.203125-60.636718-18.574219-94.035156-51.726562-94.035156-4.714844 0-8.535157 3.820313-8.535157 8.53125 0 4.714844 3.820313 8.535156 8.535157 8.535156 8.585937.109376 16.503906 4.667969 20.914062 12.039063-40.480469 17.949219-86.664062 17.949219-127.148437 0 4.40625-7.367187 12.316406-11.921875 20.898437-12.039063 4.714844 0 8.535157-3.820312 8.535157-8.535156 0-4.710937-3.820313-8.53125-8.535157-8.53125-33.152343 0-51.523437 33.398438-51.726562 94.035156-.066407 4.65625-3.875 8.390626-8.535157 8.363282l-135.304687.265625c2.96875-16.617188 15.839844-25.867188 31.410156-30.875.394531-.085938.777344-.199219 1.152344-.339844 22.214844-5.324219 45.226563-6.4375 67.851563-3.285156 4.558593.519531 8.714843-2.660157 9.40625-7.199219.6875-4.539062-2.335938-8.808594-6.847657-9.664062-22.894531-3.238282-46.171875-2.542969-68.828125 2.054687-6.449218-14.042969-9.609375-29.375-9.242187-44.824219 0-51.199218 93.636719-59.683594 94.582031-59.734375 2.265625-.179687 4.367188-1.261719 5.832031-2.996093 1.46875-1.738282 2.183594-3.988282 1.984375-6.253907-.144531-2.277343-1.210937-4.402343-2.953125-5.875-1.746093-1.476562-4.015625-2.175781-6.289062-1.941406-16.25 1.636719-32.277344 5.046875-47.785157 10.171875-43.222656-57.546875-70.972656-131.226562-70.972656-189.371094 0-106.589844 91.425782-128 238.933594-128s238.933594 21.410156 238.933594 128c0 58.144532-27.75 131.824219-70.964844 189.441406zm0 0"/><path d="m358.398438 42.667969c-35.769532-.039063-67.757813 22.257812-80.097657 55.832031-12.34375 33.574219-2.414062 71.28125 24.863281 94.421875-15.398437-3.9375-31.277343-5.683594-47.164062-5.1875-15.886719-.496094-31.765625 1.25-47.164062 5.1875 32.859374-28 39.667968-76.113281 15.871093-112.132813-23.796875-36.019531-70.722656-48.628906-109.371093-29.390624-38.644532 19.238281-56.871094 64.28125-42.476563 104.980468 14.394531 40.699219 56.886719 64.269532 99.035156 54.933594-9.675781 7.40625-18.203125 16.203125-25.300781 26.109375-4.363281 6.007813-4.300781 14.15625.152344 20.097656.632812.851563 62.808594 83.8125 109.226562 83.8125 46.421875 0 108.621094-82.984375 109.226563-83.820312 4.449219-5.941407 4.507812-14.085938.148437-20.089844-7.101562-9.90625-15.625-18.703125-25.304687-26.109375 31.953125 7.082031 65.144531-4.734375 85.429687-30.417969 20.289063-25.679687 24.101563-60.703125 9.8125-90.148437-14.289062-29.445313-44.15625-48.121094-76.886718-48.078125zm-273.066407 85.332031c0-37.703125 30.566407-68.265625 68.269531-68.265625 37.699219 0 68.265626 30.5625 68.265626 68.265625s-30.566407 68.265625-68.265626 68.265625c-37.6875-.042969-68.226562-30.582031-68.269531-68.265625zm266.242188 119.332031c-18.664063 25.101563-66.5625 76.933594-95.574219 76.933594s-76.910156-51.832031-95.574219-76.800781c16.09375-23.4375 41.6875-38.609375 69.972657-41.480469v15.882813c0 4.710937 3.820312 8.53125 8.535156 8.53125 4.710937 0 8.53125-3.820313 8.53125-8.53125v-17c3.003906-.066407 5.882812-.066407 8.535156-.066407s5.53125 0 8.535156.066407v17c0 4.710937 3.820313 8.53125 8.53125 8.53125 4.714844 0 8.535156-3.820313 8.535156-8.53125v-15.882813c28.265626 2.835937 53.855469 17.953125 69.972657 41.347656zm6.824219-51.066406c-37.699219 0-68.265626-30.5625-68.265626-68.265625s30.566407-68.265625 68.265626-68.265625c37.703124 0 68.269531 30.5625 68.269531 68.265625-.042969 37.683594-30.582031 68.222656-68.269531 68.265625zm0 0"/><path d="m153.601562 93.867188c-18.851562 0-34.136718 15.28125-34.136718 34.132812s15.285156 34.132812 34.136718 34.132812c18.851563 0 34.132813-15.28125 34.132813-34.132812 0-9.050781-3.597656-17.734375-10-24.136719-6.398437-6.402343-15.082031-9.996093-24.132813-9.996093zm0 51.199218c-9.425781 0-17.066406-7.640625-17.066406-17.066406s7.640625-17.066406 17.066406-17.066406c9.425782 0 17.066407 7.640625 17.066407 17.066406s-7.640625 17.066406-17.066407 17.066406zm0 0"/><path d="m358.398438 93.867188c-18.851563 0-34.132813 15.28125-34.132813 34.132812s15.28125 34.132812 34.132813 34.132812c18.851562 0 34.136718-15.28125 34.136718-34.132812 0-9.050781-3.597656-17.734375-10-24.136719-6.402344-6.402343-15.082031-9.996093-24.136718-9.996093zm0 51.199218c-9.425782 0-17.066407-7.640625-17.066407-17.066406s7.640625-17.066406 17.066407-17.066406c9.425781 0 17.066406 7.640625 17.066406 17.066406s-7.640625 17.066406-17.066406 17.066406zm0 0"/></svg>