<svg height="512pt" viewBox="0 0 512 512.00646" width="512pt" xmlns="http://www.w3.org/2000/svg"><path d="m256.535156 503.472656c-2.558594 0-5.121094 0-7.679687-.171875-1.535157-.082031-3.15625-.082031-4.695313-.253906-131.886718-6.253906-235.601562-115.003906-235.601562-247.039063-.082032-55.519531 11.214844-110.46875 33.191406-161.453124 2.648438-5.972657 5.207031-11.433594 7.679688-16.296876 3.328124-6.484374 6.402343-12.03125 9.046874-16.46875 1.003907-1.714843 3.054688-2.507812 4.953126-1.917968 1.894531.589844 3.128906 2.410156 2.984374 4.390625-.539062 11.277343-.167968 22.578125 1.109376 33.792969.625 5.929687 1.679687 11.800781 3.15625 17.578124.015624.265626.074218.523438.171874.769532.582032 1.804687 2.292969 3.007812 4.191407 2.949218 1.898437-.058593 3.527343-1.367187 4-3.207031 8.890625-39.742187 33.039062-74.402343 67.242187-96.511719v-.085937c2.558594-1.707031 5.203125-3.328125 8.019532-4.949219 3.414062-1.960937 6.914062-3.839844 10.582031-5.632812 1.273437-.597656 2.757812-.539063 3.980469.160156 1.222656.695312 2.027343 1.941406 2.164062 3.339844.898438 14.636718 3.328125 29.136718 7.253906 43.265625 1.023438 3.238281 2.398438 6.355469 4.09375 9.300781.207032.480469.464844.9375.769532 1.363281.855468 1.25 2.308593 1.949219 3.816406 1.84375 1.507812-.105469 2.847656-1 3.523437-2.355469 5.296875-12.703124 11.632813-24.945312 18.941407-36.605468 2.886718-4.441406 6.230468-8.558594 9.984374-12.289063 3.367188-3.394531 7.332032-6.144531 11.691407-8.105469 1.488281-.628906 3.199219-.363281 4.429687.683594 1.226563 1.046875 1.757813 2.695313 1.375 4.265625-2.816406 12.457031-5.890625 38.226563 10.75 44.457031 1.246094.480469 2.53125.851563 3.839844 1.109376h.085938c1.464843.25 2.949218.363281 4.4375.339843 18.433593 0 21.929687-16.125 21.246093-30.460937-.179687-4.128906-.664062-8.234375-1.449219-12.289063-.253906-1.109375-.425781-2.21875-.683593-3.15625-.382813-1.570312.148437-3.21875 1.375-4.265625 1.230469-1.046875 2.941406-1.3125 4.429687-.683594 16.980469 7.335938 29.011719 31.316407 36.011719 46.761719 1.703125 3.753907 3.070313 6.996094 4.179687 9.386719.171876.253906.257813.597656.425782.851562.675781 1.355469 2.015625 2.25 3.523437 2.355469 1.507813.105469 2.960938-.59375 3.816407-1.84375 7.167968-10.75 10.238281-33.789062 11.519531-46.847656.171875-1.960937.339843-3.582031.425781-5.035156.085938-.765625.085938-1.449219.171875-2.046875.136719-1.398438.941406-2.644532 2.164063-3.339844 1.222656-.699219 2.707031-.757812 3.980468-.160156 43.390625 20.511718 74.972656 59.796875 85.675782 106.582031.082031.191406.140624.390625.167968.597656.472656 1.839844 2.101563 3.148438 4 3.207031 1.898438.058594 3.609375-1.144531 4.191406-2.949218 1.824219-7.113282 3.050782-14.363282 3.671876-21.675782.597656-5.71875.851562-11.265624.9375-16.382812.171874-5.460938.085937-10.328125-.171876-14.082031-.144531-1.980469 1.089844-3.800781 2.984376-4.390625 1.898437-.589844 3.949218.203125 4.953124 1.917968 29.542969 52.625 46.425782 111.40625 49.324219 171.6875 7.933594 143.875-102.230469 269.65625-246.359375 269.996094zm0 0" fill="#d74315"/><path d="m244.160156 503.046875c-131.886718-6.253906-235.601562-115.003906-235.601562-247.039063-.082032-55.519531 11.214844-110.46875 33.191406-161.453124.621094 7.371093 1.847656 14.679687 3.671875 21.847656.53125 1.886718 2.277344 3.167968 4.238281 3.105468 1.957032-.058593 3.625-1.445312 4.039063-3.363281 1.351562-6.140625 3.121093-12.1875 5.289062-18.089843.636719 6.191406 1.746094 12.324218 3.328125 18.347656.585938 1.804687 2.292969 3.007812 4.191406 2.949218 1.898438-.058593 3.53125-1.367187 4-3.207031.019532-.179687.078126-.355469.171876-.511719.015624.265626.074218.523438.171874.769532.582032 1.804687 2.292969 3.007812 4.191407 2.949218 1.898437-.058593 3.527343-1.367187 4-3.207031 8.890625-39.742187 33.039062-74.402343 67.242187-96.511719 1.28125 13.054688 4.351563 36.011719 11.433594 46.761719.867188 1.257813 2.335938 1.964844 3.859375 1.859375 1.523437-.105468 2.878906-1.007812 3.566406-2.371094 1.195313-2.386718 2.644531-5.972656 4.605469-10.152343 1.160156 3.746093 2.796875 7.332031 4.867188 10.664062.855468 1.25 2.304687 1.949219 3.8125 1.84375 1.511718-.105469 2.851562-1 3.523437-2.355469.125-.292968.269531-.578124.425781-.851562.207032.480469.464844.9375.769532 1.363281.855468 1.25 2.308593 1.949219 3.816406 1.84375 1.507812-.105469 2.847656-1 3.523437-2.355469 5.296875-12.703124 11.632813-24.945312 18.941407-36.605468-.679688 14.335937 2.816406 30.460937 21.25 30.460937 2.882812.050781 5.746093-.441406 8.449218-1.449219 2.667969 1.015626 5.507813 1.507813 8.359375 1.449219 1.347657.027344 2.691407-.089843 4.011719-.339843h.085938c1.464843.25 2.949218.363281 4.4375.339843 18.433593 0 21.929687-16.125 21.246093-30.460937 7.289063 11.65625 13.597657 23.902344 18.859375 36.605468.6875 1.363282 2.042969 2.265626 3.566406 2.371094 1.523438.105469 2.992188-.601562 3.859376-1.859375 2.085937-3.355469 3.71875-6.96875 4.863281-10.75 1.878906 4.179688 3.414062 7.765625 4.609375 10.238281.671875 1.355469 2.011718 2.25 3.523437 2.355469 1.507813.105469 2.957031-.59375 3.8125-1.84375.308594-.425781.566407-.882812.769531-1.363281.171876.253906.257813.597656.425782.851562.675781 1.355469 2.015625 2.25 3.523437 2.355469 1.507813.105469 2.960938-.59375 3.816407-1.84375 7.167968-10.75 10.238281-33.789062 11.519531-46.847656 34.132812 22.203125 58.234375 56.867187 67.15625 96.597656.414062 1.917969 2.082031 3.304688 4.039062 3.363281 1.960938.0625 3.707031-1.21875 4.238281-3.105468 1.539063-6.058594 2.652344-12.21875 3.328126-18.433594 2.121093 5.949219 3.886718 12.019531 5.292968 18.175781.46875 1.839844 2.101563 3.148438 4 3.207031 1.898438.058594 3.605469-1.144531 4.191406-2.949218.105469-.273438.164063-.5625.171876-.855469.082031.191406.140624.390625.167968.597656.472656 1.839844 2.101563 3.148438 4 3.207031 1.898438.058594 3.609375-1.144531 4.191406-2.949218 1.824219-7.113282 3.050782-14.363282 3.671876-21.675782 18.96875 43.964844 30.003906 90.941407 32.597656 138.75 7.679687 139.523438-95.660156 261.976563-233.304688 269.570313zm0 0" fill="#ff5722"/><path d="m153.625 136.539062c-2.855469 0-5.703125.167969-8.535156.511719-38.730469 4.496094-67.945313 37.296875-67.945313 76.289063 0 38.992187 29.214844 71.792968 67.945313 76.289062 2.832031.34375 5.679687.511719 8.535156.511719 12.59375.035156 25.003906-3.074219 36.09375-9.046875l21.078125-16.554688c20.238281-22.546874 25.316406-54.890624 12.957031-82.554687-12.355468-27.664063-39.832031-45.46875-70.128906-45.445313zm0 0" fill="#f3f3f3"/><path d="m358.421875 136.539062c-2.851563 0-5.699219.167969-8.53125.511719-28.574219 3.164063-52.984375 22.039063-63.234375 48.898438-10.246094 26.863281-4.613281 57.199219 14.59375 78.589843l21.078125 16.554688c8.535156 4.632812 17.902344 7.53125 27.5625 8.535156 2.832031.34375 5.679687.511719 8.53125.511719 42.417969 0 76.800781-34.386719 76.800781-76.800781 0-42.414063-34.382812-76.800782-76.800781-76.800782zm0 0" fill="#f3f3f3"/><path d="m204.824219 213.339844c0 28.277344-22.921875 51.199218-51.199219 51.199218s-51.203125-22.921874-51.203125-51.199218 22.925781-51.199219 51.203125-51.199219 51.199219 22.921875 51.199219 51.199219zm0 0" fill="#8ac24a"/><path d="m409.625 213.339844c0 28.277344-22.925781 51.199218-51.203125 51.199218s-51.199219-22.921874-51.199219-51.199218 22.921875-51.199219 51.199219-51.199219 51.203125 22.921875 51.203125 51.199219zm0 0" fill="#8ac24a"/><path d="m179.222656 213.339844c0 14.136718-11.460937 25.601562-25.597656 25.601562-14.140625 0-25.601562-11.464844-25.601562-25.601562 0-14.136719 11.460937-25.601563 25.601562-25.601563 14.136719 0 25.597656 11.464844 25.597656 25.601563zm0 0" fill="#37474f"/><path d="m384.023438 213.339844c0 14.136718-11.460938 25.601562-25.601563 25.601562-14.136719 0-25.597656-11.464844-25.597656-25.601562 0-14.136719 11.460937-25.601563 25.597656-25.601563 14.140625 0 25.601563 11.464844 25.601563 25.601563zm0 0" fill="#37474f"/><path d="m371.480469 429.746094c-22.785157 22.613281-58.710938 39.59375-115.457031 39.59375-56.746094 0-92.671876-16.980469-115.457032-39.59375 37.910156-8.304688 76.652344-12.199219 115.457032-11.605469 38.804687-.59375 77.546874 3.300781 115.457031 11.605469zm0 0" fill="#f34335"/><path d="m371.480469 429.746094c-37.910157-8.304688-76.652344-12.199219-115.457031-11.605469-38.804688-.59375-77.546876 3.300781-115.457032 11.605469-45.738281-45.484375-38.144531-114.007813-38.144531-114.007813 16.386719 16.386719 52.3125 24.917969 85.335937 29.269531 19.710938 2.730469 38.398438 3.925782 51.199219 4.4375 10.496094.429688 17.066407.429688 17.066407.429688s6.570312 0 17.066406-.429688c12.800781-.511718 31.488281-1.707031 51.199218-4.4375 33.023438-4.351562 68.949219-12.882812 85.335938-29.269531 0 0 7.59375 68.523438-38.144531 114.007813zm0 0" fill="#ac1457"/><path d="m324.289062 345.007812v21.933594c-.027343 9.414063-7.652343 17.035156-17.066406 17.066406h-17.066406c-9.414062-.03125-17.039062-7.652343-17.066406-17.066406v-17.496094c2.644531-.085937 5.460937-.253906 8.535156-.425781 9.726562-.511719 21.585938-1.449219 34.132812-2.902343 2.816407-.339844 5.632813-.679688 8.53125-1.109376zm0 0" fill="#f9eab0"/><path d="m238.957031 349.445312v17.496094c-.027343 9.414063-7.652343 17.035156-17.066406 17.066406h-17.066406c-9.414063-.03125-17.039063-7.652343-17.066407-17.066406v-21.933594c2.898438.429688 5.714844.769532 8.53125 1.109376 12.546876 1.453124 24.40625 2.390624 34.132813 2.902343 3.074219.171875 5.890625.339844 8.535156.425781zm0 0" fill="#f9eab0"/><path d="m230.421875 349.019531v17.921875c0 9.386719-5.117187 17.066406-11.347656 17.066406h-11.433594c-6.230469 0-11.351563-7.679687-11.351563-17.066406v-20.824218c12.546876 1.453124 24.40625 2.390624 34.132813 2.902343zm0 0" fill="#ffebb2"/><path d="m315.757812 346.117188v20.824218c0 9.386719-5.121093 17.066406-11.351562 17.066406h-11.433594c-6.230468 0-11.347656-7.679687-11.347656-17.066406v-17.921875c9.726562-.511719 21.585938-1.449219 34.132812-2.902343zm0 0" fill="#ffebb2"/><path d="m324.289062 273.925781c-.109374 2.507813-.78125 4.957031-1.960937 7.167969-7.667969 12.105469-18.910156 21.53125-32.171875 26.964844-5.351562 2.488281-10.960938 4.375-16.726562 5.632812-11.441407 2.730469-23.371094 2.730469-34.8125 0-5.765626-1.257812-11.375-3.144531-16.726563-5.632812-20.394531-9.214844-34.132813-24.832032-34.132813-34.132813 0-13.824219 30.546876-8.277343 68.265626-8.277343 17.324218 0 33.195312-1.195313 45.226562-1.109376 14.164062.085938 23.039062 1.878907 23.039062 9.386719zm0 0" fill="#e81e63"/><path d="m145.089844 187.738281c0 9.425781-7.640625 17.066407-17.066406 17.066407-9.425782 0-17.066407-7.640626-17.066407-17.066407s7.640625-17.066406 17.066407-17.066406c9.425781 0 17.066406 7.640625 17.066406 17.066406zm0 0" fill="#f3f3f3"/><path d="m349.890625 187.738281c0 9.425781-7.640625 17.066407-17.066406 17.066407s-17.066407-7.640626-17.066407-17.066407 7.640626-17.066406 17.066407-17.066406 17.066406 7.640625 17.066406 17.066406zm0 0" fill="#f3f3f3"/><path d="m256.023438 512.007812h.5625c69.152343-.078124 135.167968-28.84375 182.308593-79.4375 50.414063-53.816406 76.621094-125.914062 72.53125-199.542968-2.800781-61.714844-20.125-121.894532-50.558593-175.652344-2.988282-5.0625-9.078126-7.382812-14.679688-5.597656-5.613281 1.714844-9.34375 7.03125-9.042969 12.894531.449219 10.511719.121094 21.042969-.984375 31.503906-14.496094-41.78125-45.207031-75.96875-85.203125-94.847656-3.832031-1.886719-8.351562-1.742187-12.054687.390625-3.699219 2.132812-6.09375 5.972656-6.378906 10.234375-.734376 14.164063-3.101563 28.195313-7.054688 41.8125-7.484375-16.714844-20.558594-43.859375-41.125-52.710937-4.402344-1.90625-9.507812-1.164063-13.191406 1.914062-3.738282 3.085938-5.417969 8.019531-4.34375 12.746094 3.199218 14.117187 2.5625 26.660156-1.707032 31.941406-5.140624 4.734375-13.050781 4.734375-18.191406 0-4.265625-5.28125-4.890625-17.824219-1.707031-31.949219 1.089844-4.71875-.578125-9.648437-4.308594-12.738281-3.679687-3.085938-8.78125-3.824219-13.183593-1.914062-20.574219 8.851562-33.648438 35.996093-41.132813 52.710937-3.964844-13.667969-6.335937-27.75-7.066406-41.964844-.332031-4.238281-2.742188-8.035156-6.4375-10.132812-3.695313-2.097657-8.191407-2.222657-12-.339844-39.992188 18.878906-70.699219 53.066406-85.191407 94.847656-1.101562-10.460937-1.429687-20.992187-.980468-31.503906.375-5.867187-3.363282-11.210937-9-12.875-5.625-1.722656-11.699219.59375-14.746094 5.621094-34.199219 60.554687-51.835938 129.050781-51.1328125 198.589843 0 141.382813 114.6132815 256 256.0000005 256zm-198.273438-431.15625c.226562 12.726563 1.84375 25.390626 4.824219 37.769532 1.5 5.554687 6.550781 9.402344 12.304687 9.386718h.289063c5.882812-.125 10.921875-4.238281 12.21875-9.976562 9.433593-42.410156 37.140625-78.476562 75.683593-98.527344 2.5 25.429688 6.75 42.359375 12.960938 51.671875 2.542969 3.824219 6.957031 5.980469 11.539062 5.628907 4.59375-.324219 8.65625-3.09375 10.640626-7.25.722656-1.519532 1.578124-3.414063 2.558593-5.683594 4.839844-10.890625 14.019531-31.574219 26.070313-42.140625-2.589844 12.617187-.175782 25.746093 6.730468 36.617187 5.5 6.667969 13.820313 10.347656 22.453126 9.925782 8.632812.410156 16.953124-3.28125 22.441406-9.957032 6.910156-10.871094 9.324218-24 6.734375-36.617187 12.046875 10.539062 21.230469 31.214843 26.070312 42.136719.988281 2.234374 1.84375 4.164062 2.558594 5.675781 1.984375 4.164062 6.046875 6.949219 10.648437 7.292969 4.582032.363281 9.003907-1.785157 11.546876-5.613282 6.1875-9.308594 10.453124-26.207031 12.953124-51.6875 38.546876 20.054688 66.253907 56.125 75.691407 98.535156 1.28125 5.746094 6.328125 9.863282 12.210937 9.96875h.289063c5.753906.015626 10.804687-3.832031 12.304687-9.386718 2.980469-12.367188 4.597656-25.019532 4.824219-37.734375 23.605469 47.78125 37.25 99.867187 40.105469 153.085937 3.84375 68.949219-20.679688 136.46875-67.875 186.878906-43.941406 47.183594-105.496094 74.015626-169.976563 74.089844-63.457031.140625-124.367187-24.972656-169.292969-69.796875-44.921874-44.824219-70.167968-105.675781-70.167968-169.136719-.128906-60.738281 13.789062-120.6875 40.660156-175.15625zm0 0"/><path d="m153.625 298.671875c11.394531-.027344 22.667969-2.351563 33.152344-6.824219 17.121094 20.558594 42.492187 32.445313 69.246094 32.445313 26.753906 0 52.125-11.886719 69.246093-32.445313 38.578125 16.269532 83.261719 2.148438 105.484375-33.335937s15.417969-81.851563-16.0625-109.453125c-31.480468-27.605469-78.339844-28.289063-110.613281-1.621094-32.277344 26.667969-40.4375 72.816406-19.261719 108.9375l-3.527344.125c-15.597656.574219-34.933593.574219-50.53125 0l-3.527343-.125c19.472656-33.371094 14.074219-75.664062-13.15625-103.074219-27.230469-27.410156-69.484375-33.085937-102.984375-13.835937-33.496094 19.25-49.867188 58.617187-39.894532 95.945312 9.96875 37.324219 43.792969 63.285156 82.429688 63.261719zm164.246094-24.746094h-2.113282 2.15625zm40.550781-128.851562c37.703125 0 68.269531 30.5625 68.269531 68.265625s-30.566406 68.265625-68.269531 68.265625c-8.875.023437-17.664063-1.714844-25.863281-5.117188.144531-.847656.234375-1.703125.265625-2.5625.070312-4.230469-1.625-8.304687-4.6875-11.230469-6.535157-4.894531-14.628907-7.25-22.773438-6.621093-16.53125-20.425781-19.839843-48.539063-8.507812-72.25 11.332031-23.707031 35.289062-38.785157 61.566406-38.75zm-76.507813 128.460937c11.261719-1.117187 22.621094-.734375 33.78125 1.132813-.15625.785156-.421874 1.542969-.785156 2.253906 0 .050781-.066406.078125-.09375.121094-.023437.039062 0 .125-.058594.1875-6.035156 9.292969-14.558593 16.710937-24.601562 21.398437-.011719-4.710937-3.839844-8.523437-8.554688-8.511718-4.710937.011718-8.523437 3.84375-8.511718 8.554687v6.410156c-11.203125 2.832031-22.933594 2.832031-34.132813 0v-6.410156c.007813-3.046875-1.613281-5.867187-4.25-7.398437s-5.886719-1.539063-8.53125-.023438c-2.644531 1.519531-4.277343 4.332031-4.285156 7.378906-10.066406-4.691406-18.601563-12.132812-24.628906-21.460937v-.125l-.066407-.078125c-.363281-.726563-.632812-1.5-.804687-2.296875 11.160156-1.871094 22.519531-2.253907 33.777344-1.132813 15.964843.597656 35.746093.597656 51.746093 0zm-128.289062-128.460937c26.292969-.050781 50.269531 15.035156 61.605469 38.761719 11.335937 23.722656 8.011719 51.855468-8.546875 72.28125-8.144532-.625-16.234375 1.730468-22.773438 6.621093-3.050781 2.917969-4.746094 6.96875-4.6875 11.1875.035156.832031.125 1.65625.265625 2.476563-8.191406 3.429687-16.984375 5.199218-25.863281 5.203125-37.703125 0-68.269531-30.5625-68.269531-68.265625s30.566406-68.265625 68.269531-68.265625zm0 0"/><path d="m153.625 247.472656c18.851562 0 34.132812-15.28125 34.132812-34.132812 0-18.851563-15.28125-34.132813-34.132812-34.132813s-34.136719 15.28125-34.136719 34.132813c0 18.851562 15.285157 34.132812 34.136719 34.132812zm0-51.199218c9.425781 0 17.066406 7.640624 17.066406 17.066406 0 9.425781-7.640625 17.066406-17.066406 17.066406s-17.066406-7.640625-17.066406-17.066406c0-9.425782 7.640625-17.066406 17.066406-17.066406zm0 0"/><path d="m358.421875 247.472656c18.851563 0 34.136719-15.28125 34.136719-34.132812 0-18.851563-15.285156-34.132813-34.136719-34.132813s-34.132813 15.28125-34.132813 34.132813c0 18.851562 15.28125 34.132812 34.132813 34.132812zm0-51.199218c9.425781 0 17.066406 7.640624 17.066406 17.066406 0 9.425781-7.640625 17.066406-17.066406 17.066406s-17.066406-7.640625-17.066406-17.066406c0-9.425782 7.640625-17.066406 17.066406-17.066406zm0 0"/><path d="m412.449219 307.683594c-3.097657-1.082032-6.539063-.296875-8.859375 2.023437-12.246094 12.238281-40.046875 21.519531-80.46875 26.84375-19.703125 2.734375-38.273438 3.882813-50.347656 4.371094-10.238282.417969-16.65625.417969-16.75.417969s-6.511719 0-16.726563-.417969c-1.507813-.058594-3.121094-.128906-4.828125-.214844-1.972656-.09375-4.097656-.210937-6.296875-.347656-3.5-.207031-7.238281-.464844-11.214844-.777344-1.398437-.109375-2.859375-.246093-4.265625-.375l-2.3125-.195312c-6.828125-.632813-14.019531-1.433594-21.410156-2.460938h-.050781c-40.371094-5.324219-68.171875-14.605469-80.417969-26.84375-2.324219-2.316406-5.769531-3.09375-8.863281-2.003906-3.09375 1.09375-5.289063 3.863281-5.644531 7.125-.308594 2.753906-7.015626 68.09375 35.644531 115.746094 1.238281 1.390625 2.660156 2.558593 3.957031 3.90625.6875 1.0625 1.601562 1.960937 2.671875 2.628906 27.949219 26.929687 68.089844 40.765625 119.757813 40.765625 51.832031 0 92.066406-13.917969 120.074218-41.054688 1.027344-.65625 1.902344-1.53125 2.558594-2.5625 1.238281-1.269531 2.558594-2.40625 3.789062-3.734374 42.667969-47.652344 35.949219-112.992188 35.644532-115.746094-.367188-3.25-2.558594-6.003906-5.640625-7.09375zm-96.691407 47.019531v12.238281c0 4.710938-3.820312 8.53125-8.535156 8.53125h-17.066406c-4.710938 0-8.53125-3.820312-8.53125-8.53125v-9.386718l.851562-.054688c1.660157-.09375 3.386719-.199219 5.171876-.3125l1.960937-.128906c2.347656-.152344 4.789063-.332032 7.304687-.539063l2.441407-.210937c1.835937-.15625 3.695312-.324219 5.597656-.503906l3.113281-.308594c1.820313-.1875 3.664063-.386719 5.523438-.597656zm-85.335937 2.851563v9.386718c0 4.710938-3.820313 8.53125-8.53125 8.53125h-17.066406c-4.714844 0-8.535157-3.820312-8.535157-8.53125v-12.238281c.699219.085937 1.367188.144531 2.066407.222656 1.898437.210938 3.78125.410157 5.640625.605469 1.039062.101562 2.066406.210938 3.097656.308594 1.910156.175781 3.769531.347656 5.613281.5l2.433594.214844c2.507813.195312 4.933594.382812 7.269531.539062l2.066406.136719 5.117188.304687zm-70.824219 76.859374c31.851563-5.394531 64.117188-7.984374 96.425782-7.742187 32.320312-.234375 64.601562 2.367187 96.46875 7.773437-24.019532 17.410157-56.257813 26.359376-96.46875 26.359376-40.210938 0-72.449219-8.949219-96.425782-26.359376zm210.089844-15.171874c-.332031.375-.734375.691406-1.082031 1.066406-37.039063-7.566406-74.78125-11.152344-112.582031-10.703125-37.789063-.4375-75.515626 3.164062-112.539063 10.734375-.347656-.375-.75-.691406-1.082031-1.066406-20.242188-24.496094-31.464844-55.199219-31.785156-86.980469 21.507812 10.691406 44.730468 17.507812 68.605468 20.140625v14.507812c0 14.136719 11.460938 25.597656 25.601563 25.597656h17.066406c14.136719 0 25.597656-11.460937 25.597656-25.597656v-8.671875c5.371094.136719 8.535157.136719 8.535157.136719s3.226562 0 8.535156-.136719v8.671875c0 14.136719 11.460937 25.597656 25.597656 25.597656h17.066406c14.140625 0 25.601563-11.460937 25.601563-25.597656v-14.558594c23.871093-2.617187 47.09375-9.417968 68.605469-20.089843-.320313 31.78125-11.542969 62.484375-31.785157 86.980469zm0 0"/></svg>