<svg height="504pt" viewBox="0 0 504.30171 504" width="504pt" xmlns="http://www.w3.org/2000/svg"><path d="m137.835938 163.667969 18.464843 45.492187-30.972656 12.757813-18.714844-46.078125zm0 0" fill="#ff9701"/><path d="m365.800781 163.667969-18.464843 45.492187 30.972656 12.757813 18.714844-46.078125zm0 0" fill="#ff9701"/><path d="m470.046875 344.964844c0 83.433594-97.699219 151.082031-218.230469 151.082031-2.769531 0-5.621094 0-8.390625-.082031-116.671875-3.105469-209.835937-69.5-209.835937-151s93.164062-147.890625 209.835937-150.996094c2.769531-.085938 5.621094-.085938 8.390625-.085938 120.53125 0 218.230469 67.652344 218.230469 151.082032zm0 0" fill="#f47c00"/><path d="m444.867188 344.964844c0-83.394532-92.066407-150.996094-205.640626-150.996094-113.570312 0-205.636718 67.601562-205.636718 150.996094 0 83.394531 92.066406 151 205.636718 151 113.574219 0 205.640626-67.605469 205.640626-151zm0 0" fill="#ff9701"/><path d="m251.816406 454.082031c91.371094 0 191.042969-50.664062 174.433594-118.222656-1.320312-5.601563-3.085938-11.089844-5.277344-16.410156-10.796875-25.449219-30.597656-28.796875-53.988281-18.347657-36.117187 16.164063-76.195313 18.097657-115.167969 18.683594-38.96875-.585937-79.046875-2.519531-115.164062-18.683594-23.394532-10.449218-43.195313-7.101562-53.988282 18.347657-2.191406 5.320312-3.957031 10.808593-5.277343 16.410156-16.613281 67.558594 83.058593 118.222656 174.429687 118.222656zm0 0" fill="#ac1457"/><path d="m327.359375 391.128906v51.871094c-49.277344 14.773438-101.804687 14.773438-151.082031 0v-51.871094c-.003906-1.402344.082031-2.804687.25-4.195312 2.210937-19.046875 18.34375-33.417969 37.519531-33.417969s35.308594 14.371094 37.519531 33.417969c.167969 1.089844.25-.421875.25-.421875s.085938 1.511719.253906.421875c2.210938-19.046875 18.34375-33.417969 37.519532-33.417969 19.175781 0 35.308594 14.371094 37.515625 33.417969.171875 1.390625.253906 2.792968.253906 4.195312zm0 0" fill="#f34335"/><path d="m176.277344 93.164062c-.066406 46.328126-37.605469 83.867188-83.933594 83.933594-3.507812 0-7.011719-.207031-10.492188-.628906-42.070312-5.183594-73.675781-40.917969-73.675781-83.304688 0-42.390624 31.605469-78.125 73.675781-83.304687 3.480469-.421875 6.984376-.632813 10.492188-.632813 46.328125.0625 83.875 37.605469 83.933594 83.9375zm0 0" fill="#f3f3f3"/><path d="m495.226562 93.164062c0 46.355469-37.578124 83.933594-83.933593 83.933594s-83.933594-37.578125-83.933594-83.933594c0-46.355468 37.578125-83.9375 83.933594-83.9375s83.933593 37.582032 83.933593 83.9375zm0 0" fill="#e57e25"/><path d="m495.226562 93.164062c-.0625 46.328126-37.605468 83.867188-83.933593 83.933594-3.507813 0-7.011719-.207031-10.492188-.628906-42.070312-5.183594-73.671875-40.917969-73.671875-83.304688 0-42.390624 31.601563-78.125 73.671875-83.304687 3.480469-.421875 6.984375-.632813 10.492188-.632813 46.332031.0625 83.875 37.605469 83.933593 83.9375zm0 0" fill="#f3f3f3"/><path d="m142.703125 93.164062c0 27.8125-22.546875 50.359376-50.359375 50.359376-27.816406 0-50.363281-22.546876-50.363281-50.359376 0-27.816406 22.546875-50.363281 50.363281-50.363281 27.8125 0 50.359375 22.546875 50.359375 50.363281zm0 0" fill="#f34335"/><path d="m109.128906 93.164062c0 9.269532-7.515625 16.785157-16.785156 16.785157-9.273438 0-16.789062-7.515625-16.789062-16.785157 0-9.273437 7.515624-16.789062 16.789062-16.789062 9.269531 0 16.785156 7.515625 16.785156 16.789062zm0 0" fill="#37474f"/><path d="m461.652344 93.164062c0 27.8125-22.546875 50.359376-50.359375 50.359376s-50.359375-22.546876-50.359375-50.359376c0-27.816406 22.546875-50.363281 50.359375-50.363281s50.359375 22.546875 50.359375 50.363281zm0 0" fill="#f34335"/><path d="m83.949219 67.980469c0 9.273437-7.515625 16.789062-16.785157 16.789062-9.273437 0-16.789062-7.515625-16.789062-16.789062 0-9.269531 7.515625-16.785157 16.789062-16.785157 9.269532 0 16.785157 7.515626 16.785157 16.785157zm0 0" fill="#f3f3f3"/><path d="m402.898438 67.980469c0 9.273437-7.515626 16.789062-16.785157 16.789062s-16.789062-7.515625-16.789062-16.789062c0-9.269531 7.519531-16.785157 16.789062-16.785157s16.785157 7.515626 16.785157 16.785157zm0 0" fill="#f3f3f3"/><path d="m428.082031 93.164062c0 9.269532-7.515625 16.785157-16.789062 16.785157-9.269531 0-16.785157-7.515625-16.785157-16.785157 0-9.273437 7.515626-16.789062 16.785157-16.789062 9.273437 0 16.789062 7.515625 16.789062 16.789062zm0 0" fill="#37474f"/><path d="m92.34375 185.492188c3.019531 0 6-.167969 8.945312-.453126l13.429688 33.058594c-54.355469 29.160156-89.523438 75.164063-89.523438 126.867188 0 87.9375 101.660157 159.476562 226.621094 159.476562 124.964844 0 226.625-71.539062 226.625-159.476562 0-51.703125-35.167968-97.707032-89.523437-126.867188l13.429687-33.058594c2.945313.285157 5.925782.453126 8.945313.453126 45.421875.164062 84.269531-32.621094 91.738281-77.425782 7.46875-44.804687-18.636719-88.417968-61.65625-103-43.015625-14.578125-90.261719 4.171875-111.574219 44.28125-21.3125 40.113282-10.410156 89.761719 25.75 117.25l-13.082031 32.246094c-59.121094-17.808594-122.179688-17.808594-181.300781 0l-13.09375-32.246094c35.890625-27.386718 46.660156-76.738281 25.4375-116.585937-21.21875-39.847657-68.175781-58.457031-110.933594-43.960938-42.753906 14.492188-68.714844 57.824219-61.328125 102.359375s45.949219 77.164063 91.09375 77.082032zm243.410156-92.328126c0-30.554687 18.402344-58.101562 46.632813-69.792968 28.226562-11.691406 60.71875-5.230469 82.320312 16.375 21.605469 21.605468 28.070313 54.097656 16.378907 82.324218-11.695313 28.226563-39.238282 46.632813-69.792969 46.632813-41.699219-.050781-75.488281-33.839844-75.539063-75.539063zm34.253906 82.464844c4.984376 2.519532 10.1875 4.574219 15.550782 6.136719l-11.742188 28.90625c-5.035156-2.265625-10.15625-4.425781-15.433594-6.40625zm-26.023437 41.1875c.070313 0 .109375.089844.179687.125.066407.03125.242188 0 .367188.066406 10.339844 3.46875 20.433594 7.625 30.21875 12.4375.132812.070313.226562.1875.367188.246094.144531.058594.160156 0 .234374.050782 52.277344 25.976562 86.300782 67.933593 86.300782 115.222656 0 78.679687-94.128906 142.691406-209.835938 142.691406-115.703125 0-209.835937-64.011719-209.835937-142.691406 0-47.289063 34.027343-89.246094 86.277343-115.222656.074219 0 .160157 0 .234376-.050782.078124-.050781.234374-.175781.371093-.246094 9.78125-4.8125 19.878907-8.96875 30.214844-12.4375.125 0 .253906 0 .371094-.066406.117187-.066406.109375-.09375.175781-.125 59.929688-19.382812 124.441406-19.382812 184.371094 0zm-198.761719-12.542968c-5.28125 1.980468-10.410156 4.140624-15.4375 6.40625l-11.75-28.914063c5.363282-1.5625 10.566406-3.617187 15.554688-6.136719zm-52.878906-186.652344c41.71875 0 75.539062 33.820312 75.539062 75.542968 0 41.71875-33.820312 75.539063-75.539062 75.539063-41.722656 0-75.542969-33.820313-75.542969-75.539063.050781-41.699218 33.84375-75.492187 75.542969-75.542968zm0 0"/><path d="m92.34375 151.917969c32.449219 0 58.753906-26.304688 58.753906-58.753907 0-32.449218-26.304687-58.753906-58.753906-58.753906s-58.753906 26.304688-58.753906 58.753906c.035156 32.433594 26.320312 58.714844 58.753906 58.753907zm0-100.722657c23.175781 0 41.964844 18.789063 41.964844 41.96875 0 23.175782-18.789063 41.964844-41.964844 41.964844-23.179688 0-41.96875-18.789062-41.96875-41.964844.027344-23.167968 18.800781-41.941406 41.96875-41.96875zm0 0"/><path d="m411.292969 151.917969c32.449219 0 58.753906-26.304688 58.753906-58.753907 0-32.449218-26.304687-58.753906-58.753906-58.753906s-58.753907 26.304688-58.753907 58.753906c.039063 32.433594 26.320313 58.714844 58.753907 58.753907zm0-100.722657c23.179687 0 41.96875 18.789063 41.96875 41.96875 0 23.175782-18.789063 41.964844-41.96875 41.964844-23.175781 0-41.96875-18.789062-41.96875-41.964844.03125-23.167968 18.804687-41.941406 41.96875-41.96875zm0 0"/><path d="m92.34375 118.34375c13.90625 0 25.179688-11.273438 25.179688-25.179688s-11.273438-25.183593-25.179688-25.183593-25.179688 11.277343-25.179688 25.183593 11.273438 25.179688 25.179688 25.179688zm0-33.574219c4.632812 0 8.390625 3.757813 8.390625 8.394531 0 4.632813-3.757813 8.390626-8.390625 8.390626-4.636719 0-8.394531-3.757813-8.394531-8.390626 0-4.636718 3.757812-8.394531 8.394531-8.394531zm0 0"/><path d="m411.292969 118.34375c13.90625 0 25.179687-11.273438 25.179687-25.179688s-11.273437-25.183593-25.179687-25.183593-25.179688 11.277343-25.179688 25.183593 11.273438 25.179688 25.179688 25.179688zm0-33.574219c4.636719 0 8.394531 3.757813 8.394531 8.394531 0 4.632813-3.757812 8.390626-8.394531 8.390626s-8.394531-3.757813-8.394531-8.390626c0-4.636718 3.757812-8.394531 8.394531-8.394531zm0 0"/><path d="m184.671875 269.425781c4.632813 0 8.390625-3.757812 8.390625-8.394531 0-13.90625 11.273438-25.179688 25.183594-25.179688 13.90625 0 25.179687 11.273438 25.179687 25.179688 0 4.636719 3.757813 8.394531 8.390625 8.394531 4.636719 0 8.394532-3.757812 8.394532-8.394531 0-13.90625 11.273437-25.179688 25.179687-25.179688s25.179687 11.273438 25.179687 25.179688c0 4.636719 3.757813 8.394531 8.394532 8.394531 4.636718 0 8.394531-3.757812 8.394531-8.394531.050781-18.101562-11.542969-34.183594-28.734375-39.855469s-36.078125.355469-46.808594 14.9375c-10.726562-14.582031-29.617187-20.609375-46.804687-14.9375-17.191407 5.671875-28.785157 21.753907-28.734375 39.855469 0 2.226562.882812 4.359375 2.457031 5.933594 1.574219 1.574218 3.710937 2.460937 5.9375 2.460937zm0 0"/><path d="m226.636719 261.03125c0 4.636719-3.757813 8.394531-8.390625 8.394531-4.636719 0-8.394532-3.757812-8.394532-8.394531s3.757813-8.394531 8.394532-8.394531c4.632812 0 8.390625 3.757812 8.390625 8.394531zm0 0"/><path d="m293.785156 261.03125c0 4.636719-3.757812 8.394531-8.394531 8.394531-4.632813 0-8.390625-3.757812-8.390625-8.394531s3.757812-8.394531 8.390625-8.394531c4.636719 0 8.394531 3.757812 8.394531 8.394531zm0 0"/><path d="m140.074219 293.4375c-12.480469-6.699219-27.164063-8-40.628907-3.601562-11.449218 5.03125-20.316406 14.558593-24.511718 26.339843-2.367188 5.730469-4.269532 11.644531-5.699219 17.675781-5.285156 22.222657.304687 45.632813 15.058594 63.070313 30.257812 38.601563 99.144531 65.550781 167.523437 65.550781 68.382813 0 137.269532-26.957031 167.527344-65.558594 14.757812-17.429687 20.347656-40.835937 15.058594-63.050781-1.417969-6.042969-3.328125-11.957031-5.710938-17.6875-4.183594-11.78125-13.046875-21.3125-24.5-26.339843-13.464844-4.398438-28.148437-3.097657-40.632812 3.601562-34.816406 15.546875-74.355469 17.402344-111.632813 17.953125-37.492187-.550781-77.035156-2.40625-111.851562-17.953125zm44.597656 143.109375v-45.417969c-.003906-1.09375.0625-2.1875.191406-3.273437 1.722657-14.835938 14.304688-26.023438 29.242188-25.992188s27.472656 11.265625 29.132812 26.109375c.429688 4.375 4.09375 7.714844 8.488281 7.730469.058594-.007813.121094-.007813.183594 0 4.417969-.070313 8.074219-3.449219 8.496094-7.847656 1.71875-14.835938 14.300781-26.023438 29.238281-25.992188s27.476563 11.265625 29.136719 26.109375c.125 1.046875.1875 2.101563.183594 3.15625v45.417969c-43.933594 12.1875-90.359375 12.1875-134.292969 0zm185.738281-127.78125c8.40625-4.726563 18.351563-5.921875 27.636719-3.316406 7.191406 3.46875 12.671875 9.703125 15.183594 17.28125 2.027343 4.898437 3.660156 9.949219 4.878906 15.109375 4.070313 17.207031-.382813 35.324218-11.96875 48.683594-14.488281 18.464843-40.097656 34.175781-70.386719 44.761718v-40.15625c0-1.710937-.101562-3.421875-.304687-5.117187-2.121094-19.070313-15.820313-34.839844-34.40625-39.609375-18.582031-4.769532-38.183594 2.453125-49.226563 18.144531-11.03125-15.664063-30.59375-22.882813-49.160156-18.144531-18.5625 4.738281-32.269531 20.453125-34.445312 39.488281-.214844 1.738281-.324219 3.488281-.328126 5.238281v40.195313c-30.292968-10.582031-55.890624-26.277344-70.378906-44.761719-11.59375-13.355469-16.046875-31.472656-11.96875-48.679688 1.214844-5.160156 2.839844-10.210937 4.859375-15.109374 2.519531-7.578126 8-13.8125 15.191407-17.28125 2.714843-1.027344 5.59375-1.539063 8.496093-1.503907 6.644531.265625 13.164063 1.90625 19.144531 4.820313 37.730469 16.800781 79.210938 18.78125 118.71875 19.371094 39.253907-.589844 80.734376-2.570313 118.464844-19.414063zm0 0"/><path d="m285.390625 403.71875c-3.285156 0-6.273437 1.921875-7.636719 4.910156-8.277344 3.082032-17.140625 4.273438-25.9375 3.484375-8.796875.789063-17.65625-.402343-25.933594-3.484375-1.636718-3.59375-5.5625-5.558594-9.421874-4.722656-3.859376.839844-6.613282 4.257812-6.609376 8.207031 0 7.664063 7.285157 16.785157 41.964844 16.785157 34.683594 0 41.96875-9.121094 41.96875-16.785157 0-4.636719-3.757812-8.394531-8.394531-8.394531zm0 0"/></svg>