<svg height="512pt" viewBox="0 0 512 512" width="512pt" xmlns="http://www.w3.org/2000/svg"><path d="m503.464844 332.800781c0 120.148438-110.761719 170.664063-247.464844 170.664063-2.902344 0-5.71875 0-8.535156-.082032-132.777344-2.050781-238.929688-52.992187-238.929688-170.582031 1.488282-51.105469 17.597656-100.707031 46.417969-142.933593l64.683594-71.082032c36.25-29.808594 80.988281-47.398437 127.828125-50.261718 2.816406-.171876 5.632812-.257813 8.535156-.257813 50.21875.945313 98.617188 18.976563 137.214844 51.117187l64.171875 70.996094c28.59375 42.125 44.578125 91.53125 46.078125 142.421875zm0 0" fill="#6a1b99"/><path d="m477.867188 332.800781c0 117.589844-104.261719 168.53125-234.667969 170.582031-130.40625-2.050781-234.664063-52.992187-234.664063-170.582031 1.425782-50.988281 17.230469-100.535156 45.589844-142.933593l63.53125-71.082032c35.40625-29.730468 79.402344-47.347656 125.542969-50.261718 46.5 2.941406 90.8125 20.773437 126.386719 50.859374l63.054687 70.996094c28.125 42.296875 43.796875 91.648438 45.226563 142.421875zm0 0" fill="#9c27af"/><path d="m102.144531 205.226562c-86.527343 1.449219-93.441406-112.042968-51.96875-136.960937 25.472657-15.28125 20.53125-33.601563 12.40625-45.890625-1.699219-2.75-1.699219-6.226562 0-8.976562s4.808594-4.304688 8.03125-4.011719c55.886719 4.769531 86.9375 30.097656 56.363281 75.945312-18.773437 28.160157-6.570312 40.832031 8.21875 46.535157 5.152344 1.824218 9.085938 6.0625 10.527344 11.335937 1.4375 5.277344.203125 10.925781-3.308594 15.117187zm0 0" fill="#9c27af"/><path d="m409.855469 205.226562-2.304688-2.730468-37.972656-44.203125c-3.496094-4.203125-4.714844-9.847657-3.269531-15.117188 1.445312-5.273437 5.375-9.503906 10.523437-11.335937 14.761719-5.632813 26.964844-18.347656 8.191407-46.507813-26.964844-40.445312-5.972657-64.9375 37.632812-73.386719 5.886719-1.109374 12.117188-1.960937 18.6875-2.558593 3.230469-.320313 6.359375 1.21875 8.078125 3.96875 1.722656 2.75 1.730469 6.238281.027344 9-8.191407 12.289062-13.140625 30.636719 12.375 45.910156 41.472656 24.917969 34.558593 138.410156-51.96875 136.960937zm0 0" fill="#6a1b99"/><path d="m407.550781 202.496094-37.972656-44.203125c-3.496094-4.203125-4.714844-9.847657-3.269531-15.117188 1.445312-5.273437 5.375-9.503906 10.523437-11.335937 14.761719-5.632813 26.964844-18.347656 8.191407-46.507813-26.964844-40.445312-5.972657-64.9375 37.632812-73.386719 2.851562 2.742188 3.320312 7.132813 1.109375 10.410157-8.105469 12.289062-13.054687 30.636719 12.457031 45.910156 37.378906 22.445313 35.414063 116.90625-28.671875 134.230469zm0 0" fill="#9c27af"/><path d="m170.667969 170.667969c-2.816407 0-5.632813.167969-8.363281.425781h-.34375c-43.605469 4.375-76.808594 41.078125-76.808594 84.90625s33.203125 80.53125 76.808594 84.90625c2.816406.257812 5.804687.425781 8.707031.425781 18.148437.035157 35.832031-5.769531 50.429687-16.554687l27.648438-34.472656c4.8125-10.796876 7.28125-22.488282 7.253906-34.304688 0-47.128906-38.203125-85.332031-85.332031-85.332031zm0 0" fill="#fff"/><path d="m341.332031 170.667969c-2.816406 0-5.628906.167969-8.363281.425781h-.339844c-43.535156 4.464844-76.636718 41.140625-76.628906 84.90625-.027344 11.816406 2.441406 23.507812 7.253906 34.304688l27.648438 34.472656c12.292968 9.105468 26.839844 14.679687 42.066406 16.128906 2.734375.257812 5.546875.425781 8.363281.425781 47.128907 0 85.335938-38.203125 85.335938-85.332031s-38.207031-85.332031-85.335938-85.332031zm0 0" fill="#fff"/><path d="m230.398438 256c0 32.988281-26.742188 59.734375-59.730469 59.734375-32.992188 0-59.734375-26.746094-59.734375-59.734375s26.742187-59.734375 59.734375-59.734375c32.988281 0 59.730469 26.746094 59.730469 59.734375zm0 0" fill="#02a8f3"/><path d="m401.066406 256c0 32.988281-26.742187 59.734375-59.734375 59.734375-32.988281 0-59.730469-26.746094-59.730469-59.734375s26.742188-59.734375 59.730469-59.734375c32.992188 0 59.734375 26.746094 59.734375 59.734375zm0 0" fill="#02a8f3"/><path d="m204.800781 256c0 18.851562-15.28125 34.132812-34.132812 34.132812-18.851563 0-34.132813-15.28125-34.132813-34.132812s15.28125-34.132812 34.132813-34.132812c18.851562 0 34.132812 15.28125 34.132812 34.132812zm0 0" fill="#2c2f38"/><path d="m375.464844 256c0 18.851562-15.28125 34.132812-34.132813 34.132812-18.851562 0-34.132812-15.28125-34.132812-34.132812s15.28125-34.132812 34.132812-34.132812c18.851563 0 34.132813 15.28125 34.132813 34.132812zm0 0" fill="#2c2f38"/><path d="m315.734375 498.089844c-19.691406 3.714844-39.695313 5.511718-59.734375 5.375-20.039062.136718-40.042969-1.660156-59.734375-5.375-115.113281-22.613282-102.398437-108.371094-102.398437-108.371094 19.574218-6.324219 39.523437-11.425781 59.734374-15.277344 15.871094-2.21875 33.191407-4.09375 51.199219-5.460937 16.640625-1.277344 33.960938-2.046875 51.199219-2.046875s34.558594.769531 51.199219 2.046875c18.007812 1.367187 35.328125 3.242187 51.199219 5.460937 20.210937 3.851563 40.160156 8.953125 59.734374 15.277344 0 0 12.714844 85.757812-102.398437 108.371094zm0 0" fill="#ac1457"/><path d="m315.734375 465.066406v32.339844c-19.632813 4.175781-39.664063 6.207031-59.734375 6.058594-20.070312.148437-40.101562-1.882813-59.734375-6.058594v-32.339844c-.015625-1.429687.097656-2.859375.34375-4.265625 2.222656-14.589843 14.769531-25.363281 29.523437-25.363281 14.757813 0 27.300782 10.773438 29.527344 25.363281.242188 1.40625.355469 2.835938.339844 4.265625-.015625-1.429687.097656-2.859375.339844-4.265625 2.226562-14.589843 14.769531-25.363281 29.527344-25.363281 14.753906 0 27.300781 10.773438 29.523437 25.363281.246094 1.40625.359375 2.835938.34375 4.265625zm0 0" fill="#f34335"/><g fill="#ffebb2"><path d="m256 366.933594v8.53125c0 14.140625-11.460938 25.601562-25.601562 25.601562-14.136719 0-25.597657-11.460937-25.597657-25.601562v-6.484375c16.640625-1.277344 33.960938-2.046875 51.199219-2.046875zm0 0"/><path d="m204.800781 368.980469v12.714843c0 14.140626-11.460937 25.601563-25.601562 25.601563-14.136719 0-25.597657-11.460937-25.597657-25.601563v-7.253906c15.871094-2.21875 33.191407-4.09375 51.199219-5.460937zm0 0"/><path d="m358.398438 374.441406v7.253906c0 14.140626-11.460938 25.601563-25.597657 25.601563-14.140625 0-25.601562-11.460937-25.601562-25.601563v-12.714843c18.007812 1.367187 35.328125 3.242187 51.199219 5.460937zm0 0"/><path d="m307.199219 368.980469v6.484375c0 14.140625-11.460938 25.601562-25.597657 25.601562-14.140624 0-25.601562-11.460937-25.601562-25.601562v-8.53125c17.238281 0 34.558594.769531 51.199219 2.046875zm0 0"/></g><path d="m298.667969 307.199219c0 14.140625-19.109375 34.132812-42.667969 34.132812s-42.667969-19.992187-42.667969-34.132812 19.109375-17.066407 42.667969-17.066407 42.667969 2.925782 42.667969 17.066407zm0 0" fill="#e81e63"/><path d="m162.132812 221.867188c0 9.425781-7.640624 17.066406-17.066406 17.066406-9.425781 0-17.066406-7.640625-17.066406-17.066406 0-9.425782 7.640625-17.066407 17.066406-17.066407 9.425782 0 17.066406 7.640625 17.066406 17.066407zm0 0" fill="#fff"/><path d="m332.800781 221.867188c0 9.425781-7.640625 17.066406-17.066406 17.066406s-17.066406-7.640625-17.066406-17.066406c0-9.425782 7.640625-17.066407 17.066406-17.066407s17.066406 7.640625 17.066406 17.066407zm0 0" fill="#fff"/><path d="m490.90625 153.335938c10.625-37.101563-.214844-77.652344-24.6875-92.382813-7.65625-3.355469-13.1875-10.246094-14.804688-18.449219-.785156-11.339844 11.09375-23.558594 15.726563-27.304687 2.828125-2.261719 3.921875-6.066407 2.726563-9.484375-1.199219-3.417969-4.421876-5.71093775-8.042969-5.714844-48.085938 0-81.015625 12.050781-92.722657 33.9375-5.8125 10.84375-8.996093 29.40625 8.824219 56.132812 2.601563 3.804688 4.761719 7.894532 6.433594 12.191407-37.394531-27.042969-82.214844-41.894531-128.359375-42.527344-46.179688.652344-91.027344 15.554687-128.417969 42.664063 1.679688-4.347657 3.859375-8.484376 6.492188-12.328126 17.820312-26.726562 14.636719-45.289062 8.824219-56.132812-11.707032-21.886719-44.636719-33.9375-92.722657-33.9375-3.625 0-6.855469 2.289062-8.054687 5.707031-1.203125 3.421875-.109375 7.226563 2.722656 9.492188 4.324219 3.464843 16.492188 15.894531 15.726562 27.304687-.445312 6.648438-5.417968 12.859375-14.789062 18.484375-24.449219 14.660157-35.3125 55.246094-24.6875 92.347657 3.964844 14.65625 11.746094 28 22.554688 38.664062-27.222657 42.027344-42.324219 90.746094-43.648438 140.800781 0 112.203125 95.703125 179.199219 256 179.199219s256-66.996094 256-179.199219c-1.335938-50.054687-16.4375-98.769531-43.648438-140.800781 10.8125-10.660156 18.597657-24.003906 22.554688-38.664062zm-453.410156-4.703126c-8.464844-29.542968-.804688-62.292968 17.066406-73.054687 12.617188-6.046875 21.296875-18.089844 23.039062-31.972656.253907-9.199219-2.488281-18.230469-7.808593-25.738281 29.988281 2.5625 51.132812 11.179687 58.027343 24.117187 5.257813 9.804687 2.558594 22.800781-7.96875 38.613281-11.339843 17.015625-13.9375 31.574219-7.679687 43.195313 11.066406 20.675781 45.097656 21.273437 48.9375 21.273437 4.710937 0 8.535156-3.820312 8.535156-8.53125 0-4.714844-3.824219-8.535156-8.535156-8.535156-10.261719.011719-20.355469-2.589844-29.335937-7.550781 35.632812-27.539063 79.199218-42.84375 124.226562-43.648438 45.03125.792969 88.605469 16.09375 124.253906 43.621094-8.992187 4.980469-19.101562 7.589844-29.378906 7.578125-4.714844 0-8.535156 3.820312-8.535156 8.535156 0 4.710938 3.820312 8.53125 8.535156 8.53125 3.710938 0 35.566406-.613281 47.683594-19.328125.476562-.296875.917968-.644531 1.3125-1.039062 1.109375-1.453125 1.710937-3.226563 1.707031-5.054688 3.722656-10.886719.5625-23.984375-9.472656-39.046875-10.539063-15.8125-13.226563-28.808594-7.96875-38.613281 6.921875-12.9375 28.066406-21.546875 58.027343-24.117187-5.320312 7.507812-8.0625 16.539062-7.808593 25.738281 1.742187 13.882812 10.421875 25.925781 23.039062 31.972656 17.921875 10.738281 25.539063 43.523437 17.066407 73.054687-6.734376 28.03125-31.757813 47.832032-60.585938 47.941407-20.507812-25.085938-52.519531-37.800781-84.648438-33.617188-32.132812 4.179688-59.824218 24.664063-73.226562 54.164063-13.398438-29.523438-41.105469-50.023438-73.253906-54.203125-32.152344-4.179688-64.179688 8.554687-84.679688 33.671875-12.847656-.019532-25.378906-3.953125-35.933594-11.269532-.636718-1.023437-1.488281-1.898437-2.492187-2.5625-.488281-.257812-1-.464843-1.527344-.613281-9.914062-8.988281-17.066406-20.609375-20.617187-33.511719zm133.171875 30.566407c42.394531.046875 76.75 34.40625 76.796875 76.800781-.003906 8.847656-1.566406 17.621094-4.625 25.925781-16.785156 1.039063-38.039063 5.554688-38.039063 25.273438.144531 5.292969 1.609375 10.464843 4.265625 15.046875-11.628906 6.882812-24.886718 10.527344-38.398437 10.554687-42.417969 0-76.800781-34.386719-76.800781-76.800781s34.382812-76.800781 76.800781-76.800781zm51.199219 128c0-4.828125 9.386718-7.757813 26.539062-8.394531h.460938c2.261718-.078126 4.617187-.128907 7.132812-.128907s4.871094.050781 7.125.128907h.46875c17.152344.636718 26.539062 3.566406 26.539062 8.394531 0 8.765625-14.414062 25.601562-34.132812 25.601562s-34.132812-16.835937-34.132812-25.601562zm47.292968-25.273438c-3.058594-8.304687-4.621094-17.078125-4.625-25.925781 0-42.414062 34.382813-76.800781 76.796875-76.800781 42.417969 0 76.800781 34.386719 76.800781 76.800781s-34.382812 76.800781-76.800781 76.800781c-13.511719-.027343-26.769531-3.671875-38.398437-10.554687 2.65625-4.582032 4.121094-9.753906 4.265625-15.046875 0-19.71875-21.253907-24.234375-38.039063-25.273438zm29.429688 95.171875c-.855469 9.039063-8.640625 15.824219-17.710938 15.441406-9.074218-.382812-16.257812-7.804687-16.34375-16.882812 3.496094.039062 7.003906.101562 10.519532.203125 7.757812.273437 15.582031.648437 23.535156 1.238281zm-61.644532-1.238281c3.515626-.101563 7.015626-.164063 10.511719-.203125-.128906 9.046875-7.300781 16.421875-16.339843 16.804688-9.042969.382812-16.8125-6.359376-17.707032-15.363282 7.953125-.589844 15.785156-.964844 23.535156-1.238281zm78.789063 2.464844c11.5.996093 22.878906 2.21875 34.132813 3.660156-.082032 9.425781-7.785157 17.003906-17.210938 16.921875-9.425781-.078125-17.003906-7.785156-16.921875-17.210938zm-170.386719 6.257812c1.371094 17.667969 16.128906 31.292969 33.851563 31.246094 11.394531-.003906 22.035156-5.695313 28.367187-15.171875 6.71875 6.214844 15.683594 9.421875 24.824219 8.886719 9.136719-.539063 17.664063-4.777344 23.609375-11.734375 5.945312 6.957031 14.472656 11.195312 23.609375 11.734375 9.140625.535156 18.105469-2.671875 24.824219-8.886719 5.671875 8.5 14.855468 14.007812 25.023437 15.007812s20.25-2.613281 27.464844-9.84375c5.671875-5.695312 9.121094-13.226562 9.730469-21.238281 14.753906 3.0625 34.132812 8.726563 43.449218 11.5625.53125 17.160157-4.5625 71.234375-85.835937 91.304688v-26.648438c-.023437-1.320312-.378906-2.609375-1.03125-3.753906-3.050781-14.460937-14.164063-25.867187-28.535156-29.300781-14.375-3.433594-29.441407 1.71875-38.699219 13.238281-9.230469-11.523437-24.277344-16.699219-38.644531-13.289063-14.367188 3.410157-25.480469 14.792969-28.546875 29.238282-.671875 1.179687-1.039063 2.507812-1.074219 3.867187v26.625c-80.8125-19.988281-86.1875-74.128906-85.796875-91.308593 9.34375-2.824219 28.621094-8.472657 43.410156-11.535157zm16.8125-2.5625c11.195313-1.441406 22.585938-2.660156 34.132813-3.660156v3.371094c.078125 9.425781-7.496094 17.132812-16.921875 17.210937-9.425782.082032-17.132813-7.496094-17.210938-16.921875zm80.253906 112.640625c-12.621093-.507812-25.191406-1.917968-37.613281-4.214844v-25.378906c-.003906-.796875.054688-1.59375.167969-2.378906 0-.230469 0-.429688.085938-.683594 1.488281-10.472656 10.441406-18.261718 21.015624-18.285156 10.578126-.023438 19.566407 7.726562 21.097657 18.191406l.308593 7.765625c.183594 4.574219 3.945313 8.191407 8.523438 8.191407h.351562c2.261719-.089844 4.394532-1.078126 5.929688-2.742188s2.34375-3.871094 2.253906-6.132812l-.128906-3.242188c0-.238281.136719-.4375.136719-.683594-.003907-.796875.050781-1.59375.167969-2.378906 0-.230469 0-.429688.085937-.683594 1.617187-10.476562 10.679687-18.175781 21.277344-18.078125 10.601562.097657 19.519531 7.957031 20.945312 18.460938.140625.886719.199219 1.785156.179688 2.679687v25.378906c-12.421875 2.292969-24.992188 3.695313-37.613281 4.199219-4.472657.167969-8.988282.289063-13.585938.289063s-9.113281-.121094-13.585938-.289063zm252.519532-161.859375c0 78.113281-47.617188 119.023438-102.945313 140.191407 24.316407-21.078126 37.15625-52.46875 34.585938-84.546876-.476563-3.226562-2.753907-5.898437-5.863281-6.886718-20.03125-6.464844-40.449219-11.664063-61.132813-15.5625-16.828125-2.339844-34.226563-4.199219-51.722656-5.523438-16.210938-1.253906-31.792969-1.859375-47.367188-1.96875-1.476562 0-3.019531-.105468-4.488281-.105468s-2.976562.085937-4.4375.105468c-15.589844.109375-31.207031.714844-47.402344 1.96875-17.511718 1.324219-34.910156 3.183594-51.667968 5.511719-20.703126 3.902344-41.136719 9.105469-61.183594 15.574219-3.113282.988281-5.386719 3.660156-5.863282 6.886718-2.574218 32.078126 10.265626 63.46875 34.585938 84.546876-55.347656-21.167969-102.964844-62.078126-102.964844-140.191407 1.285156-46.308593 15.183594-91.382812 40.199219-130.375 9.246094 5.457031 19.492187 9 30.132813 10.421875-19.421876 37.472656-11.417969 83.304688 19.550781 111.980469s77.277343 33.136719 113.152343 10.898437c20.242188 18.796876 51.554688 18.796876 71.796876 0 14.816406 9.28125 31.953124 14.183594 49.433593 14.140626 32.785157.046874 63.214844-17.039063 80.238281-45.054688 17.027344-28.019531 18.175782-62.894531 3.03125-91.972656 10.640626-1.421875 20.886719-4.964844 30.132813-10.421875 25.003906 38.996093 38.902344 84.074219 40.199219 130.382812zm0 0"/><path d="m170.667969 298.667969c23.5625 0 42.664062-19.105469 42.664062-42.667969s-19.101562-42.667969-42.664062-42.667969c-23.566407 0-42.667969 19.105469-42.667969 42.667969.027344 23.550781 19.113281 42.636719 42.667969 42.667969zm0-68.269531c14.136719 0 25.597656 11.464843 25.597656 25.601562s-11.460937 25.601562-25.597656 25.601562c-14.140625 0-25.601563-11.464843-25.601563-25.601562s11.460938-25.601562 25.601563-25.601562zm0 0"/><path d="m341.332031 298.667969c23.566407 0 42.667969-19.105469 42.667969-42.667969s-19.101562-42.667969-42.667969-42.667969c-23.5625 0-42.664062 19.105469-42.664062 42.667969.027343 23.550781 19.113281 42.636719 42.664062 42.667969zm0-68.269531c14.140625 0 25.601563 11.464843 25.601563 25.601562s-11.460938 25.601562-25.601563 25.601562c-14.136719 0-25.597656-11.464843-25.597656-25.601562s11.460937-25.601562 25.597656-25.601562zm0 0"/></svg>