<svg height="503pt" viewBox="0 0 503 503.83737" width="503pt" xmlns="http://www.w3.org/2000/svg"><path d="m495.632812 167.867188v181.550781c-9.019531-6.175781-17.449218-13.171875-25.179687-20.898438-21.910156-19.390625-50.277344-45.074219-50.363281-43.140625h-24.84375c-.167969-.167968-.335938-.167968-.335938 0h-310.558594c0-.167968-.167968-.167968-.335937 0-5.789063 2.347656-75.203125 67.0625-75.203125 64.039063v-181.550781c0-88.074219 71.398438-159.472657 159.476562-159.472657h167.867188c88.074219 0 159.476562 71.398438 159.476562 159.472657zm0 0" fill="#00828e"/><path d="m470.453125 167.867188v181.550781c0 3.023437-69.414063-61.691407-75.207031-64.039063-.167969-.167968-.335938-.167968-.335938 0h-310.558594c0-.167968-.167968-.167968-.335937 0h-24.84375c-.082031-1.933594-28.453125 23.75-50.359375 43.140625v-160.652343c0-88.074219 71.398438-159.472657 159.476562-159.472657h142.6875c88.074219 0 159.476563 71.398438 159.476563 159.472657zm0 0" fill="#00bbd3"/><path d="m495.378906 359.070312c-2.25 44-18.648437 86.097657-46.75 120.027344-4.003906 5.445313-9.125 9.964844-15.023437 13.261719-7.136719 3.082031-15.046875 3.902344-22.664063 2.351563-.960937-.148438-1.914062-.34375-2.851562-.589844-.742188-.144532-1.472656-.339844-2.183594-.585938-17.792969-4.867187-24.59375-19.304687-33.238281-35.421875-2.433594-4.617187-5.035157-9.148437-7.636719-13.679687 1.550781.265625 3.125.40625 4.699219.417968 13.90625 0 25.179687-11.273437 25.179687-25.179687-.050781-13.886719-11.292968-25.128906-25.179687-25.179687-4.371094-.035157-8.664063 1.125-12.421875 3.355468-.960938.449219-1.863282 1.011719-2.6875 1.679688-3.703125 2.695312-6.554688 6.394531-8.226563 10.660156-2.433593-4.953125-4.78125-9.988281-6.878906-15.109375-6.261719-14.679687-10.140625-30.261719-11.5-46.164063 54.640625-19.21875 92.074219-61.941406 92.074219-130.683593-.597656-37.613281-10.183594-74.535157-27.949219-107.6875-8.179687-15.785157-18.121094-30.597657-29.628906-44.152344 6.945312 3.742187 13.644531 7.917969 20.058593 12.507813 49.1875 35.589843 109.703126 114.820312 112.808594 280.171874zm0 0" fill="#ac1457"/><path d="m470.453125 359.070312c-2.253906 44-18.648437 86.097657-46.753906 120.027344-4 5.445313-9.125 9.964844-15.023438 13.261719-.921875.417969-1.847656.839844-2.769531 1.175781-17.792969-4.867187-24.59375-19.304687-33.238281-35.421875-2.433594-4.617187-5.035157-9.148437-7.636719-13.679687 1.550781.265625 3.125.40625 4.699219.417968 13.90625 0 25.179687-11.273437 25.179687-25.179687-.050781-13.886719-11.292968-25.128906-25.179687-25.179687-4.371094-.035157-8.664063 1.125-12.421875 3.355468-3.792969-2.21875-8.113282-3.378906-12.507813-3.355468-1.777343-.023438-3.554687.175781-5.285156.585937-6.261719-14.679687-10.140625-30.261719-11.5-46.164063 54.640625-19.21875 92.074219-61.941406 92.074219-130.683593-.597656-37.613281-10.183594-74.535157-27.949219-107.6875 39.28125 44.566406 75.875 120.863281 78.3125 248.527343zm0 0" fill="#e81e63"/><path d="m176.429688 348.914062c-2.089844 21.425782-8.332032 42.238282-18.382813 61.273438-1.667969-4.265625-4.523437-7.964844-8.226563-10.660156-7.628906-5.722656-17.835937-6.640625-26.367187-2.378906-8.53125 4.265624-13.917969 12.984374-13.917969 22.523437 0 13.90625 11.273438 25.179687 25.179688 25.179687 1.574218-.011718 3.148437-.152343 4.699218-.417968-2.601562 4.53125-5.203124 9.0625-7.636718 13.679687-8.980469 16.789063-16.03125 31.726563-35.421875 36.007813-.941407.246094-1.894531.441406-2.851563.589844-7.617187 1.550781-15.527344.730468-22.664062-2.351563-5.898438-3.296875-11.023438-7.816406-15.023438-13.261719-28.105468-33.929687-44.5-76.027344-46.753906-120.027344 3.105469-165.351562 63.625-244.582031 112.808594-280.171874 6.417968-4.589844 13.117187-8.765626 20.0625-12.507813-35.996094 42.539063-56.320313 96.128906-57.582032 151.839844 0 68.742187 37.4375 111.464843 92.078126 130.683593zm0 0" fill="#e81e63"/><path d="m420.089844 218.230469c0 68.742187-37.433594 111.464843-92.074219 130.683593-24.40625 8.257813-50.03125 12.316407-75.792969 12.003907-25.761718.3125-51.390625-3.746094-75.792968-12.003907-35.835938-11.136718-65.191407-37.070312-80.660157-71.257812-7.851562-18.8125-11.738281-39.042969-11.417969-59.425781 1.261719-55.710938 21.585938-109.300781 57.582032-151.839844h220.578125c9.5625 11.273437 18.046875 23.410156 25.347656 36.261719.046875.042968.074219.105468.085937.167968 20.351563 35.109376 31.414063 74.832032 32.144532 115.410157zm0 0" fill="#00828e"/><path d="m411.699219 202.199219c0 68.742187-37.4375 111.464843-92.078125 130.683593-24.402344 8.257813-50.03125 12.316407-75.792969 12.003907-25.761719.3125-51.386719-3.746094-75.792969-12.003907-29.75-9.5-55.285156-29.019531-72.265625-55.226562-7.851562-18.8125-11.738281-39.042969-11.417969-59.425781 1.261719-55.710938 21.585938-109.300781 57.582032-151.839844h220.578125c9.5625 11.273437 18.046875 23.410156 25.347656 36.261719.046875.042968.074219.105468.085937.167968 15.136719 30.972657 23.25 64.90625 23.753907 99.378907zm0 0" fill="#00bbd3"/><path d="m201.859375 276.984375h50.363281v16.785156c0 9.273438-7.515625 16.789063-16.789062 16.789063h-16.785156c-9.269532 0-16.789063-7.515625-16.789063-16.789063zm0 0" fill="#f9eab0"/><path d="m210.253906 276.984375h33.574219v16.785156c0 9.273438-7.515625 16.789063-16.785156 16.789063-9.273438 0-16.789063-7.515625-16.789063-16.789063zm0 0" fill="#ffebb2"/><path d="m252.222656 276.984375h50.359375v16.785156c0 9.273438-7.515625 16.789063-16.785156 16.789063h-16.789063c-9.269531 0-16.785156-7.515625-16.785156-16.789063zm0 0" fill="#f9eab0"/><path d="m260.617188 276.984375h33.570312v16.785156c0 9.273438-7.515625 16.789063-16.785156 16.789063-9.269532 0-16.785156-7.515625-16.785156-16.789063zm0 0" fill="#ffebb2"/><path d="m193.46875 100.722656c-12.238281-.050781-24.175781 3.800782-34.078125 10.992188-13.960937 9.90625-22.890625 25.417968-24.4375 42.464844-1.550781 17.042968 4.433594 33.914062 16.378906 46.171874v.082032c8.613281 1.03125 17.140625 2.6875 25.515625 4.953125 10.570313 2.789062 20.878906 6.5 30.804688 11.082031 1.171875-.25 2.324218-.585938 3.441406-1.007812 27.566406-8.777344 44.640625-36.3125 40.246094-64.90625-4.390625-28.59375-28.945313-49.734376-57.871094-49.832032zm0 0" fill="#fff"/><path d="m310.976562 100.722656c-12.238281-.050781-24.175781 3.800782-34.078124 10.992188-18.6875 13.28125-27.925782 36.234375-23.648438 58.757812 4.277344 22.523438 21.285156 40.488282 43.542969 45.996094 9.925781-4.582031 20.230469-8.292969 30.800781-11.082031 4.871094-1.257813 9.652344-2.347657 14.269531-3.273438 3.863281-.671875 7.640625-1.257812 11.246094-1.679687 16.464844-16.929688 21.191406-42.074219 12-63.828125-9.191406-21.753907-30.515625-35.890625-54.132813-35.882813zm0 0" fill="#fff"/><path d="m227.042969 159.476562c0 18.542969-15.03125 33.574219-33.574219 33.574219s-33.574219-15.03125-33.574219-33.574219c0-18.542968 15.03125-33.574218 33.574219-33.574218s33.574219 15.03125 33.574219 33.574218zm0 0" fill="#4cae50"/><path d="m344.550781 159.476562c0 18.542969-15.03125 33.574219-33.574219 33.574219-18.542968 0-33.574218-15.03125-33.574218-33.574219 0-18.542968 15.03125-33.574218 33.574218-33.574218 18.542969 0 33.574219 15.03125 33.574219 33.574218zm0 0" fill="#4cae50"/><path d="m193.46875 142.6875c0 9.273438-7.515625 16.789062-16.789062 16.789062-9.269532 0-16.785157-7.515624-16.785157-16.789062 0-9.269531 7.515625-16.785156 16.785157-16.785156 9.273437 0 16.789062 7.515625 16.789062 16.785156zm0 0" fill="#fff"/><path d="m210.253906 159.476562c0 9.269532-7.515625 16.785157-16.785156 16.785157-9.273438 0-16.789062-7.515625-16.789062-16.785157 0-9.273437 7.515624-16.789062 16.789062-16.789062 9.269531 0 16.785156 7.515625 16.785156 16.789062zm0 0" fill="#37474f"/><path d="m310.976562 142.6875c0 9.273438-7.515624 16.789062-16.789062 16.789062-9.269531 0-16.785156-7.515624-16.785156-16.789062 0-9.269531 7.515625-16.785156 16.785156-16.785156 9.273438 0 16.789062 7.515625 16.789062 16.785156zm0 0" fill="#fff"/><path d="m327.761719 159.476562c0 9.269532-7.515625 16.785157-16.785157 16.785157-9.273437 0-16.789062-7.515625-16.789062-16.785157 0-9.273437 7.515625-16.789062 16.789062-16.789062 9.269532 0 16.785157 7.515625 16.785157 16.789062zm0 0" fill="#37474f"/><path d="m344.550781 243.410156c-4.636719 0-8.394531 3.757813-8.394531 8.394532 0 9.269531-7.515625 16.785156-16.785156 16.785156h-134.296875c-9.269531 0-16.785157-7.515625-16.785157-16.785156 0-4.636719-3.757812-8.394532-8.394531-8.394532s-8.394531 3.757813-8.394531 8.394532c0 18.539062 15.03125 33.574218 33.574219 33.574218h8.394531v8.390625c0 13.90625 11.273438 25.179688 25.179688 25.179688h16.785156c6.214844-.019531 12.199218-2.355469 16.789062-6.546875 4.585938 4.191406 10.570313 6.527344 16.785156 6.546875h16.789063c13.90625 0 25.179687-11.273438 25.179687-25.179688v-8.390625h8.394532c18.539062 0 33.570312-15.035156 33.570312-33.574218 0-4.636719-3.757812-8.394532-8.390625-8.394532zm-109.117187 58.753906h-16.785156c-4.636719 0-8.394532-3.757812-8.394532-8.394531v-8.390625h33.574219v8.390625c0 4.636719-3.757813 8.394531-8.394531 8.394531zm58.753906-8.394531c0 4.636719-3.757812 8.394531-8.390625 8.394531h-16.789063c-4.632812 0-8.390624-3.757812-8.390624-8.394531v-8.390625h33.570312zm0 0"/><path d="m67.195312 499.921875c5.667969 2.652344 11.867188 3.980469 18.121094 3.886719 3.191406-.019532 6.371094-.300782 9.511719-.839844 24.625-3.929688 33.960937-21.429688 42.984375-38.359375l1.390625-2.609375c2.359375-4.472656 4.886719-8.871094 7.488281-13.429688 1.617188-2.8125 1.46875-6.300781-.378906-8.964843-1.847656-2.667969-5.066406-4.027344-8.265625-3.5-1.101563.210937-2.214844.332031-3.332031.355469-9.273438 0-16.789063-7.519532-16.789063-16.789063s7.515625-16.785156 16.789063-16.785156c6.628906-.050781 12.65625 3.851562 15.324218 9.917969 1.066407 3.316406 4.066407 5.628906 7.542969 5.816406 3.476563.1875 6.707031-1.792969 8.121094-4.976563 8.734375-16.890625 14.773437-35.046875 17.894531-53.808593 22.300782 6.4375 45.414063 9.628906 68.625 9.476562 23.210938.152344 46.324219-3.042969 68.625-9.484375 3.140625 18.859375 9.222656 37.105469 18.027344 54.078125 1.425781 3.003906 4.527344 4.851562 7.847656 4.667969 3.3125-.128907 6.242188-2.195313 7.472656-5.273438 2.539063-6.335937 8.707032-10.472656 15.535157-10.414062 9.269531 0 16.785156 7.515625 16.785156 16.785156s-7.515625 16.789063-16.785156 16.789063c-1.125-.007813-2.25-.113282-3.359375-.3125-3.207032-.476563-6.40625.925781-8.230469 3.609374-1.824219 2.679688-1.953125 6.171876-.328125 8.980469 2.515625 4.398438 5.035156 8.796875 7.4375 13.320313l1.359375 2.519531c9.019531 16.929687 18.355469 34.410156 42.949219 38.355469 9.328125 1.882812 19.007812.804687 27.695312-3.078125 6.988282-3.804688 13.066406-9.078125 17.8125-15.460938 31.507813-37.933593 48.820313-85.660156 48.957032-134.976562v-181.550781c-.105469-92.664063-75.199219-167.761719-167.867188-167.867188h-167.867188c-92.667968.105469-167.765624 75.203125-167.871093 167.867188v181.550781c.117187 49.320312 17.414062 97.0625 48.917969 135.007812 4.753906 6.40625 10.851562 11.691407 17.859374 15.496094zm89.105469-106.042969c-10.507812-8.71875-25.25-10.207031-37.289062-3.757812-12.035157 6.445312-18.96875 19.539062-17.535157 33.117187 1.429688 13.582031 10.945313 24.941407 24.0625 28.730469-.394531.730469-.78125 1.453125-1.15625 2.183594l-1.386718 2.585937c-9.230469 17.289063-15.191406 27.1875-30.863282 29.6875-5.902343 1.28125-12.054687.71875-17.625-1.613281-4.796874-2.808594-8.957031-6.578125-12.230468-11.070312-28.246094-34.078126-44.085938-76.734376-44.921875-120.992188v-.089844c1.890625-115.527344 33.289062-201.6875 91.203125-252.644531-20.558594 36.066406-31.765625 76.707031-32.597656 118.214844 0 64.914062 32.4375 112.964843 91.371093 136.140625-1.820312 13.617187-5.53125 26.917968-11.03125 39.507812zm285.855469 79.878906c-3.238281 4.496094-7.390625 8.257813-12.1875 11.039063-5.597656 2.339844-11.777344 2.90625-17.710938 1.628906-15.625-2.519531-21.59375-12.398437-30.808593-29.6875l-1.351563-2.519531-1.195312-2.230469c13.121094-3.792969 22.632812-15.152343 24.066406-28.730469 1.433594-13.582031-5.5-26.675781-17.539062-33.121093-12.035157-6.445313-26.777344-4.960938-37.289063 3.757812-5.496094-12.589843-9.210937-25.886719-11.027344-39.507812 58.9375-23.199219 91.371094-71.242188 91.371094-136.15625-.835937-41.527344-12.050781-82.183594-32.625-118.265625 57.914063 50.992187 89.324219 137.148437 91.210937 252.695312v.082032c-.832031 44.261718-16.667968 86.929687-44.914062 121.015624zm-273.867188-456.972656h167.867188c83.398438.097656 150.984375 67.683594 151.082031 151.082032v57.160156c-21.066406-77.746094-61.777343-134.292969-120.730469-166.019532l-.21875-.109374c-14.226562-8.03125-29.660156-13.703126-45.703124-16.789063-4.578126-.632813-8.804688 2.554687-9.457032 7.132813-.652344 4.574218 2.519532 8.816406 7.089844 9.488281 13.632812 2.753906 26.761719 7.59375 38.921875 14.34375 34.003906 40.863281 53.226563 92.007812 54.558594 145.15625 0 76.328125-47.003907 108.886719-86.453125 122.769531-23.511719 7.960938-48.207032 11.859375-73.023438 11.523438-24.820312.332031-49.515625-3.566407-73.023437-11.53125-39.449219-13.875-86.453125-46.433594-86.453125-122.761719 1.332031-53.148438 20.554687-104.292969 54.558594-145.15625 12.179687-6.738281 25.3125-11.59375 38.945312-14.402344 2.980469-.414063 5.511719-2.386719 6.636719-5.175781 1.125-2.789063.671875-5.964844-1.1875-8.328125-1.859375-2.367188-4.839844-3.554688-7.816407-3.117188-16.042968 3.097657-31.476562 8.78125-45.695312 16.828125h-.050781l-.191407.101563c-58.964843 31.785156-99.679687 88.308593-120.738281 166.066406v-57.179687c.09375-83.398438 67.679688-150.984376 151.082031-151.082032zm0 0"/><path d="m193.46875 184.65625c13.90625 0 25.179688-11.273438 25.179688-25.179688s-11.273438-25.179687-25.179688-25.179687-25.179688 11.273437-25.179688 25.179687 11.273438 25.179688 25.179688 25.179688zm0-33.574219c4.632812 0 8.390625 3.757813 8.390625 8.394531 0 4.632813-3.757813 8.390626-8.390625 8.390626-4.636719 0-8.394531-3.757813-8.394531-8.390626 0-4.636718 3.757812-8.394531 8.394531-8.394531zm0 0"/><path d="m310.976562 184.65625c13.90625 0 25.179688-11.273438 25.179688-25.179688s-11.273438-25.179687-25.179688-25.179687-25.179687 11.273437-25.179687 25.179687 11.273437 25.179688 25.179687 25.179688zm0-33.574219c4.636719 0 8.394532 3.757813 8.394532 8.394531 0 4.632813-3.757813 8.390626-8.394532 8.390626-4.636718 0-8.394531-3.757813-8.394531-8.390626 0-4.636718 3.757813-8.394531 8.394531-8.394531zm0 0"/><path d="m126.320312 159.476562c-.058593 17.488282 6.757813 34.296876 18.984376 46.800782 1.289062 1.328125 2.980468 2.191406 4.8125 2.460937h.277343c8.195313.976563 16.3125 2.554688 24.28125 4.722657 10.078125 2.664062 19.910157 6.203124 29.375 10.570312 1.113281.515625 2.324219.785156 3.550781.789062.675782-.003906 1.351563-.085937 2.007813-.246093 18.121094-4.410157 33.574219-16.199219 42.613281-32.515625 9.019532 16.320312 24.449219 28.125 42.5625 32.558594.65625.160156 1.328125.242187 2.007813.242187 1.226562 0 2.4375-.269531 3.546875-.789063 9.484375-4.371093 19.324218-7.90625 29.421875-10.566406 7.964843-2.167968 16.078125-3.746094 24.273437-4.726562h.234375c1.847657-.257813 3.558594-1.125 4.859375-2.464844 18.242188-18.734375 23.953125-46.355469 14.632813-70.785156-9.320313-24.429688-31.976563-41.226563-58.0625-43.050782-26.082031-1.820312-50.851563 11.667969-63.476563 34.566407-14.816406-26.78125-45.867187-40.152344-75.503906-32.515625-29.640625 7.632812-50.363281 34.34375-50.398438 64.949218zm184.65625-50.363281c19.726563-.007812 37.644532 11.503907 45.835938 29.449219 8.191406 17.949219 5.152344 39.027344-7.78125 53.925781-7.957031 1.101563-15.835938 2.699219-23.59375 4.792969-10.042969 2.664062-19.867188 6.101562-29.375 10.289062-23.773438-7.382812-38.585938-31.027343-34.855469-55.636718 3.726563-24.613282 24.875-42.808594 49.769531-42.820313zm-117.507812 0c24.886719.019531 46.03125 18.21875 49.753906 42.828125s-11.085937 48.246094-34.855468 55.628906c-9.511719-4.183593-19.335938-7.625-29.378907-10.289062-7.757812-2.089844-15.640625-3.691406-23.601562-4.792969-12.933594-14.902343-15.976563-35.988281-7.777344-53.9375s26.125-29.457031 45.859375-29.4375zm0 0"/></svg>