<svg height="512pt" viewBox="0 0 512 512.01443" width="512pt" xmlns="http://www.w3.org/2000/svg"><path d="m503.472656 324.28125c0 119.125-84.136718 166.742188-196.265625 176.980469-5.632812.511719-11.265625.9375-16.980469 1.195312-8.449218.597657-16.980468.851563-25.6875.9375-2.816406.085938-5.628906.085938-8.53125.085938-2.902343 0-5.71875 0-8.535156-.085938-8.703125-.085937-17.234375-.339843-25.683594-.9375-5.71875-.257812-11.351562-.683593-16.980468-1.195312-112.128906-10.238281-196.269532-57.855469-196.269532-176.980469 0-112.214844 166.742188-261.632812 226.476563-308.480469 3.664063-2.914062 7.914063-5.011719 12.457031-6.144531 5.597656-1.449219 11.472656-1.449219 17.066406 0 4.546876 1.132812 8.792969 3.230469 12.460938 6.144531 59.734375 46.847657 226.472656 196.265625 226.472656 308.480469zm0 0" fill="#9d9c24"/><path d="m477.875 324.28125c0 119.125-79.789062 166.742188-186.113281 176.980469-5.339844.511719-10.683594.9375-16.101563 1.195312-8.011718.597657-16.101562.851563-24.363281.9375-2.671875.085938-5.34375.085938-8.089844.085938-2.746093 0-5.417969 0-8.089843-.085938-8.261719-.085937-16.347657-.339843-24.363282-.9375-5.417968-.257812-10.757812-.683593-16.101562-1.195312-106.324219-10.238281-186.113282-57.855469-186.113282-176.980469 0-112.214844 158.117188-261.632812 214.761719-308.480469 11.527344-9.621093 28.285157-9.621093 39.816407 0 56.640624 46.847657 214.757812 196.265625 214.757812 308.480469zm0 0" fill="#ccdb39"/><path d="m187.742188 136.546875c-2.855469 0-5.703126.167969-8.535157.511719-34.214843 4.214844-59.921875 33.28125-59.921875 67.753906 0 34.476562 25.707032 63.542969 59.921875 67.757812 2.832031.34375 5.679688.511719 8.535157.511719 37.699218 0 68.265624-30.566406 68.265624-68.269531 0-37.699219-30.566406-68.265625-68.265624-68.265625zm0 0" fill="#fff"/><path d="m324.273438 136.546875c-2.851563 0-5.703126.167969-8.53125.511719-34.21875 4.214844-59.921876 33.28125-59.921876 67.753906 0 34.476562 25.703126 63.542969 59.921876 67.757812 2.828124.34375 5.679687.511719 8.53125.511719 37.703124 0 68.265624-30.566406 68.265624-68.269531 0-37.699219-30.5625-68.265625-68.265624-68.265625zm0 0" fill="#fff"/><path d="m230.40625 204.8125c0 23.566406-19.101562 42.667969-42.664062 42.667969-23.566407 0-42.667969-19.101563-42.667969-42.667969 0-23.5625 19.101562-42.664062 42.667969-42.664062 23.5625 0 42.664062 19.101562 42.664062 42.664062zm0 0" fill="#00bbd3"/><path d="m366.941406 204.8125c0 23.566406-19.101562 42.667969-42.667968 42.667969-23.5625 0-42.667969-19.101563-42.667969-42.667969 0-23.5625 19.105469-42.664062 42.667969-42.664062 23.566406 0 42.667968 19.101562 42.667968 42.664062zm0 0" fill="#00bbd3"/><path d="m213.339844 204.8125c0 14.140625-11.460938 25.601562-25.597656 25.601562-14.140626 0-25.601563-11.460937-25.601563-25.601562 0-14.136719 11.460937-25.597656 25.601563-25.597656 14.136718 0 25.597656 11.460937 25.597656 25.597656zm0 0" fill="#37474f"/><path d="m349.875 204.8125c0 14.140625-11.460938 25.601562-25.601562 25.601562-14.136719 0-25.597657-11.460937-25.597657-25.601562 0-14.136719 11.460938-25.597656 25.597657-25.597656 14.140624 0 25.601562 11.460937 25.601562 25.597656zm0 0" fill="#37474f"/><path d="m230.40625 298.679688c14.140625 0 25.601562 11.464843 25.601562 25.601562v25.601562h-51.199218v-25.601562c0-14.136719 11.460937-25.601562 25.597656-25.601562zm0 0" fill="#ffebb2"/><path d="m281.605469 298.679688c14.140625 0 25.601562 11.464843 25.601562 25.601562v25.601562h-51.199219v-25.601562c0-14.136719 11.460938-25.601562 25.597657-25.601562zm0 0" fill="#ffebb2"/><path d="m179.207031 179.214844c0 9.425781-7.640625 17.066406-17.066406 17.066406s-17.066406-7.640625-17.066406-17.066406c0-9.425782 7.640625-17.066406 17.066406-17.066406s17.066406 7.640624 17.066406 17.066406zm0 0" fill="#fff"/><path d="m315.742188 179.214844c0 9.425781-7.644532 17.066406-17.066407 17.066406-9.425781 0-17.070312-7.640625-17.070312-17.066406 0-9.425782 7.644531-17.066406 17.070312-17.066406 9.421875 0 17.066407 7.640624 17.066407 17.066406zm0 0" fill="#fff"/><path d="m282.265625 9.09375c-15.40625-12.125-37.109375-12.125-52.515625 0-9.378906 7.355469-229.7421875 181.632812-229.7421875 315.1875 0 111.878906 73.4960935 175.691406 213.1874995 186.171875h.144532.078125c13.601562 1.039063 27.796875 1.5625 42.589843 1.5625 14.789063 0 28.988282-.515625 42.589844-1.546875h.078125.144531c139.6875-10.496094 213.1875-74.308594 213.1875-186.1875 0-133.554688-220.367187-307.832031-229.742187-315.1875zm24.941406 483.507812v-23.253906c0-4.710937-3.820312-8.535156-8.53125-8.535156-4.714843 0-8.535156 3.824219-8.535156 8.535156v24.535156c-8.269531.476563-16.835937.75-25.601563.851563v-50.988281c0-4.710938-3.820312-8.53125-8.53125-8.53125-4.714843 0-8.535156 3.820312-8.535156 8.53125v51.003906c-8.761718-.117188-17.328125-.390625-25.597656-.851562v-24.550782c0-4.710937-3.820312-8.535156-8.535156-8.535156-4.710938 0-8.53125 3.824219-8.53125 8.535156v23.253906c-124.589844-11.613281-187.734375-68.019531-187.734375-168.320312s145.996093-241.238281 223.207031-301.746094c2.171875-1.695312 4.597656-3.027344 7.191406-3.953125v32.632813c0 4.710937 3.820313 8.53125 8.535156 8.53125 4.710938 0 8.53125-3.820313 8.53125-8.53125v-32.632813c2.597657.921875 5.023438 2.257813 7.195313 3.953125 77.210937 60.507813 223.207031 201.453125 223.207031 301.746094s-63.148437 156.707031-187.734375 168.320312zm0 0"/><path d="m256.007812 169.828125c-16.179687-31.570313-51.878906-47.949219-86.363281-39.628906-34.484375 8.324219-58.785156 39.183593-58.785156 74.65625 0 35.476562 24.300781 66.335937 58.785156 74.660156 34.484375 8.320313 70.183594-8.058594 86.363281-39.628906 16.179688 31.570312 51.878907 47.949219 86.363282 39.628906 34.484375-8.324219 58.78125-39.183594 58.78125-74.660156 0-35.472657-24.296875-66.332031-58.78125-74.65625-34.484375-8.320313-70.183594 8.058593-86.363282 39.628906zm-68.265624 94.71875c-24.160157 0-45.941407-14.550781-55.1875-36.875-9.246094-22.320313-4.136719-48.011719 12.949218-65.09375 17.082032-17.085937 42.773438-22.195313 65.09375-12.949219 22.324219 9.246094 36.875 31.027344 36.875 55.183594-.042968 32.972656-26.761718 59.691406-59.730468 59.734375zm196.265624-59.734375c0 32.992188-26.742187 59.734375-59.734374 59.734375-32.988282 0-59.734376-26.742187-59.734376-59.734375 0-32.988281 26.746094-59.730469 59.734376-59.730469 32.972656.042969 59.691406 26.761719 59.734374 59.730469zm0 0"/><path d="m187.742188 170.679688c-18.851563 0-34.136719 15.285156-34.136719 34.132812 0 18.851562 15.285156 34.136719 34.136719 34.136719 18.851562 0 34.132812-15.285157 34.132812-34.136719 0-18.847656-15.28125-34.132812-34.132812-34.132812zm0 51.203124c-9.425782 0-17.066407-7.644531-17.066407-17.070312 0-9.421875 7.640625-17.066406 17.066407-17.066406 9.425781 0 17.066406 7.644531 17.066406 17.066406 0 9.425781-7.640625 17.070312-17.066406 17.070312zm0 0"/><path d="m290.140625 204.8125c0 18.851562 15.28125 34.136719 34.132813 34.136719 18.851562 0 34.132812-15.285157 34.132812-34.136719 0-18.847656-15.28125-34.132812-34.132812-34.132812-18.851563 0-34.132813 15.285156-34.132813 34.132812zm51.199219 0c0 9.425781-7.640625 17.070312-17.066406 17.070312-9.425782 0-17.066407-7.644531-17.066407-17.070312 0-9.421875 7.640625-17.066406 17.066407-17.066406 9.425781 0 17.066406 7.644531 17.066406 17.066406zm0 0"/><path d="m392.539062 307.214844c0 18.851562-15.28125 34.132812-34.132812 34.132812h-42.664062v-17.066406c.0625-14.234375-8.75-27-22.082032-31.984375-13.332031-4.988281-28.359375-1.136719-37.652344 9.644531-9.292968-10.78125-24.320312-14.632812-37.652343-9.644531-13.332031 4.984375-22.144531 17.75-22.082031 31.984375v17.066406h-42.667969c-18.847657 0-34.132813-15.28125-34.132813-34.132812 0-4.714844-3.820312-8.535156-8.53125-8.535156-4.714844 0-8.535156 3.820312-8.535156 8.535156.027344 28.265625 22.9375 51.171875 51.199219 51.199218h204.800781c28.265625-.027343 51.171875-22.933593 51.199219-51.199218 0-4.714844-3.820313-8.535156-8.53125-8.535156-4.714844 0-8.535157 3.820312-8.535157 8.535156zm-179.199218 17.066406c0-9.425781 7.640625-17.066406 17.066406-17.066406s17.066406 7.640625 17.066406 17.066406v17.066406h-34.132812zm51.199218 17.066406v-17.066406c0-9.425781 7.640626-17.066406 17.066407-17.066406s17.070312 7.640625 17.070312 17.066406v17.066406zm0 0"/><path d="m281.605469 375.480469h-51.199219c-4.710938 0-8.53125 3.820312-8.53125 8.535156 0 4.710937 3.820312 8.53125 8.53125 8.53125h51.199219c4.714843 0 8.535156-3.820313 8.535156-8.53125 0-4.714844-3.820313-8.535156-8.535156-8.535156zm0 0"/></svg>