<svg height="511pt" viewBox="0 0 511 511.99095" width="511pt" xmlns="http://www.w3.org/2000/svg"><path d="m452.441406 401.058594c0 80.128906-87.894531 102.398437-196.269531 102.398437-2.386719 0-4.691406 0-6.996094-.085937-1.023437 0-2.046875.085937-3.070312 0-103.683594-1.363282-186.199219-24.660156-186.199219-102.3125.148438-13.472656 2.304688-26.847656 6.398438-39.679688l172.632812-147.117187c2.8125-.253907 5.628906-.511719 8.53125-.679688h.257812c2.8125-.171875 5.628907-.257812 8.445313-.257812 5.730469.011719 11.457031.324219 17.152344.9375l172.628906 147.03125v.085937c4.160156 12.820313 6.347656 26.199219 6.488281 39.679688zm0 0" fill="#37474f"/><path d="m426.839844 401.058594c0 77.652344-80.640625 100.949218-181.964844 102.3125-1 0-2.003906.085937-3.003906 0-101.324219-1.363282-181.964844-24.660156-181.964844-102.3125.144531-13.460938 2.25-26.828125 6.253906-39.679688l168.679688-147.117187c2.757812-.253907 5.503906-.511719 8.335937-.679688h.257813c2.832031.167969 30.523437.425781 33.277344.679688l143.789062 147.03125v.085937c4.070312 12.835938 6.207031 26.210938 6.339844 39.679688zm0 0" fill="#607d8a"/><path d="m222.039062 418.125c9.425782 0 17.066407 7.640625 17.066407 17.066406v25.597656h-34.132813v-25.597656c0-9.425781 7.640625-17.066406 17.066406-17.066406zm0 0" fill="#ffebb2"/><path d="m230.15625 254.121094-125.75 111.777344c-5.429688 4.796874-12.632812 7.078124-19.835938 6.285156-7.203124-.792969-13.734374-4.589844-17.992187-10.457032-28.253906-36.675781-47.175781-79.667968-55.140625-125.277343h-.085938c-18.859374-120.492188 64.9375-206.847657 85.332032-225.621094 2.605468-2.433594 6.441406-3.011719 9.644531-1.449219 131.761719 65.59375 134.707031 189.753906 132.378906 227.148438-.410156 6.765625-3.484375 13.09375-8.550781 17.59375zm0 0" fill="#607d8a"/><path d="m445.699219 361.71875c-7.707031 10.605469-22.167969 13.695312-33.535157 7.167969-1.535156-.828125-2.964843-1.832031-4.269531-2.988281l-125.78125-111.785157c-5.085937-4.484375-8.1875-10.808593-8.617187-17.578125-2.21875-36.265625.425781-154.367187 121.171875-221.269531 3.671875-1.960937 7.425781-3.925781 11.265625-5.886719 3.175781-1.570312 6.992187-.992187 9.558594 1.449219 26.964843 24.832031 164.433593 167.425781 30.207031 350.890625zm0 0" fill="#37474f"/><path d="m420.269531 361.71875c-2.21875 3.070312-5.035156 12.03125-8.105469 13.738281-1.453124-.765625-2.902343-8.363281-4.269531-9.558593l-125.78125-101.375c-5.117187-4.523438-8.191406-21.246094-8.617187-27.988282-2.21875-36.265625.425781-154.367187 121.171875-221.269531 34.902343 34.132813 153.429687 171.777344 25.601562 346.453125zm0 0" fill="#607d8a"/><path d="m145.238281 196.257812c-48.808593 73.128907-97.535156 67.925782-133.800781 40.191407h-.085938c-14.933593-95.230469 34.390626-169.214844 65.707032-205.226563 44.289062 30.121094 115.371094 94.207032 68.179687 165.035156zm0 0" fill="#e81e63"/><path d="m500.910156 236.363281c-11.417968 9.203125-24.929687 15.445313-39.339844 18.175781-29.097656 4.695313-61.867187-9.042968-94.71875-58.28125-40.363281-60.5 5.886719-116.140624 47.871094-149.84375 7.082032-5.71875 14.078125-10.753906 20.480469-15.105468 31.402344 36.09375 80.554687 109.910156 65.707031 205.054687zm0 0" fill="#ac1457"/><path d="m475.308594 245.496094c-4.34375 3.355468-8.9375 6.378906-13.738282 9.042968-29.097656 4.695313-61.867187-9.042968-94.71875-58.28125-40.363281-60.5 5.886719-116.140624 47.871094-149.84375 31.230469 37.886719 74.667969 108.882813 60.585938 199.082032zm0 0" fill="#e81e63"/><path d="m196.441406 273.058594c-2.859375-.035156-5.71875.195312-8.535156.683594-29.371094 4.214843-51.175781 29.378906-51.175781 59.046874 0 29.671876 21.804687 54.835938 51.175781 59.050782 2.816406.488281 5.675781.71875 8.535156.683594 32.988282 0 59.730469-26.742188 59.730469-59.734376 0-32.988281-26.742187-59.730468-59.730469-59.730468zm0 0" fill="#fff"/><path d="m315.90625 273.058594c-2.859375-.035156-5.714844.195312-8.535156.683594-29.367188 4.214843-51.175782 29.378906-51.175782 59.046874 0 29.671876 21.808594 54.835938 51.175782 59.050782 2.820312.488281 5.675781.71875 8.535156.683594 32.988281 0 59.734375-26.742188 59.734375-59.734376 0-32.988281-26.746094-59.730468-59.734375-59.730468zm0 0" fill="#fff"/><path d="m230.574219 332.789062c0 18.851563-15.285157 34.136719-34.132813 34.136719-18.851562 0-34.136718-15.285156-34.136718-34.136719 0-18.847656 15.285156-34.132812 34.136718-34.132812 18.847656 0 34.132813 15.285156 34.132813 34.132812zm0 0" fill="#e81e63"/><path d="m350.039062 332.789062c0 18.851563-15.28125 34.136719-34.132812 34.136719s-34.132812-15.285156-34.132812-34.136719c0-18.847656 15.28125-34.132812 34.132812-34.132812s34.132812 15.285156 34.132812 34.132812zm0 0" fill="#e81e63"/><path d="m213.507812 332.789062c0 9.425782-7.640624 17.070313-17.066406 17.070313-9.425781 0-17.070312-7.644531-17.070312-17.070313 0-9.421874 7.644531-17.066406 17.070312-17.066406 9.425782 0 17.066406 7.644532 17.066406 17.066406zm0 0" fill="#37474f"/><path d="m332.972656 332.789062c0 9.425782-7.640625 17.070313-17.066406 17.070313s-17.066406-7.644531-17.066406-17.070313c0-9.421874 7.640625-17.066406 17.066406-17.066406s17.066406 7.644532 17.066406 17.066406zm0 0" fill="#37474f"/><path d="m179.371094 315.722656c0 9.425782-7.640625 17.066406-17.066406 17.066406-9.425782 0-17.066407-7.640624-17.066407-17.066406 0-9.425781 7.640625-17.066406 17.066407-17.066406 9.425781 0 17.066406 7.640625 17.066406 17.066406zm0 0" fill="#fff"/><path d="m298.839844 315.722656c0 9.425782-7.640625 17.066406-17.066406 17.066406-9.425782 0-17.066407-7.640624-17.066407-17.066406 0-9.425781 7.640625-17.066406 17.066407-17.066406 9.425781 0 17.066406 7.640625 17.066406 17.066406zm0 0" fill="#fff"/><path d="m421.300781 4.496094c-5.234375-4.769532-12.855469-5.847656-19.207031-2.722656-79.519531 37.417968-132.019531 115.535156-136.628906 203.300781-6.230469-.359375-12.472656-.359375-18.703125 0-4.617188-87.769531-57.125-165.886719-136.652344-203.300781-6.347656-3.132813-13.964844-2.050782-19.183594 2.730468-14.21875 13.117188-106.609375 103.9375-87.953125 231.699219-.027344 1.015625.128906 2.027344.460938 2.984375 7.929687 44.910156 26.277344 87.335938 53.570312 123.871094-3.589844 12.351562-5.484375 25.136718-5.632812 38 0 74.648437 66.996094 110.933594 204.800781 110.933594s204.800781-36.285157 204.800781-110.933594c-.132812-12.894532-2.050781-25.710938-5.707031-38.078125 27.253906-36.519531 45.574219-78.914063 53.492187-123.792969.367188-1.011719.53125-2.089844.480469-3.164062 18.59375-127.660157-73.71875-218.410157-87.9375-231.527344zm71.972657 226.832031c-14.5 11.820313-33.222657 17.15625-51.773438 14.753906-23.253906-3.863281-45.976562-22.183593-67.550781-54.558593-12.863281-17.527344-17.851563-39.617188-13.773438-60.972657 8.296875-39.046875 47.550781-70.828125 73.574219-88.03125 30.296875 36.292969 71.597656 103.238281 59.523438 188.808594zm-414.851563-188.730469c25.976563 17.203125 65.164063 48.90625 73.449219 87.894532 4.105468 21.371093-.867188 43.484374-13.730469 61.039062-21.546875 32.324219-44.261719 50.679688-67.507813 54.550781-18.515624 2.402344-37.203124-2.910156-51.6875-14.691406-12.109374-85.53125 29.167969-152.464844 59.476563-188.792969zm365.484375 358.460938c0 63.144531-61.441406 93.867187-187.734375 93.867187s-187.730469-30.722656-187.730469-93.867187c.050782-6.804688.699219-13.59375 1.945313-20.285156 2.3125 2.902343 4.667969 5.792968 7.117187 8.714843 1.960938 2.332031 5.019532 3.441407 8.023438 2.90625 3.003906-.53125 5.492187-2.628906 6.53125-5.496093 1.039062-2.867188.472656-6.070313-1.492188-8.402344-31.628906-35.722656-54.578125-78.273438-67.046875-124.332032 11.695313 6.214844 24.707031 9.550782 37.949219 9.730469 4 0 7.996094-.328125 11.945312-.984375 28.09375-4.675781 54.613282-25.511718 78.910157-61.917968 15.476562-21.351563 21.351562-48.191407 16.210937-74.058594-8.949218-42.136719-46.234375-75.453125-78.726562-97.238282 5.117187-5.453124 9.539062-9.746093 12.679687-12.636718 108.203125 53.800781 126.523438 147.164062 128.085938 196.523437-.109375.523438-.160157 1.058594-.15625 1.59375 0 .238281.171875.425781.214843.664063.328126 10.128906-.164062 20.265625-1.46875 30.3125-.636718 4.613281 2.542969 8.882812 7.144532 9.597656 4.601562.714844 8.925781-2.390625 9.71875-6.976562 1.078125-8.777344 1.542968-17.617188 1.390625-26.453126 5.769531-.335937 11.554687-.335937 17.324219 0-.148438 8.835938.3125 17.675782 1.378906 26.453126.4375 3.039062 2.476562 5.609374 5.339844 6.730468 2.859374 1.121094 6.101562.613282 8.488281-1.324218s3.542969-5.007813 3.035156-8.035157c-.203125-1.546875-22.324219-154.949219 126.789063-229.085937 3.121093 2.875 7.507812 7.140625 12.59375 12.558594-32.554688 21.820312-69.894532 55.179687-78.847657 97.367187-5.125 25.859375.769531 52.683594 16.265625 74.007813 24.292969 36.421874 50.859375 57.261718 78.949219 61.929687 4.0625.679687 8.175781 1.019531 12.296875 1.023437 13.167969-.167968 26.097656-3.511718 37.691406-9.753906-12.464844 46.046875-35.40625 88.585938-67.027344 124.304688-3.035156 3.605468-2.570312 8.992187 1.035157 12.027344 3.609375 3.035156 8.992187 2.570312 12.027343-1.035157 2.476563-2.953125 4.863282-5.890625 7.203126-8.816406 1.257812 6.722656 1.910156 13.546875 1.945312 20.386719zm0 0"/><path d="m315.90625 264.523438c-24.851562.015624-47.730469 13.535156-59.734375 35.292968-15.042969-27.269531-46.636719-40.902344-76.800781-33.136718-30.160156 7.769531-51.242188 34.964843-51.242188 66.109374 0 31.148438 21.082032 58.34375 51.242188 66.113282 30.164062 7.765625 61.757812-5.867188 76.800781-33.136719 16.085937 29.160156 50.863281 42.457031 82.300781 31.46875s50.359375-43.058594 44.777344-75.886719c-5.582031-32.832031-34.042969-56.84375-67.34375-56.824218zm-119.464844 119.46875c-28.277344 0-51.203125-22.925782-51.203125-51.203126 0-28.273437 22.925781-51.199218 51.203125-51.199218 28.273438 0 51.199219 22.925781 51.199219 51.199218-.027344 28.265626-22.9375 51.171876-51.199219 51.203126zm119.464844 0c-28.277344 0-51.199219-22.925782-51.199219-51.203126 0-28.273437 22.921875-51.199218 51.199219-51.199218s51.199219 22.925781 51.199219 51.199218c-.027344 28.265626-22.933594 51.171876-51.199219 51.203126zm0 0"/><path d="m196.441406 307.191406c-14.140625 0-25.601562 11.460938-25.601562 25.597656 0 14.140626 11.460937 25.601563 25.601562 25.601563 14.136719 0 25.597656-11.460937 25.597656-25.601563 0-14.136718-11.460937-25.597656-25.597656-25.597656zm0 34.132813c-4.714844 0-8.535156-3.820313-8.535156-8.535157 0-4.710937 3.820312-8.53125 8.535156-8.53125 4.710938 0 8.53125 3.820313 8.53125 8.53125 0 4.714844-3.820312 8.535157-8.53125 8.535157zm0 0"/><path d="m315.90625 307.191406c-14.136719 0-25.601562 11.460938-25.601562 25.597656 0 14.140626 11.464843 25.601563 25.601562 25.601563s25.601562-11.460937 25.601562-25.601563c0-14.136718-11.464843-25.597656-25.601562-25.597656zm0 34.132813c-4.710938 0-8.535156-3.820313-8.535156-8.535157 0-4.710937 3.824218-8.53125 8.535156-8.53125s8.535156 3.820313 8.535156 8.53125c0 4.714844-3.824218 8.535157-8.535156 8.535157zm0 0"/><path d="m341.507812 418.125c-4.714843 0-8.535156 3.820312-8.535156 8.53125 0 14.140625-11.460937 25.601562-25.601562 25.601562h-59.730469v-17.066406c0-14.140625-11.460937-25.601562-25.601563-25.601562-14.136718 0-25.597656 11.460937-25.597656 25.601562v15.496094c-10.195312-3.601562-17.023437-13.21875-17.070312-24.03125 0-4.710938-3.820313-8.53125-8.53125-8.53125-4.714844 0-8.535156 3.820312-8.535156 8.53125.03125 23.554688 19.117187 42.640625 42.667968 42.667969h102.398438c23.554687-.027344 42.640625-19.113281 42.667968-42.667969 0-4.710938-3.820312-8.53125-8.53125-8.53125zm-128 34.132812v-17.066406c0-4.714844 3.820313-8.535156 8.53125-8.535156 4.714844 0 8.535157 3.820312 8.535157 8.535156v17.066406zm0 0"/></svg>