<svg height="512pt" viewBox="0 -13 512.03587 512" width="512pt" xmlns="http://www.w3.org/2000/svg"><path d="m486.351562 297.832031c-1.367187 125.355469-104.023437 180.050781-230.316406 180.050781-2.816406 0-5.628906 0-8.445312-.082031-122.371094-2.390625-220.503906-57.429687-221.867188-179.96875l16.554688-95.574219c14.734375-42.675781 38.183594-81.820312 68.863281-114.945312l36.351563-32.339844c28.988281-22.023437 63.777343-35.101562 100.097656-37.632812 2.816406-.167969 5.628906-.253906 8.445312-.253906 39.402344.738281 77.53125 14.074218 108.800782 38.058593l36.265624 32.339844c30.578126 33.105469 53.964844 72.183594 68.695313 114.773437v.085938zm0 0" fill="#2e7d32"/><path d="m460.835938 297.832031c-1.339844 122.539063-97.5 177.578125-217.515626 179.96875-120.011718-2.390625-216.257812-57.429687-217.597656-179.96875l16.210938-95.574219c14.378906-42.546874 37.367187-81.675781 67.535156-114.945312l35.660156-32.339844c28.277344-21.960937 62.421875-35.058594 98.132813-37.632812 35.824219 2.550781 70.082031 15.710937 98.398437 37.804687l35.550782 32.339844c30.085937 33.242187 53.027343 72.308594 67.410156 114.773437v.085938zm0 0" fill="#4cae50"/><path d="m55.339844 314.328125c-31.976563-7.363281-52.03125-39.140625-44.910156-71.175781 7.121093-32.03125 38.75-52.324219 70.835937-45.441406" fill="#4cae50"/><path d="m456.714844 314.328125c21.003906-4.464844 37.996094-19.859375 44.507812-40.320313 6.511719-20.464843 1.535156-42.847656-13.027344-58.625-14.566406-15.78125-36.480468-22.527343-57.394531-17.671874" fill="#2e7d32"/><path d="m431.113281 314.328125c21.007813-4.464844 38-19.859375 44.507813-40.320313 6.511718-20.464843 1.539062-42.847656-13.027344-58.625-14.5625-15.78125-36.476562-22.527343-57.394531-17.671874" fill="#4cae50"/><path d="m256.035156 332.816406v17.066406c-17.230468.003907-34.40625-1.941406-51.199218-5.800781v-11.265625c0-14.136718 11.460937-25.597656 25.601562-25.597656 14.136719 0 25.597656 11.460938 25.597656 25.597656zm0 0" fill="#ffebb2"/><path d="m307.238281 332.816406v11.265625c-16.796875 3.859375-33.972656 5.804688-51.203125 5.800781v-17.066406c0-14.136718 11.460938-25.597656 25.601563-25.597656 14.136719 0 25.601562 11.460938 25.601562 25.597656zm0 0" fill="#ffebb2"/><path d="m187.769531 119.484375c-2.851562 0-5.703125.167969-8.53125.511719-34.21875 4.214844-59.921875 33.28125-59.921875 67.753906 0 34.476562 25.703125 63.542969 59.921875 67.757812 2.828125.339844 5.679688.511719 8.53125.511719 37.703125 0 68.265625-30.566406 68.265625-68.269531s-30.5625-68.265625-68.265625-68.265625zm0 0" fill="#fff"/><path d="m324.304688 119.484375c-2.855469 0-5.703126.167969-8.535157.511719-34.214843 4.214844-59.921875 33.28125-59.921875 67.753906 0 34.476562 25.707032 63.542969 59.921875 67.757812 2.832031.339844 5.679688.511719 8.535157.511719 37.699218 0 68.265624-30.566406 68.265624-68.269531s-30.566406-68.265625-68.265624-68.265625zm0 0" fill="#fff"/><path d="m149.683594 86.203125c7.359375-5.457031 9.058594-15.769531 3.84375-23.304687-14.074219-19.992188-45.332032-54.347657-93.757813-54.347657-68.265625 0-42.667969 76.800781 0 68.265625 21.148438-4.140625 43.015625 1.859375 59.085938 16.214844 6.050781 5.046875 14.789062 5.238281 21.058593.460938zm0 0" fill="#4cae50"/><path d="m452.816406 76.816406c-2.144531-.429687-4.308594-.742187-6.488281-.9375-6.222656-.714844-12.519531-.511718-18.6875.597656-12.542969 2.464844-24.222656 8.171876-33.875 16.554688-6.050781 5.058594-14.789063 5.269531-21.078125.511719l-1.449219-1.109375-8.363281-6.230469c-7.308594-5.492187-8.964844-15.78125-3.757812-23.292969 12.800781-18.261718 39.9375-48.472656 81.410156-53.589844 4.074218-.523437 8.179687-.777343 12.289062-.769531 68.265625 0 42.664063 76.800781 0 68.265625zm0 0" fill="#2e7d32"/><path d="m446.328125 75.878906c-5.402344 1.738282-11.160156 2.058594-16.722656.9375-.648438-.144531-1.304688-.261718-1.964844-.339844-20.242187-3.375-40.929687 2.476563-56.402344 15.957032l-8.363281-6.230469c-7.308594-5.492187-8.964844-15.78125-3.757812-23.292969 12.800781-18.261718 39.9375-48.472656 81.410156-53.589844 46.25 6.65625 34.988281 56.746094 5.800781 66.558594zm0 0" fill="#4cae50"/><path d="m230.4375 187.75c0 23.566406-19.105469 42.667969-42.667969 42.667969s-42.667969-19.101563-42.667969-42.667969c0-23.5625 19.105469-42.664062 42.667969-42.664062s42.667969 19.101562 42.667969 42.664062zm0 0" fill="#f34335"/><path d="m366.96875 187.75c0 23.566406-19.101562 42.667969-42.664062 42.667969-23.566407 0-42.667969-19.101563-42.667969-42.667969 0-23.5625 19.101562-42.664062 42.667969-42.664062 23.5625 0 42.664062 19.101562 42.664062 42.664062zm0 0" fill="#f34335"/><path d="m213.371094 187.75c0 14.140625-11.464844 25.601562-25.601563 25.601562s-25.601562-11.460937-25.601562-25.601562c0-14.136719 11.464843-25.597656 25.601562-25.597656s25.601563 11.460937 25.601563 25.597656zm0 0" fill="#37474f"/><path d="m349.902344 187.75c0 14.140625-11.460938 25.601562-25.597656 25.601562-14.140626 0-25.601563-11.460937-25.601563-25.601562 0-14.136719 11.460937-25.597656 25.601563-25.597656 14.136718 0 25.597656 11.460937 25.597656 25.597656zm0 0" fill="#37474f"/><path d="m179.238281 162.152344c0 9.425781-7.644531 17.066406-17.070312 17.066406s-17.066407-7.640625-17.066407-17.066406c0-9.425782 7.640626-17.066406 17.066407-17.066406s17.070312 7.640624 17.070312 17.066406zm0 0" fill="#fff"/><path d="m315.769531 162.152344c0 9.425781-7.640625 17.066406-17.066406 17.066406s-17.066406-7.640625-17.066406-17.066406c0-9.425782 7.640625-17.066406 17.066406-17.066406s17.066406 7.640624 17.066406 17.066406zm0 0" fill="#fff"/><path d="m17.300781 301.304688c2.960938 115.992187 91.894531 185.113281 238.734375 185.113281 146.84375 0 235.785156-69.121094 238.738282-185.128907 2.414062-2.699218 4.617187-5.578124 6.578124-8.621093 10.132813-15.886719 13.230469-35.257813 8.554688-53.511719s-16.703125-33.753906-33.222656-42.8125c-13.953125-39.121094-35.078125-75.292969-62.292969-106.667969 11.410156-5.464843 24.300781-7.039062 36.691406-4.476562 16.144531 3.125 32.632813-3.386719 42.292969-16.691407 10.503906-12.75 12.953125-30.316406 6.332031-45.449218-4.269531-8.609375-15.976562-23.0390628-46.875-23.0390628-34.824219.7773438-67.5625 16.7578128-89.601562 43.7304688-31.308594-22.382812-68.710938-34.664062-107.195313-35.199219-38.324218.691407-75.554687 12.878907-106.871094 34.988281-22.023437-26.851562-54.675781-42.746093-89.394531-43.5195308-30.90625 0-42.667969 14.4374998-46.875 23.0390628-6.628906 15.113281-4.207031 32.667968 6.265625 45.421875 9.648438 13.335937 26.160156 19.851562 42.316406 16.699219 12.265626-2.554688 25.027344-1.058594 36.367188 4.269531-27.316406 31.410156-48.5 67.667969-62.453125 106.886719-16.539063 9.054687-28.582031 24.5625-33.261719 42.828124-4.675781 18.265626-1.574218 37.65625 8.574219 53.546876 1.972656 3.03125 4.175781 5.90625 6.597656 8.59375zm1.023438-56.398438c6.140625-27.589844 33.476562-44.984375 61.070312-38.859375 4.605469 1.019531 9.167969-1.886719 10.1875-6.488281 1.019531-4.605469-1.886719-9.164063-6.492187-10.1875-8.742188-1.9375-17.785156-2.128906-26.605469-.5625 13.5-32.929688 32.40625-63.375 55.9375-90.078125 3.21875 2.628906 6.164063 5.582031 8.789063 8.808593 2.828124 3.769532 8.175781 4.535157 11.945312 1.707032s4.535156-8.179688 1.707031-11.949219c-18.289062-23.085937-47.835937-34.179687-76.800781-28.839844-9.746094 1.742188-19.628906-2.292969-25.367188-10.359375-6.445312-7.632812-8.175781-18.191406-4.5-27.480468 4.269532-8.726563 15.515626-13.53125 31.574219-13.53125 62.039063 0 94.457031 62.921874 94.769531 63.554687 1.367188 2.734375 4.085938 4.535156 7.136719 4.71875 3.050781.1875 5.96875-1.269531 7.652344-3.816406 1.6875-2.550781 1.886719-5.804688.523437-8.539063-2.976562-5.582031-6.332031-10.949218-10.046874-16.070312 28.261718-19.75 61.757812-30.648438 96.230468-31.316406 34.648438.535156 68.324219 11.542968 96.597656 31.574218-3.636718 5.046875-6.925781 10.339844-9.839843 15.835938-1.980469 4.195312-.25 9.203125 3.898437 11.277344 4.144532 2.078124 9.191406.460937 11.359375-3.636719.324219-.660157 32.742188-63.582031 94.78125-63.582031 16.050781 0 27.308594 4.804687 31.574219 13.53125 3.671875 9.289062 1.949219 19.84375-4.488281 27.480468-5.757813 8.070313-15.652344 12.105469-25.414063 10.359375-28.964844-5.335937-58.507812 5.757813-76.800781 28.839844-1.828125 2.441406-2.214844 5.667969-1.019531 8.472656 1.199218 2.804688 3.800781 4.753907 6.828125 5.121094 3.027343.363281 6.015625-.914063 7.847656-3.351563 2.550781-3.136718 5.410156-6.011718 8.53125-8.585937 23.5 26.59375 42.335937 56.96875 55.714844 89.839844-8.835938-1.574219-17.894531-1.386719-26.65625.554687-2.980469.660156-5.378907 2.859375-6.296875 5.773438-.914063 2.910156-.210938 6.085937 1.851562 8.335937 2.0625 2.246094 5.167969 3.226563 8.148438 2.5625 22.007812-4.902343 44.636718 5.171875 55.71875 24.8125 11.082031 19.636719 8.015625 44.214844-7.558594 60.523438-.195312.179687-.382812.339843-.570312.535156-6.90625 7.074219-15.726563 11.972656-25.378907 14.097656-4.261719.929688-7.136719 4.925781-6.664062 9.265625.472656 4.335938 4.144531 7.617188 8.507812 7.605469.625-.003906 1.246094-.066406 1.859375-.195313 6.355469-1.433593 12.476563-3.761718 18.175782-6.914062-9.871094 96.574219-90.914063 153.601562-220.707032 153.601562-129.789062 0-210.832031-57.027343-220.703125-153.558593 5.699219 3.128906 11.816407 5.425781 18.164063 6.828125.609375.128906 1.230468.191406 1.851562.195312 4.296875-.070312 7.871094-3.324218 8.34375-7.59375.472656-4.269531-2.304687-8.226562-6.480468-9.234375-9.726563-2.140625-18.605469-7.09375-25.53125-14.242187-.09375-.09375-.199219-.160156-.300782-.253906-2.339844-2.449219-4.4375-5.121094-6.253906-7.980469-7.328125-11.4375-9.777344-25.332031-6.800781-38.585938zm0 0"/><path d="m202.925781 352.445312c17.421875 3.984376 35.238281 5.988282 53.109375 5.972657 4.464844 0 8.9375-.128907 13.390625-.375 13.375-.757813 26.664063-2.644531 39.722657-5.640625 58.003906-14.410156 110.242187-46.144532 149.757812-90.984375 2.875-3.652344 2.300781-8.933594-1.296875-11.878907-3.597656-2.945312-8.886719-2.46875-11.902344 1.070313-34.953125 38.839844-79.898437 67.335937-129.9375 82.378906v-.171875c.0625-14.230468-8.75-26.996094-22.082031-31.984375-13.332031-4.984375-28.359375-1.136719-37.652344 9.644531-9.292968-10.78125-24.316406-14.628906-37.648437-9.644531-13.332031 4.988281-22.148438 17.753907-22.082031 31.984375v.179688c-50.039063-15.050782-94.984376-43.550782-129.9375-82.386719-3.015626-3.539063-8.308594-4.015625-11.902344-1.070313-3.597656 2.945313-4.175782 8.226563-1.300782 11.878907 39.511719 44.855469 91.753907 76.605469 149.761719 91.027343zm78.710938-36.695312c9.425781 0 17.066406 7.640625 17.066406 17.066406v4.269532l-2.160156.433593c-4.214844.785157-8.449219 1.449219-12.703125 1.988281-.855469.109376-1.757813.273438-2.640625.375-4.90625.5625-9.828125.914063-14.761719 1.144532-.621094 0-1.246094 0-1.867188.058594v-8.269532c0-9.425781 7.640626-17.066406 17.066407-17.066406zm-51.199219 0c9.425781 0 17.066406 7.640625 17.066406 17.066406v8.269532c-.625 0-1.246094 0-1.871094-.050782-4.929687-.230468-9.855468-.578125-14.761718-1.144531-.851563-.101563-1.707032-.261719-2.636719-.375-4.265625-.535156-8.511719-1.199219-12.738281-1.996094l-2.125-.433593v-4.269532c0-9.425781 7.640625-17.066406 17.066406-17.066406zm0 0"/><path d="m301.261719 369.398438c-12.757813 10.277343-28.863281 15.484374-45.226563 14.621093-16.355468.855469-32.457031-4.34375-45.226562-14.601562-3.355469-3.226563-8.679688-3.164063-11.960938.136719-3.285156 3.300781-3.316406 8.625-.070312 11.964843 15.945312 13.488281 36.390625 20.476563 57.257812 19.566407 20.859375.902343 41.292969-6.082032 57.234375-19.566407 3.347657-3.320312 3.367188-8.726562.046875-12.070312-3.320312-3.347657-8.722656-3.367188-12.070312-.050781zm0 0"/><path d="m187.769531 264.550781c28.796875-.039062 55.148438-16.179687 68.265625-41.8125 16.167969 31.585938 51.867188 47.988281 86.363282 39.675781 34.496093-8.316406 58.804687-39.179687 58.804687-74.664062s-24.308594-66.347656-58.804687-74.660156c-34.496094-8.316406-70.195313 8.085937-86.363282 39.675781-17.207031-33.625-56.3125-49.746094-92.21875-38.015625-35.902344 11.730469-57.949218 47.828125-51.984375 85.125 5.964844 37.300781 38.164063 64.726562 75.9375 64.675781zm136.535157-136.53125c32.988281 0 59.730468 26.742188 59.730468 59.730469 0 32.992188-26.742187 59.734375-59.730468 59.734375-32.992188 0-59.734376-26.742187-59.734376-59.734375.035157-32.972656 26.757813-59.695312 59.734376-59.730469zm-136.535157 0c32.988281 0 59.734375 26.742188 59.734375 59.730469 0 32.992188-26.746094 59.734375-59.734375 59.734375s-59.734375-26.742187-59.734375-59.734375c.039063-32.972656 26.761719-59.695312 59.734375-59.730469zm0 0"/><path d="m187.769531 221.882812c18.851563 0 34.132813-15.28125 34.132813-34.132812s-15.28125-34.132812-34.132813-34.132812c-18.851562 0-34.132812 15.28125-34.132812 34.132812s15.28125 34.132812 34.132812 34.132812zm0-51.199218c9.425781 0 17.066407 7.640625 17.066407 17.066406s-7.640626 17.066406-17.066407 17.066406-17.066406-7.640625-17.066406-17.066406 7.640625-17.066406 17.066406-17.066406zm0 0"/><path d="m324.304688 221.882812c18.851562 0 34.132812-15.28125 34.132812-34.132812s-15.28125-34.132812-34.132812-34.132812c-18.851563 0-34.136719 15.28125-34.136719 34.132812s15.285156 34.132812 34.136719 34.132812zm0-51.199218c9.425781 0 17.066406 7.640625 17.066406 17.066406s-7.640625 17.066406-17.066406 17.066406c-9.425782 0-17.066407-7.640625-17.066407-17.066406s7.640625-17.066406 17.066407-17.066406zm0 0"/></svg>