<svg height="512pt" viewBox="0 -43 512.00045 512" width="512pt" xmlns="http://www.w3.org/2000/svg"><path d="m503.46875 164.011719c.011719 4.359375-.828125 8.679687-2.476562 12.714843-3.359376 8.40625-9.921876 15.136719-18.246094 18.707032-8.320313 3.566406-17.71875 3.683594-26.128906.320312l-.167969-.085937-37.546875-14.078125h-325.71875l-37.800782 14.164062c-17.507812 6.933594-37.328124-1.566406-44.375-19.027344-1.648437-4.035156-2.488281-8.355468-2.472656-12.714843.003906-13.9375 8.484375-26.46875 21.417969-31.660157l141.226563-52.992187.167968-.085937 143.789063.085937h25.597656l141.3125 52.992187c12.933594 5.191407 21.414063 17.722657 21.421875 31.660157zm0 0" fill="#6a1b99"/><path d="m477.867188 164.011719c.011718 4.359375-.828126 8.679687-2.476563 12.714843-7.042969 17.460938-26.863281 25.960938-44.371094 19.027344l-37.71875-14.164062h-325.714843l-37.632813 14.078125c-8.652344-3.441407-15.503906-10.292969-18.945313-18.941407-1.648437-4.035156-2.488281-8.355468-2.472656-12.714843.003906-13.9375 8.484375-26.46875 21.417969-31.660157l141.226563-52.992187.167968-.085937 143.789063.085937 141.3125 52.992187c12.933593 5.191407 21.410156 17.722657 21.417969 31.660157zm0 0" fill="#9c27af"/><path d="m312.746094 63.488281c-1.265625-.5-2.207032-1.585937-2.53125-2.910156-.320313-1.320313.019531-2.71875.910156-3.746094 7.390625-7.707031 15.804688-14.371093 25.003906-19.796875 1.210938-.765625 1.96875-2.082031 2.019532-3.515625.050781-1.433593-.609376-2.800781-1.765626-3.652343-8.851562-6.4375-20.058593-8.710938-30.71875-6.230469h-.085937c-7.285156 1.542969-14.242187 4.34375-20.566406 8.277343-1.015625.632813-2.25.804688-3.402344.480469s-2.117187-1.117187-2.65625-2.1875c-.429687-1.070312-.742187-2.1875-.9375-3.328125-.503906-4.292968-.007813-8.644531 1.453125-12.714844.398438-1.347656.105469-2.804687-.78125-3.898437-.886719-1.089844-2.257812-1.675781-3.65625-1.5625-4.550781.175781-9.085938.660156-13.570312 1.453125-21.160157 3.839844-27.902344 13.566406-30.035157 19.371094-.351562 1.070312-1.121093 1.953125-2.132812 2.453125-1.011719.496093-2.179688.566406-3.246094.191406-3.742187-1.460937-7.683594-2.351563-11.6875-2.644531-.351563 1.070312-1.121094 1.953125-2.132813 2.453125-1.011718.496093-2.183593.566406-3.246093.191406-2.070313-.820313-4.210938-1.449219-6.398438-1.878906-8.71875 2.046875-16.785156 6.242187-23.46875 12.203125-1.320312 1.199218-1.753906 3.097656-1.089843 4.75.667968 1.65625 2.292968 2.722656 4.078124 2.675781 7.898438-.6875 15.84375.480469 23.210938 3.410156 1.542969.753907 2.484375 2.355469 2.390625 4.070313-.09375 1.710937-1.203125 3.203125-2.816406 3.78125-74.15625 29.183594-128.085938 118.273437-128.085938 203.351562 0 43.605469 14.164063 53.503906 37.972657 80.125 4.75 22.363282 14.429687 43.378906 28.332031 61.527344 1.789062 2.390625 3.753906 4.691406 5.800781 6.996094.945312 1.015625 2.324219 1.511718 3.699219 1.324218s2.574219-1.03125 3.214843-2.261718c1-2.054688 2.292969-3.949219 3.839844-5.632813 3.753906-3.839843 9.386719-5.886719 17.40625.257813 2.402344 1.839844 4.605469 3.925781 6.570313 6.226562.90625 1.039063 2.261719 1.574219 3.632812 1.4375 1.371094-.132812 2.59375-.921875 3.28125-2.117187 2.785157-5.324219 6.792969-9.917969 11.6875-13.398438 2.210938-1.488281 4.769531-2.371093 7.425781-2.558593 2.617188-.234376 5.246094.269531 7.59375 1.449218 2.804688 1.328125 5.351563 3.148438 7.511719 5.375h.082031c.941407.9375 1.964844 1.964844 2.902344 3.074219 1.351563 1.660156 3.726563 2.058594 5.546875.9375 4.308594-2.75 9.128907-4.605469 14.167969-5.460937 2.808594-.539063 5.667969-.792969 8.53125-.769532 4.78125-.03125 9.539062.71875 14.082031 2.21875h.082031c3.019532.925782 5.894532 2.277344 8.535157 4.011719 1.820312 1.121094 4.195312.722656 5.546875-.9375 2.382812-2.90625 5.238281-5.386719 8.449218-7.339844.679688-.425781 1.363282-.769531 2.046876-1.109375 2.347656-1.179687 4.976562-1.683594 7.59375-1.449218 6.414062 1.117187 12.058593 4.898437 15.53125 10.410156 1.363281 1.875 2.558593 3.839844 3.582031 5.546875.6875 1.195312 1.910156 1.984375 3.28125 2.117187 1.371093.136719 2.726562-.398437 3.632812-1.4375 2.054688-2.410156 4.375-4.585937 6.910157-6.484375 7.511718-5.546875 12.972656-4.011719 16.554687-.425781 1.804687 1.742188 3.277344 3.792969 4.351563 6.058594.640624 1.230468 1.839843 2.074218 3.214843 2.261718s2.753907-.308593 3.699219-1.324218c17.054688-19.542969 28.808594-43.136719 34.132812-68.523438 23.808594-26.621094 37.972657-36.519531 37.972657-80.125 0-82.945312-51.371094-169.644531-122.453125-201.046875zm0 0" fill="#6a1b99"/><path d="m214.359375 29.527344c-.351563 1.070312-1.121094 1.953125-2.132813 2.453125-1.011718.496093-2.183593.566406-3.246093.191406-2.070313-.820313-4.210938-1.449219-6.398438-1.878906 3.863281-.863281 7.835938-1.121094 11.777344-.765625zm0 0" fill="#cc66a1"/><path d="m409.601562 264.535156c0 43.605469-13.808593 53.503906-37.027343 80.125-4.597657 22.285156-14.027344 43.285156-27.621094 61.527344-3.492187-3.585938-8.816406-5.121094-16.136719.425781-2.484375 1.902344-4.746094 4.078125-6.742187 6.484375-.871094 1.046875-2.199219 1.589844-3.550781 1.453125-1.351563-.136719-2.546876-.9375-3.191407-2.132812-.996093-1.707031-2.160156-3.671875-3.488281-5.546875-3.335938-5.472656-8.847656-9.257813-15.148438-10.410156-2.554687-.230469-5.121093.269531-7.398437 1.449218-.683594.335938-1.351563.703125-1.996094 1.109375-3.144531 1.960938-5.929687 4.441407-8.242187 7.339844-1.292969 1.660156-3.636719 2.066406-5.410156.9375-2.566407-1.730469-5.371094-3.082031-8.320313-4.011719h-.078125c-4.421875-1.5-9.0625-2.25-13.730469-2.21875-2.792969-.023437-5.578125.230469-8.320312.769532-4.925781.859374-9.625 2.71875-13.804688 5.460937-1.777343 1.128906-4.121093.722656-5.410156-.9375-.914063-1.109375-1.921875-2.136719-2.835937-3.074219h-.074219c-2.101563-2.21875-4.582031-4.039062-7.332031-5.375-2.277344-1.179687-4.84375-1.679687-7.398438-1.449218-2.597656.1875-5.101562 1.074218-7.242188 2.558593-4.789062 3.511719-8.683593 8.101563-11.367187 13.398438-.644531 1.195312-1.839844 1.996093-3.191406 2.132812-1.351563.136719-2.679688-.40625-3.550781-1.453125-1.910157-2.292968-4.058594-4.382812-6.410157-6.226562-7.816406-6.144532-13.308593-4.097656-16.972656-.257813-1.507813 1.6875-2.765625 3.585938-3.734375 5.632813-.589844 1.238281-1.761719 2.097656-3.117188 2.289062-1.359374.1875-2.722656-.320312-3.625-1.351562-1.996093-2.304688-3.917968-4.605469-5.660156-6.996094-13.59375-18.242188-23.023437-39.242188-27.621094-61.527344-23.246093-26.621094-37.050781-36.519531-37.050781-80.125 0-85.078125 52.582031-174.167968 124.882813-203.351562 1.574218-.621094 2.636718-2.101563 2.726562-3.789063s-.8125-3.273437-2.304687-4.0625c-7.164063-2.925781-14.925781-4.097656-22.632813-3.410156-1.769531.019531-3.371094-1.058594-4.019531-2.707031-.648437-1.648438-.210937-3.527344 1.101563-4.71875 6.472656-5.9375 14.34375-10.136719 22.878906-12.203125 2.136718.429687 4.226562 1.058593 6.246094 1.878906 1.042968.367187 2.195312.296875 3.183593-.203125s1.730469-1.382812 2.054688-2.441406c3.914062.292968 7.757812 1.1875 11.402343 2.644531 1.042969.367187 2.195313.296875 3.183594-.203125.988282-.5 1.730469-1.382812 2.054688-2.441406 2.082031-5.804688 8.652344-15.53125 29.285156-19.371094 4.371094-.792969 8.789062-1.277344 13.226562-1.453125 1.382813-.074219 2.71875.527344 3.578126 1.613281.859374 1.085938 1.140624 2.519532.75 3.847656-1.417969 4.082032-1.898438 8.425782-1.410157 12.714844.1875 1.140625.492188 2.257813.914063 3.328125.492187 1.074219 1.429687 1.878907 2.5625 2.207031 1.132812.324219 2.355468.144532 3.34375-.5 6.140625-3.925781 12.929687-6.726562 20.054687-8.277343h.082031c4.828126 1.109375 9.363282 3.234375 13.304688 6.230469 1.128906.867187 1.773438 2.222656 1.722656 3.648437-.046875 1.421875-.78125 2.734375-1.96875 3.519531-8.996094 5.449219-17.203125 12.109375-24.378906 19.796875-.867188 1.035157-1.191406 2.414063-.878906 3.726563s1.226562 2.398437 2.464844 2.929687c69.296874 31.402344 119.390624 118.101563 119.390624 201.046875zm0 0" fill="#9c27af"/><path d="m196.265625 136.535156c-2.859375-.035156-5.714844.191406-8.53125.679688-29.371094 4.21875-51.175781 29.382812-51.175781 59.050781 0 29.671875 21.804687 54.835937 51.175781 59.050781 2.816406.488282 5.671875.71875 8.53125.683594 32.992187 0 59.734375-26.742188 59.734375-59.734375 0-32.988281-26.742188-59.730469-59.734375-59.730469zm0 0" fill="#fff"/><path d="m315.734375 136.535156c-2.859375-.035156-5.714844.191406-8.535156.679688-29.367188 4.21875-51.175781 29.382812-51.175781 59.050781 0 29.671875 21.808593 54.835937 51.175781 59.050781 2.820312.488282 5.675781.71875 8.535156.683594 32.988281 0 59.734375-26.742188 59.734375-59.734375 0-32.988281-26.746094-59.730469-59.734375-59.730469zm0 0" fill="#fff"/><path d="m230.398438 196.265625c0 18.851563-15.28125 34.132813-34.132813 34.132813s-34.132813-15.28125-34.132813-34.132813 15.28125-34.132813 34.132813-34.132813 34.132813 15.28125 34.132813 34.132813zm0 0" fill="#ff9701"/><path d="m349.867188 196.265625c0 18.851563-15.28125 34.132813-34.132813 34.132813s-34.132813-15.28125-34.132813-34.132813 15.28125-34.132813 34.132813-34.132813 34.132813 15.28125 34.132813 34.132813zm0 0" fill="#ff9701"/><path d="m213.332031 196.265625c0 9.425781-7.640625 17.066406-17.066406 17.066406s-17.066406-7.640625-17.066406-17.066406 7.640625-17.066406 17.066406-17.066406 17.066406 7.640625 17.066406 17.066406zm0 0" fill="#37474f"/><path d="m332.800781 196.265625c0 9.425781-7.640625 17.066406-17.066406 17.066406s-17.066406-7.640625-17.066406-17.066406 7.640625-17.066406 17.066406-17.066406 17.066406 7.640625 17.066406 17.066406zm0 0" fill="#37474f"/><path d="m221.867188 307.199219h34.132812v17.066406c0 9.425781-7.640625 17.066406-17.066406 17.066406-9.425782 0-17.066406-7.640625-17.066406-17.066406zm0 0" fill="#ffebb2"/><path d="m256 307.199219h34.132812v17.066406c0 9.425781-7.640624 17.066406-17.066406 17.066406-9.425781 0-17.066406-7.640625-17.066406-17.066406zm0 0" fill="#ffebb2"/><path d="m187.734375 170.667969c0 9.425781-7.640625 17.066406-17.066406 17.066406s-17.066407-7.640625-17.066407-17.066406 7.640626-17.066407 17.066407-17.066407 17.066406 7.640626 17.066406 17.066407zm0 0" fill="#fff"/><path d="m307.199219 170.667969c0 9.425781-7.640625 17.066406-17.066407 17.066406-9.425781 0-17.066406-7.640625-17.066406-17.066406s7.640625-17.066407 17.066406-17.066407c9.425782 0 17.066407 7.640626 17.066407 17.066407zm0 0" fill="#fff"/><path d="m485.050781 124.355469-140.722656-52.769531c-7.203125-4.984376-14.761719-9.433594-22.621094-13.304688 7.089844-6.457031 14.953125-12.007812 23.414063-16.519531 2.449218-1.226563 4.15625-3.558594 4.59375-6.261719s-.449219-5.453125-2.382813-7.390625c-19.625-19.625-44.59375-14.90625-60.824219-6.902344.496094-3.070312 1.429688-6.054687 2.773438-8.859375 1.324219-2.652344 1.179688-5.804687-.386719-8.320312-1.566406-2.519532-4.328125-4.042969-7.292969-4.027344-37.121093 0-51.203124 12.9375-56.492187 22.894531-28.160156-8.292969-51.933594 10.726563-61.269531 23.1875-2.089844 2.789063-2.273438 6.570313-.460938 9.546875 1.785156 3 5.238282 4.585938 8.679688 3.984375 5.890625-1.046875 11.882812-1.421875 17.859375-1.117187-7.566407 3.777344-14.855469 8.085937-21.8125 12.894531l-141.300781 53.027344c-16.144532 6.53125-26.7343755 22.175781-26.804688 39.59375-.015625 5.441406 1.03125 10.835937 3.082031 15.878906 6.507813 16.214844 22.214844 26.84375 39.6875 26.863281 5.347657 0 10.644531-1.019531 15.605469-3.003906l20.695312-7.757812c-7.027343 22.175781-10.667968 45.28125-10.804687 68.542968 0 42.023438 12.953125 56.121094 32.554687 77.464844 1.964844 2.132812 4.003907 4.359375 6.128907 6.714844 6.324219 28.414062 20.378906 54.527344 40.617187 75.453125 2.175782 2.171875 5.351563 3.007812 8.3125 2.183593 2.960938-.820312 5.253906-3.171874 6-6.152343.792969-3.140625 3.453125-8.285157 5.390625-8.679688 1.230469-.253906 5.972657 1.460938 13.65625 11.734375 1.832031 2.476563 4.875 3.753906 7.925781 3.328125 3.058594-.390625 5.667969-2.398437 6.828126-5.257812 1.996093-4.921875 8.472656-15.886719 14.964843-16.382813 1.101563-.035156 2.191407.226563 3.160157.757813 3.945312 2.160156 7.304687 5.257812 9.769531 9.019531 1.484375 1.921875 3.714843 3.125 6.132812 3.3125 2.429688.171875 4.824219-.664062 6.617188-2.3125 5.609375-4.335938 12.59375-6.507812 19.675781-6.117188 7.03125-.375 13.96875 1.761719 19.566406 6.03125 1.75 1.75 4.171875 2.652344 6.640625 2.476563 2.464844-.171875 4.734375-1.410156 6.21875-3.390625 2.5-3.8125 5.914063-6.941406 9.933594-9.09375 1.03125-.523438 2.183594-.757812 3.335937-.675781 6.1875.46875 12.664063 11.433593 14.652344 16.34375 1.144532 2.859375 3.742188 4.886719 6.800782 5.292969 3.054687.40625 6.09375-.867188 7.945312-3.332032 7.679688-10.292968 12.433594-11.945312 13.652344-11.734375 1.777344.351563 4.464844 5.121094 5.402344 8.679688.738281 2.976562 3.019531 5.332031 5.972656 6.160156.742187.203125 1.507812.308594 2.277344.308594 2.265624 0 4.433593-.902344 6.035156-2.5 20.238281-20.925781 34.292968-47.039063 40.617187-75.453125 2.125-2.355469 4.164063-4.582032 6.128907-6.714844 19.601562-21.34375 32.554687-35.441406 32.554687-77.464844-.132813-23.257812-3.761719-46.363281-10.761719-68.542968l20.480469 7.683593c21.871094 8.757813 46.699219-1.867187 55.464844-23.734375 2.054687-5.058594 3.101562-10.46875 3.082031-15.929687-.085938-17.46875-10.738281-33.144531-26.949219-39.65625zm-432.835937 63.480469c-6.3125 2.519531-13.371094 2.421874-19.613282-.265626-6.242187-2.691406-11.160156-7.75-13.664062-14.070312-1.238281-3.011719-1.875-6.234375-1.871094-9.488281.019532-10.375 6.289063-19.71875 15.882813-23.671875l98.6875-37.085938c-19 21.128906-34.210938 45.378906-44.964844 71.679688zm357.316406 130.328124c.070312-1.441406.070312-2.300781.070312-2.429687 0-4.714844-3.820312-8.535156-8.535156-8.535156-4.710937 0-8.53125 3.820312-8.53125 8.535156-.320312 9.117187-1.539062 18.179687-3.636718 27.058594-4.671876 22.019531-14.386719 42.65625-28.382813 60.289062-2.960937-4.207031-7.378906-7.167969-12.398437-8.304687-8.367188-.953125-16.675782 2.230468-22.261719 8.535156-4.847657-8.234375-13.125-13.871094-22.5625-15.359375-4.128907-.421875-8.292969.320313-12.023438 2.140625h-.128906l-.09375.066406c-4.105469 1.976563-7.816406 4.6875-10.949219 7.996094-15.15625-7.609375-33.019531-7.609375-48.179687 0-3.144531-3.351562-6.890625-6.085938-11.039063-8.0625-3.667968-1.820312-7.769531-2.59375-11.847656-2.226562h-.304688c-.050781 0-.09375 0-.144531 0-9.351562 1.609374-17.53125 7.21875-22.402343 15.359374-4.855469-5.214843-11.503907-8.402343-18.609376-8.917968-1.234374-.003906-2.464843.121094-3.671874.367187-5.015626 1.136719-9.433594 4.09375-12.398438 8.300781-13.992188-17.628906-23.707031-38.265624-28.382812-60.285156-2.09375-8.84375-3.316407-17.875-3.648438-26.957031 0-4.714844-3.824219-8.535156-8.535156-8.535156-4.714844 0-8.535156 3.820312-8.535156 8.535156 0 .128906 0 .988281.070312 2.429687-11.390625-13.726562-17.136719-26.015624-17.136719-53.628906.167969-26.957031 5.300781-53.652344 15.140625-78.746094.378906-.644531.664063-1.339843.851563-2.066406 21.171875-53.246094 61.535156-97.605468 109.226562-115.335937 1.648438 2.5625 2.632813 5.496093 2.867188 8.53125.46875 4.359375 4.160156 7.65625 8.546875 7.625 4.382812-.03125 8.027344-3.378907 8.433594-7.742188-.375-9.480469-4.566407-18.402343-11.621094-24.746093l-.066406-.085938c-6.625-5.703125-14.847657-9.222656-23.542969-10.078125 9.824219-5.183594 21.566406-5.210937 31.417969-.078125 2.59375 1.226562 5.628906 1.066406 8.082031-.425781 2.476562-1.484375 4.070312-4.089844 4.265625-6.972657.382812-5.203124 7.578125-14.4375 30.863281-16.792968-1.925781 8.007812.238281 16.453125 5.777344 22.546875 3.003906 2.996093 7.75 3.335937 11.144531.792969.984375-.726563 20.730469-15.214844 38.980469-7.417969-9.421875 6.152343-17.847657 13.703125-24.992188 22.394531-4.394531 5.394531-7.808593 11.519531-10.078125 18.097656-1.484375 4.472656.9375 9.300782 5.410156 10.785156.84375.308594 1.730469.480469 2.628907.511719 3.675781 0 6.9375-2.355469 8.097656-5.84375.929687-2.621093 2.140625-5.136719 3.609375-7.5 44.238281 19.917969 80.894531 62.34375 100.589844 112.433594.128906.382813.28125.75.460937 1.109375 9.898438 25.171875 15.0625 51.957031 15.242188 79.003906 0 27.613282-5.742188 39.902344-17.136719 53.628906zm83.535156-144.605468c-2.554687 6.320312-7.515625 11.363281-13.789062 14.019531-6.273438 2.660156-13.347656 2.714844-19.664063.15625l-34.234375-12.800781c-10.691406-26.210938-25.816406-50.382813-44.714844-71.457032l98.234376 36.828126c9.65625 3.921874 15.992187 13.285156 16.035156 23.707031.011718 3.273437-.625 6.519531-1.867188 9.546875zm0 0"/><path d="m315.734375 128c-24.851563.015625-47.730469 13.535156-59.734375 35.292969-15.042969-27.269531-46.636719-40.902344-76.800781-33.136719-30.160157 7.769531-51.242188 34.964844-51.242188 66.109375 0 31.148437 21.082031 58.34375 51.242188 66.109375 30.164062 7.769531 61.757812-5.863281 76.800781-33.136719 16.085938 29.160157 50.863281 42.460938 82.300781 31.472657 31.4375-10.988282 50.359375-43.058594 44.777344-75.886719-5.585937-32.832031-34.042969-56.84375-67.34375-56.824219zm-119.46875 119.46875c-28.277344 0-51.199219-22.925781-51.199219-51.203125s22.921875-51.199219 51.199219-51.199219 51.203125 22.921875 51.203125 51.199219c-.03125 28.265625-22.9375 51.171875-51.203125 51.203125zm119.46875 0c-28.277344 0-51.199219-22.925781-51.199219-51.203125s22.921875-51.199219 51.199219-51.199219 51.199219 22.921875 51.199219 51.199219c-.027344 28.265625-22.933594 51.171875-51.199219 51.203125zm0 0"/><path d="m196.265625 170.667969c-14.136719 0-25.597656 11.460937-25.597656 25.597656 0 14.140625 11.460937 25.601563 25.597656 25.601563 14.140625 0 25.601563-11.460938 25.601563-25.601563 0-14.136719-11.460938-25.597656-25.601563-25.597656zm0 34.132812c-4.710937 0-8.53125-3.820312-8.53125-8.535156 0-4.710937 3.820313-8.53125 8.53125-8.53125 4.714844 0 8.535156 3.820313 8.535156 8.53125 0 4.714844-3.820312 8.535156-8.535156 8.535156zm0 0"/><path d="m315.734375 170.667969c-14.140625 0-25.601563 11.460937-25.601563 25.597656 0 14.140625 11.460938 25.601563 25.601563 25.601563 14.136719 0 25.597656-11.460938 25.597656-25.601563 0-14.136719-11.460937-25.597656-25.597656-25.597656zm0 34.132812c-4.714844 0-8.535156-3.820312-8.535156-8.535156 0-4.710937 3.820312-8.53125 8.535156-8.53125 4.710937 0 8.53125 3.820313 8.53125 8.53125 0 4.714844-3.820313 8.535156-8.53125 8.535156zm0 0"/><path d="m349.867188 281.601562c-4.714844 0-8.535157 3.820313-8.535157 8.53125 0 4.714844-3.820312 8.535157-8.53125 8.535157h-153.601562c-4.710938 0-8.53125-3.820313-8.53125-8.535157 0-4.710937-3.820313-8.53125-8.535157-8.53125-4.710937 0-8.53125 3.820313-8.53125 8.53125 0 14.140626 11.460938 25.601563 25.597657 25.601563h34.132812v8.53125c-.042969 10.117187 5.898438 19.304687 15.148438 23.410156 9.246093 4.105469 20.046875 2.355469 27.519531-4.464843 7.476562 6.820312 18.273438 8.570312 27.519531 4.464843 9.25-4.105469 15.191407-13.292969 15.148438-23.410156v-8.53125h34.132812c14.136719 0 25.597657-11.460937 25.597657-25.601563 0-4.710937-3.820313-8.53125-8.53125-8.53125zm-110.933594 51.199219c-4.714844 0-8.535156-3.820312-8.535156-8.535156v-8.53125h17.070312v8.53125c0 4.714844-3.824219 8.535156-8.535156 8.535156zm42.667968-8.535156c0 4.714844-3.820312 8.535156-8.535156 8.535156-4.710937 0-8.53125-3.820312-8.53125-8.535156v-8.53125h17.066406zm0 0"/></svg>