<svg height="512pt" viewBox="0 0 512 511" width="512pt" xmlns="http://www.w3.org/2000/svg"><path d="m452.265625 350.34375h-17.066406c-28.160157 0-55.210938-25.511719-84.050781-20.050781-3.386719.570312-6.683594 1.574219-9.816407 2.984375-5.289062 2.390625-10.066406 4.4375-14.421875 6.316406-23.550781 9.898438-33.023437 11.691406-41.726562 8.789062-1.644532-.554687-3.242188-1.238281-4.777344-2.046874h-.085938c-20.570312-13.570313-43.1875-23.742188-66.988281-30.125-.472656-.152344-.957031-.265626-1.449219-.339844-10.300781-2.832032-21.039062-3.699219-31.660156-2.5625-5.660156.421875-11.265625 1.421875-16.722656 2.988281-34.304688 9.300781-60.417969 34.046875-78.167969 34.046875h-42.664062v119.46875c0 18.851562 15.28125 34.132812 34.132812 34.132812h358.398438c18.851562 0 34.132812-15.28125 34.132812-34.132812v-119.46875zm0 0" fill="#c42828"/><path d="m29.049896 11.999824h-.099792" fill="none" stroke="#000" stroke-linecap="round" stroke-linejoin="round" stroke-width="2" transform="matrix(8.533333 0 0 8.533333 8.533333 9.01166)"/><path d="m42.667969 111.410156h426.664062c18.851563 0 34.132813 15.285156 34.132813 34.136719v170.664063c0 18.851562-15.28125 34.132812-34.132813 34.132812h-426.664062c-18.851563 0-34.132813-15.28125-34.132813-34.132812v-170.664063c0-18.851563 15.28125-34.136719 34.132813-34.136719zm0 0" fill="#c42828"/><path d="m477.867188 145.546875v170.664063c.082031 8.972656-3.40625 17.609374-9.691407 24.011718-6.289062 6.402344-14.863281 10.042969-23.835937 10.121094h-402.277344c-8.972656-.078125-17.546875-3.71875-23.835938-10.121094-6.289062-6.402344-9.773437-15.039062-9.691406-24.011718v-170.664063c-.082031-8.976563 3.402344-17.613281 9.691406-24.015625 6.289063-6.398438 14.863282-10.039062 23.835938-10.121094h402.277344c8.972656.082032 17.546875 3.722656 23.835937 10.121094 6.285157 6.402344 9.773438 15.039062 9.691407 24.015625zm0 0" fill="#f34335"/><path d="m235.691406 44.59375c-5.375.515625-10.667968 1.109375-15.703125 1.792969-92.160156 12.546875-132.605469 52.308593-149.332031 77.570312 9.054688 39.4375 42.394531 68.613281 82.6875 72.359375 2.902344.257813 5.804688.429688 8.789062.429688 35.996094-.011719 68.816407-20.605469 84.484376-53.011719 15.667968-32.40625 11.425781-70.921875-10.925782-99.140625zm0 0" fill="#fff"/><path d="m292.011719 46.386719c-5.035157-.683594-10.328125-1.277344-15.703125-1.792969-22.351563 28.21875-26.59375 66.734375-10.925782 99.140625 15.667969 32.40625 48.488282 53 84.484376 53.011719 2.984374 0 5.886718-.171875 8.789062-.429688 40.292969-3.746094 73.632812-32.921875 82.6875-72.359375-16.726562-25.261719-57.171875-65.023437-149.332031-77.570312zm0 0" fill="#fff"/><path d="m221.867188 102.878906c0 32.988282-26.742188 59.734375-59.734376 59.734375-32.988281 0-59.734374-26.746093-59.734374-59.734375 0-32.992187 26.746093-59.734375 59.734374-59.734375 32.992188 0 59.734376 26.742188 59.734376 59.734375zm0 0" fill="#00bbd3"/><path d="m409.601562 102.878906c0 32.988282-26.746093 59.734375-59.734374 59.734375-32.992188 0-59.734376-26.746093-59.734376-59.734375 0-32.992187 26.742188-59.734375 59.734376-59.734375 32.988281 0 59.734374 26.742188 59.734374 59.734375zm0 0" fill="#00bbd3"/><path d="m196.265625 102.878906c0 18.851563-15.28125 34.132813-34.132813 34.132813-18.851562 0-34.132812-15.28125-34.132812-34.132813 0-18.851562 15.28125-34.132812 34.132812-34.132812 18.851563 0 34.132813 15.28125 34.132813 34.132812zm0 0" fill="#37474f"/><path d="m384 102.878906c0 18.851563-15.28125 34.132813-34.132812 34.132813-18.851563 0-34.132813-15.28125-34.132813-34.132813 0-18.851562 15.28125-34.132812 34.132813-34.132812 18.851562 0 34.132812 15.28125 34.132812 34.132812zm0 0" fill="#37474f"/><g fill="#fdc008"><path d="m76.800781 239.410156c0 18.851563-15.28125 34.136719-34.132812 34.136719-18.851563 0-34.132813-15.285156-34.132813-34.136719 0-18.851562 15.28125-34.132812 34.132813-34.132812 18.851562 0 34.132812 15.28125 34.132812 34.132812zm0 0"/><path d="m503.464844 265.011719c.089844 24.273437-16.816406 45.296875-40.542969 50.417969-23.726563 5.121093-47.800781-7.054688-57.730469-29.203126-9.933594-22.148437-3.011718-48.226562 16.59375-62.535156 19.605469-14.308594 46.550782-12.949218 64.613282 3.261719 10.882812 9.652344 17.097656 23.511719 17.066406 38.058594zm0 0"/><path d="m307.199219 256.476562c0 14.140626-11.460938 25.601563-25.597657 25.601563-14.140624 0-25.601562-11.460937-25.601562-25.601563 0-14.136718 11.460938-25.597656 25.601562-25.597656 14.136719 0 25.597657 11.460938 25.597657 25.597656zm0 0"/></g><path d="m443.734375 350.34375v119.46875c.09375 8.957031-3.375 17.589844-9.640625 23.988281-6.269531 6.402344-14.824219 10.050781-23.785156 10.144531h-334.21875c-8.957032-.09375-17.511719-3.742187-23.78125-10.144531-6.269532-6.398437-9.738282-15.03125-9.640625-23.988281v-119.46875h41.8125c17.382812 0 42.949219-24.746094 76.535156-34.046875 5.339844-1.566406 10.828125-2.566406 16.375-2.988281 10.402344-1.136719 20.925781-.269532 31 2.5625.484375.070312.957031.1875 1.417969.339844 23.359375 6.410156 45.515625 16.582031 65.597656 30.125h.082031c1.503907.808593 3.066407 1.492187 4.679688 2.046874 8.53125 2.902344 17.800781 1.109376 40.855469-8.789062 4.265624-1.878906 8.945312-3.925781 14.125-6.316406 3.058593-1.40625 6.289062-2.410156 9.605468-2.984375 28.203125-5.460938 54.691406 20.050781 82.269532 20.050781zm0 0" fill="#f34335"/><path d="m341.332031 367.410156c-.015625 14.933594-9.738281 28.121094-23.996093 32.554688-14.261719 4.433594-29.746094-.914063-38.226563-13.207032-8.484375-12.289062-7.992187-28.664062 1.210937-40.421874h.085938c10.410156 5.375 18.601562 4.949218 46.503906-6.742188 9.050782 6.371094 14.433594 16.75 14.421875 27.816406zm0 0" fill="#fdc008"/><path d="m228.691406 369.375-16.808594-53.503906c-8.144531-2.21875-16.5625-3.253906-25.003906-3.074219h-.246094c-7.835937.214844-15.617187 1.394531-23.167968 3.507813l-16.691406 53.070312c-7.851563 24.660156 12.628906 49.238281 40.960937 49.238281 28.328125 0 48.808594-24.578125 40.957031-49.238281zm0 0" fill="#e81e63"/><path d="m435.199219 469.8125c.027343 12.617188-4.660157 24.789062-13.140625 34.132812h-76.117188c-8.480468-9.34375-13.167968-21.515624-13.140625-34.132812 0-28.277344 22.921875-51.199219 51.199219-51.199219s51.199219 22.921875 51.199219 51.199219zm0 0" fill="#fdc008"/><path d="m93.867188 444.210938c0 14.140624-11.460938 25.601562-25.601563 25.601562-14.136719 0-25.597656-11.460938-25.597656-25.601562 0-14.136719 11.460937-25.597657 25.597656-25.597657 14.140625 0 25.601563 11.460938 25.601563 25.597657zm0 0" fill="#fdc008"/><path d="m247.464844 478.34375c0 14.140625-11.460938 25.601562-25.597656 25.601562-14.140626 0-25.601563-11.460937-25.601563-25.601562 0-14.136719 11.460937-25.597656 25.601563-25.597656 14.136718 0 25.597656 11.460937 25.597656 25.597656zm0 0" fill="#fdc008"/><path d="m235.691406 44.59375c-103.339844 9.902344-147.371094 52.738281-165.035156 79.363281-1.582031-6.914062-2.382812-13.984375-2.390625-21.078125.011719-39.9375 25.292969-75.492187 63.007813-88.621094 37.714843-13.128906 79.609374-.957031 104.417968 30.335938zm0 0" fill="#f34335"/><path d="m443.734375 102.878906c-.007813 7.09375-.808594 14.164063-2.390625 21.078125-17.664062-26.625-61.695312-69.460937-165.035156-79.363281 24.808594-31.292969 66.703125-43.464844 104.417968-30.335938 37.714844 13.128907 62.996094 48.683594 63.007813 88.621094zm0 0" fill="#f34335"/><path d="m153.601562 145.546875c0 14.136719-11.464843 25.597656-25.601562 25.597656s-25.601562-11.460937-25.601562-25.597656c0-14.140625 11.464843-25.601563 25.601562-25.601563s25.601562 11.460938 25.601562 25.601563zm0 0" fill="#fff"/><path d="m341.332031 145.546875c0 14.136719-11.460937 25.597656-25.597656 25.597656-14.140625 0-25.601563-11.460937-25.601563-25.597656 0-14.140625 11.460938-25.601563 25.601563-25.601563 14.136719 0 25.597656 11.460938 25.597656 25.601563zm0 0" fill="#fff"/><path d="m503.464844 265.011719c-1.128906 16.34375-10.886719 30.847656-25.597656 38.058593v-76.117187c14.710937 7.210937 24.46875 21.714844 25.597656 38.058594zm0 0" fill="#ff9701"/><path d="m469.332031 102.878906h-17.066406c-.023437-43.554687-27.589844-82.328125-68.71875-96.652344-41.132813-14.324218-86.820313-1.0625-113.894531 33.054688-5.527344 6.957031-10.121094 14.617188-13.652344 22.773438-3.53125-8.152344-8.121094-15.800782-13.652344-22.75-.367187-.46875-.804687-.851563-1.179687-1.339844-27.40625-33.445313-72.878907-46.046875-113.589844-31.480469-40.714844 14.566406-67.871094 53.15625-67.84375 96.394531h-17.066406c-23.554688.027344-42.6406252 19.113282-42.667969 42.667969v170.664063c.0273438 20.269531 14.28125 37.730468 34.132812 41.8125v111.789062c.027344 23.550781 19.113282 42.636719 42.667969 42.664062h358.398438c23.554687-.027343 42.640625-19.113281 42.667969-42.664062v-111.789062c19.851562-4.082032 34.105468-21.542969 34.132812-41.8125v-170.664063c-.027344-23.554687-19.113281-42.640625-42.667969-42.667969zm-34.132812-.476562c-22.28125-24.203125-64.347657-53.546875-140.800781-64.222656 25.195312-21.695313 60.707031-26.75 90.957031-12.953126 30.25 13.796876 49.710937 43.925782 49.84375 77.175782zm-59.734375.476562c0 14.136719-11.460938 25.597656-25.597656 25.597656-14.140626 0-25.601563-11.460937-25.601563-25.597656 0-14.140625 11.460937-25.601562 25.601563-25.601562 14.136718 0 25.597656 11.460937 25.597656 25.601562zm-95.214844-49.222656c17.933594 1.847656 35.679688 5.15625 53.070312 9.902344-21.804687 9.019531-32.207031 33.980468-23.265624 55.816406 8.945312 21.839844 33.867187 32.332031 55.738281 23.464844 21.871093-8.867188 32.449219-33.753906 23.660156-55.65625 16.648437 9.796875 31.140625 22.859375 42.605469 38.402344-9.011719 32.824218-36.683594 57.140624-70.390625 61.871093-33.710938 4.726563-67-11.042969-84.695313-40.121093-17.699218-29.078126-16.40625-65.894532 3.277344-93.660157zm-118.117188 134.554688c-38.425781.160156-72.152343-25.542969-82.191406-62.632813 11.464844-15.546875 25.957032-28.609375 42.605469-38.402344-8.605469 21.78125 1.972656 46.425781 23.691406 55.183594 21.71875 8.761719 46.433594-1.640625 55.347657-23.296875 8.914062-21.65625-1.316407-46.449219-22.90625-55.515625 17.390624-4.742187 35.136718-8.050781 53.070312-9.898437 18.460938 26.015624 20.851562 60.164062 6.195312 88.496093-14.660156 28.332031-43.910156 46.109375-75.8125 46.066407zm0-110.933594c14.140626 0 25.601563 11.460937 25.601563 25.601562 0 14.136719-11.460937 25.597656-25.601563 25.597656-14.136718 0-25.597656-11.460937-25.597656-25.597656 0-14.140625 11.460938-25.601562 25.597656-25.601562zm0-59.730469c20.371094-.023437 40.0625 7.304687 55.46875 20.632813-76.425781 10.675781-118.496093 40.019531-140.800781 64.222656.304688-46.925782 38.40625-84.816406 85.332031-84.855469zm42.667969 460.796875c0-9.425781 7.640625-17.066406 17.066407-17.066406 9.425781 0 17.066406 7.640625 17.066406 17.066406s-7.640625 17.066406-17.066406 17.066406c-9.425782 0-17.066407-7.640625-17.066407-17.066406zm145.144531 17.066406c-5.601562-7.359375-8.625-16.351562-8.613281-25.597656 0-23.566406 19.105469-42.667969 42.667969-42.667969s42.667969 19.101563 42.667969 42.667969c.011719 9.246094-3.011719 18.238281-8.613281 25.597656zm110.855469-25.597656c-.039062 12.996094-9.835937 23.894531-22.757812 25.308594 11.828125-25.132813 4.769531-55.101563-17.027344-72.316406-21.796875-17.214844-52.585937-17.128907-74.292969.199218-21.703125 17.332032-28.601562 47.339844-16.636718 72.40625h-78.832032c3.074219-5.164062 4.710938-11.054687 4.746094-17.066406 0-18.851562-15.28125-34.132812-34.132812-34.132812-18.851563 0-34.132813 15.28125-34.132813 34.132812.035156 6.011719 1.671875 11.902344 4.742187 17.066406h-115.675781c-12.558593-.039062-23.230469-9.183594-25.199219-21.585937 5.070313 2.921875 10.8125 4.480469 16.664063 4.519531 18.851563 0 34.132813-15.28125 34.132813-34.132812 0-18.851563-15.28125-34.132813-34.132813-34.132813-6.007813.035156-11.898437 1.671875-17.066406 4.746094v-55.945313h34.132812c11.09375 0 23.117188-6.777344 37.035157-14.617187 9-5.246094 18.289062-9.980469 27.820312-14.183594l-11.5625 36.695313c-4.296875 13.476562-1.828125 28.199218 6.628906 39.542968 10.183594 13.113282 25.859375 20.785156 42.460938 20.785156 16.605468 0 32.28125-7.671874 42.464844-20.785156 8.449218-11.332031 10.921874-26.039062 6.636718-39.511718l-11.945312-38.058594c15.179687 4.890625 29.679687 11.691406 43.144531 20.242187l.648437.390625c-8.90625 18.847656-2.890624 41.367188 14.222657 53.265625 17.117187 11.894531 40.320312 9.683594 54.882812-5.230469 14.558594-14.910156 16.214844-38.164062 3.914063-54.988281 1.074218-.476562 1.996094-.851562 3.105468-1.363281 16.050782-7.160156 32.273438-.386719 49.492188 6.757812 12.777344 6.347657 26.683594 10.109376 40.917969 11.058594h25.601562zm-409.601562-25.601562c0-9.425782 7.640625-17.066407 17.066406-17.066407s17.066406 7.640625 17.066406 17.066407c0 9.425781-7.640625 17.066406-17.066406 17.066406s-17.066406-7.640625-17.066406-17.066406zm126.6875-122.121094c3.335937-.472656 6.699219-.738282 10.070312-.792969h.476563c3.160156-.003906 6.316406.183594 9.453125.5625 1.042969.121094 2.074219.324219 3.105469.488281 1.425781.222656 2.84375.554688 4.269531.851563l15.308593 48.742187c2.671876 8.289063 1.125 17.363282-4.148437 24.296875-6.960937 8.722657-17.515625 13.804688-28.679687 13.804688-11.164063 0-21.71875-5.082031-28.679688-13.804688-5.277344-6.941406-6.824219-16.027343-4.140625-24.320312l15.234375-48.351563c1.550781-.339844 3.097656-.707031 4.632812-.972656.996094-.144531 2.0625-.367188 3.097657-.503906zm147.320312 27.402344c8.15625 8.1875 9.792969 20.835937 3.988281 30.828124-5.804687 9.996094-17.597656 14.84375-28.753906 11.816407-11.152344-3.023438-18.882812-13.167969-18.839844-24.726563.023438-3.636718.824219-7.230468 2.34375-10.539062 10.054688 2.859375 21.011719.734375 41.261719-7.378906zm127.058594-144.214844c-27.136719-.035156-50.886719 18.222656-57.828125 44.457031-6.941406 26.230469 4.671875 53.847656 28.277344 67.234375 23.601562 13.386719 53.265625 9.183594 72.21875-10.238281v9.480469c0 14.140624-11.460938 25.601562-25.601563 25.601562h-34.132812c-11.972657-1.03125-23.644531-4.335938-34.378907-9.738281-18.84375-7.839844-40.175781-16.742188-63.003906-6.570313-4.367187 1.972656-8.378906 3.695313-12.082031 5.308594l-2.109375.902344c-27.980469 11.691406-32.75 10.480468-39.371094 7.050781-2.21875-1.152344-4.546875-2.558594-7.234375-4.265625-18.859375-11.925781-39.460937-20.835938-61.066406-26.410156-.730469-.230469-1.476563-.417969-2.226563-.566406-2.46875-.65625-4.933593-.996094-7.398437-1.457032-1.792969-.332031-3.585937-.855468-5.386719-1.058594-2.984375-.382812-5.972656-.445312-8.992187-.546874-1.355469-.050782-2.695313-.253907-4.054688-.238282-3.550781.082032-7.09375.351563-10.613281.808594-.855469.105469-1.707031.078125-2.5625.207031-4.53125.660157-9.015625 1.605469-13.429688 2.824219-16.601562 5.078125-32.488281 12.246094-47.285156 21.332031-8.648437 5.980469-18.390625 10.199219-28.671875 12.417969h-42.664062c-14.140625 0-25.601563-11.460938-25.601563-25.601562v-42.886719c7.34375 5.644531 16.335938 8.722656 25.601563 8.753906 23.5625 0 42.664062-19.101563 42.664062-42.667969 0-23.5625-19.101562-42.664062-42.664062-42.664062-9.265625.03125-18.257813 3.105468-25.601563 8.753906v-59.953125c0-14.140625 11.460938-25.601563 25.601563-25.601563h18.660156c.324219 1.886719.546875 3.78125.964844 5.648438v.265625c9.921875 43.085937 46.378906 74.9375 90.40625 78.988281 44.027343 4.050782 85.683593-20.613281 103.300781-61.164062 17.640625 40.511718 59.277344 65.136718 103.273438 61.085937 44-4.054687 80.4375-35.871093 90.382812-78.917969v-.265624c.417969-1.871094.640625-3.761719.964844-5.640626h18.710937c14.140625 0 25.601563 11.460938 25.601563 25.601563v77.746094c-11.207032-11.519531-26.59375-18.019531-42.667969-18.015625zm42.667969 59.734375c0 23.5625-19.101563 42.667969-42.667969 42.667969-23.5625 0-42.664063-19.105469-42.664063-42.667969s19.101563-42.667969 42.664063-42.667969c23.554687.03125 42.640625 19.117188 42.667969 42.667969zm-477.867188-25.601563c0-14.136718 11.460938-25.597656 25.601563-25.597656 14.136719 0 25.597656 11.460938 25.597656 25.597656 0 14.140625-11.460937 25.601563-25.597656 25.601563-14.140625 0-25.601563-11.460938-25.601563-25.601563zm0 0"/><path d="m281.601562 222.34375c-18.851562 0-34.136718 15.285156-34.136718 34.132812 0 18.851563 15.285156 34.136719 34.136718 34.136719 18.851563 0 34.132813-15.285156 34.132813-34.136719 0-18.847656-15.28125-34.132812-34.132813-34.132812zm0 51.203125c-9.425781 0-17.066406-7.644531-17.066406-17.070313 0-9.425781 7.640625-17.066406 17.066406-17.066406 9.425782 0 17.066407 7.640625 17.066407 17.066406 0 9.425782-7.640625 17.070313-17.066407 17.070313zm0 0"/></svg>