<svg height="504pt" viewBox="0 0 504.40765 504" width="504pt" xmlns="http://www.w3.org/2000/svg"><path d="m52.984375 117.804688c-21.789063-58.628907 11.230469-95.375 29.085937-107.761719 2.230469-1.449219 5.015626-1.757813 7.507813-.824219 2.496094.933594 4.398437 2.992188 5.128906 5.550781 6.277344 19.632813 19.574219 36.269531 37.34375 46.714844l9 65.679687-38.613281 34.035157zm0 0" fill="#fdc008"/><path d="m450.5 117.890625-60.601562 68.40625-3.945313-26.441406-14.519531-98.371094c15.855468-9.257813 28.195312-23.515625 35.082031-40.539063.839844-2.015624 1.597656-4.113281 2.265625-6.210937.738281-2.566406 2.648438-4.625 5.152344-5.554687 2.5-.925782 5.292968-.609376 7.523437.855468 17.792969 12.421875 50.863281 49.183594 29.042969 107.855469zm0 0" fill="#ff9701"/><path d="m423.136719 117.890625-37.183594 41.964844-14.519531-98.371094c15.855468-9.257813 28.195312-23.515625 35.082031-40.539063 16.789063 17.792969 33.910156 50.527344 16.621094 96.945313zm0 0" fill="#fdc008"/><path d="m402.488281 142.566406-.085937.921875-8.476563 106.179688v.082031l-6.210937 78.226562c-1.078125 13.683594-4.21875 27.125-9.316406 39.871094-4.535157 11.246094-2.84375 24.050782 4.449218 33.738282 12.199219 16.363281 15.03125 37.882812 7.484375 56.847656-7.546875 18.960937-24.394531 32.648437-44.5 36.152344-6.078125 1.003906-12.277343 1.089843-18.382812.253906-1.425781-.167969-2.9375-.503906-4.363281-.757813-19.445313-4.277343-35.398438-18.117187-42.386719-36.761719-1.425781-3.738281-5.289063-5.949218-9.234375-5.289062-3.609375.503906-7.300782.925781-10.992188 1.175781-2.6875.167969-5.375.253907-8.058594.253907h-.671874c-2.855469 0-5.625-.085938-8.394532-.253907-1.425781-.082031-2.769531-.167969-4.195312-.335937-2.351563-.25-4.785156-.503906-7.136719-.839844-2.007813-.347656-4.074219.070312-5.789063 1.175781-.085937.085938-.253906.167969-.335937.253907-1.441406.898437-2.535156 2.257812-3.105469 3.859374-9.6875 25.921876-36.164062 41.554688-63.539062 37.519532l-1.59375-.253906c-.839844-.167969-1.597656-.25-2.433594-.503907-19.5-4.257812-35.503906-18.128906-42.496094-36.824219-6.988281-18.695312-4.007812-39.660156 7.914063-55.671874 7.292969-9.6875 8.980469-22.492188 4.449219-33.738282-5.097657-12.746094-8.238282-26.1875-9.316407-39.871094l-6.296875-78.898437-8.476562-106.175781v-.335938c-2.238282-28.019531 7.332031-55.695312 26.394531-76.351562s45.882813-32.410156 73.992187-32.425782h100.71875c28.109376.015626 54.929688 11.769532 73.992188 32.425782s28.628906 48.332031 26.394531 76.351562zm0 0" fill="#6a1b99"/><path d="m377.308594 142.566406-.085938.921875-8.476562 106.179688v.082031l-6.210938 78.226562c-1.082031 13.683594-4.222656 27.125-9.316406 39.871094-4.535156 11.246094-2.847656 24.050782 4.449219 33.738282 11.921875 16.011718 14.902343 36.976562 7.914062 55.671874-6.992187 18.695313-22.996093 32.566407-42.496093 36.824219-19.445313-4.277343-35.398438-18.117187-42.386719-36.761719-1.425781-3.738281-5.289063-5.949218-9.234375-5.289062-3.609375.503906-7.300782.925781-10.992188 1.175781-2.6875.167969-5.375.253907-8.058594.253907-.085937-.085938-.253906-.167969-.335937-.253907-1.714844-1.105469-3.78125-1.523437-5.792969-1.175781-2.347656.335938-4.785156.589844-7.132812.839844-1.425782.167968-2.769532.253906-4.199219.335937-2.769531.167969-5.539063.253907-8.390625.253907h-.671875c-2.6875 0-5.371094-.085938-8.058594-.253907-3.691406-.25-7.386719-.671875-10.996093-1.175781-3.941407-.660156-7.808594 1.550781-9.230469 5.289062-6.988281 18.644532-22.941407 32.484376-42.386719 36.761719-19.5-4.257812-35.503906-18.128906-42.496094-36.824219-6.988281-18.695312-4.007812-39.660156 7.914063-55.671874 7.292969-9.6875 8.980469-22.492188 4.449219-33.738282-5.097657-12.746094-8.238282-26.1875-9.316407-39.871094l-6.296875-78.898437-8.476562-106.175781v-.335938c-2.238282-28.019531 7.332031-55.695312 26.394531-76.351562s45.882813-32.410156 73.992187-32.425782h75.539063c28.105469.015626 54.929687 11.769532 73.992187 32.425782s28.628907 48.332031 26.394532 76.351562zm0 0" fill="#9c27af"/><path d="m281.285156 257.386719c37.96875 14.28125 60.292969 53.667969 53.039063 93.578125-7.257813 39.910156-42.019531 68.921875-82.582031 68.921875-40.566407 0-75.324219-29.011719-82.582032-68.921875-7.253906-39.910156 15.070313-79.296875 53.035156-93.578125zm0 0" fill="#cbb292"/><path d="m230.339844 138.871094c4.683594 1.480468 9.1875 3.476562 13.429687 5.960937 5.25-8.0625 8.023438-17.488281 7.972657-27.109375 0-27.816406-22.546876-50.363281-50.359376-50.363281-2.816406-.003906-5.625.25-8.394531.757813-24.230469 4.058593-41.976562 25.035156-41.96875 49.605468-.042969 7.304688 1.53125 14.527344 4.617188 21.148438.988281 2.058594 2.109375 4.050781 3.359375 5.960937 4.960937-2.878906 10.261718-5.132812 15.777344-6.714843 5.953124-1.660157 12.050781-2.730469 18.214843-3.1875 2.785157-.3125 5.589844-.449219 8.394531-.421876 8.96875-.039062 17.902344 1.207032 26.523438 3.695313.835938.167969 1.59375.417969 2.433594.667969" fill="#f4f4f4"/><path d="m331.058594 138.871094c4.6875 1.480468 9.191406 3.476562 13.429687 5.960937 5.253907-8.0625 8.027344-17.488281 7.976563-27.109375 0-27.816406-22.550782-50.363281-50.363282-50.363281-2.8125-.003906-5.625.25-8.390624.757813-24.230469 4.058593-41.980469 25.035156-41.96875 49.605468-.046876 7.304688 1.53125 14.527344 4.617187 21.148438.984375 2.058594 2.105469 4.050781 3.355469 5.960937 4.964844-2.878906 10.265625-5.132812 15.78125-6.714843 5.949218-1.660157 12.050781-2.730469 18.214844-3.1875 2.785156-.3125 5.585937-.449219 8.390624-.421876 8.972657-.039062 17.902344 1.207032 26.523438 3.695313.839844.167969 1.59375.417969 2.433594.667969" fill="#f4f4f4"/><path d="m234.953125 117.722656c.003906 1.289063-.078125 2.578125-.25 3.859375-.664063 6.066407-3.019531 11.828125-6.796875 16.621094-8.621094-2.488281-17.554688-3.734375-26.523438-3.695313-2.804687-.027343-5.609374.109376-8.394531.421876-6.164062.457031-12.261719 1.527343-18.214843 3.1875-8.6875-11.289063-9.304688-26.832032-1.539063-38.773438 7.765625-11.945312 22.222656-17.6875 36.066406-14.328125s24.058594 15.089844 25.488281 29.265625c.082032 1.175781.164063 2.265625.164063 3.441406zm0 0" fill="#fdc008"/><path d="m335.675781 117.722656c.003907 1.289063-.082031 2.578125-.25 3.859375-.664062 6.066407-3.019531 11.828125-6.800781 16.621094-8.621094-2.488281-17.550781-3.734375-26.523438-3.695313-2.804687-.027343-5.605468.109376-8.390624.421876-6.164063.457031-12.265626 1.527343-18.214844 3.1875-8.6875-11.289063-9.304688-26.832032-1.539063-38.773438 7.765625-11.945312 22.222657-17.6875 36.066407-14.328125s24.058593 15.089844 25.484374 29.265625c.085938 1.175781.167969 2.265625.167969 3.441406zm0 0" fill="#fdc008"/><path d="m218.167969 117.722656c0 9.269532-7.515625 16.785156-16.785157 16.785156-9.273437 0-16.789062-7.515624-16.789062-16.785156 0-9.273437 7.515625-16.789062 16.789062-16.789062 9.269532 0 16.785157 7.515625 16.785157 16.789062zm0 0" fill="#37474f"/><path d="m318.890625 117.722656c0 9.269532-7.515625 16.785156-16.789063 16.785156-9.269531 0-16.785156-7.515624-16.785156-16.785156 0-9.273437 7.515625-16.789062 16.785156-16.789062 9.273438 0 16.789063 7.515625 16.789063 16.789062zm0 0" fill="#37474f"/><path d="m251.742188 260.410156c-100.722657 0-75.542969-83.933594-75.542969-83.933594s10.074219 10.070313 41.96875 14.605469c11.125 1.53125 22.34375 2.257813 33.574219 2.179688 11.230468.078125 22.449218-.648438 33.574218-2.179688 31.894532-4.535156 41.964844-14.605469 41.964844-14.605469s25.183594 83.933594-75.539062 83.933594zm0 0" fill="#ac1457"/><path d="m285.316406 191.082031v18.96875c.003906 8.933594-7.023437 16.292969-15.949218 16.703125-.554688.113282-1.125.113282-1.679688 0-8.925781-.410156-15.949219-7.769531-15.945312-16.703125v-16.789062c5.875 0 11.332031-.167969 16.367187-.503907 3.105469-.167968 6.042969-.417968 8.8125-.671874 2.9375-.25 5.792969-.585938 8.394531-1.003907zm0 0" fill="#f9eab0"/><path d="m276.921875 192.085938v17.964843c0 8.644531-3.355469 15.863281-7.554687 16.703125-.554688.113282-1.125.113282-1.679688 0-4.195312-.839844-7.550781-8.058594-7.550781-16.703125v-16.789062c2.664062.015625 5.328125-.15625 7.972656-.503907 3.105469-.167968 6.042969-.417968 8.8125-.671874zm0 0" fill="#ffebb2"/><path d="m251.742188 193.261719v16.789062c.003906 8.933594-7.019532 16.292969-15.949219 16.703125-.550781.113282-1.125.113282-1.675781 0-8.929688-.410156-15.953126-7.769531-15.949219-16.703125v-18.96875c2.601562.417969 5.457031.753907 8.394531 1.003907 2.769531.253906 5.707031.503906 8.8125.671874 5.035156.335938 10.492188.503907 16.367188.503907zm0 0" fill="#f9eab0"/><path d="m243.347656 193.261719v16.789062c0 8.644531-3.355468 15.863281-7.554687 16.703125-.550781.113282-1.125.113282-1.675781 0-4.199219-.839844-7.554688-8.058594-7.554688-16.703125v-17.964843c2.769531.253906 5.707031.503906 8.8125.671874 2.644531.347657 5.308594.519532 7.972656.503907zm0 0" fill="#ffebb2"/><path d="m201.382812 92.542969c0 9.269531-7.515624 16.785156-16.789062 16.785156-9.269531 0-16.785156-7.515625-16.785156-16.785156 0-9.273438 7.515625-16.789063 16.785156-16.789063 9.273438 0 16.789062 7.515625 16.789062 16.789063zm0 0" fill="#f4f4f4"/><path d="m302.101562 92.542969c0 9.269531-7.515624 16.785156-16.785156 16.785156-9.273437 0-16.789062-7.515625-16.789062-16.785156 0-9.273438 7.515625-16.789063 16.789062-16.789063 9.269532 0 16.785156 7.515625 16.785156 16.789063zm0 0" fill="#f4f4f4"/><path d="m477.191406 194.6875-81.667968 53.972656c-2.21875 1.464844-5.003907 1.792969-7.5.882813-2.5-.910157-4.417969-2.949219-5.175782-5.5l-20.226562-67.148438c-.851563-2.878906-.082032-5.992187 2.011718-8.140625.414063-.484375.894532-.910156 1.429688-1.257812l64.796875-42.808594c9.28125-6.144531 20.625-8.351562 31.535156-6.132812 10.90625 2.222656 20.488281 8.683593 26.628907 17.96875 3.113281 4.664062 5.226562 9.921874 6.210937 15.445312 3.15625 16.574219-3.960937 33.425781-18.042969 42.71875zm0 0" fill="#6a1b99"/><path d="m141.703125 176.894531-20.226563 67.148438c-.757812 2.550781-2.675781 4.589843-5.175781 5.5-2.5.910156-5.28125.582031-7.5-.882813l-81.667969-53.972656c-14.082031-9.292969-21.199218-26.144531-18.046874-42.71875.988281-5.523438 3.101562-10.78125 6.210937-15.445312 7.773437-11.742188 20.921875-18.804688 35.003906-18.800782.921875 0 1.761719 0 2.683594.082032 7.3125.457031 14.378906 2.832031 20.480469 6.882812l27.53125 18.214844 37.265625 24.59375c.535156.347656 1.015625.773437 1.425781 1.257812 2.105469 2.144532 2.878906 5.261719 2.015625 8.140625zm0 0" fill="#894b9d"/><path d="m470.054688 160.359375c-1.875 11.417969-8.410157 21.542969-18.046876 27.949219l-93.835937 62.296875c-2.207031 1.46875-4.980469 1.808593-7.476563.914062-2.496093-.890625-4.421874-2.910156-5.199218-5.445312l-18.214844-60.515625c.421875-.503906 13.09375-9.335938 13.597656-9.671875l64.796875-42.804688c9.285157-6.144531 20.628907-8.351562 31.535157-6.132812 10.910156 2.21875 20.488281 8.683593 26.632812 17.96875 3.113281 4.664062 5.226562 9.921875 6.210938 15.441406zm0 0" fill="#9c27af"/><path d="m151.019531 176.476562-18.210937 60.515626c-.777344 2.535156-2.707032 4.554687-5.203125 5.445312-2.496094.894531-5.265625.554688-7.472657-.914062l-93-61.691407c-9.644531-6.355469-16.1875-16.460937-18.046874-27.863281.988281-5.523438 3.101562-10.78125 6.210937-15.445312 7.773437-11.742188 20.921875-18.804688 35.003906-18.800782.921875 0 1.761719 0 2.683594.082032 7.3125.457031 14.378906 2.832031 20.480469 6.882812l27.53125 18.214844 37.265625 24.59375c.503906.335937 12.339843 8.476562 12.757812 8.980468zm0 0" fill="#9c27af"/><path d="m464.097656 110.351562c-.75-.152343-1.503906-.226562-2.25-.34375 12.542969-39.582031-1.847656-82.738281-35.640625-106.863281-4.269531-2.992187-9.71875-3.75-14.644531-2.042969-5.15625 1.804688-9.15625 5.929688-10.796875 11.140626-5.078125 15.691406-15.085937 29.324218-28.535156 38.867187-19.585938-16.617187-44.441407-25.734375-70.128907-25.714844h-100.71875c-25.703124-.023437-50.574218 9.09375-70.171874 25.714844-13.445313-9.542969-23.457032-23.171875-28.535157-38.859375-1.628906-5.203125-5.613281-9.332031-10.753906-11.148438-4.925781-1.710937-10.378906-.949218-14.644531 2.050782-33.816406 24.101562-48.210938 67.273437-35.625 106.847656-20.296875 3.589844-36.367188 19.171875-40.582032 39.347656-4.21875 20.175782 4.269532 40.890625 21.429688 52.308594l78.898438 52.164062 5.96875 74.769532c1.144531 14.53125 4.476562 28.800781 9.886718 42.335937 3.453125 8.542969 2.179688 18.269531-3.359375 25.632813-13.9375 18.714844-17.164062 43.320312-8.519531 64.996094 8.648438 21.671874 27.925781 37.304687 50.917969 41.28125 3.695312.628906 7.4375.960937 11.1875.984374 28.085937.066407 53.296875-17.21875 63.351562-43.445312 13.914063 2.101562 28.066407 2.0625 41.96875-.109375 9.222657 24.574219 31.914063 41.519531 58.09375 43.386719 26.179688 1.863281 51.042969-11.691406 63.65625-34.710938 12.613281-23.015625 10.660157-51.269531-4.996093-72.332031-5.535157-7.363281-6.808594-17.085937-3.359376-25.625 5.421876-13.535156 8.761719-27.808594 9.914063-42.34375l5.875-74.171875 79.839844-52.761719c16.992187-11.238281 25.539062-31.601562 21.660156-51.601562-3.882813-19.996094-19.425781-35.6875-39.386719-39.753907zm-47.457031-93.417968c29.054687 21.441406 40.277344 59.609375 27.453125 93.367187-6.371094 1.296875-12.429688 3.816407-17.84375 7.421875l-15.367188 10.15625c-1.40625-23.96875-10.738281-46.792968-26.523437-64.882812 15.230469-11.679688 26.5-27.761719 32.28125-46.0625zm-329.9375.359375c5.957031 18.152343 17.257813 34.082031 32.421875 45.703125-15.652344 17.9375-24.960938 40.527344-26.488281 64.285156l-14.554688-9.558594c-5.667969-3.746094-12.03125-6.316406-18.710937-7.554687-19.007813-58.628907 22.519531-89.808594 27.332031-92.875zm385.828125 170.386719-84.285156 55.707031-6.714844 4.433593c-1.859375 1.226563-3.152344 3.144532-3.59375 5.324219-.445312 2.183594-.003906 4.453125 1.226562 6.308594 1.226563 1.855469 3.144532 3.140625 5.328126 3.566406l-5.171876 64.304688c-1.007812 12.835937-3.957031 25.445312-8.742187 37.398437-5.625 13.953125-3.539063 29.832032 5.496094 41.859375 11.753906 15.792969 13.230469 36.984375 3.777343 54.253907-9.453124 17.265624-28.101562 27.441406-47.738281 26.050781-19.636719-1.394531-36.660156-14.101563-43.582031-32.53125-2.792969-7.4375-10.433594-11.882813-18.28125-10.632813-12.28125 1.800782-24.757812 1.800782-37.039062 0-7.867188-1.238281-15.523438 3.222656-18.324219 10.675782-6.957031 18.394531-23.984375 31.054687-43.601563 32.421874-19.617187 1.367188-38.234375-8.808593-47.675781-26.058593-9.445313-17.25-7.980469-38.417969 3.742187-54.203125 9.039063-12.027344 11.125-27.90625 5.503907-41.859375-4.761719-11.957031-7.695313-24.5625-8.695313-37.394531l-5.117187-64.140626c3.535156-.324218 6.480469-2.847656 7.339843-6.296874.863282-3.445313-.550781-7.058594-3.523437-9.003907l-91.066406-60.183593c-12.347657-8.175782-17.878907-23.476563-13.617188-37.65625 4.265625-14.179688 17.316407-23.894532 32.125-23.910157.660157 0 1.265625 0 2.1875.070313 5.835938.375 11.472657 2.273437 16.34375 5.503906l70.007813 46.25c2.503906 1.769531 5.773437 2.035156 8.527344.695312 2.757812-1.34375 4.5625-4.082031 4.707031-7.144531.148437-3.0625-1.386719-5.960937-4-7.5625l-38.800781-25.632812c-1.078126-25.109375 8.144531-49.570313 25.535156-67.71875 17.390625-18.148438 41.4375-28.402344 66.574218-28.394531h100.71875c25.230469 0 49.359376 10.335937 66.761719 28.605468 17.402344 18.269532 26.558594 42.871094 25.332031 68.070313l-37.972656 25.097656c-3.695312 2.613281-4.648437 7.6875-2.15625 11.46875 2.488282 3.78125 7.53125 4.902344 11.390625 2.539063l70.101563-46.273438c15.472656-10.191406 36.273437-5.921875 46.484375 9.535156 10.160156 15.46875 5.910156 36.242188-9.511719 46.476563zm0 0"/><path d="m302.101562 58.96875c-20.65625.03125-39.773437 10.90625-50.359374 28.644531-13.527344-22.699219-40.558594-33.558593-66.03125-26.53125-25.472657 7.03125-43.109376 30.214844-43.082032 56.640625-.046875 11.257813 3.203125 22.285156 9.347656 31.71875 2.472657 3.761719 7.46875 4.90625 11.332032 2.59375 11.683594-6.300781 24.804687-9.449218 38.074218-9.132812 13.265626-.316406 26.390626 2.832031 38.070313 9.132812 3.863281 2.3125 8.863281 1.167969 11.332031-2.59375.359375-.554687.613282-1.167968.957032-1.730468.34375.5625.59375 1.175781.957031 1.730468 2.46875 3.761719 7.46875 4.90625 11.332031 2.59375 11.679688-6.300781 24.800781-9.449218 38.070312-9.132812 13.269532-.316406 26.390626 2.832031 38.074219 9.132812 3.859375 2.3125 8.859375 1.167969 11.332031-2.59375 6.144532-9.433594 9.394532-20.460937 9.347657-31.71875-.035157-32.433594-26.320313-58.71875-58.753907-58.753906zm-109.113281 58.753906c0-4.636718 3.757813-8.394531 8.394531-8.394531 4.632813 0 8.390626 3.757813 8.390626 8.394531 0 4.632813-3.757813 8.390625-8.390626 8.390625-4.636718 0-8.394531-3.757812-8.394531-8.390625zm47.253907 15.894532c-5.230469-2.203126-10.664063-3.890626-16.222657-5.035157 1.65625-3.382812 2.523438-7.09375 2.542969-10.859375 0-13.90625-11.273438-25.179687-25.179688-25.179687-13.910156 0-25.183593 11.273437-25.183593 25.179687.015625 3.75.875 7.453125 2.519531 10.828125-5.558594 1.144531-10.992188 2.832031-16.222656 5.035157-7.152344-17.535157-1.671875-37.6875 13.375-49.1875 15.042968-11.5 35.925781-11.5 50.972656 0 15.042969 11.5 20.523438 31.652343 13.375 49.1875zm53.46875-15.894532c0-4.636718 3.757812-8.394531 8.390624-8.394531 4.636719 0 8.394532 3.757813 8.394532 8.394531 0 4.632813-3.757813 8.390625-8.394532 8.390625-4.632812 0-8.390624-3.757812-8.390624-8.390625zm47.253906 15.894532c-5.230469-2.203126-10.664063-3.890626-16.226563-5.035157 1.660157-3.382812 2.527344-7.09375 2.542969-10.859375 0-13.90625-11.273438-25.179687-25.179688-25.179687s-25.179687 11.273437-25.179687 25.179687c.015625 3.75.875 7.453125 2.519531 10.828125-5.5625 1.144531-10.996094 2.832031-16.226562 5.035157-7.148438-17.535157-1.667969-37.6875 13.375-49.1875 15.046875-11.5 35.929687-11.5 50.972656 0 15.046875 11.5 20.527344 31.652343 13.375 49.1875zm0 0"/><path d="m302.453125 258.855469c9.1875-4.292969 17.191406-10.75 23.335937-18.816407 20.664063-27.765624 9.996094-64.429687 9.535157-65.972656-.863281-2.757812-3.082031-4.878906-5.875-5.613281-2.816407-.75-5.820313-.015625-7.964844 1.953125-.09375.085938-9.503906 8.394531-37.386719 12.363281-10.722656 1.472657-21.535156 2.171875-32.355468 2.097657-10.832032.074218-21.65625-.628907-32.390626-2.097657-27.773437-3.945312-37.207031-12.226562-37.214843-12.226562-2.089844-2.089844-5.125-2.925781-7.988281-2.203125-2.867188.722656-5.140626 2.898437-5.988282 5.726562-.460937 1.542969-11.128906 38.207032 9.535156 65.972656 6.144532 8.066407 14.148438 14.523438 23.332032 18.816407-34.089844 22.410156-49.433594 64.539062-37.738282 103.621093 11.695313 39.085938 47.65625 65.863282 88.453126 65.863282 40.796874 0 76.757812-26.777344 88.453124-65.863282 11.695313-39.082031-3.648437-81.210937-37.742187-103.621093zm-25.53125-58.324219v9.519531c0 4.632813-3.757813 8.390625-8.394531 8.390625-4.632813 0-8.390625-3.757812-8.390625-8.390625v-8.511719h.292969c5.421874-.152343 10.582031-.480468 15.542968-.933593.304688-.039063.648438-.039063.949219-.074219zm-50.359375 0c.308594 0 .664062 0 .972656.058594 4.953125.453125 10.113282.78125 15.519532.933594h.292968v8.527343c0 4.632813-3.757812 8.390625-8.394531 8.390625-4.632813 0-8.390625-3.757812-8.390625-8.390625zm-35.335938 29.578125c-7.835937-11.824219-11.027343-26.128906-8.964843-40.164063 8.789062 3.890626 18.035156 6.660157 27.511719 8.253907v11.851562c-.042969 9.949219 5.804687 18.984375 14.898437 23.023438 9.09375 4.039062 19.71875 2.316406 27.070313-4.390625 7.351562 6.707031 17.972656 8.429687 27.070312 4.390625 9.09375-4.039063 14.941406-13.074219 14.898438-23.023438v-11.921875c9.46875-1.59375 18.707031-4.34375 27.511718-8.183594 2.0625 14.035157-1.128906 28.339844-8.964844 40.164063-10.878906 14.539063-31.238281 21.90625-60.515624 21.90625-29.277344 0-49.640626-7.367187-60.515626-21.90625zm60.515626 181.382813c-36.117188.039062-67.195313-25.515626-74.136719-60.960938-6.9375-35.441406 12.210937-70.832031 45.675781-84.414062 18.804688 3.582031 38.117188 3.582031 56.921875 0 33.464844 13.582031 52.613281 48.972656 45.675781 84.414062-6.941406 35.445312-38.019531 61-74.136718 60.960938zm0 0"/><path d="m259.699219 363.785156c1.464843-4.398437-.910157-9.152344-5.304688-10.617187-6.789062-3.101563-14.796875-1.496094-19.867187 3.976562-6.539063 9.074219 1.636718 22.386719 10.5 34.203125 1.800781 2.398438 4.742187 3.65625 7.71875 3.296875 2.976562-.359375 5.535156-2.277343 6.714844-5.035156 1.175781-2.757813.792968-5.933594-1.003907-8.332031-2.894531-3.722656-5.480469-7.671875-7.730469-11.8125 3.960938.480468 7.710938-1.894532 8.972657-5.679688zm0 0"/></svg>