<svg height="504pt" viewBox="0 0 504.62509 504" width="504pt" xmlns="http://www.w3.org/2000/svg"><path d="m446.585938 225.339844-61.273438 30.132812 25.515625-19.386718 33.660156-16.621094c.671875 1.929687 1.34375 3.863281 2.097657 5.875zm0 0" fill="#ff9701"/><path d="m495.269531 463.128906c-.167969.753906-.421875 1.59375-.589843 2.347656-4.195313 13.597657-17.960938 29.378907-58.753907 30.71875-6.574219.257813-13.160156.144532-19.722656-.332031-.085937.082031-.085937.082031-.167969 0-1.597656-.085937-3.191406-.167969-4.785156-.335937-100.722656-8.394532-36.847656-81.835938-25.179688-134.296875 5.140626-18.75 4.050782-38.664063-3.105468-56.738281-3.550782-8.167969-8.785156-15.488282-15.359375-21.488282-4.140625-3.722656-6.167969-9.253906-5.410157-14.765625.753907-5.515625 4.195313-10.296875 9.183594-12.765625l39.449219-19.386718-25.515625 19.386718 41.882812-20.5625 19.390626-9.570312c-.753907-2.011719-1.425782-3.945313-2.097657-5.875l-19.054687 9.402344-14.605469 7.21875 13.683594-10.410157 20.3125-15.527343c19.136719 55.566406 38.273437 148.144531 8.390625 193.050781-24.507813 36.761719-17.203125 57.660156-2.265625 64.542969 5.203125 2.347656 10.96875 3.164062 16.621093 2.351562 1.007813-.167969 1.929688-.335938 2.851563-.503906 6.785156-1.433594 12.949219-4.957032 17.628906-10.070313 1.265625-1.382812 3.292969-1.757812 4.96875-.917969 1.675781.835938 2.59375 2.683594 2.25 4.527344zm0 0" fill="#ff9701"/><path d="m467.570312 470.09375c-5.539062 11.667969-19.136718 23.585938-51.367187 25.769531-.085937.082031-.085937.082031-.167969 0-1.597656-.085937-3.191406-.167969-4.785156-.335937-100.722656-8.394532-36.847656-81.835938-25.179688-134.296875 5.140626-18.75 4.050782-38.664063-3.105468-56.738281-3.550782-8.167969-8.785156-15.488282-15.359375-21.488282-4.140625-3.722656-6.167969-9.253906-5.410157-14.765625.753907-5.515625 4.195313-10.296875 9.183594-12.765625l39.449219-19.386718 13.683594-10.410157c.335937 1.007813.585937 2.097657.921875 3.191407.589844 1.929687 1.175781 3.945312 1.761718 6.042968 15.78125 55.3125 26.441407 129.511719.671876 168.289063-34.074219 51.113281-6.628907 71.511719 17.207031 66.390625 2.011719-.4375 3.976562-1.054688 5.875-1.847656 5.203125 2.347656 10.96875 3.164062 16.621093 2.351562zm0 0" fill="#fdc008"/><path d="m446.585938 225.339844-61.273438 30.132812 25.515625-19.386718 33.660156-16.621094c.671875 1.929687 1.34375 3.863281 2.097657 5.875zm0 0" fill="#fdc008"/><path d="m272.085938 301.46875c2.621093-5.5 2.742187-11.863281.335937-17.457031 3.160156 5.421875 3.03125 12.160156-.335937 17.457031zm0 0" fill="#ff9701"/><g fill="#fdc008"><path d="m272.085938 492.839844-.921876.25c-7.3125 1.164062-14.679687 1.917968-22.074218 2.269531-1.765625.167969-3.527344.167969-5.207032.25-1.847656.085937-3.527343-1.070313-4.113281-2.824219-.585937-1.757812.066407-3.6875 1.597657-4.730468 16.703124-11.332032 34.746093-35.921876-23.167969-76.464844-30.214844-20.550782-48.339844-54.691406-48.429688-91.234375-.457031-20.148438 2.4375-40.230469 8.5625-59.425781 1.40625-4.511719 4.648438-8.21875 8.929688-10.214844s9.203125-2.097656 13.5625-.277344l3.863281 1.59375 59.761719 24.929688c3.347656 1.425781 6.148437 3.898437 7.972656 7.050781 2.40625 5.59375 2.285156 11.957031-.335937 17.457031-5.269532 7.59375-7.652344 16.824219-6.714844 26.019531 1.066406 8.015625 3.328125 15.824219 6.714844 23.167969 11.402343 23.863281 24.238281 47.015625 38.441406 69.328125 29.796875 49.691406-5.035156 66.980469-38.441406 72.855469zm0 0"/><path d="m264.449219 276.960938-59.761719-24.929688c3.34375-3.125 8.308594-3.765625 12.335938-1.59375l49.1875 26.523438c2.769531 1.625 4.945312 4.097656 6.210937 7.050781-1.824219-3.152344-4.625-5.625-7.972656-7.050781zm0 0"/><path d="m249.089844 495.359375c7.394531-.351563 14.761718-1.105469 22.074218-2.269531-6.859374 1.414062-13.820312 2.253906-20.816406 2.519531-.433594.007813-.863281-.078125-1.257812-.25zm0 0"/><path d="m272.085938 301.46875c-4.136719 8.015625-5.910157 17.039062-5.121094 26.019531.757812 7.902344 2.476562 15.683594 5.121094 23.167969-3.386719-7.34375-5.648438-15.152344-6.714844-23.167969-.9375-9.195312 1.445312-18.425781 6.714844-26.019531zm0 0"/></g><path d="m109.839844 265.378906-53.296875-35.503906c.921875-2.800781 1.847656-5.484375 2.769531-8.058594l10.910156 7.21875zm0 0" fill="#ff9701"/><path d="m93.304688 495.527344c-8.203126.742187-16.445313.96875-24.675782.667968h-.335937c-39.785157-1.425781-53.71875-16.535156-58.082031-29.960937-.335938-1.007813-.585938-2.101563-.839844-3.105469-.34375-1.84375.574218-3.691406 2.25-4.527344 1.675781-.839843 3.703125-.464843 4.96875.917969 4.550781 4.988281 10.53125 8.445313 17.121094 9.902344 23.921874 5.539063 51.957031-14.773437 17.710937-66.222656-29.125-43.648438-11.164063-129.511719 7.304687-184.65625l11.496094 10.492187-10.910156-7.21875c-.921875 2.601563-1.847656 5.285156-2.769531 8.058594l53.296875 35.503906-39.617188-36.34375 54.558594 36.34375c3.863281 2.570313 6.492188 6.632813 7.253906 11.210938.765625 4.582031-.402344 9.273437-3.226562 12.960937-4.78125 6.523438-8.597656 13.703125-11.328125 21.320313-5.875 13.511718-4.367188 25.933594 1.089843 50.359375 11.582032 52.460937 75.457032 125.902343-25.265624 134.296875zm0 0" fill="#fdc008"/><path d="m109.839844 265.378906-53.296875-35.503906c.921875-2.800781 1.847656-5.484375 2.769531-8.058594l10.910156 7.21875zm0 0" fill="#fdc008"/><path d="m444.824219 210.148438c0 88.046874-86.453125 117.507812-193.050781 117.507812-2.347657 0-4.617188 0-6.882813-.082031h-3.019531c-101.980469-1.847657-183.144532-32.148438-183.144532-117.425781 0-85.695313 81.917969-195.484376 184.652344-201.191407 2.773438-.167969 5.542969-.25 8.394532-.25 106.597656 0 193.050781 113.394531 193.050781 201.441407zm0 0" fill="#ff9701"/><path d="m419.644531 210.148438c0 85.277343-79.320312 115.578124-178.984375 117.425781h-2.953125c-99.664062-1.847657-178.980469-32.148438-178.980469-117.425781 0-85.695313 80.054688-195.484376 180.457032-201.191407 100.402344 5.707031 180.460937 115.496094 180.460937 201.191407zm0 0" fill="#fdc008"/><path d="m307.339844 67.710938-4.03125 3.023437-25.378906 19.078125-8.699219 6.519531-16.617188 12.507813c-.582031 2.957031-.863281 5.964844-.839843 8.980468-.007813 24.566407 17.738281 45.546876 41.96875 49.605469 2.769531.507813 5.578124.761719 8.390624.753907 26.871094.097656 49.082032-20.921876 50.472657-47.753907s-18.53125-50.03125-45.265625-52.714843zm0 0" fill="#fff"/><path d="m250.933594 108.839844-23.753906-17.878906-28.703126-21.570313-2.265624-1.679687c-1.105469.085937-2.199219.253906-3.273438.503906-24.199219 4.117187-41.898438 25.09375-41.875 49.640625.019531 24.546875 17.75 45.496093 41.957031 49.570312 2.769531.507813 5.578125.761719 8.394531.753907 27.8125 0 50.359376-22.546876 50.359376-50.359376.023437-3.015624-.257813-6.023437-.839844-8.980468zm0 0" fill="#fff"/><path d="m234.988281 117.820312c0 18.542969-15.03125 33.574219-33.574219 33.574219-18.542968 0-33.574218-15.03125-33.574218-33.574219 0-18.542968 15.03125-33.574218 33.574218-33.574218 18.542969 0 33.574219 15.03125 33.574219 33.574218zm0 0" fill="#f34335"/><path d="m335.707031 117.820312c0 18.542969-15.03125 33.574219-33.574219 33.574219-18.539062 0-33.570312-15.03125-33.570312-33.574219 0-18.542968 15.03125-33.574218 33.570312-33.574218 18.542969 0 33.574219 15.03125 33.574219 33.574218zm0 0" fill="#f34335"/><path d="m218.199219 117.820312c0 9.273438-7.515625 16.789063-16.785157 16.789063-9.273437 0-16.789062-7.515625-16.789062-16.789063 0-9.269531 7.515625-16.785156 16.789062-16.785156 9.269532 0 16.785157 7.515625 16.785157 16.785156zm0 0" fill="#37474f"/><path d="m318.921875 117.820312c0 9.273438-7.515625 16.789063-16.789063 16.789063-9.269531 0-16.785156-7.515625-16.785156-16.789063 0-9.269531 7.515625-16.785156 16.785156-16.785156 9.273438 0 16.789063 7.515625 16.789063 16.785156zm0 0" fill="#37474f"/><path d="m494.847656 436.773438c-3.863281.152343-7.121094 2.925781-7.890625 6.710937-2.003906 9.234375-9.425781 16.316406-18.742187 17.886719-7.296875 2.023437-15.09375-.488282-19.839844-6.386719-6.238281-9.332031-1.933594-26.523437 11.824219-47.160156 32.199219-48.332031 14.027343-129.402344-7.21875-189.542969.167969-2.667969.234375-5.355469.234375-8.167969 0-94.425781-92.957032-209.800781-201.441406-209.800781-108.484376 0-201.441407 115.375-201.441407 209.835938 0 3.84375.140625 7.351562.445313 10.652343-20.589844 59.382813-38.132813 139.363281-6.320313 187.046875 13.738281 20.648438 18.027344 37.835938 11.75 47.171875-4.761719 5.898438-12.570312 8.40625-19.875 6.378907-9.28125-1.585938-16.664062-8.65625-18.644531-17.863282-.75-3.796875-4.007812-6.589844-7.878906-6.753906s-7.347656 2.34375-8.417969 6.066406c-3.476563 13.867188-.351563 28.558594 8.46875 39.8125 14.394531 17.539063 42.695313 24.675782 84.117187 21.257813 30.007813-2.515625 48.925782-10.910157 57.847657-25.589844 13.289062-21.90625.839843-51.453125-11.121094-80.015625-5.738281-12.542969-10.410156-25.550781-13.964844-38.878906-3.753906-12.113282-5.109375-24.84375-3.988281-37.476563 12.71875 3.644531 25.828125 5.769531 39.046875 6.335938 2.40625 36.398437 21.425781 69.664062 51.570313 90.207031 24.867187 17.414062 37.609374 33.730469 35.863281 45.945312-1.796875 12.589844-18.902344 20.984376-25.3125 23.15625-3.785157 1.292969-6.132813 5.078126-5.605469 9.042969.523438 3.964844 3.769531 7.007813 7.761719 7.273438 7.878906.480469 77.863281 3.855469 98.5625-30.214844 9.324219-15.335937 7-34.859375-6.914063-58.058594-22.796875-37.914062-37.269531-62.523437-42.238281-80.105469 35.101563-.605468 69.832031-7.273437 102.660156-19.707031 3.484375 14.324219 3.394531 29.285157-.265625 43.570313-3.578125 13.296875-8.253906 26.277344-13.984375 38.800781-12.035156 28.589844-24.476562 58.140625-11.199219 80.074219 8.921876 14.730468 27.851563 23.125 57.859376 25.640625 6.761718.5625 13.175781.839843 19.234374.839843 31.058594 0 52.878907-7.402343 64.941407-22.082031 8.824219-11.242187 11.972656-25.925781 8.527343-39.792969-.933593-3.820312-4.488281-6.402343-8.410156-6.109374zm-82.902344 50.359374c-23.929687-2-39.027343-7.90625-44.886718-17.578124-8.847656-14.601563 1.90625-40.152344 12.3125-64.863282 6.144531-13.445312 11.128906-27.386718 14.898437-41.679687 5.488281-20.484375 4.222657-42.191407-3.609375-61.894531-8.472656-19.015626-24.511718-33.625-44.234375-40.289063-4.421875-1.1875-8.976562 1.390625-10.242187 5.789063-1.265625 4.402343 1.230468 9.003906 5.609375 10.34375 12.167969 4.3125 22.550781 12.5625 29.503906 23.441406-31.144531 11.644531-64.058594 17.84375-97.304687 18.324218 2.730468-10.648437 8.789062-20.148437 17.296874-27.109374 3.183594-3.296876 3.136719-8.53125-.101562-11.769532-3.238281-3.234375-8.472656-3.28125-11.765625-.101562-14.773437 14.773437-24.230469 28.671875-22.394531 48.507812v.050782c2.125 21.636718 17.34375 47.789062 46.316406 95.996093 10.441406 17.40625 12.792969 31.054688 6.964844 40.671875-8.492188 13.976563-33.019532 19.640625-54.335938 21.570313 5.238282-5.382813 8.691406-12.253907 9.886719-19.671875 2.820313-19.371094-11.601563-40.289063-42.851563-62.164063-28.078124-18.996093-44.890624-50.699219-44.851562-84.605469-.359375-24.988281 4.441406-49.785156 14.101562-72.835937 1.9375-4.210937.097657-9.199219-4.113281-11.140625-4.210937-1.9375-9.199219-.097656-11.140625 4.113281-9.574218 22.554688-14.882812 46.691407-15.652344 71.1875-11.085937-.546875-22.082031-2.320312-32.777343-5.289062 3.667969-8.730469 9.882812-16.148438 17.835937-21.285157 2.683594-1.339843 4.449219-4.011718 4.628906-7.007812.183594-2.992188-1.246093-5.855469-3.75-7.511719-2.503906-1.652343-5.699218-1.847656-8.382812-.507812-19.671875 9.839843-29 37.269531-29.375 38.433593v.058594c-6.867188 16.445313-4.273438 31.746094.839844 54.769532 3.75 14.316406 8.730468 28.28125 14.878906 41.738281 10.367188 24.6875 21.09375 50.21875 12.246094 64.808593-5.875 9.667969-20.980469 15.578126-44.886719 17.574219-30.929687 2.578125-53.355469-1.191406-65.46875-10.910156 1.917969.664063 3.882813 1.203125 5.875 1.601563 13.960937 3.410156 28.605469-1.914063 37.117187-13.496094 6.007813-8.957032 12.472657-29.433594-11.753906-65.820313-28.242187-42.4375-10.773437-118.039062 8.855469-173.988281.414063-1.191406.554687-2.457031.421875-3.710938-.378906-3.566406-.558594-7.148437-.539062-10.734374 0-86.90625 85.210937-193.050782 184.65625-193.050782 99.445312 0 184.65625 106.144532 184.65625 193.050782 0 2.945312-.074219 5.742187-.335938 9.316406-.003906.960937.164062 1.917968.488281 2.820312 16.535157 46.40625 39.792969 131.011719 9.652344 176.261719-24.25 36.371094-17.8125 56.839844-11.8125 65.804687 8.488281 11.589844 23.109375 16.933594 37.066406 13.546876 2.015625-.398438 4.003907-.9375 5.945313-1.609376-12.128906 9.675782-34.53125 13.445313-65.488282 10.84375zm0 0"/><path d="m308.53125 59.410156c-.109375 0-.210938-.042968-.320312-.050781-.5625-.007813-1.125.042969-1.679688.152344-1.550781-.035157-3.0625.492187-4.253906 1.484375l-50.503906 37.972656-50.527344-37.972656c-1.246094-1.011719-2.816406-1.546875-4.425782-1.5-.484374-.089844-.972656-.132813-1.46875-.136719h-.359374c-27.4375 2.988281-49.097657 24.671875-52.058594 52.113281-2.957032 27.441406 13.585937 53.242188 39.757812 62.007813s54.914063-1.867188 69.082032-25.550781c14.148437 23.714843 42.90625 34.375 69.09375 25.617187 26.191406-8.761719 42.746093-34.578125 39.777343-62.035156s-24.65625-49.140625-52.113281-52.101563zm-107.117188 100.378906c-21.78125.078126-40-16.519531-41.949218-38.210937-1.953125-21.691406 13.015625-41.269531 34.460937-45.078125l21.6875 16.300781 27.558594 20.699219c.132813 1.359375.207031 2.800781.207031 4.320312-.027344 23.167969-18.800781 41.941407-41.964844 41.96875zm100.71875 0c-23.164062-.027343-41.9375-18.800781-41.964843-41.96875 0-1.519531.074219-2.960937.210937-4.320312l46.5-34.945312 2.734375-2.054688c21.441407 3.804688 36.410157 23.382812 34.464844 45.074219-1.949219 21.691406-20.164063 38.289062-41.945313 38.214843zm0 0"/><path d="m201.414062 92.640625c-13.90625 0-25.179687 11.273437-25.179687 25.179687s11.273437 25.179688 25.179687 25.179688 25.179688-11.273438 25.179688-25.179688-11.273438-25.179687-25.179688-25.179687zm0 33.574219c-4.636718 0-8.394531-3.757813-8.394531-8.394532 0-4.636718 3.757813-8.394531 8.394531-8.394531 4.636719 0 8.394532 3.757813 8.394532 8.394531 0 4.636719-3.757813 8.394532-8.394532 8.394532zm0 0"/><path d="m302.132812 92.640625c-13.90625 0-25.179687 11.273437-25.179687 25.179687s11.273437 25.179688 25.179687 25.179688c13.910157 0 25.183594-11.273438 25.183594-25.179688s-11.273437-25.179687-25.183594-25.179687zm0 33.574219c-4.632812 0-8.390624-3.757813-8.390624-8.394532 0-4.636718 3.757812-8.394531 8.390624-8.394531 4.636719 0 8.394532 3.757813 8.394532 8.394531 0 4.636719-3.757813 8.394532-8.394532 8.394532zm0 0"/><path d="m318.921875 193.363281h-134.296875c-18.539062 0-33.570312 15.03125-33.570312 33.570313 0 4.636718 3.757812 8.394531 8.390624 8.394531 4.636719 0 8.394532-3.757813 8.394532-8.394531 0-9.269532 7.515625-16.785156 16.785156-16.785156h134.296875c9.269531 0 16.785156 7.515624 16.785156 16.785156 0 4.636718 3.757813 8.394531 8.394531 8.394531 4.636719 0 8.394532-3.757813 8.394532-8.394531 0-18.539063-15.03125-33.570313-33.574219-33.570313zm0 0"/><path d="m260.167969 226.933594h-16.789063c-4.632812 0-8.390625 3.761718-8.390625 8.394531 0 4.636719 3.757813 8.394531 8.390625 8.394531h16.789063c4.636719 0 8.394531-3.757812 8.394531-8.394531 0-4.632813-3.757812-8.394531-8.394531-8.394531zm0 0"/></svg>