<svg height="512pt" viewBox="0 0 512.06795 512" width="512pt" xmlns="http://www.w3.org/2000/svg"><g fill="#6a1b99"><path d="m95.105469 241.71875c-11.785157 11.238281-26.898438 32.351562-33.433594 69.847656-.488281 2.726563.382813 5.523438 2.328125 7.492188 1.949219 1.972656 4.730469 2.875 7.464844 2.421875 4.09375-.769531 8.257812-1.058594 12.417968-.851563 2.53125.171875 4.851563 1.460938 6.335938 3.519532 1.484375 2.054687 1.976562 4.664062 1.34375 7.121093-3.933594 15.378907-1.472656 31.695313 6.828125 45.226563 1.816406 2.976562 5.265625 4.550781 8.707031 3.964844 3.441406-.582032 6.179688-3.199219 6.914063-6.609376 3.414062-16.105468 10.242187-38.640624 23.296875-50.996093zm0 0"/><path d="m417.152344 241.71875c11.785156 11.238281 26.894531 32.351562 33.433594 69.847656.484374 2.726563-.382813 5.523438-2.332032 7.492188-1.945312 1.972656-4.730468 2.875-7.464844 2.421875-4.089843-.769531-8.257812-1.058594-12.417968-.851563-2.527344.171875-4.847656 1.460938-6.332032 3.519532-1.484374 2.054687-1.976562 4.664062-1.347656 7.121093 3.9375 15.378907 1.472656 31.695313-6.824218 45.226563-1.820313 2.976562-5.269532 4.550781-8.707032 3.964844-3.441406-.582032-6.183594-3.199219-6.917968-6.609376-3.414063-16.105468-10.242188-38.640624-23.296876-50.996093zm0 0"/><path d="m418.089844 230.113281c-.171875 4.097657-.511719 7.9375-.9375 11.605469-4.609375 39.679688-23.039063 61.613281-42.242188 81.152344-24.660156 25.003906-50.515625 45.996094-50.515625 95.316406 0 39.085938-39.765625 71.167969-58.539062 82.773438-5.285157 3.277343-11.945313 3.378906-17.324219.257812-.527344-.28125-1.042969-.59375-1.535156-.9375-18.601563-13.3125-59.136719-49.238281-59.136719-82.09375 0-49.320312-25.855469-70.3125-50.515625-95.316406-19.199219-19.539063-37.632812-41.472656-42.238281-81.152344-.429688-3.667969-.769531-7.507812-.941407-11.605469l8.023438-80.980469c-1.28125-21.675781-4.4375-114.175781 40.019531-123.988281 13.3125-2.988281 30.804688 1.449219 53.847657 17.320313.082031.085937.253906.171875.339843.257812h119.464844c.085937-.085937.257813-.171875.34375-.257812 10.984375-8.25 23.566406-14.121094 36.949219-17.234375 62.035156-11.949219 58.367187 99.925781 56.832031 123.902343zm0 0"/></g><path d="m392.660156 230.113281c-.179687 4.097657-.527344 7.9375-.964844 11.605469-4.742187 39.679688-23.722656 61.613281-43.519531 81.152344-25.351562 25.003906-51.941406 45.996094-51.941406 95.316406 0 33.964844-30.917969 62.636719-51.652344 77.144531-20.753906-15.875-54.160156-47.789062-54.160156-77.144531 0-49.320312-26.617187-70.3125-52.003906-95.316406-19.761719-19.539063-38.742188-41.472656-43.519531-81.152344-.433594-3.667969-.785157-7.507812-.964844-11.605469l8.261718-80.980469c-1.230468-20.394531-4.214843-103.339843 33.46875-121.34375 10.066407 3.609376 19.609376 8.546876 28.371094 14.675782.085938.085937.265625.171875.351563.257812h123.042969c.082031-.085937.261718-.171875.347656-.257812 23.542968-15.785156 41.550781-20.222656 55.167968-17.234375h.257813c45.675781 9.898437 42.519531 102.3125 41.113281 123.902343zm0 0" fill="#9c27af"/><path d="m325.332031 194.445312c-17.359375 14.394532-38.351562 23.726563-60.671875 26.964844-5.667968.683594-11.398437.683594-17.066406 0-22.316406-3.238281-43.3125-12.570312-60.671875-26.964844-2.019531-1.621093-3.191406-4.066406-3.191406-6.65625 0-2.589843 1.171875-5.035156 3.191406-6.65625 17.359375-14.394531 38.355469-23.726562 60.671875-26.964843 5.667969-.683594 11.398438-.683594 17.066406 0 22.320313 3.238281 43.3125 12.570312 60.671875 26.964843 2.019531 1.621094 3.195313 4.066407 3.195313 6.65625 0 2.589844-1.175782 5.035157-3.195313 6.65625zm0 0" fill="#f4f4f4"/><path d="m298.792969 187.789062c0-18.851562-19.101563-34.132812-42.664063-34.132812-23.566406 0-42.667968 15.28125-42.667968 34.132812 0 18.851563 19.101562 34.132813 42.667968 34.132813 23.5625 0 42.664063-15.28125 42.664063-34.132813zm0 0" fill="#f34335"/><path d="m220.714844 300.003906c-11.0625 0-22.105469-.882812-33.023438-2.648437-.171875 0-.34375-.082031-.511718-.082031-5.578126-.851563-11.0625-2.222657-16.386719-4.097657-4.089844-1.421875-7.96875-3.402343-11.519531-5.886719-2.117188-1.589843-3.988282-3.488281-5.546876-5.632812-11.175781-16.8125-7.679687-41.046875-3.925781-55.636719 7.714844 2.882813 15.164063 6.421875 22.273438 10.582031 1.449219.765626 2.902343 1.621094 4.351562 2.558594 3.984375 2.511719 7.804688 5.277344 11.433594 8.277344 6.265625 5.003906 11.882813 10.765625 16.726563 17.152344 8.019531 10.410156 13.539062 22.527344 16.128906 35.414062zm0 0" fill="#f4f4f4"/><path d="m358.527344 281.65625c-4.355469 5.519531-10.320313 9.542969-17.066406 11.519531-5.480469 1.941407-11.140626 3.34375-16.894532 4.179688-10.921875 1.765625-21.964844 2.648437-33.023437 2.648437 4.390625-20.855468 16.03125-39.480468 32.851562-52.566406 4.933594-4.070312 10.214844-7.695312 15.785157-10.835938 7.109374-4.160156 14.5625-7.699218 22.273437-10.582031 3.753906 14.589844 7.253906 38.824219-3.925781 55.636719zm0 0" fill="#f4f4f4"/><path d="m204.925781 268.855469c.511719 12.226562-6.539062 23.511719-17.746093 28.417969-5.578126-.851563-11.0625-2.222657-16.386719-4.097657-4.089844-1.421875-7.96875-3.402343-11.519531-5.886719-3.671876-5.441406-5.605469-11.871093-5.546876-18.433593-.835937-14.15625 8.820313-26.789063 22.699219-29.695313.9375-.085937 1.964844-.171875 2.902344-.171875 13.667969.949219 24.496094 11.921875 25.257813 25.601563.246093 1.40625.359374 2.835937.339843 4.265625zm0 0" fill="#f34335"/><path d="m307.328125 268.855469c-.507813 12.226562 6.539063 23.511719 17.75 28.417969 5.578125-.851563 11.0625-2.222657 16.382813-4.097657 4.09375-1.421875 7.96875-3.402343 11.519531-5.886719 3.671875-5.441406 5.605469-11.871093 5.546875-18.433593.839844-14.15625-8.820313-26.789063-22.699219-29.695313-.9375-.085937-1.960937-.171875-2.902344-.171875-13.667969.949219-24.492187 11.921875-25.257812 25.601563-.242188 1.40625-.355469 2.835937-.339844 4.265625zm0 0" fill="#f34335"/><path d="m319.785156 70.113281c-2.558594-1.195312-3.925781-1.789062-3.925781-1.789062 1.382813-8.558594 1.5-17.269531.34375-25.859375-1.105469-14.222656-10.304687-26.535156-23.628906-31.632813-2.460938-.894531-5.195313-.628906-7.4375.71875-2.246094 1.351563-3.757813 3.644531-4.117188 6.238281-.839843 13.390626-11.5 24.070313-24.890625 24.933594-13.390625-.863281-24.054687-11.542968-24.894531-24.933594-.359375-2.59375-1.871094-4.886718-4.113281-6.238281-2.246094-1.347656-4.980469-1.613281-7.4375-.71875-13.328125 5.097657-22.523438 17.410157-23.628906 31.632813-1.160157 8.589844-1.042969 17.300781.339843 25.859375 0 0-1.367187.59375-3.925781 1.789062zm0 0" fill="#9c27af"/><path d="m213.460938 110.988281c-2.179688 8.9375-5.03125 17.691407-8.535157 26.199219-2.046875 5.035156-4.519531 10.582031-7.507812 16.382812-6.40625 12.824219-14.375 24.804688-23.722657 35.667969-4.019531 4.589844-8.355468 8.898438-12.96875 12.886719-20.347656 18.03125-46.542968 28.070312-73.730468 28.246094h-.085938c-.851562.085937-1.789062.085937-2.644531.085937-5.226563.007813-10.449219-.390625-15.617187-1.195312-32-4.949219-49.578126-25.6875-56.488282-53.929688-1.402344-5.691406-2.34375-11.484375-2.816406-17.324219-3.839844-40.277343 9.386719-90.539062 30.976562-132.523437.941407-1.753906 2.976563-2.625 4.894532-2.09375 1.921875.53125 3.21875 2.320313 3.125 4.3125-2.386719 43.777344-3.15625 146.175781 44.546875 125.953125 30.445312-11.714844 50.921875-40.523438 51.964843-73.132812.335938-8.070313 6.285157-14.800782 14.253907-16.125 18.429687-2.902344 48.46875-.085938 54.355469 46.589843zm0 0" fill="#fdc008"/><path d="m247.59375 174.988281c0 7.070313-5.730469 12.800781-12.800781 12.800781-7.066407 0-12.796875-5.730468-12.796875-12.800781 0-7.066406 5.730468-12.800781 12.796875-12.800781 7.070312 0 12.800781 5.734375 12.800781 12.800781zm0 0" fill="#f4f4f4"/><path d="m170.792969 256.054688c0 4.714843-3.820313 8.535156-8.53125 8.535156-4.714844 0-8.535157-3.820313-8.535157-8.535156 0-4.710938 3.820313-8.53125 8.535157-8.53125 4.710937 0 8.53125 3.820312 8.53125 8.53125zm0 0" fill="#f4f4f4"/><path d="m324.394531 273.121094c0 4.714844-3.820312 8.535156-8.535156 8.535156-4.710937 0-8.53125-3.820312-8.53125-8.535156 0-4.710938 3.820313-8.53125 8.53125-8.53125 4.714844 0 8.535156 3.820312 8.535156 8.53125zm0 0" fill="#f4f4f4"/><path d="m502.910156 158.007812c-.253906 2.902344-.597656 5.71875-1.023437 8.449219-.511719 3.070313-1.109375 5.972657-1.789063 8.875-6.914062 28.242188-24.492187 48.980469-56.492187 53.929688-2.644531.425781-5.546875.765625-8.449219.9375-2.273438.171875-4.664062.257812-7.167969.257812-.9375 0-1.792969 0-2.644531-.085937-2.476562 0-4.863281-.085938-7.253906-.257813-1.195313-.085937-2.304688-.167969-3.5-.339843-23.363282-2.414063-45.382813-12.082032-62.972656-27.648438-2.21875-1.878906-4.269532-3.839844-6.316407-5.800781-2.390625-2.390625-4.691406-4.78125-6.742187-7.253907-9.417969-10.75-17.394532-22.683593-23.722656-35.5-1.363282-2.558593-2.558594-5.121093-3.667969-7.59375-1.367188-3.074218-2.644531-5.972656-3.839844-8.789062-3.5-8.507812-6.351563-17.261719-8.535156-26.199219 2.816406-22.1875 11.09375-34.472656 20.992187-40.875 3.359375-2.191406 7.046875-3.832031 10.925782-4.863281 7.28125-1.835938 14.867187-2.128906 22.269531-.851562 8.046875 1.171874 14.109375 7.917968 14.421875 16.042968.792968 22.894532 11.203125 44.398438 28.671875 59.21875 4.300781 3.625 8.960937 6.796875 13.910156 9.472656 2.21875 1.195313 4.523437 2.304688 6.996094 3.414063h.085937c.769532.425781 1.535156.769531 2.304688 1.109375 35.667968 15.105469 44.289062-38.398438 45.3125-84.652344.253906-15.613281-.257813-30.378906-.855469-41.386718-.09375-1.988282 1.203125-3.78125 3.125-4.3125s3.953125.339843 4.898437 2.09375c21.671876 41.984374 34.816407 92.332031 31.058594 132.609374zm0 0" fill="#ff9701"/><path d="m477.398438 158.007812c-.257813 2.902344-.597657 5.71875-1.027344 8.449219-.511719 3.070313-1.105469 5.972657-1.789063 8.875-6.914062 28.242188-24.492187 48.980469-56.492187 53.929688l-3.5.511719c-23.363282-2.414063-45.382813-12.082032-62.972656-27.648438-2.21875-1.878906-4.269532-3.839844-6.316407-5.800781-2.390625-2.390625-4.691406-4.78125-6.742187-7.253907-9.417969-10.75-17.394532-22.683593-23.722656-35.5-1.363282-2.558593-2.558594-5.121093-3.667969-7.59375-1.367188-3.074218-2.644531-5.972656-3.839844-8.789062-3.5-8.507812-6.351563-17.261719-8.535156-26.199219 2.816406-22.1875 11.09375-34.472656 20.992187-40.875 3.359375-2.191406 7.046875-3.832031 10.925782-4.863281 6.484374 2.292969 10.917968 8.3125 11.175781 15.191406.792969 22.894532 11.203125 44.398438 28.671875 59.21875 4.304687 3.625 8.964844 6.796875 13.910156 9.472656 2.902344 1.535157 6.058594 3.074219 9.386719 4.523438 7.328125 3.90625 16.207031 3.480469 23.125-1.109375h.085937c.769532.425781 1.535156.769531 2.304688 1.109375 35.667968 15.105469 44.289062-38.398438 45.3125-84.652344 10.148437 28.519532 14.472656 58.785156 12.714844 89.003906zm0 0" fill="#fdc008"/><path d="m13.105469 201.339844c12.9375 22.570312 36.765625 36.695312 62.773437 37.222656.398438.085938.804688.144531 1.210938.171875.203125 0 .410156-.0625.613281-.078125 2.167969.121094 4.269531.332031 6.519531.332031.5625 0 1.085938-.050781 1.640625-.058593-13.707031 14.507812-29.613281 40.300781-34.484375 84.480468-.316406 2.886719.859375 5.738282 3.117188 7.566406 2.261718 1.824219 5.296875 2.375 8.054687 1.460938 6.679688-2.265625 13.695313-3.390625 20.75-3.328125-3.640625 13.695313-6.082031 41.71875 21.726563 69.53125 2.34375 2.324219 5.816406 3.089844 8.917968 1.964844 3.101563-1.125 5.28125-3.9375 5.589844-7.222657 1.804688-20.410156 8.035156-40.183593 18.261719-57.941406 22.296875 22.160156 41.53125 41.292969 41.53125 82.746094 0 42.90625 56.320313 84.480469 62.667969 89.011719 4.359375 3.160156 9.601562 4.859375 14.984375 4.855469 4.734375.003906 9.375-1.328126 13.390625-3.839844 6.382812-3.949219 62.554687-40.132813 62.554687-90.027344 0-41.453125 19.234375-60.585938 41.507813-82.773438 10.214844 17.765626 16.4375 37.539063 18.226562 57.953126.308594 3.285156 2.488282 6.097656 5.589844 7.222656 3.101562 1.121094 6.574219.355468 8.917969-1.96875 27.808593-27.808594 25.371093-55.832032 21.726562-69.527344 7.054688-.085938 14.074219 1.039062 20.753907 3.328125 2.757812.914063 5.789062.363281 8.050781-1.464844 2.257812-1.824219 3.433593-4.675781 3.117187-7.566406-4.871094-44.160156-20.777344-69.972656-34.484375-84.476563.546875 0 1.050781.050782 1.597657.050782 2.703124 0 5.296874-.09375 7.679687-.273438 41.046875-2.644531 67.472656-27.632812 74.496094-70.339844v-.019531c0-.179687.078125-.339843.101562-.527343 7.5625-46.515626-8.320312-110.746094-40.449219-163.644532-2.066406-3.414062-6.222656-4.9375-10.007812-3.667968-3.78125 1.269531-6.183594 4.988281-5.777344 8.957031 4.515625 44.640625 4.097656 121.046875-16.214844 136.023437-4.476562 3.058594-10.335937 3.199219-14.957031.359375-1.367187-.597656-2.6875-1.214843-3.976562-1.828125 1.367187-29.566406.8125-102.21875-35.414063-122.777344-16.496094-9.386718-37.308594-6.699218-61.953125 7.800782-6.054687-16.886719-21.800781-28.371094-39.730469-28.9726565-4.710937 0-8.53125 3.8203125-8.53125 8.5351565 0 23.894531-14.320312 25.515625-17.066406 25.597656-.699218 0-17.066406-.289062-17.066406-25.597656 0-4.714844-3.820312-8.5351565-8.535156-8.5351565-17.921875.6054685-33.664063 12.0859375-39.722656 28.9648435-24.617188-14.507812-45.414063-17.160156-61.910157-7.835937-35.4375 20.019531-37.066406 88.558594-35.523437 122.726562-1.304688.625-2.484375 1.296875-3.855469 1.886719-4.632813 2.875-10.523437 2.746094-15.027344-.324219-20.300781-14.949218-20.730469-91.367187-16.230469-136.03125.410157-3.972656-1.996093-7.699218-5.78125-8.964844-3.789062-1.269531-7.953124.261719-10.015624 3.683594-36.15625 59.707032-57.847657 146.59375-29.355469 197.179688zm92.605469 170.667968c-8.335938-13.128906-9.851563-29.460937-4.078126-43.894531 1.640626-3.289062.992188-7.253906-1.605468-9.847656-7.304688-7.296875-19.933594-7.085937-29.945313-5.328125 2.761719-18.585938 9.570313-36.339844 19.945313-52.007812 6.054687 23.574218 18.410156 45.054687 35.738281 62.148437-10.078125 14.714844-16.910156 31.398437-20.054687 48.953125zm210.148437 46.179688c0 33.007812-34.25 63.003906-54.519531 75.539062-2.910156 1.804688-6.628906 1.652344-9.386719-.382812-19.207031-13.765625-55.558594-47.171875-55.558594-75.15625 0-48.542969-23.65625-72.085938-46.539062-94.855469l-6.425781-6.441406c-18.527344-18.859375-35.527344-38.878906-39.851563-76.152344-.113281-.980469-.15625-2.097656-.25-3.105469 10.160156-1.464843 20.085937-4.234374 29.535156-8.242187.609375.363281 1.265625.652344 1.945313.851563.113281 0 2.046875.496093 5.019531 1.410156-2.996094 15.460937-4.429687 37.835937 6.824219 54.738281 8.976562 13.382813 31.574218 20.6875 66.886718 21.890625.515626 4.277344 4.144532 7.5 8.457032 7.507812.355468 0 .710937-.023437 1.066406-.066406 4.671875-.585937 7.988281-4.851562 7.40625-9.523437-6.828125-54.75-52.738281-78.910157-77.03125-87.980469 6.5-4.410156 12.59375-9.386719 18.210938-14.875.976562-.632812 1.808593-1.464844 2.449218-2.4375 1.097656-1.140625 2.171875-2.277344 3.226563-3.414062 10.648437 9.292968 41.488281 32.964843 78.804687 32.964843s68.007813-23.5625 78.746094-32.898437c1.484375 1.597656 2.890625 3.320312 4.425781 4.832031 5.953125 5.894531 12.453125 11.207031 19.414063 15.871094-24.320313 9.097656-70.082032 33.28125-76.917969 87.894531-.582031 4.671875 2.730469 8.9375 7.40625 9.523438.351563.054687.703125.09375 1.058594.109374 4.296875-.003906 7.921875-3.207031 8.457031-7.476562 35.300781-1.203125 57.90625-8.53125 66.898438-21.910156 11.230468-16.898438 9.789062-39.296875 6.828124-54.761719 2.738282-.851563 4.617188-1.277344 5.035157-1.371094.667969-.203125 1.308593-.488281 1.902343-.855469 9.472657 3.976563 19.410157 6.730469 29.578126 8.191407-.105469 1.023437-.144532 2.152343-.257813 3.148437-4.324219 37.273438-21.332031 57.292969-39.839844 76.144532l-6.4375 6.453124c-22.910156 22.75-46.566406 46.292969-46.566406 94.835938zm-106.589844-127.078125c-7.175781-.359375-14.328125-1.15625-21.410156-2.386719v-29.773437c9.582031 8.875 16.921875 19.898437 21.410156 32.160156zm-38.476562-7.175781c-3.898438-1.375-7.34375-3.800782-9.957031-7.003906-6.269532-12.003907-7.980469-25.867188-4.820313-39.03125 5.089844 2.320312 10.027344 4.964843 14.777344 7.917968zm149.097656-96.144532c-15.867187 13.085938-34.929687 21.710938-55.230469 24.996094v-49.988281c20.300782 3.28125 39.363282 11.90625 55.230469 24.992187zm-72.296875 24.996094c-20.300781-3.285156-39.363281-11.910156-55.226562-24.996094 15.863281-13.085937 34.925781-21.710937 55.226562-24.992187zm103.84375 64.117188c-2.621094 3.214844-6.070312 5.644531-9.976562 7.03125v-38.347656c4.742187-2.929688 9.671874-5.550782 14.753906-7.84375 3.195312 13.203124 1.5 27.117187-4.777344 39.160156zm-48.503906 14.207031c4.453125-12.390625 11.8125-23.535156 21.460937-32.492187v30.078124c-7.097656 1.242188-14.265625 2.050782-21.460937 2.414063zm109.292968 27.179687c-2.597656 2.597657-3.242187 6.5625-1.601562 9.847657 5.734375 14.4375 4.21875 30.746093-4.082031 43.878906-3.148438-17.535156-9.984375-34.207031-20.050781-48.90625 17.328124-17.09375 29.683593-38.578125 35.738281-62.15625 10.367187 15.671875 17.167969 33.425781 19.925781 52.011719-9.984375-1.742188-22.613281-1.972656-29.929688 5.324218zm35.644532-159.085937c22.886718-16.863281 26.199218-71.742187 25.421875-110.855469 15.710937 34.402344 22.886719 72.09375 20.914062 109.863282-4.324219-.410157-8.527343-1.652344-12.382812-3.660157-4.214844-2.105469-9.34375-.394531-11.449219 3.824219-2.109375 4.21875-.394531 9.34375 3.820312 11.453125 5.34375 2.734375 11.117188 4.535156 17.070313 5.316406-4.917969 25.023438-25.867187 43.738281-51.289063 45.8125-5.191406-9.613281-6.894531-20.730469-4.820312-31.460937.71875-3.035156-.277344-6.21875-2.597656-8.304688-2.320313-2.085937-5.589844-2.742187-8.535156-1.707031-2.941407 1.03125-5.085938 3.589844-5.589844 6.667969-2.453125 11.90625-1.410156 24.269531 2.992187 35.597656-.851562 0-1.800781 0-2.667969-.109375-23.808593-1.789063-46.296874-11.652344-63.738281-27.953125 2.796875-9.734375 8.6875-18.292969 16.785157-24.371094 2.59375-1.671875 4.082031-4.609375 3.898437-7.691406-.1875-3.078125-2.019531-5.816406-4.792969-7.160156-2.777344-1.347656-6.0625-1.09375-8.59375.667968-8.945312 6.277344-15.964844 14.929688-20.265625 24.976563-8.15625-10.105469-15.09375-21.136719-20.675781-32.863281 7.066406-8.019532 15.320312-14.910156 24.472656-20.4375 2.617188-1.566406 4.195313-4.410156 4.148438-7.457032-.050782-3.050781-1.722656-5.839843-4.386719-7.324218-2.664063-1.480469-5.917969-1.425782-8.535156.140625-8.445313 5.097656-16.238281 11.203125-23.210938 18.183593-2.511719-6.480468-4.648437-13.101562-6.398437-19.832031 2.320312-16.308593 8.019531-27.492187 17.015625-33.28125 10.554687-5.628906 22.960937-6.675781 34.3125-2.898437-.921875 27.53125 10.769531 53.976562 31.75 71.824218 4.78125 4.011719 9.953125 7.53125 15.4375 10.503907l.136719.058593.113281.0625c3.019531 1.59375 6.277343 3.191407 9.804687 4.726563 10.203125 5.265625 22.5 4.371094 31.835938-2.3125zm-72.898438-123.128906c21.332032 12.085937 27.835938 57.175781 27.09375 97.433593-.171875-.136718-.367187-.261718-.53125-.398437-18.316406-15.78125-27.777344-39.511719-25.34375-63.566406.550782-3.835938-1.550781-7.558594-5.121094-9.070313-14.578124-5.882812-30.699218-6.746094-45.824218-2.457031.179687-3.714844.128906-7.4375-.144532-11.144531 21.285157-13.757813 38.078126-17.476563 49.871094-10.796875zm-152.234375-17.363281c1.222657 17.765624 15.597657 31.773437 33.390625 32.546874 17.796875-.773437 32.171875-14.792968 33.390625-32.566406 9.878907 3.894532 16.78125 12.945313 17.917969 23.503906-.082031 1.15625.074219 2.316407.460938 3.410157.785156 7.164062.625 14.402343-.476563 21.523437-.085937.738282-.070313 1.488282.050781 2.226563-10.011718 11.273437-16.035156 25.53125-17.136718 40.566406-.117188.960937-.074219 1.9375.121093 2.886719 3.097657 12.628906 7.433594 24.917968 12.953125 36.691406.078125.171875.171875.324219.25.496094 1.542969 3.371094 3.230469 6.527344 4.894532 9.726562-15.984376-9.164062-34.007813-14.183594-52.425782-14.601562-18.476562.429687-36.550781 5.484375-52.566406 14.703125 1.707031-3.183594 3.21875-6.289063 4.632812-9.324219.304688-.503906.558594-1.035156.75-1.589844 5.417969-11.605468 9.722657-23.695312 12.863282-36.113281.195312-.945313.234375-1.914063.117187-2.875-1.070312-15.097656-7.09375-29.417969-17.132812-40.746094.105469-.6875.121093-1.382812.050781-2.074219-1.105469-7.125-1.261719-14.367187-.472656-21.539062.386718-1.09375.539062-2.253906.453125-3.410156 1.148437-10.539063 8.046875-19.566406 17.914062-23.441406zm-85.445312 17.328124c11.792969-6.664062 28.585937-2.917968 49.851562 10.832032-.265625 3.703125-.3125 7.421875-.136719 11.132812-15.121093-4.242187-31.21875-3.378906-45.796874 2.460938-3.5625 1.507812-5.664063 5.222656-5.121094 9.050781 2.398437 24.265625-7.304688 48.160156-25.941406 63.882813-.605469-40.378907 6.03125-85.410157 27.144531-97.359376zm-98.355469 12.46875c-.757812 39.109376 2.558594 93.867188 25.421875 110.703126 9.332031 6.675781 21.621094 7.566406 31.820313 2.304687 3.464843-1.46875 6.6875-3.054687 9.753906-4.726563l.136718-.085937c30.0625-16.304687 48.375-48.15625 47.332032-82.339844 10.914062-3.566406 22.773437-2.832031 33.160156 2.058594 9.695312 5.605469 15.832031 17.066406 18.238281 34.132813-1.699219 6.761718-3.792969 13.417968-6.273437 19.933593-7.003906-7.035156-14.84375-13.1875-23.347656-18.3125-2.613282-1.566406-5.867188-1.621093-8.53125-.136719-2.667969 1.480469-4.339844 4.269532-4.386719 7.320313-.050781 3.046875 1.53125 5.890625 4.148437 7.460937 9.269532 5.597657 17.617188 12.597657 24.746094 20.75-5.644531 11.699219-12.640625 22.699219-20.847656 32.769532-4.292969-10.164063-11.355469-18.917969-20.378906-25.265625-2.53125-1.761719-5.816407-2.015625-8.59375-.671875-2.773438 1.347656-4.605469 4.085937-4.792969 7.164062-.183594 3.078125 1.304687 6.019532 3.898437 7.6875 8.179688 6.15625 14.113282 14.828125 16.886719 24.679688-18.21875 16.773437-41.761719 26.597656-66.5 27.742187 4.394531-11.328125 5.433594-23.683593 2.988281-35.585937-1.058594-4.472656-5.46875-7.308594-9.980468-6.40625-4.507813.902344-7.492188 5.214844-6.746094 9.753906 2.101562 10.785156.390625 21.96875-4.847656 31.632812-18.519532-1.4375-35.113282-11.992187-44.261719-28.160156-3.082031-5.621094-5.457031-11.605468-7.066407-17.808594 5.980469-.746093 11.785157-2.515624 17.160157-5.230468 2.730469-1.363282 4.523437-4.078125 4.707031-7.125.183594-3.042969-1.269531-5.953125-3.8125-7.636719-2.546875-1.679687-5.792969-1.878906-8.523438-.515625-3.917968 2.058594-8.207031 3.3125-12.621093 3.695312-3.453125-33.238281 5.746093-73.863281 21.113281-109.78125zm0 0"/><path d="m229.675781 422.90625c-1.363281-2.726562-4.078125-4.519531-7.125-4.703125-3.042969-.1875-5.953125 1.269531-7.636719 3.8125-1.679687 2.542969-1.878906 5.792969-.515624 8.519531l8.535156 17.070313c2.105468 4.214843 7.234375 5.925781 11.453125 3.820312 4.214843-2.105469 5.925781-7.234375 3.820312-11.449219zm0 0"/><path d="m294.074219 419.085938c-2.023438-1.011719-4.367188-1.179688-6.515625-.460938-2.148438.714844-3.925782 2.257812-4.933594 4.28125l-8.535156 17.070312c-2.105469 4.214844-.394532 9.34375 3.824218 11.449219s9.34375.394531 11.449219-3.820312l8.535157-17.070313c1.011718-2.023437 1.179687-4.367187.460937-6.515625-.714844-2.148437-2.257813-3.921875-4.285156-4.933593zm0 0"/><path d="m221.996094 384.054688c4.710937 0 8.53125-3.820313 8.53125-8.53125v-34.132813c0-4.714844-3.820313-8.535156-8.53125-8.535156-4.714844 0-8.535156 3.820312-8.535156 8.535156v34.132813c0 4.710937 3.820312 8.53125 8.535156 8.53125zm0 0"/><path d="m290.261719 332.855469c-4.714844 0-8.535157 3.820312-8.535157 8.535156v34.132813c0 4.710937 3.820313 8.53125 8.535157 8.53125 4.710937 0 8.53125-3.820313 8.53125-8.53125v-34.132813c0-4.714844-3.820313-8.535156-8.53125-8.535156zm0 0"/></svg>