<svg height="512pt" viewBox="0 0 512.16691 512" width="512pt" xmlns="http://www.w3.org/2000/svg"><g fill="#37474f"><path d="m95.09375 241.757812c-12.425781 11.859376-28.570312 34.695313-34.390625 76.175782-.199219 1.410156.320313 2.824218 1.378906 3.773437 1.0625.949219 2.523438 1.304688 3.902344.953125 8.023437-2.472656 16.578125-2.652344 24.695313-.519531 1.964843.925781 2.886718 3.207031 2.117187 5.238281-6.648437 20.144532-2.101563 42.304688 11.945313 58.199219 1.054687 1.316406 2.785156 1.890625 4.417968 1.460937 1.628906-.429687 2.855469-1.777343 3.125-3.441406 2.417969-15.15625 9.082032-45.550781 25.089844-60.6875zm0 0"/><path d="m417.140625 241.757812c12.425781 11.859376 28.570313 34.695313 34.429687 76.175782.199219 1.410156-.316406 2.824218-1.378906 3.773437-1.058594.949219-2.523437 1.304688-3.902344.953125-8.019531-2.472656-16.574218-2.652344-24.695312-.519531-1.964844.925781-2.882812 3.207031-2.117188 5.238281 6.652344 20.144532 2.101563 42.304688-11.945312 58.199219-1.054688 1.316406-2.785156 1.890625-4.414062 1.460937-1.632813-.429687-2.859376-1.777343-3.128907-3.441406-2.414062-15.15625-9.078125-45.550781-25.089843-60.6875zm0 0"/><path d="m418.25 221.957031c.039062 6.617188-.332031 13.230469-1.109375 19.800781-4.609375 39.679688-23.039063 61.609376-42.242187 81.152344-24.660157 25-50.515626 45.992188-50.515626 95.316406 0 39.082032-39.765624 71.167969-58.539062 82.773438-5.316406 3.292969-12.027344 3.359375-17.40625.167969-.519531-.21875-1.007812-.503907-1.453125-.851563-18.601563-13.3125-59.136719-49.238281-59.136719-82.089844 0-49.324218-25.855468-70.316406-50.515625-95.316406-19.765625-17.808594-33.664062-41.199218-39.851562-67.074218-.9375-4.4375-1.792969-9.128907-2.386719-14.078126-.78125-6.570312-1.152344-13.183593-1.109375-19.800781 0-2.898437.082031-5.714843.167969-8.445312.34375-5.546875.855468-10.921875 1.621094-16.128907 4.269531-29.566406 16.882812-57.300781 36.351562-79.957031l57.515625-45.824219c4.265625-2.21875 6.742187-3.242187 6.742187-3.242187-4.609374-31.828125 5.460938-46.679687 15.785157-53.589844.464843-.34375.949219-.65625 1.453125-.9375 2.59375-1.621093 5.410156-2.859375 8.363281-3.671875h.082031c2.734375-.898437 5.574219-1.417968 8.449219-1.535156 0 20.90625 9.644531 29.015625 17.066406 32.171875.769531.339844 1.535157.597656 2.21875.851563 2.046875.648437 4.171875 1.023437 6.316407 1.109374 11.347656-.652343 20.953124-8.601562 23.722656-19.625.84375-3.042968 1.414062-6.15625 1.707031-9.300781.082031-1.621093.167969-3.414062.167969-5.207031 0 0 42.667968 0 34.132812 59.734375 0 0 2.476563 1.023437 6.742188 3.242187l57.515625 45.824219c24.945312 29.082031 38.496093 66.222657 38.144531 104.53125zm0 0"/></g><path d="m401.183594 221.957031c.039062 6.617188-.332032 13.230469-1.109375 19.800781-4.609375 39.679688-23.039063 61.609376-42.242188 81.152344-24.660156 25-50.515625 45.992188-50.515625 95.316406 0 33.875-29.867187 62.464844-50.003906 77.054688-20.140625-16.042969-52.398438-47.785156-52.398438-77.054688 0-49.324218-25.855468-70.316406-50.515624-95.316406-19.199219-19.542968-37.632813-41.472656-42.238282-81.152344-.78125-6.570312-1.152344-13.183593-1.109375-19.800781-.355469-38.308593 13.199219-75.449219 38.140625-104.53125l57.515625-45.824219c4.269531-2.21875 6.742188-3.242187 6.742188-3.242187-2.789063-13.4375-1.390625-27.40625 4.011719-40.023437 4.03125 8.382812 12.300781 13.910156 21.589843 14.421874 2.9375-.132812 5.828125-.800781 8.53125-1.960937.382813.179687.785157.320313 1.195313.425781.472656.195313.957031.367188 1.449218.511719 3.808594 1.367187 7.972657 1.367187 11.777344 0 .511719-.171875.9375-.339844 1.449219-.511719.40625-.117187.808594-.261718 1.195313-.425781 10.480468-4.84375 17.109374-15.421875 16.898437-26.964844 5.714844 3.457031 10.308594 8.496094 13.226563 14.503907 5.398437 12.617187 6.796874 26.585937 4.007812 40.023437 0 0 2.476562 1.023437 6.742188 3.242187l57.515624 45.824219c24.945313 29.082031 38.496094 66.222657 38.144532 104.53125zm0 0" fill="#35495e"/><path d="m392.648438 221.957031c.039062 6.617188-.328126 13.230469-1.109376 19.800781-4.777343 39.679688-23.722656 61.609376-43.519531 81.152344-25.34375 25-51.96875 45.992188-51.96875 95.316406 0 33.875-30.804687 62.464844-51.539062 77.054688-20.738281-16.042969-53.933594-47.785156-53.933594-77.054688 0-49.324218-26.621094-70.316406-51.964844-95.316406-20.226562-17.644531-34.578125-41.046875-41.132812-67.074218-.9375-4.4375-1.792969-9.128907-2.386719-14.078126-.78125-6.570312-1.152344-13.183593-1.109375-19.800781 0-2.898437.082031-5.714843.167969-8.445312.34375-5.546875.855468-10.921875 1.621094-16.128907 4.523437-29.707031 17.53125-57.472656 37.460937-79.957031l59.222656-45.824219c4.351563-2.21875 6.914063-3.242187 6.914063-3.242187-2.878906-13.417969-1.414063-27.40625 4.179687-39.9375 2.390625 4.523437 5.460938-6.3125 8.617188-13.652344 1.621093-3.839843 3.242187-6.828125 4.78125-6.144531.40625.195312.835937.335938 1.277343.425781.511719.171875.941407.34375 1.453126.511719.851562.257812 1.621093.429688 2.304687.597656h.082031c1.210938.25 2.4375.390625 3.671875.429688 0 0 2.558594 32.167968 6.058594 31.144531.425781-.171875.9375-.253906 1.535156-.511719.40625-.117187.804688-.261718 1.195313-.425781.386718.164063.789062.308594 1.195312.425781.597656.257813 1.023438.339844 1.449219.511719 1.421875.421875 2.878906.707031 4.351563.855469.28125.066406.566406.09375.855468.082031.308594.050781.621094.078125.9375.085937 2.199219-.085937 4.378906-.457031 6.484375-1.109374 2.046875.648437 4.171875 1.023437 6.316407 1.109374 11.347656-.652343 20.953124-8.601562 23.722656-19.625 1.246094 1.625 2.332031 3.367188 3.242187 5.203126 5.597657 12.5625 7.0625 26.578124 4.179688 40.023437 0 0 2.5625 1.023437 6.914062 3.242187l59.21875 45.824219c25.554688 28.796875 39.539063 66.035157 39.253907 104.53125zm0 0" fill="#607d8a"/><path d="m220.703125 300.039062c-8.386719-.058593-16.761719-.570312-25.089844-1.535156-2.644531-.257812-5.289062-.683594-7.933593-1.109375-5.757813-.839843-11.414063-2.238281-16.898438-4.183593-5.570312-1.765626-10.652344-4.800782-14.847656-8.875-.828125-.800782-1.570313-1.6875-2.21875-2.644532-11.175782-16.808594-7.679688-41.042968-3.925782-55.636718 6.28125 2.347656 12.382813 5.140624 18.261719 8.363281 1.28125.683593 2.648438 1.449219 4.011719 2.21875 5.570312 3.140625 10.855469 6.765625 15.785156 10.835937 6.34375 5.039063 12.019532 10.859375 16.898438 17.324219 7.878906 10.410156 13.332031 22.453125 15.957031 35.242187zm0 0" fill="#ffebb2"/><path d="m358.515625 281.691406c-4.355469 5.519532-10.320313 9.546875-17.066406 11.519532-5.480469 1.945312-11.140625 3.34375-16.894531 4.183593-10.921876 1.761719-21.964844 2.648438-33.023438 2.644531 4.390625-20.855468 16.03125-39.480468 32.851562-52.566406 4.933594-4.070312 10.214844-7.695312 15.785157-10.835937 7.109375-4.15625 14.5625-7.699219 22.273437-10.582031 3.753906 14.59375 7.253906 38.828124-3.925781 55.636718zm0 0" fill="#ffebb2"/><path d="m204.914062 268.890625c.316407 10.636719-2.960937 21.066406-9.300781 29.613281-2.644531-.257812-5.289062-.683594-7.933593-1.109375-5.757813-.839843-11.414063-2.238281-16.898438-4.183593-5.570312-1.765626-10.652344-4.800782-14.847656-8.875-1.5-5.007813-2.246094-10.214844-2.21875-15.445313-.75-13.078125 4.535156-25.78125 14.335937-34.472656 1.28125.683593 2.648438 1.449219 4.011719 2.21875 5.570312 3.140625 10.855469 6.765625 15.785156 10.835937 6.34375 5.039063 12.019532 10.859375 16.898438 17.324219.085937 1.363281.167968 2.730469.167968 4.09375zm0 0" fill="#f34335"/><path d="m307.316406 268.890625c-.316406 10.636719 2.960938 21.066406 9.300782 29.613281 2.644531-.257812 5.289062-.683594 7.9375-1.109375 5.753906-.839843 11.414062-2.238281 16.894531-4.183593 5.570312-1.765626 10.65625-4.800782 14.847656-8.875 1.5-5.007813 2.25-10.214844 2.21875-15.445313.75-13.078125-4.53125-25.78125-14.335937-34.472656-1.28125.683593-2.644532 1.449219-4.011719 2.21875-5.570313 3.140625-10.851563 6.765625-15.785157 10.835937-6.339843 5.039063-12.019531 10.859375-16.894531 17.324219-.085937 1.363281-.171875 2.730469-.171875 4.09375zm0 0" fill="#f34335"/><path d="m212.9375 131.503906c-6.914062 43.4375-35.925781 45.996094-53.84375 43.179688-7.96875-1.324219-13.917969-8.054688-14.253906-16.128906-1.023438-32.613282-21.503906-61.433594-51.964844-73.128907-47.703125-20.222656-46.933594 82.089844-44.546875 125.953125.09375 1.988282-1.203125 3.78125-3.125 4.3125-1.917969.53125-3.953125-.339844-4.894531-2.09375-21.589844-41.984375-34.730469-92.246094-30.976563-132.523437.480469-5.839844 1.421875-11.632813 2.816407-17.324219 6.910156-28.246094 24.488281-48.980469 56.488281-54.015625 5.175781-.734375 10.394531-1.105469 15.617187-1.109375.9375 0 1.792969 0 2.644532.085938h.085937c27.1875.175781 53.382813 10.214843 73.730469 28.246093 4.636718 3.96875 8.96875 8.273438 12.96875 12.882813 9.382812 10.828125 17.378906 22.78125 23.808594 35.585937 2.902343 5.800781 5.375 11.347657 7.507812 16.382813 2.984375 7.4375 5.519531 15.046875 7.597656 22.785156.621094 2.25.738282 4.609375.339844 6.910156zm0 0" fill="#fdc008"/><path d="m471.925781 213.597656c-.945312 1.753906-2.976562 2.625-4.898437 2.09375s-3.21875-2.324218-3.125-4.3125c.597656-11.007812 1.109375-25.601562.683594-41.132812-.9375-46.25-9.472657-100.011719-45.226563-84.820313-.769531.339844-1.535156.683594-2.304687 1.109375h-.085938c-29.199219 12.230469-48.574219 40.378906-49.578125 72.019532-.335937 8.074218-6.28125 14.804687-14.25 16.128906-7.457031 1.316406-15.109375 1.027344-22.441406-.851563-13.742188-3.671875-27.050781-14.765625-31.40625-42.328125-.398438-2.300781-.28125-4.660156.34375-6.910156 2.074219-7.738281 4.609375-15.347656 7.59375-22.785156 2.132812-5.035156 4.609375-10.582032 7.507812-16.382813 6.429688-12.804687 14.429688-24.757812 23.808594-35.585937 4-4.609375 8.335937-8.914063 12.972656-12.882813 17.5-15.585937 39.484375-25.234375 62.804688-27.5625 3.5-.34375 7.167969-.597656 10.921875-.683593h.085937c.851563-.085938 1.707031-.085938 2.644531-.085938 5.226563.003906 10.445313.375 15.617188 1.109375 32 5.035156 49.578125 25.769531 56.492188 54.015625 1.390624 5.691406 2.332031 11.484375 2.8125 17.324219 3.757812 40.277343-9.386719 90.539062-30.972657 132.523437zm0 0" fill="#ff9701"/><path d="m464.585938 170.246094c-.9375-46.25-9.472657-100.011719-45.226563-84.820313-.769531.339844-1.535156.683594-2.304687 1.109375h-.085938c-6.917969-4.59375-15.800781-5.019531-23.125-1.109375-30.460938 11.695313-50.941406 40.515625-51.96875 73.128907-.265625 6.894531-4.6875 12.9375-11.175781 15.277343-13.742188-3.671875-27.050781-14.765625-31.40625-42.328125-.398438-2.300781-.28125-4.660156.34375-6.910156 2.074219-7.738281 4.609375-15.347656 7.59375-22.785156 2.132812-5.035156 4.609375-10.582032 7.507812-16.382813 6.429688-12.804687 14.429688-24.757812 23.808594-35.585937 4-4.609375 8.335937-8.914063 12.972656-12.882813 17.5-15.585937 39.484375-25.234375 62.804688-27.5625 1.257812.023438 2.511719.136719 3.753906.339844 32 5.035156 49.578125 25.769531 56.492187 54.015625 1.390626 5.691406 2.335938 11.484375 2.816407 17.324219 1.8125 30.285156-2.542969 60.621093-12.800781 89.171875zm0 0" fill="#fdc008"/><path d="m170.78125 256.09375c0 4.710938-3.820312 8.53125-8.53125 8.53125-4.714844 0-8.535156-3.820312-8.535156-8.53125 0-4.714844 3.820312-8.535156 8.535156-8.535156 4.710938 0 8.53125 3.820312 8.53125 8.535156zm0 0" fill="#f4f4f4"/><path d="m358.515625 256.09375c0 4.710938-3.820313 8.53125-8.53125 8.53125-4.714844 0-8.535156-3.820312-8.535156-8.53125 0-4.714844 3.820312-8.535156 8.535156-8.535156 4.710937 0 8.53125 3.820312 8.53125 8.535156zm0 0" fill="#f4f4f4"/><path d="m49.753906 239.027344c2.417969.011718 4.730469-1.003906 6.359375-2.792969 1.625-1.792969 2.417969-4.1875 2.175781-6.59375-4.5-44.65625-4.070312-121.074219 16.210938-136.023437 4.503906-3.070313 10.394531-3.199219 15.027344-.324219 12.570312 5.054687 23.589844 13.324219 31.957031 23.980469-23.660156 29.730468-36.382813 66.691406-36.035156 104.683593 0 6.058594.308593 11.460938.792969 16.589844-13.789063 14.398437-29.953126 40.304687-34.875 84.882813-.316407 2.886718.859374 5.738281 3.117187 7.566406 2.261719 1.824218 5.296875 2.375 8.054687 1.460937 6.675782-2.28125 13.695313-3.40625 20.75-3.328125-3.640624 13.695313-6.082031 41.71875 21.726563 69.53125 2.34375 2.324219 5.816406 3.089844 8.917969 1.964844 3.101562-1.125 5.28125-3.9375 5.589844-7.222656 1.804687-20.410156 8.035156-40.183594 18.261718-57.941406 22.296875 22.179687 41.53125 41.308593 41.53125 82.765624 0 42.820313 56.277344 84.480469 62.695313 89.042969 8.351562 6.03125 19.515625 6.4375 28.285156 1.035157 6.410156-3.960938 62.617187-40.066407 62.617187-90.078126 0-41.457031 19.234376-60.585937 41.507813-82.773437 10.214844 17.761719 16.4375 37.539063 18.226563 57.949219.308593 3.285156 2.488281 6.097656 5.589843 7.222656 3.101563 1.125 6.574219.359375 8.917969-1.964844 27.808594-27.8125 25.371094-55.835937 21.726562-69.53125 7.058594-.105468 14.082032 1.019532 20.753907 3.328125 2.757812.914063 5.789062.363281 8.050781-1.460937 2.257812-1.828125 3.433594-4.679688 3.117188-7.566406-4.921876-44.578126-21.085938-70.484376-34.875-84.882813.484374-5.121094.792968-10.546875.792968-16.589844.359375-37.992187-12.355468-74.957031-36.011718-104.695312 8.367187-10.652344 19.390624-18.921875 31.957031-23.976563 4.632812-2.875 10.523437-2.746094 15.027343.324219 20.300782 14.949219 20.730469 91.367187 16.214844 136.019531-.414062 3.976563 1.988282 7.707032 5.777344 8.976563s7.953125-.261719 10.019531-3.683594c36.152344-59.734375 57.847657-146.59375 29.351563-197.179687-12.851563-22.4375-36.476563-36.542969-62.324219-37.207032-.359375-.042968-.71875-.058594-1.078125-.050781-2.558594-.171875-5.007812-.390625-7.636719-.390625-32.753906-.394531-64.28125 12.457031-87.421875 35.640625-.976562.636719-1.8125 1.46875-2.449218 2.441406-4.539063 4.648438-8.789063 9.574219-12.714844 14.746094.644531-13.691406-3.703125-27.152344-12.238282-37.878906-8.039062-9.035157-19.394531-14.429688-31.480468-14.949219-4.710938 0-8.53125 3.820312-8.53125 8.53125 0 23.894531-14.320313 25.515625-17.066406 25.601562-.699219 0-17.066407-.292968-17.066407-25.601562 0-4.710938-3.820312-8.53125-8.535156-8.53125-12.089844.515625-23.453125 5.910156-31.496094 14.949219-8.535156 10.726562-12.882812 24.1875-12.238281 37.878906-3.925781-5.171875-8.171875-10.097656-12.714844-14.746094-.636718-.972656-1.472656-1.804687-2.449218-2.441406-23.136719-23.179687-54.65625-36.03125-87.40625-35.640625-2.644532 0-5.117188.21875-7.679688.390625-.335938 0-.671875.015625-1.007812.050781-25.878907.632813-49.546876 14.742188-62.410157 37.207032-28.492187 50.585937-6.828125 137.472656 29.355469 197.179687 1.542969 2.546875 4.304688 4.101563 7.285156 4.105469zm55.945313 133.042968c-8.332031-13.128906-9.851563-29.460937-4.078125-43.898437 1.640625-3.285156.992187-7.25-1.605469-9.847656-7.296875-7.292969-19.925781-7.074219-29.941406-5.324219 2.757812-18.585938 9.566406-36.339844 19.941406-52.007812 6.054687 23.570312 18.410156 45.054687 35.738281 62.144531-10.074218 14.710937-16.910156 31.386719-20.054687 48.933593zm306.515625-53.761718c-2.597656 2.59375-3.242188 6.5625-1.601563 9.847656 5.734375 14.4375 4.21875 30.746094-4.082031 43.878906-3.148438-17.539062-9.984375-34.207031-20.050781-48.90625 17.328125-17.089844 29.6875-38.574218 35.746093-62.148437 10.359376 15.675781 17.160157 33.433593 19.917969 52.019531-9.984375-1.738281-22.613281-1.96875-29.929687 5.324219zm-70.277344-259.59375c4.285156 10.164062 11.34375 18.921875 20.367188 25.269531 2.53125 1.757813 5.816406 2.015625 8.59375.667969 2.773437-1.347656 4.605468-4.085938 4.792968-7.164063.183594-3.078125-1.304687-6.015625-3.898437-7.6875-8.179688-6.15625-14.109375-14.824219-16.886719-24.679687 18.21875-16.773438 41.761719-26.597656 66.5-27.742188-4.394531 11.328125-5.429688 23.683594-2.984375 35.585938.796875 3.988281 4.292969 6.859375 8.359375 6.859375.574219.003906 1.148438-.050781 1.707031-.167969 2.21875-.453125 4.167969-1.769531 5.414063-3.65625 1.25-1.890625 1.695312-4.195312 1.242187-6.414062-2.085937-10.769532-.367187-21.929688 4.855469-31.574219 18.523438 1.4375 35.113281 11.992187 44.261719 28.160156 3.101562 5.65625 5.484375 11.675781 7.09375 17.921875-5.988281.726562-11.804688 2.492188-17.1875 5.222656-4.21875 2.105469-5.929688 7.230469-3.824219 11.449219 2.109375 4.21875 7.234375 5.929687 11.453125 3.824219 3.921875-2.054688 8.210937-3.308594 12.621094-3.6875 3.457031 33.1875-5.742188 73.8125-21.113281 109.730468.761718-39.109374-2.558594-93.867187-25.417969-110.703124-4.902344-3.652344-10.859375-5.613282-16.972657-5.589844-5.121093.085937-10.171874 1.203125-14.847656 3.285156-17.460937 6.941406-32.359375 19.097656-42.667968 34.808594-.441407.542968-.8125 1.140625-1.109376 1.773437-9.035156 15.308594-13.699218 32.796875-13.484374 50.570313-10.910157 3.558594-22.769532 2.824218-33.160157-2.058594-9.691406-5.605469-15.828125-17.066406-18.234375-34.132812 1.695313-6.761719 3.792969-13.417969 6.273438-19.933594 7.003906 7.035156 14.84375 13.183594 23.34375 18.3125 2.617187 1.566406 5.871094 1.621094 8.535156.140625 2.664062-1.484375 4.335938-4.273438 4.386719-7.324219.050781-3.046875-1.53125-5.890625-4.148438-7.457031-9.269531-5.601563-17.617187-12.601563-24.746093-20.753907 2.191406-4.496093 4.683593-9.148437 7.507812-13.851562.628906-.613281 1.160156-1.320312 1.570312-2.097656.089844-.285156.164063-.570313.222657-.863282 3.511719-5.589843 7.378906-10.949218 11.582031-16.042968zm-137.105469 8.433594c-2.648437-18.527344-.316406-32.238282 6.917969-40.746094 2.949219-3.433594 6.730469-6.046875 10.984375-7.589844 1.257813 17.738281 15.617187 31.710938 33.382813 32.480469 17.742187-.773438 32.089843-14.714844 33.371093-32.425781 4.183594 1.507812 7.910157 4.058593 10.839844 7.40625 7.355469 8.488281 9.746094 22.253906 7.074219 40.960937-.417969 3.117187.929687 6.210937 3.496094 8.027344-2.558594 4.601562-4.828126 9.089843-6.824219 13.40625-.304688.5-.558594 1.035156-.75 1.585937-5.417969 11.605469-9.722657 23.699219-12.863281 36.113282-.195313.945312-.234376 1.917968-.117188 2.878906 2.960938 23.507812 12.023438 39.761718 26.921875 48.339844 23.699219 13.652343 52.589844 1.621093 53.804687 1.117187 3.558594-1.507813 5.660157-5.222656 5.117188-9.054687-1.203125-12.398438.636719-24.902344 5.359375-36.425782 18.628906 25.808594 28.5 56.90625 28.167969 88.734375.039062 6.273438-.3125 12.546875-1.046875 18.773438-4.328125 37.273437-21.335938 57.292969-39.84375 76.144531l-6.433594 6.453125c-22.886719 22.808594-46.542969 46.351563-46.542969 94.898437 0 33.101563-34.269531 63.058594-54.507812 75.542969-2.914063 1.796875-6.621094 1.652344-9.386719-.355469-19.21875-13.808593-55.570313-47.277343-55.570313-75.1875 0-48.546874-23.65625-72.089843-46.539062-94.859374l-6.425781-6.441407c-18.527344-18.859375-35.527344-38.878906-39.859375-76.226562-.734375-6.21875-1.082032-12.476563-1.042969-18.742188-.339844-31.859375 9.546875-62.992187 28.203125-88.820312 4.730469 11.515625 6.570312 24.011719 5.359375 36.402343-.554687 3.839844 1.546875 7.566407 5.121094 9.078126 1.210937.503906 30.113281 12.484374 53.800781-1.117188 14.898438-8.53125 23.960938-24.832031 26.921875-48.339844.121094-.960937.078125-1.929687-.117187-2.878906-3.136719-12.414062-7.445313-24.507812-12.859376-36.109375-.195312-.554687-.449218-1.085937-.753906-1.589844-2.019531-4.316406-4.265625-8.804687-6.824218-13.40625 2.554687-1.824219 3.886718-4.917969 3.464843-8.027343zm-187.019531 13.6875c4.414062.402343 8.703125 1.671874 12.621094 3.734374 2.730468 1.363282 5.976562 1.167969 8.523437-.511718 2.542969-1.683594 3.996094-4.59375 3.8125-7.640625-.183593-3.042969-1.976562-5.757813-4.707031-7.121094-5.378906-2.726563-11.195312-4.496094-17.183594-5.222656 1.605469-6.246094 3.988282-12.265625 7.089844-17.917969 9.152344-16.160156 25.746094-26.710938 44.261719-28.144531 5.226562 9.644531 6.941406 20.804687 4.855469 31.574219-.453126 2.21875-.003907 4.523437 1.242187 6.414062 1.25 1.886719 3.195313 3.203125 5.414063 3.65625.5625.117188 1.132812.171875 1.707031.167969 4.050781 0 7.542969-2.855469 8.355469-6.824219 2.445312-11.902344 1.40625-24.257812-2.988282-35.585938 24.738282 1.144532 48.28125 10.96875 66.5 27.742188-2.773437 9.855469-8.707031 18.523438-16.886718 24.679688-2.59375 1.667968-4.082032 4.609374-3.898438 7.6875.1875 3.078124 2.019531 5.816406 4.792969 7.164062 2.777343 1.34375 6.0625 1.089844 8.59375-.671875 9.03125-6.355469 16.097656-15.121094 20.386719-25.300781 4.195312 5.097656 8.058593 10.457031 11.570312 16.042968.0625.261719.136719.523438.222656.777344.332032.53125.726563 1.019532 1.167969 1.460938 2.988281 4.914062 5.617187 9.785156 7.910156 14.503906-7.128906 8.152344-15.476562 15.15625-24.746093 20.753906-4.042969 2.421875-5.355469 7.664063-2.933594 11.707032 2.421875 4.042968 7.664062 5.359374 11.707031 2.9375 8.5-5.128907 16.339844-11.28125 23.347656-18.3125 2.480469 6.515624 4.574219 13.171874 6.269531 19.933593-2.40625 17.066407-8.53125 28.550781-18.234374 34.132813-10.386719 4.886718-22.25 5.621094-33.160157 2.054687.214844-17.769531-4.449219-35.261719-13.484375-50.566406-.292968-.636719-.667968-1.230469-1.109375-1.773437-10.304687-15.714844-25.203125-27.867188-42.664062-34.808594-10.203125-5.253906-22.484375-4.363282-31.820313 2.304687-22.855468 16.835938-26.179687 71.59375-25.421875 110.703125-15.367187-35.910156-24.566406-76.535156-21.113281-109.730468zm0 0"/><path d="m213.519531 308.351562c.53125 4.269532 4.160157 7.472657 8.464844 7.472657.355469 0 .710937-.023438 1.066406-.066407 4.671875-.585937 7.988281-4.847656 7.40625-9.523437-9.175781-73.386719-88.578125-91.863281-91.949219-92.613281-4.601562-1.023438-9.164062 1.882812-10.1875 6.484375-1.023437 4.605469 1.882813 9.167969 6.484376 10.191406.113281 0 2.050781.492187 5.019531 1.40625-2.996094 15.464844-4.429688 37.835937 6.828125 54.742187 8.976562 13.378907 31.570312 20.683594 66.882812 21.886719zm-52.695312-31.386718c-6.269531-12-7.980469-25.867188-4.820313-39.03125 5.089844 2.320312 10.027344 4.964844 14.777344 7.917968v38.128907c-3.898438-1.378907-7.34375-3.804688-9.957031-7.015625zm27.023437 11.792968v-29.773437c9.582032 8.875 16.921875 19.898437 21.410156 32.164063-7.175781-.363282-14.328124-1.160157-21.410156-2.390626zm0 0"/><path d="m281.785156 306.234375c-.582031 4.675781 2.730469 8.9375 7.40625 9.523437.351563.042969.703125.066407 1.058594.066407 4.300781-.003907 7.921875-3.207031 8.457031-7.472657 35.300781-1.203124 57.90625-8.535156 66.898438-21.914062 11.230469-16.898438 9.789062-39.296875 6.828125-54.757812 2.738281-.855469 4.617187-1.28125 5.035156-1.375 4.601562-1.023438 7.5-5.585938 6.476562-10.1875-1.023437-4.605469-5.585937-7.503907-10.1875-6.476563-3.398437.730469-82.800781 19.199219-91.972656 92.59375zm69.640625-29.296875c-2.621093 3.214844-6.070312 5.648438-9.976562 7.03125v-38.347656c4.742187-2.929688 9.671875-5.546875 14.753906-7.839844 3.195313 13.199219 1.5 27.113281-4.777344 39.15625zm-27.042969-18.285156v30.078125c-7.097656 1.238281-14.265624 2.035156-21.460937 2.390625 4.457031-12.382813 11.816406-23.515625 21.460937-32.46875zm0 0"/><path d="m229.664062 422.945312c-1.363281-2.730468-4.078124-4.523437-7.125-4.707031-3.042968-.183593-5.953124 1.269531-7.636718 3.8125-1.679688 2.546875-1.878906 5.792969-.515625 8.523438l8.535156 17.066406c2.105469 4.21875 7.234375 5.929687 11.453125 3.824219 4.214844-2.109375 5.925781-7.234375 3.820312-11.453125zm0 0"/><path d="m294.0625 419.121094c-2.023438-1.011719-4.367188-1.179688-6.515625-.460938-2.148437.714844-3.925781 2.257813-4.933594 4.285156l-8.535156 17.066407c-2.105469 4.21875-.394531 9.34375 3.824219 11.453125 4.21875 2.105468 9.34375.394531 11.449218-3.824219l8.535157-17.066406c1.011719-2.027344 1.179687-4.371094.460937-6.519531-.714844-2.148438-2.257812-3.921876-4.285156-4.933594zm0 0"/><path d="m221.984375 384.09375c4.710937 0 8.53125-3.820312 8.53125-8.535156v-34.132813c0-4.714843-3.820313-8.535156-8.53125-8.535156-4.714844 0-8.535156 3.820313-8.535156 8.535156v34.132813c0 4.714844 3.820312 8.535156 8.535156 8.535156zm0 0"/><path d="m290.25 332.890625c-4.714844 0-8.535156 3.820313-8.535156 8.535156v34.132813c0 4.714844 3.820312 8.535156 8.535156 8.535156 4.710938 0 8.53125-3.820312 8.53125-8.535156v-34.132813c0-4.714843-3.820312-8.535156-8.53125-8.535156zm0 0"/><path d="m205.230469 202.75c-1.15625 4.542969 1.546875 9.171875 6.070312 10.402344 1.175781.316406 29.011719 8.355468 36.402344 52.90625.097656.367187.222656.726562.375 1.074218.117187.433594.269531.855469.453125 1.265626.289062.546874.636719 1.0625 1.039062 1.535156.234376.335937.5.652344.785157.945312.523437.445313 1.09375.828125 1.707031 1.136719.296875.203125.609375.386719.929688.546875 2.015624.839844 4.285156.839844 6.296874 0 .324219-.160156.632813-.34375.929688-.546875.613281-.308594 1.1875-.691406 1.707031-1.136719.289063-.292968.550781-.609375.785157-.945312.402343-.472656.753906-.988282 1.042968-1.535156.183594-.410157.332032-.832032.453125-1.265626.148438-.347656.273438-.707031.375-1.074218 7.398438-44.371094 35.046875-52.496094 36.386719-52.90625 4.492188-1.222656 7.175781-5.824219 6.027344-10.335938-1.148438-4.515625-5.703125-7.273437-10.234375-6.203125-13.035157 4.25-24.316407 12.660157-32.113281 23.9375v-118.058593c0-4.710938-3.820313-8.535157-8.53125-8.535157-4.714844 0-8.535157 3.824219-8.535157 8.535157v118.058593c-7.789062-11.253906-19.046875-19.644531-32.058593-23.894531-4.519532-1.113281-9.097657 1.597656-10.292969 6.09375zm0 0"/></svg>