<svg height="512pt" viewBox="0 0 512.37204 512" width="512pt" xmlns="http://www.w3.org/2000/svg"><path d="m137.910156 50.664062c-20.796875-27.308593-53.492187-42.910156-87.804687-41.898437-68.269531 0-42.667969 93.863281 8.53125 51.199219 28.160156-23.46875 35.671875 2.132812 36.695312 29.867187v.085938zm0 0" fill="#f47c00"/><path d="m417.003906 89.917969v-.085938c1.023438-27.734375 8.53125-53.335937 36.691406-29.867187 51.203126 42.664062 76.800782-51.199219 8.535157-51.199219-34.3125-1.011719-67.007813 14.589844-87.808594 41.898437zm0 0" fill="#f47c00"/><path d="m503.652344 307.429688c.402344 26.257812-4.414063 52.332031-14.167969 76.714843-33.960937 82.605469-125.609375 119.554688-233.300781 119.554688-2.304688 0-4.691406 0-6.996094-.085938h-3.074219c-103.25-2.304687-190.292969-39.425781-223.230469-119.46875-9.753906-24.382812-14.566406-50.457031-14.164062-76.714843.148438-25.84375 3.734375-51.558594 10.664062-76.457032 29.953126-111.191406 120.320313-216.660156 228.269532-221.953125 2.8125-.171875 5.628906-.253906 8.53125-.253906 111.703125 0 206.082031 108.117187 236.800781 222.207031 6.929687 24.898438 10.519531 50.613282 10.667969 76.457032zm0 0" fill="#f47c00"/><path d="m478.050781 307.429688c.398438 26.234374-4.328125 52.292968-13.910156 76.714843-32.347656 80.042969-117.835937 117.164063-219.246094 119.46875h-3.019531c-101.410156-2.304687-186.882812-39.425781-219.25-119.46875-9.582031-24.421875-14.304688-50.480469-13.90625-76.714843.140625-25.832032 3.664062-51.539063 10.476562-76.457032 29.414063-111.191406 118.171876-216.660156 224.1875-221.953125 106.019532 5.292969 194.773438 110.761719 224.1875 221.953125 6.816407 24.917969 10.339844 50.625 10.480469 76.457032zm0 0" fill="#fdc008"/><path d="m367.117188 358.628906c.0625 40.570313-22.054688 77.929688-57.648438 97.390625-35.597656 19.460938-78.984375 17.914063-113.101562-4.035156-31.816407-20.382813-51.058594-55.566406-51.058594-93.355469 0-37.785156 19.242187-72.96875 51.058594-93.351562 34.125-21.898438 77.484374-23.421875 113.0625-3.96875 35.582031 19.449218 57.703124 56.773437 57.6875 97.320312zm0 0" fill="#ac1457"/><path d="m392.71875 153.832031c0 37.703125-30.566406 68.265625-68.269531 68.265625-2.851563.003906-5.699219-.167968-8.53125-.511718-34.144531-4.300782-59.746094-33.34375-59.734375-67.753907l76.203125-63.488281 4.351562-3.671875c32.425781 5.933594 55.980469 34.195313 55.980469 67.160156zm0 0" fill="#e6e7e8"/><path d="m375.652344 153.832031c.011718 34.410157-25.59375 63.453125-59.734375 67.753907-34.144531-4.300782-59.746094-33.34375-59.734375-67.753907l76.203125-63.488281c26.113281 10.242188 43.28125 35.4375 43.265625 63.488281zm0 0" fill="#fff"/><path d="m256.183594 153.832031c0 37.703125-30.5625 68.265625-68.265625 68.265625-2.851563.003906-5.703125-.167968-8.535157-.511718 34.144532-4.300782 59.746094-33.34375 59.734376-67.753907.003906-5.351562-.65625-10.683593-1.960938-15.875zm0 0" fill="#e6e7e8"/><path d="m239.117188 153.832031c.011718 34.410157-25.589844 63.453125-59.734376 67.753907-34.140624-4.300782-59.742187-33.34375-59.730468-67.753907-.007813-5.351562.652344-10.683593 1.960937-15.875 6.226563-26.300781 27.425781-46.425781 54.015625-51.285156l3.753906 3.160156 16.128907 13.394531 40.875 34.050782.769531.679687c1.304688 5.191407 1.964844 10.523438 1.960938 15.875zm0 0" fill="#fff"/><path d="m239.117188 153.832031c0 28.277344-22.921876 51.199219-51.199219 51.199219-28.277344 0-51.199219-22.921875-51.199219-51.199219 0-28.277343 22.921875-51.203125 51.199219-51.203125 2.542969-.015625 5.085937.183594 7.59375.597656l40.875 34.050782c1.824219 5.328125 2.746093 10.921875 2.730469 16.554687zm0 0" fill="#00bbd3"/><path d="m375.652344 153.832031c0 28.277344-22.925782 51.199219-51.203125 51.199219-28.277344 0-51.199219-22.921875-51.199219-51.199219-.015625-5.632812.90625-11.226562 2.730469-16.554687l6.230469-5.207032 23.382812-19.457031 11.261719-9.386719c2.511719-.414062 5.050781-.613281 7.59375-.597656 28.277343 0 51.203125 22.925782 51.203125 51.203125zm0 0" fill="#00bbd3"/><path d="m222.050781 153.832031c0 18.851563-15.28125 34.132813-34.132812 34.132813-18.851563 0-34.132813-15.28125-34.132813-34.132813 0-18.851562 15.28125-34.132812 34.132813-34.132812 18.851562 0 34.132812 15.28125 34.132812 34.132812zm0 0" fill="#37474f"/><path d="m358.585938 153.832031c0 18.851563-15.285157 34.132813-34.136719 34.132813-18.851563 0-34.132813-15.28125-34.132813-34.132813 0-18.851562 15.28125-34.132812 34.132813-34.132812 18.851562 0 34.136719 15.28125 34.136719 34.132812zm0 0" fill="#37474f"/><g fill="#ffebb2"><path d="m279.90625 250.257812-3.839844 23.296876c-1.636718 9.703124-10.042968 16.804687-19.882812 16.804687s-18.242188-7.101563-19.882813-16.804687l-3.839843-23.296876c15.632812-3.414062 31.816406-3.414062 47.445312 0zm0 0"/><path d="m207.886719 310.332031c-6.9375 7-17.921875 7.9375-25.941407 2.21875l-19.117187-13.738281c8.566406-13.515625 20.019531-24.96875 33.539063-33.535156l13.738281 19.113281c5.71875 8.023437 4.777343 19.007813-2.21875 25.941406zm0 0"/><path d="m187.917969 358.628906c.003906 9.84375-7.105469 18.25-16.8125 19.882813l-23.292969 3.84375c-3.414062-15.632813-3.414062-31.816407 0-47.449219l23.292969 3.84375c9.707031 1.632812 16.816406 10.039062 16.8125 19.878906zm0 0"/><path d="m210.105469 432.871094-13.738281 19.113281c-13.519532-8.566406-24.972657-20.019531-33.539063-33.535156l19.117187-13.738281c8.035157-5.667969 18.980469-4.730469 25.933594 2.222656s7.894532 17.902344 2.226563 25.9375zm0 0"/><path d="m279.90625 467.003906c-15.628906 3.414063-31.8125 3.414063-47.445312 0l3.839843-23.296875c1.640625-9.703125 10.042969-16.804687 19.882813-16.804687s18.246094 7.101562 19.882812 16.804687zm0 0"/><path d="m349.539062 418.449219c-8.566406 13.515625-20.019531 24.96875-33.535156 33.535156l-13.738281-19.113281c-5.667969-8.035156-4.730469-18.984375 2.222656-25.9375s17.902344-7.890625 25.9375-2.222656zm0 0"/><path d="m367.117188 358.628906c.015624 7.980469-.84375 15.933594-2.558594 23.726563l-23.296875-3.84375c-9.703125-1.636719-16.804688-10.039063-16.804688-19.882813 0-9.839844 7.101563-18.242187 16.804688-19.878906l23.296875-3.84375c1.714844 7.792969 2.574218 15.746094 2.558594 23.722656zm0 0"/><path d="m349.539062 298.8125-19.113281 13.738281c-8.035156 5.667969-18.984375 4.730469-25.9375-2.222656s-7.890625-17.902344-2.222656-25.9375l13.738281-19.113281c13.515625 8.566406 24.96875 20.019531 33.535156 33.535156zm0 0"/></g><path d="m102.585938 307.429688c0 42.417968-34.386719 76.800781-76.800782 76.800781-.941406 0-1.964844 0-2.902344-.085938-9.753906-24.382812-14.566406-50.457031-14.164062-76.714843.148438-25.84375 3.734375-51.558594 10.664062-76.457032 2.125-.242187 4.261719-.355468 6.402344-.34375 42.414063 0 76.800782 34.386719 76.800782 76.800782zm0 0" fill="#ff5722"/><path d="m503.652344 307.429688c.402344 26.257812-4.414063 52.332031-14.167969 76.714843-.9375.085938-1.960937.085938-2.898437.085938-4.605469-.003907-9.203126-.40625-13.742188-1.195313-37.121094-6.734375-63.855469-39.441406-63.070312-77.164062.785156-37.722656 28.855468-69.285156 66.230468-74.472656 3.503906-.511719 7.039063-.769532 10.582032-.769532 2.136718-.011718 4.273437.101563 6.398437.34375 6.929687 24.898438 10.519531 50.613282 10.667969 76.457032zm0 0" fill="#d74315"/><path d="m478.050781 307.429688c.367188 25.722656-3.765625 51.308593-12.210937 75.605468-31.855469-6.484375-56.054688-37.886718-56.054688-75.605468 0-38.824219 25.597656-70.910157 58.878906-76.03125 6.109376 24.886718 9.257813 50.40625 9.386719 76.03125zm0 0" fill="#ff5722"/><path d="m162.316406 136.765625c0 9.425781-7.640625 17.066406-17.066406 17.066406s-17.066406-7.640625-17.066406-17.066406 7.640625-17.066406 17.066406-17.066406 17.066406 7.640625 17.066406 17.066406zm0 0" fill="#fff"/><path d="m372.902344 333.109375v-.078125c-5.90625-26.574219-20.644532-50.363281-41.8125-67.480469-3.210938-2.570312-6.5625-4.964843-10.035156-7.167969-.128907-.085937-.246094-.199218-.375-.273437h-.101563c-11.851563-7.691406-24.992187-13.175781-38.792969-16.1875-12.648437-2.742187-25.652344-3.433594-38.519531-2.050781-4.230469.445312-8.429687 1.128906-12.578125 2.039062h-.101562c-30.890626 6.839844-57.824219 25.621094-74.917969 52.242188v.050781c-7.695313 11.859375-13.183594 25.015625-16.195313 38.828125-3.667968 16.835938-3.667968 34.261719 0 51.097656v.101563c5.910156 26.570312 20.648438 50.355469 41.8125 67.472656 3.214844 2.570313 6.5625 4.964844 10.035156 7.167969.128907.085937.25.195312.378907.273437h.117187c11.839844 7.691407 24.972656 13.179688 38.769532 16.195313 16.832031 3.671875 34.261718 3.671875 51.09375 0h.105468c30.890625-6.835938 57.820313-25.617188 74.914063-52.238282v-.050781c7.695312-11.859375 13.183593-25.007812 16.195312-38.820312 3.667969-16.835938 3.667969-34.261719 0-51.097657zm-15.171875 38.195313c-.058594.417968-.152344.851562-.203125 1.234374l-14.867188-2.4375c-5.597656-.945312-9.695312-5.792968-9.695312-11.472656 0-5.675781 4.097656-10.523437 9.695312-11.46875l14.882813-2.4375c.050781.410156.152343.851563.203125 1.234375 1.128906 8.414063 1.128906 16.933594 0 25.347657zm-17.917969-40.960938c-13.828125 2.308594-23.960938 14.277344-23.960938 28.296875s10.132813 25.984375 23.960938 28.296875l14.050781 2.320312c-1.820312 5.800782-4.167969 11.425782-7.011719 16.800782l-11.539062-8.285156c-11.433594-8.132813-27.074219-6.816407-36.988281 3.113281-9.914063 9.929687-11.203125 25.570312-3.050781 36.992187l8.269531 11.511719c-5.375 2.84375-11 5.1875-16.800781 7.007813l-2.320313-14.0625c-2.3125-13.828126-14.277344-23.960938-28.296875-23.960938s-25.984375 10.132812-28.296875 23.960938l-2.320313 14.054687c-5.804687-1.824219-11.425781-4.171875-16.804687-7.015625l8.269531-11.511719c8.105469-11.4375 6.777344-27.054687-3.144531-36.957031-9.917969-9.90625-25.539063-11.207031-36.960937-3.082031l-11.503907 8.269531c-2.847656-5.375-5.195312-11-7.015625-16.800781l14.074219-2.324219c13.828125-2.308594 23.957031-14.277344 23.957031-28.296875s-10.128906-25.984375-23.957031-28.292969l-14.054687-2.324218c1.820312-5.800782 4.167968-11.425782 7.011718-16.800782l11.539063 8.285156c11.433593 8.136719 27.074219 6.820313 36.988281-3.113281 9.914062-9.929687 11.203125-25.570312 3.050781-36.992187l-8.269531-11.511719c5.375-2.84375 11-5.1875 16.800781-7.007813l2.324219 14.066407c2.308594 13.824219 14.277344 23.957031 28.292969 23.957031 14.019531 0 25.988281-10.132812 28.296875-23.957031l2.324218-14.054688c5.800782 1.820313 11.425782 4.167969 16.800782 7.011719l-8.285156 11.539062c-6.183594 8.773438-6.976563 20.253907-2.0625 29.796876 4.917968 9.539062 14.726562 15.558593 25.460937 15.617187 5.988281-.011719 11.820313-1.890625 16.691406-5.375l11.5-8.269531c2.847657 5.375 5.195313 11 7.015625 16.800781zm-2.886719 91.09375c-2.558593 3.34375-5.328125 6.527344-8.285156 9.53125l-.066406.074219c-3.019531 2.980469-6.21875 5.761719-9.585938 8.339843-.332031.253907-.679687.476563-1.015625.722657l-8.753906-12.183594c-3.304688-4.628906-2.785156-10.964844 1.226562-14.992187 4.015626-4.027344 10.347657-4.566407 14.988282-1.28125l12.210937 8.773437c-.242187.332031-.460937.679687-.71875 1.015625zm-68.113281 38.738281c-8.382812 1.007813-16.855469 1.007813-25.242188 0-.433593-.050781-.851562-.152343-1.296874-.210937l2.441406-14.855469c.945312-5.597656 5.792968-9.699219 11.46875-9.699219 5.675781 0 10.523437 4.101563 11.46875 9.699219l2.441406 14.871094c-.425781.050781-.84375.144531-1.28125.195312zm-75.433594-20.800781c-3.335937-2.554688-6.507812-5.3125-9.496094-8.261719l-.148437-.144531c-2.953125-3-5.71875-6.179688-8.277344-9.523438-.261719-.332031-.484375-.699218-.742187-1.03125l12.179687-8.757812c4.628907-3.222656 10.90625-2.671875 14.902344 1.316406 3.996094 3.984375 4.566406 10.257813 1.351563 14.898438l-8.753907 12.195312c-.332031-.207031-.691406-.429687-1.015625-.683594zm-38.742187-93.417969c.058593-.417969.152343-.851562.207031-1.234375l14.863281 2.4375c5.597657.945313 9.695313 5.792969 9.695313 11.46875 0 5.679688-4.097656 10.527344-9.695313 11.472656l-14.882812 2.4375c-.050781-.410156-.152344-.851562-.203125-1.234374-1.128906-8.414063-1.128906-16.933594 0-25.347657zm20.8125-50.132812c2.5625-3.34375 5.328125-6.527344 8.285156-9.53125l.070313-.074219c3.015624-2.980469 6.214843-5.761719 9.582031-8.339844.332031-.253906.683593-.476562 1.015625-.722656l8.753906 12.183594c3.320312 4.601562 2.789062 10.933594-1.253906 14.917968l-.085938.082032c-3.96875 4.039062-10.285156 4.578125-14.878906 1.273437l-12.210938-8.773437c.238282-.332032.460938-.679688.714844-1.015625zm68.0625-38.738281c8.421875-1.027344 16.9375-1.027344 25.363281 0 .417969.050781.851562.144531 1.226562.195312l-2.441406 14.863281c-.941406 5.597657-5.789062 9.695313-11.46875 9.695313-5.675781 0-10.523437-4.097656-11.46875-9.695313l-2.4375-14.882812c.398438-.03125.800782-.125 1.21875-.175781zm75.484375 20.792968c3.335937 2.554688 6.507812 5.316406 9.5 8.269532l.144531.136718c2.960937 2.996094 5.726563 6.175782 8.285156 9.523438.257813.339844.476563.699218.734375 1.03125l-12.183594 8.757812c-4.632812 3.246094-10.925781 2.703125-14.933593-1.289062-4.007813-3.992188-4.570313-10.28125-1.339844-14.925782l8.769531-12.210937c.335938.230469.683594.453125 1.015625.707031zm0 0"/><path d="m338.273438 78.277344c-.125 0-.238282 0-.367188 0-.566406-.058594-1.136719-.058594-1.707031 0-.535157 0-1.070313.054687-1.59375.160156-.449219.152344-.882813.34375-1.296875.574219-.582032.222656-1.136719.507812-1.65625.851562-.101563.078125-.230469.09375-.332032.179688l-75.136718 62.695312-75.09375-62.625c-.09375-.078125-.222656-.097656-.316406-.171875-.53125-.367187-1.105469-.671875-1.707032-.914062-.40625-.214844-.828125-.402344-1.261718-.554688-.523438-.101562-1.054688-.15625-1.585938-.160156-.585938-.066406-1.179688-.066406-1.765625 0-.128906 0-.242187 0-.367187 0-35.449219 6.441406-61.652344 36.65625-63.015626 72.65625-1.363281 36 22.484376 68.109375 57.34375 77.214844 34.859376 9.101562 71.359376-7.25 87.769532-39.324219 16.425781 32.058594 52.925781 48.390625 87.777344 39.28125 34.847656-9.113281 58.683593-41.21875 57.316406-77.214844-1.363282-35.996093-27.5625-66.203125-63.003906-72.648437zm-13.824219 49.953125c14.140625 0 25.601562 11.460937 25.601562 25.601562 0 14.136719-11.460937 25.597657-25.601562 25.597657-14.136719 0-25.597657-11.460938-25.597657-25.597657 0-14.140625 11.460938-25.601562 25.597657-25.601562zm-110.933594 25.601562c0 10.351563-6.234375 19.6875-15.800781 23.648438-9.566406 3.964843-20.578125 1.773437-27.898438-5.546875-7.324218-7.324219-9.511718-18.332032-5.550781-27.898438s13.296875-15.804687 23.652344-15.804687c14.136719 0 25.597656 11.460937 25.597656 25.601562zm-25.597656 59.730469c-30.179688.070312-55.648438-22.421875-59.3125-52.375-3.664063-29.957031 15.636719-57.921875 44.941406-65.128906l18.636719 15.539062c-1.414063-.214844-2.835938-.363281-4.265625-.433594-23.566407 0-42.667969 19.101563-42.667969 42.667969 0 23.5625 19.101562 42.664063 42.667969 42.664063 23.5625 0 42.667969-19.101563 42.667969-42.664063-.058594-3.996093-.683594-7.960937-1.863282-11.777343l18.773438 15.617187c-2.023438 31.421875-28.089844 55.875-59.578125 55.890625zm136.53125 0c-31.46875-.035156-57.511719-24.484375-59.535157-55.890625l18.773438-15.617187c-1.191406 3.816406-1.832031 7.78125-1.902344 11.777343 0 23.5625 19.101563 42.664063 42.664063 42.664063 23.566406 0 42.667969-19.101563 42.667969-42.664063 0-23.566406-19.101563-42.667969-42.667969-42.667969-1.425781.070313-2.851563.21875-4.265625.433594l18.636718-15.539062c29.304688 7.207031 48.605469 35.171875 44.941407 65.128906-3.664063 29.953125-29.132813 52.445312-59.3125 52.375zm0 0"/><path d="m501.226562 228.746094c-14.265624-52.484375-40.050781-101.125-75.484374-142.386719 1.425781-23.195313 7.160156-26.453125 7.839843-26.796875 1.84375-.808594 6.828125.46875 14.660157 6.996094 23.996093 19.988281 41.566406 12.246094 48 7.988281 13.699218-10.039063 19.429687-27.71875 14.234374-43.886719-5.777343-19.054687-23.789062-30.429687-48.246093-30.429687-33.945313-.945313-66.570313 13.15625-89.140625 38.527343-34.078125-24.558593-74.902344-38.011718-116.90625-38.527343-42.027344.511719-82.871094 13.972656-116.964844 38.554687-22.554688-25.382812-55.175781-39.496094-89.113281-38.554687-24.464844 0-42.480469 11.375-48.214844 30.429687-5.183594 16.152344.535156 33.8125 14.207031 43.851563 6.433594 4.269531 24.015625 12 47.992188-7.984375 7.800781-6.511719 12.800781-7.824219 14.675781-7 .683594.308594 6.453125 3.628906 7.851563 26.832031-35.425782 41.25-61.210938 89.886719-75.46875 142.359375-7.136719 25.632812-10.824219 52.105469-10.964844 78.710938 0 8.296874.503906 16.34375 1.289062 24.226562 1.195313 12.660156 3.5625 25.179688 7.066406 37.402344 1.816407 6.234375 3.972657 12.363281 6.457032 18.363281v.058594c32.683594 79.285156 120.570312 124.75 241.1875 124.75 120.617187 0 208.570312-45.5 241.1875-124.808594 10.160156-25.425781 15.195312-52.613281 14.8125-79.992187-.140625-26.59375-3.824219-53.054688-10.957032-78.675782zm-6.960937 97.816406c-.171875 2.046875-.511719 3.984375-.734375 5.972656-.46875 4.132813-.949219 8.261719-1.65625 12.253906-.402344 2.3125-.972656 4.523438-1.460938 6.828126-.757812 3.539062-1.527343 7.082031-2.480468 10.503906-.648438 2.347656-1.445313 4.597656-2.1875 6.878906-.742188 2.277344-1.507813 4.453125-2.328125 6.636719-37.097657-1.550781-66.152344-32.46875-65.398438-69.589844.75-37.121094 31.035157-66.835937 68.164063-66.882813.621094 2.476563 1.214844 4.949219 1.78125 7.425782.574218 2.558594 1.171875 5.023437 1.707031 7.535156.726563 3.625 1.296875 7.234375 1.878906 10.851562.382813 2.382813.851563 4.769532 1.144531 7.136719.535157 3.957031.851563 7.875 1.246094 11.800781.175782 1.988282.449219 4 .585938 5.972657.402344 5.886719.625 11.734375.625 17.527343-.035156 6.542969-.324219 12.917969-.886719 19.148438zm-32.035156-309.265625c16.996093 0 28.3125 6.496094 31.855469 18.289063 2.917968 8.941406.027343 18.757812-7.273438 24.695312-6.96875 4.613281-16.800781 2.183594-27.65625-6.878906-12.449219-10.359375-23.40625-13.535156-32.535156-9.457032-8.003906 3.570313-13.269532 12.230469-16.019532 26.191407-7.488281-7.496094-15.394531-14.5625-23.679687-21.171875 19.328125-20.96875 46.804687-32.519532 75.308594-31.667969zm-409.0625 36.105469c-10.847657 9.046875-20.667969 11.484375-27.65625 6.878906-7.296875-5.9375-10.1875-15.753906-7.269531-24.695312 3.539062-11.792969 14.855468-18.289063 31.863281-18.289063 28.507812-.851563 55.988281 10.707031 75.3125 31.683594-8.28125 6.613281-16.1875 13.675781-23.6875 21.164062-2.730469-13.917969-8.003907-22.613281-16.035157-26.199219-9.113281-4.070312-20.078124-.894531-32.527343 9.457032zm-24.242188 322.21875c-.855469-2.203125-1.621093-4.429688-2.355469-6.699219-.734374-2.269531-1.519531-4.496094-2.167968-6.828125-.957032-3.410156-1.707032-6.953125-2.484375-10.496094-.484375-2.269531-1.058594-4.476562-1.46875-6.824218-.699219-3.984376-1.175781-8.105469-1.644531-12.238282-.222657-2.011718-.5625-3.957031-.734376-5.972656-.53125-6.230469-.820312-12.605469-.820312-19.132812 0-5.792969.222656-11.648438.625-17.527344.136719-1.960938.398438-3.949219.578125-5.921875.359375-3.941407.71875-7.890625 1.253906-11.867188.316407-2.355469.753907-4.722656 1.136719-7.085937.578125-3.632813 1.160156-7.269532 1.894531-10.921875.496094-2.492188 1.089844-4.992188 1.707031-7.492188.613282-2.5 1.160157-4.957031 1.78125-7.441406 36.929688.335937 66.894532 29.972656 67.636719 66.894531.742188 36.921875-28.011719 67.738282-64.894531 69.554688zm227.257813 119.542968c-107.398438 0-186.699219-37.410156-220.160156-103.074218 43.859374-5.246094 76.441406-43.125 75.074218-87.273438-1.367187-44.148437-36.230468-79.941406-80.332031-82.460937 31.257813-101.359375 118.53125-205.058594 225.417969-205.058594 106.890625 0 194.140625 103.679687 225.410156 205.058594-44.097656 2.523437-78.960938 38.316406-80.328125 82.464843-1.363281 44.148438 31.222656 82.023438 75.078125 87.269532-33.433594 65.65625-112.742188 103.074218-220.160156 103.074218zm0 0"/></svg>