<svg height="512pt" viewBox="0 0 512.04175 512" width="512pt" xmlns="http://www.w3.org/2000/svg"><path d="m221.882812 460.820312v8.535157c0 18.851562-15.28125 34.132812-34.132812 34.132812h-17.066406c-18.851563 0-34.132813-15.28125-34.132813-34.132812v-35.753907zm0 0" fill="#ccdb39"/><path d="m375.484375 433.601562v35.753907c0 18.851562-15.28125 34.132812-34.132813 34.132812h-17.066406c-1.425781.003907-2.851562-.082031-4.269531-.253906-17.054687-2.175781-29.84375-16.683594-29.863281-33.878906v-8.535157l59.730468-19.027343zm0 0" fill="#9d9c24"/><path d="m349.882812 441.792969v27.5625c-.019531 17.195312-12.808593 31.703125-29.867187 33.878906-17.054687-2.175781-29.84375-16.683594-29.863281-33.878906v-8.535157zm0 0" fill="#ccdb39"/><path d="m457.488281 163.007812-14.503906 109.996094-33.964844 127.0625c-9.222656 12.976563-20.558593 24.3125-33.535156 33.535156-24.59375 17.738282-54.15625 27.265626-84.480469 27.21875h-69.972656c-30.324219.046876-59.886719-9.480468-84.480469-27.21875-13.027343-9.257812-24.394531-20.65625-33.621093-33.707031l-34.046876-128.683593v-.085938l-14.335937-108.117188c-2.429687-17.859374-1.242187-36.027343 3.496094-53.417968l33.453125-59.136719c25.679687-26.839844 61.242187-41.980469 98.386718-41.898437h132.269532c37.144531-.082032 72.703125 15.058593 98.386718 41.898437l33.453126 59.136719c4.734374 17.390625 5.925781 35.558594 3.496093 53.417968zm0 0" fill="#9d9c24"/><path d="m434.03125 163.007812-14.175781 109.996094-33.234375 127.0625c-8.980469 12.933594-20.066406 24.273438-32.804688 33.535156-23.914062 17.695313-52.878906 27.238282-82.625 27.21875h-53.839844c-29.746093.015626-58.710937-9.527343-82.628906-27.21875-12.78125-9.304687-23.894531-20.699218-32.878906-33.707031l-33.304688-128.683593v-.085938l-14.019531-108.117188c-2.378906-17.855468-1.21875-36.007812 3.414063-53.417968l32.714844-59.136719c24.871093-26.730469 59.738281-41.90625 96.25-41.898437h114.753906c36.503906-.003907 71.367187 15.175781 96.230468 41.898437l32.71875 59.136719c4.636719 17.410156 5.804688 35.558594 3.429688 53.417968zm0 0" fill="#ccdb39"/><path d="m123.632812 343.453125c1.589844 4.285156 1.394532 9.027344-.539062 13.167969l-14.984375 32.058594-18.015625 38.53125c-9.714844 21.464843-34.996094 30.988281-56.464844 21.273437-10.308594-4.667969-18.34375-13.242187-22.332031-23.832031-3.992187-10.589844-3.609375-22.332032 1.058594-32.644532l18.015625-38.527343 18.011718-38.527344 18.015626-38.535156.75-1.605469c2.914062-6.234375 9.285156-10.109375 16.160156-9.828125s12.910156 4.664063 15.304687 11.117187zm0 0" fill="#ccdb39"/><path d="m503.484375 408.511719c.085937 5.5-.839844 10.964843-2.730469 16.128906-1.949218 5.148437-4.878906 9.871094-8.621094 13.910156-3.847656 4.210938-8.523437 7.582031-13.738281 9.898438-9.53125 4.421875-20.390625 5.0625-30.378906 1.792969-.753906-.179688-1.492187-.40625-2.21875-.683594-10.625-3.972656-19.222656-12.019532-23.890625-22.359375l-18.175781-38.226563-15.191407-31.832031c-1.984374-4.144531-2.199218-8.917969-.597656-13.226563l24.746094-66.984374c.699219-1.996094 1.804688-3.828126 3.246094-5.375 3.769531-4.316407 9.464844-6.4375 15.136718-5.644532 5.675782.789063 10.570313 4.386719 13.023438 9.566406l.851562 1.707032 18.261719 38.316406 18.261719 38.230469 18.175781 38.3125c2.378907 5.175781 3.683594 10.777343 3.839844 16.46875zm0 0" fill="#9d9c24"/><path d="m477.882812 406.875c.09375 5.738281-.953124 11.433594-3.070312 16.765625-2.25 5.417969-5.558594 10.328125-9.730469 14.449219-4.40625 4.433594-9.664062 7.929687-15.453125 10.289062-1.742187.753906-3.539062 1.375-5.375 1.863282-.847656-.183594-1.683594-.421876-2.5-.710938-5.746094-2.007812-11.082031-5.042969-15.742187-8.957031-4.609375-3.976563-8.382813-8.832031-11.09375-14.277344l-20.480469-39.722656-17.066406-33.074219c-2.230469-4.261719-2.476563-9.289062-.675782-13.75l27.800782-69.605469c.816406-2.101562 2.070312-4.007812 3.679687-5.589843 1.164063 1.203124 2.136719 2.578124 2.882813 4.078124l.957031 1.777344 20.546875 39.816406 20.574219 39.722657 20.480469 39.816406c2.640624 5.328125 4.097656 11.164063 4.265624 17.109375zm0 0" fill="#ccdb39"/><path d="m102.417969 59.753906c-2.675781-4.082031-6.46875-7.308594-10.921875-9.300781-12.613282-5.773437-26.425782-8.433594-40.277344-7.765625 0 0 17.066406 17.066406 17.066406 34.132812 0 0-34.132812-8.53125-42.667968 25.601563 11.191406.101563 22.234374 2.542969 32.425781 7.167969 4.339843 2.183594 7.914062 5.636718 10.242187 9.898437zm0 0" fill="#ccdb39"/><path d="m409.617188 59.753906c2.675781-4.082031 6.464843-7.308594 10.921874-9.300781 12.613282-5.773437 26.425782-8.433594 40.277344-7.765625 0 0-17.066406 17.066406-17.066406 34.132812 0 0 34.132812-8.53125 42.667969 25.601563-11.191407.101563-22.238281 2.542969-32.425781 7.167969-4.355469 2.390625-16.640626 5.632812-18.773438 9.898437zm0 0" fill="#9d9c24"/><path d="m170.683594 85.355469c-2.851563-.003907-5.703125.167969-8.53125.511719-34.21875 4.214843-59.921875 33.28125-59.921875 67.753906 0 34.476562 25.703125 63.542968 59.921875 67.753906 2.828125.34375 5.679687.515625 8.53125.515625 37.703125 0 68.265625-30.566406 68.265625-68.269531s-30.5625-68.265625-68.265625-68.265625zm0 0" fill="#fff"/><path d="m341.351562 85.355469c-2.851562-.003907-5.703124.167969-8.535156.511719-34.214844 4.214843-59.921875 33.28125-59.921875 67.753906 0 34.476562 25.707031 63.542968 59.921875 67.753906 2.832032.34375 5.683594.515625 8.535156.515625 37.703126 0 68.265626-30.566406 68.265626-68.269531s-30.5625-68.265625-68.265626-68.265625zm0 0" fill="#fff"/><path d="m213.351562 153.621094c0 23.566406-19.101562 42.667968-42.667968 42.667968-23.5625 0-42.667969-19.101562-42.667969-42.667968 0-23.5625 19.105469-42.664063 42.667969-42.664063 23.566406 0 42.667968 19.101563 42.667968 42.664063zm0 0" fill="#00bbd3"/><path d="m384.015625 153.621094c0 23.566406-19.101563 42.667968-42.664063 42.667968-23.566406 0-42.667968-19.101562-42.667968-42.667968 0-23.5625 19.101562-42.664063 42.667968-42.664063 23.5625 0 42.664063 19.101563 42.664063 42.664063zm0 0" fill="#00bbd3"/><path d="m187.75 153.621094c0 9.425781-7.640625 17.066406-17.066406 17.066406-9.425782 0-17.066406-7.640625-17.066406-17.066406 0-9.425782 7.640624-17.066406 17.066406-17.066406 9.425781 0 17.066406 7.640624 17.066406 17.066406zm0 0" fill="#37474f"/><path d="m358.417969 153.621094c0 9.425781-7.640625 17.066406-17.066407 17.066406-9.425781 0-17.066406-7.640625-17.066406-17.066406 0-9.425782 7.640625-17.066406 17.066406-17.066406 9.425782 0 17.066407 7.640624 17.066407 17.066406zm0 0" fill="#37474f"/><path d="m204.816406 256.023438h102.402344c9.425781 0 17.066406 7.640624 17.066406 17.066406 0 37.703125-30.566406 68.265625-68.269531 68.265625-37.699219 0-68.265625-30.5625-68.265625-68.265625 0-9.425782 7.640625-17.066406 17.066406-17.066406zm0 0" fill="#ac1457"/><path d="m238.949219 256.023438h34.132812v17.066406c0 9.425781-7.640625 17.066406-17.066406 17.066406s-17.066406-7.640625-17.066406-17.066406zm0 0" fill="#ffebb2"/><path d="m324.285156 418.15625c0-23.566406-30.566406-42.667969-68.269531-42.667969-37.699219 0-68.265625 19.101563-68.265625 42.667969 0 23.5625 30.566406 42.664062 68.265625 42.664062 37.703125 0 68.269531-19.101562 68.269531-42.664062zm0 0" fill="#fdc008"/><path d="m153.617188 136.554688c0 9.425781-7.640626 17.066406-17.066407 17.066406s-17.066406-7.640625-17.066406-17.066406c0-9.425782 7.640625-17.066407 17.066406-17.066407s17.066407 7.640625 17.066407 17.066407zm0 0" fill="#fff"/><path d="m324.285156 136.554688c0 9.425781-7.640625 17.066406-17.066406 17.066406s-17.066406-7.640625-17.066406-17.066406c0-9.425782 7.640625-17.066407 17.066406-17.066407s17.066406 7.640625 17.066406 17.066407zm0 0" fill="#fff"/><path d="m.015625 408.308594c-.351563 13.585937 4.710937 26.75 14.074219 36.601562 9.359375 9.851563 22.253906 15.574219 35.839844 15.910156h1.289062c20.0625-.003906 38.273438-11.730468 46.582031-29.992187l6.929688-14.824219c6.957031 8.074219 14.765625 15.375 23.285156 21.777344v31.574219c.03125 23.550781 19.117187 42.636719 42.667969 42.667969h17.066406c23.554688-.03125 42.640625-19.117188 42.667969-42.667969h51.199219c.027343 23.550781 19.113281 42.636719 42.667968 42.667969h17.066406c23.550782-.03125 42.636719-19.117188 42.664063-42.667969v-31.574219c8.472656-6.375 16.246094-13.632812 23.1875-21.648438l6.960937 14.609376c8.3125 18.304687 26.550782 30.0625 46.652344 30.078124h1.316406c17.191407-.429687 33.015626-9.46875 42.128907-24.050781 9.113281-14.585937 10.296875-32.769531 3.148437-48.414062l-55.65625-116.640625 14.183594-107.578125c2.246094-16.519531 1.582031-33.300781-1.953125-49.589844 7.273437-2.230469 14.824219-3.4375 22.433594-3.589844 2.625-.003906 5.101562-1.214843 6.714843-3.285156 1.617188-2.070313 2.1875-4.769531 1.554688-7.316406-3.605469-19.347657-20.582031-33.3125-40.261719-33.125 3.03125-6.847657 7.234375-13.117188 12.425781-18.515625 2.433594-2.441406 3.160157-6.109375 1.839844-9.292969-1.320312-3.183594-4.425781-5.261719-7.875-5.265625-13.066406-.355469-26.085937 1.710938-38.398437 6.101562-26.910157-25.953124-62.882813-40.386718-100.265625-40.2343745h-132.269532c-37.382812-.1523435-73.355468 14.2812505-100.265624 40.2343745-12.3125-4.390624-25.332032-6.457031-38.398438-6.101562-3.449219 0-6.558594 2.078125-7.882812 5.261719-1.320313 3.183593-.59375 6.851562 1.839843 9.296875 5.1875 5.398437 9.394531 11.667968 12.425781 18.515625-19.679687-.1875-36.65625 13.777343-40.261718 33.125-.636719 2.550781-.0625 5.25 1.554687 7.320312 1.617188 2.070313 4.097657 3.277344 6.722657 3.28125 7.605468.152344 15.152343 1.363281 22.425781 3.589844-3.539063 16.285156-4.199219 33.066406-1.953125 49.578125l14.003906 105.636719-55.511719 118.730469c-2.835937 6.230468-4.390625 12.972656-4.566406 19.816406zm187.734375 86.648437h-17.066406c-14.136719 0-25.601563-11.464843-25.601563-25.601562v-20.242188c20.867188 11.9375 44.261719 18.761719 68.269531 19.917969v.324219c0 6.789062-2.699218 13.300781-7.5 18.101562-4.800781 4.800781-11.3125 7.5-18.101562 7.5zm68.265625-42.667969c-32.375 0-59.730469-15.632812-59.730469-34.132812s27.355469-34.132812 59.730469-34.132812c32.378906 0 59.734375 15.632812 59.734375 34.132812s-27.355469 34.132812-59.734375 34.132812zm85.335937 42.667969h-17.066406c-14.140625 0-25.601562-11.464843-25.601562-25.601562v-.296875c24.015625-1.136719 47.414062-7.964844 68.265625-19.925782v20.222657c0 14.136719-11.460938 25.601562-25.597657 25.601562zm-321.253906-99.328125 56.644532-121.175781 15.359374-32.9375c1.996094-4.273437.152344-9.355469-4.117187-11.355469-4.273437-1.996094-9.355469-.152344-11.355469 4.117188l-3.171875 6.828125-10.457031-79.230469c-1.574219-11.808594-1.472656-23.78125.308594-35.558594 3.15625 2.378906 7.539062 2.261719 10.566406-.28125 3.023438-2.546875 3.890625-6.84375 2.089844-10.359375-3.089844-5.832031-7.898438-10.566406-13.773438-13.5625-7.589844-3.792969-15.78125-6.242187-24.210937-7.234375 6.441406-8.847656 17.707031-12.75 28.238281-9.78125 2.546875.652344 5.25.078125 7.3125-1.550781 2.074219-1.617187 3.285156-4.097656 3.285156-6.726563-.335937-8.617187-2.917968-16.996093-7.492187-24.308593 6.316406.835937 12.457031 2.691406 18.175781 5.496093 2.804688 1.316407 5.289062 3.222657 7.289062 5.585938 1.371094 2.730469 4.09375 4.515625 7.140626 4.691406 3.046874.175782 5.957031-1.289062 7.632812-3.839844 1.675781-2.550781 1.863281-5.804687.492188-8.53125-1.34375-2.402343-3.074219-4.566406-5.121094-6.40625 23.324218-20.957031 53.597656-32.507812 84.949218-32.417968h23.46875v25.597656c0 4.714844 3.820313 8.535156 8.53125 8.535156 4.714844 0 8.535157-3.820312 8.535157-8.535156v-25.597656h17.066406v42.664062c0 4.714844 3.820313 8.535156 8.53125 8.535156 4.714844 0 8.535156-3.820312 8.535156-8.535156v-42.664062h17.066407v25.597656c0 4.714844 3.820312 8.535156 8.535156 8.535156 4.710937 0 8.53125-3.820312 8.53125-8.535156v-25.597656h23.46875c31.363281-.09375 61.644531 11.460937 84.972656 32.425781-2.046875 1.839844-3.777344 4.003906-5.121094 6.410156-1.992187 4.058594-.40625 8.964844 3.585938 11.089844 1.226562.699219 2.613281 1.066406 4.027344 1.066406 3.058593-.007812 5.898437-1.597656 7.5-4.203125 1.980468-2.527344 4.535156-4.539062 7.449218-5.871094 5.722656-2.804687 11.859375-4.660156 18.175782-5.496093-4.582032 7.308593-7.179688 15.6875-7.523438 24.308593 0 2.628907 1.210938 5.109376 3.28125 6.726563 2.066406 1.613281 4.765625 2.1875 7.316406 1.550781 10.546875-2.960937 21.828125.921875 28.3125 9.753906-8.425781.996094-16.613281 3.445313-24.199218 7.238282-5.878907 2.996094-10.6875 7.730468-13.773438 13.558594-1.777344 3.5-.917969 7.757812 2.074219 10.296874 2.988281 2.539063 7.332031 2.691407 10.496093.371094 1.777344 11.777344 1.882813 23.75.304688 35.558594l-10.75 81.550781-3.898438-8.164062c-2.203124-3.921875-7.070312-5.460938-11.128906-3.519531-4.054687 1.941406-5.90625 6.699218-4.234375 10.875l72.917969 152.898437c5.003906 11.128906 3.691406 24.078125-3.445312 33.976563-7.136719 9.894531-19.007813 15.234374-31.148438 14.003906-12.136719-1.230469-22.695312-8.84375-27.699219-19.972656l-36.503906-76.535157c-1.175781-2.964843-3.90625-5.023437-7.078125-5.34375-3.171875-.320312-6.257812 1.15625-8 3.828125-1.742188 2.667969-1.851562 6.085938-.28125 8.863282l21.332031 44.664062c-20.257812 26.449219-49.546875 44.511719-82.277343 50.730469 9.742187-7.636719 15.597656-19.203125 15.980468-31.574219 0-28.707031-33.730468-51.199219-76.800781-51.199219-43.066406 0-76.796875 22.492188-76.796875 51.199219.410156 12.382812 6.292969 23.949219 16.058594 31.574219-19.398438-3.679688-37.75-11.574219-53.761719-23.128907-10.910156-7.78125-20.578125-17.179687-28.671875-27.867187l21.042969-45.003906c2-4.273438.15625-9.355469-4.117188-11.355469-4.269531-2-9.355469-.15625-11.351562 4.117188l-36.097657 77.203124c-5.695312 12.574219-18.40625 20.480469-32.203124 20.027344-13.796876-.449218-25.96875-9.164062-30.832032-22.085937-3.171875-8.441407-2.867187-17.796875.855469-26.007813zm0 0"/><path d="m170.683594 230.421875c42.414062 0 76.800781-34.382813 76.800781-76.800781 0-42.414063-34.386719-76.800782-76.800781-76.800782-42.414063 0-76.800782 34.386719-76.800782 76.800782.046876 42.398437 34.40625 76.753906 76.800782 76.800781zm0-136.53125c32.988281 0 59.734375 26.742187 59.734375 59.730469 0 32.992187-26.746094 59.734375-59.734375 59.734375-32.988282 0-59.734375-26.742188-59.734375-59.734375.042969-32.972656 26.761719-59.691406 59.734375-59.730469zm0 0"/><path d="m341.351562 230.421875c42.414063 0 76.800782-34.382813 76.800782-76.800781 0-42.414063-34.386719-76.800782-76.800782-76.800782-42.417968 0-76.800781 34.386719-76.800781 76.800782.046875 42.398437 34.402344 76.753906 76.800781 76.800781zm0-136.53125c32.988282 0 59.730469 26.742187 59.730469 59.730469 0 32.992187-26.742187 59.734375-59.730469 59.734375-32.992187 0-59.734374-26.742188-59.734374-59.734375.042968-32.972656 26.761718-59.691406 59.734374-59.730469zm0 0"/><path d="m170.683594 179.222656c14.140625 0 25.601562-11.460937 25.601562-25.601562 0-14.136719-11.460937-25.597656-25.601562-25.597656-14.136719 0-25.601563 11.460937-25.601563 25.597656 0 14.140625 11.464844 25.601562 25.601563 25.601562zm0-34.132812c4.714844 0 8.535156 3.820312 8.535156 8.53125 0 4.714844-3.820312 8.535156-8.535156 8.535156-4.710938 0-8.53125-3.820312-8.53125-8.535156 0-4.710938 3.820312-8.53125 8.53125-8.53125zm0 0"/><path d="m341.351562 179.222656c14.136719 0 25.597657-11.460937 25.597657-25.601562 0-14.136719-11.460938-25.597656-25.597657-25.597656-14.140624 0-25.601562 11.460937-25.601562 25.597656 0 14.140625 11.460938 25.601562 25.601562 25.601562zm0-34.132812c4.710938 0 8.53125 3.820312 8.53125 8.53125 0 4.714844-3.820312 8.535156-8.53125 8.535156-4.714843 0-8.535156-3.820312-8.535156-8.535156 0-4.710938 3.820313-8.53125 8.535156-8.53125zm0 0"/><path d="m204.816406 247.488281c-14.136718 0-25.597656 11.460938-25.597656 25.601563 0 42.414062 34.382812 76.800781 76.796875 76.800781 42.417969 0 76.800781-34.386719 76.800781-76.800781 0-14.140625-11.460937-25.601563-25.597656-25.601563zm110.933594 25.601563c0 32.988281-26.742188 59.730468-59.734375 59.730468-32.988281 0-59.730469-26.742187-59.730469-59.730468 0-4.714844 3.820313-8.535156 8.53125-8.535156h25.601563v8.535156c0 14.136718 11.460937 25.597656 25.597656 25.597656 14.140625 0 25.601563-11.460938 25.601563-25.597656v-8.535156h25.601562c4.710938 0 8.53125 3.820312 8.53125 8.535156zm-51.199219-8.535156v8.535156c0 4.710937-3.820312 8.53125-8.535156 8.53125-4.710937 0-8.53125-3.820313-8.53125-8.53125v-8.535156zm0 0"/></svg>