<svg height="512pt" viewBox="0 0 512 512.1193" width="512pt" xmlns="http://www.w3.org/2000/svg"><path d="m105.917969 416.203125c-15.191407 7.339844-29.015625 22.53125-29.015625 53.25 0 18.851563-15.28125 34.132813-34.132813 34.132813-18.851562 0-34.132812-15.28125-34.132812-34.132813 0-22.015625 0-81.835937 59.648437-103.59375zm0 0" fill="#673ab6"/><path d="m503.570312 469.453125c0 18.851563-15.28125 34.132813-34.132812 34.132813s-34.132812-15.28125-34.132812-34.132813c0-30.71875-13.824219-45.910156-29.015626-53.25l31.828126-42.578125 5.804687-7.765625c59.648437 21.757813 59.648437 81.578125 59.648437 103.59375zm0 0" fill="#45279f"/><path d="m481.382812 469.453125c-.011718 14.566406-9.265624 27.519531-23.039062 32.253906-13.777344-4.734375-23.03125-17.6875-23.039062-32.253906 0-30.71875-13.824219-45.910156-29.015626-53.25l31.828126-42.578125c43.265624 25.769531 43.265624 76.03125 43.265624 95.828125zm0 0" fill="#673ab6"/><path d="m469.4375 264.652344c0 56.578125-22.476562 110.84375-62.484375 150.851562-40.007813 40.007813-94.269531 62.480469-150.851563 62.480469-2.816406 0-5.714843-.082031-8.53125-.167969-74.570312-2.972656-142.164062-44.703125-178.234374-110.035156-36.066407-65.332031-35.367188-144.765625 1.847656-209.453125l19.542968-28.417969c7.125-8.773437 14.945313-16.964844 23.382813-24.488281l34.21875-24.917969c30.199219-17.667968 64.28125-27.632812 99.242187-29.015625 2.816407-.082031 5.714844-.167969 8.53125-.167969 37.882813-.03125 75.085938 10.042969 107.777344 29.183594l34.21875 24.917969c8.4375 7.523437 16.253906 15.714844 23.382813 24.488281l19.539062 28.417969c18.667969 32.320313 28.46875 69 28.417969 106.324219zm0 0" fill="#45279f"/><path d="m443.835938 264.652344c1.171874 113.347656-87.324219 207.417968-200.53125 213.164062-113.210938-5.746094-201.707032-99.816406-200.535157-213.164062-.070312-37.25 9.515625-73.886719 27.828125-106.324219l19.105469-28.417969c6.964844-8.761718 14.621094-16.953125 22.894531-24.488281l33.503906-24.917969c29.46875-17.636718 62.886719-27.609375 97.203126-29.015625 34.304687 1.410157 67.714843 11.382813 97.175781 29.015625l33.5 24.917969c8.285156 7.535156 15.949219 15.726563 22.921875 24.488281l19.132812 28.417969c18.300782 32.441406 27.878906 69.074219 27.800782 106.324219zm0 0" fill="#673ab6"/><g fill="#f3f3f3"><path d="m239.035156 247.585938c.019532 16.898437-6.246094 33.203124-17.578125 45.738281-2.996093-3.4375-6.476562-6.425781-10.324219-8.875 12.664063-19.71875 14.328126-44.558594 4.402344-65.792969-9.921875-21.234375-30.046875-35.890625-53.300781-38.824219 2.832031-.34375 5.683594-.515625 8.535156-.511719 37.703125 0 68.265625 30.5625 68.265625 68.265626zm0 0"/><path d="m409.703125 247.585938c.019531 16.898437-6.246094 33.203124-17.578125 45.738281-3-3.4375-6.476562-6.425781-10.324219-8.875 12.664063-19.71875 14.324219-44.558594 4.402344-65.792969-9.925781-21.234375-30.046875-35.890625-53.300781-38.824219 2.832031-.34375 5.683594-.515625 8.535156-.511719 37.703125 0 68.265625 30.5625 68.265625 68.265626zm0 0"/><path d="m221.96875 247.585938c.011719 13.074218-3.753906 25.875-10.835938 36.863281-3.523437-2.304688-7.269531-4.246094-11.179687-5.800781-9.285156-3.683594-19.195313-5.535157-29.183594-5.460938-2.902343 0-5.71875.167969-8.535156.425781-7.113281.695313-14.09375 2.390625-20.734375 5.035157-8.214844 3.101562-15.558594 8.136718-21.417969 14.675781-2.507812-2.75-4.765625-5.71875-6.742187-8.875-12.664063-19.71875-14.328125-44.558594-4.402344-65.792969 9.921875-21.234375 30.046875-35.890625 53.296875-38.824219 34.144531 4.300781 59.746094 33.34375 59.734375 67.753907zm0 0"/><path d="m392.636719 247.585938c.007812 13.074218-3.753907 25.875-10.835938 36.863281-12.082031-7.582031-26.105469-11.496094-40.363281-11.261719-2.902344 0-5.71875.167969-8.535156.425781-16.023438 1.058594-31.070313 8.089844-42.152344 19.710938-2.507812-2.75-4.765625-5.71875-6.742188-8.875-12.664062-19.71875-14.328124-44.558594-4.40625-65.792969 9.925782-21.234375 30.046876-35.890625 53.300782-38.824219 34.144531 4.300781 59.746094 33.34375 59.734375 67.753907zm0 0"/></g><path d="m148.941406 109.167969c3.492188-1.734375 6.078125-4.875 7.113282-8.632813 1.03125-3.757812.417968-7.777344-1.695313-11.054687-1.75-2.707031-3.761719-5.726563-6.03125-8.976563-19.117187-27.734375-56.066406-71.851562-97.023437-71.851562-59.734376 0-51.203126 76.800781-8.535157 68.265625 27.648438-5.546875 55.296875 14.082031 71.339844 28.503906 2.839844 2.558594 5.324219 4.964844 7.371094 7.039063 4.164062 4.175781 10.535156 5.207031 15.804687 2.558593zm0 0" fill="#ff9701"/><path d="m109.988281 156.628906c2.28125-3.226562 3.054688-7.289062 2.117188-11.128906-.941407-3.84375-3.5-7.089844-7.015625-8.898438-4.121094-2.117187-9.003906-4.453124-14.363282-6.691406-20.054687-8.445312-46.847656-15.53125-66.046874-5.117187-34.730469 18.855469-5.546876 60.671875 16.554687 42.324219 8.601563-6.433594 19.234375-9.554688 29.949219-8.789063 8.109375.261719 16.152344 1.496094 23.964844 3.675781 5.585937 1.539063 11.535156-.617187 14.839843-5.375zm0 0" fill="#ff9701"/><path d="m469.4375 76.917969c-2.449219-.492188-4.929688-.777344-7.425781-.851563-4.578125-.230468-9.167969.144532-13.652344 1.109375-18.902344 4.941407-36.210937 14.667969-50.261719 28.246094-2.816406 2.558594-5.289062 4.949219-7.339844 6.996094-4.171874 4.207031-10.585937 5.242187-15.871093 2.558593l-11.605469-5.800781c-3.503906-1.726562-6.101562-4.867187-7.144531-8.632812s-.433594-7.796875 1.683593-11.078125c1.792969-2.648438 3.753907-5.71875 6.058594-8.960938 17.324219-25.175781 49.324219-63.746094 85.589844-70.742187.085938-.085938.085938 0 .085938 0 3.734374-.753907 7.539062-1.125 11.347656-1.109375 59.734375 0 51.199218 76.800781 8.535156 68.265625zm0 0" fill="#f47c00"/><path d="m471.398438 167.457031c-.171876-.085937-.253907-.253906-.425782-.339843-8.605468-6.433594-19.238281-9.554688-29.953125-8.789063-3.628906.085937-7.246093.398437-10.835937.9375-4.4375.617187-8.828125 1.53125-13.140625 2.730469-4.109375 1.136718-8.515625.25-11.863281-2.390625h-.085938c-1.132812-.820313-2.113281-1.828125-2.898438-2.984375-2.261718-3.246094-3.015624-7.308594-2.070312-11.148438.949219-3.839844 3.507812-7.085937 7.019531-8.90625 4.09375-2.046875 8.957031-4.4375 14.335938-6.65625 9.976562-4.394531 20.472656-7.519531 31.230469-9.300781 11.75-2.480469 23.988281-1.007813 34.816406 4.183594 34.472656 18.773437 5.886718 60.160156-16.128906 42.664062zm0 0" fill="#f47c00"/><path d="m462.011719 76.066406c-4.386719 1.507813-9.082031 1.890625-13.652344 1.109375l-1.707031-.257812c-27.648438-5.546875-55.296875 14.082031-71.339844 28.503906-2.558594 2.304687-4.777344 4.519531-6.742188 6.398437l-5.289062-2.644531c-3.503906-1.726562-6.101562-4.867187-7.144531-8.632812s-.433594-7.796875 1.683593-11.078125c1.792969-2.648438 3.753907-5.71875 6.058594-8.960938 17.324219-25.175781 49.324219-63.746094 85.589844-70.742187.085938-.085938.085938 0 .085938 0 40.105468 7.851562 38.570312 57.171875 12.457031 66.304687zm0 0" fill="#ff9701"/><path d="m471.398438 167.457031c-6.71875 5.75-16.664063 5.601563-23.210938-.339843-5.199219-4.167969-11.414062-6.878907-18.003906-7.851563-3.9375-.738281-7.941406-1.054687-11.949219-.9375-4.375.109375-8.738281.535156-13.054687 1.277344h-.085938c-1.132812-.820313-2.113281-1.828125-2.898438-2.984375-2.261718-3.246094-3.015624-7.308594-2.070312-11.148438.949219-3.839844 3.507812-7.085937 7.019531-8.90625 4.09375-2.046875 8.957031-4.4375 14.335938-6.65625 9.976562-4.394531 20.472656-7.519531 31.230469-9.300781 4.207031.75 8.269531 2.160156 12.03125 4.183594 22.273437 12.117187 18.261718 33.621093 6.65625 42.664062zm0 0" fill="#ff9701"/><path d="m221.96875 248.746094c-.003906 14.125-5.878906 27.613281-16.210938 37.238281-11.132812-4.410156-23.011718-6.636719-34.988281-6.550781-3.480469 0-6.828125.203125-10.238281.511718-8.539062.835938-16.914062 2.867188-24.886719 6.039063-16.996093-16.023437-20.992187-41.523437-9.707031-61.980469 11.285156-20.457031 34.984375-30.679687 57.605469-24.851562 22.625 5.828125 38.433593 26.230468 38.425781 49.59375zm0 0" fill="#00bbd3"/><path d="m392.636719 248.746094c-.007813 14.125-5.878907 27.613281-16.214844 37.238281-11.132813-4.410156-23.011719-6.636719-34.984375-6.550781-3.484375 0-6.828125.203125-10.242188.511718-8.535156.835938-16.914062 2.867188-24.882812 6.039063-16.996094-16.023437-20.992188-41.523437-9.707031-61.980469 11.28125-20.457031 34.980469-30.679687 57.605469-24.851562s38.429687 26.230468 38.425781 49.59375zm0 0" fill="#00bbd3"/><path d="m196.371094 247.585938c0 14.136718-11.464844 25.601562-25.601563 25.601562s-25.601562-11.464844-25.601562-25.601562c0-14.136719 11.464843-25.601563 25.601562-25.601563s25.601563 11.464844 25.601563 25.601563zm0 0" fill="#37474f"/><path d="m367.035156 247.585938c0 14.136718-11.460937 25.601562-25.597656 25.601562-14.140625 0-25.601562-11.464844-25.601562-25.601562 0-14.136719 11.460937-25.601563 25.601562-25.601563 14.136719 0 25.597656 11.464844 25.597656 25.601563zm0 0" fill="#37474f"/><path d="m153.703125 375.585938h51.199219v17.066406c0 9.425781-7.640625 17.066406-17.066406 17.066406h-17.066407c-9.425781 0-17.066406-7.640625-17.066406-17.066406zm0 0" fill="#f9eab0"/><path d="m162.234375 375.585938h34.136719v17.066406c0 9.425781-7.644532 17.066406-17.066406 17.066406-9.425782 0-17.070313-7.640625-17.070313-17.066406zm0 0" fill="#ffebb2"/><path d="m290.234375 85.453125c0 18.851563-15.28125 34.132813-34.132813 34.132813-18.851562 0-34.132812-15.28125-34.132812-34.132813s15.28125-34.132813 34.132812-34.132813c18.851563 0 34.132813 15.28125 34.132813 34.132813zm0 0" fill="#ff9701"/><path d="m307.304688 375.585938h51.199218v17.066406c0 9.425781-7.640625 17.066406-17.066406 17.066406h-17.066406c-9.425782 0-17.066406-7.640625-17.066406-17.066406zm0 0" fill="#f9eab0"/><path d="m315.835938 375.585938h34.132812v17.066406c0 9.425781-7.640625 17.066406-17.066406 17.066406-9.425782 0-17.066406-7.640625-17.066406-17.066406zm0 0" fill="#ffebb2"/><path d="m162.234375 221.984375c0 9.425781-7.640625 17.066406-17.066406 17.066406s-17.066407-7.640625-17.066407-17.066406 7.640626-17.066406 17.066407-17.066406 17.066406 7.640625 17.066406 17.066406zm0 0" fill="#f3f3f3"/><path d="m332.902344 221.984375c0 9.425781-7.640625 17.066406-17.066406 17.066406-9.425782 0-17.066407-7.640625-17.066407-17.066406s7.640625-17.066406 17.066407-17.066406c9.425781 0 17.066406 7.640625 17.066406 17.066406zm0 0" fill="#f3f3f3"/><path d="m.101562 469.453125c0 23.5625 19.105469 42.667969 42.667969 42.667969s42.667969-19.105469 42.667969-42.667969c0-20.0625 6.527344-34.390625 19.335938-42.761719 5.363281 5.011719 10.96875 9.757813 16.808593 14.234375-13.371093 20.691407-13.652343 41.480469-.304687 59.246094 2.828125 3.769531 8.175781 4.535156 11.945312 1.707031 3.769532-2.828125 4.535156-8.175781 1.707032-11.945312-8.808594-11.671875-8.585938-27.828125.539062-39.253906 73.417969 47.792968 168.132812 47.730468 241.492188-.152344 9.242187 14.410156 9.472656 27.628906.648437 39.363281-2.828125 3.769531-2.0625 9.117187 1.707031 11.945313 3.769532 2.828124 9.117188 2.0625 11.945313-1.707032 13.378906-17.824218 13.082031-38.679687-.425781-59.425781 5.761718-4.417969 11.292968-9.105469 16.589843-14.0625 12.816407 8.421875 19.34375 22.75 19.34375 42.8125 0 23.5625 19.101563 42.667969 42.667969 42.667969 23.5625 0 42.664062-19.105469 42.664062-42.667969 0-20.675781-.136718-81.511719-56.480468-107.84375 29.601562-60.835937 29.796875-131.859375.527344-192.855469 3.414062 1.003906 6.589843 2.683594 9.34375 4.933594 7.632812 6.773438 18.535156 8.425781 27.828124 4.214844 11.070313-5.246094 18.304688-16.210938 18.78125-28.449219.089844-13.820313-7.925781-26.40625-20.480468-32.179687-20.425782-11.09375-47.015625-5.410157-67.546875 2.398437-4.207031-4.882813-8.574219-9.539063-13.109375-13.96875 14.320312-11.425781 36.105468-24.578125 56.824218-20.4375 13.386719 3.179687 27.386719-1.839844 35.703126-12.800781 9.898437-13.636719 11.417968-31.640625 3.953124-46.746094-9.148437-16.925781-27.347656-26.9375-46.542968-25.597656-41.976563 0-78.90625 40.761718-99.550782 69.179687-65.710937-35.351562-144.785156-35.351562-210.5 0-20.640624-28.417969-57.574218-69.179687-99.546874-69.179687-19.195313-1.339844-37.394532 8.671875-46.542969 25.597656-7.480469 15.125-5.949219 33.152344 3.976562 46.796875 8.339844 10.949219 22.347657 15.953125 35.738281 12.765625 20.734376-4.144531 42.503907 9.011719 56.824219 20.4375-4.550781 4.421875-8.921875 9.078125-13.109375 13.96875-20.5625-7.78125-47.128906-13.472656-67.609375-2.398438-12.546875 5.769532-20.5585935 18.351563-20.480469 32.164063.484376 12.226563 7.71875 23.175781 18.773438 28.425781 9.3125 4.207032 20.230469 2.535156 27.855469-4.269531 2.765625-2.253906 5.957031-3.933594 9.386719-4.929687-29.269532 60.992187-29.074219 132.019531.527343 192.851562-56.40625 26.410156-56.542969 87.246094-56.542969 107.921875zm494.933594 0c0 14.136719-11.460937 25.597656-25.597656 25.597656-14.140625 0-25.601562-11.460937-25.601562-25.597656 0-29.339844-11.683594-45.738281-24.226563-55.015625 10.601563-11.570312 19.949219-24.230469 27.886719-37.769531 47.402344 21.652343 47.539062 72.917969 47.539062 92.785156zm-213.332031-384c0 14.136719-11.460937 25.597656-25.601563 25.597656-14.136718 0-25.597656-11.460937-25.597656-25.597656 0-14.140625 11.460938-25.601563 25.597656-25.601563 14.140626 0 25.601563 11.460938 25.601563 25.601563zm-205.566406 81.714844c8.519531.851562 16.90625 2.757812 24.957031 5.675781.988281.390625 2.042969.589844 3.105469.585938 4.101562.003906 7.621093-2.90625 8.386719-6.933594.769531-4.023438-1.433594-8.027344-5.246094-9.535156-11.535156-4.285157-23.683594-6.703126-35.984375-7.167969h-1.390625c-12.292969-.585938-24.398438 3.230469-34.132813 10.761719-2.628906 2.617187-6.609375 3.316406-9.976562 1.757812-5.117188-2.605469-8.4375-7.769531-8.6875-13.507812.234375-7.316407 4.777343-13.796876 11.574219-16.511719 12.890624-6.980469 33.730468-5.035157 58.664062 5.476562 9.203125 3.84375 18.089844 8.410157 26.574219 13.65625 3.960937 2.550781 9.242187 1.410157 11.796875-2.550781 2.554687-3.960938 1.414062-9.242188-2.546875-11.796875-5.984375-3.71875-12.160157-7.117187-18.507813-10.179687 3.054688-3.371094 6.195313-6.578126 9.386719-9.683594 4.632813 4.589844 7.363281 7.816406 7.398437 7.859375 3.027344 3.609375 8.410157 4.085937 12.023438 1.058593 3.609375-3.03125 4.085938-8.414062 1.058594-12.023437-4.601563-5.308594-9.53125-10.320313-14.765625-15.003906-19.222657-17.304688-48.492188-36.617188-78.761719-30.550781-6.984375 1.871093-14.402344-.671876-18.773438-6.433594-5.953124-8.496094-6.796874-19.566406-2.191406-28.867188 6.320313-11.042968 18.542969-17.335937 31.207032-16.066406 37.425781 0 72.445312 42.664062 90 68.152344 4.820312 6.839844 9.292968 13.917968 13.40625 21.207031 2.246093 4.144531 7.425781 5.683594 11.570312 3.4375 4.144531-2.242187 5.683594-7.425781 3.4375-11.570313-.167969-.304687-3.414062-6.203124-9.085938-14.925781 18.589844-9.769531 38.578126-16.621093 59.253907-20.308593-4.1875 6.675781-6.421875 14.390624-6.449219 22.273437 0 23.5625 19.101562 42.667969 42.664062 42.667969 23.566407 0 42.667969-19.105469 42.667969-42.667969-.027343-7.882813-2.261719-15.597656-6.453125-22.273437 20.671875 3.707031 40.648438 10.570312 59.230469 20.351562-5.699219 8.722656-8.917969 14.617188-9.085937 14.925781-2.246094 4.144531-.707032 9.324219 3.4375 11.570313 4.144531 2.246094 9.328124.707031 11.570312-3.4375 4.113281-7.289063 8.585938-14.367188 13.40625-21.207032 17.578125-25.53125 52.601562-68.195312 90.027344-68.195312 12.667968-1.277344 24.898437 5.019531 31.222656 16.066406 4.597656 9.304688 3.75 20.375-2.207031 28.867188-4.363281 5.773437-11.789063 8.320312-18.773438 6.433594-30.234375-6.058594-59.503906 13.246093-78.722656 30.515624-5.253906 4.691407-10.203125 9.710938-14.820313 15.027344-3.027343 3.613282-2.554687 8.996094 1.058594 12.023438 3.609375 3.03125 8.992188 2.554687 12.023438-1.058594 0-.039062 2.761718-3.265625 7.398437-7.855469 3.222657 3.105469 6.363281 6.3125 9.386719 9.683594-6.347656 3.058594-12.527344 6.457031-18.511719 10.179687-3.960937 2.554688-5.101562 7.835938-2.546875 11.796876 2.554688 3.960937 7.835938 5.101562 11.796875 2.546874 8.484375-5.242187 17.371094-9.808593 26.574219-13.652343 24.941406-10.519531 45.796875-12.476563 58.65625-5.476563 6.8125 2.703125 11.367188 9.195313 11.597656 16.519532-.242187 5.726562-3.542968 10.882812-8.644531 13.5-3.363281 1.554687-7.34375.855468-9.972656-1.757813-10.105469-7.722656-22.65625-11.539063-35.347657-10.746094h-.222656c-12.296875.464844-24.445312 2.882813-35.984375 7.167969-3.808593 1.507812-6.011719 5.511719-5.246093 9.535156.769531 4.027344 4.289062 6.9375 8.386718 6.9375 1.0625 0 2.117188-.199218 3.105469-.589844 8.054687-2.917968 16.4375-4.824218 24.960937-5.675781 46.796876 86.160157 25.960938 193.402344-49.691406 255.769531-75.652344 62.371094-184.898437 62.371094-260.550781 0-75.65625-62.367187-96.488281-169.609374-49.691406-255.769531zm-11.429688 209.5c7.941407 13.539062 17.289063 26.199219 27.886719 37.769531-12.542969 9.277344-24.222656 25.675781-24.222656 55.015625 0 14.136719-11.464844 25.597656-25.601563 25.597656s-25.601562-11.460937-25.601562-25.597656c0-19.867187.136719-71.132813 47.539062-92.785156zm0 0"/><path d="m114.160156 299.347656c.128906.128906.1875.300782.324219.429688.328125.214844.675781.410156 1.03125.578125.460937.332031.953125.617187 1.46875.855469.519531.183593 1.058594.316406 1.605469.398437 1.054687.269531 2.167968.25 3.214844-.050781.511718-.082032 1.015624-.21875 1.503906-.398438.519531-.234375 1.019531-.523437 1.484375-.855468.347656-.171876.679687-.367188.996093-.589844.136719-.117188.179688-.296875.308594-.425782.128906-.128906.308594-.1875.425782-.324218 11.714843-11.640625 27.742187-17.886719 44.246093-17.246094 16.496094-.65625 32.523438 5.574219 44.246094 17.195312.109375.128907.28125.171876.398437.296876.121094.128906.191407.324218.335938.453124.472656.363282.984375.675782 1.527344.929688.300781.210938.613281.402344.9375.574219 2.042968.898437 4.371094.898437 6.417968 0 .324219-.164063.636719-.351563.9375-.554688.523438-.234375 1.019532-.523437 1.484376-.855469.144531-.128906.207031-.304687.34375-.441406.136718-.136718.289062-.164062.40625-.300781 27.714843-30.734375 26.09375-77.90625-3.671876-106.660156-29.765624-28.757813-76.960937-28.757813-106.726562 0-29.765625 28.753906-31.386719 75.925781-3.671875 106.660156.125.15625.296875.207031.425781.332031zm39.542969-51.761718c0-9.425782 7.640625-17.066407 17.066406-17.066407s17.066407 7.640625 17.066407 17.066407c0 9.425781-7.640626 17.066406-17.066407 17.066406s-17.066406-7.640625-17.066406-17.066406zm17.066406-59.734376c22.039063-.027343 42.296875 12.097657 52.6875 31.535157 10.390625 19.433593 9.21875 43.015625-3.050781 61.324219-6.871094-5.386719-14.683594-9.457032-23.039062-12.003907 4.839843-5.980469 7.5-13.429687 7.535156-21.121093 0-18.851563-15.28125-34.132813-34.132813-34.132813-18.851562 0-34.132812 15.28125-34.132812 34.132813.035156 7.691406 2.6875 15.140624 7.527343 21.121093-8.355468 2.546875-16.167968 6.617188-23.042968 12.003907-12.265625-18.308594-13.4375-41.890626-3.046875-61.328126 10.394531-19.4375 30.65625-31.5625 52.695312-31.53125zm0 0"/><path d="m284.824219 299.347656c.128906.128906.191406.300782.324219.429688.332031.214844.675781.410156 1.035156.578125.460937.332031.949218.617187 1.46875.855469.519531.183593 1.054687.316406 1.601562.398437 1.058594.269531 2.167969.25 3.21875-.050781.511719-.082032 1.015625-.21875 1.5-.398438.523438-.234375 1.019532-.523437 1.484375-.855468.347657-.171876.683594-.367188 1-.589844.136719-.117188.179688-.296875.308594-.425782.125-.128906.304687-.1875.425781-.324218 11.714844-11.640625 27.742188-17.886719 44.246094-17.246094 16.492188-.65625 32.519531 5.574219 44.242188 17.195312.113281.128907.285156.171876.402343.296876.121094.128906.1875.324218.332031.453124.476563.363282.988282.675782 1.527344.929688.300782.210938.617188.402344.941406.574219 2.042969.898437 4.371094.898437 6.414063 0 .328125-.164063.640625-.351563.941406-.554688.519531-.234375 1.019531-.523437 1.484375-.855469.144532-.128906.203125-.304687.339844-.441406.136719-.136718.289062-.164062.410156-.300781 27.714844-30.734375 26.089844-77.90625-3.671875-106.660156-29.765625-28.757813-76.964843-28.757813-106.726562 0-29.765625 28.753906-31.390625 75.925781-3.675781 106.660156.128906.15625.300781.207031.425781.332031zm39.546875-51.761718c0-9.425782 7.640625-17.066407 17.066406-17.066407s17.066406 7.640625 17.066406 17.066407c0 9.425781-7.640625 17.066406-17.066406 17.066406s-17.066406-7.640625-17.066406-17.066406zm17.066406-59.734376c22.039062-.027343 42.296875 12.097657 52.6875 31.535157 10.386719 19.433593 9.214844 43.015625-3.050781 61.324219-6.875-5.386719-14.683594-9.457032-23.039063-12.003907 4.839844-5.980469 7.496094-13.429687 7.535156-21.121093 0-18.851563-15.28125-34.132813-34.132812-34.132813s-34.132812 15.28125-34.132812 34.132813c.03125 7.691406 2.6875 15.140624 7.523437 21.121093-8.351563 2.546875-16.164063 6.617188-23.039063 12.003907-12.265624-18.308594-13.4375-41.890626-3.046874-61.328126 10.390624-19.4375 30.652343-31.5625 52.695312-31.53125zm0 0"/><path d="m145.167969 383.351562v9.300782c0 14.140625 11.464843 25.601562 25.601562 25.601562h17.066407c14.140624 0 25.601562-11.460937 25.601562-25.601562v-8.53125h85.332031v8.53125c0 14.140625 11.460938 25.601562 25.601563 25.601562h17.066406c14.136719 0 25.597656-11.460937 25.597656-25.601562v-9.300782c24.605469-4.179687 42.621094-25.476562 42.667969-50.433593 0-4.710938-3.820313-8.53125-8.535156-8.53125-4.710938 0-8.53125 3.820312-8.53125 8.53125 0 18.851562-15.28125 34.132812-34.132813 34.132812h-204.800781c-18.851563 0-34.132813-15.28125-34.132813-34.132812 0-4.710938-3.820312-8.53125-8.535156-8.53125-4.710937 0-8.53125 3.820312-8.53125 8.53125.046875 24.957031 18.0625 46.253906 42.664063 50.433593zm204.800781.769532v8.53125c0 4.714844-3.820312 8.535156-8.53125 8.535156h-17.066406c-4.714844 0-8.535156-3.820312-8.535156-8.535156v-8.53125zm-153.597656 0v8.53125c0 4.714844-3.820313 8.535156-8.535156 8.535156h-17.066407c-4.710937 0-8.535156-3.820312-8.535156-8.535156v-8.53125zm0 0"/></svg>