<svg height="512pt" viewBox="0 0 512 512.03455" width="512pt" xmlns="http://www.w3.org/2000/svg"><path d="m485.394531 125.046875c-8.457031 14.890625-19.664062 28.035156-33.023437 38.742187l-26.96875-25.515624c-.597656-.511719-1.191406-1.023438-1.703125-1.535157-5.253907-5.546875-6.195313-13.902343-2.304688-20.480469 26.28125-43.945312 55.722657-63.230468 80.125-71.339843h.085938c4.523437 27.792969-1.238281 56.28125-16.210938 80.128906zm0 0" fill="#ffdfb1"/><path d="m421.394531 116.257812c-2.875 6.757813-2 14.53125 2.304688 20.480469l-18.886719-11.765625-33.28125-37.546875c2.773438-7.664062 6.230469-15.058593 10.328125-22.101562 25.941406-44.886719 70.144531-67.925781 98.730469-51.371094 11.0625 6.875 18.667968 18.140625 20.90625 30.976563-24.378906 8.097656-53.820313 27.382812-80.101563 71.328124zm0 0" fill="#9c27af"/><path d="m116.839844 114.039062-40.023438 32.683594c-8.832031-4.667968-17.15625-10.242187-24.832031-16.640625-31.65625-26.367187-47.699219-61.695312-42.410156-87.808593 39.554687 5.058593 75.257812 26.242187 98.644531 58.539062 3.132812 4.238281 6.007812 8.652344 8.621094 13.226562zm0 0" fill="#ffdfb1"/><path d="m161.210938 77.6875-44.371094 36.351562c-2.613282-4.574218-5.488282-8.988281-8.621094-13.226562-23.386719-32.296875-59.089844-53.480469-98.644531-58.539062 1.265625-6.679688 4.199219-12.933594 8.535156-18.175782 21.074219-25.34375 70.484375-19.027344 110.335937 14.167969 13.351563 10.914063 24.476563 24.300781 32.765626 39.421875zm0 0" fill="#9c27af"/><path d="m503.484375 292.300781c0 116.652344-110.761719 211.199219-247.46875 211.199219-2.898437 0-5.714844 0-8.53125-.167969-1.449219 0-2.816406-.085937-4.265625-.171875-130.816406-5.71875-234.667969-97.878906-234.667969-210.859375.773438-56.082031 25.644531-109.121093 68.265625-145.578125 6.960938-6.292968 14.3125-12.136718 22.015625-17.492187l95.574219-41.472657c16.046875-3.5625 32.382812-5.675781 48.8125-6.316406 1.363281-.167968 2.816406-.167968 4.265625-.253906 2.816406-.085938 5.632813-.085938 8.53125-.085938 20.71875-.023437 41.378906 2.210938 61.613281 6.65625l84.136719 29.953126 23.636719 20.5625c9.65625 7.769531 18.675781 16.304687 26.96875 25.515624 32.472656 34.960938 50.707031 80.796876 51.113281 128.511719zm0 0" fill="#6a1b99"/><path d="m477.882812 292.300781c0 112.980469-103.847656 205.140625-234.664062 210.859375-130.816406-5.71875-234.667969-97.878906-234.667969-210.859375.773438-56.082031 25.644531-109.121093 68.265625-145.578125 6.960938-6.292968 14.3125-12.136718 22.015625-17.492187l95.574219-41.472657c16.046875-3.5625 32.382812-5.675781 48.8125-6.316406 16.425781.644532 32.761719 2.757813 48.808594 6.316406l107.777344 50.515626c9.65625 7.769531 18.671874 16.304687 26.964843 25.515624 32.476563 34.960938 50.707031 80.796876 51.113281 128.511719zm0 0" fill="#9c27af"/><path d="m256.015625 247.5c.050781 28.40625-14.101563 54.953125-37.714844 70.742188-4.65625 3.1875-9.632812 5.875-14.847656 8.023437l-2.21875-.769531h-.085937c-12.808594-16.007813-29.832032-28.125-49.152344-34.988282-18.546875-7.144531-38.644532-9.292968-58.28125-6.226562-5.53125-11.472656-8.390625-24.046875-8.363282-36.78125.003907-24.582031 10.609376-47.96875 29.097657-64.167969.085937-.085937.085937-.085937.171875-.085937 25.191406-22.023438 60.9375-27.277344 91.402344-13.433594 30.464843 13.84375 50.015624 44.226562 49.992187 77.6875zm0 0" fill="#f3f3f3"/><path d="m426.683594 247.5c.027344 12.734375-2.832032 25.308594-8.363282 36.78125-1.621093-.257812-3.15625-.511719-4.777343-.683594-18.132813-1.980468-36.472657.386719-53.503907 6.910156-17.449218 6.273438-33.078124 16.769532-45.484374 30.550782-1.277344 1.449218-2.472657 2.902344-3.667969 4.4375h-.085938l-1.363281.511718-.855469.257813c-39.527343-16.441406-60.757812-59.625-49.632812-100.964844 11.125-41.34375 51.15625-68.042969 93.597656-62.421875 42.441406 5.617188 74.152344 41.8125 74.136719 84.621094zm0 0" fill="#f3f3f3"/><path d="m213.351562 247.5c0 23.566406-19.101562 42.667969-42.667968 42.667969-23.5625 0-42.667969-19.101563-42.667969-42.667969 0-23.5625 19.105469-42.664062 42.667969-42.664062 23.566406 0 42.667968 19.101562 42.667968 42.664062zm0 0" fill="#00bbd3"/><path d="m384.015625 247.5c0 23.566406-19.101563 42.667969-42.664063 42.667969-23.566406 0-42.667968-19.101563-42.667968-42.667969 0-23.5625 19.101562-42.664062 42.667968-42.664062 23.5625 0 42.664063 19.101562 42.664063 42.664062zm0 0" fill="#00bbd3"/><path d="m203.109375 99.628906-10.238281-13.929687c-6.503906-8.921875-18.023438-12.628907-28.511719-9.164063-41.085937 12.410156-71.414063 47.285156-78 89.695313-.425781 1.988281.613281 4 2.476563 4.804687 1.867187.808594 4.042968.183594 5.203124-1.484375 15.359376-21.335937 49.492188-58.027343 102.023438-56.390625 3.230469.050782 6.210938-1.726562 7.703125-4.589844 1.492187-2.863281 1.238281-6.328124-.65625-8.941406zm0 0" fill="#ac1457"/><path d="m308.925781 99.628906 10.238281-13.929687c6.503907-8.921875 18.023438-12.628907 28.507813-9.164063 41.089844 12.410156 71.417969 47.285156 78.003906 89.695313.425781 1.988281-.613281 4-2.480469 4.804687-1.863281.808594-4.039062.183594-5.199218-1.484375-15.359375-21.335937-49.492188-58.027343-102.023438-56.390625-3.230468.050782-6.210937-1.726562-7.703125-4.589844-1.492187-2.863281-1.238281-6.328124.65625-8.941406zm0 0" fill="#ac1457"/><path d="m305.082031 460.664062c-15.691406 5.851563-32.316406 8.800782-49.066406 8.703126-15.738281.0625-31.375-2.535157-46.25-7.679688 3.558594-3.300781 6.429687-7.277344 8.449219-11.691406 5.375-11.605469 4.609375-23.378906-1.792969-26.367188-1.234375-.628906-2.644531-.839844-4.011719-.597656 26.546875-17.984375 61.40625-17.851562 87.808594.34375-.265625.042969-.523438.132812-.765625.253906-6.402344 2.988282-7.253906 14.761719-1.792969 26.367188 1.792969 3.984375 4.308594 7.601562 7.421875 10.667968zm0 0" fill="#e81e63"/><path d="m366.949219 385.65625c0 1.449219-.082031 2.902344-.167969 4.691406v.429688c-.085938 1.109375-.257812 2.046875-.34375 3.15625.015625.121094-.015625.242187-.085938.339844-1.003906 7.65625-3.40625 15.058593-7.082031 21.847656-5.613281 10.511718-13.375 19.730468-22.78125 27.050781-3.859375 3.105469-7.9375 5.925781-12.203125 8.445313-6.132812 3.558593-12.554687 6.585937-19.203125 9.046874-3.113281-3.066406-5.628906-6.683593-7.421875-10.667968-5.460937-11.605469-4.609375-23.378906 1.792969-26.367188.242187-.121094.5-.210937.765625-.253906-26.402344-18.195312-61.261719-18.328125-87.808594-.34375 1.367188-.242188 2.777344-.03125 4.011719.597656 6.402344 2.988282 7.167969 14.761719 1.792969 26.367188-2.019532 4.414062-4.890625 8.390625-8.449219 11.691406-6.324219-2.167969-12.457031-4.851562-18.34375-8.019531-5.683594-3.144531-11.105469-6.742188-16.214844-10.753907-9.246093-7.257812-16.886719-16.351562-22.441406-26.707031-3.164063-6.042969-5.4375-12.507812-6.742187-19.203125-.171876-1.023437-.257813-2.046875-.425782-3.070312-.171875-1.023438-.257812-2.046875-.34375-3.15625v-.597656c-.085937-1.621094-.171875-3.074219-.171875-4.523438s.085938-2.902344.171875-4.695312v-.339844c.085938-1.109375.257813-2.046875.34375-3.242188 1.011719-20.289062 12.175782-38.703125 29.695313-48.980468 5.171875-2.675782 10.902343-4.078126 16.722656-4.097657 12.820313.382813 24.75 6.644531 32.34375 16.980469 2.625 3.5625 4.75 7.46875 6.3125 11.605469 2.425781 7.730469 6.179687 14.980469 11.09375 21.417969 3.703125 3.882812 8.890625 5.996093 14.25 5.804687 6.226563.203125 12.132813-2.75 15.703125-7.851563 4.125-6.304687 7.449219-13.097656 9.898438-20.222656 1.5-3.855468 3.539062-7.476562 6.058593-10.753906 7.59375-10.335938 19.523438-16.597656 32.339844-16.980469 5.847656.050781 11.601563 1.453125 16.8125 4.097657 17.46875 10.316406 28.59375 28.714843 29.609375 48.980468.085938 1.195313.257812 2.132813.34375 3.242188v.597656c.085938 1.535156.167969 2.988281.167969 4.4375zm0 0" fill="#ac1457"/><g fill="#ffdfb1"><path d="m241.765625 374.304688c-2.035156 1.609374-4.203125 3.035156-6.484375 4.269531-11.265625 5.972656-23.125 5.714843-26.453125-.511719-3.328125-6.230469 3.15625-16.128906 14.507813-22.101562 2.320312-1.296876 4.785156-2.328126 7.335937-3.074219 2.425781 7.730469 6.179687 14.980469 11.09375 21.417969zm0 0"/><path d="m167.015625 413.816406c-4.535156 1.765625-9.386719 2.578125-14.25 2.390625-3.164063-6.042969-5.4375-12.507812-6.742187-19.203125 3.480468-3.140625 7.535156-5.574218 11.945312-7.167968 11.945312-4.519532 23.722656-2.816407 26.199219 3.839843 2.472656 6.65625-5.207031 15.617188-17.152344 20.140625zm0 0"/><path d="m218.214844 449.996094c-2.019532 4.414062-4.890625 8.390625-8.449219 11.691406-6.324219-2.167969-12.457031-4.851562-18.34375-8.019531.210937-5.027344 1.429687-9.960938 3.582031-14.507813 2.808594-7.902344 9.3125-13.929687 17.40625-16.128906 1.367188-.242188 2.777344-.03125 4.011719.597656 6.402344 2.988282 7.167969 14.761719 1.792969 26.367188zm0 0"/><path d="m306.960938 378.0625c-3.328126 6.226562-15.1875 6.484375-26.453126.511719-3.210937-1.683594-6.171874-3.808594-8.789062-6.316407 4.125-6.304687 7.449219-13.097656 9.898438-20.222656 3.835937.683594 7.53125 2.007813 10.921874 3.925782 11.265626 5.972656 17.75 15.871093 14.421876 22.101562zm0 0"/><path d="m366.351562 394.273438c-1.003906 7.65625-3.40625 15.058593-7.082031 21.847656-3.566406-.230469-7.078125-1.007813-10.410156-2.304688-11.945313-4.523437-19.710937-13.570312-17.152344-20.140625 2.5625-6.570312 14.167969-8.359375 26.113281-3.839843 3.027344 1.097656 5.894532 2.589843 8.53125 4.4375zm0 0"/><path d="m324.285156 451.617188c-6.132812 3.558593-12.554687 6.585937-19.203125 9.046874-3.113281-3.066406-5.628906-6.683593-7.421875-10.667968-5.460937-11.605469-4.609375-23.378906 1.792969-26.367188.242187-.121094.5-.210937.765625-.253906 6.316406-2.304688 15.359375 4.605469 20.652344 15.785156 1.878906 3.914063 3.035156 8.132813 3.414062 12.457032zm0 0"/></g><path d="m162.152344 230.433594c0 9.425781-7.644532 17.066406-17.070313 17.066406-9.421875 0-17.066406-7.640625-17.066406-17.066406 0-9.425782 7.644531-17.066406 17.066406-17.066406 9.425781 0 17.070313 7.640624 17.070313 17.066406zm0 0" fill="#f3f3f3"/><path d="m332.816406 230.433594c0 9.425781-7.640625 17.066406-17.066406 17.066406s-17.066406-7.640625-17.066406-17.066406c0-9.425782 7.640625-17.066406 17.066406-17.066406s17.066406 7.640624 17.066406 17.066406zm0 0" fill="#f3f3f3"/><path d="m187.75 247.5c0 9.425781-7.640625 17.066406-17.066406 17.066406-9.425782 0-17.066406-7.640625-17.066406-17.066406s7.640624-17.066406 17.066406-17.066406c9.425781 0 17.066406 7.640625 17.066406 17.066406zm0 0" fill="#37474f"/><path d="m358.417969 247.5c0 9.425781-7.640625 17.066406-17.066407 17.066406-9.425781 0-17.066406-7.640625-17.066406-17.066406s7.640625-17.066406 17.066406-17.066406c9.425782 0 17.066407 7.640625 17.066407 17.066406zm0 0" fill="#37474f"/><path d="m256.015625 512.035156c141.160156 0 256-98.570312 256-219.734375-.253906-46.851562-17.195313-92.082031-47.785156-127.574219 11.300781-10.253906 20.933593-22.207031 28.550781-35.429687 16.539062-28.601563 22.949219-60.867187 17.144531-86.296875-.09375-.386719-.210937-.769531-.347656-1.144531-2.917969-14.707031-11.875-27.511719-24.6875-35.292969-16.394531-9.53125-37.242187-8.652344-58.574219 2.457031-21.796875 12.167969-39.75 30.203125-51.824218 52.054688-2.648438 4.652343-5.054688 9.4375-7.199219 14.34375-5.476563-2.664063-11.113281-4.980469-16.878907-6.9375-12.964843-4.335938-27.265624-.410157-36.199218 9.933593-38.421875-7.632812-77.972656-7.632812-116.394532 0-8.089843-9.359374-20.667968-13.519531-32.742187-10.828124-8.363281-13.570313-18.894531-25.679688-31.171875-35.839844-18.867188-16.347656-41.933594-27.082032-66.585938-30.984375-23.894531-3.039063-43.648437 3.292969-55.757812 17.859375-5.25 6.324218-8.8125 13.878906-10.351562 21.957031 0 .167969-.042969.339844-.074219.511719v.109375c-5.683594 29.757812 12.472656 68.011719 45.414062 95.453125 5.148438 4.210937 10.5625 8.082031 16.210938 11.589844-39.578125 37.527343-62.222657 89.519531-62.746094 144.058593 0 121.164063 114.84375 219.734375 256 219.734375zm221.988281-391.253906c-6.714844 11.667969-15.203125 22.21875-25.164062 31.273438-6.945313-7.277344-14.335938-14.117188-22.128906-20.480469-3.3125-2.636719-4.164063-7.316407-1.996094-10.957031 18.773437-31.324219 40.960937-52.699219 66.015625-63.851563.804687 22.515625-5.011719 44.769531-16.726563 64.015625zm-88.746094-51.199219c10.453126-19.035156 26.015626-34.765625 44.933594-45.421875 15.976563-8.320312 30.945313-9.328125 42.164063-2.816406 6.949219 4.238281 12.179687 10.789062 14.78125 18.5-29.746094 12.175781-55.671875 36.265625-77.066407 72.027344-.296874.511718-.484374 1.050781-.75 1.578125-8.460937-11.667969-19.003906-21.679688-31.09375-29.53125 2.050782-4.917969 4.40625-9.707031 7.046876-14.335938zm-44.375 15.042969c31.582032 9.703125 56.734376 33.742188 67.847657 64.855469-23.152344-27.601563-57.054688-43.921875-93.070313-44.800781-1.316406 0-2.648437 0-3.976562.066406v-.050782l10.238281-13.917968c4.292969-6.011719 12.011719-8.507813 19.011719-6.152344zm-42.1875 8.96875-.71875.972656c-3.878906 5.25-4.414062 12.25-1.378906 18.027344 3.039063 5.777344 9.109375 9.308594 15.628906 9.09375 48.230469-1.445312 80.15625 32.425781 94.824219 52.84375 3.445313 4.800781 9.742188 6.59375 15.199219 4.328125 5.542969-2.277344 8.777344-8.082031 7.796875-13.996094-.519531-3.234375-1.203125-6.304687-1.917969-9.34375 4.855469 4.515625 9.523438 9.164063 13.847656 13.988281 31.171876 33.324219 48.65625 77.164063 48.972657 122.792969 0 111.753907-107.1875 202.667969-238.933594 202.667969s-238.933594-90.914062-238.933594-202.667969c.683594-52.386719 23.476563-102.046875 62.757813-136.71875-.710938 3.019531-1.382813 6.066407-1.90625 9.28125-.613282 3.730469.441406 7.539063 2.886718 10.417969 2.441407 2.882812 6.027344 4.546875 9.804688 4.550781 4.089844-.003906 7.925781-1.976562 10.308594-5.300781 14.660156-20.394531 46.703125-54.3125 94.820312-52.84375 6.546875.289062 12.660156-3.269531 15.632813-9.105469 3.0625-5.769531 2.523437-12.78125-1.382813-18.015625l-.714844-.980468c30.9375-5.179688 62.519532-5.179688 93.457032.007812zm-130.304687-9.839844c5.40625.035156 10.472656 2.632813 13.652344 7.007813l10.242187 13.855469c-37.390625-.230469-72.9375 16.210937-96.972656 44.851562 11.113281-31.109375 36.265625-55.152344 67.847656-64.851562 1.683594-.574219 3.453125-.863282 5.230469-.863282zm-107.238281-66.0625c21.429687 3.472656 41.460937 12.871094 57.832031 27.132813 9.96875 8.238281 18.65625 17.914062 25.769531 28.714843-12.375 5.496094-23.816406 12.878907-33.921875 21.890626-22.679687-31.0625-56.226562-52.449219-93.960937-59.894532 1.027344-2.136718 2.300781-4.140625 3.800781-5.976562 8.257813-9.898438 22.636719-14.164063 40.480469-11.867188zm-47.992188 34.507813c33.898438 6.632812 64.023438 25.867187 84.300782 53.828125.507812.664062.917968 1.394531 1.210937 2.175781-3.914063 4.820313-7.417969 9.957031-10.476563 15.359375-5.496093 3.890625-10.914062 8.183594-16.214843 12.75-6.507813-3.75-12.695313-8.03125-18.5-12.800781-24.917969-20.710938-40.472657-48.800781-40.320313-71.3125zm0 0"/><path d="m76.816406 247.5c-.003906 14.019531 3.144532 27.863281 9.21875 40.5.074219.164062.21875.257812.304688.402344.308594.507812.667968.984375 1.074218 1.414062.324219.402344.679688.773438 1.066407 1.109375.441406.3125.910156.585938 1.402343.8125.46875.265625.964844.484375 1.476563.65625.511719.125 1.035156.199219 1.558594.222657.566406.082031 1.140625.097656 1.707031.050781.1875 0 .359375.050781.539062 0 18.152344-2.761719 36.710938-.753907 53.855469 5.828125 11.722657 4.308594 22.621094 10.597656 32.21875 18.59375-3.375.84375-6.648437 2.066406-9.753906 3.644531-20.222656 11.625-33.171875 32.710937-34.40625 56.003906l-.339844 3.191407-.050781 1.289062c-.078125 1.636719-.144531 3.027344-.144531 4.421875 0 1.515625.074219 3.027344.167969 4.519531v1.273438c.054687.683594.136718 1.3125.207031 1.953125l.691406 5.214843c1.457031 7.503907 4.003906 14.757813 7.550781 21.527344 6.101563 11.421875 14.515625 21.445313 24.703125 29.433594 11.085938 8.808594 23.617188 15.621094 37.035157 20.136719h.050781c32.816406 11.214843 68.484375 10.820312 101.042969-1.109375 7.089843-2.636719 13.941406-5.875 20.480468-9.675782 4.617188-2.726562 9.03125-5.78125 13.210938-9.140624 10.324218-8.039063 18.835937-18.160157 24.984375-29.710938 1.066406-1.996094 2.023437-4.011719 2.886719-6.042969.253906-.578125.433593-1.175781.671874-1.765625.574219-1.441406 1.152344-2.890625 1.621094-4.34375.25-.777344.429688-1.550781.648438-2.320312.367187-1.289063.761718-2.558594 1.050781-3.855469.195313-.855469.308594-1.707031.46875-2.5625.207031-1.125.460937-2.253906.605469-3.414063.089844-.398437.152344-.800781.1875-1.210937l.136718-1.203125c.070313-.640625.15625-1.269531.207032-1.953125 0-.085937.042968-1.304687.050781-1.382813.074219-1.636718.144531-3.019531.144531-4.410156 0-1.597656-.085937-3.191406-.171875-4.4375 0-.222656 0-1.042968 0-1.273437l-.359375-3.414063c-1.277344-23.207031-14.195312-44.195312-34.335937-55.796875-3.1875-1.53125-6.53125-2.699219-9.976563-3.492187 9.644532-8.082032 20.617188-14.433594 32.425782-18.773438 17.144531-6.582031 35.703124-8.589844 53.855468-5.828125h.527344c.570312.039063 1.144531.019531 1.707031-.058593.527344-.023438 1.050781-.097657 1.5625-.222657.496094-.167969.976563-.382812 1.433594-.640625.515625-.230468 1-.515625 1.453125-.851562.371094-.320313.714844-.675782 1.023438-1.058594.421874-.445312.792968-.933594 1.109374-1.460938.082032-.144531.21875-.238281.296876-.390624 15.761718-30.574219 13.53125-67.320313-5.820313-95.757813-19.347656-28.441406-52.710937-44.007813-86.933594-40.570313-34.222656 3.441407-63.824219 25.332032-77.128906 57.054688-18.277344-40.203125-62.121094-62.210938-105.28125-52.847656-43.15625 9.363281-73.941406 47.5625-73.917969 91.722656zm209.691406 115.066406c.671876.304688 1.355469.554688 2.03125.929688 4.625 2.242187 8.484376 5.804687 11.09375 10.238281-5.222656 1.269531-10.734374.285156-15.199218-2.703125-.503906-.265625-.957032-.605469-1.441406-.898438 1.320312-2.480468 2.457031-5.015624 3.515624-7.566406zm-5.402343-26.726562c-3.042969 3.910156-5.511719 8.234375-7.332031 12.839844-.65625 1.519531-1.277344 3.066406-1.910157 4.609374-1.707031 4.910157-4.058593 9.574219-6.988281 13.867188-1.953125 2.945312-5.328125 4.628906-8.859375 4.417969-3.023437.183593-5.972656-.972657-8.070313-3.15625-3.421874-4.464844-6.054687-9.484375-7.78125-14.839844l-1.597656-3.941406c-1.882812-4.871094-4.417968-9.464844-7.535156-13.652344-2.824219-3.542969-6.042969-6.75-9.597656-9.558594 15.113281-9.65625 27.121094-23.472656 34.582031-39.78125 7.484375 16.347657 19.539063 30.183594 34.707031 39.839844-3.5625 2.726563-6.792968 5.867187-9.617187 9.355469zm-55.007813 28.457031c1.054688 2.539063 2.238282 5.019531 3.550782 7.433594-3.984376 2.179687-8.582032 2.96875-13.0625 2.242187 1.996093-4.199218 5.347656-7.609375 9.511718-9.675781zm-62.078125 41.53125c-1.882812.699219-3.828125 1.21875-5.8125 1.546875-.273437-.648438-.597656-1.289062-.851562-1.9375-.382813-1.007812-.742188-2.015625-1.066407-3.039062-.222656-.683594-.367187-1.355469-.5625-2.039063 1.671876-1.007813 3.429688-1.863281 5.253907-2.5625 4.765625-2.023437 10.027343-2.570313 15.105469-1.558594-2.523438 4.726563-6.890626 8.195313-12.066407 9.589844zm47.785157 25.71875c.285156.019531.570312.019531.855468 0 1.246094 5.039063.480469 10.367187-2.132812 14.847656-.871094 1.839844-1.910156 3.589844-3.105469 5.234375-.703125-.285156-1.410156-.53125-2.101563-.855468-.902343-.375-1.800781-.769532-2.695312-1.167969-.640625-.300781-1.265625-.625-1.902344-.929688.496094-2.054687 1.1875-4.054687 2.0625-5.972656 1.894532-4.488281 5.011719-8.355469 8.996094-11.15625zm12.359374 25.472656c.621094-1.101562 1.234376-2.210937 1.789063-3.371093v-.066407c4.871094-9.066406 5.59375-19.792969 1.980469-29.433593 18.976562-8.429688 40.734375-7.925782 59.296875 1.375-.058594.152343-.152344.289062-.210938.460937-2.59375 9.25-1.546875 19.140625 2.917969 27.648437.425781.914063.988281 1.65625 1.457031 2.558594-21.992187 5.925782-45.121093 6.21875-67.257812.855469zm88.582032-8.984375c-.945313.460938-1.902344.902344-2.875 1.347656-.734375.332032-1.519532.632813-2.277344.957032-.828125-1.28125-1.566406-2.617188-2.210938-3.996094-2.429687-4.574219-3.355468-9.792969-2.652343-14.921875 1.492187 0 6.621093 3.285156 10.382812 11.289063.640625 1.382812 1.191407 2.808593 1.640625 4.265624-.710937.367188-1.316406.734376-2.007812 1.058594zm43.382812-47.011718c-.324218 1.101562-.671875 2.195312-1.074218 3.292968-.265626.753906-.648438 1.496094-.957032 2.246094-.730468-.222656-1.472656-.460938-2.21875-.742188-4.921875-1.625-9.238281-4.707031-12.371094-8.839843 1.632813-.917969 3.507813-1.316407 5.375-1.144531 3.398438.058593 6.761719.726562 9.925782 1.972656.648437.25 1.269531.503906 1.867187.765625-.195312.820312-.316406 1.671875-.546875 2.46875zm1.792969-23.039063c.058594.777344.136719 1.46875.222656 2.140625l.101563.488281v.484375c-8.128906-3.007812-17.070313-3.007812-25.199219 0-4.277344 1.730469-7.648437 5.164063-9.296875 9.472656-1.652344 4.3125-1.4375 9.117188.59375 13.261719 4.558594 8.441407 12.167969 14.824219 21.273438 17.84375-4.164063 5.53125-9.007813 10.515625-14.421876 14.832031-.578124.460938-1.160156.851563-1.707031 1.296876-.316406-.769532-.484375-1.503907-.851562-2.28125-3.714844-8.921876-10.703125-16.085938-19.535157-20.019532-2.234374-.816406-4.605468-1.199218-6.988281-1.125-13.75-8.804687-29.765625-13.417968-46.097656-13.277344-16.585937-.0625-32.832031 4.71875-46.734375 13.765626-.867188.167968-1.722656.394531-2.5625.671874-8.828125 3.933594-15.800781 11.125-19.464844 20.070313-.648437 1.410156-1.210937 2.832031-1.703125 4.265625-1.707031-1.183594-3.414062-2.371094-4.976562-3.597656-4.996094-4.011719-9.503907-8.59375-13.429688-13.65625.953125-.296875 1.910157-.449219 2.867188-.808594 16.886719-6.390625 26.390625-19.78125 22.132812-31.097656-1.699219-4.335938-5.085937-7.800782-9.386719-9.589844-9.035156-3.324219-19.003906-3.058594-27.851562.742188-.453125.171874-.855469.425781-1.261719.605468l.050781-1.160156.125-1.160156c.085938-.675782.164063-1.367188.199219-1.921875.832031-17.355469 10.226563-33.167969 25.070313-42.203125 3.992187-2.082032 8.425781-3.179688 12.925781-3.191406 10.195313.390624 19.640625 5.460937 25.601563 13.738281.5.644531.96875 1.316406 1.398437 2.011719-15.707031 8.414062-23.371094 22.71875-17.757813 33.496093 3.839844 6.324219 10.910157 9.953125 18.289063 9.386719 6.90625-.167969 13.671875-2.003906 19.71875-5.351562.761719-.410157 1.492187-.855469 2.246094-1.339844 4.386719 2.59375 9.40625 3.9375 14.503906 3.882812 5.816406.085938 11.503906-1.710937 16.214844-5.121094 1.375.949219 2.800781 1.824219 4.265625 2.628907 6.035156 3.347656 12.789062 5.179687 19.6875 5.339843 7.382812.578126 14.460937-3.054687 18.304687-9.382812 2.117188-4.113281 2.480469-8.90625.996094-13.289062-3.449219-8.902344-10.164063-16.15625-18.773437-20.28125-.851563-.496094-1.839844-.855469-2.761719-1.265626.152343-.195312.261719-.453124.417969-.648437 8.476562-12.628906 24.933593-17.125 38.65625-10.5625 14.703124 9.011719 24.019531 24.691406 24.898437 41.914063zm-16.570313-207.28125c25.304688-.082031 49.011719 12.347656 63.339844 33.203125 14.332032 20.855469 17.429688 47.445312 8.28125 71.039062-18.96875-1.820312-38.101562.769532-55.902344 7.566407-19.058593 6.910156-36.078124 18.496093-49.496093 33.691406-32.0625-15.679687-49.0625-51.417969-40.992188-86.1875 8.070313-34.769531 39.074219-59.363281 74.769531-59.3125zm-93.867187 76.796875c.019531 29.246094-16.675781 55.929688-42.984375 68.703125-13.414062-15.195313-30.433594-26.78125-49.492188-33.691406-17.800781-6.800781-36.933593-9.390625-55.902343-7.566407-11.089844-28.773437-3.886719-61.386718 18.289062-82.8125 22.175781-21.421874 55.019531-27.5 83.390625-15.421874 28.375 12.074218 46.765625 39.957031 46.699219 70.789062zm0 0"/><path d="m145.082031 247.5c0 14.140625 11.464844 25.601562 25.601563 25.601562 14.140625 0 25.601562-11.460937 25.601562-25.601562 0-14.136719-11.460937-25.597656-25.601562-25.597656-14.136719 0-25.601563 11.460937-25.601563 25.597656zm34.136719 0c0 4.714844-3.820312 8.535156-8.535156 8.535156-4.710938 0-8.53125-3.820312-8.53125-8.535156 0-4.710938 3.820312-8.53125 8.53125-8.53125 4.714844 0 8.535156 3.820312 8.535156 8.53125zm0 0"/><path d="m341.351562 273.101562c14.136719 0 25.597657-11.460937 25.597657-25.601562 0-14.136719-11.460938-25.597656-25.597657-25.597656-14.140624 0-25.601562 11.460937-25.601562 25.597656 0 14.140625 11.460938 25.601562 25.601562 25.601562zm0-34.132812c4.710938 0 8.53125 3.820312 8.53125 8.53125 0 4.714844-3.820312 8.535156-8.53125 8.535156-4.714843 0-8.535156-3.820312-8.535156-8.535156 0-4.710938 3.820313-8.53125 8.535156-8.53125zm0 0"/></svg>