<svg height="512pt" viewBox="0 0 512 511" width="512pt" xmlns="http://www.w3.org/2000/svg"><path d="m503.464844 111.40625c.089844 7.496094-.738282 14.976562-2.472656 22.273438v.082031c-1.824219 8.101562-5.503907 15.667969-10.753907 22.101562-8.703125 9.980469-20.746093 16.441407-33.875 18.175781l-8.621093-5.289062-53.757813-32.769531 4.265625-65.621094c10.160156-16.027344 16.792969-34.03125 19.457031-52.820313.105469-1.140624.457031-2.246093 1.023438-3.242187 1.703125-3.074219 5.152343-4.746094 8.617187-4.179687 18.691406 2.660156 36.039063 11.246093 49.496094 24.488281h.085938c4.464843 4.515625 8.363281 9.558593 11.605468 15.019531 10.632813 18.800781 15.808594 40.199219 14.929688 61.78125zm0 0" fill="#ff9701"/><path d="m477.867188 111.40625c.089843 7.496094-.742188 14.976562-2.476563 22.273438v.082031c-1.820313 8.101562-5.503906 15.667969-10.75 22.101562-4.566406 5.539063-10.347656 9.949219-16.898437 12.886719l-53.757813-32.769531 4.265625-65.621094c10.160156-16.027344 16.792969-34.03125 19.457031-52.820313.105469-1.140624.457031-2.246093 1.023438-3.242187 12.238281 4.214844 23.355469 11.160156 32.511719 20.308594h.085937c4.464844 4.515625 8.363281 9.558593 11.605469 15.019531 10.636718 18.800781 15.808594 40.199219 14.933594 61.78125zm0 0" fill="#fdc008"/><path d="m123.476562 140.761719-67.839843 33.277343c-13.128907-1.734374-25.171875-8.195312-33.875-18.175781-5.25-6.464843-8.929688-14.058593-10.753907-22.183593-1.734374-7.296876-2.5625-14.777344-2.472656-22.273438-.878906-21.582031 4.296875-42.980469 14.929688-61.78125 3.242187-5.460938 7.140625-10.503906 11.605468-15.019531h.085938c13.457031-13.242188 30.804688-21.828125 49.496094-24.488281 2.273437-.367188 4.597656.222656 6.421875 1.628906s2.988281 3.5 3.21875 5.792968c2.519531 18.175782 8.828125 35.617188 18.519531 51.199219.339844.511719.59375 1.109375.9375 1.621094zm0 0" fill="#fdc008"/><g fill="#e81e63"><path d="m238.933594 469.207031v9.132813c0 14.136718-11.460938 25.597656-25.601563 25.597656h-34.132812c-14.136719 0-25.597657-11.460938-25.597657-25.597656v-30.976563zm0 0"/><path d="m358.398438 447.363281v30.976563c0 14.136718-11.460938 25.597656-25.597657 25.597656h-34.132812c-14.140625 0-25.601563-11.460938-25.601563-25.597656v-9.132813zm0 0"/><path d="m126.550781 430.808594-2.988281 15.785156c-3.3125 17.496094-15.785156 31.855469-32.644531 37.578125-16.863281 5.722656-35.5 1.925781-48.777344-9.9375s-19.140625-29.953125-15.347656-47.351563l33.621093-153.769531zm0 0"/></g><path d="m436.992188 486.871094c-4.378907-.003906-8.738282-.578125-12.972657-1.707032-18.296875-4.933593-32.136719-19.933593-35.582031-38.570312l-2.988281-15.785156 49.324219-117.589844 16.8125-40.105469 33.621093 153.769531c3.199219 14.605469-.390625 29.875-9.753906 41.53125-9.367187 11.652344-23.507813 18.441407-38.460937 18.457032zm0 0" fill="#ac1457"/><path d="m424.019531 485.164062c-18.296875-4.933593-32.136719-19.933593-35.582031-38.570312l-2.988281-15.785156 49.324219-117.589844 24.832031 113.664062c5.675781 25.824219-10.019531 51.53125-35.585938 58.28125zm0 0" fill="#e81e63"/><path d="m438.101562 130.265625c-1.59375-1.175781-2.191406-3.285156-1.449218-5.121094 2.59375-8.808593 3.0625-18.109375 1.363281-27.136719-.195313-1.746093-1.441406-3.191406-3.140625-3.644531s-3.5.179688-4.539062 1.597657c-1.175782 1.746093-2.617188 3.300781-4.265626 4.609374-2.566406 2.21875-5.824218 3.488282-9.21875 3.582032-1.367187.140625-2.753906.054687-4.09375-.253906-.429687-.082032-.839843-.257813-1.195312-.515626-.320312-.175781-.609375-.40625-.851562-.679687-.703126-.8125-1.125-1.832031-1.195313-2.902344.058594-13.828125-6.429687-26.867187-17.496094-35.15625-1.320312-.949219-3.0625-1.082031-4.515625-.347656s-2.375 2.21875-2.394531 3.84375v1.195313c-.03125 3.667968-.785156 7.292968-2.21875 10.667968-3.164063 6.46875-8.183594 11.847656-14.421875 15.445313-1.589844.90625-3.578125.703125-4.949219-.511719-.597656-.511719-1.195312-1.023438-1.792969-1.453125l-1.277343-1.023437c-15.023438-12.769532-32.027344-23-50.347657-30.292969-2.019531-.769531-3.128906-2.949219-2.558593-5.035157 2.292969-6.652343 6.15625-12.652343 11.261719-17.492187 1.140624-1.078125 1.597656-2.699219 1.1875-4.214844-.410157-1.511719-1.621094-2.679687-3.148438-3.039062-5.925781-1.578125-12.113281-1.925781-18.175781-1.023438-1.332031.203125-2.648438.515625-3.925781.9375-.207032.070313-.40625.15625-.597657.257813-1.589843.65625-3.417969.207031-4.523437-1.109375h-.085938c-.132812-.125-.25-.269531-.339844-.425781-.25-.34375-.449218-.714844-.597656-1.109376-1.730468-4.453124-2.171875-9.304687-1.28125-13.996093.28125-1.4375-.203125-2.921875-1.28125-3.914063-1.082031-.992187-2.597656-1.351562-4.007812-.949218-2.492188.617187-4.941406 1.386718-7.339844 2.304687-3.375 1.101563-6.589844 2.652344-9.558594 4.605469v.085937c-2.125 1.351563-3.957031 3.121094-5.375 5.207031-.808594 1.125-2.109375 1.792969-3.496094 1.792969-1.390624 0-2.691406-.667969-3.5-1.792969-.425781-.597656-.855468-1.109374-1.28125-1.621093v-.085938c-.425781-.425781-.851562-.941406-1.363281-1.367187-5.6875-4.636719-12.425781-7.804688-19.628906-9.214844-1.984375-.484375-4.039063.472656-4.949219 2.304688-.414062.816406-.535156 1.75-.339844 2.644531.167969.671875.28125 1.355469.339844 2.046875v.085937c.328125 4.023438-.226562 8.074219-1.621094 11.863281-.367187 1.097657-1.164062 2-2.210937 2.5s-2.25.550782-3.335937.144532c-1.535157-.636719-3.136719-1.09375-4.777344-1.367188-.769532 0-1.621094-.085937-2.558594-.167968-2.53125-.238282-5.078125-.179688-7.597656.167968-.628906.015625-1.253906.074219-1.875.171875-.148438-.011719-.296875.015625-.429688.085938-1.777344.179687-3.542968.464843-5.289062.851562h-.085938c-.085937.085938-.085937.085938-.167968.085938-1.511719.382812-2.699219 1.550781-3.105469 3.054687-.40625 1.5.027343 3.109375 1.140625 4.199219 5.078125 4.796875 8.941406 10.734375 11.265625 17.324219.605469 2.089844-.515625 4.292968-2.5625 5.03125-19.71875 7.78125-37.9375 18.925781-53.84375 32.941406-1.371094 1.214844-3.359375 1.417969-4.949219.511719-.9375-.597657-1.878906-1.28125-2.816406-1.964844-.53125-.339844-1.042969-.710937-1.535156-1.109375-7.828126-5.566406-12.421876-14.625-12.289063-24.234375-.019531-1.625-.941406-3.109375-2.394531-3.84375s-3.195313-.601563-4.515625.347656c-1.960938 1.359375-3.761719 2.933594-5.378907 4.691407-3.03125 3.113281-5.511718 6.722656-7.335937 10.667968-2.957031 6.195313-4.582031 12.9375-4.78125 19.796875-.019531 1.945313-1.355469 3.628907-3.242187 4.097657-2.777344.5625-5.65625.414062-8.363282-.429688h-.085937l-1.789063-.765625c-2.964844-1.609375-5.484375-3.925781-7.339844-6.742187-1.039062-1.417969-2.839843-2.050782-4.539062-1.597657s-2.945312 1.898438-3.140625 3.644531c-.085937.855469-.257813 1.621094-.339844 2.5625-.171875 1.109376-.257812 2.300782-.34375 3.582032-.800781 7.0625-.101562 14.214844 2.046875 20.992187.742188 1.835938.144532 3.945313-1.449218 5.121094-15.378907 10.207031-22.46875 29.132813-17.578126 46.933594.253907 1.195312.511719 2.386719.851563 3.582031.074219.4375.1875.867188.34375 1.28125.410156 1.371094 1.46875 2.457031 2.828125 2.902344 1.363281.441406 2.859375.1875 3.996094-.683594 2.296875-1.855469 4.785156-3.457031 7.425781-4.78125l2.046875-1.023438c1.90625-.796874 3.917969-1.316406 5.972656-1.535156 1.511719-.109375 2.96875.585938 3.828125 1.832032.859375 1.246093.996094 2.855468.355469 4.226562-15.601562 33.75-23.863281 70.425781-24.234375 107.605469 0 111.53125 82.003906 174.761719 185.34375 178.945312 1.535156.085938 3.15625.167969 4.777344.167969 2.046875.085938 4.097656.085938 6.144531.085938 108.375 0 196.265625-63.742188 196.265625-179.199219-.371094-37.179688-8.632813-73.855469-24.234375-107.605469-.496094-1.105469-.523438-2.367188-.085938-3.5.148438-.363281.382813-.683594.683594-.9375.792969-1.171875 2.179688-1.800781 3.585938-1.621094l1.621094.257813c3.082031.6875 6.027343 1.898437 8.703124 3.582031 1.792969 1.035156 3.503907 2.207031 5.121094 3.5 1.136719.871094 2.632813 1.125 3.996094.683594 1.359375-.445313 2.417969-1.53125 2.828125-2.902344 7.308594-18.972656.507813-40.480469-16.382813-51.796875zm0 0" fill="#ac1457"/><path d="m416.257812 130.265625c-1.597656-1.175781-2.195312-3.285156-1.453124-5.121094 2.152343-6.777343 2.847656-13.929687 2.046874-20.992187-.082031-1.28125-.167968-2.472656-.339843-3.582032-1.472657 1.21875-3.148438 2.171876-4.949219 2.8125-2.683594.953126-5.582031 1.128907-8.363281.515626-.796875-.15625-1.519531-.578126-2.046875-1.195313-3.195313 1.496094-6.789063 1.914063-10.242188 1.195313-1.886718-.46875-3.21875-2.152344-3.242187-4.097657-.195313-6.859375-1.824219-13.601562-4.777344-19.796875-3.164063 6.46875-8.183594 11.847656-14.421875 15.445313-1.589844.90625-3.578125.703125-4.949219-.511719-.597656-.511719-1.195312-1.023438-1.792969-1.453125-.894531.710937-1.835937 1.367187-2.816406 1.964844-1.585937.90625-3.578125.703125-4.949218-.511719-1.023438-.855469-2.046876-1.707031-3.070313-2.476562-1.367187 1.074218-2.792969 2.070312-4.265625 2.988281-1.589844.90625-3.582031.703125-4.949219-.511719-15.808593-13.890625-33.875-24.972656-53.417969-32.769531-2.023437-.769531-3.128906-2.949219-2.5625-5.035157 2.292969-6.652343 6.15625-12.652343 11.265626-17.492187 1.140624-1.078125 1.59375-2.699219 1.183593-4.214844-.410156-1.511719-1.617187-2.679687-3.148437-3.039062-.09375.011719-.1875-.019531-.253906-.085938-1.691407-.378906-3.398438-.664062-5.121094-.851562h-.085938c-.128906-.070313-.277344-.097657-.425781-.085938-3.128906-.523437-6.3125-.636719-9.472656-.339843-2.519531.058593-5.007813.578124-7.339844 1.535156-1.082031.40625-2.289063.355468-3.332031-.144532-1.046875-.5-1.847656-1.402343-2.210938-2.5-1.398437-3.789062-1.949218-7.839843-1.625-11.863281v-.085937c.058594-.691406.175782-1.375.34375-2.046875.195313-.867188.074219-1.773438-.34375-2.558594-5.183594 1.5-9.886718 4.320313-13.652344 8.191406v.085938c-.496093.480469-.925781 1.023437-1.277343 1.621093-.8125 1.125-2.113281 1.792969-3.5 1.792969s-2.691407-.667969-3.5-1.792969c-.761719-1.121093-1.648438-2.152343-2.644531-3.074218-.996094.921875-1.882813 1.953125-2.644532 3.074218-.808594 1.125-2.113281 1.792969-3.5 1.792969-1.386718 0-2.6875-.667969-3.5-1.792969-1.417968-2.085937-3.246094-3.855468-5.375-5.207031.328125 4.023438-.226562 8.074219-1.621094 11.863281-.367187 1.097657-1.164062 2-2.210937 2.5s-2.25.550782-3.335937.144532c-1.535157-.636719-3.136719-1.09375-4.777344-1.367188-1.085938 1.507813-3.0625 2.070313-4.777344 1.367188-1.714844-.730469-3.527344-1.1875-5.378906-1.367188-.648438-.101562-1.304688-.160156-1.960938-.167968-.09375.15625-.207031.300781-.34375.425781-1.144531 1.308593-2.992187 1.753906-4.605468 1.109375-.222657-.101563-.449219-.183594-.683594-.257813h-.085938c-.085937.085938-.085937.085938-.167968.085938-1.511719.382812-2.699219 1.550781-3.105469 3.054687-.40625 1.5.027343 3.109375 1.140625 4.199219 5.078125 4.796875 8.941406 10.734375 11.265625 17.324219.605469 2.089844-.515625 4.292968-2.5625 5.03125-19.71875 7.78125-37.9375 18.925781-53.84375 32.941406-1.371094 1.214844-3.359375 1.417969-4.949219.511719-.9375-.597657-1.878906-1.28125-2.816406-1.964844-.597656.429687-1.195313.941406-1.792969 1.453125-1.367187 1.214844-3.359375 1.417969-4.949219.511719-1.449218-.9375-2.902344-1.964844-4.351562-3.074219-1.023438.855469-1.960938 1.707031-2.988282 2.5625-1.367187 1.214844-3.359374 1.417969-4.949218.511719-6.234375-3.597657-11.257813-8.976563-14.417969-15.445313-2.957031 6.195313-4.582031 12.9375-4.78125 19.796875-.019531 1.945313-1.355469 3.628907-3.242187 4.097657-2.777344.5625-5.65625.414062-8.363282-.429688h-.085937c-.347657.195312-.71875.339844-1.109375.429688-3.449219.71875-7.042969.300781-10.238282-1.195313-.527343.617187-1.25 1.039063-2.046874 1.195313-1.34375.308593-2.726563.394531-4.097657.253906-.800781 7.0625-.101562 14.214844 2.046875 20.992187.742188 1.835938.144532 3.945313-1.449218 5.121094-15.378907 10.207031-22.46875 29.132813-17.578126 46.933594l1.621094-.257813c1.824219-.148437 3.539063.878906 4.265625 2.558594 2.480469-1.371094 5.207031-2.242188 8.023438-2.558594 1.375-.113281 2.714843.464844 3.582031 1.535156 1.90625-.796874 3.917969-1.316406 5.972656-1.535156 1.511719-.109375 2.96875.585938 3.828125 1.832032.859375 1.246093.996094 2.855468.355469 4.226562-15.601562 33.75-23.863281 70.425781-24.234375 107.605469 0 111.53125 82.003906 174.761719 185.34375 178.945312 103.335937-4.183593 185.34375-67.414062 185.34375-178.945312-.371094-37.179688-8.632813-73.855469-24.234375-107.605469-.640625-1.371094-.503906-2.980469.355469-4.226562.859375-1.246094 2.316406-1.941407 3.824219-1.832032 2.816406.316406 5.542968 1.1875 8.023437 2.558594.726563-1.679688 2.441406-2.707031 4.265625-2.558594 2.066406.21875 4.082031.765625 5.972656 1.621094 1.515625.601562 2.972656 1.34375 4.351563 2.21875.34375-1.195312.597656-2.386719.855469-3.582031 4.890624-17.800781-2.199219-36.726563-17.578126-46.933594zm0 0" fill="#e81e63"/><path d="m187.734375 119.9375c-2.863281-.003906-5.71875.253906-8.535156.769531-24.625 4.140625-42.65625 25.460938-42.65625 50.433594 0 24.96875 18.03125 46.289063 42.65625 50.429687 2.816406.519532 5.671875.773438 8.535156.769532 28.277344 0 51.199219-22.921875 51.199219-51.199219s-22.921875-51.203125-51.199219-51.203125zm0 0" fill="#fff"/><path d="m324.265625 119.9375c-2.859375-.003906-5.71875.253906-8.53125.769531-24.625 4.140625-42.660156 25.460938-42.660156 50.433594 0 24.96875 18.035156 46.289063 42.660156 50.429687 2.8125.519532 5.671875.773438 8.53125.769532 28.277344 0 51.199219-22.921875 51.199219-51.199219s-22.921875-51.203125-51.199219-51.203125zm0 0" fill="#fff"/><path d="m221.867188 171.140625c0 18.851563-15.28125 34.132813-34.132813 34.132813s-34.132813-15.28125-34.132813-34.132813 15.28125-34.132813 34.132813-34.132813 34.132813 15.28125 34.132813 34.132813zm0 0" fill="#2295f2"/><path d="m358.398438 171.140625c0 18.851563-15.28125 34.132813-34.132813 34.132813s-34.132813-15.28125-34.132813-34.132813 15.28125-34.132813 34.132813-34.132813 34.132813 15.28125 34.132813 34.132813zm0 0" fill="#2295f2"/><path d="m298.667969 222.339844c0 14.140625-19.109375 34.132812-42.667969 34.132812s-42.667969-19.992187-42.667969-34.132812 19.109375-17.066406 42.667969-17.066406 42.667969 2.925781 42.667969 17.066406zm0 0" fill="#ac1457"/><path d="m256 341.804688s69.496094 0 86.871094-24.6875c17.371094-24.683594 0-41.128907-26.0625-32.902344-19.835938 5.15625-40.332032 7.3125-60.808594 6.390625-20.476562.921875-40.972656-1.234375-60.808594-6.390625-26.0625-8.226563-43.433594 8.226562-26.0625 32.902344 17.375 24.679687 86.871094 24.6875 86.871094 24.6875zm0 0" fill="#ac1457"/><path d="m324.265625 435.671875c0 25.925781-30.566406 34.132813-68.265625 34.132813s-68.265625-8.207032-68.265625-34.132813c0-25.921875 30.566406-59.734375 68.265625-59.734375s68.265625 33.8125 68.265625 59.734375zm0 0" fill="#ff5722"/><path d="m315.734375 329.007812c.003906 1.578126-.167969 3.152344-.511719 4.691407-19.320312 5.195312-39.21875 7.917969-59.222656 8.105469-20.003906-.1875-39.902344-2.910157-59.222656-8.105469-.34375-1.539063-.515625-3.113281-.511719-4.691407 0-19.882812 23.46875-36.269531 53.589844-38.230468.570312.011718 1.140625-.015625 1.707031-.085938 2.816406 0 4.4375-.085937 4.4375-.085937 2.046875 0 4.097656.085937 6.144531.171875 30.121094 1.960937 53.589844 18.347656 53.589844 38.230468zm0 0" fill="#f34335"/><path d="m187.734375 154.074219c0 9.425781-7.640625 17.066406-17.066406 17.066406s-17.066407-7.640625-17.066407-17.066406 7.640626-17.066407 17.066407-17.066407 17.066406 7.640626 17.066406 17.066407zm0 0" fill="#fff"/><path d="m204.800781 171.140625c0 9.425781-7.640625 17.066406-17.066406 17.066406s-17.066406-7.640625-17.066406-17.066406 7.640625-17.066406 17.066406-17.066406 17.066406 7.640625 17.066406 17.066406zm0 0" fill="#37474f"/><path d="m324.265625 154.074219c0 9.425781-7.640625 17.066406-17.066406 17.066406s-17.066407-7.640625-17.066407-17.066406 7.640626-17.066407 17.066407-17.066407 17.066406 7.640626 17.066406 17.066407zm0 0" fill="#fff"/><path d="m341.332031 171.140625c0 9.425781-7.640625 17.066406-17.066406 17.066406s-17.066406-7.640625-17.066406-17.066406 7.640625-17.066406 17.066406-17.066406 17.066406 7.640625 17.066406 17.066406zm0 0" fill="#37474f"/><path d="m48.546875 181.25c.863281 3.445312 1.953125 6.828125 3.257813 10.128906 1.066406 2.664063 3.398437 4.613282 6.207031 5.1875 2.808593.578125 5.71875-.292968 7.746093-2.320312 1.898438-1.855469 3.972657-3.527344 6.1875-4.992188-10.863281 26.203125-17.574218 53.941406-19.890624 82.210938l-33.589844 153.601562c-2.160156 9.90625-1.671875 20.207032 1.417968 29.867188l-8.847656 8.839844c-2.21875 2.140624-3.109375 5.316406-2.328125 8.296874.78125 2.984376 3.109375 5.316407 6.09375 6.097657 2.984375.777343 6.15625-.109375 8.300781-2.328125l4.828126-4.832032c.664062.929688 1.28125 1.894532 2.003906 2.792969 2.457031 3.015625 5.203125 5.78125 8.203125 8.257813l-3.558594 10.632812c-1.5 4.46875.90625 9.304688 5.375 10.804688.875.292968 1.792969.441406 2.714844.441406 3.664062 0 6.921875-2.339844 8.089843-5.816406l2.371094-7.085938c4.839844 2.011719 9.933594 3.34375 15.136719 3.96875v8.933594c0 4.714844 3.820313 8.535156 8.535156 8.535156 4.710938 0 8.53125-3.820312 8.53125-8.535156v-9.460938c5.085938-.980468 10.015625-2.648437 14.652344-4.949218l2.851563 8.53125c.960937 2.898437 3.390624 5.0625 6.378906 5.679687 2.988281.613281 6.082031-.410156 8.109375-2.691406 2.027343-2.277344 2.683593-5.46875 1.722656-8.363281l-4.394531-13.234375c8.960937-8.320313 15.027344-19.289063 17.308594-31.300781l.542968-2.867188c4.054688 2.558594 8.261719 4.984375 12.578125 7.277344v25.78125c0 18.851562 15.285157 34.132812 34.136719 34.132812h34.132812c18.851563 0 34.132813-15.28125 34.132813-34.132812v-.195313c2.773437.09375 5.546875.195313 8.53125.195313 2.988281 0 5.761719-.101563 8.535156-.195313v.195313c0 18.851562 15.28125 34.132812 34.132813 34.132812h34.132812c18.851563 0 34.132813-15.28125 34.132813-34.132812v-25.746094c4.320312-2.296875 8.535156-4.703125 12.578125-7.277344l.539062 2.839844c2.289063 12.019531 8.351563 22.996094 17.3125 31.328125l-4.394531 13.234375c-.960937 2.894531-.300781 6.082031 1.726563 8.363281 2.027343 2.28125 5.117187 3.304688 8.105468 2.6875 2.988282-.617187 5.421875-2.78125 6.382813-5.675781l2.851562-8.53125c4.636719 2.300781 9.566407 3.964844 14.648438 4.949219v9.425781c0 4.714844 3.820312 8.535156 8.535156 8.535156 4.710937 0 8.53125-3.820312 8.53125-8.535156v-8.933594c5.207031-.625 10.300781-1.957031 15.140625-3.96875l2.371094 7.085938c1.164062 3.464844 4.402344 5.804687 8.054687 5.816406.921875 0 1.839844-.148438 2.714844-.441406 4.46875-1.5 6.875-6.335938 5.375-10.804688l-3.558594-10.632812c3-2.476563 5.746094-5.242188 8.203125-8.257813.722656-.898437 1.339844-1.863281 2.003906-2.792969l4.828126 4.832032c3.351562 3.234375 8.671874 3.1875 11.964843-.105469 3.289063-3.289063 3.335938-8.613281.101563-11.960937l-8.839844-8.839844c3.089844-9.660156 3.578125-19.960938 1.417969-29.867188l-33.585938-153.601562c-2.316406-28.269532-9.03125-56.007813-19.902343-82.210938 2.21875 1.464844 4.289062 3.136719 6.1875 4.992188 2.027343 2.027344 4.9375 2.898437 7.746093 2.320312 2.808594-.574218 5.140625-2.523437 6.207031-5.1875 1.304688-3.300781 2.394532-6.683594 3.257813-10.128906 23.339844-5.699219 48.546875-22.738281 48.546875-69.84375 0-87.492188-58.308594-105.898438-83.378906-109.746094-4.585938-.707031-9.261719.503906-12.933594 3.34375-3.667969 2.839844-6.011719 7.066406-6.480469 11.683594-1.921875 14.125-6.457031 27.773438-13.371093 40.242188-2.832032-1.980469-5.902344-3.589844-9.140626-4.796876-2.953124-.984374-6.207031-.285156-8.492187 1.828126-2.289063 2.113281-3.242187 5.304687-2.488281 8.328124 2.914062 9.15625-.828125 19.117188-9.054688 24.089844-14.847656-12.589844-31.5-22.882812-49.398437-30.535156 2.960937-5.566406 7.148437-10.390625 12.246093-14.105469 2.714844-1.804687 4.167969-5 3.734376-8.238281-.429688-3.234375-2.671876-5.9375-5.765626-6.964844-10.113281-3.980468-21.117187-5.128906-31.832031-3.320312-.71875-2.75-.351562-5.667969 1.035157-8.148438 2.664062-2.667968 3.261718-6.769531 1.472656-10.085937-1.792969-3.316407-5.546875-5.0664065-9.238282-4.304688-11.921874 1.429688-23.210937 6.125-32.625 13.578125-9.414062-7.515625-20.75-12.230468-32.714843-13.609375-3.539063-.644531-7.097657 1.011719-8.875 4.136719-1.820313 3.195312-1.464844 7.183594.894531 10 1.574219 2.503906 2.035156 5.550781 1.273438 8.40625-10.714844-1.804688-21.71875-.660156-31.832032 3.320312-3.082031 1.023438-5.316406 3.710938-5.765625 6.929688-.445312 3.21875.976563 6.410156 3.667969 8.234375 5.054688 3.703125 9.226562 8.476563 12.210938 13.984375-18.058594 7.664062-34.855469 18.023438-49.808594 30.722656-8.226563-4.972656-11.96875-14.933594-9.054688-24.089844.753906-3.023437-.199218-6.214843-2.488281-8.328124-2.285156-2.113282-5.539063-2.8125-8.492187-1.828126-3.238282 1.207032-6.308594 2.816407-9.140626 4.796876-6.914062-12.46875-11.449218-26.117188-13.371093-40.242188-.46875-4.617188-2.8125-8.84375-6.480469-11.683594-3.671875-2.839844-8.347656-4.050781-12.933594-3.34375-25.070312 3.847656-83.378906 22.253906-83.378906 109.746094 0 47.105469 25.207031 64.144531 48.546875 69.84375zm66.652344 263.808594c-3.25 17.628906-17.636719 31.066406-35.445313 33.113281-17.8125 2.042969-34.867187-7.785156-42.027344-24.222656v-.082031c-3.5-7.894532-4.398437-16.695313-2.5625-25.132813l20.625-94.515625c8.003907 39.597656 29.75 75.085938 61.390626 100.199219zm98.132812 50.347656h-34.132812c-9.425781 0-17.066407-7.640625-17.066407-17.066406v-17.699219c21.792969 8.90625 44.808594 14.453125 68.265626 16.453125v1.246094c0 4.527344-1.796876 8.867187-4.996094 12.066406-3.203125 3.203125-7.542969 5-12.070313 5zm-17.066406-59.734375c0-20.136719 25.652344-51.199219 59.734375-51.199219s59.734375 31.0625 59.734375 51.199219c0 18.167969-23.960937 23.996094-47.984375 25.285156l-1.867188.101563-2.476562.085937c-2.464844.066407-4.941406.128907-7.40625.128907s-4.941406-.0625-7.40625-.128907l-2.476562-.085937-1.867188-.101563c-24.023438-1.289062-47.984375-7.117187-47.984375-25.285156zm153.601563 42.667969c0 9.425781-7.640626 17.066406-17.066407 17.066406h-34.132812c-9.425781 0-17.066407-7.640625-17.066407-17.066406v-1.246094c23.457032-2 46.472657-7.546875 68.265626-16.453125zm124.464843-24.5v.085937c-1.433593 3.285157-3.292969 6.371094-5.527343 9.171875-9.996094 12.425782-26.308594 17.894532-41.773438 14.007813s-27.25-16.421875-30.179688-32.097657l-1.996093-10.589843c31.640625-25.113281 53.382812-60.601563 61.386719-100.199219l20.660156 94.492188c1.835937 8.4375.933594 17.238281-2.570313 25.128906zm-48.304687-435.3125c15.199218 2.132812 29.476562 8.539062 41.171875 18.476562-9.8125 3.164063-17.9375 10.140625-22.554688 19.363282-1.394531 2.722656-1.226562 5.988281.449219 8.554687 1.671875 2.566406 4.59375 4.039063 7.648438 3.855469 3.058593-.179688 5.785156-1.984375 7.144531-4.730469 4.027343-7.382813 11.636719-12.101563 20.035156-12.433594 10.742187 18.035157 15.960937 38.824219 15.011719 59.792969 0 1.972656-.203125 3.71875-.308594 5.582031-4.667969-9.355469-12.199219-16.976562-21.496094-21.761719-4.222656-2.097656-9.34375-.375-11.441406 3.847657-2.097656 4.222656-.375 9.347656 3.847656 11.445312 13.613282 6.773438 18.773438 22.875 20.589844 36.292969-4.9375 7.445312-12.195312 13.054688-20.648438 15.957031-.722656-14.910156-7.996093-28.738281-19.875-37.777343 2.851563-13.925782 2.058594-28.355469-2.304687-41.882813-1.148437-3.5-4.417969-5.867187-8.105469-5.867187s-6.957031 2.367187-8.105468 5.867187c-1.074219 4.917969-4.007813 9.226563-8.191407 12.023437-.367187.160157-.75.289063-1.136719.382813-.777343-9.320313-3.957031-18.28125-9.222656-26.007813 9.253906-15.617187 15.207032-32.96875 17.492188-50.980468zm-283.894532 85.882812c3.148438 1.695313 7.023438 1.246094 9.699219-1.128906 16.613281-15.058594 35.945313-26.808594 56.960938-34.617188 4-1.4375 6.332031-5.601562 5.46875-9.765624-1.597657-7.109376-4.808594-13.757813-9.386719-19.429688 1.164062-.101562 2.230469-.144531 3.191406-.144531 2.644532-.113281 5.277344.339843 7.734375 1.324219 1.941407 1.933593 4.691407 2.816406 7.394531 2.375 2.703126-.441407 5.03125-2.152344 6.257813-4.601563 2.859375-5.398437 4.46875-11.367187 4.710937-17.46875 12.6875 4.265625 13.105469 8.898437 13.59375 14.386719.394532 4.398437 4.082032 7.769531 8.5 7.769531 4.414063 0 8.101563-3.371094 8.496094-7.769531.488282-5.445313.898438-9.992188 13.59375-14.34375.238282 6.074218 1.832032 12.019531 4.667969 17.398437 1.121094 2.484375 3.371094 4.277344 6.042969 4.8125 2.609375.511719 5.300781-.3125 7.175781-2.191406 3.511719-1.710937 7.472656-2.257813 11.316406-1.5625-4.617187 5.738281-7.808593 12.488281-9.320312 19.695313-.796875 4.117187 1.511719 8.203124 5.453125 9.640624 20.824218 7.839844 39.988281 19.53125 56.484375 34.46875 2.675781 2.371094 6.550781 2.820313 9.699219 1.125 11.347656-5.261718 19.75-15.3125 22.921874-27.410156 5.742188 7.378906 8.675782 16.558594 8.277344 25.898438 0 3.234375 1.824219 6.191406 4.71875 7.640625 8.050782 3.75 17.507813 2.8125 24.660156-2.449219.382813 5.683594-.605468 11.375-2.882812 16.597656-1.011719 2.023438-1.179688 4.367188-.460938 6.515625.714844 2.148438 2.257813 3.921875 4.285157 4.933594 13.34375 7.464844 20.019531 22.949219 16.289062 37.777344-7.410156-5.53125-17.152343-6.839844-25.761719-3.464844-4.164062 2.082031-5.890624 7.117187-3.882812 11.316406 16.546875 33.929688 25.328125 71.121094 25.703125 108.867188 0 85.980469-50.167969 137.285156-113.5625 158.78125 1.765625-4.355469 2.65625-9.015625 2.628906-13.714844 0-30.925781-34.261719-68.265625-76.800781-68.265625s-76.800781 37.339844-76.800781 68.265625c-.027344 4.699219.863281 9.359375 2.628906 13.714844-63.394531-21.496094-113.5625-72.800781-113.5625-158.78125.375-37.746094 9.15625-74.9375 25.703125-108.867188 2.007812-4.199219.28125-9.234375-3.882812-11.316406-2.746094-1.371094-5.777344-2.078125-8.847657-2.054687-6.03125.285156-11.875 2.191406-16.914062 5.519531-3.746094-14.816407 2.9375-30.300781 16.289062-37.734375 2.046875-1.003906 3.605469-2.78125 4.332031-4.941406.726563-2.160157.558594-4.519532-.464843-6.550782-2.285157-5.214844-3.277344-10.902344-2.902344-16.582031 7.152344 5.25 16.597656 6.179687 24.636719 2.433594 2.894531-1.449219 4.71875-4.40625 4.71875-7.640625-.390625-9.328125 2.542968-18.492188 8.277344-25.863282 3.179687 12.089844 11.582031 22.136719 22.921874 27.402344zm-110.074218-52.796875c8.40625.332031 16.019531 5.054688 20.054687 12.433594 2.140625 4.171875 7.246094 5.835937 11.433594 3.726563 4.1875-2.113282 5.886719-7.207032 3.808594-11.40625-4.621094-9.230469-12.761719-16.214844-22.589844-19.371094 11.660156-9.945313 25.890625-16.394532 41.054687-18.601563 2.445313 18.003907 8.472657 35.335938 17.722657 50.976563-5.316407 7.753906-8.527344 16.753906-9.316407 26.121094-.335937-.082032-.664062-.1875-.984374-.316407-4.28125-2.753906-7.289063-7.109375-8.34375-12.09375-1.152344-3.5-4.421876-5.867187-8.105469-5.867187-3.6875 0-6.957031 2.367187-8.109375 5.867187-4.363282 13.53125-5.15625 27.957031-2.304688 41.882813-11.875 9.039062-19.152344 22.867187-19.871094 37.777344-8.453124-2.902344-15.710937-8.511719-20.652343-15.957032 1.859375-13.414062 6.980469-29.515625 20.589843-36.292968 4.222657-2.097657 5.949219-7.21875 3.851563-11.441407-2.097656-4.222656-7.222656-5.945312-11.445313-3.851562-9.296874 4.785156-16.824218 12.40625-21.496093 21.761719-.085938-1.835938-.289063-3.582032-.289063-5.554688-.945312-20.96875 4.265625-41.753906 14.992188-59.792969zm0 0"/><path d="m187.734375 230.871094c6.039063.003906 12.042969-.910156 17.808594-2.710938 7.019531 21.945313 27.417969 36.835938 50.457031 36.835938s43.4375-14.890625 50.457031-36.835938c27.175781 8.636719 56.679688-3.019531 70.613281-27.898437 13.9375-24.878907 8.460938-56.125-13.105468-74.785157-21.5625-18.65625-53.273438-19.585937-75.890625-2.21875-22.621094 17.367188-29.914063 48.238282-17.457031 73.890626-5.597657-.410157-10.761719-.410157-14.617188-.410157s-9.019531 0-14.574219.410157c11.574219-23.960938 5.886719-52.6875-13.941406-70.433594-19.832031-17.742188-49.011719-20.21875-71.542969-6.0625-22.535156 14.152344-32.976562 41.511718-25.601562 67.078125 7.375 25.566406 30.785156 43.164062 57.394531 43.140625zm136.53125-102.398438c23.566406 0 42.667969 19.101563 42.667969 42.667969 0 23.5625-19.101563 42.664063-42.667969 42.664063-23.5625 0-42.664063-19.101563-42.664063-42.664063.027344-23.554687 19.113282-42.640625 42.664063-42.667969zm-34.132813 93.867188c0 8.761718-14.414062 25.597656-34.132812 25.597656s-34.132812-16.835938-34.132812-25.597656c0-5.503906 12.117187-8.535156 34.132812-8.535156s34.132812 3.03125 34.132812 8.535156zm-102.398437-93.867188c23.5625 0 42.664063 19.101563 42.664063 42.667969 0 23.5625-19.101563 42.664063-42.664063 42.664063-23.566406 0-42.667969-19.101563-42.667969-42.664063.027344-23.554687 19.113282-42.640625 42.667969-42.667969zm0 0"/><path d="m187.734375 196.738281c14.136719 0 25.597656-11.460937 25.597656-25.597656 0-14.140625-11.460937-25.601563-25.597656-25.601563-14.140625 0-25.601563 11.460938-25.601563 25.601563 0 14.136719 11.460938 25.597656 25.601563 25.597656zm0-34.132812c4.710937 0 8.53125 3.820312 8.53125 8.535156 0 4.710937-3.820313 8.53125-8.53125 8.53125-4.714844 0-8.535156-3.820313-8.535156-8.53125 0-4.714844 3.820312-8.535156 8.535156-8.535156zm0 0"/><path d="m324.265625 196.738281c14.140625 0 25.601563-11.460937 25.601563-25.597656 0-14.140625-11.460938-25.601563-25.601563-25.601563-14.136719 0-25.597656 11.460938-25.597656 25.601563 0 14.136719 11.460937 25.597656 25.597656 25.597656zm0-34.132812c4.714844 0 8.535156 3.820312 8.535156 8.535156 0 4.710937-3.820312 8.53125-8.535156 8.53125-4.710937 0-8.53125-3.820313-8.53125-8.53125 0-4.714844 3.820313-8.535156 8.53125-8.535156zm0 0"/><path d="m314.25 276.097656c-17.113281 4.546875-34.789062 6.617188-52.488281 6.144532-3.597657-.214844-7.207031-.214844-10.804688 0-17.9375.535156-35.855469-1.53125-53.195312-6.132813-16.828125-5.300781-32-2.144531-39.605469 8.242187-3.414062 4.726563-9.984375 17.851563 3.996094 37.714844 19.359375 27.480469 86.277344 28.273438 93.847656 28.273438 20.890625-.066406 41.679688-2.9375 61.808594-8.535156l.390625-.117188c12.367187-3.042969 23.453125-9.921875 31.667969-19.652344 13.976562-19.867187 7.449218-32.992187 3.992187-37.71875-7.621094-10.394531-22.765625-13.550781-39.609375-8.21875zm-138.140625 36.113282c-5.210937-7.398438-6.824219-14.222657-4.179687-17.816407 2.683593-2.785156 6.496093-4.179687 10.34375-3.789062 3.519531.0625 7.007812.65625 10.347656 1.765625 4.839844 1.496094 9.765625 2.699218 14.746094 3.601562-9.195313 5.890625-15.867188 14.996094-18.710938 25.539063-4.902344-1.988281-9.214844-5.191407-12.546875-9.300781zm79.890625 21.0625c-17.144531-.0625-34.226562-2.105469-50.902344-6.09375 1.570313-14.207032 20.769532-26.292969 44.757813-27.871094h1.417969c2.25 0 3.890624-.101563 4.675781-.136719h.28125c.945312 0 2.808593.113281 5.410156.148437 24.492187 1.609376 43.683594 13.652344 45.226563 27.859376-16.664063 3.980468-33.734376 6.023437-50.867188 6.09375zm79.890625-21.0625c-3.332031 4.105468-7.648437 7.296874-12.546875 9.277343-2.863281-10.546875-9.558594-19.648437-18.773438-25.523437 4.992188-.90625 9.925782-2.109375 14.773438-3.609375 10.769531-3.414063 18.148438-1.417969 20.683594 2.039062 2.671875 3.59375 1.074218 10.417969-4.136719 17.816407zm0 0"/></svg>