<svg height="512pt" viewBox="0 0 512.0067 512" width="512pt" xmlns="http://www.w3.org/2000/svg"><path d="m366.9375 450.640625v27.222656c0 14.136719-11.460938 25.601563-25.601562 25.601563h-42.664063c-14.140625 0-25.601563-11.464844-25.601563-25.601563v-17.238281zm0 0" fill="#f34335"/><path d="m238.9375 460.625v17.238281c0 14.136719-11.460938 25.601563-25.601562 25.601563h-42.664063c-14.140625 0-25.601563-11.464844-25.601563-25.601563v-27.222656zm0 0" fill="#f34335"/><path d="m503.46875 332.796875c.195312 28.316406-12.332031 55.226563-34.132812 73.300781l-68.265626 35.753906c-11.21875 3.511719-22.613281 6.445313-34.132812 8.789063-30.9375 6.078125-62.347656 9.421875-93.867188 9.984375-5.632812.085938-11.351562.171875-17.066406.171875-2.902344 0-5.71875 0-8.535156-.085937-2.816406-.085938-5.714844-.085938-8.53125-.085938-31.523438-.5625-62.933594-3.90625-93.867188-9.984375-11.519531-2.34375-22.914062-5.277344-34.132812-8.789063l-68.265625-35.753906c-21.800781-18.074218-34.332031-44.984375-34.136719-73.300781 1.503906-34.007813 13.988282-66.613281 35.585938-92.929687l203.347656-148.308594 8.535156-6.230469 211.882813 154.539063c21.59375 26.316406 34.082031 58.921874 35.582031 92.929687zm0 0" fill="#c42828"/><path d="m477.871094 332.796875c.246094 28.195313-12.035156 55.046875-33.527344 73.300781l-67.046875 35.753906c-11.011719 3.511719-22.203125 6.445313-33.519531 8.789063-30.359375 6.078125-61.203125 9.417969-92.160156 9.984375-2.765626 0-5.53125.085938-8.378907.085938-2.851562 0-5.617187-.085938-8.378906-.085938-30.957031-.566406-61.800781-3.90625-92.160156-9.984375-11.320313-2.34375-22.507813-5.277344-33.519531-8.789063l-67.117188-35.753906c-21.492188-18.253906-33.773438-45.105468-33.527344-73.300781 1.453125-33.914063 13.710938-66.476563 34.988282-92.929687l199.679687-148.308594 199.679687 148.308594c21.277344 26.453124 33.535157 59.015624 34.988282 92.929687zm0 0" fill="#f34335"/><path d="m110.9375 401.984375v67.34375c0 18.851563-15.28125 34.136719-34.132812 34.136719-18.851563 0-34.132813-15.285156-34.132813-34.136719v-88.675781c-.015625-6.210938 3.347656-11.9375 8.777344-14.953125 5.429687-3.015625 12.066406-2.847657 17.332031.445312l34.132812 21.332031c5 3.125 8.035157 8.613282 8.023438 14.507813zm0 0" fill="#f34335"/><path d="m469.335938 383.996094v88.660156c.011718 9.058594-3.582032 17.746094-9.984376 24.148438-6.402343 6.40625-15.09375 9.996093-24.148437 9.984374-4.386719.023438-8.734375-.820312-12.800781-2.472656-12.898438-5.21875-21.339844-17.742187-21.332032-31.660156v-67.328125c.007813-5.867187 3.039063-11.320313 8.019532-14.417969l29.953125-18.691406 4.183593-2.644531c5.25-3.28125 11.871094-3.460938 17.292969-.464844 5.425781 2.992187 8.796875 8.691406 8.816407 14.886719zm0 0" fill="#c42828"/><path d="m443.738281 379.175781v92.210938c.214844 14.285156-8.210937 27.285156-21.335937 32.929687-13.074219-5.699218-21.476563-18.667968-21.332032-32.929687v-70.023438c-.03125-6.035156 2.984376-11.671875 8.019532-14.996093l29.953125-19.4375c3.070312 3.332031 4.75 7.714843 4.695312 12.246093zm0 0" fill="#f34335"/><path d="m256.003906 8.53125c-3.097656 0-6.195312.1875-9.199218.46875h-.375c-47.96875 4.8125-84.492188 45.183594-84.492188 93.394531 0 48.210938 36.523438 88.585938 84.492188 93.398438h.375c3.003906.28125 6.101562.46875 9.199218.46875 51.839844 0 93.867188-42.023438 93.867188-93.867188 0-51.839843-42.027344-93.863281-93.867188-93.863281zm0 0" fill="#fff"/><path d="m93.871094 85.328125c-3.171875-.003906-6.335938.1875-9.480469.574219-43.195313 4.792968-75.875 41.300781-75.875 84.761718 0 43.457032 32.679687 79.964844 75.875 84.761719 3.144531.382813 6.308594.574219 9.480469.570313 47.128906 0 85.332031-38.203125 85.332031-85.332032 0-47.128906-38.203125-85.335937-85.332031-85.335937zm0 0" fill="#fff"/><path d="m503.46875 170.664062c0 47.128907-38.203125 85.332032-85.332031 85.332032-3.167969.015625-6.332031-.183594-9.472657-.597656-1.023437-.085938-2.132812-.253907-3.15625-.425782 0 .085938 0 .085938-.085937 0-41.742187-6.246094-72.632813-42.101562-72.632813-84.308594 0-42.210937 30.890626-78.0625 72.632813-84.308593.085937-.085938.085937-.085938.085937 0 1.023438-.171875 2.132813-.34375 3.15625-.429688 3.140626-.414062 6.304688-.613281 9.472657-.597656 47.128906 0 85.332031 38.207031 85.332031 85.335937zm0 0" fill="#ced7db"/><path d="m477.871094 170.664062c-.015625 42.105469-30.746094 77.90625-72.363282 84.308594 0 .085938 0 .085938-.085937 0-41.742187-6.246094-72.632813-42.101562-72.632813-84.308594 0-42.210937 30.890626-78.0625 72.632813-84.308593.085937-.085938.085937-.085938.085937 0 41.617188 6.398437 72.347657 42.199219 72.363282 84.308593zm0 0" fill="#fff"/><path d="m315.738281 102.394531c0 32.992188-26.746093 59.734375-59.734375 59.734375-32.992187 0-59.734375-26.742187-59.734375-59.734375 0-32.988281 26.742188-59.730469 59.734375-59.730469 32.988282 0 59.734375 26.742188 59.734375 59.730469zm0 0" fill="#00bbd3"/><path d="m477.871094 170.664062c0 32.988282-26.746094 59.730469-59.734375 59.730469s-59.734375-26.742187-59.734375-59.730469c0-32.992187 26.746094-59.734374 59.734375-59.734374s59.734375 26.742187 59.734375 59.734374zm0 0" fill="#00bbd3"/><path d="m290.136719 102.394531c0 18.851563-15.28125 34.136719-34.132813 34.136719-18.851562 0-34.132812-15.285156-34.132812-34.136719 0-18.847656 15.28125-34.132812 34.132812-34.132812 18.851563 0 34.132813 15.285156 34.132813 34.132812zm0 0" fill="#37474f"/><path d="m452.269531 170.664062c0 18.851563-15.28125 34.132813-34.132812 34.132813-18.851563 0-34.132813-15.28125-34.132813-34.132813 0-18.851562 15.28125-34.132812 34.132813-34.132812 18.851562 0 34.132812 15.28125 34.132812 34.132812zm0 0" fill="#37474f"/><path d="m153.601562 170.664062c0 32.988282-26.742187 59.730469-59.730468 59.730469-32.992188 0-59.734375-26.742187-59.734375-59.730469 0-32.992187 26.742187-59.734374 59.734375-59.734374 32.988281 0 59.730468 26.742187 59.730468 59.734374zm0 0" fill="#00bbd3"/><path d="m128.003906 170.664062c0 18.851563-15.28125 34.132813-34.132812 34.132813-18.851563 0-34.132813-15.28125-34.132813-34.132813 0-18.851562 15.28125-34.132812 34.132813-34.132812 18.851562 0 34.132812 15.28125 34.132812 34.132812zm0 0" fill="#37474f"/><g fill="#fff"><path d="m68.269531 145.0625c0 14.140625-11.460937 25.601562-25.597656 25.601562-14.140625 0-25.601563-11.460937-25.601563-25.601562 0-14.136719 11.460938-25.597656 25.601563-25.597656 14.136719 0 25.597656 11.460937 25.597656 25.597656zm0 0"/><path d="m230.402344 76.796875c0 14.136719-11.460938 25.597656-25.597656 25.597656-14.140626 0-25.601563-11.460937-25.601563-25.597656 0-14.140625 11.460937-25.601563 25.601563-25.601563 14.136718 0 25.597656 11.460938 25.597656 25.601563zm0 0"/><path d="m392.535156 145.0625c0 14.140625-11.460937 25.601562-25.597656 25.601562-14.140625 0-25.601562-11.460937-25.601562-25.601562 0-14.136719 11.460937-25.597656 25.601562-25.597656 14.136719 0 25.597656 11.460937 25.597656 25.597656zm0 0"/></g><path d="m256.054688 426.664062h-.101563c-37.359375 0-65.527344-30.191406-58.640625-62.859374l15.527344-73.675782h86.324218l15.53125 73.675782c6.886719 32.667968-21.28125 62.859374-58.640624 62.859374zm0 0" fill="#e81e63"/><path d="m512.003906 170.664062c.042969-36.40625-20.988281-69.542968-53.949218-85-32.960938-15.457031-71.886719-10.4375-99.847657 12.875-2.011719-54.992187-47.175781-98.53515575-102.203125-98.53515575-55.03125 0-100.195312 43.54296875-102.203125 98.53515575-39.570312-32.351562-97.761719-27.050781-130.835937 11.917969-33.074219 38.96875-28.84375 97.246094 9.507812 131.03125-19.972656 26.363281-31.3125 58.253907-32.46874975 91.308594-.23828125 29.359375 12.20312475 57.394531 34.13281275 76.917969v59.613281c0 23.566406 19.101562 42.667969 42.667969 42.667969 23.5625 0 42.664062-19.101563 42.664062-42.667969v-16.160156c5.460938 1.507812 11.152344 2.929687 17.066406 4.265625v20.429687c0 18.851563 15.285156 34.132813 34.136719 34.132813h42.664063c18.851562 0 34.132812-15.28125 34.132812-34.132813v-8.617187c2.851562 0 5.675781.082031 8.535156.082031s5.691406-.050781 8.53125-.082031v8.617187c0 18.851563 15.285156 34.132813 34.136719 34.132813h42.664063c18.851562 0 34.132812-15.28125 34.132812-34.132813v-20.480469c5.910156-1.335937 11.601562-2.757812 17.066406-4.265624v16.210937c0 23.566406 19.105469 42.667969 42.667969 42.667969s42.667969-19.101563 42.667969-42.667969v-59.613281c21.929687-19.523438 34.371094-47.558594 34.132812-76.917969-1.144531-33.050781-12.46875-64.941406-32.425781-91.308594 20.585937-17.773437 32.421875-43.625 32.425781-70.824219zm-93.867187-76.800781c32.28125.039063 61.09375 20.265625 72.101562 50.613281 11.007813 30.347657 1.859375 64.339844-22.890625 85.066407-1.425781 1.230469-2.933594 2.371093-4.503906 3.414062-12.96875 9.488281-28.636719 14.574219-44.707031 14.507813-42.394531-.050782-76.753907-34.40625-76.800781-76.800782.007812-4.75.488281-9.488281 1.433593-14.140624.589844-.9375 1.167969-1.878907 1.707031-2.832032.277344-.382812.523438-.785156.734376-1.203125 4.601562-8.179687 8.046874-16.957031 10.238281-26.078125 14.335937-20.425781 37.734375-32.574218 62.6875-32.546875zm-162.132813-76.800781c30.179688-.023438 58.121094 15.90625 73.476563 41.886719 15.351562 25.984375 15.828125 58.144531 1.25 84.570312-.746094.804688-1.324219 1.75-1.707031 2.78125-15.363282 25.683594-43.089844 41.40625-73.019532 41.40625-29.929687 0-57.65625-15.722656-73.019531-41.40625-.371094-1.058593-.953125-2.03125-1.707031-2.859375-14.535156-26.417968-14.039063-58.550781 1.308594-84.507812 15.347656-25.953125 43.261718-41.875 73.417968-41.871094zm-238.933594 153.601562c-.023437-33.46875 21.640626-63.09375 53.539063-73.214843 31.902344-10.121094 66.683594 1.597656 85.953125 28.960937 2.195312 9.121094 5.640625 17.898438 10.242188 26.078125.210937.417969.457031.816407.734374 1.191407.554688.957031 1.132813 1.90625 1.707032 2.84375.945312 4.652343 1.421875 9.390624 1.425781 14.140624-.050781 42.394532-34.40625 76.75-76.800781 76.800782-16.230469.046875-32.042969-5.128906-45.109375-14.757813-1.4375-.960937-2.8125-2.011719-4.121094-3.148437-17.484375-14.558594-27.585937-36.140625-27.570313-58.894532zm196.265626 324.265626h-42.664063c-9.425781 0-17.070313-7.640626-17.070313-17.066407v-17.066406c25.382813 4.441406 51.046876 7.101563 76.800782 7.960937v9.105469c0 9.425781-7.640625 17.066407-17.066406 17.066407zm128 0h-42.664063c-9.425781 0-17.070313-7.640626-17.070313-17.066407v-9.070312c25.757813-.863281 51.421876-3.535157 76.800782-7.996094v17.066406c0 9.425781-7.640625 17.066407-17.066406 17.066407zm136.535156-110.480469v-34.585938c0-4.714843-3.820313-8.535156-8.535156-8.535156-4.710938 0-8.53125 3.820313-8.53125 8.535156v119.464844c0 14.140625-11.460938 25.601563-25.601563 25.601563-14.136719 0-25.601563-11.460938-25.601563-25.601563v-76.796875c0-4.714844-3.820312-8.535156-8.53125-8.535156-4.714843 0-8.535156 3.820312-8.535156 8.535156v42.894531c-8.53125 2.492188-17.558594 4.839844-27.304687 6.828125-30.410157 5.976563-61.285157 9.261719-92.269531 9.8125-11.179688.171875-22.792969.171875-33.792969 0-31.027344-.535156-61.941407-3.8125-92.390625-9.789062-9.769532-2.011719-18.773438-4.359375-27.308594-6.824219v-42.921875c0-4.714844-3.820312-8.535156-8.53125-8.535156-4.714844 0-8.535156 3.820312-8.535156 8.535156v76.796875c0 14.140625-11.460938 25.601563-25.597656 25.601563-14.140626 0-25.601563-11.460938-25.601563-25.601563v-119.464844c0-4.714843-3.820313-8.535156-8.53125-8.535156-4.714844 0-8.535156 3.820313-8.535156 8.535156v34.585938c-11.265625-14.847657-17.269531-33.019531-17.066407-51.652344 1.304688-29.433594 11.5-57.777344 29.242188-81.296875 14.378906 8.574219 30.816406 13.078125 47.558594 13.03125 48.886718-.078125 89.546875-37.636719 93.488281-86.367188 38.875 35.507813 98.414063 35.507813 137.285156 0 3.945313 48.730469 44.601563 86.289063 93.492188 86.367188 16.746093.0625 33.191406-4.4375 47.574219-13.015625 17.730468 23.519531 27.917968 51.855469 29.226562 81.28125.199219 18.632813-5.804688 36.804687-17.066406 51.652344zm0 0"/><path d="m256.003906 145.0625c23.5625 0 42.667969-19.101562 42.667969-42.667969 0-23.5625-19.105469-42.664062-42.667969-42.664062-23.566406 0-42.667968 19.101562-42.667968 42.664062.027343 23.554688 19.113281 42.640625 42.667968 42.667969zm0-68.265625c14.136719 0 25.597656 11.460937 25.597656 25.597656 0 14.140625-11.460937 25.601563-25.597656 25.601563-14.140625 0-25.601562-11.460938-25.601562-25.601563 0-14.136719 11.460937-25.597656 25.601562-25.597656zm0 0"/><path d="m418.136719 213.328125c23.5625 0 42.667969-19.101563 42.667969-42.664063 0-23.566406-19.105469-42.667968-42.667969-42.667968s-42.667969 19.101562-42.667969 42.667968c.03125 23.550782 19.117188 42.636719 42.667969 42.664063zm0-68.265625c14.136719 0 25.601562 11.460938 25.601562 25.601562 0 14.136719-11.464843 25.597657-25.601562 25.597657s-25.601563-11.460938-25.601563-25.597657c0-14.140624 11.464844-25.601562 25.601563-25.601562zm0 0"/><path d="m93.871094 213.328125c23.5625 0 42.664062-19.101563 42.664062-42.664063 0-23.566406-19.101562-42.667968-42.664062-42.667968-23.566406 0-42.667969 19.101562-42.667969 42.667968.027344 23.550782 19.113281 42.636719 42.667969 42.664063zm0-68.265625c14.136718 0 25.597656 11.460938 25.597656 25.601562 0 14.136719-11.460938 25.597657-25.597656 25.597657-14.140625 0-25.601563-11.460938-25.601563-25.597657 0-14.140624 11.460938-25.601562 25.601563-25.601562zm0 0"/><path d="m358.402344 255.996094c-4.710938 0-8.53125 3.820312-8.53125 8.535156 0 9.425781-7.640625 17.066406-17.066406 17.066406h-153.601563c-9.425781 0-17.066406-7.640625-17.066406-17.066406 0-4.714844-3.820313-8.535156-8.535157-8.535156-4.710937 0-8.53125 3.820312-8.53125 8.535156 0 18.851562 15.28125 34.132812 34.132813 34.132812h23.117187l-13.355468 63.382813c-3.589844 16.972656.8125 34.648437 11.949218 47.949219 13.585938 16.296875 33.824219 25.5625 55.039063 25.199218h.101563c21.210937.359376 41.445312-8.90625 55.03125-25.199218 11.132812-13.300782 15.539062-30.976563 11.945312-47.949219l-13.34375-63.382813h23.117188c18.851562 0 34.132812-15.28125 34.132812-34.132812 0-4.714844-3.820312-8.535156-8.535156-8.535156zm-52.050782 109.566406c2.476563 11.945312-.667968 24.363281-8.535156 33.683594-10.414062 12.199218-25.722656 19.121094-41.761718 18.882812h-.101563c-16.039063.238282-31.347656-6.683594-41.761719-18.882812-7.867187-9.320313-11.015625-21.738282-8.535156-33.683594l14.105469-66.898438h27.707031v59.730469c0 4.714844 3.820312 8.535157 8.535156 8.535157 4.710938 0 8.53125-3.820313 8.53125-8.535157v-59.730469h27.710938zm0 0"/></svg>