<svg height="512pt" viewBox="0 0 512 512.05239" width="512pt" xmlns="http://www.w3.org/2000/svg"><path d="m503.492188 184.324219v191.148437c-9.105469-8.214844-17.660157-17.023437-25.597657-26.367187-22.273437-24.238281-51.117187-55.980469-51.203125-54.1875h-25.34375c-.167968-.085938-.253906-.085938-.253906 0h-315.734375c0-.085938-.085937-.085938-.253906 0-4.269531 1.960937-76.546875 83.457031-76.546875 80.554687v-191.148437c0-82.941407 72.621094-150.1875 162.132812-150.1875h170.667969c89.515625 0 162.132813 67.246093 162.132813 150.1875zm0 0" fill="#1566bf"/><path d="m477.894531 184.324219v191.148437c0 2.902344-72.277343-78.59375-76.546875-80.554687-.167968-.085938-.253906-.085938-.253906 0h-315.734375c0-.085938-.085937-.085938-.253906 0h-25.347657c-.082031-1.792969-28.925781 29.949219-51.199218 54.1875v-164.78125c0-82.941407 72.621094-150.1875 162.132812-150.1875h145.066406c89.515626 0 162.136719 67.246093 162.136719 150.1875zm0 0" fill="#2295f2"/><path d="m503.238281 373.421875c-2.472656 42.496094-19.21875 82.90625-47.53125 114.691406-4.148437 5.234375-9.351562 9.539063-15.277343 12.628907-7.292969 2.980468-15.296876 3.78125-23.039063 2.304687-.976563-.152344-1.945313-.351563-2.902344-.597656-.804687-.148438-1.605469-.351563-2.386719-.597657-17.921874-4.695312-24.832031-18.433593-33.621093-33.792968-2.476563-4.4375-5.121094-8.789063-7.765625-13.054688 1.582031.242188 3.179687.355469 4.777344.339844 6.578124.230469 12.976562-2.171875 17.78125-6.671875 4.804687-4.5 7.621093-10.726563 7.820312-17.308594.007812-6.003906-2.355469-11.765625-6.570312-16.039062-4.9375-5.230469-11.84375-8.140625-19.03125-8.023438-4.40625-.027343-8.753907 1.058594-12.628907 3.15625-.957031.457031-1.871093 1-2.730469 1.621094-3.714843 2.5-6.621093 6.03125-8.363281 10.15625-2.472656-4.777344-4.863281-9.558594-6.996093-14.335937-6.351563-13.945313-10.304688-28.859376-11.691407-44.117188 55.550781-18.433594 93.609375-59.222656 93.609375-124.84375-.667968-36.144531-10.441406-71.542969-28.414062-102.910156-8.40625-15.152344-18.511719-29.292969-30.125-42.15625 7.023437 3.585937 13.832031 7.578125 20.398437 11.949218 50.003907 33.960938 111.527344 109.652344 114.6875 267.601563zm0 0" fill="#ac1457"/><path d="m477.894531 373.421875c-2.472656 42.496094-19.21875 82.90625-47.53125 114.691406-4.148437 5.234375-9.351562 9.539063-15.277343 12.628907-.957032.457031-1.957032.828124-2.984376 1.109374-17.921874-4.695312-24.832031-18.433593-33.621093-33.792968-2.476563-4.4375-5.121094-8.789063-7.765625-13.054688 1.582031.242188 3.179687.355469 4.777344.339844 6.578124.230469 12.976562-2.171875 17.78125-6.671875 4.804687-4.5 7.621093-10.726563 7.820312-17.308594.007812-6.003906-2.355469-11.765625-6.570312-16.039062-4.9375-5.230469-11.84375-8.140625-19.03125-8.023438-4.40625-.027343-8.753907 1.058594-12.628907 3.15625-3.90625-2.101562-8.277343-3.1875-12.714843-3.15625-1.808594-.023437-3.613282.179688-5.375.597657-6.351563-13.945313-10.304688-28.859376-11.691407-44.117188 55.550781-18.433594 93.609375-59.222656 93.609375-124.84375-.667968-36.144531-10.441406-71.542969-28.414062-102.910156 39.933594 42.496094 77.140625 115.453125 79.617187 237.394531zm0 0" fill="#e81e63"/><path d="m85.359375 238.9375c1.507813-53.804688 22.277344-105.285156 58.539063-145.066406-7.035157 3.5625-13.847657 7.550781-20.394532 11.949218-50.003906 33.996094-111.53125 109.675782-114.6875 267.621094 2.46875 42.488282 19.21875 82.894532 47.53125 114.671875 4.136719 5.257813 9.339844 9.578125 15.273438 12.671875 7.304687 2.949219 15.304687 3.730469 23.039062 2.242188 1.023438-.160156 1.964844-.324219 2.902344-.5625 19.710938-4.085938 26.878906-18.355469 36.011719-34.390625 2.472656-4.410157 5.117187-8.746094 7.765625-13.070313-1.582032.253906-3.179688.386719-4.78125.398438-6.585938.207031-12.980469-2.210938-17.785156-6.722656-4.800782-4.511719-7.609376-10.746094-7.8125-17.332032.019531-5.996094 2.375-11.746094 6.570312-16.035156 4.949219-5.207031 11.84375-8.121094 19.027344-8.035156 5.5-.042969 10.871094 1.640625 15.359375 4.8125 3.714843 2.511718 6.621093 6.046875 8.363281 10.179687 10.167969-18.027343 16.527344-37.949219 18.6875-58.53125-55.550781-18.355469-93.609375-59.171875-93.609375-124.800781zm0 0" fill="#e81e63"/><path d="m426.691406 247.472656c0 69.886719-38.058594 113.320313-93.609375 132.863282-24.8125 8.394531-50.867187 12.519531-77.054687 12.203124-26.191406.316407-52.246094-3.808593-77.058594-12.203124-36.429688-11.324219-66.277344-37.691407-82.003906-72.449219-7.980469-19.125-11.929688-39.691407-11.605469-60.414063 1.28125-56.636718 21.941406-111.125 58.539063-154.367187h224.253906c9.722656 11.457031 18.351562 23.796875 25.773437 36.863281.046875.046875.074219.105469.085938.167969 20.691406 35.699219 31.9375 76.082031 32.679687 117.335937zm0 0" fill="#1566bf"/><path d="m409.625 227.195312c0 71.800782-37.085938 116.429688-91.210938 136.535157-24.085937 8.609375-49.515624 12.851562-75.09375 12.535156-25.578124.316406-51.007812-3.929687-75.09375-12.535156-29.878906-10.261719-55.210937-30.679688-71.585937-57.695313-7.789063-19.761718-11.621094-40.859375-11.28125-62.097656 1.070313-57.695312 21.117187-113.433594 57.035156-158.597656h218.507813c9.507812 11.828125 17.914062 24.503906 25.113281 37.871094.042969.046874.074219.109374.085937.175781 15.039063 32.570312 23.054688 67.941406 23.523438 103.808593zm0 0" fill="#2295f2"/><path d="m256.027344 8.539062-33.210938 111.835938c-5.035156 17.015625 11.210938 33.230469 33.210938 33.230469 21.996094 0 38.246094-16.257813 33.210937-33.230469zm0 0" fill="#ffebb2"/><path d="m179.226562 162.136719c-2.859374-.03125-5.714843.195312-8.535156.683593-29.367187 4.21875-51.175781 29.378907-51.175781 59.050782s21.808594 54.832031 51.175781 59.050781c2.820313.488281 5.675782.71875 8.535156.683594 32.988282 0 59.734376-26.742188 59.734376-59.734375 0-32.988282-26.746094-59.734375-59.734376-59.734375zm0 0" fill="#fff"/><path d="m332.828125 162.136719c-2.859375-.03125-5.71875.195312-8.535156.683593-29.371094 4.21875-51.175781 29.378907-51.175781 59.050782s21.804687 54.832031 51.175781 59.050781c2.816406.488281 5.675781.71875 8.535156.683594 32.988281 0 59.730469-26.742188 59.730469-59.734375 0-32.988282-26.742188-59.734375-59.730469-59.734375zm0 0" fill="#fff"/><path d="m213.359375 221.871094c0 18.851562-15.28125 34.132812-34.132813 34.132812-18.851562 0-34.132812-15.28125-34.132812-34.132812 0-18.851563 15.28125-34.132813 34.132812-34.132813 18.851563 0 34.132813 15.28125 34.132813 34.132813zm0 0" fill="#ff9701"/><path d="m366.960938 221.871094c0 18.851562-15.285157 34.132812-34.132813 34.132812-18.851563 0-34.136719-15.28125-34.136719-34.132812 0-18.851563 15.285156-34.132813 34.136719-34.132813 18.847656 0 34.132813 15.28125 34.132813 34.132813zm0 0" fill="#ff9701"/><path d="m196.292969 221.871094c0 9.425781-7.640625 17.066406-17.066407 17.066406-9.425781 0-17.066406-7.640625-17.066406-17.066406 0-9.425782 7.640625-17.066406 17.066406-17.066406 9.425782 0 17.066407 7.640624 17.066407 17.066406zm0 0" fill="#37474f"/><path d="m349.894531 221.871094c0 9.425781-7.644531 17.066406-17.066406 17.066406-9.425781 0-17.070313-7.640625-17.070313-17.066406 0-9.425782 7.644532-17.066406 17.070313-17.066406 9.421875 0 17.066406 7.640624 17.066406 17.066406zm0 0" fill="#37474f"/><path d="m281.625 332.804688c0 14.140624-11.460938 25.601562-25.597656 25.601562-14.140625 0-25.601563-11.460938-25.601563-25.601562 0-14.136719 11.460938-25.601563 25.601563-25.601563 14.136718 0 25.597656 11.464844 25.597656 25.601563zm0 0" fill="#ac1457"/><path d="m170.691406 204.804688c0 9.425781-7.640625 17.066406-17.066406 17.066406s-17.066406-7.640625-17.066406-17.066406c0-9.425782 7.640625-17.066407 17.066406-17.066407s17.066406 7.640625 17.066406 17.066407zm0 0" fill="#fff"/><path d="m324.292969 204.804688c0 9.425781-7.640625 17.066406-17.066407 17.066406-9.425781 0-17.066406-7.640625-17.066406-17.066406 0-9.425782 7.640625-17.066407 17.066406-17.066407 9.425782 0 17.066407 7.640625 17.066407 17.066407zm0 0" fill="#fff"/><path d="m341.359375 25.605469h-71.363281l-5.785156-19.492188c-1.074219-3.625-4.402344-6.113281-8.183594-6.113281s-7.113282 2.488281-8.183594 6.113281l-5.785156 19.492188h-71.367188c-94.195312.089843-170.542968 76.410156-170.6640622 170.605469v184.507812c0 51.644531 19.7890622 75.511719 49.7304682 111.660156 4.835938 6.492188 11.03125 11.847656 18.152344 15.699219 5.761719 2.707031 12.066406 4.066406 18.429688 3.96875 3.238281-.019531 6.46875-.304687 9.660156-.851563 25.054688-3.996093 34.535156-21.785156 43.707031-38.988281l1.417969-2.648437c2.421875-4.597656 5.015625-9.121094 7.613281-13.652344 1.617188-2.851562 1.457031-6.378906-.410156-9.074219-1.871094-2.691406-5.117187-4.078125-8.355469-3.5625-1.125.203125-2.269531.308594-3.414062.316407-9.425782 0-17.066406-7.640626-17.066406-17.066407s7.640624-17.066406 17.066406-17.066406c6.746094-.050781 12.875 3.914063 15.589844 10.085937.359374 1.039063.917968 2 1.648437 2.824219l.128906.128907c.695313.785156 1.535157 1.433593 2.472657 1.910156l.113281.085937h.09375c1.136719.585938 2.394531.902344 3.675781.929688.390625-.050781.78125-.128907 1.160156-.230469.503906-.054688.996094-.15625 1.476563-.308594.464843-.148437.914062-.339844 1.339843-.570312.460938-.242188.898438-.53125 1.304688-.855469.320312-.230469.625-.480469.914062-.75.585938-.617187 1.078126-1.320313 1.460938-2.082031 2.292969-4.800782 5.316406-9.21875 8.96875-13.089844 4.488281-4.511719 7.625-10.191406 9.0625-16.390625 22.757812 6.613281 46.355469 9.890625 70.058594 9.734375 23.695312.160156 47.292968-3.117188 70.050781-9.726562 1.425781 6.21875 4.570313 11.910156 9.070313 16.433593 3.652343 3.878907 6.679687 8.304688 8.96875 13.117188 1.367187 3.128906 4.582031 5.042969 7.984374 4.753906 3.363282-.132813 6.335938-2.230469 7.585938-5.351563 2.578125-6.460937 8.851562-10.679687 15.804688-10.632812 9.425781 0 17.066406 7.640625 17.066406 17.066406 0 9.425782-7.640625 17.066406-17.066406 17.066406-1.144532-.007812-2.285157-.113281-3.414063-.316406-3.253906-.535156-6.523437.851563-8.402344 3.5625-1.875 2.710938-2.023437 6.261719-.378906 9.117188 2.5625 4.507812 5.191406 9.03125 7.683594 13.65625l1.378906 2.558594c9.175781 17.203124 18.65625 34.988281 43.660156 38.980468 3.207031.554688 6.453125.839844 9.710938.851563 6.371093.097656 12.679687-1.257813 18.445312-3.964844 7.101563-3.847656 13.277344-9.195313 18.101563-15.667969 29.960937-36.148437 49.75-60.015625 49.75-111.660156v-184.507812c-.125-94.195313-76.472656-170.515626-170.667969-170.605469zm-85.332031 12.917969 25.027344 84.292968c1.238281 4.285156.316406 8.902344-2.464844 12.382813-5.816406 6.292969-13.996094 9.871093-22.5625 9.871093-8.570313 0-16.75-3.578124-22.5625-9.871093-2.785156-3.484375-3.707032-8.105469-2.46875-12.390625zm-119.46875 353.878906c-17.023438.011718-31.433594 12.5625-33.78125 29.425781-2.351563 16.859375 8.082031 32.871094 24.457031 37.535156-.402344.734375-.796875 1.46875-1.171875 2.203125l-1.449219 2.652344c-9.386719 17.578125-15.4375 27.640625-31.378906 30.191406-6 1.292969-12.253906.714844-17.917969-1.65625-4.890625-2.835937-9.125-6.667968-12.433594-11.246094-28.722656-34.699218-44.84375-54.28125-45.703124-97.179687 0-.136719.074218-.246094.082031-.382813 1.921875-117.453124 33.84375-205.046874 92.726562-256.894531-20.914062 36.679688-32.3125 78.011719-33.160156 120.226563 0 65.996094 32.972656 114.855468 92.902344 138.417968-.632813 4.023438-2.59375 7.71875-5.574219 10.496094-1.269531 1.425782-2.773438 3.171875-4.378906 5.265625-6.316406-5.847656-14.613282-9.082031-23.21875-9.054687zm312.570312 89.097656c-3.300781 4.566406-7.527344 8.386719-12.402344 11.210938-5.6875 2.382812-11.96875 2.960937-17.996093 1.65625-15.886719-2.558594-21.964844-12.605469-31.324219-30.183594l-1.382812-2.558594c-.394532-.75-.792969-1.503906-1.203126-2.253906 13.546876-3.902344 23.296876-15.730469 24.546876-29.773438 1.25-14.042968-6.261719-27.40625-18.90625-33.640625-12.644532-6.234375-27.820313-4.050781-38.195313 5.488281-1.613281-2.113281-3.097656-3.769531-4.371094-5.210937-2.992187-2.78125-4.953125-6.492187-5.570312-10.53125 59.929687-23.578125 92.902343-72.429687 92.902343-138.425781-.851562-42.214844-12.25-83.546875-33.160156-120.226563 58.878906 51.839844 90.800782 139.433594 92.722656 256.894531 0 .136719.078126.246094.085938.382813-.863281 42.898437-16.980469 62.492187-45.746094 97.171875zm45.832032-227.3125c-21.421876-79.035156-62.808594-136.535156-122.753907-168.789062-14.53125-8.246094-30.308593-14.070313-46.710937-17.246094-4.664063-.671875-8.992188 2.566406-9.664063 7.230468-.671875 4.667969 2.566407 8.992188 7.230469 9.664063 13.875 2.859375 27.234375 7.796875 39.628906 14.652344 34.574219 41.546875 54.117188 93.542969 55.46875 147.578125 0 77.589844-47.789062 110.699218-87.894531 124.78125-23.898437 8.105468-49.003906 12.078125-74.238281 11.75-25.234375.324218-50.339844-3.648438-74.242188-11.75-40.105468-14.082032-87.890625-47.191406-87.890625-124.78125 1.347657-54.035156 20.890625-106.03125 55.464844-147.578125 12.378906-6.859375 25.726563-11.796875 39.585937-14.640625 4.667969-.667969 7.914063-4.988282 7.25-9.65625-.664062-4.667969-4.988281-7.914063-9.65625-7.25-16.398437 3.175781-32.171874 8.996094-46.703124 17.238281-59.9375 32.289063-101.324219 89.761719-122.742188 168.796875v-57.976562c.113281-84.773438 68.824219-153.460938 153.597656-153.539063h66.296875l-22.355469 75.273437c-2.820312 9.445313-.894531 19.671876 5.160157 27.449219 9.039062 10.625 22.285156 16.746094 36.234375 16.746094 13.945312 0 27.191406-6.121094 36.230468-16.746094 6.042969-7.78125 7.949219-18.003906 5.121094-27.441406l-22.316406-75.28125h66.296875c84.773437.078125 153.488281 68.765625 153.601563 153.539063zm0 0"/><path d="m247.492188 221.871094c0-37.703125-30.5625-68.265625-68.265626-68.265625-37.703124 0-68.265624 30.5625-68.265624 68.265625s30.5625 68.265625 68.265624 68.265625c37.683594-.039063 68.222657-30.578125 68.265626-68.265625zm-68.265626 51.199218c-28.277343 0-51.199218-22.921874-51.199218-51.199218s22.921875-51.199219 51.199218-51.199219c28.277344 0 51.199219 22.921875 51.199219 51.199219-.027343 28.265625-22.933593 51.171875-51.199219 51.199218zm0 0"/><path d="m264.558594 221.871094c0 37.703125 30.566406 68.265625 68.269531 68.265625 37.699219 0 68.265625-30.5625 68.265625-68.265625s-30.566406-68.265625-68.265625-68.265625c-37.6875.042969-68.226563 30.582031-68.269531 68.265625zm68.269531-51.199219c28.273437 0 51.199219 22.921875 51.199219 51.199219s-22.925782 51.199218-51.199219 51.199218c-28.277344 0-51.203125-22.921874-51.203125-51.199218.03125-28.265625 22.9375-51.171875 51.203125-51.199219zm0 0"/><path d="m179.226562 196.273438c-14.140624 0-25.601562 11.460937-25.601562 25.597656 0 14.140625 11.460938 25.601562 25.601562 25.601562 14.136719 0 25.601563-11.460937 25.601563-25.601562 0-14.136719-11.464844-25.597656-25.601563-25.597656zm0 34.132812c-4.714843 0-8.535156-3.820312-8.535156-8.535156 0-4.710938 3.820313-8.53125 8.535156-8.53125 4.710938 0 8.53125 3.820312 8.53125 8.53125 0 4.714844-3.820312 8.535156-8.53125 8.535156zm0 0"/><path d="m332.828125 247.472656c14.136719 0 25.597656-11.460937 25.597656-25.601562 0-14.136719-11.460937-25.597656-25.597656-25.597656-14.140625 0-25.601563 11.460937-25.601563 25.597656 0 14.140625 11.460938 25.601562 25.601563 25.601562zm0-34.132812c4.710937 0 8.53125 3.820312 8.53125 8.53125 0 4.714844-3.820313 8.535156-8.53125 8.535156-4.714844 0-8.535156-3.820312-8.535156-8.535156 0-4.710938 3.820312-8.53125 8.535156-8.53125zm0 0"/><path d="m256.027344 298.671875c-18.851563 0-34.132813 15.28125-34.132813 34.132813 0 18.851562 15.28125 34.132812 34.132813 34.132812 18.851562 0 34.132812-15.28125 34.132812-34.132812 0-18.851563-15.28125-34.132813-34.132812-34.132813zm0 51.199219c-9.425782 0-17.066406-7.640625-17.066406-17.066406 0-9.425782 7.640624-17.066407 17.066406-17.066407 9.425781 0 17.066406 7.640625 17.066406 17.066407 0 9.425781-7.640625 17.066406-17.066406 17.066406zm0 0"/></svg>