<svg height="504pt" viewBox="0 0 504.10983 504" width="504pt" xmlns="http://www.w3.org/2000/svg"><path d="m495.679688 302.21875c0 134.464844-108.945313 193.050781-243.410157 193.050781-2.855469 0-5.625 0-8.394531-.085937-130.601562-2.433594-235.015625-61.355469-235.015625-192.964844.59375-41.808594 9.644531-83.066406 26.609375-121.285156l111.632812-139.078125c28.703126-19.523438 62.128907-30.976563 96.773438-33.15625 2.769531-.167969 5.625-.25 8.394531-.25 37.519531.523437 74.046875 12.117187 105 33.320312l111.632813 138.746094c17.046875 38.34375 26.15625 79.742187 26.777344 121.703125zm0 0" fill="#1566bf"/><path d="m470.5 302.21875c0 131.609375-102.550781 190.53125-230.820312 192.964844-128.269532-2.433594-230.820313-61.355469-230.820313-192.964844.578125-41.761719 9.457031-82.992188 26.128906-121.285156l109.644531-139.078125c28.078126-19.484375 60.941407-30.949219 95.046876-33.15625 34.035156 2.183593 66.832031 13.617187 94.84375 33.070312l109.679687 138.746094c16.761719 38.417969 25.699219 79.792969 26.296875 121.703125zm0 0" fill="#2295f2"/><path d="m185.121094 75.597656-47.171875 50.273438c-22.074219-58.5-83.261719-95.515625-128-117.421875 133.457031.335937 175.171875 67.148437 175.171875 67.148437zm0 0" fill="#2295f2"/><path d="m137.949219 125.871094-67.144531 71.679687c-3.210938 3.519531-7.78125 5.488281-12.542969 5.40625s-9.257813-2.207031-12.34375-5.832031c-44.109375-54.648438-37.058594-188.675781-37.058594-188.675781h1.089844c44.738281 21.90625 105.925781 58.921875 128 117.421875zm0 0" fill="#e81e63"/><path d="m494.589844 8.449219c-44.824219 21.90625-106.179688 59.089843-128.167969 117.757812l-47.425781-50.609375s41.800781-66.898437 175.59375-67.148437zm0 0" fill="#2295f2"/><path d="m327.808594 142.742188c-18.558594 17.519531-41.949219 29.070312-67.144532 33.15625-2.769531.25-5.539062.417968-8.394531.417968s-5.625-.167968-8.394531-.417968c-25.195312-4.085938-48.585938-15.636719-67.148438-33.15625 18.5625-17.519532 41.953126-29.066407 67.148438-33.152344 2.769531-.253906 5.539062-.421875 8.394531-.421875s5.625.167969 8.394531.421875c25.195313 4.085937 48.585938 15.632812 67.144532 33.152344zm0 0" fill="#fff"/><path d="m294.238281 142.742188c0-18.542969-18.789062-33.574219-41.96875-33.574219-23.179687 0-41.96875 15.03125-41.96875 33.574219 0 18.542968 18.789063 33.574218 41.96875 33.574218 23.179688 0 41.96875-15.03125 41.96875-33.574218zm0 0" fill="#ff9701"/><path d="m458.246094 197.132812c-2.867188 3.375-6.96875 5.460938-11.382813 5.792969-4.417969.332031-8.78125-1.121093-12.121093-4.03125-.515626-.402343-.992188-.851562-1.425782-1.34375l-66.894531-71.34375c18.714844-50.023437 66.054687-84.351562 107.351563-107.015625 7.21875-3.945312 14.183593-7.46875 20.816406-10.742187h.667968s7.050782 134.042969-37.011718 188.683593zm0 0" fill="#ac1457"/><path d="m436.421875 197.132812c-.496094.648438-1.058594 1.238282-1.679687 1.761719-.515626-.402343-.992188-.851562-1.425782-1.34375l-66.894531-71.34375c18.714844-50.023437 66.054687-84.351562 107.351563-107.015625.585937 32.902344-.839844 132.699219-37.351563 177.941406zm0 0" fill="#e81e63"/><path d="m319.417969 335.875c0 14.019531-17.375 30.972656-41.96875 38.191406-5.449219 1.628906-11.042969 2.726563-16.703125 3.273438-2.769532.253906-5.621094.421875-8.476563.421875s-5.707031-.167969-8.476562-.421875c-5.660157-.546875-11.253907-1.644532-16.703125-3.273438-24.59375-7.21875-41.96875-24.171875-41.96875-38.191406 0-18.546875 30.050781-16.785156 67.148437-16.785156 37.097657 0 67.148438-1.761719 67.148438 16.785156zm0 0" fill="#e81e63"/><path d="m239.59375 212.660156c-3.660156 3.089844-7.53125 5.921875-11.582031 8.476563-3.074219 1.964843-6.269531 3.730469-9.566407 5.289062-21.132812 10.972657-46.164062 11.5-67.738281 1.425781-7.699219-3.425781-14.945312-7.792968-21.570312-13.007812-1.75 2.617188-3.292969 5.367188-4.617188 8.226562-4.320312 8.980469-6.558593 18.820313-6.546875 28.789063-.011718 33.847656 25.171875 62.410156 58.753906 66.644531 2.785157.335938 5.589844.503906 8.394532.5 25.199218.023438 48.285156-14.078125 59.773437-36.503906 11.484375-22.429688 9.441407-49.402344-5.300781-69.839844zm0 0" fill="#fff"/><path d="m375.402344 214.84375c-3.871094 3.007812-7.9375 5.753906-12.171875 8.226562-14.949219 9.246094-32.539063 13.289063-50.023438 11.496094-17.875-2.453125-34.648437-10.066406-48.261719-21.90625-1.960937 2.683594-3.699218 5.515625-5.207031 8.476563-4.933593 9.488281-7.496093 20.027343-7.46875 30.722656-.011719 33.847656 25.171875 62.410156 58.753907 66.644531 2.785156.335938 5.589843.503906 8.394531.5 24.71875.015625 47.445312-13.5625 59.148437-35.335937 11.699219-21.773438 10.484375-48.214844-3.164062-68.824219zm0 0" fill="#fff"/><path d="m227.089844 251.859375c.007812 18.085937-11.574219 34.140625-28.738282 39.839844-17.164062 5.703125-36.046874-.234375-46.863281-14.726563-10.816406-14.496094-11.132812-34.289062-.78125-49.121094 21.574219 10.074219 46.605469 9.546876 67.738281-1.425781 5.628907 7.28125 8.671876 16.230469 8.644532 25.433594zm0 0" fill="#ff9701"/><path d="m277.449219 252.109375c-.007813 18.085937 11.574219 34.140625 28.738281 39.84375 17.164062 5.699219 36.046875-.234375 46.863281-14.730469 10.816407-14.492187 11.132813-34.289062.78125-49.117187-21.574219 10.074219-46.605469 9.546875-67.738281-1.425781-5.628906 7.277343-8.671875 16.226562-8.644531 25.429687zm0 0" fill="#ff9701"/><path d="m201.910156 251.859375c0 9.269531-7.515625 16.785156-16.789062 16.785156-9.269532 0-16.785156-7.515625-16.785156-16.785156 0-9.273437 7.515624-16.789063 16.785156-16.789063 9.273437 0 16.789062 7.515626 16.789062 16.789063zm0 0" fill="#37474f"/><path d="m336.203125 251.859375c0 9.269531-7.515625 16.785156-16.785156 16.785156-9.273438 0-16.789063-7.515625-16.789063-16.785156 0-9.273437 7.515625-16.789063 16.789063-16.789063 9.269531 0 16.785156 7.515626 16.785156 16.789063zm0 0" fill="#37474f"/><g fill="#fff"><path d="m235.484375 130.152344c0 6.953125-5.636719 12.589844-12.59375 12.589844-6.953125 0-12.589844-5.636719-12.589844-12.589844s5.636719-12.589844 12.589844-12.589844c6.957031 0 12.59375 5.636719 12.59375 12.589844zm0 0"/><path d="m185.121094 277.039062c0 9.269532-7.515625 16.785157-16.785156 16.785157-9.273438 0-16.789063-7.515625-16.789063-16.785157 0-9.273437 7.515625-16.789062 16.789063-16.789062 9.269531 0 16.785156 7.515625 16.785156 16.789062zm0 0"/><path d="m319.417969 277.039062c0 9.269532-7.515625 16.785157-16.789063 16.785157-9.269531 0-16.785156-7.515625-16.785156-16.785157 0-9.273437 7.515625-16.789062 16.785156-16.789062 9.273438 0 16.789063 7.515625 16.789063 16.789062zm0 0"/></g><path d="m503.644531 8.003906c-.238281-4.460937-3.925781-7.957031-8.394531-7.9492185h-1.183594c-64.550781.2109375-108.390625 15.4765625-136.878906 31.8281245-31.230469-20.382812-67.628906-31.421874-104.917969-31.8281245-37.375.4335935-73.847656 11.5195315-105.144531 31.9531245-28.402344-16.367187-72.175781-31.667968-136.644531-31.9531245h-.167969c-.488281 0-.957031 0-1.453125 0-4.46875-.0078125-8.15625 3.4882815-8.394531 7.9492185-.285156 5.429688-5.3125 110.339844 25.777344 173.324219-16.457032 38.210937-25.214844 79.292969-25.777344 120.890625-.160156 21.515625 2.933594 42.929688 9.175781 63.523438-2.257813 1.980468-4.53125 3.902343-6.714844 6.082031-2.183593 2.109375-3.058593 5.230469-2.289062 8.164062.769531 2.933594 3.058593 5.226563 5.996093 5.996094 2.933594.765625 6.054688-.109375 8.160157-2.289063.351562-.355468.730469-.628906 1.082031-.976562 5.824219 13.8125 13.441406 26.796875 22.664062 38.613281-15.539062 18.28125-25.753906 40.480469-29.535156 64.175781-.757812 4.570313 2.328125 8.890626 6.898438 9.652344.445312.074219.898437.109375 1.351562.109375 4.097656-.007812 7.59375-2.972656 8.265625-7.019531 3.203125-19.828125 11.558594-38.472656 24.222657-54.0625 42.882812 44.765625 112.273437 69.472656 202.527343 69.472656 90.253907 0 159.675781-24.726562 202.550781-69.503906 12.652344 15.609375 20.992188 34.257812 24.191407 54.09375.671875 4.046875 4.171875 7.015625 8.273437 7.019531.464844 0 .929688-.039062 1.386719-.117187 4.570313-.765625 7.65625-5.085938 6.898437-9.652344-3.78125-23.695312-14-45.894531-29.535156-64.179688 9.21875-11.816406 16.839844-24.796874 22.660156-38.609374.351563.34375.730469.621093 1.082032.976562 3.292968 3.179688 8.53125 3.132812 11.765625-.105469 3.238281-3.234375 3.285156-8.472656.105469-11.765625-2.183594-2.179687-4.457032-4.105468-6.714844-6.074218 6.230468-20.59375 9.308594-42.011719 9.140625-63.523438-.589844-41.773438-9.417969-83.019531-25.980469-121.378906 30.832031-63.023438 25.835938-167.414063 25.550781-172.835938zm-41.648437 168.019532c-.390625.535156-.714844 1.117187-.964844 1.730468-4.996094 9.910156-12.167969 18.566406-20.984375 25.3125-2.566406 1.691406-4.007813 4.652344-3.75 7.714844.261719 3.066406 2.171875 5.746094 4.988281 6.980469 2.816406 1.238281 6.082032.835937 8.515625-1.046875 6.753907-4.96875 12.667969-10.984375 17.515625-17.820313 12.785156 32.96875 19.550782 67.964844 19.96875 103.324219.105469 17.664062-2.183594 35.257812-6.796875 52.308594-33.355469-20.738282-72.484375-30.230469-111.632812-27.078125-2.980469.332031-5.558594 2.226562-6.765625 4.972656-1.203125 2.746094-.851563 5.925781.925781 8.34375 1.773437 2.414063 4.703125 3.699219 7.683594 3.371094.640625-.09375 58.4375-5.875 104.230469 27.136719-5.269532 13.367187-12.371094 25.945312-21.089844 37.367187-28.367188-24.488281-62.78125-40.921875-99.65625-47.582031-4.589844-.660156-8.84375 2.527344-9.503906 7.117187-.65625 4.589844 2.53125 8.84375 7.121093 9.5 33.804688 6.042969 65.332031 21.160157 91.21875 43.730469-39.871093 42.144531-105.28125 65.46875-190.75 65.46875s-150.832031-23.308594-190.707031-65.46875c25.894531-22.535156 57.402344-37.644531 91.1875-43.730469 4.585938-.660156 7.773438-4.917969 7.113281-9.503906-.660156-4.589844-4.917969-7.777344-9.507812-7.113281-36.875 6.660156-71.289063 23.09375-99.65625 47.582031-8.714844-11.421875-15.8125-23.996094-21.082031-37.359375 45.691406-32.886719 103.574218-27.210938 104.230468-27.144531 4.605469.507812 8.753906-2.816407 9.261719-7.425781.507813-4.605469-2.816406-8.753907-7.425781-9.261719-39.148438-3.164063-78.28125 6.324219-111.632813 27.070312-4.613281-17.046875-6.902343-34.640625-6.796875-52.300781.402344-35.226562 7.128906-70.09375 19.851563-102.945312 4.792969 6.683593 10.609375 12.570312 17.238281 17.441406 3.765625 2.480468 8.820312 1.539062 11.445312-2.128906 2.621094-3.671876 1.875-8.757813-1.691406-11.519532-8.691406-6.628906-15.785156-15.125-20.757812-24.859375-.285156-.730469-.667969-1.417969-1.140625-2.039062-24.105469-46.257813-25.683594-124.519531-25.289063-154.777344 68.40625 35.421875 107.109375 75.808594 118.0625 123.242187.878906 3.808594 4.273438 6.507813 8.183594 6.503907.636719 0 1.273438-.070313 1.894531-.210938 2.171875-.5 4.054688-1.839843 5.234375-3.730469 1.183594-1.886718 1.5625-4.167968 1.0625-6.339843-10.820312-46.792969-45.039062-86.855469-104.046875-121.804688 97.214844 10.84375 130.359375 60.429688 130.703125 60.992188 2.457032 3.941406 7.644532 5.144531 11.582032 2.6875 3.941406-2.457031 5.144531-7.644531 2.6875-11.582031-8.023438-11.355469-18.007813-21.1875-29.488282-29.035157 54.90625-33.382812 123.824219-33.4375 178.78125-.140625-11.566406 7.867188-21.628906 17.75-29.703125 29.175782-2.464843 3.9375-1.269531 9.132812 2.667969 11.597656 3.941406 2.46875 9.132812 1.273437 11.601562-2.667969.359376-.570313 33.613282-50.359375 131.238282-61.085937-59.054688 34.964843-93.351563 75.070312-104.171875 121.863281-.5 2.171875-.121094 4.453125 1.0625 6.339843 1.179687 1.890626 3.0625 3.230469 5.234375 3.730469.621094.140625 1.253906.210938 1.886718.210938 3.910157 0 7.296876-2.699219 8.175782-6.503907 10.914062-47.339843 49.523437-87.660156 117.644531-123.03125.394531 30.382813-1.191406 108.25-25.207031 154.421876zm0 0"/><path d="m382.175781 209.976562c-.058593-.078124-.066406-.179687-.125-.261718-.320312-.332032-.667969-.632813-1.042969-.898438-.382812-.40625-.800781-.777344-1.257812-1.097656-.472656-.253906-.964844-.457031-1.476562-.605469-.488282-.21875-.992188-.386719-1.511719-.503906-.535157-.054687-1.070313-.054687-1.605469 0-.527344-.015625-1.058594.015625-1.585938.101563-.539062.15625-1.0625.371093-1.558593.636718-.4375.136719-.863281.3125-1.269531.519532-.082032.058593-.125.152343-.199219.210937-.078125.058594-.1875.066406-.261719.125-44.367188 34.179687-81.660156 13.429687-99.933594-1.953125-.082031-.070312-.183594-.085938-.265625-.152344-.085937-.066406-.128906-.160156-.210937-.21875-.402344-.230468-.824219-.421875-1.257813-.578125-.472656-.28125-.96875-.507812-1.488281-.679687-.550781-.121094-1.113281-.183594-1.679688-.1875-.496093-.058594-1-.074219-1.5-.046875-.546874.097656-1.085937.253906-1.605468.460937-.492188.125-.972656.296875-1.433594.519532-.476562.304687-.921875.660156-1.324219 1.058593-.378906.246094-.730469.527344-1.058593.839844-.066407.074219-.085938.183594-.152344.265625-.066406.085938-.160156.128906-.226563.210938-2.195312 3.050781-4.160156 6.257812-5.875 9.601562-1.714843-3.34375-3.679687-6.550781-5.875-9.601562-.066406-.082032-.160156-.125-.226562-.210938-.066407-.082031-.085938-.191406-.152344-.265625-.335937-.3125-.703125-.59375-1.089844-.839844-.394531-.375-.820312-.710937-1.277343-1.007812-.480469-.238281-.988282-.421875-1.511719-.554688-.496094-.195312-1.007813-.34375-1.535157-.445312-.511718-.023438-1.023437-.007813-1.535156.050781-.5625.003906-1.125.066406-1.679687.183594-.515625.171875-1.015625.402344-1.484375.679687-.4375.15625-.859375.351563-1.257813.582031-.085937.058594-.128906.15625-.203125.214844-.074218.0625-.191406.085938-.277344.152344-18.246093 15.359375-55.53125 36.09375-99.90625 1.929688-.074218-.066407-.175781-.074219-.261718-.125-.082032-.050782-.117188-.152344-.199219-.210938-.398437-.203125-.816406-.375-1.242187-.511719-.507813-.269531-1.042969-.488281-1.59375-.652343-.511719-.078126-1.023438-.109376-1.539063-.09375-.558594-.054688-1.121094-.054688-1.675781 0-.515625.117187-1.015625.28125-1.496094.496093-.511719.15625-1.011719.363281-1.484375.613281-.460937.328126-.886719.699219-1.277344 1.105469-.367187.269531-.707031.566407-1.023437.890625-.058594.085938-.066406.183594-.125.261719-.058594.074219-.152344.125-.210938.207031-14.722656 22.199219-16.652344 50.511719-5.078125 74.5 11.578125 23.988282 34.945313 40.097656 61.480469 42.378906-1.203125 2.765626-1.820312 5.75-1.804688 8.765626 0 21.710937 28.742188 46.699218 67.148438 49.949218v29.746094c-5.875 6.066406-23.8125 22.550781-41.378906 20.890625-10.140625-.972656-19.179688-8.300781-26.859375-21.757813-1.449219-2.679687-4.234375-4.363281-7.28125-4.398437-3.042969-.039063-5.871094 1.574219-7.386719 4.21875-1.511719 2.644531-1.476562 5.898437.097656 8.507813 10.566406 18.464843 23.988282 28.636718 39.902344 30.148437 1.359375.125 2.695312.195313 4.039062.195313 20.140626 0 38.128907-13.960938 47.277344-22.539063 9.132813 8.554687 27.113282 22.503906 47.265625 22.503906 1.332031 0 2.683594-.066406 4.035157-.191406 15.949218-1.511719 29.378906-11.660156 39.902343-30.152344 1.574219-2.605469 1.613281-5.863281.097657-8.503906-1.515626-2.644531-4.339844-4.261719-7.386719-4.222656-3.046875.039062-5.832031 1.722656-7.28125 4.402343-7.695313 13.429688-16.734375 20.78125-26.859375 21.753907-17.625 1.679687-35.476563-14.820313-41.378906-20.890625v-29.710938c38.410156-3.25 67.148437-28.238281 67.148437-49.949218.007813-3.019532-.613281-6.007813-1.832031-8.773438 26.53125-2.292969 49.890625-18.40625 61.457031-42.390625 11.570313-23.988281 9.636719-52.296875-5.085937-74.488281 0-.082032-.132813-.125-.191407-.207032zm-62.757812 33.488282c4.632812 0 8.390625 3.757812 8.390625 8.394531 0 4.632813-3.757813 8.390625-8.390625 8.390625-4.636719 0-8.394531-3.757812-8.394531-8.390625 0-4.636719 3.757812-8.394531 8.394531-8.394531zm-134.296875 0c4.636718 0 8.394531 3.757812 8.394531 8.394531 0 4.632813-3.757813 8.390625-8.394531 8.390625-4.632813 0-8.394532-3.757812-8.394532-8.390625 0-4.636719 3.761719-8.394531 8.394532-8.394531zm-58.753906 8.394531c-.007813-8.558594 1.867187-17.015625 5.488281-24.769531 9.367187 6.3125 19.734375 10.996094 30.664062 13.855468-1.679687 3.394532-2.5625 7.128907-2.578125 10.914063 0 13.90625 11.273438 25.179687 25.179688 25.179687s25.179687-11.273437 25.179687-25.179687c-.027343-4.214844-1.128906-8.355469-3.195312-12.027344 10.808593-3.292969 21.015625-8.316406 30.214843-14.875 4.320313 8.308594 6.570313 17.535157 6.554688 26.902344 0 32.449219-26.304688 58.753906-58.753906 58.753906-32.449219 0-58.753906-26.304687-58.753906-58.753906zm125.902343 34.410156c4.832031 9.402344 11.574219 17.695313 19.792969 24.34375-3.542969 0-7.1875 0-10.914062 0h-17.691407c-3.769531 0-7.402343 0-10.914062 0 8.195312-6.65625 14.914062-14.945312 19.726562-24.34375zm25.179688 78.96875v-4.265625c0-4.636718-3.757813-8.394531-8.394531-8.394531-4.632813 0-8.390626 3.757813-8.390626 8.394531v7.90625c-5.578124.648438-11.210937.648438-16.789062 0v-7.90625c0-4.636718-3.757812-8.394531-8.390625-8.394531-4.636719 0-8.394531 3.757813-8.394531 8.394531v4.304688c-20.53125-6.855469-33.574219-20.8125-33.574219-29.441406-.128906-1.113282.257813-2.222657 1.050781-3.015626 4.910156-4.890624 22.449219-5.421874 41.058594-5.421874h25.558594c21.300781-.066407 43.210937-.175782 48.789062 5.40625.792969.789062 1.179688 1.902343 1.050782 3.011718 0 8.648438-13.042969 22.636719-33.574219 29.460938zm41.96875-54.625c-32.433594-.042969-58.714844-26.324219-58.753907-58.753906-.007812-9.351563 2.246094-18.566406 6.5625-26.859375 9.203126 6.558594 19.40625 11.582031 30.214844 14.871094-2.0625 3.660156-3.164062 7.785156-3.203125 11.988281 0 13.90625 11.273438 25.179687 25.179688 25.179687s25.179687-11.273437 25.179687-25.179687c-.015625-3.785156-.898437-7.519531-2.578125-10.914063 10.929688-2.871093 21.296875-7.5625 30.664063-13.882812 8.46875 18.195312 7.0625 39.457031-3.726563 56.378906-10.789062 16.925782-29.46875 27.171875-49.539062 27.171875zm0 0"/><path d="m252.269531 184.710938c44.660157 0 79.972657-34.539063 81.417969-36.007813 1.585938-1.578125 2.480469-3.722656 2.480469-5.960937 0-2.238282-.894531-4.382813-2.480469-5.957032-1.445312-1.46875-36.757812-36.007812-81.417969-36.007812-44.660156 0-79.972656 34.539062-81.417969 36.007812-1.585937 1.574219-2.480468 3.71875-2.480468 5.957032 0 2.238281.894531 4.382812 2.480468 5.960937 1.445313 1.46875 36.757813 36.007813 81.417969 36.007813zm8.394531-17.382813v-49.167969c19.96875 3.226563 38.71875 11.710938 54.320313 24.582032-15.601563 12.875-34.351563 21.359374-54.320313 24.585937zm-16.789062-49.167969v49.167969c-19.96875-3.226563-38.71875-11.710937-54.320312-24.585937 15.601562-12.871094 34.351562-21.355469 54.320312-24.582032zm0 0"/></svg>