<svg height="512pt" viewBox="0 0 512 512.03163" width="512pt" xmlns="http://www.w3.org/2000/svg"><path d="m485.390625 125.046875c-8.457031 14.886719-19.660156 28.03125-33.023437 38.738281l-12.542969-11.859375-14.421875-13.652343c-.597656-.515626-1.195313-1.027344-1.707032-1.539063-5.25-5.546875-6.191406-13.902344-2.304687-20.480469 13.554687-24.363281 32.859375-45.046875 56.234375-60.242187 7.519531-4.597657 15.535156-8.316407 23.894531-11.09375h.085938c4.523437 27.792969-1.242188 56.28125-16.214844 80.128906zm0 0" fill="#bea784"/><path d="m459.792969 125.046875c-5.601563 9.695313-12.300781 18.714844-19.96875 26.878906l-14.421875-13.652343c-.597656-.515626-1.195313-1.027344-1.707032-1.539063-5.25-5.546875-6.191406-13.902344-2.304687-20.480469 13.554687-24.363281 32.859375-45.046875 56.234375-60.242187.988281 24.265625-5.21875 48.28125-17.832031 69.035156zm0 0" fill="#ffebb2"/><path d="m421.390625 116.253906c-2.871094 6.761719-2 14.53125 2.304687 20.480469l-18.882812-11.765625-33.28125-37.546875c2.773438-7.664063 6.226562-15.058594 10.324219-22.101563 25.941406-44.886718 70.144531-67.925781 98.730469-51.371093 11.066406 6.875 18.671874 18.144531 20.910156 30.976562-24.382813 8.097657-53.820313 27.382813-80.105469 71.328125zm0 0" fill="#009587"/><path d="m116.835938 114.035156-40.019532 32.683594c-8.835937-4.667969-17.15625-10.242188-24.832031-16.640625-31.660156-26.367187-47.703125-61.695313-42.410156-87.804687 39.554687 5.054687 75.253906 26.242187 98.644531 58.535156 3.128906 4.238281 6.007812 8.652344 8.617188 13.226562zm0 0" fill="#ffebb2"/><path d="m161.210938 77.683594-44.375 36.351562c-2.609376-4.574218-5.488282-8.988281-8.617188-13.226562-23.390625-32.292969-59.089844-53.480469-98.644531-58.535156 1.261719-6.683594 4.199219-12.9375 8.53125-18.179688 21.078125-25.34375 70.488281-19.027344 110.335937 14.167969 13.351563 10.914062 24.480469 24.300781 32.769532 39.421875zm0 0" fill="#009587"/><path d="m503.484375 292.296875c0 116.652344-110.765625 211.203125-247.46875 211.203125-2.902344 0-5.71875 0-8.53125-.171875-132.78125-3.839844-238.933594-96.855469-238.933594-211.03125.773438-56.082031 25.644531-109.117187 68.265625-145.578125 6.957032-6.292969 14.3125-12.136719 22.015625-17.492188l95.574219-41.472656c17.449219-3.824218 35.21875-6.023437 53.078125-6.570312 2.8125-.085938 5.628906-.085938 8.53125-.085938 20.71875-.019531 41.375 2.210938 61.609375 6.65625l84.15625 29.988282 23.621094 20.53125c9.65625 7.769531 18.671875 16.300781 26.964844 25.511718 32.476562 34.960938 50.707031 80.796875 51.117187 128.511719zm0 0" fill="#00695c"/><path d="m477.882812 292.296875c0 114.175781-104.261718 207.191406-234.667968 211.03125-130.40625-3.839844-234.664063-96.855469-234.664063-211.03125.652344-55.847656 25.03125-108.777344 67.042969-145.578125 6.828125-6.285156 14.050781-12.128906 21.625-17.492188l93.867188-41.472656c17.132812-3.824218 34.585937-6.023437 52.128906-6.570312 17.542968.558594 34.996094 2.757812 52.132812 6.570312l105.8125 50.519532c9.484375 7.78125 18.332032 16.3125 26.453125 25.511718 32.011719 35.183594 49.914063 80.945313 50.269531 128.511719zm0 0" fill="#009587"/><path d="m203.109375 99.625-10.238281-13.925781c-6.503906-8.925781-18.027344-12.628907-28.511719-9.167969-41.085937 12.410156-71.414063 47.285156-78.003906 89.695312-.421875 1.988282.613281 4 2.480469 4.804688 1.867187.808594 4.042968.1875 5.199218-1.484375 15.359375-21.332031 49.496094-58.027344 102.027344-56.390625 3.226562.054688 6.210938-1.722656 7.703125-4.589844 1.488281-2.863281 1.238281-6.324218-.65625-8.941406zm0 0" fill="#00695c"/><path d="m308.921875 99.625 10.242187-13.925781c6.5-8.925781 18.023438-12.628907 28.507813-9.167969 41.085937 12.410156 71.414063 47.285156 78.003906 89.695312.421875 1.988282-.613281 4-2.480469 4.804688-1.867187.808594-4.042968.1875-5.199218-1.484375-15.359375-21.332031-49.492188-58.027344-102.023438-56.390625-3.230468.054688-6.210937-1.722656-7.703125-4.589844-1.492187-2.863281-1.238281-6.324218.652344-8.941406zm0 0" fill="#00695c"/><path d="m217.273438 170.699219c-2.304688 2.644531-4.691407 5.117187-7.082032 7.507812-3.074218 3.164063-6.320312 6.15625-9.726562 8.960938-8.3125 7.011719-17.453125 12.972656-27.222656 17.75-8.273438 4.03125-16.976563 7.121093-25.941407 9.214843l-.085937.085938c-10.589844 2.539062-21.449219 3.769531-32.339844 3.667969-2.644531 0-5.207031-.085938-7.765625-.253907-5.980469-.335937-11.933594-1.019531-17.835937-2.050781-.210938.644531-.378907 1.300781-.511719 1.964844-2.273438 7.496094-3.421875 15.289063-3.414063 23.125.40625 43.289063 33.519532 79.242187 76.628906 83.199219h.34375c2.730469.257812 5.546876.425781 8.363282.425781 22.40625.230469 43.984375-8.453125 59.988281-24.136719 16-15.683594 25.117187-37.082031 25.34375-59.488281-.089844-28.417969-14.703125-54.816406-38.742187-69.972656zm0 0" fill="#fff"/><path d="m422.757812 215.582031c-5.480468.957031-11.003906 1.613281-16.554687 1.964844-6.105469.457031-12.238281.484375-18.347656.085937-7.765625-.46875-15.472657-1.613281-23.039063-3.414062l-.085937-.085938c-8.964844-2.09375-17.664063-5.183593-25.941407-9.214843-16.828124-8.332031-31.804687-19.972657-44.03125-34.21875-3.507812 2.253906-6.847656 4.761719-9.984374 7.507812-18.230469 15.636719-28.734376 38.445313-28.757813 62.464844.40625 43.289063 33.519531 79.242187 76.628906 83.199219h.34375c2.730469.257812 5.542969.425781 8.359375.425781 22.40625.230469 43.984375-8.453125 59.988282-24.136719 16.003906-15.683594 25.121093-37.082031 25.347656-59.488281.011718-8.515625-1.3125-16.984375-3.925782-25.089844zm0 0" fill="#fff"/><path d="m230.414062 238.964844c0 32.988281-26.742187 59.734375-59.730468 59.734375-32.992188 0-59.734375-26.746094-59.734375-59.734375-.015625-7.207032 1.3125-14.359375 3.925781-21.078125 10.890625.101562 21.75-1.128907 32.339844-3.667969l.085937-.085938c8.964844-2.09375 17.667969-5.183593 25.941407-9.214843 9.769531-4.777344 18.910156-10.738281 27.222656-17.75 18.5625 10.628906 30 30.402343 29.949218 51.796875zm0 0" fill="#00bbd3"/><path d="m281.617188 238.964844c0 32.988281 26.742187 59.734375 59.730468 59.734375 32.992188 0 59.734375-26.746094 59.734375-59.734375.019531-7.207032-1.3125-14.359375-3.925781-21.078125-10.890625.101562-21.75-1.128907-32.339844-3.667969l-.085937-.085938c-8.964844-2.09375-17.664063-5.183593-25.941407-9.214843-9.769531-4.777344-18.910156-10.738281-27.222656-17.75-18.5625 10.628906-29.996094 30.402343-29.949218 51.796875zm0 0" fill="#00bbd3"/><path d="m204.816406 238.964844c.019532 15.570312-10.503906 29.179687-25.574218 33.082031-15.074219 3.90625-30.875-2.882813-38.417969-16.503906-7.542969-13.621094-4.914063-30.621094 6.390625-41.324219l.085937-.085938c8.964844-2.09375 17.667969-5.183593 25.941407-9.214843 17.8125 1.339843 31.578124 16.183593 31.574218 34.046875zm0 0" fill="#37474f"/><path d="m375.484375 238.964844c-.007813 18.515625-14.777344 33.652344-33.289063 34.113281-18.511718.457031-34.011718-13.925781-34.9375-32.421875-.925781-18.492188 13.066407-34.351562 31.53125-35.738281 8.277344 4.03125 16.976563 7.121093 25.941407 9.214843l.085937.085938c6.808594 6.429688 10.667969 15.378906 10.667969 24.746094zm0 0" fill="#37474f"/><path d="m230.414062 341.363281c14.140626 0 25.601563 11.464844 25.601563 25.601563v8.535156h-51.199219v-8.535156c0-14.136719 11.460938-25.601563 25.597656-25.601563zm0 0" fill="#ffebb2"/><path d="m281.617188 341.363281c14.136718 0 25.597656 11.464844 25.597656 25.601563v8.535156h-51.199219v-8.535156c0-14.136719 11.460937-25.601563 25.601563-25.601563zm0 0" fill="#ffebb2"/><path d="m153.617188 268.832031c0 11.78125-9.550782 21.332031-21.335938 21.332031-11.78125 0-21.332031-9.550781-21.332031-21.332031s9.550781-21.332031 21.332031-21.332031c11.785156 0 21.335938 9.550781 21.335938 21.332031zm0 0" fill="#fff"/><path d="m324.28125 268.832031c0 11.78125-9.550781 21.332031-21.332031 21.332031s-21.332031-9.550781-21.332031-21.332031 9.550781-21.332031 21.332031-21.332031 21.332031 9.550781 21.332031 21.332031zm0 0" fill="#fff"/><path d="m492.78125 129.3125c16.539062-28.613281 22.945312-60.867188 17.144531-86.296875-.097656-.40625-.21875-.808594-.367187-1.195313-2.917969-14.691406-11.867188-27.484374-24.671875-35.261718-16.441407-9.53125-37.253907-8.644532-58.570313 2.457031-21.800781 12.167969-39.753906 30.203125-51.824218 52.054687-2.652344 4.648438-5.054688 9.433594-7.203126 14.335938-5.472656-2.664062-11.109374-4.980469-16.878906-6.929688-12.972656-4.351562-27.285156-.410156-36.207031 9.96875-38.417969-7.628906-77.964844-7.628906-116.382813 0-8.097656-9.355468-20.675781-13.511718-32.753906-10.820312-8.355468-13.578125-18.886718-25.683594-31.171875-35.839844-26.496093-22.160156-58.171875-33.9375-84.871093-31.445312-14.441407.789062-27.949219 7.382812-37.453126 18.285156-5.257812 6.324219-8.824218 13.878906-10.359374 21.957031 0 .171875-.042969.351563-.078126.519531-5.707031 29.832032 12.460938 68.15625 45.40625 95.546876 5.152344 4.207031 10.566407 8.078124 16.214844 11.589843-39.574218 37.53125-62.21875 89.519531-62.738281 144.058594 0 121.15625 114.839844 219.734375 256 219.734375s256-98.578125 256-219.734375c-.261719-46.851563-17.203125-92.078125-47.785156-127.570313 11.296875-10.253906 20.929687-22.199218 28.550781-35.414062zm-14.78125-8.535156c-6.71875 11.667968-15.207031 22.222656-25.164062 31.285156-6.9375-7.28125-14.324219-14.121094-22.117188-20.480469-3.316406-2.636719-4.171875-7.316406-2.003906-10.957031 18.773437-31.328125 40.957031-52.710938 66.011718-63.863281.8125 22.515625-5.003906 44.773437-16.726562 64.015625zm-88.746094-51.199219c10.449219-19.03125 26.011719-34.765625 44.929688-45.421875 15.964844-8.3125 30.949218-9.328125 42.15625-2.816406 6.949218 4.234375 12.183594 10.785156 14.777344 18.5-29.746094 12.175781-55.679688 36.265625-77.0625 72.019531-.300782.511719-.488282 1.058594-.753907 1.582031-8.460937-11.667968-18.996093-21.679687-31.078125-29.535156 2.054688-4.917969 4.410156-9.703125 7.050782-14.328125zm-44.371094 15.035156c31.578126 9.707031 56.726563 33.746094 67.847657 64.855469-23.160157-27.597656-57.0625-43.917969-93.082031-44.800781-1.304688 0-2.636719 0-3.96875.066406l10.308593-13.96875c4.296875-5.964844 11.964844-8.457031 18.945313-6.152344zm-172.492187-.859375c5.40625.03125 10.476563 2.632813 13.652344 7.011719l10.238281 13.859375c-37.367188-.148438-72.882812 16.273438-96.972656 44.84375 11.121094-31.109375 36.265625-55.144531 67.839844-64.855469 1.691406-.566406 3.460937-.859375 5.242187-.859375zm-121.804687-66.425781c21.9375-1.902344 49.636718 8.535156 72.394531 27.496094 9.96875 8.242187 18.65625 17.917969 25.78125 28.714843-12.378907 5.488282-23.824219 12.871094-33.929688 21.886719-22.679687-31.0625-56.226562-52.445312-93.960937-59.894531 1.023437-2.136719 2.296875-4.140625 3.796875-5.972656 6.648437-7.390625 15.984375-11.800782 25.917969-12.230469zm-33.425782 34.867187c33.898438 6.632813 64.019532 25.867188 84.300782 53.828126.507812.664062.914062 1.394531 1.210937 2.175781-3.914063 4.820312-7.414063 9.957031-10.46875 15.359375-5.503906 3.894531-10.933594 8.203125-16.265625 12.800781-6.503906-3.753906-12.691406-8.035156-18.5-12.800781-24.875-20.761719-40.433594-48.851563-40.277344-71.363282zm238.855469 442.769532c-131.746094 0-238.933594-90.914063-238.933594-202.667969.683594-52.386719 23.476563-102.046875 62.753907-136.71875-.707032 3.019531-1.382813 6.074219-1.902344 9.285156-.613282 3.722657.441406 7.53125 2.882812 10.414063 2.4375 2.878906 6.023438 4.542968 9.796875 4.550781 4.09375 0 7.933594-1.976563 10.308594-5.308594 14.355469-19.941406 45.117187-52.90625 91.683594-52.90625 1.039062 0 2.089843 0 3.15625.050781 6.570312.398438 12.730469-3.195312 15.625-9.101562 3.058593-5.773438 2.519531-12.789062-1.382813-18.023438l-.714844-.972656c30.933594-5.179687 62.511719-5.179687 93.445313 0l-.707031.964844c-3.875 5.246094-4.410156 12.246094-1.378906 18.023438 3.035156 5.777343 9.101562 9.3125 15.621093 9.101562 1.066407 0 2.117188-.050781 3.15625-.050781 46.558594 0 77.332031 32.949219 91.683594 52.90625 3.433594 4.808593 9.734375 6.605469 15.1875 4.335937 5.542969-2.277344 8.78125-8.082031 7.800781-13.996094-.519531-3.234374-1.203125-6.304687-1.917968-9.34375 4.855468 4.515626 9.519531 9.164063 13.847656 13.988282 31.152344 33.335937 48.617187 77.175781 48.921875 122.800781 0 111.753906-107.1875 202.667969-238.933594 202.667969zm0 0"/><path d="m421.289062 207.1875c-44.734374 9.078125-90.84375-7.089844-120.113281-42.113281-2.78125-3.179688-7.46875-3.847657-11.027343-1.570313-14.886719 9.519532-26.730469 23.105469-34.132813 39.152344-7.398437-16.046875-19.246094-29.632812-34.132813-39.152344-3.554687-2.265625-8.230468-1.597656-11.007812 1.570313-29.273438 35.023437-75.382812 51.191406-120.117188 42.113281-4.1875-.710938-8.269531 1.753906-9.589843 5.792969-2.882813 8.949219-4.351563 18.289062-4.351563 27.691406.902344 43.679687 31.746094 80.992187 74.476563 90.089844 42.730469 9.101562 86.101562-12.40625 104.722656-51.929688 18.621094 39.523438 61.992187 61.03125 104.722656 51.929688 42.730469-9.097657 73.574219-46.410157 74.476563-90.089844.007812-9.402344-1.457032-18.75-4.332032-27.699219-1.332031-4.03125-5.40625-6.488281-9.59375-5.785156zm-54.339843 31.777344c.046875 13.675781-10.664063 24.976562-24.324219 25.660156-13.660156.679688-25.445312-9.496094-26.757812-23.113281-1.3125-13.613281 8.308593-25.855469 21.847656-27.796875 7.210937 3.316406 14.695312 5.996094 22.375 8.011718 4.386718 4.671876 6.839844 10.832032 6.859375 17.238282zm-170.667969 0c.109375 11.511718-7.476562 21.675781-18.542969 24.847656-11.0625 3.171875-22.886719-1.429688-28.890625-11.246094-6.007812-9.820312-4.722656-22.441406 3.136719-30.847656 7.660156-2.019531 15.128906-4.699219 22.324219-8.003906 12.574218 1.800781 21.929687 12.546875 21.972656 25.25zm-25.597656 76.800781c-41.925782.421875-76.28125-33.171875-76.800782-75.09375-.007812-5.21875.546876-10.421875 1.648438-15.523437 11.578125 1.441406 23.28125 1.582031 34.890625.417968-1.519531 4.308594-2.332031 8.832032-2.40625 13.398438-.125 20.53125 14.390625 38.242187 34.546875 42.148437s40.238281-7.097656 47.792969-26.1875c7.554687-19.09375.441406-40.855469-16.933594-51.800781 9.097656-6.113281 17.496094-13.199219 25.046875-21.136719 18.246094 14.003907 28.964844 35.679688 29.015625 58.683594-.523437 41.921875-34.878906 75.515625-76.800781 75.09375zm170.664062 0c-41.921875.421875-76.277344-33.171875-76.796875-75.09375.042969-23.003906 10.761719-44.6875 29.011719-58.691406 7.550781 7.9375 15.945312 15.027343 25.035156 21.144531-17.269531 10.964844-24.304687 32.660156-16.753906 51.675781 7.550781 19.011719 27.550781 29.972657 47.640625 26.101563s34.585937-21.480469 34.53125-41.9375c-.070313-4.5625-.878906-9.085938-2.398437-13.390625 11.609374 1.167969 23.308593 1.027343 34.886718-.417969 1.097656 5.101562 1.648438 10.300781 1.644532 15.515625-.519532 41.921875-34.875 75.515625-76.800782 75.09375zm0 0"/><path d="m341.347656 366.964844h-25.597656c.0625-14.234375-8.75-27-22.082031-31.984375-13.332031-4.988281-28.359375-1.136719-37.652344 9.644531-9.292969-10.78125-24.320313-14.632812-37.652344-9.644531-13.332031 4.984375-22.144531 17.75-22.082031 31.984375h-25.597656c-32.972656.042968-59.691406 26.761718-59.734375 59.734375 0 4.710937 3.820312 8.53125 8.535156 8.53125 4.710937 0 8.53125-3.820313 8.53125-8.53125.027344-23.554688 19.113281-42.640625 42.667969-42.667969h170.664062c23.554688.027344 42.640625 19.113281 42.667969 42.667969 0 4.710937 3.820313 8.53125 8.535156 8.53125 4.710938 0 8.53125-3.820313 8.53125-8.53125-.042969-32.972657-26.761719-59.691407-59.734375-59.734375zm-110.933594-17.066406c9.425782 0 17.070313 7.640624 17.070313 17.066406h-34.136719c0-9.425782 7.640625-17.066406 17.066406-17.066406zm34.136719 17.066406c0-9.425782 7.640625-17.066406 17.066407-17.066406 9.425781 0 17.066406 7.640624 17.066406 17.066406zm0 0"/><path d="m281.617188 401.097656h-51.203126c-4.710937 0-8.53125 3.820313-8.53125 8.535156 0 4.710938 3.820313 8.53125 8.53125 8.53125h51.203126c4.710937 0 8.53125-3.820312 8.53125-8.53125 0-4.714843-3.820313-8.535156-8.53125-8.535156zm0 0"/></svg>