<svg height="512pt" viewBox="-60 0 512 512.00247" width="512pt" xmlns="http://www.w3.org/2000/svg"><path d="m384 196.269531v230.398438c.015625 15.566406-10.523438 29.15625-25.597656 33.023437-5.59375 1.480469-11.476563 1.480469-17.066406 0-1.484376-.378906-2.9375-.863281-4.351563-1.449218-4.21875-1.6875-8.050781-4.214844-11.265625-7.421876-6.378906-6.421874-9.96875-15.101562-9.984375-24.152343v-55.464844c0-11.78125-9.550781-21.335937-21.332031-21.335937-1.433594.015624-2.859375.160156-4.269532.429687-1.46875.285156-2.902343.742187-4.265624 1.363281-2.460938 1.035156-4.691407 2.542969-6.570313 4.4375-3.085937 3.085938-5.144531 7.050782-5.886719 11.351563-.246094 1.234375-.359375 2.492187-.34375 3.753906v105.214844c.296875 13.785156-10.011718 25.503906-23.722656 26.964843-3.53125.269532-7.082031-.226562-10.410156-1.449218-1.527344-.507813-2.988282-1.195313-4.351563-2.046875-1.910156-1.058594-3.664062-2.378907-5.203125-3.925781-4.808594-4.792969-7.511718-11.304688-7.511718-18.09375v-71.167969c.09375-6.03125-2.253907-11.847657-6.511719-16.121094-4.261719-4.277344-10.066407-6.648437-16.101563-6.574219-1.0625.085938-2.121094.257813-3.15625.511719h-.339844c-1.417968.285156-2.792968.746094-4.097656 1.363281-2.304687 1.089844-4.410156 2.5625-6.230468 4.351563-3.996094 4.011719-6.238282 9.445312-6.226563 15.105469-.082031 16.460937-13.40625 29.789062-29.867187 29.867187-2.894532.011719-5.773438-.421875-8.535157-1.28125-1.480469-.40625-2.914062-.976563-4.265625-1.707031-3.089844-1.414063-5.894531-3.378906-8.277344-5.800782-5.640624-5.5625-8.804687-13.15625-8.789062-21.078124v-25.601563c0-5.617187-2.207031-11.007813-6.144531-15.015625l-.085938-.085938c-2.964843-2.957031-6.734375-4.976562-10.835937-5.804687-.121094.003906-.238282-.023437-.34375-.085937-1.292969-.242188-2.609375-.355469-3.925782-.339844-1.429687.015625-2.859374.15625-4.265624.425781h-.171876c-1.398437.339844-2.769531.796875-4.09375 1.367187-2.460937 1.03125-4.695312 2.539063-6.570312 4.4375-4 4.007813-6.238281 9.441407-6.230469 15.101563v64c.011719 15.566406-10.523437 29.15625-25.597656 33.027344-5.59375 1.476562-11.476563 1.476562-17.070313 0-1.480468-.382813-2.933593-.867188-4.351562-1.453125-4.214844-1.6875-8.046875-4.214844-11.261719-7.421875-6.378906-6.421875-9.96875-15.101563-9.984375-24.152344v-242.941406c0-99.753907 76.03125-185.003907 174.761719-191.746094l4.011719-.253906c.707031-.101563 1.417968-.15625 2.132812-.171875 50.941406-1.835938 100.441406 17.113281 137.132813 52.503906 36.691406 35.386719 57.421875 84.167969 57.425781 135.144531zm0 0" fill="#2e7d32"/><path d="m358.402344 196.269531v230.398438c.046875 13.933593-8.457032 26.46875-21.417969 31.574219-4.21875-1.6875-8.050781-4.214844-11.265625-7.421876-6.378906-6.421874-9.96875-15.101562-9.984375-24.152343v-55.464844c0-11.78125-9.550781-21.335937-21.332031-21.335937-1.433594.015624-2.859375.160156-4.269532.429687-1.40625-.273437-2.832031-.417969-4.265624-.429687-2.9375-.015626-5.847657.597656-8.53125 1.792968-.242188-.148437-.5-.261718-.769532-.339844-5.945312-2.339843-12.628906-1.886718-18.203125 1.242188-5.574219 3.125-9.449219 8.589844-10.554687 14.886719-.242188 1.234375-.359375 2.492187-.339844 3.753906v105.214844c.054688 9.527343-4.820312 18.402343-12.886719 23.46875-1.910156-1.058594-3.664062-2.378907-5.203125-3.925781-4.808594-4.792969-7.511718-11.304688-7.511718-18.09375v-71.167969c.09375-6.03125-2.253907-11.847657-6.511719-16.121094-4.261719-4.277344-10.066407-6.648437-16.101563-6.574219-1.0625.085938-2.121094.257813-3.15625.511719h-.339844c-1.644531-.429687-3.34375-.601563-5.035156-.511719-2.621094.1875-5.191406.824219-7.597656 1.875-2.953125-1.394531-6.207031-2.039062-9.46875-1.875-11.28125.675782-20.074219 10.03125-20.054688 21.332032.015626 7.921874-3.152343 15.515624-8.789062 21.078124-2.382812 2.421876-5.1875 4.386719-8.277344 5.800782-3.089844-1.414063-5.894531-3.378906-8.277344-5.800782-5.640624-5.5625-8.804687-13.15625-8.789062-21.078124v-25.601563c0-5.617187-2.207031-11.007813-6.144531-15.015625l-.085938-.085938c-2.964843-2.957031-6.734375-4.976562-10.835937-5.804687-.121094.003906-.238282-.023437-.34375-.085937-1.292969-.242188-2.609375-.355469-3.925782-.339844-1.429687.015625-2.859374.15625-4.265624.425781h-.171876c-.042968-.046875-.105468-.074219-.167968-.085937-1.292969-.242188-2.609375-.355469-3.925782-.339844-2.941406-.015625-5.847656.59375-8.535156 1.792968-1.375-.582031-2.804687-1.039062-4.265625-1.367187-.117187.003906-.238281-.023437-.339843-.085937-1.292969-.242188-2.609376-.355469-3.925782-.339844-5.664062-.019532-11.101562 2.222656-15.105468 6.226562-4.003907 4.007813-6.246094 9.445313-6.226563 15.105469v64c.046875 13.933594-8.457031 26.46875-21.421875 31.574219-4.214844-1.6875-8.046875-4.214844-11.261719-7.421875-6.378906-6.421875-9.96875-15.101563-9.984375-24.152344v-242.941406c0-99.753907 76.03125-185.003907 174.761719-191.746094 98.5625 6.558594 175.148437 88.441406 175.105469 187.222656zm0 0" fill="#4cae50"/><path d="m136.535156 93.867188c-2.859375-.03125-5.714844.195312-8.535156.683593-29.367188 4.21875-51.175781 29.378907-51.175781 59.050781 0 29.671876 21.808593 54.832032 51.175781 59.050782 2.820312.488281 5.675781.71875 8.535156.683594 32.988282 0 59.734375-26.742188 59.734375-59.734376 0-32.988281-26.746093-59.734374-59.734375-59.734374zm0 0" fill="#f4f4f4"/><path d="m256 93.867188c-2.859375-.03125-5.714844.195312-8.53125.683593-29.371094 4.21875-51.175781 29.378907-51.175781 59.050781 0 29.671876 21.804687 54.832032 51.175781 59.050782 2.816406.488281 5.671875.71875 8.53125.683594 32.992188 0 59.734375-26.742188 59.734375-59.734376 0-32.988281-26.742187-59.734374-59.734375-59.734374zm0 0" fill="#f4f4f4"/><path d="m170.667969 153.601562c0 18.851563-15.28125 34.132813-34.132813 34.132813-18.851562 0-34.132812-15.28125-34.132812-34.132813 0-18.851562 15.28125-34.132812 34.132812-34.132812 18.851563 0 34.132813 15.28125 34.132813 34.132812zm0 0" fill="#ff5722"/><path d="m290.132812 153.601562c0 18.851563-15.28125 34.132813-34.132812 34.132813s-34.132812-15.28125-34.132812-34.132813c0-18.851562 15.28125-34.132812 34.132812-34.132812s34.132812 15.28125 34.132812 34.132812zm0 0" fill="#ff5722"/><path d="m153.601562 153.601562c0 9.425782-7.640624 17.066407-17.066406 17.066407-9.425781 0-17.066406-7.640625-17.066406-17.066407 0-9.425781 7.640625-17.066406 17.066406-17.066406 9.425782 0 17.066406 7.640625 17.066406 17.066406zm0 0" fill="#37474f"/><path d="m273.066406 153.601562c0 9.425782-7.640625 17.066407-17.066406 17.066407s-17.066406-7.640625-17.066406-17.066407c0-9.425781 7.640625-17.066406 17.066406-17.066406s17.066406 7.640625 17.066406 17.066406zm0 0" fill="#37474f"/><path d="m247.46875 281.601562c.027344 26.046876-19.5 47.964844-45.375 50.925782-25.875 2.964844-49.851562-13.96875-55.714844-39.347656-5.859375-25.375 8.265625-51.109376 32.824219-59.789063 11.027344-3.984375 23.101563-3.984375 34.132813 0 20.464843 7.183594 34.15625 26.519531 34.132812 48.210937zm0 0" fill="#ac1457"/><path d="m213.335938 233.390625v14.078125c.003906 9.085938-7.140626 16.566406-16.214844 16.980469-.5625.117187-1.144532.117187-1.707032 0-9.074218-.414063-16.21875-7.894531-16.210937-16.980469v-14.078125c2.757813-1.039063 5.617187-1.785156 8.53125-2.21875 5.644531-1.027344 11.425781-1.027344 17.066406 0 2.914063.433594 5.777344 1.179687 8.535157 2.21875zm0 0" fill="#f9eab0"/><path d="m204.800781 231.171875v12.03125c0 10.921875-3.414062 20.136719-7.679687 21.246094-.5625.117187-1.144532.117187-1.707032 0-4.265624-1.109375-7.679687-10.324219-7.679687-21.246094v-12.03125c5.644531-1.027344 11.425781-1.027344 17.066406 0zm0 0" fill="#ffebb2"/><path d="m128 136.535156c0 9.425782-7.640625 17.066406-17.066406 17.066406-9.425782 0-17.066406-7.640624-17.066406-17.066406 0-9.425781 7.640624-17.066406 17.066406-17.066406 9.425781 0 17.066406 7.640625 17.066406 17.066406zm0 0" fill="#f4f4f4"/><path d="m247.46875 136.535156c0 9.425782-7.640625 17.066406-17.066406 17.066406-9.425782 0-17.066406-7.640624-17.066406-17.066406 0-9.425781 7.640624-17.066406 17.066406-17.066406 9.425781 0 17.066406 7.640625 17.066406 17.066406zm0 0" fill="#f4f4f4"/><path d="m349.867188 469.335938c23.554687-.027344 42.640624-19.113282 42.667968-42.667969v-230.398438c0-53.292969-21.671875-104.296875-60.035156-141.289062-38.367188-36.992188-90.125-56.792969-143.382812-54.851563-104.277344 3.714844-189.117188 93.738282-189.117188 200.636719v242.96875c0 23.566406 19.105469 42.667969 42.667969 42.667969s42.667969-19.101563 42.667969-42.667969v-64c-.011719-3.765625 1.640624-7.347656 4.515624-9.785156 2.871094-2.441407 6.671876-3.488281 10.390626-2.867188l.453124.101563c5.984376 1.183594 10.28125 6.453125 10.238282 12.550781v25.601563c0 21.207031 17.191406 38.398437 38.402344 38.398437 21.207031 0 38.398437-17.191406 38.398437-38.398437-.042969-6.785157 5.242187-12.414063 12.015625-12.800782 3.316406-.125 6.542969 1.109375 8.933594 3.414063 2.960937 2.792969 4.644531 6.679687 4.652344 10.75v71.167969c0 18.851562 15.28125 34.136718 34.132812 34.136718.851562 0 1.636719 0 2.464844-.085937 18.195312-1.761719 31.984375-17.210938 31.667968-35.492188v-105.222656c-.015624-.773437.054688-1.546875.214844-2.304687.445313-2.5625 1.671875-4.925782 3.515625-6.765626 3.640625-3.542968 9.003907-4.652343 13.753907-2.851562 4.898437 1.925781 8.117187 6.65625 8.117187 11.921875v55.464844c.027344 23.554687 19.113281 42.640625 42.664063 42.667969zm-44.585938-125.960938c-11.066406-4.195312-23.558594-1.582031-32.015625 6.691406-4.273437 4.222656-7.136719 9.667969-8.195313 15.582032-.375 1.824218-.554687 3.6875-.535156 5.554687v105.222656c.253906 9.308594-6.570312 17.300781-15.804687 18.511719-4.949219.335938-9.800781-1.472656-13.320313-4.96875-3.226562-3.195312-5.03125-7.558594-5.007812-12.101562v-71.167969c-.019532-8.761719-3.640625-17.132813-10.011719-23.148438-5.363281-5.160156-12.507813-8.054687-19.949219-8.082031-.570312 0-1.136718.015625-1.707031.050781-15.785156.914063-28.105469 14.003907-28.066406 29.816407 0 11.78125-9.550781 21.332031-21.332031 21.332031-11.785157 0-21.335938-9.550781-21.335938-21.332031v-25.601563c.035156-14.15625-9.898438-26.378906-23.765625-29.242187-.160156-.042969-.324219-.085938-.484375-.109376-9.730469-1.824218-19.730469 1.246094-26.761719 8.214844-5.609375 5.601563-8.75 13.210938-8.71875 21.136719v64c-.046875 10.8125-6.875 20.429687-17.066406 24.03125v-41.097656c0-4.710938-3.824219-8.53125-8.535156-8.53125-4.714844 0-8.535157 3.820312-8.535157 8.53125v41.097656c-10.191406-3.601563-17.019531-13.21875-17.066406-24.03125v-242.96875c0-97.835937 77.449219-180.1875 172.65625-183.578125 48.628906-1.777344 95.890625 16.300781 130.921875 50.074219 35.035157 33.777343 54.824219 80.34375 54.824219 129.007812v230.398438c-.046875 10.8125-6.875 20.429687-17.066406 24.03125v-49.628907c0-4.714843-3.820313-8.535156-8.535156-8.535156-4.710938 0-8.53125 3.820313-8.53125 8.535156v49.628907c-10.191407-3.601563-17.023438-13.21875-17.066407-24.03125v-55.464844c-.03125-12.289063-7.554687-23.316406-18.988281-27.828125zm0 0"/><path d="m256 85.335938c-24.851562.015624-47.730469 13.535156-59.730469 35.292968-15.046875-27.269531-46.640625-40.902344-76.800781-33.136718-30.164062 7.765624-51.242188 34.964843-51.242188 66.109374 0 31.148438 21.078126 58.34375 51.242188 66.109376 30.160156 7.769531 61.753906-5.863282 76.800781-33.136719 16.082031 29.160156 50.863281 42.460937 82.300781 31.472656s50.355469-43.058594 44.773438-75.890625c-5.582031-32.828125-34.039062-56.839844-67.34375-56.820312zm-119.464844 119.464843c-28.277344 0-51.199218-22.921875-51.199218-51.199219 0-28.277343 22.921874-51.199218 51.199218-51.199218s51.199219 22.921875 51.199219 51.199218c-.027344 28.265626-22.933594 51.171876-51.199219 51.199219zm119.464844 0c-28.277344 0-51.199219-22.921875-51.199219-51.199219 0-28.277343 22.921875-51.199218 51.199219-51.199218s51.203125 22.921875 51.203125 51.199218c-.03125 28.265626-22.9375 51.171876-51.203125 51.199219zm0 0"/><path d="m136.535156 128.003906c-14.140625 0-25.601562 11.460938-25.601562 25.597656 0 14.140626 11.460937 25.601563 25.601562 25.601563 14.136719 0 25.597656-11.460937 25.597656-25.601563 0-14.136718-11.460937-25.597656-25.597656-25.597656zm0 34.132813c-4.714844 0-8.535156-3.820313-8.535156-8.535157 0-4.710937 3.820312-8.53125 8.535156-8.53125 4.710938 0 8.53125 3.820313 8.53125 8.53125 0 4.714844-3.820312 8.535157-8.53125 8.535157zm0 0"/><path d="m256 128.003906c-14.136719 0-25.597656 11.460938-25.597656 25.597656 0 14.140626 11.460937 25.601563 25.597656 25.601563 14.140625 0 25.601562-11.460937 25.601562-25.601563 0-14.136718-11.460937-25.597656-25.601562-25.597656zm0 34.132813c-4.710938 0-8.53125-3.820313-8.53125-8.535157 0-4.710937 3.820312-8.53125 8.53125-8.53125 4.714844 0 8.535156 3.820313 8.535156 8.53125 0 4.714844-3.820312 8.535157-8.535156 8.535157zm0 0"/><path d="m216.261719 225.375c-9.65625-3.476562-20.046875-4.378906-30.15625-2.617188-3.308594.558594-6.558594 1.414063-9.710938 2.558594h-.121093l-.101563.050782c-27.363281 9.792968-43.710937 37.859374-38.722656 66.492187s29.859375 49.519531 58.925781 49.484375c29.0625-.039062 53.882812-20.988281 58.796875-49.632812 4.914063-28.648438-11.503906-56.671876-38.894531-66.394532zm-28.527344 14.535156c.203125 0 .402344-.128906.597656-.164062 5.238281-1 10.617188-1 15.855469 0 .203125 0 .410156.121094.613281.164062v7.558594c0 4.714844-3.820312 8.535156-8.53125 8.535156-4.714843 0-8.535156-3.820312-8.535156-8.535156zm8.535156 84.359375c-18.367187 0-34.671875-11.753906-40.480469-29.175781-5.804687-17.421875.1875-36.605469 14.878907-47.625 0 14.140625 11.460937 25.601562 25.601562 25.601562 14.136719 0 25.597657-11.460937 25.597657-25.601562 14.691406 11.019531 20.683593 30.203125 14.878906 47.625-5.808594 17.421875-22.113282 29.175781-40.476563 29.175781zm0 0"/><path d="m42.667969 230.402344c-4.714844 0-8.535157 3.820312-8.535157 8.535156v119.464844c0 4.714844 3.820313 8.535156 8.535157 8.535156 4.710937 0 8.535156-3.820312 8.535156-8.535156v-119.464844c0-4.714844-3.824219-8.535156-8.535156-8.535156zm0 0"/><path d="m349.867188 349.867188c4.714843 0 8.535156-3.820313 8.535156-8.53125v-68.265626c0-4.714843-3.820313-8.535156-8.535156-8.535156-4.710938 0-8.53125 3.820313-8.53125 8.535156v68.265626c0 4.710937 3.820312 8.53125 8.53125 8.53125zm0 0"/></svg>