<svg height="512pt" viewBox="0 0 512.04158 512" width="512pt" xmlns="http://www.w3.org/2000/svg"><path d="m503.488281 230.417969c0 124.929687-110.761719 273.066406-247.464843 273.066406-2.816407 0-5.71875-.082031-8.535157-.167969-132.777343-5.972656-238.933593-150.613281-238.933593-272.898437-.550782-28.167969 6.179687-56.003907 19.542968-80.808594l83.371094-71.9375c42.671875-17.503906 88.363281-26.460937 134.484375-26.367187h3.15625c2.304687-.085938 4.609375-.085938 6.914063-.085938 49.804687-1.210938 99.324218 7.941406 145.40625 26.878906h.085937l82.515625 71.597656v.082032c13.296875 24.769531 19.996094 52.539062 19.457031 80.640625zm0 0" fill="#2e7d32"/><path d="m477.886719 230.417969c0 122.285156-104.257813 266.925781-234.664063 272.898437-130.40625-5.972656-234.667968-150.613281-234.667968-272.898437-.550782-28.125 6.054687-55.933594 19.191406-80.808594l81.921875-71.9375c41.820312-17.480469 86.710937-26.445313 132.042969-26.367187h3.105468c45.632813-.097657 90.8125 9.015624 132.839844 26.792968h.078125l81.066406 71.597656v.082032c13.0625 24.839844 19.628907 52.582031 19.085938 80.640625zm0 0" fill="#4cae50"/><path d="m162.15625 204.820312c-2.851562-.003906-5.703125.167969-8.535156.511719-38.730469 4.492188-67.945313 37.296875-67.945313 76.289063 0 38.988281 29.214844 71.792968 67.945313 76.285156 2.832031.34375 5.683594.515625 8.535156.511719 42.414062 0 76.796875-34.382813 76.796875-76.796875 0-42.417969-34.382813-76.800782-76.796875-76.800782zm0 0" fill="#f3f3f3"/><path d="m349.886719 204.820312c-2.851563-.003906-5.699219.167969-8.53125.511719-38.730469 4.492188-67.945313 37.296875-67.945313 76.289063 0 38.988281 29.214844 71.792968 67.945313 76.285156 2.832031.34375 5.679687.515625 8.53125.511719 42.417969 0 76.800781-34.382813 76.800781-76.796875 0-42.417969-34.382812-76.800782-76.800781-76.800782zm0 0" fill="#f3f3f3"/><g fill="#fdc008"><path d="m204.820312 281.621094c0-42.417969-19.101562-76.800782-42.664062-76.800782-23.566406 0-42.667969 34.382813-42.667969 76.800782 0 42.414062 19.101563 76.796875 42.667969 76.796875 23.5625 0 42.664062-34.382813 42.664062-76.796875zm0 0"/><path d="m392.554688 281.621094c0-42.417969-19.101563-76.800782-42.667969-76.800782-23.5625 0-42.664063 34.382813-42.664063 76.800782 0 42.414062 19.101563 76.796875 42.664063 76.796875 23.566406 0 42.667969-34.382813 42.667969-76.796875zm0 0"/><path d="m158.484375 151.316406c-7.789063 18.011719-24.167969 30.859375-43.519531 34.132813-14.246094 3.058593-28.773438 4.632812-43.347656 4.691406-8.589844.769531-17.175782-1.527344-24.234376-6.484375-8.277343-6.742188-10.753906-17.492188-15.191406-26.710938-3.480468-6.738281-6.53125-13.691406-9.128906-20.820312-1.023438-2.816406-1.878906-5.714844-2.644531-8.703125-.769531-2.988281-1.28125-5.886719-1.792969-8.789063-1.886719-12.421874-1.539062-25.078124 1.023438-37.375 1.082031-5.625 2.683593-11.140624 4.777343-16.46875 3.34375-8.929687 7.816407-17.386718 13.3125-25.175781 6-9.804687 12.824219-19.082031 20.394531-27.734375 2.109376-2.003906 5.097657-2.792968 7.917969-2.082031 2.824219.710937 5.085938 2.816406 5.992188 5.582031 5.683593 18.613282 14.929687 35.941406 27.222656 51.03125 7.875 8.152344 16.664063 15.367188 26.195313 21.503906 9.730468 6.3125 19.796874 8.445313 26.796874 16.042969 6.277344 7.867188 9.460938 17.761719 8.957032 27.816407.378906 6.628906-.546875 13.269531-2.730469 19.542968zm0 0"/><path d="m493.417969 118.546875c-.558594 4.089844-1.386719 8.136719-2.472657 12.117187-.511718 1.792969-1.023437 3.585938-1.621093 5.375-3.050781 8.691407-6.816407 17.113282-11.265625 25.175782-4.691406 8.703125-7.59375 18.859375-16.296875 24.488281-6.203125 3.4375-13.230469 5.089844-20.3125 4.78125-33.535157.679687-85.503907-9.730469-91.304688-49.835937-2.265625-13 1.714844-26.308594 10.75-35.925782 2.28125-2.277344 4.867188-4.230468 7.683594-5.800781 24.316406-13.824219 44.371094-25.601563 59.476563-50.347656 1.535156-2.476563 9.300781-23.722657 13.652343-34.644531 1.007813-2.546876 3.183594-4.453126 5.84375-5.113282 2.65625-.660156 5.472657.003906 7.554688 1.785156 15.972656 14.539063 27.636719 33.199219 33.707031 53.929688 1.6875 5.449219 3 11.007812 3.925781 16.640625 2.183594 12.34375 2.414063 24.957031.679688 37.375zm0 0"/></g><path d="m179.222656 281.621094c0-42.417969-7.640625-76.800782-17.066406-76.800782s-17.066406 34.382813-17.066406 76.800782c0 42.414062 7.640625 76.796875 17.066406 76.796875s17.066406-34.382813 17.066406-76.796875zm0 0" fill="#37474f"/><path d="m366.953125 281.621094c0-42.417969-7.640625-76.800782-17.066406-76.800782s-17.066407 34.382813-17.066407 76.800782c0 42.414062 7.640626 76.796875 17.066407 76.796875s17.066406-34.382813 17.066406-76.796875zm0 0" fill="#37474f"/><path d="m256.023438 512.019531c141.804687 0 256-154.050781 256-281.601562.421874-28.167969-5.984376-56.015625-18.671876-81.167969 2.324219-5.308594 4.269532-10.773438 5.820313-16.359375.382813-1.398437.65625-2.847656.980469-4.265625v-.085938c9.160156-45.492187-5.742188-92.496093-39.441406-124.398437-4.136719-3.582031-9.753907-4.9375-15.070313-3.636719-5.402344 1.308594-9.832031 5.15625-11.886719 10.320313-1.40625 3.574219-3.191406 8.25-5.015625 13.019531-2.835937 7.417969-7.117187 18.613281-7.996093 20.320312-5.546876 9.136719-12.574219 17.289063-20.796876 24.121094-45.792968-18.03125-94.722656-26.734375-143.921874-25.597656-48.816407-.976562-97.355469 7.5625-142.910157 25.128906-2.695312-2.378906-5.296875-4.804687-7.679687-7.3125-11.511719-14.136718-20.113282-30.414062-25.308594-47.890625-1.878906-5.546875-6.464844-9.746093-12.152344-11.136719-5.617187-1.375-11.546875.214844-15.71875 4.21875-6.96875 7.539063-13.167968 15.757813-18.507812 24.53125-1.230469 1.878907-2.253906 3.414063-2.988282 4.496094-19.484374 27.03125-26.335937 61.164063-18.789062 93.621094l.078125.410156c.058594.230469.074219.46875.136719.707032 1.671875 6.636718 3.9375 13.105468 6.765625 19.335937-12.878907 25.253906-19.375 53.277344-18.9257815 81.621094 0 127.550781 114.1914065 281.601562 256.0000005 281.601562zm179.292968-458.972656c3.535156-7.53125 6.667969-15.246094 9.386719-23.109375 1.800781-4.703125 3.558594-9.320312 4.820313-12.929688 14.773437 13.5 25.542968 30.808594 31.128906 50.023438-8.484375 2.757812-17.539063 3.277344-26.28125 1.503906-4.578125-1.136718-9.207032 1.652344-10.34375 6.226563-1.136719 4.578125 1.652344 9.207031 6.230468 10.34375 4.496094 1.089843 9.105469 1.632812 13.730469 1.613281 6.960938-.082031 13.878907-1.085938 20.574219-2.988281 1.960938 11.835937 1.976562 23.914062.050781 35.753906-18.558593 2.570313-37.464843-.140625-54.554687-7.816406-2.800782-1.203125-6.03125-.820313-8.476563 1.003906-2.445312 1.824219-3.726562 4.8125-3.371093 7.839844.359374 3.03125 2.304687 5.636719 5.105468 6.84375 15.0625 6.640625 31.328125 10.128906 47.789063 10.238281 2.925781 0 5.851562-.214844 8.769531-.453125-2.667969 6.898437-5.789062 13.617187-9.34375 20.105469-1.152344 2.160156-2.207031 4.394531-3.265625 6.648437-1.96875 5.71875-5.464844 10.789063-10.113281 14.660157-4.886719 2.519531-10.355469 3.699218-15.847656 3.414062-28.277344.628906-77.652344-7.683594-82.644532-42.480469-1.929687-10.316406 1.136719-20.9375 8.269532-28.636719 1.765624-1.75 3.757812-3.253906 5.921874-4.472656 23.519532-13.398437 45.78125-26.011718 62.464844-53.332031zm-179.292968 6.707031c43.402343-.746094 86.601562 6.128906 127.632812 20.316406-5.828125 3.703126-12.179688 7.40625-19.261719 11.417969-3.484375 1.96875-6.691406 4.390625-9.53125 7.210938-10.984375 11.480469-15.855469 27.5-13.125 43.152343 6.058594 42.335938 54.886719 57.171876 96.359375 57.171876h3.53125c8.675782.339843 17.269532-1.78125 24.789063-6.117188 7.421875-5.507812 13.074219-13.058594 16.265625-21.734375.324218-.699219.683594-1.382813 1.023437-2.082031 7.660157 19.527344 11.480469 40.351562 11.246094 61.328125 0 119.816406-106.578125 264.535156-238.929687 264.535156-132.355469 0-238.933594-144.71875-238.933594-264.535156-.257813-20.898438 3.507812-41.652344 11.09375-61.132813 2.71875 8.058594 7.464844 15.28125 13.78125 20.976563 7.984375 5.964843 17.792968 8.960937 27.75 8.472656h2.105468c15.179688-.105469 30.3125-1.753906 45.160157-4.914063 24.941406-6.066406 42.050781-19.730468 49.492187-39.5 2.597656-7.320312 3.703125-15.085937 3.25-22.835937.4375-12.09375-3.5625-23.929687-11.246094-33.28125-5.191406-5.140625-11.351562-9.199219-18.125-11.945313-3.53125-1.585937-6.953124-3.410156-10.238281-5.460937-.453125-.292969-.855469-.605469-1.324219-.90625 40.914063-14.066406 83.972657-20.882813 127.234376-20.136719zm-211.3125-15.214844c.851562-1.144531 1.953124-2.886718 3.320312-4.96875 4.640625-7.621093 9.996094-14.785156 15.992188-21.390624 6.058593 19.769531 15.945312 38.160156 29.089843 54.125 8.347657 8.625 17.65625 16.265624 27.742188 22.777343 3.921875 2.457031 8.003906 4.652344 12.21875 6.570313 4.773437 1.871094 9.160156 4.609375 12.9375 8.078125 4.953125 6.371093 7.351562 14.359375 6.722656 22.402343.351563 5.46875-.390625 10.957032-2.183594 16.136719-6.921875 15.289063-21 26.128907-37.546875 28.917969-13.691406 2.871094-27.636718 4.363281-41.625 4.445312-6.554687.71875-13.152344-.925781-18.605468-4.632812-4.34375-4.414062-7.5625-9.8125-9.386719-15.734375-1.117188-2.722656-2.25-5.445313-3.523438-8.046875-2.796875-5.699219-5.222656-10.878906-7.261719-16.078125 2.816407.214844 5.632813.4375 8.457032.4375 16.433594-.121094 32.671875-3.609375 47.710937-10.242187 2.800781-1.203126 4.746094-3.8125 5.105469-6.839844s-.925781-6.015625-3.371094-7.84375c-2.445312-1.824219-5.675781-2.203125-8.476562-1-17.039063 7.652344-35.886719 10.367187-54.390625 7.832031-2.175781-11.808594-2.128907-23.925781.136719-35.71875 6.621093 1.882813 13.460937 2.878906 20.34375 2.960937 4.597656.015626 9.183593-.527343 13.652343-1.613281 4.574219-1.136719 7.363281-5.765625 6.230469-10.34375-1.136719-4.574219-5.769531-7.363281-10.34375-6.226562-8.320312 1.726562-16.945312 1.332031-25.070312-1.152344 3.085937-8.085937 7.160156-15.761719 12.125-22.851563zm0 0"/><path d="m76.820312 281.621094c0 47.125 38.207032 85.332031 85.335938 85.332031s85.332031-38.207031 85.332031-85.332031c0-47.128906-38.203125-85.335938-85.332031-85.335938-47.109375.050782-85.28125 38.226563-85.335938 85.335938zm85.335938 64.988281c-6.550781-21.015625-9.4375-42.996094-8.535156-64.988281-.902344-21.996094 1.984375-43.976563 8.535156-64.992188 6.550781 21.015625 9.4375 42.996094 8.53125 64.992188.90625 21.992187-1.980469 43.972656-8.53125 64.988281zm-68.269531-64.988281c.058593-30.832032 20.75-57.804688 50.511719-65.84375-5.628907 21.480468-8.265626 43.636718-7.84375 65.84375-.421876 22.203125 2.214843 44.359375 7.84375 65.839844-29.761719-8.039063-50.453126-35.011719-50.511719-65.839844zm136.535156 0c-.058594 30.828125-20.746094 57.800781-50.507813 65.839844 5.625-21.480469 8.265626-43.636719 7.839844-65.839844.425782-22.207032-2.214844-44.363282-7.839844-65.84375 29.761719 8.039062 50.449219 35.011718 50.507813 65.84375zm0 0"/><path d="m349.886719 366.953125c47.128906 0 85.335937-38.207031 85.335937-85.332031 0-47.128906-38.207031-85.335938-85.335937-85.335938-47.125 0-85.332031 38.207032-85.332031 85.335938.050781 47.105468 38.226562 85.28125 85.332031 85.332031zm0-150.324219c6.550781 21.015625 9.4375 42.996094 8.535156 64.992188.902344 21.992187-1.984375 43.972656-8.535156 64.988281-6.550781-21.015625-9.4375-42.996094-8.53125-64.988281-.90625-21.996094 1.980469-43.976563 8.53125-64.992188zm68.269531 64.992188c-.058594 30.828125-20.75 57.800781-50.511719 65.839844 5.628907-21.480469 8.269531-43.636719 7.84375-65.839844.425781-22.207032-2.214843-44.363282-7.84375-65.84375 29.761719 8.039062 50.453125 35.011718 50.511719 65.84375zm-86.027344-65.84375c-5.625 21.480468-8.265625 43.636718-7.839844 65.84375-.425781 22.203125 2.214844 44.359375 7.839844 65.839844-29.789062-7.992188-50.5-34.996094-50.5-65.839844 0-30.847656 20.710938-57.851563 50.5-65.84375zm0 0"/><path d="m213.355469 418.152344c-1.871094 0-18.371094.359375-24.535157 12.671875-4.625 9.234375-1.613281 20.726562 9.175782 35.113281 2.828125 3.773438 8.175781 4.535156 11.945312 1.707031 3.769532-2.828125 4.535156-8.175781 1.707032-11.945312-7.679688-10.238281-8.363282-15.632813-7.570313-17.238281.957031-1.953126 6.078125-3.199219 9.320313-3.242188 4.710937 0 8.53125-3.820312 8.53125-8.53125 0-4.714844-3.820313-8.535156-8.53125-8.535156zm0 0"/><path d="m298.6875 418.152344c-4.710938-.015625-8.542969 3.796875-8.558594 8.507812-.011718 4.714844 3.796875 8.546875 8.507813 8.558594 3.25 0 8.371093 1.289062 9.328125 3.242188.792968 1.605468.085937 7.039062-7.570313 17.238281-2.828125 3.769531-2.0625 9.117187 1.707031 11.945312 3.769532 2.828125 9.117188 2.066407 11.945313-1.707031 10.789063-14.386719 13.800781-25.878906 9.175781-35.113281-6.160156-12.3125-22.664062-12.671875-24.535156-12.671875zm0 0"/></svg>