<svg height="512pt" viewBox="0 0 512.00662 512" width="512pt" xmlns="http://www.w3.org/2000/svg"><path d="m503.46875 332.789062c.195312 28.316407-12.332031 55.222657-34.132812 73.300782l-68.265626 35.753906c-11.21875 3.511719-22.613281 6.445312-34.132812 8.789062-30.9375 6.078126-62.347656 9.421876-93.867188 9.984376-5.632812.085937-11.351562.171874-17.066406.171874-2.902344 0-5.71875 0-8.535156-.085937s-5.714844-.085937-8.53125-.085937c-31.523438-.5625-62.933594-3.90625-93.867188-9.984376-11.519531-2.34375-22.914062-5.277343-34.132812-8.789062l-68.265625-35.753906c-21.800781-18.078125-34.332031-44.984375-34.136719-73.300782 1.503906-34.011718 13.988282-66.613281 35.585938-92.929687l203.347656-148.308594 8.535156-6.230469 211.882813 154.539063c21.59375 26.316406 34.082031 58.917969 35.582031 92.929687zm0 0" fill="#558a30"/><path d="m477.871094 332.789062c.246094 28.195313-12.035156 55.046876-33.527344 73.300782l-67.046875 35.753906c-11.011719 3.511719-22.203125 6.445312-33.519531 8.789062-30.359375 6.074219-61.203125 9.417969-92.160156 9.984376-2.765626 0-5.53125.085937-8.378907.085937-2.851562 0-5.617187-.085937-8.378906-.085937-30.957031-.566407-61.800781-3.910157-92.160156-9.984376-11.320313-2.34375-22.507813-5.277343-33.519531-8.789062l-67.117188-35.753906c-21.492188-18.253906-33.773438-45.105469-33.527344-73.300782 1.453125-33.917968 13.710938-66.476562 34.988282-92.929687l199.679687-148.308594 199.679687 148.308594c21.277344 26.453125 33.535157 59.011719 34.988282 92.929687zm0 0" fill="#8ac24a"/><path d="m494.9375 170.65625c.003906 37.019531-26.40625 68.773438-62.804688 75.519531-4.617187.859375-9.300781 1.289063-13.996093 1.277344-2.851563.003906-5.703125-.167969-8.535157-.511719-38.730468-4.492187-67.945312-37.296875-67.945312-76.285156 0-38.992188 29.214844-71.796875 67.945312-76.289062 2.832032-.34375 5.683594-.515626 8.535157-.511719 20.378906-.035157 39.933593 8.046875 54.34375 22.457031 14.410156 14.410156 22.488281 33.960938 22.457031 54.34375zm0 0" fill="#ced7db"/><g fill="#8ac24a"><path d="m366.9375 450.632812v27.222657c0 14.136719-11.460938 25.597656-25.601562 25.597656h-42.664063c-14.140625 0-25.601563-11.460937-25.601563-25.597656v-17.238281zm0 0"/><path d="m238.9375 460.617188v17.238281c0 14.136719-11.460938 25.597656-25.601562 25.597656h-42.664063c-14.140625 0-25.601563-11.460937-25.601563-25.597656v-27.222657zm0 0"/><path d="m110.9375 401.976562v67.34375c0 18.851563-15.28125 34.132813-34.132812 34.132813-18.851563 0-34.132813-15.28125-34.132813-34.132813v-88.675781c-.015625-6.210937 3.347656-11.9375 8.777344-14.953125 5.429687-3.019531 12.066406-2.847656 17.332031.445313l34.132812 21.332031c5 3.125 8.035157 8.609375 8.023438 14.507812zm0 0"/></g><path d="m469.335938 380.660156v88.660156c.011718 9.058594-3.582032 17.746094-9.984376 24.148438-6.402343 6.40625-15.09375 9.996094-24.148437 9.984375-4.398437.035156-8.753906-.835937-12.800781-2.558594-12.902344-5.164062-21.355469-17.675781-21.332032-31.574219v-67.328124c.023438-5.886719 3.046876-11.355469 8.019532-14.503907l29.867187-18.605469 4.269531-2.730468c5.265626-3.289063 11.902344-3.460938 17.332032-.445313 5.429687 3.015625 8.789062 8.742188 8.777344 14.953125zm0 0" fill="#558a30"/><path d="m443.738281 380.660156v88.660156c-.019531 9.050782-3.605469 17.730469-9.984375 24.148438-3.261718 3.195312-7.117187 5.71875-11.351562 7.425781-12.902344-5.164062-21.355469-17.675781-21.332032-31.574219v-67.328124c.023438-5.886719 3.046876-11.355469 8.019532-14.503907l29.867187-18.605469c3.078125 3.148438 4.792969 7.375 4.78125 11.777344zm0 0" fill="#8ac24a"/><path d="m357.636719 452.425781c-27.9375 4.902344-56.210938 7.640625-84.566407 8.191407-5.632812.085937-11.351562.171874-17.066406.171874-5.71875 0-11.433594-.085937-17.066406-.171874-28.359375-.550782-56.628906-3.289063-84.566406-8.191407 6.144531-38.570312 49.324218-68.4375 101.632812-68.4375s95.488282 29.867188 101.632813 68.4375zm0 0" fill="#558a30"/><path d="m349.871094 102.386719c0 51.84375-42.027344 93.867187-93.867188 93.867187s-93.867187-42.023437-93.867187-93.867187c0-51.839844 42.027343-93.867188 93.867187-93.867188s93.867188 42.027344 93.867188 93.867188zm0 0" fill="#65ddb9"/><path d="m477.871094 170.65625c.007812 25.28125-11.214844 49.261719-30.636719 65.449219-1.570313 1.351562-3.222656 2.605469-4.949219 3.753906-3.214844 2.363281-6.613281 4.472656-10.152344 6.316406-4.617187.859375-9.300781 1.289063-13.996093 1.277344-2.851563.003906-5.703125-.167969-8.535157-.511719-38.730468-4.492187-67.945312-37.296875-67.945312-76.285156 0-38.992188 29.214844-71.796875 67.945312-76.289062 2.832032-.34375 5.683594-.515626 8.535157-.511719 4.722656-.011719 9.4375.417969 14.078125 1.277343 28.089844 14.714844 45.683594 43.8125 45.65625 75.523438zm0 0" fill="#fff"/><path d="m256.003906 17.054688c-2.816406 0-5.632812.171874-8.363281.425781h-.339844c-43.609375 4.378906-76.8125 41.078125-76.8125 84.90625s33.203125 80.53125 76.8125 84.90625h.339844c2.730469.257812 5.546875.429687 8.363281.429687 30.484375 0 58.65625-16.265625 73.898438-42.667968 15.246094-26.402344 15.246094-58.929688 0-85.332032-15.242188-26.402344-43.414063-42.667968-73.898438-42.667968zm0 0" fill="#fff"/><path d="m164.269531 122.441406c-18.78125-27.53125-51.871093-41.609375-84.730469-36.046875-32.859374 5.5625-59.476562 29.746094-68.152343 61.921875-8.675781 32.175782 2.175781 66.460938 27.785156 87.789063 1.570313 1.351562 3.222656 2.605469 4.949219 3.753906 14.441406 10.535156 31.871094 16.1875 49.75 16.128906 22.636718.019531 44.355468-8.964843 60.359375-24.972656 16.007812-16.007813 24.992187-37.722656 24.972656-60.359375.011719-5.710938-.585937-11.402344-1.792969-16.984375zm0 0" fill="#65ddb9"/><path d="m93.871094 93.855469c-2.851563-.003907-5.703125.167969-8.535156.511719-38.730469 4.492187-67.945313 37.296874-67.945313 76.289062 0 38.988281 29.214844 71.792969 67.945313 76.285156 2.832031.34375 5.683593.515625 8.535156.511719 42.414062 0 76.800781-34.382813 76.800781-76.796875 0-42.417969-34.386719-76.800781-76.800781-76.800781zm0 0" fill="#fff"/><path d="m315.738281 102.386719c0 32.992187-26.746093 59.734375-59.734375 59.734375-32.992187 0-59.734375-26.742188-59.734375-59.734375 0-32.988281 26.742188-59.730469 59.734375-59.730469 32.988282 0 59.734375 26.742188 59.734375 59.730469zm0 0" fill="#2295f2"/><path d="m477.871094 170.65625c0 32.988281-26.746094 59.730469-59.734375 59.730469s-59.734375-26.742188-59.734375-59.730469c0-32.992188 26.746094-59.734375 59.734375-59.734375s59.734375 26.742187 59.734375 59.734375zm0 0" fill="#2295f2"/><path d="m290.136719 102.386719c0 18.851562-15.28125 34.132812-34.132813 34.132812-18.851562 0-34.132812-15.28125-34.132812-34.132812 0-18.851563 15.28125-34.132813 34.132812-34.132813 18.851563 0 34.132813 15.28125 34.132813 34.132813zm0 0" fill="#37474f"/><path d="m452.269531 170.65625c0 18.847656-15.28125 34.132812-34.132812 34.132812-18.851563 0-34.132813-15.285156-34.132813-34.132812 0-18.851562 15.28125-34.136719 34.132813-34.136719 18.851562 0 34.132812 15.285157 34.132812 34.136719zm0 0" fill="#37474f"/><path d="m153.601562 170.65625c0 32.988281-26.742187 59.730469-59.730468 59.730469-32.992188 0-59.734375-26.742188-59.734375-59.730469 0-32.992188 26.742187-59.734375 59.734375-59.734375 32.988281 0 59.730468 26.742187 59.730468 59.734375zm0 0" fill="#2295f2"/><path d="m128.003906 170.65625c0 18.847656-15.28125 34.132812-34.132812 34.132812-18.851563 0-34.132813-15.285156-34.132813-34.132812 0-18.851562 15.28125-34.136719 34.132813-34.136719 18.851562 0 34.132812 15.285157 34.132812 34.136719zm0 0" fill="#37474f"/><path d="m315.738281 290.121094c0 32.988281-26.746093 59.734375-59.734375 59.734375-32.992187 0-59.734375-26.746094-59.734375-59.734375 0-32.988282 26.742188-59.734375 59.734375-59.734375 15.867188-.078125 31.105469 6.1875 42.324219 17.410156 11.222656 11.21875 17.488281 26.457031 17.410156 42.324219zm0 0" fill="#ac1457"/><path d="m311.640625 311.882812c-8.953125 22.910157-31.035156 37.992188-55.636719 37.992188-24.601562 0-46.683594-15.082031-55.636718-37.992188 17.109374-9.09375 36.265624-13.648437 55.636718-13.226562 19.371094-.421875 38.527344 4.132812 55.636719 13.226562zm0 0" fill="#f34335"/><path d="m68.269531 145.054688c0 14.136718-11.460937 25.601562-25.597656 25.601562-14.140625 0-25.601563-11.464844-25.601563-25.601562 0-14.140626 11.460938-25.601563 25.601563-25.601563 14.136719 0 25.597656 11.460937 25.597656 25.601563zm0 0" fill="#fff"/><path d="m230.402344 76.789062c0 14.136719-11.460938 25.597657-25.597656 25.597657-14.140626 0-25.601563-11.460938-25.601563-25.597657 0-14.140624 11.460937-25.601562 25.601563-25.601562 14.136718 0 25.597656 11.460938 25.597656 25.601562zm0 0" fill="#fff"/><path d="m392.535156 145.054688c0 14.136718-11.460937 25.601562-25.597656 25.601562-14.140625 0-25.601562-11.464844-25.601562-25.601562 0-14.140626 11.460937-25.601563 25.601562-25.601563 14.136719 0 25.597656 11.460937 25.597656 25.601563zm0 0" fill="#fff"/><path d="m512.003906 170.65625c.039063-36.40625-20.992187-69.539062-53.953125-84.996094-32.957031-15.453125-71.882812-10.433594-99.84375 12.878906-2.011719-54.992187-47.175781-98.53515575-102.203125-98.53515575-55.03125 0-100.195312 43.54296875-102.203125 98.53515575-39.578125-32.238281-97.671875-26.898437-130.707031 12.019532-33.03125 38.917968-28.863281 97.109375 9.378906 130.921875-19.96875 26.363281-31.308594 58.253906-32.46874975 91.308593-.23828125 29.355469 12.20312475 57.390626 34.13281275 76.910157v59.621093c0 23.566407 19.101562 42.667969 42.667969 42.667969 23.5625 0 42.664062-19.101562 42.664062-42.667969v-16.160156c5.460938 1.507813 11.152344 2.929688 17.066406 4.265625v20.429688c0 18.851562 15.285156 34.132812 34.136719 34.132812h42.664063c18.851562 0 34.132812-15.28125 34.132812-34.132812v-8.621094c2.851562 0 5.675781.085937 8.535156.085937s5.691406-.050781 8.53125-.085937v8.621094c0 18.851562 15.285156 34.132812 34.136719 34.132812h42.664063c18.851562 0 34.132812-15.28125 34.132812-34.132812v-20.480469c5.921875-1.332031 11.613281-2.753906 17.066406-4.265625v16.210937c0 23.566407 19.105469 42.667969 42.667969 42.667969s42.667969-19.101562 42.667969-42.667969v-59.621093c21.929687-19.519531 34.367187-47.554688 34.132812-76.910157-1.144531-33.050781-12.46875-64.941406-32.425781-91.308593 20.585937-17.773438 32.421875-43.625 32.425781-70.824219zm-93.867187-76.800781c32.300781.023437 61.136719 20.253906 72.148437 50.625 11.007813 30.367187 1.835938 64.378906-22.945312 85.097656-1.421875 1.230469-2.921875 2.371094-4.488282 3.414063-12.976562 9.472656-28.648437 14.542968-44.714843 14.460937-42.394531-.050781-76.75-34.40625-76.800781-76.796875.003906-4.75.484374-9.488281 1.433593-14.140625.597657-.957031 1.195313-1.921875 1.757813-2.902344.261718-.355469.492187-.734375.691406-1.125 4.601562-8.183593 8.046875-16.960937 10.242188-26.085937 14.332031-20.421875 37.726562-32.570313 62.675781-32.546875zm-162.132813-76.800781c30.167969-.019532 58.101563 15.902343 73.457032 41.867187 15.355468 25.96875 15.847656 58.121094 1.292968 84.546875-.75.828125-1.328125 1.796875-1.707031 2.847656-15.363281 25.6875-43.09375 41.414063-73.027344 41.414063-29.929687 0-57.664062-15.726563-73.027343-41.414063-.378907-1.03125-.960938-1.976562-1.707032-2.78125-14.589844-26.425781-14.125-58.59375 1.230469-84.582031 15.351563-25.992187 43.300781-41.925781 73.488281-41.898437zm-238.933594 153.601562c-.023437-33.46875 21.640626-63.09375 53.539063-73.214844 31.902344-10.121094 66.683594 1.597656 85.953125 28.960938 2.195312 9.125 5.640625 17.902344 10.242188 26.085937.199218.390625.429687.769531.691406 1.125.5625.980469 1.160156 1.945313 1.757812 2.902344.941406 4.652344 1.417969 9.390625 1.417969 14.140625-.054687 42.390625-34.40625 76.746094-76.800781 76.796875-16.226563.050781-32.039063-5.121094-45.101563-14.753906-1.441406-.957031-2.824219-2.007813-4.128906-3.148438-17.484375-14.558593-27.585937-36.144531-27.570313-58.894531zm196.265626 324.265625h-42.664063c-9.425781 0-17.070313-7.640625-17.070313-17.066406v-17.023438c25.382813 4.4375 51.046876 7.09375 76.800782 7.941407v9.082031c0 4.523437-1.796875 8.867187-4.996094 12.066406-3.203125 3.199219-7.542969 5-12.070312 5zm25.8125-42.839844c-24.863282-.539062-49.664063-2.734375-74.238282-6.570312 10.027344-30.71875 47.359375-52.992188 91.09375-52.992188s81.066406 22.273438 91.117188 52.984375c-24.554688 3.84375-49.339844 6.039063-74.1875 6.578125-11.171875.171875-22.777344.171875-33.785156 0zm102.1875 42.839844h-42.664063c-9.425781 0-17.070313-7.640625-17.070313-17.066406v-9.082031c25.507813-.839844 50.925782-3.453126 76.066407-7.816407.246093-.007812.492187-.027343.734375-.058593v16.957031c0 9.425781-7.640625 17.066406-17.066406 17.066406zm136.535156-110.472656v-34.59375c0-4.714844-3.820313-8.535157-8.535156-8.535157-4.710938 0-8.53125 3.820313-8.53125 8.535157v119.464843c0 14.140626-11.460938 25.601563-25.601563 25.601563-14.136719 0-25.601563-11.460937-25.601563-25.601563v-76.800781c0-4.710937-3.820312-8.53125-8.53125-8.53125-4.714843 0-8.535156 3.820313-8.535156 8.53125v42.890625c-8.53125 2.5-17.535156 4.835938-27.304687 6.824219-.359375.070313-.761719.121094-1.125.199219-11.394531-38.71875-56.046875-66.980469-108.101563-66.980469-52.054687 0-96.707031 28.261719-108.082031 67.023437-.367187-.070312-.761719-.121093-1.121094-.199218-9.792969-2.03125-18.832031-4.367188-27.304687-6.824219v-42.933594c0-4.710937-3.820313-8.53125-8.535156-8.53125-4.710938 0-8.53125 3.820313-8.53125 8.53125v76.800781c0 14.140626-11.460938 25.601563-25.601563 25.601563-14.136719 0-25.597656-11.460937-25.597656-25.601563v-119.464843c0-4.714844-3.820313-8.535157-8.535157-8.535157-4.710937 0-8.53125 3.820313-8.53125 8.535157v34.59375c-11.273437-14.847657-17.285156-33.023438-17.09375-51.660157 1.308594-29.433593 11.507813-57.777343 29.242188-81.296874 14.378906 8.574218 30.816406 13.078124 47.558594 13.027343 48.890625-.074219 89.550781-37.640625 93.488281-86.371093 38.871094 35.519531 98.417969 35.519531 137.285156 0 3.941407 48.730468 44.601563 86.296874 93.492188 86.371093 16.746093.066407 33.191406-4.433593 47.574219-13.011719 17.726562 23.519532 27.917968 51.855469 29.226562 81.28125.199219 18.636719-5.804688 36.808594-17.066406 51.660157zm0 0"/><path d="m256.003906 145.054688c23.5625 0 42.667969-19.101563 42.667969-42.667969 0-23.5625-19.105469-42.664063-42.667969-42.664063-23.566406 0-42.667968 19.101563-42.667968 42.664063.027343 23.554687 19.113281 42.640625 42.667968 42.667969zm0-68.265626c14.136719 0 25.597656 11.460938 25.597656 25.597657 0 14.140625-11.460937 25.601562-25.597656 25.601562-14.140625 0-25.601562-11.460937-25.601562-25.601562 0-14.136719 11.460937-25.597657 25.601562-25.597657zm0 0"/><path d="m418.136719 213.320312c23.5625 0 42.667969-19.101562 42.667969-42.664062 0-23.566406-19.105469-42.667969-42.667969-42.667969s-42.667969 19.101563-42.667969 42.667969c.03125 23.550781 19.117188 42.636719 42.667969 42.664062zm0-68.265624c14.136719 0 25.601562 11.460937 25.601562 25.601562 0 14.136719-11.464843 25.597656-25.601562 25.597656s-25.601563-11.460937-25.601563-25.597656c0-14.140625 11.464844-25.601562 25.601563-25.601562zm0 0"/><path d="m93.871094 213.320312c23.5625 0 42.664062-19.101562 42.664062-42.664062 0-23.566406-19.101562-42.667969-42.664062-42.667969-23.566406 0-42.667969 19.101563-42.667969 42.667969.027344 23.550781 19.113281 42.636719 42.667969 42.664062zm0-68.265624c14.136718 0 25.597656 11.460937 25.597656 25.601562 0 14.136719-11.460938 25.597656-25.597656 25.597656-14.140625 0-25.601563-11.460937-25.601563-25.597656 0-14.140625 11.460938-25.601562 25.601563-25.601562zm0 0"/><path d="m256.003906 221.855469c-37.703125 0-68.265625 30.5625-68.265625 68.265625s30.5625 68.265625 68.265625 68.265625c6.941406.011719 13.847656-1.023438 20.480469-3.070313 12.953125-4.011718 24.398437-11.824218 32.851563-22.425781.222656-.28125.382812-.613281.605468-.898437 1.875-2.402344 3.585938-4.933594 5.121094-7.566407 1.742188-3.03125 3.257812-6.183593 4.53125-9.4375 3.109375-7.921875 4.695312-16.359375 4.675781-24.867187-.042969-37.683594-30.582031-68.222656-68.265625-68.265625zm0 17.066406c28.265625.027344 51.171875 22.933594 51.199219 51.199219-.003906 3.234375-.308594 6.464844-.914063 9.644531-15.945312-6.550781-33.046874-9.832031-50.285156-9.644531-17.238281-.1875-34.339844 3.09375-50.289062 9.644531-.601563-3.179687-.910156-6.410156-.910156-9.644531.027343-28.265625 22.933593-51.171875 51.199218-51.199219zm-7.390625 101.84375c-.800781-.109375-1.570312-.324219-2.355469-.46875-1.605468-.308594-3.199218-.640625-4.742187-1.09375-.898437-.253906-1.761719-.585937-2.640625-.894531-1.390625-.496094-2.769531-1.015625-4.109375-1.621094-.855469-.394531-1.707031-.851562-2.5625-1.273438-1.277344-.675781-2.523437-1.394531-3.726563-2.15625-.8125-.511718-1.605468-1.042968-2.382812-1.597656-1.1875-.851562-2.328125-1.78125-3.414062-2.746094-.691407-.597656-1.398438-1.179687-2.054688-1.808593-1.144531-1.101563-2.210938-2.296875-3.253906-3.507813-.519532-.605468-1.082032-1.167968-1.578125-1.800781-1.335938-1.71875-2.5625-3.519531-3.667969-5.394531-.128906-.210938-.289062-.398438-.410156-.613282v-.058593c28.570312-10.957031 60.179687-10.957031 88.746094 0v.074219c-.117188.214843-.273438.394531-.390626.597656-1.113281 1.878906-2.339843 3.679687-3.679687 5.402344-.503906.640624-1.066406 1.210937-1.59375 1.828124-1.042969 1.203126-2.089844 2.378907-3.226563 3.472657-.675781.648437-1.382812 1.238281-2.082031 1.832031-1.109375.957031-2.234375 1.878906-3.414062 2.722656-.785157.5625-1.585938 1.09375-2.398438 1.613282-1.203125.769531-2.4375 1.476562-3.710937 2.140624-.851563.445313-1.707032.855469-2.558594 1.289063-1.339844.605469-2.714844 1.121094-4.105469 1.613281-.855469.308594-1.707031.640625-2.636719.898438-1.546874.449218-3.140624.785156-4.746093 1.089844-.785157.144531-1.550781.359374-2.355469.46875-4.898438.742187-9.878906.742187-14.777344 0zm0 0"/><path d="m256.003906 409.585938c-4.714844 0-8.535156 3.820312-8.535156 8.535156v8.535156c0 4.710938 3.820312 8.53125 8.535156 8.53125 4.710938 0 8.53125-3.820312 8.53125-8.53125v-8.535156c0-4.714844-3.820312-8.535156-8.53125-8.535156zm0 0"/></svg>