<svg height="512pt" viewBox="-60 0 512 512.02535" width="512pt" xmlns="http://www.w3.org/2000/svg"><path d="m369.082031 381.59375c29.867188 44.371094 14.933594 96.171875-44.800781 96.171875-2.851562.03125-5.699219-.109375-8.535156-.429687-1.449219-.167969-2.898438-.253907-4.265625-.511719-48.980469-6.910157-59.648438-54.269531-32-95.230469 4.59375-6.914062 8.050781-14.519531 10.242187-22.527344-3.414062 1.960938-6.828125 3.753906-10.328125 5.546875-3.410156 1.621094-6.824219 3.242188-10.324219 4.691407-15.875 6.636718-32.585937 11.058593-49.664062 13.140624-4.351562 13.738282-11.519531 44.460938 2.476562 65.453126 17.066407 25.597656 8.53125 55.464843-25.601562 55.464843-2.859375.003907-5.710938-.226562-8.535156-.683593-1.441406-.25-2.867188-.589844-4.265625-1.023438-23.210938-6.570312-27.476563-31.742188-12.800781-53.757812 5.734374-9.351563 8.585937-20.1875 8.195312-31.148438-.183594-11.65625-2.113281-23.21875-5.71875-34.304688-24.769531-3.003906-48.679688-10.953124-70.316406-23.378906.511718 1.875 1.023437 3.667969 1.707031 5.460938.597656 1.621094 1.195313 3.15625 1.878906 4.777344 1.8125 4.304687 4.039063 8.417968 6.65625 12.289062 29.867188 44.371094 14.933594 96.171875-44.800781 96.171875-2.851562.03125-5.699219-.109375-8.535156-.429687-1.449219-.167969-2.898438-.253907-4.265625-.511719-48.980469-6.910157-59.648438-54.269531-32-95.230469 18.601562-27.5625 15.789062-64.9375 10.070312-91.734375-32.277343-56.101563-33.371093-124.878906-2.886719-181.976563 30.484376-57.101562 88.238282-94.460937 152.816407-98.855468 1.453125-.171875 2.816406-.253906 4.265625-.339844 2.816406-.171875 5.632812-.257812 8.535156-.257812 67.027344.023437 128.960938 35.769531 162.511719 93.792968 33.550781 58.027344 33.632812 129.535156.21875 187.636719-5.71875 26.796875-8.535157 64.171875 10.070312 91.734375zm0 0" fill="#00828e"/><path d="m311.480469 476.824219c-48.980469-6.910157-59.648438-54.269531-32-95.230469 4.59375-6.914062 8.050781-14.519531 10.242187-22.527344-3.414062 1.960938-6.828125 3.753906-10.328125 5.546875.683594-1.792969 1.28125-3.671875 1.792969-5.546875-6.664062 3.835938-13.5625 7.257813-20.648438 10.238282 1.445313-3.320313 2.644532-6.742188 3.582032-10.238282-21.632813 12.425782-45.546875 20.375-70.316406 23.378906-3.605469 11.085938-5.53125 22.648438-5.714844 34.304688-.390625 10.960938 2.457031 21.796875 8.191406 31.148438 14.675781 22.015624 10.410156 47.1875-12.800781 53.757812-23.210938-6.570312-27.476563-31.742188-12.800781-53.757812 5.734374-9.351563 8.585937-20.1875 8.195312-31.148438-.183594-11.65625-2.113281-23.21875-5.71875-34.304688-24.769531-3.003906-48.679688-10.953124-70.316406-23.378906.511718 1.875 1.023437 3.667969 1.707031 5.460938-3.496094-1.707032-6.910156-3.5-10.238281-5.460938.9375 3.496094 2.136718 6.917969 3.582031 10.238282-7.085937-2.980469-13.984375-6.402344-20.648437-10.238282 2.1875 8.007813 5.644531 15.613282 10.238281 22.527344 27.648437 40.960938 16.980469 88.320312-32 95.230469-48.980469-6.910157-59.648438-54.269531-32-95.230469 18.601562-27.5625 15.789062-64.9375 10.070312-91.734375-32.277343-56.101563-33.371093-124.878906-2.886719-181.976563 30.484376-57.101562 88.238282-94.460937 152.816407-98.855468 64.578125 4.394531 122.332031 41.753906 152.816406 98.855468 30.484375 57.097657 29.394531 125.875-2.886719 181.976563-5.714844 26.796875-8.53125 64.171875 10.070313 91.734375 27.648437 40.960938 16.980469 88.320312-32 95.230469zm0 0" fill="#00bbd3"/><path d="m349.882812 196.164062c0 5.207032-.257812 10.410157-.769531 15.53125-1.890625 19.105469-7.421875 37.671876-16.296875 54.699219-2.554687 5.117188-5.460937 10.050781-8.707031 14.761719-6.308594 9.699219-13.789063 18.582031-22.269531 26.453125-4.117188 4.023437-8.507813 7.761719-13.144532 11.179687-10.339843 7.878907-21.671874 14.363282-33.703124 19.285157-5.308594 2.246093-10.753907 4.15625-16.300782 5.714843-13.78125 3.988282-28.0625 6-42.410156 5.976563-11.078125.023437-22.125-1.175781-32.9375-3.585937-5.582031-1.183594-11.085938-2.722657-16.46875-4.609376-12.964844-4.320312-25.261719-10.4375-36.523438-18.175781-4.902343-3.230469-9.578124-6.796875-13.996093-10.664062-10.109375-8.597657-19.03125-18.5-26.539063-29.441407-3.300781-4.785156-6.351562-9.742187-9.128906-14.847656-9.414062-17.695312-15.269531-37.058594-17.238281-57.003906-.511719-5.074219-.769531-10.171875-.769531-15.273438v-1.878906c.28125-28.789062 8.746093-56.90625 24.40625-81.066406 3.027343-4.894531 6.390624-9.570312 10.070312-13.992188 9.207031-11.347656 20.015625-21.292968 32.085938-29.527343 4.695312-3.324219 9.597656-6.34375 14.675781-9.042969 19.710937-10.558594 41.503906-16.644531 63.828125-17.835938 2.816406-.171874 5.71875-.257812 8.535156-.257812s5.71875.085938 8.535156.257812c14.019532.722657 27.863282 3.421876 41.128906 8.019532 5.457032 1.808594 10.789063 3.976562 15.957032 6.488281 16.804687 7.886719 32.015625 18.789063 44.886718 32.167969 4.019532 4.09375 7.753907 8.453125 11.175782 13.058594 8.210937 10.53125 14.957031 22.128906 20.054687 34.472656 2.414063 5.628906 4.4375 11.417968 6.058594 17.324218 3.558594 12.527344 5.480469 25.460938 5.71875 38.484376.085937 1.109374.085937 2.21875.085937 3.328124zm0 0" fill="#f4f4f4"/><path d="m273.082031 196.164062c0 42.414063-34.386719 76.800782-76.800781 76.800782s-76.800781-34.386719-76.800781-76.800782c0-42.414062 34.386719-76.800781 76.800781-76.800781s76.800781 34.386719 76.800781 76.800781zm0 0" fill="#4cae50"/><path d="m230.414062 196.164062c0 18.851563-15.28125 34.132813-34.132812 34.132813s-34.132812-15.28125-34.132812-34.132813c0-18.851562 15.28125-34.132812 34.132812-34.132812s34.132812 15.28125 34.132812 34.132812zm0 0" fill="#37474f"/><path d="m179.214844 153.496094c0 18.851562-15.28125 34.132812-34.132813 34.132812-18.851562 0-34.132812-15.28125-34.132812-34.132812 0-18.851563 15.28125-34.132813 34.132812-34.132813 18.851563 0 34.132813 15.28125 34.132813 34.132813zm0 0" fill="#f4f4f4"/><path d="m196.28125 110.832031c-47.128906 0-85.332031 38.203125-85.332031 85.332031 0 47.128907 38.203125 85.332032 85.332031 85.332032s85.332031-38.203125 85.332031-85.332032c-.050781-47.105468-38.226562-85.28125-85.332031-85.332031zm0 153.597657c-37.703125 0-68.265625-30.5625-68.265625-68.265626 0-37.703124 30.5625-68.265624 68.265625-68.265624s68.265625 30.5625 68.265625 68.265624c-.042969 37.683594-30.582031 68.222657-68.265625 68.265626zm0 0"/><path d="m196.28125 153.496094c-23.5625 0-42.667969 19.105468-42.667969 42.667968s19.105469 42.667969 42.667969 42.667969 42.667969-19.105469 42.667969-42.667969c-.03125-23.550781-19.117188-42.640624-42.667969-42.667968zm0 68.269531c-14.136719 0-25.601562-11.464844-25.601562-25.601563 0-14.140624 11.464843-25.601562 25.601562-25.601562s25.601562 11.460938 25.601562 25.601562c0 14.136719-11.464843 25.601563-25.601562 25.601563zm0 0"/><path d="m392.546875 196.164062c-.046875-82.289062-51.421875-155.8125-128.679687-184.148437-77.257813-28.339844-163.988282-5.472656-217.230469 57.269531-53.246094 62.742188-61.695313 152.039063-21.167969 223.65625 5.121094 24.90625 7.585938 59.210938-9.0625 83.890625-17.601562 26.128907-21.253906 56.011719-9.566406 77.996094 10.804687 20.28125 32.625 31.46875 61.441406 31.46875s50.636719-11.1875 61.441406-31.46875c11.628906-21.863281 8.070313-51.550781-9.277344-77.570313 14.765626 6.191407 30.246094 10.523438 46.082032 12.894532 3.609375 13.378906 7.679687 37.109375-2.945313 53.007812-10.632812 14.039063-12.761719 32.761719-5.546875 48.828125 7.886719 13.410157 22.738282 21.140625 38.246094 19.910157 15.507812 1.230468 30.359375-6.5 38.246094-19.910157 7.210937-16.066406 5.085937-34.789062-5.546875-48.828125-10.597657-15.898437-6.554688-39.628906-2.945313-53.007812 15.835938-2.371094 31.316406-6.703125 46.082032-12.894532-17.347657 26.027344-20.90625 55.707032-9.277344 77.570313 10.804687 20.28125 32.625 31.46875 61.441406 31.46875s50.636719-11.1875 61.441406-31.46875c11.6875-21.984375 8.035156-51.867187-9.566406-77.996094-16.648438-24.671875-14.226562-58.972656-9.0625-83.882812 16.722656-29.511719 25.496094-62.863281 25.453125-96.785157zm-30.539063 190.199219c14.054688 20.882813 17.375 44.039063 8.652344 60.433594-7.707031 14.464844-24.191406 22.433594-46.378906 22.433594s-38.671875-7.96875-46.378906-22.433594c-8.722656-16.394531-5.402344-39.550781 8.671875-60.449219 5.089843-7.671875 8.929687-16.105468 11.363281-24.988281.933594-3.332031-.242188-6.902344-2.972656-9.027344-2.734375-2.128906-6.480469-2.394531-9.484375-.671875-20.640625 11.867188-43.460938 19.457032-67.097657 22.3125-3.320312.402344-6.097656 2.707032-7.109374 5.898438-5.410157 17.066406-12.152344 49.269531 3.507812 72.761718 7.066406 8.839844 8.863281 20.78125 4.710938 31.308594-5.03125 7.753906-14.03125 11.976563-23.210938 10.890625-9.179688 1.085938-18.179688-3.136719-23.210938-10.890625-4.152343-10.527344-2.355468-22.46875 4.710938-31.308594 15.660156-23.492187 8.917969-55.671874 3.507812-72.761718-1.011718-3.191406-3.789062-5.496094-7.109374-5.898438-23.636719-2.855468-46.457032-10.445312-67.097657-22.3125-3.003906-1.722656-6.75-1.457031-9.484375.671875-2.730468 2.125-3.90625 5.695313-2.972656 9.027344 2.4375 8.886719 6.28125 17.328125 11.382812 25.003906 14.054688 20.882813 17.375 44.039063 8.652344 60.433594-7.707031 14.464844-24.191406 22.433594-46.378906 22.433594s-38.671875-7.96875-46.378906-22.433594c-8.722656-16.394531-5.402344-39.550781 8.652344-60.425781 20.285156-30.070313 17.367187-70.050782 11.332031-98.292969-.179688-.878906-.503907-1.71875-.953125-2.492187-43.3125-75.324219-26.351563-170.859376 40.242187-226.671876 66.589844-55.808593 163.621094-55.808593 230.210938 0 66.59375 55.8125 83.554687 151.347657 40.242187 226.671876-.449218.773437-.773437 1.613281-.953125 2.492187-6.035156 28.242187-8.960937 68.222656 11.332031 98.285156zm0 0"/><path d="m358.21875 200.082031c0-1.316406.195312-2.5625.195312-3.917969-.027343-17.652343-2.953124-35.179687-8.667968-51.882812-.132813-1.433594-.636719-2.8125-1.460938-3.992188-6.613281-17.992187-16.363281-34.664062-28.800781-49.246093-.488281-.730469-1.085937-1.382813-1.765625-1.9375-51.304688-58.679688-137.253906-72.226563-204.117188-32.164063-.085937 0-.179687 0-.273437.050782-.921875.398437-1.769531.953124-2.5 1.640624-17.386719 10.851563-32.578125 24.878907-44.773437 41.351563h-.050782c-.085937.09375-.113281.214844-.199218.308594-20.554688 27.738281-31.652344 61.347656-31.65625 95.871093 0 2.234376.246093 4.410157.332031 6.628907-.074219.625-.074219 1.253906 0 1.878906 0 .09375.085937.171875.109375.265625 1.394531 26.136719 9.152344 51.542969 22.597656 74 .390625 1.128906 1.019531 2.164062 1.84375 3.027344 10.039062 16.015625 22.789062 30.164062 37.675781 41.816406.742188.832031 1.648438 1.507812 2.660157 1.988281 15.871093 11.9375 33.804687 20.839844 52.90625 26.265625.238281.128906.484374.246094.734374.347656.382813.070313.773438.117188 1.160157.136719 31.070312 8.601563 64.023437 7.519531 94.464843-3.097656 1-.167969 1.960938-.519531 2.832032-1.039063 18.550781-6.734374 35.714844-16.796874 50.648437-29.699218.09375-.109375.230469-.152344.3125-.261719v-.042969c12.882813-11.21875 23.925781-24.394531 32.71875-39.039062.3125-.335938.597657-.695313.851563-1.078125.113281-.261719.207031-.527344.28125-.800781 13.136718-22.53125 20.59375-47.921876 21.726562-73.976563.296875-1.109375.371094-2.265625.214844-3.402344zm-63.25 102.101563-19.625-14.703125 5.347656-10.703125c2.109375-4.21875.398438-9.34375-3.820312-11.449219-4.21875-2.109375-9.347656-.398437-11.453125 3.820313l-8.53125 17.066406c-1.839844 3.695312-.769531 8.175781 2.542969 10.640625l22.003906 16.503906c-9.5 6.953125-19.816406 12.71875-30.71875 17.171875-4.574219-8.652344-8.707032-17.53125-12.390625-26.601562-1.292969-3.234376-4.425781-5.359376-7.910157-5.367188h-17.066406c-4.710937 0-8.53125 3.820312-8.53125 8.535156 0 4.710938 3.820313 8.53125 8.53125 8.53125h11.375c2.160156 5.070313 5.675782 12.945313 9.574219 20.378906-22.457031 6.273438-46.117187 6.90625-68.878906 1.84375l4.058593-16.351562 13.550782-6.765625c2.730468-1.363281 4.523437-4.078125 4.707031-7.121094.183594-3.046875-1.269531-5.957031-3.8125-7.636719-2.542969-1.683593-5.792969-1.878906-8.523437-.515624l-17.066407 8.53125c-2.234375 1.117187-3.867187 3.15625-4.46875 5.582031l-4.867187 19.625c-10.832032-3.761719-21.179688-8.796875-30.820313-15.007813l6.03125-4.011718c1.242188-.828126 2.242188-1.960938 2.910157-3.292969l8.535156-17.066407c2.105468-4.21875.394531-9.347656-3.824219-11.453124-4.21875-2.105469-9.34375-.394532-11.449219 3.824218l-7.511718 15.027344-9.386719 6.261719c-10.5-8.75-19.722657-18.933594-27.390625-30.25l12.800781-12.800781h13.523437c4.714844 0 8.535157-3.820313 8.535157-8.53125 0-4.714844-3.820313-8.535157-8.535157-8.535157h-17.066406c-2.261718 0-4.433594.902344-6.03125 2.5l-12.136718 12.136719c-8.359376-16.25-13.542969-33.941406-15.273438-52.132812l20.1875-4.050782 5.617188 11.226563c2.105468 4.21875 7.234374 5.929687 11.453124 3.824219 4.214844-2.105469 5.925782-7.234376 3.820313-11.449219l-8.53125-17.070313c-1.726563-3.453125-5.558594-5.320312-9.34375-4.546875l-23.742187 4.761719c.632812-25.90625 8.246093-51.164062 22.035156-73.105469l11.945312 11.949219v22.089844c0 4.714844 3.820313 8.535156 8.535156 8.535156 4.710938 0 8.53125-3.820312 8.53125-8.535156v-25.597656c0-2.265626-.898437-4.433594-2.5-6.035157l-16.554687-16.554687c8.417969-10.414063 18.226563-19.621094 29.148437-27.367188l7.578126 18.988282c.777343 1.945312 2.242187 3.535156 4.113281 4.472656l17.066406 8.53125c4.21875 2.109375 9.347656.394531 11.453125-3.820313 2.105469-4.21875.394531-9.347656-3.824219-11.453125l-14.164062-7.082031-7.570313-18.9375c18.691406-10.085937 39.378906-15.914063 60.585938-17.066406v11.316406l-12.347656 6.167969c-4.214844 2.109375-5.929688 7.234375-3.820313 11.453125 2.105469 4.21875 7.234375 5.929687 11.449219 3.824219l17.066406-8.535157c2.894531-1.445312 4.722656-4.402343 4.722656-7.636719v-16.632812c12.296875.679688 24.460938 2.929688 36.1875 6.699219l-9.15625 13.730469c-1.695312 2.542968-1.898437 5.796874-.539062 8.535156l8.535156 17.066406c2.105469 4.214844 7.234375 5.929688 11.453125 3.820312 4.214844-2.105468 5.929687-7.234374 3.820313-11.449218l-6.320313-12.640625 8.414063-12.621094c15.476562 7.160156 29.578124 16.980469 41.65625 29.015625-10.109376 5.035156-20.308594 9.164062-20.476563 9.214844-3.222656 1.316406-5.320313 4.449218-5.308594 7.929687v17.066407c0 4.710937 3.820313 8.53125 8.53125 8.53125 4.714844 0 8.535157-3.820313 8.535157-8.53125v-11.394532c5.042968-2.167968 12.894531-5.683594 20.28125-9.546875 8.617187 10.980469 15.59375 23.148438 20.722656 36.128907l-17.070313 17.066406-11.570312-5.785156c-4.21875-2.105469-9.34375-.394532-11.449219 3.824218-2.109375 4.21875-.398438 9.34375 3.820312 11.449219l17.066407 8.535156c3.285156 1.640625 7.253906.992188 9.847656-1.605469l15.183594-15.179687c2.863281 11.371094 4.332031 23.046875 4.367187 34.773437v.332032l-22.066406 13.21875-4.386719-8.832032c-2.105469-4.21875-7.234375-5.929687-11.453125-3.824218-4.214844 2.109375-5.929687 7.234375-3.820312 11.453125l8.53125 17.066406c1.0625 2.125 2.964844 3.714844 5.25 4.378906.761718.21875 1.550781.332031 2.34375.339844 1.546875 0 3.0625-.417969 4.386718-1.210937l19.507813-11.664063c-2.269531 15.523437-7.070313 30.570313-14.207031 44.542969l-22.324219-13.378906c-2.613281-1.636719-5.910156-1.734376-8.617187-.257813-2.707032 1.480469-4.40625 4.304687-4.441407 7.390625-.035156 3.085938 1.597657 5.949219 4.269531 7.492188l22.546876 13.523437c-6.296876 9.296875-13.644532 17.835937-21.898438 25.449219zm0 0"/></svg>