<svg height="511pt" viewBox="1 0 511 511.99932" width="511pt" xmlns="http://www.w3.org/2000/svg"><path d="m478.367188 190.292969v236.371093c0 42.417969-34.386719 76.800782-76.800782 76.800782h-290.132812c-42.417969 0-76.800782-34.382813-76.800782-76.800782v-236.371093l190.890626-104.960938h61.953124zm0 0" fill="#c42828"/><path d="m452.765625 190.292969v236.371093c.417969 41.992188-33.277344 76.371094-75.265625 76.800782h-267.605469c-41.988281-.429688-75.679687-34.808594-75.261719-76.800782v-236.371093l187.074219-104.960938h63.804688zm0 0" fill="#f34335"/><path d="m503.964844 119.464844c0 61.269531-49.664063 110.933594-110.933594 110.933594-2.21875 0-4.351562-.085938-6.484375-.253907l-2.132813.253907c-1.878906-.167969-3.753906-.339844-5.632812-.597657-51.414062-6.589843-91.375-47.96875-96.171875-99.582031v-.34375c48.984375-60.5 102.230469-80.382812 147.117187-83.199219 1.363282-.167969 2.730469-.167969 4.007813-.253906 15.269531-.707031 30.566406.410156 45.570313 3.328125 15.972656 19.722656 24.679687 44.335938 24.660156 69.714844zm0 0" fill="#ced7db"/><path d="m478.367188 119.464844c-.007813 56.867187-43.015626 104.519531-99.585938 110.335937-51.414062-6.589843-91.375-47.96875-96.171875-99.582031v-.34375c48.984375-60.5 102.230469-80.382812 147.117187-83.199219 8.050782.503907 16.058594 1.527344 23.976563 3.074219 15.972656 19.722656 24.679687 44.335938 24.664063 69.714844zm0 0" fill="#fff"/><path d="m461.300781 119.808594c0 37.703125-30.566406 68.265625-68.269531 68.265625s-68.265625-30.5625-68.265625-68.265625 30.5625-68.269532 68.265625-68.269532 68.269531 30.566407 68.269531 68.269532zm0 0" fill="#ff9701"/><path d="m410.097656 119.808594c0 9.425781-7.640625 17.066406-17.066406 17.066406s-17.066406-7.640625-17.066406-17.066406c0-9.425782 7.640625-17.066406 17.066406-17.066406s17.066406 7.640624 17.066406 17.066406zm0 0" fill="#37474f"/><path d="m79.261719 46.421875c-15.269531-.707031-30.566407.410156-45.566407 3.328125-26.859374 33.242188-32.234374 78.957031-13.816406 117.523438 18.417969 38.5625 57.347656 63.121093 100.085938 63.125 2.902344 0 5.804687-.085938 8.621094-.339844 53.800781-4.144532 96.792968-46.453125 101.800781-100.183594-50.433594-62.292969-105.386719-81.492188-151.125-83.453125zm0 0" fill="#fff"/><path d="m188.230469 119.464844c0 37.703125-30.5625 68.269531-68.265625 68.269531s-68.265625-30.566406-68.265625-68.269531 30.5625-68.265625 68.265625-68.265625 68.265625 30.5625 68.265625 68.265625zm0 0" fill="#ff9701"/><path d="m128.328125 8.875c-29.175781 2.226562-56.257813 15.980469-75.265625 38.226562-6.503906.496094-12.96875 1.378907-19.367188 2.648438 21.023438-26.101562 52.753907-41.261719 86.269532-41.21875 2.816406 0 5.632812.085938 8.363281.34375zm0 0" fill="#802f34"/><path d="m137.03125 119.464844c0 9.425781-7.640625 17.066406-17.066406 17.066406-9.425782 0-17.066406-7.640625-17.066406-17.066406 0-9.425782 7.640624-17.066406 17.066406-17.066406 9.425781 0 17.066406 7.640624 17.066406 17.066406zm0 0" fill="#37474f"/><path d="m145.566406 273.066406h221.867188c18.851562 0 34.132812 15.28125 34.132812 34.132813v119.464843c0 18.851563-15.28125 34.136719-34.132812 34.136719h-221.867188c-18.851562 0-34.132812-15.285156-34.132812-34.136719v-119.464843c0-18.851563 15.28125-34.132813 34.132812-34.132813zm0 0" fill="#ac1457"/><g fill="#f9eab0"><path d="m205.300781 273.066406h51.199219v25.597656c0 14.140626-11.460938 25.601563-25.601562 25.601563-14.136719 0-25.597657-11.460937-25.597657-25.601563zm0 0"/><path d="m154.097656 273.066406h51.203125v25.597656c0 14.140626-11.464843 25.601563-25.601562 25.601563-14.140625 0-25.601563-11.460937-25.601563-25.601563zm0 0"/><path d="m256.5 273.066406h51.199219v25.597656c0 14.140626-11.460938 25.601563-25.601563 25.601563-14.136718 0-25.597656-11.460937-25.597656-25.601563zm0 0"/><path d="m307.699219 273.066406h51.199219v25.597656c0 14.140626-11.460938 25.601563-25.597657 25.601563-14.140625 0-25.601562-11.460937-25.601562-25.601563zm0 0"/></g><path d="m162.71875 416.085938c-.070312-.738282-.101562-1.480469-.085938-2.21875 0-30.636719 41.984376-55.46875 93.867188-55.46875s93.867188 24.832031 93.867188 55.46875c.011718.738281-.015626 1.480468-.085938 2.21875l-93.78125 34.132812zm0 0" fill="#f34335"/><path d="m230.898438 409.597656c14.140624 0 25.601562 11.464844 25.601562 25.601563v25.601562h-51.199219v-25.601562c0-14.136719 11.460938-25.601563 25.597657-25.601563zm0 0" fill="#f9eab0"/><path d="m179.699219 409.597656c14.136719 0 25.601562 11.464844 25.601562 25.601563v25.601562h-51.203125v-25.601562c0-14.136719 11.460938-25.601563 25.601563-25.601563zm0 0" fill="#f9eab0"/><path d="m179.699219 409.597656c9.425781 0 17.066406 7.644532 17.066406 17.066406v34.136719h-34.132813v-34.136719c0-9.421874 7.640626-17.066406 17.066407-17.066406zm0 0" fill="#ffebb2"/><path d="m230.898438 409.597656c9.425781 0 17.066406 7.644532 17.066406 17.066406v34.136719h-34.132813v-34.136719c0-9.421874 7.640625-17.066406 17.066407-17.066406zm0 0" fill="#ffebb2"/><path d="m282.097656 409.597656c14.140625 0 25.601563 11.464844 25.601563 25.601563v25.601562h-51.199219v-25.601562c0-14.136719 11.460938-25.601563 25.597656-25.601563zm0 0" fill="#f9eab0"/><path d="m282.097656 409.597656c9.425782 0 17.066406 7.644532 17.066406 17.066406v34.136719h-34.132812v-34.136719c0-9.421874 7.640625-17.066406 17.066406-17.066406zm0 0" fill="#ffebb2"/><path d="m333.300781 409.597656c14.136719 0 25.597657 11.464844 25.597657 25.601563v25.601562h-51.199219v-25.601562c0-14.136719 11.460937-25.601563 25.601562-25.601563zm0 0" fill="#f9eab0"/><path d="m333.300781 409.597656c9.421875 0 17.066407 7.644532 17.066407 17.066406v34.136719h-34.136719v-34.136719c0-9.421874 7.644531-17.066406 17.070312-17.066406zm0 0" fill="#ffebb2"/><path d="m230.898438 119.464844c0 3.5-.171876 7-.511719 10.410156-50.433594-62.292969-105.386719-81.492188-151.125-83.453125-8.738281-.46875-17.496094-.238281-26.199219.679687 19.007812-22.246093 46.089844-36 75.265625-38.226562 54.550781 4.042969 97.960937 47.34375 102.144531 101.886719.3125 2.890625.453125 5.796875.425782 8.703125zm0 0" fill="#c42828"/><path d="m162.632812 273.066406h34.132813v34.132813c0 9.425781-7.640625 17.066406-17.066406 17.066406s-17.066407-7.640625-17.066407-17.066406zm0 0" fill="#ffebb2"/><path d="m213.832031 273.066406h34.132813v34.132813c0 9.425781-7.640625 17.066406-17.066406 17.066406-9.425782 0-17.066407-7.640625-17.066407-17.066406zm0 0" fill="#ffebb2"/><path d="m265.03125 273.066406h34.132812v34.132813c0 9.425781-7.640624 17.066406-17.066406 17.066406-9.425781 0-17.066406-7.640625-17.066406-17.066406zm0 0" fill="#ffebb2"/><path d="m316.230469 273.066406h34.136719v34.132813c0 9.425781-7.644532 17.066406-17.066407 17.066406-9.425781 0-17.070312-7.640625-17.070312-17.066406zm0 0" fill="#ffebb2"/><path d="m111.433594 85.332031c0 14.140625-11.460938 25.601563-25.601563 25.601563-14.136719 0-25.601562-11.460938-25.601562-25.601563 0-14.136719 11.464843-25.597656 25.601562-25.597656 14.140625 0 25.601563 11.460937 25.601563 25.597656zm0 0" fill="#fff"/><path d="m375.964844 93.867188c0 14.136718-11.460938 25.597656-25.597656 25.597656-14.140626 0-25.601563-11.460938-25.601563-25.597656 0-14.140626 11.460937-25.601563 25.601563-25.601563 14.136718 0 25.597656 11.460937 25.597656 25.601563zm0 0" fill="#fff"/><path d="m479.304688 50.089844c-50.859376-9.726563-127.914063-4.777344-196.695313 80.128906-.339844-3.414062-.511719-6.914062-.511719-10.410156.011719-47.007813 29.640625-88.902344 73.960938-104.570313 44.316406-15.667969 93.695312-1.703125 123.246094 34.851563zm0 0" fill="#c42828"/><path d="m384.667969 8.875c29.175781 2.226562 56.261719 15.980469 75.265625 38.226562 6.503906.496094 12.972656 1.378907 19.371094 2.648438-21.027344-26.101562-52.753907-41.261719-86.273438-41.21875-2.816406 0-5.632812.085938-8.363281.34375zm0 0" fill="#802f34"/><path d="m94.367188 119.464844c0 14.140625 11.460937 25.601562 25.597656 25.601562 14.140625 0 25.601562-11.460937 25.601562-25.601562 0-14.136719-11.460937-25.597656-25.601562-25.597656-14.136719 0-25.597656 11.460937-25.597656 25.597656zm34.132812 0c0 4.714844-3.820312 8.535156-8.535156 8.535156-4.710938 0-8.53125-3.820312-8.53125-8.535156 0-4.710938 3.820312-8.53125 8.53125-8.53125 4.714844 0 8.535156 3.820312 8.535156 8.53125zm0 0"/><path d="m486.496094 45.277344c-.164063-.25-.339844-.488282-.535156-.71875-26.765626-33.316406-69.316407-49.757813-111.53125-43.101563-42.21875 6.660157-77.640626 35.402344-92.851563 75.34375h-50.160156c-15.210938-39.941406-50.632813-68.683593-92.847657-75.34375-42.214843-6.65625-84.765624 9.785157-111.53125 43.101563-.195312.230468-.375.46875-.539062.71875-34.515625 43.1875-34.683594 104.476562-.402344 147.847656v233.539062c.054688 47.109376 38.226563 85.285157 85.335938 85.335938h290.132812c47.105469-.050781 85.28125-38.226562 85.332032-85.335938v-233.539062c34.28125-43.371094 34.117187-104.660156-.402344-147.847656zm-93.464844 176.589844c-51.441406-.085938-94.851562-38.292969-101.46875-89.3125 8.015625-9.703126 16.707031-18.828126 26.007812-27.304688-.878906 4.6875-1.324218 9.445312-1.339843 14.214844-.054688 36.84375 26.0625 68.535156 62.234375 75.523437s72.210937-12.695312 85.882812-46.910156c13.671875-34.210937 1.125-73.308594-29.902344-93.175781 13.386719-.539063 26.792969.359375 39.988282 2.6875 23.628906 30.921875 27.648437 72.574218 10.371094 107.445312-17.277344 34.867188-52.855469 56.902344-91.773438 56.832032zm6.085938-161.800782c32.035156 3.277344 55.703124 31.363282 53.511718 63.488282-2.195312 32.128906-29.460937 56.734374-61.644531 55.632812-32.179687-1.105469-57.699219-27.519531-57.683594-59.722656-.023437-12.820313 4.15625-25.300782 11.894531-35.523438 16.542969-10.859375 34.761719-18.925781 53.921876-23.875zm-6.085938-43c22.394531.007813 44.160156 7.402344 61.925781 21.035156-47.605469-3.117187-107.40625 9.554688-163.472656 68.804688 6.378906-51.257812 49.898437-89.757812 101.546875-89.839844zm-171.519531 89.839844c-56.054688-59.25-115.855469-71.972656-163.457031-68.8125 29.105468-22.277344 67.917968-27.25 101.699218-13.027344 33.78125 14.21875 57.347656 45.453125 61.757813 81.839844zm-41.8125 12.558594c.011719 32.203125-25.503907 58.617187-57.6875 59.722656-32.183594 1.101562-59.449219-23.503906-61.640625-55.632812-2.191406-32.125 21.476562-60.210938 53.511718-63.488282 19.160157 4.949219 37.375 13.023438 53.914063 23.890625 7.738281 10.21875 11.921875 22.691407 11.902344 35.507813zm-141.132813-61.875c13.195313-2.324219 26.601563-3.222656 39.988282-2.6875-31.027344 19.867187-43.578126 58.964844-29.90625 93.175781 13.671874 34.214844 49.710937 53.898437 85.882812 46.910156 36.175781-6.988281 62.289062-38.679687 62.234375-75.523437-.015625-4.761719-.460937-9.511719-1.339844-14.191406 9.304688 8.476562 17.996094 17.601562 26.007813 27.308593-5.417969 42.707031-36.988282 77.457031-78.984375 86.9375-41.992188 9.484375-85.429688-8.332031-108.675781-44.566406-23.246094-36.234375-21.332032-83.144531 4.792968-117.363281zm363 437.34375h-290.132812c-37.6875-.042969-68.226563-30.582032-68.269532-68.269532v-215.824218c33.945313 28.621094 80.972657 36.023437 122.070313 19.21875 41.097656-16.804688 69.460937-55.039063 73.625-99.242188v-.136718c.351563-3.695313.574219-7.425782.574219-11.214844-.019532-8.609375-.96875-17.191406-2.835938-25.597656h39.800782c-1.863282 8.40625-2.8125 16.988281-2.832032 25.597656 0 3.789062.222656 7.519531.570313 11.214844v.136718c4.164062 44.203125 32.53125 82.4375 73.625 99.242188 41.097656 16.804687 88.125 9.402344 122.070312-19.21875v215.824218c-.042969 37.6875-30.582031 68.226563-68.265625 68.269532zm0 0"/><path d="m393.03125 145.066406c14.140625 0 25.601562-11.460937 25.601562-25.601562 0-14.136719-11.460937-25.597656-25.601562-25.597656-14.136719 0-25.597656 11.460937-25.597656 25.597656 0 14.140625 11.460937 25.601562 25.597656 25.601562zm0-34.132812c4.714844 0 8.535156 3.820312 8.535156 8.53125 0 4.714844-3.820312 8.535156-8.535156 8.535156-4.710938 0-8.53125-3.820312-8.53125-8.535156 0-4.710938 3.820312-8.53125 8.53125-8.53125zm0 0"/><path d="m367.433594 264.53125h-221.867188c-23.554687.03125-42.640625 19.117188-42.667968 42.667969v119.464843c.027343 23.554688 19.113281 42.640626 42.667968 42.667969h221.867188c23.550781-.027343 42.636718-19.113281 42.664062-42.667969v-119.464843c-.027344-23.550781-19.113281-42.636719-42.664062-42.667969zm-51.203125 17.066406h34.136719v17.066406c0 9.425782-7.644532 17.070313-17.066407 17.070313-9.425781 0-17.070312-7.644531-17.070312-17.070313zm-17.066407 17.066406c0 9.425782-7.640624 17.070313-17.066406 17.070313-9.425781 0-17.066406-7.644531-17.066406-17.070313v-17.066406h34.132812zm-51.199218 0c0 9.425782-7.640625 17.070313-17.066406 17.070313-9.425782 0-17.066407-7.644531-17.066407-17.070313v-17.066406h34.132813zm-51.199219-17.066406v17.066406c0 9.425782-7.640625 17.070313-17.066406 17.070313s-17.066407-7.644531-17.066407-17.070313v-17.066406zm110.933594 131.261719c-6.398438-7.484375-15.753907-11.792969-25.601563-11.792969s-19.199218 4.308594-25.597656 11.792969c-6.398438-7.484375-15.753906-11.792969-25.601562-11.792969-9.847657 0-19.199219 4.308594-25.597657 11.792969-6.421875-7.457031-15.761719-11.761719-25.601562-11.792969-1.796875.039063-3.582031.21875-5.351563.539063 10.097656-19.714844 43.582032-34.671875 82.152344-34.671875s72.054688 14.957031 82.148438 34.671875c-1.765626-.320313-3.554688-.5-5.347657-.539063-9.839843.03125-19.183593 4.335938-25.601562 11.792969zm-145.066407 22.339844c0-9.425781 7.640626-17.066407 17.066407-17.066407s17.066406 7.640626 17.066406 17.066407v17.066406h-34.132813zm51.199219 0c0-9.425781 7.640625-17.066407 17.066407-17.066407 9.425781 0 17.066406 7.640626 17.066406 17.066407v17.066406h-34.132813zm51.199219 0c0-9.425781 7.640625-17.066407 17.066406-17.066407 9.425782 0 17.066406 7.640626 17.066406 17.066407v17.066406h-34.132812zm51.199219 17.066406v-17.066406c0-9.425781 7.644531-17.066407 17.070312-17.066407 9.421875 0 17.066407 7.640626 17.066407 17.066407v17.066406zm76.800781-25.601563c0 14.140626-11.460938 25.601563-25.597656 25.601563v-17.066406c-.03125-8.285157-3.097656-16.269531-8.621094-22.441407-.929688-35.347656-45.488281-62.890624-102.3125-62.890624s-101.386719 27.542968-102.316406 62.890624c-5.523438 6.171876-8.589844 14.15625-8.617188 22.441407v17.066406c-14.140625 0-25.601562-11.460937-25.601562-25.601563v-119.464843c0-14.136719 11.460937-25.601563 25.601562-25.601563v17.066406c-.0625 14.234376 8.75 27 22.082032 31.988282 13.332031 4.984375 28.359374 1.136718 37.652343-9.644532 6.398438 7.484376 15.75 11.792969 25.597657 11.792969 9.847656 0 19.203124-4.308593 25.601562-11.792969 6.398438 7.484376 15.75 11.792969 25.597656 11.792969s19.203125-4.308593 25.601563-11.792969c9.292969 10.78125 24.320312 14.628907 37.652343 9.644532 13.332032-4.988282 22.144532-17.753906 22.082032-31.988282v-17.066406c14.136718 0 25.597656 11.464844 25.597656 25.601563zm0 0"/></svg>