<svg height="512pt" viewBox="0 -17 512.21525 512" width="512pt" xmlns="http://www.w3.org/2000/svg"><path d="m128.882812 192.277344c-1.363281.257812-2.730468.511718-4.09375.855468-30.839843 5.746094-60.105468 17.992188-85.847656 35.925782 16.214844-71.765625.257813-120.917969-17.320312-150.699219 29.867187 4.042969 58.769531 13.40625 85.332031 27.648437-2.886719 8.488282-4.355469 17.398438-4.351563 26.367188-.070312 21.480469 8.402344 42.113281 23.550782 57.34375.855468.851562 1.792968 1.792969 2.730468 2.558594zm0 0" fill="#ccdb39"/><path d="m485.492188 238.359375c-2.21875 3.328125-4.4375 7.082031-6.65625 11.175781v.085938c-12.117188 22.527344-23.464844 56.664062-26.367188 106.839844-5.488281-14.726563-11.902344-29.089844-19.199219-43.007813-3.839843-7.339844-7.765625-13.910156-11.605469-19.882813.167969-.511718.339844-.941406.511719-1.453124 8.058594-20.96875 5.246094-44.566407-7.511719-63.058594-9.679687-14.152344-23.929687-24.546875-40.359374-29.441406 1.363281-.9375 2.730468-1.964844 4.09375-2.988282 1.707031-1.363281 3.5-2.816406 5.121093-4.351562 32.160157 5.542968 62.730469 18.003906 89.597657 36.523437v.085938c.128906.019531.25.082031.34375.171875v.082031c4.164062 2.871094 8.179687 5.945313 12.03125 9.21875zm0 0" fill="#9d9c24"/><path d="m149.960938 201.410156c-5.035157 1.789063-26.964844 4.265625-31.828126 7.421875-27.253906 18.195313-38.792968 52.492188-28.074218 83.457031l.511718 1.535157c-12.488281 19.878906-22.785156 41.050781-30.71875 63.148437-3.074218-49.410156-14.253906-85.078125-26.285156-107.351562v-.085938c-2.316406-3.566406-4.851562-6.984375-7.59375-10.238281.339844-.257813.683594-.597656 1.023438-.851563 3.785156-3.347656 7.777344-6.453124 11.945312-9.304687v-.082031c25.742188-17.933594 55.007813-30.179688 85.847656-35.925782 2.558594 2.730469 22.699219 5.886719 25.171876 8.277344zm0 0" fill="#ccdb39"/><path d="m473.117188 228.800781c-8.617188-6.132812-17.722657-11.554687-27.21875-16.214843-19.769532-9.582032-40.757813-16.414063-62.378907-20.308594.9375-.765625 1.875-1.707032 2.730469-2.558594 15.148438-15.230469 23.621094-35.863281 23.550781-57.34375.007813-8.96875-1.464843-17.878906-4.351562-26.367188 17.269531-9.199218 35.535156-16.386718 54.441406-21.421874 8.816406-2.378907 17.761719-4.234376 26.796875-5.546876-15.703125 31.746094-27.988281 80.8125-13.570312 149.761719zm0 0" fill="#9d9c24"/><path d="m461.257812 238.359375c-2.21875 3.328125-4.4375 7.082031-6.65625 11.175781v.085938c-10.382812 20.042968-17.578124 41.574218-21.332031 63.832031-3.839843-7.339844-7.765625-13.910156-11.605469-19.882813.167969-.511718.339844-.941406.511719-1.453124 8.058594-20.96875 5.246094-44.566407-7.511719-63.058594-9.679687-14.152344-23.929687-24.546875-40.359374-29.441406 1.363281-.9375 2.730468-1.964844 4.09375-2.988282 25.261718 6.332032 49.152343 17.234375 70.484374 32.171875v.085938c.128907.019531.25.082031.34375.171875v.082031c4.164063 2.871094 8.179688 5.945313 12.03125 9.21875zm0 0" fill="#ccdb39"/><path d="m445.898438 212.585938c-19.769532-9.582032-40.757813-16.414063-62.378907-20.308594.9375-.765625 1.875-1.707032 2.730469-2.558594 15.148438-15.230469 23.621094-35.863281 23.550781-57.34375.007813-8.96875-1.464843-17.878906-4.351562-26.367188 17.269531-9.199218 35.535156-16.386718 54.441406-21.421874-13.226563 29.101562-22.867187 71.167968-13.992187 128zm0 0" fill="#ccdb39"/><path d="m374.730469 337.941406c-6.988281 45.152344-40.335938 81.730469-84.652344 92.84375h-67.753906c-44.234375-11.089844-77.558594-47.539062-84.652344-92.585937l26.113281-284.585938h.085938c9.386718-24.234375 43.007812-42.582031 84.054687-44.714843.167969-.085938.339844 0 .425781 0 2.558594-.171876 5.203126-.257813 7.851563-.257813 44.714844 0 82.34375 19.113281 92.328125 44.972656h.085938zm0 0" fill="#2e7d32"/><path d="m350.066406 337.941406c-6.101562 44.445313-38.117187 80.96875-81.378906 92.84375h-49.632812c-43.179688-11.839844-75.175782-48.242187-81.382813-92.585937l25.105469-284.585938h.078125c9.027343-24.234375 41.351562-42.582031 80.8125-44.714843.160156-.085938.324219 0 .40625 0 39.460937 2.132812 71.785156 20.480468 80.8125 44.714843h.078125zm0 0" fill="#4cae50"/><path d="m409.800781 132.375c.070313 21.480469-8.402343 42.113281-23.550781 57.34375-.855469.851562-1.792969 1.792969-2.730469 2.558594-2.875 2.683594-5.957031 5.136718-9.214843 7.339844l-118.101563 8.53125-12.800781-.9375-105.214844-7.59375h-.085938c-3.257812-2.203126-6.339843-4.65625-9.21875-7.339844-.9375-.765625-1.875-1.707032-2.730468-2.558594-15.148438-15.230469-23.621094-35.863281-23.550782-57.34375-.003906-8.96875 1.464844-17.878906 4.351563-26.367188 2.902344-8.617187 7.261719-16.667968 12.886719-23.808593 10.945312-13.964844 26.175781-23.949219 43.347656-28.417969.171875-.085938.425781-.085938.597656-.167969h.085938c2.21875-.511719 4.351562-.941406 6.570312-1.28125.769532-.085937 1.621094-.257812 2.476563-.339843 18.945312-2.503907 38.15625 1.917968 54.101562 12.457031h58.367188c15.941406-10.539063 35.15625-14.960938 54.101562-12.457031 3.15625.425781 6.058594.9375 9.042969 1.621093h.085938c.171874.082031.425781.082031.597656.167969 17.171875 4.46875 32.402344 14.453125 43.347656 28.417969 5.628906 7.140625 9.984375 15.191406 12.886719 23.808593 2.886719 8.488282 4.359375 17.398438 4.351562 26.367188zm0 0" fill="#2e7d32"/><path d="m384.203125 132.375c.070313 21.480469-8.402344 42.113281-23.554687 57.34375-.851563.851562-1.789063 1.792969-2.730469 2.558594-2.875 2.683594-5.957031 5.136718-9.214844 7.339844l-105.300781 7.59375-105.214844-7.59375h-.085938c-3.257812-2.203126-6.339843-4.65625-9.21875-7.339844-.9375-.765625-1.875-1.707032-2.730468-2.558594-15.148438-15.230469-23.621094-35.863281-23.550782-57.34375-.003906-8.96875 1.464844-17.878906 4.351563-26.367188 2.902344-8.617187 7.261719-16.667968 12.886719-23.808593 10.945312-13.964844 26.175781-23.949219 43.347656-28.417969.171875-.085938.425781-.085938.597656-.167969h.085938c2.21875-.511719 4.351562-.941406 6.570312-1.28125 11.058594 1.832031 21.609375 5.960938 30.976563 12.117188h58.367187c15.945313-10.539063 35.15625-14.960938 54.101563-12.457031.855469.082031 1.707031.253906 2.476562.339843 2.21875.339844 4.351563.769531 6.570313 1.28125h.085937c.167969.082031.425781.082031.59375.167969 17.175781 4.46875 32.40625 14.453125 43.351563 28.417969 5.625 7.140625 9.984375 15.191406 12.886718 23.808593 2.886719 8.488282 4.355469 17.398438 4.351563 26.367188zm0 0" fill="#4cae50"/><path d="m422.175781 292.117188c-.171875.511718-.34375.941406-.511719 1.453124-4.097656 10.210938-10.324218 19.433594-18.261718 27.050782-8.15625 7.824218-17.949219 13.742187-28.671875 17.320312-13.542969 4.273438-28.023438 4.570313-41.730469.855469-5.628906-1.539063-11.347656-2.902344-17.066406-4.011719-1.109375-.339844-2.300782-.511718-3.410156-.769531-30.25-5.882813-61.226563-7.003906-91.820313-3.328125-7.253906.855469-14.507813 2.304688-21.675781 3.839844l-2.304688.511718c-10.304687 2.515626-20.765625 4.339844-31.316406 5.464844-9.308594.929688-18.707031.148438-27.734375-2.304687-2.847656-.820313-5.640625-1.816407-8.359375-2.988281-18.019531-7.933594-32.015625-22.882813-38.742188-41.386719l-.511718-1.535157c-6.503906-18.648437-5.039063-39.152343 4.050781-56.6875 9.089844-17.535156 25.003906-30.550781 43.992187-35.984374h.085938c8.613281-2.316407 17.558594-3.152344 26.453125-2.476563 6.503906.417969 12.957031 1.417969 19.285156 2.988281 4.777344 1.109375 9.554688 2.21875 14.335938 3.15625 5.972656 1.195313 11.859375 2.21875 17.832031 2.988282 19.882812 2.933593 40.023438 3.734374 60.074219 2.390624 6.5625-.5 13.085937-1.382812 19.542969-2.648437 5.800781-1.109375 11.519531-2.300781 17.324218-3.582031 11.058594-2.699219 22.292969-4.636719 33.621094-5.804688 9.320312-.769531 18.703125.246094 27.648438 2.988282 16.429687 4.894531 30.679687 15.289062 40.359374 29.441406 12.757813 18.492187 15.570313 42.089844 7.511719 63.058594zm0 0" fill="#ac1457"/><path d="m183.667969 85.441406c-25.921875 0-46.933594 21.011719-46.933594 46.933594 0 25.917969 21.011719 46.933594 46.933594 46.933594 7.519531.019531 14.929687-1.796875 21.589843-5.292969l22.527344-25.769531c1.894532-5.078125 2.847656-10.453125 2.816406-15.871094 0-12.449219-4.945312-24.386719-13.746093-33.1875s-20.738281-13.746094-33.1875-13.746094zm0 0" fill="#fff"/><path d="m328.734375 85.441406c-12.453125-.023437-24.40625 4.914063-33.210937 13.722656-8.808594 8.804688-13.746094 20.753907-13.722657 33.210938-.03125 5.417969.925781 10.792969 2.816407 15.871094l22.527343 25.769531c4.066407 2.164063 8.441407 3.6875 12.972657 4.523437h.085937c17.484375 3.203126 35.277344-3.746093 45.960937-17.953124 10.683594-14.203126 12.429688-33.226563 4.503907-49.136719-7.925781-15.910157-24.15625-25.980469-41.933594-26.007813zm0 0" fill="#fff"/><path d="m213.535156 128.109375c0 14.136719-11.460937 25.597656-25.601562 25.597656-14.136719 0-25.597656-11.460937-25.597656-25.597656 0-14.140625 11.460937-25.601563 25.597656-25.601563 14.140625 0 25.601562 11.460938 25.601562 25.601563zm0 0" fill="#00bbd3"/><path d="m350.066406 128.109375c0 14.136719-11.460937 25.597656-25.597656 25.597656-14.140625 0-25.601562-11.460937-25.601562-25.597656 0-14.140625 11.460937-25.601563 25.601562-25.601563 14.136719 0 25.597656 11.460938 25.597656 25.601563zm0 0" fill="#00bbd3"/><path d="m307.402344 170.773438c-.003906 1.085937-.089844 2.171874-.257813 3.242187-2.292969 11.453125-8.929687 21.574219-18.515625 28.246094l-.257812.257812c-2.050782 1.5-4.289063 2.734375-6.65625 3.667969-3.964844 1.546875-8.199219 2.300781-12.457032 2.21875h-3.753906l-18.605468-.085938h-4.351563c-4.050781-.050781-8.0625-.800781-11.859375-2.21875-2.421875-.960937-4.714844-2.222656-6.828125-3.753906l-.085937-.085937c-9.585938-6.671875-16.222657-16.792969-18.515626-28.246094-.167968-1.070313-.253906-2.15625-.257812-3.242187 0-11.859376 9.046875-18.941407 22.785156-22.527344 9.308594-2.207032 18.851563-3.238282 28.417969-3.070313 9.5625-.167969 19.109375.863281 28.414063 3.070313 13.738281 3.585937 22.785156 10.667968 22.785156 22.527344zm0 0" fill="#e81e63"/><path d="m315.933594 281.707031v53.078125c-1.109375-.339844-2.300782-.511718-3.410156-.769531-30.25-5.882813-61.226563-7.003906-91.820313-3.328125-7.253906.855469-14.507813 2.304688-21.675781 3.839844l-2.304688.511718v-49.660156c-.167968-1.21875-.253906-2.445312-.253906-3.671875 0-16.496093 13.371094-29.867187 29.867188-29.867187 16.492187 0 29.867187 13.371094 29.867187 29.867187 0-16.496093 13.371094-29.867187 29.863281-29.867187 16.496094 0 29.867188 13.371094 29.867188 29.867187zm0 0" fill="#f34335"/><path d="m290.335938 418.242188v17.066406c0 18.851562-15.28125 34.132812-34.132813 34.132812-2.882813.027344-5.753906-.347656-8.535156-1.109375-5.890625-1.542969-11.277344-4.601562-15.617188-8.875-6.378906-6.421875-9.964843-15.097656-9.984375-24.148437v-17.066406zm0 0" fill="#2e7d32"/><path d="m264.734375 409.707031v19.976563c0 18.578125-9.027344 34.253906-21.332031 38.648437-5.273438-2.09375-9.800782-5.710937-13.015625-10.386719-5.570313-8.359374-8.472657-18.214843-8.320313-28.261718v-19.976563zm0 0" fill="#4cae50"/><g fill="#ffebb2"><path d="m198.261719 203.285156-3.160157 13.824219c-1.355468 5.945313-5.78125 10.714844-11.605468 12.511719-5.828125 1.796875-12.171875.351562-16.640625-3.796875-4.472657-4.148438-6.390625-10.363281-5.03125-16.308594l2.816406-12.375c6.503906.417969 12.957031 1.417969 19.285156 2.988281 4.777344 1.109375 9.554688 2.21875 14.335938 3.15625zm0 0"/><path d="m336.839844 229.996094c-9.207032 2.066406-18.355469-3.691406-20.476563-12.886719l-3.328125-14.675781c11.058594-2.699219 22.292969-4.636719 33.621094-5.804688l2.984375 12.886719c1.023437 4.414063.246094 9.050781-2.152344 12.894531-2.402343 3.839844-6.230469 6.570313-10.648437 7.585938zm0 0"/><path d="m126.066406 308.671875-17.746094 12.460937c-7.960937-7.597656-14.039062-16.949218-17.75-27.308593l-.511718-1.535157 16.46875-11.519531c7.691406-4.695312 17.703125-2.605469 22.871094 4.777344 5.167968 7.378906 3.710937 17.503906-3.332032 23.125zm0 0"/><path d="m422.175781 292.117188c-.171875.511718-.34375.941406-.511719 1.453124-4.097656 10.210938-10.324218 19.433594-18.261718 27.050782l-17.066406-11.949219c-5.421876-3.308594-8.558594-9.359375-8.136719-15.699219.421875-6.335937 4.328125-11.917968 10.144531-14.480468 5.8125-2.566407 12.566406-1.6875 17.53125 2.277343zm0 0"/><path d="m349.640625 325.058594-3.667969 16.042968c-4.386718-.363281-8.730468-1.132812-12.972656-2.304687-6.738281-1.878906-13.652344-3.414063-20.476562-4.78125l3.410156-14.761719.429687-1.875c2.121094-9.191406 11.289063-14.921875 20.476563-12.800781 9.191406 2.121094 14.921875 11.289063 12.800781 20.480469zm0 0"/><path d="m200.734375 334.1875c-.597656.085938-1.109375.257812-1.707031.339844l-2.304688.511718c-9.75 2.375-19.640625 4.144532-29.609375 5.292969l-3.5-15.273437c-1.019531-4.414063-.246093-9.054688 2.15625-12.894532 2.402344-3.84375 6.230469-6.570312 10.644531-7.585937 8.992188-2.144531 18.039063 3.328125 20.308594 12.285156.097656.15625.15625.332031.171875.515625l.425781 1.875zm0 0"/></g><path d="m.203125 76.207031c-.1953125 2.265625.523437 4.515625 1.992187 6.246094 1.472657 1.734375 3.574219 2.808594 5.839844 2.988281 2.765625.230469 5.511719.570313 8.269532.894532 15.179687 27.410156 28.9375 72.636718 14.914062 137.882812-2.984375 2.210938-5.972656 4.554688-8.863281 6.988281-.0625 0-.121094 0-.179688.078125-.207031.136719-.316406.355469-.503906.511719-6.871094 5.742187-13.324219 11.96875-19.304687 18.636719-2.15625 2.253906-2.910157 5.507812-1.96875 8.480468.945312 2.976563 3.4375 5.199219 6.5 5.796876 3.066406.59375 6.210937-.527344 8.203124-2.929688 3.191407-3.582031 6.511719-6.902344 9.882813-10.09375.246094.433594.484375.851562.722656 1.269531.113281.242188.222657.480469.34375.710938 15.566407 31.6875 24.171875 66.339843 25.238281 101.632812-5.972656 15.988281-11.523437 33.378907-16.65625 52.164063-1.238281 4.546875 1.445313 9.238281 5.992188 10.476562 4.546875 1.242188 9.238281-1.441406 10.476562-5.988281 8.847657-34.863281 21.859376-68.53125 38.75-100.285156 3.488282 5.714843 7.695313 10.957031 12.527344 15.589843 6.859375 6.628907 14.847656 11.976563 23.585938 15.796876 1.453125.621093 2.757812.980468 4.15625 1.484374 8.75 43.84375 40.847656 79.351563 83.585937 92.476563.792969 22.894531 19.585938 41.046875 42.496094 41.046875s41.699219-18.152344 42.496094-41.046875c42.898437-13.160156 75.050781-48.894531 83.625-92.9375 10.023437-4.019531 19.191406-9.90625 27.015625-17.347656 4.875-4.75 9.1875-10.046875 12.84375-15.789063 8.640625 15.585938 16.097656 31.800782 22.304687 48.503906 5.976563 15.789063 11.617188 33.441407 16.820313 52.496094 1.007812 3.714844 4.378906 6.296875 8.226562 6.300782.761719-.003907 1.523438-.105469 2.261719-.300782 2.183594-.597656 4.039063-2.039062 5.160156-4.003906 1.117188-1.96875 1.410157-4.300781.8125-6.484375-5.121093-18.847656-10.761719-36.359375-16.65625-52.1875 1.070313-35.277344 9.679688-69.921875 25.242188-101.597656.109375-.222657.21875-.453125.324219-.683594.253906-.46875.492187-.851563.75-1.324219 3.414062 3.253906 6.722656 6.605469 9.882812 10.140625 3.152344 3.457031 8.507812 3.726563 11.996094.605469 3.488281-3.121094 3.808594-8.472656.71875-11.992188-5.914063-6.609374-12.265625-12.8125-19.015625-18.566406-3.308594-2.800781-6.707031-5.351562-10.101563-7.792968-12.730468-64-1.3125-109.402344 11.570313-137.300782 3.867187-.546875 7.851562-1.023437 11.851562-1.339844 4.707031-.367187 8.222657-4.480468 7.855469-9.183593-.367188-4.707031-4.480469-8.222657-9.183594-7.855469-4.53125.359375-9.070312.851562-13.355468 1.5-27.730469 3.765625-54.671876 11.980469-79.785157 24.328125-10.714843-23.078125-30.820312-40.449219-55.210937-47.699219-13.5-27.503906-53.054688-46.394531-98.449219-46.394531-45.398437 0-84.949219 18.898437-98.449219 46.417969-17.644531 5.3125-33.230468 15.917968-44.648437 30.378906-4.167969 5.347656-7.714844 11.152344-10.5625 17.308594-29.144531-14.371094-60.726563-23.132813-93.109375-25.839844-2.265625-.195312-4.511719.523438-6.246094 1.996094-1.734375 1.46875-2.808594 3.570312-2.984375 5.835937zm36.878906 13.5c20.710938 4.304688 40.773438 11.289063 59.683594 20.769531-6.664063 26.613282-.832031 54.8125 15.84375 76.597657-21.585937 5.160156-42.34375 13.328125-61.660156 24.257812 7.574219-41.019531 2.746093-83.363281-13.867188-121.625zm4.359375 156.585938v-.058594c-.101562-.238281-.210937-.476563-.332031-.699219-.980469-1.800781-1.945313-3.480468-2.910156-5.121094 20.726562-15.742187 44.269531-27.382812 69.359375-34.292968-25.476563 20.847656-35.84375 55.015625-26.246094 86.507812-5.992188 9.695313-11.417969 19.722656-16.257812 30.039063-3.476563-26.625-11.460938-52.464844-23.613282-76.40625zm68.03125 63.574219c-3.636718-4.40625-6.652344-9.285157-8.96875-14.507813l10.964844-7.679687c1.820312-1.304688 4.089844-1.816407 6.296875-1.421876 2.253906.394532 4.25 1.691407 5.53125 3.589844 1.300781 1.824219 1.816406 4.09375 1.421875 6.296875-.394531 2.238281-1.671875 4.222657-3.546875 5.503907zm12.984375 11.734374 8.464844-5.972656c8.019531-5.015625 12.621094-14.042968 11.96875-23.476562-.65625-9.4375-6.457031-17.742188-15.09375-21.601563-8.632813-3.859375-18.691406-2.644531-26.160156 3.160157l-6.144531 4.269531c-4.851563-31.21875 14.167968-61.207031 44.476562-70.121094.164062 0 .332031-.066406.503906-.109375 4.398438-1.15625 8.90625-1.855469 13.449219-2.082031l-.410156 1.824219c-2.21875 8.980468.582031 18.460937 7.324219 24.796874 6.742187 6.332032 16.375 8.539063 25.203124 5.765626 8.824219-2.773438 15.46875-10.089844 17.375-19.144532l1.339844-5.84375c3.542969.613282 6.9375 1.152344 10.105469 1.550782 20.476563 3.011718 41.214844 3.839843 61.863281 2.46875 6.910156-.527344 13.78125-1.457032 20.585938-2.78125 3.097656-.589844 6.175781-1.273438 9.25-1.914063l1.484375 6.546875c2.042969 8.914062 8.691406 16.0625 17.433593 18.75 8.746094 2.683594 18.257813.5 24.957032-5.726562 6.699218-6.230469 9.566406-15.558594 7.519531-24.476563l-.5625-2.433594c4.921875.328125 9.789063 1.214844 14.507813 2.648438 14.554687 4.320312 27.175781 13.523437 35.746093 26.058593 8.964844 12.929688 12.386719 28.910157 9.496094 44.375l-6.28125-4.378906c-7.453125-5.820312-17.511719-7.054687-26.152344-3.214844-8.644531 3.84375-14.464843 12.136719-15.136719 21.570313-.671874 9.433594 3.910157 18.46875 11.917969 23.5l7.773438 5.445313c-5.257813 3.714843-11.023438 6.652343-17.117188 8.722656-5.011719 1.605468-10.203125 2.578125-15.453125 2.890625l1.3125-5.734375c2.101563-9.113282-.933594-18.648438-7.917968-24.867188-6.984376-6.222656-16.808594-8.136718-25.617188-5v-15.359375c-.011719-16.265625-10.273438-30.761719-25.613281-36.179687-15.339844-5.417969-32.429688-.578125-42.652344 12.074218-10.226563-12.652343-27.316406-17.492187-42.65625-12.074218-15.335937 5.417968-25.597656 19.914062-25.613281 36.179687 0 1.425781.085937 2.851563.257812 4.265625v11.632813c-8.851562-3.667969-19.011718-2.074219-26.316406 4.121093-7.304688 6.199219-10.53125 15.960938-8.355469 25.292969l1.210938 5.273438c-4.988281-.167969-9.9375-.933594-14.746094-2.277344h-.050781c-2.445313-.699219-4.839844-1.554687-7.175782-2.5625-3.605468-1.617187-7.050781-3.566406-10.300781-5.816406zm61.210938-150.828124c-21.207031 0-38.398438-17.191407-38.398438-38.398438s17.191407-38.402344 38.398438-38.402344 38.398437 17.195313 38.398437 38.402344c-.03125 3.0625-.445312 6.109375-1.226562 9.070312-19.21875 6.585938-23.644532 18.832032-24.269532 27.066407-4.136718 1.503906-8.503906 2.269531-12.902343 2.261719zm106.667969-38.398438c0-21.207031 17.191406-38.402344 38.398437-38.402344s38.402344 17.195313 38.402344 38.402344-17.195313 38.398438-38.402344 38.398438c-4.398437.007812-8.765625-.757813-12.902344-2.261719-.621093-8.234375-5.050781-20.480469-24.269531-27.074219-.78125-2.960938-1.195312-6.003906-1.226562-9.0625zm49.722656 73.574219 1.273437 5.496093c1.066407 4.574219-1.765625 9.148438-6.332031 10.238282-4.625 1.046875-9.226562-1.828125-10.316406-6.441406l-1.425782-6.289063c5.742188-1.230469 11.28125-2.253906 16.800782-3.003906zm-57.589844-49.441407c16.398438 4.273438 16.398438 11.792969 16.398438 14.265626-.007813.71875-.066407 1.433593-.179688 2.144531-2.023438 9.195312-7.472656 17.277343-15.238281 22.601562-.519531.394531-1.101563.734375-1.648438 1.109375v-8.789062c0-4.710938-3.820312-8.53125-8.53125-8.53125-4.714843 0-8.535156 3.820312-8.535156 8.53125v12.75c-5.675781.144531-11.355469.171875-17.066406 0v-12.75c0-4.710938-3.820313-8.53125-8.53125-8.53125-4.714844 0-8.535157 3.820312-8.535157 8.53125v8.746094c-.5625-.382813-1.136718-.714844-1.707031-1.132813-7.796875-5.363281-13.246093-13.511719-15.222656-22.765625-.09375-.632812-.140625-1.273438-.136719-1.914062 0-2.472657 0-9.992188 16.425782-14.277344 8.597656-2.023438 17.410156-2.960938 26.242187-2.789063 8.835937-.171875 17.660156.769531 26.265625 2.800781zm-112.316406 54.902344 1.132812-4.984375c3.335938.46875 6.828125 1.101563 10.710938 2.015625 2.011718.46875 4.011718.851563 6.023437 1.332032l-1.238281 5.410156c-1.050781 4.605468-5.621094 7.507812-10.238281 6.5-2.207031-.507813-4.121094-1.871094-5.324219-3.792969-1.199219-1.921875-1.585938-4.238281-1.074219-6.445313zm248.183594-79.035156c0-7.347656-.894532-14.671875-2.664063-21.804688 18.027344-9.050781 37.097656-15.847656 56.78125-20.238281-14.175781 38.652344-18 80.34375-11.09375 120.933594-19.273437-10.964844-40.019531-19.121094-61.601563-24.21875 12.082032-15.660156 18.613282-34.894531 18.578126-54.671875zm-16.113282 177.007812-11.03125-7.722656c-2.804687-1.988281-4.144531-5.460937-3.398437-8.816406.746093-3.351562 3.429687-5.933594 6.8125-6.546875 2.230469-.371094 4.519531.15625 6.363281 1.46875l10.558594 7.347656c-2.5 5.125-5.625 9.914063-9.304688 14.269531zm-230.21875 21.816407-1.859375-8.035157c-.527343-2.207031-.144531-4.527343 1.066407-6.445312 1.203124-1.925781 3.125-3.292969 5.339843-3.796875 2.203125-.527344 4.527344-.148437 6.445313 1.058594 1.917968 1.203125 3.28125 3.121093 3.785156 5.332031l1.632812 7.085938.375 1.652343c-5.710937 1.203125-11.289062 2.296875-16.785156 3.148438zm33.484375-6.671875-.230469-1.007813v-38.140625c-.003906-.417968-.03125-.835937-.085937-1.246094-.117187-.804687-.171875-1.613281-.171875-2.425781 0-11.78125 9.554688-21.332031 21.335938-21.332031s21.332031 9.550781 21.332031 21.332031v8.535157c0 4.710937 3.820312 8.53125 8.535156 8.53125 4.710937 0 8.53125-3.820313 8.53125-8.53125v-8.535157c0-11.78125 9.550781-21.332031 21.332031-21.332031 11.785156 0 21.335938 9.550781 21.335938 21.332031v36.53125l-1.390625 5.972657c-16.480469-2.800782-33.164063-4.226563-49.878907-4.265626-12.171874.003907-24.335937.734376-36.417968 2.191407-4.824219.640625-9.59375 1.460937-14.226563 2.355469zm119.183594-5.195313c1.0625-4.601562 5.65625-7.46875 10.253906-6.40625 4.601563 1.0625 7.46875 5.652344 6.40625 10.253907l-1.921875 8.363281c-1.375-.28125-2.746094-.554688-4.105468-.921875-3.839844-1.074219-7.960938-2.089844-12.515626-3.105469zm-25.804687 99.53125v-.621093c0-4.714844-3.820313-8.535157-8.53125-8.535157-4.714844 0-8.535157 3.820313-8.535157 8.535157v10.863281c-.222656 1.089843-.222656 2.21875 0 3.308593v2.894532c0 14.136718-11.460937 25.597656-25.597656 25.597656-14.140625 0-25.601563-11.460938-25.601563-25.597656v-2.894532c.222657-1.089843.222657-2.21875 0-3.308593v-10.863281c0-4.714844-3.820312-8.535157-8.535156-8.535157-4.710937 0-8.53125 3.820313-8.53125 8.535157v.621093c-31.644531-11.53125-55.820312-37.566406-64.988281-69.972656 5.597656.566406 11.242187.625 16.851563.171875h.699218c10.730469-1.125 21.371094-2.964844 31.855469-5.503906v-.113282h.605469l2.277344-.511718c6.699218-1.441406 13.859374-2.882813 20.898437-3.710938 29.675781-3.613281 59.734375-2.546875 89.082031 3.15625 7.859375 1.578125 14.164063 3.046875 19.898438 4.652344 4.699218 1.292969 9.503906 2.148438 14.363281 2.558594 2.558594.257812 5.179687.394531 7.78125.394531 3.636719-.015625 7.265625-.289063 10.863281-.8125-9.210937 32.277344-33.324218 58.1875-64.855468 69.691406zm172.109374-172.636719c-12.164062 23.96875-20.15625 49.835938-23.628906 76.492188-4.878906-10.378906-10.347656-20.464844-16.382812-30.214844 7.871094-22.941406 4.445312-48.25-9.242188-68.269531-4.757812-6.972656-10.566406-13.167969-17.21875-18.363281 22.578125 6.15625 43.933594 16.132812 63.144532 29.5.300781.277344.621093.53125.957031.761718 1.867187 1.285157 3.703125 2.839844 5.5625 4.265626-.957031 1.621093-1.902344 3.269531-2.867188 5.042968-.058593.28125-.210937.539063-.324219.785156zm-344.421874-158.773437c9.8125-12.46875 23.429687-21.394531 38.785156-25.410156l.304687-.085938h.09375c2.757813-.613281 5.421875-1.09375 8.261719-1.476562 16.929688-2.246094 34.101562 1.707031 48.339844 11.136719 2.554687 1.675781 5.804687 1.863281 8.535156.492187 2.726562-1.371094 4.515625-4.09375 4.691406-7.140625.175782-3.050781-1.285156-5.960938-3.839844-7.636719-14.449218-9.5-31.363281-14.558593-48.65625-14.558593-.628906 0-1.355468.121093-1.996093.136718 15.136719-15.496094 43.691406-25.734375 75.128906-25.734375 31.433594 0 59.988281 10.238281 75.09375 25.734375-.652344 0-1.367187-.136718-2-.136718-17.28125-.011719-34.1875 5.027343-48.636719 14.507812-3.945312 2.589844-5.042968 7.890625-2.449218 11.835938 2.589843 3.945312 7.890624 5.039062 11.832031 2.449218 14.226562-9.414062 31.371093-13.375 48.285156-11.144531 2.898437.390625 5.5625.851563 8.316406 1.484375h.097657l.304687.085938c15.351563 4.015624 28.96875 12.9375 38.777344 25.410156 5.042969 6.394531 8.945312 13.613281 11.535156 21.335937 2.59375 7.609375 3.914063 15.59375 3.910156 23.636719.082031 19.222656-7.492187 37.683594-21.054687 51.308594-.65625.660156-1.363282 1.382812-2.558594 2.382812-1.640625 1.515625-3.363281 2.941406-5.164062 4.265625-8.667969-2.179687-17.632813-2.933593-26.546876-2.226562-11.710937 1.191406-23.324218 3.1875-34.761718 5.972656h-.042969c-1.230469.273437-2.433594.496094-3.664063.761719 2.085938-2.960938 3.851563-6.132813 5.265626-9.464844 5.179687 1.613281 10.570312 2.441406 15.992187 2.464844 30.632813 0 55.46875-24.832032 55.46875-55.464844s-24.835937-55.46875-55.46875-55.46875-55.464844 24.835938-55.464844 55.46875c0 1.792969.289063 3.496094.449219 5.246094-11.640625-1.308594-23.394531-1.308594-35.035156 0 .160156-1.707032.453125-3.414063.453125-5.246094 0-30.632812-24.835938-55.46875-55.46875-55.46875-30.632813 0-55.464844 24.835938-55.464844 55.46875s24.832031 55.464844 55.464844 55.464844c5.429687-.019532 10.824219-.84375 16.007812-2.449219 1.597657 3.757813 3.625 7.316406 6.050781 10.601563-1.910156-.351563-3.78125-.667969-5.835937-1.085938-4.667969-.914062-9.386719-1.996094-13.988281-3.070312-6.789063-1.6875-13.71875-2.761719-20.699219-3.210938-8.4375-.574219-16.910156.039062-25.175781 1.820312-2-1.496093-3.917969-3.09375-5.75-4.789062-.722656-.617188-1.414063-1.269531-2.074219-1.953125-19.457031-19.734375-26.097656-48.765625-17.152344-74.992187 2.585938-7.695313 6.476563-14.886719 11.503907-21.257813zm0 0"/><path d="m196.46875 128.109375c0 4.710937-3.820312 8.53125-8.535156 8.53125-4.710938 0-8.53125-3.820313-8.53125-8.53125 0-4.714844 3.820312-8.535156 8.53125-8.535156 4.714844 0 8.535156 3.820312 8.535156 8.535156zm0 0"/><path d="m333 128.109375c0 4.710937-3.820312 8.53125-8.53125 8.53125-4.714844 0-8.535156-3.820313-8.535156-8.53125 0-4.714844 3.820312-8.535156 8.535156-8.535156 4.710938 0 8.53125 3.820312 8.53125 8.535156zm0 0"/></svg>