<svg height="504pt" viewBox="0 0 504.99221 504" width="504pt" xmlns="http://www.w3.org/2000/svg"><path d="m115.40625 470.191406c-28.367188 21.824219-58.164062 34.246094-79.066406 19.558594-4.578125-3.289062-8.460938-7.453125-11.414063-12.253906-9.402343-14.605469-15.445312-38.777344-16.199219-75.457032-.167968-5.371093-.167968-10.996093-.082031-16.871093.082031-4.953125.25-9.988281.5-15.359375 1.007813-23.222656 5.128907-46.199219 12.257813-68.324219 2.011718-6.546875 4.363281-12.757813 6.882812-18.882813 9.660156-23.433593 22.664063-45.347656 38.609375-65.050781 1.464844-1.777343 3.582031-2.894531 5.875-3.105469l36.089844-3.273437c2.382813-.214844 4.746094.59375 6.492187 2.230469 1.75 1.636718 2.714844 3.9375 2.65625 6.332031l-2.683593 103.320313c-.0625 1.953124-.804688 3.824218-2.097657 5.289062-21.828124 23.597656-37.40625 52.277344-45.328124 83.429688-9.316407 42.136718 17.207031 46.921874 41.382812 43.3125 3.78125-.449219 7.394531 1.6875 8.824219 5.214843 1.433593 3.53125.328125 7.578125-2.699219 9.890625zm0 0" fill="#fdc008"/><path d="m495.882812 385.25c.082032 5.875.082032 11.5-.085937 16.871094-.753906 36.261718-6.628906 60.265625-15.863281 74.871094-2.953125 4.875-6.828125 9.121093-11.414063 12.507812-10.195312 6.859375-22.992187 8.625-34.664062 4.78125-16.355469-5.003906-31.558594-13.191406-44.738281-24.089844-2.574219-1.996094-3.789063-5.285156-3.128907-8.476562.660157-3.195313 3.078125-5.730469 6.234375-6.546875.996094-.195313 2.015625-.226563 3.023438-.082031 24.171875 3.609374 50.695312-1.175782 41.378906-43.3125-8.179688-31.976563-24.355469-61.351563-47.003906-85.359376l-27.78125-107.101562-.167969-.585938 78.476563 1.761719c14.933593 19.207031 27.191406 40.359375 36.429687 62.867188 2.5625 6.144531 4.804687 12.421875 6.714844 18.800781 7.019531 21.914062 11.085937 44.664062 12.085937 67.652344.25 5.371094.417969 10.492187.503906 15.441406zm0 0" fill="#ff9701"/><path d="m470.703125 385.25c.082031 5.875.082031 11.5-.085937 16.871094-.753907 36.261718-6.628907 60.265625-15.863282 74.871094-2.953125 4.875-6.828125 9.121093-11.414062 12.507812-2.871094 2.117188-6.078125 3.734375-9.484375 4.78125-16.355469-5.003906-31.558594-13.191406-44.738281-24.089844-2.574219-1.996094-3.789063-5.285156-3.128907-8.476562.660157-3.195313 3.078125-5.730469 6.234375-6.546875.996094-.195313 2.015625-.226563 3.023438-.082031 24.171875 3.609374 50.695312-1.175782 41.378906-43.3125-8.179688-31.976563-24.355469-61.351563-47.003906-85.359376l-27.78125-107.101562 53.128906 1.175781c14.933594 19.207031 27.1875 40.359375 36.429688 62.867188 2.5625 6.144531 4.804687 12.421875 6.714843 18.800781 7.019531 21.914062 11.085938 44.664062 12.085938 67.652344.25 5.371094.417969 10.492187.503906 15.441406zm0 0" fill="#fdc008"/><path d="m419.667969 229.722656c-8.140625 102.148438-79.820313 182.050782-167.113281 182.050782-2.601563 0-5.285157-.082032-7.886719-.25h-.503907c-85.78125-5.035157-154.609374-87.375-159.226562-190.195313l24.847656-116.921875c28.199219-54.808594 77.804688-92.074219 134.796875-95.265625 2.601563-.167969 5.289063-.25 7.972657-.25 60.265624 0 113.144531 38.105469 142.691406 95.433594zm0 0" fill="#d74315"/><path d="m395.246094 229.722656c-7.679688 98.957032-73.386719 177.015625-154.785156 181.800782h-.496094c-83.511719-5.035157-150.527344-87.375-155.027344-190.195313l24.191406-116.921875c27.464844-54.808594 75.757813-92.074219 131.25-95.265625 55.394532 3.191406 103.625 40.457031 131.085938 95.183594zm0 0" fill="#ff5722"/><path d="m126.65625 134.792969-4.871094 26.855469c-34.160156-43.476563-88.71875-41.882813-112.640625-43.726563-1.136719-11.136719-1.136719-22.355469 0-33.492187 100.722657-25.179688 117.511719 50.363281 117.511719 50.363281zm0 0" fill="#ff5722"/><path d="m121.785156 161.648438-8.84375 48.609374c-.875 4.652344-3.660156 8.722657-7.675781 11.226563-4.015625 2.507813-8.898437 3.214844-13.460937 1.949219-63.136719-17.097656-79.191407-70.175782-82.660157-105.511719 23.921875 1.84375 78.480469.25 112.640625 43.726563zm0 0" fill="#e81e63"/><path d="m496.050781 117.921875c-24.175781 1.84375-72.015625.25-112.976562 45.238281l-4.785157-28.367187s16.789063-75.542969 117.507813-50.363281c1.105469 11.132812 1.191406 22.34375.253906 33.492187zm0 0" fill="#ff5722"/><path d="m496.050781 117.921875c-3.105469 37.601563-18.382812 95.683594-82.339843 113.730469-5.425782 1.546875-11.265626.324218-15.613282-3.273438-3.066406-2.5625-5.121094-6.132812-5.789062-10.074218l-9.234375-55.144532c22.542969-25.136718 53.886719-40.644531 87.542969-43.308594 9.90625-1.175781 18.632812-1.425781 25.433593-1.929687zm0 0" fill="#ac1457"/><path d="m470.617188 119.851562c-3.273438 35.585938-17.625 88.046876-72.519532 108.527344-3.066406-2.5625-5.121094-6.132812-5.789062-10.074218l-9.234375-55.144532c22.542969-25.136718 53.886719-40.644531 87.542969-43.308594zm0 0" fill="#e81e63"/><path d="m311.308594 143.183594c-2.8125-.03125-5.621094.191406-8.390625.671875-28.921875 4.097656-50.402344 28.875-50.363281 58.082031.042968-10.652344-2.859376-21.109375-8.390626-30.214844-10.585937-17.722656-29.71875-28.566406-50.363281-28.539062-2.8125-.03125-5.621093.191406-8.390625.671875-28.96875 4.125-50.460937 28.96875-50.378906 58.230469.085938 29.257812 21.722656 53.976562 50.714844 57.933593 2.65625.480469 5.355468.707031 8.054687.671875 6.007813.023438 11.980469-.882812 17.710938-2.683594h82.089843c2.925782.9375 5.933594 1.609376 8.980469 2.011719 2.886719.4375 5.804688.660157 8.726563.671875 32.449218 0 58.753906-26.304687 58.753906-58.753906s-26.304688-58.753906-58.753906-58.753906zm0 0" fill="#fff"/><path d="m302.582031 260.019531c-2.660156.480469-5.359375.707031-8.058593.671875-6.007813.023438-11.980469-.882812-17.710938-2.683594h16.789062c2.925782.9375 5.933594 1.609376 8.980469 2.011719zm0 0" fill="#fff"/><path d="m227.375 201.9375c0 18.542969-15.03125 33.574219-33.574219 33.574219s-33.574219-15.03125-33.574219-33.574219 15.03125-33.574219 33.574219-33.574219 33.574219 15.03125 33.574219 33.574219zm0 0" fill="#8ac24a"/><path d="m344.882812 201.9375c0 18.542969-15.03125 33.574219-33.574218 33.574219-18.539063 0-33.570313-15.03125-33.570313-33.574219s15.03125-33.574219 33.570313-33.574219c18.542968 0 33.574218 15.03125 33.574218 33.574219zm0 0" fill="#8ac24a"/><path d="m210.589844 201.9375c0 9.273438-7.515625 16.789062-16.789063 16.789062-9.269531 0-16.785156-7.515624-16.785156-16.789062 0-9.269531 7.515625-16.785156 16.785156-16.785156 9.273438 0 16.789063 7.515625 16.789063 16.785156zm0 0" fill="#37474f"/><path d="m328.097656 201.9375c0 9.273438-7.515625 16.789062-16.789062 16.789062-9.269532 0-16.785156-7.515624-16.785156-16.789062 0-9.269531 7.515624-16.785156 16.785156-16.785156 9.273437 0 16.789062 7.515625 16.789062 16.785156zm0 0" fill="#37474f"/><path d="m294.523438 252.300781c0 13.90625-18.792969 33.574219-41.96875 33.574219-23.171876 0-41.964844-19.667969-41.964844-33.574219 0-13.910156 18.792968-16.789062 41.964844-16.789062 23.175781 0 41.96875 2.878906 41.96875 16.789062zm0 0" fill="#e81e63"/><path d="m326.503906 29.453125-62.113281 66.390625c-3.097656 3.351562-7.433594 5.292969-11.996094 5.371094-4.566406.082031-8.964843-1.707032-12.175781-4.949219l-65.46875-64.460937c45.988281-29.683594 104.863281-30.59375 151.753906-2.351563zm0 0" fill="#fdc008"/><path d="m193.800781 176.757812c0 9.273438-7.515625 16.789063-16.785156 16.789063-9.273437 0-16.789063-7.515625-16.789063-16.789063 0-9.269531 7.515626-16.785156 16.789063-16.785156 9.269531 0 16.785156 7.515625 16.785156 16.785156zm0 0" fill="#fff"/><path d="m311.308594 176.757812c0 9.273438-7.515625 16.789063-16.785156 16.789063-9.269532 0-16.785157-7.515625-16.785157-16.789063 0-9.269531 7.515625-16.785156 16.785157-16.785156 9.269531 0 16.785156 7.515625 16.785156 16.785156zm0 0" fill="#fff"/><path d="m504.167969 83.382812c-.433594-3.4375-2.9375-6.253906-6.296875-7.09375-37.148438-9.285156-67.9375-6.605468-91.488282 7.964844-3.152343 1.960938-6.164062 4.136719-9.015624 6.515625-32.933594-56.699219-86.332032-90.273437-144.8125-90.273437-58.476563 0-111.917969 33.574218-144.84375 90.320312-2.871094-2.394531-5.90625-4.585937-9.082032-6.5625-23.585937-14.570312-54.371094-17.25-91.523437-7.964844-3.335938.835938-5.824219 3.625-6.277344 7.035157-1.105469 11.1875-1.105469 22.457031 0 33.648437 0 .117188-.074219.199219-.082031.308594-.085938 1.152344.066406 2.3125.453125 3.402344 3.421875 30.492187 15.820312 72.324218 55.394531 96.742187-16.378906 21.113281-29.527344 44.546875-39.003906 69.53125-.179688.40625-.324219.828125-.429688 1.257813-9.605468 26.058594-15.140625 53.445312-16.40625 81.191406-3.59375 75.472656 8.84375 118.4375 38.039063 131.339844 5.800781 2.53125 12.074219 3.8125 18.40625 3.757812 32.917969 0 69.984375-31.265625 91.421875-52.582031.265625-.210937.515625-.433594.753906-.671875 3.277344-3.277344 3.277344-8.589844 0-11.871094-2.519531-2.492187-6.347656-3.101562-9.519531-1.515625v-.070312c-22.214844 9.46875-49.375 15.109375-59.925781 6.363281-7.394532-6.136719-6.144532-20.019531-3.804688-30.585938 6.703125-27.113281 19.738281-52.25 38.039062-73.351562 32.324219 48.816406 82.433594 79.949219 138.390626 79.949219 55.960937 0 106.019531-30.679688 138.34375-79.308594 18.042968 20.964844 30.898437 45.882813 37.535156 72.738281 2.339844 10.574219 3.582031 24.457032-3.804688 30.59375-10.558594 8.753906-37.703125 3.113282-60.003906-6.398437-.109375-.050781-.21875 0-.328125-.074219-3.105469-1.363281-6.730469-.699219-9.148437 1.679688-3.277344 3.277343-3.277344 8.589843 0 11.867187.238281.238281.492187.464844.757812.671875 21.445312 21.320312 58.5 52.585938 91.429688 52.585938 6.335937.050781 12.609374-1.238282 18.414062-3.777344 29.191406-12.933594 41.632812-55.902344 38.03125-131.375-2.296875-52.90625-20.261719-103.9375-51.621094-146.609375 37.636719-26.546875 48.910156-70.679688 51.855469-102.1875.367187-1.078125.511719-2.222657.417969-3.359375 0-.117188-.074219-.210938-.089844-.320313.921875-11.152343.863281-22.367187-.175781-33.511719zm-191.179688-51.78125-54.757812 58.527344c-1.558594 1.6875-3.738281 2.664063-6.035157 2.703125-2.296874.035157-4.507812-.871093-6.117187-2.507812l-57.621094-56.792969c38.699219-20.957031 85.199219-21.679688 124.53125-1.929688zm-253.28125 378.351563c-4.882812 22.015625-1.675781 37.886719 9.460938 47.15625 7.792969 5.847656 17.394531 8.777344 27.128906 8.273437 4.3125-.039062 8.613281-.398437 12.875-1.074218-26.113281 19.816406-48.824219 27.625-63.589844 21.109375-1.328125-.605469-2.597656-1.324219-3.800781-2.148438 4.246094-5.714843 7.328125-12.203125 9.082031-19.101562.804688-2.9375-.042969-6.082031-2.21875-8.210938-2.171875-2.132812-5.332031-2.921875-8.253906-2.0625-2.917969.863281-5.144531 3.238281-5.8125 6.210938-.914063 3.542969-2.34375 6.9375-4.238281 10.070312-7.007813-12.347656-12.4375-33.21875-13.246094-67.785156h.664062c11.203126.941406 22.324219-2.621094 30.894532-9.894531 3.183594-3.292969 3.136718-8.53125-.101563-11.765625-3.238281-3.238281-8.472656-3.285157-11.765625-.105469-5.753906 4.023438-12.789062 5.785156-19.757812 4.945312.085937-4.902343.253906-10.023437.503906-15.394531.929688-19.988281 4.183594-39.800781 9.703125-59.039062 6.636719 11.742187 17.410156 20.585937 30.214844 24.8125.671875.175781 1.363281.273437 2.058593.285156 4.238282.007813 7.820313-3.148437 8.34375-7.359375.523438-4.207031-2.175781-8.144531-6.289062-9.175781-9.140625-2.308594-18.714844-12.894531-27.1875-29.773438 9.195312-23.265625 21.777344-45.042969 37.34375-64.628906 1.722656.738281 3.410156 1.503906 5.214844 2.183594 2.140625 34.210937 11.710937 67.539062 28.050781 97.675781-21.886719 24.074219-37.445313 53.214844-45.277344 84.796875zm410.660157-119.253906c-8.527344 16.679687-17.746094 26.742187-26.792969 29-4.109375 1.03125-6.808594 4.960937-6.289063 9.164062.515625 4.207031 4.082032 7.367188 8.320313 7.371094.6875 0 1.371093-.085937 2.039062-.253906 12.609375-4.113281 23.246094-12.757813 29.855469-24.253907 5.40625 19.0625 8.597656 38.6875 9.5 58.484376.261719 5.386718.421875 10.515624.503906 15.433593-6.78125.742188-13.597656-1.03125-19.160156-4.984375-3.277344-3.28125-8.59375-3.285156-11.878906-.007812-3.28125 3.277344-3.285156 8.59375-.007813 11.875 8.582031 7.289062 19.710938 10.859375 30.929688 9.921875h.050781c-.796875 34.078125-6.101562 54.851562-12.96875 67.289062-1.742188-3.027343-3.070312-6.28125-3.933594-9.667969-1.167968-4.46875-5.722656-7.15625-10.195312-6.015624-4.476563 1.140624-7.1875 5.679687-6.074219 10.164062 1.746094 6.769531 4.761719 13.144531 8.882813 18.792969-1.324219.929687-2.726563 1.742187-4.199219 2.414062-14.753907 6.53125-37.484375-1.28125-63.605469-21.109375 4.265625.679688 8.570312 1.039063 12.886719 1.074219 9.734375.503906 19.335937-2.425781 27.136719-8.273437 11.160156-9.234376 14.34375-25.179688 9.464843-47.148438-7.78125-31.328125-23.15625-60.257812-44.769531-84.234375 15.078125-27.792969 24.410156-58.335937 27.4375-89.8125 3.550781-1.375 6.925781-2.886719 10.164062-4.496094 13.492188 18.210938 24.492188 38.148438 32.703126 59.273438zm-76.3125-63.496094c-4.589844.65625-7.777344 4.910156-7.121094 9.5.660156 4.589844 4.914062 7.777344 9.503906 7.117187 4.691406-.667968 9.113281-1.566406 13.429688-2.574218-3.566407 28.238281-12.667969 55.496094-26.792969 80.207031-.507813.640625-.917969 1.351563-1.21875 2.113281-29.023438 48.648438-76.136719 79.816406-129.300781 79.816406-53.164063 0-100.660157-31.738281-129.675782-80.722656-.050781-.117187-.117187-.214844-.179687-.324218-15.894531-27.464844-25.582031-58.078126-28.375-89.6875 4.589843 1.085937 9.316406 2.058593 14.351562 2.78125 4.589844.65625 8.84375-2.53125 9.5-7.117188.660157-4.589844-2.527343-8.84375-7.117187-9.503906-66.324219-9.476563-86.679688-55.941406-92.394532-91.402344 23.402344 3.289062 51.074219 12.679688 67.433594 37.222656 1.664063 2.496094 4.53125 3.914063 7.527344 3.71875 2.992188-.191406 5.652344-1.96875 6.980469-4.65625 1.328125-2.691406 1.121093-5.882812-.542969-8.378906-20.753906-31.140625-55.394531-41.832031-83.21875-45.0625-.34375-6.335938-.3125-12.6875.089844-19.019531 29.816406-6.496094 54.230468-4.097657 72.636718 7.167969 13.992188 8.777343 24.273438 22.382812 28.890626 38.238281 1.015624 4.523437 5.503906 7.371093 10.027343 6.359375 4.523438-1.011719 7.371094-5.503906 6.359375-10.027344-2.878906-10.785156-7.953125-20.859375-14.90625-29.59375 12.925782-24.203125 31.316406-45.0625 53.714844-60.910156l60.617188 59.734375c4.699218 4.746093 11.101562 7.414062 17.777343 7.410156h.503907c6.839843-.105469 13.335937-3.019531 17.964843-8.054687l57.433594-61.382813c23.953125 16.015625 43.574219 37.699219 57.128906 63.128906-6.980469 8.753907-12.074219 18.855469-14.96875 29.667969-.90625 4.476562 1.933594 8.855469 6.390625 9.855469 4.453125 1.003906 8.894532-1.742188 9.988282-6.179688 4.621093-15.855469 14.902343-29.46875 28.898437-38.246093 18.40625-11.265626 42.804687-13.664063 72.625-7.167969.414063 6.332031.496094 12.683593.253906 19.027343-27.824219 3.238282-62.496093 13.949219-83.238281 45.054688-2.574219 3.859375-1.53125 9.070312 2.324219 11.640625 3.859375 2.574219 9.070312 1.535156 11.644531-2.324219 16.433594-24.652344 44.339844-34.027344 67.851562-37.28125-4.976562 38.222656-24.535156 90.109375-92.796874 99.855469zm0 0"/><path d="m311.308594 134.792969c-24.441406.011719-46.945313 13.308593-58.753906 34.714843-16.507813-30.570312-53.523438-43.613281-85.554688-30.152343-32.027344 13.460937-48.609375 49.03125-38.324219 82.21875 10.285157 33.183593 44.074219 53.144531 78.101563 46.136719 9.390625 16.425781 26.859375 26.5625 45.777344 26.5625 18.921874 0 36.390624-10.136719 45.777343-26.5625 25.0625 4.957031 50.761719-4.746094 66.292969-25.023438 15.53125-20.28125 18.203125-47.621094 6.886719-70.523438-11.316407-22.902343-34.65625-37.390624-60.203125-37.371093zm-58.753906 142.6875c-19.394532 0-33.574219-16.5625-33.574219-25.179688 0-5.414062 11.921875-8.394531 33.574219-8.394531 21.65625 0 33.574218 2.980469 33.574218 8.394531 0 8.617188-14.175781 25.179688-33.574218 25.179688zm58.753906-25.179688c-2.835938-.011719-5.664063-.257812-8.460938-.738281-.71875-24.402344-35.375-24.445312-50.292968-24.445312-14.914063 0-49.570313 0-50.292969 24.445312-2.792969.480469-5.625.726562-8.460938.738281-27.8125 0-50.359375-22.546875-50.359375-50.363281 0-27.8125 22.546875-50.359375 50.359375-50.359375 27.816407 0 50.363281 22.546875 50.363281 50.359375 0 4.636719 3.757813 8.394531 8.390626 8.394531 4.636718 0 8.394531-3.757812 8.394531-8.394531 0-27.8125 22.546875-50.359375 50.359375-50.359375 27.816406 0 50.363281 22.546875 50.363281 50.359375 0 27.816406-22.546875 50.363281-50.363281 50.363281zm0 0"/><path d="m336.492188 285.875c-4.636719 0-8.394532 3.757812-8.394532 8.390625 0 18.542969-15.03125 33.574219-33.574218 33.574219h-83.933594c-18.542969 0-33.574219-15.03125-33.574219-33.574219 0-4.632813-3.757813-8.390625-8.394531-8.390625-4.636719 0-8.394532 3.757812-8.394532 8.390625.03125 27.804687 22.558594 50.332031 50.363282 50.363281h83.933594c27.800781-.03125 50.332031-22.558594 50.359374-50.363281 0-4.632813-3.757812-8.390625-8.390624-8.390625zm0 0"/><path d="m193.800781 176.757812c-13.90625 0-25.179687 11.273438-25.179687 25.179688s11.273437 25.179688 25.179687 25.179688 25.179688-11.273438 25.179688-25.179688-11.273438-25.179688-25.179688-25.179688zm0 33.574219c-4.632812 0-8.390625-3.757812-8.390625-8.394531 0-4.632812 3.757813-8.390625 8.390625-8.390625 4.636719 0 8.394531 3.757813 8.394531 8.390625 0 4.636719-3.757812 8.394531-8.394531 8.394531zm0 0"/><path d="m311.308594 176.757812c-13.90625 0-25.179688 11.273438-25.179688 25.179688s11.273438 25.179688 25.179688 25.179688c13.910156 0 25.183594-11.273438 25.183594-25.179688s-11.273438-25.179688-25.183594-25.179688zm0 33.574219c-4.632813 0-8.390625-3.757812-8.390625-8.394531 0-4.632812 3.757812-8.390625 8.390625-8.390625 4.636718 0 8.394531 3.757813 8.394531 8.390625 0 4.636719-3.757813 8.394531-8.394531 8.394531zm0 0"/></svg>