<svg height="408pt" viewBox="-6 0 408 408.93184" width="408pt" xmlns="http://www.w3.org/2000/svg"><path d="m307.664062 191.382812c0 84.832032-68.765624 153.601563-153.597656 153.601563-84.832031 0-153.601562-68.769531-153.601562-153.601563 0-84.828124 68.769531-153.597656 153.601562-153.597656 84.832032 0 153.597656 68.769532 153.597656 153.597656zm0 0" fill="#c1dbdc"/><g fill="#4c241d"><path d="m371.933594 28.132812c-1.746094 0-3.496094-.667968-4.828125-2-2.664063-2.667968-2.664063-6.988281 0-9.652343l14.480469-14.480469c2.664062-2.667969 6.984374-2.667969 9.652343 0 2.664063 2.664062 2.664063 6.988281 0 9.652344l-14.480469 14.480468c-1.332031 1.332032-3.078124 2-4.824218 2zm0 0"/><path d="m338.144531 61.917969c-1.746093 0-3.492187-.667969-4.824219-2-2.667968-2.664063-2.667968-6.988281 0-9.652344l14.476563-14.480469c2.667969-2.664062 6.988281-2.664062 9.652344 0 2.667969 2.667969 2.667969 6.988282 0 9.652344l-14.476563 14.480469c-1.332031 1.332031-3.078125 2-4.828125 2zm0 0"/><path d="m352.625 28.132812c-1.746094 0-3.492188-.667968-4.824219-2l-14.480469-14.480468c-2.664062-2.664063-2.664062-6.988282 0-9.652344 2.667969-2.667969 6.988282-2.667969 9.652344 0l14.480469 14.480469c2.664063 2.664062 2.664063 6.984375 0 9.652343-1.335937 1.332032-3.082031 2-4.828125 2zm0 0"/><path d="m386.410156 61.917969c-1.746094 0-3.492187-.667969-4.824218-2l-14.480469-14.480469c-2.664063-2.664062-2.664063-6.984375 0-9.652344 2.667969-2.664062 6.988281-2.664062 9.652343 0l14.480469 14.480469c2.664063 2.664063 2.664063 6.988281 0 9.652344-1.332031 1.332031-3.078125 2-4.828125 2zm0 0"/><path d="m374.75 383.703125c-3.417969 0-6.804688-.839844-9.90625-2.492187-4.957031-2.65625-8.585938-7.078126-10.21875-12.46875-1.632812-5.378907-1.066406-11.078126 1.582031-16.039063 2.652344-4.957031 7.078125-8.585937 12.464844-10.21875s11.074219-1.074219 16.039063 1.585937c4.960937 2.65625 8.585937 7.082032 10.21875 12.460938v.007812c3.363281 11.105469-2.9375 22.886719-14.042969 26.253907-2.019531.613281-4.082031.910156-6.136719.910156zm.035156-28.472656c-.71875 0-1.445312.105469-2.152344.320312-1.894531.574219-3.453124 1.855469-4.386718 3.59375-.925782 1.746094-1.125 3.746094-.554688 5.640625.574219 1.894532 1.855469 3.453125 3.59375 4.386719 1.753906.933594 3.753906 1.113281 5.640625.550781 3.898438-1.175781 6.121094-5.324218 4.941407-9.230468-.574219-1.894532-1.855469-3.449219-3.59375-4.378907-1.09375-.589843-2.289063-.882812-3.488282-.882812zm0 0"/><path d="m33.277344 114.03125c-11.613282 0-21.058594-9.445312-21.058594-21.054688 0-11.613281 9.445312-21.058593 21.058594-21.058593 11.613281 0 21.0625 9.445312 21.0625 21.058593 0 11.609376-9.449219 21.054688-21.0625 21.054688zm0-28.460938c-4.085938 0-7.40625 3.320313-7.40625 7.40625 0 4.082032 3.320312 7.402344 7.40625 7.402344 4.089844 0 7.40625-3.320312 7.40625-7.402344 0-4.085937-3.316406-7.40625-7.40625-7.40625zm0 0"/><path d="m22.699219 370.453125c-1.746094 0-3.492188-.667969-4.828125-2-2.664063-2.667969-2.664063-6.988281 0-9.65625l20.128906-20.117187c2.664062-2.667969 6.984375-2.667969 9.652344 0 2.664062 2.664062 2.664062 6.984374 0 9.652343l-20.128906 20.121094c-1.332032 1.332031-3.078126 2-4.824219 2zm0 0"/><path d="m42.824219 370.453125c-1.746094 0-3.492188-.667969-4.824219-2l-20.128906-20.121094c-2.664063-2.667969-2.664063-6.988281 0-9.652343 2.667968-2.667969 6.988281-2.667969 9.652344 0l20.128906 20.117187c2.664062 2.667969 2.664062 6.988281 0 9.65625-1.332032 1.332031-3.078125 2-4.828125 2zm0 0"/><path d="m104.617188 35.945312c-1.746094 0-3.492188-.667968-4.824219-2-2.667969-2.667968-2.667969-6.988281 0-9.652343l20.125-20.121094c2.667969-2.664063 6.988281-2.664063 9.652343 0 2.667969 2.664063 2.667969 6.988281 0 9.652344l-20.125 20.121093c-1.332031 1.332032-3.078124 2-4.828124 2zm0 0"/><path d="m124.746094 35.945312c-1.746094 0-3.496094-.667968-4.828125-2l-20.125-20.121093c-2.667969-2.664063-2.667969-6.988281 0-9.652344 2.664062-2.664063 6.988281-2.664063 9.652343 0l20.125 20.121094c2.667969 2.664062 2.667969 6.984375 0 9.652343-1.332031 1.332032-3.078124 2-4.824218 2zm0 0"/></g><path d="m293.769531 370.0625c-17.359375 13.417969-37.878906 23.3125-60.722656 28.363281-82.824219 18.3125-164.816406-33.984375-183.128906-116.8125-18.316407-82.828125 33.984375-164.816406 116.8125-183.132812 82.828125-18.3125 164.820312 33.988281 183.132812 116.816406 8.390625 37.953125 1.957031 75.734375-15.453125 107.292969" fill="#fff"/><path d="m199.574219 408.933594c-30.214844 0-59.863281-8.589844-85.953125-25.226563-36.128906-23.046875-61.117188-58.78125-70.367188-100.621093-19.09375-86.367188 35.632813-172.167969 122.007813-191.265626 41.839843-9.242187 84.785156-1.65625 120.898437 21.386719 36.125 23.046875 61.113282 58.777344 70.367188 100.617188 8.425781 38.121093 2.699218 77.914062-16.132813 112.066406-1.820312 3.296875-5.976562 4.496094-9.28125 2.679687-3.300781-1.816406-4.5-5.972656-2.679687-9.28125 17.234375-31.230468 22.472656-67.644531 14.757812-102.519531-8.460937-38.277343-31.324218-70.972656-64.375-92.050781-33.046875-21.082031-72.34375-28.042969-110.609375-19.570312-79.023437 17.476562-129.09375 95.96875-111.621093 174.988281 8.460937 38.28125 31.324218 70.972656 64.382812 92.054687 33.050781 21.085938 72.351562 28.027344 110.609375 19.566406 21.339844-4.714843 40.859375-13.832031 58.019531-27.09375 2.988282-2.3125 7.269532-1.746093 9.574219 1.226563 2.308594 2.980469 1.757813 7.269531-1.226563 9.574219-18.761718 14.507812-40.101562 24.472656-63.421874 29.625-11.617188 2.570312-23.324219 3.84375-34.949219 3.84375zm0 0" fill="#4c241d"/><path d="m310.601562 361.773438c-1.703124 0-3.402343-.636719-4.730468-1.902344-2.71875-2.613282-2.804688-6.929688-.199219-9.652344 3.46875-3.613281 6.769531-7.414062 9.792969-11.292969 2.320312-2.972656 6.601562-3.507812 9.578125-1.179687 2.976562 2.320312 3.503906 6.605468 1.179687 9.582031-3.3125 4.246094-6.914062 8.398437-10.699218 12.34375-1.339844 1.394531-3.132813 2.101563-4.921876 2.101563zm0 0" fill="#4c241d"/><path d="m353.355469 249.691406c.082031-11.34375-.941407-22.851562-3.492188-34.394531-18.3125-82.828125-100.304687-135.128906-183.132812-116.8125-73.316407 16.210937-122.667969 82.3125-120.347657 154.722656 44.347657-15.246093 99.328126-24.273437 158.882813-24.273437 54.8125-.003906 105.746094 7.652344 148.089844 20.757812zm0 0" fill="#f53e28"/><path d="m46.386719 260.03125c-1.367188 0-2.722657-.414062-3.875-1.207031-1.789063-1.234375-2.882813-3.234375-2.949219-5.398438-2.472656-76.992187 50.394531-144.960937 125.695312-161.605469 86.347657-19.09375 172.171876 35.632813 191.273438 122 2.511719 11.390626 3.738281 23.480469 3.652344 35.917969-.015625 2.160157-1.054688 4.1875-2.792969 5.460938-1.746094 1.28125-4 1.652343-6.054687 1.011719-43.234376-13.378907-93.746094-20.449219-146.074219-20.449219-57.003907 0-111.179688 8.265625-156.660157 23.898437-.722656.25-1.46875.371094-2.214843.371094zm153.523437-158.359375c-10.457031 0-21.078125 1.125-31.703125 3.480469-65.867187 14.558594-112.96875 72.039062-115.007812 138.621094 44.945312-14.195313 97.277343-21.667969 152.066406-21.667969 50.085937 0 98.625 6.339843 141.074219 18.386719-.414063-8.1875-1.46875-16.140626-3.140625-23.726563-15.125-68.386719-75.96875-115.09375-143.289063-115.09375zm0 0" fill="#4c241d"/><path d="m224.339844 189.722656c13.480468-15.820312 35.464844-28.140625 64.433594-37.585937 0 0 8.699218 21.746093 7.257812 46.398437-.382812 6.507813-5.945312 11.539063-12.453125 11.136719-15.011719-.925781-42.015625-3.929687-59.253906-13.671875-2.417969-1.367188-2.382813-4.875.015625-6.277344zm0 0" fill="#fff"/><path d="m284.320312 216.515625c-.390624 0-.773437-.003906-1.164062-.03125-15.285156-.949219-43.695312-4.089844-62.191406-14.546875-3.21875-1.820312-5.238282-5.261719-5.265625-8.972656-.027344-3.269532 1.484375-6.347656 4.011719-8.335938 14.027343-16.117187 35.941406-28.878906 66.949218-38.984375 3.414063-1.101562 7.105469.609375 8.453125 3.957031.375.941407 9.246094 23.453126 7.734375 49.328126-.292968 5-2.515625 9.589843-6.261718 12.910156-3.425782 3.042968-7.746094 4.675781-12.265626 4.675781zm-52.867187-24.523437c16.179687 7.585937 39.488281 10.058593 52.546875 10.863281 1.300781.105469 2.546875-.359375 3.527344-1.226563 1.011718-.898437 1.609375-2.140625 1.691406-3.5.890625-15.332031-2.425781-29.558594-4.734375-37.324218-23.871094 8.480468-41.671875 18.949218-53.03125 31.1875zm-7.113281-2.269532h.066406zm0 0" fill="#4c241d"/><path d="m172.539062 189.722656c-13.480468-15.820312-35.46875-28.140625-64.433593-37.585937 0 0-8.699219 21.746093-7.257813 46.398437.378906 6.507813 5.945313 11.539063 12.453125 11.136719 15.007813-.925781 42.011719-3.929687 59.253907-13.671875 2.417968-1.367188 2.382812-4.875-.015626-6.277344zm0 0" fill="#fff"/><path d="m112.558594 216.515625c-4.519532 0-8.839844-1.632813-12.269532-4.671875-3.746093-3.320312-5.964843-7.914062-6.257812-12.914062-1.515625-25.871094 7.359375-48.386719 7.730469-49.324219 1.339843-3.347657 5.035156-5.058594 8.453125-3.960938 31.007812 10.109375 52.921875 22.867188 66.949218 38.988281 2.527344 1.988282 4.039063 5.066407 4.015626 8.335938-.027344 3.710938-2.046876 7.152344-5.269532 8.980469-18.492187 10.453125-46.90625 13.589843-62.191406 14.539062-.386719.023438-.773438.027344-1.160156.027344zm-.152344-55.703125c-2.308594 7.792969-5.640625 22.058594-4.746094 37.320312.078125 1.359376.679688 2.597657 1.691406 3.5.980469.867188 2.242188 1.324219 3.527344 1.226563 13.058594-.808594 36.371094-3.28125 52.546875-10.867187-11.351562-12.238282-29.152343-22.707032-53.019531-31.179688zm56.691406 34.8125h.066406zm0 0" fill="#4c241d"/><path d="m266.707031 194.796875c0-7.539063-3.058593-13.652344-6.828125-13.652344-3.769531 0-6.828125 6.113281-6.828125 13.652344 0 7.542969 3.058594 13.65625 6.828125 13.65625 3.769532 0 6.828125-6.113281 6.828125-13.65625zm0 0" fill="#4c241d"/><path d="m143.824219 194.796875c0-7.539063-3.054688-13.652344-6.824219-13.652344s-6.828125 6.113281-6.828125 13.652344c0 7.542969 3.058594 13.65625 6.828125 13.65625s6.824219-6.113281 6.824219-13.65625zm0 0" fill="#4c241d"/></svg>