<svg height="414pt" viewBox="-4 0 414 414.19093" width="414pt" xmlns="http://www.w3.org/2000/svg"><path d="m307.296875 201.386719c0 84.832031-68.769531 153.601562-153.601563 153.601562-84.832031 0-153.601562-68.769531-153.601562-153.601562s68.769531-153.601563 153.601562-153.601563c84.832032 0 153.601563 68.769532 153.601563 153.601563zm0 0" fill="#c1dbdc"/><g fill="#4c241d"><path d="m56.183594 39.488281c-1.746094 0-3.496094-.667969-4.828125-2-2.667969-2.667969-2.667969-6.988281 0-9.652343l12.453125-12.457032c2.664062-2.664062 6.988281-2.664062 9.652344 0 2.667968 2.667969 2.667968 6.988282 0 9.65625l-12.453126 12.453125c-1.332031 1.332031-3.078124 2-4.824218 2zm0 0"/><path d="m27.128906 68.539062c-1.746094 0-3.492187-.667968-4.828125-2-2.664062-2.664062-2.664062-6.988281 0-9.652343l12.457031-12.453125c2.664063-2.667969 6.984376-2.667969 9.652344 0 2.664063 2.664062 2.664063 6.988281 0 9.652344l-12.453125 12.453124c-1.335937 1.335938-3.082031 2-4.828125 2zm0 0"/><path d="m39.582031 39.488281c-1.746093 0-3.492187-.667969-4.824219-2l-12.457031-12.453125c-2.664062-2.667968-2.664062-6.988281 0-9.65625 2.667969-2.664062 6.988281-2.664062 9.65625 0l12.453125 12.457032c2.664063 2.664062 2.664063 6.984374 0 9.652343-1.335937 1.332031-3.082031 2-4.828125 2zm0 0"/><path d="m68.636719 68.539062c-1.746094 0-3.496094-.667968-4.828125-2l-12.453125-12.453124c-2.667969-2.664063-2.667969-6.988282 0-9.652344 2.664062-2.667969 6.988281-2.667969 9.652343 0l12.453126 12.453125c2.667968 2.664062 2.667968 6.988281 0 9.652343-1.332032 1.335938-3.078126 2-4.824219 2zm0 0"/><path d="m33.046875 414.191406c-3.417969 0-6.804687-.84375-9.90625-2.5-4.960937-2.65625-8.585937-7.078125-10.21875-12.460937-1.632813-5.382813-1.066406-11.078125 1.578125-16.039063 2.65625-4.964844 7.085938-8.589844 12.476562-10.21875 5.359376-1.636718 11.066407-1.070312 16.03125 1.582032 4.960938 2.65625 8.589844 7.078124 10.222657 12.460937v.007813c3.359375 11.109374-2.941407 22.886718-14.046875 26.253906-2.019532.609375-4.082032.914062-6.136719.914062zm.042969-28.476562c-.726563 0-1.449219.105468-2.160156.320312-1.894532.574219-3.453126 1.851563-4.386719 3.59375-.933594 1.742188-1.128907 3.746094-.554688 5.640625.574219 1.890625 1.847657 3.445313 3.59375 4.378907 1.753907.941406 3.753907 1.125 5.640625.554687 3.898438-1.179687 6.121094-5.320313 4.941406-9.230469-.574218-1.890625-1.847656-3.449218-3.59375-4.378906-1.09375-.582031-2.28125-.878906-3.480468-.878906zm0 0"/><path d="m374.242188 42.113281c-11.613282 0-21.0625-9.445312-21.0625-21.054687 0-11.613282 9.449218-21.058594 21.0625-21.058594 11.613281 0 21.058593 9.445312 21.058593 21.058594 0 11.609375-9.445312 21.054687-21.058593 21.054687zm0-28.460937c-4.089844 0-7.40625 3.320312-7.40625 7.40625 0 4.082031 3.316406 7.402344 7.40625 7.402344 4.085937 0 7.40625-3.320313 7.40625-7.402344 0-4.085938-3.320313-7.40625-7.40625-7.40625zm0 0"/><path d="m294.695312 27.886719c0 5.082031-4.117187 9.199219-9.199218 9.199219-5.082032 0-9.203125-4.117188-9.203125-9.199219s4.121093-9.203125 9.203125-9.203125c5.082031 0 9.199218 4.121094 9.199218 9.203125zm0 0"/><path d="m28.457031 307.777344c0 5.082031-4.121093 9.203125-9.203125 9.203125-5.082031 0-9.203125-4.121094-9.203125-9.203125 0-5.082032 4.121094-9.199219 9.203125-9.199219 5.082032 0 9.203125 4.117187 9.203125 9.199219zm0 0"/><path d="m232.207031 196.699219c-.484375 0-.972656-.046875-1.464843-.15625-3.679688-.808594-6.011719-4.445313-5.207032-8.128907 1.113282-5.085937 28.019532-124.65625 94.421875-126.945312 22.140625-.808594 43.164063 13.273438 52.257813 34.933594 3.15625 7.515625 6.113281 16.109375 8.8125 25.542968 1.035156 3.628907-1.066406 7.40625-4.691406 8.441407-3.582032 1.042969-7.402344-1.054688-8.441407-4.6875-2.546875-8.921875-5.324219-17-8.265625-24.011719-6.921875-16.460938-22.453125-27.1875-39.207031-26.570312-55.914063 1.925781-81.300781 115.074218-81.554687 116.21875-.691407 3.1875-3.519532 5.363281-6.660157 5.363281zm0 0"/><path d="m198.0625 196.699219c-3.140625 0-5.960938-2.175781-6.660156-5.367188-.253906-1.144531-25.707032-114.289062-81.554688-116.214843-16.671875-.636719-32.292968 10.117187-39.207031 26.570312-2.9375 7.011719-5.71875 15.089844-8.265625 24.011719-1.039062 3.632812-4.839844 5.722656-8.4375 4.683593-3.628906-1.035156-5.726562-4.8125-4.695312-8.4375 2.699218-9.433593 5.660156-18.027343 8.8125-25.539062 9.101562-21.660156 30.253906-35.714844 52.261718-34.9375 66.398438 2.289062 93.304688 121.855469 94.417969 126.941406.808594 3.683594-1.527344 7.320313-5.207031 8.128906-.492188.113282-.980469.160157-1.464844.160157zm0 0"/><path d="m377.316406 394.109375c-1.746094 0-3.496094-.667969-4.828125-2-2.664062-2.664063-2.664062-6.988281 0-9.652344l20.125-20.125c2.667969-2.667969 6.988281-2.667969 9.65625 0 2.664063 2.664063 2.664063 6.984375 0 9.652344l-20.128906 20.125c-1.332031 1.332031-3.078125 2-4.824219 2zm0 0"/></g><path d="m399.863281 210.195312c0 19.644532-15.921875 35.566407-35.566406 35.566407-19.640625 0-35.5625-15.921875-35.5625-35.566407 0-19.640624 26.082031-91.449218 45.722656-91.449218 19.644531 0 25.40625 71.808594 25.40625 91.449218zm0 0" fill="#ffce56"/><path d="m364.300781 252.585938c-23.371093 0-42.394531-19.015626-42.394531-42.390626 0-17.5625 25.5625-98.277343 52.554688-98.277343 12.546874 0 21.054687 13.953125 26.773437 43.90625 4 20.972656 5.453125 44.007812 5.453125 54.371093 0 23.375-19.011719 42.390626-42.386719 42.390626zm10.160157-127.015626c-11.832032 0-38.898438 63.007813-38.898438 84.625 0 15.847657 12.894531 28.738282 28.738281 28.738282 15.847657 0 28.734375-12.890625 28.734375-28.738282 0-40.859374-10.902344-84.625-18.574218-84.625zm0 0" fill="#4c241d"/><path d="m397.441406 394.109375c-1.746094 0-3.492187-.667969-4.828125-2l-20.125-20.125c-2.664062-2.667969-2.664062-6.988281 0-9.652344 2.664063-2.667969 6.988281-2.667969 9.652344 0l20.128906 20.125c2.664063 2.664063 2.664063 6.988281 0 9.652344-1.335937 1.332031-3.082031 2-4.828125 2zm0 0" fill="#4c241d"/><path d="m30.40625 210.195312c0 19.644532 15.925781 35.566407 35.566406 35.566407s35.566406-15.921875 35.566406-35.566407c0-19.640624-26.085937-91.449218-45.726562-91.449218s-25.40625 71.808594-25.40625 91.449218zm0 0" fill="#ffce56"/><path d="m65.96875 252.585938c-23.371094 0-42.386719-19.015626-42.386719-42.390626 0-10.363281 1.453125-33.398437 5.453125-54.371093 5.722656-29.953125 14.226563-43.90625 26.773438-43.90625 26.992187 0 52.554687 80.714843 52.554687 98.277343-.003906 23.375-19.019531 42.390626-42.394531 42.390626zm-10.160156-127.015626c-7.675782 0-18.574219 43.765626-18.574219 84.625 0 15.847657 12.886719 28.738282 28.734375 28.738282 15.84375 0 28.738281-12.890625 28.738281-28.738282 0-21.617187-27.066406-84.625-38.898437-84.625zm0 0" fill="#4c241d"/><path d="m77.113281 337.71875c-9.496093-15.4375-14.804687-32.683594-14.804687-50.882812 0-65.988282 69.804687-119.480469 155.914062-119.480469 86.113282 0 155.917969 53.492187 155.917969 119.480469 0 65.988281-69.804687 119.480468-155.917969 119.480468-39.457031 0-75.496094-11.234375-102.960937-29.753906" fill="#9dc1e4"/><path d="m218.222656 413.144531c-39.289062 0-77.207031-10.984375-106.78125-30.925781-3.121094-2.105469-3.945312-6.347656-1.839844-9.476562 2.105469-3.125 6.347657-3.953126 9.480469-1.84375 27.335938 18.4375 62.546875 28.589843 99.140625 28.589843 82.214844 0 149.09375-50.535156 149.09375-112.652343 0-62.117188-66.882812-112.652344-149.09375-112.652344-82.207031 0-149.085937 50.535156-149.085937 112.652344 0 16.515624 4.640625 32.433593 13.792969 47.308593 1.972656 3.207031.972656 7.414063-2.234376 9.390625-3.226562 1.964844-7.425781.972656-9.394531-2.238281-10.496093-17.058594-15.820312-35.378906-15.820312-54.460937 0-69.648438 73.007812-126.308594 162.742187-126.308594 89.738282 0 162.746094 56.660156 162.746094 126.308594 0 69.648437-73.007812 126.308593-162.746094 126.308593zm0 0" fill="#4c241d"/><path d="m97.882812 369.636719c-1.667968 0-3.332031-.605469-4.648437-1.824219-3.523437-3.28125-6.886719-6.742188-9.972656-10.292969-2.480469-2.839843-2.179688-7.15625.660156-9.628906 2.832031-2.472656 7.152344-2.1875 9.632813.664063 2.78125 3.1875 5.800781 6.300781 8.976562 9.257812 2.757812 2.566406 2.917969 6.886719.351562 9.644531-1.347656 1.449219-3.175781 2.179688-5 2.179688zm0 0" fill="#4c241d"/><path d="m232.164062 327.679688v16.554687c0 9.402344-7.625 17.027344-17.027343 17.027344-9.40625 0-17.027344-7.625-17.027344-17.027344v-16.554687zm0 0" fill="#e66353"/><path d="m215.136719 368.089844c-13.15625 0-23.855469-10.703125-23.855469-23.855469v-16.554687c0-3.769532 3.054688-6.828126 6.828125-6.828126h34.050781c3.773438 0 6.828125 3.058594 6.828125 6.828126v16.554687c0 13.152344-10.699219 23.855469-23.851562 23.855469zm-10.203125-33.582032v9.726563c0 5.625 4.574218 10.203125 10.203125 10.203125 5.625 0 10.199219-4.578125 10.199219-10.203125v-9.726563zm0 0" fill="#4c241d"/><path d="m341.429688 269.652344c0-24.503906-18.339844-44.371094-40.960938-44.371094s-40.960938 19.867188-40.960938 44.371094c0 24.507812 18.339844 44.375 40.960938 44.375s40.960938-19.867188 40.960938-44.375zm0 0" fill="#ffce56"/><path d="m300.46875 320.851562c-26.347656 0-47.785156-22.964843-47.785156-51.199218 0-28.230469 21.4375-51.199219 47.785156-51.199219s47.785156 22.96875 47.785156 51.199219c0 28.234375-21.4375 51.199218-47.785156 51.199218zm0-88.746093c-18.820312 0-34.132812 16.84375-34.132812 37.546875s15.3125 37.546875 34.132812 37.546875 34.132812-16.84375 34.132812-37.546875-15.3125-37.546875-34.132812-37.546875zm0 0" fill="#4c241d"/><path d="m300.46875 293.546875c-3.773438 0-6.828125-3.058594-6.828125-6.828125v-27.304688c0-3.769531 3.054687-6.828124 6.828125-6.828124s6.828125 3.058593 6.828125 6.828124v27.304688c0 3.769531-3.054687 6.828125-6.828125 6.828125zm0 0" fill="#4c241d"/><path d="m314.121094 279.894531h-27.304688c-3.773437 0-6.828125-3.058593-6.828125-6.828125 0-3.769531 3.054688-6.828125 6.828125-6.828125h27.304688c3.773437 0 6.828125 3.058594 6.828125 6.828125 0 3.769532-3.054688 6.828125-6.828125 6.828125zm0 0" fill="#4c241d"/><path d="m177.589844 269.652344c0-24.503906-18.339844-44.371094-40.960938-44.371094s-40.960937 19.867188-40.960937 44.371094c0 24.507812 18.339843 44.375 40.960937 44.375s40.960938-19.867188 40.960938-44.375zm0 0" fill="#ffce56"/><path d="m136.628906 320.851562c-26.347656 0-47.785156-22.964843-47.785156-51.199218 0-28.230469 21.4375-51.199219 47.785156-51.199219s47.785156 22.96875 47.785156 51.199219c0 28.234375-21.4375 51.199218-47.785156 51.199218zm0-88.746093c-18.820312 0-34.132812 16.84375-34.132812 37.546875s15.3125 37.546875 34.132812 37.546875c18.820313 0 34.132813-16.84375 34.132813-37.546875s-15.3125-37.546875-34.132813-37.546875zm0 0" fill="#4c241d"/><path d="m136.628906 293.546875c-3.773437 0-6.828125-3.058594-6.828125-6.828125v-27.304688c0-3.769531 3.054688-6.828124 6.828125-6.828124 3.773438 0 6.828125 3.058593 6.828125 6.828124v27.304688c0 3.769531-3.054687 6.828125-6.828125 6.828125zm0 0" fill="#4c241d"/><path d="m150.28125 279.894531h-27.304688c-3.773437 0-6.828124-3.058593-6.828124-6.828125 0-3.769531 3.054687-6.828125 6.828124-6.828125h27.304688c3.773438 0 6.828125 3.058594 6.828125 6.828125 0 3.769532-3.054687 6.828125-6.828125 6.828125zm0 0" fill="#4c241d"/></svg>