<svg height="424pt" viewBox="0 -16 424.83206 424" width="424pt" xmlns="http://www.w3.org/2000/svg"><path d="m335.296875 215.070312c0 84.832032-68.769531 153.597657-153.601563 153.597657-84.828124 0-153.597656-68.765625-153.597656-153.597657 0-84.832031 68.769532-153.601562 153.597656-153.601562 84.832032 0 153.601563 68.769531 153.601563 153.601562zm0 0" fill="#c1dbdc"/><g fill="#4c241d"><path d="m50.925781 359.492188c-1.746093 0-3.492187-.667969-4.824219-2-2.667968-2.664063-2.667968-6.988282 0-9.652344l13.765626-13.765625c2.664062-2.667969 6.988281-2.667969 9.652343 0 2.664063 2.664062 2.664063 6.988281 0 9.652343l-13.765625 13.765626c-1.332031 1.332031-3.082031 2-4.828125 2zm0 0"/><path d="m18.808594 391.613281c-1.746094 0-3.496094-.667969-4.828125-2-2.664063-2.667969-2.664063-6.988281 0-9.652343l13.765625-13.769532c2.667968-2.664062 6.988281-2.664062 9.652344 0 2.667968 2.667969 2.667968 6.988282 0 9.65625l-13.765626 13.765625c-1.332031 1.332031-3.078124 2-4.824218 2zm0 0"/><path d="m32.574219 359.492188c-1.746094 0-3.496094-.667969-4.828125-2l-13.765625-13.765626c-2.664063-2.664062-2.664063-6.988281 0-9.652343 2.667969-2.667969 6.988281-2.667969 9.652343 0l13.765626 13.765625c2.667968 2.664062 2.667968 6.988281 0 9.652344-1.332032 1.332031-3.078126 2-4.824219 2zm0 0"/><path d="m64.691406 391.613281c-1.746094 0-3.492187-.667969-4.824218-2l-13.765626-13.765625c-2.667968-2.667968-2.667968-6.988281 0-9.65625 2.664063-2.664062 6.984376-2.664062 9.652344 0l13.765625 13.769532c2.664063 2.664062 2.664063 6.984374 0 9.652343-1.332031 1.332031-3.078125 2-4.828125 2zm0 0"/><path d="m395.554688 352.777344c-3.417969 0-6.804688-.839844-9.90625-2.5-4.957032-2.652344-8.585938-7.078125-10.21875-12.460938-1.628907-5.382812-1.070313-11.078125 1.585937-16.039062 2.652344-4.957032 7.078125-8.589844 12.460937-10.21875 11.097657-3.359375 22.886719 2.929687 26.257813 14.042968 3.367187 11.113282-2.933594 22.890626-14.042969 26.261719-2.019531.613281-4.085937.914063-6.136718.914063zm.023437-28.472656c-.710937 0-1.433594.105468-2.144531.324218-1.894532.570313-3.449219 1.847656-4.378906 3.589844-.933594 1.742188-1.132813 3.746094-.558594 5.640625.574218 1.894531 1.851562 3.449219 3.59375 4.378906 1.738281.9375 3.757812 1.132813 5.640625.558594 3.90625-1.183594 6.121093-5.328125 4.9375-9.234375-.972657-3.191406-3.914063-5.257812-7.089844-5.257812zm0 0"/><path d="m60.910156 55.796875c-11.609375 0-21.054687-9.445313-21.054687-21.058594 0-11.609375 9.445312-21.054687 21.054687-21.054687s21.054688 9.445312 21.054688 21.054687c0 11.613281-9.445313 21.058594-21.054688 21.058594zm0-28.460937c-4.082031 0-7.402344 3.320312-7.402344 7.402343 0 4.085938 3.320313 7.40625 7.402344 7.40625 4.085938 0 7.40625-3.320312 7.40625-7.40625 0-4.082031-3.324218-7.402343-7.40625-7.402343zm0 0"/></g><path d="m56.03125 209.003906c-13.882812-7.589844-31.285156-2.488281-38.875 11.390625-7.585938 13.882813-2.484375 31.285157 11.394531 38.875l15.992188 8.742188 27.476562-50.265625zm0 0" fill="#fff"/><path d="m44.539062 274.839844c-1.105468 0-2.226562-.265625-3.265624-.835938l-15.996094-8.742187c-17.160156-9.378907-23.492188-30.972657-14.109375-48.136719 9.382812-17.15625 30.972656-23.484375 48.136719-14.113281l15.992187 8.746093c3.308594 1.808594 4.527344 5.957032 2.714844 9.261719l-27.476563 50.265625c-1.238281 2.273438-3.578125 3.554688-5.996094 3.554688zm-2.210937-62.515625c-7.726563 0-15.222656 4.105469-19.179687 11.34375-5.769532 10.558593-1.878907 23.84375 8.675781 29.613281l10.007812 5.46875 20.929688-38.289062-10.003907-5.46875c-3.3125-1.808594-6.898437-2.667969-10.429687-2.667969zm0 0" fill="#4c241d"/><path d="m44.5625 268.023438 27.480469-50.269532 45.699219 24.980469-27.480469 50.273437zm0 0" fill="#ffce56"/><path d="m90.242188 299.820312c-1.132813 0-2.257813-.285156-3.273438-.835937l-45.695312-24.980469c-3.308594-1.808594-4.527344-5.957031-2.714844-9.265625l27.476562-50.265625c.867188-1.589844 2.332032-2.769531 4.070313-3.277344 1.742187-.515624 3.605469-.308593 5.191406.558594l45.699219 24.980469c3.308594 1.808594 4.523437 5.957031 2.714844 9.265625l-27.476563 50.265625c-.867187 1.589844-2.332031 2.769531-4.070313 3.277344-.628906.1875-1.277343.277343-1.921874.277343zm-36.433594-34.523437 33.71875 18.433594 20.929687-38.289063-33.71875-18.433594zm0 0" fill="#4c241d"/><path d="m366.226562 44.109375c-1.746093 0-3.492187-.667969-4.828124-2-2.664063-2.667969-2.664063-6.988281 0-9.652344l30.042968-30.042969c2.664063-2.664062 6.988282-2.664062 9.652344 0 2.667969 2.667969 2.667969 6.988282 0 9.652344l-30.039062 30.042969c-1.335938 1.335937-3.082032 2-4.828126 2zm0 0" fill="#4c241d"/><path d="m49.203125 168.042969c-13.878906-7.589844-31.285156-2.488281-38.871094 11.394531-7.589843 13.878906-2.488281 31.285156 11.390625 38.871094l15.996094 8.742187 27.476562-50.265625zm0 0" fill="#fff"/><path d="m37.714844 233.878906c-1.105469 0-2.226563-.265625-3.265625-.835937l-16-8.742188c-17.160157-9.378906-23.488281-30.972656-14.109375-48.136719 9.378906-17.15625 30.980468-23.484374 48.136718-14.109374l15.992188 8.742187c3.308594 1.8125 4.527344 5.957031 2.71875 9.265625l-27.476562 50.265625c-1.242188 2.269531-3.582032 3.550781-5.996094 3.550781zm-2.214844-62.515625c-7.726562 0-15.21875 4.105469-19.179688 11.347657-5.769531 10.554687-1.875 23.839843 8.675782 29.609374l10.007812 5.46875 20.929688-38.285156-10.003906-5.472656c-3.3125-1.808594-6.898438-2.667969-10.429688-2.667969zm0 0" fill="#4c241d"/><path d="m37.734375 227.0625 27.480469-50.269531 45.699218 24.980469-27.480468 50.269531zm0 0" fill="#ffce56"/><path d="m83.417969 258.859375c-1.132813 0-2.261719-.285156-3.273438-.835937l-45.695312-24.980469c-3.3125-1.808594-4.527344-5.957031-2.71875-9.265625l27.476562-50.265625c.867188-1.589844 2.332031-2.769531 4.070313-3.277344 1.742187-.511719 3.605468-.304687 5.195312.5625l45.695313 24.980469c3.308593 1.804687 4.527343 5.953125 2.714843 9.261718l-27.476562 50.265626c-.867188 1.589843-2.332031 2.769531-4.070312 3.277343-.628907.1875-1.277344.277344-1.917969.277344zm-36.433594-34.523437 33.714844 18.433593 20.929687-38.285156-33.714844-18.433594zm0 0" fill="#4c241d"/><path d="m368.804688 209.003906c13.878906-7.589844 31.285156-2.488281 38.871093 11.390625 7.589844 13.882813 2.488281 31.285157-11.394531 38.875l-15.992188 8.742188-27.476562-50.265625zm0 0" fill="#fff"/><path d="m380.292969 274.839844c-2.417969 0-4.757813-1.28125-5.996094-3.554688l-27.476563-50.265625c-1.8125-3.304687-.59375-7.453125 2.714844-9.261719l15.992188-8.746093c17.164062-9.386719 38.757812-3.054688 48.136718 14.113281 9.382813 17.164062 3.050782 38.757812-14.109374 48.136719l-15.996094 8.742187c-1.039063.566406-2.15625.835938-3.265625.835938zm-18.21875-54.378906 20.929687 38.289062 10.003906-5.46875c10.554688-5.769531 14.449219-19.054688 8.679688-29.613281-5.769531-10.546875-19.046875-14.441407-29.613281-8.675781zm0 0" fill="#4c241d"/><path d="m307.140625 242.71875 45.699219-24.980469 27.484375 50.269531-45.699219 24.980469zm0 0" fill="#ffce56"/><path d="m334.589844 299.820312c-.644532 0-1.289063-.089843-1.917969-.277343-1.738281-.507813-3.203125-1.6875-4.070313-3.277344l-27.480468-50.265625c-1.808594-3.308594-.59375-7.457031 2.71875-9.265625l45.695312-24.980469c1.585938-.867187 3.457032-1.074218 5.195313-.558594 1.734375.507813 3.203125 1.6875 4.070312 3.277344l27.476563 50.265625c1.808594 3.308594.59375 7.457031-2.71875 9.265625l-45.695313 24.980469c-1.011719.550781-2.140625.835937-3.273437.835937zm-18.214844-54.378906 20.933594 38.289063 33.714844-18.433594-20.929688-38.289063zm0 0" fill="#4c241d"/><path d="m375.628906 168.042969c13.882813-7.589844 31.285156-2.488281 38.875 11.394531 7.585938 13.878906 2.484375 31.285156-11.394531 38.871094l-15.996094 8.742187-27.476562-50.265625zm0 0" fill="#fff"/><path d="m387.121094 233.878906c-2.417969 0-4.757813-1.28125-6-3.550781l-27.476563-50.265625c-1.808593-3.308594-.59375-7.453125 2.71875-9.265625l15.992188-8.742187c17.167969-9.382813 38.753906-3.050782 48.136719 14.109374 9.378906 17.164063 3.050781 38.757813-14.109376 48.136719l-16 8.742188c-1.035156.566406-2.15625.835937-3.261718.835937zm-18.222656-54.375 20.929687 38.285156 10.007813-5.46875c10.554687-5.769531 14.445312-19.054687 8.675781-29.609374-5.765625-10.546876-19.050781-14.445313-29.609375-8.679688zm0 0" fill="#4c241d"/><path d="m313.96875 201.757812 45.699219-24.980468 27.480469 50.269531-45.699219 24.980469zm0 0" fill="#ffce56"/><path d="m341.417969 258.859375c-.644531 0-1.292969-.089844-1.921875-.277344-1.738282-.507812-3.203125-1.6875-4.070313-3.277343l-27.476562-50.265626c-1.8125-3.308593-.59375-7.457031 2.71875-9.261718l45.695312-24.980469c1.589844-.867187 3.449219-1.074219 5.191407-.5625 1.738281.507813 3.203124 1.6875 4.070312 3.277344l27.476562 50.265625c1.8125 3.308594.597657 7.457031-2.714843 9.265625l-45.695313 24.980469c-1.015625.550781-2.140625.835937-3.273437.835937zm-18.214844-54.375 20.929687 38.285156 33.71875-18.433593-20.929687-38.285157zm0 0" fill="#4c241d"/><path d="m396.265625 44.109375c-1.742187 0-3.492187-.667969-4.824219-2l-30.042968-30.039063c-2.664063-2.667968-2.664063-6.988281 0-9.652343 2.667968-2.667969 6.988281-2.667969 9.65625 0l30.039062 30.039062c2.667969 2.667969 2.667969 6.988281 0 9.652344-1.335938 1.335937-3.082031 2-4.828125 2zm0 0" fill="#4c241d"/><path d="m90.472656 156.695312c-10.785156 17.40625-17.992187 37.410157-20.480468 59.105469-9.023438 78.660157 47.429687 149.738281 126.089843 158.761719 78.65625 9.023438 149.738281-47.429688 158.761719-126.089844s-47.429688-149.738281-126.089844-158.761718c-36.046875-4.136719-70.5 5.480468-98.121094 24.683593" fill="#a9ba5a"/><path d="m212.53125 382.332031c-5.695312 0-11.4375-.320312-17.230469-.984375-39.855469-4.574218-75.546875-24.390625-100.496093-55.808594-24.945313-31.410156-36.167969-70.660156-31.601563-110.515624 2.550781-22.222657 9.777344-43.058594 21.464844-61.925782 1.988281-3.199218 6.195312-4.195312 9.398437-2.207031 3.207032 1.984375 4.195313 6.191406 2.207032 9.398437-10.621094 17.144532-17.183594 36.085938-19.503907 56.289063-8.578125 74.792969 45.292969 142.621094 120.085938 151.203125 74.804687 8.566406 142.621093-45.289062 151.203125-120.082031 8.582031-74.792969-45.289063-142.625-120.082032-151.207031-33.050781-3.800782-66.203124 4.566406-93.453124 23.507812-3.089844 2.152344-7.347657 1.386719-9.5-1.710938-2.152344-3.09375-1.386719-7.351562 1.707031-9.503906 29.976562-20.835937 66.503906-30.015625 102.796875-25.859375 82.277344 9.441407 141.535156 84.050781 132.097656 166.324219-8.773438 76.488281-73.878906 133.078125-149.09375 133.082031zm0 0" fill="#4c241d"/><path d="m102.882812 146.445312c-1.554687 0-3.121093-.53125-4.40625-1.613281-2.878906-2.4375-3.234374-6.742187-.804687-9.621093 3.269531-3.867188 6.792969-7.621094 10.460937-11.160157 2.714844-2.609375 7.03125-2.539062 9.652344.171875 2.617188 2.714844 2.539063 7.039063-.171875 9.652344-3.339843 3.226562-6.546875 6.640625-9.515625 10.15625-1.351562 1.59375-3.273437 2.414062-5.214844 2.414062zm0 0" fill="#4c241d"/><path d="m314.816406 215.070312c0-28.277343-12.226562-51.199218-27.304687-51.199218-15.082031 0-27.308594 22.921875-27.308594 51.199218 0 28.277344 12.226563 51.199219 27.308594 51.199219 15.078125 0 27.304687-22.921875 27.304687-51.199219zm0 0" fill="#6b4f5b"/><path d="m287.511719 273.097656c-19.140625 0-34.136719-25.488281-34.136719-58.027344 0-32.539062 14.996094-58.027343 34.136719-58.027343s34.132812 25.488281 34.132812 58.027343c0 32.539063-14.992187 58.027344-34.132812 58.027344zm0-102.402344c-9.6875 0-20.480469 18.226563-20.480469 44.375 0 26.148438 10.792969 44.371094 20.480469 44.371094 9.683593 0 20.476562-18.222656 20.476562-44.371094 0-26.148437-10.792969-44.375-20.476562-44.375zm0 0" fill="#4c241d"/><path d="m164.628906 215.070312c0-28.277343-12.222656-51.199218-27.304687-51.199218s-27.308594 22.921875-27.308594 51.199218c0 28.277344 12.226563 51.199219 27.308594 51.199219s27.304687-22.921875 27.304687-51.199219zm0 0" fill="#6b4f5b"/><path d="m137.324219 273.097656c-19.140625 0-34.132813-25.488281-34.132813-58.027344 0-32.539062 14.992188-58.027343 34.132813-58.027343s34.132812 25.488281 34.132812 58.027343c0 32.539063-14.992187 58.027344-34.132812 58.027344zm0-102.402344c-9.6875 0-20.480469 18.226563-20.480469 44.375 0 26.148438 10.792969 44.371094 20.480469 44.371094s20.480469-18.222656 20.480469-44.371094c0-26.148437-10.792969-44.375-20.480469-44.375zm0 0" fill="#4c241d"/><path d="m38.761719 128.683594c0 6.289062-5.097657 11.386718-11.386719 11.386718s-11.386719-5.097656-11.386719-11.386718c0-6.285156 5.097657-11.382813 11.386719-11.382813s11.386719 5.097657 11.386719 11.382813zm0 0" fill="#4c241d"/><path d="m213.089844 281.769531c-10.9375 0-21.101563 5.632813-26.898438 14.90625l-39.273437 62.839844c14.960937 7.699219 31.457031 13.015625 49.164062 15.046875 30.113281 3.453125 59.078125-2.75 83.914063-16.0625l-40.277344-62.246094c-5.84375-9.03125-15.871094-14.484375-26.628906-14.484375zm0 0" fill="#f53e28"/><path d="m212.523438 382.332031c-5.726563 0-11.472657-.328125-17.222657-.984375-17.839843-2.050781-35.167969-7.355468-51.507812-15.761718-1.699219-.871094-2.953125-2.414063-3.460938-4.257813-.507812-1.839844-.214843-3.808594.792969-5.429687l39.273438-62.835938c7.089843-11.34375 19.3125-18.117188 32.691406-18.117188 13.132812 0 25.230468 6.578126 32.363281 17.605469l40.273437 62.242188c1.035157 1.605469 1.355469 3.566406.878907 5.414062-.472657 1.851563-1.703125 3.414063-3.382813 4.3125-21.949218 11.761719-46.101562 17.8125-70.699218 17.8125zm-55.78125-25.65625c12.871093 5.796875 26.332031 9.519531 40.117187 11.105469 25.203125 2.882812 50.394531-1.242188 73.273437-11.960938l-36.140624-55.855468c-4.609376-7.121094-12.421876-11.367188-20.902344-11.367188-8.636719 0-16.53125 4.371094-21.109375 11.699219zm0 0" fill="#4c241d"/><path d="m238.910156 91.316406c-8.59375-1.609375-17.429687-2.539062-26.492187-2.539062-11.253907 0-22.191407 1.328125-32.695313 3.777344-31.070312-63.074219-66.59375-58.648438-66.59375-58.648438 20.664063 76.746094 56.105469 118.519531 78.398438 138.371094 11.394531 10.144531 28.589844 9.90625 39.53125-.726563 20.726562-20.132812 53.40625-61.820312 73.820312-137.644531 0 0-35.050781-4.351562-65.96875 57.410156zm0 0" fill="#f53e28"/><path d="m210.949219 186.460938c-8.558594 0-17.136719-3.015626-23.960938-9.085938-25.382812-22.601562-59.945312-65.53125-80.453125-141.695312-.511718-1.90625-.171875-3.945313.929688-5.582032 1.101562-1.640625 2.863281-2.71875 4.820312-2.964844 1.609375-.226562 38.835938-4.046874 71.140625 57.648438 16.863281-3.320312 33.90625-3.792969 51.707031-1.03125 32.179688-60.625 68.996094-56.832031 70.585938-56.617188 1.960938.246094 3.71875 1.324219 4.820312 2.964844 1.101563 1.640625 1.445313 3.675782.929688 5.582032-20.269531 75.289062-52.328125 118.105468-75.652344 140.765624-6.859375 6.664063-15.847656 10.015626-24.867187 10.015626zm-88.433594-144.476563c20.988281 70.417969 54.769531 108.46875 73.550781 125.191406 8.835938 7.859375 21.835938 7.636719 30.238282-.523437 21.074218-20.472656 49.71875-58.492188 69.210937-124.683594-11.136719 3.234375-31.46875 14.390625-50.5 52.402344-1.363281 2.726562-4.375 4.21875-7.359375 3.65625-19.566406-3.664063-38.140625-3.082032-56.382812 1.175781-3.089844.734375-6.273438-.785156-7.675782-3.632813-19.175781-38.925781-39.789062-50.300781-51.082031-53.585937zm0 0" fill="#4c241d"/><path d="m256.574219 373.054688c-1.386719 0-2.78125-.417969-3.988281-1.289063-10.050782-7.246094-32.726563-26.875-26.3125-52.539063.878906-3.519531 4.351562-5.730468 7.910156-5.046874l24.601562 4.714843c3.703125.710938 6.125 4.289063 5.414063 7.992188-.707031 3.703125-4.246094 6.128906-7.988281 5.417969l-17.367188-3.332032c.53125 14.71875 14.910156 26.800782 21.726562 31.722656 3.058594 2.207032 3.75 6.472657 1.542969 9.527344-1.328125 1.851563-3.421875 2.832032-5.539062 2.832032zm0 0" fill="#4c241d"/><path d="m167.621094 373.511719c-2.144532 0-4.253906-1.003907-5.582032-2.886719-2.175781-3.082031-1.441406-7.339844 1.640626-9.515625 5.492187-3.878906 21.660156-16.597656 22.292968-32.132813l-14.832031 2.84375c-3.71875.71875-7.28125-1.714843-7.988281-5.417968-.710938-3.703125 1.714844-7.277344 5.414062-7.988282l22.082032-4.234374c3.5625-.675782 7.03125 1.535156 7.910156 5.046874 6.515625 26.0625-16.71875 45.773438-27.007813 53.039063-1.195312.839844-2.570312 1.246094-3.929687 1.246094zm0 0" fill="#4c241d"/><path d="m314.816406 187.761719c0 5.65625-4.585937 10.242187-10.238281 10.242187-5.65625 0-10.242187-4.585937-10.242187-10.242187s4.585937-10.238281 10.242187-10.238281c5.652344 0 10.238281 4.582031 10.238281 10.238281zm0 0" fill="#fff"/><path d="m130.496094 187.761719c0 5.65625-4.582032 10.242187-10.238282 10.242187s-10.242187-4.585937-10.242187-10.242187 4.585937-10.238281 10.242187-10.238281 10.238282 4.582031 10.238282 10.238281zm0 0" fill="#fff"/><path d="m213.851562 360.203125c-9.292968 0-18.996093-1.640625-29.058593-4.921875-3.582031-1.167969-5.542969-5.023438-4.371094-8.605469 1.175781-3.582031 5.019531-5.53125 8.605469-4.371093 17.0625 5.570312 32.070312 5.71875 45.886718.460937 3.523438-1.320313 7.464844.433594 8.804688 3.960937 1.335938 3.519532-.433594 7.464844-3.960938 8.804688-8.195312 3.113281-16.855468 4.671875-25.90625 4.671875zm0 0" fill="#4c241d"/></svg>