<svg height="415pt" viewBox="-1 0 415 415.26613" width="415pt" xmlns="http://www.w3.org/2000/svg"><path d="m329.851562 215.039062c0 84.832032-68.769531 153.601563-153.597656 153.601563-84.832031 0-153.601562-68.769531-153.601562-153.601563 0-84.828124 68.769531-153.597656 153.601562-153.597656 84.828125 0 153.597656 68.769532 153.597656 153.597656zm0 0" fill="#c1dbdc"/><g fill="#4c241d"><path d="m338.152344 32.660156c-1.746094 0-3.492188-.667968-4.828125-2-2.664063-2.664062-2.664063-6.988281 0-9.652344l12.453125-12.453124c2.667968-2.667969 6.988281-2.667969 9.65625 0 2.664062 2.664062 2.664062 6.984374 0 9.652343l-12.457032 12.453125c-1.332031 1.332032-3.078124 2-4.824218 2zm0 0"/><path d="m309.097656 61.714844c-1.742187 0-3.492187-.667969-4.824218-2.003906-2.667969-2.664063-2.667969-6.984376 0-9.652344l12.453124-12.453125c2.664063-2.664063 6.988282-2.664063 9.652344 0 2.667969 2.667969 2.667969 6.988281 0 9.652343l-12.453125 12.453126c-1.332031 1.335937-3.082031 2.003906-4.828125 2.003906zm0 0"/><path d="m321.554688 32.660156c-1.746094 0-3.496094-.667968-4.828126-2l-12.453124-12.453125c-2.667969-2.667969-2.667969-6.988281 0-9.652343 2.664062-2.667969 6.988281-2.667969 9.652343 0l12.453125 12.453124c2.667969 2.664063 2.667969 6.988282 0 9.652344-1.332031 1.332032-3.078125 2-4.824218 2zm0 0"/><path d="m350.605469 61.714844c-1.746094 0-3.492188-.667969-4.828125-2.003906l-12.453125-12.453126c-2.664063-2.664062-2.664063-6.984374 0-9.652343 2.667969-2.664063 6.988281-2.664063 9.652343 0l12.457032 12.453125c2.664062 2.667968 2.664062 6.988281 0 9.652344-1.335938 1.335937-3.082032 2.003906-4.828125 2.003906zm0 0"/><path d="m65.652344 382.292969h-17.605469c-3.773437 0-6.828125-3.054688-6.828125-6.828125 0-3.773438 3.054688-6.824219 6.828125-6.824219h17.605469c3.773437 0 6.828125 3.050781 6.828125 6.824219 0 3.773437-3.054688 6.828125-6.828125 6.828125zm0 0"/><path d="m24.566406 382.292969h-17.605468c-3.773438 0-6.828126-3.054688-6.828126-6.828125 0-3.773438 3.054688-6.824219 6.828126-6.824219h17.605468c3.773438 0 6.824219 3.050781 6.824219 6.824219 0 3.773437-3.050781 6.828125-6.824219 6.828125zm0 0"/><path d="m36.304688 370.554688c-3.773438 0-6.824219-3.054688-6.824219-6.828126v-17.605468c0-3.773438 3.050781-6.828125 6.824219-6.828125 3.773437 0 6.828124 3.054687 6.828124 6.828125v17.605468c0 3.773438-3.054687 6.828126-6.828124 6.828126zm0 0"/><path d="m36.304688 411.640625c-3.773438 0-6.824219-3.054687-6.824219-6.828125v-17.605469c0-3.773437 3.050781-6.828125 6.824219-6.828125 3.773437 0 6.828124 3.054688 6.828124 6.828125v17.605469c0 3.773438-3.054687 6.828125-6.828124 6.828125zm0 0"/><path d="m362.667969 390.273438c-11.613281 0-21.0625-9.445313-21.0625-21.054688 0-11.613281 9.449219-21.058594 21.0625-21.058594s21.058593 9.445313 21.058593 21.058594c0 11.605469-9.449218 21.054688-21.058593 21.054688zm0-28.460938c-4.089844 0-7.410157 3.320312-7.410157 7.40625 0 4.082031 3.320313 7.402344 7.410157 7.402344 4.085937 0 7.40625-3.320313 7.40625-7.402344-.003907-4.085938-3.320313-7.40625-7.40625-7.40625zm0 0"/><path d="m96.425781 42.113281c-11.613281 0-21.058593-9.445312-21.058593-21.054687 0-11.613282 9.445312-21.058594 21.058593-21.058594s21.0625 9.445312 21.0625 21.058594c-.003906 11.605468-9.449219 21.054687-21.0625 21.054687zm0-28.460937c-4.085937 0-7.40625 3.320312-7.40625 7.40625 0 4.082031 3.320313 7.402344 7.40625 7.402344 4.089844 0 7.40625-3.320313 7.40625-7.402344 0-4.085938-3.320312-7.40625-7.40625-7.40625zm0 0"/><path d="m31.480469 184.320312c0 4.875-3.953125 8.828126-8.828125 8.828126s-8.828125-3.953126-8.828125-8.828126 3.953125-8.828124 8.828125-8.828124 8.828125 3.953124 8.828125 8.828124zm0 0"/></g><path d="m264.421875 98.585938c26.460937-13.433594 58.5-18.828126 97.75-11.753907 4.839844 42.296875-3.097656 75.246094-22.3125 99.941407zm0 0" fill="#ffce56"/><path d="m339.859375 193.597656c-1.992187 0-3.886719-.871094-5.1875-2.382812l-75.441406-88.1875c-1.359375-1.59375-1.917969-3.722656-1.503907-5.773438.40625-2.054687 1.734376-3.808594 3.597657-4.753906 29.6875-15.085938 64.019531-19.238281 102.0625-12.386719 2.957031.53125 5.222656 2.953125 5.566406 5.945313 4.925781 43.058594-3.046875 78.351562-23.707031 104.90625-1.261719 1.621094-3.179688 2.589844-5.226563 2.632812-.054687 0-.105469 0-.160156 0zm-64.40625-92.617187 63.90625 74.707031c14.011719-21.722656 19.574219-49.574219 16.550781-82.980469-29.664062-4.5625-56.671875-1.792969-80.457031 8.273438zm0 0" fill="#4c241d"/><path d="m278.753906 115.339844c16.40625-8.328125 36.269532-11.671875 60.605469-7.285156 3 26.222656-1.921875 46.652343-13.832031 61.960937zm0 0" fill="#efefd2"/><path d="m325.527344 176.847656c-1.996094 0-3.886719-.875-5.1875-2.386718l-46.773438-54.679688c-1.359375-1.59375-1.917968-3.722656-1.507812-5.773438.40625-2.054687 1.742187-3.804687 3.605468-4.753906 18.921876-9.605468 40.753907-12.273437 64.90625-7.921875 2.960938.535157 5.226563 2.953125 5.570313 5.949219 3.132813 27.390625-1.988281 49.910156-15.226563 66.933594-1.261718 1.617187-3.179687 2.585937-5.226562 2.632812-.054688 0-.109375 0-.160156 0zm-35.601563-58.949218 34.929688 40.828124c6.765625-12.050781 9.519531-27.054687 8.207031-44.761718-15.722656-2.144532-30.191406-.824219-43.136719 3.933594zm0 0" fill="#4c241d"/><path d="m149.523438 98.585938c-26.460938-13.433594-58.5-18.828126-97.75-11.753907-4.839844 42.296875 3.097656 75.246094 22.3125 99.941407zm0 0" fill="#ffce56"/><path d="m74.085938 193.597656c-.050782 0-.105469 0-.160157 0-2.046875-.042968-3.964843-1.011718-5.226562-2.632812-20.660157-26.554688-28.632813-61.84375-23.707031-104.90625.339843-2.992188 2.605468-5.414063 5.566406-5.945313 38.054687-6.835937 72.382812-2.6875 102.0625 12.386719 1.867187.945312 3.191406 2.699219 3.597656 4.753906.414062 2.050782-.144531 4.179688-1.507812 5.773438l-75.4375 88.1875c-1.300782 1.511718-3.195313 2.382812-5.1875 2.382812zm-16.050782-100.890625c-3.023437 33.40625 2.539063 61.261719 16.550782 82.980469l63.90625-74.707031c-23.785157-10.0625-50.785157-12.839844-80.457032-8.273438zm0 0" fill="#4c241d"/><path d="m135.191406 115.339844c-16.40625-8.328125-36.269531-11.671875-60.605468-7.285156-3 26.222656 1.921874 46.652343 13.832031 61.960937zm0 0" fill="#efefd2"/><path d="m88.417969 176.847656c-.050781 0-.105469 0-.160157 0-2.046874-.046875-3.964843-1.015625-5.226562-2.632812-13.238281-17.023438-18.359375-39.542969-15.226562-66.933594.339843-2.996094 2.605468-5.414062 5.566406-5.949219 24.136718-4.351562 45.980468-1.683593 64.90625 7.921875 1.867187.949219 3.203125 2.699219 3.609375 4.753906.410156 2.050782-.148438 4.179688-1.507813 5.773438l-46.773437 54.679688c-1.296875 1.511718-3.191407 2.386718-5.1875 2.386718zm-7.53125-62.882812c-1.316407 17.707031 1.4375 32.707031 8.207031 44.761718l34.925781-40.828124c-12.945312-4.757813-27.40625-6.078126-43.132812-3.933594zm0 0" fill="#4c241d"/><path d="m413.773438 163.839844c0 4.875-3.953126 8.828125-8.828126 8.828125s-8.828124-3.953125-8.828124-8.828125 3.953124-8.828125 8.828124-8.828125 8.828126 3.953125 8.828126 8.828125zm0 0" fill="#4c241d"/><path d="m67.066406 227.429688c-1.179687 73.808593 50.800782 126.507812 127.960938 177.425781 7.25 4.769531 16.640625 4.769531 23.886718 0 77.164063-50.917969 129.140626-103.617188 127.964844-177.425781-3.148437-197.769532-276.796875-188.761719-279.8125 0zm0 0" fill="#ffce56"/><path d="m206.972656 415.265625c-5.464844 0-10.925781-1.566406-15.691406-4.699219-65.5625-43.269531-132.386719-98.859375-131.042969-183.246094 1.597657-99.582031 76.214844-151.6875 149.101563-151.6875 37.582031 0 72.554687 13.378907 98.492187 37.679688 29.261719 27.414062 45.121094 66.832031 45.875 114.007812 1.347657 84.386719-65.480469 139.980469-131.03125 183.238282-4.777343 3.132812-10.242187 4.707031-15.703125 4.707031zm2.367188-325.980469c-87.472656 0-134.355469 69.546875-135.445313 138.246094-.996093 61.882812 36.367188 113.207031 124.898438 171.628906 4.960937 3.265625 11.394531 3.277344 16.367187-.007812 88.527344-58.414063 125.886719-109.742188 124.894532-171.621094-1.523438-95.5-66.75-138.246094-130.714844-138.246094zm-142.273438 138.140625h.066406zm0 0" fill="#4c241d"/><path d="m329.027344 233.285156c-25.066406-16.015625-58.574219-13.898437-79.609375 7.132813-11.738281 11.738281-27.949219 18.996093-45.859375 18.996093-17.90625 0-34.121094-7.257812-45.859375-18.996093-20.847657-20.851563-54.140625-22.734375-78.777344-6.527344l-11.417969 7.511719c5.183594 66.601562 55.324219 115.808594 127.523438 163.453125 7.25 4.769531 16.640625 4.769531 23.886718 0 71.179688-46.964844 120.820313-95.492188 127.183594-160.664063zm0 0" fill="#efefd2"/><path d="m206.964844 415.265625c-5.457032 0-10.917969-1.566406-15.683594-4.699219-61.226562-40.40625-124.617188-92.035156-130.582031-168.632812-.191407-2.480469.980469-4.871094 3.058593-6.238282l11.421876-7.507812c27.953124-18.375 64.691406-15.265625 87.347656 7.40625 10.964844 10.960938 25.539062 16.996094 41.03125 16.996094 15.492187 0 30.066406-6.035156 41.035156-16.996094 22.753906-22.757812 59.8125-26.136719 88.105469-8.058594l17.074219 10.90625c2.167968 1.382813 3.375 3.859375 3.117187 6.421875-7.339844 75.125-69.9375 125.917969-130.210937 165.699219-4.773438 3.128906-10.242188 4.703125-15.714844 4.703125zm-132.285156-170.410156c5.804687 54.53125 43.199218 100.917969 124.105468 154.304687 4.972656 3.273438 11.414063 3.265625 16.386719-.007812 79.566406-52.511719 116.855469-98.074219 123.667969-151.492188l-13.484375-8.621094c-22.949219-14.667968-52.855469-12.039062-71.109375 6.207032-13.546875 13.539062-31.546875 20.992187-50.683594 20.992187-19.140625 0-37.140625-7.453125-50.6875-20.992187-18.113281-18.121094-47.632812-20.5-70.195312-5.652344zm0 0" fill="#4c241d"/><path d="m333.109375 258.171875c-8.226563 12.179687-30.839844 22.980469-49.277344 30.167969-13.898437 5.414062-29.039062-4.074219-30.386719-18.929688-1.910156-21.085937-2.332031-48.394531 6.117188-60.90625 14.769531-21.871094 43.207031-28.484375 63.515625-14.765625 20.308594 13.714844 24.800781 42.5625 10.03125 64.433594zm0 0" fill="#6b4f5b"/><path d="m275.691406 296.710938c-5.316406 0-10.585937-1.476563-15.285156-4.390626-7.90625-4.894531-12.917969-13.019531-13.757812-22.292968-2.886719-31.953125-.449219-53.933594 7.253906-65.339844 8.113281-12.011719 20.117187-20.378906 33.800781-23.5625 13.859375-3.199219 27.792969-.75 39.199219 6.960938 11.414062 7.699218 18.90625 19.695312 21.09375 33.761718 2.160156 13.878906-1.121094 28.132813-9.226563 40.144532-7.453125 11.039062-25.101562 22.039062-52.453125 32.707031-3.464844 1.347656-7.050781 2.011719-10.625 2.011719zm23.828125-103.304688c-2.878906 0-5.800781.339844-8.726562 1.019531-10.3125 2.394531-19.398438 8.753907-25.570313 17.902344-5.734375 8.484375-7.503906 28.539063-4.976562 56.472656.449218 4.957031 3.128906 9.300781 7.347656 11.910157 4.179688 2.589843 9.203125 3.054687 13.761719 1.269531 24.019531-9.367188 40.390625-19.179688 46.09375-27.628907 6.179687-9.144531 8.6875-19.949218 7.050781-30.40625-1.59375-10.273437-7.003906-18.992187-15.238281-24.546874-5.855469-3.953126-12.65625-5.992188-19.742188-5.992188zm0 0" fill="#4c241d"/><path d="m297.921875 250.023438c20.515625-16.957032 27.007813-43.40625 15.683594-60.996094-18.949219-6.667969-41.457031.835937-54.042969 19.476562-7.617188 11.277344-8.007812 34.546875-6.613281 54.476563 14.191406 2.835937 31.105469-1.492188 44.972656-12.957031zm0 0" fill="#fff"/><path d="m261.660156 270.652344c-3.40625 0-6.769531-.324219-10.046875-.980469-3.023437-.597656-5.261719-3.144531-5.480469-6.21875-1.972656-28.425781.640626-48.199219 7.765626-58.765625 14.113281-20.882812 39.585937-29.957031 61.972656-22.101562 1.425781.507812 2.652344 1.464843 3.472656 2.746093 13.382812 20.78125 6.035156 50.855469-17.078125 69.953125-12.019531 9.941406-26.628906 15.367188-40.605469 15.367188zm-2.234375-13.710938c11.351563.660156 23.878907-3.695312 34.144531-12.175781 16.707032-13.8125 23.1875-35.292969 15.472657-50.019531-15.929688-4.441406-33.683594 2.558594-43.824219 17.582031-2.859375 4.230469-7.226562 15.558594-5.792969 44.613281zm38.492188-6.914062h.066406zm0 0" fill="#4c241d"/><path d="m80.835938 258.171875c8.226562 12.179687 30.839843 22.980469 49.273437 30.167969 13.902344 5.414062 29.042969-4.074219 30.390625-18.929688 1.90625-21.085937 2.332031-48.394531-6.117188-60.90625-14.769531-21.871094-43.207031-28.484375-63.515624-14.765625-20.308594 13.714844-24.800782 42.5625-10.03125 64.433594zm0 0" fill="#6b4f5b"/><path d="m138.25 296.710938c-3.570312 0-7.15625-.664063-10.617188-2.011719-27.355468-10.667969-45-21.667969-52.453124-32.707031-8.109376-12.011719-11.386719-26.265626-9.226563-40.144532 2.183594-14.066406 9.679687-26.0625 21.09375-33.769531 11.40625-7.710937 25.316406-10.183594 39.199219-6.953125 13.679687 3.179688 25.6875 11.550781 33.800781 23.5625 7.699219 11.40625 10.136719 33.386719 7.253906 65.339844-.839843 9.273437-5.855469 17.398437-13.761719 22.292968-4.699218 2.914063-9.964843 4.390626-15.289062 4.390626zm-23.824219-103.304688c-7.085937 0-13.886719 2.03125-19.738281 5.988281-8.234375 5.558594-13.648438 14.277344-15.242188 24.550781-1.632812 10.460938.875 21.261719 7.054688 30.40625 5.699219 8.449219 22.074219 18.261719 46.09375 27.628907 4.574219 1.785156 9.59375 1.320312 13.757812-1.265625 4.222657-2.613282 6.902344-6.953125 7.347657-11.914063 2.527343-27.933593.761719-47.984375-4.972657-56.472656-6.171874-9.144531-15.257812-15.507813-25.570312-17.898437-2.929688-.683594-5.855469-1.023438-8.730469-1.023438zm0 0" fill="#4c241d"/><path d="m116.023438 250.023438c-20.515626-16.957032-27.007813-43.40625-15.683594-60.996094 18.949218-6.667969 41.457031.835937 54.042968 19.476562 7.617188 11.277344 8.007813 34.546875 6.613282 54.476563-14.191406 2.835937-31.105469-1.492188-44.972656-12.957031zm0 0" fill="#fff"/><path d="m152.285156 270.652344c-13.984375 0-28.585937-5.425782-40.613281-15.367188-23.113281-19.105468-30.445313-49.179687-17.074219-69.953125.820313-1.277343 2.046875-2.238281 3.472656-2.746093 22.386719-7.863282 47.863282 1.214843 61.96875 22.101562 7.132813 10.566406 9.746094 30.339844 7.773438 58.765625-.21875 3.074219-2.457031 5.621094-5.480469 6.222656-3.277343.648438-6.648437.976563-10.046875.976563zm-31.917968-25.886719c10.265624 8.480469 22.679687 12.867187 34.152343 12.175781 1.433594-29.054687-2.933593-40.386718-5.792969-44.613281-10.140624-15.015625-27.875-22.019531-43.828124-17.582031-7.710938 14.726562-1.238282 36.207031 15.46875 50.019531zm0 0" fill="#4c241d"/><path d="m148.460938 205.507812c-1.5 0-3.015626-.496093-4.273438-1.515624-2.941406-2.359376-3.402344-6.660157-1.035156-9.59375 15.648437-19.417969 38.90625-30.558594 63.820312-30.558594 24.613282 0 47.707032 10.917968 63.339844 29.96875 2.394531 2.910156 1.972656 7.210937-.9375 9.605468-2.929688 2.40625-7.226562 1.960938-9.609375-.941406-13.039063-15.871094-32.277344-24.980468-52.792969-24.980468-20.761718 0-40.144531 9.289062-53.195312 25.46875-1.34375 1.679687-3.316406 2.546874-5.316406 2.546874zm0 0" fill="#4c241d"/><path d="m104.484375 194.253906c-.785156 0-1.585937-.132812-2.367187-.421875-3.53125-1.304687-5.347657-5.230469-4.039063-8.773437 16.761719-45.359375 60.519531-75.832032 108.894531-75.832032 46.746094 0 88.71875 27.820313 106.925782 70.878907 1.464843 3.472656-.152344 7.480469-3.625 8.945312-3.460938 1.464844-7.480469-.152343-8.949219-3.625-16.066407-37.996093-53.105469-62.546875-94.351563-62.546875-42.6875 0-81.300781 26.894532-96.082031 66.914063-1.015625 2.753906-3.632813 4.460937-6.40625 4.460937zm0 0" fill="#4c241d"/><path d="m206.972656 177.492188c-3.773437 0-6.828125-3.050782-6.828125-6.824219v-54.613281c0-3.773438 3.054688-6.828126 6.828125-6.828126 3.773438 0 6.828125 3.054688 6.828125 6.828126v54.613281c0 3.773437-3.054687 6.824219-6.828125 6.824219zm0 0" fill="#4c241d"/></svg>