<svg height="425pt" viewBox="0 -4 425.29451 425" width="425pt" xmlns="http://www.w3.org/2000/svg"><path d="m316.066406 208.632812c0 84.832032-68.769531 153.601563-153.597656 153.601563-84.832031 0-153.601562-68.769531-153.601562-153.601563 0-84.832031 68.769531-153.601562 153.601562-153.601562 84.828125 0 153.597656 68.769531 153.597656 153.601562zm0 0" fill="#c1dbdc"/><g fill="#4c241d"><path d="m324.367188 26.253906c-1.746094 0-3.492188-.667968-4.828126-2-2.664062-2.667968-2.664062-6.988281 0-9.652344l12.457032-12.453124c2.664062-2.667969 6.984375-2.667969 9.652344 0 2.664062 2.664062 2.664062 6.984374 0 9.652343l-12.453126 12.453125c-1.335937 1.332032-3.082031 2-4.828124 2zm0 0"/><path d="m295.316406 55.304688c-1.746094 0-3.496094-.667969-4.828125-2-2.664062-2.664063-2.664062-6.984376 0-9.652344l12.453125-12.453125c2.667969-2.664063 6.988282-2.664063 9.652344 0 2.667969 2.664062 2.667969 6.988281 0 9.652343l-12.453125 12.453126c-1.335937 1.335937-3.078125 2-4.824219 2zm0 0"/><path d="m307.765625 26.253906c-1.746094 0-3.492187-.667968-4.824219-2l-12.453125-12.453125c-2.667969-2.667969-2.667969-6.988281 0-9.652343 2.664063-2.667969 6.984375-2.667969 9.652344 0l12.453125 12.453124c2.664062 2.664063 2.664062 6.984376 0 9.652344-1.332031 1.332032-3.078125 2-4.828125 2zm0 0"/><path d="m336.820312 55.304688c-1.746093 0-3.492187-.667969-4.824218-2l-12.457032-12.453126c-2.664062-2.664062-2.664062-6.988281 0-9.652343 2.667969-2.664063 6.988282-2.664063 9.65625 0l12.453126 12.453125c2.664062 2.667968 2.664062 6.988281 0 9.652344-1.335938 1.335937-3.082032 2-4.828126 2zm0 0"/><path d="m65.519531 375.886719h-17.605469c-3.773437 0-6.824218-3.058594-6.824218-6.828125 0-3.769532 3.050781-6.824219 6.824218-6.824219h17.605469c3.773438 0 6.828125 3.054687 6.828125 6.824219 0 3.769531-3.054687 6.828125-6.828125 6.828125zm0 0"/><path d="m24.433594 375.886719h-17.605469c-3.773437 0-6.828125-3.058594-6.828125-6.828125 0-3.769532 3.054688-6.824219 6.828125-6.824219h17.605469c3.773437 0 6.824218 3.054687 6.824218 6.824219 0 3.769531-3.050781 6.828125-6.824218 6.828125zm0 0"/><path d="m36.175781 364.144531c-3.773437 0-6.828125-3.054687-6.828125-6.824219v-17.609374c0-3.769532 3.054688-6.828126 6.828125-6.828126 3.773438 0 6.824219 3.058594 6.824219 6.828126v17.609374c0 3.769532-3.050781 6.824219-6.824219 6.824219zm0 0"/><path d="m36.175781 405.234375c-3.773437 0-6.828125-3.054687-6.828125-6.824219v-17.609375c0-3.769531 3.054688-6.828125 6.828125-6.828125 3.773438 0 6.824219 3.058594 6.824219 6.828125v17.609375c0 3.769532-3.050781 6.824219-6.824219 6.824219zm0 0"/><path d="m376.1875 404.347656c-11.613281 0-21.0625-9.449218-21.0625-21.058594 0-11.609374 9.449219-21.054687 21.0625-21.054687s21.058594 9.445313 21.058594 21.054687c0 11.609376-9.445313 21.058594-21.058594 21.058594zm0-28.460937c-4.089844 0-7.40625 3.320312-7.40625 7.402343 0 4.085938 3.316406 7.402344 7.40625 7.402344 4.085938 0 7.40625-3.316406 7.40625-7.402344 0-4.082031-3.320312-7.402343-7.40625-7.402343zm0 0"/><path d="m119.847656 73.675781c-1.746094 0-3.492187-.667969-4.828125-2-2.664062-2.664062-2.664062-6.988281 0-9.652343l20.128907-20.125c2.664062-2.667969 6.984374-2.667969 9.652343 0 2.664063 2.664062 2.664063 6.984374 0 9.652343l-20.128906 20.125c-1.332031 1.332031-3.078125 2-4.824219 2zm0 0"/></g><path d="m131.746094 150.605469c0 33.933593-27.507813 61.441406-61.4375 61.441406-33.933594 0-61.441406-27.507813-61.441406-61.441406 0-33.933594 27.507812-61.4375 61.441406-61.4375 33.929687 0 61.4375 27.503906 61.4375 61.4375zm0 0" fill="#fc8c29"/><path d="m70.308594 218.871094c-37.640625 0-68.265625-30.621094-68.265625-68.265625s30.625-68.265625 68.265625-68.265625 68.265625 30.621094 68.265625 68.265625-30.628907 68.265625-68.265625 68.265625zm0-122.878906c-30.113282 0-54.613282 24.5-54.613282 54.613281s24.5 54.613281 54.613282 54.613281c30.113281 0 54.613281-24.5 54.613281-54.613281s-24.5-54.613281-54.613281-54.613281zm0 0" fill="#4c241d"/><path d="m418.46875 150.605469c0 33.933593-27.507812 61.441406-61.441406 61.441406s-61.441406-27.507813-61.441406-61.441406c0-33.933594 27.507812-61.4375 61.441406-61.4375s61.441406 27.503906 61.441406 61.4375zm0 0" fill="#fc8c29"/><path d="m357.027344 218.871094c-37.640625 0-68.265625-30.621094-68.265625-68.265625s30.625-68.265625 68.265625-68.265625 68.265625 30.621094 68.265625 68.265625-30.625 68.265625-68.265625 68.265625zm0-122.878906c-30.113282 0-54.613282 24.5-54.613282 54.613281s24.5 54.613281 54.613282 54.613281c30.113281 0 54.613281-24.5 54.613281-54.613281s-24.5-54.613281-54.613281-54.613281zm0 0" fill="#4c241d"/><path d="m374.886719 157.433594c0 17.402344-14.109375 31.511718-31.511719 31.511718-17.40625 0-31.515625-14.109374-31.515625-31.511718 0-17.40625 14.109375-31.515625 31.515625-31.515625 17.402344 0 31.511719 14.109375 31.511719 31.515625zm0 0" fill="#6b4f5b"/><path d="m343.375 195.773438c-21.140625 0-38.339844-17.199219-38.339844-38.339844s17.199219-38.339844 38.339844-38.339844 38.339844 17.199219 38.339844 38.339844-17.203125 38.339844-38.339844 38.339844zm0-63.027344c-13.613281 0-24.6875 11.074218-24.6875 24.6875 0 13.613281 11.074219 24.6875 24.6875 24.6875s24.6875-11.074219 24.6875-24.6875c0-13.613282-11.074219-24.6875-24.6875-24.6875zm0 0" fill="#4c241d"/><path d="m115.476562 157.433594c0 17.402344-14.109374 31.511718-31.515624 31.511718-17.402344 0-31.511719-14.109374-31.511719-31.511718 0-17.40625 14.109375-31.515625 31.511719-31.515625 17.40625 0 31.515624 14.109375 31.515624 31.515625zm0 0" fill="#6b4f5b"/><path d="m83.960938 195.773438c-21.140626 0-38.339844-17.199219-38.339844-38.339844s17.199218-38.339844 38.339844-38.339844c21.140624 0 38.339843 17.199219 38.339843 38.339844s-17.199219 38.339844-38.339843 38.339844zm0-63.027344c-13.613282 0-24.6875 11.074218-24.6875 24.6875 0 13.613281 11.074218 24.6875 24.6875 24.6875 13.613281 0 24.6875-11.074219 24.6875-24.6875 0-13.613282-11.074219-24.6875-24.6875-24.6875zm0 0" fill="#4c241d"/><path d="m139.972656 73.675781c-1.746094 0-3.492187-.667969-4.824218-2l-20.128907-20.125c-2.664062-2.667969-2.664062-6.988281 0-9.652343 2.667969-2.667969 6.988281-2.667969 9.652344 0l20.128906 20.125c2.664063 2.664062 2.664063 6.988281 0 9.652343-1.332031 1.332031-3.082031 2-4.828125 2zm0 0" fill="#4c241d"/><path d="m334.546875 161.269531c14.976563 16.230469 26.472656 35.746094 33.074219 57.804688 23.925781 79.980469-25.601563 163.066406-110.625 185.578125-85.023438 22.511718-173.351563-24.078125-197.28125-104.0625-23.929688-79.980469 25.597656-163.066406 110.625-185.578125 38.960937-10.3125 78.621094-6.117188 112.453125 9.152343" fill="#fc8c29"/><path d="m213.761719 417.117188c-72.789063.003906-139.882813-45.359376-160.589844-114.570313-11.679687-39.050781-7.050781-80.308594 13.042969-116.167969 21.574218-38.507812 57.929687-66.199218 102.378906-77.964844 38.972656-10.3125 80.539062-6.933593 117.007812 9.523438 3.441407 1.554688 4.964844 5.597656 3.414063 9.03125-1.546875 3.433594-5.585937 4.976562-9.027344 3.417969-33.621093-15.183594-71.929687-18.300781-107.902343-8.773438-40.839844 10.8125-74.210938 36.179688-93.964844 71.4375-18.269532 32.605469-22.480469 70.101563-11.867188 105.578125 22.847656 76.359375 107.597656 120.964844 188.992188 99.421875 40.839844-10.8125 74.210937-36.183593 93.96875-71.441406 18.265625-32.605469 22.476562-70.101563 11.863281-105.578125-6.152344-20.558594-16.765625-39.109375-31.550781-55.132812-2.554688-2.773438-2.382813-7.089844.390625-9.648438 2.753906-2.550781 7.082031-2.378906 9.648437.390625 16.199219 17.566406 27.839844 37.914063 34.59375 60.480469 11.679688 39.050781 7.054688 80.304687-13.042968 116.164062-21.574219 38.511719-57.929688 66.199219-102.378907 77.96875-14.992187 3.96875-30.105469 5.863282-44.976562 5.863282zm0 0" fill="#4c241d"/><path d="m267.554688 193.355469c-20.019532 14.570312-48.058594 10.152343-62.628907-9.867188-14.570312-20.019531-10.152343-48.058593 9.863281-62.628906 6.476563-4.710937 13.789063-7.410156 21.210938-8.261719-18.300781-5.320312-38.761719-2.476562-55.363281 9.605469-28.480469 20.730469-34.769531 60.625-14.035157 89.109375 20.730469 28.484375 60.625 34.769531 89.109376 14.039062 16.527343-12.027343 25.519531-30.515624 26.160156-49.476562-3.101563 6.734375-7.894532 12.804688-14.316406 17.480469zm0 0" fill="#edebdc"/><path d="m218.320312 244.40625c-3.691406 0-7.414062-.289062-11.132812-.878906-18.632812-2.933594-35.007812-12.949219-46.105469-28.199219-11.101562-15.246094-15.601562-33.90625-12.660156-52.539063 2.933594-18.632812 12.945313-35.007812 28.191406-46.105468 17.761719-12.921875 40.101563-16.796875 61.292969-10.644532 3.121094.910157 5.167969 3.890626 4.894531 7.132813-.273437 3.234375-2.789062 5.835937-6.019531 6.207031-6.492188.746094-12.714844 3.171875-17.980469 7.003906-16.941406 12.332032-20.6875 36.148438-8.351562 53.089844 5.972656 8.210938 14.777343 13.597656 24.8125 15.175782 9.992187 1.574218 20.066406-.839844 28.273437-6.8125 5.222656-3.804688 9.425782-8.925782 12.128906-14.8125 1.363282-2.953126 4.589844-4.539063 7.777344-3.789063 3.160156.75 5.359375 3.625 5.246094 6.871094-.742188 21.949219-11.292969 41.910156-28.960938 54.765625-12.207031 8.882812-26.59375 13.535156-41.40625 13.535156zm-10.652343-126.621094c-8.195313 1.523438-16.046875 4.867188-23.019531 9.9375-12.292969 8.953125-20.375 22.160156-22.742188 37.191406-2.363281 15.03125 1.261719 30.078126 10.214844 42.382813 8.953125 12.300781 22.160156 20.378906 37.1875 22.746094 15.03125 2.375 30.085937-1.257813 42.378906-10.210938 6.90625-5.023437 12.460938-11.394531 16.425781-18.644531-10.464843 6.414062-22.753906 8.867188-34.980469 6.949219-13.632812-2.148438-25.605468-9.472657-33.726562-20.628907-15.980469-21.953124-12.09375-52.40625 8.261719-69.722656zm59.886719 75.566406h.066406zm0 0" fill="#4c241d"/><path d="m317.835938 152.484375c-1.5 0-3.015626-.492187-4.273438-1.511719-3.941406-3.171875-8.09375-6.191406-12.355469-8.964844-3.152343-2.0625-4.046875-6.292968-1.984375-9.449218 2.066406-3.15625 6.296875-4.046875 9.453125-1.984375 4.632813 3.023437 9.160157 6.308593 13.445313 9.765625 2.941406 2.367187 3.398437 6.664062 1.03125 9.601562-1.34375 1.671875-3.316406 2.542969-5.316406 2.542969zm0 0" fill="#4c241d"/><path d="m24.523438 34.554688c0 4.875-3.953126 8.828124-8.828126 8.828124s-8.828124-3.953124-8.828124-8.828124c0-4.878907 3.953124-8.832032 8.828124-8.832032s8.828126 3.953125 8.828126 8.832032zm0 0" fill="#4c241d"/><path d="m322.894531 320.242188c0 49.582031-48.902343 89.777343-109.226562 89.777343s-109.226563-40.195312-109.226563-89.777343c0-49.582032 61.441406-71.820313 109.226563-35.910157 61.441406-35.910156 109.226562-13.671875 109.226562 35.910157zm0 0" fill="#ffec95"/><path d="m213.667969 416.847656c-63.992188 0-116.054688-43.339844-116.054688-96.605468 0-23.21875 11.980469-42.519532 32.867188-52.949219 25.046875-12.507813 57.421875-8.929688 83.613281 8.949219 33.398438-18.40625 65.308594-21.527344 88.039062-8.472657 17.796876 10.207031 27.589844 28.84375 27.589844 52.472657 0 53.265624-52.0625 96.605468-116.054687 96.605468zm-50.648438-143.335937c-9.339843 0-18.378906 1.96875-26.4375 5.996093-16.089843 8.03125-25.3125 22.882813-25.3125 40.734376 0 45.742187 45.929688 82.953124 102.398438 82.953124 56.464843 0 102.398437-37.210937 102.398437-82.953124 0-18.53125-7.359375-32.960938-20.726562-40.628907-19.253906-11.058593-47.773438-7.183593-78.226563 10.613281-2.378906 1.386719-5.351562 1.226563-7.546875-.4375-14.238281-10.699218-30.824218-16.277343-46.546875-16.277343zm0 0" fill="#4c241d"/><path d="m237.078125 273.484375c0-7.488281-12.011719-13.5625-26.824219-13.5625s-26.820312 6.074219-26.820312 13.5625c0 7.492187 12.007812 13.566406 26.820312 13.566406s26.824219-6.074219 26.824219-13.566406zm0 0" fill="#6b4f5b"/><path d="m210.253906 293.875c-19.179687 0-33.644531-8.765625-33.644531-20.390625 0-11.621094 14.464844-20.386719 33.644531-20.386719 19.179688 0 33.648438 8.765625 33.648438 20.386719 0 11.625-14.46875 20.390625-33.648438 20.390625zm0-27.125c-12.898437 0-19.992187 5.058594-19.992187 6.734375s7.09375 6.738281 19.992187 6.738281c12.902344 0 19.996094-5.0625 19.996094-6.738281s-7.097656-6.734375-19.996094-6.734375zm0 0" fill="#4c241d"/><path d="m209.71875 320.199219c-10.210938 10.210937-20.402344 10.1875-26.058594 9.050781 1.65625 10.667969 5.789063 28.609375 13.070313 41.6875 5.367187 9.636719 19.078125 9.839844 24.933593.492188 5.636719-9.003907 11.179688-22.664063 11.328126-41.671876-14.683594 1.847657-23.273438-9.558593-23.273438-9.558593zm0 0" fill="#e66353"/><path d="m209.292969 385.128906c-.191407 0-.378907 0-.574219-.007812-7.558594-.191406-14.269531-4.253906-17.957031-10.863282-9.046875-16.25-12.886719-37.757812-13.847657-43.960937-.339843-2.207031.414063-4.4375 2.027344-5.980469 1.617188-1.542968 3.875-2.199218 6.066406-1.761718 4.816407.96875 12.1875.515624 19.886719-7.183594 1.402344-1.398438 3.339844-2.097656 5.308594-1.980469 1.953125.136719 3.75 1.105469 4.9375 2.664063.328125.414062 6.703125 8.21875 17 6.929687 1.941406-.257813 3.914063.359375 5.386719 1.671875 1.472656 1.308594 2.308594 3.1875 2.296875 5.160156-.136719 16.886719-4.414063 32.535156-12.375 45.238282-3.976563 6.339843-10.726563 10.074218-18.15625 10.074218zm-17.367188-48.714844c2.207031 10.359376 5.835938 22.34375 10.769531 31.203126 1.878907 3.382812 5.085938 3.824218 6.378907 3.859374 2.785156.058594 5.3125-1.304687 6.796875-3.667968 5.640625-9.003906 8.988281-19.496094 9.980468-31.261719-7.179687-.902344-12.726562-4.171875-16.398437-7.105469-6.238281 4.628906-12.359375 6.464844-17.527344 6.972656zm0 0" fill="#4c241d"/><path d="m299.820312 253.773438c0 10.234374-8.296874 18.53125-18.53125 18.53125-10.234374 0-18.53125-8.296876-18.53125-18.53125 0-10.234376 8.296876-18.53125 18.53125-18.53125 10.234376 0 18.53125 8.296874 18.53125 18.53125zm0 0" fill="#6b4f5b"/><path d="m281.289062 279.128906c-13.980468 0-25.355468-11.371094-25.355468-25.355468 0-13.980469 11.375-25.359376 25.355468-25.359376 13.984376 0 25.359376 11.378907 25.359376 25.359376 0 13.984374-11.375 25.355468-25.359376 25.355468zm0-37.0625c-6.453124 0-11.699218 5.25-11.699218 11.707032 0 6.453124 5.246094 11.703124 11.699218 11.703124 6.453126 0 11.703126-5.25 11.703126-11.703124 0-6.457032-5.25-11.707032-11.703126-11.707032zm0 0" fill="#4c241d"/><path d="m305.996094 238.328125c0 5.117187-4.148438 9.265625-9.265625 9.265625-5.117188 0-9.265625-4.148438-9.265625-9.265625s4.148437-9.265625 9.265625-9.265625c5.117187 0 9.265625 4.148438 9.265625 9.265625zm0 0" fill="#fff"/><path d="m163.285156 253.773438c0 10.234374-8.292968 18.53125-18.527344 18.53125-10.234374 0-18.53125-8.296876-18.53125-18.53125 0-10.234376 8.296876-18.53125 18.53125-18.53125 10.234376 0 18.527344 8.296874 18.527344 18.53125zm0 0" fill="#6b4f5b"/><path d="m144.753906 279.128906c-13.980468 0-25.351562-11.371094-25.351562-25.355468 0-13.980469 11.371094-25.359376 25.351562-25.359376 13.988282 0 25.359375 11.378907 25.359375 25.359376 0 13.984374-11.371093 25.355468-25.359375 25.355468zm0-37.0625c-6.453125 0-11.699218 5.25-11.699218 11.707032 0 6.453124 5.246093 11.703124 11.699218 11.703124s11.707032-5.25 11.707032-11.703124c0-6.457032-5.253907-11.707032-11.707032-11.707032zm0 0" fill="#4c241d"/><path d="m169.464844 238.328125c0 5.117187-4.148438 9.265625-9.265625 9.265625-5.117188 0-9.265625-4.148438-9.265625-9.265625s4.148437-9.265625 9.265625-9.265625c5.117187 0 9.265625 4.148438 9.265625 9.265625zm0 0" fill="#fff"/></svg>