<svg height="406pt" viewBox="-5 0 406 406.48277" width="406pt" xmlns="http://www.w3.org/2000/svg"><path d="m307.441406 191.390625c0 84.832031-68.769531 153.597656-153.601562 153.597656-84.828125 0-153.597656-68.765625-153.597656-153.597656s68.769531-153.601563 153.597656-153.601563c84.832031 0 153.601562 68.769532 153.601562 153.601563zm0 0" fill="#c1dbdc"/><g fill="#4c241d"><path d="m371.707031 28.136719c-1.746093 0-3.492187-.667969-4.824219-2-2.667968-2.664063-2.667968-6.988281 0-9.65625l14.476563-14.480469c2.667969-2.667969 6.988281-2.667969 9.652344 0 2.667969 2.664062 2.667969 6.988281 0 9.652344l-14.476563 14.484375c-1.332031 1.332031-3.082031 2-4.828125 2zm0 0"/><path d="m337.921875 61.925781c-1.746094 0-3.496094-.667969-4.828125-2-2.664062-2.664062-2.664062-6.988281 0-9.652343l14.480469-14.484376c2.664062-2.664062 6.988281-2.664062 9.652343 0 2.664063 2.664063 2.664063 6.988282 0 9.652344l-14.480468 14.484375c-1.332032 1.335938-3.078125 2-4.824219 2zm0 0"/><path d="m352.402344 28.136719c-1.746094 0-3.492188-.667969-4.828125-2l-14.476563-14.484375c-2.667968-2.664063-2.667968-6.992188 0-9.652344 2.664063-2.667969 6.984375-2.667969 9.652344 0l14.476562 14.480469c2.667969 2.667969 2.667969 6.992187 0 9.65625-1.332031 1.332031-3.078124 2-4.824218 2zm0 0"/><path d="m386.1875 61.925781c-1.746094 0-3.492188-.667969-4.828125-2l-14.476563-14.484375c-2.667968-2.664062-2.667968-6.988281 0-9.652344 2.664063-2.664062 6.984376-2.664062 9.652344 0l14.476563 14.484376c2.667969 2.664062 2.667969 6.988281 0 9.652343-1.332031 1.335938-3.078125 2-4.824219 2zm0 0"/><path d="m374.527344 383.710938c-3.421875 0-6.804688-.839844-9.90625-2.5-4.960938-2.652344-8.585938-7.074219-10.222656-12.460938-1.632813-5.382812-1.066407-11.078125 1.582031-16.039062 2.652343-4.960938 7.085937-8.589844 12.472656-10.21875 5.363281-1.636719 11.066406-1.074219 16.035156 1.585937 4.960938 2.652344 8.585938 7.074219 10.21875 12.460937v.003907c3.363281 11.113281-2.9375 22.886719-14.042969 26.253906-2.023437.613281-4.082031.914063-6.136718.914063zm.039062-28.472657c-.726562 0-1.445312.105469-2.160156.320313-1.890625.574218-3.453125 1.851562-4.386719 3.59375-.933593 1.742187-1.125 3.746094-.550781 5.640625.574219 1.886719 1.847656 3.445312 3.59375 4.378906 1.757812.9375 3.746094 1.128906 5.640625.554687 3.898437-1.179687 6.117187-5.320312 4.9375-9.230468-.570313-1.890625-1.84375-3.449219-3.589844-4.378906-1.097656-.585938-2.28125-.878907-3.484375-.878907zm0 0"/><path d="m33.054688 114.035156c-11.613282 0-21.058594-9.445312-21.058594-21.058594 0-11.609374 9.445312-21.054687 21.058594-21.054687 11.609374 0 21.054687 9.445313 21.054687 21.054687 0 11.613282-9.445313 21.058594-21.054687 21.058594zm0-28.457031c-4.085938 0-7.40625 3.316406-7.40625 7.402344 0 4.082031 3.320312 7.402343 7.40625 7.402343 4.082031 0 7.402343-3.320312 7.402343-7.402343 0-4.085938-3.320312-7.402344-7.402343-7.402344zm0 0"/><path d="m22.472656 370.457031c-1.746094 0-3.492187-.664062-4.824218-2-2.667969-2.664062-2.667969-6.984375 0-9.652343l20.125-20.125c2.667968-2.667969 6.988281-2.667969 9.652343 0 2.667969 2.664062 2.667969 6.984374 0 9.652343l-20.125 20.125c-1.332031 1.335938-3.078125 2-4.828125 2zm0 0"/></g><path d="m346.578125 145.738281c-3.042969-17.929687-13.003906-34.019531-27.8125-44.925781l-45.378906-33.421875c-8.546875-6.292969-15.945313-13.921875-21.910157-22.558594-4.558593-6.59375-11.804687-10.820312-19.824218-10.820312h-39.566406c-8.019532 0-15.265626 4.226562-19.824219 10.820312-5.964844 8.636719-13.363281 16.265625-21.910157 22.558594l-45.378906 33.421875c-14.808594 10.90625-24.769531 26.996094-27.8125 44.925781-2.59375 15.273438.019532 30.742188 7.097656 44.152344 7.738282 14.660156 23.1875 23.632813 39.761719 23.632813h175.695313c16.578125 0 32.027344-8.972657 39.765625-23.632813 7.078125-13.410156 9.6875-28.878906 7.097656-44.152344zm0 0" fill="#a9ba5a"/><path d="m299.714844 220.351562h-175.695313c-19.371093 0-36.921875-10.449218-45.800781-27.273437-7.816406-14.800781-10.582031-32.023437-7.789062-48.476563 3.351562-19.773437 14.183593-37.273437 30.496093-49.285156l45.371094-33.417968c7.941406-5.847657 14.785156-12.894532 20.347656-20.945313 5.964844-8.621094 15.46875-13.765625 25.4375-13.765625h39.574219c9.964844 0 19.472656 5.148438 25.433594 13.761719 5.558594 8.050781 12.40625 15.097656 20.34375 20.949219l45.375 33.417968c16.3125 12.011719 27.144531 29.511719 30.5 49.285156v-.003906c2.792968 16.449219.027344 33.667969-7.785156 48.476563-8.890626 16.828125-26.4375 27.277343-45.808594 27.277343zm-107.632813-179.511718c-5.488281 0-10.792969 2.945312-14.207031 7.875-6.421875 9.296875-14.320312 17.429687-23.480469 24.175781l-45.375 33.417969c-13.445312 9.90625-22.371093 24.308594-25.132812 40.574218-2.289063 13.511719-.015625 27.65625 6.40625 39.820313 6.511719 12.335937 19.433593 19.996094 33.726562 19.996094h175.695313c14.292968 0 27.21875-7.660157 33.726562-19.996094 6.417969-12.171875 8.691406-26.316406 6.398438-39.820313 0 0 0 0 0-.003906-2.75-16.261718-11.679688-30.667968-25.125-40.570312l-45.375-33.417969c-9.160156-6.75-17.066406-14.886719-23.480469-24.179687-3.414063-4.929688-8.71875-7.871094-14.207031-7.871094zm0 0" fill="#4c241d"/><path d="m300.621094 222.109375c-.472656 0-.953125-.046875-1.441406-.148437-3.683594-.792969-6.03125-4.421876-5.238282-8.109376 17.421875-81.296874-49.308594-159.445312-62.859375-174.285156-2.539062-2.785156-2.347656-7.101562.433594-9.640625 2.785156-2.539062 7.097656-2.355469 9.644531.433594 20.15625 22.070313 84.480469 100.71875 66.128906 186.355469-.6875 3.203125-3.515624 5.394531-6.667968 5.394531zm0 0" fill="#4c241d"/><path d="m123.113281 222.109375c-3.148437 0-5.980469-2.1875-6.667969-5.394531-18.351562-85.636719 45.976563-164.289063 66.128907-186.355469 2.546875-2.789063 6.863281-2.972656 9.648437-.433594 2.777344 2.539063 2.972656 6.859375.433594 9.640625-13.554688 14.839844-80.28125 92.988282-62.859375 174.285156.792969 3.6875-1.558594 7.316407-5.246094 8.109376-.480469.101562-.964843.148437-1.4375.148437zm0 0" fill="#4c241d"/><path d="m210.726562 217.78125c-3.773437 0-6.824218-3.058594-6.824218-6.828125v-176.441406c0-3.769531 3.050781-6.824219 6.824218-6.824219 3.773438 0 6.828126 3.054688 6.828126 6.824219v176.441406c0 3.769531-3.054688 6.828125-6.828126 6.828125zm0 0" fill="#4c241d"/><path d="m72.921875 186.015625-8.378906-34.042969c-3.726563-15.136718 9.957031-28.820312 25.097656-25.09375l34.039063 8.378906c12.515624 3.078126 16.863281 18.652344 7.746093 27.765626l-30.738281 30.738281c-9.113281 9.113281-24.683594 4.769531-27.765625-7.746094zm0 0" fill="#d9be6f"/><path d="m89.109375 205.460938c-2.117187 0-4.269531-.292969-6.398437-.886719-8.238282-2.300781-14.378907-8.625-16.417969-16.929688l-8.378907-34.042969c-2.320312-9.445312.394532-19.195312 7.277344-26.074218 6.878906-6.882813 16.625-9.589844 26.082032-7.277344l34.039062 8.375c8.300781 2.042969 14.632812 8.179688 16.929688 16.417969 2.296874 8.234375.058593 16.757812-5.988282 22.804687l-30.738281 30.742188c-4.476563 4.480468-10.324219 6.871094-16.40625 6.871094zm-9.558594-21.074219c.847657 3.449219 3.398438 6.082031 6.824219 7.035156 3.421875.96875 6.976562.027344 9.488281-2.484375l30.738281-30.742188c2.511719-2.515624 3.445313-6.058593 2.488282-9.488281-.957032-3.421875-3.585938-5.972656-7.039063-6.824219l-34.039062-8.375c-4.78125-1.167968-9.695313.199219-13.167969 3.667969-3.472656 3.476563-4.847656 8.394531-3.667969 13.160157zm0 0" fill="#4c241d"/><path d="m350.8125 186.015625 8.378906-34.042969c3.726563-15.136718-9.957031-28.820312-25.097656-25.09375l-34.039062 8.378906c-12.515626 3.078126-16.863282 18.652344-7.746094 27.765626l30.738281 30.738281c9.113281 9.113281 24.683594 4.769531 27.765625-7.746094zm0 0" fill="#d9be6f"/><path d="m334.625 205.464844c-6.078125 0-11.925781-2.390625-16.40625-6.875l-30.738281-30.738282c-6.046875-6.046874-8.28125-14.570312-5.988281-22.808593 2.300781-8.230469 8.628906-14.371094 16.929687-16.414063l34.039063-8.378906c9.480468-2.320312 19.207031.398438 26.078124 7.277344 6.878907 6.878906 9.601563 16.628906 7.273438 26.082031l-8.371094 34.039063c-2.039062 8.300781-8.179687 14.632812-16.414062 16.929687-2.128906.589844-4.277344.886719-6.402344.886719zm4.476562-72.371094c-1.121093 0-2.253906.136719-3.375.414062l-34.039062 8.375c-3.453125.851563-6.085938 3.402344-7.039062 6.828126-.960938 3.425781-.027344 6.96875 2.488281 9.484374l30.738281 30.742188c2.527344 2.515625 6.078125 3.4375 9.488281 2.488281 3.417969-.957031 5.972657-3.585937 6.824219-7.039062l8.375-34.042969c1.175781-4.769531-.199219-9.691406-3.671875-13.164062-2.65625-2.65625-6.15625-4.085938-9.789063-4.085938zm11.714844 52.921875h.066406zm0 0" fill="#4c241d"/><path d="m42.601562 370.457031c-1.746093 0-3.496093-.664062-4.828124-2l-20.125-20.125c-2.667969-2.667969-2.667969-6.988281 0-9.652343 2.664062-2.667969 6.988281-2.667969 9.652343 0l20.125 20.125c2.667969 2.667968 2.667969 6.988281 0 9.652343-1.332031 1.335938-3.078125 2-4.824219 2zm0 0" fill="#4c241d"/><path d="m104.394531 35.953125c-1.746093 0-3.492187-.667969-4.828125-2-2.664062-2.667969-2.664062-6.988281 0-9.65625l20.128906-20.125c2.664063-2.664063 6.984376-2.664063 9.652344 0 2.664063 2.664063 2.664063 6.988281 0 9.652344l-20.128906 20.128906c-1.332031 1.332031-3.078125 2-4.824219 2zm0 0" fill="#4c241d"/><path d="m124.519531 35.953125c-1.746093 0-3.492187-.667969-4.824219-2l-20.128906-20.125c-2.664062-2.667969-2.664062-6.988281 0-9.65625 2.667969-2.664063 6.988282-2.664063 9.652344 0l20.128906 20.128906c2.664063 2.664063 2.664063 6.988281 0 9.652344-1.332031 1.332031-3.078125 2-4.828125 2zm0 0" fill="#4c241d"/><path d="m299.492188 369.75c-16.199219 12.523438-35.355469 21.757812-56.671876 26.472656-77.308593 17.09375-153.835937-31.71875-170.929687-109.027344-17.09375-77.308593 31.71875-153.835937 109.027344-170.929687 77.308593-17.09375 153.835937 31.71875 170.929687 109.027344 7.832032 35.425781 1.824219 70.691406-14.421875 100.144531" fill="#d9be6f"/><path d="m211.574219 406.484375c-28.292969 0-56.042969-8.039063-80.472657-23.617187-33.820312-21.578126-57.214843-55.03125-65.878906-94.199219-8.660156-39.171875-1.550781-79.367188 20.019532-113.191407 21.578124-33.824218 55.03125-57.214843 94.199218-65.878906 39.183594-8.652344 79.378906-1.546875 113.191406 20.019532 33.820313 21.578124 57.21875 55.03125 65.878907 94.199218 7.886719 35.6875 2.527343 72.949219-15.105469 104.917969-1.820312 3.300781-5.964844 4.5-9.28125 2.679687-3.300781-1.816406-4.5-5.972656-2.679688-9.273437 16.035157-29.0625 20.90625-62.933594 13.734376-95.375-7.875-35.609375-29.140626-66.027344-59.886719-85.636719-30.742188-19.613281-67.289063-26.074218-102.902344-18.203125-35.613281 7.875-66.023437 29.144531-85.636719 59.890625-19.613281 30.75-26.074218 67.292969-18.203125 102.902344 16.25 73.503906 89.28125 120.089844 162.792969 103.835938 19.855469-4.386719 38.015625-12.871094 53.976562-25.207032 2.992188-2.320312 7.273438-1.757812 9.570313 1.222656 2.308594 2.984376 1.761719 7.273438-1.226563 9.578126-17.566406 13.578124-37.539062 22.910156-59.371093 27.738281-10.878907 2.40625-21.839844 3.597656-32.71875 3.597656zm0 0" fill="#4c241d"/><path d="m200.675781 337.34375c-1.027343 0-2.070312-.230469-3.046875-.722656l-10.367187-5.1875c-3.375-1.6875-4.738281-5.789063-3.054688-9.15625 1.695313-3.375 5.796875-4.738282 9.160157-3.054688l10.367187 5.1875c3.375 1.6875 4.738281 5.789063 3.054687 9.160156-1.203124 2.394532-3.609374 3.773438-6.113281 3.773438zm0 0" fill="#4c241d"/><path d="m223.058594 337.34375c-2.503906 0-4.910156-1.382812-6.113282-3.773438-1.683593-3.371093-.320312-7.472656 3.054688-9.160156l10.367188-5.1875c3.375-1.683594 7.472656-.320312 9.160156 3.054688 1.683594 3.371094.320312 7.46875-3.054688 9.15625l-10.367187 5.1875c-.976563.492187-2.019531.722656-3.046875.722656zm0 0" fill="#4c241d"/><path d="m315.195312 362.464844c-1.699218 0-3.40625-.628906-4.726562-1.902344-2.722656-2.609375-2.808594-6.933594-.199219-9.648438 3.210938-3.34375 6.277344-6.878906 9.113281-10.511718 2.3125-2.976563 6.597657-3.503906 9.578126-1.175782 2.972656 2.316407 3.5 6.609376 1.179687 9.578126-3.121094 4-6.496094 7.890624-10.019531 11.5625-1.339844 1.394531-3.132813 2.097656-4.925782 2.097656zm0 0" fill="#4c241d"/><path d="m147.203125 223.074219c-3.253906-3.78125-6.496094-6.957031-9.496094-9.453125-9.175781-7.648438-23.183593-5.457032-29.34375 4.777344-8.785156 14.578124-10.085937 35.101562-9.835937 48.40625.160156 8.449218 6.070312 15.585937 14.304687 17.46875 4.765625 1.089843 9.53125 1.648437 14.292969 1.976562-2.550781-6.085938-4.003906-12.753906-4.003906-19.769531 0-18.308594 9.625-34.355469 24.082031-43.40625zm0 0" fill="#fff"/><path d="m127.125 293.078125c-.152344 0-.308594-.007813-.464844-.019531-5.871094-.402344-10.75-1.078125-15.347656-2.132813-11.324219-2.582031-19.390625-12.449219-19.609375-23.992187-.289063-15.082032 1.355469-36.355469 10.8125-52.058594 3.933594-6.527344 10.53125-11.003906 18.113281-12.277344 7.65625-1.3125 15.488282.816406 21.449219 5.777344 3.464844 2.886719 6.929687 6.339844 10.296875 10.25 1.300781 1.507812 1.871094 3.507812 1.574219 5.476562-.300781 1.964844-1.4375 3.707032-3.125 4.761719-13.074219 8.183594-20.875 22.246094-20.875 37.621094 0 5.867187 1.167969 11.628906 3.476562 17.125.910157 2.183594.632813 4.6875-.746093 6.613281-1.285157 1.796875-3.359376 2.855469-5.554688 2.855469zm-2.058594-77.199219c-.71875 0-1.449218.058594-2.171875.179688-3.699219.621094-6.785156 2.707031-8.6875 5.863281-8.1875 13.597656-9.0625 33.878906-8.855469 44.753906.097657 5.257813 3.800782 9.753907 9 10.941407 1.027344.234374 2.078126.449218 3.160157.640624-.8125-3.867187-1.21875-7.796874-1.21875-11.773437 0-17.347656 7.589843-33.417969 20.644531-44.367187-1.210938-1.175782-2.421875-2.265626-3.601562-3.253907-2.332032-1.945312-5.257813-2.984375-8.269532-2.984375zm0 0" fill="#4c241d"/><path d="m167.453125 262.570312c-4.808594-17.886718-12.566406-30.570312-20.25-39.496093-14.457031 9.050781-24.082031 25.097656-24.082031 43.410156 0 7.011719 1.453125 13.679687 4.003906 19.765625 8.691406.597656 17.382812.117188 26.066406-1.5 10.371094-1.933594 17-11.988281 14.261719-22.179688zm0 0" fill="#f53e28"/><path d="m134.253906 293.320312c-2.53125 0-5.066406-.085937-7.597656-.261718-2.574219-.175782-4.824219-1.789063-5.824219-4.167969-3.011719-7.175781-4.539062-14.71875-4.539062-22.40625 0-20.109375 10.203125-38.5 27.285156-49.195313 2.859375-1.78125 6.59375-1.222656 8.796875 1.332032 9.960938 11.566406 17.25 25.753906 21.667969 42.175781 1.796875 6.6875.761719 13.578125-2.902344 19.402344-3.695313 5.867187-9.78125 9.972656-16.699219 11.261719-6.65625 1.238281-13.421875 1.859374-20.1875 1.859374zm-2.285156-13.675781c6.71875.15625 13.398438-.382812 19.972656-1.605469 3.234375-.601562 5.945313-2.417968 7.644532-5.113281 1.617187-2.570312 2.066406-5.613281 1.269531-8.582031-3.269531-12.164062-8.285157-22.871094-14.941407-31.929688-10.09375 8.378907-15.96875 20.730469-15.96875 34.070313.003907 4.46875.683594 8.878906 2.023438 13.160156zm0 0" fill="#4c241d"/><path d="m136.773438 246.003906c0 5.65625-4.582032 10.238282-10.238282 10.238282s-10.242187-4.582032-10.242187-10.238282 4.585937-10.242187 10.242187-10.242187 10.238282 4.585937 10.238282 10.242187zm0 0" fill="#fff"/><path d="m269.707031 223.074219c3.25-3.78125 6.492188-6.957031 9.492188-9.453125 9.179687-7.648438 23.183593-5.457032 29.347656 4.777344 8.78125 14.578124 10.085937 35.101562 9.832031 48.40625-.160156 8.449218-6.070312 15.585937-14.304687 17.46875-4.765625 1.089843-9.53125 1.648437-14.292969 1.976562 2.550781-6.085938 4.003906-12.753906 4.003906-19.769531.003906-18.308594-9.625-34.355469-24.078125-43.40625zm0 0" fill="#fff"/><path d="m289.78125 293.078125c-2.195312 0-4.265625-1.058594-5.554688-2.855469-1.378906-1.925781-1.660156-4.429687-.738281-6.613281 2.304688-5.496094 3.472657-11.261719 3.472657-17.125 0-15.375-7.808594-29.441406-20.875-37.625-1.691407-1.054687-2.832032-2.796875-3.125-4.765625-.300782-1.96875.273437-3.96875 1.574218-5.476562 3.367188-3.910157 6.832032-7.359376 10.292969-10.242188 5.964844-4.964844 13.777344-7.0625 21.457031-5.777344 7.574219 1.273438 14.175782 5.75 18.109375 12.277344 9.457031 15.703125 11.097657 36.976562 10.8125 52.058594-.222656 11.542968-8.285156 21.410156-19.613281 23.996094-4.601562 1.050781-9.480469 1.730468-15.347656 2.128906-.152344.011718-.3125.019531-.464844.019531zm-9.808594-70.964844c13.050782 10.957031 20.640625 27.023438 20.640625 44.371094 0 3.976563-.40625 7.910156-1.21875 11.773437 1.085938-.191406 2.132813-.40625 3.160157-.636718 5.199218-1.191406 8.902343-5.691406 9-10.945313.207031-10.875-.667969-31.15625-8.855469-44.753906-1.898438-3.15625-4.984375-5.238281-8.6875-5.863281-3.734375-.617188-7.546875.390625-10.445313 2.808594-1.179687.980468-2.386718 2.070312-3.59375 3.246093zm0 0" fill="#4c241d"/><path d="m249.457031 262.570312c4.808594-17.886718 12.566407-30.570312 20.25-39.496093 14.457031 9.050781 24.082031 25.097656 24.082031 43.410156 0 7.011719-1.453124 13.679687-4.007812 19.765625-8.6875.597656-17.378906.117188-26.0625-1.5-10.375-1.933594-17.003906-11.988281-14.261719-22.179688zm0 0" fill="#f53e28"/><path d="m282.652344 293.320312c-6.773438 0-13.53125-.621093-20.179688-1.863281-6.925781-1.285156-13.011718-5.390625-16.707031-11.257812-3.671875-5.828125-4.699219-12.71875-2.90625-19.40625 4.421875-16.414063 11.714844-30.605469 21.675781-42.175781 2.199219-2.550782 5.925782-3.125 8.792969-1.332032 17.085937 10.699219 27.285156 29.089844 27.285156 49.195313 0 7.691406-1.527343 15.230469-4.539062 22.40625-.996094 2.382812-3.246094 3.996093-5.820313 4.171875-2.53125.175781-5.066406.261718-7.601562.261718zm-26.605469-28.976562c-.800781 2.964844-.347656 6.011719 1.273437 8.578125 1.691407 2.695313 4.414063 4.515625 7.652344 5.117187 6.574219 1.222657 13.261719 1.734376 19.964844 1.601563 1.339844-4.28125 2.023438-8.6875 2.023438-13.160156 0-13.335938-5.875-25.6875-15.96875-34.074219-6.65625 9.0625-11.671876 19.777344-14.945313 31.9375zm0 0" fill="#4c241d"/><path d="m300.613281 246.003906c0 5.65625-4.582031 10.238282-10.238281 10.238282s-10.242188-4.582032-10.242188-10.238282 4.585938-10.242187 10.242188-10.242187 10.238281 4.585937 10.238281 10.242187zm0 0" fill="#fff"/><path d="m177.734375 153.84375 13.652344 27.304688h20.480469l20.480468-27.304688-6.828125-13.652344zm0 0" fill="#a9ba5a"/><path d="m211.867188 187.976562h-20.480469c-2.585938 0-4.945313-1.460937-6.105469-3.773437l-13.652344-27.308594c-.90625-1.8125-.960937-3.941406-.144531-5.800781.820313-1.855469 2.425781-3.257812 4.371094-3.8125l47.792969-13.652344c3.164062-.910156 6.511718.574219 7.980468 3.507813l6.824219 13.65625c1.15625 2.3125.90625 5.078125-.644531 7.148437l-20.480469 27.304688c-1.289063 1.71875-3.3125 2.730468-5.460937 2.730468zm-16.261719-13.652343h12.847656l15.898437-21.203125-2.40625-4.8125-34.425781 9.839844zm0 0" fill="#4c241d"/><path d="m227.363281 222.757812v-23.621093l23.621094-11.808594v23.621094zm0 0" fill="#a9ba5a"/><path d="m227.359375 229.585938c-1.242187 0-2.492187-.34375-3.585937-1.019532-2.011719-1.246094-3.238282-3.441406-3.238282-5.804687v-23.625c0-2.585938 1.457032-4.949219 3.773438-6.105469l23.625-11.8125c2.113281-1.054688 4.628906-.949219 6.640625.300781 2.015625 1.246094 3.242187 3.441407 3.242187 5.808594v23.621094c0 2.589843-1.460937 4.949219-3.773437 6.105469l-23.628907 11.8125c-.964843.480468-2.007812.71875-3.054687.71875zm6.828125-26.230469v8.359375l9.972656-4.988282v-8.359374zm0 0" fill="#4c241d"/><path d="m168.371094 188.289062-12.496094 4.527344 17.566406 28.980469 16.484375-13.042969zm0 0" fill="#a9ba5a"/><path d="m173.445312 228.621094c-.402343 0-.808593-.035156-1.210937-.105469-1.925781-.347656-3.613281-1.507813-4.628906-3.179687l-17.566407-28.976563c-1.0625-1.75-1.28125-3.882813-.601562-5.8125s2.1875-3.449219 4.109375-4.148437l12.5-4.527344c2.414063-.878906 5.144531-.316406 7.023437 1.46875l21.554688 20.46875c1.433594 1.363281 2.207031 3.277344 2.121094 5.253906-.085938 1.976562-1.035156 3.820312-2.589844 5.046875l-16.476562 13.042969c-1.214844.957031-2.707032 1.46875-4.234376 1.46875zm-7.414062-32.222656 9.242188 15.246093 4.242187-3.359375-12.785156-12.140625zm0 0" fill="#4c241d"/></svg>