<svg height="436pt" viewBox="0 -11 436.90919 436" width="436pt" xmlns="http://www.w3.org/2000/svg"><path d="m320.855469 201.839844c0 84.832031-68.769531 153.601562-153.601563 153.601562-84.832031 0-153.597656-68.769531-153.597656-153.601562 0-84.828125 68.765625-153.597656 153.597656-153.597656 84.832032 0 153.601563 68.769531 153.601563 153.597656zm0 0" fill="#c1dbdc"/><g fill="#4c241d"><path d="m69.742188 39.941406c-1.746094 0-3.496094-.667968-4.828126-2-2.664062-2.664062-2.664062-6.988281 0-9.652344l12.453126-12.453124c2.667968-2.667969 6.988281-2.667969 9.652343 0 2.667969 2.664062 2.667969 6.984374 0 9.652343l-12.453125 12.453125c-1.332031 1.332032-3.078125 2-4.824218 2zm0 0"/><path d="m40.6875 68.996094c-1.746094 0-3.492188-.667969-4.824219-2.003906-2.667969-2.664063-2.667969-6.984376 0-9.652344l12.453125-12.453125c2.664063-2.664063 6.984375-2.664063 9.652344 0 2.664062 2.667969 2.664062 6.988281 0 9.652343l-12.453125 12.453126c-1.332031 1.335937-3.082031 2.003906-4.828125 2.003906zm0 0"/><path d="m53.140625 39.941406c-1.746094 0-3.492187-.667968-4.824219-2l-12.453125-12.453125c-2.667969-2.667969-2.667969-6.988281 0-9.652343 2.664063-2.667969 6.984375-2.667969 9.652344 0l12.453125 12.453124c2.664062 2.664063 2.664062 6.988282 0 9.652344-1.332031 1.332032-3.082031 2-4.828125 2zm0 0"/><path d="m82.195312 68.996094c-1.746093 0-3.496093-.667969-4.828124-2.003906l-12.453126-12.453126c-2.664062-2.664062-2.664062-6.984374 0-9.652343 2.667969-2.664063 6.988282-2.664063 9.652344 0l12.453125 12.453125c2.667969 2.667968 2.667969 6.988281 0 9.652344-1.332031 1.335937-3.078125 2.003906-4.824219 2.003906zm0 0"/><path d="m46.609375 414.640625c-3.421875 0-6.808594-.839844-9.90625-2.492187-4.960937-2.652344-8.585937-7.078126-10.222656-12.46875-1.632813-5.378907-1.066407-11.078126 1.582031-16.039063 2.652344-4.957031 7.078125-8.585937 12.46875-10.21875 5.378906-1.640625 11.070312-1.074219 16.039062 1.589844 4.957032 2.652343 8.585938 7.078125 10.21875 12.457031v.007812c3.359376 11.109376-2.941406 22.886719-14.046874 26.253907-2.019532.609375-4.082032.910156-6.132813.910156zm.03125-28.472656c-.71875 0-1.445313.105469-2.152344.320312-1.894531.574219-3.453125 1.855469-4.386719 3.59375-.925781 1.746094-1.125 3.746094-.554687 5.640625.574219 1.894532 1.855469 3.453125 3.59375 4.386719 1.757813.925781 3.753906 1.117187 5.640625.550781 3.898438-1.179687 6.121094-5.324218 4.941406-9.230468-.574218-1.894532-1.855468-3.449219-3.59375-4.382813-1.09375-.585937-2.289062-.878906-3.488281-.878906zm0 0"/><path d="m387.800781 42.566406c-11.613281 0-21.058593-9.445312-21.058593-21.050781 0-11.613281 9.445312-21.0625 21.058593-21.0625s21.0625 9.449219 21.0625 21.0625c-.003906 11.605469-9.449219 21.050781-21.0625 21.050781zm0-28.457031c-4.085937 0-7.40625 3.316406-7.40625 7.40625 0 4.078125 3.320313 7.398437 7.40625 7.398437 4.089844 0 7.410157-3.320312 7.410157-7.398437-.003907-4.085937-3.324219-7.40625-7.410157-7.40625zm0 0"/><path d="m308.257812 28.339844c0 5.082031-4.121093 9.203125-9.203124 9.203125-5.082032 0-9.203126-4.121094-9.203126-9.203125 0-5.082032 4.121094-9.203125 9.203126-9.203125 5.082031 0 9.203124 4.121093 9.203124 9.203125zm0 0"/><path d="m390.875 394.5625c-1.746094 0-3.496094-.667969-4.828125-2-2.664063-2.667969-2.664063-6.988281 0-9.652344l20.128906-20.121094c2.664063-2.667968 6.984375-2.667968 9.652344 0 2.664063 2.664063 2.664063 6.988282 0 9.652344l-20.128906 20.121094c-1.332031 1.332031-3.078125 2-4.824219 2zm0 0"/></g><path d="m362.90625 224.128906s28.636719-72.730468-5.378906-110.894531c0 0-46.375-10.488281-87.15625 35.125-.003906 0 14.554687 70.316406 92.535156 75.769531zm0 0" fill="#6b4f5b"/><path d="m362.910156 230.957031c-.15625 0-.316406-.007812-.472656-.015625-82.195312-5.753906-98.59375-80.445312-98.753906-81.199218-.441406-2.121094.152344-4.328126 1.601562-5.941407 42.964844-48.039062 91.699219-37.671875 93.753906-37.222656 1.382813.3125 2.640626 1.050781 3.585938 2.117187 36.398438 40.820313 7.875 114.808594 6.640625 117.933594-1.039063 2.625-3.570313 4.328125-6.355469 4.328125zm-85.015625-80.703125c3.765625 13.0625 21.300781 59.949219 80.339844 66.597656 5.257813-15.921874 19.664063-67.746093-4.304687-97.316406-8.875-1.246094-43.582032-3.566406-76.035157 30.71875zm0 0" fill="#4c241d"/><path d="m339.253906 142.269531s-41.679687 5.367188-52.523437 33.03125l47.046875 36.3125s23.882812-25.109375 5.476562-69.34375zm0 0" fill="#e66353"/><path d="m333.773438 218.441406c-1.464844 0-2.933594-.464844-4.171876-1.417968l-47.046874-36.3125c-2.398438-1.855469-3.285157-5.074219-2.179688-7.902344 12.179688-31.074219 56.140625-37.074219 58.007812-37.3125 3.011719-.351563 5.988282 1.300781 7.171876 4.152344 19.886718 47.796874-5.730469 75.515624-6.832032 76.675781-1.332031 1.398437-3.140625 2.117187-4.949218 2.117187zm-38.472657-45.144531 37.082031 28.621094c4.796876-8.085938 11.703126-25.792969 2.539063-51.902344-9.773437 2.160156-30.640625 8.371094-39.621094 23.28125zm0 0" fill="#4c241d"/><path d="m80.832031 224.128906s-28.640625-72.730468 5.378907-110.894531c0 0 46.371093-10.488281 87.15625 35.125 0 0-14.558594 70.316406-92.535157 75.769531zm0 0" fill="#6b4f5b"/><path d="m80.828125 230.957031c-2.789063 0-5.320313-1.703125-6.355469-4.328125-1.234375-3.125-29.761718-77.113281 6.640625-117.933594.949219-1.066406 2.199219-1.808593 3.589844-2.121093 2.066406-.4375 50.792969-10.804688 93.753906 37.226562 1.445313 1.613281 2.039063 3.820313 1.597657 5.9375-.160157.753907-16.558594 75.449219-98.75 81.203125-.164063.007813-.324219.015625-.476563.015625zm8.980469-111.421875c-24.027344 29.625-9.59375 81.40625-4.3125 97.316406 58.488281-6.640624 76.464844-53.726562 80.316406-66.621093-32.417969-34.230469-67.097656-31.957031-76.003906-30.695313zm0 0" fill="#4c241d"/><path d="m104.484375 142.269531s41.675781 5.367188 52.523437 33.03125l-47.050781 36.3125c.003907 0-23.882812-25.109375-5.472656-69.34375zm0 0" fill="#e66353"/><path d="m109.960938 218.441406c-1.8125 0-3.613282-.71875-4.945313-2.117187-1.101563-1.164063-26.71875-28.882813-6.832031-76.675781 1.179687-2.851563 4.144531-4.492188 7.171875-4.152344 1.867187.238281 45.828125 6.238281 58.007812 37.3125 1.105469 2.824218.21875 6.046875-2.179687 7.898437l-47.046875 36.3125c-1.242188.953125-2.707031 1.421875-4.175781 1.421875zm-1.144532-68.425781c-9.128906 26.027344-2.214844 43.785156 2.550782 51.886719l37.066406-28.609375c-8.980469-14.90625-29.847656-21.117188-39.617188-23.277344zm0 0" fill="#4c241d"/><path d="m75.089844 273.519531c-1.03125 0-2.070313-.230469-3.046875-.71875-23.988281-12-48.269531-.113281-48.507813 0-3.367187 1.679688-7.46875.320313-9.160156-3.054687-1.6875-3.371094-.320312-7.472656 3.054688-9.15625 1.246093-.613282 30.71875-14.996094 60.71875 0 3.375 1.683594 4.738281 5.785156 3.054687 9.15625-1.203125 2.394531-3.609375 3.773437-6.113281 3.773437zm0 0" fill="#4c241d"/><path d="m6.835938 321.308594c-2.65625 0-5.175782-1.554688-6.28125-4.140625-1.488282-3.464844.117187-7.480469 3.585937-8.960938 2.0625-.886719 51.035156-21.558593 80.835937-6.660156 3.371094 1.6875 4.738282 5.789063 3.050782 9.160156-1.691406 3.375-5.785156 4.726563-9.160156 3.054688-24.140626-12.082031-68.90625 6.804687-69.351563 6.992187-.875.375-1.789063.554688-2.679687.554688zm0 0" fill="#4c241d"/><path d="m416.421875 273.519531c-1.019531 0-2.054687-.226562-3.035156-.710937-.417969-.214844-24.816407-11.875-48.519531-.007813-3.378907 1.679688-7.464844.320313-9.160157-3.054687-1.683593-3.371094-.320312-7.472656 3.054688-9.15625 30.027343-15.007813 59.480469-.613282 60.71875 0 3.375 1.683594 4.738281 5.785156 3.054687 9.15625-1.199218 2.394531-3.605468 3.773437-6.113281 3.773437zm0 0" fill="#4c241d"/><path d="m430.074219 321.308594c-.890625 0-1.808594-.175782-2.679688-.554688-.445312-.183594-45.207031-19.066406-69.351562-6.992187-3.382813 1.671875-7.46875.320312-9.160157-3.054688-1.6875-3.375-.320312-7.472656 3.050782-9.160156 29.773437-14.898437 78.773437 5.773437 80.835937 6.660156 3.464844 1.480469 5.070313 5.496094 3.585938 8.960938-1.109375 2.585937-3.628907 4.140625-6.28125 4.140625zm0 0" fill="#4c241d"/><path d="m411 394.5625c-1.746094 0-3.492188-.667969-4.824219-2l-20.128906-20.121094c-2.664063-2.664062-2.664063-6.988281 0-9.652344 2.667969-2.667968 6.988281-2.667968 9.652344 0l20.128906 20.121094c2.664063 2.664063 2.664063 6.984375 0 9.652344-1.332031 1.332031-3.078125 2-4.828125 2zm0 0" fill="#4c241d"/><path d="m77.019531 317.695312c-9.496093-15.4375-14.804687-32.6875-14.804687-50.882812 0-65.988281 69.804687-119.480469 155.914062-119.480469 86.113282 0 155.917969 53.492188 155.917969 119.480469 0 65.984375-69.804687 119.476562-155.917969 119.476562-39.457031 0-75.496094-11.230468-102.960937-29.753906" fill="#efefd2"/><path d="m218.128906 393.113281c-39.289062 0-77.207031-10.980469-106.773437-30.917969-3.125-2.105468-3.953125-6.355468-1.847657-9.472656 2.113282-3.136718 6.363282-3.949218 9.476563-1.847656 27.339844 18.433594 62.550781 28.585938 99.144531 28.585938 82.214844 0 149.09375-50.53125 149.09375-112.652344s-66.878906-112.65625-149.09375-112.65625c-82.207031 0-149.085937 50.535156-149.085937 112.65625 0 16.511718 4.640625 32.433594 13.792969 47.304687 1.976562 3.214844.976562 7.421875-2.230469 9.394531-3.234375 1.964844-7.429688.972657-9.394531-2.234374-10.5-17.058594-15.820313-35.386719-15.820313-54.464844 0-69.648438 73.003906-126.308594 162.738281-126.308594 89.738282 0 162.746094 56.660156 162.746094 126.308594 0 69.644531-73.007812 126.304687-162.746094 126.304687zm0 0" fill="#4c241d"/><path d="m97.789062 349.609375c-1.667968 0-3.332031-.605469-4.648437-1.828125-2.480469-2.300781-4.851563-4.664062-7.113281-7.097656-2.558594-2.769532-2.398438-7.085938.359375-9.65625 2.773437-2.566406 7.082031-2.398438 9.652343.363281 2.035157 2.191406 4.167969 4.316406 6.394532 6.390625 2.761718 2.566406 2.921875 6.886719.351562 9.648438-1.34375 1.445312-3.171875 2.179687-4.996094 2.179687zm0 0" fill="#4c241d"/><path d="m221.867188 205.253906c-13.195313 0-23.890626-10.695312-23.890626-23.894531v-47.785156c0-13.195313 10.695313-23.894531 23.890626-23.894531 13.195312 0 23.894531 10.699218 23.894531 23.894531v47.785156c0 13.199219-10.699219 23.894531-23.894531 23.894531zm0 0" fill="#ffce56"/><path d="m221.867188 212.082031c-16.941407 0-30.71875-13.78125-30.71875-30.722656v-47.785156c0-16.941407 13.777343-30.71875 30.71875-30.71875 16.941406 0 30.722656 13.777343 30.722656 30.71875v47.785156c0 16.941406-13.78125 30.722656-30.722656 30.722656zm0-95.574219c-9.414063 0-17.066407 7.652344-17.066407 17.066407v47.785156c0 9.414063 7.652344 17.070313 17.066407 17.070313 9.414062 0 17.066406-7.65625 17.066406-17.070313v-47.785156c0-9.410157-7.652344-17.066407-17.066406-17.066407zm0 0" fill="#4c241d"/><path d="m341.335938 266.695312c0 22.621094-23.636719 27.304688-44.375 27.304688-20.734376 0-44.371094-4.683594-44.371094-27.304688 0-22.621093 23.636718-54.613281 44.371094-54.613281 20.738281 0 44.375 31.992188 44.375 54.613281zm0 0" fill="#fff"/><path d="m296.960938 300.828125c-44.546876 0-51.199219-21.386719-51.199219-34.132813 0-25.695312 25.800781-61.441406 51.199219-61.441406 25.402343 0 51.199218 35.746094 51.199218 61.441406 0 12.746094-6.652344 34.132813-51.199218 34.132813zm0-81.921875c-15.792969 0-37.546876 27.6875-37.546876 47.789062 0 5.066407 0 20.480469 37.546876 20.480469 37.546874 0 37.546874-15.414062 37.546874-20.480469 0-20.101562-21.753906-47.789062-37.546874-47.789062zm0 0" fill="#4c241d"/><path d="m95.574219 266.695312c0 22.621094 23.636719 27.304688 44.375 27.304688 20.734375 0 44.371093-4.683594 44.371093-27.304688 0-22.621093-23.636718-54.613281-44.371093-54.613281-20.738281 0-44.375 31.992188-44.375 54.613281zm0 0" fill="#fff"/><path d="m139.949219 300.828125c-44.546875 0-51.199219-21.386719-51.199219-34.132813 0-25.695312 25.796875-61.441406 51.199219-61.441406 25.398437 0 51.199219 35.746094 51.199219 61.441406 0 12.746094-6.652344 34.132813-51.199219 34.132813zm0-81.921875c-15.792969 0-37.546875 27.6875-37.546875 47.789062 0 5.066407 0 20.480469 37.546875 20.480469s37.546875-15.414062 37.546875-20.480469c0-20.101562-21.753906-47.789062-37.546875-47.789062zm0 0" fill="#4c241d"/><path d="m286.722656 279.628906c-3.773437 0-6.828125-3.054687-6.828125-6.828125v-33.414062c0-3.773438 3.054688-6.824219 6.828125-6.824219 3.773438 0 6.824219 3.050781 6.824219 6.824219v33.414062c0 3.773438-3.050781 6.828125-6.824219 6.828125zm0 0" fill="#4c241d"/><path d="m150.1875 279.628906c-3.773438 0-6.824219-3.054687-6.824219-6.828125v-33.414062c0-3.773438 3.050781-6.824219 6.824219-6.824219s6.828125 3.050781 6.828125 6.824219v33.414062c0 3.773438-3.054687 6.828125-6.828125 6.828125zm0 0" fill="#4c241d"/><path d="m266.1875 336.335938c-7.863281 0-15.585938-.765626-23.097656-2.289063-13.980469-2.839844-34.90625-5.296875-55.21875-.867187-28.6875 6.28125-51.640625.179687-52.601563-.078126-3.632812-.992187-5.78125-4.746093-4.785156-8.386718 1-3.632813 4.75-5.800782 8.378906-4.789063.464844.121094 20.984375 5.394531 46.085938-.078125 22.640625-4.953125 45.585937-2.289062 60.859375.820313 14.460937 2.925781 29.855468 2.660156 45.746094-.820313 3.679687-.792968 7.328124 1.511719 8.128906 5.207032.808594 3.6875-1.527344 7.320312-5.207032 8.125-9.59375 2.101562-19.046874 3.15625-28.289062 3.15625zm0 0" fill="#4c241d"/><path d="m251.667969 328.527344 8.859375 20.960937c2.0625 4.871094 8.988281 4.828125 10.980468-.074219l8.433594-20.734374c-10.605468 1.214843-20.058594.929687-28.273437-.152344zm0 0" fill="#fff"/><path d="m266 359.941406c-5.148438 0-9.753906-3.054687-11.761719-7.792968l-8.859375-20.957032c-.953125-2.261718-.625-4.855468.863282-6.800781 1.484374-1.941406 3.867187-2.953125 6.320312-2.628906 8.558594 1.136719 17.511719 1.175781 26.605469.140625 2.425781-.339844 4.757812.734375 6.214843 2.65625 1.453126 1.917968 1.792969 4.464844.886719 6.699218l-8.433593 20.734376c-1.953126 4.796874-6.566407 7.917968-11.746094 7.953124-.027344-.003906-.0625-.003906-.089844-.003906zm-3.660156-23.707031 3.648437 8.632813 3.5-8.613282c-2.394531.066406-4.78125.074219-7.148437-.019531zm0 0" fill="#4c241d"/><path d="m150.121094 328.632812 8.453125 20.78125c1.992187 4.902344 8.917969 4.949219 10.980469.074219l9.121093-21.585937c-11.265625 1.652344-21.207031 1.4375-28.554687.730468zm0 0" fill="#fff"/><path d="m164.082031 359.941406c-.027343 0-.058593 0-.085937 0-5.179688-.035156-9.792969-3.152344-11.75-7.953125l-8.453125-20.78125c-.898438-2.210937-.570313-4.730469.855469-6.652343 1.425781-1.914063 3.707031-2.925782 6.125-2.710938 6.113281.578125 15.742187.945312 26.914062-.695312 2.476562-.339844 4.886719.632812 6.394531 2.582031 1.507813 1.945312 1.847657 4.558593.886719 6.832031l-9.125 21.585938c-2.011719 4.738281-6.617188 7.792968-11.761719 7.792968zm-3.601562-23.960937 3.613281 8.886719 3.828125-9.050782c-2.632813.136719-5.179687.164063-7.441406.164063zm0 0" fill="#4c241d"/><path d="m245.761719 177.949219h-47.785157c-3.773437 0-6.828124-3.054688-6.828124-6.828125 0-3.773438 3.054687-6.828125 6.828124-6.828125h47.785157c3.773437 0 6.828125 3.054687 6.828125 6.828125 0 3.773437-3.054688 6.828125-6.828125 6.828125zm0 0" fill="#4c241d"/><path d="m245.761719 150.640625h-47.785157c-3.773437 0-6.828124-3.050781-6.828124-6.824219 0-3.773437 3.054687-6.828125 6.828124-6.828125h47.785157c3.773437 0 6.828125 3.054688 6.828125 6.828125 0 3.773438-3.054688 6.824219-6.828125 6.824219zm0 0" fill="#4c241d"/></svg>