<svg height="404pt" viewBox="0 -1 404.17195 404" width="404pt" xmlns="http://www.w3.org/2000/svg"><path d="m307.199219 167.613281c0 84.828125-68.769531 153.597657-153.597657 153.597657-84.832031 0-153.601562-68.769532-153.601562-153.597657 0-84.832031 68.769531-153.601562 153.601562-153.601562 84.828126 0 153.597657 68.769531 153.597657 153.601562zm0 0" fill="#c1dbdc"/><g fill="#4c241d"><path d="m97.046875 26.191406c-1.746094 0-3.496094-.667968-4.828125-2-2.664062-2.664062-2.664062-6.988281 0-9.652344l12.453125-12.453124c2.667969-2.667969 6.988281-2.667969 9.65625 0 2.664063 2.664062 2.664063 6.988281 0 9.652343l-12.457031 12.453125c-1.332032 1.332032-3.078125 2-4.824219 2zm0 0"/><path d="m67.992188 55.246094c-1.746094 0-3.492188-.667969-4.824219-2-2.667969-2.667969-2.667969-6.988282 0-9.65625l12.453125-12.453125c2.664062-2.664063 6.988281-2.664063 9.652344 0 2.664062 2.667969 2.664062 6.988281 0 9.652343l-12.453126 12.457032c-1.332031 1.332031-3.082031 2-4.828124 2zm0 0"/><path d="m80.445312 26.191406c-1.742187 0-3.492187-.667968-4.824218-2l-12.453125-12.453125c-2.667969-2.664062-2.667969-6.988281 0-9.652343 2.664062-2.667969 6.984375-2.667969 9.652343 0l12.453126 12.453124c2.664062 2.664063 2.664062 6.988282 0 9.652344-1.335938 1.332032-3.082032 2-4.828126 2zm0 0"/><path d="m109.5 55.246094c-1.746094 0-3.492188-.667969-4.828125-2l-12.453125-12.457032c-2.664062-2.664062-2.664062-6.984374 0-9.652343 2.667969-2.664063 6.988281-2.664063 9.652344 0l12.457031 12.453125c2.664063 2.667968 2.664063 6.988281 0 9.65625-1.335937 1.332031-3.082031 2-4.828125 2zm0 0"/><path d="m32.949219 387.238281c-3.421875 0-6.804688-.839843-9.902344-2.496093-4.964844-2.652344-8.589844-7.085938-10.222656-12.472657-1.628907-5.371093-1.070313-11.074219 1.585937-16.035156 2.652344-4.960937 7.074219-8.585937 12.460938-10.21875 11.117187-3.359375 22.890625 2.933594 26.257812 14.046875 1.632813 5.378906 1.070313 11.078125-1.582031 16.039062-2.652344 4.960938-7.078125 8.585938-12.460937 10.21875-2.019532.617188-4.082032.917969-6.136719.917969zm.023437-28.472656c-.710937 0-1.429687.105469-2.144531.320313-3.90625 1.1875-6.117187 5.328124-4.9375 9.234374.574219 1.890626 1.851563 3.453126 3.59375 4.382813s3.75 1.121094 5.640625.554687c1.890625-.574218 3.449219-1.847656 4.378906-3.59375.933594-1.746093 1.128906-3.746093.558594-5.640624-.96875-3.191407-3.914062-5.257813-7.089844-5.257813zm0 0"/><path d="m292.226562 42.472656c-11.609374 0-21.058593-9.445312-21.058593-21.054687 0-11.613281 9.449219-21.058594 21.058593-21.058594 11.609376 0 21.054688 9.445313 21.054688 21.058594 0 11.609375-9.445312 21.054687-21.054688 21.054687zm0-28.460937c-4.085937 0-7.40625 3.320312-7.40625 7.40625 0 4.082031 3.320313 7.402343 7.40625 7.402343 4.082032 0 7.402344-3.320312 7.402344-7.402343 0-4.085938-3.320312-7.40625-7.402344-7.40625zm0 0"/><path d="m390.175781 14.589844c0 5.082031-4.121093 9.199218-9.203125 9.199218-5.082031 0-9.203125-4.117187-9.203125-9.199218 0-5.082032 4.121094-9.203125 9.203125-9.203125 5.082032 0 9.203125 4.121093 9.203125 9.203125zm0 0"/><path d="m377.21875 380.8125c-1.746094 0-3.492188-.667969-4.824219-2-2.667969-2.667969-2.667969-6.988281 0-9.652344l20.125-20.121094c2.664063-2.667968 6.988281-2.667968 9.652344 0 2.667969 2.664063 2.667969 6.988282 0 9.652344l-20.125 20.121094c-1.332031 1.332031-3.078125 2-4.828125 2zm0 0"/><path d="m397.347656 380.8125c-1.746094 0-3.496094-.667969-4.828125-2l-20.125-20.121094c-2.667969-2.664062-2.667969-6.988281 0-9.652344 2.660157-2.667968 6.984375-2.667968 9.652344 0l20.125 20.121094c2.667969 2.664063 2.667969 6.984375 0 9.652344-1.328125 1.332031-3.078125 2-4.824219 2zm0 0"/></g><path d="m122.898438 125.992188c0 24.277343-19.679688 43.957031-43.957032 43.957031-24.273437 0-43.953125-19.679688-43.953125-43.957031 0-24.273438 19.679688-43.953126 43.953125-43.953126 24.277344 0 43.957032 19.679688 43.957032 43.953126zm0 0" fill="#9dc1e4"/><path d="m78.945312 176.769531c-28.003906 0-50.785156-22.777343-50.785156-50.777343s22.78125-50.78125 50.785156-50.78125c27.996094 0 50.777344 22.78125 50.777344 50.78125s-22.78125 50.777343-50.777344 50.777343zm0-87.90625c-20.476562 0-37.132812 16.65625-37.132812 37.128907 0 20.472656 16.65625 37.125 37.132812 37.125 20.472657 0 37.125-16.652344 37.125-37.125 0-20.472657-16.652343-37.128907-37.125-37.128907zm0 0" fill="#4c241d"/><path d="m367.785156 125.992188c0 24.277343-19.679687 43.957031-43.953125 43.957031-24.277343 0-43.957031-19.679688-43.957031-43.957031 0-24.273438 19.679688-43.953126 43.957031-43.953126 24.273438 0 43.953125 19.679688 43.953125 43.953126zm0 0" fill="#9dc1e4"/><path d="m323.828125 176.769531c-27.996094 0-50.777344-22.777343-50.777344-50.777343s22.78125-50.78125 50.777344-50.78125c28.003906 0 50.785156 22.78125 50.785156 50.78125s-22.78125 50.777343-50.785156 50.777343zm0-87.90625c-20.472656 0-37.125 16.65625-37.125 37.128907 0 20.472656 16.652344 37.125 37.125 37.125 20.476563 0 37.132813-16.652344 37.132813-37.125 0-20.472657-16.65625-37.128907-37.132813-37.128907zm0 0" fill="#4c241d"/><path d="m333.605469 145.511719c5.828125 8.550781 10.910156 17.789062 15.113281 27.667969 34.628906 81.371093-3.265625 175.40625-84.636719 210.03125-81.371093 34.625-175.402343-3.265626-210.03125-84.636719-34.625-81.367188 3.269531-175.402344 84.636719-210.027344 52.113281-22.179687 109.421875-14.609375 152.992188 15.078125" fill="#9dc1e4"/><path d="m201.613281 402.824219c-64.957031 0-126.84375-38.132813-153.839843-101.574219-36.046876-84.707031 3.539062-182.9375 88.242187-218.984375 52.59375-22.386719 112.222656-16.5 159.507813 15.71875 3.117187 2.121094 3.917968 6.367187 1.796874 9.488281-2.121093 3.105469-6.363281 3.914063-9.484374 1.792969-43.421876-29.578125-98.183594-34.980469-146.472657-14.441406-77.777343 33.101562-114.125 123.300781-81.03125 201.082031 33.101563 77.777344 123.320313 114.113281 201.078125 81.027344 77.773438-33.101563 114.125-123.300782 81.027344-201.082032-3.957031-9.304687-8.828125-18.21875-14.472656-26.492187-2.121094-3.113281-1.316406-7.359375 1.796875-9.484375 3.117187-2.113281 7.355469-1.328125 9.484375 1.792969 6.148437 9.003906 11.449218 18.710937 15.757812 28.839843 36.042969 84.707032-3.542968 182.9375-88.246094 218.984376-21.261718 9.046874-43.378906 13.332031-65.144531 13.332031zm0 0" fill="#4c241d"/><path d="m309.457031 117.675781c3.636719 3.324219 7.132813 6.828125 10.476563 10.503907" fill="#9dc1e4"/><path d="m319.9375 135.003906c-1.859375 0-3.707031-.753906-5.054688-2.234375-3.179687-3.5-6.554687-6.878906-10.03125-10.054687-2.78125-2.539063-2.976562-6.859375-.4375-9.636719 2.546876-2.789063 6.855469-2.996094 9.644532-.441406 3.785156 3.453125 7.460937 7.140625 10.921875 10.945312 2.539062 2.792969 2.335937 7.109375-.457031 9.648438-1.304688 1.1875-2.949219 1.773437-4.585938 1.773437zm0 0" fill="#4c241d"/><path d="m303.917969 225.386719c-6.785157-3.550781-15.03125-2.839844-21.40625 1.410156l-13.742188 9.15625c-8.796875 5.867187-19.878906 7.140625-29.777343 3.429687l-19.230469-7.210937c-9.824219-3.683594-20.648438-3.683594-30.472657 0l-19.226562 7.210937c-9.902344 3.714844-20.984375 2.4375-29.78125-3.429687l-13.742188-9.15625c-6.371093-4.25-14.621093-4.960937-21.40625-1.410156-23.117187 12.105469-42.324218 32.179687-57.824218 54.023437 18.96875 67.265625 80.746094 116.585938 154.078125 116.585938 75.613281 0 138.941406-52.425782 155.726562-122.902344-14.648437-19.355469-32.324219-36.78125-53.195312-47.707031zm0 0" fill="#efefd2"/><path d="m201.386719 402.824219c-74.402344 0-140.46875-49.988281-160.648438-121.5625-.5625-1.984375-.195312-4.117188 1-5.804688 18.429688-25.960937 38.691407-44.839843 60.226563-56.121093 8.886718-4.652344 19.753906-3.964844 28.363281 1.78125l13.738281 9.160156c6.957032 4.640625 15.785156 5.640625 23.597656 2.714844l19.230469-7.214844c11.371094-4.253906 23.894531-4.253906 35.261719 0l19.234375 7.214844c7.808594 2.925781 16.636719 1.925781 23.597656-2.714844l13.738281-9.160156c8.617188-5.746094 19.484376-6.4375 28.359376-1.78125 19.679687 10.300781 38.34375 27 55.472656 49.632812 1.230468 1.628906 1.667968 3.722656 1.195312 5.703125-17.96875 75.453125-84.734375 128.152344-162.367187 128.152344zm-146.589844-122.132813c19.550781 64.035156 79.363281 108.480469 146.589844 108.480469 70.203125 0 130.734375-46.933594 148.304687-114.535156-15.339844-19.707031-31.796875-34.226563-48.9375-43.203125-4.453125-2.328125-9.992187-1.941406-14.453125 1.042968l-13.746093 9.160157c-10.597657 7.074219-24.039063 8.613281-35.960938 4.140625l-19.230469-7.210938c-8.28125-3.109375-17.394531-3.109375-25.683593 0l-19.226563 7.210938c-11.914063 4.460937-25.359375 2.929687-35.960937-4.140625l-13.742188-9.160157c-4.464844-2.984374-10.011719-3.371093-14.453125-1.042968-18.878906 9.882812-36.867187 26.449218-53.5 49.257812zm0 0" fill="#4c241d"/><path d="m265.921875 237.617188c-8.269531 4.386718-18.066406 5.089843-26.929687 1.765624l-5.878907-2.203124 16.492188 41.230468zm0 0" fill="#fff"/><path d="m249.605469 285.238281c-2.789063 0-5.300781-1.699219-6.339844-4.292969l-16.492187-41.234374c-1.003907-2.507813-.429688-5.371094 1.460937-7.304688 1.894531-1.941406 4.734375-2.574219 7.277344-1.621094l5.882812 2.207032c6.945313 2.613281 14.726563 2.097656 21.328125-1.40625 2.523438-1.339844 5.625-.964844 7.761719.953124 2.132813 1.914063 2.839844 4.953126 1.777344 7.613282l-16.316407 40.792968c-1.035156 2.59375-3.546874 4.292969-6.339843 4.292969zm-4.863281-37.367187 4.863281 12.160156 4.773437-11.933594c-3.195312.3125-6.4375.246094-9.636718-.226562zm0 0" fill="#4c241d"/><path d="m175.9375 237.179688-5.878906 2.207031c-8.863282 3.320312-18.660156 2.617187-26.929688-1.769531l16.316406 40.796874zm0 0" fill="#fff"/><path d="m159.445312 285.238281c-2.789062 0-5.300781-1.699219-6.339843-4.292969l-16.316407-40.792968c-1.0625-2.660156-.351562-5.699219 1.78125-7.613282 2.128907-1.921874 5.226563-2.292968 7.757813-.953124 6.597656 3.503906 14.371094 4.015624 21.339844 1.40625l5.871093-2.207032c2.527344-.957031 5.382813-.320312 7.28125 1.617188 1.886719 1.933594 2.460938 4.800781 1.457032 7.308594l-16.492188 41.230468c-1.035156 2.597656-3.550781 4.296875-6.339844 4.296875zm-4.773437-37.140625 4.773437 11.933594 4.867188-12.160156c-3.203125.46875-6.4375.535156-9.640625.226562zm0 0" fill="#4c241d"/><path d="m292.4375 169.945312c0 13.871094-11.246094 25.117188-25.117188 25.117188-13.875 0-25.117187-11.246094-25.117187-25.117188 0-13.871093 11.242187-25.117187 25.117187-25.117187 13.871094 0 25.117188 11.246094 25.117188 25.117187zm0 0" fill="#6b4f5b"/><path d="m267.316406 201.890625c-17.613281 0-31.941406-14.332031-31.941406-31.945313 0-17.617187 14.328125-31.941406 31.941406-31.941406 17.617188 0 31.949219 14.328125 31.949219 31.941406 0 17.613282-14.332031 31.945313-31.949219 31.945313zm0-50.234375c-10.085937 0-18.289062 8.207031-18.289062 18.289062 0 10.085938 8.203125 18.292969 18.289062 18.292969 10.085938 0 18.292969-8.207031 18.292969-18.292969 0-10.082031-8.207031-18.289062-18.292969-18.289062zm0 0" fill="#4c241d"/><path d="m166.851562 169.945312c0 13.871094-11.246093 25.117188-25.117187 25.117188s-25.117187-11.246094-25.117187-25.117188c0-13.871093 11.246093-25.117187 25.117187-25.117187s25.117187 11.246094 25.117187 25.117187zm0 0" fill="#6b4f5b"/><path d="m141.734375 201.890625c-17.613281 0-31.945313-14.332031-31.945313-31.945313 0-17.617187 14.328126-31.941406 31.945313-31.941406 17.613281 0 31.941406 14.328125 31.941406 31.941406 0 17.613282-14.328125 31.945313-31.941406 31.945313zm0-50.234375c-10.085937 0-18.292969 8.207031-18.292969 18.289062 0 10.085938 8.207032 18.292969 18.292969 18.292969s18.289063-8.207031 18.289063-18.292969c0-10.082031-8.203126-18.289062-18.289063-18.289062zm0 0" fill="#4c241d"/><path d="m273.597656 163.667969c0 6.933593-5.625 12.558593-12.558594 12.558593-6.9375 0-12.558593-5.625-12.558593-12.558593 0-6.9375 5.621093-12.558594 12.558593-12.558594 6.933594 0 12.558594 5.621094 12.558594 12.558594zm0 0" fill="#fff"/><path d="m160.570312 157.386719c0 6.9375-5.621093 12.558593-12.558593 12.558593-6.933594 0-12.558594-5.621093-12.558594-12.558593 0-6.933594 5.625-12.554688 12.558594-12.554688 6.9375 0 12.558593 5.621094 12.558593 12.554688zm0 0" fill="#fff"/></svg>