<svg height="413pt" viewBox="0 -2 413.64136 413" width="413pt" xmlns="http://www.w3.org/2000/svg"><path d="m329.71875 208.804688c0 84.832031-68.769531 153.601562-153.597656 153.601562-84.832032 0-153.601563-68.769531-153.601563-153.601562 0-84.828126 68.769531-153.597657 153.601563-153.597657 84.828125 0 153.597656 68.769531 153.597656 153.597657zm0 0" fill="#c1dbdc"/><g fill="#4c241d"><path d="m338.019531 26.425781c-1.746093 0-3.492187-.667969-4.828125-2-2.664062-2.664062-2.664062-6.988281 0-9.652343l12.453125-12.453126c2.667969-2.667968 6.988281-2.667968 9.65625 0 2.664063 2.664063 2.664063 6.988282 0 9.652344l-12.457031 12.453125c-1.332031 1.332031-3.078125 2-4.824219 2zm0 0"/><path d="m308.964844 55.480469c-1.746094 0-3.492188-.667969-4.824219-2-2.667969-2.667969-2.667969-6.988281 0-9.652344l12.453125-12.457031c2.664062-2.664063 6.988281-2.664063 9.652344 0 2.667968 2.667968 2.667968 6.988281 0 9.65625l-12.453125 12.453125c-1.332031 1.332031-3.082031 2-4.828125 2zm0 0"/><path d="m321.421875 26.425781c-1.746094 0-3.496094-.667969-4.828125-2l-12.453125-12.453125c-2.667969-2.664062-2.667969-6.988281 0-9.652344 2.664063-2.667968 6.988281-2.667968 9.652344 0l12.453125 12.453126c2.667968 2.664062 2.667968 6.988281 0 9.652343-1.332032 1.332031-3.082032 2-4.824219 2zm0 0"/><path d="m350.472656 55.480469c-1.746094 0-3.492187-.667969-4.828125-2l-12.453125-12.453125c-2.664062-2.667969-2.664062-6.988282 0-9.65625 2.667969-2.664063 6.988282-2.664063 9.652344 0l12.457031 12.457031c2.664063 2.664063 2.664063 6.984375 0 9.652344-1.335937 1.332031-3.082031 2-4.828125 2zm0 0"/><path d="m65.519531 376.058594h-17.605469c-3.773437 0-6.828124-3.054688-6.828124-6.824219 0-3.773437 3.054687-6.828125 6.828124-6.828125h17.605469c3.773438 0 6.824219 3.054688 6.824219 6.828125 0 3.769531-3.050781 6.824219-6.824219 6.824219zm0 0"/><path d="m24.433594 376.058594h-17.605469c-3.773437 0-6.828125-3.054688-6.828125-6.824219 0-3.773437 3.054688-6.828125 6.828125-6.828125h17.605469c3.773437 0 6.824218 3.054688 6.824218 6.828125 0 3.769531-3.050781 6.824219-6.824218 6.824219zm0 0"/><path d="m36.171875 364.320312c-3.773437 0-6.824219-3.058593-6.824219-6.828124v-17.609376c0-3.769531 3.050782-6.824218 6.824219-6.824218s6.828125 3.054687 6.828125 6.824218v17.609376c0 3.769531-3.054688 6.828124-6.828125 6.828124zm0 0"/><path d="m36.171875 405.410156c-3.773437 0-6.824219-3.058594-6.824219-6.828125v-17.609375c0-3.769531 3.050782-6.828125 6.824219-6.828125s6.828125 3.058594 6.828125 6.828125v17.609375c0 3.769531-3.054688 6.828125-6.828125 6.828125zm0 0"/><path d="m389.839844 404.519531c-11.613282 0-21.058594-9.445312-21.058594-21.054687 0-11.613282 9.445312-21.058594 21.058594-21.058594 11.613281 0 21.0625 9.445312 21.0625 21.058594 0 11.609375-9.449219 21.054687-21.0625 21.054687zm0-28.460937c-4.085938 0-7.40625 3.320312-7.40625 7.40625 0 4.082031 3.320312 7.402344 7.40625 7.402344 4.085937 0 7.40625-3.320313 7.40625-7.402344 0-4.085938-3.320313-7.40625-7.40625-7.40625zm0 0"/><path d="m133.5 73.851562c-1.746094 0-3.496094-.667968-4.828125-2-2.664063-2.667968-2.664063-6.988281 0-9.65625l20.128906-20.125c2.664063-2.667968 6.984375-2.667968 9.652344 0 2.664063 2.664063 2.664063 6.988282 0 9.652344l-20.128906 20.128906c-1.332031 1.332032-3.078125 2-4.824219 2zm0 0"/><path d="m153.625 73.851562c-1.746094 0-3.492188-.667968-4.824219-2l-20.128906-20.128906c-2.664063-2.664062-2.664063-6.988281 0-9.652344 2.667969-2.667968 6.988281-2.667968 9.652344 0l20.128906 20.125c2.664063 2.667969 2.664063 6.988282 0 9.65625-1.332031 1.332032-3.078125 2-4.828125 2zm0 0"/></g><path d="m118.964844 353.925781c-13.421875-15.464843-23.726563-34.0625-29.644532-55.082031-21.449218-76.214844 22.949219-155.386719 99.164063-176.835938 76.210937-21.453124 155.386719 22.945313 176.835937 99.160157 21.453126 76.214843-22.945312 155.386719-99.160156 176.835937-34.925781 9.832032-70.472656 5.832032-100.804687-8.71875" fill="#efefd2"/><path d="m227.292969 410.203125c-22.300781 0-44.476563-4.964844-64.894531-14.757813-3.398438-1.632812-4.832032-5.710937-3.199219-9.113281 1.625-3.394531 5.699219-4.84375 9.105469-3.203125 29.921874 14.359375 64.007812 17.316406 96.007812 8.308594 72.460938-20.398438 114.828125-95.953125 94.433594-168.421875-20.394532-72.472656-95.960938-114.816406-168.421875-94.441406-72.457031 20.398437-114.824219 95.953125-94.433594 168.421875 5.515625 19.585937 15.015625 37.234375 28.226563 52.453125 2.476562 2.847656 2.167968 7.160156-.675782 9.628906-2.835937 2.476563-7.160156 2.167969-9.628906-.675781-14.546875-16.75-25-36.164063-31.066406-57.703125-22.433594-79.722657 24.171875-162.828125 103.886718-185.261719 79.691407-22.417969 162.820313 24.164062 185.261719 103.878906 22.433594 79.722656-24.175781 162.828125-103.886719 185.261719-13.359374 3.761719-27.0625 5.625-40.714843 5.625zm0 0" fill="#4c241d"/><path d="m234.144531 21.074219-40.957031 122.878906h75.09375zm0 0" fill="#a9ba5a"/><path d="m268.28125 150.78125h-75.09375c-2.195312 0-4.253906-1.054688-5.542969-2.839844-1.277343-1.777344-1.632812-4.066406-.933593-6.148437l40.960937-122.878907c.949219-2.851562 3.671875-4.917968 6.648437-4.664062 3 .078125 5.597657 2.101562 6.40625 4.996094l34.132813 122.878906c.566406 2.058594.148437 4.261719-1.144531 5.957031-1.289063 1.699219-3.300782 2.699219-5.433594 2.699219zm-65.621094-13.65625h56.640625l-25.746093-92.683594zm0 0" fill="#4c241d"/><path d="m72.496094 80.195312 112.121094 64.855469-56.226563 49.777344zm0 0" fill="#a9ba5a"/><path d="m128.390625 201.652344c-.4375 0-.886719-.042969-1.332031-.128906-2.085938-.414063-3.867188-1.785157-4.796875-3.703126l-55.902344-114.628906c-1.316406-2.699218-.71875-5.941406 1.480469-7.988281 2.191406-2.046875 5.472656-2.421875 8.074218-.917969l112.125 64.855469c1.898438 1.101563 3.152344 3.042969 3.375 5.226563.21875 2.179687-.628906 4.339843-2.269531 5.792968l-56.222656 49.777344c-1.261719 1.117188-2.875 1.714844-4.53125 1.714844zm-39.964844-104.351563 42.167969 86.460938 42.40625-37.546875zm0 0" fill="#4c241d"/><path d="m375.316406 80.195312-112.121094 64.855469 56.226563 49.777344zm0 0" fill="#a9ba5a"/><path d="m319.417969 201.652344c-1.652344 0-3.265625-.597656-4.523438-1.714844l-56.226562-49.777344c-1.640625-1.453125-2.488281-3.609375-2.265625-5.792968.21875-2.1875 1.472656-4.128907 3.371094-5.226563l112.128906-64.855469c2.605468-1.496094 5.886718-1.128906 8.070312.917969 2.203125 2.046875 2.800782 5.289063 1.480469 7.988281l-55.898437 114.628906c-.933594 1.917969-2.714844 3.289063-4.800782 3.703126-.449218.085937-.894531.128906-1.335937.128906zm-44.605469-55.4375 42.40625 37.546875 42.167969-86.460938zm0 0" fill="#4c241d"/><path d="m145.492188 384.558594c-1.34375 0-2.699219-.394532-3.890626-1.222656-4.203124-2.917969-8.273437-6.066407-12.101562-9.347657-2.859375-2.453125-3.1875-6.765625-.734375-9.625 2.453125-2.863281 6.753906-3.183593 9.628906-.742187 3.472657 2.984375 7.179688 5.84375 11.003907 8.507812 3.09375 2.148438 3.863281 6.40625 1.707031 9.496094-1.328125 1.910156-3.453125 2.933594-5.613281 2.933594zm0 0" fill="#4c241d"/><path d="m155.039062 267.191406 70.726563-110.015625 70.726563 110.015625 31.433593-39.289062 39.585938 61.816406c4.683593-22 4.324219-45.402344-2.191407-68.554688-21.449218-76.210937-100.625-120.609374-176.839843-99.160156-71.9375 20.25-115.460938 91.925782-102.082031 163.996094l37.207031-58.101562zm0 0" fill="#a9ba5a"/><path d="m367.511719 296.546875c-2.296875 0-4.476563-1.164063-5.746094-3.148437l-34.453125-53.800782-25.488281 31.859375c-1.371094 1.722657-3.464844 2.683594-5.683594 2.550781-2.195313-.109374-4.203125-1.273437-5.386719-3.125l-64.988281-101.085937-64.984375 101.085937c-1.1875 1.851563-3.195312 3.015626-5.386719 3.125-2.160156.113282-4.3125-.828124-5.6875-2.550781l-25.488281-31.859375-32.074219 50.085938c-1.503906 2.359375-4.304687 3.585937-7.050781 3.019531-2.753906-.535156-4.894531-2.699219-5.40625-5.453125-14.253906-76.777344 31.71875-150.644531 106.945312-171.8125 79.691407-22.417969 162.820313 24.164062 185.261719 103.878906 6.640625 23.609375 7.414063 47.777344 2.300781 71.824219-.582031 2.710937-2.734374 4.800781-5.460937 5.296875-.410156.074219-.816406.109375-1.222656.109375zm-39.585938-75.472656c.121094 0 .242188.003906.359375.011719 2.195313.113281 4.199219 1.28125 5.386719 3.136718l29.753906 46.457032c1.300781-16-.257812-31.96875-4.679687-47.660157-20.394532-72.476562-95.960938-114.816406-168.421875-94.441406-62.304688 17.535156-102.539063 74.84375-99.390625 137.683594l26.925781-42.039063c1.1875-1.855468 3.191406-3.023437 5.386719-3.136718 2.167968-.109376 4.320312.832031 5.691406 2.550781l25.496094 31.875 65.59375-102.023438c2.507812-3.914062 8.972656-3.914062 11.480468 0l65.59375 102.023438 25.496094-31.875c1.296875-1.628907 3.261719-2.5625 5.328125-2.5625zm0 0" fill="#4c241d"/><path d="m295.585938 330.78125c-17.820313 0-32.320313-14.5-32.320313-32.320312 0-3.773438 3.054687-6.828126 6.828125-6.828126s6.824219 3.054688 6.824219 6.828126c0 10.292968 8.375 18.664062 18.667969 18.664062 10.292968 0 18.667968-8.371094 18.667968-18.664062 0-3.773438 3.054688-6.828126 6.828125-6.828126 3.773438 0 6.824219 3.054688 6.824219 6.828126 0 17.820312-14.5 32.320312-32.320312 32.320312zm0 0" fill="#4c241d"/><path d="m159.054688 330.78125c-17.820313 0-32.324219-14.5-32.324219-32.320312 0-3.773438 3.054687-6.828126 6.828125-6.828126 3.773437 0 6.828125 3.054688 6.828125 6.828126 0 10.292968 8.371093 18.664062 18.667969 18.664062 10.292968 0 18.664062-8.371094 18.664062-18.664062 0-3.773438 3.054688-6.828126 6.828125-6.828126s6.828125 3.054688 6.828125 6.828126c0 17.820312-14.503906 32.320312-32.320312 32.320312zm0 0" fill="#4c241d"/><path d="m244.386719 382.886719c-3.773438 0-6.828125-3.058594-6.828125-6.828125 0-3.769532 3.054687-6.824219 6.828125-6.824219 5.648437 0 10.238281-4.59375 10.238281-10.242187 0-3.769532 3.054688-6.824219 6.828125-6.824219s6.828125 3.054687 6.828125 6.824219c0 13.175781-10.722656 23.894531-23.894531 23.894531zm0 0" fill="#4c241d"/><path d="m38.175781 34.726562c0 4.875-3.953125 8.828126-8.828125 8.828126-4.878906 0-8.832031-3.953126-8.832031-8.828126s3.953125-8.828124 8.832031-8.828124c4.875 0 8.828125 3.953124 8.828125 8.828124zm0 0" fill="#4c241d"/><path d="m413.640625 157.605469c0 4.875-3.953125 8.828125-8.828125 8.828125s-8.828125-3.953125-8.828125-8.828125 3.953125-8.828125 8.828125-8.828125 8.828125 3.953125 8.828125 8.828125zm0 0" fill="#4c241d"/></svg>