<svg height="415pt" viewBox="0 -1 415.1783 415" width="415pt" xmlns="http://www.w3.org/2000/svg"><path d="m315.769531 256.089844c0 84.832031-68.769531 153.597656-153.597656 153.597656-84.832031 0-153.601563-68.765625-153.601563-153.597656 0-84.832032 68.769532-153.601563 153.601563-153.601563 84.828125 0 153.597656 68.769531 153.597656 153.601563zm0 0" fill="#c1dbdc"/><path d="m227.820312 111.953125c80.78125 0 146.269532 66.0625 146.269532 147.550781h-292.539063c0-81.488281 65.488281-147.550781 146.269531-147.550781zm0 0" fill="#fc8c29"/><path d="m374.089844 266.328125h-292.539063c-3.773437 0-6.828125-3.054687-6.828125-6.824219 0-85.125 68.679688-154.375 153.097656-154.375 84.414063 0 153.09375 69.25 153.09375 154.375.003907 3.769532-3.050781 6.824219-6.824218 6.824219zm-285.554688-13.652344h278.566406c-3.539062-74.4375-64.660156-133.894531-139.277343-133.894531-74.628907 0-135.75 59.457031-139.289063 133.894531zm0 0" fill="#4c241d"/><path d="m107.652344 343.652344c-16.453125-23.867188-26.101563-52.871094-26.101563-84.148438h292.539063c0 81.488282-65.488282 147.546875-146.269532 147.546875-25.390624 0-49.269531-6.523437-70.082031-18.003906" fill="#fff"/><path d="m227.820312 413.878906c-25.652343 0-51.023437-6.519531-73.378906-18.855468-3.300781-1.820313-4.5-5.972657-2.679687-9.273438 1.820312-3.300781 5.972656-4.5 9.28125-2.679688 20.339843 11.21875 43.433593 17.152344 66.78125 17.152344 74.621093 0 135.738281-59.457031 139.277343-133.890625h-278.566406c1.246094 26.425781 9.742188 51.6875 24.742188 73.441407 2.136718 3.101562 1.359375 7.359374-1.746094 9.496093-3.101562 2.136719-7.355469 1.355469-9.492188-1.742187-17.867187-25.910156-27.316406-56.347656-27.316406-88.023438 0-3.769531 3.054688-6.828125 6.828125-6.828125h292.539063c3.773437 0 6.828125 3.058594 6.828125 6.828125 0 85.121094-68.683594 154.375-153.097657 154.375zm0 0" fill="#4c241d"/><path d="m135.988281 381.1875c-1.511719 0-3.039062-.5-4.304687-1.535156-3.480469-2.835938-6.90625-5.886719-10.1875-9.074219-2.699219-2.628906-2.757813-6.949219-.132813-9.652344 2.632813-2.699219 6.945313-2.765625 9.652344-.132812 2.988281 2.90625 6.113281 5.6875 9.292969 8.277343 2.921875 2.378907 3.359375 6.679688.980468 9.601563-1.347656 1.652344-3.3125 2.515625-5.300781 2.515625zm0 0" fill="#4c241d"/><path d="m274.542969 260.78125c0 25.804688-20.917969 46.726562-46.722657 46.726562-25.804687 0-46.722656-20.921874-46.722656-46.726562s20.917969-46.722656 46.722656-46.722656c25.804688 0 46.722657 20.917968 46.722657 46.722656zm0 0" fill="#edebdc"/><path d="m227.820312 314.332031c-29.523437 0-53.550781-24.023437-53.550781-53.550781s24.027344-53.550781 53.550781-53.550781c29.527344 0 53.546876 24.023437 53.546876 53.550781s-24.019532 53.550781-53.546876 53.550781zm0-93.449219c-22 0-39.898437 17.902344-39.898437 39.902344s17.898437 39.894532 39.898437 39.894532c22.003907 0 39.894532-17.894532 39.894532-39.894532s-17.890625-39.902344-39.894532-39.902344zm0 0" fill="#4c241d"/><path d="m248.160156 260.78125c0 11.234375-9.105468 20.339844-20.339844 20.339844-11.234374 0-20.339843-9.105469-20.339843-20.339844 0-11.230469 9.105469-20.339844 20.339843-20.339844 11.234376 0 20.339844 9.109375 20.339844 20.339844zm0 0" fill="#edebdc"/><g fill="#4c241d"><path d="m227.820312 287.949219c-14.976562 0-27.164062-12.1875-27.164062-27.167969 0-14.976562 12.1875-27.164062 27.164062-27.164062 14.980469 0 27.167969 12.1875 27.167969 27.164062 0 14.980469-12.183593 27.167969-27.167969 27.167969zm0-40.679688c-7.453124 0-13.511718 6.0625-13.511718 13.511719s6.058594 13.515625 13.511718 13.515625c7.453126 0 13.515626-6.066406 13.515626-13.515625s-6.058594-13.511719-13.515626-13.511719zm0 0"/><path d="m363.558594 54.703125c-3.773438 0-6.828125-3.058594-6.828125-6.828125v-20.480469c0-3.769531 3.054687-6.824219 6.828125-6.824219 3.773437 0 6.824218 3.054688 6.824218 6.824219v20.480469c0 3.769531-3.050781 6.828125-6.824218 6.828125zm0 0"/><path d="m363.558594 102.488281c-3.773438 0-6.828125-3.054687-6.828125-6.824219v-20.480468c0-3.769532 3.054687-6.828125 6.828125-6.828125 3.773437 0 6.824218 3.058593 6.824218 6.828125v20.480468c0 3.769532-3.050781 6.824219-6.824218 6.824219zm0 0"/><path d="m349.902344 68.355469h-20.480469c-3.773437 0-6.824219-3.054688-6.824219-6.828125 0-3.769532 3.050782-6.824219 6.824219-6.824219h20.480469c3.773437 0 6.828125 3.054687 6.828125 6.824219 0 3.773437-3.054688 6.828125-6.828125 6.828125zm0 0"/><path d="m397.691406 68.355469h-20.480468c-3.773438 0-6.828126-3.054688-6.828126-6.828125 0-3.769532 3.054688-6.824219 6.828126-6.824219h20.480468c3.773438 0 6.824219 3.054687 6.824219 6.824219 0 3.773437-3.050781 6.828125-6.824219 6.828125zm0 0"/><path d="m21.042969 209.480469c-3.421875 0-6.808594-.84375-9.90625-2.5-4.960938-2.65625-8.585938-7.078125-10.222657-12.460938-1.632812-5.382812-1.066406-11.078125 1.582032-16.039062 2.652344-4.964844 7.085937-8.589844 12.472656-10.21875 5.363281-1.640625 11.066406-1.074219 16.035156 1.582031 4.960938 2.65625 8.585938 7.078125 10.21875 12.460938v.007812c3.363282 11.109375-2.941406 22.886719-14.042968 26.253906-2.023438.609375-4.085938.914063-6.136719.914063zm.039062-28.476563c-.726562 0-1.445312.105469-2.160156.320313-1.890625.574219-3.453125 1.851562-4.386719 3.59375-.933594 1.742187-1.125 3.746093-.550781 5.640625.574219 1.890625 1.847656 3.445312 3.589844 4.378906 1.753906.933594 3.75 1.128906 5.640625.554688 3.902344-1.179688 6.121094-5.320313 4.941406-9.230469-.570312-1.890625-1.84375-3.449219-3.589844-4.378907-1.097656-.582031-2.285156-.878906-3.484375-.878906zm0 0"/><path d="m34.554688 42.203125c-11.613282 0-21.058594-9.445313-21.058594-21.058594 0-11.609375 9.445312-21.0546872 21.058594-21.0546872 11.613281 0 21.0625 9.4453122 21.0625 21.0546872 0 11.613281-9.449219 21.058594-21.0625 21.058594zm0-28.460937c-4.085938 0-7.40625 3.320312-7.40625 7.402343 0 4.085938 3.320312 7.40625 7.40625 7.40625 4.089843 0 7.40625-3.320312 7.40625-7.40625 0-4.082031-3.316407-7.402343-7.40625-7.402343zm0 0"/><path d="m92.242188 93.824219c-1.746094 0-3.492188-.664063-4.824219-2-2.667969-2.664063-2.667969-6.984375 0-9.652344l20.125-20.125c2.664062-2.667969 6.988281-2.667969 9.652343 0 2.667969 2.664063 2.667969 6.988281 0 9.652344l-20.125 20.125c-1.332031 1.335937-3.078124 2-4.828124 2zm0 0"/><path d="m112.371094 93.824219c-1.746094 0-3.496094-.664063-4.828125-2l-20.125-20.125c-2.667969-2.664063-2.667969-6.988281 0-9.652344 2.664062-2.667969 6.984375-2.667969 9.652343 0l20.125 20.125c2.667969 2.667969 2.667969 6.988281 0 9.652344-1.332031 1.335937-3.078124 2-4.824218 2zm0 0"/><path d="m224.03125 33.171875c0 6.289063-5.097656 11.382813-11.386719 11.382813-6.285156 0-11.382812-5.09375-11.382812-11.382813s5.097656-11.386719 11.382812-11.386719c6.289063 0 11.386719 5.097656 11.386719 11.386719zm0 0"/><path d="m415.179688 176.53125c0 6.289062-5.097657 11.386719-11.386719 11.386719-6.289063 0-11.386719-5.097657-11.386719-11.386719s5.097656-11.386719 11.386719-11.386719c6.289062 0 11.386719 5.097657 11.386719 11.386719zm0 0"/></g><path d="m238.136719 163.929688c0 6.113281-4.957031 11.066406-11.070313 11.066406-6.109375 0-11.066406-4.953125-11.066406-11.066406 0-6.113282 4.957031-11.066407 11.066406-11.066407 6.113282 0 11.070313 4.953125 11.070313 11.066407zm0 0" fill="#ffce56"/><path d="m204.589844 154.605469c-1.382813 0-2.773438-.414063-3.988282-1.285157-3.050781-2.207031-3.746093-6.472656-1.546874-9.53125 6.480468-8.988281 16.949218-14.355468 28.015624-14.355468 9.210938 0 17.875 3.589844 24.386719 10.105468 2.664063 2.667969 2.664063 6.992188 0 9.65625-2.667969 2.664063-6.988281 2.664063-9.652343 0-3.941407-3.9375-9.167969-6.109374-14.734376-6.109374-6.6875 0-13.019531 3.246093-16.933593 8.683593-1.332031 1.851563-3.429688 2.835938-5.546875 2.835938zm0 0" fill="#ffce56"/><path d="m227.070312 198.425781c-10.769531 0-20.726562-4.894531-27.3125-13.425781-2.308593-2.984375-1.761718-7.269531 1.226563-9.578125 2.984375-2.3125 7.285156-1.742187 9.570313 1.230469 3.988281 5.160156 10.007812 8.121094 16.515624 8.121094 6.886719 0 13.328126-3.398438 17.210938-9.09375 2.136719-3.121094 6.382812-3.914063 9.496094-1.789063 3.109375 2.125 3.910156 6.371094 1.785156 9.488281-6.441406 9.421875-17.09375 15.046875-28.492188 15.046875zm0 0" fill="#ffce56"/></svg>