<svg height="422pt" viewBox="0 0 422.92661 422" width="422pt" xmlns="http://www.w3.org/2000/svg"><path d="m327.355469 235.984375c0 84.828125-68.769531 153.597656-153.597657 153.597656-84.832031 0-153.601562-68.769531-153.601562-153.597656 0-84.832031 68.769531-153.601563 153.601562-153.601563 84.828126 0 153.597657 68.769532 153.597657 153.601563zm0 0" fill="#c1dbdc"/><g fill="#4c241d"><path d="m320.53125 41.421875c-3.769531 0-6.828125-3.054687-6.828125-6.824219v-20.480468c0-3.769532 3.058594-6.828126 6.828125-6.828126s6.824219 3.058594 6.824219 6.828126v20.480468c0 3.769532-3.054688 6.824219-6.824219 6.824219zm0 0"/><path d="m320.53125 89.210938c-3.769531 0-6.828125-3.058594-6.828125-6.828126v-20.480468c0-3.769532 3.058594-6.824219 6.828125-6.824219s6.824219 3.054687 6.824219 6.824219v20.480468c0 3.769532-3.054688 6.828126-6.824219 6.828126zm0 0"/><path d="m306.875 55.078125h-20.476562c-3.773438 0-6.828126-3.058594-6.828126-6.828125s3.054688-6.828125 6.828126-6.828125h20.476562c3.773438 0 6.828125 3.058594 6.828125 6.828125s-3.054687 6.828125-6.828125 6.828125zm0 0"/><path d="m354.664062 55.078125h-20.480468c-3.769532 0-6.828125-3.058594-6.828125-6.828125s3.058593-6.828125 6.828125-6.828125h20.480468c3.769532 0 6.824219 3.058594 6.824219 6.828125s-3.054687 6.828125-6.824219 6.828125zm0 0"/><path d="m39.453125 339.5625c-3.414063 0-6.800781-.84375-9.902344-2.5-4.960937-2.65625-8.589843-7.082031-10.21875-12.464844-1.632812-5.378906-1.070312-11.078125 1.582031-16.035156 2.652344-4.960938 7.078126-8.589844 12.464844-10.222656 11.109375-3.355469 22.890625 2.933594 26.257813 14.046875 3.367187 11.109375-2.933594 22.890625-14.046875 26.257812-2.019532.613281-4.082032.917969-6.136719.917969zm.023437-28.476562c-.707031 0-1.429687.105468-2.140624.320312-1.894532.574219-3.449219 1.851562-4.382813 3.59375-.929687 1.742188-1.128906 3.746094-.554687 5.640625.574218 1.894531 1.851562 3.449219 3.59375 4.378906 1.742187.9375 3.746093 1.132813 5.640624.558594 3.90625-1.183594 6.117188-5.328125 4.9375-9.234375-.972656-3.195312-3.917968-5.257812-7.09375-5.257812zm0 0"/><path d="m32.492188 42.578125c-11.613282 0-21.058594-9.449219-21.058594-21.058594s9.445312-21.054687 21.058594-21.054687c11.609374 0 21.054687 9.445312 21.054687 21.054687s-9.445313 21.058594-21.054687 21.058594zm0-28.460937c-4.085938 0-7.40625 3.320312-7.40625 7.402343 0 4.085938 3.320312 7.402344 7.40625 7.402344 4.082031 0 7.402343-3.316406 7.402343-7.402344 0-4.082031-3.320312-7.402343-7.402343-7.402343zm0 0"/><path d="m131.136719 66.894531c-1.746094 0-3.492188-.667969-4.824219-2-2.667969-2.667969-2.667969-6.988281 0-9.652343l20.125-20.128907c2.667969-2.664062 6.988281-2.664062 9.652344 0 2.667968 2.667969 2.667968 6.988281 0 9.652344l-20.125 20.128906c-1.332032 1.332031-3.082032 2-4.828125 2zm0 0"/><path d="m151.265625 66.894531c-1.746094 0-3.496094-.667969-4.828125-2l-20.125-20.128906c-2.667969-2.664063-2.667969-6.984375 0-9.652344 2.664062-2.664062 6.984375-2.664062 9.652344 0l20.125 20.128907c2.667968 2.664062 2.667968 6.984374 0 9.652343-1.332032 1.332031-3.078125 2-4.824219 2zm0 0"/><path d="m383.722656 421.878906c-1.742187 0-3.492187-.664062-4.824218-2-2.667969-2.664062-2.667969-6.984375 0-9.652344l20.125-20.125c2.667968-2.667968 6.988281-2.667968 9.652343 0 2.667969 2.664063 2.667969 6.984376 0 9.652344l-20.125 20.125c-1.332031 1.335938-3.082031 2-4.828125 2zm0 0"/><path d="m403.851562 421.878906c-1.746093 0-3.492187-.664062-4.828124-2l-20.125-20.125c-2.667969-2.667968-2.667969-6.988281 0-9.652344 2.664062-2.667968 6.988281-2.667968 9.652343 0l20.125 20.125c2.667969 2.667969 2.667969 6.988282 0 9.652344-1.332031 1.335938-3.078125 2-4.824219 2zm0 0"/><path d="m126.394531 381.707031c0 6.285157-5.097656 11.382813-11.386719 11.382813-6.289062 0-11.386718-5.097656-11.386718-11.382813 0-6.289062 5.097656-11.386719 11.386718-11.386719 6.289063 0 11.386719 5.097657 11.386719 11.386719zm0 0"/></g><path d="m158.003906 277.082031s-89.796875-35.683593-70.859375-130.84375c0 0 8.039063 59.960938 65.695313 65.558594zm0 0" fill="#fc8c29"/><path d="m158.003906 283.90625c-.851562 0-1.707031-.160156-2.519531-.484375-.953125-.375-94.855469-38.929687-75.035156-138.519531.652343-3.273438 3.5-5.773438 6.914062-5.488282 3.335938.105469 6.105469 2.605469 6.550781 5.917969.308594 2.214844 8.144532 54.679688 59.585938 59.671875 3.292969.320313 5.882812 2.957032 6.148438 6.257813l5.160156 65.28125c.183594 2.351562-.855469 4.632812-2.75 6.03125-1.195313.878906-2.617188 1.332031-4.054688 1.332031zm-66.46875-105.507812c2.976563 50.132812 40.164063 76.957031 58.71875 87.292968l-3.785156-47.839844c-29.085938-4.734374-45.660156-22.777343-54.933594-39.453124zm0 0" fill="#4c241d"/><path d="m402.492188 191.996094c8.730468 18.523437 13.613281 39.21875 13.613281 61.054687 0 79.175781-64.183594 143.359375-143.359375 143.359375-79.175782 0-143.359375-64.183594-143.359375-143.359375s64.183593-143.359375 143.359375-143.359375c36.28125 0 69.414062 13.476563 94.667968 35.699219" fill="#fc8c29"/><path d="m272.742188 403.238281c-82.8125 0-150.183594-67.375-150.183594-150.1875s67.371094-150.1875 150.183594-150.1875c36.546874 0 71.773437 13.28125 99.179687 37.40625 2.832031 2.492188 3.105469 6.804688.613281 9.632813-2.484375 2.828125-6.800781 3.113281-9.632812.613281-24.917969-21.921875-56.9375-34-90.160156-34-75.285157 0-136.535157 61.25-136.535157 136.535156 0 75.28125 61.25 136.53125 136.535157 136.53125 75.28125 0 136.53125-61.25 136.53125-136.53125 0-20.332031-4.359376-39.894531-12.960938-58.144531-1.605469-3.410156-.144531-7.476562 3.265625-9.085938 3.40625-1.601562 7.476563-.144531 9.085937 3.265626 9.464844 20.085937 14.261719 41.605468 14.261719 63.964843.003907 82.8125-67.367187 150.1875-150.183593 150.1875zm0 0" fill="#4c241d"/><path d="m101.960938 116.257812c1.933593 24.433594-20.320313 46.121094-20.320313 46.121094s-25.382813-17.921875-27.316406-42.351562c-1.933594-24.429688 20.320312-46.121094 20.320312-46.121094s25.382813 17.921875 27.316407 42.351562zm0 0" fill="#fc8c29"/><path d="m81.636719 169.203125c-1.371094 0-2.746094-.410156-3.933594-1.25-1.144531-.804687-28.027344-20.078125-30.1875-47.390625-2.160156-27.304688 21.359375-50.570312 22.363281-51.546875 2.347656-2.292969 6.015625-2.589844 8.703125-.683594 1.140625.804688 28.023438 20.078125 30.1875 47.390625 2.160157 27.308594-21.363281 50.570313-22.363281 51.546875-1.316406 1.277344-3.035156 1.933594-4.769531 1.933594zm-6.234375-85.894531c-5.734375 7.019531-15.453125 21.285156-14.269532 36.175781 1.171876 14.890625 12.996094 27.441406 19.765626 33.476563 5.734374-7.023438 15.4375-21.277344 14.257812-36.164063-1.1875-14.96875-12.996094-27.480469-19.753906-33.488281zm0 0" fill="#4c241d"/><path d="m36.183594 161c22.011718 10.773438 50.359375-1.957031 50.359375-1.957031s-7.34375-30.195313-29.355469-40.964844c-22.015625-10.773437-50.359375 1.957031-50.359375 1.957031s7.34375 30.195313 29.355469 40.964844zm0 0" fill="#ffce56"/><path d="m56.601562 172.152344c-7.664062 0-15.8125-1.300782-23.417968-5.019532-24.605469-12.039062-32.660156-44.121093-32.988282-45.480468-.777343-3.195313.835938-6.496094 3.835938-7.839844 1.277344-.574219 31.546875-13.902344 56.15625-1.867188 24.605469 12.042969 32.660156 44.125 32.988281 45.484376.777344 3.199218-.835937 6.496093-3.835937 7.839843-.882813.398438-15.605469 6.882813-32.738282 6.882813zm-41.292968-47.980469c3.121094 8.507813 10.457031 24.132813 23.875 30.695313 13.488281 6.609374 30.269531 2.804687 38.878906.039062-3.121094-8.507812-10.457031-24.132812-23.875-30.699219-13.488281-6.597656-30.269531-2.804687-38.878906-.035156zm0 0" fill="#4c241d"/><path d="m139.925781 152.796875c-20.046875 14.097656-50.042969 5.980469-50.042969 5.980469s2.507813-30.972656 22.550782-45.070313c20.046875-14.097656 50.042968-5.984375 50.042968-5.984375s-2.503906 30.976563-22.550781 45.074219zm0 0" fill="#ffce56"/><path d="m109.488281 167.929688c-11.65625 0-20.683593-2.375-21.386719-2.5625-3.175781-.859376-5.289062-3.859376-5.019531-7.140626.113281-1.398437 3.019531-34.34375 25.429688-50.101562 22.398437-15.765625 54.398437-7.355469 55.75-6.992188 3.175781.859376 5.285156 3.859376 5.019531 7.140626-.113281 1.394531-3.023438 34.347656-25.425781 50.105468-10.730469 7.546875-23.660157 9.550782-34.367188 9.550782zm-11.894531-14.589844c8.960938 1.371094 26.1875 2.464844 38.40625-6.128906 12.28125-8.636719 17.039062-25.171876 18.765625-34.050782-8.960937-1.363281-26.183594-2.460937-38.402344 6.128906-12.28125 8.640626-17.042969 25.175782-18.769531 34.050782zm42.332031-.542969h.066407zm0 0" fill="#4c241d"/><path d="m261.546875 334.152344c-1.027344 0-2.066406-.230469-3.046875-.722656l-10.363281-5.1875c-3.375-1.6875-4.742188-5.789063-3.054688-9.15625 1.6875-3.375 5.789063-4.738282 9.160157-3.054688l10.367187 5.1875c3.371094 1.6875 4.738281 5.789062 3.050781 9.160156-1.195312 2.390625-3.609375 3.773438-6.113281 3.773438zm0 0" fill="#4c241d"/><path d="m283.941406 334.152344c-2.507812 0-4.917968-1.382813-6.113281-3.773438-1.6875-3.371094-.320313-7.472656 3.050781-9.160156l10.367188-5.1875c3.371094-1.683594 7.472656-.320312 9.160156 3.054688 1.6875 3.367187.320312 7.46875-3.054688 9.15625l-10.363281 5.1875c-.980469.492187-2.019531.722656-3.046875.722656zm0 0" fill="#4c241d"/><path d="m392.109375 180.441406c-2.203125 0-4.367187-1.066406-5.683594-3.039062-2.5625-3.839844-5.351562-7.59375-8.296875-11.164063-2.398437-2.90625-1.988281-7.210937.921875-9.613281 2.910157-2.394531 7.21875-1.984375 9.609375.925781 3.238282 3.921875 6.308594 8.054688 9.125 12.277344 2.089844 3.136719 1.246094 7.378906-1.890625 9.46875-1.167969.777344-2.484375 1.144531-3.785156 1.144531zm0 0" fill="#4c241d"/><path d="m384.851562 249.421875c-2.546874-18.191406-10.574218-34.882813-23.878906-50.132813-6.234375-7.144531-15.429687-11.082031-24.914062-11.082031h-.617188c-9.882812 0-18.761718 4.109375-25.117187 10.671875 28.808593 3.398438 51.167969 27.863282 51.167969 57.585938 0 15.933594-6.433594 30.363281-16.832032 40.847656 24.707032-1.074219 43.652344-23.140625 40.191406-47.890625zm0 0" fill="#fff"/><path d="m344.660156 304.140625c-2.691406 0-5.148437-1.585937-6.242187-4.0625-1.136719-2.570313-.585938-5.574219 1.394531-7.570313 9.578125-9.660156 14.851562-22.460937 14.851562-36.042968 0-25.925782-19.40625-47.769532-45.140624-50.808594-2.582032-.304688-4.757813-2.046875-5.632813-4.492188-.871094-2.445312-.277344-5.175781 1.527344-7.039062 7.96875-8.222656 18.632812-12.75 30.023437-12.75 12.273438 0 23.230469 4.894531 30.671875 13.425781 14.214844 16.289063 22.792969 34.347657 25.496094 53.671875 1.894531 13.53125-2.054687 27.34375-10.835937 37.886719-8.898438 10.691406-21.953126 17.167969-35.816407 17.769531-.101562.007813-.199219.011719-.296875.011719zm-17.199218-107.917969c24.140624 9.597656 40.855468 33.160156 40.855468 60.242188 0 10.097656-2.300781 19.855468-6.652344 28.664062 3.222657-2.003906 6.144532-4.523437 8.617188-7.5 6.417969-7.710937 9.191406-17.390625 7.808594-27.261718-2.332032-16.65625-9.824219-32.332032-22.261719-46.59375-4.851563-5.558594-12.058594-8.746094-19.769531-8.746094-3.023438.003906-5.902344.410156-8.597656 1.195312zm0 0" fill="#4c241d"/><path d="m310.324219 198.878906c-6.085938 6.277344-9.867188 14.796875-9.867188 24.222656v31.972657c0 23.382812 18.957031 42.339843 42.339844 42.339843.628906 0 1.238281-.074218 1.863281-.101562 10.398438-10.488281 16.828125-24.914062 16.828125-40.847656 0-29.722656-22.355469-54.1875-51.164062-57.585938zm0 0" fill="#9dc1e4"/><path d="m342.796875 304.242188c-27.109375 0-49.167969-22.054688-49.167969-49.167969v-31.972657c0-10.839843 4.1875-21.132812 11.789063-28.976562 1.484375-1.527344 3.609375-2.253906 5.703125-2.027344 32.609375 3.847656 57.195312 31.519532 57.195312 64.367188 0 17.203125-6.679687 33.421875-18.808594 45.65625-1.210937 1.21875-2.835937 1.9375-4.554687 2.011718-1.058594.078126-1.601563.109376-2.15625.109376zm-29.78125-98.050782c-3.714844 4.871094-5.730469 10.761719-5.730469 16.910156v31.972657c0 19.195312 15.304688 34.882812 34.351563 35.496093 8.421875-9.402343 13.027343-21.414062 13.027343-34.105468 0-24.742188-17.667968-45.761719-41.648437-50.273438zm0 0" fill="#4c241d"/><path d="m354.664062 218.917969c0 7.539062-6.113281 13.652343-13.652343 13.652343-7.542969 0-13.65625-6.113281-13.65625-13.652343 0-7.542969 6.113281-13.65625 13.65625-13.65625 7.539062 0 13.652343 6.113281 13.652343 13.65625zm0 0" fill="#fff"/><path d="m160.636719 249.421875c2.546875-18.191406 10.574219-34.882813 23.878906-50.132813 6.234375-7.144531 15.429687-11.082031 24.914063-11.082031h.617187c9.882813 0 18.761719 4.109375 25.117187 10.671875-28.808593 3.398438-51.167968 27.863282-51.167968 57.585938 0 15.933594 6.433594 30.363281 16.832031 40.847656-24.707031-1.074219-43.652344-23.140625-40.191406-47.890625zm0 0" fill="#fff"/><path d="m200.828125 304.140625c-.097656 0-.195313-.003906-.296875-.007813-13.863281-.601562-26.917969-7.078124-35.816406-17.769531-8.78125-10.546875-12.730469-24.355469-10.835938-37.886719 2.703125-19.320312 11.28125-37.378906 25.496094-53.671874 7.4375-8.53125 18.394531-13.425782 30.058594-13.425782 12.003906 0 22.664062 4.527344 30.632812 12.75 1.808594 1.863282 2.398438 4.59375 1.527344 7.035156-.871094 2.449219-3.050781 4.191407-5.632812 4.496094-25.734376 3.035156-45.140626 24.878906-45.140626 50.804688 0 13.585937 5.273438 26.386718 14.851563 36.046875 1.980469 1.996093 2.53125 5 1.394531 7.570312-1.09375 2.472657-3.546875 4.058594-6.238281 4.058594zm-33.429687-53.769531c-1.382813 9.867187 1.390624 19.550781 7.808593 27.261718 2.472657 2.972657 5.394531 5.496094 8.617188 7.5-4.355469-8.8125-6.652344-18.566406-6.652344-28.667968 0-27.105469 16.746094-50.691406 40.925781-60.265625-2.578125-.769531-5.28125-1.167969-8.046875-1.167969-8.332031 0-15.539062 3.1875-20.386719 8.746094-12.441406 14.261718-19.933593 29.941406-22.265624 46.59375zm0 0" fill="#4c241d"/><path d="m235.164062 198.878906c6.085938 6.277344 9.863282 14.796875 9.863282 24.222656v31.972657c0 23.382812-18.953125 42.339843-42.335938 42.339843-.632812 0-1.242187-.074218-1.863281-.101562-10.398437-10.488281-16.832031-24.914062-16.832031-40.847656 0-29.722656 22.363281-54.1875 51.167968-57.585938zm0 0" fill="#9dc1e4"/><path d="m202.691406 304.238281c-.550781 0-1.09375-.03125-1.632812-.070312-1.71875-.074219-3.867188-.828125-5.078125-2.046875-12.128907-12.234375-18.808594-28.453125-18.808594-45.65625 0-32.847656 24.585937-60.519532 57.195313-64.367188 2.117187-.230468 4.222656.5 5.703124 2.027344 7.601563 7.84375 11.789063 18.136719 11.789063 28.976562v31.972657c-.003906 27.113281-22.058594 49.164062-49.167969 49.164062zm29.78125-98.046875c-23.976562 4.511719-41.648437 25.53125-41.648437 50.273438 0 12.664062 4.589843 24.65625 12.976562 34.046875 19.386719-.855469 34.40625-16.425781 34.40625-35.4375v-31.972657c-.003906-6.148437-2.019531-12.039062-5.734375-16.910156zm0 0" fill="#4c241d"/><path d="m218.128906 218.917969c0 7.539062-6.113281 13.652343-13.652344 13.652343-7.539062 0-13.652343-6.113281-13.652343-13.652343 0-7.542969 6.113281-13.65625 13.652343-13.65625 7.539063 0 13.652344 6.113281 13.652344 13.65625zm0 0" fill="#fff"/></svg>