<svg height="411pt" viewBox="-2 0 411 411.77771" width="411pt" xmlns="http://www.w3.org/2000/svg"><path d="m336.796875 244.539062c0 84.832032-68.769531 153.601563-153.601563 153.601563-84.832031 0-153.601562-68.769531-153.601562-153.601563 0-84.832031 68.769531-153.597656 153.601562-153.597656 84.832032 0 153.601563 68.765625 153.601563 153.597656zm0 0" fill="#c1dbdc"/><g fill="#4c241d"><path d="m400.429688 49.980469h-21.796876c-3.773437 0-6.824218-3.058594-6.824218-6.828125 0-3.769532 3.050781-6.824219 6.824218-6.824219h21.796876c3.773437 0 6.824218 3.054687 6.824218 6.824219 0 3.769531-3.050781 6.828125-6.824218 6.828125zm0 0"/><path d="m349.566406 49.980469h-21.792968c-3.773438 0-6.828126-3.058594-6.828126-6.828125 0-3.769532 3.054688-6.824219 6.828126-6.824219h21.792968c3.773438 0 6.828125 3.054687 6.828125 6.824219 0 3.769531-3.054687 6.828125-6.828125 6.828125zm0 0"/><path d="m364.101562 35.449219c-3.773437 0-6.828124-3.054688-6.828124-6.824219v-21.796875c0-3.773437 3.054687-6.828125 6.828124-6.828125 3.773438 0 6.828126 3.054688 6.828126 6.828125v21.792969c0 3.773437-3.054688 6.828125-6.828126 6.828125zm0 0"/><path d="m364.101562 86.308594c-3.773437 0-6.828124-3.058594-6.828124-6.828125v-21.796875c0-3.769532 3.054687-6.828125 6.828124-6.828125 3.773438 0 6.828126 3.058593 6.828126 6.828125v21.796875c0 3.769531-3.054688 6.828125-6.828126 6.828125zm0 0"/><path d="m48.894531 402.730469c-3.417969 0-6.804687-.84375-9.90625-2.5-4.960937-2.652344-8.585937-7.074219-10.21875-12.460938-1.632812-5.382812-1.066406-11.078125 1.578125-16.039062 2.65625-4.960938 7.085938-8.589844 12.476563-10.21875 5.359375-1.644531 11.070312-1.070313 16.035156 1.582031 4.960937 2.65625 8.585937 7.078125 10.21875 12.460938v.007812c3.359375 11.109375-2.941406 22.886719-14.046875 26.253906-2.023438.609375-4.082031.914063-6.136719.914063zm.039063-28.476563c-.726563 0-1.445313.105469-2.160156.320313-1.890626.574219-3.453126 1.851562-4.386719 3.59375-.933594 1.742187-1.125 3.746093-.550781 5.640625.574218 1.890625 1.847656 3.449218 3.59375 4.378906 1.75.9375 3.75 1.128906 5.636718.558594 3.902344-1.183594 6.121094-5.324219 4.941406-9.234375-.570312-1.890625-1.84375-3.449219-3.589843-4.378907-1.09375-.582031-2.28125-.878906-3.484375-.878906zm0 0"/><path d="m21.449219 44.308594c-11.613281 0-21.058594-9.449219-21.058594-21.058594s9.445313-21.058594 21.058594-21.058594 21.058593 9.449219 21.058593 21.058594-9.445312 21.058594-21.058593 21.058594zm0-28.460938c-4.085938 0-7.40625 3.316406-7.40625 7.402344 0 4.082031 3.320312 7.402344 7.40625 7.402344 4.085937 0 7.40625-3.320313 7.40625-7.402344 0-4.085938-3.320313-7.402344-7.40625-7.402344zm0 0"/><path d="m85.960938 95.929688c-1.746094 0-3.492188-.667969-4.828126-2-2.664062-2.664063-2.664062-6.988282 0-9.652344l20.128907-20.128906c2.664062-2.664063 6.988281-2.664063 9.652343 0 2.667969 2.667968 2.667969 6.988281 0 9.65625l-20.125 20.125c-1.335937 1.335937-3.082031 2-4.828124 2zm0 0"/><path d="m106.085938 95.929688c-1.742188 0-3.492188-.667969-4.824219-2l-20.128907-20.125c-2.664062-2.667969-2.664062-6.988282 0-9.65625 2.667969-2.664063 6.988282-2.664063 9.65625 0l20.125 20.128906c2.667969 2.664062 2.667969 6.988281 0 9.652344-1.332031 1.335937-3.078124 2-4.828124 2zm0 0"/></g><path d="m22.382812 211.488281-9.871093 73.742188 28.148437-3.679688 8.050782-60.160156zm0 0" fill="#9dc1e4"/><path d="m12.507812 292.058594c-1.800781 0-3.546874-.714844-4.832031-2.007813-1.5-1.503906-2.214843-3.621093-1.933593-5.726562l9.871093-73.742188c.273438-2.0625 1.480469-3.882812 3.261719-4.953125 1.785156-1.066406 3.957031-1.261718 5.914062-.53125l26.324219 9.90625c2.972657 1.121094 4.78125 4.144532 4.363281 7.296875l-8.046874 60.160157c-.40625 3.054687-2.820313 5.460937-5.882813 5.863281l-28.152344 3.675781c-.300781.039062-.59375.058594-.886719.058594zm15.5-71.160156-7.554687 56.410156 14.132813-1.84375 6.636718-49.59375zm0 0" fill="#4c241d"/><path d="m40.660156 281.550781 76.402344-9.984375 3.117188-23.285156-71.46875-26.890625zm0 0" fill="#fff"/><path d="m40.660156 288.378906c-1.800781 0-3.546875-.710937-4.832031-2.003906-1.5-1.503906-2.214844-3.621094-1.933594-5.726562l8.046875-60.160157c.273438-2.0625 1.480469-3.882812 3.257813-4.953125 1.789062-1.066406 3.96875-1.265625 5.914062-.53125l71.476563 26.886719c2.972656 1.121094 4.777344 4.148437 4.359375 7.296875l-3.121094 23.285156c-.414063 3.0625-2.820313 5.464844-5.878906 5.867188l-76.402344 9.984375c-.296875.035156-.59375.054687-.886719.054687zm13.675782-57.574218-5.726563 42.828124 62.378906-8.152343 1.707031-12.722657zm0 0" fill="#4c241d"/><path d="m71.480469 140.644531-63.109375 63.109375 29.511718 16.988282 51.480469-51.484376zm0 0" fill="#9dc1e4"/><path d="m37.882812 227.570312c-1.167968 0-2.339843-.296874-3.40625-.910156l-29.515624-16.992187c-1.839844-1.058594-3.078126-2.917969-3.359376-5.023438-.277343-2.101562.441407-4.21875 1.941407-5.71875l63.113281-63.109375c1.472656-1.472656 3.550781-2.195312 5.597656-1.957031 2.066406.238281 3.914063 1.402344 5.015625 3.167969l17.878907 28.617187c1.6875 2.691407 1.289062 6.195313-.957032 8.441407l-51.480468 51.484374c-1.316407 1.316407-3.0625 2-4.828126 2zm-18.386718-25.289062 17.257812 9.9375 43.941406-43.945312-10.453124-16.734376zm0 0" fill="#4c241d"/><path d="m37.882812 220.742188 80.097657 46.117187 19.929687-19.925781-48.546875-77.675782zm0 0" fill="#fff"/><path d="m117.980469 273.6875c-1.167969 0-2.339844-.296875-3.40625-.910156l-80.101563-46.113282c-1.839844-1.0625-3.078125-2.917968-3.359375-5.019531-.277343-2.109375.441407-4.226562 1.941407-5.726562l51.480468-51.480469c1.464844-1.472656 3.5-2.207031 5.597656-1.957031 2.066407.238281 3.914063 1.398437 5.015626 3.164062l48.546874 77.671875c1.683594 2.691406 1.285157 6.195313-.960937 8.441406l-19.925781 19.929688c-1.3125 1.316406-3.0625 2-4.828125 2zm-68.972657-54.417969 67.847657 39.066407 12.386719-12.390626-41.121094-65.789062zm0 0" fill="#4c241d"/><path d="m184.316406 390.023438c18.375 9.128906 38.746094 14.359374 59.792969 14.925781 38.074219.019531 85.859375-13.632813 113.570313-50.914063 13.210937-15.648437 23.261718-34.386718 28.886718-55.484375 9.152344-34.308593 4.964844-68.988281-9.238281-98.691406-.015625-1.34375-41.265625-90.867187-76.375-141.269531-5.183594-7.4375-16.410156-6.730469-20.777344 1.210937l-32.128906 58.449219-32.125-58.449219c-4.367187-7.945312-15.59375-8.648437-20.777344-1.210937-35.109375 50.398437-76.359375 139.921875-76.375 141.269531-14.207031 29.703125-18.390625 64.382813-9.242187 98.691406 5.628906 21.097657 15.679687 39.835938 28.886718 55.480469" fill="#fff"/><path d="m244.164062 411.777344c-.023437 0-.035156 0-.054687 0-21.746094-.585938-43.414063-5.992188-62.832031-15.640625-3.375-1.675781-4.753906-5.773438-3.074219-9.148438s5.753906-4.765625 9.152344-3.078125c17.652343 8.773438 37.339843 13.6875 56.941406 14.21875h.03125c16.816406 0 74.65625-3.476562 107.875-48.167968 13.273437-15.746094 22.53125-33.527344 27.773437-53.167969 8.339844-31.296875 5.210938-64.675781-8.808593-93.988281-.160157-.34375-.292969-.695313-.398438-1.054688-2.8125-7.351562-42.332031-91.769531-75.417969-139.253906-1.523437-2.175782-3.65625-2.332032-4.648437-2.253906-.921875.046874-3.214844.421874-4.546875 2.851562l-32.125 58.445312c-2.402344 4.359376-9.5625 4.359376-11.960938 0l-32.125-58.445312c-1.335937-2.429688-3.628906-2.804688-4.546874-2.851562-.949219-.070313-3.128907.078124-4.648438 2.25-33.085938 47.484374-72.605469 131.90625-75.417969 139.257812-.105469.359375-.242187.710938-.402343 1.054688-14.019532 29.3125-17.144532 62.691406-8.804688 93.984374 5.238281 19.644532 14.492188 37.425782 27.511719 52.84375 2.429687 2.878907 2.066406 7.183594-.816407 9.617188-2.886718 2.433594-7.1875 2.066406-9.621093-.8125-14.320313-16.964844-24.5-36.527344-30.261719-58.128906-9.179688-34.433594-5.746094-71.152344 9.675781-103.398438l.160157.078125c6.28125-16.8125 46.96875-99.515625 76.777343-142.300781 3.761719-5.410156 9.84375-8.410156 16.566407-8.082031 6.667968.351562 12.574218 4.054687 15.789062 9.90625l26.144531 47.5625 26.148438-47.5625c3.210937-5.851563 9.117187-9.554688 15.785156-9.90625 6.679687-.328125 12.800781 2.671875 16.566406 8.085937 29.8125 42.78125 70.5 125.484375 76.78125 142.296875l.160157-.078125c15.417968 32.246094 18.851562 68.964844 9.671874 103.398438-5.757812 21.605468-15.941406 41.160156-30.257812 58.128906-36.75 49.445312-100.097656 53.339844-118.742188 53.339844zm0 0" fill="#4c241d"/><path d="m164.613281 385.023438c-1.371093 0-2.757812-.414063-3.964843-1.273438-4.148438-2.964844-8.171876-6.164062-11.972657-9.507812-2.828125-2.496094-3.101562-6.808594-.605469-9.636719 2.492188-2.828125 6.796876-3.097657 9.632813-.609375 3.453125 3.039062 7.113281 5.949218 10.894531 8.648437 3.066406 2.195313 3.773438 6.457031 1.578125 9.523438-1.332031 1.863281-3.433593 2.855469-5.5625 2.855469zm0 0" fill="#4c241d"/><path d="m341.996094 227.472656c0-20.125-5.382813-36.4375-12.027344-36.4375s-12.027344 16.3125-12.027344 36.4375 5.382813 36.4375 12.027344 36.4375 12.027344-16.3125 12.027344-36.4375zm0 0" fill="#6b4f5b"/><path d="m329.96875 270.738281c-13.027344 0-18.855469-21.730469-18.855469-43.265625s5.828125-43.261718 18.855469-43.261718 18.851562 21.726562 18.851562 43.261718-5.824218 43.265625-18.851562 43.265625zm0-71.683593c-2.234375 3.757812-5.199219 13.660156-5.199219 28.417968 0 14.757813 2.964844 24.660156 5.199219 28.417969 2.234375-3.757813 5.199219-13.660156 5.199219-28.417969 0-14.757812-2.964844-24.660156-5.199219-28.417968zm0 0" fill="#4c241d"/><path d="m211.144531 290.519531c4.082031 13.898438 12.234375 26.582031 24.910157 37.917969 8.757812 7.832031 22.164062 8.457031 31.34375 1.136719 14.441406-11.519531 22.9375-25.097657 26.175781-40.5 2.25-10.691407-6.355469-20.640625-17.277344-20.640625h-48.175781c-11.535156 0-20.226563 11.023437-16.976563 22.085937zm0 0" fill="#6b4f5b"/><path d="m252.535156 341.492188c-7.546875 0-15.121094-2.675782-21.03125-7.96875-13.355468-11.945313-22.410156-25.765626-26.910156-41.074219 0-.003907-.003906-.003907-.003906-.003907-2.121094-7.226562-.714844-14.867187 3.851562-20.96875 4.628906-6.179687 11.984375-9.867187 19.679688-9.867187h48.175781c7.445313 0 14.40625 3.320313 19.113281 9.113281 4.539063 5.597656 6.304688 12.800782 4.84375 19.753906-3.625 17.246094-13.246094 32.195313-28.597656 44.433594-5.519531 4.402344-12.308594 6.582032-19.121094 6.582032zm-34.847656-52.898438c3.773438 12.835938 11.488281 24.53125 22.921875 34.757812 6.355469 5.683594 16.046875 6.066407 22.539063.886719 12.980468-10.355469 20.746093-22.316406 23.746093-36.570312.621094-2.953125-.117187-5.917969-2.09375-8.34375-2.09375-2.585938-5.191406-4.066407-8.503906-4.066407h-48.175781c-3.464844 0-6.660156 1.605469-8.753906 4.402344-1.957032 2.621094-2.570313 5.878906-1.679688 8.933594zm0 0" fill="#4c241d"/><path d="m184.984375 227.472656c0-20.125-5.386719-36.4375-12.03125-36.4375-6.640625 0-12.027344 16.3125-12.027344 36.4375s5.386719 36.4375 12.027344 36.4375c6.644531 0 12.03125-16.3125 12.03125-36.4375zm0 0" fill="#6b4f5b"/><path d="m172.953125 270.738281c-13.023437 0-18.851563-21.730469-18.851563-43.265625s5.828126-43.261718 18.851563-43.261718c13.027344 0 18.855469 21.726562 18.855469 43.261718s-5.828125 43.265625-18.855469 43.265625zm0-71.683593c-2.230469 3.757812-5.199219 13.660156-5.199219 28.417968 0 14.757813 2.96875 24.660156 5.199219 28.417969 2.234375-3.757813 5.203125-13.660156 5.203125-28.417969 0-14.757812-2.96875-24.660156-5.203125-28.417968zm0 0" fill="#4c241d"/><path d="m210.476562 276.617188c3.734376-13.757813 11.785157-25.65625 24.648438-36.882813 9.726562-8.484375 24.3125-8.359375 34.375-.277344 13.882812 11.144531 21.828125 23.558594 24.53125 38.472657 1.679688 9.253906-5.398438 17.808593-14.800781 17.808593h-54.253907c-9.960937 0-17.105468-9.507812-14.5-19.121093zm0 0" fill="#ffce56"/><path d="m279.230469 302.566406h-54.253907c-6.855468 0-13.167968-3.125-17.332031-8.566406-4.203125-5.496094-5.570312-12.480469-3.753906-19.171875 4.039063-14.894531 12.792969-28.058594 26.753906-40.238281 12.125-10.589844 30.257813-10.792969 43.132813-.460938 15.160156 12.175782 23.984375 26.105469 26.980468 42.578125 1.167969 6.429688-.566406 12.992188-4.753906 18.003907-4.167968 4.992187-10.28125 7.855468-16.773437 7.855468zm-62.167969-24.164062c-.6875 2.554687-.175781 5.214844 1.425781 7.300781 1.558594 2.039063 3.925781 3.210937 6.488281 3.210937h54.253907c2.464843 0 4.707031-1.046874 6.292969-2.953124 1.582031-1.894532 2.238281-4.378907 1.792968-6.8125-2.40625-13.28125-9.425781-24.207032-22.085937-34.375-7.707031-6.179688-18.472657-6.136719-25.613281.101562-12.027344 10.496094-19.195313 21.148438-22.554688 33.527344zm0 0" fill="#4c241d"/></svg>