<svg height="419pt" viewBox="-17 0 419 419.86665" width="419pt" xmlns="http://www.w3.org/2000/svg"><path d="m316.359375 238.960938c0 84.828124-68.769531 153.597656-153.601563 153.597656-84.828124 0-153.597656-68.769532-153.597656-153.597656 0-84.832032 68.769532-153.601563 153.597656-153.601563 84.832032 0 153.601563 68.769531 153.601563 153.601563zm0 0" fill="#c1dbdc"/><path d="m336.644531 100.644531c-15.945312 42.523438-69.636719 61.710938-69.636719 61.710938s-27.835937-49.757813-11.890624-92.28125c15.945312-42.523438 47.125-70.152344 69.636718-61.710938 22.511719 8.441407 27.835938 49.757813 11.890625 92.28125zm0 0" fill="#6b4f5b"/><path d="m267.007812 169.179688c-2.414062 0-4.71875-1.285157-5.960937-3.492188-1.199219-2.148438-29.1875-53.035156-12.320313-98.015625 8.09375-21.585937 20.246094-40.292969 34.222657-52.671875 15.132812-13.425781 30.839843-18.039062 44.203125-13.027344 13.367187 5.011719 22.15625 18.820313 24.734375 38.878906 2.386719 18.515626-.757813 40.601563-8.855469 62.191407v-.003907.003907c-16.859375 44.96875-71.410156 64.90625-73.722656 65.734375-.761719.277344-1.535156.402344-2.300782.402344zm49.273438-155.480469c-7.261719 0-15.785156 3.984375-24.28125 11.511719-12.332031 10.933593-23.160156 27.714843-30.484375 47.253906-11.707031 31.210937 2.5 67.621094 8.773437 81.144531 13.613282-6.066406 48.257813-24.15625 59.960938-55.359375v-.007812c7.332031-19.539063 10.203125-39.304688 8.097656-55.652344-1.878906-14.578125-7.707031-24.726563-15.984375-27.832032-1.894531-.710937-3.9375-1.058593-6.082031-1.058593zm0 0" fill="#4c241d"/><path d="m309.636719 108.175781c-12.585938 33.566407-42.351563 53.4375-42.351563 53.4375s-9.359375-34.542969 3.226563-68.109375c12.585937-33.566406 31.546875-57.488281 42.351562-53.4375 10.804688 4.050782 9.363281 34.546875-3.226562 68.109375zm0 0" fill="#e66353"/><path d="m267.289062 168.4375c-.808593 0-1.621093-.136719-2.402343-.433594-2.050781-.773437-3.613281-2.484375-4.183594-4.605468-.40625-1.5-9.789063-37.074219 3.417969-72.292969 6.335937-16.878907 14.460937-32.035157 22.886718-42.664063 12.808594-16.164062 22.433594-16.949218 28.261719-14.769531 17.824219 6.695313 12.894531 44.554687.765625 76.90625-13.207031 35.214844-43.667968 55.847656-44.953125 56.714844-1.140625.761719-2.460937 1.144531-3.792969 1.144531zm42.992188-122.003906c-1.054688 0-5.441406 1.484375-12.574219 10.488281-7.566406 9.550781-14.953125 23.390625-20.800781 38.984375-7.621094 20.308594-6.625 41.179688-4.988281 53.328125 9.234375-8.105469 23.742187-23.21875 31.328125-43.453125 13.378906-35.679688 10.605468-58.054688 7.21875-59.320312-.039063-.023438-.097656-.027344-.183594-.027344zm-.640625 61.746094h.066406zm0 0" fill="#4c241d"/><path d="m37.941406 165.804688c-1.746094 0-3.496094-.667969-4.828125-2-2.664062-2.664063-2.664062-6.988282 0-9.652344l12.453125-12.453125c2.667969-2.667969 6.988282-2.667969 9.65625 0 2.664063 2.664062 2.664063 6.988281 0 9.652343l-12.457031 12.453126c-1.332031 1.335937-3.078125 2-4.824219 2zm0 0" fill="#4c241d"/><path d="m77.625 100.644531c15.945312 42.523438 69.632812 61.710938 69.632812 61.710938s27.835938-49.757813 11.890626-92.28125c-15.945313-42.527344-47.121094-70.152344-69.632813-61.710938-22.515625 8.441407-27.839844 49.757813-11.890625 92.28125zm0 0" fill="#6b4f5b"/><path d="m147.257812 169.179688c-.765624 0-1.539062-.125-2.300781-.398438-2.3125-.828125-56.863281-20.769531-73.722656-65.742188v.007813c0-.007813 0-.007813 0-.007813-8.09375-21.585937-11.242187-43.671874-8.855469-62.183593 2.578125-20.0625 11.367188-33.867188 24.738282-38.882813 13.347656-5 29.0625-.390625 44.199218 13.027344 13.976563 12.382812 26.128906 31.085938 34.222656 52.679688 16.867188 44.976562-11.121093 95.859374-12.320312 98.007812-1.238281 2.207031-3.542969 3.492188-5.960938 3.492188zm-49.269531-155.480469c-2.148437 0-4.1875.347656-6.074219 1.058593-8.289062 3.105469-14.117187 13.253907-15.996093 27.835938-2.105469 16.34375.765625 36.113281 8.101562 55.652344v.007812c11.699219 31.199219 46.347657 49.292969 59.960938 55.359375 6.273437-13.527343 20.480469-49.933593 8.773437-81.140625-7.328125-19.546875-18.15625-36.324218-30.488281-47.257812-8.492187-7.53125-17.019531-11.515625-24.277344-11.515625zm0 0" fill="#4c241d"/><path d="m104.628906 108.175781c12.585938 33.566407 42.351563 53.4375 42.351563 53.4375s9.359375-34.542969-3.226563-68.109375c-12.582031-33.566406-31.546875-57.488281-42.351562-53.4375-10.804688 4.050782-9.359375 34.546875 3.226562 68.109375zm0 0" fill="#e66353"/><g fill="#4c241d"><path d="m146.980469 168.4375c-1.332031 0-2.65625-.386719-3.792969-1.144531-1.289062-.867188-31.75-21.5-44.957031-56.714844-12.125-32.351563-17.058594-70.210937.769531-76.90625 5.816406-2.191406 15.453125-1.398437 28.257812 14.769531 8.429688 10.628906 16.554688 25.785156 22.886719 42.664063 13.207031 35.222656 3.828125 70.792969 3.421875 72.292969-.574218 2.121093-2.132812 3.832031-4.1875 4.605468-.777344.289063-1.59375.433594-2.398437.433594zm-35.960938-62.660156c7.613281 20.3125 22.085938 35.386718 31.308594 43.460937 1.632813-12.179687 2.617187-33.105469-4.96875-53.332031-5.84375-15.59375-13.230469-29.433594-20.800781-38.988281-7.71875-9.738281-12.238282-10.71875-12.757813-10.460938-3.386719 1.269531-6.160156 23.640625 7.21875 59.320313zm0 0"/><path d="m8.886719 194.859375c-1.746094 0-3.492188-.667969-4.828125-2-2.664063-2.664063-2.664063-6.988281 0-9.652344l12.453125-12.453125c2.667969-2.667968 6.988281-2.667968 9.65625 0 2.664062 2.664063 2.664062 6.984375 0 9.652344l-12.453125 12.453125c-1.335938 1.332031-3.082032 2-4.828125 2zm0 0"/><path d="m21.339844 165.804688c-1.746094 0-3.492188-.667969-4.828125-2l-12.453125-12.453126c-2.664063-2.664062-2.664063-6.988281 0-9.652343 2.667968-2.667969 6.988281-2.667969 9.65625 0l12.453125 12.453125c2.664062 2.664062 2.664062 6.988281 0 9.652344-1.335938 1.335937-3.082031 2-4.828125 2zm0 0"/><path d="m50.394531 194.859375c-1.746093 0-3.492187-.667969-4.828125-2l-12.453125-12.453125c-2.664062-2.667969-2.664062-6.988281 0-9.652344 2.667969-2.667968 6.988281-2.667968 9.652344 0l12.457031 12.453125c2.664063 2.664063 2.664063 6.988281 0 9.652344-1.335937 1.332031-3.082031 2-4.828125 2zm0 0"/><path d="m28.460938 397.144531c-3.421876 0-6.808594-.839843-9.90625-2.492187-4.960938-2.652344-8.589844-7.078125-10.222657-12.46875-1.632812-5.378906-1.066406-11.078125 1.582031-16.039063 2.652344-4.957031 7.078126-8.585937 12.46875-10.21875 5.378907-1.640625 11.070313-1.074219 16.039063 1.585938 4.957031 2.65625 8.585937 7.082031 10.21875 12.460937v.007813c3.359375 11.105469-2.941406 22.886719-14.046875 26.253906-2.019531.609375-4.082031.910156-6.132812.910156zm.035156-28.472656c-.722656 0-1.449219.105469-2.15625.324219-1.890625.570312-3.453125 1.851562-4.386719 3.589844-.925781 1.746093-1.125 3.746093-.550781 5.640624.574218 1.894532 1.851562 3.453126 3.589844 4.386719 1.753906.933594 3.753906 1.121094 5.640624.554688 3.902344-1.179688 6.121094-5.328125 4.941407-9.234375-.574219-1.894532-1.851563-3.449219-3.589844-4.378906-1.097656-.589844-2.289063-.882813-3.488281-.882813zm0 0"/><path d="m21.492188 72.859375c-11.613282 0-21.058594-9.445313-21.058594-21.054687 0-11.613282 9.445312-21.058594 21.058594-21.058594 11.617187 0 21.0625 9.445312 21.0625 21.058594 0 11.609374-9.445313 21.054687-21.0625 21.054687zm0-28.460937c-4.085938 0-7.40625 3.320312-7.40625 7.410156 0 4.078125 3.320312 7.398437 7.40625 7.398437 4.089843 0 7.410156-3.320312 7.410156-7.398437 0-4.089844-3.320313-7.410156-7.410156-7.410156zm0 0"/></g><path d="m343.707031 208.625c8.730469 18.523438 13.613281 39.21875 13.613281 61.054688 0 79.175781-64.183593 143.359374-143.359374 143.359374-79.175782 0-143.359376-64.183593-143.359376-143.359374 0-79.175782 64.183594-143.359376 143.359376-143.359376 36.285156 0 69.417968 13.480469 94.671874 35.703126" fill="#bf7e68"/><path d="m213.960938 419.867188c-82.8125 0-150.1875-67.375-150.1875-150.1875s67.375-150.1875 150.1875-150.1875c36.546874 0 71.773437 13.28125 99.179687 37.402343 2.832031 2.492188 3.105469 6.804688.617187 9.632813-2.5 2.832031-6.8125 3.097656-9.632812.621094-24.921875-21.929688-56.941406-34-90.167969-34-75.285156 0-136.53125 61.246093-136.53125 136.53125 0 75.285156 61.246094 136.535156 136.53125 136.535156 75.285157 0 136.535157-61.25 136.535157-136.535156 0-20.339844-4.363282-39.90625-12.960938-58.140626-1.605469-3.410156-.148438-7.480468 3.257812-9.085937 3.414063-1.625 7.488282-.144531 9.085938 3.261719 9.46875 20.074218 14.269531 41.59375 14.269531 63.964844 0 82.8125-67.371093 150.1875-150.183593 150.1875zm0 0" fill="#4c241d"/><path d="m333.328125 197.074219c-2.207031 0-4.375-1.066407-5.6875-3.039063-2.566406-3.847656-5.355469-7.609375-8.292969-11.175781-2.398437-2.90625-1.988281-7.214844.925782-9.605469 2.90625-2.398437 7.21875-1.988281 9.609374.925782 3.234376 3.921874 6.296876 8.054687 9.117188 12.28125 2.097656 3.140624 1.246094 7.371093-1.890625 9.464843-1.167969.773438-2.480469 1.148438-3.78125 1.148438zm0 0" fill="#4c241d"/><path d="m213.960938 296.617188c-8.332032 0-15.085938-6.753907-15.085938-15.082032v-15.085937l14.8125-10.054688 15.355469 10.054688v15.085937c0 8.328125-6.75 15.082032-15.082031 15.082032zm0 0" fill="#e66353"/><path d="m213.960938 303.445312c-12.082032 0-21.914063-9.832031-21.914063-21.914062v-15.078125c0-2.261719 1.117187-4.378906 2.992187-5.648437l14.8125-10.058594c2.273438-1.554688 5.273438-1.566406 7.574219-.066406l15.363281 10.058593c1.925782 1.265625 3.085938 3.414063 3.085938 5.714844v15.078125c0 12.082031-9.835938 21.914062-21.914062 21.914062zm-8.261719-33.378906v11.464844c0 4.554688 3.707031 8.261719 8.261719 8.261719 4.554687 0 8.261718-3.707031 8.261718-8.261719v-11.390625l-8.46875-5.542969zm0 0" fill="#4c241d"/><path d="m275.398438 228.71875c0-11.308594-6.113282-20.480469-13.652344-20.480469-7.539063 0-13.652344 9.171875-13.652344 20.480469 0 11.3125 6.113281 20.480469 13.652344 20.480469 7.539062 0 13.652344-9.167969 13.652344-20.480469zm0 0" fill="#6b4f5b"/><path d="m261.746094 256.027344c-11.484375 0-20.480469-11.992188-20.480469-27.308594 0-15.3125 8.996094-27.304688 20.480469-27.304688s20.480468 11.992188 20.480468 27.304688c0 15.316406-8.992187 27.308594-20.480468 27.308594zm0-40.960938c-2.785156 0-6.828125 5.320313-6.828125 13.652344 0 8.335938 4.042969 13.65625 6.828125 13.65625s6.828125-5.320312 6.828125-13.65625c0-8.332031-4.042969-13.652344-6.828125-13.652344zm0 0" fill="#4c241d"/><path d="m179.828125 228.71875c0-11.308594-6.113281-20.480469-13.65625-20.480469-7.539063 0-13.652344 9.171875-13.652344 20.480469 0 11.3125 6.113281 20.480469 13.652344 20.480469 7.542969 0 13.65625-9.167969 13.65625-20.480469zm0 0" fill="#6b4f5b"/><path d="m166.171875 256.027344c-11.484375 0-20.480469-11.992188-20.480469-27.308594 0-15.3125 8.996094-27.304688 20.480469-27.304688 11.488281 0 20.480469 11.992188 20.480469 27.304688 0 15.316406-8.992188 27.308594-20.480469 27.308594zm0-40.960938c-2.785156 0-6.824219 5.320313-6.824219 13.652344 0 8.335938 4.039063 13.65625 6.824219 13.65625 2.789063 0 6.828125-5.320312 6.828125-13.65625 0-8.332031-4.039062-13.652344-6.828125-13.652344zm0 0" fill="#4c241d"/><path d="m289.054688 211.652344c0 5.65625-4.585938 10.242187-10.242188 10.242187s-10.238281-4.585937-10.238281-10.242187 4.582031-10.238282 10.238281-10.238282 10.242188 4.582032 10.242188 10.238282zm0 0" fill="#fff"/><path d="m159.347656 211.652344c0 5.65625-4.585937 10.242187-10.242187 10.242187s-10.238281-4.585937-10.238281-10.242187 4.582031-10.238282 10.238281-10.238282 10.242187 4.582032 10.242187 10.238282zm0 0" fill="#fff"/><path d="m217.371094 317.464844c-43.046875 0-81.015625 21.578125-103.8125 54.464844 10.949218 10.757812 23.691406 19.636718 37.625 26.460937 14.46875-21.066406 38.707031-34.898437 66.1875-34.898437 26.375 0 49.699218 12.78125 64.328125 32.417968 13.621093-7.359375 25.945312-16.820312 36.484375-27.996094-23.050782-30.585937-59.5625-50.449218-100.8125-50.449218zm0 0" fill="#efefd2"/><path d="m151.179688 405.214844c-1.007813 0-2.03125-.230469-2.992188-.695313-14.808594-7.246093-28.066406-16.574219-39.414062-27.710937-2.367188-2.335938-2.722657-6.035156-.828126-8.761719 24.921876-35.945313 65.828126-57.40625 109.425782-57.40625 42.074218 0 80.800781 19.378906 106.261718 53.164063 2 2.65625 1.792969 6.367187-.484374 8.789062-11.0625 11.738281-23.914063 21.605469-38.207032 29.320312-2.96875 1.609376-6.695312.785157-8.714844-1.929687-14.050781-18.851563-35.507812-29.664063-58.851562-29.664063-24.1875 0-46.828125 11.9375-60.558594 31.933594-1.316406 1.90625-3.445312 2.960938-5.636718 2.960938zm-28.550782-34.128906c7.945313 7.132812 16.832032 13.359374 26.519532 18.582031 16.476562-20.765625 41.558593-33 68.226562-33 25.6875 0 49.425781 11.019531 66.027344 30.433593 9.339844-5.546874 17.945312-12.140624 25.6875-19.679687-22.8125-27.480469-55.921875-43.128906-91.714844-43.128906-37.175781 0-72.167969 17.386719-94.746094 46.792969zm0 0" fill="#4c241d"/><path d="m359.074219 404.375c-1.746094 0-3.492188-.667969-4.828125-2-2.664063-2.667969-2.664063-6.988281 0-9.65625l20.128906-20.117188c2.664062-2.667968 6.984375-2.667968 9.652344 0 2.664062 2.664063 2.664062 6.984376 0 9.652344l-20.125 20.121094c-1.335938 1.332031-3.082032 2-4.828125 2zm0 0" fill="#4c241d"/><path d="m379.199219 404.375c-1.746094 0-3.492188-.667969-4.824219-2l-20.128906-20.121094c-2.664063-2.667968-2.664063-6.988281 0-9.652344 2.667968-2.667968 6.988281-2.667968 9.65625 0l20.125 20.117188c2.664062 2.667969 2.664062 6.988281 0 9.65625-1.332032 1.332031-3.082032 2-4.828125 2zm0 0" fill="#4c241d"/></svg>