<svg height="421pt" viewBox="-8 0 421 421.78731" width="421pt" xmlns="http://www.w3.org/2000/svg"><path d="m307.59375 205.933594c0 84.832031-68.769531 153.601562-153.601562 153.601562-84.828126 0-153.597657-68.769531-153.597657-153.601562 0-84.828125 68.769531-153.597656 153.597657-153.597656 84.832031 0 153.601562 68.769531 153.601562 153.597656zm0 0" fill="#c1dbdc"/><g fill="#4c241d"><path d="m42.828125 30.378906c-1.746094 0-3.496094-.664062-4.828125-2-2.664062-2.664062-2.664062-6.984375 0-9.652344l12.453125-12.453124c2.667969-2.664063 6.988281-2.664063 9.652344 0 2.667969 2.667968 2.667969 6.988281 0 9.652343l-12.453125 12.453125c-1.332032 1.335938-3.078125 2-4.824219 2zm0 0"/><path d="m13.773438 59.433594c-1.746094 0-3.492188-.667969-4.824219-2-2.667969-2.664063-2.667969-6.984375 0-9.652344l12.453125-12.453125c2.664062-2.664063 6.984375-2.664063 9.652344 0 2.664062 2.664063 2.664062 6.988281 0 9.652344l-12.453126 12.453125c-1.335937 1.332031-3.082031 2-4.828124 2zm0 0"/><path d="m26.226562 30.378906c-1.746093 0-3.492187-.664062-4.824218-2l-12.453125-12.453125c-2.667969-2.664062-2.667969-6.984375 0-9.652343 2.664062-2.664063 6.984375-2.664063 9.652343 0l12.453126 12.453124c2.664062 2.667969 2.664062 6.988282 0 9.652344-1.335938 1.335938-3.082032 2-4.828126 2zm0 0"/><path d="m55.28125 59.433594c-1.746094 0-3.496094-.667969-4.828125-2l-12.453125-12.453125c-2.664062-2.664063-2.664062-6.988281 0-9.652344s6.988281-2.664063 9.652344 0l12.453125 12.453125c2.667969 2.667969 2.667969 6.988281 0 9.652344-1.332031 1.332031-3.078125 2-4.824219 2zm0 0"/><path d="m33.34375 418.734375c-3.421875 0-6.804688-.839844-9.90625-2.492187-4.960938-2.65625-8.589844-7.085938-10.21875-12.476563-1.628906-5.371094-1.070312-11.070313 1.585938-16.03125 2.652343-4.964844 7.074218-8.589844 12.457031-10.222656 11.117187-3.351563 22.894531 2.933593 26.261719 14.046875 1.628906 5.378906 1.070312 11.078125-1.582032 16.039062-2.65625 4.960938-7.078125 8.585938-12.460937 10.21875-2.019531.617188-4.082031.917969-6.136719.917969zm.023438-28.472656c-.710938 0-1.429688.105469-2.144532.320312-3.90625 1.1875-6.121094 5.328125-4.9375 9.234375.574219 1.890625 1.851563 3.453125 3.59375 4.386719 1.738282.925781 3.75 1.113281 5.640625.550781 1.886719-.574218 3.445313-1.847656 4.378907-3.589844.929687-1.746093 1.128906-3.746093.554687-5.640624-.964844-3.195313-3.910156-5.261719-7.085937-5.261719zm0 0"/><path d="m374.539062 46.660156c-11.613281 0-21.058593-9.445312-21.058593-21.050781 0-11.613281 9.445312-21.0625 21.058593-21.0625 11.613282 0 21.0625 9.449219 21.0625 21.0625 0 11.605469-9.449218 21.050781-21.0625 21.050781zm0-28.457031c-4.085937 0-7.40625 3.316406-7.40625 7.40625 0 4.078125 3.320313 7.398437 7.40625 7.398437 4.085938 0 7.40625-3.320312 7.40625-7.398437 0-4.089844-3.320312-7.40625-7.40625-7.40625zm0 0"/><path d="m342.78125 73.390625c0 5.082031-4.121094 9.203125-9.203125 9.203125s-9.199219-4.121094-9.199219-9.203125 4.117188-9.203125 9.199219-9.203125 9.203125 4.121094 9.203125 9.203125zm0 0"/><path d="m28.753906 312.324219c0 5.082031-4.117187 9.203125-9.203125 9.203125-5.082031 0-9.199219-4.121094-9.199219-9.203125s4.117188-9.203125 9.199219-9.203125c5.085938 0 9.203125 4.121094 9.203125 9.203125zm0 0"/><path d="m377.613281 398.65625c-1.746093 0-3.492187-.667969-4.828125-2-2.664062-2.667969-2.664062-6.988281 0-9.652344l20.128906-20.121094c2.664063-2.667968 6.988282-2.667968 9.652344 0 2.664063 2.664063 2.664063 6.988282 0 9.652344l-20.125 20.121094c-1.335937 1.332031-3.082031 2-4.828125 2zm0 0"/><path d="m397.738281 398.65625c-1.746093 0-3.492187-.667969-4.824219-2l-20.128906-20.121094c-2.664062-2.664062-2.664062-6.988281 0-9.652344 2.667969-2.667968 6.988282-2.667968 9.65625 0l20.125 20.121094c2.664063 2.664063 2.664063 6.984375 0 9.652344-1.332031 1.332031-3.078125 2-4.828125 2zm0 0"/></g><path d="m219.632812 94.203125 36.808594-39.59375c6.085938-6.550781 8.734375-15.585937 7.148438-24.382813-2.453125-13.609374-14.324219-23.546874-28.148438-23.394531-12.695312.136719-28.441406 3.53125-42.570312 15.894531-29.957032 26.214844-8.039063 70.820313-8.039063 70.820313zm0 0" fill="#b5a19c"/><path d="m219.632812 101.027344c-.039062 0-.085937 0-.125 0l-34.808593-.660156c-2.558594-.046876-4.871094-1.519532-6-3.8125-.988281-2.015626-23.835938-49.648438 9.675781-78.96875 12.925781-11.304688 29.171875-17.386719 46.992188-17.585938h.382812c17.019531 0 31.519531 12.140625 34.558594 29.007812 1.953125 10.859376-1.359375 22.15625-8.867188 30.246094l-36.808594 39.59375c-1.292968 1.394532-3.105468 2.179688-5 2.179688zm-30.261718-14.226563 27.34375.519531 34.726562-37.359374c4.597656-4.953126 6.625-11.878907 5.425782-18.527344-1.859376-10.339844-10.726563-17.777344-21.117188-17.777344-.082031 0-.164062 0-.234375 0-14.722656.160156-27.5625 4.945312-38.152344 14.210938-21.074219 18.433593-12.042969 48.46875-7.992187 58.933593zm0 0" fill="#4c241d"/><path d="m277.039062 383.382812c-23.261718 19.367188-50.632812 31.574219-78.671874 31.574219-74.773438 0-144.792969-86.824219-144.792969-164.648437 0-77.824219 70.019531-164.652344 144.792969-164.652344 74.773437 0 144.792968 86.828125 144.792968 164.652344 0 29.835937-10.292968 61-27.199218 88.085937" fill="#bf7e68"/><path d="m198.367188 421.789062c-81.652344 0-151.617188-94.289062-151.617188-171.484374 0-77.191407 69.964844-171.476563 151.617188-171.476563 81.652343 0 151.621093 94.285156 151.621093 171.480469 0 29.960937-10.027343 62.527344-28.234375 91.699218-1.992187 3.191407-6.222656 4.164063-9.40625 2.179688-3.199218-2-4.171875-6.207031-2.179687-9.40625 16.875-27.035156 26.164062-57.035156 26.164062-84.476562 0-78.171876-69.625-157.824219-137.964843-157.824219-68.335938 0-137.964844 79.652343-137.964844 157.824219 0 78.175781 69.628906 157.828124 137.964844 157.828124 25.039062 0 50.734374-10.371093 74.304687-30 2.894531-2.40625 7.203125-2.011718 9.617187.882813 2.410157 2.894531 2.019532 7.199219-.882812 9.613281-26.054688 21.691406-54.765625 33.160156-83.039062 33.160156zm0 0" fill="#4c241d"/><path d="m55.007812 209.347656c0-79.175781 64.183594-143.359375 143.359376-143.359375 79.175781 0 143.359374 64.183594 143.359374 143.359375zm0 0" fill="#b5a19c"/><path d="m341.726562 216.175781h-286.71875c-3.769531 0-6.828124-3.054687-6.828124-6.828125 0-82.8125 67.375-150.1875 150.1875-150.1875s150.1875 67.375 150.1875 150.1875c0 3.773438-3.054688 6.828125-6.828126 6.828125zm-279.722656-13.652343h272.730469c-3.566406-72.128907-63.375-129.707032-136.367187-129.707032-72.996094 0-132.796876 57.578125-136.363282 129.707032zm0 0" fill="#4c241d"/><path d="m254.636719 199.003906c-25.976563 0-86.5625 0-112.535157 0-33.019531 0-59.785156 31.351563-59.785156 70.023438 0 38.675781 26.765625 70.027344 59.785156 70.027344 25.976563 0 48.019532-19.441407 56.265626-46.550782 8.25 27.109375 30.292968 46.550782 56.269531 46.550782 33.019531 0 59.785156-31.351563 59.785156-70.027344 0-38.671875-26.769531-70.023438-59.785156-70.023438zm0 0" fill="#ffec95"/><path d="m254.632812 345.882812c-23.125 0-44.253906-13.875-56.265624-35.808593-12.011719 21.9375-33.144532 35.808593-56.265626 35.808593-36.730468 0-66.613281-34.472656-66.613281-76.855468 0-42.378906 29.882813-76.851563 66.613281-76.851563h112.53125c36.734376 0 66.613282 34.472657 66.613282 76.851563 0 42.382812-29.878906 76.855468-66.613282 76.855468zm-56.265624-60.203124c3.007812 0 5.652343 1.96875 6.53125 4.839843 7.585937 24.949219 27.574218 41.707031 49.734374 41.707031 29.199219 0 52.960938-28.351562 52.960938-63.199218 0-34.84375-23.761719-63.199219-52.960938-63.199219h-112.53125c-29.203124 0-52.960937 28.355469-52.960937 63.199219 0 34.847656 23.757813 63.199218 52.960937 63.199218 22.15625 0 42.144532-16.757812 49.730469-41.707031.878907-2.871093 3.527344-4.839843 6.535157-4.839843zm0 0" fill="#4c241d"/><path d="m279.851562 262.535156c-3.683593-20.40625-18.703124-34.777344-33.542968-32.097656s-23.886719 21.394531-20.199219 41.800781c3.683594 20.40625 18.703125 34.777344 33.542969 32.097657 14.839844-2.679688 23.886718-21.394532 20.199218-41.800782zm0 0" fill="#ffec95"/><path d="m256.144531 311.460938c-16.867187 0-32.777343-15.992188-36.757812-38.019532-2.03125-11.277344-.714844-22.546875 3.726562-31.734375 4.792969-9.914062 12.59375-16.304687 21.980469-18 18.546875-3.273437 37.132812 13.527344 41.480469 37.601563 2.03125 11.277344.714843 22.546875-3.726563 31.734375-4.792968 9.914062-12.59375 16.304687-21.980468 18-1.574219.277343-3.152344.417969-4.722657.417969zm-6.269531-74.527344c-.789062 0-1.574219.074218-2.355469.214844-4.972656.890624-9.273437 4.625-12.113281 10.5-3.191406 6.605468-4.113281 14.90625-2.578125 23.363281 2.957031 16.390625 14.730469 28.535156 25.613281 26.589843 4.972656-.894531 9.273438-4.628906 12.113282-10.5 3.191406-6.609374 4.113281-14.90625 2.578124-23.367187-2.746093-15.214844-13.054687-26.800781-23.257812-26.800781zm0 0" fill="#4c241d"/><path d="m150.429688 230.414062c-14.84375-2.679687-29.863282 11.691407-33.546876 32.097657-3.683593 20.40625 5.359376 39.121093 20.199219 41.800781 14.84375 2.683594 29.863281-11.6875 33.546875-32.09375 3.683594-20.410156-5.359375-39.125-20.199218-41.804688zm0 0" fill="#ffec95"/><path d="m140.585938 311.460938c-1.566407 0-3.144532-.140626-4.71875-.417969-18.523438-3.347657-30.050782-25.652344-25.707032-49.734375 4.347656-24.074219 22.957032-40.886719 41.476563-37.601563 18.523437 3.347657 30.050781 25.652344 25.707031 49.734375-3.976562 22.027344-19.894531 38.019532-36.757812 38.019532zm-16.988282-47.726563c-2.957031 16.386719 3.773438 31.894531 14.695313 33.867187 10.894531 1.960938 22.65625-10.199218 25.617187-26.585937 2.957032-16.386719-3.773437-31.894531-14.695312-33.867187-10.878906-1.941407-22.652344 10.199218-25.617188 26.585937zm0 0" fill="#4c241d"/><path d="m302.839844 356.929688c-3.507813 4.390624-7.195313 8.617187-11.042969 12.644531" fill="#b5a19c"/><path d="m291.800781 376.402344c-1.695312 0-3.394531-.625-4.714843-1.894532-2.726563-2.597656-2.824219-6.917968-.21875-9.644531 3.671874-3.855469 7.253906-7.953125 10.636718-12.195312 2.355469-2.941407 6.640625-3.425781 9.59375-1.074219 2.949219 2.347656 3.429688 6.648438 1.074219 9.59375-3.632813 4.554688-7.480469 8.960938-11.4375 13.101562-1.339844 1.40625-3.132813 2.113282-4.933594 2.113282zm0 0" fill="#4c241d"/><path d="m351.96875 236.65625h-307.203125c-13.195313 0-23.890625-10.699219-23.890625-23.894531 0-13.195313 10.695312-23.894531 23.890625-23.894531h307.203125c13.195312 0 23.890625 10.699218 23.890625 23.894531 0 13.195312-10.695313 23.894531-23.890625 23.894531zm0 0" fill="#b5a19c"/><path d="m351.96875 243.480469h-307.203125c-16.9375 0-30.71875-13.777344-30.71875-30.71875 0-16.941407 13.78125-30.71875 30.71875-30.71875h307.203125c16.9375 0 30.71875 13.777343 30.71875 30.71875 0 16.941406-13.78125 30.71875-30.71875 30.71875zm-307.203125-47.785157c-9.410156 0-17.066406 7.652344-17.066406 17.066407 0 9.414062 7.65625 17.066406 17.066406 17.066406h307.203125c9.414062 0 17.066406-7.652344 17.066406-17.066406 0-9.414063-7.652344-17.066407-17.066406-17.066407zm0 0" fill="#4c241d"/><path d="m324.152344 155.15625h-252.644532c-3.769531 0-6.828124-3.054688-6.828124-6.828125s3.058593-6.828125 6.828124-6.828125h252.644532c3.773437 0 6.828125 3.054688 6.828125 6.828125s-3.054688 6.828125-6.828125 6.828125zm0 0" fill="#4c241d"/><path d="m109.621094 106.949219c-3.765625 0-6.824219-3.054688-6.828125-6.820313-.003907-3.773437 3.050781-6.828125 6.820312-6.832031l177.332031-.164063h.007813c3.765625 0 6.820313 3.054688 6.828125 6.820313.003906 3.773437-3.054688 6.828125-6.820312 6.835937l-177.332032.160157c-.003906 0-.003906 0-.007812 0zm0 0" fill="#4c241d"/></svg>