<svg height="404pt" viewBox="0 -6 404.66088 404" width="404pt" xmlns="http://www.w3.org/2000/svg"><path d="m323.316406 214.984375c0 84.832031-68.769531 153.597656-153.597656 153.597656-84.832031 0-153.601562-68.765625-153.601562-153.597656s68.769531-153.601563 153.601562-153.601563c84.828125 0 153.597656 68.769532 153.597656 153.601563zm0 0" fill="#c1dbdc"/><g fill="#4c241d"><path d="m38.945312 359.40625c-1.746093 0-3.492187-.667969-4.824218-2-2.667969-2.664062-2.667969-6.988281 0-9.652344l13.765625-13.765625c2.664062-2.667969 6.988281-2.667969 9.652343 0 2.667969 2.664063 2.667969 6.988281 0 9.652344l-13.765624 13.765625c-1.335938 1.332031-3.082032 2-4.828126 2zm0 0"/><path d="m6.824219 391.527344c-1.746094 0-3.492188-.667969-4.824219-2-2.667969-2.667969-2.667969-6.988282 0-9.652344l13.765625-13.765625c2.664063-2.667969 6.988281-2.667969 9.652344 0 2.667969 2.664063 2.667969 6.984375 0 9.652344l-13.765625 13.765625c-1.332032 1.332031-3.078125 2-4.828125 2zm0 0"/><path d="m20.59375 359.40625c-1.746094 0-3.492188-.667969-4.828125-2l-13.765625-13.765625c-2.664062-2.664063-2.664062-6.988281 0-9.652344 2.667969-2.667969 6.988281-2.667969 9.652344 0l13.769531 13.765625c2.664063 2.664063 2.664063 6.988282 0 9.652344-1.335937 1.332031-3.082031 2-4.828125 2zm0 0"/><path d="m52.714844 391.527344c-1.746094 0-3.496094-.667969-4.828125-2l-13.765625-13.765625c-2.667969-2.667969-2.667969-6.988281 0-9.652344 2.664062-2.667969 6.988281-2.667969 9.652344 0l13.765624 13.765625c2.667969 2.664062 2.667969 6.984375 0 9.652344-1.332031 1.332031-3.082031 2-4.824218 2zm0 0"/><path d="m383.574219 352.691406c-3.417969 0-6.804688-.839844-9.90625-2.5-4.957031-2.652344-8.589844-7.078125-10.21875-12.460937-1.628907-5.378907-1.070313-11.078125 1.582031-16.039063 2.65625-4.957031 7.082031-8.585937 12.464844-10.21875 11.097656-3.371094 22.886718 2.933594 26.257812 14.046875 3.367188 11.109375-2.933594 22.886719-14.042968 26.257813-2.023438.613281-4.085938.914062-6.136719.914062zm.023437-28.46875c-.710937 0-1.429687.101563-2.144531.320313-1.894531.570312-3.449219 1.847656-4.378906 3.589843-.933594 1.742188-1.128907 3.746094-.558594 5.640626.574219 1.894531 1.851563 3.449218 3.59375 4.378906 1.742187.9375 3.746094 1.136718 5.640625.558594 3.90625-1.183594 6.121094-5.328126 4.9375-9.234376-.972656-3.191406-3.914062-5.253906-7.089844-5.253906zm0 0"/><path d="m48.929688 55.710938c-11.609376 0-21.058594-9.445313-21.058594-21.058594 0-11.609375 9.449218-21.054688 21.058594-21.054688 11.609374 0 21.054687 9.445313 21.054687 21.054688 0 11.613281-9.445313 21.058594-21.054687 21.058594zm0-28.460938c-4.085938 0-7.402344 3.320312-7.402344 7.402344 0 4.085937 3.316406 7.40625 7.402344 7.40625 4.082031 0 7.402343-3.320313 7.402343-7.40625 0-4.082032-3.320312-7.402344-7.402343-7.402344zm0 0"/><path d="m354.246094 44.023438c-1.746094 0-3.492188-.667969-4.824219-2-2.667969-2.664063-2.667969-6.988282 0-9.652344l30.039063-30.042969c2.664062-2.664063 6.988281-2.664063 9.652343 0 2.667969 2.667969 2.667969 6.988281 0 9.65625l-30.039062 30.039063c-1.335938 1.335937-3.082031 2-4.828125 2zm0 0"/><path d="m384.285156 44.023438c-1.746094 0-3.492187-.667969-4.824218-2l-30.042969-30.039063c-2.664063-2.664063-2.664063-6.988281 0-9.652344 2.667969-2.667969 6.988281-2.667969 9.652343 0l30.042969 30.039063c2.664063 2.667968 2.664063 6.988281 0 9.652344-1.332031 1.335937-3.078125 2-4.828125 2zm0 0"/></g><path d="m47.703125 155.945312 31.695313 46.09375 20.742187-55.703124s-51.921875 9.800781-52.4375 9.609374zm0 0" fill="#a9ba5a"/><path d="m79.398438 208.867188c-2.230469 0-4.34375-1.09375-5.625-2.960938l-31.695313-46.09375c-1.683594-2.445312-1.589844-5.707031.234375-8.050781 1.230469-1.585938 3.050781-2.507813 4.964844-2.628907 3.5-.488281 33.296875-6.050781 51.597656-9.503906 2.417969-.464844 4.898438.421875 6.488281 2.304688 1.585938 1.886718 2.035157 4.476562 1.175781 6.785156l-20.742187 55.707031c-.886719 2.386719-3.03125 4.082031-5.558594 4.394531-.28125.03125-.5625.046876-.839843.046876zm-20.003907-47.96875 18.1875 26.457031 11.945313-32.070313c-14.359375 2.707032-23.820313 4.484375-30.132813 5.613282zm0 0" fill="#4c241d"/><path d="m373.648438 155.945312-31.695313 46.09375-20.742187-55.703124s51.921874 9.800781 52.4375 9.609374zm0 0" fill="#a9ba5a"/><path d="m341.953125 208.867188c-.277344 0-.558594-.015626-.835937-.050782-2.53125-.3125-4.675782-2.003906-5.5625-4.390625l-20.742188-55.707031c-.859375-2.3125-.410156-4.902344 1.175781-6.785156 1.589844-1.882813 4.0625-2.765625 6.488281-2.308594 18.304688 3.453125 48.101563 9.015625 51.597657 9.507812 1.914062.117188 3.738281 1.042969 4.964843 2.625 1.824219 2.347657 1.917969 5.605469.234376 8.054688l-31.695313 46.09375c-1.28125 1.867188-3.394531 2.960938-5.625 2.960938zm-10.125-53.582032 11.941406 32.070313 18.191407-26.457031c-6.316407-1.128907-15.777344-2.90625-30.132813-5.613282zm0 0" fill="#4c241d"/><path d="m340.214844 100.515625-9.65625 55.101563-42.03125-42.03125s51.292968-12.679688 51.6875-13.070313zm0 0" fill="#a9ba5a"/><path d="m330.554688 162.445312c-1.78125 0-3.523438-.699218-4.824219-2l-42.03125-42.035156c-1.742188-1.742187-2.410157-4.285156-1.75-6.65625.660156-2.375 2.546875-4.207031 4.941406-4.796875 18.085937-4.46875 47.492187-11.808593 50.878906-12.8125 1.785157-.679687 3.832031-.605469 5.609375.320313 2.632813 1.378906 4.070313 4.300781 3.558594 7.230468l-9.65625 55.101563c-.441406 2.503906-2.238281 4.5625-4.667969 5.328125-.675781.214844-1.371093.320312-2.058593.320312zm-28.652344-45.136718 24.199218 24.195312 5.542969-31.621094c-6.214843 1.59375-15.554687 3.917969-29.742187 7.425782zm0 0" fill="#4c241d"/><path d="m259.230469 65.757812-18.058594-32.558593-27.082031 21.707031-27.085938-21.707031-18.054687 32.558593h-36.113281l27.6875 43.414063h107.132812l27.6875-43.414063zm0 0" fill="#ffce56"/><path d="m267.65625 115.996094h-107.132812c-2.328126 0-4.503907-1.1875-5.757813-3.15625l-27.6875-43.414063c-1.339844-2.097656-1.425781-4.765625-.230469-6.953125 1.199219-2.183594 3.496094-3.542968 5.988282-3.542968h32.09375l16.109374-29.042969c.972657-1.761719 2.675782-3 4.648438-3.386719 1.96875-.398438 4.019531.109375 5.589844 1.371094l22.8125 18.28125 22.8125-18.28125c1.574218-1.261719 3.613281-1.769532 5.589844-1.371094 1.972656.386719 3.671874 1.625 4.652343 3.386719l16.105469 29.042969h32.09375c2.492188 0 4.785156 1.359374 5.984375 3.542968 1.199219 2.1875 1.109375 4.855469-.230469 6.953125l-27.683594 43.414063c-1.253906 1.96875-3.425781 3.15625-5.757812 3.15625zm-103.390625-13.652344h99.648437l18.980469-29.761719h-23.664062c-2.480469 0-4.765625-1.34375-5.96875-3.515625l-14.132813-25.484375-20.769531 16.644531c-2.492187 2.003907-6.046875 2.003907-8.539063 0l-20.765624-16.644531-14.132813 25.484375c-1.203125 2.167969-3.492187 3.515625-5.972656 3.515625h-23.660157zm0 0" fill="#4c241d"/><path d="m309.679688 338.9375c15.273437-13.644531 27.851562-30.785156 36.378906-50.886719 30.929687-72.886719-3.085938-157.042969-75.96875-187.972656-72.886719-30.925781-157.042969 3.085937-187.972656 75.972656-30.925782 72.882813 3.085937 157.042969 75.972656 187.96875 33.398437 14.171875 69.167968 14.707031 101.09375 4.117188" fill="#a9ba5a"/><path d="m214.09375 382.246094c-19.992188.003906-39.945312-3.996094-58.671875-11.941406-76.230469-32.347657-111.933594-120.6875-79.585937-196.921876 32.34375-76.234374 120.679687-111.9375 196.921874-79.585937 76.234376 32.347656 111.9375 120.683594 79.585938 196.921875-8.734375 20.585938-21.558594 38.519531-38.117188 53.308594-2.8125 2.511718-7.132812 2.265625-9.636718-.542969-2.511719-2.808594-2.269532-7.128906.542968-9.636719 15.042969-13.441406 26.703126-29.742187 34.644532-48.460937 29.40625-69.304688-3.050782-149.613281-72.355469-179.023438-69.316406-29.417969-149.613281 3.054688-179.019531 72.355469-29.40625 69.304688 3.050781 149.613281 72.355468 179.019531 30.585938 12.972657 64.769532 14.371094 96.277344 3.917969 3.597656-1.183594 7.449219.757812 8.632813 4.332031 1.1875 3.578125-.753907 7.441407-4.332031 8.628907-15.367188 5.09375-31.316407 7.628906-47.242188 7.628906zm0 0" fill="#4c241d"/><path d="m280.351562 366.011719c-2.46875 0-4.847656-1.335938-6.066406-3.675781-1.738281-3.34375-.4375-7.464844 2.90625-9.207032 4.105469-2.136718 8.140625-4.503906 11.992188-7.035156 3.15625-2.070312 7.382812-1.191406 9.453125 1.949219 2.074219 3.152343 1.203125 7.382812-1.949219 9.457031-4.238281 2.792969-8.679688 5.394531-13.195312 7.742188-1.003907.527343-2.082032.769531-3.140626.769531zm0 0" fill="#4c241d"/><path d="m316.492188 201.332031c0 20.734375-16.8125 37.546875-37.546876 37.546875-20.738281 0-37.546874-16.8125-37.546874-37.546875 0-20.738281 16.808593-37.546875 37.546874-37.546875 20.734376 0 37.546876 16.808594 37.546876 37.546875zm0 0" fill="#6b4f5b"/><path d="m278.945312 245.703125c-24.46875 0-44.375-19.90625-44.375-44.371094 0-24.46875 19.90625-44.375 44.375-44.375 24.464844 0 44.371094 19.90625 44.371094 44.375 0 24.464844-19.90625 44.371094-44.371094 44.371094zm0-75.09375c-16.941406 0-30.722656 13.78125-30.722656 30.722656 0 16.9375 13.78125 30.71875 30.722656 30.71875 16.9375 0 30.71875-13.78125 30.71875-30.71875 0-16.941406-13.78125-30.722656-30.71875-30.722656zm0 0" fill="#4c241d"/><path d="m296.011719 208.789062c0 13.546876-10.980469 24.527344-24.527344 24.527344s-24.527344-10.980468-24.527344-24.527344c0-13.542968 10.980469-24.523437 24.527344-24.523437s24.527344 10.980469 24.527344 24.523437zm0 0" fill="#fff"/><path d="m271.480469 240.144531c-17.285157 0-31.351563-14.066406-31.351563-31.355469 0-17.285156 14.066406-31.351562 31.351563-31.351562 17.289062 0 31.355469 14.066406 31.355469 31.351562 0 17.289063-14.066407 31.355469-31.355469 31.355469zm0-49.054687c-9.757813 0-17.699219 7.941406-17.699219 17.699218 0 9.761719 7.941406 17.699219 17.699219 17.699219 9.761719 0 17.703125-7.9375 17.703125-17.699219 0-9.757812-7.941406-17.699218-17.703125-17.699218zm0 0" fill="#4c241d"/><path d="m81.140625 100.515625 9.65625 55.101563 42.03125-42.03125s-51.296875-12.679688-51.6875-13.070313zm0 0" fill="#a9ba5a"/><path d="m90.796875 162.445312c-.6875 0-1.382813-.105468-2.058594-.320312-2.425781-.765625-4.226562-2.820312-4.664062-5.328125l-9.65625-55.101563c-.515625-2.929687.925781-5.851562 3.558593-7.226562 1.777344-.929688 3.824219-1.003906 5.605469-.324219 3.390625 1.011719 32.800781 8.34375 50.878907 12.8125 2.394531.59375 4.28125 2.425781 4.941406 4.800781.660156 2.367188-.007813 4.914063-1.75 6.65625l-42.027344 42.03125c-1.300781 1.300782-3.046875 2-4.828125 2zm-1.085937-52.566406 5.542968 31.625 24.195313-24.199218c-14.1875-3.503907-23.527344-5.828126-29.738281-7.425782zm-8.570313-9.359375h.066406zm0 0" fill="#4c241d"/><path d="m296.011719 187.675781c0 5.65625-4.585938 10.242188-10.242188 10.242188s-10.238281-4.585938-10.238281-10.242188c0-5.652343 4.582031-10.238281 10.238281-10.238281s10.242188 4.585938 10.242188 10.238281zm0 0" fill="#fff"/><path d="m186.785156 201.332031c0 20.734375-16.8125 37.546875-37.546875 37.546875-20.738281 0-37.546875-16.8125-37.546875-37.546875 0-20.738281 16.808594-37.546875 37.546875-37.546875 20.734375 0 37.546875 16.808594 37.546875 37.546875zm0 0" fill="#6b4f5b"/><path d="m149.238281 245.703125c-24.46875 0-44.375-19.90625-44.375-44.371094 0-24.46875 19.90625-44.375 44.375-44.375 24.464844 0 44.371094 19.90625 44.371094 44.375 0 24.464844-19.90625 44.371094-44.371094 44.371094zm0-75.09375c-16.941406 0-30.722656 13.78125-30.722656 30.722656 0 16.9375 13.78125 30.71875 30.722656 30.71875 16.9375 0 30.71875-13.78125 30.71875-30.71875 0-16.941406-13.78125-30.722656-30.71875-30.722656zm0 0" fill="#4c241d"/><path d="m181.222656 208.789062c0 13.546876-10.980468 24.527344-24.527344 24.527344-13.542968 0-24.523437-10.980468-24.523437-24.527344 0-13.542968 10.980469-24.523437 24.523437-24.523437 13.546876 0 24.527344 10.980469 24.527344 24.523437zm0 0" fill="#fff"/><path d="m156.695312 240.144531c-17.285156 0-31.351562-14.066406-31.351562-31.355469 0-17.285156 14.066406-31.351562 31.351562-31.351562 17.289063 0 31.355469 14.066406 31.355469 31.351562 0 17.289063-14.066406 31.355469-31.355469 31.355469zm0-49.054687c-9.757812 0-17.699218 7.941406-17.699218 17.699218 0 9.761719 7.941406 17.699219 17.699218 17.699219 9.761719 0 17.703126-7.9375 17.703126-17.699219 0-9.757812-7.941407-17.699218-17.703126-17.699218zm0 0" fill="#4c241d"/><path d="m152.648438 187.675781c0 5.65625-4.582032 10.242188-10.238282 10.242188s-10.238281-4.585938-10.238281-10.242188c0-5.652343 4.582031-10.238281 10.238281-10.238281s10.238282 4.585938 10.238282 10.238281zm0 0" fill="#fff"/><path d="m252.867188 281.441406c-4.082032 13.902344-12.234376 26.582032-24.910157 37.921875-8.753906 7.828125-22.160156 8.457031-31.34375 1.132813-14.4375-11.515625-22.933593-25.09375-26.175781-40.5-2.246094-10.6875 6.355469-20.640625 17.28125-20.640625h48.175781c11.53125 0 20.222657 11.023437 16.972657 22.085937zm0 0" fill="#6b4f5b"/><path d="m211.472656 332.417969c-6.808594 0-13.597656-2.179688-19.117187-6.582031-15.347657-12.246094-24.96875-27.195313-28.597657-44.429688-1.460937-6.957031.304688-14.15625 4.84375-19.757812 4.703126-5.792969 11.671876-9.117188 19.117188-9.117188h48.175781c7.699219 0 15.050781 3.691406 19.679688 9.871094 4.566406 6.097656 5.96875 13.742187 3.84375 20.964844-4.496094 15.3125-13.546875 29.132812-26.910157 41.082031-5.910156 5.289062-13.488281 7.96875-21.035156 7.96875zm-23.753906-66.234375c-3.3125 0-6.417969 1.484375-8.511719 4.066406-1.96875 2.425781-2.707031 5.386719-2.089843 8.339844 3 14.253906 10.769531 26.214844 23.75 36.570312 6.496093 5.179688 16.191406 4.800782 22.542968-.886718 11.429688-10.230469 19.140625-21.917969 22.910156-34.753907l6.546876 1.925781-6.546876-1.925781c.894532-3.054687.285157-6.3125-1.675781-8.9375-2.09375-2.792969-5.28125-4.394531-8.75-4.394531h-48.175781zm0 0" fill="#4c241d"/><path d="m318.605469 275.890625c-1.792969 6.105469-5.375 11.679687-10.945313 16.664063-3.847656 3.441406-9.742187 3.714843-13.777344.496093-6.347656-5.058593-10.082031-11.027343-11.503906-17.796875-.988281-4.699218 2.792969-9.070312 7.59375-9.070312h21.171875c5.070313 0 8.890625 4.84375 7.460938 9.707031zm0 0" fill="#6b4f5b"/><path d="m300.410156 302.109375c-3.835937 0-7.664062-1.230469-10.78125-3.714844-7.460937-5.957031-12.148437-13.265625-13.929687-21.738281-.878907-4.1875.179687-8.519531 2.90625-11.878906 2.796875-3.445313 6.9375-5.421875 11.367187-5.421875h21.175782c4.578124 0 8.953124 2.195312 11.707031 5.871093 2.738281 3.652344 3.574219 8.238282 2.300781 12.582032v.003906c-2.179688 7.429688-6.535156 14.101562-12.945312 19.832031-3.316407 2.960938-7.566407 4.464844-11.800782 4.464844zm-10.4375-29.097656c-.421875 0-.675781.257812-.765625.371093.976563 5.820313 3.949219 10.359376 8.929688 14.335938 1.390625 1.105469 3.574219.996094 4.972656-.253906 4.546875-4.0625 7.472656-8.480469 8.945313-13.496094.023437-.085938.082031-.277344-.128907-.558594-.109375-.148437-.359375-.398437-.78125-.398437zm28.632813 2.878906h.066406zm0 0" fill="#4c241d"/><path d="m141.113281 275.890625c-1.792969 6.105469-5.378906 11.679687-10.949219 16.664063-3.847656 3.441406-9.738281 3.714843-13.773437.496093-6.347656-5.058593-10.082031-11.027343-11.503906-17.796875-.988281-4.699218 2.792969-9.070312 7.59375-9.070312h21.171875c5.066406 0 8.886718 4.84375 7.460937 9.707031zm0 0" fill="#6b4f5b"/><path d="m122.917969 302.109375c-3.835938 0-7.664063-1.230469-10.78125-3.714844-7.460938-5.957031-12.148438-13.265625-13.929688-21.738281-.878906-4.1875.179688-8.519531 2.90625-11.878906 2.792969-3.445313 6.9375-5.421875 11.367188-5.421875h21.171875c4.582031 0 8.957031 2.195312 11.710937 5.871093 2.738281 3.652344 3.574219 8.238282 2.300781 12.582032v.003906c-2.179687 7.429688-6.539062 14.101562-12.949218 19.832031-3.3125 2.960938-7.5625 4.464844-11.796875 4.464844zm-10.4375-29.097656c-.421875 0-.675781.257812-.769531.371093.980468 5.820313 3.949218 10.359376 8.933593 14.335938 1.386719 1.105469 3.574219.996094 4.96875-.253906 4.546875-4.0625 7.476563-8.480469 8.949219-13.496094.023438-.085938.078125-.277344-.132812-.558594-.105469-.148437-.359376-.398437-.777344-.398437zm28.632812 2.878906h.066407zm0 0" fill="#4c241d"/><path d="m26.777344 128.597656c0 6.289063-5.097656 11.386719-11.382813 11.386719-6.289062 0-11.386719-5.097656-11.386719-11.386719 0-6.285156 5.097657-11.382812 11.386719-11.382812 6.285157 0 11.382813 5.097656 11.382813 11.382812zm0 0" fill="#4c241d"/></svg>