<svg height="428pt" viewBox="-7 0 428 428.38901" width="428pt" xmlns="http://www.w3.org/2000/svg"><path d="m329.914062 225.789062c0 84.832032-68.769531 153.601563-153.601562 153.601563-84.828125 0-153.597656-68.769531-153.597656-153.601563 0-84.832031 68.769531-153.601562 153.597656-153.601562 84.832031 0 153.601562 68.769531 153.601562 153.601562zm0 0" fill="#c1dbdc"/><g fill="#4c241d"><path d="m65.714844 393.042969h-17.605469c-3.773437 0-6.828125-3.054688-6.828125-6.828125 0-3.773438 3.054688-6.824219 6.828125-6.824219h17.605469c3.773437 0 6.824218 3.050781 6.824218 6.824219 0 3.773437-3.050781 6.828125-6.824218 6.828125zm0 0"/><path d="m24.628906 393.042969h-17.609375c-3.773437 0-6.824219-3.054688-6.824219-6.828125 0-3.773438 3.050782-6.824219 6.824219-6.824219h17.609375c3.773438 0 6.824219 3.050781 6.824219 6.824219 0 3.773437-3.050781 6.828125-6.824219 6.828125zm0 0"/><path d="m36.367188 381.304688c-3.773438 0-6.828126-3.054688-6.828126-6.828126v-17.605468c0-3.773438 3.054688-6.828125 6.828126-6.828125 3.773437 0 6.828124 3.054687 6.828124 6.828125v17.605468c0 3.773438-3.054687 6.828126-6.828124 6.828126zm0 0"/><path d="m36.367188 422.390625c-3.773438 0-6.828126-3.054687-6.828126-6.828125v-17.605469c0-3.773437 3.054688-6.828125 6.828126-6.828125 3.773437 0 6.828124 3.054688 6.828124 6.828125v17.605469c0 3.773438-3.054687 6.828125-6.828124 6.828125zm0 0"/><path d="m390.035156 421.503906c-11.613281 0-21.0625-9.449218-21.0625-21.054687 0-11.613281 9.449219-21.058594 21.0625-21.058594 11.613282 0 21.058594 9.445313 21.058594 21.058594 0 11.605469-9.445312 21.054687-21.058594 21.054687zm0-28.460937c-4.089844 0-7.40625 3.320312-7.40625 7.40625 0 4.082031 3.316406 7.398437 7.40625 7.398437 4.085938 0 7.40625-3.316406 7.40625-7.398437 0-4.085938-3.320312-7.40625-7.40625-7.40625zm0 0"/></g><path d="m262.214844 254.308594 6.6875-67.179688c3.515625-35.355468 18.191406-68.671875 41.898437-95.132812l76.320313-85.171875-7.226563 116.140625c-1.976562 31.75-12.957031 62.273437-31.65625 88.007812l-44.878906 61.753906zm0 0" fill="#ffce56"/><path d="m303.359375 279.554688c-.941406 0-1.886719-.191407-2.785156-.59375l-41.148438-18.417969c-2.683593-1.199219-4.300781-3.988281-4.007812-6.90625l6.6875-67.179688c3.6875-37.054687 18.765625-71.292969 43.609375-99.015625l76.320312-85.171875c1.945313-2.167969 5.039063-2.855469 7.71875-1.746093 2.683594 1.125 4.359375 3.820312 4.179688 6.726562l-7.226563 116.140625c-2.058593 33.097656-13.445312 64.769531-32.949219 91.589844l-44.878906 61.761719c-1.3125 1.8125-3.390625 2.8125-5.519531 2.8125zm-33.863281-29.464844 31.597656 14.148437 41.628906-57.28125c17.964844-24.71875 28.46875-53.90625 30.359375-84.417969l6.007813-96.523437-63.199219 70.535156c-22.894531 25.554688-36.792969 57.105469-40.195313 91.253907zm0 0" fill="#4c241d"/><path d="m268.976562 257.332031s41.949219-130.285156 54.019532-144.191406l24.507812-28.265625c4.441406-5.121094 12.847656-1.632812 12.355469 5.132812l-2.800781 38.402344c-1.3125 16.410156-64.625 139.421875-64.625 139.421875zm0 0" fill="#bf7e68"/><path d="m292.425781 274.664062c-.933593 0-1.878906-.195312-2.777343-.59375l-23.460938-10.5c-3.179688-1.425781-4.78125-5.015624-3.714844-8.328124 7.078125-21.980469 43-132.339844 55.375-146.582032l24.496094-28.257812c3.980469-4.589844 10.167969-6.0625 15.808594-3.722656 5.613281 2.328124 8.960937 7.761718 8.511718 13.820312l-2.800781 38.410156c-1.351562 16.964844-54.683593 121.304688-65.367187 142.050782-1.195313 2.339843-3.582032 3.703124-6.070313 3.703124zm-15.070312-21.054687 11.957031 5.355469c29.523438-57.636719 60.1875-121.640625 60.941406-131.09375l2.800782-38.355469-24.894532 28.101563c-7.824218 9.003906-34.5 85.777343-50.804687 135.992187zm0 0" fill="#4c241d"/><path d="m179.160156 254.308594-6.6875-67.179688c-3.515625-35.355468-18.191406-68.671875-41.902344-95.132812l-76.316406-85.171875 7.226563 116.140625c1.976562 31.75 12.957031 62.273437 31.65625 88.007812l44.878906 61.753906zm0 0" fill="#ffce56"/><path d="m138.015625 279.554688c-2.128906 0-4.207031-1-5.519531-2.8125l-44.882813-61.761719c-19.5-26.820313-30.886719-58.492188-32.945312-91.589844l-7.226563-116.140625c-.179687-2.90625 1.492188-5.601562 4.179688-6.726562 2.679687-1.105469 5.773437-.421876 7.71875 1.746093l76.320312 85.171875c24.839844 27.71875 39.921875 61.960938 43.609375 99.015625l6.683594 67.179688c.296875 2.917969-1.316406 5.707031-4.003906 6.90625l-41.148438 18.417969c-.898437.402343-1.847656.59375-2.785156.59375zm-75.726563-253.539063 6.007813 96.523437c1.890625 30.511719 12.390625 59.699219 30.359375 84.417969l41.625 57.28125 31.601562-14.148437-6.199218-62.285156c-3.398438-34.148438-17.300782-65.699219-40.195313-91.253907zm0 0" fill="#4c241d"/><path d="m172.398438 257.332031s-41.949219-130.285156-54.019532-144.191406l-24.507812-28.261719c-4.445313-5.125-12.847656-1.632812-12.355469 5.128906l2.796875 38.40625c1.3125 16.40625 64.628906 139.421876 64.628906 139.421876zm0 0" fill="#bf7e68"/><path d="m148.949219 274.664062c-2.488281 0-4.875-1.363281-6.074219-3.703124-10.683594-20.746094-64.015625-125.085938-65.367188-142l-2.800781-38.457032c-.449219-6.0625 2.898438-11.492187 8.511719-13.820312 5.648438-2.339844 11.820312-.867188 15.808594 3.71875l24.503906 28.265625c12.367188 14.234375 48.289062 124.59375 55.367188 146.574219 1.066406 3.3125-.53125 6.902343-3.714844 8.328124l-23.460938 10.5c-.894531.398438-1.839844.59375-2.773437.59375zm-60.242188-185.316406 2.414063 38.574219c.753906 9.410156 31.417968 73.410156 60.9375 131.042969l11.960937-5.355469c-16.304687-50.214844-42.980469-126.988281-50.800781-135.988281zm0 0" fill="#4c241d"/><path d="m118.472656 374.914062c-12.664062-14.589843-22.386718-32.136718-27.964844-51.964843-20.234374-71.894531 21.644532-146.582031 93.539063-166.816407 71.898437-20.234374 146.585937 21.644532 166.820313 93.539063 20.234374 71.898437-21.644532 146.585937-93.542969 166.820313-32.945313 9.273437-66.480469 5.5-95.089844-8.226563" fill="#ffce56"/><path d="m220.660156 428.390625c-21.085937 0-42.066406-4.703125-61.378906-13.96875-3.402344-1.625-4.835938-5.707031-3.203125-9.105469 1.636719-3.394531 5.6875-4.839844 9.109375-3.203125 28.152344 13.507813 60.207031 16.289063 90.292969 7.808594 33.011719-9.285156 60.433593-30.886719 77.210937-60.800781 16.773438-29.917969 20.902344-64.582032 11.601563-97.59375-19.179688-68.160156-90.207031-108.035156-158.398438-88.828125-33.015625 9.285156-60.433593 30.886719-77.214843 60.800781-16.773438 29.917969-20.898438 64.582031-11.597657 97.601562 5.179688 18.40625 14.113281 35.007813 26.546875 49.339844 2.472656 2.847656 2.167969 7.160156-.679687 9.625-2.847657 2.480469-7.160157 2.179688-9.628907-.675781-13.773437-15.863281-23.652343-34.230469-29.386718-54.59375-10.277344-36.519531-5.71875-74.867187 12.839844-107.96875 18.558593-33.101563 48.898437-56.992187 85.425781-67.273437 36.515625-10.265626 74.882812-5.71875 107.976562 12.839843 33.09375 18.558594 56.984375 48.898438 67.265625 85.433594 10.277344 36.519531 5.71875 74.867187-12.839844 107.96875-18.558593 33.101563-48.898437 56.992187-85.425781 67.273437-12.632812 3.550782-25.601562 5.320313-38.515625 5.320313zm0 0" fill="#4c241d"/><path d="m143.5 404.195312c-1.339844 0-2.691406-.390624-3.878906-1.210937-3.925782-2.722656-7.785156-5.699219-11.460938-8.847656-2.867187-2.453125-3.199218-6.765625-.746094-9.628907 2.464844-2.871093 6.773438-3.183593 9.628907-.746093 3.324219 2.847656 6.804687 5.539062 10.351562 7.992187 3.097657 2.148438 3.875 6.402344 1.726563 9.5-1.328125 1.914063-3.453125 2.941406-5.621094 2.941406zm0 0" fill="#4c241d"/><path d="m24.714844 126.800781c0 4.878907-3.953125 8.828125-8.828125 8.828125s-8.828125-3.949218-8.828125-8.828125c0-4.875 3.953125-8.828125 8.828125-8.828125s8.828125 3.953125 8.828125 8.828125zm0 0" fill="#4c241d"/><path d="m413.835938 222.375c0 4.875-3.953126 8.828125-8.828126 8.828125s-8.828124-3.953125-8.828124-8.828125 3.953124-8.828125 8.828124-8.828125 8.828126 3.953125 8.828126 8.828125zm0 0" fill="#4c241d"/><path d="m243.746094 345.890625c-11.425782 0-20.671875-4.960937-26.636719-10.09375-21.375 16.886719-41.660156 7.078125-42.585937 6.621094-3.375-1.6875-4.742188-5.789063-3.054688-9.160157 1.679688-3.355468 5.753906-4.726562 9.105469-3.082031.78125.367188 16.121093 7.28125 32.066406-8.664062 1.402344-1.402344 3.261719-2.132813 5.3125-1.980469 1.976563.140625 3.789063 1.125 4.976563 2.714844.472656.605468 12.3125 15.558594 31.898437 7.722656 3.472656-1.390625 7.472656.296875 8.871094 3.808594 1.402343 3.5-.304688 7.472656-3.804688 8.871094-5.742187 2.292968-11.152343 3.242187-16.148437 3.242187zm0 0" fill="#4c241d"/><path d="m318.851562 265.609375c9.207032 36.839844-1.566406 65.785156-33.765624 46.464844-17.101563-10.261719-21.5-26.117188-21.5-46.464844s10.308593-36.839844 23.027343-36.839844c13.816407-.003906 27.242188 16.859375 32.238281 36.839844zm0 0" fill="#bf7e68"/><path d="m303.308594 325.089844c-5.769532 0-12.941406-1.886719-21.734375-7.160156-21.992188-13.207032-24.8125-34.898438-24.8125-52.320313 0-24.484375 13.113281-43.664063 29.851562-43.664063 18.613281 0 33.640625 21.132813 38.855469 42.011719 6.660156 26.628907 3.445312 47.851563-8.601562 56.78125-3.171876 2.351563-7.613282 4.351563-13.558594 4.351563zm-16.695313-89.492188c-7.660156 0-16.199219 12.328125-16.199219 30.011719 0 21.09375 5.265626 32.863281 18.1875 40.613281 5.140626 3.089844 14.585938 7.652344 20.132813 3.546875 5.738281-4.253906 9.28125-19.367187 3.492187-42.503906-4.367187-17.460937-15.851562-31.667969-25.613281-31.667969zm0 0" fill="#4c241d"/><path d="m297.96875 273.433594c0-14.226563-7.207031-25.761719-16.101562-25.761719-8.890626 0-16.101563 11.535156-16.101563 25.761719 0 14.226562 7.210937 25.761718 16.101563 25.761718 8.894531 0 16.101562-11.535156 16.101562-25.761718zm0 0" fill="#6b4f5b"/><path d="m281.867188 306.023438c-12.851563 0-22.925782-14.316407-22.925782-32.585938 0-18.273438 10.070313-32.589844 22.925782-32.589844 12.855468 0 22.929687 14.316406 22.929687 32.589844 0 18.269531-10.074219 32.585938-22.929687 32.585938zm0-51.519532c-3.78125 0-9.273438 7.371094-9.273438 18.933594s5.492188 18.933594 9.273438 18.933594 9.273437-7.371094 9.273437-18.933594-5.492187-18.933594-9.273437-18.933594zm0 0" fill="#4c241d"/><path d="m304.40625 250.894531c0 5.335938-4.324219 9.660157-9.660156 9.660157-5.335938 0-9.660156-4.324219-9.660156-9.660157 0-5.335937 4.324218-9.660156 9.660156-9.660156 5.335937 0 9.660156 4.324219 9.660156 9.660156zm0 0" fill="#fff"/><path d="m116.085938 265.609375c-9.210938 36.839844 1.5625 65.785156 33.761718 46.464844 17.105469-10.261719 21.5-26.117188 21.5-46.464844s-10.308594-36.839844-23.027344-36.839844c-13.816406-.003906-27.242187 16.859375-32.234374 36.839844zm0 0" fill="#bf7e68"/><path d="m131.625 325.082031c-5.945312.007813-10.386719-1.992187-13.558594-4.347656-12.046875-8.925781-15.257812-30.152344-8.597656-56.777344 5.210938-20.882812 20.238281-42.015625 38.851562-42.015625 16.742188 0 29.855469 19.179688 29.855469 43.667969 0 17.417969-2.820312 39.113281-24.816406 52.320313-8.792969 5.273437-15.964844 7.152343-21.734375 7.152343zm16.695312-89.484375c-9.757812 0-21.246093 14.207032-25.613281 31.667969-5.785156 23.140625-2.246093 38.25 3.492188 42.503906 5.515625 4.082031 14.996093-.464843 20.136719-3.546875 12.917968-7.75 18.183593-19.519531 18.183593-40.613281 0-17.6875-8.539062-30.011719-16.199219-30.011719zm-32.234374 30.011719h.066406zm0 0" fill="#4c241d"/><path d="m169.167969 273.433594c0-14.226563-7.207031-25.761719-16.101563-25.761719-8.890625 0-16.101562 11.535156-16.101562 25.761719 0 14.226562 7.210937 25.761718 16.101562 25.761718 8.894532 0 16.101563-11.535156 16.101563-25.761718zm0 0" fill="#6b4f5b"/><path d="m153.066406 306.023438c-12.851562 0-22.925781-14.316407-22.925781-32.585938 0-18.273438 10.070313-32.589844 22.925781-32.589844 12.855469 0 22.929688 14.316406 22.929688 32.589844 0 18.269531-10.074219 32.585938-22.929688 32.585938zm0-51.519532c-3.777344 0-9.273437 7.371094-9.273437 18.933594s5.496093 18.933594 9.273437 18.933594c3.78125 0 9.273438-7.371094 9.273438-18.933594s-5.492188-18.933594-9.273438-18.933594zm0 0" fill="#4c241d"/><path d="m149.847656 250.894531c0 5.335938-4.324218 9.660157-9.660156 9.660157s-9.660156-4.324219-9.660156-9.660157c0-5.335937 4.324218-9.660156 9.660156-9.660156s9.660156 4.324219 9.660156 9.660156zm0 0" fill="#fff"/><path d="m154.171875 70.347656c-1.746094 0-3.492187-.664062-4.824219-2-2.667968-2.664062-2.667968-6.984375 0-9.652344l20.125-20.121093c2.667969-2.664063 6.988282-2.664063 9.652344 0 2.667969 2.667969 2.667969 6.988281 0 9.65625l-20.125 20.117187c-1.332031 1.335938-3.078125 2-4.828125 2zm0 0" fill="#4c241d"/><path d="m174.300781 70.347656c-1.746093 0-3.496093-.664062-4.828125-2l-20.125-20.117187c-2.667968-2.667969-2.667968-6.988281 0-9.65625 2.664063-2.664063 6.988282-2.664063 9.652344 0l20.125 20.121093c2.667969 2.667969 2.667969 6.988282 0 9.652344-1.332031 1.335938-3.078125 2-4.824219 2zm0 0" fill="#4c241d"/></svg>