<svg height="406pt" viewBox="-1 0 406 406.44523" width="406pt" xmlns="http://www.w3.org/2000/svg"><path d="m316.148438 191.382812c0 84.832032-68.769532 153.601563-153.601563 153.601563-84.828125 0-153.597656-68.769531-153.597656-153.601563 0-84.828124 68.769531-153.597656 153.597656-153.597656 84.832031 0 153.601563 68.769532 153.601563 153.597656zm0 0" fill="#c1dbdc"/><g fill="#4c241d"><path d="m380.417969 28.132812c-1.746094 0-3.496094-.667968-4.828125-2-2.664063-2.667968-2.664063-6.988281 0-9.652343l14.480468-14.480469c2.664063-2.667969 6.988282-2.667969 9.652344 0 2.664063 2.664062 2.664063 6.988281 0 9.652344l-14.480468 14.480468c-1.332032 1.332032-3.078126 2-4.824219 2zm0 0"/><path d="m346.628906 61.917969c-1.746094 0-3.492187-.667969-4.824218-2-2.667969-2.664063-2.667969-6.988281 0-9.652344l14.476562-14.480469c2.667969-2.664062 6.988281-2.664062 9.65625 0 2.664062 2.667969 2.664062 6.988282 0 9.652344l-14.480469 14.480469c-1.332031 1.332031-3.082031 2-4.828125 2zm0 0"/><path d="m361.109375 28.132812c-1.746094 0-3.492187-.667968-4.828125-2l-14.476562-14.480468c-2.667969-2.664063-2.667969-6.988282 0-9.652344 2.664062-2.667969 6.984374-2.667969 9.652343 0l14.480469 14.480469c2.664062 2.664062 2.664062 6.984375 0 9.652343-1.335938 1.332032-3.082031 2-4.828125 2zm0 0"/><path d="m394.894531 61.917969c-1.746093 0-3.492187-.667969-4.824219-2l-14.480468-14.480469c-2.664063-2.664062-2.664063-6.984375 0-9.652344 2.667968-2.664062 6.988281-2.664062 9.652344 0l14.480468 14.480469c2.664063 2.664063 2.664063 6.988281 0 9.652344-1.332031 1.332031-3.082031 2-4.828125 2zm0 0"/><path d="m383.234375 383.707031c-3.417969 0-6.804687-.839843-9.90625-2.496093-4.957031-2.652344-8.585937-7.078126-10.21875-12.464844-1.632813-5.378906-1.066406-11.082032 1.582031-16.039063 2.652344-4.960937 7.078125-8.585937 12.464844-10.222656s11.074219-1.070313 16.039062 1.589844c4.960938 2.652343 8.585938 7.078125 10.21875 12.460937v.003906c3.363282 11.109376-2.9375 22.886719-14.042968 26.253907-2.023438.613281-4.082032.914062-6.136719.914062zm.035156-28.476562c-.71875 0-1.445312.105469-2.152343.320312-1.894532.574219-3.453126 1.855469-4.386719 3.59375-.925781 1.746094-1.125 3.746094-.554688 5.640625.574219 1.894532 1.855469 3.453125 3.59375 4.386719 1.753907.933594 3.753907 1.121094 5.640625.550781 3.898438-1.175781 6.121094-5.324218 4.941406-9.230468-.574218-1.894532-1.855468-3.449219-3.59375-4.378907-1.09375-.589843-2.289062-.882812-3.488281-.882812zm0 0"/><path d="m21.28125 66.246094c-11.613281 0-21.058594-9.449219-21.058594-21.054688 0-11.613281 9.445313-21.058594 21.058594-21.058594 11.617188 0 21.0625 9.445313 21.0625 21.058594 0 11.605469-9.445312 21.054688-21.0625 21.054688zm0-28.460938c-4.085938 0-7.40625 3.320313-7.40625 7.40625 0 4.082032 3.320312 7.398438 7.40625 7.398438 4.089844 0 7.410156-3.316406 7.410156-7.398438 0-4.085937-3.320312-7.40625-7.410156-7.40625zm0 0"/><path d="m31.183594 370.453125c-1.746094 0-3.492188-.667969-4.828125-2-2.664063-2.667969-2.664063-6.988281 0-9.65625l20.128906-20.117187c2.664063-2.667969 6.984375-2.667969 9.652344 0 2.664062 2.664062 2.664062 6.984374 0 9.652343l-20.128907 20.121094c-1.332031 1.332031-3.078124 2-4.824218 2zm0 0"/><path d="m51.308594 370.453125c-1.746094 0-3.492188-.667969-4.824219-2l-20.128906-20.121094c-2.664063-2.667969-2.664063-6.988281 0-9.652343 2.667969-2.667969 6.988281-2.667969 9.652343 0l20.128907 20.117187c2.664062 2.667969 2.664062 6.988281 0 9.65625-1.332031 1.332031-3.082031 2-4.828125 2zm0 0"/><path d="m113.101562 35.945312c-1.746093 0-3.492187-.667968-4.824218-2-2.667969-2.667968-2.667969-6.988281 0-9.652343l20.125-20.121094c2.667968-2.664063 6.988281-2.664063 9.652344 0 2.667968 2.664063 2.667968 6.988281 0 9.652344l-20.125 20.121093c-1.332032 1.335938-3.082032 2-4.828126 2zm0 0"/><path d="m133.230469 35.945312c-1.746094 0-3.492188-.667968-4.828125-2l-20.125-20.121093c-2.667969-2.664063-2.667969-6.988281 0-9.652344 2.664062-2.664063 6.988281-2.664063 9.652344 0l20.125 20.121094c2.667968 2.664062 2.667968 6.984375 0 9.652343-1.332032 1.335938-3.078126 2-4.824219 2zm0 0"/></g><path d="m78.933594 250.351562s-53.988282-71.746093-28.019532-124.414062c0 0 48.125-25.820312 107.25 12.179688 0 0 5.425782 82.304687-79.230468 112.234374zm0 0" fill="#ffded5"/><path d="m78.929688 257.179688c-2.101563 0-4.140626-.972657-5.453126-2.722657-2.308593-3.066406-56.199218-75.746093-28.679687-131.546875.625-1.273437 1.640625-2.316406 2.890625-2.992187 2.113281-1.132813 52.375-27.261719 114.167969 12.460937 1.820312 1.167969 2.972656 3.132813 3.121093 5.292969.050782.875 4.738282 87.828125-83.773437 119.113281-.746094.265625-1.511719.394532-2.273437.394532zm-22.875-126.128907c-18.273438 41.175781 15.109374 95.75 25.433593 111.054688 65.425781-25.828125 69.886719-85.128907 69.941407-100.148438-47.328126-28.785156-86.449219-14.796875-95.375-10.90625zm0 0" fill="#4c241d"/><path d="m70.390625 147.011719s47.785156-6.828125 68.265625 20.480469l-40.960938 54.613281s-34.132812-20.480469-27.304687-75.09375zm0 0" fill="#6b4f5b"/><path d="m97.691406 228.929688c-1.199218 0-2.414062-.3125-3.507812-.972657-1.546875-.925781-37.859375-23.4375-30.566406-81.792969.378906-3.050781 2.757812-5.472656 5.804687-5.914062 2.105469-.300781 52.046875-7.058594 74.695313 23.148438 1.820312 2.425781 1.820312 5.757812 0 8.1875l-40.960938 54.613281c-1.335938 1.78125-3.378906 2.730469-5.464844 2.730469zm-21.074218-75.636719c-2.589844 33.8125 11.878906 51.914062 19.78125 59.164062l33.5-44.664062c-15.101563-15.074219-41.976563-15.195313-53.28125-14.5zm0 0" fill="#4c241d"/><path d="m362.21875 250.351562s53.988281-71.746093 28.019531-124.414062c0 0-48.125-25.820312-107.25 12.179688 0 0-5.421875 82.304687 79.230469 112.234374zm0 0" fill="#ffded5"/><path d="m362.222656 257.179688c-.757812 0-1.527344-.128907-2.273437-.394532-88.511719-31.285156-83.824219-118.238281-83.773438-119.113281.148438-2.160156 1.300781-4.125 3.121094-5.292969 61.785156-39.734375 112.058594-13.59375 114.167969-12.460937 1.253906.675781 2.265625 1.71875 2.890625 2.992187 27.523437 55.800782-26.371094 128.480469-28.679688 131.546875-1.3125 1.75-3.351562 2.722657-5.453125 2.722657zm-72.5-115.21875c.054688 15.011718 4.507813 74.3125 69.9375 100.144531 10.335938-15.304688 43.726563-69.898438 25.429688-111.070313-8.996094-4.015625-47.71875-18.082031-95.367188 10.925782zm0 0" fill="#4c241d"/><path d="m370.761719 147.011719s-47.785157-6.828125-68.265625 20.480469l40.960937 54.613281s34.132813-20.480469 27.304688-75.09375zm0 0" fill="#6b4f5b"/><path d="m343.460938 228.929688c-2.085938 0-4.132813-.953126-5.464844-2.730469l-40.960938-54.613281c-1.820312-2.429688-1.820312-5.761719 0-8.1875 22.652344-30.195313 72.585938-23.433594 74.695313-23.148438 3.046875.441406 5.425781 2.863281 5.804687 5.914062 7.292969 58.351563-29.019531 80.867188-30.566406 81.792969-1.09375.660157-2.308594.972657-3.507812.972657zm-32.207032-61.132813 33.503906 44.660156c7.882813-7.230469 22.363282-25.324219 19.777344-59.160156-11.3125-.671875-38.207031-.511719-53.28125 14.5zm0 0" fill="#4c241d"/><path d="m308.203125 369.746094c-16.203125 12.523437-35.355469 21.757812-56.675781 26.472656-77.308594 17.09375-153.835938-31.71875-170.929688-109.027344s31.71875-153.835937 109.027344-170.929687 153.835938 31.71875 170.929688 109.027343c7.835937 35.425782 1.828124 70.691407-14.417969 100.144532" fill="#ffded5"/><path d="m220.558594 406.445312c-68.902344 0-131.15625-47.792968-146.628906-117.78125-17.878907-80.859374 33.359374-161.191406 114.222656-179.074218 80.90625-17.839844 161.199218 33.367187 179.070312 114.222656 7.886719 35.691406 2.527344 72.953125-15.105468 104.917969-1.820313 3.296875-5.972657 4.488281-9.28125 2.679687-3.300782-1.824218-4.5-5.972656-2.679688-9.28125 16.035156-29.050781 20.90625-62.925781 13.734375-95.371094-16.25-73.507812-89.269531-120.074218-162.792969-103.835937-73.507812 16.253906-120.085937 89.28125-103.835937 162.796875 16.253906 73.511719 89.3125 120.097656 162.792969 103.832031 19.863281-4.386719 38.015624-12.875 53.976562-25.207031 2.976562-2.3125 7.265625-1.761719 9.570312 1.226562 2.308594 2.980469 1.761719 7.265626-1.226562 9.574219-17.558594 13.578125-37.53125 22.914063-59.371094 27.738281-10.875 2.402344-21.75 3.5625-32.445312 3.5625zm0 0" fill="#4c241d"/><path d="m323.902344 362.460938c-1.707032 0-3.40625-.636719-4.734375-1.90625-2.710938-2.613282-2.800781-6.933594-.183594-9.65625 3.183594-3.3125 6.253906-6.84375 9.105469-10.496094 2.3125-2.980469 6.605468-3.507813 9.578125-1.179688 2.976562 2.316406 3.503906 6.605469 1.179687 9.578125-3.140625 4.027344-6.511718 7.914063-10.023437 11.566407-1.339844 1.390624-3.128907 2.09375-4.921875 2.09375zm0 0" fill="#4c241d"/><path d="m337.003906 252.824219c0-27.503907-20.035156-49.804688-44.75-49.804688-24.710937 0-44.746094 22.300781-44.746094 49.804688 0 27.507812 20.035157 49.804687 44.746094 49.804687 24.714844 0 44.75-22.296875 44.75-49.804687zm0 0" fill="#fff"/><path d="m292.253906 309.457031c-28.4375 0-51.570312-25.40625-51.570312-56.632812 0-31.226563 23.132812-56.632813 51.570312-56.632813 28.441406 0 51.574219 25.40625 51.574219 56.632813 0 31.226562-23.132813 56.632812-51.574219 56.632812zm0-99.609375c-20.90625 0-37.917968 19.277344-37.917968 42.980469 0 23.699219 17.011718 42.980469 37.917968 42.980469 20.910156 0 37.921875-19.28125 37.921875-42.980469 0-23.703125-17.011719-42.980469-37.921875-42.980469zm0 0" fill="#4c241d"/><path d="m315.335938 252.824219c0-14.1875-10.335938-25.6875-23.082032-25.6875s-23.078125 11.5-23.078125 25.6875 10.332031 25.6875 23.078125 25.6875 23.082032-11.5 23.082032-25.6875zm0 0" fill="#9dc1e4"/><path d="m292.253906 285.339844c-16.492187 0-29.90625-14.589844-29.90625-32.515625s13.414063-32.511719 29.90625-32.511719c16.496094 0 29.90625 14.585938 29.90625 32.511719s-13.410156 32.515625-29.90625 32.515625zm0-51.375c-8.957031 0-16.25 8.460937-16.25 18.863281 0 10.398437 7.292969 18.859375 16.25 18.859375 8.960938 0 16.253906-8.460938 16.253906-18.859375 0-10.402344-7.292968-18.863281-16.253906-18.863281zm0 0" fill="#4c241d"/><path d="m322.976562 232.34375c0 5.65625-4.585937 10.242188-10.242187 10.242188s-10.238281-4.585938-10.238281-10.242188 4.582031-10.238281 10.238281-10.238281 10.242187 4.582031 10.242187 10.238281zm0 0" fill="#fff"/><path d="m193.644531 252.824219c0-27.503907-20.035156-49.804688-44.75-49.804688-24.714843 0-44.746093 22.300781-44.746093 49.804688 0 27.507812 20.03125 49.804687 44.746093 49.804687 24.714844 0 44.75-22.296875 44.75-49.804687zm0 0" fill="#fff"/><path d="m148.894531 309.457031c-28.4375 0-51.574219-25.40625-51.574219-56.632812 0-31.226563 23.136719-56.632813 51.574219-56.632813 28.441407 0 51.574219 25.40625 51.574219 56.632813 0 31.226562-23.132812 56.632812-51.574219 56.632812zm0-99.609375c-20.90625 0-37.917969 19.277344-37.917969 42.980469 0 23.699219 17.011719 42.980469 37.917969 42.980469s37.921875-19.28125 37.921875-42.980469c0-23.703125-17.015625-42.980469-37.921875-42.980469zm0 0" fill="#4c241d"/><path d="m171.976562 252.824219c0-14.1875-10.335937-25.6875-23.082031-25.6875-12.746093 0-23.078125 11.5-23.078125 25.6875s10.332032 25.6875 23.078125 25.6875c12.746094 0 23.082031-11.5 23.082031-25.6875zm0 0" fill="#9dc1e4"/><path d="m148.894531 285.339844c-16.492187 0-29.90625-14.589844-29.90625-32.515625s13.414063-32.511719 29.90625-32.511719c16.496094 0 29.90625 14.585938 29.90625 32.511719s-13.410156 32.515625-29.90625 32.515625zm0-51.375c-8.960937 0-16.25 8.460937-16.25 18.863281 0 10.398437 7.289063 18.859375 16.25 18.859375 8.960938 0 16.253907-8.460938 16.253907-18.859375 0-10.402344-7.292969-18.863281-16.253907-18.863281zm0 0" fill="#4c241d"/><path d="m179.617188 232.34375c0 5.65625-4.585938 10.242188-10.242188 10.242188s-10.238281-4.585938-10.238281-10.242188 4.582031-10.238281 10.238281-10.238281 10.242188 4.582031 10.242188 10.238281zm0 0" fill="#fff"/><path d="m241.054688 78.746094c-20.480469 0-76-.105469-76 72.632812 0 17.214844 14.148437 53.28125 44.164062 51.953125 38.664062-1.707031 33.449219-41.5625 33.769531-41.5625 25.824219 0 46.757813-17.445312 46.757813-38.96875 0-21.519531-28.210938-44.054687-48.691406-44.054687zm0 0" fill="#ffded5"/><path d="m207.640625 210.191406c-10.804687 0-20.867187-4.171875-29.199219-12.144531-13.265625-12.695313-20.210937-33.089844-20.210937-46.667969 0-33.734375 11.363281-57.128906 33.773437-69.527344 17.90625-9.90625 38.023438-9.933593 48.886719-9.933593h.078125l.089844 6.828125v-6.828125c23.726562 0 55.519531 25.160156 55.519531 50.886719 0 23.28125-20.429687 42.554687-46.765625 45.425781-1.097656 25.441406-15.824219 40.84375-40.292969 41.921875-.628906.027344-1.25.039062-1.878906.039062zm33.25-124.621094c-9.628906 0-27.453125.027344-42.273437 8.226563-17.742188 9.8125-26.734376 29.1875-26.734376 57.582031 0 8.925782 4.964844 26.238282 16 36.796875 6.132813 5.875 13.007813 8.699219 21.03125 8.335938 23.667969-1.046875 27.886719-18.886719 27.261719-33.667969-.050781-1.28125-.152343-3.667969 1.882813-5.796875 1.285156-1.34375 3.070312-2.105469 4.933594-2.105469 22.019531 0 39.929687-14.417968 39.929687-32.140625 0-17.617187-24.953125-37.230469-41.863281-37.230469h-.089844c-.027344 0-.054688 0-.078125 0zm2.097656 76.203126h.066407zm0 0" fill="#4c241d"/><path d="m213.75 174.316406s14.703125-20.128906 34.132812-13.652344" fill="#ffded5"/><path d="m213.742188 181.132812c-1.398438 0-2.816407-.433593-4.03125-1.324218-3.027344-2.234375-3.691407-6.480469-1.472657-9.515625.714844-.980469 17.914063-24.085938 41.804688-16.101563 3.574219 1.1875 5.507812 5.054688 4.3125 8.636719-1.191407 3.574219-5.023438 5.519531-8.632813 4.3125-14.40625-4.792969-26.359375 11.058594-26.472656 11.226563-1.347656 1.804687-3.414062 2.765624-5.507812 2.765624zm0 0" fill="#4c241d"/><path d="m234.191406 310.851562v16.554688c0 9.402344-7.625 17.027344-17.027344 17.027344-9.402343 0-17.027343-7.625-17.027343-17.027344v-16.554688zm0 0" fill="#e66353"/><path d="m217.164062 351.257812c-13.15625 0-23.855468-10.699218-23.855468-23.851562v-16.554688c0-3.773437 3.050781-6.828124 6.824218-6.828124h34.054688c3.773438 0 6.828125 3.054687 6.828125 6.828124v16.554688c0 13.152344-10.699219 23.851562-23.851563 23.851562zm-10.199218-33.578124v9.726562c0 5.625 4.570312 10.199219 10.199218 10.199219 5.625 0 10.199219-4.574219 10.199219-10.199219v-9.726562zm0 0" fill="#4c241d"/></svg>