<svg height="415pt" viewBox="0 -1 415.17752 415" width="415pt" xmlns="http://www.w3.org/2000/svg"><path d="m315.769531 256.089844c0 84.828125-68.769531 153.597656-153.601562 153.597656-84.828125 0-153.597657-68.769531-153.597657-153.597656 0-84.832032 68.769532-153.601563 153.597657-153.601563 84.832031 0 153.601562 68.769531 153.601562 153.601563zm0 0" fill="#c1dbdc"/><path d="m227.820312 111.953125c80.78125 0 146.269532 66.0625 146.269532 147.550781h-292.539063c0-81.488281 65.488281-147.550781 146.269531-147.550781zm0 0" fill="#bd53b5"/><path d="m374.085938 266.328125h-292.535157c-3.769531 0-6.824219-3.054687-6.824219-6.824219 0-85.125 68.675782-154.375 153.089844-154.375 84.417969 0 153.097656 69.25 153.097656 154.375 0 3.769532-3.054687 6.824219-6.828124 6.824219zm-285.542969-13.652344h278.554687c-3.535156-74.4375-64.65625-133.894531-139.277344-133.894531-74.621093 0-135.742187 59.457031-139.277343 133.894531zm0 0" fill="#4c241d"/><path d="m107.652344 343.652344c-16.453125-23.867188-26.101563-52.871094-26.101563-84.148438h292.539063c0 81.488282-65.488282 147.546875-146.269532 147.546875-25.390624 0-49.269531-6.523437-70.082031-18.003906" fill="#fff"/><path d="m227.816406 413.875c-25.644531 0-51.019531-6.515625-73.375-18.851562-3.304687-1.820313-4.503906-5.972657-2.679687-9.273438 1.816406-3.304688 5.96875-4.507812 9.273437-2.679688 20.34375 11.21875 43.4375 17.152344 66.785156 17.152344 74.625 0 135.742188-59.457031 139.277344-133.890625h-278.558594c1.25 26.425781 9.734376 51.6875 24.734376 73.445313 2.136718 3.101562 1.359374 7.355468-1.746094 9.492187-3.097656 2.136719-7.355469 1.359375-9.496094-1.746093-17.863281-25.910157-27.304688-56.351563-27.304688-88.019532 0-3.769531 3.054688-6.828125 6.828126-6.828125h292.535156c3.769531 0 6.828125 3.058594 6.828125 6.828125-.003907 85.121094-68.683594 154.371094-153.101563 154.371094zm0 0" fill="#4c241d"/><path d="m135.992188 381.1875c-1.515626 0-3.039063-.5-4.304688-1.535156-3.507812-2.851563-6.933594-5.90625-10.191406-9.074219-2.703125-2.632813-2.761719-6.953125-.132813-9.652344 2.632813-2.707031 6.953125-2.761719 9.652344-.132812 2.96875 2.886719 6.097656 5.675781 9.289063 8.277343 2.925781 2.378907 3.363281 6.679688.984374 9.601563-1.351562 1.652344-3.316406 2.515625-5.296874 2.515625zm0 0" fill="#4c241d"/><path d="m274.542969 260.78125c0 25.804688-20.917969 46.722656-46.722657 46.722656-25.804687 0-46.722656-20.917968-46.722656-46.722656s20.917969-46.722656 46.722656-46.722656c25.804688 0 46.722657 20.917968 46.722657 46.722656zm0 0" fill="#edebdc"/><path d="m227.816406 314.332031c-29.527344 0-53.546875-24.023437-53.546875-53.550781 0-29.53125 24.019531-53.550781 53.546875-53.550781 29.53125 0 53.554688 24.019531 53.554688 53.550781 0 29.527344-24.023438 53.550781-53.554688 53.550781zm0-93.449219c-22 0-39.894531 17.898438-39.894531 39.902344 0 22 17.894531 39.894532 39.894531 39.894532 22.003906 0 39.902344-17.894532 39.902344-39.894532 0-22.003906-17.898438-39.902344-39.902344-39.902344zm0 0" fill="#4c241d"/><path d="m248.160156 260.78125c0 11.234375-9.105468 20.339844-20.339844 20.339844-11.234374 0-20.339843-9.105469-20.339843-20.339844s9.105469-20.339844 20.339843-20.339844c11.234376 0 20.339844 9.105469 20.339844 20.339844zm0 0" fill="#edebdc"/><g fill="#4c241d"><path d="m227.816406 287.949219c-14.976562 0-27.164062-12.1875-27.164062-27.167969s12.1875-27.164062 27.164062-27.164062c14.980469 0 27.167969 12.183593 27.167969 27.164062s-12.183594 27.167969-27.167969 27.167969zm0-40.679688c-7.449218 0-13.511718 6.0625-13.511718 13.511719s6.0625 13.515625 13.511718 13.515625c7.449219 0 13.515625-6.066406 13.515625-13.515625s-6.0625-13.511719-13.515625-13.511719zm0 0"/><path d="m363.554688 54.703125c-3.769532 0-6.824219-3.058594-6.824219-6.828125v-20.480469c0-3.769531 3.054687-6.824219 6.824219-6.824219 3.769531 0 6.828124 3.054688 6.828124 6.824219v20.480469c0 3.769531-3.058593 6.828125-6.828124 6.828125zm0 0"/><path d="m363.554688 102.488281c-3.769532 0-6.824219-3.054687-6.824219-6.828125v-20.476562c0-3.773438 3.054687-6.828125 6.824219-6.828125 3.769531 0 6.828124 3.054687 6.828124 6.828125v20.476562c0 3.773438-3.058593 6.828125-6.828124 6.828125zm0 0"/><path d="m349.902344 68.355469h-20.480469c-3.769531 0-6.824219-3.058594-6.824219-6.828125 0-3.769532 3.054688-6.824219 6.824219-6.824219h20.480469c3.769531 0 6.828125 3.054687 6.828125 6.824219 0 3.769531-3.058594 6.828125-6.828125 6.828125zm0 0"/><path d="m397.6875 68.355469h-20.476562c-3.773438 0-6.828126-3.058594-6.828126-6.828125 0-3.769532 3.054688-6.824219 6.828126-6.824219h20.476562c3.773438 0 6.828125 3.054687 6.828125 6.824219 0 3.769531-3.054687 6.828125-6.828125 6.828125zm0 0"/><path d="m21.039062 209.480469c-3.417968 0-6.804687-.84375-9.90625-2.5-4.957031-2.65625-8.589843-7.082031-10.21875-12.464844-1.628906-5.378906-1.070312-11.078125 1.585938-16.035156 2.652344-4.960938 7.078125-8.589844 12.460938-10.21875 11.105468-3.371094 22.886718 2.933593 26.257812 14.042969 3.367188 11.109374-2.933594 22.890624-14.042969 26.261718-2.019531.609375-4.085937.914063-6.136719.914063zm.023438-28.476563c-.710938 0-1.429688.105469-2.144531.324219-1.890625.570313-3.445313 1.847656-4.378907 3.589844-.933593 1.742187-1.128906 3.746093-.554687 5.640625.570313 1.894531 1.847656 3.449218 3.589844 4.378906 1.742187.933594 3.753906 1.132812 5.640625.558594 3.90625-1.183594 6.121094-5.328125 4.9375-9.234375-.96875-3.191407-3.914063-5.257813-7.089844-5.257813zm0 0"/><path d="m34.554688 42.203125c-11.609376 0-21.054688-9.445313-21.054688-21.058594 0-11.609375 9.445312-21.0546872 21.054688-21.0546872 11.609374 0 21.058593 9.4453122 21.058593 21.0546872 0 11.613281-9.449219 21.058594-21.058593 21.058594zm0-28.460937c-4.082032 0-7.402344 3.320312-7.402344 7.402343 0 4.085938 3.320312 7.40625 7.402344 7.40625 4.085937 0 7.402343-3.320312 7.402343-7.40625 0-4.082031-3.316406-7.402343-7.402343-7.402343zm0 0"/><path d="m92.242188 93.824219c-1.746094 0-3.492188-.664063-4.828126-2-2.664062-2.664063-2.664062-6.984375 0-9.652344l20.128907-20.125c2.664062-2.667969 6.988281-2.667969 9.652343 0 2.664063 2.664063 2.664063 6.984375 0 9.652344l-20.125 20.125c-1.335937 1.335937-3.082031 2-4.828124 2zm0 0"/><path d="m112.367188 93.824219c-1.746094 0-3.492188-.664063-4.824219-2l-20.128907-20.125c-2.664062-2.667969-2.664062-6.988281 0-9.652344 2.667969-2.667969 6.988282-2.667969 9.65625 0l20.125 20.125c2.664063 2.667969 2.664063 6.988281 0 9.652344-1.332031 1.335937-3.082031 2-4.828124 2zm0 0"/><path d="m224.03125 33.171875c0 6.285156-5.097656 11.382813-11.386719 11.382813-6.285156 0-11.382812-5.097657-11.382812-11.382813 0-6.289063 5.097656-11.386719 11.382812-11.386719 6.289063 0 11.386719 5.097656 11.386719 11.386719zm0 0"/><path d="m415.175781 176.53125c0 6.289062-5.09375 11.382812-11.382812 11.382812-6.289063 0-11.386719-5.09375-11.386719-11.382812s5.097656-11.386719 11.386719-11.386719c6.289062 0 11.382812 5.097657 11.382812 11.386719zm0 0"/></g><path d="m339.382812 130.480469c-24.644531-17.394531-55.191406-16.507813-68.238281 1.972656-13.042969 18.480469-3.640625 47.5625 21.003907 64.953125 24.640624 17.394531 55.191406 16.507812 68.234374-1.972656 13.042969-18.480469 3.640626-47.5625-21-64.953125zm0 0" fill="#9dc1e4"/><path d="m329.0625 216.625c-13.351562 0-27.886719-4.507812-40.847656-13.652344-27.675782-19.535156-37.835938-52.941406-22.644532-74.472656 15.191407-21.527344 50.0625-23.152344 77.75-3.613281 27.679688 19.53125 37.839844 52.9375 22.644532 74.46875-8.082032 11.449219-21.730469 17.269531-36.902344 17.269531zm-26.726562-91.882812c-10.742188 0-20.140626 3.882812-25.613282 11.632812-10.847656 15.375-2.164062 40.25 19.367188 55.441406 21.53125 15.195313 47.871094 15.039063 58.722656-.335937 10.847656-15.375 2.164062-40.25-19.367188-55.441407-10.671874-7.53125-22.539062-11.296874-33.109374-11.296874zm0 0" fill="#4c241d"/><path d="m182.890625 132.429688c-13.042969-18.484376-43.59375-19.367188-68.238281-1.976563-24.640625 17.394531-34.042969 46.472656-21 64.957031 13.042968 18.480469 43.59375 19.363282 68.238281 1.972656 24.640625-17.390624 34.042969-46.472656 21-64.953124zm0 0" fill="#9dc1e4"/><path d="m124.980469 216.625c-15.175781 0-28.824219-5.820312-36.902344-17.269531-15.191406-21.53125-5.035156-54.9375 22.644531-74.46875 27.683594-19.539063 62.558594-17.90625 77.75 3.613281 15.191406 21.53125 5.03125 54.9375-22.644531 74.472656-12.957031 9.144532-27.492187 13.652344-40.847656 13.652344zm26.726562-91.882812c-10.566406 0-22.433593 3.761718-33.109375 11.296874-21.527344 15.191407-30.214844 40.066407-19.363281 55.441407 10.847656 15.375 37.191406 15.53125 58.722656.335937 21.523438-15.191406 30.210938-40.066406 19.363281-55.441406-5.472656-7.75-14.875-11.632812-25.613281-11.632812zm0 0" fill="#4c241d"/><path d="m250.921875 194.648438c-2.507813.003906-4.917969-1.378907-6.113281-3.773438l-6.6875-13.375-5.421875 8.136719c-2.53125 3.800781-8.824219 3.800781-11.359375 0l-5.417969-8.136719-6.6875 13.375c-1.6875 3.375-5.785156 4.746094-9.160156 3.054688-3.375-1.6875-4.738281-5.789063-3.054688-9.160157l11.949219-23.894531c1.089844-2.175781 3.25-3.609375 5.683594-3.757812 2.398437-.152344 4.753906 1.003906 6.101562 3.023437l6.265625 9.402344 6.269531-9.402344c1.34375-2.023437 3.691407-3.183594 6.101563-3.023437 2.429687.148437 4.59375 1.582031 5.683594 3.757812l11.945312 23.894531c1.6875 3.375.320313 7.472657-3.050781 9.160157-.980469.492187-2.023438.71875-3.046875.71875zm0 0" fill="#4c241d"/></svg>