<svg height="426pt" viewBox="0 -6 426.45333 426" width="426pt" xmlns="http://www.w3.org/2000/svg"><path d="m315.625 201.613281c0 84.832031-68.769531 153.601563-153.597656 153.601563-84.832032 0-153.601563-68.769532-153.601563-153.601563s68.769531-153.601562 153.601563-153.601562c84.828125 0 153.597656 68.769531 153.597656 153.601562zm0 0" fill="#c1dbdc"/><g fill="#4c241d"><path d="m64.511719 39.714844c-1.746094 0-3.492188-.667969-4.828125-2-2.664063-2.667969-2.664063-6.988282 0-9.652344l12.457031-12.457031c2.664063-2.664063 6.984375-2.664063 9.652344 0 2.664062 2.667969 2.664062 6.988281 0 9.65625l-12.453125 12.453125c-1.335938 1.332031-3.082032 2-4.828125 2zm0 0"/><path d="m35.460938 68.765625c-1.746094 0-3.496094-.667969-4.828126-2-2.664062-2.664063-2.664062-6.988281 0-9.652344l12.453126-12.453125c2.667968-2.667968 6.988281-2.667968 9.652343 0 2.667969 2.664063 2.667969 6.988282 0 9.652344l-12.453125 12.453125c-1.332031 1.335937-3.078125 2-4.824218 2zm0 0"/><path d="m47.914062 39.714844c-1.746093 0-3.496093-.667969-4.828124-2l-12.453126-12.453125c-2.664062-2.667969-2.664062-6.988281 0-9.65625 2.664063-2.664063 6.988282-2.664063 9.652344 0l12.453125 12.457031c2.667969 2.664062 2.667969 6.984375 0 9.652344-1.332031 1.332031-3.078125 2-4.824219 2zm0 0"/><path d="m76.964844 68.765625c-1.746094 0-3.492188-.667969-4.824219-2l-12.457031-12.453125c-2.664063-2.664062-2.664063-6.988281 0-9.652344 2.667968-2.667968 6.988281-2.667968 9.65625 0l12.453125 12.453125c2.664062 2.664063 2.664062 6.988281 0 9.652344-1.332031 1.335937-3.078125 2-4.828125 2zm0 0"/><path d="m41.375 414.414062c-3.417969 0-6.800781-.839843-9.902344-2.492187-4.964844-2.65625-8.589844-7.085937-10.21875-12.476563-1.628906-5.371093-1.070312-11.070312 1.582032-16.03125 2.65625-4.960937 7.078124-8.585937 12.460937-10.222656 11.117187-3.351562 22.894531 2.933594 26.261719 14.046875 1.628906 5.378907 1.070312 11.082031-1.585938 16.039063-2.652344 4.960937-7.074218 8.585937-12.460937 10.21875-2.019531.617187-4.082031.917968-6.136719.917968zm.023438-28.472656c-.710938 0-1.429688.105469-2.144532.320313-3.90625 1.183593-6.117187 5.324219-4.9375 9.230469.574219 1.894531 1.851563 3.453124 3.59375 4.386718 1.742188.933594 3.757813 1.128906 5.640625.554688 1.890625-.574219 3.449219-1.847656 4.378907-3.59375.933593-1.746094 1.128906-3.746094.558593-5.640625-.96875-3.191407-3.910156-5.257813-7.089843-5.257813zm0 0"/><path d="m382.574219 42.339844c-11.613281 0-21.058594-9.445313-21.058594-21.054688 0-11.613281 9.445313-21.058594 21.058594-21.058594 11.609375 0 21.054687 9.445313 21.054687 21.058594 0 11.609375-9.445312 21.054688-21.054687 21.054688zm0-28.460938c-4.085938 0-7.40625 3.320313-7.40625 7.40625 0 4.082032 3.320312 7.402344 7.40625 7.402344 4.082031 0 7.402343-3.320312 7.402343-7.402344 0-4.085937-3.320312-7.40625-7.402343-7.40625zm0 0"/><path d="m303.027344 28.113281c0 5.082031-4.121094 9.199219-9.203125 9.199219s-9.203125-4.117188-9.203125-9.199219 4.121094-9.203125 9.203125-9.203125 9.203125 4.121094 9.203125 9.203125zm0 0"/><path d="m36.789062 308.003906c0 5.082032-4.121093 9.203125-9.203124 9.203125-5.082032 0-9.203126-4.121093-9.203126-9.203125 0-5.082031 4.121094-9.199218 9.203126-9.199218 5.082031 0 9.203124 4.117187 9.203124 9.199218zm0 0"/><path d="m385.644531 394.332031c-1.746093 0-3.492187-.664062-4.824219-2-2.667968-2.664062-2.667968-6.984375 0-9.652343l20.125-20.121094c2.664063-2.664063 6.988282-2.664063 9.652344 0 2.667969 2.667968 2.667969 6.988281 0 9.65625l-20.125 20.117187c-1.332031 1.335938-3.078125 2-4.828125 2zm0 0"/><path d="m405.773438 394.332031c-1.746094 0-3.496094-.664062-4.828126-2l-20.125-20.117187c-2.667968-2.667969-2.667968-6.988282 0-9.65625 2.660157-2.664063 6.984376-2.664063 9.652344 0l20.125 20.121094c2.667969 2.667968 2.667969 6.988281 0 9.652343-1.328125 1.335938-3.078125 2-4.824218 2zm0 0"/></g><path d="m281.449219 357.734375c-20.171875 17.253906-43.910157 28.136719-68.222657 28.136719-64.84375 0-125.558593-77.367188-125.558593-146.710938s60.714843-146.710937 125.558593-146.710937c64.839844 0 125.558594 77.367187 125.558594 146.710937 0 26.585938-8.925781 54.355469-23.585937 78.484375" fill="#ffec95"/><path d="m213.226562 392.695312c-71.296874 0-132.382812-84.421874-132.382812-153.535156 0-69.113281 61.085938-153.535156 132.382812-153.535156 71.296876 0 132.382813 84.421875 132.382813 153.535156 0 26.8125-8.730469 55.945313-24.582031 82.03125-1.953125 3.222656-6.152344 4.246094-9.375 2.289063-3.222656-1.960938-4.25-6.152344-2.289063-9.378907 14.570313-23.980468 22.59375-50.597656 22.59375-74.941406 0-69.289062-59.921875-139.878906-118.730469-139.878906-58.8125 0-118.730468 70.589844-118.730468 139.878906 0 69.285156 59.917968 139.878906 118.730468 139.878906 21.46875 0 43.527344-9.160156 63.785157-26.492187 2.867187-2.445313 7.175781-2.113281 9.625.75 2.449219 2.867187 2.117187 7.171875-.75 9.625-22.765625 19.480469-47.890625 29.773437-72.660157 29.773437zm0 0" fill="#4c241d"/><path d="m303.820312 334.164062c-3.039062 3.914063-6.238281 7.675782-9.574218 11.265626" fill="#b5a19c"/><path d="m294.246094 352.253906c-1.667969 0-3.332032-.605468-4.648438-1.824218-2.761718-2.570313-2.917968-6.886719-.347656-9.648438 3.179688-3.417969 6.269531-7.054688 9.183594-10.804688 2.316406-2.972656 6.609375-3.519531 9.578125-1.195312 2.976562 2.3125 3.515625 6.601562 1.199219 9.582031-3.164063 4.058594-6.515626 8.003907-9.96875 11.710938-1.34375 1.445312-3.167969 2.179687-4.996094 2.179687zm0 0" fill="#4c241d"/><path d="m305.214844 274.648438c0-15.496094-8.125-28.0625-18.148438-28.0625-10.023437 0-18.148437 12.566406-18.148437 28.0625 0 15.5 8.125 28.0625 18.148437 28.0625 10.023438 0 18.148438-12.5625 18.148438-28.0625zm0 0" fill="#6b4f5b"/><path d="m287.066406 309.542969c-14.003906 0-24.972656-15.328125-24.972656-34.894531 0-19.558594 10.96875-34.886719 24.972656-34.886719s24.972656 15.328125 24.972656 34.886719c0 19.566406-10.96875 34.894531-24.972656 34.894531zm0-56.128907c-5.34375 0-11.320312 9.078126-11.320312 21.234376 0 12.152343 5.976562 21.238281 11.320312 21.238281s11.320313-9.085938 11.320313-21.238281c0-12.15625-5.976563-21.234376-11.320313-21.234376zm0 0" fill="#4c241d"/><path d="m119.304688 94.144531c-13.328126-13.332031-37.101563-11.167969-53.097657 4.828125-15.996093 15.992188-18.15625 39.765625-4.828125 53.097656 13.332032 13.328126 37.105469 11.167969 53.101563-4.828124 15.996093-15.996094 18.15625-39.769532 4.824219-53.097657zm0 0" fill="#f53e28"/><path d="m83.457031 167.640625c-10.464843 0-19.898437-3.738281-26.902343-10.746094-7.90625-7.902343-11.652344-18.90625-10.554688-30.992187 1.054688-11.617188 6.515625-22.894532 15.382812-31.753906 8.863282-8.867188 20.144532-14.328126 31.757813-15.386719 12.046875-1.121094 23.085937 2.652343 30.992187 10.558593 7.910157 7.90625 11.65625 18.90625 10.558594 30.996094-1.054687 11.613282-6.519531 22.890625-15.382812 31.75-8.863282 8.867188-20.144532 14.328125-31.761719 15.386719-1.375.128906-2.742187.1875-4.089844.1875zm13.730469-75.414063c-.925781 0-1.863281.046876-2.808594.132813-8.441406.765625-16.730468 4.828125-23.34375 11.441406-6.609375 6.605469-10.667968 14.898438-11.4375 23.339844-.722656 7.972656 1.621094 15.113281 6.613282 20.097656 4.988281 4.996094 12.105468 7.335938 20.105468 6.613281 8.4375-.765624 16.730469-4.824218 23.339844-11.4375 6.609375-6.609374 10.671875-14.902343 11.441406-23.34375.722656-7.972656-1.625-15.109374-6.613281-20.097656-4.398437-4.398437-10.464844-6.746094-17.296875-6.746094zm0 0" fill="#4c241d"/><path d="m353.410156 98.972656c-15.996094-15.996094-39.769531-18.15625-53.097656-4.828125-13.328125 13.332031-11.167969 37.105469 4.828125 53.097657 15.996094 15.996093 39.765625 18.160156 53.097656 4.828124 13.328125-13.328124 11.167969-37.101562-4.828125-53.097656zm0 0" fill="#f53e28"/><path d="m336.167969 167.640625c-1.347657 0-2.710938-.058594-4.089844-.1875-11.617187-1.058594-22.898437-6.519531-31.761719-15.386719-8.863281-8.859375-14.328125-20.140625-15.382812-31.75-1.097656-12.089844 2.648437-23.089844 10.558594-30.996094 7.902343-7.90625 18.933593-11.671874 30.992187-10.558593 11.617187 1.058593 22.894531 6.519531 31.757813 15.386719 8.863281 8.859374 14.328124 20.140624 15.382812 31.753906 1.097656 12.085937-2.648438 23.089844-10.554688 30.992187-7 7.007813-16.441406 10.746094-26.902343 10.746094zm-13.730469-75.414063c-6.832031 0-12.898438 2.347657-17.296875 6.746094-4.988281 4.988282-7.335937 12.125-6.613281 20.097656.769531 8.441407 4.832031 16.734376 11.441406 23.34375 6.609375 6.613282 14.898438 10.671876 23.339844 11.4375 7.992187.726563 15.113281-1.617187 20.105468-6.613281 4.992188-4.984375 7.335938-12.125 6.613282-20.097656-.769532-8.441406-4.828125-16.734375-11.4375-23.339844-6.613282-6.613281-14.902344-10.675781-23.34375-11.441406-.945313-.085937-1.882813-.132813-2.808594-.132813zm-22.121094 1.921876h.066406zm0 0" fill="#4c241d"/><path d="m155.027344 274.648438c0-15.496094-8.125-28.0625-18.148438-28.0625-10.019531 0-18.144531 12.566406-18.144531 28.0625 0 15.5 8.125 28.0625 18.144531 28.0625 10.023438 0 18.148438-12.5625 18.148438-28.0625zm0 0" fill="#6b4f5b"/><path d="m136.878906 309.542969c-14.003906 0-24.972656-15.328125-24.972656-34.894531 0-19.558594 10.96875-34.886719 24.972656-34.886719s24.972656 15.328125 24.972656 34.886719c0 19.566406-10.96875 34.894531-24.972656 34.894531zm0-56.128907c-5.34375 0-11.320312 9.078126-11.320312 21.234376 0 12.152343 5.976562 21.238281 11.320312 21.238281s11.320313-9.085938 11.320313-21.238281c0-12.15625-5.976563-21.234376-11.320313-21.234376zm0 0" fill="#4c241d"/><path d="m386.636719 166.03125c-9.792969-3.886719-19.421875-8.859375-25.140625-14.808594-36.605469-38.039062-93.578125-90.835937-148.269532-90.835937-54.695312 0-111.667968 52.796875-148.269531 90.835937-5.722656 5.949219-15.351562 10.921875-25.140625 14.808594-19.921875 7.914062-32.988281 27.164062-32.988281 48.597656 0 6.007813 4.867187 10.878906 10.875 10.878906h391.046875c6.003906 0 10.875-4.871093 10.875-10.878906 0-21.433594-13.066406-40.683594-32.988281-48.597656zm0 0" fill="#a9ba5a"/><path d="m408.75 232.332031h-391.046875c-9.761719 0-17.703125-7.9375-17.703125-17.707031 0-24.371094 14.640625-45.9375 37.296875-54.9375 10.644531-4.234375 18.511719-8.792969 22.742187-13.191406 38.390626-39.894532 96.035157-92.9375 153.1875-92.9375 57.152344 0 114.796876 53.042968 153.1875 92.933594 4.230469 4.402343 12.09375 8.960937 22.742188 13.195312 22.65625 8.996094 37.296875 30.566406 37.296875 54.9375 0 9.769531-7.945313 17.707031-17.703125 17.707031zm-195.523438-165.117187c-51.945312 0-106.691406 50.644531-143.347656 88.746094-5.652344 5.871093-14.917968 11.398437-27.539062 16.417968-17.425782 6.921875-28.6875 23.5-28.6875 42.246094 0 2.234375 1.816406 4.054688 4.050781 4.054688h391.046875c2.230469 0 4.046875-1.820313 4.046875-4.054688 0-18.746094-11.257813-35.324219-28.683594-42.246094h-.003906c-12.621094-5.019531-21.882813-10.546875-27.539063-16.417968-36.652343-38.101563-91.402343-88.746094-143.34375-88.746094zm0 0" fill="#4c241d"/><path d="m170.421875 259.640625c0 6.523437-5.285156 11.808594-11.808594 11.808594-6.523437 0-11.8125-5.285157-11.8125-11.808594s5.289063-11.8125 11.8125-11.8125c6.523438 0 11.808594 5.289063 11.808594 11.8125zm0 0" fill="#fff"/><path d="m279.648438 259.640625c0 6.523437-5.285157 11.808594-11.808594 11.808594-6.523438 0-11.8125-5.285157-11.8125-11.808594s5.289062-11.8125 11.8125-11.8125c6.523437 0 11.808594 5.289063 11.808594 11.8125zm0 0" fill="#fff"/><path d="m172.257812 382.519531c-1.023437 0-2.066406-.234375-3.046874-.71875-26.429688-13.214843-22.480469-38.5625-16.703126-50.121093 1.683594-3.375 5.773438-4.730469 9.15625-3.054688 3.367188 1.679688 4.730469 5.769531 3.070313 9.136719-1.070313 2.183593-9.808594 21.632812 10.585937 31.824219 3.371094 1.6875 4.738282 5.789062 3.050782 9.160156-1.195313 2.394531-3.605469 3.773437-6.113282 3.773437zm0 0" fill="#4c241d"/></svg>