<svg height="422pt" viewBox="-9 0 422 422.05462" width="422pt" xmlns="http://www.w3.org/2000/svg"><path d="m314.328125 249.179688c0 84.832031-68.769531 153.601562-153.601563 153.601562-84.832031 0-153.601562-68.769531-153.601562-153.601562 0-84.828126 68.769531-153.597657 153.601562-153.597657 84.832032 0 153.601563 68.769531 153.601563 153.597657zm0 0" fill="#c1dbdc"/><g fill="#4c241d"><path d="m35.90625 39.496094c-1.746094 0-3.492188-.667969-4.828125-2-2.664063-2.667969-2.664063-6.988282 0-9.652344l12.453125-12.457031c2.667969-2.664063 6.988281-2.664063 9.65625 0 2.664062 2.667969 2.664062 6.988281 0 9.65625l-12.457031 12.453125c-1.332031 1.332031-3.078125 2-4.824219 2zm0 0"/><path d="m6.851562 68.546875c-1.746093 0-3.492187-.667969-4.824218-2-2.667969-2.667969-2.667969-6.988281 0-9.652344l12.453125-12.453125c2.664062-2.667968 6.988281-2.667968 9.652343 0 2.667969 2.664063 2.667969 6.988282 0 9.652344l-12.453124 12.453125c-1.332032 1.335937-3.082032 2-4.828126 2zm0 0"/><path d="m19.308594 39.496094c-1.746094 0-3.496094-.667969-4.828125-2l-12.453125-12.453125c-2.667969-2.667969-2.667969-6.988281 0-9.65625 2.664062-2.664063 6.988281-2.664063 9.652344 0l12.453124 12.457031c2.667969 2.664062 2.667969 6.984375 0 9.652344-1.332031 1.332031-3.082031 2-4.824218 2zm0 0"/><path d="m48.359375 68.546875c-1.746094 0-3.492187-.667969-4.828125-2l-12.453125-12.453125c-2.664063-2.664062-2.664063-6.988281 0-9.652344 2.667969-2.667968 6.988281-2.667968 9.652344 0l12.457031 12.453125c2.664062 2.664063 2.664062 6.988281 0 9.652344-1.335938 1.335937-3.082031 2-4.828125 2zm0 0"/><path d="m33.25 421.027344c-3.417969 0-6.800781-.84375-9.902344-2.503906-4.960937-2.652344-8.589844-7.078126-10.222656-12.460938-1.628906-5.378906-1.066406-11.078125 1.585938-16.035156 2.652343-4.960938 7.078124-8.589844 12.464843-10.222656 11.101563-3.367188 22.886719 2.933593 26.253907 14.046874 3.367187 11.109376-2.933594 22.886719-14.042969 26.257813-2.019531.613281-4.082031.917969-6.136719.917969zm.023438-28.476563c-.710938 0-1.429688.105469-2.144532.320313-1.894531.574218-3.449218 1.851562-4.378906 3.59375-.933594 1.742187-1.128906 3.746094-.558594 5.640625.574219 1.894531 1.851563 3.449219 3.59375 4.378906 1.742188.933594 3.75 1.136719 5.640625.558594 3.90625-1.183594 6.121094-5.328125 4.9375-9.234375-.972656-3.195313-3.914062-5.257813-7.089843-5.257813zm0 0"/><path d="m374.445312 48.949219c-11.609374 0-21.058593-9.449219-21.058593-21.058594s9.449219-21.054687 21.058593-21.054687c11.609376 0 21.058594 9.445312 21.058594 21.054687s-9.449218 21.058594-21.058594 21.058594zm0-28.460938c-4.085937 0-7.402343 3.320313-7.402343 7.402344 0 4.085937 3.316406 7.40625 7.402343 7.40625 4.082032 0 7.402344-3.320313 7.402344-7.40625 0-4.082031-3.320312-7.402344-7.402344-7.402344zm0 0"/><path d="m294.902344 34.71875c0 5.082031-4.121094 9.203125-9.203125 9.203125s-9.203125-4.121094-9.203125-9.203125 4.121094-9.203125 9.203125-9.203125 9.203125 4.121094 9.203125 9.203125zm0 0"/><path d="m397.300781 171.253906c0 5.082032-4.121093 9.203125-9.203125 9.203125-5.082031 0-9.203125-4.121093-9.203125-9.203125 0-5.082031 4.121094-9.203125 9.203125-9.203125 5.082032 0 9.203125 4.121094 9.203125 9.203125zm0 0"/><path d="m377.519531 400.945312c-1.746093 0-3.496093-.667968-4.828125-2-2.664062-2.667968-2.664062-6.988281 0-9.652343l20.128906-20.128907c2.664063-2.664062 6.984376-2.664062 9.652344 0 2.664063 2.667969 2.664063 6.988282 0 9.652344l-20.128906 20.128906c-1.332031 1.332032-3.078125 2-4.824219 2zm0 0"/><path d="m397.644531 400.945312c-1.746093 0-3.492187-.667968-4.824219-2l-20.128906-20.128906c-2.664062-2.664062-2.664062-6.984375 0-9.652344 2.667969-2.664062 6.988282-2.664062 9.652344 0l20.128906 20.128907c2.664063 2.664062 2.664063 6.984375 0 9.652343-1.332031 1.332032-3.078125 2-4.828125 2zm0 0"/></g><path d="m205.097656 184.328125s6.828125-150.1875 102.402344-177.492187c0 0-75.09375 95.570312-54.613281 184.320312zm0 0" fill="#a9ba5a"/><path d="m252.886719 197.980469c-.320313 0-.644531-.023438-.964844-.070313l-47.789063-6.824218c-3.480468-.496094-6.011718-3.554688-5.851562-7.070313.070312-1.570313 1.90625-38.96875 15.703125-80.355469 18.609375-55.828125 50.300781-91.578125 91.636719-103.390625 2.851562-.808593 5.890625.296875 7.542968 2.757813 1.652344 2.453125 1.53125 5.691406-.296874 8.023437-.730469.929688-72.820313 94.101563-53.328126 178.566407.503907 2.191406-.105468 4.496093-1.625 6.152343-1.300781 1.421875-3.132812 2.210938-5.027343 2.210938zm-40.496094-19.503907 31.96875 4.566407c-10.25-64.429688 23.972656-129.316407 44.148437-160.863281-61.03125 34.796874-73.792968 130.972656-76.117187 156.296874zm0 0" fill="#4c241d"/><path d="m205.097656 184.328125s-23.761718-148.453125-121.8125-164.777344c0 0 85.417969 86.46875 75.105469 176.964844zm0 0" fill="#a9ba5a"/><path d="m158.394531 203.34375c-1.625 0-3.21875-.582031-4.472656-1.671875-1.703125-1.472656-2.566406-3.695313-2.3125-5.929687 9.816406-86.132813-72.351563-170.554688-73.183594-171.394532-2.078125-2.105468-2.558593-5.3125-1.199219-7.941406 1.367188-2.628906 4.269532-4.089844 7.179688-3.589844 42.414062 7.0625 77.941406 39.003906 102.742188 92.367188 18.386718 39.558594 24.441406 76.507812 24.691406 78.0625.554687 3.472656-1.613282 6.796875-5.015625 7.6875l-46.707031 12.1875c-.570313.148437-1.148438.222656-1.722657.222656zm-54.496093-170.6875c23.613281 29.066406 64.949218 89.664062 62.050781 154.832031l31.238281-8.148437c-5.191406-24.898438-28.796875-118.996094-93.289062-146.683594zm0 0" fill="#4c241d"/><path d="m191.445312 204.808594s-34.132812-122.878906-6.824218-197.972656c0 0 40.957031 61.4375 47.785156 197.972656zm0 0" fill="#a9ba5a"/><path d="m232.40625 211.632812h-40.960938c-3.066406 0-5.753906-2.042968-6.578124-5-1.417969-5.101562-34.398438-125.863281-6.664063-202.132812.878906-2.421875 3.046875-4.136719 5.601563-4.4453125 2.523437-.3320315 5.0625.8476565 6.496093 2.9921875 1.714844 2.574219 42.082031 64.578125 48.921875 201.417969.09375 1.867187-.582031 3.691406-1.871094 5.046875-1.289062 1.355469-3.074218 2.121093-4.945312 2.121093zm-35.675781-13.652343h28.464843c-5.554687-92.484375-27.132812-148.992188-38.753906-173.339844-15.140625 63.601563 4.847656 151.597656 10.289063 173.339844zm0 0" fill="#4c241d"/><path d="m232.40625 204.808594s34.132812-116.054688 102.398438-143.359375c0 0-61.4375 88.746093-61.4375 157.011719zm0 0" fill="#a9ba5a"/><path d="m273.367188 225.289062c-.726563 0-1.453126-.117187-2.160157-.351562l-40.960937-13.652344c-3.488282-1.164062-5.429688-4.875-4.390625-8.402344 1.433593-4.871093 35.878906-119.558593 106.414062-147.773437 2.796875-1.117187 5.996094-.273437 7.875 2.082031 1.878907 2.355469 1.988281 5.664063.273438 8.140625-.601563.875-60.226563 87.816407-60.226563 153.132813 0 2.191406-1.050781 4.25-2.835937 5.535156-1.175781.847656-2.574219 1.289062-3.988281 1.289062zm-32.386719-24.816406 25.902343 8.632813c3.316407-46.164063 29.835938-98.03125 47.214844-127.582031-41.480468 32.773437-66.175781 98.433593-73.117187 118.949218zm0 0" fill="#4c241d"/><path d="m236.53125 196.414062s81.390625-89.492187 154.726562-84.242187c0 0-94.027343 53.003906-123.84375 114.414063zm0 0" fill="#a9ba5a"/><path d="m267.414062 233.410156c-1.765624 0-3.484374-.683594-4.769531-1.941406l-30.886719-30.171875c-2.628906-2.570313-2.75-6.757813-.277343-9.476563 3.414062-3.753906 84.4375-91.75 160.265625-86.457031 3.007812.21875 5.511718 2.375 6.171875 5.3125.660156 2.941407-.683594 5.964844-3.308594 7.445313-.921875.519531-92.527344 52.6875-121.058594 111.445312-.957031 1.972656-2.808593 3.367188-4.964843 3.742188-.394532.070312-.785157.101562-1.171876.101562zm-21.273437-37.152344 19.527344 19.082032c23.140625-40.074219 69.640625-75.148438 98.179687-94.136719-51.582031 11.382813-102.496094 59.636719-117.707031 75.054687zm0 0" fill="#4c241d"/><path d="m173.667969 203.242188s-81.390625-89.492188-154.726563-84.242188c0 0 94.027344 53 123.84375 114.414062zm0 0" fill="#a9ba5a"/><path d="m142.785156 240.238281c-.390625 0-.78125-.035156-1.171875-.101562-2.164062-.375-4.011719-1.769531-4.96875-3.742188-28.53125-58.757812-120.136719-110.925781-121.058593-111.445312-2.625-1.480469-3.96875-4.503907-3.308594-7.445313.660156-2.9375 3.164062-5.09375 6.171875-5.3125 75.792969-5.359375 156.851562 82.699219 160.265625 86.457032 2.472656 2.71875 2.351562 6.90625-.277344 9.476562l-30.886719 30.171875c-1.28125 1.253906-3 1.941406-4.765625 1.941406zm-96.4375-112.210937c28.542969 18.992187 75.042969 54.066406 98.179688 94.136718l19.53125-19.078124c-15.207032-15.414063-66.125-63.667969-117.710938-75.058594zm0 0" fill="#4c241d"/><path d="m373.714844 240.691406c-13.445313-49.09375-49.40625-82.023437-80.3125-73.558594-30.910156 8.46875-45.066406 55.128907-31.621094 104.21875 13.449219 49.09375 49.40625 82.027344 80.316406 73.558594s45.066406-55.128906 31.617188-104.21875zm0 0" fill="#ffec95"/><path d="m331.921875 353.085938c-31.582031.003906-63.71875-32.441407-76.730469-79.945313-14.667968-53.527344 1.320313-102.992187 36.394532-112.605469 35.066406-9.621094 74.035156 24.800782 88.699218 78.335938 14.667969 53.53125-1.320312 102.996094-36.394531 112.605468-3.949219 1.085938-7.957031 1.609376-11.96875 1.609376zm-28.742187-180.441407c-2.707032 0-5.371094.347657-7.988282 1.0625-26.765625 7.335938-39.050781 51.21875-26.832031 95.828125 12.21875 44.613282 45.175781 76.058594 71.925781 68.777344 26.769532-7.335938 39.054688-51.222656 26.835938-95.828125-11.027344-40.261719-38.933594-69.839844-63.941406-69.839844zm0 0" fill="#4c241d"/><path d="m130.46875 167.113281c-30.910156-8.46875-66.867188 24.464844-80.3125 73.554688-13.449219 49.09375.707031 95.753906 31.617188 104.21875 30.910156 8.46875 66.867187-24.464844 80.316406-73.554688 13.445312-49.09375-.710938-95.753906-31.621094-104.21875zm0 0" fill="#ffec95"/><path d="m91.929688 353.085938c-4.015626 0-8.015626-.523438-11.972657-1.605469-35.074219-9.613281-51.058593-59.074219-36.390625-112.605469 14.664063-53.535156 53.65625-87.9375 88.699219-78.335938 35.074219 9.609376 51.058594 59.074219 36.394531 112.605469-13.011718 47.496094-45.152344 79.941407-76.730468 79.941407zm28.742187-180.441407c-25.011719 0-52.910156 29.578125-63.941406 69.839844-12.21875 44.609375.066406 88.492187 26.835937 95.828125 26.777344 7.332031 59.707032-24.164062 71.925782-68.777344 12.222656-44.609375-.066407-88.496094-26.832032-95.828125-2.609375-.714843-5.285156-1.0625-7.988281-1.0625zm-70.523437 68.035157h.066406zm0 0" fill="#4c241d"/><path d="m185.449219 204.777344s-48.277344-110.917969-119.410157-129.539063c0 0 71.984376 80.433594 80.460938 148.171875zm0 0" fill="#a9ba5a"/><path d="m146.503906 230.234375c-1.132812 0-2.253906-.277344-3.273437-.835937-1.929688-1.046876-3.226563-2.960938-3.5-5.144532-8.121094-64.867187-78.066407-143.675781-78.773438-144.460937-2.011719-2.246094-2.3125-5.539063-.742187-8.113281 1.574218-2.570313 4.625-3.804688 7.558594-3.042969 73.488281 19.234375 121.910156 128.761719 123.9375 133.417969 1.464843 3.371093 0 7.292968-3.316407 8.878906l-38.945312 18.632812c-.933594.445313-1.941407.667969-2.945313.667969zm-57.410156-137.632813c20.914062 27.167969 53.65625 75.332032 62.679688 120.714844l24.625-11.777344c-9.441407-19.496093-42.125-81.5625-87.304688-108.9375zm0 0" fill="#4c241d"/><path d="m255.726562 402.390625c-13.386718 8.234375-28.34375 12.835937-44.125 12.835937-57.226562 0-103.613281-60.535156-103.613281-135.210937 0-74.671875 46.386719-135.210937 103.613281-135.210937 57.222657 0 103.613282 60.539062 103.613282 135.210937 0 34.222656-9.742188 65.472656-25.804688 89.289063" fill="#ffec95"/><path d="m211.601562 422.054688c-60.898437 0-110.441406-63.714844-110.441406-142.039063 0-78.320313 49.542969-142.035156 110.441406-142.035156 60.894532 0 110.4375 63.714843 110.4375 142.035156 0 34.253906-9.578124 67.316406-26.972656 93.105469-2.105468 3.125-6.351562 3.953125-9.476562 1.84375s-3.949219-6.351563-1.84375-9.476563c15.890625-23.558593 24.640625-53.910156 24.640625-85.472656 0-70.789063-43.417969-128.382813-96.785157-128.382813-53.367187 0-96.785156 57.59375-96.785156 128.382813 0 70.792969 43.414063 128.386719 96.785156 128.386719 14.148438 0 27.789063-3.980469 40.550782-11.828125 3.214844-1.984375 7.414062-.976563 9.390625 2.238281 1.976562 3.210938.972656 7.417969-2.238281 9.390625-14.941407 9.191406-30.992188 13.851563-47.703126 13.851563zm0 0" fill="#4c241d"/><path d="m269.015625 399.417969c-1.90625 0-3.804687-.792969-5.152344-2.34375-2.472656-2.84375-2.175781-7.15625.664063-9.632813 2.742187-2.382812 5.417968-4.976562 7.957031-7.710937 2.570313-2.757813 6.898437-2.917969 9.648437-.351563 2.761719 2.566406 2.917969 6.886719.351563 9.644532-2.863281 3.085937-5.890625 6.015624-8.988281 8.714843-1.292969 1.125-2.890625 1.679688-4.480469 1.679688zm0 0" fill="#4c241d"/><path d="m220.539062 368.648438h-17.226562c-25.40625 0-46-20.59375-46-46v-15.441407h109.226562v15.441407c0 25.40625-20.59375 46-46 46zm0 0" fill="#e66353"/><path d="m220.539062 375.472656h-17.226562c-29.128906 0-52.828125-23.695312-52.828125-52.824218v-15.441407c0-3.769531 3.058594-6.824219 6.828125-6.824219h109.226562c3.769532 0 6.828126 3.054688 6.828126 6.824219v15.441407c0 29.128906-23.699219 52.824218-52.828126 52.824218zm-56.398437-61.4375v8.613282c0 21.597656 17.574219 39.171874 39.171875 39.171874h17.226562c21.601563 0 39.171876-17.574218 39.171876-39.171874v-8.613282zm0 0" fill="#4c241d"/><path d="m235.820312 327.6875c-5.65625 0-10.242187-4.582031-10.242187-10.238281v-10.242188h20.480469v10.242188c0 5.65625-4.582032 10.238281-10.238282 10.238281zm0 0" fill="#fff"/><path d="m235.820312 334.515625c-9.410156 0-17.066406-7.65625-17.066406-17.066406v-10.242188c0-3.769531 3.054688-6.824219 6.824219-6.824219h20.480469c3.769531 0 6.828125 3.054688 6.828125 6.824219v10.242188c0 9.410156-7.65625 17.066406-17.066407 17.066406zm-3.414062-20.480469v3.414063c0 1.882812 1.527344 3.410156 3.414062 3.410156 1.882813 0 3.414063-1.527344 3.414063-3.410156v-3.414063zm0 0" fill="#4c241d"/><path d="m188.03125 327.6875c-5.652344 0-10.238281-4.582031-10.238281-10.238281v-10.242188h20.480469v10.242188c0 5.65625-4.585938 10.238281-10.242188 10.238281zm0 0" fill="#fff"/><path d="m188.03125 334.515625c-9.410156 0-17.066406-7.65625-17.066406-17.066406v-10.242188c0-3.769531 3.058594-6.824219 6.828125-6.824219h20.480469c3.769531 0 6.824218 3.054688 6.824218 6.824219v10.242188c0 9.410156-7.652344 17.066406-17.066406 17.066406zm-3.410156-20.480469v3.414063c0 1.882812 1.527344 3.410156 3.410156 3.410156 1.886719 0 3.414062-1.527344 3.414062-3.410156v-3.414063zm0 0" fill="#4c241d"/><path d="m287.019531 266.246094c-3.769531 0-6.828125-3.054688-6.828125-6.824219 0-7.53125-7.65625-13.652344-17.066406-13.652344s-17.066406 6.121094-17.066406 13.652344c0 3.769531-3.054688 6.824219-6.824219 6.824219-3.773437 0-6.828125-3.054688-6.828125-6.824219 0-15.058594 13.78125-27.308594 30.71875-27.308594 16.941406 0 30.722656 12.25 30.722656 27.308594 0 3.769531-3.058594 6.824219-6.828125 6.824219zm0 0" fill="#4c241d"/><path d="m184.621094 266.246094c-3.773438 0-6.828125-3.054688-6.828125-6.824219 0-7.53125-7.65625-13.652344-17.066407-13.652344-9.410156 0-17.066406 6.121094-17.066406 13.652344 0 3.769531-3.058594 6.824219-6.828125 6.824219s-6.824219-3.054688-6.824219-6.824219c0-15.058594 13.777344-27.308594 30.71875-27.308594 16.941407 0 30.71875 12.25 30.71875 27.308594 0 3.769531-3.054687 6.824219-6.824218 6.824219zm0 0" fill="#4c241d"/></svg>