<svg height="416pt" viewBox="0 0 416 416.42715" width="416pt" xmlns="http://www.w3.org/2000/svg"><path d="m321.066406 249.171875c0 84.832031-68.769531 153.601563-153.597656 153.601563-84.832031 0-153.601562-68.769532-153.601562-153.601563 0-84.828125 68.769531-153.597656 153.601562-153.597656 84.828125 0 153.597656 68.769531 153.597656 153.597656zm0 0" fill="#c1dbdc"/><path d="m258.796875 121.996094s-8.378906-91.410156 83.070313-107.496094c0 0-53.34375 41.488281-63.21875 111.246094zm0 0" fill="#c1dbdc"/><path d="m278.648438 132.574219c-.421876 0-.84375-.039063-1.265626-.121094l-19.851562-3.75c-3-.566406-5.253906-3.046875-5.53125-6.082031-.089844-.976563-7.835938-97.867188 88.683594-114.84375 3.097656-.558594 6.140625 1.085937 7.417968 3.949218 1.273438 2.863282.433594 6.226563-2.035156 8.15625-.511718.398438-51.308594 40.769532-60.65625 106.824219-.261718 1.84375-1.265625 3.503907-2.78125 4.589844-1.171875.835937-2.5625 1.277344-3.980468 1.277344zm-13.277344-16.285157 7.671875 1.453126c7.484375-40.390626 28.429687-70.78125 44.484375-89.011719-48.859375 21.324219-52.367188 71.320312-52.15625 87.558593zm0 0" fill="#4c241d"/><path d="m383.980469 80.449219c-1.746094 0-3.496094-.667969-4.828125-2-2.664063-2.667969-2.664063-6.988281 0-9.65625l12.453125-12.453125c2.667969-2.664063 6.988281-2.664063 9.652343 0 2.667969 2.667968 2.667969 6.988281 0 9.652344l-12.453124 12.457031c-1.332032 1.332031-3.078126 2-4.824219 2zm0 0" fill="#4c241d"/><path d="m267.28125 123.796875s19.652344-89.664063-69.09375-116.96875c0 0 47.785156 47.785156 48.929688 118.230469zm0 0" fill="#9dc1e4"/><g fill="#4c241d"><path d="m247.117188 131.886719c-1.714844 0-3.371094-.644531-4.632813-1.8125-1.371094-1.269531-2.164063-3.039063-2.195313-4.90625-1.082031-66.699219-46.476562-113.054688-46.933593-113.515625-2.210938-2.222656-2.628907-5.667969-1.011719-8.351563 1.621094-2.679687 4.851562-3.921875 7.851562-2.996093 93.667969 28.820312 73.964844 123.996093 73.757813 124.953124-.652344 2.980469-3.203125 5.164063-6.242187 5.355469l-20.164063 1.257813c-.148437.011718-.289063.015625-.429687.015625zm20.164062-8.089844h.066406zm-46.679688-99.792969c13.664063 20.085938 30.660157 52.824219 33.074219 93.804688l7.777344-.488282c2.175781-16.097656 4.765625-66.121093-40.851563-93.316406zm0 0"/><path d="m354.925781 109.5c-1.746093 0-3.492187-.667969-4.824219-2-2.667968-2.664062-2.667968-6.988281 0-9.652344l12.453126-12.453125c2.664062-2.667969 6.988281-2.667969 9.652343 0 2.664063 2.664063 2.664063 6.984375 0 9.652344l-12.453125 12.453125c-1.332031 1.335938-3.082031 2-4.828125 2zm0 0"/><path d="m367.378906 80.449219c-1.742187 0-3.492187-.667969-4.824218-2l-12.453126-12.457031c-2.667968-2.664063-2.667968-6.984376 0-9.652344 2.664063-2.664063 6.984376-2.664063 9.652344 0l12.453125 12.453125c2.664063 2.667969 2.664063 6.988281 0 9.65625-1.332031 1.332031-3.082031 2-4.828125 2zm0 0"/><path d="m396.433594 109.5c-1.746094 0-3.492188-.667969-4.828125-2l-12.453125-12.453125c-2.664063-2.667969-2.664063-6.988281 0-9.652344 2.667968-2.667969 6.988281-2.667969 9.652344 0l12.453124 12.453125c2.667969 2.664063 2.667969 6.988282 0 9.652344-1.332031 1.335938-3.078124 2-4.824218 2zm0 0"/><path d="m33.164062 407.363281c-3.417968 0-6.800781-.839843-9.902343-2.5-4.960938-2.652343-8.589844-7.078125-10.222657-12.460937-1.628906-5.382813-1.066406-11.078125 1.585938-16.039063 2.652344-4.957031 7.078125-8.589843 12.464844-10.21875 11.101562-3.371093 22.886718 2.933594 26.253906 14.046875 3.367188 11.109375-2.933594 22.886719-14.042969 26.257813-2.019531.613281-4.082031.914062-6.136719.914062zm.023438-28.472656c-.710938 0-1.429688.105469-2.144531.320313-1.894531.574218-3.449219 1.851562-4.378907 3.59375-.933593 1.742187-1.128906 3.746093-.558593 5.640624.574219 1.890626 1.851562 3.445313 3.59375 4.378907 1.742187.929687 3.75 1.128906 5.640625.554687 3.90625-1.179687 6.121094-5.324218 4.9375-9.230468-.972656-3.195313-3.914063-5.257813-7.089844-5.257813zm0 0"/><path d="m26.199219 55.765625c-11.609375 0-21.054688-9.445313-21.054688-21.054687 0-11.609376 9.445313-21.058594 21.054688-21.058594 11.613281 0 21.058593 9.449218 21.058593 21.058594 0 11.609374-9.449218 21.054687-21.058593 21.054687zm0-28.457031c-4.082031 0-7.402344 3.316406-7.402344 7.402344 0 4.082031 3.320313 7.402343 7.402344 7.402343 4.085937 0 7.40625-3.320312 7.40625-7.402343 0-4.085938-3.320313-7.402344-7.40625-7.402344zm0 0"/><path d="m124.847656 80.085938c-1.746094 0-3.496094-.667969-4.828125-2.003907-2.664062-2.664062-2.664062-6.984375 0-9.652343l20.128907-20.125c2.664062-2.667969 6.984374-2.667969 9.652343 0 2.664063 2.664062 2.664063 6.988281 0 9.652343l-20.128906 20.125c-1.332031 1.335938-3.078125 2.003907-4.824219 2.003907zm0 0"/><path d="m144.972656 80.085938c-1.746094 0-3.492187-.667969-4.824218-2.003907l-20.128907-20.125c-2.664062-2.664062-2.664062-6.988281 0-9.652343 2.667969-2.667969 6.988281-2.667969 9.652344 0l20.128906 20.125c2.664063 2.667968 2.664063 6.988281 0 9.652343-1.335937 1.335938-3.082031 2.003907-4.828125 2.003907zm0 0"/></g><path d="m184.535156 211.628906c0-22.625-18.339844-40.960937-40.960937-40.960937-6.183594 0-12.023438 1.410156-17.277344 3.863281-8.167969-22.164062-29.40625-37.996094-54.402344-37.996094-32.046875 0-58.027343 25.976563-58.027343 58.023438 0 13.039062 4.351562 25.027344 11.605468 34.714844-10.90625 5.699218-18.433594 16.984374-18.433594 30.140624 0 18.851563 15.28125 34.132813 34.132813 34.132813 12.632813 0 23.539063-6.941406 29.441406-17.144531 5.738281 17.863281 22.472657 30.796875 42.242188 30.796875 24.503906 0 44.371093-19.867188 44.371093-44.371094 0-4.171875-.617187-8.195313-1.695312-12.027344 16.785156-5.117187 29.003906-20.714843 29.003906-39.171875zm0 0" fill="#fff"/><path d="m112.855469 314.027344c-18.292969 0-34.746094-9.585938-43.847657-24.738282-7.488281 7.007813-17.421874 11.085938-27.835937 11.085938-22.585937 0-40.957031-18.375-40.957031-40.960938 0-12.679687 5.886718-24.429687 15.75-32.109374-5.859375-9.929688-8.925782-21.117188-8.925782-32.746094 0-35.757813 29.09375-64.851563 64.855469-64.851563 24.703125 0 47.25 14.265625 58.078125 36.125 4.414063-1.320312 8.964844-1.992187 13.601563-1.992187 26.347656 0 47.785156 21.4375 47.785156 47.789062 0 19.027344-10.988281 35.792969-27.910156 43.46875.402343 2.582032.605469 5.164063.605469 7.730469 0 28.230469-22.96875 51.199219-51.199219 51.199219zm-42.246094-44.449219c.246094 0 .488281.011719.730469.039063 2.683594.285156 4.945312 2.128906 5.773437 4.695312 5.007813 15.589844 19.371094 26.0625 35.742188 26.0625 20.703125 0 37.542969-16.84375 37.542969-37.546875 0-3.363281-.480469-6.785156-1.4375-10.179687-1.003907-3.574219 1.03125-7.292969 4.582031-8.378907 14.453125-4.40625 24.164062-17.519531 24.164062-32.640625 0-18.820312-15.3125-34.136718-34.132812-34.136718-4.96875 0-9.8125 1.085937-14.398438 3.222656-1.738281.800781-3.71875.851562-5.484375.125-1.765625-.730469-3.144531-2.164063-3.804687-3.953125-7.386719-20.050781-26.671875-33.527344-47.992188-33.527344-28.234375 0-51.199219 22.96875-51.199219 51.199219 0 11.089844 3.542969 21.675781 10.242188 30.621094 1.199219 1.601562 1.636719 3.652343 1.191406 5.601562-.441406 1.957031-1.71875 3.613281-3.496094 4.542969-9.105468 4.761719-14.765624 13.988281-14.765624 24.089843 0 15.054688 12.25 27.304688 27.304687 27.304688 9.761719 0 18.558594-5.132812 23.53125-13.730469 1.230469-2.128906 3.492187-3.410156 5.90625-3.410156zm0 0" fill="#4c241d"/><path d="m396.199219 205.1875c8.734375 18.523438 13.613281 39.21875 13.613281 61.054688 0 79.175781-64.183594 143.359374-143.359375 143.359374s-143.359375-64.183593-143.359375-143.359374c0-79.175782 64.183594-143.363282 143.359375-143.363282 36.285156 0 69.417969 13.480469 94.671875 35.703125" fill="#9dc1e4"/><path d="m266.453125 416.425781c-82.8125 0-150.1875-67.371093-150.1875-150.183593s67.375-150.1875 150.1875-150.1875c36.546875 0 71.769531 13.28125 99.179687 37.40625 2.828126 2.488281 3.105469 6.800781.613282 9.632812-2.492188 2.828125-6.800782 3.109375-9.632813.613281-24.914062-21.921875-56.9375-34-90.160156-34-75.28125 0-136.53125 61.25-136.53125 136.535157 0 75.28125 61.25 136.53125 136.53125 136.53125 75.285156 0 136.535156-61.25 136.535156-136.53125 0-20.332032-4.363281-39.894532-12.964843-58.144532-1.605469-3.410156-.144532-7.476562 3.265624-9.085937 3.402344-1.601563 7.476563-.144531 9.085938 3.265625 9.464844 20.082031 14.265625 41.605468 14.265625 63.964844 0 82.8125-67.375 150.183593-150.1875 150.183593zm0 0" fill="#4c241d"/><path d="m385.820312 193.632812c-2.207031 0-4.371093-1.066406-5.6875-3.039062-2.558593-3.839844-5.351562-7.597656-8.296874-11.167969-2.398438-2.90625-1.984376-7.207031.925781-9.609375 2.902343-2.394531 7.210937-1.980468 9.609375.925782 3.234375 3.921874 6.304687 8.054687 9.125 12.277343 2.089844 3.136719 1.242187 7.375-1.894532 9.46875-1.164062.777344-2.480468 1.144531-3.78125 1.144531zm0 0" fill="#4c241d"/><path d="m359.886719 232.105469c0-18.53125-11.265625-33.554688-25.167969-33.554688-13.898438 0-25.167969 15.023438-25.167969 33.554688 0 18.535156 11.269531 33.558593 25.167969 33.558593 13.902344 0 25.167969-15.023437 25.167969-33.558593zm0 0" fill="#6b4f5b"/><path d="m334.71875 272.492188c-17.636719 0-31.992188-18.117188-31.992188-40.386719 0-22.265625 14.355469-40.382813 31.992188-40.382813 17.640625 0 31.996094 18.117188 31.996094 40.382813 0 22.269531-14.355469 40.386719-31.996094 40.386719zm0-67.113282c-9.9375 0-18.339844 12.238282-18.339844 26.726563 0 14.492187 8.402344 26.730469 18.339844 26.730469 9.941406 0 18.339844-12.238282 18.339844-26.730469 0-14.488281-8.398438-26.726563-18.339844-26.726563zm0 0" fill="#4c241d"/><path d="m230.183594 232.105469c0-18.53125-11.269532-33.554688-25.171875-33.554688-13.898438 0-25.167969 15.023438-25.167969 33.554688 0 18.535156 11.269531 33.558593 25.167969 33.558593 13.902343 0 25.171875-15.023437 25.171875-33.558593zm0 0" fill="#6b4f5b"/><path d="m205.011719 272.492188c-17.636719 0-31.992188-18.117188-31.992188-40.386719 0-22.265625 14.355469-40.382813 31.992188-40.382813 17.640625 0 31.996093 18.117188 31.996093 40.382813 0 22.269531-14.355468 40.386719-31.996093 40.386719zm0-67.113282c-9.9375 0-18.339844 12.238282-18.339844 26.726563 0 14.492187 8.402344 26.730469 18.339844 26.730469 9.941406 0 18.339843-12.238282 18.339843-26.730469 0-14.488281-8.398437-26.726563-18.339843-26.726563zm0 0" fill="#4c241d"/><path d="m229.550781 302.179688c4.082031-13.898438 12.234375-26.578126 24.910157-37.917969 8.753906-7.828125 22.164062-8.457031 31.34375-1.132813 14.4375 11.515625 22.9375 25.09375 26.175781 40.496094 2.246093 10.691406-6.355469 20.640625-17.28125 20.640625h-48.175781c-11.53125 0-20.222657-11.019531-16.972657-22.085937zm0 0" fill="#fff"/><path d="m294.699219 331.09375h-48.175781c-7.699219 0-15.050782-3.691406-19.675782-9.871094-4.566406-6.097656-5.96875-13.742187-3.847656-20.964844 4.492188-15.3125 13.546875-29.132812 26.910156-41.082031 11.25-10.0625 28.511719-10.671875 40.152344-1.386719 15.351562 12.246094 24.972656 27.195313 28.597656 44.429688 1.464844 6.960938-.308594 14.160156-4.851562 19.761719-4.699219 5.789062-11.664063 9.113281-19.109375 9.113281zm-23.765625-66.273438c-4.261719 0-8.5625 1.523438-11.917969 4.53125-11.441406 10.226563-19.148437 21.917969-22.914063 34.75-.898437 3.058594-.289062 6.3125 1.675782 8.941407 2.09375 2.792969 5.28125 4.394531 8.746094 4.394531h48.175781c3.3125 0 6.414062-1.480469 8.511719-4.066406 1.964843-2.421875 2.710937-5.386719 2.089843-8.34375-2.996093-14.246094-10.765625-26.207032-23.75-36.566406-3.058593-2.4375-6.824219-3.640626-10.617187-3.640626zm-41.382813 37.359376h.066407zm0 0" fill="#4c241d"/><path d="m198.1875 218.453125c0 7.542969-6.113281 13.652344-13.652344 13.652344-7.542968 0-13.65625-6.109375-13.65625-13.652344 0-7.539063 6.113282-13.652344 13.65625-13.652344 7.539063 0 13.652344 6.113281 13.652344 13.652344zm0 0" fill="#fff"/><path d="m334.71875 218.453125c0 7.542969-6.109375 13.652344-13.652344 13.652344-7.539062 0-13.652344-6.109375-13.652344-13.652344 0-7.539063 6.113282-13.652344 13.652344-13.652344 7.542969 0 13.652344 6.113281 13.652344 13.652344zm0 0" fill="#fff"/></svg>