<svg height="423pt" viewBox="0 -4 423.86325 423" width="423pt" xmlns="http://www.w3.org/2000/svg"><path d="m310.917969 248.5625c0 84.832031-68.769531 153.601562-153.601563 153.601562-84.828125 0-153.597656-68.769531-153.597656-153.601562s68.769531-153.597656 153.597656-153.597656c84.832032 0 153.601563 68.765625 153.601563 153.597656zm0 0" fill="#c1dbdc"/><path d="m386.957031 25.75c-1.742187 0-3.492187-.667969-4.824219-2-2.667968-2.664062-2.667968-6.988281 0-9.652344l11.667969-11.667968c2.664063-2.664063 6.984375-2.664063 9.652344 0 2.664063 2.667968 2.664063 6.988281 0 9.652343l-11.667969 11.667969c-1.332031 1.332031-3.082031 2-4.828125 2zm0 0" fill="#4c241d"/><path d="m359.746094 52.964844c-1.746094 0-3.496094-.667969-4.828125-2-2.664063-2.667969-2.664063-6.988282 0-9.652344l11.667969-11.667969c2.664062-2.667969 6.984374-2.667969 9.652343 0 2.664063 2.664063 2.664063 6.988281 0 9.652344l-11.667969 11.667969c-1.332031 1.332031-3.078124 2-4.824218 2zm0 0" fill="#4c241d"/><path d="m371.410156 25.75c-1.746094 0-3.492187-.667969-4.824218-2l-11.667969-11.667969c-2.664063-2.664062-2.664063-6.984375 0-9.652343 2.664062-2.664063 6.988281-2.664063 9.652343 0l11.667969 11.667968c2.664063 2.664063 2.664063 6.988282 0 9.652344-1.332031 1.332031-3.078125 2-4.828125 2zm0 0" fill="#4c241d"/><path d="m398.625 52.964844c-1.746094 0-3.492188-.667969-4.824219-2l-11.667969-11.667969c-2.667968-2.664063-2.667968-6.988281 0-9.652344 2.664063-2.667969 6.988282-2.667969 9.652344 0l11.667969 11.667969c2.664063 2.664062 2.664063 6.984375 0 9.652344-1.335937 1.332031-3.082031 2-4.828125 2zm0 0" fill="#4c241d"/><path d="m384.832031 399.925781c-3.417969 0-6.804687-.839843-9.90625-2.496093-4.960937-2.652344-8.585937-7.078126-10.21875-12.464844-1.632812-5.382813-1.066406-11.082032 1.578125-16.039063 2.65625-4.960937 7.078125-8.589843 12.46875-10.222656 5.378906-1.640625 11.070313-1.070313 16.039063 1.589844 4.960937 2.652343 8.585937 7.078125 10.21875 12.460937v.003906c3.359375 11.109376-2.941407 22.886719-14.046875 26.253907-2.019532.613281-4.078125.914062-6.132813.914062zm.03125-28.476562c-.71875 0-1.445312.105469-2.152343.320312-1.894532.574219-3.453126 1.855469-4.386719 3.59375-.925781 1.746094-1.125 3.746094-.550781 5.640625.570312 1.894532 1.851562 3.453125 3.589843 4.386719 1.753907.933594 3.753907 1.113281 5.640625.550781 3.902344-1.179687 6.121094-5.324218 4.941406-9.230468-.574218-1.894532-1.851562-3.449219-3.59375-4.378907-1.09375-.589843-2.285156-.882812-3.488281-.882812zm0 0" fill="#4c241d"/><path d="m29.707031 55.15625c-11.613281 0-21.058593-9.445312-21.058593-21.054688 0-11.613281 9.445312-21.058593 21.058593-21.058593 11.609375 0 21.054688 9.445312 21.054688 21.058593 0 11.609376-9.449219 21.054688-21.054688 21.054688zm0-28.460938c-4.085937 0-7.40625 3.320313-7.40625 7.40625 0 4.082032 3.320313 7.402344 7.40625 7.402344 4.082031 0 7.402344-3.320312 7.402344-7.402344 0-4.085937-3.320313-7.40625-7.402344-7.40625zm0 0" fill="#4c241d"/><path d="m25.949219 379.84375c-1.742188 0-3.492188-.667969-4.824219-2-2.667969-2.667969-2.667969-6.988281 0-9.652344l20.125-20.121094c2.667969-2.664062 6.988281-2.664062 9.652344 0 2.667968 2.664063 2.667968 6.988282 0 9.652344l-20.125 20.121094c-1.332032 1.332031-3.078125 2-4.828125 2zm0 0" fill="#4c241d"/><path d="m46.078125 379.84375c-1.746094 0-3.492187-.667969-4.828125-2l-20.125-20.121094c-2.667969-2.664062-2.667969-6.988281 0-9.652344 2.660156-2.664062 6.988281-2.664062 9.652344 0l20.125 20.121094c2.667968 2.664063 2.667968 6.984375 0 9.652344-1.328125 1.332031-3.078125 2-4.824219 2zm0 0" fill="#4c241d"/><path d="m302.96875 379.136719c-16.199219 12.523437-35.355469 21.761719-56.671875 26.472656-77.308594 17.09375-153.835937-31.71875-170.929687-109.027344-17.09375-77.308593 31.71875-153.835937 109.027343-170.929687 77.308594-17.09375 153.835938 31.71875 170.929688 109.027344 7.832031 35.429687 1.824219 70.691406-14.421875 100.148437" fill="#ffded5"/><g fill="#4c241d"><path d="m215.324219 415.835938c-68.898438 0-131.148438-47.792969-146.625-117.78125-17.875-80.855469 33.363281-161.191407 114.222656-179.070313 80.824219-17.847656 161.1875 33.359375 179.070313 114.21875 7.886718 35.695313 2.527343 72.953125-15.109376 104.921875-1.816406 3.292969-5.964843 4.496094-9.277343 2.679688-3.300781-1.824219-4.503907-5.972657-2.679688-9.28125 16.03125-29.050782 20.90625-62.925782 13.730469-95.371094-16.25-73.507813-89.265625-120.074219-162.789062-103.835938-73.507813 16.253906-120.089844 89.28125-103.835938 162.792969 16.25 73.507813 89.277344 120.082031 162.792969 103.835937 19.859375-4.386718 38.011719-12.875 53.972656-25.207031 2.980469-2.308593 7.269531-1.761719 9.574219 1.226563 2.304687 2.980468 1.757812 7.265625-1.226563 9.570312-17.5625 13.582032-37.535156 22.914063-59.375 27.742188-10.871093 2.398437-21.746093 3.558594-32.445312 3.558594zm0 0"/><path d="m318.671875 371.851562c-1.707031 0-3.40625-.632812-4.734375-1.90625-2.710938-2.613281-2.800781-6.933593-.183594-9.652343 3.183594-3.3125 6.253906-6.847657 9.105469-10.5 2.3125-2.972657 6.601563-3.507813 9.578125-1.179688 2.976562 2.320313 3.503906 6.605469 1.179688 9.578125-3.140626 4.027344-6.511719 7.914063-10.023438 11.566406-1.339844 1.394532-3.128906 2.09375-4.921875 2.09375zm0 0"/><path d="m164.679688 265.628906h-14.65625c-3.769532 0-6.824219-3.050781-6.824219-6.824218 0-3.773438 3.054687-6.828126 6.824219-6.828126h14.65625c3.769531 0 6.828124 3.054688 6.828124 6.828126 0 3.773437-3.058593 6.824218-6.828124 6.824218zm0 0"/><path d="m130.476562 265.628906h-14.65625c-3.769531 0-6.828124-3.050781-6.828124-6.824218 0-3.773438 3.058593-6.828126 6.828124-6.828126h14.65625c3.769532 0 6.828126 3.054688 6.828126 6.828126 0 3.773437-3.058594 6.824218-6.828126 6.824218zm0 0"/><path d="m140.25 255.855469c-3.769531 0-6.824219-3.050781-6.824219-6.824219v-14.652344c0-3.773437 3.054688-6.828125 6.824219-6.828125 3.773438 0 6.828125 3.054688 6.828125 6.828125v14.652344c0 3.773438-3.054687 6.824219-6.828125 6.824219zm0 0"/><path d="m140.25 290.058594c-3.769531 0-6.824219-3.054688-6.824219-6.828125v-14.652344c0-3.773437 3.054688-6.828125 6.824219-6.828125 3.773438 0 6.828125 3.054688 6.828125 6.828125v14.652344c0 3.773437-3.054687 6.828125-6.828125 6.828125zm0 0"/><path d="m314.863281 265.628906h-14.652343c-3.773438 0-6.828126-3.050781-6.828126-6.824218 0-3.773438 3.054688-6.828126 6.828126-6.828126h14.652343c3.773438 0 6.828125 3.054688 6.828125 6.828126 0 3.773437-3.054687 6.824218-6.828125 6.824218zm0 0"/><path d="m280.664062 265.628906h-14.652343c-3.773438 0-6.828125-3.050781-6.828125-6.824218 0-3.773438 3.054687-6.828126 6.828125-6.828126h14.652343c3.773438 0 6.828126 3.054688 6.828126 6.828126 0 3.773437-3.054688 6.824218-6.828126 6.824218zm0 0"/><path d="m290.4375 255.855469c-3.773438 0-6.824219-3.050781-6.824219-6.824219v-14.652344c0-3.773437 3.050781-6.828125 6.824219-6.828125s6.828125 3.054688 6.828125 6.828125v14.652344c0 3.773438-3.054687 6.824219-6.828125 6.824219zm0 0"/><path d="m290.4375 290.058594c-3.773438 0-6.824219-3.054688-6.824219-6.828125v-14.652344c0-3.773437 3.050781-6.828125 6.824219-6.828125s6.828125 3.054688 6.828125 6.828125v14.652344c0 3.773437-3.054687 6.828125-6.828125 6.828125zm0 0"/></g><path d="m184.121094 307.542969 10.214844 3.113281c10.707031 3.261719 22.128906 3.347656 32.886718.246094l12.886719-3.71875c5.648437-1.632813 10.265625 4.65625 7.019531 9.558594l-.222656.332031c-6.234375 9.414062-6.488281 21.582031-.648438 31.246093l2.011719 3.328126c2.972657 4.921874-1.636719 10.933593-7.160156 9.335937l-13.886719-4.003906c-10.753906-3.105469-22.179687-3.019531-32.886718.242187l-11.25 3.429688c-5.542969 1.6875-10.246094-4.351563-7.25-9.3125l1.824218-3.019532c5.839844-9.664062 5.585938-21.832031-.648437-31.246093-3.269531-4.9375 1.445312-11.257813 7.109375-9.53125zm0 0" fill="#6b4f5b"/><path d="m242.910156 368.070312c-1.226562 0-2.472656-.171874-3.699218-.527343l-13.886719-4.007813c-9.492188-2.734375-19.519531-2.664062-29 .222656l-11.25 3.425782c-5.273438 1.613281-10.824219-.167969-14.203125-4.492188-3.378906-4.335937-3.71875-10.175781-.878906-14.882812l1.824218-3.019532c4.453125-7.367187 4.257813-16.765624-.496094-23.941406-3.101562-4.683594-2.9375-10.621094.421876-15.117187 3.359374-4.5 9.019531-6.335938 14.367187-4.722657l10.214844 3.113282c9.484375 2.886718 19.511719 2.953125 28.996093.222656l12.894532-3.722656c5.355468-1.527344 10.949218.359375 14.234375 4.847656 3.300781 4.492188 3.449219 10.394531.367187 15.046875-4.972656 7.503906-5.164062 16.90625-.71875 24.265625l2.019532 3.339844c2.8125 4.660156 2.492187 10.472656-.828126 14.792968-2.539062 3.316407-6.371093 5.15625-10.378906 5.15625zm-31.71875-20.1875c6.027344 0 12.046875.839844 17.917969 2.535157l12.640625 3.644531-1.339844-2.21875c-6.992187-11.574219-6.859375-26.273438.28125-37.722656l-11.582031 3.339844c-12.039063 3.46875-24.757813 3.375-36.757813-.269532l-8.90625-2.722656c6.925782 11.402344 6.984376 25.921875.058594 37.378906l-1.136718 1.882813 9.984374-3.039063c6.152344-1.875 12.5-2.808594 18.839844-2.808594zm-27.070312-40.339843-1.996094 6.527343s.003906-.007812.011719-.015624zm0 0" fill="#4c241d"/><path d="m248.652344 357.386719c-5.722656-13.710938-19.976563-23.445313-36.695313-23.445313-16.566406 0-30.722656 9.558594-36.542969 23.078125 1.167969 2.769531 4.253907 4.675781 7.671876 3.632813l11.25-3.429688c10.707031-3.261718 22.132812-3.347656 32.886718-.242187l13.886719 4.003906c3.363281.972656 6.363281-.890625 7.542969-3.597656zm0 0" fill="#e66353"/><path d="m242.929688 368.078125c-1.226563 0-2.476563-.175781-3.71875-.53125l-13.886719-4.007813c-9.492188-2.734374-19.519531-2.667968-29 .21875l-11.25 3.425782c-6.460938 1.960937-13.316407-1.265625-15.953125-7.511719-.726563-1.714844-.71875-3.648437.019531-5.355469 7.121094-16.527344 23.921875-27.203125 42.816406-27.203125 19.113281 0 35.988281 10.851563 42.992188 27.652344.714843 1.714844.699219 3.648437-.039063 5.355469-2.164062 4.964844-6.871094 7.957031-11.980468 7.957031zm-31.738282-20.195313c6.027344 0 12.046875.839844 17.917969 2.535157l9.082031 2.617187c-6.046875-7.550781-15.789062-12.269531-26.234375-12.269531-10.585937 0-20.214843 4.617187-26.242187 12.210937l6.636718-2.285156c6.152344-1.875 12.5-2.808594 18.839844-2.808594zm0 0" fill="#4c241d"/><path d="m408.539062 165.929688c-24.367187 38.121093-77.601562 47.621093-118.898437 21.222656-41.296875-26.398438-55.019531-78.699219-30.652344-116.820313 24.367188-38.121093 59.21875-18.863281 100.515625 7.535157 41.292969 26.402343 73.402344 49.945312 49.035156 88.0625zm0 0" fill="#a9ba5a"/><path d="m339.878906 208.9375c-18.746094 0-37.421875-5.488281-53.921875-16.035156-21.417969-13.691406-36.644531-34.300782-42.871093-58.03125-6.28125-23.933594-2.671876-48.160156 10.152343-68.222656 12.804688-20.03125 29.484375-27.703126 50.988281-23.4375 18.371094 3.632812 38.371094 15.746093 58.957032 28.90625 20.582031 13.152343 39.96875 26.21875 50.980468 41.375 12.886719 17.726562 12.933594 36.085937.128907 56.117187-12.828125 20.0625-33.300781 33.5-57.65625 37.847656-5.550781.996094-11.160157 1.480469-16.757813 1.480469zm-46.472656-153.1875c-11.683594 0-20.730469 5.847656-28.660156 18.261719-10.753906 16.804687-13.753906 37.191406-8.453125 57.390625 5.351562 20.402344 18.5 38.152344 37.019531 49.996094 18.53125 11.84375 40.179688 16.316406 60.925781 12.621093 20.558594-3.675781 37.796875-14.957031 48.542969-31.769531 9.695312-15.160156 9.800781-27.71875.339844-40.730469-9.617188-13.226562-27.859375-25.472656-47.292969-37.894531-19.445313-12.425781-38.226563-23.847656-54.257813-27.019531-2.859374-.566407-5.578124-.855469-8.164062-.855469zm0 0" fill="#4c241d"/><path d="m15.324219 165.929688c24.367187 38.121093 77.601562 47.621093 118.898437 21.222656 41.296875-26.398438 55.019532-78.699219 30.652344-116.820313-24.367188-38.121093-59.21875-18.863281-100.515625 7.535157-41.292969 26.398437-73.402344 49.945312-49.035156 88.0625zm0 0" fill="#a9ba5a"/><path d="m83.945312 208.878906c-29.738281 0-58.039062-13.726562-74.375-39.269531-12.800781-20.03125-12.761718-38.390625.128907-56.117187 11.015625-15.15625 30.402343-28.222657 50.984375-41.375 35.878906-22.933594 80.523437-51.484376 109.945312-5.464844 12.824219 20.058594 16.425782 44.292968 10.144532 68.21875-6.226563 23.734375-21.453126 44.339844-42.875 58.035156-16.890626 10.796875-35.695313 15.972656-53.953126 15.972656zm-62.867187-46.628906c22.300781 34.894531 71.398437 43.472656 109.46875 19.148438 18.523437-11.84375 31.671875-29.59375 37.023437-49.996094 5.300782-20.199219 2.300782-40.585938-8.449218-57.390625-18.871094-29.535157-43.34375-20.902344-91.082032 9.613281-19.4375 12.417969-37.679687 24.664062-47.296874 37.890625-9.460938 13.015625-9.359376 25.574219.335937 40.734375zm0 0" fill="#4c241d"/><path d="m404.105469 310.003906c0 4.335938-3.515625 7.851563-7.855469 7.851563-4.335938 0-7.851562-3.515625-7.851562-7.851563 0-4.339844 3.515624-7.855468 7.851562-7.855468 4.339844 0 7.855469 3.515624 7.855469 7.855468zm0 0" fill="#4c241d"/></svg>