<svg height="415pt" viewBox="0 -1 415.17752 415" width="415pt" xmlns="http://www.w3.org/2000/svg"><path d="m315.769531 256.089844c0 84.828125-68.769531 153.597656-153.601562 153.597656-84.828125 0-153.597657-68.769531-153.597657-153.597656 0-84.832032 68.769532-153.601563 153.597657-153.601563 84.832031 0 153.601562 68.769531 153.601562 153.601563zm0 0" fill="#c1dbdc"/><path d="m107.652344 343.652344c-16.453125-23.867188-26.101563-52.871094-26.101563-84.148438h292.539063c0 81.488282-65.488282 147.546875-146.269532 147.546875-25.390624 0-49.269531-6.523437-70.082031-18.003906" fill="#fff"/><path d="m227.816406 413.875c-25.644531 0-51.019531-6.515625-73.375-18.851562-3.304687-1.820313-4.503906-5.972657-2.679687-9.273438 1.816406-3.304688 5.96875-4.507812 9.273437-2.679688 20.34375 11.21875 43.4375 17.152344 66.785156 17.152344 74.625 0 135.742188-59.457031 139.277344-133.890625h-278.558594c1.25 26.425781 9.734376 51.6875 24.734376 73.445313 2.136718 3.101562 1.359374 7.355468-1.746094 9.492187-3.105469 2.136719-7.359375 1.359375-9.496094-1.746093-17.863281-25.910157-27.304688-56.351563-27.304688-88.019532 0-3.769531 3.054688-6.828125 6.828126-6.828125h292.535156c3.769531 0 6.828125 3.058594 6.828125 6.828125-.003907 85.121094-68.683594 154.371094-153.101563 154.371094zm0 0" fill="#4c241d"/><path d="m135.992188 381.1875c-1.515626 0-3.039063-.5-4.304688-1.535156-3.507812-2.851563-6.933594-5.90625-10.191406-9.074219-2.703125-2.632813-2.761719-6.953125-.132813-9.652344 2.632813-2.707031 6.953125-2.761719 9.652344-.132812 2.96875 2.886719 6.097656 5.675781 9.289063 8.277343 2.925781 2.378907 3.363281 6.679688.984374 9.601563-1.351562 1.652344-3.316406 2.515625-5.296874 2.515625zm0 0" fill="#4c241d"/><path d="m227.820312 111.953125c80.78125 0 146.269532 66.0625 146.269532 147.550781h-292.539063c0-81.488281 65.488281-147.550781 146.269531-147.550781zm0 0" fill="#9dc1e4"/><path d="m374.085938 266.328125h-292.535157c-3.769531 0-6.824219-3.054687-6.824219-6.824219 0-85.125 68.675782-154.375 153.089844-154.375 84.417969 0 153.097656 69.25 153.097656 154.375 0 3.769532-3.054687 6.824219-6.828124 6.824219zm-285.542969-13.652344h278.554687c-3.535156-74.4375-64.65625-133.894531-139.277344-133.894531-74.621093 0-135.742187 59.457031-139.277343 133.894531zm0 0" fill="#4c241d"/><path d="m274.542969 260.78125c0 25.804688-20.917969 46.722656-46.722657 46.722656-25.804687 0-46.722656-20.917968-46.722656-46.722656s20.917969-46.722656 46.722656-46.722656c25.804688 0 46.722657 20.917968 46.722657 46.722656zm0 0" fill="#edebdc"/><path d="m227.816406 314.332031c-29.527344 0-53.546875-24.023437-53.546875-53.550781 0-29.53125 24.019531-53.550781 53.546875-53.550781 29.53125 0 53.554688 24.019531 53.554688 53.550781 0 29.527344-24.023438 53.550781-53.554688 53.550781zm0-93.449219c-22 0-39.894531 17.898438-39.894531 39.902344 0 22 17.894531 39.894532 39.894531 39.894532 22.003906 0 39.902344-17.894532 39.902344-39.894532 0-22.003906-17.898438-39.902344-39.902344-39.902344zm0 0" fill="#4c241d"/><path d="m248.160156 260.78125c0 11.234375-9.105468 20.339844-20.339844 20.339844-11.234374 0-20.339843-9.105469-20.339843-20.339844s9.105469-20.339844 20.339843-20.339844c11.234376 0 20.339844 9.105469 20.339844 20.339844zm0 0" fill="#edebdc"/><g fill="#4c241d"><path d="m227.816406 287.949219c-14.976562 0-27.164062-12.1875-27.164062-27.167969s12.1875-27.164062 27.164062-27.164062c14.980469 0 27.167969 12.183593 27.167969 27.164062s-12.183594 27.167969-27.167969 27.167969zm0-40.679688c-7.449218 0-13.511718 6.0625-13.511718 13.511719s6.0625 13.515625 13.511718 13.515625c7.449219 0 13.515625-6.066406 13.515625-13.515625s-6.0625-13.511719-13.515625-13.511719zm0 0"/><path d="m363.554688 54.703125c-3.769532 0-6.824219-3.058594-6.824219-6.828125v-20.480469c0-3.769531 3.054687-6.824219 6.824219-6.824219 3.769531 0 6.828124 3.054688 6.828124 6.824219v20.480469c0 3.769531-3.058593 6.828125-6.828124 6.828125zm0 0"/><path d="m363.554688 102.488281c-3.769532 0-6.824219-3.054687-6.824219-6.828125v-20.476562c0-3.773438 3.054687-6.828125 6.824219-6.828125 3.769531 0 6.828124 3.054687 6.828124 6.828125v20.476562c0 3.773438-3.058593 6.828125-6.828124 6.828125zm0 0"/><path d="m349.902344 68.355469h-20.480469c-3.769531 0-6.824219-3.058594-6.824219-6.828125 0-3.769532 3.054688-6.824219 6.824219-6.824219h20.480469c3.769531 0 6.828125 3.054687 6.828125 6.824219 0 3.769531-3.058594 6.828125-6.828125 6.828125zm0 0"/><path d="m397.6875 68.355469h-20.476562c-3.773438 0-6.828126-3.058594-6.828126-6.828125 0-3.769532 3.054688-6.824219 6.828126-6.824219h20.476562c3.773438 0 6.828125 3.054687 6.828125 6.824219 0 3.769531-3.054687 6.828125-6.828125 6.828125zm0 0"/><path d="m21.039062 209.480469c-3.417968 0-6.804687-.84375-9.90625-2.5-4.957031-2.65625-8.589843-7.082031-10.21875-12.464844-1.628906-5.378906-1.070312-11.078125 1.585938-16.035156 2.652344-4.960938 7.078125-8.589844 12.460938-10.21875 11.097656-3.371094 22.886718 2.933593 26.257812 14.042969 3.367188 11.109374-2.933594 22.890624-14.042969 26.261718-2.019531.609375-4.085937.914063-6.136719.914063zm.023438-28.476563c-.710938 0-1.429688.105469-2.144531.324219-1.890625.570313-3.445313 1.847656-4.378907 3.589844-.933593 1.742187-1.128906 3.746093-.554687 5.640625.570313 1.894531 1.847656 3.449218 3.589844 4.378906 1.742187.933594 3.753906 1.132812 5.640625.558594 3.90625-1.183594 6.121094-5.328125 4.9375-9.234375-.96875-3.191407-3.914063-5.257813-7.089844-5.257813zm0 0"/><path d="m34.554688 42.203125c-11.609376 0-21.054688-9.445313-21.054688-21.058594 0-11.609375 9.445312-21.0546872 21.054688-21.0546872 11.609374 0 21.058593 9.4453122 21.058593 21.0546872 0 11.613281-9.449219 21.058594-21.058593 21.058594zm0-28.460937c-4.082032 0-7.402344 3.320312-7.402344 7.402343 0 4.085938 3.320312 7.40625 7.402344 7.40625 4.085937 0 7.402343-3.320312 7.402343-7.40625 0-4.082031-3.316406-7.402343-7.402343-7.402343zm0 0"/><path d="m92.242188 93.824219c-1.746094 0-3.492188-.664063-4.828126-2-2.664062-2.664063-2.664062-6.984375 0-9.652344l20.128907-20.125c2.664062-2.667969 6.988281-2.667969 9.652343 0 2.664063 2.664063 2.664063 6.984375 0 9.652344l-20.125 20.125c-1.335937 1.335937-3.082031 2-4.828124 2zm0 0"/><path d="m112.367188 93.824219c-1.746094 0-3.492188-.664063-4.824219-2l-20.128907-20.125c-2.664062-2.667969-2.664062-6.988281 0-9.652344 2.667969-2.667969 6.988282-2.667969 9.65625 0l20.125 20.125c2.664063 2.667969 2.664063 6.988281 0 9.652344-1.332031 1.335937-3.082031 2-4.828124 2zm0 0"/><path d="m224.03125 33.171875c0 6.285156-5.097656 11.382813-11.386719 11.382813-6.285156 0-11.382812-5.097657-11.382812-11.382813 0-6.289063 5.097656-11.386719 11.382812-11.386719 6.289063 0 11.386719 5.097656 11.386719 11.386719zm0 0"/><path d="m415.175781 176.53125c0 6.289062-5.09375 11.382812-11.382812 11.382812-6.289063 0-11.386719-5.09375-11.386719-11.382812s5.097656-11.386719 11.386719-11.386719c6.289062 0 11.382812 5.097657 11.382812 11.386719zm0 0"/></g><path d="m294.007812 224.066406-2.613281-2c-8.128906-6.21875-9.589843-18.226562-3.328125-27.371094l24.019532-35.085937c8.15625-11.917969 23.949218-15.132813 34.539062-7.03125s11.621094 24.1875 2.25 35.175781l-27.578125 32.363282c-7.191406 8.433593-19.160156 10.167968-27.289063 3.949218zm0 0" fill="#f53e28"/><path d="m305.152344 234.609375c-5.417969 0-10.78125-1.667969-15.289063-5.117187l-2.617187-2.003907c-11-8.417969-13.113282-24.515625-4.8125-36.648437l24.019531-35.085938c5.164063-7.550781 13.160156-12.6875 21.921875-14.09375 8.125-1.304687 16.066406.65625 22.398438 5.496094 6.332031 4.847656 10.296874 12.011719 11.164062 20.1875.9375 8.820312-1.929688 17.878906-7.867188 24.84375l-27.578124 32.355469c-5.628907 6.601562-13.539063 10.066406-21.339844 10.066406zm28.070312-79.679687c-.886718 0-1.785156.070312-2.691406.214843-5.078125.816407-9.75 3.847657-12.8125 8.320313l-24.019531 35.089844c-4.199219 6.136718-3.394531 14.085937 1.84375 18.09375l2.613281 1.996093c5.230469 4.015625 13.121094 2.714844 17.945312-2.957031l27.578126-32.355469c3.519531-4.125 5.222656-9.429687 4.679687-14.546875-.46875-4.40625-2.558594-8.234375-5.882813-10.78125-2.636718-2.019531-5.851562-3.074218-9.253906-3.074218zm0 0" fill="#4c241d"/><path d="m160.035156 224.066406 2.617188-2c8.125-6.21875 9.585937-18.226562 3.324218-27.371094l-24.019531-35.085937c-8.15625-11.917969-23.949219-15.132813-34.539062-7.03125-10.589844 8.101563-11.621094 24.1875-2.253907 35.175781l27.582032 32.363282c7.191406 8.433593 19.160156 10.167968 27.289062 3.949218zm0 0" fill="#f53e28"/><path d="m148.890625 234.609375c-7.796875 0-15.710937-3.460937-21.335937-10.0625l-27.582032-32.363281c-5.933594-6.960938-8.804687-16.015625-7.863281-24.839844.867187-8.171875 4.828125-15.339844 11.160156-20.183594 6.328125-4.847656 14.269531-6.816406 22.398438-5.496094 8.765625 1.402344 16.757812 6.539063 21.925781 14.089844l24.019531 35.085938c8.296875 12.132812 6.1875 28.230468-4.808593 36.648437l-2.621094 2.003907c-4.511719 3.449218-9.875 5.117187-15.292969 5.117187zm-28.070313-79.679687c-3.402343 0-6.613281 1.054687-9.253906 3.074218-3.324218 2.542969-5.414062 6.371094-5.882812 10.777344-.539063 5.117188 1.164062 10.421875 4.679687 14.542969l27.582031 32.363281c4.820313 5.660156 12.699219 6.964844 17.945313 2.953125l2.613281-2c5.234375-4.003906 6.042969-11.953125 1.839844-18.089844l-24.019531-35.089843c-3.0625-4.472657-7.730469-7.503907-12.8125-8.316407-.90625-.144531-1.804688-.214843-2.691407-.214843zm0 0" fill="#4c241d"/></svg>