<svg height="414pt" viewBox="-2 0 414 414.19093" width="414pt" xmlns="http://www.w3.org/2000/svg"><path d="m307.296875 201.386719c0 84.832031-68.769531 153.601562-153.601563 153.601562-84.832031 0-153.601562-68.769531-153.601562-153.601562s68.769531-153.601563 153.601562-153.601563c84.832032 0 153.601563 68.769532 153.601563 153.601563zm0 0" fill="#c1dbdc"/><g fill="#4c241d"><path d="m56.183594 39.488281c-1.746094 0-3.492188-.667969-4.828125-2-2.664063-2.667969-2.664063-6.988281 0-9.652343l12.453125-12.457032c2.667968-2.664062 6.988281-2.664062 9.65625 0 2.664062 2.667969 2.664062 6.988282 0 9.65625l-12.453125 12.453125c-1.335938 1.332031-3.082031 2-4.828125 2zm0 0"/><path d="m27.128906 68.539062c-1.746094 0-3.492187-.667968-4.828125-2-2.664062-2.664062-2.664062-6.988281 0-9.652343l12.457031-12.453125c2.664063-2.667969 6.984376-2.667969 9.652344 0 2.664063 2.664062 2.664063 6.988281 0 9.652344l-12.453125 12.453124c-1.335937 1.335938-3.082031 2-4.828125 2zm0 0"/><path d="m39.582031 39.488281c-1.746093 0-3.492187-.667969-4.824219-2l-12.457031-12.453125c-2.664062-2.667968-2.664062-6.988281 0-9.65625 2.667969-2.664062 6.988281-2.664062 9.65625 0l12.453125 12.457032c2.664063 2.664062 2.664063 6.984374 0 9.652343-1.335937 1.332031-3.078125 2-4.828125 2zm0 0"/><path d="m68.636719 68.539062c-1.746094 0-3.492188-.667968-4.828125-2l-12.453125-12.453124c-2.664063-2.664063-2.664063-6.988282 0-9.652344 2.667969-2.667969 6.988281-2.667969 9.65625 0l12.453125 12.453125c2.664062 2.664062 2.664062 6.988281 0 9.652343-1.335938 1.335938-3.082032 2-4.828125 2zm0 0"/><path d="m33.046875 414.191406c-3.417969 0-6.804687-.84375-9.90625-2.5-4.957031-2.65625-8.589844-7.078125-10.21875-12.464844-1.628906-5.378906-1.070313-11.074218 1.585937-16.035156 2.652344-4.960937 7.078126-8.589844 12.460938-10.21875 11.105469-3.367187 22.890625 2.933594 26.257812 14.042969 3.367188 11.109375-2.933593 22.890625-14.042968 26.261719-2.019532.609375-4.085938.914062-6.136719.914062zm.023437-28.472656c-.710937 0-1.429687.101562-2.144531.320312-1.890625.570313-3.445312 1.847657-4.378906 3.589844-.929687 1.742188-1.128906 3.746094-.554687 5.640625.570312 1.894531 1.847656 3.449219 3.589843 4.378907 1.742188.933593 3.75 1.136718 5.640625.558593 3.90625-1.183593 6.121094-5.328125 4.9375-9.234375-.96875-3.191406-3.914062-5.253906-7.089844-5.253906zm0 0"/><path d="m374.242188 42.113281c-11.609376 0-21.054688-9.445312-21.054688-21.054687 0-11.613282 9.445312-21.058594 21.054688-21.058594 11.609374 0 21.058593 9.445312 21.058593 21.058594 0 11.609375-9.449219 21.054687-21.058593 21.054687zm0-28.460937c-4.082032 0-7.402344 3.320312-7.402344 7.40625 0 4.082031 3.320312 7.402344 7.402344 7.402344 4.085937 0 7.402343-3.320313 7.402343-7.402344 0-4.085938-3.316406-7.40625-7.402343-7.40625zm0 0"/><path d="m294.699219 27.886719c0 5.082031-4.121094 9.199219-9.203125 9.199219-5.082032 0-9.203125-4.117188-9.203125-9.199219s4.121093-9.203125 9.203125-9.203125c5.082031 0 9.203125 4.121094 9.203125 9.203125zm0 0"/><path d="m28.457031 307.777344c0 5.082031-4.117187 9.203125-9.199219 9.203125-5.082031 0-9.203124-4.121094-9.203124-9.203125 0-5.082032 4.121093-9.199219 9.203124-9.199219 5.082032 0 9.199219 4.117187 9.199219 9.199219zm0 0"/><path d="m377.316406 394.109375c-1.746094 0-3.492187-.667969-4.828125-2-2.664062-2.664063-2.664062-6.988281 0-9.652344l20.128907-20.125c2.664062-2.667969 6.988281-2.667969 9.652343 0 2.667969 2.664063 2.667969 6.984375 0 9.652344l-20.125 20.125c-1.335937 1.332031-3.082031 2-4.828125 2zm0 0"/></g><path d="m218.222656 39.757812s-30.78125 30.78125-32.980468 92.347657c-.640626 17.953125 1.726562 35.890625 6.085937 53.320312l8.367187 33.464844h37.058594l8.367188-33.464844c4.359375-17.429687 6.726562-35.367187 6.085937-53.320312-2.199219-61.5625-32.984375-92.347657-32.984375-92.347657zm0 0" fill="#a9ba5a"/><path d="m236.753906 225.71875h-37.0625c-3.132812 0-5.863281-2.136719-6.625-5.171875l-8.359375-33.460937c-4.796875-19.167969-6.910156-37.746094-6.289062-55.222657 2.269531-63.519531 33.648437-95.59375 34.980469-96.929687 2.664062-2.664063 6.988281-2.664063 9.652343 0 1.332031 1.335937 32.707031 33.410156 34.976563 96.929687.621094 17.476563-1.492188 36.054688-6.289063 55.222657l-8.359375 33.460937c-.757812 3.035156-3.488281 5.171875-6.625 5.171875zm-31.730468-13.65625h26.402343l7.070313-28.292969c4.484375-17.921875 6.46875-35.226562 5.886718-51.421875-1.539062-43.085937-17.828124-70.527344-26.15625-81.84375-8.328124 11.316406-24.617187 38.757813-26.160156 81.84375-.578125 16.195313 1.40625 33.5 5.886719 51.421875zm0 0" fill="#4c241d"/><path d="m109.871094 71.757812s-7.726563 42.839844 25.585937 94.664063c9.714844 15.113281 21.890625 28.492187 35.414063 40.324219l25.957031 22.714844 15.21875-10.570313 15.222656-10.570313-12.21875-32.253906c-6.363281-16.804687-14.648437-32.886718-25.417969-47.269531-36.921874-49.3125-79.761718-57.039063-79.761718-57.039063zm0 0" fill="#a9ba5a"/><path d="m196.828125 236.285156c-1.609375 0-3.21875-.570312-4.5-1.6875l-25.957031-22.714844c-14.867188-13.003906-27.199219-27.058593-36.65625-41.769531-34.367188-53.46875-26.898438-97.710937-26.5625-99.566406.320312-1.785156 1.339844-3.367187 2.824218-4.398437 1.488282-1.03125 3.332032-1.4375 5.101563-1.109376 1.863281.332032 45.929687 8.785157 84.019531 59.667969 10.480469 13.988281 19.339844 30.457031 26.339844 48.941407l12.214844 32.253906c1.109375 2.929687.085937 6.234375-2.488282 8.023437l-30.445312 21.140625c-1.175781.816406-2.535156 1.21875-3.890625 1.21875zm-80.828125-155.703125c-.386719 14.042969 1.886719 45.878907 25.199219 82.148438 8.769531 13.632812 20.261719 26.714843 34.164062 38.878906l21.949219 19.203125 21.683594-15.058594-10.324219-27.273437c-6.546875-17.28125-14.792969-32.621094-24.5-45.59375-25.84375-34.507813-54.878906-47.761719-68.171875-52.304688zm0 0" fill="#4c241d"/><path d="m320.402344 71.757812s7.726562 42.839844-25.585938 94.664063c-9.714844 15.113281-21.890625 28.492187-35.414062 40.324219l-25.957032 22.714844-15.222656-10.570313-15.21875-10.570313 12.21875-32.253906c6.359375-16.804687 14.648438-32.886718 25.414063-47.269531 36.921875-49.3125 79.765625-57.039063 79.765625-57.039063zm0 0" fill="#a9ba5a"/><path d="m233.445312 236.285156c-1.355468 0-2.714843-.402344-3.890624-1.21875l-30.445313-21.140625c-2.574219-1.789062-3.597656-5.09375-2.488281-8.023437l12.214844-32.253906c7-18.484376 15.859374-34.953126 26.335937-48.941407 38.09375-50.878906 82.164063-59.335937 84.019531-59.667969 1.769532-.324218 3.617188.078126 5.105469 1.109376 1.484375 1.03125 2.503906 2.613281 2.824219 4.398437.332031 1.855469 7.804687 46.097656-26.5625 99.5625-9.460938 14.710937-21.792969 28.769531-36.660156 41.773437l-25.957032 22.714844c-1.277344 1.121094-2.886718 1.6875-4.496094 1.6875zm-22.167968-30.53125 21.6875 15.058594 21.941406-19.203125c13.90625-12.164063 25.398438-25.246094 34.167969-38.882813 23.453125-36.484374 25.664062-68.183593 25.234375-82.15625-13.28125 4.53125-42.34375 17.777344-68.210938 52.316407-9.707031 12.96875-17.949218 28.308593-24.496094 45.59375zm0 0" fill="#4c241d"/><path d="m403.683594 160.195312s-19.449219 38.945313-77.148438 60.53125c-16.828125 6.292969-34.589844 9.726563-52.503906 11.117188l-34.386719 2.664062-5.871093-17.578124-5.867188-17.578126 29.089844-18.53125c15.152344-9.65625 31.414062-17.582031 48.648437-22.660156 59.09375-17.414062 98.039063 2.035156 98.039063 2.035156zm0 0" fill="#a9ba5a"/><path d="m239.640625 241.335938c-2.917969 0-5.539063-1.863282-6.472656-4.664063l-11.738281-35.15625c-.988282-2.96875.167968-6.234375 2.808593-7.917969l29.089844-18.53125c16.671875-10.621094 33.625-18.511718 50.386719-23.453125 60.96875-17.972656 101.328125 1.632813 103.015625 2.476563 1.621093.804687 2.855469 2.226562 3.425781 3.941406.574219 1.722656.441406 3.59375-.367188 5.214844-.84375 1.6875-21.332031 41.605468-80.863281 63.878906-16.378906 6.125-34.667969 10-54.367187 11.527344l-34.390625 2.664062c-.175781.011719-.351563.019532-.527344.019532zm-3.570313-39.089844 8.359376 25.042968 29.074218-2.25c18.425782-1.429687 35.460938-5.027343 50.640625-10.703124 40.625-15.199219 61.363281-39.273438 69.378907-50.726563-13.347657-4.316406-44.554688-11.101563-85.949219 1.097656-15.535157 4.582031-31.320313 11.941407-46.910157 21.871094zm0 0" fill="#4c241d"/><path d="m26.589844 160.195312s19.449218 38.945313 77.144531 60.53125c16.828125 6.292969 34.59375 9.726563 52.503906 11.117188l34.390625 2.664062 5.871094-17.578124 5.867188-17.578126-29.089844-18.53125c-15.152344-9.65625-31.414063-17.582031-48.648438-22.660156-59.09375-17.414062-98.039062 2.035156-98.039062 2.035156zm0 0" fill="#a9ba5a"/><path d="m190.632812 241.335938c-.175781 0-.351562-.007813-.53125-.023438l-34.390624-2.664062c-19.699219-1.527344-37.988282-5.402344-54.363282-11.527344-59.535156-22.273438-80.019531-62.191406-80.863281-63.878906-.8125-1.621094-.945313-3.492188-.371094-5.214844.574219-1.714844 1.808594-3.136719 3.425781-3.941406 1.6875-.839844 42.058594-20.4375 103.015626-2.472657 16.765624 4.9375 33.71875 12.828125 50.386718 23.449219l29.089844 18.53125c2.644531 1.683594 3.800781 4.945312 2.808594 7.917969l-11.734375 35.15625c-.9375 2.804687-3.558594 4.667969-6.472657 4.667969zm-153.851562-77.738282c8.09375 11.484375 28.964844 35.625 69.347656 50.738282 15.179688 5.675781 32.214844 9.277343 50.636719 10.703124l29.078125 2.25 8.359375-25.042968-24.59375-15.667969c-15.59375-9.929687-31.375-17.292969-46.910156-21.871094-41.371094-12.175781-72.546875-5.425781-85.917969-1.109375zm-10.191406-3.402344h.066406zm0 0" fill="#4c241d"/><path d="m397.441406 394.109375c-1.742187 0-3.492187-.667969-4.824218-2l-20.128907-20.125c-2.664062-2.667969-2.664062-6.988281 0-9.652344 2.667969-2.667969 6.988281-2.667969 9.65625 0l20.125 20.125c2.667969 2.664063 2.667969 6.988281 0 9.652344-1.332031 1.332031-3.082031 2-4.828125 2zm0 0" fill="#4c241d"/><path d="m359.335938 235.953125c9.496093 15.4375 14.804687 32.683594 14.804687 50.882813 0 65.988281-69.804687 119.480468-155.917969 119.480468-86.109375 0-155.914062-53.492187-155.914062-119.480468 0-65.988282 69.804687-119.480469 155.914062-119.480469 39.460938 0 75.5 11.234375 102.964844 29.757812" fill="#9dc1e4"/><path d="m218.226562 413.144531c-89.738281 0-162.742187-56.660156-162.742187-126.308593 0-69.648438 73.003906-126.308594 162.742187-126.308594 39.289063 0 77.210938 10.980468 106.777344 30.921875 3.125 2.105469 3.949219 6.351562 1.839844 9.476562-2.109375 3.128907-6.347656 3.949219-9.476562 1.84375-27.335938-18.433593-62.542969-28.585937-99.144532-28.585937-82.207031 0-149.085937 50.535156-149.085937 112.652344 0 62.117187 66.878906 112.652343 149.085937 112.652343 82.207032 0 149.085938-50.535156 149.085938-112.652343 0-16.511719-4.636719-32.425782-13.792969-47.308594-1.972656-3.214844-.96875-7.417969 2.242187-9.394532 3.210938-1.972656 7.414063-.972656 9.390626 2.238282 10.492187 17.066406 15.816406 35.394531 15.816406 54.464844 0 69.648437-73.003906 126.308593-162.738282 126.308593zm0 0" fill="#4c241d"/><path d="m348.042969 227.460938c-1.90625 0-3.804688-.792969-5.15625-2.347657-2.761719-3.175781-5.777344-6.285156-8.96875-9.246093-2.761719-2.566407-2.921875-6.886719-.355469-9.648438 2.570312-2.761719 6.882812-2.921875 9.648438-.355469 3.539062 3.289063 6.894531 6.75 9.976562 10.292969 2.476562 2.839844 2.175781 7.152344-.671875 9.628906-1.289063 1.125-2.886719 1.675782-4.472656 1.675782zm0 0" fill="#4c241d"/><path d="m215.136719 340.785156c-13.15625 0-23.855469-10.703125-23.855469-23.859375 0-3.769531 3.058594-6.824219 6.828125-6.824219s6.824219 3.054688 6.824219 6.824219c0 5.628907 4.578125 10.203125 10.203125 10.203125 5.621093 0 10.199219-4.574218 10.199219-10.203125 0-3.769531 3.058593-6.824219 6.828124-6.824219 3.769532 0 6.824219 3.054688 6.824219 6.824219 0 13.15625-10.699219 23.859375-23.851562 23.859375zm0 0" fill="#4c241d"/><path d="m162.632812 280.660156c0 10.234375-8.296874 18.53125-18.53125 18.53125-10.234374 0-18.53125-8.296875-18.53125-18.53125s8.296876-18.53125 18.53125-18.53125c10.234376 0 18.53125 8.296875 18.53125 18.53125zm0 0" fill="#f53e28"/><path d="m144.101562 306.015625c-13.980468 0-25.359374-11.371094-25.359374-25.355469 0-13.980468 11.378906-25.359375 25.359374-25.359375 13.984376 0 25.355469 11.378907 25.355469 25.359375 0 13.984375-11.371093 25.355469-25.355469 25.355469zm0-37.0625c-6.457031 0-11.707031 5.25-11.707031 11.707031 0 6.453125 5.25 11.703125 11.707031 11.703125 6.453126 0 11.703126-5.25 11.703126-11.703125 0-6.457031-5.246094-11.707031-11.703126-11.707031zm0 0" fill="#4c241d"/><path d="m304.703125 280.660156c0 10.234375-8.296875 18.53125-18.53125 18.53125s-18.53125-8.296875-18.53125-18.53125 8.296875-18.53125 18.53125-18.53125 18.53125 8.296875 18.53125 18.53125zm0 0" fill="#f53e28"/><path d="m286.171875 306.015625c-13.984375 0-25.359375-11.371094-25.359375-25.355469 0-13.980468 11.375-25.359375 25.359375-25.359375 13.980469 0 25.359375 11.378907 25.359375 25.359375 0 13.984375-11.378906 25.355469-25.359375 25.355469zm0-37.0625c-6.453125 0-11.703125 5.25-11.703125 11.707031 0 6.453125 5.25 11.703125 11.703125 11.703125s11.703125-5.25 11.703125-11.703125c0-6.457031-5.25-11.707031-11.703125-11.707031zm0 0" fill="#4c241d"/><path d="m310.878906 265.21875c0 5.117188-4.148437 9.265625-9.265625 9.265625-5.117187 0-9.265625-4.148437-9.265625-9.265625s4.148438-9.265625 9.265625-9.265625c5.117188 0 9.265625 4.148437 9.265625 9.265625zm0 0" fill="#fff"/><path d="m137.925781 265.21875c0 5.117188-4.148437 9.265625-9.265625 9.265625-5.117187 0-9.265625-4.148437-9.265625-9.265625s4.148438-9.265625 9.265625-9.265625c5.117188 0 9.265625 4.148437 9.265625 9.265625zm0 0" fill="#fff"/></svg>