<svg height="422pt" viewBox="-10 0 422 422.50069" width="422pt" xmlns="http://www.w3.org/2000/svg"><path d="m307.449219 167.253906c0 84.832032-68.769531 153.601563-153.597657 153.601563-84.832031 0-153.601562-68.769531-153.601562-153.601563 0-84.828125 68.769531-153.597656 153.601562-153.597656 84.828126 0 153.597657 68.769531 153.597657 153.597656zm0 0" fill="#c1dbdc"/><g fill="#4c241d"><path d="m396.40625 368.640625h-20.605469c-3.769531 0-6.824219-3.050781-6.824219-6.824219 0-3.773437 3.054688-6.828125 6.824219-6.828125h20.605469c3.769531 0 6.824219 3.054688 6.824219 6.828125 0 3.773438-3.054688 6.824219-6.824219 6.824219zm0 0"/><path d="m348.328125 368.640625h-20.601563c-3.769531 0-6.828124-3.050781-6.828124-6.824219 0-3.773437 3.058593-6.828125 6.828124-6.828125h20.601563c3.769531 0 6.828125 3.054688 6.828125 6.828125 0 3.773438-3.058594 6.824219-6.828125 6.824219zm0 0"/><path d="m362.0625 354.90625c-3.769531 0-6.824219-3.050781-6.824219-6.824219v-20.605469c0-3.773437 3.054688-6.828124 6.824219-6.828124s6.828125 3.054687 6.828125 6.828124v20.605469c0 3.773438-3.058594 6.824219-6.828125 6.824219zm0 0"/><path d="m362.0625 402.980469c-3.769531 0-6.824219-3.050781-6.824219-6.824219v-20.609375c0-3.773437 3.054688-6.824219 6.824219-6.824219s6.828125 3.050782 6.828125 6.824219v20.609375c0 3.773438-3.058594 6.824219-6.828125 6.824219zm0 0"/><path d="m40.027344 407.359375c-3.417969 0-6.800782-.839844-9.902344-2.492187-4.964844-2.652344-8.589844-7.085938-10.21875-12.472657-1.632812-5.375-1.070312-11.074219 1.582031-16.035156 2.652344-4.960937 7.074219-8.585937 12.460938-10.21875 11.109375-3.359375 22.890625 2.933594 26.257812 14.046875 1.632813 5.378906 1.070313 11.078125-1.582031 16.039062-2.652344 4.957032-7.074219 8.585938-12.460938 10.21875-2.019531.613282-4.082031.914063-6.136718.914063zm.023437-28.472656c-.710937 0-1.429687.109375-2.144531.324219-3.90625 1.183593-6.117188 5.324218-4.9375 9.230468.574219 1.894532 1.851562 3.453125 3.59375 4.386719 1.742188.925781 3.757812 1.121094 5.640625.554687 1.890625-.574218 3.449219-1.847656 4.378906-3.59375.933594-1.746093 1.128907-3.746093.558594-5.640624-.96875-3.191407-3.914063-5.261719-7.089844-5.261719zm0 0"/><path d="m381.222656 42.113281c-11.609375 0-21.054687-9.445312-21.054687-21.054687 0-11.613282 9.445312-21.058594 21.054687-21.058594 11.613282 0 21.058594 9.445312 21.058594 21.058594 0 11.609375-9.445312 21.054687-21.058594 21.054687zm0-28.457031c-4.082031 0-7.402344 3.316406-7.402344 7.40625 0 4.082031 3.320313 7.398438 7.402344 7.398438 4.085938 0 7.40625-3.316407 7.40625-7.398438 0-4.089844-3.320312-7.40625-7.40625-7.40625zm0 0"/><path d="m301.679688 21.058594c0 5.082031-4.121094 9.203125-9.203126 9.203125-5.082031 0-9.199218-4.121094-9.199218-9.203125 0-5.082032 4.117187-9.203125 9.199218-9.203125 5.082032 0 9.203126 4.121093 9.203126 9.203125zm0 0"/><path d="m29.3125 66.429688c-1.746094 0-3.496094-.667969-4.828125-2-2.664063-2.667969-2.664063-6.988282 0-9.652344l20.128906-20.121094c2.664063-2.667969 6.984375-2.667969 9.652344 0 2.664063 2.664062 2.664063 6.988281 0 9.652344l-20.128906 20.121094c-1.332031 1.332031-3.078125 2-4.824219 2zm0 0"/><path d="m205.050781 54.613281c-3.769531 0-6.828125-3.050781-6.828125-6.824219v-40.960937c0-3.773437 3.058594-6.828125 6.828125-6.828125s6.828125 3.054688 6.828125 6.828125v40.960937c0 3.773438-3.058594 6.824219-6.828125 6.824219zm0 0"/><path d="m215.289062 58.027344c-.949218 0-1.90625-.191406-2.820312-.613282-3.433594-1.558593-4.949219-5.605468-3.390625-9.039062l17.066406-37.546875c1.5625-3.425781 5.628907-4.957031 9.039063-3.386719 3.433594 1.5625 4.949218 5.609375 3.390625 9.042969l-17.066407 37.546875c-1.148437 2.511719-3.625 3.996094-6.21875 3.996094zm0 0"/><path d="m194.8125 58.027344c-2.59375 0-5.074219-1.484375-6.214844-4l-17.066406-37.546875c-1.5625-3.433594-.042969-7.480469 3.386719-9.039063 3.40625-1.574218 7.476562-.046875 9.039062 3.386719l17.066407 37.546875c1.558593 3.433594.042968 7.480469-3.390626 9.039062-.910156.417969-1.871093.613282-2.820312.613282zm0 0"/><path d="m49.4375 66.429688c-1.746094 0-3.492188-.667969-4.824219-2l-20.128906-20.121094c-2.664063-2.664063-2.664063-6.988282 0-9.652344 2.660156-2.667969 6.988281-2.667969 9.652344 0l20.128906 20.121094c2.664063 2.664062 2.664063 6.984375 0 9.652344-1.332031 1.332031-3.082031 2-4.828125 2zm0 0"/></g><path d="m345.835938 130.097656c9.496093 16.988282 14.804687 35.96875 14.804687 55.996094 0 72.613281-69.804687 131.476562-155.914063 131.476562-86.109374 0-155.917968-58.863281-155.917968-131.476562s69.808594-131.480469 155.917968-131.480469c39.460938 0 75.496094 12.363281 102.960938 32.746094" fill="#ffce56"/><path d="m204.726562 324.394531c-89.734374 0-162.742187-62.039062-162.742187-138.300781 0-76.257812 73.007813-138.304688 162.742187-138.304688 39.402344 0 77.410157 12.105469 107.027344 34.085938 3.03125 2.246094 3.664063 6.519531 1.417969 9.546875-2.242187 3.035156-6.519531 3.660156-9.550781 1.414063-27.285156-20.246094-62.402344-31.394532-98.894532-31.394532-82.207031 0-149.089843 55.921875-149.089843 124.652344 0 68.734375 66.882812 124.648438 149.089843 124.648438 82.207032 0 149.085938-55.914063 149.085938-124.648438 0-18.398438-4.6875-36.117188-13.933594-52.65625-1.839844-3.296875-.664062-7.453125 2.628906-9.292969 3.292969-1.835937 7.457032-.65625 9.289063 2.625 10.398437 18.605469 15.671875 38.566407 15.671875 59.328125 0 76.257813-73.003906 138.296875-162.742188 138.296875zm0 0" fill="#4c241d"/><path d="m334.542969 120.066406c-2.011719 0-4.011719-.886718-5.355469-2.59375-2.769531-3.492187-5.796875-6.933594-9.003906-10.210937-2.632813-2.699219-2.582032-7.019531.113281-9.660157 2.695313-2.628906 7.023437-2.582031 9.652344.113282 3.535156 3.617187 6.878906 7.417968 9.941406 11.292968 2.339844 2.953126 1.839844 7.246094-1.113281 9.585938-1.253906.992188-2.75 1.472656-4.234375 1.472656zm0 0" fill="#4c241d"/><path d="m280.015625 260.917969 3.8125-11.464844c4.636719-13.929687-4.003906-28.734375-18.664063-31.972656l-41.101562-9.074219-11.386719-6.722656c-8.523437-5.03125-19.230469-4.9375-27.65625.238281l-8.621093 5.296875-38.082032 11.695312c-13.265625 4.070313-20.753906 17.730469-16.851562 30.738282l1.820312 6.078125c3.046875 10.167969 3.207032 20.949219.453125 31.199219l-2.074219 7.730468c-2.03125 7.5625-4.882812 14.863282-7.777343 22.15625-2.953125 7.441406-4.582031 15.390625-4.582031 23.679688 0 41.515625 39.769531 75.175781 88.832031 75.175781s88.835937-33.660156 88.835937-75.175781c0-5.605469-.746094-11.054688-2.140625-16.300782-3.65625-13.757812-6.789062-27.644531-7.640625-41.832031-.433594-7.257812.523438-14.527343 2.824219-21.445312zm0 0" fill="#ffec95"/><path d="m198.136719 422.5c-52.746094 0-95.664063-36.785156-95.664063-82.007812 0-8.898438 1.707032-17.710938 5.066406-26.191407 3.015626-7.601562 5.660157-14.453125 7.53125-21.414062l2.074219-7.726563c2.425781-9.019531 2.289063-18.519531-.398437-27.472656l-1.820313-6.074219c-4.941406-16.496093 4.65625-34.089843 21.386719-39.226562l37.253906-11.441407 7.882813-4.839843c10.640625-6.53125 23.9375-6.648438 34.691406-.304688l10.453125 6.171875 40.046875 8.839844c8.988281 1.988281 16.707031 7.652344 21.183594 15.539062 4.363281 7.6875 5.265625 16.894532 2.480469 25.253907l-3.8125 11.460937c-2.03125 6.121094-2.871094 12.472656-2.484376 18.890625.855469 14.28125 4.230469 28.480469 7.421876 40.488281 1.574218 5.894532 2.371093 11.96875 2.371093 18.046876-.003906 45.222656-42.917969 82.007812-95.664062 82.007812zm.90625-217.71875c-3.617188 0-7.238281.988281-10.453125 2.960938l-8.617188 5.292968c-.492187.308594-1.019531.539063-1.570312.714844l-38.085938 11.691406c-9.746094 2.996094-15.15625 12.765625-12.3125 22.253906l1.820313 6.074219c3.414062 11.386719 3.585937 23.464844.507812 34.933594l-2.074219 7.726563c-2.0625 7.664062-4.855468 14.914062-8.03125 22.90625-2.71875 6.867187-4.097656 13.984374-4.097656 21.160156 0 37.691406 36.789063 68.351562 82.007813 68.351562 45.222656 0 82.007812-30.660156 82.007812-68.351562 0-4.894532-.640625-9.78125-1.910156-14.535156-3.367187-12.667969-6.929687-27.699219-7.855469-43.1875-.488281-8.160157.574219-16.238282 3.160156-24.011719l3.8125-11.460938c1.585938-4.773437 1.089844-9.820312-1.402343-14.207031-2.570313-4.53125-7.039063-7.792969-12.253907-8.945312l-41.105468-9.074219c-.703125-.152344-1.378906-.417969-2.003906-.785157l-11.386719-6.726562c-3.140625-1.855469-6.648438-2.78125-10.15625-2.78125zm0 0" fill="#4c241d"/><path d="m307.449219 160.429688c0-16.96875-16.808594-30.722657-37.546875-30.722657-20.734375 0-37.546875 13.753907-37.546875 30.722657 0 16.964843 16.8125 30.71875 37.546875 30.71875 20.738281 0 37.546875-13.753907 37.546875-30.71875zm0 0" fill="#fff"/><path d="m269.902344 197.976562c-24.464844 0-44.371094-16.847656-44.371094-37.546874 0-20.703126 19.90625-37.546876 44.371094-37.546876 24.46875 0 44.375 16.84375 44.375 37.546876 0 20.699218-19.90625 37.546874-44.375 37.546874zm0-61.441406c-16.9375 0-30.71875 10.71875-30.71875 23.894532 0 13.171874 13.78125 23.890624 30.71875 23.890624 16.941406 0 30.722656-10.71875 30.722656-23.890624 0-13.175782-13.78125-23.894532-30.722656-23.894532zm0 0" fill="#4c241d"/><path d="m177.742188 160.429688c0-16.96875-16.808594-30.722657-37.546876-30.722657-20.734374 0-37.546874 13.753907-37.546874 30.722657 0 16.964843 16.8125 30.71875 37.546874 30.71875 20.738282 0 37.546876-13.753907 37.546876-30.71875zm0 0" fill="#fff"/><path d="m140.195312 197.976562c-24.464843 0-44.371093-16.847656-44.371093-37.546874 0-20.703126 19.90625-37.546876 44.371093-37.546876 24.46875 0 44.375 16.84375 44.375 37.546876 0 20.699218-19.90625 37.546874-44.375 37.546874zm0-61.441406c-16.9375 0-30.71875 10.71875-30.71875 23.894532 0 13.171874 13.78125 23.890624 30.71875 23.890624 16.941407 0 30.722657-10.71875 30.722657-23.890624 0-13.175782-13.78125-23.894532-30.722657-23.894532zm0 0" fill="#4c241d"/><path d="m184.578125 252.589844c-2.507813 0-4.917969-1.382813-6.113281-3.773438l-6.828125-13.65625c-1.6875-3.371094-.320313-7.472656 3.054687-9.160156 3.378906-1.675781 7.472656-.320312 9.160156 3.054688l6.824219 13.652343c1.6875 3.375.320313 7.476563-3.050781 9.160157-.980469.488281-2.023438.722656-3.046875.722656zm0 0" fill="#4c241d"/><path d="m211.871094 252.589844c-1.023438 0-2.066406-.234375-3.046875-.722656-3.371094-1.683594-4.738281-5.785157-3.050781-9.160157l6.824218-13.652343c1.683594-3.375 5.773438-4.730469 9.160156-3.054688 3.375 1.6875 4.738282 5.789062 3.054688 9.160156l-6.828125 13.65625c-1.199219 2.390625-3.605469 3.773438-6.113281 3.773438zm0 0" fill="#4c241d"/><path d="m266.492188 150.1875c0 3.769531-3.058594 6.828125-6.828126 6.828125-3.769531 0-6.828124-3.058594-6.828124-6.828125s3.058593-6.824219 6.828124-6.824219c3.769532 0 6.828126 3.054688 6.828126 6.824219zm0 0" fill="#4c241d"/><path d="m150.4375 150.1875c0 3.769531-3.058594 6.828125-6.828125 6.828125s-6.824219-3.058594-6.824219-6.828125 3.054688-6.824219 6.824219-6.824219 6.828125 3.054688 6.828125 6.824219zm0 0" fill="#4c241d"/></svg>