<svg height="416pt" viewBox="-5 0 416 416.02645" width="416pt" xmlns="http://www.w3.org/2000/svg"><path d="m307.214844 198.832031c0 84.832031-68.769532 153.601563-153.601563 153.601563s-153.6015622-68.769532-153.6015622-153.601563 68.7695312-153.597656 153.6015622-153.597656 153.601563 68.765625 153.601563 153.597656zm0 0" fill="#c1dbdc"/><g fill="#4c241d"><path d="m57.699219 28.503906c-1.746094 0-3.492188-.664062-4.824219-2-2.667969-2.664062-2.667969-6.984375 0-9.652344l14.851562-14.851562c2.667969-2.667969 6.988282-2.667969 9.652344 0 2.667969 2.664062 2.667969 6.988281 0 9.652344l-14.851562 14.851562c-1.335938 1.335938-3.082032 2-4.828125 2zm0 0"/><path d="m23.046875 63.160156c-1.746094 0-3.492187-.667968-4.828125-2-2.664062-2.667968-2.664062-6.988281 0-9.652344l14.855469-14.855468c2.664062-2.664063 6.984375-2.664063 9.652343 0 2.664063 2.667968 2.664063 6.988281 0 9.652344l-14.855468 14.855468c-1.332032 1.332032-3.078125 2-4.824219 2zm0 0"/><path d="m37.898438 28.503906c-1.746094 0-3.492188-.664062-4.824219-2l-14.855469-14.851562c-2.664062-2.664063-2.664062-6.988282 0-9.652344 2.667969-2.667969 6.988281-2.667969 9.652344 0l14.855468 14.851562c2.664063 2.667969 2.664063 6.988282 0 9.652344-1.332031 1.335938-3.082031 2-4.828124 2zm0 0"/><path d="m72.554688 63.160156c-1.746094 0-3.496094-.667968-4.828126-2l-14.851562-14.855468c-2.667969-2.664063-2.667969-6.984376 0-9.652344 2.664062-2.664063 6.984375-2.664063 9.652344 0l14.851562 14.855468c2.667969 2.664063 2.667969 6.984376 0 9.652344-1.332031 1.332032-3.078125 2-4.824218 2zm0 0"/><path d="m360.503906 80.519531c-11.613281 0-21.058594-9.445312-21.058594-21.054687 0-11.613282 9.445313-21.058594 21.058594-21.058594 11.617188 0 21.0625 9.445312 21.0625 21.058594 0 11.609375-9.445312 21.054687-21.0625 21.054687zm0-28.460937c-4.085937 0-7.40625 3.320312-7.40625 7.40625 0 4.082031 3.320313 7.402344 7.40625 7.402344 4.089844 0 7.410156-3.320313 7.410156-7.402344 0-4.085938-3.320312-7.40625-7.410156-7.40625zm0 0"/><path d="m308.269531 25.328125c0 5.082031-4.121093 9.203125-9.203125 9.203125-5.082031 0-9.203125-4.121094-9.203125-9.203125s4.121094-9.199219 9.203125-9.199219c5.082032 0 9.203125 4.117188 9.203125 9.199219zm0 0"/><path d="m206.566406 70.699219c-1.746094 0-3.492187-.667969-4.828125-2-2.664062-2.664063-2.664062-6.988281 0-9.652344l20.128907-20.121094c2.664062-2.664062 6.984374-2.664062 9.652343 0 2.664063 2.667969 2.664063 6.988281 0 9.652344l-20.128906 20.121094c-1.332031 1.332031-3.078125 2-4.824219 2zm0 0"/><path d="m226.691406 70.699219c-1.746094 0-3.492187-.667969-4.824218-2l-20.128907-20.121094c-2.664062-2.664063-2.664062-6.984375 0-9.652344 2.667969-2.664062 6.988281-2.664062 9.652344 0l20.128906 20.121094c2.664063 2.664063 2.664063 6.988281 0 9.652344-1.332031 1.332031-3.078125 2-4.828125 2zm0 0"/></g><path d="m304.429688 399.78125c-41.75 8.402344-93.699219 13.355469-148.464844 5.339844-101.941406-14.917969-114.019532-27.878906-119.117188-46.566406-3.5625-13.042969-3.261718-26.863282.449219-39.863282 3.332031-11.660156 9-28.285156 18.640625-51.109375 9.332031-22.085937 11.742188-46.484375 6.675781-69.917969l-12.757812-59.007812c-2.605469-12.054688 4.671875-24.039062 16.566406-27.28125 8.351563-2.277344 17.277344.285156 23.148437 6.644531l16.964844 18.378907c6.171875 6.6875 16.734375 6.6875 22.902344 0l16.566406-17.945313c6.289063-6.8125 15.347656-10.371094 24.59375-9.660156l12.390625.953125c8.941407.6875 17.121094 5.304687 22.335938 12.601562 4.488281 6.285156 12.617187 8.808594 19.878906 6.167969l7.367187-2.679687c9.816407-3.566407 20.550782-3.710938 30.460938-.410157 8.597656 2.863281 16.164062 8.191407 21.761719 15.316407l13.648437 17.371093c7.757813 9.871094 20.277344 14.722657 32.65625 12.660157l13.910156-2.316407c14.113282-2.351562 28.359376 3.355469 36.945313 14.800781 8.859375 11.816407 10.140625 27.675782 3.289063 40.761719l-14.875 28.394531c-5.640626 10.765626-7.414063 23.140626-5.035157 35.058594 1.738281 8.679688 5.613281 16.785156 11.28125 23.585938l15.910157 19.09375c4.589843 5.503906 7.101562 12.441406 7.101562 19.609375 0 12.742187-7.878906 24.195312-19.816406 28.65625-5.175782 1.9375-11.285156 4.101562-18.21875 6.359375" fill="#bd53b5"/><path d="m213.09375 416.027344c-19.800781 0-39.207031-1.382813-58.113281-4.15625-99.246094-14.519532-118.046875-27.078125-124.722657-51.519532-3.824218-14.011718-3.660156-29.066406.472657-43.535156 4.175781-14.59375 10.542969-32.050781 18.921875-51.890625 8.878906-21.019531 11.054687-43.773437 6.285156-65.820312l-12.757812-59.011719c-3.367188-15.601562 6.058593-31.109375 21.445312-35.308594 10.851562-2.972656 22.324219.332032 29.960938 8.601563l16.964843 18.378906c1.679688 1.820313 3.964844 2.820313 6.4375 2.820313 2.476563 0 4.753907-1 6.429688-2.8125l16.574219-17.953126c7.746093-8.402343 18.757812-12.714843 30.132812-11.835937l12.390625.953125c10.984375.847656 20.960937 6.472656 27.363281 15.441406 2.699219 3.773438 7.625 5.304688 11.992188 3.71875l7.363281-2.679687c11.222656-4.070313 23.640625-4.246094 34.953125-.464844 9.894531 3.300781 18.527344 9.375 24.96875 17.566406l13.652344 17.375c6.214844 7.914063 16.226562 11.832031 26.167968 10.144531l13.898438-2.316406c16.667969-2.8125 33.375 3.890625 43.535156 17.445313 10.378906 13.839843 11.898438 32.6875 3.875 48.019531l-14.875 28.394531c-4.894531 9.347657-6.453125 20.199219-4.386718 30.558594 1.515624 7.542969 4.914062 14.648437 9.835937 20.546875l15.910156 19.09375c5.59375 6.714844 8.679688 15.234375 8.679688 23.980469 0 15.546875-9.746094 29.632812-24.25 35.054687-5.261719 1.964844-11.457031 4.167969-18.496094 6.460938-3.550781 1.171875-7.433594-.789063-8.605469-4.378906-1.167968-3.582032.792969-7.433594 4.378906-8.609376 6.828126-2.226562 12.847657-4.359374 17.945313-6.257812 9.195313-3.441406 15.375-12.386719 15.375-22.269531 0-5.558594-1.957031-10.964844-5.511719-15.230469l-15.921875-19.097656c-6.363281-7.644532-10.765625-16.84375-12.726562-26.617188-2.675781-13.414062-.660157-27.46875 5.679687-39.570312l14.875-28.390625c5.601563-10.695313 4.539063-23.84375-2.699218-33.5-7.09375-9.441407-18.695313-14.128907-30.367188-12.167969l-13.902344 2.320312c-14.871094 2.464844-29.84375-3.339843-39.144531-15.175781l-13.65625-17.375c-4.785156-6.085937-11.199219-10.605469-18.550781-13.058593-8.40625-2.808594-17.640625-2.671876-25.96875.347656l-7.363282 2.679687c-10.089843 3.683594-21.515624.132813-27.769531-8.613281-4.054687-5.667969-10.359375-9.226562-17.300781-9.761719l-12.398438-.953125c-7.148437-.546875-14.148437 2.171875-19.046874 7.480469l-16.574219 17.953125c-4.222657 4.582031-10.21875 7.207031-16.453125 7.207031-.007813 0-.007813 0-.007813 0-6.234375 0-12.238281-2.625-16.464843-7.207031l-16.96875-18.378906c-4.164063-4.507813-10.417969-6.316406-16.332032-4.695313-8.398437 2.285157-13.53125 10.746094-11.699218 19.253907l12.761718 59.011718c5.359375 24.800782 2.921875 50.394532-7.058594 74.011719-8.167968 19.335937-14.339843 36.269531-18.363281 50.328125-3.453125 12.074219-3.597656 24.585938-.433593 36.1875 4.160156 15.253906 14.742187 27.160156 113.523437 41.613281 46.070313 6.746094 95.238281 4.964844 146.125-5.28125 3.679687-.765625 7.292969 1.648438 8.039063 5.347657.742187 3.691406-1.644532 7.292968-5.347657 8.039062-31.609375 6.371094-62.605469 9.558594-92.675781 9.558594zm0 0" fill="#4c241d"/><path d="m342.4375 390.601562c-3.402344.960938-6.933594 1.917969-10.585938 2.867188" fill="#bd53b5"/><path d="m331.84375 400.292969c-3.03125 0-5.796875-2.039063-6.597656-5.113281-.949219-3.648438 1.242187-7.371094 4.894531-8.320313 3.597656-.933594 7.085937-1.878906 10.445313-2.832031 3.648437-1.007813 7.398437 1.101562 8.425781 4.71875 1.023437 3.632812-1.09375 7.402344-4.71875 8.429687-3.453125.964844-7.035157 1.9375-10.726563 2.898438-.574218.152343-1.152344.21875-1.722656.21875zm0 0" fill="#4c241d"/><path d="m260.390625 183.613281c0 3.496094-2.835937 6.328125-6.328125 6.328125-3.496094 0-6.328125-2.832031-6.328125-6.328125 0-3.496093 2.832031-6.328125 6.328125-6.328125 3.492188 0 6.328125 2.832032 6.328125 6.328125zm0 0" fill="#4c241d"/><path d="m181.277344 174.117188c0 3.496093-2.832032 6.328124-6.328125 6.328124-3.496094 0-6.328125-2.832031-6.328125-6.328124 0-3.492188 2.832031-6.328126 6.328125-6.328126 3.496093 0 6.328125 2.835938 6.328125 6.328126zm0 0" fill="#4c241d"/><path d="m257.320312 216.179688c-70.140624 0-116.863281-12.734376-119.007812-13.328126-3.632812-1.011718-5.757812-4.773437-4.753906-8.40625 1.007812-3.628906 4.722656-5.753906 8.410156-4.753906.550781.152344 57.011719 15.488282 137.152344 12.414063 3.625-.265625 6.9375 2.785156 7.078125 6.558593.148437 3.765626-2.789063 6.933594-6.5625 7.078126-7.664063.304687-15.117188.4375-22.316407.4375zm0 0" fill="#4c241d"/></svg>