<svg height="418pt" viewBox="1 -6 418.99947 418" width="418pt" xmlns="http://www.w3.org/2000/svg"><path d="m324.167969 191.886719c0 84.832031-68.769531 153.601562-153.601563 153.601562-84.832031 0-153.597656-68.769531-153.597656-153.601562 0-84.828125 68.765625-153.597657 153.597656-153.597657 84.832032 0 153.601563 68.769532 153.601563 153.597657zm0 0" fill="#c1dbdc"/><g fill="#4c241d"><path d="m388.433594 28.636719c-1.746094 0-3.492188-.667969-4.828125-2-2.664063-2.667969-2.664063-6.988281 0-9.65625l14.480469-14.480469c2.664062-2.667969 6.988281-2.667969 9.652343 0 2.667969 2.664062 2.667969 6.984375 0 9.652344l-14.480469 14.484375c-1.332031 1.332031-3.078124 2-4.824218 2zm0 0"/><path d="m354.644531 62.425781c-1.746093 0-3.492187-.667969-4.824219-2-2.667968-2.664062-2.667968-6.988281 0-9.652343l14.480469-14.484376c2.664063-2.664062 6.984375-2.664062 9.652344 0 2.664063 2.664063 2.664063 6.988282 0 9.652344l-14.480469 14.484375c-1.332031 1.332031-3.082031 2-4.828125 2zm0 0"/><path d="m369.125 28.636719c-1.746094 0-3.492188-.667969-4.824219-2l-14.480469-14.484375c-2.667968-2.667969-2.667968-6.992188 0-9.652344 2.664063-2.667969 6.988282-2.667969 9.652344 0l14.480469 14.480469c2.664063 2.667969 2.664063 6.992187 0 9.65625-1.335937 1.332031-3.078125 2-4.828125 2zm0 0"/><path d="m402.914062 62.425781c-1.746093 0-3.496093-.667969-4.828124-2l-14.480469-14.484375c-2.664063-2.664062-2.664063-6.988281 0-9.652344 2.667969-2.664062 6.988281-2.664062 9.652343 0l14.480469 14.484376c2.667969 2.664062 2.667969 6.988281 0 9.652343-1.332031 1.332031-3.078125 2-4.824219 2zm0 0"/><path d="m391.253906 391.039062c-3.421875 0-6.808594-.84375-9.910156-2.5-4.957031-2.65625-8.585938-7.078124-10.21875-12.460937s-1.066406-11.078125 1.582031-16.039063c2.652344-4.964843 7.085938-8.589843 12.472657-10.21875 5.359374-1.640624 11.066406-1.074218 16.035156 1.582032 4.960937 2.65625 8.585937 7.078125 10.21875 12.460937v.007813c3.359375 11.109375-2.941406 22.886718-14.046875 26.253906-2.019531.609375-4.082031.914062-6.132813.914062zm.039063-28.476562c-.726563 0-1.445313.105469-2.160157.320312-1.894531.574219-3.453124 1.851563-4.386718 3.59375-.933594 1.742188-1.125 3.746094-.550782 5.640626.570313 1.890624 1.84375 3.449218 3.589844 4.378906 1.753906.941406 3.753906 1.132812 5.640625.554687 3.902344-1.179687 6.121094-5.320312 4.941407-9.230469-.574219-1.890624-1.847657-3.449218-3.59375-4.378906-1.09375-.582031-2.28125-.878906-3.480469-.878906zm0 0"/><path d="m33.765625 35.464844c0 6.144531-4.980469 11.128906-11.128906 11.128906-6.148438 0-11.132813-4.984375-11.132813-11.128906 0-6.148438 4.984375-11.132813 11.132813-11.132813 6.148437 0 11.128906 4.984375 11.128906 11.132813zm0 0"/><path d="m397.9375 169.148438c-11.613281 0-21.058594-9.445313-21.058594-21.058594 0-11.609375 9.445313-21.054688 21.058594-21.054688 11.617188 0 21.0625 9.445313 21.0625 21.054688 0 11.613281-9.445312 21.058594-21.0625 21.058594zm0-28.460938c-4.085938 0-7.40625 3.320312-7.40625 7.402344 0 4.085937 3.320312 7.40625 7.40625 7.40625 4.089844 0 7.410156-3.320313 7.410156-7.40625 0-4.082032-3.320312-7.402344-7.410156-7.402344zm0 0"/><path d="m39.199219 370.957031c-1.746094 0-3.492188-.667969-4.824219-2-2.667969-2.664062-2.667969-6.984375 0-9.652343l20.125-20.125c2.664062-2.667969 6.988281-2.667969 9.652344 0 2.667968 2.664062 2.667968 6.984374 0 9.652343l-20.125 20.125c-1.335938 1.335938-3.082032 2-4.828125 2zm0 0"/><path d="m59.328125 370.957031c-1.746094 0-3.496094-.667969-4.828125-2l-20.125-20.125c-2.667969-2.667969-2.667969-6.988281 0-9.652343 2.664062-2.667969 6.984375-2.667969 9.652344 0l20.125 20.125c2.667968 2.667968 2.667968 6.988281 0 9.652343-1.332032 1.335938-3.082032 2-4.824219 2zm0 0"/><path d="m121.121094 36.453125c-1.746094 0-3.496094-.667969-4.828125-2-2.664063-2.667969-2.664063-6.988281 0-9.65625l20.125-20.125c2.667969-2.664063 6.988281-2.664063 9.65625 0 2.664062 2.664063 2.664062 6.988281 0 9.652344l-20.128907 20.128906c-1.332031 1.332031-3.078124 2-4.824218 2zm0 0"/></g><path d="m101.59375 104.09375 24.71875 24.71875c13.652344 13.652344 13.652344 35.789062 0 49.445312-13.652344 13.652344-35.789062 13.652344-49.445312 0l-24.71875-24.722656-24.722657 24.722656 28.84375 28.839844c27.304688 27.308594 71.578125 27.308594 98.882813 0 27.308594-27.304687 27.308594-71.578125 0-98.882812l-28.839844-28.84375zm0 0" fill="#b5a19c"/><path d="m105.714844 234.367188c-19.65625 0-39.308594-7.480469-54.269532-22.441407l-28.84375-28.84375c-1.28125-1.277343-2-3.015625-2-4.824219 0-1.808593.71875-3.546874 2-4.828124l24.71875-24.71875c2.664063-2.664063 6.988282-2.664063 9.652344 0l24.726563 24.71875c10.972656 10.96875 28.8125 10.96875 39.785156 0 10.96875-10.96875 10.96875-28.820313 0-39.789063l-24.71875-24.722656c-2.664063-2.664063-2.664063-6.988281 0-9.652344l24.722656-24.722656c2.558594-2.558594 7.089844-2.558594 9.652344 0l28.839844 28.84375c29.925781 29.921875 29.925781 78.613281 0 108.539062-14.960938 14.960938-34.613281 22.441407-54.265625 22.441407zm-68.636719-56.113282 24.019531 24.015625c24.601563 24.601563 64.628906 24.601563 89.226563 0 24.601562-24.601562 24.601562-64.628906 0-89.230469l-24.011719-24.015624-15.066406 15.070312 19.894531 19.890625c16.292969 16.292969 16.292969 42.804687 0 59.097656s-42.800781 16.292969-59.09375 0l-19.902344-19.894531zm0 0" fill="#4c241d"/><path d="m6.824219 157.652344 24.722656-24.71875 20.601563 20.601562-24.722657 24.71875zm0 0" fill="#f53e28"/><path d="m27.425781 185.082031c-1.746093 0-3.492187-.667969-4.828125-2l-20.597656-20.601562c-2.667969-2.664063-2.667969-6.984375 0-9.652344l24.71875-24.722656c1.28125-1.277344 3.015625-2 4.828125-2s3.542969.722656 4.824219 2l20.601562 20.605469c2.664063 2.664062 2.664063 6.984374 0 9.652343l-24.722656 24.71875c-1.332031 1.335938-3.078125 2-4.824219 2zm-10.945312-27.425781 10.945312 10.945312 15.066407-15.066406-10.945313-10.945312zm0 0" fill="#4c241d"/><path d="m80.988281 83.488281 24.722657-24.71875 20.601562 20.601563-24.722656 24.71875zm0 0" fill="#9dc1e4"/><path d="m101.59375 110.917969c-1.8125 0-3.546875-.71875-4.828125-2l-20.601563-20.601563c-2.664062-2.667968-2.664062-6.988281 0-9.652344l24.722657-24.722656c2.664062-2.664062 6.984375-2.664062 9.652343 0l20.597657 20.601563c2.667969 2.664062 2.667969 6.988281 0 9.652343l-24.714844 24.722657c-1.28125 1.28125-3.015625 2-4.828125 2zm-10.949219-27.429688 10.949219 10.945313 15.066406-15.066406-10.949218-10.945313zm0 0" fill="#4c241d"/><path d="m141.246094 36.453125c-1.746094 0-3.492188-.667969-4.828125-2l-20.125-20.128906c-2.664063-2.664063-2.664063-6.988281 0-9.652344 2.664062-2.664063 6.988281-2.664063 9.652343 0l20.128907 20.125c2.664062 2.667969 2.664062 6.988281 0 9.65625-1.335938 1.332031-3.082031 2-4.828125 2zm0 0" fill="#4c241d"/><path d="m316.21875 370.25c-16.203125 12.523438-35.355469 21.757812-56.675781 26.472656-77.308594 17.09375-153.835938-31.722656-170.929688-109.03125s31.722657-153.832031 109.03125-170.925781c77.308594-17.097656 153.835938 31.71875 170.929688 109.027344 7.832031 35.425781 1.824219 70.691406-14.421875 100.144531" fill="#b5a19c"/><path d="m228.574219 406.945312c-68.902344 0-131.15625-47.792968-146.628907-117.78125-8.660156-39.167968-1.546874-79.367187 20.027344-113.1875 21.570313-33.824218 55.027344-57.21875 94.191406-65.882812 80.90625-17.875 161.199219 33.371094 179.074219 114.222656 7.886719 35.6875 2.527344 72.949219-15.105469 104.917969-1.820312 3.300781-5.976562 4.5-9.28125 2.679687-3.300781-1.820312-4.5-5.972656-2.679687-9.273437 16.035156-29.0625 20.90625-62.933594 13.734375-95.375-16.25-73.507813-89.269531-120.089844-162.796875-103.839844-73.503906 16.253907-120.085937 89.28125-103.832031 162.792969 16.253906 73.507812 89.3125 120.113281 162.792968 103.835938 19.855469-4.386719 38.011719-12.871094 53.972657-25.207032 2.988281-2.320312 7.273437-1.757812 9.574219 1.222656 2.308593 2.984376 1.757812 7.273438-1.226563 9.574219-17.566406 13.582031-37.539063 22.914063-59.375 27.742188-10.871094 2.40625-21.742187 3.558593-32.441406 3.558593zm0 0" fill="#4c241d"/><path d="m331.917969 362.964844c-1.699219 0-3.40625-.628906-4.726563-1.902344-2.722656-2.609375-2.808594-6.933594-.199218-9.648438 3.210937-3.34375 6.28125-6.878906 9.113281-10.511718 2.3125-2.976563 6.605469-3.503906 9.578125-1.179688 2.972656 2.320313 3.5 6.613282 1.179687 9.582032-3.121093 4-6.492187 7.890624-10.019531 11.5625-1.335938 1.394531-3.132812 2.097656-4.925781 2.097656zm0 0" fill="#4c241d"/><path d="m317.339844 260.15625c0 47.125-38.203125 85.332031-85.332032 85.332031-47.128906 0-85.335937-38.207031-85.335937-85.332031 0-47.128906 38.207031-85.335938 85.335937-85.335938 47.128907 0 85.332032 38.207032 85.332032 85.335938zm0 0" fill="#fff"/><path d="m232.007812 352.316406c-50.820312 0-92.160156-41.347656-92.160156-92.160156 0-50.816406 41.339844-92.160156 92.160156-92.160156 50.820313 0 92.160157 41.34375 92.160157 92.160156 0 50.8125-41.339844 92.160156-92.160157 92.160156zm0-170.667968c-43.289062 0-78.507812 35.214843-78.507812 78.507812 0 43.289062 35.21875 78.503906 78.507812 78.503906 43.285157 0 78.503907-35.214844 78.503907-78.503906 0-43.292969-35.21875-78.507812-78.503907-78.507812zm0 0" fill="#4c241d"/><path d="m194.460938 266.980469c0-20.734375 16.808593-37.546875 37.546874-37.546875 20.734376 0 37.546876 16.8125 37.546876 37.546875" fill="#fff"/><path d="m269.554688 273.808594c-3.773438 0-6.828126-3.058594-6.828126-6.828125 0-16.941407-13.78125-30.71875-30.71875-30.71875-16.941406 0-30.722656 13.777343-30.722656 30.71875 0 3.769531-3.050781 6.828125-6.824218 6.828125-3.773438 0-6.828126-3.058594-6.828126-6.828125 0-24.464844 19.90625-44.371094 44.375-44.371094 24.464844 0 44.371094 19.90625 44.371094 44.371094 0 3.769531-3.054687 6.828125-6.824218 6.828125zm0 0" fill="#4c241d"/><path d="m194.460938 65.59375c0-18.851562 15.28125-34.132812 34.132812-34.132812s34.132812 15.28125 34.132812 34.132812zm0 0" fill="#b5a19c"/><path d="m262.726562 72.421875h-68.265624c-3.773438 0-6.828126-3.058594-6.828126-6.828125 0-22.585938 18.375-40.960938 40.960938-40.960938s40.960938 18.375 40.960938 40.960938c0 3.769531-3.054688 6.828125-6.828126 6.828125zm-60.574218-13.652344h52.878906c-3.03125-11.765625-13.738281-20.480469-26.441406-20.480469-12.699219 0-23.402344 8.714844-26.4375 20.480469zm0 0" fill="#4c241d"/><path d="m214.941406 65.59375h27.304688v47.789062h-27.304688zm0 0" fill="#e7d1c4"/><path d="m242.246094 120.207031h-27.304688c-3.773437 0-6.828125-3.054687-6.828125-6.824219v-47.789062c0-3.769531 3.054688-6.824219 6.828125-6.824219h27.304688c3.773437 0 6.828125 3.054688 6.828125 6.824219v47.789062c0 3.769532-3.054688 6.824219-6.828125 6.824219zm-20.480469-13.652343h13.65625v-34.132813h-13.65625zm0 0" fill="#4c241d"/></svg>