<svg height="423pt" viewBox="0 -5 423.25333 423" width="423pt" xmlns="http://www.w3.org/2000/svg"><path d="m320.851562 208.613281c0 84.828125-68.765624 153.597657-153.597656 153.597657-84.832031 0-153.601562-68.769532-153.601562-153.597657 0-84.832031 68.769531-153.601562 153.601562-153.601562 84.832032 0 153.597656 68.769531 153.597656 153.601562zm0 0" fill="#c1dbdc"/><g fill="#4c241d"><path d="m329.152344 26.234375c-1.746094 0-3.492188-.667969-4.824219-2-2.667969-2.667969-2.667969-6.988281 0-9.65625l12.453125-12.453125c2.664062-2.664062 6.984375-2.664062 9.652344 0 2.664062 2.667969 2.664062 6.988281 0 9.652344l-12.453125 12.457031c-1.335938 1.332031-3.078125 2-4.828125 2zm0 0"/><path d="m300.101562 55.285156c-1.746093 0-3.496093-.664062-4.828124-2-2.664063-2.664062-2.664063-6.984375 0-9.652344l12.453124-12.453124c2.667969-2.664063 6.988282-2.664063 9.652344 0 2.667969 2.667968 2.667969 6.988281 0 9.652343l-12.453125 12.453125c-1.332031 1.335938-3.078125 2-4.824219 2zm0 0"/><path d="m312.554688 26.234375c-1.746094 0-3.496094-.667969-4.828126-2l-12.453124-12.457031c-2.664063-2.664063-2.664063-6.984375 0-9.652344 2.667968-2.664062 6.988281-2.664062 9.652343 0l12.453125 12.453125c2.667969 2.667969 2.667969 6.988281 0 9.65625-1.332031 1.332031-3.078125 2-4.824218 2zm0 0"/><path d="m341.605469 55.285156c-1.746094 0-3.492188-.664062-4.824219-2l-12.453125-12.453125c-2.667969-2.664062-2.667969-6.984375 0-9.652343 2.664063-2.664063 6.984375-2.664063 9.652344 0l12.453125 12.453124c2.664062 2.667969 2.664062 6.988282 0 9.652344-1.332032 1.335938-3.078125 2-4.828125 2zm0 0"/><path d="m70.304688 382.691406h-17.605469c-3.773438 0-6.824219-3.050781-6.824219-6.824218 0-3.773438 3.050781-6.828126 6.824219-6.828126h17.605469c3.773437 0 6.828124 3.054688 6.828124 6.828126 0 3.773437-3.054687 6.824218-6.828124 6.824218zm0 0"/><path d="m29.21875 382.691406h-17.605469c-3.773437 0-6.824219-3.050781-6.824219-6.824218 0-3.773438 3.050782-6.828126 6.824219-6.828126h17.605469c3.773438 0 6.828125 3.054688 6.828125 6.828126 0 3.773437-3.054687 6.824218-6.828125 6.824218zm0 0"/><path d="m40.960938 370.953125c-3.773438 0-6.828126-3.050781-6.828126-6.824219v-17.609375c0-3.773437 3.054688-6.824219 6.828126-6.824219 3.773437 0 6.824218 3.050782 6.824218 6.824219v17.609375c0 3.769532-3.050781 6.824219-6.824218 6.824219zm0 0"/><path d="m40.960938 412.039062c-3.773438 0-6.828126-3.050781-6.828126-6.824218v-17.609375c0-3.773438 3.054688-6.824219 6.828126-6.824219 3.773437 0 6.824218 3.050781 6.824218 6.824219v17.609375c0 3.773437-3.050781 6.824218-6.824218 6.824218zm0 0"/><path d="m380.972656 404.324219c-11.613281 0-21.058594-9.445313-21.058594-21.050781 0-11.613282 9.445313-21.0625 21.058594-21.0625 11.617188 0 21.0625 9.449218 21.0625 21.0625-.003906 11.605468-9.449218 21.050781-21.0625 21.050781zm0-28.457031c-4.085937 0-7.40625 3.316406-7.40625 7.40625 0 4.078124 3.320313 7.398437 7.40625 7.398437 4.089844 0 7.410156-3.320313 7.410156-7.398437-.003906-4.085938-3.324218-7.40625-7.410156-7.40625zm0 0"/><path d="m124.632812 73.652344c-1.746093 0-3.492187-.667969-4.828124-2-2.664063-2.664063-2.664063-6.988282 0-9.652344l20.128906-20.121094c2.664062-2.664062 6.988281-2.664062 9.652344 0 2.664062 2.667969 2.664062 6.988282 0 9.652344l-20.125 20.121094c-1.335938 1.335937-3.082032 2-4.828126 2zm0 0"/></g><path d="m129.707031 150.585938c0 33.933593-27.507812 61.441406-61.441406 61.441406-33.929687 0-61.4375-27.507813-61.4375-61.441406 0-33.933594 27.507813-61.441407 61.4375-61.441407 33.933594 0 61.441406 27.507813 61.441406 61.441407zm0 0" fill="#9dc1e4"/><path d="m68.265625 218.851562c-37.640625 0-68.265625-30.625-68.265625-68.265624 0-37.640626 30.625-68.265626 68.265625-68.265626s68.269531 30.625 68.269531 68.265626c0 37.640624-30.628906 68.265624-68.269531 68.265624zm0-122.878906c-30.113281 0-54.613281 24.5-54.613281 54.613282 0 30.113281 24.5 54.613281 54.613281 54.613281s54.613281-24.5 54.613281-54.613281c0-30.113282-24.5-54.613282-54.613281-54.613282zm0 0" fill="#4c241d"/><path d="m416.425781 150.585938c0 33.933593-27.507812 61.441406-61.4375 61.441406-33.933593 0-61.441406-27.507813-61.441406-61.441406 0-33.933594 27.507813-61.441407 61.441406-61.441407 33.929688 0 61.4375 27.507813 61.4375 61.441407zm0 0" fill="#9dc1e4"/><path d="m354.988281 218.851562c-37.640625 0-68.269531-30.625-68.269531-68.265624 0-37.640626 30.628906-68.265626 68.269531-68.265626s68.265625 30.625 68.265625 68.265626c0 37.640624-30.625 68.265624-68.265625 68.265624zm0-122.878906c-30.117187 0-54.613281 24.5-54.613281 54.613282 0 30.113281 24.496094 54.613281 54.613281 54.613281 30.113281 0 54.613281-24.5 54.613281-54.613281 0-30.113282-24.5-54.613282-54.613281-54.613282zm0 0" fill="#4c241d"/><path d="m372.847656 157.414062c0 17.402344-14.109375 31.511719-31.515625 31.511719-17.402343 0-31.511719-14.109375-31.511719-31.511719 0-17.40625 14.109376-31.515624 31.511719-31.515624 17.40625 0 31.515625 14.109374 31.515625 31.515624zm0 0" fill="#f53e28"/><path d="m341.332031 195.753906c-21.140625 0-38.339843-17.203125-38.339843-38.339844 0-21.140624 17.199218-38.339843 38.339843-38.339843s38.339844 17.199219 38.339844 38.339843c0 21.140626-17.199219 38.339844-38.339844 38.339844zm0-63.027344c-13.613281 0-24.6875 11.074219-24.6875 24.6875 0 13.613282 11.074219 24.6875 24.6875 24.6875 13.617188 0 24.6875-11.074218 24.6875-24.6875 0-13.613281-11.070312-24.6875-24.6875-24.6875zm0 0" fill="#4c241d"/><path d="m113.433594 157.414062c0 17.402344-14.109375 31.511719-31.511719 31.511719-17.40625 0-31.515625-14.109375-31.515625-31.511719 0-17.40625 14.109375-31.515624 31.515625-31.515624 17.402344 0 31.511719 14.109374 31.511719 31.515624zm0 0" fill="#f53e28"/><path d="m81.921875 195.753906c-21.140625 0-38.34375-17.203125-38.34375-38.339844 0-21.140624 17.203125-38.339843 38.34375-38.339843 21.136719 0 38.339844 17.199219 38.339844 38.339843 0 21.140626-17.203125 38.339844-38.339844 38.339844zm0-63.027344c-13.617187 0-24.6875 11.074219-24.6875 24.6875 0 13.613282 11.070313 24.683594 24.6875 24.683594 13.613281 0 24.683594-11.070312 24.683594-24.683594 0-13.617187-11.070313-24.6875-24.683594-24.6875zm0 0" fill="#4c241d"/><path d="m144.757812 73.652344c-1.746093 0-3.492187-.667969-4.824218-2l-20.128906-20.121094c-2.664063-2.664062-2.664063-6.984375 0-9.652344 2.667968-2.664062 6.988281-2.664062 9.65625 0l20.125 20.121094c2.664062 2.664062 2.664062 6.988281 0 9.652344-1.332032 1.335937-3.078126 2-4.828126 2zm0 0" fill="#4c241d"/><path d="m29.308594 34.53125c0 4.875-3.953125 8.828125-8.828125 8.828125s-8.828125-3.953125-8.828125-8.828125 3.953125-8.828125 8.828125-8.828125 8.828125 3.953125 8.828125 8.828125zm0 0" fill="#4c241d"/><path d="m48.023438 251.285156c4.621093-82.75 76.101562-148.484375 163.601562-148.484375 90.488281 0 163.839844 70.296875 163.839844 157.011719s-73.351563 129.707031-163.839844 129.707031c-73.519531 0-135.726562-28.378906-156.472656-85.535156" fill="#9dc1e4"/><path d="m211.625 396.34375c-81.539062 0-142.429688-33.652344-162.890625-90.03125-1.28125-3.539062.546875-7.460938 4.09375-8.746094 3.53125-1.261718 7.457031.546875 8.746094 4.089844 18.414062 50.742188 74.503906 81.035156 150.050781 81.035156 115.769531 0 157.015625-63.472656 157.015625-122.882812 0-82.8125-70.433594-150.183594-157.015625-150.183594-83.464844 0-152.339844 62.394531-156.785156 142.039062-.207032 3.761719-3.527344 6.667969-7.191406 6.433594-3.769532-.207031-6.648438-3.425781-6.4375-7.191406 4.847656-86.878906 79.703124-154.933594 170.414062-154.933594 94.109375 0 170.667969 73.5 170.667969 163.839844 0 82.941406-66.992188 136.53125-170.667969 136.53125zm0 0" fill="#4c241d"/><path d="m49.925781 284.496094c-.699219-3.871094-1.234375-7.855469-1.589843-11.945313" fill="#9dc1e4"/><path d="m49.921875 291.324219c-3.242187 0-6.113281-2.3125-6.714844-5.613281-.734375-4.078126-1.300781-8.296876-1.671875-12.558594-.335937-3.753906 2.445313-7.066406 6.199219-7.398438 3.832031-.320312 7.066406 2.445313 7.398437 6.199219.339844 3.847656.847657 7.660156 1.515626 11.335937.667968 3.707032-1.792969 7.257813-5.507813 7.929688-.40625.074219-.820313.105469-1.21875.105469zm0 0" fill="#4c241d"/><path d="m68.386719 329.460938c27.976562 40.101562 81.621093 60.058593 143.238281 60.058593 66.582031 0 123.84375-23.308593 149.476562-70.152343-7.097656-64.058594-69.757812-114.167969-146.0625-114.167969-80.261718 0-145.378906 55.460937-146.652343 124.261719zm0 0" fill="#fff"/><path d="m211.625 396.34375c-66.664062 0-120.917969-22.949219-148.839844-62.976562-.816406-1.179688-1.25-2.59375-1.226562-4.035157 1.339844-72.210937 70.1875-130.957031 153.480468-130.957031 79.546876 0 145.253907 51.691406 152.847657 120.238281.152343 1.394531-.125 2.800781-.800781 4.035157-25.625 46.832031-82.292969 73.695312-155.460938 73.695312zm-136.34375-68.976562c25.71875 35.191406 75.246094 55.324218 136.34375 55.324218 67.015625 0 118.761719-23.554687 142.429688-64.71875-7.960938-60.554687-67.289063-105.945312-139.015626-105.945312-75.03125 0-137.1875 51.539062-139.757812 115.339844zm0 0" fill="#4c241d"/><path d="m242.785156 192.90625c-4.816406 0-9.550781-.859375-14.171875-2.574219-6.800781-2.53125-16.953125-4.746093-26.566406-.890625-17.511719 7.011719-31.753906.066406-32.351563-.234375-3.375-1.6875-4.742187-5.789062-3.054687-9.160156 1.679687-3.355469 5.761719-4.734375 9.105469-3.082031.472656.226562 9.636718 4.433594 21.234375-.207032 10.820312-4.3125 23.398437-4.039062 36.386719.773438 6.707031 2.496094 13.933593 2.238281 21.425781-.773438 3.5-1.390624 7.46875.300782 8.878906 3.800782 1.402344 3.507812-.300781 7.480468-3.800781 8.882812-5.777344 2.3125-11.492188 3.464844-17.085938 3.464844zm0 0" fill="#4c241d"/><path d="m303.195312 154.585938c-7.996093-8-18.800781-10.160157-24.132812-4.828126-5.332031 5.332032-3.171875 16.136719 4.824219 24.136719 8 7.996094 18.804687 10.160157 24.136719 4.828125 5.332031-5.332031 3.171874-16.140625-4.828126-24.136718zm0 0" fill="#6b4f5b"/><path d="m300.253906 188.472656c-6.988281 0-14.785156-3.351562-21.1875-9.753906-10.828125-10.824219-12.945312-25.664062-4.824218-33.785156 8.117187-8.121094 22.957031-6 33.785156 4.824218 10.828125 10.828126 12.945312 25.667969 4.828125 33.789063-3.324219 3.320313-7.769531 4.925781-12.601563 4.925781zm-13.378906-34.828125c-1.328125 0-2.375.332031-2.980469.941407-1.96875 1.964843-1.066406 8.585937 4.824219 14.480468 5.886719 5.886719 12.507812 6.796875 14.480469 4.824219 1.964843-1.964844 1.066406-8.585937-4.824219-14.476563-4.082031-4.082031-8.507812-5.769531-11.5-5.769531zm0 0" fill="#4c241d"/><path d="m144.183594 149.757812c-5.332032-5.332031-16.136719-3.171874-24.132813 4.828126-8 7.996093-10.160156 18.800781-4.828125 24.132812 5.332032 5.332031 16.136719 3.171875 24.136719-4.824219 7.996094-8 10.15625-18.804687 4.824219-24.136719zm0 0" fill="#6b4f5b"/><path d="m123 188.472656c-4.832031 0-9.28125-1.605468-12.601562-4.925781-8.121094-8.121094-6-22.960937 4.828124-33.789063 10.824219-10.824218 25.671876-12.945312 33.785157-4.824218 8.121093 8.121094 6 22.960937-4.824219 33.785156-6.402344 6.402344-14.199219 9.753906-21.1875 9.753906zm13.378906-34.828125c-2.992187 0-7.417968 1.6875-11.5 5.769531-5.890625 5.890626-6.792968 12.511719-4.824218 14.476563 1.964843 1.96875 8.585937 1.0625 14.476562-4.824219 5.894531-5.894531 6.792969-12.515625 4.828125-14.480468-.605469-.605469-1.652344-.941407-2.980469-.941407zm0 0" fill="#4c241d"/><path d="m293.546875 147.171875c0 5.65625-4.585937 10.242187-10.238281 10.242187-5.65625 0-10.242188-4.585937-10.242188-10.242187s4.585938-10.238281 10.242188-10.238281c5.652344 0 10.238281 4.582031 10.238281 10.238281zm0 0" fill="#fff"/><path d="m157.011719 147.171875c0 5.65625-4.582031 10.242187-10.238281 10.242187s-10.238282-4.585937-10.238282-10.242187 4.582032-10.238281 10.238282-10.238281 10.238281 4.582031 10.238281 10.238281zm0 0" fill="#fff"/></svg>