<svg height="416pt" viewBox="0 -2 416.39154 416" width="416pt" xmlns="http://www.w3.org/2000/svg"><path d="m323.316406 235.328125c0 84.832031-68.769531 153.601563-153.601562 153.601563-84.832032 0-153.601563-68.769532-153.601563-153.601563 0-84.828125 68.769531-153.597656 153.601563-153.597656 84.832031 0 153.601562 68.769531 153.601562 153.597656zm0 0" fill="#c1dbdc"/><g fill="#4c241d"><path d="m38.945312 379.753906c-1.746093 0-3.492187-.667968-4.828124-2-2.664063-2.667968-2.664063-6.988281 0-9.65625l13.769531-13.765625c2.664062-2.664062 6.984375-2.664062 9.652343 0 2.664063 2.667969 2.664063 6.988281 0 9.652344l-13.765624 13.769531c-1.335938 1.332032-3.082032 2-4.828126 2zm0 0"/><path d="m6.824219 411.871094c-1.746094 0-3.492188-.667969-4.824219-2-2.667969-2.664063-2.667969-6.988282 0-9.652344l13.765625-13.765625c2.664063-2.667969 6.988281-2.667969 9.652344 0 2.667969 2.664063 2.667969 6.988281 0 9.652344l-13.765625 13.765625c-1.332032 1.335937-3.078125 2-4.828125 2zm0 0"/><path d="m20.589844 379.753906c-1.742188 0-3.492188-.667968-4.824219-2l-13.765625-13.769531c-2.667969-2.664063-2.667969-6.984375 0-9.652344 2.664062-2.664062 6.988281-2.664062 9.652344 0l13.765625 13.765625c2.667969 2.667969 2.667969 6.988282 0 9.65625-1.332031 1.332032-3.078125 2-4.828125 2zm0 0"/><path d="m52.714844 411.871094c-1.746094 0-3.496094-.667969-4.828125-2l-13.765625-13.765625c-2.667969-2.664063-2.667969-6.988281 0-9.652344 2.664062-2.667969 6.988281-2.667969 9.652344 0l13.765624 13.765625c2.667969 2.664062 2.667969 6.988281 0 9.652344-1.332031 1.335937-3.082031 2-4.824218 2zm0 0"/><path d="m383.574219 373.039062c-3.417969 0-6.804688-.84375-9.90625-2.5-4.957031-2.65625-8.589844-7.082031-10.21875-12.464843-1.628907-5.378907-1.070313-11.074219 1.582031-16.035157 2.65625-4.960937 7.082031-8.589843 12.464844-10.21875 11.097656-3.363281 22.886718 2.929688 26.257812 14.042969 3.367188 11.109375-2.933594 22.890625-14.042968 26.261719-2.023438.613281-4.085938.914062-6.136719.914062zm.023437-28.472656c-.710937 0-1.429687.105469-2.144531.320313-1.894531.574219-3.449219 1.851562-4.378906 3.59375-.933594 1.742187-1.128907 3.746093-.558594 5.640625.574219 1.894531 1.851563 3.445312 3.59375 4.378906 1.738281.941406 3.757813 1.136719 5.640625.554688 3.90625-1.183594 6.121094-5.324219 4.9375-9.230469-.972656-3.195313-3.914062-5.257813-7.089844-5.257813zm0 0"/><path d="m151.328125 69.230469c-11.609375 0-21.054687-9.449219-21.054687-21.058594s9.445312-21.054687 21.054687-21.054687c11.613281 0 21.058594 9.445312 21.058594 21.054687s-9.445313 21.058594-21.058594 21.058594zm0-28.460938c-4.082031 0-7.402344 3.320313-7.402344 7.402344 0 4.085937 3.320313 7.40625 7.402344 7.40625 4.085937 0 7.40625-3.320313 7.40625-7.40625 0-4.082031-3.320313-7.402344-7.40625-7.402344zm0 0"/></g><path d="m339.558594 185.765625c53.039062-29.527344 66.566406-103.503906 69.871094-132.269531.816406-7.101563-2.324219-14.371094-8.355469-19.191406-8.097657-6.476563-19.433594-7.035157-27.210938-1.332032l-73.269531 53.660156c-14.1875 10.390626-20.09375 28.15625-15.132812 45.523438l10.308593 36.09375zm0 0" fill="#bd53b5"/><path d="m339.558594 192.59375c-.859375 0-1.71875-.164062-2.535156-.488281l-43.789063-17.515625c-1.960937-.789063-3.449219-2.433594-4.027344-4.464844l-10.308593-36.089844c-5.734376-20.085937 1.199218-40.851562 17.664062-52.910156l73.269531-53.660156c10.335938-7.570313 24.9375-6.945313 35.515625 1.507812 7.898438 6.324219 11.960938 15.78125 10.867188 25.304688-3.566406 31.039062-17.84375 106.5625-73.332032 137.453125-1.03125.570312-2.175781.863281-3.324218.863281zm-38.148438-29.4375 37.597656 15.039062c47.675782-28.828124 60.375-97.074218 63.636719-125.476562.546875-4.753906-1.6875-9.769531-5.832031-13.085938-5.675781-4.535156-13.636719-5.019531-18.917969-1.15625l-73.269531 53.664063c-11.804688 8.644531-16.75 23.617187-12.605469 38.144531zm0 0" fill="#4c241d"/><path d="m335.683594 166.769531c30.941406-17.226562 38.832031-60.378906 40.761718-77.160156.472657-4.140625-1.355468-8.382813-4.875-11.195313-4.722656-3.777343-11.335937-4.101562-15.875-.777343l-42.742187 31.304687c-8.277344 6.0625-11.71875 16.425782-8.828125 26.554688l6.011719 21.054687zm0 0" fill="#9dc1e4"/><path d="m335.683594 173.59375c-.859375 0-1.71875-.160156-2.53125-.484375l-25.546875-10.214844c-1.960938-.789062-3.449219-2.433593-4.03125-4.46875l-6.011719-21.054687c-3.675781-12.871094.78125-26.191406 11.355469-33.9375l42.746093-31.304688c7.0625-5.179687 17-4.785156 24.171876.957032 5.375 4.296874 8.140624 10.769531 7.390624 17.304687-2.128906 18.539063-10.703124 63.683594-44.21875 82.34375-1.027343.570313-2.171874.859375-3.324218.859375zm-19.902344-22.136719 19.300781 7.71875c25.761719-16.582031 32.753907-54.445312 34.578125-70.347656.210938-1.808594-.691406-3.753906-2.351562-5.082031-2.300782-1.835938-5.550782-2.09375-7.578125-.605469l-42.742188 31.304687c-6.003906 4.398438-8.417969 11.746094-6.296875 19.175782zm0 0" fill="#4c241d"/><path d="m335.59375 147.214844-5.035156 28.746094-42.03125-42.03125s12.945312-3.199219 25.878906-6.433594c12.121094-3.03125 23.34375 7.414062 21.1875 19.71875zm0 0" fill="#bd53b5"/><path d="m330.554688 182.789062c-1.78125 0-3.523438-.699218-4.824219-2l-42.03125-42.035156c-1.742188-1.738281-2.410157-4.285156-1.75-6.652344.660156-2.375 2.546875-4.207031 4.941406-4.800781 0 0 12.9375-3.199219 25.859375-6.429687 7.945312-1.96875 16.265625.15625 22.257812 5.738281 5.988282 5.574219 8.726563 13.71875 7.3125 21.78125v.003906l-5.039062 28.746094c-.441406 2.507813-2.238281 4.566406-4.667969 5.332031-.675781.210938-1.371093.316406-2.058593.316406zm-28.65625-45.140624 24.203124 24.203124 2.773438-15.8125c.617188-3.546874-.535156-6.988281-3.171875-9.433593-2.636719-2.453125-6.15625-3.375-9.636719-2.484375-4.96875 1.238281-9.933594 2.472656-14.167968 3.527344zm33.699218 9.566406h.066406zm0 0" fill="#4c241d"/><path d="m81.792969 192.59375c-53.039063-29.53125-66.566407-103.503906-69.871094-132.269531-.8125-7.101563 2.324219-14.371094 8.355469-19.191407 8.097656-6.480468 19.433594-7.035156 27.214844-1.335937l73.265624 53.664063c14.1875 10.390624 20.09375 28.15625 15.132813 45.523437l-10.304687 36.09375zm0 0" fill="#bd53b5"/><path d="m81.792969 199.417969c-1.152344 0-2.292969-.289063-3.320313-.863281-55.488281-30.890626-69.765625-106.417969-73.332031-137.453126-1.09375-9.523437 2.96875-18.980468 10.867187-25.300781 10.574219-8.460937 25.183594-9.082031 35.515626-1.511719l73.269531 53.664063c16.464843 12.054687 23.398437 32.820313 17.664062 52.902344l-10.308593 36.09375c-.582032 2.03125-2.066407 3.679687-4.027344 4.464843l-43.789063 17.515626c-.820312.324218-1.679687.488281-2.539062.488281zm-46.667969-156.71875c-3.667969 0-7.472656 1.269531-10.589844 3.761719-4.144531 3.3125-6.375 8.328124-5.828125 13.082031 3.257813 28.402343 15.960938 96.648437 63.636719 125.476562l37.59375-15.039062 9.390625-32.875c4.148437-14.527344-.800781-29.496094-12.601563-38.140625l-73.269531-53.664063c-2.386719-1.742187-5.3125-2.601562-8.332031-2.601562zm0 0" fill="#4c241d"/><path d="m85.667969 173.59375c-30.941407-17.222656-38.832031-60.375-40.757813-77.15625-.476562-4.144531 1.355469-8.382812 4.871094-11.195312 4.726562-3.777344 11.339844-4.101563 15.875-.777344l42.742188 31.300781c8.277343 6.0625 11.722656 16.425781 8.828124 26.558594l-6.011718 21.054687zm0 0" fill="#9dc1e4"/><path d="m85.664062 180.421875c-1.148437 0-2.292968-.289063-3.316406-.863281-33.523437-18.660156-42.089844-63.804688-44.222656-82.34375-.75-6.535156 2.015625-13.003906 7.398438-17.308594 7.171874-5.730469 17.105468-6.117188 24.164062-.953125l42.746094 31.304687c10.574218 7.75 15.03125 21.070313 11.355468 33.9375l-6.011718 21.058594c-.582032 2.03125-2.066406 3.679688-4.03125 4.464844l-25.546875 10.21875c-.8125.320312-1.675781.484375-2.535157.484375zm-27.207031-91.414063c-1.519531 0-3.117187.53125-4.40625 1.566407-1.664062 1.328125-2.566406 3.277343-2.359375 5.082031 1.824219 15.902344 8.816406 53.769531 34.578125 70.347656l19.300781-7.714844 5.09375-17.835937c2.117188-7.433594-.292968-14.777344-6.296874-19.175781l-42.742188-31.308594c-.886719-.648438-2-.960938-3.167969-.960938zm0 0" fill="#4c241d"/><path d="m85.757812 154.039062 5.035157 28.75 42.03125-42.03125s-12.945313-3.203124-25.878907-6.4375c-12.117187-3.027343-23.34375 7.417969-21.1875 19.71875zm0 0" fill="#bd53b5"/><path d="m90.796875 189.617188c-.6875 0-1.382813-.105469-2.058594-.320313-2.425781-.765625-4.226562-2.820313-4.664062-5.328125l-5.042969-28.746094c0-.003906 0-.003906 0-.003906-1.410156-8.066406 1.324219-16.207031 7.316406-21.785156 5.992188-5.578125 14.320313-7.707032 22.253906-5.734375 12.925782 3.230469 25.859376 6.429687 25.859376 6.429687 2.394531.589844 4.28125 2.421875 4.941406 4.796875.660156 2.371094-.007813 4.917969-1.75 6.65625l-42.03125 42.035157c-1.296875 1.300781-3.042969 2-4.824219 2zm1.683594-36.75 2.773437 15.808593 24.199219-24.199219c-4.230469-1.054687-9.199219-2.289062-14.164063-3.53125-3.480468-.886718-7.003906.027344-9.636718 2.484376-2.636719 2.449218-3.792969 5.890624-3.171875 9.4375zm0 0" fill="#4c241d"/><path d="m309.679688 359.28125c15.273437-13.640625 27.851562-30.785156 36.378906-50.886719 30.929687-72.882812-3.085938-157.042969-75.96875-187.96875-72.886719-30.929687-157.042969 3.085938-187.972656 75.96875-30.925782 72.886719 3.085937 157.042969 75.972656 187.972657 33.398437 14.171874 69.167968 14.707031 101.09375 4.113281" fill="#bd53b5"/><path d="m214.09375 402.59375c-19.992188.003906-39.945312-3.996094-58.671875-11.945312-76.234375-32.34375-111.933594-120.6875-79.585937-196.917969 32.34375-76.238281 120.6875-111.949219 196.921874-79.589844 76.234376 32.347656 111.9375 120.683594 79.585938 196.921875-8.734375 20.585938-21.558594 38.523438-38.117188 53.308594-2.808593 2.519531-7.128906 2.265625-9.636718-.542969-2.511719-2.808594-2.269532-7.125.542968-9.632813 15.042969-13.441406 26.703126-29.746093 34.644532-48.464843 29.40625-69.300781-3.050782-149.613281-72.355469-179.019531-69.316406-29.40625-149.613281 3.046874-179.019531 72.351562s3.050781 149.613281 72.355468 179.023438c30.585938 12.972656 64.769532 14.371093 96.277344 3.914062 3.59375-1.175781 7.449219.761719 8.632813 4.332031 1.1875 3.582031-.753907 7.441407-4.332031 8.628907-15.367188 5.097656-31.316407 7.632812-47.242188 7.632812zm0 0" fill="#4c241d"/><path d="m280.351562 386.359375c-2.46875 0-4.847656-1.335937-6.066406-3.675781-1.738281-3.34375-.4375-7.46875 2.90625-9.207032 4.105469-2.136718 8.140625-4.503906 11.992188-7.039062 3.152344-2.070312 7.382812-1.199219 9.453125 1.953125 2.074219 3.148437 1.203125 7.382813-1.949219 9.457031-4.238281 2.789063-8.679688 5.390625-13.195312 7.742188-1.003907.523437-2.082032.769531-3.140626.769531zm0 0" fill="#4c241d"/><path d="m323.683594 227.816406c-2.238282-17.851562-8.707032-32.769531-23.859375-40.171875-13.226563-6.460937-27.921875-9.382812-37.886719 1.449219-.625.683594-1.199219 1.4375-1.796875 2.160156 14.964844 8.660156 34.453125 27.582032 41.070313 68.402344 15.992187-.707031 24.488281-15.738281 22.472656-31.839844zm0 0" fill="#fff"/><path d="m301.207031 266.484375c-3.335937 0-6.199219-2.417969-6.738281-5.734375-6.164062-38.074219-23.933594-55.59375-37.75-63.585938-1.738281-1.007812-2.945312-2.726562-3.300781-4.703124-.351563-1.972657.179687-4.003907 1.453125-5.550782l.476562-.585937c.511719-.636719 1.027344-1.269531 1.570313-1.859375 7.347656-7.988282 21.277343-14.972656 45.902343-2.953125 15.726563 7.679687 24.765626 22.550781 27.636719 45.457031 1.386719 11.09375-1.433593 21.746094-7.746093 29.222656-5.359376 6.351563-12.691407 9.910156-21.203126 10.285156-.097656.003907-.203124.007813-.300781.007813zm-30.046875-76.113281c13.785156 10.347656 28.734375 28.730468 35.5 61.214844 2.148438-.914063 4.027344-2.316407 5.621094-4.199219 3.804688-4.507813 5.53125-11.503907 4.628906-18.71875-2.285156-18.226563-8.664062-29.3125-20.085937-34.890625-13.726563-6.699219-21.386719-5.617188-25.664063-3.40625zm0 0" fill="#4c241d"/><path d="m260.140625 191.25c-8.496094 10.246094-14.121094 24.433594-17.246094 42.046875-2.460937 13.882813 8.675781 26.488281 22.773438 26.488281h34.453125c.378906 0 .714844-.113281 1.085937-.128906 15.28125-41.394531-15.71875-67.421875-41.066406-68.40625zm0 0" fill="#e66353"/><path d="m300.125 266.613281h-34.457031c-8.925781 0-17.339844-3.929687-23.082031-10.777343-5.570313-6.648438-7.910157-15.296876-6.417969-23.726563 3.390625-19.113281 9.6875-34.324219 18.714843-45.210937 1.355469-1.632813 3.398438-2.492188 5.519532-2.464844 16.550781.640625 33.378906 10.230468 42.871094 24.429687 9.953124 14.898438 11.496093 33.773438 4.339843 53.15625-.953125 2.578125-3.355469 4.332031-6.101562 4.457031-.214844.070313-.785157.136719-1.386719.136719zm-36.863281-68.238281c-6.382813 8.867188-10.964844 20.996094-13.644531 36.117188-.800782 4.511718.417968 8.972656 3.433593 12.570312 3.140625 3.746094 7.738281 5.898438 12.621094 5.898438h30.570313c5.011718-17.136719.554687-29.210938-4.320313-36.507813-6.488281-9.710937-17.464844-16.550781-28.660156-18.078125zm0 0" fill="#4c241d"/><path d="m282.414062 242.15625c0 9.457031-7.667968 17.125-17.125 17.125-9.457031 0-17.125-7.667969-17.125-17.125s7.667969-17.125 17.125-17.125c9.457032 0 17.125 7.667969 17.125 17.125zm0 0" fill="#6b4f5b"/><path d="m265.289062 266.109375c-13.207031 0-23.953124-10.746094-23.953124-23.953125s10.746093-23.953125 23.953124-23.953125c13.207032 0 23.953126 10.746094 23.953126 23.953125s-10.746094 23.953125-23.953126 23.953125zm0-34.253906c-5.679687 0-10.300781 4.621093-10.300781 10.300781s4.621094 10.300781 10.300781 10.300781c5.679688 0 10.300782-4.621093 10.300782-10.300781s-4.621094-10.300781-10.300782-10.300781zm0 0" fill="#4c241d"/><path d="m289.183594 208.023438c0 5.65625-4.585938 10.238281-10.242188 10.238281s-10.238281-4.582031-10.238281-10.238281 4.582031-10.242188 10.238281-10.242188 10.242188 4.585938 10.242188 10.242188zm0 0" fill="#fff"/><path d="m97.671875 227.816406c2.234375-17.851562 8.707031-32.769531 23.855469-40.171875 13.226562-6.460937 27.921875-9.382812 37.886718 1.449219.625.683594 1.203126 1.4375 1.796876 2.160156-14.960938 8.660156-34.453126 27.582032-41.070313 68.402344-15.992187-.707031-24.488281-15.738281-22.46875-31.839844zm0 0" fill="#fff"/><path d="m120.148438 266.484375c-.101563 0-.203126-.003906-.304688-.007813-8.511719-.378906-15.84375-3.933593-21.203125-10.285156-6.3125-7.476562-9.136719-18.128906-7.746094-29.222656 2.871094-22.90625 11.914063-37.777344 27.636719-45.457031 24.636719-12.027344 38.5625-5.023438 45.902344 2.960937.539062.582032 1.058594 1.214844 1.566406 1.851563l.476562.585937c1.277344 1.546875 1.808594 3.578125 1.457032 5.550782-.359375 1.976562-1.566406 3.695312-3.300782 4.703124-13.820312 7.992188-31.585937 25.511719-37.75 63.585938-.539062 3.316406-3.40625 5.734375-6.734374 5.734375zm22.402343-77.8125c-4.371093 0-10.21875 1.292969-18.023437 5.105469-11.421875 5.578125-17.800782 16.664062-20.085938 34.890625-.902344 7.214843.828125 14.210937 4.628906 18.71875 1.59375 1.882812 3.472657 3.285156 5.621094 4.199219 6.769532-32.484376 21.714844-50.867188 35.496094-61.214844-1.839844-.953125-4.3125-1.699219-7.636719-1.699219zm-44.878906 39.148437h.066406zm0 0" fill="#4c241d"/><path d="m161.210938 191.25c8.496093 10.246094 14.121093 24.433594 17.246093 42.046875 2.460938 13.882813-8.675781 26.488281-22.773437 26.488281h-34.453125c-.378907 0-.714844-.113281-1.089844-.128906-15.277344-41.394531 15.722656-67.421875 41.070313-68.40625zm0 0" fill="#e66353"/><path d="m155.683594 266.613281h-34.453125c-.386719 0-1.363281-.101562-1.742188-.164062-2.746093-.125-4.796875-1.855469-5.75-4.429688-7.15625-19.382812-5.613281-38.265625 4.34375-53.160156 9.492188-14.199219 26.320313-23.789063 42.867188-24.425781 2.164062-.019532 4.167969.828125 5.519531 2.460937 9.027344 10.886719 15.324219 26.101563 18.714844 45.210938 1.492187 8.433593-.847656 17.082031-6.417969 23.730469-5.742187 6.847656-14.15625 10.777343-23.082031 10.777343zm2.40625-68.238281c-11.195313 1.527344-22.167969 8.363281-28.65625 18.070312-4.878906 7.304688-9.339844 19.390626-4.3125 36.542969l30.5625-.027343c4.878906 0 9.480468-2.152344 12.621094-5.898438 3.011718-3.597656 4.230468-8.058594 3.433593-12.574219-2.683593-15.121093-7.265625-27.246093-13.648437-36.113281zm0 0" fill="#4c241d"/><path d="m173.1875 242.15625c0 9.457031-7.667969 17.125-17.125 17.125s-17.125-7.667969-17.125-17.125 7.667969-17.125 17.125-17.125 17.125 7.667969 17.125 17.125zm0 0" fill="#6b4f5b"/><path d="m156.0625 266.109375c-13.207031 0-23.953125-10.746094-23.953125-23.953125s10.746094-23.953125 23.953125-23.953125 23.953125 10.746094 23.953125 23.953125-10.746094 23.953125-23.953125 23.953125zm0-34.253906c-5.679688 0-10.300781 4.621093-10.300781 10.300781s4.621093 10.300781 10.300781 10.300781 10.300781-4.621093 10.300781-10.300781-4.621093-10.300781-10.300781-10.300781zm0 0" fill="#4c241d"/><path d="m152.648438 208.023438c0 5.65625-4.585938 10.238281-10.238282 10.238281-5.65625 0-10.242187-4.582031-10.242187-10.238281s4.585937-10.242188 10.242187-10.242188c5.652344 0 10.238282 4.585938 10.238282 10.242188zm0 0" fill="#fff"/><path d="m230.992188 314.839844c-7.054688 0-13.425782-2.964844-17.941407-7.710938-4.511719 4.746094-10.886719 7.710938-17.9375 7.710938-13.65625 0-24.769531-11.109375-24.769531-24.769532 0-3.769531 3.058594-6.824218 6.828125-6.824218s6.828125 3.054687 6.828125 6.824218c0 6.128907 4.984375 11.117188 11.113281 11.117188 6.125 0 11.113281-4.988281 11.113281-11.117188 0-3.769531 3.054688-6.824218 6.824219-6.824218 3.773438 0 6.828125 3.054687 6.828125 6.824218 0 6.128907 4.988282 11.117188 11.113282 11.117188 6.128906 0 11.113281-4.988281 11.113281-11.117188 0-3.769531 3.058593-6.824218 6.828125-6.824218 3.769531 0 6.828125 3.054687 6.828125 6.824218-.003907 13.660157-11.113281 24.769532-24.769531 24.769532zm0 0" fill="#4c241d"/><path d="m230.992188 308.011719c-6.90625 0-12.835938-3.945313-15.832032-9.667969h-4.21875c-2.996094 5.722656-8.921875 9.667969-15.828125 9.667969-2.566406 0-4.996093-.558594-7.203125-1.527344.453125 11.667969 9.984375 21.003906 21.761719 21.003906h6.765625c11.777344 0 21.308594-9.339843 21.757812-21.003906-2.210937.96875-4.640624 1.527344-7.203124 1.527344zm0 0" fill="#fff"/><path d="m216.433594 334.316406h-6.765625c-15.429688 0-27.980469-12.109375-28.574219-27.566406-.097656-2.351562 1.03125-4.585938 2.976562-5.90625 1.949219-1.328125 4.4375-1.558594 6.585938-.605469 5.296875 2.328125 11.570312.019531 14.238281-5.0625 1.175781-2.25 3.507813-3.660156 6.046875-3.660156h4.21875c2.539063 0 4.867188 1.410156 6.046875 3.65625 2.664063 5.085937 8.941407 7.394531 14.238281 5.066406 2.152344-.953125 4.644532-.722656 6.585938.605469 1.949219 1.320312 3.074219 3.554688 2.980469 5.90625-.59375 15.457031-13.148438 27.566406-28.578125 27.566406zm-18.707032-19.617187c2.726563 3.636719 7.0625 5.964843 11.945313 5.964843h6.765625c4.882812 0 9.214844-2.328124 11.941406-5.964843-5.890625-.625-11.308594-3.359375-15.324218-7.644531-4.019532 4.285156-9.433594 7.019531-15.328126 7.644531zm0 0" fill="#4c241d"/><path d="m231.363281 43.890625c-1.742187 0-3.492187-.667969-4.824219-2-2.667968-2.667969-2.667968-6.988281 0-9.65625l30.039063-30.039063c2.667969-2.664062 6.988281-2.664062 9.652344 0 2.667969 2.664063 2.667969 6.988282 0 9.652344l-30.039063 30.042969c-1.332031 1.332031-3.078125 2-4.828125 2zm0 0" fill="#4c241d"/><path d="m261.40625 43.890625c-1.746094 0-3.492188-.667969-4.828125-2l-30.039063-30.039063c-2.667968-2.667968-2.667968-6.988281 0-9.65625 2.664063-2.664062 6.988282-2.664062 9.652344 0l30.039063 30.042969c2.667969 2.664063 2.667969 6.988281 0 9.652344-1.332031 1.332031-3.078125 2-4.824219 2zm0 0" fill="#4c241d"/></svg>