<svg height="425pt" viewBox="0 0 425 425.35936" width="425pt" xmlns="http://www.w3.org/2000/svg"><path d="m336.425781 189.839844c0 84.832031-68.769531 153.597656-153.597656 153.597656-84.832031 0-153.601563-68.765625-153.601563-153.597656 0-84.832032 68.769532-153.601563 153.601563-153.601563 84.828125 0 153.597656 68.769531 153.597656 153.601563zm0 0" fill="#c1dbdc"/><g fill="#4c241d"><path d="m384.214844 125.257812c-3.769532 0-6.828125-3.050781-6.828125-6.824218v-20.640625c0-3.773438 3.058593-6.824219 6.828125-6.824219 3.769531 0 6.824218 3.050781 6.824218 6.824219v20.640625c0 3.773437-3.054687 6.824218-6.824218 6.824218zm0 0"/><path d="m384.214844 77.085938c-3.769532 0-6.828125-3.050782-6.828125-6.824219v-20.640625c0-3.773438 3.058593-6.828125 6.828125-6.828125 3.769531 0 6.824218 3.054687 6.824218 6.828125v20.640625c0 3.773437-3.054687 6.824219-6.824218 6.824219zm0 0"/><path d="m418.625 90.851562h-20.648438c-3.769531 0-6.828124-3.050781-6.828124-6.824218 0-3.773438 3.058593-6.828125 6.828124-6.828125h20.648438c3.769531 0 6.824219 3.054687 6.824219 6.828125 0 3.773437-3.054688 6.824218-6.824219 6.824218zm0 0"/><path d="m370.453125 90.851562h-20.648437c-3.769532 0-6.828126-3.050781-6.828126-6.824218 0-3.773438 3.058594-6.828125 6.828126-6.828125h20.648437c3.769531 0 6.824219 3.054687 6.824219 6.828125 0 3.773437-3.054688 6.824218-6.824219 6.824218zm0 0"/><path d="m21.21875 382.160156c-3.421875 0-6.804688-.839844-9.90625-2.492187-4.960938-2.65625-8.589844-7.085938-10.21875-12.476563-1.628906-5.371094-1.0703125-11.070312 1.585938-16.03125 2.652343-4.960937 7.074218-8.585937 12.460937-10.222656 11.105469-3.367188 22.886719 2.933594 26.257813 14.046875 1.628906 5.378906 1.070312 11.082031-1.582032 16.039063-2.65625 4.960937-7.078125 8.585937-12.460937 10.21875-2.019531.617187-4.085938.917968-6.136719.917968zm.019531-28.472656c-.707031 0-1.429687.105469-2.140625.320312-3.90625 1.183594-6.121094 5.324219-4.9375 9.230469.574219 1.894531 1.847656 3.453125 3.589844 4.386719 1.742188.929688 3.753906 1.121094 5.640625.554688 1.890625-.574219 3.449219-1.847657 4.378906-3.59375.933594-1.746094 1.132813-3.746094.558594-5.640626-.96875-3.191406-3.910156-5.257812-7.089844-5.257812zm0 0"/><path d="m376.203125 279.761719c-3.417969 0-6.800781-.839844-9.902344-2.496094-4.964843-2.652344-8.589843-7.085937-10.21875-12.472656-1.628906-5.371094-1.070312-11.074219 1.582031-16.035157 2.65625-4.960937 7.078126-8.585937 12.460938-10.21875 11.105469-3.347656 22.890625 2.933594 26.261719 14.046876 1.628906 5.378906 1.070312 11.078124-1.585938 16.039062-2.652343 4.957031-7.074219 8.585938-12.460937 10.21875-2.019532.617188-4.082032.917969-6.136719.917969zm.023437-28.476563c-.710937 0-1.429687.105469-2.144531.320313-3.90625 1.1875-6.117187 5.328125-4.9375 9.234375.574219 1.894531 1.851563 3.453125 3.59375 4.386718 1.746094.925782 3.75 1.121094 5.640625.550782 1.890625-.570313 3.449219-1.84375 4.378906-3.589844.933594-1.746094 1.128907-3.746094.558594-5.640625-.96875-3.195313-3.910156-5.261719-7.089844-5.261719zm0 0"/><path d="m365.488281 396.214844c-1.746093 0-3.492187-.667969-4.828125-2.003906-2.664062-2.664063-2.664062-6.984376 0-9.652344l20.128906-20.117188c2.664063-2.667968 6.988282-2.667968 9.652344 0 2.664063 2.664063 2.664063 6.984375 0 9.652344l-20.125 20.117188c-1.335937 1.335937-3.082031 2.003906-4.828125 2.003906zm0 0"/><path d="m385.613281 396.214844c-1.746093 0-3.492187-.667969-4.828125-2.003906l-20.125-20.117188c-2.664062-2.667969-2.664062-6.988281 0-9.652344 2.660156-2.667968 6.988282-2.667968 9.652344 0l20.128906 20.117188c2.664063 2.667968 2.664063 6.988281 0 9.652344-1.332031 1.335937-3.082031 2.003906-4.828125 2.003906zm0 0"/><path d="m27.675781 99.148438c-1.746093 0-3.496093-.667969-4.828125-2-2.664062-2.667969-2.664062-6.988282 0-9.65625l26.738282-26.730469c2.667968-2.667969 6.988281-2.667969 9.65625 0 2.664062 2.664062 2.664062 6.984375 0 9.652343l-26.742188 26.734376c-1.332031 1.332031-3.078125 2-4.824219 2zm0 0"/></g><path d="m204.996094 39.652344s-28.261719 32.828125-63.128906 32.828125c-34.867188 0-63.128907-32.828125-63.128907-32.828125s28.261719-32.828125 63.128907-32.828125c34.867187 0 63.128906 32.828125 63.128906 32.828125zm0 0" fill="#a9ba5a"/><path d="m141.867188 79.308594c-37.566407 0-67.066407-33.761719-68.300782-35.203125-2.203125-2.558594-2.203125-6.34375 0-8.90625 1.234375-1.441407 30.734375-35.199219 68.300782-35.199219 37.566406 0 67.066406 33.757812 68.300781 35.199219 2.207031 2.5625 2.207031 6.347656 0 8.90625-1.234375 1.441406-30.734375 35.203125-68.300781 35.203125zm-53.632813-39.65625c8.761719 8.460937 29.804687 26 53.632813 26 23.828124 0 44.871093-17.539063 53.632812-26-8.761719-8.460938-29.804688-26-53.632812-26-23.828126 0-44.871094 17.539062-53.632813 26zm0 0" fill="#4c241d"/><path d="m208.445312 39.652344s28.261719 32.828125 63.128907 32.828125c34.863281 0 63.128906-32.828125 63.128906-32.828125s-28.265625-32.828125-63.128906-32.828125c-34.867188 0-63.128907 32.828125-63.128907 32.828125zm0 0" fill="#a9ba5a"/><path d="m271.574219 79.308594c-37.566407 0-67.066407-33.761719-68.304688-35.203125-2.203125-2.558594-2.203125-6.34375 0-8.90625 1.238281-1.441407 30.738281-35.199219 68.304688-35.199219 37.566406 0 67.066406 33.757812 68.300781 35.199219 2.203125 2.5625 2.203125 6.347656 0 8.90625-1.234375 1.441406-30.734375 35.203125-68.300781 35.203125zm-53.632813-39.65625c8.761719 8.460937 29.804688 26 53.632813 26s44.871093-17.539063 53.632812-26c-8.761719-8.460938-29.804687-26-53.632812-26s-44.871094 17.539062-53.632813 26zm0 0" fill="#4c241d"/><path d="m206.71875 138.640625c-3.769531 0-6.824219-3.054687-6.824219-6.828125v-88.746094c0-3.773437 3.054688-6.828125 6.824219-6.828125 3.773438 0 6.828125 3.054688 6.828125 6.828125v88.746094c0 3.773438-3.054687 6.828125-6.828125 6.828125zm0 0" fill="#4c241d"/><path d="m54.414062 99.148438c-1.746093 0-3.492187-.667969-4.828124-2l-26.738282-26.734376c-2.664062-2.667968-2.664062-6.988281 0-9.652343 2.664063-2.667969 6.988282-2.667969 9.652344 0l26.742188 26.730469c2.664062 2.667968 2.664062 6.988281 0 9.65625-1.335938 1.332031-3.082032 2-4.828126 2zm0 0" fill="#4c241d"/><path d="m43.933594 255.269531c0 5.085938-4.117188 9.203125-9.199219 9.203125s-9.203125-4.117187-9.203125-9.203125c0-5.082031 4.121094-9.199219 9.203125-9.199219s9.199219 4.117188 9.199219 9.199219zm0 0" fill="#4c241d"/><path d="m320.503906 258.414062 2.269532 40.652344c0 65.980469-53.488282 119.464844-119.464844 119.464844-65.980469 0-119.46875-53.484375-119.46875-119.464844l6.296875-112.640625-19.949219-47.785156 47.785156 13.652344 20.480469-47.785157 34.132813 47.785157 34.132812-47.785157 20.480469 47.785157 40.960937-47.785157 13.652344 47.785157 47.789062-13.652344-13.121093 47.785156.816406 14.625" fill="#ffce56"/><path d="m203.308594 425.359375c-69.640625 0-126.292969-56.652344-126.292969-126.292969l6.214844-111.453125-19.34375-46.347656c-1.007813-2.417969-.542969-5.199219 1.199219-7.160156 1.746093-1.957031 4.457031-2.738281 6.980468-2.03125l42 12.007812 18.113282-42.261719c.96875-2.265624 3.085937-3.832031 5.539062-4.101562 2.488281-.238281 4.863281.816406 6.292969 2.820312l28.574219 40.007813 28.578124-40.007813c1.433594-2.007812 3.84375-3.058593 6.289063-2.820312 2.457031.269531 4.570313 1.835938 5.542969 4.101562l16.160156 37.707032 33.820312-39.460938c1.636719-1.90625 4.1875-2.765625 6.640626-2.226562 2.457031.53125 4.417968 2.375 5.105468 4.792968l11.78125 41.21875 41.21875-11.777343c2.375-.675781 4.921875-.019531 6.679688 1.714843 1.753906 1.730469 2.433594 4.277344 1.78125 6.65625l-12.828125 46.714844.757812 13.511719c.207031 3.769531-2.675781 6.988281-6.4375 7.195313-3.695312.1875-6.984375-2.667969-7.195312-6.433594l-.820313-14.628906c-.039062-.730469.039063-1.472657.234375-2.183594l9.90625-36.082032-36.109375 10.320313c-3.625 1.007813-7.40625-1.066406-8.441406-4.691406l-10.167969-35.582031-32.699219 38.148437c-1.53125 1.792969-3.875 2.671875-6.214843 2.304687-2.332031-.351562-4.3125-1.882812-5.242188-4.058593l-15.703125-36.632813-27.078125 37.914063c-2.566406 3.585937-8.546875 3.585937-11.113281 0l-27.082031-37.914063-15.703125 36.632813c-1.347656 3.167969-4.816406 4.8125-8.148438 3.878906l-34.144531-9.761719 14.480469 34.703125c.394531.945313.574218 1.976563.519531 3.003907l-6.296875 112.640624c.011719 61.726563 50.539062 112.261719 112.652344 112.261719 62.109375 0 112.636718-50.535156 112.636718-112.640625l-2.257812-40.273437c-.210938-3.765625 2.667969-6.988281 6.4375-7.195313 3.792969-.167968 6.984375 2.667969 7.195312 6.433594l2.269532 40.652344c.011718 70.023437-56.640625 126.675781-126.28125 126.675781zm0 0" fill="#4c241d"/><path d="m175.667969 415.191406c8.886719 2.105469 18.109375 3.339844 27.640625 3.339844 9.589844 0 18.871094-1.25 27.808594-3.382812l-27.449219-67.269532zm0 0" fill="#bf7e68"/><path d="m203.308594 425.359375c-9.523438 0-19.351563-1.1875-29.214844-3.527344-1.945312-.460937-3.59375-1.75-4.503906-3.539062-.910156-1.777344-.992188-3.875-.222656-5.71875l27.996093-67.3125c1.058594-2.546875 3.546875-4.207031 6.300781-4.207031h.027344c2.765625.003906 5.25 1.683593 6.292969 4.246093l27.449219 67.265625c.75 1.847656.664062 3.925782-.25 5.699219-.910156 1.773437-2.546875 3.0625-4.484375 3.519531-9.929688 2.375-19.820313 3.574219-29.390625 3.574219zm-18.148438-15.207031c12.359375 2.082031 24.144532 2.066406 36.527344-.039063l-18.082031-44.3125zm0 0" fill="#4c241d"/><path d="m231.171875 310.605469c-12.171875 0-21.980469-5.351563-28.238281-10.824219-22.550782 18.03125-44.003906 7.664062-44.972656 7.183594-3.375-1.683594-4.742188-5.785156-3.054688-9.160156 1.675781-3.359376 5.75-4.746094 9.113281-3.070313.828125.390625 17.328125 7.84375 34.460938-9.277344 1.394531-1.398437 3.371093-2.132812 5.308593-1.976562 1.972657.136719 3.789063 1.125 4.976563 2.710937.511719.65625 13.21875 16.746094 34.296875 8.328125 3.507812-1.40625 7.476562.300781 8.875 3.804688 1.402344 3.5-.300781 7.472656-3.804688 8.875-6.027343 2.414062-11.714843 3.40625-16.960937 3.40625zm0 0" fill="#4c241d"/><path d="m203.308594 290.289062c-14.125 14.121094-28.210938 14.089844-36.035156 12.511719 2.292968 14.757813 8.003906 39.558594 18.074218 57.640625 7.417969 13.324219 26.375 13.605469 34.46875.679688 7.796875-12.449219 15.460938-31.332032 15.664063-57.617188-20.296875 2.558594-32.171875-13.214844-32.171875-13.214844zm0 0" fill="#e66353"/><path d="m202.714844 377.453125c-.242188 0-.480469 0-.71875-.007813-9.527344-.246093-17.980469-5.359374-22.613282-13.6875-12.292968-22.085937-17.539062-51.441406-18.855468-59.910156-.339844-2.207031.417968-4.441406 2.03125-5.980468 1.613281-1.546876 3.890625-2.195313 6.066406-1.761719 7.304688 1.472656 18.390625.816406 29.855469-10.644531 1.394531-1.398438 3.371093-2.132813 5.304687-1.980469 1.960938.132812 3.765625 1.113281 4.953125 2.671875.476563.613281 10.019531 12.582031 25.886719 10.582031 1.972656-.242187 3.921875.359375 5.390625 1.671875 1.46875 1.304688 2.308594 3.1875 2.289063 5.152344-.175782 22.863281-5.953126 44.019531-16.703126 61.1875-5.003906 7.992187-13.519531 12.707031-22.886718 12.707031zm-27.171875-67.160156c3.019531 15.167969 8.34375 33.480469 15.769531 46.828125 2.296875 4.117187 6.316406 6.550781 11.03125 6.679687 4.875 0 9.140625-2.234375 11.6875-6.300781 8.4375-13.472656 13.261719-29.238281 14.378906-46.96875-11.710937-.738281-20.359375-6.390625-25.414062-10.804688-9.964844 7.953126-19.753906 10.332032-27.453125 10.566407zm0 0" fill="#4c241d"/><path d="m268.160156 234.210938-10.695312 11.035156 24.804687 143.304687c16.503907-14.574219 28.980469-33.566406 35.453125-55.210937zm0 0" fill="#bf7e68"/><path d="m282.269531 395.378906c-.757812 0-1.527343-.125-2.261719-.386718-2.332031-.820313-4.039062-2.839844-4.460937-5.273438l-24.804687-143.308594c-.375-2.152344.308593-4.351562 1.824218-5.917968l10.691406-11.035157c1.542969-1.585937 3.773438-2.324219 5.945313-1.992187 2.183594.339844 4.074219 1.714844 5.066406 3.691406l49.5625 99.128906c.777344 1.550782.929688 3.347656.433594 5.007813-6.722656 22.480469-19.679687 42.660156-37.472656 58.378906-1.273438 1.113281-2.882813 1.707031-4.523438 1.707031zm-17.480469-147.871094 21.984376 127.03125c10.671874-11.765624 18.726562-25.578124 23.613281-40.605468l-44.023438-88.054688zm0 0" fill="#4c241d"/><path d="m142.320312 245.246094-10.691406-11.03125-45.058594 90.113281c4.882813 22.652344 16.15625 42.925781 31.886719 58.804687zm0 0" fill="#bf7e68"/><path d="m118.457031 389.960938c-1.792969 0-3.546875-.707032-4.851562-2.023438-16.980469-17.144531-28.636719-38.644531-33.710938-62.171875-.324219-1.519531-.125-3.105469.570313-4.496094l45.054687-90.113281c.988281-1.976562 2.878907-3.351562 5.066407-3.691406 2.164062-.355469 4.398437.40625 5.941406 1.992187l10.695312 11.035157c1.515625 1.566406 2.195313 3.765624 1.824219 5.917968l-23.863281 137.886719c-.4375 2.515625-2.238282 4.582031-4.679688 5.347656-.671875.214844-1.363281.316407-2.046875.316407zm-24.6875-64.761719c3.699219 15.574219 10.65625 30.09375 20.398438 42.695312l20.832031-120.386719-1.570312-1.625zm0 0" fill="#4c241d"/><path d="m288.640625 244.453125c0 13.195313-10.699219 23.894531-23.894531 23.894531-13.195313 0-23.890625-10.699218-23.890625-23.894531s10.695312-23.894531 23.890625-23.894531c13.195312 0 23.894531 10.699218 23.894531 23.894531zm0 0" fill="#6b4f5b"/><path d="m264.746094 275.171875c-16.9375 0-30.71875-13.777344-30.71875-30.71875s13.78125-30.71875 30.71875-30.71875c16.941406 0 30.722656 13.777344 30.722656 30.71875s-13.78125 30.71875-30.722656 30.71875zm0-47.785156c-9.410156 0-17.066406 7.652343-17.066406 17.066406s7.65625 17.066406 17.066406 17.066406 17.066406-7.652343 17.066406-17.066406-7.65625-17.066406-17.066406-17.066406zm0 0" fill="#4c241d"/><path d="m165.761719 244.453125c0 13.195313-10.699219 23.894531-23.894531 23.894531-13.195313 0-23.894532-10.699218-23.894532-23.894531s10.699219-23.894531 23.894532-23.894531c13.195312 0 23.894531 10.699218 23.894531 23.894531zm0 0" fill="#6b4f5b"/><path d="m141.867188 275.171875c-16.941407 0-30.71875-13.777344-30.71875-30.71875s13.777343-30.71875 30.71875-30.71875c16.941406 0 30.71875 13.777344 30.71875 30.71875s-13.777344 30.71875-30.71875 30.71875zm0-47.785156c-9.410157 0-17.066407 7.652343-17.066407 17.066406s7.65625 17.066406 17.066407 17.066406c9.410156 0 17.066406-7.652343 17.066406-17.066406s-7.65625-17.066406-17.066406-17.066406zm0 0" fill="#4c241d"/><path d="m254.507812 227.386719c0 7.539062-6.113281 13.652343-13.652343 13.652343-7.542969 0-13.65625-6.113281-13.65625-13.652343 0-7.542969 6.113281-13.652344 13.65625-13.652344 7.539062 0 13.652343 6.109375 13.652343 13.652344zm0 0" fill="#fff"/><path d="m179.414062 227.386719c0 7.539062-6.113281 13.652343-13.652343 13.652343-7.542969 0-13.65625-6.113281-13.65625-13.652343 0-7.542969 6.113281-13.652344 13.65625-13.652344 7.539062 0 13.652343 6.109375 13.652343 13.652344zm0 0" fill="#fff"/><path d="m318.648438 225.203125.707031 12.722656" fill="#ffce56"/><path d="m319.351562 244.753906c-3.597656 0-6.609374-2.8125-6.8125-6.445312l-.707031-12.722656c-.210937-3.765626 2.671875-6.984376 6.433594-7.191407 3.742187-.214843 6.988281 2.664063 7.199219 6.433594l.707031 12.71875c.210937 3.765625-2.671875 6.988281-6.433594 7.195313-.128906.003906-.257812.011718-.386719.011718zm0 0" fill="#4c241d"/></svg>