<svg height="415pt" viewBox="0 -1 415.1783 415" width="415pt" xmlns="http://www.w3.org/2000/svg"><path d="m315.769531 256.089844c0 84.832031-68.769531 153.597656-153.597656 153.597656-84.832031 0-153.601563-68.765625-153.601563-153.597656 0-84.832032 68.769532-153.601563 153.601563-153.601563 84.828125 0 153.597656 68.769531 153.597656 153.601563zm0 0" fill="#c1dbdc"/><path d="m81.550781 259.503906h69.523438l-53.304688-67.332031c-10.296875 20.203125-16.21875 43.050781-16.21875 67.332031zm0 0" fill="#ffce56"/><path d="m151.078125 266.328125h-69.527344c-3.773437 0-6.828125-3.054687-6.828125-6.824219 0-24.65625 5.707032-48.355468 16.964844-70.433594 1.054688-2.070312 3.09375-3.460937 5.40625-3.691406 2.300781-.21875 4.589844.730469 6.027344 2.554688l53.304687 67.332031c1.628907 2.050781 1.933594 4.851563.796875 7.210937-1.140625 2.355469-3.527344 3.851563-6.144531 3.851563zm-62.542969-13.652344h48.425782l-37.664063-47.582031c-6.375 15.195312-9.980469 31.132812-10.761719 47.582031zm0 0" fill="#4c241d"/><path d="m357.269531 190.914062-54.300781 68.589844h71.125c-.003906-24.777344-6.128906-48.089844-16.824219-68.589844zm0 0" fill="#ffce56"/><path d="m374.089844 266.328125h-71.121094c-2.617188 0-5.007812-1.496094-6.144531-3.851563-1.140625-2.359374-.835938-5.15625.792969-7.210937l54.296874-68.589844c1.433594-1.8125 3.6875-2.777343 5.996094-2.558593 2.304688.21875 4.339844 1.585937 5.414063 3.636718 11.503906 22.054688 17.59375 46.863282 17.59375 71.746094 0 3.773438-3.054688 6.828125-6.828125 6.828125zm-57.007813-13.652344h50.019531c-.796874-16.984375-4.578124-33.378906-11.277343-48.929687zm0 0" fill="#4c241d"/><path d="m227.023438 184.410156c36.496093 0 69.414062-15.125 92.984374-39.382812-7.304687-6.003906-15.199218-11.304688-23.574218-15.808594-18.207032 16.964844-42.558594 27.429688-69.410156 27.429688-26.550782 0-50.652344-10.238282-68.789063-26.867188-8.355469 4.582031-16.230469 9.9375-23.496094 16.011719 23.515625 23.824219 56.160157 38.617187 92.285157 38.617187zm0 0" fill="#ffce56"/><path d="m227.023438 191.234375c-36.765626 0-71.265626-14.433594-97.148438-40.644531-1.339844-1.359375-2.042969-3.21875-1.957031-5.125.09375-1.902344.980469-3.683594 2.441406-4.910156 7.53125-6.296876 15.804687-11.933594 24.585937-16.757813 2.558594-1.40625 5.730469-1.027344 7.898438.949219 17.632812 16.171875 40.425781 25.074218 64.179688 25.074218 24.046874 0 47.046874-9.089843 64.757812-25.597656 2.140625-1.996094 5.328125-2.410156 7.886719-1.015625 8.726562 4.695313 17.027343 10.261719 24.667969 16.546875 1.480468 1.210938 2.375 2.984375 2.480468 4.890625.105469 1.902344-.589844 3.769531-1.921875 5.136719-25.964843 26.730469-60.726562 41.453125-97.871093 41.453125zm-81.886719-44.953125c22.566406 20.242188 51.359375 31.304688 81.886719 31.304688 30.871093 0 59.910156-11.304688 82.585937-31.988282-3.941406-2.894531-8.039063-5.582031-12.269531-8.046875-19.691406 16.753907-44.472656 25.921875-70.316406 25.921875-25.507813 0-50.046876-8.96875-69.636719-25.351562-4.242188 2.515625-8.335938 5.242187-12.25 8.160156zm0 0" fill="#4c241d"/><path d="m296.433594 129.21875c-20.453125-11.007812-43.800782-17.261719-68.613282-17.261719-25.214843 0-48.902343 6.476563-69.585937 17.824219 18.136719 16.628906 42.238281 26.867188 68.789063 26.867188 26.851562-.003907 51.203124-10.464844 69.410156-27.429688zm0 0" fill="#a9ba5a"/><path d="m227.023438 163.472656c-27.171876 0-53.246094-10.179687-73.40625-28.660156-1.621094-1.488281-2.429688-3.664062-2.167969-5.847656.265625-2.1875 1.566406-4.113282 3.5-5.171875 22.261719-12.210938 47.460937-18.664063 72.871093-18.664063 25.023438 0 49.867188 6.25 71.847657 18.074219 1.941406 1.042969 3.253906 2.957031 3.542969 5.140625.277343 2.183594-.507813 4.367188-2.121094 5.867188-20.246094 18.867187-46.554688 29.261718-74.066406 29.261718zm-56.375-32.28125c16.320312 12.070313 35.992187 18.628906 56.375 18.628906 20.671874 0 40.570312-6.722656 56.996093-19.09375-35.550781-15.820312-77.910156-15.667968-113.371093.464844zm0 0" fill="#4c241d"/><path d="m320.007812 145.027344c-23.570312 24.257812-56.492187 39.382812-92.984374 39.382812-36.121094 0-68.769532-14.792968-92.285157-38.617187-15.21875 12.722656-27.84375 28.492187-36.964843 46.378906l53.304687 67.332031h151.890625l54.300781-68.585937c-9.253906-17.738281-21.984375-33.335938-37.261719-45.890625zm0 0" fill="#a9ba5a"/><path d="m302.96875 266.328125h-151.890625c-2.089844 0-4.0625-.953125-5.355469-2.589844l-53.304687-67.328125c-1.65625-2.09375-1.941407-4.960937-.726563-7.34375 9.550782-18.726562 22.558594-35.042968 38.664063-48.511718 2.722656-2.273438 6.734375-2.09375 9.242187.441406 23.289063 23.59375 54.339844 36.585937 87.425782 36.585937 33.425781 0 64.707031-13.25 88.085937-37.3125 2.460937-2.554687 6.480469-2.773437 9.226563-.515625 16.191406 13.300782 29.308593 29.457032 38.988281 48.003906 1.246093 2.386719.972656 5.285157-.699219 7.394532l-54.300781 68.585937c-1.292969 1.636719-3.269531 2.589844-5.355469 2.589844zm-148.59375-13.652344h145.292969l49.457031-62.472656c-7.59375-13.519531-17.253906-25.5625-28.808594-35.914063-25.40625 23.875-58.285156 36.945313-93.292968 36.945313-34.621094 0-67.226563-12.800781-92.527344-36.175781-11.5 10.488281-21.097656 22.683594-28.605469 36.367187zm0 0" fill="#4c241d"/><path d="m107.652344 343.652344c-16.453125-23.867188-26.101563-52.871094-26.101563-84.148438h292.539063c0 81.488282-65.488282 147.546875-146.269532 147.546875-25.390624 0-49.269531-6.523437-70.082031-18.003906" fill="#fff"/><path d="m227.820312 413.878906c-25.652343 0-51.023437-6.519531-73.378906-18.855468-3.300781-1.820313-4.5-5.972657-2.679687-9.273438 1.828125-3.300781 5.96875-4.5 9.28125-2.679688 20.339843 11.21875 43.433593 17.152344 66.78125 17.152344 74.621093 0 135.738281-59.457031 139.277343-133.890625h-278.566406c1.246094 26.425781 9.742188 51.6875 24.742188 73.441407 2.136718 3.101562 1.359375 7.359374-1.746094 9.496093-3.101562 2.136719-7.355469 1.355469-9.492188-1.742187-17.867187-25.910156-27.316406-56.347656-27.316406-88.023438 0-3.769531 3.054688-6.828125 6.828125-6.828125h292.539063c3.773437 0 6.828125 3.058594 6.828125 6.828125 0 85.121094-68.683594 154.375-153.097657 154.375zm0 0" fill="#4c241d"/><path d="m135.988281 381.1875c-1.511719 0-3.039062-.5-4.304687-1.535156-3.480469-2.835938-6.90625-5.886719-10.1875-9.074219-2.699219-2.628906-2.757813-6.949219-.132813-9.652344 2.625-2.699219 6.945313-2.765625 9.652344-.132812 2.988281 2.90625 6.113281 5.6875 9.292969 8.277343 2.921875 2.378907 3.359375 6.679688.980468 9.601563-1.347656 1.652344-3.3125 2.515625-5.300781 2.515625zm0 0" fill="#4c241d"/><path d="m274.542969 260.78125c0 25.804688-20.917969 46.726562-46.722657 46.726562-25.804687 0-46.722656-20.921874-46.722656-46.726562s20.917969-46.722656 46.722656-46.722656c25.804688 0 46.722657 20.917968 46.722657 46.722656zm0 0" fill="#edebdc"/><path d="m227.820312 314.332031c-29.523437 0-53.550781-24.023437-53.550781-53.550781s24.027344-53.550781 53.550781-53.550781c29.527344 0 53.546876 24.023437 53.546876 53.550781s-24.019532 53.550781-53.546876 53.550781zm0-93.449219c-22 0-39.898437 17.902344-39.898437 39.902344s17.898437 39.894532 39.898437 39.894532c22.003907 0 39.894532-17.894532 39.894532-39.894532s-17.890625-39.902344-39.894532-39.902344zm0 0" fill="#4c241d"/><path d="m248.160156 260.78125c0 11.234375-9.105468 20.339844-20.339844 20.339844-11.234374 0-20.339843-9.105469-20.339843-20.339844 0-11.230469 9.105469-20.339844 20.339843-20.339844 11.234376 0 20.339844 9.109375 20.339844 20.339844zm0 0" fill="#edebdc"/><g fill="#4c241d"><path d="m227.820312 287.949219c-14.976562 0-27.164062-12.1875-27.164062-27.167969 0-14.976562 12.1875-27.164062 27.164062-27.164062 14.980469 0 27.167969 12.1875 27.167969 27.164062 0 14.980469-12.183593 27.167969-27.167969 27.167969zm0-40.679688c-7.453124 0-13.511718 6.0625-13.511718 13.511719s6.058594 13.515625 13.511718 13.515625c7.453126 0 13.515626-6.066406 13.515626-13.515625s-6.058594-13.511719-13.515626-13.511719zm0 0"/><path d="m363.558594 54.703125c-3.773438 0-6.828125-3.058594-6.828125-6.828125v-20.480469c0-3.769531 3.054687-6.824219 6.828125-6.824219 3.773437 0 6.824218 3.054688 6.824218 6.824219v20.480469c0 3.769531-3.050781 6.828125-6.824218 6.828125zm0 0"/><path d="m363.558594 102.488281c-3.773438 0-6.828125-3.054687-6.828125-6.824219v-20.480468c0-3.769532 3.054687-6.828125 6.828125-6.828125 3.773437 0 6.824218 3.058593 6.824218 6.828125v20.480468c0 3.769532-3.050781 6.824219-6.824218 6.824219zm0 0"/><path d="m349.902344 68.355469h-20.480469c-3.773437 0-6.824219-3.054688-6.824219-6.828125 0-3.769532 3.050782-6.824219 6.824219-6.824219h20.480469c3.773437 0 6.828125 3.054687 6.828125 6.824219 0 3.773437-3.054688 6.828125-6.828125 6.828125zm0 0"/><path d="m397.691406 68.355469h-20.480468c-3.773438 0-6.828126-3.054688-6.828126-6.828125 0-3.769532 3.054688-6.824219 6.828126-6.824219h20.480468c3.773438 0 6.824219 3.054687 6.824219 6.824219 0 3.773437-3.050781 6.828125-6.824219 6.828125zm0 0"/><path d="m21.042969 209.480469c-3.421875 0-6.808594-.84375-9.90625-2.5-4.960938-2.65625-8.585938-7.078125-10.222657-12.460938-1.632812-5.382812-1.066406-11.078125 1.582032-16.039062 2.652344-4.964844 7.085937-8.589844 12.472656-10.21875 5.367188-1.640625 11.074219-1.074219 16.035156 1.582031 4.960938 2.65625 8.585938 7.078125 10.21875 12.460938v.007812c3.363282 11.109375-2.941406 22.886719-14.042968 26.253906-2.023438.609375-4.085938.914063-6.136719.914063zm.039062-28.476563c-.726562 0-1.445312.105469-2.160156.320313-1.890625.574219-3.453125 1.851562-4.386719 3.59375-.933594 1.742187-1.125 3.746093-.550781 5.640625.574219 1.890625 1.847656 3.445312 3.589844 4.378906 1.753906.933594 3.75 1.128906 5.640625.554688 3.902344-1.179688 6.121094-5.320313 4.941406-9.230469-.570312-1.890625-1.84375-3.449219-3.589844-4.378907-1.097656-.582031-2.285156-.878906-3.484375-.878906zm0 0"/><path d="m34.554688 42.203125c-11.613282 0-21.058594-9.445313-21.058594-21.058594 0-11.609375 9.445312-21.0546872 21.058594-21.0546872 11.613281 0 21.0625 9.4453122 21.0625 21.0546872 0 11.613281-9.449219 21.058594-21.0625 21.058594zm0-28.460937c-4.085938 0-7.40625 3.320312-7.40625 7.402343 0 4.085938 3.320312 7.40625 7.40625 7.40625 4.089843 0 7.40625-3.320312 7.40625-7.40625 0-4.082031-3.316407-7.402343-7.40625-7.402343zm0 0"/><path d="m92.242188 93.824219c-1.746094 0-3.492188-.664063-4.824219-2-2.667969-2.664063-2.667969-6.984375 0-9.652344l20.125-20.125c2.664062-2.667969 6.988281-2.667969 9.652343 0 2.667969 2.664063 2.667969 6.988281 0 9.652344l-20.125 20.125c-1.332031 1.335937-3.078124 2-4.828124 2zm0 0"/><path d="m112.371094 93.824219c-1.746094 0-3.496094-.664063-4.828125-2l-20.125-20.125c-2.667969-2.664063-2.667969-6.988281 0-9.652344 2.664062-2.667969 6.984375-2.667969 9.652343 0l20.125 20.125c2.667969 2.667969 2.667969 6.988281 0 9.652344-1.332031 1.335937-3.078124 2-4.824218 2zm0 0"/><path d="m224.03125 33.171875c0 6.289063-5.097656 11.382813-11.386719 11.382813-6.285156 0-11.382812-5.09375-11.382812-11.382813s5.097656-11.386719 11.382812-11.386719c6.289063 0 11.386719 5.097656 11.386719 11.386719zm0 0"/><path d="m415.179688 176.53125c0 6.289062-5.097657 11.386719-11.386719 11.386719-6.289063 0-11.386719-5.097657-11.386719-11.386719s5.097656-11.386719 11.386719-11.386719c6.289062 0 11.386719 5.097657 11.386719 11.386719zm0 0"/></g></svg>