<svg height="415pt" viewBox="0 -1 415.17752 415" width="415pt" xmlns="http://www.w3.org/2000/svg"><path d="m315.769531 256.089844c0 84.828125-68.769531 153.597656-153.601562 153.597656-84.828125 0-153.597657-68.769531-153.597657-153.597656 0-84.832032 68.769532-153.601563 153.597657-153.601563 84.832031 0 153.601562 68.769531 153.601562 153.601563zm0 0" fill="#c1dbdc"/><path d="m227.820312 111.953125c80.78125 0 146.269532 66.0625 146.269532 147.550781h-292.539063c0-81.488281 65.488281-147.550781 146.269531-147.550781zm0 0" fill="#b5a19c"/><path d="m374.085938 266.328125h-292.535157c-3.769531 0-6.824219-3.054687-6.824219-6.824219 0-85.125 68.679688-154.375 153.09375-154.375 84.414063 0 153.09375 69.25 153.09375 154.375 0 3.769532-3.054687 6.824219-6.828124 6.824219zm-285.542969-13.652344h278.558593c-3.539062-74.4375-64.660156-133.894531-139.277343-133.894531-74.625 0-135.746094 59.457031-139.28125 133.894531zm0 0" fill="#4c241d"/><path d="m107.652344 343.652344c-16.453125-23.867188-26.101563-52.871094-26.101563-84.148438h292.539063c0 81.488282-65.488282 147.546875-146.269532 147.546875-25.390624 0-49.269531-6.523437-70.082031-18.003906" fill="#fff"/><path d="m227.820312 413.875c-25.644531 0-51.023437-6.515625-73.378906-18.851562-3.304687-1.820313-4.503906-5.972657-2.679687-9.273438 1.820312-3.304688 5.96875-4.507812 9.273437-2.679688 20.34375 11.21875 43.441406 17.152344 66.789063 17.152344 74.621093 0 135.738281-59.457031 139.277343-133.890625h-278.5625c1.25 26.425781 9.734376 51.6875 24.734376 73.445313 2.136718 3.101562 1.359374 7.355468-1.746094 9.492187-3.105469 2.144531-7.359375 1.359375-9.496094-1.746093-17.863281-25.910157-27.304688-56.351563-27.304688-88.019532 0-3.769531 3.054688-6.828125 6.828126-6.828125h292.535156c3.773437 0 6.828125 3.058594 6.828125 6.828125-.003907 85.121094-68.683594 154.371094-153.097657 154.371094zm0 0" fill="#4c241d"/><path d="m135.992188 381.1875c-1.515626 0-3.039063-.5-4.304688-1.535156-3.507812-2.851563-6.933594-5.90625-10.191406-9.074219-2.703125-2.632813-2.761719-6.953125-.132813-9.652344 2.640625-2.707031 6.953125-2.757812 9.652344-.132812 2.96875 2.886719 6.097656 5.675781 9.289063 8.277343 2.925781 2.378907 3.363281 6.679688.984374 9.601563-1.351562 1.652344-3.316406 2.515625-5.296874 2.515625zm0 0" fill="#4c241d"/><path d="m274.542969 260.78125c0 25.804688-20.917969 46.722656-46.722657 46.722656-25.804687 0-46.722656-20.917968-46.722656-46.722656s20.917969-46.722656 46.722656-46.722656c25.804688 0 46.722657 20.917968 46.722657 46.722656zm0 0" fill="#edebdc"/><path d="m227.820312 314.332031c-29.527343 0-53.550781-24.023437-53.550781-53.550781 0-29.53125 24.023438-53.550781 53.550781-53.550781 29.527344 0 53.546876 24.019531 53.546876 53.550781 0 29.527344-24.019532 53.550781-53.546876 53.550781zm0-93.449219c-22 0-39.898437 17.898438-39.898437 39.902344 0 22 17.898437 39.894532 39.898437 39.894532s39.894532-17.894532 39.894532-39.894532c0-22.003906-17.894532-39.902344-39.894532-39.902344zm0 0" fill="#4c241d"/><path d="m248.160156 260.78125c0 11.234375-9.105468 20.339844-20.339844 20.339844-11.234374 0-20.339843-9.105469-20.339843-20.339844s9.105469-20.339844 20.339843-20.339844c11.234376 0 20.339844 9.105469 20.339844 20.339844zm0 0" fill="#edebdc"/><g fill="#4c241d"><path d="m227.820312 287.949219c-14.976562 0-27.164062-12.1875-27.164062-27.167969s12.1875-27.164062 27.164062-27.164062c14.980469 0 27.167969 12.183593 27.167969 27.164062s-12.1875 27.167969-27.167969 27.167969zm0-40.679688c-7.453124 0-13.511718 6.0625-13.511718 13.511719s6.058594 13.515625 13.511718 13.515625c7.453126 0 13.515626-6.066406 13.515626-13.515625s-6.0625-13.511719-13.515626-13.511719zm0 0"/><path d="m363.554688 54.703125c-3.773438 0-6.824219-3.058594-6.824219-6.828125v-20.480469c0-3.769531 3.050781-6.824219 6.824219-6.824219 3.773437 0 6.828124 3.054688 6.828124 6.824219v20.480469c0 3.769531-3.054687 6.828125-6.828124 6.828125zm0 0"/><path d="m363.554688 102.488281c-3.773438 0-6.824219-3.054687-6.824219-6.828125v-20.476562c0-3.773438 3.050781-6.828125 6.824219-6.828125 3.773437 0 6.828124 3.054687 6.828124 6.828125v20.476562c0 3.773438-3.054687 6.828125-6.828124 6.828125zm0 0"/><path d="m349.902344 68.355469h-20.480469c-3.773437 0-6.824219-3.058594-6.824219-6.828125 0-3.769532 3.050782-6.824219 6.824219-6.824219h20.480469c3.773437 0 6.828125 3.054687 6.828125 6.824219 0 3.769531-3.054688 6.828125-6.828125 6.828125zm0 0"/><path d="m397.6875 68.355469h-20.476562c-3.773438 0-6.828126-3.058594-6.828126-6.828125 0-3.769532 3.054688-6.824219 6.828126-6.824219h20.476562c3.773438 0 6.828125 3.054687 6.828125 6.824219 0 3.769531-3.054687 6.828125-6.828125 6.828125zm0 0"/><path d="m21.039062 209.480469c-3.417968 0-6.804687-.84375-9.90625-2.5-4.957031-2.65625-8.589843-7.082031-10.21875-12.464844-1.628906-5.378906-1.070312-11.078125 1.585938-16.035156 2.652344-4.960938 7.078125-8.589844 12.460938-10.21875 11.101562-3.375 22.886718 2.929687 26.257812 14.042969 3.367188 11.109374-2.933594 22.890624-14.042969 26.261718-2.019531.609375-4.085937.914063-6.136719.914063zm.023438-28.476563c-.710938 0-1.429688.105469-2.144531.324219-1.890625.570313-3.445313 1.847656-4.378907 3.589844-.933593 1.742187-1.128906 3.746093-.554687 5.640625.570313 1.894531 1.847656 3.449218 3.589844 4.378906 1.742187.929688 3.753906 1.132812 5.640625.558594 3.90625-1.183594 6.121094-5.328125 4.9375-9.234375-.96875-3.191407-3.914063-5.257813-7.089844-5.257813zm0 0"/><path d="m34.554688 42.203125c-11.609376 0-21.054688-9.445313-21.054688-21.058594 0-11.609375 9.445312-21.0546872 21.054688-21.0546872 11.609374 0 21.058593 9.4453122 21.058593 21.0546872 0 11.613281-9.449219 21.058594-21.058593 21.058594zm0-28.460937c-4.082032 0-7.402344 3.320312-7.402344 7.402343 0 4.085938 3.320312 7.40625 7.402344 7.40625 4.085937 0 7.402343-3.320312 7.402343-7.40625 0-4.082031-3.316406-7.402343-7.402343-7.402343zm0 0"/><path d="m92.242188 93.824219c-1.746094 0-3.492188-.664063-4.828126-2-2.664062-2.664063-2.664062-6.984375 0-9.652344l20.128907-20.125c2.664062-2.667969 6.988281-2.667969 9.652343 0 2.664063 2.664063 2.664063 6.984375 0 9.652344l-20.125 20.125c-1.335937 1.335937-3.082031 2-4.828124 2zm0 0"/><path d="m112.367188 93.824219c-1.746094 0-3.492188-.664063-4.824219-2l-20.128907-20.125c-2.664062-2.667969-2.664062-6.988281 0-9.652344 2.667969-2.667969 6.988282-2.667969 9.65625 0l20.125 20.125c2.664063 2.667969 2.664063 6.988281 0 9.652344-1.332031 1.335937-3.082031 2-4.828124 2zm0 0"/><path d="m224.03125 33.171875c0 6.285156-5.097656 11.382813-11.386719 11.382813-6.285156 0-11.382812-5.097657-11.382812-11.382813 0-6.289063 5.097656-11.386719 11.382812-11.386719 6.289063 0 11.386719 5.097656 11.386719 11.386719zm0 0"/><path d="m415.175781 176.53125c0 6.289062-5.09375 11.382812-11.382812 11.382812-6.289063 0-11.386719-5.09375-11.386719-11.382812s5.097656-11.386719 11.386719-11.386719c6.289062 0 11.382812 5.097657 11.382812 11.386719zm0 0"/></g><path d="m365.875 198.128906c-13.285156 10.550782-30.117188.5-44.183594-17.21875-14.066406-17.714844-20.046875-36.382812-6.761718-46.933594 13.285156-10.550781 35.460937-4.746093 49.527343 12.972657 14.070313 17.714843 14.703125 40.628906 1.417969 51.179687zm0 0" fill="#9dc1e4"/><path d="m354.109375 209.253906c-11.925781 0-25.1875-8.261718-37.769531-24.09375-18.605469-23.433594-20.71875-44.566406-5.65625-56.53125 16.21875-12.863281 42.738281-6.554687 59.125 14.070313 16.382812 20.636719 16.527344 47.898437.316406 60.777343-4.890625 3.875-10.296875 5.777344-16.015625 5.777344zm11.765625-11.125h.066406zm-35.167969-62.539062c-4.339843 0-8.339843 1.195312-11.53125 3.734375-12.0625 9.578125 1.476563 29.304687 7.859375 37.347656 6.382813 8.03125 22.550782 25.675781 34.59375 16.113281 10.136719-8.054687 8.992188-27.105468-2.515625-41.59375-7.882812-9.925781-18.949219-15.601562-28.40625-15.601562zm0 0" fill="#4c241d"/><path d="m94.996094 198.128906c13.285156 10.550782 30.113281.5 44.183594-17.21875 14.066406-17.714844 20.046874-36.382812 6.761718-46.933594-13.289062-10.550781-35.460937-4.746093-49.53125 12.972657-14.066406 17.714843-14.703125 40.628906-1.414062 51.179687zm0 0" fill="#9dc1e4"/><path d="m106.769531 209.257812c-5.722656 0-11.132812-1.90625-16.019531-5.78125-16.210938-12.878906-16.070312-40.140624.316406-60.777343 16.386719-20.636719 42.910156-26.9375 59.125-14.070313 15.0625 11.96875 12.941406 33.097656-5.664062 56.53125-12.578125 15.832032-25.835938 24.097656-37.757813 24.097656zm-7.527343-16.472656c12.066406 9.582032 28.207031-8.078125 34.589843-16.117187 6.382813-8.039063 19.925781-27.765625 7.863281-37.34375-10.136718-8.050781-28.429687-2.613281-39.9375 11.871093-11.503906 14.484376-12.660156 33.53125-2.515624 41.589844zm0 0" fill="#4c241d"/><path d="m315.769531 211.714844c0 7.542968-6.113281 13.652344-13.652343 13.652344-7.542969 0-13.65625-6.109376-13.65625-13.652344 0-7.539063 6.113281-13.652344 13.65625-13.652344 7.539062 0 13.652343 6.113281 13.652343 13.652344zm0 0" fill="#9dc1e4"/><path d="m302.117188 232.195312c-11.292969 0-20.480469-9.1875-20.480469-20.480468 0-11.292969 9.1875-20.480469 20.480469-20.480469 11.292968 0 20.480468 9.1875 20.480468 20.480469 0 11.292968-9.1875 20.480468-20.480468 20.480468zm0-27.304687c-3.769532 0-6.828126 3.0625-6.828126 6.824219 0 3.765625 3.058594 6.828125 6.828126 6.828125 3.765624 0 6.824218-3.0625 6.824218-6.828125 0-3.761719-3.058594-6.824219-6.824218-6.824219zm0 0" fill="#4c241d"/><path d="m172.410156 211.714844c0 7.542968-6.113281 13.652344-13.652344 13.652344-7.542968 0-13.65625-6.109376-13.65625-13.652344 0-7.539063 6.113282-13.652344 13.65625-13.652344 7.539063 0 13.652344 6.113281 13.652344 13.652344zm0 0" fill="#9dc1e4"/><path d="m158.757812 232.195312c-11.292968 0-20.480468-9.1875-20.480468-20.480468 0-11.292969 9.1875-20.480469 20.480468-20.480469 11.292969 0 20.476563 9.1875 20.476563 20.480469 0 11.292968-9.183594 20.480468-20.476563 20.480468zm0-27.304687c-3.765624 0-6.828124 3.0625-6.828124 6.824219 0 3.765625 3.0625 6.828125 6.828124 6.828125 3.761719 0 6.824219-3.0625 6.824219-6.828125 0-3.761719-3.0625-6.824219-6.824219-6.824219zm0 0" fill="#4c241d"/></svg>