<svg height="425pt" viewBox="0 -21 425.71861 425" width="425pt" xmlns="http://www.w3.org/2000/svg"><path d="m308.433594 155.960938c0 84.832031-68.769532 153.601562-153.601563 153.601562s-153.597656-68.769531-153.597656-153.601562c0-84.832032 68.765625-153.601563 153.597656-153.601563s153.601563 68.769531 153.601563 153.601563zm0 0" fill="#c1dbdc"/><path d="m364.519531 28.195312c-1.746093 0-3.496093-.667968-4.828125-2-2.664062-2.667968-2.664062-6.988281 0-9.652343l12.453125-12.453125c2.667969-2.667969 6.988281-2.667969 9.652344 0 2.667969 2.664062 2.667969 6.984375 0 9.652344l-12.453125 12.453124c-1.332031 1.332032-3.078125 2-4.824219 2zm0 0" fill="#4c241d"/><path d="m227.789062 326.628906s42.78125 49.6875 95.554688 49.6875c52.769531 0 95.550781-49.6875 95.550781-49.6875s-42.78125-49.6875-95.550781-49.6875c-52.773438 0-95.554688 49.6875-95.554688 49.6875zm0 0" fill="#a9ba5a"/><path d="m323.34375 383.140625c-55.273438 0-98.898438-49.933594-100.730469-52.058594-2.203125-2.5625-2.203125-6.347656 0-8.910156 1.832031-2.125 45.457031-52.058594 100.730469-52.058594 55.265625 0 98.890625 49.933594 100.722656 52.058594 2.203125 2.5625 2.203125 6.347656 0 8.910156-1.828125 2.125-45.457031 52.058594-100.722656 52.058594zm-86.167969-56.511719c11.695313 11.785156 46.308594 42.859375 86.167969 42.859375 39.960938 0 74.503906-31.066406 86.167969-42.855469-11.6875-11.785156-46.308594-42.863281-86.167969-42.863281s-74.472656 31.070313-86.167969 42.859375zm0 0" fill="#4c241d"/><path d="m197.929688 326.628906s-42.78125 49.6875-95.554688 49.6875c-52.769531 0-95.550781-49.6875-95.550781-49.6875s42.78125-49.6875 95.554687-49.6875c52.769532 0 95.550782 49.6875 95.550782 49.6875zm0 0" fill="#a9ba5a"/><g fill="#4c241d"><path d="m102.375 383.140625c-55.265625 0-98.890625-49.933594-100.722656-52.058594-2.203125-2.5625-2.203125-6.347656 0-8.910156 1.828125-2.125 45.457031-52.058594 100.722656-52.058594 55.273438 0 98.898438 49.933594 100.730469 52.058594 2.203125 2.5625 2.203125 6.347656 0 8.910156-1.832031 2.125-45.460938 52.058594-100.730469 52.058594zm-86.167969-56.519531c11.683594 11.785156 46.304688 42.867187 86.167969 42.867187 39.859375 0 74.472656-31.074219 86.164062-42.859375-11.691406-11.789062-46.304687-42.859375-86.164062-42.859375-39.960938 0-74.507812 31.066407-86.167969 42.851563zm0 0"/><path d="m335.464844 57.246094c-1.746094 0-3.492188-.664063-4.824219-2-2.667969-2.664063-2.667969-6.984375 0-9.652344l12.453125-12.453125c2.664062-2.664063 6.988281-2.664063 9.652344 0 2.664062 2.667969 2.664062 6.988281 0 9.652344l-12.453125 12.453125c-1.332031 1.335937-3.082031 2-4.828125 2zm0 0"/><path d="m347.917969 28.195312c-1.742188 0-3.492188-.667968-4.824219-2l-12.453125-12.453124c-2.667969-2.667969-2.667969-6.988282 0-9.652344 2.664063-2.667969 6.984375-2.667969 9.652344 0l12.453125 12.453125c2.664062 2.664062 2.664062 6.984375 0 9.652343-1.332032 1.332032-3.082032 2-4.828125 2zm0 0"/><path d="m376.972656 57.246094c-1.746094 0-3.492187-.664063-4.828125-2l-12.453125-12.453125c-2.664062-2.664063-2.664062-6.984375 0-9.652344 2.667969-2.664063 6.988282-2.664063 9.652344 0l12.453125 12.453125c2.667969 2.667969 2.667969 6.988281 0 9.652344-1.332031 1.335937-3.078125 2-4.824219 2zm0 0"/><path d="m389.035156 256.101562c-11.613281 0-21.058594-9.445312-21.058594-21.054687 0-11.613281 9.445313-21.058594 21.058594-21.058594 11.609375 0 21.054688 9.445313 21.054688 21.058594 0 11.609375-9.449219 21.054687-21.054688 21.054687zm0-28.460937c-4.085937 0-7.40625 3.320313-7.40625 7.40625 0 4.082031 3.320313 7.402344 7.40625 7.402344 4.082032 0 7.402344-3.320313 7.402344-7.402344-.003906-4.085937-3.320312-7.40625-7.402344-7.40625zm0 0"/><path d="m95.488281 44.476562c-11.613281 0-21.058593-9.449218-21.058593-21.054687 0-11.613281 9.445312-21.0625 21.058593-21.0625 11.609375 0 21.054688 9.449219 21.054688 21.0625 0 11.605469-9.449219 21.054687-21.054688 21.054687zm0-28.460937c-4.085937 0-7.40625 3.320313-7.40625 7.40625 0 4.082031 3.320313 7.398437 7.40625 7.398437 4.082031 0 7.402344-3.316406 7.402344-7.398437-.003906-4.085937-3.320313-7.40625-7.402344-7.40625zm0 0"/><path d="m37.367188 9.1875c0 4.875-3.953126 8.828125-8.828126 8.828125s-8.828124-3.953125-8.828124-8.828125 3.953124-8.828125 8.828124-8.828125 8.828126 3.953125 8.828126 8.828125zm0 0"/><path d="m399.179688 138.894531c0 4.875-3.949219 8.828125-8.828126 8.828125-4.875 0-8.828124-3.953125-8.828124-8.828125s3.953124-8.828125 8.828124-8.828125c4.878907 0 8.828126 3.953125 8.828126 8.828125zm0 0"/></g><path d="m85.269531 197.886719c-1.074219 67.308593 46.332031 115.371093 116.699219 161.804687 6.609375 4.347656 15.171875 4.347656 21.78125 0 70.371094-46.433594 117.773438-94.496094 116.699219-161.804687-2.875-180.355469-252.425781-172.140625-255.179688 0zm0 0" fill="#ffce56"/><path d="m212.855469 369.789062c-5.09375 0-10.195313-1.46875-14.640625-4.394531-59.917969-39.539062-121-90.378906-119.773438-167.613281 1.460938-91.207031 69.8125-138.925781 136.578125-138.925781h.003907c89.34375.007812 131.183593 72.019531 132.25 138.925781 1.226562 77.242188-59.851563 128.074219-119.765626 167.613281-4.453124 2.925781-9.550781 4.394531-14.652343 4.394531zm-120.761719-171.792968c-.894531 56.191406 33.089844 102.847656 113.636719 156 4.328125 2.859375 9.933593 2.84375 14.265625 0 80.535156-53.15625 114.519531-99.808594 113.625-156-1.378906-86.679688-60.558594-125.488282-118.597656-125.488282-79.382813 0-121.929688 63.128907-122.929688 125.488282zm0 0" fill="#4c241d"/><path d="m298.667969 323.550781c0-29.117187-38.417969-52.722656-85.808594-52.722656s-85.808594 23.605469-85.808594 52.722656c0 29.117188 38.417969 52.722657 85.808594 52.722657s85.808594-23.605469 85.808594-52.722657zm0 0" fill="#e66353"/><path d="m212.859375 383.101562c-51.949219 0-92.636719-26.160156-92.636719-59.554687s40.691406-59.546875 92.636719-59.546875 92.636719 26.152344 92.636719 59.546875-40.6875 59.554687-92.636719 59.554687zm0-105.445312c-42.8125 0-78.984375 21.011719-78.984375 45.894531 0 24.878907 36.171875 45.898438 78.984375 45.898438s78.984375-21.019531 78.984375-45.902344-36.171875-45.890625-78.984375-45.890625zm0 0" fill="#4c241d"/><path d="m268.78125 323.550781c0-12.8125-25.035156-23.195312-55.921875-23.195312s-55.921875 10.382812-55.921875 23.195312 25.035156 23.195313 55.921875 23.195313 55.921875-10.382813 55.921875-23.195313zm0 0" fill="#6b4f5b"/><path d="m212.859375 353.574219c-31.183594 0-62.75-10.3125-62.75-30.027344 0-19.707031 31.566406-30.019531 62.75-30.019531s62.75 10.3125 62.75 30.019531c0 19.714844-31.566406 30.027344-62.75 30.027344zm0-46.394531c-29.511719 0-49.097656 9.851562-49.097656 16.367187 0 6.519531 19.585937 16.375 49.097656 16.375s49.097656-9.851563 49.097656-16.375c0-6.511719-19.585937-16.367187-49.097656-16.367187zm0 0" fill="#4c241d"/><path d="m290.394531 205.15625c0-9.425781-4.984375-17.066406-11.136719-17.066406-6.152343 0-11.136718 7.640625-11.136718 17.066406s4.984375 17.066406 11.136718 17.066406c6.152344 0 11.136719-7.640625 11.136719-17.066406zm0 0" fill="#4c241d"/><path d="m153.28125 205.15625c0-9.425781-4.984375-17.066406-11.136719-17.066406-6.152343 0-11.136719 7.640625-11.136719 17.066406s4.984376 17.066406 11.136719 17.066406c6.152344 0 11.136719-7.640625 11.136719-17.066406zm0 0" fill="#4c241d"/><path d="m294.78125 193.507812c0 3.769532-3.058594 6.828126-6.828125 6.828126s-6.828125-3.058594-6.828125-6.828126c0-3.769531 3.058594-6.828124 6.828125-6.828124s6.828125 3.058593 6.828125 6.828124zm0 0" fill="#fff"/><path d="m137.765625 193.507812c0 3.769532-3.054687 6.828126-6.828125 6.828126-3.769531 0-6.824219-3.058594-6.824219-6.828126 0-3.769531 3.054688-6.828124 6.824219-6.828124 3.773438 0 6.828125 3.058593 6.828125 6.828124zm0 0" fill="#fff"/><path d="m11.175781 242.761719c-1.746093 0-3.492187-.667969-4.828125-2-2.664062-2.667969-2.664062-6.988281 0-9.652344l26.742188-26.734375c2.664062-2.667969 6.988281-2.667969 9.652344 0 2.664062 2.664062 2.664062 6.988281 0 9.652344l-26.738282 26.734375c-1.335937 1.332031-3.082031 2-4.828125 2zm0 0" fill="#4c241d"/><path d="m37.914062 242.761719c-1.746093 0-3.492187-.667969-4.824218-2l-26.742188-26.734375c-2.664062-2.664063-2.664062-6.988282 0-9.652344 2.667969-2.667969 6.988282-2.667969 9.65625 0l26.738282 26.734375c2.664062 2.664063 2.664062 6.984375 0 9.652344-1.332032 1.332031-3.078126 2-4.828126 2zm0 0" fill="#4c241d"/></svg>