<svg height="434pt" viewBox="0 -37 434.04063 434" width="434pt" xmlns="http://www.w3.org/2000/svg"><path d="m331.367188 194.582031c0 84.832031-68.769532 153.601563-153.601563 153.601563-84.828125 0-153.597656-68.769532-153.597656-153.601563s68.769531-153.601562 153.597656-153.601562c84.832031 0 153.601563 68.769531 153.601563 153.601562zm0 0" fill="#c1dbdc"/><g fill="#4c241d"><path d="m392.808594 102.695312c-3.773438 0-6.828125-3.054687-6.828125-6.828124v-20.640626c0-3.773437 3.054687-6.824218 6.828125-6.824218 3.773437 0 6.824218 3.050781 6.824218 6.824218v20.640626c0 3.773437-3.050781 6.828124-6.824218 6.828124zm0 0"/><path d="m392.808594 54.519531c-3.773438 0-6.828125-3.050781-6.828125-6.824219v-20.640624c0-3.773438 3.054687-6.824219 6.828125-6.824219 3.773437 0 6.824218 3.050781 6.824218 6.824219v20.640624c0 3.773438-3.050781 6.824219-6.824218 6.824219zm0 0"/><path d="m427.214844 68.289062h-20.640625c-3.773438 0-6.828125-3.054687-6.828125-6.828124 0-3.773438 3.054687-6.824219 6.828125-6.824219h20.640625c3.773437 0 6.824218 3.050781 6.824218 6.824219 0 3.773437-3.050781 6.828124-6.824218 6.828124zm0 0"/><path d="m379.039062 68.289062h-20.636718c-3.773438 0-6.828125-3.054687-6.828125-6.828124 0-3.773438 3.054687-6.824219 6.828125-6.824219h20.640625c3.773437 0 6.824219 3.050781 6.824219 6.824219 0 3.773437-3.054688 6.828124-6.828126 6.828124zm0 0"/><path d="m234.472656 42.132812c-11.613281 0-21.058594-9.445312-21.058594-21.050781 0-11.617187 9.445313-21.0624998 21.058594-21.0624998 11.613282 0 21.0625 9.4453128 21.0625 21.0624998 0 11.605469-9.449218 21.050781-21.0625 21.050781zm0-28.457031c-4.085937 0-7.40625 3.320313-7.40625 7.40625 0 4.082031 3.320313 7.398438 7.40625 7.398438 4.089844 0 7.40625-3.316407 7.40625-7.398438 0-4.085937-3.316406-7.40625-7.40625-7.40625zm0 0"/><path d="m407.515625 164.4375c0 5.082031-4.121094 9.203125-9.203125 9.203125s-9.203125-4.121094-9.203125-9.203125 4.121094-9.199219 9.203125-9.199219 9.203125 4.117188 9.203125 9.199219zm0 0"/><path d="m36.269531 56.101562c-1.746093 0-3.496093-.667968-4.828125-2-2.664062-2.667968-2.664062-6.988281 0-9.652343l26.738282-26.734375c2.667968-2.664063 6.988281-2.664063 9.65625 0 2.664062 2.664062 2.664062 6.988281 0 9.652344l-26.742188 26.734374c-1.332031 1.332032-3.078125 2-4.824219 2zm0 0"/><path d="m63.007812 56.101562c-1.746093 0-3.492187-.667968-4.828124-2l-26.738282-26.734374c-2.664062-2.664063-2.664062-6.988282 0-9.652344 2.664063-2.664063 6.988282-2.664063 9.652344 0l26.742188 26.734375c2.664062 2.664062 2.664062 6.984375 0 9.652343-1.335938 1.332032-3.082032 2-4.828126 2zm0 0"/></g><path d="m63.847656 282.394531-51.570312 23.4375c-7.113282 3.238281-7.300782 13.277344-.308594 16.773438 13.339844 6.671875 28.222656 9.628906 43.101562 8.566406l65.476563-4.675781zm0 0" fill="#bf7e68"/><path d="m49.167969 338.207031c-13.9375 0-27.734375-3.238281-40.253907-9.492187-5.613281-2.8125-9.027343-8.453125-8.91015575-14.726563.11718775-6.265625 3.73828175-11.773437 9.44921875-14.367187l51.566406-23.4375c2.292969-1.0625 5.003907-.742188 7.011719.824218l56.703125 44.101563c2.234375 1.734375 3.167969 4.664063 2.34375 7.371094-.820313 2.703125-3.226563 4.621093-6.046875 4.820312l-65.476562 4.679688c-2.132813.15625-4.261719.226562-6.386719.226562zm13.742187-47.894531-47.808594 21.734375c-1.230468.558594-1.433593 1.621094-1.445312 2.199219-.011719.582031.148438 1.648437 1.367188 2.253906 12.238281 6.121094 25.925781 8.828125 39.558593 7.867188l47.722657-3.414063zm0 0" fill="#4c241d"/><path d="m359.957031 282.394531 51.566407 23.4375c7.117187 3.238281 7.300781 13.277344.308593 16.773438-13.335937 6.671875-28.222656 9.628906-43.097656 8.566406l-65.480469-4.675781zm0 0" fill="#bf7e68"/><path d="m374.632812 338.207031c-2.125 0-4.253906-.070312-6.386718-.226562l-65.480469-4.679688c-2.816406-.199219-5.222656-2.117187-6.046875-4.820312-.816406-2.707031.113281-5.640625 2.339844-7.371094l56.703125-44.101563c2.007812-1.566406 4.699219-1.878906 7.019531-.824218l51.566406 23.4375c5.707032 2.59375 9.328125 8.101562 9.445313 14.367187.121093 6.273438-3.292969 11.914063-8.90625 14.726563-12.519531 6.253906-26.320313 9.492187-40.253907 9.492187zm-53.136718-17.25 47.726562 3.410157c13.671875.933593 27.320313-1.75 39.558594-7.863282 1.214844-.605468 1.375-1.671875 1.367188-2.253906-.011719-.582031-.210938-1.640625-1.445313-2.199219l-47.816406-21.734375zm0 0" fill="#4c241d"/><path d="m32.050781 137.132812c0 5.082032-4.121093 9.203126-9.203125 9.203126-5.082031 0-9.203125-4.121094-9.203125-9.203126 0-5.082031 4.121094-9.203124 9.203125-9.203124 5.082032 0 9.203125 4.121093 9.203125 9.203124zm0 0" fill="#4c241d"/><path d="m80.820312 168.089844c-22.296874 25.964844-35.625 56.859375-35.625 85.628906 0 42.152344 28.664063 62.617188 68.679688 78.996094 78.625 32.183594 138.015625 22.90625 189.75 0 39.53125-17.503906 68.679688-36.84375 68.679688-78.996094 0-67.441406-73.226563-146.53125-163.554688-146.53125-33.433594 0-64.527344 10.835938-90.429688 27.910156" fill="#bf7e68"/><path d="m210.667969 360.226562c-32.109375 0-64.859375-7.066406-99.378907-21.191406-36.054687-14.753906-72.921874-36.429687-72.921874-85.3125 0-29.660156 13.585937-62.496094 37.273437-90.082031 2.453125-2.859375 6.769531-3.191406 9.625-.734375 2.859375 2.460938 3.191406 6.769531.734375 9.628906-21.59375 25.144532-33.976562 54.738282-33.976562 81.1875 0 38.433594 25.761718 56.847656 64.441406 72.671875 66.324218 27.144531 123.195312 27.167969 184.394531.082031 40.921875-18.113281 64.613281-35.828124 64.613281-72.753906 0-63.28125-69.914062-139.707031-156.726562-139.707031-30.121094 0-60.09375 9.261719-86.667969 26.777344-3.148437 2.070312-7.378906 1.203125-9.457031-1.9375-2.074219-3.15625-1.207032-7.386719 1.945312-9.460938 28.8125-18.992187 61.378906-29.035156 94.183594-29.035156 43.871094 0 86.617188 17.707031 120.359375 49.859375 31.320313 29.847656 50.019531 68.542969 50.019531 103.503906 0 48.9375-37.546875 69.65625-72.738281 85.230469-32.027344 14.1875-63.554687 21.273437-95.722656 21.273437zm0 0" fill="#4c241d"/><path d="m259.5625 279.242188c0-16.84375-21.339844-30.5-47.660156-30.5-26.324219 0-47.660156 13.65625-47.660156 30.5s21.335937 30.5 47.660156 30.5c26.320312 0 47.660156-13.65625 47.660156-30.5zm0 0" fill="#ffded5"/><path d="m211.902344 316.566406c-30.554688 0-54.488282-16.390625-54.488282-37.324218 0-20.933594 23.933594-37.328126 54.488282-37.328126 30.554687 0 54.484375 16.394532 54.484375 37.328126 0 20.933593-23.933594 37.324218-54.484375 37.324218zm0-61c-22.136719 0-40.835938 10.84375-40.835938 23.675782 0 12.832031 18.699219 23.671874 40.835938 23.671874 22.132812 0 40.832031-10.839843 40.832031-23.671874 0-12.832032-18.699219-23.675782-40.832031-23.675782zm0 0" fill="#4c241d"/><path d="m93.0625 162.027344c-1.800781 0-3.59375-.707032-4.9375-2.113282-2.605469-2.726562-2.503906-7.054687.226562-9.652343 2.785157-2.652344 5.660157-5.234375 8.632813-7.738281 2.878906-2.433594 7.191406-2.066407 9.621094.816406 2.429687 2.886718 2.0625 7.195312-.820313 9.621094-2.757812 2.320312-5.425781 4.714843-8.003906 7.179687-1.328125 1.261719-3.023438 1.886719-4.71875 1.886719zm0 0" fill="#4c241d"/><path d="m221.355469 295.519531c-3.773438 0-6.828125-3.050781-6.828125-6.824219v-18.902343c0-3.773438 3.054687-6.824219 6.828125-6.824219 3.773437 0 6.824219 3.050781 6.824219 6.824219v18.902343c0 3.773438-3.050782 6.824219-6.824219 6.824219zm0 0" fill="#4c241d"/><path d="m202.449219 295.519531c-3.773438 0-6.828125-3.050781-6.828125-6.824219v-18.902343c0-3.773438 3.054687-6.824219 6.828125-6.824219 3.773437 0 6.824219 3.050781 6.824219 6.824219v18.902343c0 3.773438-3.050782 6.824219-6.824219 6.824219zm0 0" fill="#4c241d"/><path d="m135.679688 250.046875c-7.683594 0-15.339844-1.660156-22.527344-4.957031-3.429688-1.574219-4.929688-5.628906-3.359375-9.054688 1.582031-3.425781 5.644531-4.914062 9.050781-3.359375 9.820312 4.507813 20.804688 4.917969 30.917969 1.167969 10.125-3.753906 18.179687-11.226562 22.6875-21.042969 1.570312-3.433593 5.636719-4.90625 9.050781-3.359375 3.425781 1.574219 4.929688 5.628906 3.355469 9.054688-6.023438 13.132812-16.804688 23.125-30.347657 28.144531-6.125 2.273437-12.484374 3.40625-18.828124 3.40625zm0 0" fill="#4c241d"/><path d="m281.875 250.015625c-20.5 0-40.140625-11.707031-49.234375-31.523437-1.574219-3.425782-.066406-7.476563 3.359375-9.050782 3.421875-1.566406 7.472656-.074218 9.054688 3.359375 9.292968 20.257813 33.347656 29.167969 53.605468 19.875 3.414063-1.566406 7.472656-.074219 9.054688 3.359375 1.574218 3.425782.066406 7.480469-3.359375 9.054688-7.289063 3.335937-14.941407 4.925781-22.480469 4.925781zm0 0" fill="#4c241d"/><path d="m208.75 107.1875c-9.035156 0-17.875.851562-26.515625 2.34375l15.671875 54.835938c1.113281 3.90625 6.621094 3.972656 7.832031.097656l17.667969-56.539063c-4.832031-.460937-9.710938-.738281-14.65625-.738281zm0 0" fill="#6b4f5b"/><path d="m201.839844 174.160156c-.046875 0-.09375 0-.148438 0-4.859375-.058594-9.019531-3.246094-10.351562-7.917968l-15.667969-54.839844c-.53125-1.863282-.246094-3.867188.785156-5.507813s2.710938-2.769531 4.625-3.09375c9.398438-1.621093 18.710938-2.441406 27.671875-2.441406 4.8125 0 9.8125.25 15.292969.761719 2.046875.191406 3.898437 1.300781 5.039063 3.019531 1.148437 1.714844 1.457031 3.855469.832031 5.8125l-17.664063 56.546875c-1.441406 4.601562-5.613281 7.660156-10.414062 7.660156zm-10.898438-59.019531 11.011719 38.546875 12.359375-39.550781c-7.964844-.335938-15.417969.027343-23.371094 1.003906zm0 0" fill="#4c241d"/><path d="m54.308594 210.777344 48.242187-5.878906-32.695312-22.398438c-6.285157 9.121094-11.566407 18.605469-15.546875 28.277344zm0 0" fill="#6b4f5b"/><path d="m54.308594 217.601562c-2.117188 0-4.132813-.988281-5.433594-2.691406-1.46875-1.929687-1.804688-4.496094-.882812-6.734375 4.0625-9.859375 9.523437-19.800781 16.242187-29.546875 2.136719-3.089844 6.371094-3.878906 9.476563-1.757812l32.695312 22.390625c2.34375 1.609375 3.449219 4.496093 2.773438 7.253906-.671876 2.761719-2.984376 4.8125-5.800782 5.15625l-48.246094 5.878906c-.277343.035157-.550781.050781-.824218.050781zm17.417968-25.539062c-2.1875 3.472656-4.199218 6.957031-6.023437 10.445312l18.066406-2.199218zm0 0" fill="#4c241d"/><path d="m363.574219 211.71875c-4.515625-11.207031-10.671875-22.222656-18.257813-32.660156l-37.71875 25.839844zm0 0" fill="#6b4f5b"/><path d="m363.574219 218.546875c-.273438 0-.546875-.011719-.828125-.050781l-55.976563-6.828125c-2.820312-.339844-5.136719-2.390625-5.808593-5.152344-.671876-2.761719.433593-5.648437 2.773437-7.253906l37.726563-25.839844c3.054687-2.09375 7.214843-1.367187 9.386718 1.617187 7.921875 10.914063 14.332032 22.402344 19.058594 34.128907.902344 2.246093.554688 4.792969-.917969 6.707031-1.300781 1.699219-3.308593 2.671875-5.414062 2.671875zm-37.199219-18.238281 25.953125 3.164062c-2.574219-5.066406-5.496094-10.058594-8.742187-14.960937zm0 0" fill="#4c241d"/></svg>