<svg height="424pt" viewBox="0 -5 424.99502 424" width="424pt" xmlns="http://www.w3.org/2000/svg"><path d="m315.769531 256.496094c0 84.832031-68.769531 153.601562-153.601562 153.601562s-153.601563-68.769531-153.601563-153.601562c0-84.828125 68.769532-153.597656 153.601563-153.597656s153.601562 68.769531 153.601562 153.597656zm0 0" fill="#c1dbdc"/><path d="m227.820312 407.460938c80.78125 0 146.269532-66.058594 146.269532-147.546876h-292.539063c0 81.488282 65.484375 147.546876 146.269531 147.546876zm0 0" fill="#fff"/><path d="m227.820312 414.285156c-84.417968 0-153.097656-69.25-153.097656-154.371094 0-3.773437 3.054688-6.828124 6.828125-6.828124h292.539063c3.773437 0 6.824218 3.054687 6.824218 6.828124 0 85.121094-68.679687 154.371094-153.09375 154.371094zm-139.285156-147.546875c3.539063 74.433594 64.660156 133.890625 139.285156 133.890625 74.621094 0 135.742188-59.457031 139.28125-133.890625zm0 0" fill="#4c241d"/><path d="m278.257812 123.773438c-15.722656-5.726563-32.710937-8.851563-50.4375-8.851563-80.78125 0-146.269531 64.914063-146.269531 144.992187h292.542969c0-41.742187-17.796875-79.363281-46.277344-105.820312" fill="#fff"/><path d="m374.089844 266.738281h-292.539063c-3.773437 0-6.828125-3.058593-6.828125-6.828125 0-83.714844 68.679688-151.816406 153.097656-151.816406 18.148438 0 35.902344 3.117188 52.769532 9.265625 3.546875 1.289063 5.371094 5.207031 4.078125 8.75-1.285157 3.539063-5.183594 5.386719-8.753907 4.074219-15.363281-5.59375-31.542968-8.433594-48.09375-8.433594-74.578124 0-135.671874 58.308594-139.277343 131.335938h278.554687c-1.734375-35.980469-17.171875-69.144532-43.925781-93.992188-2.761719-2.5625-2.921875-6.882812-.355469-9.648438 2.558594-2.761718 6.902344-2.910156 9.648438-.351562 30.792968 28.605469 48.453125 68.996094 48.453125 110.820312-.003907 3.765626-3.054688 6.824219-6.828125 6.824219zm0 0" fill="#4c241d"/><path d="m308.238281 138.992188c-2.425781-1.601563-4.902343-3.128907-7.425781-4.585938" fill="#f53e28"/><path d="m308.234375 145.820312c-1.285156 0-2.59375-.367187-3.753906-1.128906-2.3125-1.527344-4.671875-2.984375-7.078125-4.371094-3.265625-1.886718-4.390625-6.058593-2.507813-9.324218 1.875-3.269532 6.054688-4.390625 9.320313-2.503906 2.648437 1.523437 5.246094 3.125 7.785156 4.800781 3.148438 2.074219 4.015625 6.308593 1.941406 9.457031-1.3125 1.988281-3.484375 3.070312-5.707031 3.070312zm0 0" fill="#4c241d"/><path d="m370.382812 246.257812h-73.910156c-6.851562-31.632812-34.96875-55.34375-68.652344-55.34375-33.683593 0-61.796874 23.710938-68.652343 55.34375h-75.507813v27.304688h75.039063c5.855469 32.902344 34.539062 57.902344 69.121093 57.902344 34.582032 0 63.265626-25 69.121094-57.902344h73.441406zm0 0" fill="#f53e28"/><path d="m227.820312 338.292969c-35.457031 0-65.972656-24.027344-74.625-57.902344h-69.535156c-3.773437 0-6.824218-3.054687-6.824218-6.828125v-27.304688c0-3.769531 3.050781-6.828124 6.824218-6.828124h70.207032c9.542968-32.375 39.792968-55.34375 73.953124-55.34375 34.164063 0 64.414063 22.964843 73.949219 55.34375h68.613281c3.773438 0 6.824219 3.058593 6.824219 6.828124v27.304688c0 3.773438-3.050781 6.828125-6.824219 6.828125h-67.933593c-8.652344 33.875-39.164063 57.902344-74.628907 57.902344zm-137.332031-71.554688h68.214844c3.304687 0 6.140625 2.375 6.71875 5.628907 5.386719 30.289062 31.632813 52.269531 62.402344 52.269531 30.765625 0 57.011719-21.980469 62.398437-52.269531.582032-3.253907 3.414063-5.628907 6.722656-5.628907h66.613282v-13.652343h-67.089844c-3.214844 0-5.992188-2.242188-6.671875-5.382813-6.265625-28.953125-32.328125-49.960937-61.972656-49.960937-29.640625 0-55.707031 21.011718-61.980469 49.960937-.679688 3.140625-3.457031 5.382813-6.671875 5.382813h-68.683594zm0 0" fill="#4c241d"/><path d="m274.542969 261.191406c0 25.804688-20.917969 46.722656-46.722657 46.722656-25.804687 0-46.722656-20.917968-46.722656-46.722656 0-25.804687 20.917969-46.722656 46.722656-46.722656 25.804688 0 46.722657 20.917969 46.722657 46.722656zm0 0" fill="#edebdc"/><path d="m227.820312 314.742188c-29.523437 0-53.550781-24.023438-53.550781-53.550782 0-29.53125 24.027344-53.554687 53.550781-53.554687 29.527344 0 53.546876 24.023437 53.546876 53.554687 0 29.527344-24.019532 53.550782-53.546876 53.550782zm0-93.449219c-22 0-39.898437 17.898437-39.898437 39.898437s17.898437 39.898438 39.898437 39.898438c22.003907 0 39.894532-17.898438 39.894532-39.898438s-17.890625-39.898437-39.894532-39.898437zm0 0" fill="#4c241d"/><path d="m248.160156 261.191406c0 11.234375-9.105468 20.339844-20.339844 20.339844-11.234374 0-20.339843-9.105469-20.339843-20.339844s9.105469-20.339844 20.339843-20.339844c11.234376 0 20.339844 9.105469 20.339844 20.339844zm0 0" fill="#edebdc"/><g fill="#4c241d"><path d="m227.820312 288.359375c-14.976562 0-27.164062-12.1875-27.164062-27.167969 0-14.980468 12.1875-27.167968 27.164062-27.167968 14.980469 0 27.167969 12.1875 27.167969 27.167968 0 14.980469-12.183593 27.167969-27.167969 27.167969zm0-40.683594c-7.453124 0-13.511718 6.066407-13.511718 13.515625 0 7.449219 6.058594 13.511719 13.511718 13.511719 7.453126 0 13.515626-6.0625 13.515626-13.511719 0-7.449218-6.0625-13.515625-13.515626-13.515625zm0 0"/><path d="m384.035156 61.9375c-3.773437 0-6.828125-3.054688-6.828125-6.828125v-20.480469c0-3.769531 3.054688-6.824218 6.828125-6.824218 3.773438 0 6.828125 3.054687 6.828125 6.824218v20.480469c0 3.773437-3.054687 6.828125-6.828125 6.828125zm0 0"/><path d="m384.035156 109.722656c-3.773437 0-6.828125-3.054687-6.828125-6.824218v-20.480469c0-3.769531 3.054688-6.828125 6.828125-6.828125 3.773438 0 6.828125 3.058594 6.828125 6.828125v20.480469c0 3.769531-3.054687 6.824218-6.828125 6.824218zm0 0"/><path d="m370.382812 75.589844h-20.480468c-3.773438 0-6.828125-3.054688-6.828125-6.824219s3.054687-6.828125 6.828125-6.828125h20.480468c3.773438 0 6.824219 3.058594 6.824219 6.828125s-3.050781 6.824219-6.824219 6.824219zm0 0"/><path d="m418.167969 75.589844h-20.480469c-3.773438 0-6.824219-3.054688-6.824219-6.824219s3.050781-6.828125 6.824219-6.828125h20.480469c3.773437 0 6.828125 3.058594 6.828125 6.828125s-3.054688 6.824219-6.828125 6.824219zm0 0"/><path d="m21.042969 209.886719c-3.421875 0-6.808594-.839844-9.90625-2.5-4.960938-2.652344-8.585938-7.074219-10.222657-12.457031-1.632812-5.386719-1.066406-11.082032 1.582032-16.042969 2.652344-4.960938 7.085937-8.585938 12.472656-10.21875 5.367188-1.640625 11.066406-1.070313 16.035156 1.585937 4.960938 2.652344 8.585938 7.074219 10.21875 12.460938v.003906c3.363282 11.113281-2.941406 22.886719-14.042968 26.253906-2.023438.613282-4.085938.914063-6.136719.914063zm.039062-28.476563c-.726562 0-1.449219.105469-2.160156.324219-1.894531.574219-3.453125 1.847656-4.386719 3.589844-.933594 1.746093-1.125 3.746093-.554687 5.640625.574219 1.890625 1.847656 3.449218 3.59375 4.382812 1.753906.933594 3.753906 1.132813 5.640625.554688 3.898437-1.183594 6.121094-5.324219 4.941406-9.234375-.574219-1.886719-1.847656-3.445313-3.59375-4.378907-1.09375-.582031-2.28125-.878906-3.480469-.878906zm0 0"/><path d="m34.554688 42.609375c-11.613282 0-21.058594-9.445313-21.058594-21.054687 0-11.609376 9.445312-21.058594 21.058594-21.058594 11.613281 0 21.0625 9.449218 21.0625 21.058594 0 11.609374-9.449219 21.054687-21.0625 21.054687zm0-28.457031c-4.085938 0-7.40625 3.316406-7.40625 7.402344 0 4.082031 3.320312 7.402343 7.40625 7.402343 4.089843 0 7.40625-3.320312 7.40625-7.402343 0-4.085938-3.316407-7.402344-7.40625-7.402344zm0 0"/><path d="m99.070312 114.714844c-1.746093 0-3.496093-.667969-4.828124-2-2.664063-2.667969-2.664063-6.988282 0-9.652344l20.128906-20.128906c2.664062-2.664063 6.984375-2.664063 9.652344 0 2.664062 2.667968 2.664062 6.988281 0 9.652344l-20.128907 20.128906c-1.332031 1.335937-3.078125 2-4.824219 2zm0 0"/><path d="m119.195312 114.714844c-1.746093 0-3.492187-.667969-4.824218-2l-20.128906-20.128906c-2.664063-2.664063-2.664063-6.984376 0-9.652344 2.667968-2.664063 6.988281-2.664063 9.652343 0l20.128907 20.128906c2.664062 2.664062 2.664062 6.984375 0 9.652344-1.332032 1.335937-3.082032 2-4.828126 2zm0 0"/><path d="m224.03125 33.578125c0 6.289063-5.097656 11.386719-11.386719 11.386719-6.285156 0-11.382812-5.097656-11.382812-11.386719 0-6.285156 5.097656-11.382813 11.382812-11.382813 6.289063 0 11.386719 5.097657 11.386719 11.382813zm0 0"/><path d="m415.179688 176.941406c0 6.285156-5.097657 11.382813-11.386719 11.382813-6.289063 0-11.386719-5.097657-11.386719-11.382813 0-6.289062 5.097656-11.386718 11.386719-11.386718 6.289062 0 11.386719 5.097656 11.386719 11.386718zm0 0"/></g></svg>