<svg height="420pt" viewBox="0 -21 420.39637 420" width="420pt" xmlns="http://www.w3.org/2000/svg"><path d="m317.722656 212.433594c0 84.832031-68.769531 153.601562-153.597656 153.601562-84.832031 0-153.601562-68.769531-153.601562-153.601562 0-84.832032 68.769531-153.597656 153.601562-153.597656 84.828125 0 153.597656 68.765624 153.597656 153.597656zm0 0" fill="#c1dbdc"/><g fill="#4c241d"><path d="m379.164062 120.546875c-3.773437 0-6.828124-3.054687-6.828124-6.828125v-20.636719c0-3.773437 3.054687-6.828125 6.828124-6.828125 3.773438 0 6.824219 3.054688 6.824219 6.828125v20.636719c0 3.773438-3.050781 6.828125-6.824219 6.828125zm0 0"/><path d="m379.164062 72.375c-3.773437 0-6.828124-3.054688-6.828124-6.828125v-20.640625c0-3.773438 3.054687-6.824219 6.828124-6.824219 3.773438 0 6.824219 3.050781 6.824219 6.824219v20.640625c0 3.773437-3.050781 6.828125-6.824219 6.828125zm0 0"/><path d="m413.570312 86.140625h-20.640624c-3.773438 0-6.828126-3.054687-6.828126-6.828125s3.054688-6.824219 6.828126-6.824219h20.640624c3.773438 0 6.824219 3.050781 6.824219 6.824219s-3.050781 6.828125-6.824219 6.828125zm0 0"/><path d="m365.394531 86.140625h-20.640625c-3.773437 0-6.824218-3.054687-6.824218-6.828125s3.050781-6.824219 6.824218-6.824219h20.640625c3.773438 0 6.828125 3.050781 6.828125 6.824219s-3.054687 6.828125-6.828125 6.828125zm0 0"/><path d="m268.617188 53.160156c-11.617188 0-21.0625-9.445312-21.0625-21.054687 0-11.613281 9.445312-21.058594 21.0625-21.058594 11.613281 0 21.058593 9.445313 21.058593 21.058594 0 11.609375-9.445312 21.054687-21.058593 21.054687zm0-28.460937c-4.089844 0-7.410157 3.320312-7.410157 7.410156 0 4.078125 3.320313 7.398437 7.410157 7.398437 4.085937 0 7.40625-3.320312 7.40625-7.398437 0-4.089844-3.320313-7.410156-7.40625-7.410156zm0 0"/><path d="m393.871094 182.289062c0 5.085938-4.121094 9.203126-9.203125 9.203126s-9.203125-4.117188-9.203125-9.203126c0-5.082031 4.121094-9.199218 9.203125-9.199218s9.203125 4.117187 9.203125 9.199218zm0 0"/><path d="m22.621094 73.953125c-1.746094 0-3.492188-.667969-4.824219-2-2.667969-2.664063-2.667969-6.988281 0-9.652344l26.738281-26.734375c2.667969-2.664062 6.988282-2.664062 9.652344 0 2.667969 2.667969 2.667969 6.988282 0 9.652344l-26.738281 26.734375c-1.332031 1.332031-3.078125 2-4.828125 2zm0 0"/><path d="m49.363281 73.953125c-1.746093 0-3.496093-.667969-4.828125-2l-26.738281-26.734375c-2.667969-2.664062-2.667969-6.984375 0-9.652344 2.664063-2.664062 6.984375-2.664062 9.652344 0l26.742187 26.734375c2.664063 2.664063 2.664063 6.988281 0 9.652344-1.335937 1.332031-3.082031 2-4.828125 2zm0 0"/></g><path d="m197.964844 70.675781c22.207031 43.695313 9.777344 94.582031 9.777344 94.582031s-48.429688-19.957031-70.636719-63.652343c-22.203125-43.695313-9.777344-94.582031-9.777344-94.582031s48.429687 19.957031 70.636719 63.652343zm0 0" fill="#ffce56"/><path d="m207.742188 172.078125c-.878907 0-1.765626-.171875-2.597657-.511719-2.074219-.851562-51.042969-21.441406-74.121093-66.867187-23.085938-45.433594-10.859376-97.113281-10.328126-99.292969.472657-1.933594 1.765626-3.566406 3.539063-4.46875 1.765625-.90625 3.855469-.9765625 5.695313-.226562 2.074218.855468 51.039062 21.441406 74.121093 66.867187 23.085938 45.433594 10.859375 97.113281 10.324219 99.292969-.472656 1.933594-1.765625 3.570312-3.539062 4.46875-.96875.496094-2.035157.738281-3.09375.738281zm-75.292969-154.996094c-2.285157 15.738281-4.839844 50.765625 10.746093 81.433594 15.628907 30.753906 45.375 49.277344 59.425782 56.683594 2.289062-15.738281 4.839844-50.765625-10.746094-81.433594-15.625-30.753906-45.371094-49.277344-59.425781-56.683594zm0 0" fill="#4c241d"/><path d="m18.40625 154.984375c0 5.082031-4.121094 9.203125-9.203125 9.203125s-9.203125-4.121094-9.203125-9.203125 4.121094-9.203125 9.203125-9.203125 9.203125 4.121094 9.203125 9.203125zm0 0" fill="#4c241d"/><path d="m67.175781 185.941406c-22.296875 25.96875-35.625 56.859375-35.625 85.628906 0 42.152344 28.664063 62.617188 68.679688 78.996094 78.625 32.183594 138.015625 22.90625 189.746093 0 39.535157-17.5 68.679688-36.84375 68.679688-78.996094 0-67.4375-73.222656-146.53125-163.550781-146.53125-33.4375 0-64.53125 10.835938-90.433594 27.910157" fill="#a9ba5a"/><path d="m197.023438 378.078125c-32.113282 0-64.859376-7.066406-99.378907-21.191406-36.0625-14.757813-72.921875-36.433594-72.921875-85.3125 0-29.652344 13.585938-62.488281 37.273438-90.082031 2.472656-2.867188 6.78125-3.179688 9.628906-.730469 2.859375 2.453125 3.183594 6.765625.734375 9.625-21.59375 25.152343-33.980469 54.746093-33.980469 81.1875 0 38.433593 25.757813 56.847656 64.4375 72.671875 66.335938 27.148437 123.203125 27.175781 184.402344.082031 40.921875-18.113281 64.613281-35.828125 64.613281-72.753906 0-63.28125-69.914062-139.707031-156.726562-139.707031-30.121094 0-60.09375 9.261718-86.667969 26.78125-3.160156 2.070312-7.378906 1.199218-9.460938-1.941407-2.070312-3.15625-1.203124-7.386719 1.941407-9.460937 28.8125-18.992188 61.386719-29.035156 94.1875-29.035156 43.875 0 86.621093 17.707031 120.359375 49.863281 31.320312 29.84375 50.019531 68.539062 50.019531 103.5 0 48.941406-37.546875 69.660156-72.738281 85.230469-32.03125 14.1875-63.554688 21.273437-95.722656 21.273437zm0 0" fill="#4c241d"/><path d="m79.421875 179.878906c-1.800781 0-3.589844-.707031-4.933594-2.113281-2.605469-2.726563-2.507812-7.046875.222657-9.644531 2.777343-2.660156 5.65625-5.238282 8.636718-7.746094 2.886719-2.449219 7.195313-2.0625 9.613282.824219 2.433593 2.882812 2.0625 7.1875-.824219 9.613281-2.753907 2.320312-5.421875 4.714844-8 7.175781-1.320313 1.265625-3.019531 1.890625-4.714844 1.890625zm0 0" fill="#4c241d"/><path d="m194.84375 347.121094c-17.273438 0-31.328125-14.054688-31.328125-31.324219 0-3.773437 3.054687-6.828125 6.828125-6.828125s6.828125 3.054688 6.828125 6.828125c0 9.746094 7.925781 17.671875 17.671875 17.671875s17.671875-7.929688 17.671875-17.671875c0-6.402344-3.566406-12.324219-9.304687-15.449219-2.195313-1.191406-3.5625-3.492187-3.5625-5.992187s1.367187-4.800781 3.5625-5.996094c5.738281-3.125 9.304687-9.046875 9.304687-15.445313 0-9.746093-7.925781-17.671874-17.671875-17.671874s-17.671875 7.925781-17.671875 17.671874c0 3.773438-3.054687 6.824219-6.828125 6.824219s-6.828125-3.050781-6.828125-6.824219c0-17.273437 14.054687-31.328124 31.328125-31.328124s31.324219 14.054687 31.324219 31.328124c0 8.078126-3.160157 15.710938-8.605469 21.4375 5.445312 5.726563 8.605469 13.359376 8.605469 21.441407 0 17.273437-14.050781 31.328125-31.324219 31.328125zm0 0" fill="#4c241d"/><path d="m298.996094 229.554688c-1.121094 0-2.253906-.273438-3.300782-.855469-19.992187-11.066407-36.132812-11.21875-50.785156-.464844-3.054687 2.226563-7.320312 1.558594-9.550781-1.464844-2.226563-3.039062-1.570313-7.3125 1.46875-9.546875 18.914063-13.882812 40.9375-14.042968 65.480469-.46875 3.300781 1.828125 4.492187 5.980469 2.664062 9.28125-1.242187 2.246094-3.570312 3.519532-5.976562 3.519532zm0 0" fill="#4c241d"/><path d="m141.984375 229.554688c-1.121094 0-2.253906-.273438-3.300781-.855469-19.996094-11.066407-36.140625-11.21875-50.789063-.464844-3.050781 2.226563-7.3125 1.558594-9.546875-1.464844-2.226562-3.039062-1.574218-7.3125 1.464844-9.546875 18.914062-13.882812 40.941406-14.042968 65.480469-.46875 3.300781 1.828125 4.496093 5.980469 2.667969 9.28125-1.246094 2.246094-3.570313 3.519532-5.976563 3.519532zm0 0" fill="#4c241d"/></svg>