<svg height="414pt" viewBox="-5 0 414 414.19093" width="414pt" xmlns="http://www.w3.org/2000/svg"><path d="m307.296875 201.386719c0 84.832031-68.769531 153.601562-153.601563 153.601562-84.832031 0-153.601562-68.769531-153.601562-153.601562s68.769531-153.601563 153.601562-153.601563c84.832032 0 153.601563 68.769532 153.601563 153.601563zm0 0" fill="#c1dbdc"/><g fill="#4c241d"><path d="m56.183594 39.488281c-1.746094 0-3.496094-.667969-4.828125-2-2.667969-2.667969-2.667969-6.988281 0-9.652343l12.453125-12.457032c2.664062-2.664062 6.988281-2.664062 9.652344 0 2.667968 2.667969 2.667968 6.988282 0 9.65625l-12.453126 12.453125c-1.332031 1.332031-3.078124 2-4.824218 2zm0 0"/><path d="m27.128906 68.539062c-1.746094 0-3.492187-.667968-4.828125-2-2.664062-2.664062-2.664062-6.988281 0-9.652343l12.457031-12.453125c2.664063-2.667969 6.984376-2.667969 9.652344 0 2.664063 2.664062 2.664063 6.988281 0 9.652344l-12.453125 12.453124c-1.335937 1.335938-3.082031 2-4.828125 2zm0 0"/><path d="m39.582031 39.488281c-1.746093 0-3.492187-.667969-4.824219-2l-12.457031-12.453125c-2.664062-2.667968-2.664062-6.988281 0-9.65625 2.667969-2.664062 6.988281-2.664062 9.65625 0l12.453125 12.457032c2.664063 2.664062 2.664063 6.984374 0 9.652343-1.335937 1.332031-3.082031 2-4.828125 2zm0 0"/><path d="m68.636719 68.539062c-1.746094 0-3.496094-.667968-4.828125-2l-12.453125-12.453124c-2.667969-2.664063-2.667969-6.988282 0-9.652344 2.664062-2.667969 6.988281-2.667969 9.652343 0l12.453126 12.453125c2.667968 2.664062 2.667968 6.988281 0 9.652343-1.332032 1.335938-3.078126 2-4.824219 2zm0 0"/><path d="m33.046875 414.191406c-3.417969 0-6.804687-.84375-9.90625-2.5-4.960937-2.65625-8.585937-7.078125-10.21875-12.460937-1.632813-5.382813-1.066406-11.078125 1.578125-16.039063 2.65625-4.964844 7.085938-8.589844 12.476562-10.21875 5.367188-1.636718 11.066407-1.070312 16.03125 1.582032 4.960938 2.65625 8.589844 7.078124 10.222657 12.460937v.007813c3.359375 11.109374-2.941407 22.886718-14.046875 26.253906-2.019532.609375-4.082032.914062-6.136719.914062zm.042969-28.476562c-.726563 0-1.449219.105468-2.160156.320312-1.894532.574219-3.453126 1.851563-4.386719 3.59375-.933594 1.742188-1.128907 3.746094-.554688 5.640625.574219 1.890625 1.847657 3.445313 3.59375 4.378907 1.753907.941406 3.746094 1.125 5.640625.554687 3.898438-1.179687 6.121094-5.320313 4.941406-9.230469-.574218-1.890625-1.847656-3.449218-3.59375-4.378906-1.09375-.582031-2.28125-.878906-3.480468-.878906zm0 0"/><path d="m374.242188 42.113281c-11.613282 0-21.0625-9.445312-21.0625-21.054687 0-11.613282 9.449218-21.058594 21.0625-21.058594 11.613281 0 21.058593 9.445312 21.058593 21.058594 0 11.609375-9.445312 21.054687-21.058593 21.054687zm0-28.460937c-4.089844 0-7.40625 3.320312-7.40625 7.40625 0 4.082031 3.316406 7.402344 7.40625 7.402344 4.085937 0 7.40625-3.320313 7.40625-7.402344 0-4.085938-3.320313-7.40625-7.40625-7.40625zm0 0"/><path d="m294.695312 27.886719c0 5.082031-4.117187 9.199219-9.199218 9.199219-5.082032 0-9.203125-4.117188-9.203125-9.199219s4.121093-9.203125 9.203125-9.203125c5.082031 0 9.199218 4.121094 9.199218 9.203125zm0 0"/><path d="m28.457031 307.777344c0 5.082031-4.121093 9.203125-9.203125 9.203125-5.082031 0-9.203125-4.121094-9.203125-9.203125 0-5.082032 4.121094-9.199219 9.203125-9.199219 5.082032 0 9.203125 4.117187 9.203125 9.199219zm0 0"/><path d="m377.316406 394.109375c-1.746094 0-3.496094-.667969-4.828125-2-2.664062-2.664063-2.664062-6.988281 0-9.652344l20.125-20.125c2.667969-2.667969 6.988281-2.667969 9.65625 0 2.664063 2.664063 2.664063 6.984375 0 9.652344l-20.128906 20.125c-1.332031 1.332031-3.078125 2-4.824219 2zm0 0"/><path d="m397.441406 394.109375c-1.746094 0-3.492187-.667969-4.828125-2l-20.125-20.125c-2.664062-2.667969-2.664062-6.988281 0-9.652344 2.664063-2.667969 6.988281-2.667969 9.652344 0l20.128906 20.125c2.664063 2.664063 2.664063 6.988281 0 9.652344-1.335937 1.332031-3.082031 2-4.828125 2zm0 0"/></g><path d="m290.207031 366.734375c-25.222656 21.578125-54.90625 35.183594-85.3125 35.183594-81.085937 0-157.011719-96.746094-157.011719-183.464844s75.925782-183.464844 157.011719-183.464844c81.085938 0 157.015625 96.746094 157.015625 183.464844 0 33.246094-11.164062 67.96875-29.496094 98.148437" fill="#fff"/><path d="m204.894531 408.742188c-88.238281 0-163.839843-104.632813-163.839843-190.289063s75.601562-190.289063 163.839843-190.289063c88.242188 0 163.839844 104.632813 163.839844 190.289063 0 33.21875-10.824219 69.332031-30.484375 101.695313-1.953125 3.222656-6.160156 4.25-9.378906 2.289062-3.222656-1.957031-4.246094-6.15625-2.289063-9.375 18.382813-30.257812 28.5-63.855469 28.5-94.609375 0-87.492187-75.792969-176.636719-150.1875-176.636719s-150.1875 89.144532-150.1875 176.636719c0 87.496094 75.792969 176.636719 150.1875 176.636719 27.253907 0 55.21875-11.601563 80.875-33.542969 2.859375-2.4375 7.179688-2.117187 9.628907.75 2.453124 2.863281 2.109374 7.171875-.75 9.625-28.160157 24.089844-59.199219 36.820313-89.753907 36.820313zm0 0" fill="#4c241d"/><path d="m204.894531 402.773438c-3.773437 0-6.824219-3.058594-6.824219-6.828126v-359.40625c0-3.769531 3.050782-6.824218 6.824219-6.824218 3.773438 0 6.828125 3.054687 6.828125 6.824218v359.40625c0 3.769532-3.054687 6.828126-6.828125 6.828126zm0 0" fill="#4c241d"/><path d="m318.1875 337.257812c-3.804688 4.894532-7.804688 9.601563-11.972656 14.089844" fill="#b5a19c"/><path d="m306.214844 358.171875c-1.667969 0-3.332032-.601563-4.648438-1.820313-2.757812-2.566406-2.917968-6.886718-.351562-9.652343 4.015625-4.324219 7.914062-8.914063 11.585937-13.632813 2.300781-2.960937 6.605469-3.507812 9.574219-1.199218 2.980469 2.3125 3.519531 6.605468 1.199219 9.582031-3.90625 5.03125-8.066407 9.925781-12.359375 14.542969-1.339844 1.449218-3.167969 2.179687-5 2.179687zm0 0" fill="#4c241d"/><path d="m257.363281 352.347656c-7.695312 11.648438-25.4375 13.496094-25.4375 13.496094s-5.273437-17.042969 2.421875-28.695312c7.695313-11.652344 25.441406-13.5 25.441406-13.5s5.269532 17.046874-2.425781 28.699218zm0 0" fill="#6b4f5b"/><path d="m231.914062 372.671875c-2.957031 0-5.625-1.925781-6.511718-4.808594-.253906-.824219-6.113282-20.292969 3.246094-34.472656 9.367187-14.1875 29.582031-16.4375 30.433593-16.527344 3.1875-.332031 6.265625 1.652344 7.226563 4.773438.253906.820312 6.113281 20.289062-3.246094 34.472656 0 0 0 0-.007812.003906-9.359376 14.179688-29.574219 16.429688-30.425782 16.523438-.242187.019531-.472656.035156-.714844.035156zm22.519532-40.925781c-4.984375 1.488281-11.191406 4.328125-14.394532 9.164062-3.339843 5.066406-3.351562 11.941406-2.765624 16.835938 4.988281-1.484375 11.195312-4.324219 14.394531-9.164063 3.339843-5.0625 3.355469-11.941406 2.765625-16.835937zm2.929687 20.601562h.066407zm0 0" fill="#4c241d"/><path d="m152.425781 352.347656c7.695313 11.648438 25.441407 13.496094 25.441407 13.496094s5.269531-17.042969-2.425782-28.695312c-7.695312-11.652344-25.4375-13.5-25.4375-13.5s-5.273437 17.046874 2.421875 28.699218zm0 0" fill="#6b4f5b"/><path d="m177.875 372.671875c-.238281 0-.472656-.015625-.710938-.035156-.855468-.09375-21.070312-2.34375-30.429687-16.523438-.003906-.003906-.003906-.003906-.003906-.003906-9.359375-14.183594-3.503907-33.652344-3.246094-34.472656.957031-3.121094 4.019531-5.113281 7.222656-4.773438.855469.089844 21.070313 2.339844 30.429688 16.523438 9.363281 14.183593 3.503906 33.652343 3.25 34.476562-.882813 2.882813-3.550781 4.808594-6.511719 4.808594zm-19.753906-24.089844c3.203125 4.839844 9.410156 7.679688 14.402344 9.167969.59375-5.171875.417968-12.003906-2.78125-16.84375-3.191407-4.832031-9.398438-7.671875-14.394532-9.164062-.59375 5.175781-.421875 12 2.773438 16.839843zm0 0" fill="#4c241d"/><path d="m341.429688 215.039062c0-35.816406-22.925782-64.851562-51.199219-64.851562-28.277344 0-51.203125 29.035156-51.203125 64.851562 0 35.820313 22.925781 64.855469 51.203125 64.855469 28.273437 0 51.199219-29.035156 51.199219-64.855469zm0 0" fill="#6b4f5b"/><path d="m290.230469 286.71875c-31.996094 0-58.027344-32.15625-58.027344-71.679688 0-39.523437 26.03125-71.679687 58.027344-71.679687 31.992187 0 58.023437 32.15625 58.023437 71.679687 0 39.523438-26.03125 71.679688-58.023437 71.679688zm0-129.707031c-24.46875 0-44.375 26.03125-44.375 58.027343 0 31.996094 19.90625 58.027344 44.375 58.027344 24.464843 0 44.371093-26.03125 44.371093-58.027344 0-31.996093-19.90625-58.027343-44.371093-58.027343zm0 0" fill="#4c241d"/><path d="m321.308594 225.28125c0-26.394531-16.890625-47.789062-37.726563-47.789062-20.835937 0-37.726562 21.394531-37.726562 47.789062 0 26.390625 16.890625 47.785156 37.726562 47.785156 20.835938 0 37.726563-21.394531 37.726563-47.785156zm0 0" fill="#fff"/><path d="m283.582031 279.894531c-24.566406 0-44.554687-24.5-44.554687-54.613281 0-30.117188 19.988281-54.613281 44.554687-54.613281 24.566407 0 44.550781 24.496093 44.550781 54.613281 0 30.113281-19.984374 54.613281-44.550781 54.613281zm0-95.574219c-17.039062 0-30.898437 18.375-30.898437 40.960938s13.859375 40.957031 30.898437 40.957031c17.039063 0 30.898438-18.371093 30.898438-40.957031s-13.859375-40.960938-30.898438-40.960938zm0 0" fill="#4c241d"/><path d="m249.675781 244.789062c-1.953125 0-3.894531-.832031-5.242187-2.445312-2.417969-2.890625-2.039063-7.199219.855468-9.617188 27.539063-23.074218 52.597657-22.96875 76.601563.335938 2.707031 2.625 2.773437 6.945312.144531 9.652344-2.625 2.707031-6.945312 2.769531-9.652344.140625-18.800781-18.25-36.230468-18.15625-58.332031.335937-1.273437 1.070313-2.835937 1.597656-4.375 1.597656zm0 0" fill="#4c241d"/><path d="m170.761719 215.039062c0-35.816406-22.921875-64.851562-51.199219-64.851562s-51.199219 29.035156-51.199219 64.851562c0 35.820313 22.921875 64.855469 51.199219 64.855469s51.199219-29.035156 51.199219-64.855469zm0 0" fill="#6b4f5b"/><path d="m119.5625 286.71875c-31.992188 0-58.027344-32.15625-58.027344-71.679688 0-39.523437 26.035156-71.679687 58.027344-71.679687s58.027344 32.15625 58.027344 71.679687c0 39.523438-26.035156 71.679688-58.027344 71.679688zm0-129.707031c-24.46875 0-44.375 26.03125-44.375 58.027343 0 31.996094 19.90625 58.027344 44.375 58.027344 24.464844 0 44.371094-26.03125 44.371094-58.027344 0-31.996093-19.90625-58.027343-44.371094-58.027343zm0 0" fill="#4c241d"/><path d="m163.933594 225.28125c0-26.394531-16.886719-47.789062-37.722656-47.789062-20.835938 0-37.726563 21.394531-37.726563 47.789062 0 26.390625 16.890625 47.785156 37.726563 47.785156 20.835937 0 37.722656-21.394531 37.722656-47.785156zm0 0" fill="#fff"/><path d="m126.207031 279.894531c-24.566406 0-44.550781-24.5-44.550781-54.613281 0-30.117188 19.984375-54.613281 44.550781-54.613281 24.566407 0 44.554688 24.496093 44.554688 54.613281 0 30.113281-19.988281 54.613281-44.554688 54.613281zm0-95.574219c-17.039062 0-30.898437 18.375-30.898437 40.960938s13.859375 40.957031 30.898437 40.957031c17.039063 0 30.898438-18.371093 30.898438-40.957031s-13.855469-40.960938-30.898438-40.960938zm0 0" fill="#4c241d"/><path d="m160.117188 244.789062c-1.539063 0-3.101563-.527343-4.375-1.597656-22.085938-18.492187-39.539063-18.585937-58.332032-.335937-2.707031 2.632812-7.019531 2.566406-9.652344-.136719-2.628906-2.707031-2.5625-7.027344.144532-9.65625 23.996094-23.304688 49.046875-23.414062 76.601562-.335938 2.894532 2.421876 3.273438 6.726563.851563 9.617188-1.347657 1.613281-3.285157 2.445312-5.238281 2.445312zm0 0" fill="#4c241d"/><path d="m323.121094 106.304688c-20.367188-28.378907-47.167969-51.296876-76.523438-62.945313-4.941406 14.964844 3.53125 36.046875 21.886719 51.21875 18.453125 15.25 40.890625 19.5625 54.636719 11.726563zm0 0" fill="#6b4f5b"/><path d="m307.347656 116.917969c-13.953125 0-29.777344-5.972657-43.207031-17.074219-20.066406-16.585938-29.945313-40.691406-24.023437-58.625.585937-1.785156 1.882812-3.25 3.585937-4.042969 1.71875-.800781 3.660156-.855469 5.414063-.164062 29.46875 11.691406 57.71875 34.882812 79.550781 65.3125 1.128906 1.570312 1.535156 3.546875 1.121093 5.4375-.414062 1.890625-1.605468 3.515625-3.285156 4.472656-5.542968 3.15625-12.109375 4.683594-19.15625 4.683594zm-55.3125-63.734375c.324219 11.625 8.179688 25.699218 20.800782 36.132812 12.601562 10.40625 27.851562 15.464844 39.238281 13.648438-17.332031-22.046875-38.210938-39.351563-60.039063-49.78125zm0 0" fill="#4c241d"/><path d="m86.667969 106.304688c20.367187-28.378907 47.171875-51.296876 76.523437-62.945313 4.945313 14.964844-3.527344 36.046875-21.886718 51.21875-18.453126 15.25-40.886719 19.5625-54.636719 11.726563zm0 0" fill="#6b4f5b"/><path d="m102.4375 116.914062c-7.042969 0-13.617188-1.523437-19.148438-4.679687-1.679687-.957031-2.875-2.585937-3.289062-4.472656-.410156-1.890625-.003906-3.867188 1.121094-5.4375 21.839844-30.429688 50.09375-53.625 79.558594-65.3125 1.742187-.691407 3.695312-.636719 5.40625.164062 1.703124.792969 3.003906 2.257813 3.589843 4.042969 5.917969 17.933594-3.960937 42.039062-24.027343 58.625-13.433594 11.097656-29.261719 17.070312-43.210938 17.070312zm-4.722656-13.949218c11.441406 1.8125 26.644531-3.246094 39.238281-13.648438 12.621094-10.433594 20.476563-24.507812 20.800781-36.132812-21.824218 10.425781-42.699218 27.730468-60.039062 49.78125zm0 0" fill="#4c241d"/></svg>