<svg height="420pt" viewBox="-6 0 420 420.9107" width="420pt" xmlns="http://www.w3.org/2000/svg"><path d="m334.960938 240.003906c0 84.832032-68.769532 153.601563-153.597657 153.601563-84.832031 0-153.601562-68.769531-153.601562-153.601563 0-84.832031 68.769531-153.601562 153.601562-153.601562 84.828125 0 153.597657 68.769531 153.597657 153.601562zm0 0" fill="#c1dbdc"/><g fill="#4c241d"><path d="m55.070312 59.097656c-3.773437 0-6.828124-3.054687-6.828124-6.828125v-20.480469c0-3.773437 3.054687-6.824218 6.828124-6.824218 3.769532 0 6.824219 3.050781 6.824219 6.824218v20.480469c0 3.773438-3.054687 6.828125-6.824219 6.828125zm0 0"/><path d="m55.070312 106.882812c-3.773437 0-6.828124-3.050781-6.828124-6.824218v-20.480469c0-3.773437 3.054687-6.828125 6.828124-6.828125 3.769532 0 6.824219 3.054688 6.824219 6.828125v20.480469c0 3.773437-3.054687 6.824218-6.824219 6.824218zm0 0"/><path d="m41.414062 72.75h-20.480468c-3.769532 0-6.824219-3.050781-6.824219-6.824219 0-3.773437 3.054687-6.828125 6.824219-6.828125h20.480468c3.769532 0 6.828126 3.054688 6.828126 6.828125 0 3.773438-3.058594 6.824219-6.828126 6.824219zm0 0"/><path d="m89.203125 72.75h-20.480469c-3.769531 0-6.828125-3.050781-6.828125-6.824219 0-3.773437 3.058594-6.828125 6.828125-6.828125h20.480469c3.769531 0 6.824219 3.054688 6.824219 6.828125 0 3.773438-3.054688 6.824219-6.824219 6.824219zm0 0"/></g><path d="m102.855469 236.589844c0 26.394531-21.394531 47.789062-47.785157 47.789062-26.394531 0-47.789062-21.394531-47.789062-47.789062 0-26.390625 21.394531-47.785156 47.789062-47.785156 26.390626 0 47.785157 21.394531 47.785157 47.785156zm0 0" fill="#a9ba5a"/><path d="m55.070312 291.203125c-30.117187 0-54.613281-24.5-54.613281-54.613281 0-30.113282 24.496094-54.613282 54.613281-54.613282 30.113282 0 54.613282 24.5 54.613282 54.613282 0 30.113281-24.503906 54.613281-54.613282 54.613281zm0-95.574219c-22.585937 0-40.960937 18.375-40.960937 40.960938 0 22.585937 18.375 40.960937 40.960937 40.960937 22.585938 0 40.957032-18.375 40.957032-40.960937 0-22.585938-18.371094-40.960938-40.957032-40.960938zm0 0" fill="#4c241d"/><path d="m388.253906 114.863281c-11.609375 0-21.054687-9.445312-21.054687-21.050781 0-11.617188 9.445312-21.0625 21.054687-21.0625s21.058594 9.445312 21.058594 21.0625c0 11.605469-9.449219 21.050781-21.058594 21.050781zm0-28.460937c-4.082031 0-7.402344 3.320312-7.402344 7.410156 0 4.078125 3.320313 7.398438 7.402344 7.398438 4.085938 0 7.402344-3.320313 7.402344-7.398438 0-4.089844-3.316406-7.410156-7.402344-7.410156zm0 0" fill="#4c241d"/><path d="m22.6875 166.484375c-1.746094 0-3.492188-.667969-4.824219-2-2.667969-2.667969-2.667969-6.988281 0-9.652344l20.125-20.121093c2.664063-2.664063 6.988281-2.664063 9.652344 0 2.667969 2.667968 2.667969 6.988281 0 9.652343l-20.125 20.121094c-1.332031 1.332031-3.078125 2-4.828125 2zm0 0" fill="#4c241d"/><path d="m150.640625 304.855469c0 26.394531-21.394531 47.789062-47.785156 47.789062s-47.785157-21.394531-47.785157-47.789062c0-26.390625 21.394532-47.785157 47.785157-47.785157s47.785156 21.394532 47.785156 47.785157zm0 0" fill="#a9ba5a"/><path d="m102.855469 359.46875c-30.113281 0-54.613281-24.496094-54.613281-54.613281 0-30.113281 24.5-54.613281 54.613281-54.613281s54.613281 24.5 54.613281 54.613281c0 30.117187-24.5 54.613281-54.613281 54.613281zm0-95.570312c-22.585938 0-40.960938 18.371093-40.960938 40.957031 0 22.589843 18.375 40.960937 40.960938 40.960937 22.585937 0 40.960937-18.371094 40.960937-40.960937 0-22.585938-18.375-40.957031-40.960937-40.957031zm0 0" fill="#4c241d"/><path d="m177.949219 216.109375c0 26.394531-21.394531 47.789063-47.789063 47.789063-26.390625 0-47.785156-21.394532-47.785156-47.789063 0-26.390625 21.394531-47.785156 47.785156-47.785156 26.394532 0 47.789063 21.394531 47.789063 47.785156zm0 0" fill="#a9ba5a"/><path d="m130.160156 270.722656c-30.113281 0-54.613281-24.496094-54.613281-54.613281 0-30.113281 24.5-54.613281 54.613281-54.613281 30.117188 0 54.613282 24.5 54.613282 54.613281 0 30.117187-24.5 54.613281-54.613282 54.613281zm0-95.570312c-22.585937 0-40.957031 18.371094-40.957031 40.957031s18.371094 40.960937 40.957031 40.960937c22.585938 0 40.960938-18.375 40.960938-40.960937s-18.375-40.957031-40.960938-40.957031zm0 0" fill="#4c241d"/><path d="m333.632812 414.085938h37.003907c14.230469 0 25.761719-11.535157 25.761719-25.765626v-30.933593c-12.671876-.277344-27.988282 5.84375-41.019532 17.597656-13.070312 11.78125-20.75 26.441406-21.746094 39.101563zm0 0" fill="#ffce56"/><path d="m370.636719 420.910156h-37.003907c-1.902343 0-3.71875-.792968-5.011718-2.191406-1.292969-1.394531-1.941406-3.269531-1.792969-5.167969 1.164063-14.839843 10.128906-31.152343 23.980469-43.644531 13.792968-12.441406 30.832031-19.789062 45.738281-19.347656 3.714844.082031 6.679687 3.113281 6.679687 6.828125v30.9375c.003907 17.964843-14.617187 32.585937-32.589843 32.585937zm-28.808594-13.652344h28.808594c10.445312 0 18.9375-8.496093 18.9375-18.933593v-23.605469c-9.8125 1.625-20.472657 7.085938-29.621094 15.332031-8.945313 8.058594-15.375 17.820313-18.125 27.207031zm0 0" fill="#4c241d"/><path d="m326.164062 141.015625h-38.988281v-30.476563l73.890625-73.890624c6.3125-6.3125 7.523438-16.605469 1.871094-23.515626-6.503906-7.949218-18.242188-8.382812-25.320312-1.308593l-67.507813 67.507812-66.824219-66.820312c-6.3125-6.3125-16.605468-7.519531-23.515625-1.867188-7.945312 6.5-8.382812 18.238281-1.308593 25.316407l74.578124 74.578124v30.476563h-45.8125c-38.792968 0-70.238281 31.449219-70.238281 70.238281v177.066406c0 14.230469 11.53125 25.765626 25.761719 25.765626h170.882812c.996094-12.660157 8.675782-27.320313 21.746094-39.105469 13.03125-11.75 28.347656-17.875 41.019532-17.59375v-146.132813c.003906-38.789062-31.445313-70.238281-70.234376-70.238281zm0 0" fill="#bf7e68"/><path d="m333.632812 420.910156h-170.882812c-17.96875 0-32.589844-14.617187-32.589844-32.585937v-177.066407c0-42.492187 34.570313-77.066406 77.0625-77.066406h38.992188v-20.828125l-72.582032-72.574219c-4.765624-4.773437-7.304687-11.367187-6.964843-18.097656.335937-6.726562 3.535156-13.042968 8.777343-17.332031 9.355469-7.648437 23.707032-6.636719 32.667969 2.324219l61.996094 62 62.683594-62.6875c4.761719-4.773438 11.382812-7.3125 18.09375-6.964844 6.726562.332031 13.046875 3.53125 17.332031 8.78125 7.65625 9.359375 6.636719 23.707031-2.324219 32.667969l-71.890625 71.886719v20.824218h32.164063c42.492187 0 77.0625 34.574219 77.0625 77.066406v146.128907c0 1.832031-.742188 3.589843-2.054688 4.878906-1.3125 1.277344-3.113281 1.90625-4.917969 1.945313-11.515624-.4375-25.03125 5.667968-36.304687 15.839843-11.320313 10.203125-18.613281 23.128907-19.507813 34.566407-.28125 3.550781-3.246093 6.292968-6.8125 6.292968zm-126.40625-273.066406c-34.964843 0-63.410156 28.445312-63.410156 63.414062v177.066407c0 10.4375 8.492188 18.933593 18.9375 18.933593h165.011719c2.832031-13.035156 11.128906-26.605468 23.046875-37.355468 11.679688-10.527344 25.722656-17.316406 38.765625-18.964844v-139.679688c0-34.96875-28.449219-63.414062-63.410156-63.414062h-38.992188c-3.769531 0-6.824219-3.054688-6.824219-6.828125v-30.480469c0-1.8125.71875-3.546875 2-4.824218l73.890626-73.886719c4.058593-4.0625 4.679687-10.375 1.410156-14.375-1.878906-2.292969-4.519532-3.640625-7.449219-3.785157-2.890625-.140624-5.710937.945313-7.753906 2.984376l-67.511719 67.515624c-2.5625 2.558594-7.09375 2.558594-9.652344 0l-66.824218-66.828124c-4.0625-4.058594-10.375-4.683594-14.367188-1.40625-2.296875 1.875-3.644531 4.519531-3.789062 7.441406-.144532 2.890625.945312 5.71875 2.988281 7.765625l74.578125 74.574219c1.277344 1.277343 2 3.011718 2 4.824218v30.480469c0 3.773437-3.058594 6.828125-6.828125 6.828125zm0 0" fill="#4c241d"/><path d="m42.816406 166.484375c-1.746094 0-3.496094-.667969-4.828125-2l-20.125-20.121094c-2.667969-2.664062-2.667969-6.984375 0-9.652343 2.660157-2.664063 6.984375-2.664063 9.652344 0l20.125 20.121093c2.667969 2.664063 2.667969 6.984375 0 9.652344-1.328125 1.332031-3.078125 2-4.824219 2zm0 0" fill="#4c241d"/><path d="m266.695312 338.992188c-39.457031 0-81.921874-9.613282-81.921874-30.722657 0-3.773437 3.058593-6.824219 6.828124-6.824219 3.769532 0 6.828126 3.050782 6.828126 6.824219 0 5.109375 23.226562 17.066407 68.265624 17.066407 45.039063 0 68.265626-11.957032 68.265626-17.066407 0-3.773437 3.058593-6.824219 6.828124-6.824219 3.769532 0 6.828126 3.050782 6.828126 6.824219 0 21.109375-42.464844 30.722657-81.921876 30.722657zm0 0" fill="#4c241d"/><path d="m341.789062 240.003906c0-13.195312-6.113281-23.894531-13.652343-23.894531-7.542969 0-13.65625 10.699219-13.65625 23.894531 0 13.195313 6.113281 23.894532 13.65625 23.894532 7.539062 0 13.652343-10.699219 13.652343-23.894532zm0 0" fill="#6b4f5b"/><path d="m328.136719 270.722656c-11.679688 0-20.480469-13.203125-20.480469-30.71875s8.800781-30.71875 20.480469-30.71875c11.675781 0 20.480469 13.203125 20.480469 30.71875s-8.804688 30.71875-20.480469 30.71875zm0-47.785156c-1.980469 0-6.828125 5.980469-6.828125 17.066406 0 11.085938 4.847656 17.066406 6.828125 17.066406 1.976562 0 6.824219-5.980468 6.824219-17.066406 0-11.085937-4.847657-17.066406-6.824219-17.066406zm0 0" fill="#4c241d"/><path d="m218.910156 240.003906c0-13.195312-6.113281-23.894531-13.65625-23.894531-7.539062 0-13.652344 10.699219-13.652344 23.894531 0 13.195313 6.113282 23.894532 13.652344 23.894532 7.542969 0 13.65625-10.699219 13.65625-23.894532zm0 0" fill="#6b4f5b"/><path d="m205.253906 270.722656c-11.675781 0-20.480468-13.203125-20.480468-30.71875s8.804687-30.71875 20.480468-30.71875c11.679688 0 20.480469 13.203125 20.480469 30.71875s-8.800781 30.71875-20.480469 30.71875zm0-47.785156c-1.976562 0-6.824218 5.980469-6.824218 17.066406 0 11.085938 4.847656 17.066406 6.824218 17.066406 1.980469 0 6.828125-5.980468 6.828125-17.066406 0-11.085937-4.847656-17.066406-6.828125-17.066406zm0 0" fill="#4c241d"/><path d="m348.617188 226.351562c0 5.65625-4.585938 10.238282-10.242188 10.238282s-10.238281-4.582032-10.238281-10.238282 4.582031-10.242187 10.238281-10.242187 10.242188 4.585937 10.242188 10.242187zm0 0" fill="#fff"/><path d="m198.429688 226.351562c0 5.65625-4.585938 10.238282-10.242188 10.238282-5.652344 0-10.238281-4.582032-10.238281-10.238282s4.585937-10.242187 10.238281-10.242187c5.65625 0 10.242188 4.585937 10.242188 10.242187zm0 0" fill="#fff"/></svg>