<?xml version="1.0" encoding="iso-8859-1"?>
<!-- Generator: Adobe Illustrator 22.1.0, SVG Export Plug-In . SVG Version: 6.00 Build 0)  -->
<svg xmlns="http://www.w3.org/2000/svg" xmlns:xlink="http://www.w3.org/1999/xlink" version="1.1" id="Layer_3" x="0px" y="0px" viewBox="0 0 64 64" style="enable-background:new 0 0 64 64;" xml:space="preserve" width="512" height="512">
<g>
	<g>
		<path style="fill:#2C67BA;" d="M12.259,29.429l-4.453,9.796C7.275,40.395,7,41.665,7,42.949v0.234    c0,3.009,1.504,5.819,4.008,7.488l2.555,1.704"/>
	</g>
	<g>
		<path style="fill:#2C67BA;" d="M51.741,29.429l4.453,9.796C56.725,40.395,57,41.665,57,42.949v0.234    c0,3.009-1.504,5.819-4.008,7.488l-2.555,1.704"/>
	</g>
	<g>
		<path style="fill:#E58231;" d="M28,12l2.713-9.042C30.883,2.389,31.406,2,32,2h0c0.594,0,1.117,0.389,1.287,0.958L36,12"/>
	</g>
	<g>
		<path style="fill:#E58231;" d="M24,14l-8.597-6.686C15.142,7.11,14.82,7,14.489,7h0C13.667,7,13,7.667,13,8.489v0.224    c0,0.189,0.036,0.377,0.107,0.553L17,19"/>
	</g>
	<g>
		<path style="fill:#E58231;" d="M40,14l8.597-6.686C48.858,7.11,49.18,7,49.511,7h0C50.333,7,51,7.667,51,8.489v0.224    c0,0.189-0.036,0.377-0.107,0.553L47,19"/>
	</g>
	<g>
		<path style="fill:#4496EC;" d="M48,62l0.151-0.565C50.706,51.852,52,41.978,52,32.061V32l-0.209-2.089    C50.774,19.743,42.218,12,32,12h0c-10.218,0-18.774,7.743-19.791,17.911L12,32v0.061c0,9.917,1.294,19.791,3.849,29.374L16,62h1    l1.293-1.293C18.746,60.254,19.36,60,20,60h0c0.64,0,1.254,0.254,1.707,0.707l0.586,0.586C22.746,61.746,23.36,62,24,62h0    c0.64,0,1.254-0.254,1.707-0.707l0.586-0.586C26.746,60.254,27.36,60,28,60h0c0.64,0,1.254,0.254,1.707,0.707l0.586,0.586    C30.746,61.746,31.36,62,32,62h0c0.64,0,1.254-0.254,1.707-0.707l0.586-0.586C34.746,60.254,35.36,60,36,60l0,0    c0.64,0,1.254,0.254,1.707,0.707l0.586,0.586C38.746,61.746,39.36,62,40,62l0,0c0.64,0,1.254-0.254,1.707-0.707l0.586-0.586    C42.746,60.254,43.36,60,44,60l0,0c0.64,0,1.254,0.254,1.707,0.707L47,62H48z"/>
	</g>
	<g>
		<path style="fill:#39474E;" d="M32,56L32,56c-8.284,0-15-6.716-15-15v-1h30v1C47,49.284,40.284,56,32,56z"/>
	</g>
	<g>
		<path style="fill:#B63830;" d="M21.702,51.887C24.39,54.43,28.008,56,32,56s7.61-1.57,10.298-4.113C40.731,49.616,36.712,48,32,48    S23.269,49.616,21.702,51.887z"/>
	</g>
	<g>
		<polyline style="fill:#FFFFFF;" points="20,40 25,46 27,40   "/>
	</g>
	<g>
		<polyline style="fill:#FFFFFF;" points="44,40 39,46 37,40   "/>
	</g>
	<g>
		<circle style="fill:#FFFFFF;" cx="24" cy="30" r="5"/>
	</g>
	<g>
		<circle style="fill:#FFFFFF;" cx="40" cy="30" r="5"/>
	</g>
	<g>
		<circle style="fill:#39474E;" cx="24" cy="32" r="3"/>
	</g>
	<g>
		<circle style="fill:#39474E;" cx="40" cy="32" r="3"/>
	</g>
	<g>
		<path d="M48,63h-1c-0.266,0-0.52-0.105-0.707-0.293L45,61.414c-0.535-0.534-1.465-0.535-2,0L42.414,62    c-1.291,1.29-3.537,1.29-4.828,0L37,61.414c-0.535-0.534-1.465-0.535-2,0L34.414,62c-1.291,1.29-3.537,1.29-4.828,0L29,61.414    c-0.535-0.534-1.465-0.535-2,0L26.414,62c-1.291,1.29-3.537,1.29-4.828,0L21,61.414c-0.535-0.534-1.465-0.535-2,0l-1.293,1.292    C17.52,62.895,17.266,63,17,63h-1c-0.453,0-0.85-0.305-0.967-0.743l-0.15-0.565C12.307,52.031,11,42.062,11,32.061    c0-0.033,0.002-0.127,0.005-0.161l0.209-2.089C12.286,19.087,21.223,11,32,11s19.714,8.087,20.786,18.811l0.209,2.089    C52.998,31.934,53,32.028,53,32.061c0,10-1.307,19.97-3.884,29.631l-0.149,0.564C48.85,62.695,48.453,63,48,63z M36,59    c0.911,0,1.769,0.355,2.414,1L39,60.586c0.535,0.534,1.465,0.535,2,0L41.586,60c1.291-1.29,3.537-1.29,4.828,0l0.855,0.855    C49.745,51.462,51,41.777,51,32.061l-0.204-2.051C49.826,20.313,41.746,13,32,13s-17.826,7.313-18.796,17.01L12.995,32.1    c0.005,9.677,1.26,19.363,3.735,28.756L17.586,60c1.291-1.29,3.537-1.29,4.828,0L23,60.586c0.535,0.534,1.465,0.535,2,0L25.586,60    c1.291-1.29,3.537-1.29,4.828,0L31,60.586c0.535,0.534,1.465,0.535,2,0L33.586,60C34.231,59.355,35.089,59,36,59z"/>
	</g>
	<g>
		<path d="M24,36c-3.309,0-6-2.691-6-6s2.691-6,6-6s6,2.691,6,6S27.309,36,24,36z M24,26c-2.206,0-4,1.794-4,4s1.794,4,4,4    s4-1.794,4-4S26.206,26,24,26z"/>
	</g>
	<g>
		<path d="M24,36c-2.206,0-4-1.794-4-4s1.794-4,4-4s4,1.794,4,4S26.206,36,24,36z M24,30c-1.103,0-2,0.897-2,2s0.897,2,2,2    s2-0.897,2-2S25.103,30,24,30z"/>
	</g>
	<g>
		<path d="M40,36c-3.309,0-6-2.691-6-6s2.691-6,6-6s6,2.691,6,6S43.309,36,40,36z M40,26c-2.206,0-4,1.794-4,4s1.794,4,4,4    s4-1.794,4-4S42.206,26,40,26z"/>
	</g>
	<g>
		<path d="M40,36c-2.206,0-4-1.794-4-4s1.794-4,4-4s4,1.794,4,4S42.206,36,40,36z M40,30c-1.103,0-2,0.897-2,2s0.897,2,2,2    s2-0.897,2-2S41.103,30,40,30z"/>
	</g>
	<g>
		<path d="M32,57c-8.822,0-16-7.178-16-16v-1c0-0.552,0.447-1,1-1h30c0.553,0,1,0.448,1,1v1C48,49.822,40.822,57,32,57z M18,41    c0,7.72,6.28,14,14,14s14-6.28,14-14H18z"/>
	</g>
	<g>
		<path d="M41.481,52.464C40.062,50.392,36.251,49,32,49s-8.062,1.392-9.481,3.464l-1.65-1.131C22.674,48.701,27.043,47,32,47    s9.326,1.701,11.132,4.333L41.481,52.464z"/>
	</g>
	<g>
		<path d="M25,47c-0.294,0-0.576-0.129-0.769-0.36l-5-6l1.537-1.28l3.851,4.621l1.433-4.297l1.896,0.633l-2,6    c-0.114,0.344-0.406,0.599-0.763,0.666C25.124,46.994,25.062,47,25,47z"/>
	</g>
	<g>
		<path d="M39,47c-0.062,0-0.124-0.006-0.186-0.018c-0.356-0.067-0.648-0.322-0.763-0.666l-2-6l1.896-0.633l1.433,4.297l3.851-4.621    l1.537,1.28l-5,6C39.576,46.871,39.294,47,39,47z"/>
	</g>
	<g>
		<path d="M35.042,12.288l-2.713-9.042c-0.088-0.295-0.57-0.293-0.658-0.001l-2.713,9.043l-1.916-0.575l2.713-9.042    C30.049,1.688,30.972,1,32,1s1.951,0.688,2.245,1.672l2.713,9.041L35.042,12.288z"/>
	</g>
	<g>
		<path d="M16.071,19.372l-3.894-9.734C12.06,9.342,12,9.031,12,8.713V8.489C12,7.117,13.116,6,14.489,6    c0.55,0,1.092,0.186,1.527,0.523l8.598,6.687l-1.229,1.579l-8.597-6.687C14.493,7.872,14.001,8.111,14,8.489v0.224    c0,0.062,0.012,0.124,0.035,0.181l3.894,9.734L16.071,19.372z"/>
	</g>
	<g>
		<path d="M47.929,19.372l-1.857-0.743l3.894-9.734C49.988,8.837,50,8.776,50,8.713V8.489c0-0.379-0.49-0.619-0.79-0.386    l-8.596,6.686l-1.229-1.579l8.597-6.687C48.419,6.186,48.961,6,49.511,6C50.884,6,52,7.117,52,8.489v0.224    c0,0.318-0.06,0.629-0.178,0.924L47.929,19.372z"/>
	</g>
	<g>
		<rect x="29" y="7" width="6" height="2"/>
	</g>
	<g>
		<rect x="14.172" y="11" transform="matrix(0.7071 -0.7071 0.7071 0.7071 -3.5061 15.5355)" width="5.657" height="2"/>
	</g>
	<g>
		<rect x="46" y="9.172" transform="matrix(0.7071 -0.7071 0.7071 0.7071 5.2807 36.7487)" width="2" height="5.657"/>
	</g>
	<g>
		<path d="M13.009,53.208l-2.556-1.704C7.665,49.645,6,46.534,6,43.183V42.95c0-1.437,0.302-2.829,0.896-4.138l4.453-9.796    l1.82,0.828l-4.453,9.796C8.241,40.687,8,41.801,8,42.95v0.233c0,2.681,1.332,5.169,3.562,6.657l2.556,1.704L13.009,53.208z"/>
	</g>
	<g>
		<path d="M50.991,53.208l-1.109-1.664l2.556-1.704C54.668,48.353,56,45.864,56,43.183V42.95c0-1.149-0.241-2.263-0.717-3.311    l-4.453-9.795l1.82-0.828l4.453,9.796C57.698,40.121,58,41.513,58,42.95v0.233c0,3.351-1.665,6.462-4.453,8.321L50.991,53.208z"/>
	</g>
</g>
</svg>
