<?xml version="1.0" encoding="iso-8859-1"?>
<!-- Generator: Adobe Illustrator 22.1.0, SVG Export Plug-In . SVG Version: 6.00 Build 0)  -->
<svg xmlns="http://www.w3.org/2000/svg" xmlns:xlink="http://www.w3.org/1999/xlink" version="1.1" id="Layer_3" x="0px" y="0px" viewBox="0 0 64 64" style="enable-background:new 0 0 64 64;" xml:space="preserve" width="512" height="512">
<g>
	<g>
		<polyline style="fill:#B63830;" points="14,19 8,12 11,10 20,17   "/>
	</g>
	<g>
		<polyline style="fill:#B63830;" points="50,19 56,12 53,10 44,17   "/>
	</g>
	<g>
		<polyline style="fill:#B63830;" points="19,54 18,46 22.247,39.73 26,41 22,47 23.051,55.409   "/>
	</g>
	<g>
		<polyline style="fill:#B63830;" points="45,54 46,46 41.753,39.73 38,41 42,47 40.949,55.409   "/>
	</g>
	<g>
		<path style="fill:#F29C37;" d="M52,25c0,8.837-8.954,17-20,17s-20-8.163-20-17s8.954-9,20-9S52,16.163,52,25z"/>
	</g>
	<g>
		<circle style="fill:#FFFFFF;" cx="32" cy="25" r="6"/>
	</g>
	<g>
		<circle style="fill:#39474E;" cx="32" cy="25" r="2"/>
	</g>
	<g>
		<path style="fill:#B63830;" d="M12.345,22.28C12.863,22.099,13.42,22,14,22c2.761,0,5,2.239,5,5s-2.239,5-5,5    c-0.034,0-0.068,0-0.102-0.001"/>
	</g>
	<g>
		<path style="fill:#B63830;" d="M18.001,36.936C18.035,35.309,19.365,34,21,34c1.657,0,3,1.343,3,3c0,1.212-0.719,2.256-1.753,2.73    "/>
	</g>
	<g>
		<path style="fill:#B63830;" d="M51.655,22.28C51.137,22.099,50.58,22,50,22c-2.761,0-5,2.239-5,5s2.239,5,5,5    c0.034,0,0.068,0,0.102-0.001"/>
	</g>
	<g>
		<path style="fill:#B63830;" d="M46,37c0-1.657-1.343-3-3-3s-3,1.343-3,3c0,1.212,0.719,2.256,1.753,2.73"/>
	</g>
	<g>
		<circle style="fill:#D73964;" cx="7" cy="7" r="5"/>
	</g>
	<g>
		<circle style="fill:#D73964;" cx="57" cy="7" r="5"/>
	</g>
	<g>
		<path style="fill:#D73964;" d="M25,59c0,2.485-2.686,3-6,3s-6-0.515-6-3s2.686-5,6-5S25,56.515,25,59z"/>
	</g>
	<g>
		<path style="fill:#D73964;" d="M39,59c0,2.485,2.686,3,6,3s6-0.515,6-3s-2.686-5-6-5S39,56.515,39,59z"/>
	</g>
	<g>
		<path d="M32,43c-11.187,0-21-8.411-21-18c0-10,10.2-10,21-10s21,0,21,10C53,34.589,43.187,43,32,43z M32,17    c-11.78,0-19,0.387-19,8c0,8.523,8.879,16,19,16s19-7.477,19-16C51,17.387,43.78,17,32,17z"/>
	</g>
	<g>
		<path d="M7,13c-3.309,0-6-2.691-6-6s2.691-6,6-6s6,2.691,6,6S10.309,13,7,13z M7,3C4.794,3,3,4.794,3,7s1.794,4,4,4s4-1.794,4-4    S9.206,3,7,3z"/>
	</g>
	<g>
		<rect x="14.5" y="7.799" transform="matrix(0.6139 -0.7894 0.7894 0.6139 -4.6723 17.4468)" width="2" height="11.402"/>
	</g>
	<g>
		<rect x="10.001" y="10.89" transform="matrix(0.7593 -0.6508 0.6508 0.7593 -7.4391 10.8902)" width="1.999" height="9.22"/>
	</g>
	<g>
		<path d="M57,13c-3.309,0-6-2.691-6-6s2.691-6,6-6s6,2.691,6,6S60.309,13,57,13z M57,3c-2.206,0-4,1.794-4,4s1.794,4,4,4    s4-1.794,4-4S59.206,3,57,3z"/>
	</g>
	<g>
		<rect x="42.799" y="12.5" transform="matrix(0.7891 -0.6143 0.6143 0.7891 1.9364 32.6398)" width="11.402" height="2"/>
	</g>
	<g>
		<rect x="48.39" y="14.501" transform="matrix(0.6508 -0.7593 0.7593 0.6508 6.7396 45.6533)" width="9.22" height="1.999"/>
	</g>
	<g>
		<path d="M32,32c-3.859,0-7-3.141-7-7s3.141-7,7-7s7,3.141,7,7S35.859,32,32,32z M32,20c-2.757,0-5,2.243-5,5s2.243,5,5,5    s5-2.243,5-5S34.757,20,32,20z"/>
	</g>
	<g>
		<path d="M32,28c-1.654,0-3-1.346-3-3s1.346-3,3-3v2c-0.552,0-1,0.448-1,1s0.448,1,1,1s1-0.448,1-1h2C35,26.654,33.654,28,32,28z"/>
	</g>
	<g>
		<rect x="26" y="35" width="12" height="2"/>
	</g>
	<g>
		<path d="M14,33l-0.13-0.001l0.057-2c0.001,0,0.001,0,0.001,0C16.206,30.999,18,29.205,18,27c0-2.206-1.794-4-4-4    c-0.455,0-0.899,0.075-1.323,0.224l-0.662-1.887C12.651,21.113,13.319,21,14,21c3.309,0,6,2.691,6,6S17.309,33,14,33z"/>
	</g>
	<g>
		<path d="M22.662,40.639L21.83,38.82C22.541,38.495,23,37.78,23,37c0-1.103-0.897-2-2-2c-1.08,0-1.977,0.878-1.999,1.957l-2-0.041    C17.047,34.757,18.841,33,21,33c2.206,0,4,1.794,4,4C25,38.561,24.082,39.989,22.662,40.639z"/>
	</g>
	<g>
		<path d="M50,33c-3.309,0-6-2.691-6-6s2.691-6,6-6c0.681,0,1.349,0.113,1.985,0.337l-0.662,1.887C50.899,23.075,50.455,23,50,23    c-2.206,0-4,1.794-4,4s1.794,4,4,4l0.13,1.999L50,33z"/>
	</g>
	<g>
		<path d="M41.337,40.639C39.917,39.988,39,38.561,39,37c0-2.206,1.794-4,4-4s4,1.794,4,4h-2c0-1.103-0.897-2-2-2s-2,0.897-2,2    c0,0.78,0.459,1.495,1.169,1.82L41.337,40.639z"/>
	</g>
	<g>
		<path d="M19,63c-1.914,0-7,0-7-4c0-3.196,3.271-6,7-6s7,2.804,7,6C26,63,20.914,63,19,63z M19,55c-2.815,0-5,2.15-5,4    c0,0.989,0.594,2,5,2s5-1.011,5-2C24,57.15,21.815,55,19,55z"/>
	</g>
	<g>
		<path d="M22.059,55.533l-1.051-8.409c-0.03-0.238,0.027-0.479,0.16-0.679l4-6l1.664,1.109l-3.794,5.69l1.005,8.04L22.059,55.533z"/>
	</g>
	<g>
		<path d="M18.008,54.124l-1-8c-0.03-0.24,0.028-0.484,0.164-0.685l4.246-6.271l1.656,1.121l-4.035,5.959l0.953,7.627L18.008,54.124    z"/>
	</g>
	<g>
		<path d="M45,63c-1.914,0-7,0-7-4c0-3.196,3.271-6,7-6s7,2.804,7,6C52,63,46.914,63,45,63z M45,55c-2.815,0-5,2.15-5,4    c0,0.989,0.594,2,5,2s5-1.011,5-2C50,57.15,47.815,55,45,55z"/>
	</g>
	<g>
		<path d="M41.941,55.533l-1.984-0.248l1.005-8.04l-3.794-5.69l1.664-1.109l4,6c0.133,0.199,0.19,0.44,0.16,0.679L41.941,55.533z"/>
	</g>
	<g>
		<path d="M45.992,54.124l-1.984-0.248l0.953-7.627l-4.035-5.959l1.656-1.121l4.246,6.271c0.136,0.2,0.194,0.444,0.164,0.685    L45.992,54.124z"/>
	</g>
</g>
</svg>
