<?xml version="1.0" encoding="iso-8859-1"?>
<!-- Generator: Adobe Illustrator 22.1.0, SVG Export Plug-In . SVG Version: 6.00 Build 0)  -->
<svg xmlns="http://www.w3.org/2000/svg" xmlns:xlink="http://www.w3.org/1999/xlink" version="1.1" id="Layer_3" x="0px" y="0px" viewBox="0 0 64 64" style="enable-background:new 0 0 64 64;" xml:space="preserve" width="512" height="512">
<g>
	<g>
		<path style="fill:#C84E29;" d="M20,51l-0.6,0.8C17.842,53.877,17,56.404,17,59v0c0,1.657,2.239,3,5,3s5-1.343,5-3l-0.364-0.364    C24.948,56.948,24,54.659,24,52.272V52"/>
	</g>
	<g>
		<path style="fill:#C84E29;" d="M44,51l0.6,0.8c1.558,2.077,2.4,4.604,2.4,7.2v0c0,1.657-2.239,3-5,3s-5-1.343-5-3l0.364-0.364    C39.052,56.948,40,54.659,40,52.272V52"/>
	</g>
	<g>
		<path style="fill:#C84E29;" d="M36.568,30.508C45.412,32.482,52,39.789,52,45c0,6.075-8.954,7-20,7s-20-0.925-20-7    c0-5.211,6.588-12.518,15.432-14.492"/>
	</g>
	<g>
		<path style="fill:#E58231;" d="M36.568,34.508h-9.135c-7.676,1.713-13.645,7.442-15.09,12.333C14.044,51.261,22.189,52,32,52    s17.956-0.739,19.658-5.159C50.213,41.95,44.244,36.221,36.568,34.508z"/>
	</g>
	<g>
		<polyline style="fill:#FFFFFF;" points="21,41 25,47 27,39   "/>
	</g>
	<g>
		<polyline style="fill:#FFFFFF;" points="43,41 39,47 37,39   "/>
	</g>
	<g>
		<path style="fill:#E58231;" d="M27,31l-6.12-3.825C19.71,26.444,19,25.162,19,23.783v-0.526c0-3.205-2.4-6.035-5.598-6.244    c-3.445-0.224-6.317,2.46-6.4,5.837C6.918,26.262,9.844,29,13.258,29l0.224,0c1.562,0,2.946,0.856,3.624,2.211L19,35"/>
	</g>
	<g>
		<path style="fill:#E58231;" d="M37,31l6.12-3.825c1.17-0.731,1.88-2.013,1.88-3.392v-0.526c0-3.205,2.4-6.035,5.598-6.244    c3.445-0.224,6.317,2.46,6.4,5.837c0.084,3.412-2.843,6.15-6.256,6.15l-0.224,0c-1.562,0-2.946,0.856-3.624,2.211L45,35"/>
	</g>
	<g>
		<path style="fill:#F29C37;" d="M40,36l-3.779-6.046C35.423,28.677,35,27.202,35,25.696v0c0-2.346,1.025-4.574,2.806-6.101    l1.417-1.215C40.986,16.869,42,14.664,42,12.343v0c0-5.326-4.019-9.977-9.334-10.321C26.841,1.645,22,6.257,22,12v0.304    c0,2.346,1.025,4.574,2.806,6.101l1.388,1.19C27.975,21.121,29,23.35,29,25.696v0c0,1.506-0.423,2.982-1.221,4.259L24,36"/>
	</g>
	<g>
		<circle style="fill:#39474E;" cx="32" cy="12" r="5"/>
	</g>
	<g>
		<circle style="fill:#39474E;" cx="13" cy="23" r="2"/>
	</g>
	<g>
		<circle style="fill:#39474E;" cx="51" cy="23" r="2"/>
	</g>
	<g>
		<path d="M39.152,36.53l-3.779-6.046C34.475,29.046,34,27.39,34,25.695c0-2.641,1.15-5.142,3.155-6.859l1.417-1.216    C40.115,16.298,41,14.375,41,12.343c0-4.924-3.689-9.019-8.399-9.323c-2.522-0.172-4.92,0.693-6.754,2.413    C24.011,7.153,23,9.485,23,12v0.305c0,2.057,0.896,4.003,2.457,5.342l1.388,1.188C28.85,20.554,30,23.055,30,25.695    c0,1.694-0.475,3.351-1.373,4.788l-3.779,6.047l-1.696-1.061l3.779-6.046C27.63,28.305,28,27.015,28,25.695    c0-2.057-0.896-4.003-2.457-5.342l-1.388-1.188C22.15,17.446,21,14.945,21,12.305V12c0-3.029,1.268-5.955,3.479-8.027    c2.242-2.101,5.177-3.14,8.251-2.949C38.489,1.396,43,6.368,43,12.343c0,2.616-1.14,5.094-3.126,6.797l-1.417,1.215    C36.896,21.692,36,23.639,36,25.695c0,1.319,0.37,2.609,1.069,3.729l3.779,6.045L39.152,36.53z"/>
	</g>
	<g>
		<path d="M32,18c-3.309,0-6-2.691-6-6h2c0,2.206,1.794,4,4,4s4-1.794,4-4s-1.794-4-4-4V6c3.309,0,6,2.691,6,6S35.309,18,32,18z"/>
	</g>
	<g>
		<path d="M32,53c-10.16,0-21-0.618-21-8c0-5.604,6.659-13.336,16.215-15.468l0.436,1.951C19.399,33.325,13,40.262,13,45    c0,4.262,5.505,6,19,6s19-1.738,19-6c0-4.738-6.399-11.675-14.65-13.517l0.436-1.951C46.341,31.664,53,39.396,53,45    C53,52.382,42.16,53,32,53z"/>
	</g>
	<g>
		<path d="M45.606,42.919l-0.585-0.251c-4.132-1.771-8.506-2.668-13-2.668c-4.536,0-8.91,0.897-13.042,2.668l-0.585,0.251    l-0.788-1.838l0.585-0.251C22.574,38.952,27.213,38,31.979,38c4.808,0,9.447,0.952,13.83,2.83l0.585,0.251L45.606,42.919z"/>
	</g>
	<g>
		<path d="M25,48c-0.331,0-0.645-0.164-0.832-0.445l-4-6l1.664-1.109l2.746,4.119l1.452-5.807l1.94,0.484l-2,8    c-0.096,0.385-0.41,0.676-0.799,0.743C25.114,47.995,25.057,48,25,48z"/>
	</g>
	<g>
		<path d="M39,48c-0.057,0-0.114-0.005-0.171-0.015c-0.39-0.067-0.703-0.358-0.799-0.743l-2-8l1.94-0.484l1.452,5.807l2.746-4.119    l1.664,1.109l-4,6C39.645,47.836,39.331,48,39,48z"/>
	</g>
	<g>
		<path d="M22,63c-3.364,0-6-1.757-6-4c0-2.794,0.923-5.564,2.6-7.8l0.6-0.801l1.6,1.201l-0.6,0.8C18.781,54.292,18,56.636,18,59    c0,0.944,1.71,2,4,2c2.015,0,3.582-0.818,3.928-1.658C24.04,57.454,23,54.943,23,52.272V52h2v0.272    c0,2.137,0.832,4.146,2.343,5.656l0.364,0.364C27.895,58.48,28,58.735,28,59C28,61.243,25.364,63,22,63z"/>
	</g>
	<g>
		<path d="M22.105,62.447l-1.155-2.311C20.329,58.894,20,57.501,20,56.111V56h2v0.111c0,1.081,0.255,2.164,0.739,3.131l1.155,2.311    L22.105,62.447z"/>
	</g>
	<g>
		<path d="M42,63c-3.364,0-6-1.757-6-4c0-0.265,0.105-0.52,0.292-0.707l0.364-0.364C38.168,56.418,39,54.409,39,52.272V52h2v0.272    c0,2.671-1.04,5.182-2.928,7.069C38.418,60.182,39.985,61,42,61c2.29,0,4-1.056,4-2c0-2.364-0.781-4.708-2.2-6.601l-0.6-0.799    l1.6-1.201l0.6,0.8C47.077,53.436,48,56.206,48,59C48,61.243,45.364,63,42,63z"/>
	</g>
	<g>
		<path d="M41.895,62.447l-1.789-0.895l1.155-2.311C41.745,58.275,42,57.192,42,56.111V56h2v0.111c0,1.39-0.329,2.782-0.95,4.025    L41.895,62.447z"/>
	</g>
	<g>
		<path d="M18.105,35.447l-1.895-3.789C15.7,30.636,14.654,30,13.482,30h-0.224c-1.978,0-3.903-0.811-5.282-2.224    c-1.318-1.351-2.019-3.109-1.974-4.951c0.047-1.921,0.855-3.693,2.275-4.992c1.418-1.297,3.254-1.942,5.189-1.818    C17.13,16.254,20,19.436,20,23.257v0.526c0,1.041,0.527,1.992,1.41,2.544l6.12,3.825l-1.06,1.695l-6.12-3.825    C18.878,27.104,18,25.519,18,23.783v-0.526c0-2.771-2.048-5.075-4.664-5.246c-1.376-0.095-2.696,0.372-3.709,1.298    c-1.015,0.928-1.592,2.194-1.626,3.565c-0.032,1.299,0.467,2.544,1.406,3.506c1.004,1.029,2.408,1.62,3.85,1.62h0.224    c1.935,0,3.666,1.059,4.518,2.764l1.895,3.789L18.105,35.447z"/>
	</g>
	<g>
		<path d="M13,26c-1.654,0-3-1.346-3-3s1.346-3,3-3v2c-0.551,0-1,0.448-1,1s0.449,1,1,1s1-0.448,1-1h2C16,24.654,14.654,26,13,26z"/>
	</g>
	<g>
		<path d="M45.895,35.447l-1.789-0.895L46,30.764C46.853,29.059,48.583,28,50.518,28h0.224c1.442,0,2.846-0.591,3.85-1.62    c0.939-0.962,1.438-2.207,1.406-3.506c-0.034-1.371-0.611-2.638-1.626-3.565c-1.013-0.927-2.331-1.394-3.709-1.298    C48.048,18.182,46,20.486,46,23.257v0.526c0,1.735-0.878,3.32-2.35,4.239l-6.12,3.825l-1.06-1.695l6.12-3.825    c0.883-0.552,1.41-1.503,1.41-2.544v-0.526c0-3.821,2.87-7.003,6.533-7.242c1.933-0.118,3.771,0.521,5.189,1.818    c1.42,1.299,2.229,3.071,2.275,4.992c0.045,1.842-0.655,3.601-1.974,4.951C54.646,29.189,52.72,30,50.742,30h-0.224    c-1.172,0-2.218,0.636-2.729,1.658L45.895,35.447z"/>
	</g>
	<g>
		<path d="M51,26c-1.654,0-3-1.346-3-3h2c0,0.552,0.449,1,1,1s1-0.448,1-1s-0.449-1-1-1v-2c1.654,0,3,1.346,3,3S52.654,26,51,26z"/>
	</g>
</g>
</svg>
