<?xml version="1.0" encoding="iso-8859-1"?>
<!-- Generator: Adobe Illustrator 22.1.0, SVG Export Plug-In . SVG Version: 6.00 Build 0)  -->
<svg xmlns="http://www.w3.org/2000/svg" xmlns:xlink="http://www.w3.org/1999/xlink" version="1.1" id="Layer_3" x="0px" y="0px" viewBox="0 0 64 64" style="enable-background:new 0 0 64 64;" xml:space="preserve" width="512" height="512">
<g>
	<g>
		<path style="fill:#429488;" d="M23,58L23,58c-2.209,0-4,1.791-4,4v0h8v0C27,59.791,25.209,58,23,58z"/>
	</g>
	<g>
		<path style="fill:#429488;" d="M41,58L41,58c2.209,0,4,1.791,4,4v0h-8v0C37,59.791,38.791,58,41,58z"/>
	</g>
	<g>
		<polyline style="fill:#429488;" points="17,42 10,42 13,51 18,47   "/>
	</g>
	<g>
		<polyline style="fill:#429488;" points="47,42 54,42 51,51 46,47   "/>
	</g>
	<g>
		<polyline style="fill:#2C665C;" points="23,41 17,42 18,47 23,46   "/>
	</g>
	<g>
		<polyline style="fill:#2C665C;" points="41,41 47,42 46,47 41,46   "/>
	</g>
	<g>
		<path style="fill:#E25341;" d="M41,38v10c0,1.105-0.895,2-2,2H25c-1.105,0-2-0.895-2-2V38"/>
	</g>
	<g>
		<path style="fill:#B63830;" d="M45,38H19c-2.209,0-4-1.791-4-4V16c0-2.209,1.791-4,4-4h26c2.209,0,4,1.791,4,4v18    C49,36.209,47.209,38,45,38z"/>
	</g>
	<g>
		<rect x="25" y="50" style="fill:#B63830;" width="14" height="4"/>
	</g>
	<g>
		<path style="fill:#E25341;" d="M31,12l-1.392-1.741c-1.709-2.136-3.943-3.793-6.483-4.81l0,0C22.445,5.178,22,4.52,22,3.789v0    C22,2.801,22.801,2,23.789,2h0c2.075,0,4.084,0.727,5.678,2.056L33,7l1.14-1.9C35.294,3.177,37.372,2,39.615,2h0    C40.932,2,42,3.068,42,4.385v0c0,0.975-0.594,1.852-1.499,2.215l0,0C38.386,7.445,37,9.493,37,11.77V12"/>
	</g>
	<g>
		<circle style="fill:#FFFFFF;" cx="32" cy="22" r="6"/>
	</g>
	<g>
		<circle style="fill:#39474E;" cx="32" cy="22" r="2"/>
	</g>
	<g>
		<path d="M45,39H19c-2.757,0-5-2.243-5-5V16c0-2.757,2.243-5,5-5h26c2.757,0,5,2.243,5,5v18C50,36.757,47.757,39,45,39z M19,13    c-1.654,0-3,1.346-3,3v18c0,1.654,1.346,3,3,3h26c1.654,0,3-1.346,3-3V16c0-1.654-1.346-3-3-3H19z"/>
	</g>
	<g>
		<path d="M32,29c-3.859,0-7-3.14-7-7s3.141-7,7-7s7,3.14,7,7S35.859,29,32,29z M32,17c-2.757,0-5,2.243-5,5s2.243,5,5,5    s5-2.243,5-5S34.757,17,32,17z"/>
	</g>
	<g>
		<path d="M32,25c-1.654,0-3-1.346-3-3s1.346-3,3-3s3,1.346,3,3S33.654,25,32,25z M32,21c-0.552,0-1,0.449-1,1s0.448,1,1,1    s1-0.449,1-1S32.552,21,32,21z"/>
	</g>
	<g>
		<path d="M32,35c-3.469,0-6.828-1.017-9.715-2.941l-1.84-1.227l1.109-1.664l1.84,1.227C25.951,32.099,28.927,33,32,33    s6.049-0.901,8.605-2.605l1.84-1.227l1.109,1.664l-1.84,1.227C38.828,33.983,35.469,35,32,35z"/>
	</g>
	<g>
		<path d="M30.219,12.625l-1.393-1.741c-1.598-1.998-3.698-3.556-6.073-4.505C21.688,5.952,21,4.936,21,3.789    C21,2.251,22.251,1,23.789,1c2.304,0,4.548,0.812,6.318,2.288l2.636,2.197l0.54-0.899C34.609,2.374,37.036,1,39.615,1    C41.481,1,43,2.519,43,4.385c0,1.392-0.835,2.625-2.128,3.143C39.128,8.226,38,9.891,38,11.771V12h-2v-0.229    c0-2.702,1.621-5.096,4.13-6.1C40.658,5.459,41,4.955,41,4.385C41,3.622,40.379,3,39.615,3c-1.881,0-3.65,1.001-4.617,2.614    l-1.141,1.901c-0.15,0.25-0.402,0.422-0.69,0.471c-0.288,0.05-0.583-0.031-0.808-0.218l-3.533-2.944    C27.415,3.648,25.626,3,23.789,3C23.354,3,23,3.354,23,3.789c0,0.324,0.194,0.612,0.495,0.732    c2.696,1.078,5.079,2.846,6.894,5.114l1.393,1.741L30.219,12.625z"/>
	</g>
	<g>
		<path d="M39,51H25c-1.654,0-3-1.346-3-3V38h2v10c0,0.551,0.448,1,1,1h14c0.552,0,1-0.449,1-1V38h2v10C42,49.654,40.654,51,39,51z"/>
	</g>
	<g>
		<path d="M39,55H25c-0.553,0-1-0.448-1-1v-4c0-0.552,0.447-1,1-1h14c0.553,0,1,0.448,1,1v4C40,54.552,39.553,55,39,55z M26,53h12    v-2H26V53z"/>
	</g>
	<g>
		<path d="M27,63h-8c-0.553,0-1-0.448-1-1c0-2.757,2.243-5,5-5s5,2.243,5,5C28,62.552,27.553,63,27,63z M20.171,61h5.658    c-0.413-1.164-1.525-2-2.829-2S20.584,59.836,20.171,61z"/>
	</g>
	<g>
		<rect x="26" y="54" width="2" height="8"/>
	</g>
	<g>
		<path d="M45,63h-8c-0.553,0-1-0.448-1-1c0-2.757,2.243-5,5-5s5,2.243,5,5C46,62.552,45.553,63,45,63z M38.171,61h5.658    c-0.413-1.164-1.525-2-2.829-2S38.584,59.836,38.171,61z"/>
	</g>
	<g>
		<rect x="36" y="54" width="2" height="8"/>
	</g>
	<g>
		<path d="M17.999,48c-0.467,0-0.885-0.329-0.979-0.804l-1-5c-0.053-0.266,0.004-0.542,0.157-0.764    c0.154-0.223,0.392-0.374,0.659-0.418l6-1l0.328,1.973l-4.98,0.83l0.601,3.007l4.02-0.804l0.393,1.961l-5,1    C18.13,47.994,18.063,48,17.999,48z"/>
	</g>
	<g>
		<path d="M13,52c-0.095,0-0.19-0.014-0.283-0.041c-0.313-0.093-0.562-0.333-0.665-0.643l-3-9c-0.103-0.305-0.051-0.64,0.137-0.901    C9.377,41.154,9.679,41,10,41h7v2h-5.612l2.107,6.323l3.88-3.104l1.25,1.562l-5,4C13.445,51.924,13.225,52,13,52z"/>
	</g>
	<g>
		<path d="M46.001,48c-0.065,0-0.131-0.006-0.197-0.02l-5-1l0.393-1.961l4.02,0.804l0.601-3.007l-4.98-0.83l0.328-1.973l6,1    c0.268,0.044,0.505,0.195,0.659,0.418c0.153,0.223,0.21,0.499,0.157,0.764l-1,5C46.886,47.671,46.468,48,46.001,48z"/>
	</g>
	<g>
		<path d="M51,52c-0.225,0-0.445-0.076-0.625-0.219l-5-4l1.25-1.562l3.88,3.104L52.612,43H47v-2h7c0.321,0,0.623,0.154,0.812,0.416    c0.188,0.261,0.239,0.596,0.137,0.901l-3,9c-0.103,0.31-0.352,0.55-0.665,0.643C51.19,51.986,51.095,52,51,52z"/>
	</g>
</g>
</svg>
