<?xml version="1.0" encoding="iso-8859-1"?>
<!-- Generator: Adobe Illustrator 22.1.0, SVG Export Plug-In . SVG Version: 6.00 Build 0)  -->
<svg xmlns="http://www.w3.org/2000/svg" xmlns:xlink="http://www.w3.org/1999/xlink" version="1.1" id="Layer_3" x="0px" y="0px" viewBox="0 0 64 64" style="enable-background:new 0 0 64 64;" xml:space="preserve" width="512" height="512">
<g>
	<g>
		<path style="fill:#F6C244;" d="M11,16v23.598c0,7.567,1.009,15.101,3,22.402l0,0h10v-4h16v4h10l0,0c1.991-7.301,3-14.834,3-22.402    V16"/>
	</g>
	<g>
		<path style="fill:#39474E;" d="M37,54H27c-5.523,0-10-4.477-10-10v0h30v0C47,49.523,42.523,54,37,54z"/>
	</g>
	<g>
		<circle style="fill:#FFFFFF;" cx="22" cy="34" r="6"/>
	</g>
	<g>
		<circle style="fill:#FFFFFF;" cx="42" cy="34" r="6"/>
	</g>
	<g>
		<polyline style="fill:#FFFFFF;" points="21,44 24,50 27,44   "/>
	</g>
	<g>
		<polyline style="fill:#FFFFFF;" points="37,44 40,50 43,44   "/>
	</g>
	<g>
		<polyline style="fill:#FFFFFF;" points="27,44 25.625,46.75 29,49 32,47 35,49 38.375,46.75 37,44   "/>
	</g>
	<g>
		<circle style="fill:#39474E;" cx="22" cy="33" r="2"/>
	</g>
	<g>
		<circle style="fill:#39474E;" cx="42" cy="33" r="2"/>
	</g>
	<g>
		<path style="fill:#D1D8DB;" d="M11,28c6.627,0,12-5.373,12-12l-0.257-0.059C14.525,14.044,7.268,9.244,2.308,2.423L2,2v4.574    c0,7.956,3.161,15.587,8.787,21.213L11,28z"/>
	</g>
	<g>
		<path style="fill:#D1D8DB;" d="M53,28c-6.627,0-12-5.373-12-12l0.257-0.059c8.218-1.896,15.475-6.697,20.436-13.518L62,2v4.574    c0,7.956-3.161,15.587-8.787,21.213L53,28z"/>
	</g>
	<g>
		<rect x="23" y="15" width="18" height="2"/>
	</g>
	<g>
		<path d="M50,63H40c-0.552,0-1-0.447-1-1v-3H25v3c0,0.553-0.448,1-1,1H14c-0.451,0-0.846-0.302-0.965-0.737    C11.021,54.879,10,47.253,10,39.599V28h2v11.599c0,7.223,0.931,14.418,2.768,21.401H23v-3c0-0.553,0.448-1,1-1h16    c0.552,0,1,0.447,1,1v3h8.232C51.069,54.017,52,46.821,52,39.599V28h2v11.599c0,7.654-1.021,15.28-3.035,22.664    C50.846,62.698,50.451,63,50,63z"/>
	</g>
	<g>
		<path d="M11,29c-0.265,0-0.52-0.105-0.707-0.293l-0.213-0.213C4.225,22.639,1,14.854,1,6.574V2c0-0.433,0.279-0.817,0.691-0.951    c0.411-0.132,0.863,0.013,1.118,0.363l0.308,0.423c4.819,6.625,11.869,11.289,19.852,13.131l0.256,0.059    C23.678,15.13,24,15.534,24,16C24,23.168,18.168,29,11,29z M3,4.935v1.639c0,7.705,2.985,14.952,8.407,20.419    c5.616-0.206,10.17-4.641,10.565-10.208C14.536,14.946,7.895,10.786,3,4.935z"/>
	</g>
	<g>
		<path d="M22,41c-3.86,0-7-3.141-7-7c0-3.86,3.14-7,7-7s7,3.14,7,7C29,37.859,25.86,41,22,41z M22,29c-2.757,0-5,2.243-5,5    s2.243,5,5,5s5-2.243,5-5S24.757,29,22,29z"/>
	</g>
	<g>
		<path d="M22,36c-1.654,0-3-1.346-3-3s1.346-3,3-3s3,1.346,3,3S23.654,36,22,36z M22,32c-0.551,0-1,0.449-1,1c0,0.552,0.449,1,1,1    s1-0.448,1-1C23,32.449,22.551,32,22,32z"/>
	</g>
	<g>
		<path d="M42,41c-3.86,0-7-3.141-7-7c0-3.86,3.14-7,7-7s7,3.14,7,7C49,37.859,45.86,41,42,41z M42,29c-2.757,0-5,2.243-5,5    s2.243,5,5,5s5-2.243,5-5S44.757,29,42,29z"/>
	</g>
	<g>
		<path d="M42,36c-1.654,0-3-1.346-3-3s1.346-3,3-3s3,1.346,3,3S43.654,36,42,36z M42,32c-0.551,0-1,0.449-1,1c0,0.552,0.449,1,1,1    s1-0.448,1-1C43,32.449,42.551,32,42,32z"/>
	</g>
	<g>
		<path d="M37,55H27c-6.065,0-11-4.935-11-11c0-0.553,0.448-1,1-1h30c0.552,0,1,0.447,1,1C48,50.065,43.065,55,37,55z M18.055,45    c0.499,4.494,4.32,8,8.945,8h10c4.625,0,8.446-3.506,8.945-8H18.055z"/>
	</g>
	<g>
		<path d="M24,51c-0.379,0-0.725-0.214-0.895-0.553l-3-6l1.789-0.895L24,47.764l2.105-4.211l1.789,0.895l-3,6    C24.725,50.786,24.379,51,24,51z"/>
	</g>
	<g>
		<path d="M40,51c-0.379,0-0.725-0.214-0.895-0.553l-3-6l1.789-0.895L40,47.764l2.105-4.211l1.789,0.895l-3,6    C40.725,50.786,40.379,51,40,51z"/>
	</g>
	<g>
		<path d="M35,50c-0.193,0-0.387-0.056-0.555-0.168L32,48.202l-2.445,1.63c-0.336,0.225-0.773,0.225-1.109,0l-3-2l1.109-1.664    L29,47.798l2.445-1.63c0.336-0.225,0.773-0.225,1.109,0L35,47.798l2.445-1.63l1.109,1.664l-3,2C35.387,49.944,35.193,50,35,50z"/>
	</g>
	<g>
		<path d="M12.6,22.8l-1.2-1.6c2.471-1.854,4.382-4.348,5.528-7.214l0.144-0.358l1.856,0.743l-0.143,0.357    C17.503,17.936,15.364,20.727,12.6,22.8z"/>
	</g>
	<g>
		<path d="M5.447,20.895l-0.895-1.789l0.775-0.388c1.955-0.977,3.628-2.455,4.84-4.272l1.664,1.109    c-1.405,2.107-3.345,3.819-5.61,4.952L5.447,20.895z"/>
	</g>
	<g>
		<path d="M53,29c-7.168,0-13-5.832-13-13c0-0.466,0.322-0.87,0.776-0.975l0.257-0.059c7.982-1.842,15.032-6.505,19.851-13.131    l0.307-0.423c0.255-0.35,0.708-0.494,1.118-0.363C62.721,1.183,63,1.567,63,2v4.574c0,8.28-3.225,16.065-9.08,21.92l-0.213,0.213    C53.52,28.895,53.265,29,53,29z M42.028,16.785c0.395,5.567,4.949,10.002,10.565,10.208C58.015,21.525,61,14.279,61,6.574V4.935    C56.105,10.787,49.464,14.946,42.028,16.785z"/>
	</g>
	<g>
		<path d="M51.4,22.8c-2.764-2.073-4.903-4.864-6.186-8.071l-0.143-0.357l1.856-0.743l0.143,0.357    c1.146,2.867,3.058,5.361,5.529,7.214L51.4,22.8z"/>
	</g>
	<g>
		<path d="M58.553,20.895l-0.775-0.388c-2.265-1.133-4.205-2.845-5.61-4.952l1.664-1.109c1.212,1.818,2.886,3.295,4.84,4.272    l0.775,0.388L58.553,20.895z"/>
	</g>
</g>
</svg>
