<?xml version="1.0" encoding="iso-8859-1"?>
<!-- Generator: Adobe Illustrator 22.1.0, SVG Export Plug-In . SVG Version: 6.00 Build 0)  -->
<svg xmlns="http://www.w3.org/2000/svg" xmlns:xlink="http://www.w3.org/1999/xlink" version="1.1" id="Layer_3" x="0px" y="0px" viewBox="0 0 64 64" style="enable-background:new 0 0 64 64;" xml:space="preserve" width="512" height="512">
<g>
	<g>
		<path style="fill:#457B3A;" d="M30,50l-1.051,3.154c-0.616,1.847-0.616,3.845,0,5.692L29,59c0,1.657-1.343,3-3,3s-3-1.343-3-3    l0.046-0.228c0.627-3.135,1.997-6.075,3.994-8.572L28,49"/>
	</g>
	<g>
		<path style="fill:#457B3A;" d="M34,50l1.051,3.154c0.616,1.847,0.616,3.845,0,5.692L35,59c0,1.657,1.343,3,3,3s3-1.343,3-3    l-0.046-0.228c-0.627-3.135-1.997-6.075-3.994-8.572L36,49"/>
	</g>
	<g>
		<path style="fill:#457B3A;" d="M26,44l-0.53-0.212C22.517,42.607,19.366,42,16.185,42h-0.013c-2.089,0-3.955,1.527-4.153,3.607    C11.791,47.993,13.661,50,16,50l0,0c2.596-1.947,5.754-3,9-3h1"/>
	</g>
	<g>
		<path style="fill:#457B3A;" d="M38,44l0.53-0.212C41.483,42.607,44.634,42,47.815,42h0.013c2.089,0,3.955,1.527,4.153,3.607    C52.209,47.993,50.339,50,48,50l0,0c-2.596-1.947-5.754-3-9-3h-1"/>
	</g>
	<g>
		<path style="fill:#F6C244;" d="M38,46c0,3.866-2.686,4-6,4s-6-0.134-6-4s2.686-6,6-6S38,42.134,38,46z"/>
	</g>
	<g>
		<path style="fill:#F6C244;" d="M24,15l5.162-11.184C29.673,2.709,30.781,2,32,2h0c1.219,0,2.327,0.709,2.838,1.816L40,15"/>
	</g>
	<g>
		<path style="fill:#67AC5B;" d="M48,30c0,7.732-7.163,10-16,10s-16-2.268-16-10s7.163-18,16-18S48,22.268,48,30z"/>
	</g>
	<g>
		<circle style="fill:#FFFFFF;" cx="32" cy="27" r="8"/>
	</g>
	<g>
		<circle style="fill:#39474E;" cx="32" cy="27" r="4"/>
	</g>
	<g>
		<path d="M32,41c-11.28,0-17-3.701-17-11c0-8.553,7.845-19,17-19s17,10.447,17,19C49,37.299,43.28,41,32,41z M32,13    c-7.938,0-15,9.507-15,17c0,6.056,4.907,9,15,9s15-2.944,15-9C47,22.507,39.938,13,32,13z"/>
	</g>
	<g>
		<path d="M39.092,15.419L33.93,4.234C33.584,3.484,32.826,3,32,3s-1.584,0.484-1.93,1.234l-5.162,11.185l-1.816-0.838l5.162-11.185    C28.926,1.94,30.396,1,32,1s3.074,0.94,3.746,2.396l5.163,11.185L39.092,15.419z"/>
	</g>
	<g>
		<path d="M32,36c-4.962,0-9-4.037-9-9s4.038-9,9-9s9,4.037,9,9S36.962,36,32,36z M32,20c-3.86,0-7,3.141-7,7s3.14,7,7,7    s7-3.141,7-7S35.86,20,32,20z"/>
	</g>
	<g>
		<path d="M32,32c-2.757,0-5-2.243-5-5s2.243-5,5-5v2c-1.654,0-3,1.346-3,3s1.346,3,3,3s3-1.346,3-3h2C37,29.757,34.757,32,32,32z"/>
	</g>
	<g>
		<path d="M32,51c-2.954,0-7,0-7-5c0-4.121,2.878-7,7-7s7,2.879,7,7C39,51,34.954,51,32,51z M32,41c-3.038,0-5,1.963-5,5    c0,2.741,1.371,3,5,3s5-0.259,5-3C37,42.963,35.038,41,32,41z"/>
	</g>
	<g>
		<path d="M26,63c-2.206,0-4-1.794-4-4c0-0.066,0.006-0.132,0.02-0.197l0.046-0.229c0.655-3.276,2.105-6.389,4.194-8.999l0.96-1.2    l1.562,1.25l-0.96,1.2c-1.889,2.361-3.201,5.177-3.794,8.143l-0.024,0.122C24.049,60.151,24.927,61,26,61    c1.054,0,1.92-0.819,1.995-1.854c-0.674-2.033-0.673-4.273,0.005-6.308l1.051-3.154l1.897,0.633l-1.051,3.154    c-0.544,1.631-0.544,3.428,0,5.059l0.052,0.155C29.983,58.786,30,58.893,30,59C30,61.206,28.206,63,26,63z"/>
	</g>
	<g>
		<path d="M38,63c-2.206,0-4-1.794-4-4c0-0.107,0.017-0.214,0.051-0.315l0.051-0.154c0.544-1.632,0.544-3.429,0-5.06l-1.051-3.154    l1.897-0.633L36,52.838c0.678,2.034,0.68,4.273,0.005,6.308C36.08,60.181,36.946,61,38,61c1.073,0,1.951-0.849,1.998-1.91    l-0.024-0.121c-0.593-2.967-1.905-5.782-3.794-8.144l-0.96-1.2l1.562-1.25l0.96,1.2c2.088,2.61,3.539,5.723,4.194,9l0.046,0.228    C41.994,58.868,42,58.934,42,59C42,61.206,40.206,63,38,63z"/>
	</g>
	<g>
		<path d="M16,51c-1.406,0-2.754-0.597-3.7-1.637c-0.945-1.04-1.411-2.443-1.276-3.851C11.265,42.982,13.526,41,16.172,41    c3.337,0,6.586,0.626,9.67,1.859l0.53,0.212l-0.743,1.857l-0.53-0.212C22.252,43.577,19.253,43,16.186,43    c-1.64,0-3.026,1.187-3.171,2.702c-0.082,0.86,0.189,1.683,0.765,2.315c0.499,0.549,1.185,0.892,1.916,0.967    C18.393,47.058,21.683,46,25,46h1v2h-1c-3.009,0-5.992,0.994-8.4,2.8C16.427,50.93,16.216,51,16,51z"/>
	</g>
	<g>
		<path d="M48,51c-0.216,0-0.427-0.07-0.6-0.2C44.992,48.994,42.009,48,39,48h-1v-2h1c3.317,0,6.607,1.058,9.305,2.984    c0.731-0.075,1.417-0.418,1.916-0.967c0.575-0.633,0.847-1.455,0.765-2.315C50.841,44.187,49.454,43,47.828,43    c-3.082,0-6.08,0.577-8.927,1.717l-0.53,0.212l-0.743-1.857l0.53-0.212C41.242,41.626,44.491,41,47.814,41    c2.659,0,4.921,1.982,5.162,4.513c0.134,1.407-0.331,2.811-1.276,3.851C50.754,50.403,49.406,51,48,51z"/>
	</g>
</g>
</svg>
