<?xml version="1.0" encoding="iso-8859-1"?>
<!-- Generator: Adobe Illustrator 22.1.0, SVG Export Plug-In . SVG Version: 6.00 Build 0)  -->
<svg xmlns="http://www.w3.org/2000/svg" xmlns:xlink="http://www.w3.org/1999/xlink" version="1.1" id="Layer_3" x="0px" y="0px" viewBox="0 0 64 64" style="enable-background:new 0 0 64 64;" xml:space="preserve" width="512" height="512">
<g>
	<g>
		<path style="fill:#74564A;" d="M11,33l-7.576,6.734C2.518,40.539,2,41.693,2,42.905v0.852C2,46.101,3.899,48,6.243,48h0    c1.125,0,2.204-0.447,3-1.243L11,45"/>
	</g>
	<g>
		<path style="fill:#74564A;" d="M53,33l7.576,6.734C61.482,40.539,62,41.693,62,42.905v0.852C62,46.101,60.101,48,57.757,48h0    c-1.125,0-2.204-0.447-3-1.243L53,45"/>
	</g>
	<g>
		<path style="fill:#FAE0B8;" d="M10,46l-5.892-6.874l-0.684,0.608C2.518,40.539,2,41.693,2,42.905v0.852C2,46.1,3.899,48,6.243,48    c1.125,0,2.204-0.447,3-1.243L10,46z"/>
	</g>
	<g>
		<path style="fill:#FAE0B8;" d="M59.892,39.126L54,46l0.757,0.757c0.796,0.796,1.875,1.243,3,1.243C60.101,48,62,46.1,62,43.757    v-0.852c0-1.212-0.518-2.366-1.424-3.171L59.892,39.126z"/>
	</g>
	<g>
		<path style="fill:#E25341;" d="M36,56l-1,6h17l2-45c0-2.761-2.239-5-5-5s-5,2.239-5,5V7c0-2.761-2.239-5-5-5s-5,2.239-5,5l-2,10    L30,7c0-2.761-2.239-5-5-5s-5,2.239-5,5v10c0-2.761-2.239-5-5-5s-5,2.239-5,5l2,45h17l-1-6H36z"/>
	</g>
	<g>
		<path style="fill:#74564A;" d="M20,62c0-2.209-1.791-4-4-4s-4,1.791-4,4"/>
	</g>
	<g>
		<path style="fill:#74564A;" d="M28,62c0-2.209-1.791-4-4-4s-4,1.791-4,4"/>
	</g>
	<g>
		<path style="fill:#74564A;" d="M44,62c0-2.209-1.791-4-4-4s-4,1.791-4,4"/>
	</g>
	<g>
		<path style="fill:#74564A;" d="M52,62c0-2.209-1.791-4-4-4s-4,1.791-4,4"/>
	</g>
	<g>
		<circle style="fill:#FFFFFF;" cx="22" cy="28" r="7"/>
	</g>
	<g>
		<circle style="fill:#FFFFFF;" cx="42" cy="28" r="7"/>
	</g>
	<g>
		<path style="fill:#39474E;" d="M23.677,25.512C24.475,26.051,25,26.964,25,28c0,1.657-1.343,3-3,3s-3-1.343-3-3    c0-0.191,0.018-0.378,0.052-0.559"/>
	</g>
	<g>
		<path style="fill:#39474E;" d="M40.323,25.512C39.525,26.051,39,26.964,39,28c0,1.657,1.343,3,3,3s3-1.343,3-3    c0-0.191-0.018-0.378-0.052-0.559"/>
	</g>
	<g>
		<path style="fill:#FAE0B8;" d="M22,21c-3.866,0-7,3.134-7,7c0,0.33,0.031,0.653,0.075,0.971l12.723-4.893    C26.539,22.221,24.412,21,22,21z"/>
	</g>
	<g>
		<path style="fill:#FAE0B8;" d="M49,28c0-3.866-3.134-7-7-7c-2.412,0-4.539,1.221-5.798,3.078l12.723,4.893    C48.969,28.653,49,28.33,49,28z"/>
	</g>
	<g>
		<polyline style="fill:#FFFFFF;" points="18,45 24,40 25,48   "/>
	</g>
	<g>
		<polyline style="fill:#FFFFFF;" points="46,45 40,40 39,48   "/>
	</g>
	<g>
		<path d="M52,63H35c-0.294,0-0.573-0.129-0.763-0.354c-0.19-0.225-0.271-0.521-0.223-0.811L34.819,57h-5.639l0.806,4.835    c0.048,0.29-0.033,0.586-0.223,0.811C29.573,62.871,29.294,63,29,63H12c-0.535,0-0.975-0.421-0.999-0.956l-2-45    C9,13.691,11.691,11,15,11c1.535,0,2.938,0.58,4,1.532V7c0-3.309,2.691-6,6-6c3.274,0,5.944,2.636,5.999,5.896L32,11.901    l1.001-5.004C33.056,3.636,35.726,1,39,1c3.309,0,6,2.691,6,6v5.532C46.062,11.58,47.465,11,49,11c3.309,0,6,2.691,6,6    l-2.001,45.044C52.975,62.579,52.535,63,52,63z M36.181,61h14.863l1.958-44.044C53,14.794,51.206,13,49,13s-4,1.794-4,4    c0,0.552-0.448,1-1,1s-1-0.448-1-1V7c0-2.206-1.794-4-4-4s-4,1.794-4,4c0,0.066-0.006,0.131-0.02,0.196l-2,10    C32.887,17.664,32.477,18,32,18s-0.887-0.336-0.98-0.804l-2-10C29.006,7.131,29,7.066,29,7c0-2.206-1.794-4-4-4s-4,1.794-4,4v10    c0,0.552-0.448,1-1,1s-1-0.448-1-1c0-2.206-1.794-4-4-4s-4,1.794-4,4l1.957,44h14.863l-0.806-4.835    c-0.048-0.29,0.033-0.586,0.223-0.811C27.427,55.129,27.706,55,28,55h8c0.294,0,0.573,0.129,0.763,0.354    c0.19,0.225,0.271,0.521,0.223,0.811L36.181,61z"/>
	</g>
	<g>
		<path d="M22,36c-4.411,0-8-3.589-8-8s3.589-8,8-8s8,3.589,8,8S26.411,36,22,36z M22,22c-3.309,0-6,2.691-6,6s2.691,6,6,6    s6-2.691,6-6S25.309,22,22,22z"/>
	</g>
	<g>
		<path d="M22,32c-2.206,0-4-1.794-4-4c0-0.248,0.023-0.497,0.069-0.742l1.966,0.365C20.012,27.746,20,27.872,20,28    c0,1.103,0.897,2,2,2s2-0.897,2-2c0-0.666-0.33-1.286-0.883-1.659l1.12-1.657C25.341,25.429,26,26.669,26,28    C26,30.206,24.206,32,22,32z"/>
	</g>
	<g>
		<rect x="14.536" y="25.5" transform="matrix(0.9334 -0.3588 0.3588 0.9334 -8.0769 9.4792)" width="13.928" height="2"/>
	</g>
	<g>
		<path d="M42,36c-4.411,0-8-3.589-8-8s3.589-8,8-8s8,3.589,8,8S46.411,36,42,36z M42,22c-3.309,0-6,2.691-6,6s2.691,6,6,6    s6-2.691,6-6S45.309,22,42,22z"/>
	</g>
	<g>
		<path d="M42,32c-2.206,0-4-1.794-4-4c0-1.331,0.659-2.571,1.763-3.316l1.12,1.657C40.33,26.714,40,27.334,40,28    c0,1.103,0.897,2,2,2s2-0.897,2-2c0-0.128-0.012-0.254-0.035-0.376l1.966-0.365C45.977,27.503,46,27.752,46,28    C46,30.206,44.206,32,42,32z"/>
	</g>
	<g>
		<rect x="41.5" y="19.536" transform="matrix(0.359 -0.9333 0.9333 0.359 2.5097 56.6542)" width="2" height="13.928"/>
	</g>
	<g>
		<path d="M32,50c-6.042,0-11.896-2.166-16.484-6.098l-0.167-0.144l1.304-1.517l0.167,0.143C21.043,46.005,26.435,48,32,48    s10.957-1.995,15.183-5.616l0.166-0.142l1.304,1.517l-0.167,0.143C43.896,47.834,38.042,50,32,50z"/>
	</g>
	<g>
		<path d="M24.008,48.124l-0.773-6.185l-4.595,3.829l-1.28-1.536l6-5c0.281-0.234,0.668-0.295,1.007-0.162    c0.34,0.134,0.58,0.443,0.625,0.806l1,8L24.008,48.124z"/>
	</g>
	<g>
		<path d="M39.992,48.124l-1.984-0.248l1-8c0.045-0.363,0.285-0.672,0.625-0.806c0.34-0.135,0.727-0.073,1.007,0.162l6,5    l-1.28,1.536l-4.595-3.829L39.992,48.124z"/>
	</g>
	<g>
		<path d="M6.243,49C3.352,49,1,46.648,1,43.757v-0.852c0-1.496,0.641-2.924,1.759-3.918l7.576-6.734l1.329,1.495l-7.576,6.734    C3.396,41.097,3,41.98,3,42.905v0.852C3,45.545,4.455,47,6.243,47c0.866,0,1.68-0.337,2.293-0.95l1.757-1.757l1.414,1.414    L9.95,47.464C8.959,48.455,7.643,49,6.243,49z"/>
	</g>
	<g>
		<path d="M57.757,49c-1.4,0-2.717-0.545-3.707-1.536l-1.757-1.757l1.414-1.414l1.757,1.757c0.613,0.612,1.427,0.95,2.293,0.95    C59.545,47,61,45.545,61,43.757v-0.852c0-0.925-0.396-1.809-1.088-2.423l-7.576-6.734l1.329-1.495l7.576,6.734    C62.359,39.981,63,41.409,63,42.905v0.852C63,46.648,60.648,49,57.757,49z"/>
	</g>
	<g>
		<path d="M21,62h-2c0-1.654-1.346-3-3-3s-3,1.346-3,3h-2c0-2.757,2.243-5,5-5S21,59.243,21,62z"/>
	</g>
	<g>
		<path d="M29,62h-2c0-1.654-1.346-3-3-3s-3,1.346-3,3h-2c0-2.757,2.243-5,5-5S29,59.243,29,62z"/>
	</g>
	<g>
		<path d="M45,62h-2c0-1.654-1.346-3-3-3s-3,1.346-3,3h-2c0-2.757,2.243-5,5-5S45,59.243,45,62z"/>
	</g>
	<g>
		<path d="M53,62h-2c0-1.654-1.346-3-3-3s-3,1.346-3,3h-2c0-2.757,2.243-5,5-5S53,59.243,53,62z"/>
	</g>
	<g>
		<rect x="6" y="37.89" transform="matrix(0.7593 -0.6508 0.6508 0.7593 -25.9734 14.7871)" width="2" height="9.22"/>
	</g>
	<g>
		<rect x="52.39" y="41.5" transform="matrix(0.6508 -0.7592 0.7592 0.6508 -12.3643 58.1153)" width="9.22" height="2"/>
	</g>
	<g>
		<rect x="19.78" y="5.5" transform="matrix(0.9579 -0.2871 0.2871 0.9579 -0.8137 7.4506)" width="10.44" height="2"/>
	</g>
	<g>
		<rect x="38" y="1.28" transform="matrix(0.2873 -0.9578 0.9578 0.2873 21.5676 41.9875)" width="2" height="10.44"/>
	</g>
</g>
</svg>
