<?xml version="1.0" encoding="iso-8859-1"?>
<!-- Generator: Adobe Illustrator 22.1.0, SVG Export Plug-In . SVG Version: 6.00 Build 0)  -->
<svg xmlns="http://www.w3.org/2000/svg" xmlns:xlink="http://www.w3.org/1999/xlink" version="1.1" id="Layer_3" x="0px" y="0px" viewBox="0 0 64 64" style="enable-background:new 0 0 64 64;" xml:space="preserve" width="512" height="512">
<g>
	<g>
		<path style="fill:#9E9C3D;" d="M13,51l-0.6,0.8C10.842,53.877,10,56.404,10,59v0c0,1.657,2.239,3,5,3s5-1.343,5-3l-0.504-0.336    C17.937,57.624,17,55.874,17,54v0"/>
	</g>
	<g>
		<path style="fill:#9E9C3D;" d="M51,51l0.6,0.8c1.558,2.077,2.4,4.604,2.4,7.2v0c0,1.657-2.239,3-5,3s-5-1.343-5-3l0.504-0.336    C46.063,57.624,47,55.874,47,54v0"/>
	</g>
	<g>
		<path style="fill:#67AC5B;" d="M42,14v-0.31c0-4.198,2.028-8.138,5.444-10.579L49,2l-4.27,0.474    c-3.018,0.335-5.763,1.903-7.585,4.333L37,7l-5-5l-5,5l-0.145-0.193c-1.822-2.429-4.567-3.997-7.585-4.333L15,2l1.556,1.111    C19.972,5.552,22,9.492,22,13.69V14"/>
	</g>
	<g>
		<path style="fill:#74564A;" d="M55,41c0,12.703-10.297,15-23,15S9,53.703,9,41s10.297-31,23-31S55,28.297,55,41z"/>
	</g>
	<g>
		<path style="fill:#2C665C;" d="M27,41c0-2.761,2.239-5,5-5s5,2.239,5,5s-2.239,3-5,3S27,43.761,27,41z"/>
	</g>
	<g>
		<path style="fill:#FFFFFF;" d="M25.209,23.122C27.943,23.681,30,26.101,30,29c0,3.314-2.686,6-6,6    c-2.875,0-5.278-2.022-5.864-4.722"/>
	</g>
	<g>
		<path style="fill:#FFFFFF;" d="M38.791,23.122C36.057,23.681,34,26.101,34,29c0,3.314,2.686,6,6,6    c2.875,0,5.278-2.022,5.864-4.722"/>
	</g>
	<g>
		<polyline style="fill:#FFFFFF;" points="46,50 42,44 40,52   "/>
	</g>
	<g>
		<polyline style="fill:#FFFFFF;" points="18,50 22,44 24,52   "/>
	</g>
	<g>
		<circle style="fill:#39474E;" cx="26" cy="31" r="3"/>
	</g>
	<g>
		<circle style="fill:#39474E;" cx="38" cy="31" r="3"/>
	</g>
	<g>
		<path d="M32,57C20.132,57,8,55.099,8,41C8,28.412,18.306,9,32,9s24,19.412,24,32C56,55.099,43.868,57,32,57z M32,11    c-12.144,0-22,18.153-22,30c0,9.944,6.374,14,22,14s22-4.056,22-14C54,29.153,44.144,11,32,11z"/>
	</g>
	<g>
		<path d="M15,63c-3.364,0-6-1.757-6-4c0-2.794,0.923-5.564,2.6-7.8l0.6-0.801l1.6,1.201l-0.6,0.8C11.781,54.292,11,56.636,11,59    c0,0.944,1.71,2,4,2c1.927,0,3.444-0.748,3.876-1.548C17.074,58.219,16,56.187,16,54h2c0,1.543,0.767,2.976,2.051,3.832    l0.504,0.336C20.833,58.354,21,58.666,21,59C21,61.243,18.364,63,15,63z"/>
	</g>
	<g>
		<path d="M15.105,62.447l-1.155-2.311C13.329,58.894,13,57.501,13,56.111V56h2v0.111c0,1.081,0.255,2.164,0.739,3.131l1.155,2.311    L15.105,62.447z"/>
	</g>
	<g>
		<path d="M49,63c-3.364,0-6-1.757-6-4c0-0.334,0.167-0.646,0.445-0.832l0.504-0.336C45.233,56.976,46,55.543,46,54h2    c0,2.187-1.074,4.219-2.876,5.452C45.556,60.252,47.073,61,49,61c2.29,0,4-1.056,4-2c0-2.364-0.781-4.708-2.2-6.601l-0.6-0.799    l1.6-1.201l0.6,0.8C54.077,53.436,55,56.206,55,59C55,61.243,52.364,63,49,63z"/>
	</g>
	<g>
		<path d="M48.895,62.447l-1.789-0.895l1.155-2.311C48.745,58.275,49,57.192,49,56.111V56h2v0.111c0,1.39-0.329,2.782-0.95,4.025    L48.895,62.447z"/>
	</g>
	<g>
		<path d="M43,14h-2v-0.31c0-3.929,1.662-7.665,4.515-10.297L44.84,3.469c-2.732,0.303-5.246,1.738-6.896,3.938l-0.145,0.193    c-0.174,0.231-0.44,0.377-0.729,0.396c-0.291,0.023-0.573-0.085-0.777-0.29L32,3.414l-4.293,4.293    c-0.205,0.205-0.485,0.317-0.777,0.29c-0.289-0.02-0.555-0.165-0.729-0.396l-0.145-0.192c-1.651-2.201-4.164-3.637-6.896-3.939    l-0.674-0.075C21.338,6.025,23,9.762,23,13.69V14h-2v-0.31c0-3.867-1.878-7.518-5.025-9.766l-1.556-1.111    c-0.371-0.265-0.516-0.746-0.353-1.171s0.588-0.687,1.044-0.637l4.27,0.475c2.977,0.331,5.738,1.781,7.703,4.022l4.21-4.21    c0.391-0.391,1.023-0.391,1.414,0l4.209,4.21c1.965-2.241,4.726-3.691,7.703-4.022l4.27-0.475    c0.457-0.046,0.882,0.212,1.044,0.637s0.018,0.906-0.353,1.171l-1.556,1.111C44.878,6.173,43,9.823,43,13.69V14z"/>
	</g>
	<g>
		<path d="M32,21c-0.297,0-0.578-0.132-0.768-0.359l-5-6l1.536-1.281L32,18.438l4.232-5.078l1.536,1.281l-5,6    C32.578,20.868,32.297,21,32,21z"/>
	</g>
	<g>
		<path d="M24,36c-3.271,0-6.148-2.317-6.84-5.51l1.954-0.424C19.608,32.346,21.663,34,24,34c2.757,0,5-2.243,5-5    c0-2.365-1.679-4.425-3.992-4.898l0.401-1.959C28.649,22.806,31,25.689,31,29C31,32.859,27.86,36,24,36z"/>
	</g>
	<g>
		<path d="M17.986,35.164l-1.973-0.328l0.303-1.815c0.491-2.945,1.866-5.617,3.977-7.728c2.111-2.111,4.784-3.486,7.728-3.977    l1.814-0.303l0.329,1.973l-1.815,0.303c-2.531,0.422-4.828,1.604-6.643,3.418c-1.814,1.814-2.996,4.111-3.418,6.642L17.986,35.164    z"/>
	</g>
	<g>
		<path d="M26,35c-2.206,0-4-1.794-4-4s1.794-4,4-4s4,1.794,4,4S28.206,35,26,35z M26,29c-1.103,0-2,0.897-2,2s0.897,2,2,2    s2-0.897,2-2S27.103,29,26,29z"/>
	</g>
	<g>
		<path d="M40,36c-3.86,0-7-3.141-7-7c0-3.311,2.351-6.194,5.59-6.857l0.401,1.959C36.679,24.575,35,26.635,35,29    c0,2.757,2.243,5,5,5c2.337,0,4.392-1.654,4.886-3.934l1.954,0.424C46.148,33.683,43.271,36,40,36z"/>
	</g>
	<g>
		<path d="M46.014,35.164l-0.303-1.815c-0.422-2.53-1.604-4.827-3.418-6.642c-1.815-1.814-4.112-2.996-6.642-3.418l-1.815-0.303    l0.329-1.973l1.815,0.303c2.944,0.49,5.616,1.865,7.728,3.977c2.111,2.11,3.486,4.782,3.977,7.728l0.303,1.815L46.014,35.164z"/>
	</g>
	<g>
		<path d="M38,35c-2.206,0-4-1.794-4-4s1.794-4,4-4s4,1.794,4,4S40.206,35,38,35z M38,29c-1.103,0-2,0.897-2,2s0.897,2,2,2    s2-0.897,2-2S39.103,29,38,29z"/>
	</g>
	<g>
		<path d="M33.405,53h-2.811c-5.176,0-10.212-1.033-14.969-3.072l0.785-1.84l0.02,0.009C20.92,50.021,25.691,51,30.595,51h2.811    c4.904,0,9.675-0.979,14.181-2.91l0.824,1.822C43.618,51.967,38.581,53,33.405,53z"/>
	</g>
	<g>
		<path d="M40.97,52.242l-1.94-0.484l2-8c0.096-0.385,0.41-0.676,0.799-0.743c0.389-0.067,0.783,0.102,1.003,0.431l4,6l-1.664,1.109    l-2.746-4.119L40.97,52.242z"/>
	</g>
	<g>
		<path d="M23.03,52.242l-1.452-5.807l-2.746,4.119l-1.664-1.109l4-6c0.219-0.329,0.611-0.498,1.003-0.431    c0.39,0.067,0.703,0.358,0.799,0.743l2,8L23.03,52.242z"/>
	</g>
	<g>
		<path d="M32,45c-2.097,0-6,0-6-4c0-3.309,2.691-6,6-6s6,2.691,6,6C38,45,34.097,45,32,45z M32,37c-2.206,0-4,1.794-4,4    c0,1.476,0.604,2,4,2s4-0.524,4-2C36,38.794,34.206,37,32,37z"/>
	</g>
</g>
</svg>
