<?xml version="1.0" encoding="iso-8859-1"?>
<!-- Generator: Adobe Illustrator 22.1.0, SVG Export Plug-In . SVG Version: 6.00 Build 0)  -->
<svg xmlns="http://www.w3.org/2000/svg" xmlns:xlink="http://www.w3.org/1999/xlink" version="1.1" id="Layer_3" x="0px" y="0px" viewBox="0 0 64 64" style="enable-background:new 0 0 64 64;" xml:space="preserve" width="512" height="512">
<g>
	<g>
		<path style="fill:#F6C244;" d="M40,10l0.029-0.029c3.9-3.9,8.831-6.607,14.215-7.803L55,2v0.378    c0,5.479-2.365,10.691-6.488,14.299L47,18"/>
	</g>
	<g>
		<path style="fill:#F8D859;" d="M53.79,8.983C54.568,6.889,55,4.661,55,2.378V2l-0.756,0.168c-4.425,0.983-8.534,3.002-12.027,5.85    L53.79,8.983z"/>
	</g>
	<g>
		<path style="fill:#F6C244;" d="M24,10l-0.029-0.029c-3.9-3.9-8.831-6.607-14.215-7.803L9,2v0.378    c0,5.479,2.365,10.691,6.488,14.299L17,18"/>
	</g>
	<g>
		<path style="fill:#F8D859;" d="M21.783,8.018c-3.492-2.848-7.601-4.867-12.027-5.85L9,2v0.378c0,2.283,0.433,4.511,1.21,6.604    L21.783,8.018z"/>
	</g>
	<g>
		<path style="fill:#D1DA59;" d="M45,56h4c3.314,0,6,2.686,6,6v0h-4.169c-3.815,0-7.559-1.037-10.831-3l0,0v-5c0-3.314-3.582-6-8-6    s-8,2.686-8,6v5l0,0c-3.272,1.963-7.015,3-10.831,3H9v0c0-3.314,2.686-6,6-6h4l-2.849-6.647C14.072,44.502,13,39.278,13,34v0    c0-14.912,8.507-27,19-27s19,12.088,19,27v0c0,5.278-1.072,10.502-3.151,15.353L45,56z"/>
	</g>
	<g>
		<circle style="fill:#FFFFFF;" cx="32" cy="21" r="8"/>
	</g>
	<g>
		<path style="fill:#39474E;" d="M35.465,19C35.805,19.588,36,20.271,36,21c0,2.209-1.791,4-4,4s-4-1.791-4-4    c0-0.729,0.195-1.412,0.535-2"/>
	</g>
	<g>
		<path style="fill:#4496EC;" d="M39.738,19c-0.889-3.449-4.011-6-7.738-6s-6.848,2.551-7.738,6H39.738z"/>
	</g>
	<g>
		<path style="fill:#FFFFFF;" d="M20,35L20,35c0,3.124,1.561,6.041,4.16,7.773L26,44v-9"/>
	</g>
	<g>
		<path style="fill:#FFFFFF;" d="M44,35L44,35c0,3.124-1.561,6.041-4.16,7.773L38,44v-9"/>
	</g>
	<g>
		<path d="M55,63h-4.169c-3.996,0-7.918-1.086-11.346-3.143C39.184,59.677,39,59.351,39,59v-5c0-2.757-3.14-5-7-5s-7,2.243-7,5v5    c0,0.351-0.184,0.677-0.485,0.857C21.087,61.914,17.165,63,13.169,63H9c-0.552,0-1-0.448-1-1c0-3.86,3.14-7,7-7h2.483    l-2.251-5.253C13.087,44.742,12,39.444,12,34c0-15.439,8.972-28,20-28s20,12.561,20,28c0,5.444-1.087,10.742-3.232,15.747    L46.517,55H49c3.86,0,7,3.14,7,7C56,62.552,55.552,63,55,63z M41,58.425C43.999,60.111,47.385,61,50.831,61h3.068    c-0.464-2.279-2.485-4-4.899-4h-4c-0.336,0-0.65-0.169-0.835-0.45c-0.185-0.28-0.217-0.635-0.084-0.944l2.849-6.647    C48.967,44.205,50,39.172,50,34c0-14.336-8.075-26-18-26S14,19.664,14,34c0,5.172,1.033,10.205,3.07,14.959l2.849,6.647    c0.133,0.309,0.101,0.664-0.084,0.944C19.65,56.831,19.336,57,19,57h-4c-2.415,0-4.435,1.721-4.899,4h3.068    c3.446,0,6.833-0.889,9.831-2.575V54c0-3.86,4.038-7,9-7s9,3.14,9,7V58.425z"/>
	</g>
	<g>
		<path d="M16.341,18.752L14.83,17.43C10.489,13.632,8,8.146,8,2.378V2c0-0.303,0.138-0.59,0.374-0.78    C8.61,1.03,8.92,0.958,9.217,1.024l0.756,0.168c5.58,1.24,10.665,4.032,14.705,8.072l-1.385,1.443l-0.029-0.029    c-3.655-3.654-8.225-6.214-13.243-7.422c0.237,4.866,2.44,9.444,6.125,12.669l1.512,1.323L16.341,18.752z"/>
	</g>
	<g>
		<path d="M47.659,18.752l-1.317-1.505l1.512-1.323c3.686-3.225,5.888-7.803,6.125-12.669c-5.018,1.208-9.588,3.768-13.243,7.422    l-1.443-1.385l0.029-0.029c4.041-4.041,9.125-6.832,14.705-8.072l0.756-0.168c0.295-0.065,0.606,0.006,0.843,0.196    C55.862,1.41,56,1.697,56,2v0.378c0,5.767-2.489,11.253-6.83,15.051L47.659,18.752z"/>
	</g>
	<g>
		<path d="M32,30c-4.962,0-9-4.038-9-9s4.038-9,9-9s9,4.038,9,9S36.962,30,32,30z M32,14c-3.86,0-7,3.14-7,7s3.14,7,7,7s7-3.14,7-7    S35.86,14,32,14z"/>
	</g>
	<g>
		<rect x="24" y="18" width="16" height="2"/>
	</g>
	<g>
		<path d="M32,26c-2.757,0-5-2.243-5-5c0-0.879,0.231-1.744,0.669-2.5l1.731,1.001C29.139,19.954,29,20.473,29,21    c0,1.654,1.346,3,3,3s3-1.346,3-3c0-0.527-0.139-1.046-0.401-1.5l1.731-1.001C36.769,19.256,37,20.121,37,21    C37,23.757,34.757,26,32,26z"/>
	</g>
	<g>
		<rect x="9.979" y="7.5" transform="matrix(0.9965 -0.083 0.083 0.9965 -0.6503 1.3574)" width="12.042" height="2"/>
	</g>
	<g>
		<rect x="47" y="2.479" transform="matrix(0.083 -0.9965 0.9965 0.083 35.5432 55.6283)" width="2" height="12.042"/>
	</g>
	<g>
		<rect x="17" y="34" width="30" height="2"/>
	</g>
	<g>
		<path d="M26,45c-0.194,0-0.387-0.056-0.555-0.168l-1.84-1.227C20.722,41.683,19,38.466,19,35h2c0,2.795,1.389,5.391,3.715,6.941    L25,42.131V35h2v9c0,0.369-0.203,0.708-0.528,0.882C26.324,44.961,26.162,45,26,45z"/>
	</g>
	<g>
		<path d="M38,45c-0.162,0-0.324-0.039-0.472-0.118C37.203,44.708,37,44.369,37,44v-9h2v7.131l0.285-0.19    C41.611,40.391,43,37.795,43,35h2c0,3.466-1.722,6.683-4.605,8.605l-1.84,1.227C38.387,44.943,38.194,45,38,45z"/>
	</g>
</g>
</svg>
