<?xml version="1.0" encoding="iso-8859-1"?>
<!-- Generator: Adobe Illustrator 22.1.0, SVG Export Plug-In . SVG Version: 6.00 Build 0)  -->
<svg xmlns="http://www.w3.org/2000/svg" xmlns:xlink="http://www.w3.org/1999/xlink" version="1.1" id="Layer_3" x="0px" y="0px" viewBox="0 0 64 64" style="enable-background:new 0 0 64 64;" xml:space="preserve" width="512" height="512">
<g>
	<g>
		<path style="fill:#4496EC;" d="M32,51l0.166,0.166c5.126,5.126,11.55,8.763,18.583,10.521L52,62v-0.015    c0-7.864-1.973-15.602-5.739-22.506L46,39l0.182-0.091c6.392-3.196,11.652-8.272,15.074-14.545L62,23l-18-1l-0.322-0.709    C40.57,14.454,36.671,8.005,32.06,2.077L32,2l-0.06,0.077c-4.611,5.928-8.51,12.376-11.617,19.213L20,22L2,23l0.744,1.364    c3.422,6.274,8.682,11.349,15.074,14.545L18,39l-0.261,0.479C13.973,46.382,12,54.121,12,61.985V62l1.251-0.313    c7.033-1.758,13.456-5.395,18.583-10.521L32,51z"/>
	</g>
	<g>
		<circle style="fill:#FFFFFF;" cx="24" cy="31" r="6"/>
	</g>
	<g>
		<circle style="fill:#FFFFFF;" cx="40" cy="31" r="6"/>
	</g>
	<g>
		<polyline style="fill:#FFFFFF;" points="23,43 26,49 29,43   "/>
	</g>
	<g>
		<polyline style="fill:#FFFFFF;" points="35,43 38,49 41,43   "/>
	</g>
	<g>
		<circle style="fill:#39474E;" cx="24" cy="31" r="2"/>
	</g>
	<g>
		<circle style="fill:#39474E;" cx="40" cy="31" r="2"/>
	</g>
	<g>
		<path d="M12,63c-0.221,0-0.438-0.073-0.615-0.212C11.142,62.599,11,62.308,11,62c0-7.86,1.946-15.65,5.633-22.576    c-6.269-3.314-11.362-8.341-14.767-14.581l-0.744-1.364c-0.164-0.301-0.163-0.666,0.004-0.965s0.476-0.493,0.818-0.512    l17.396-0.966l0.072-0.158c3.135-6.898,7.084-13.43,11.738-19.414c0.001-0.001,0.062-0.08,0.062-0.081    c0.381-0.483,1.193-0.483,1.574,0c0,0.001,0.062,0.079,0.062,0.081c4.654,5.984,8.604,12.516,11.738,19.414l0.072,0.158    l17.396,0.966c0.343,0.019,0.651,0.212,0.818,0.512s0.168,0.664,0.004,0.965l-0.744,1.364    c-3.404,6.241-8.499,11.268-14.767,14.581C51.054,46.35,53,54.139,53,61.984c0,0.308-0.142,0.606-0.385,0.796    c-0.242,0.19-0.56,0.266-0.857,0.189l-1.251-0.312C43.544,60.917,37.161,57.378,32,52.404    c-5.161,4.974-11.544,8.513-18.507,10.253l-1.251,0.312C12.162,62.99,12.081,63,12,63z M3.636,23.911    c3.341,6.112,8.398,10.989,14.629,14.104l0.181,0.09c0.243,0.121,0.427,0.336,0.509,0.595c0.081,0.26,0.054,0.541-0.076,0.779    l-0.261,0.479c-3.472,6.366-5.397,13.517-5.6,20.758C19.87,59,26.132,55.453,31.127,50.459l0.166-0.166    c0.391-0.391,1.023-0.391,1.414,0l0.166,0.166C37.867,55.453,44.13,59,50.981,60.715c-0.203-7.25-2.129-14.396-5.599-20.758    l-0.261-0.479c-0.13-0.238-0.157-0.52-0.076-0.779c0.082-0.259,0.266-0.474,0.509-0.595l0.183-0.091    c6.229-3.114,11.286-7.991,14.627-14.103l-16.42-0.912c-0.371-0.021-0.701-0.246-0.854-0.585l-0.322-0.709    c-2.905-6.392-6.524-12.463-10.767-18.062c-4.271,5.645-7.874,11.694-10.769,18.062l-0.322,0.709    c-0.153,0.339-0.483,0.564-0.854,0.585L3.636,23.911z"/>
	</g>
	<g>
		<path d="M24,38c-3.859,0-7-3.141-7-7c0-3.86,3.141-7,7-7s7,3.14,7,7C31,34.859,27.859,38,24,38z M24,26c-2.757,0-5,2.243-5,5    s2.243,5,5,5s5-2.243,5-5S26.757,26,24,26z"/>
	</g>
	<g>
		<path d="M24,34c-1.654,0-3-1.346-3-3s1.346-3,3-3s3,1.346,3,3S25.654,34,24,34z M24,30c-0.552,0-1,0.449-1,1s0.448,1,1,1    s1-0.449,1-1S24.552,30,24,30z"/>
	</g>
	<g>
		<path d="M40,38c-3.859,0-7-3.141-7-7c0-3.86,3.141-7,7-7s7,3.14,7,7C47,34.859,43.859,38,40,38z M40,26c-2.757,0-5,2.243-5,5    s2.243,5,5,5s5-2.243,5-5S42.757,26,40,26z"/>
	</g>
	<g>
		<path d="M40,34c-1.654,0-3-1.346-3-3s1.346-3,3-3s3,1.346,3,3S41.654,34,40,34z M40,30c-0.552,0-1,0.449-1,1s0.448,1,1,1    s1-0.449,1-1S40.552,30,40,30z"/>
	</g>
	<g>
		<rect x="21" y="42" width="22" height="2"/>
	</g>
	<g>
		<path d="M26,50c-0.379,0-0.725-0.214-0.895-0.553l-3-6l1.789-0.895L26,46.764l2.105-4.211l1.789,0.895l-3,6    C26.725,49.786,26.379,50,26,50z"/>
	</g>
	<g>
		<path d="M38,50c-0.379,0-0.725-0.214-0.895-0.553l-3-6l1.789-0.895L38,46.764l2.105-4.211l1.789,0.895l-3,6    C38.725,49.786,38.379,50,38,50z"/>
	</g>
</g>
</svg>
