<?xml version="1.0" encoding="iso-8859-1"?>
<!-- Generator: Adobe Illustrator 22.1.0, SVG Export Plug-In . SVG Version: 6.00 Build 0)  -->
<svg xmlns="http://www.w3.org/2000/svg" xmlns:xlink="http://www.w3.org/1999/xlink" version="1.1" id="Layer_3" x="0px" y="0px" viewBox="0 0 64 64" style="enable-background:new 0 0 64 64;" xml:space="preserve" width="512" height="512">
<g>
	<g>
		<path style="fill:#74564A;" d="M17,44l-5.496,4.397C8.657,50.674,7,54.122,7,57.767v0.061c0,2.089,1.527,3.955,3.607,4.153    C12.993,62.209,15,60.339,15,58l-0.045-0.227c-0.603-3.013,0.213-6.136,2.213-8.469L20,46"/>
	</g>
	<g>
		<path style="fill:#74564A;" d="M47,44l5.496,4.397C55.343,50.674,57,54.122,57,57.767v0.061c0,2.089-1.527,3.955-3.607,4.153    C51.007,62.209,49,60.339,49,58l0.045-0.227c0.603-3.013-0.213-6.136-2.213-8.469L44,46"/>
	</g>
	<g>
		<circle style="fill:#F6C244;" cx="32" cy="26" r="24"/>
	</g>
	<g>
		<ellipse style="fill:#F8D859;" cx="30.5" cy="26" rx="22.5" ry="23.949"/>
	</g>
	<g>
		<path style="fill:#39474E;" d="M32,46L32,46c-6.627,0-12-5.373-12-12v0h24v0C44,40.627,38.627,46,32,46z"/>
	</g>
	<g>
		<polyline style="fill:#FFFFFF;" points="25,34 25,39 29,39 30,34   "/>
	</g>
	<g>
		<polyline style="fill:#FFFFFF;" points="33,46 33,41 36,40 38,44   "/>
	</g>
	<g>
		<circle style="fill:#FFFFFF;" cx="22" cy="20" r="8"/>
	</g>
	<g>
		<circle style="fill:#FFFFFF;" cx="42" cy="20" r="8"/>
	</g>
	<g>
		<circle style="fill:#39474E;" cx="22" cy="20" r="4"/>
	</g>
	<g>
		<circle style="fill:#39474E;" cx="42" cy="20" r="4"/>
	</g>
	<g>
		<path d="M32,47c-7.168,0-13-5.832-13-13c0-0.553,0.448-1,1-1h24c0.552,0,1,0.447,1,1C45,41.168,39.168,47,32,47z M21.045,35    C21.552,40.599,26.271,45,32,45s10.448-4.401,10.955-10H21.045z"/>
	</g>
	<g>
		<path d="M29,40h-4c-0.552,0-1-0.447-1-1v-5h2v4h2.18l0.839-4.196l1.961,0.393l-1,5C29.887,39.663,29.477,40,29,40z"/>
	</g>
	<g>
		<path d="M34,46h-2v-5c0-0.431,0.275-0.812,0.684-0.948l3-1c0.473-0.158,0.989,0.057,1.211,0.501l2,4l-1.789,0.895l-1.612-3.225    L34,41.721V46z"/>
	</g>
	<g>
		<path d="M10.989,63c-0.159,0-0.318-0.008-0.477-0.023C7.982,62.735,6,60.474,6,57.828c0-4.031,1.778-7.73,4.878-10.212    l5.497-4.397l1.249,1.562l-5.497,4.397C9.505,51.277,8,54.408,8,57.768c0,1.687,1.187,3.074,2.702,3.219    c0.859,0.072,1.682-0.191,2.315-0.766c0.602-0.547,0.957-1.318,0.981-2.129l-0.024-0.122c-0.667-3.338,0.22-6.733,2.435-9.316    l2.832-3.304l1.519,1.301l-2.832,3.304c-1.812,2.114-2.538,4.893-1.992,7.623l0.045,0.227C15.994,57.868,16,57.934,16,58    c0,1.405-0.597,2.755-1.637,3.7C13.44,62.539,12.232,63,10.989,63z"/>
	</g>
	<g>
		<path d="M53.011,63c-1.243,0-2.451-0.461-3.374-1.3C48.597,60.755,48,59.405,48,58c0-0.066,0.006-0.132,0.02-0.196l0.045-0.227    c0.546-2.73-0.18-5.509-1.992-7.623l-2.832-3.304l1.519-1.301l2.832,3.304c2.214,2.583,3.102,5.979,2.435,9.316l-0.024,0.122    c0.025,0.811,0.379,1.582,0.981,2.129c0.633,0.575,1.457,0.841,2.315,0.766C54.813,60.842,56,59.454,56,57.828    c0-3.42-1.505-6.551-4.128-8.649l-5.496-4.397l1.249-1.562l5.497,4.397C56.222,50.098,58,53.797,58,57.768    c0,2.706-1.982,4.968-4.512,5.209C53.329,62.992,53.169,63,53.011,63z"/>
	</g>
	<g>
		<path d="M32,51C18.215,51,7,39.785,7,26S18.215,1,32,1s25,11.215,25,25S45.785,51,32,51z M32,3C19.318,3,9,13.317,9,26    s10.318,23,23,23s23-10.317,23-23S44.682,3,32,3z"/>
	</g>
	<g>
		<path d="M22,29c-4.962,0-9-4.037-9-9s4.038-9,9-9s9,4.037,9,9S26.962,29,22,29z M22,13c-3.86,0-7,3.141-7,7s3.14,7,7,7    s7-3.141,7-7S25.86,13,22,13z"/>
	</g>
	<g>
		<path d="M42,25v-2c1.654,0,3-1.346,3-3s-1.346-3-3-3s-3,1.346-3,3h-2c0-2.757,2.243-5,5-5s5,2.243,5,5S44.757,25,42,25z"/>
	</g>
	<g>
		<path d="M42,29c-4.962,0-9-4.037-9-9s4.038-9,9-9s9,4.037,9,9S46.962,29,42,29z M42,13c-3.86,0-7,3.141-7,7s3.14,7,7,7    s7-3.141,7-7S45.86,13,42,13z"/>
	</g>
	<g>
		<path d="M22,25c-2.757,0-5-2.243-5-5s2.243-5,5-5s5,2.243,5,5h-2c0-1.654-1.346-3-3-3s-3,1.346-3,3s1.346,3,3,3V25z"/>
	</g>
</g>
</svg>
