<?xml version="1.0" encoding="iso-8859-1"?>
<!-- Generator: Adobe Illustrator 22.1.0, SVG Export Plug-In . SVG Version: 6.00 Build 0)  -->
<svg xmlns="http://www.w3.org/2000/svg" xmlns:xlink="http://www.w3.org/1999/xlink" version="1.1" id="Layer_3" x="0px" y="0px" viewBox="0 0 64 64" style="enable-background:new 0 0 64 64;" xml:space="preserve" width="512" height="512">
<g>
	<g>
		<path style="fill:#F6C244;" d="M45,42l0,0.065c0,4.651-0.756,9.246-1.86,13.764C43.049,56.204,43,56.596,43,57    c0,3.111,2.842,5.559,6.072,4.889c1.941-0.403,3.486-2.004,3.843-3.954c0.136-0.741,0.106-1.457-0.058-2.119    C51.834,51.68,51,47.5,51,43.241v-0.001c0-2.814,0.367-5.616,1.092-8.336l0.004-0.014C54.024,27.661,55,20.211,55,12.73v0    C55,6.804,50.196,2,44.27,2H19.73C13.804,2,9,6.804,9,12.73v0c0,7.481,0.976,14.93,2.904,22.159l0.307,1.149    C12.735,38.004,13,40.03,13,42.065v0c0,4.651-0.756,9.246-1.86,13.764C11.049,56.204,11,56.596,11,57    c0,3.111,2.842,5.559,6.072,4.889c1.941-0.403,3.486-2.004,3.843-3.954c0.136-0.741,0.106-1.457-0.058-2.119    C19.834,51.68,19,47.5,19,43.24L19,42c0-2.761,2.239-5,5-5s5,2.239,5,5v0.065c0,4.651-0.756,9.246-1.86,13.764    C27.049,56.204,27,56.596,27,57c0,2.761,2.239,5,5,5s5-2.239,5-5c0-0.404-0.049-0.796-0.14-1.171    C35.756,51.311,35,46.716,35,42.065V42c0-2.761,2.239-5,5-5S45,39.239,45,42z"/>
	</g>
	<g>
		<circle style="fill:#FFFFFF;" cx="32" cy="15" r="9"/>
	</g>
	<g>
		<polyline style="fill:#FFFFFF;" points="16,30 22,25 22,33   "/>
	</g>
	<g>
		<polyline style="fill:#FFFFFF;" points="48,30 42,25 42,33   "/>
	</g>
	<g>
		<circle style="fill:#39474E;" cx="32" cy="15" r="4"/>
	</g>
	<g>
		<path d="M32,63c-3.309,0-6-2.691-6-6c0-0.476,0.057-0.949,0.169-1.409C27.401,50.548,28,46.123,28,42.064    C28,39.794,26.206,38,24,38s-4,1.794-4,4v1.24c0,4.356,0.924,8.681,1.827,12.335c0.204,0.824,0.229,1.679,0.07,2.539    c-0.431,2.358-2.289,4.269-4.623,4.754c-1.807,0.372-3.652-0.066-5.06-1.213C10.808,60.51,10,58.813,10,57    c0-0.476,0.057-0.95,0.169-1.408C11.401,50.548,12,46.122,12,42.064c0-1.946-0.255-3.887-0.756-5.768l-0.307-1.149    C8.988,27.835,8,20.293,8,12.73C8,6.262,13.263,1,19.73,1H44.27C50.737,1,56,6.262,56,12.73c0,7.563-0.988,15.105-2.938,22.417    C52.356,37.795,52,40.513,52,43.239c0,4.357,0.924,8.682,1.827,12.336c0.204,0.824,0.229,1.679,0.07,2.539    c-0.431,2.358-2.289,4.269-4.623,4.754c-1.809,0.372-3.652-0.066-5.06-1.213C42.808,60.51,42,58.813,42,57    c0-0.476,0.057-0.95,0.169-1.408C43.401,50.548,44,46.122,44,42.064V42c0-2.206-1.794-4-4-4s-4,1.794-4,4    c0,4.123,0.599,8.548,1.831,13.591C37.943,56.051,38,56.524,38,57C38,60.309,35.309,63,32,63z M40,36c3.309,0,6,2.691,6,6v0.064    c0,4.22-0.617,8.8-1.888,14.002C44.038,56.37,44,56.685,44,57c0,1.209,0.538,2.34,1.478,3.104    c0.951,0.774,2.155,1.062,3.391,0.805c1.545-0.32,2.775-1.589,3.062-3.154c0.105-0.58,0.091-1.151-0.045-1.699    C50.953,52.284,50,47.812,50,43.24c0-2.901,0.379-5.793,1.127-8.595C53.034,27.488,54,20.119,54,12.73C54,7.365,49.635,3,44.27,3    H19.73C14.365,3,10,7.365,10,12.73c0,7.389,0.966,14.758,2.869,21.902l0.307,1.149C13.723,37.83,14,39.944,14,42.064    c0,4.22-0.617,8.8-1.888,14.002C12.038,56.37,12,56.685,12,57c0,1.209,0.538,2.34,1.478,3.104    c0.952,0.774,2.154,1.062,3.391,0.805c1.545-0.32,2.775-1.589,3.062-3.154c0.105-0.58,0.091-1.151-0.045-1.699    C18.953,52.284,18,47.812,18,43.24V42c0-3.309,2.691-6,6-6s6,2.691,6,6c0,4.285-0.617,8.864-1.888,14.065    C28.038,56.37,28,56.685,28,57c0,2.206,1.794,4,4,4s4-1.794,4-4c0-0.315-0.038-0.63-0.112-0.935    C34.617,50.864,34,46.285,34,42.064C34,38.691,36.691,36,40,36z"/>
	</g>
	<g>
		<path d="M32,25c-5.514,0-10-4.486-10-10S26.486,5,32,5s10,4.486,10,10S37.514,25,32,25z M32,7c-4.411,0-8,3.589-8,8s3.589,8,8,8    s8-3.589,8-8S36.411,7,32,7z"/>
	</g>
	<g>
		<path d="M32,20c-2.757,0-5-2.243-5-5s2.243-5,5-5s5,2.243,5,5S34.757,20,32,20z M32,12c-1.654,0-3,1.346-3,3s1.346,3,3,3    s3-1.346,3-3S33.654,12,32,12z"/>
	</g>
	<g>
		<path d="M32.822,35h-1.645c-6.191,0-12.239-1.734-17.49-5.016l-0.217-0.135l1.059-1.697l0.218,0.136    C19.681,31.371,25.361,33,31.178,33h1.645c5.816,0,11.497-1.629,16.43-4.712l0.219-0.136l1.059,1.697l-0.218,0.136    C45.062,33.266,39.014,35,32.822,35z"/>
	</g>
	<g>
		<path d="M23,33h-2v-5.865l-4.359,3.633l-1.281-1.536l6-5c0.3-0.248,0.717-0.3,1.064-0.138C22.775,24.259,23,24.612,23,25V33z"/>
	</g>
	<g>
		<path d="M43,33h-2v-8c0-0.388,0.225-0.741,0.576-0.906c0.351-0.164,0.766-0.111,1.064,0.138l6,5l-1.281,1.536L43,27.135V33z"/>
	</g>
</g>
</svg>
