<?xml version="1.0" encoding="iso-8859-1"?>
<!-- Generator: Adobe Illustrator 22.1.0, SVG Export Plug-In . SVG Version: 6.00 Build 0)  -->
<svg xmlns="http://www.w3.org/2000/svg" xmlns:xlink="http://www.w3.org/1999/xlink" version="1.1" id="Layer_3" x="0px" y="0px" viewBox="0 0 64 64" style="enable-background:new 0 0 64 64;" xml:space="preserve" width="512" height="512">
<g>
	<g>
		<path style="fill:#429488;" d="M52,19l7.163,12.178C61.021,34.335,62,37.932,62,41.595v0c0,2.2-0.771,4.331-2.18,6.021l0,0    C58.033,49.76,55.386,51,52.595,51H52"/>
	</g>
	<g>
		<path style="fill:#2C665C;" d="M52.595,51c2.791,0,5.438-1.24,7.225-3.384v0c1.101-1.321,1.806-2.911,2.064-4.593L52,45v6H52.595z    "/>
	</g>
	<g>
		<path style="fill:#429488;" d="M12,19L4.837,31.178C2.979,34.335,2,37.932,2,41.595v0c0,2.2,0.771,4.331,2.18,6.021l0,0    C5.967,49.76,8.614,51,11.405,51H12"/>
	</g>
	<g>
		<path style="fill:#2C665C;" d="M12,51v-6l-9.884-1.977c0.259,1.681,0.964,3.272,2.064,4.593v0C5.967,49.76,8.614,51,11.405,51H12z    "/>
	</g>
	<g>
		<path style="fill:#53BAD1;" d="M37.939,48.427c0,0-1,6.998-1,6.997C36.353,56.121,36,57.019,36,58v4h16V7l-1.132-0.566    C45.036,3.518,38.605,2,32.085,2h-0.17c-6.52,0-12.951,1.518-18.783,4.434L12,7v55h16v-4c0-0.981-0.353-1.88-0.939-2.575    c0,0-0.774-5.418-1-6.997C27.863,49.454,29.909,50,32,50h0C34.091,50,36.137,49.454,37.939,48.427z"/>
	</g>
	<g>
		<path style="fill:#657B88;" d="M16,54L16,54c-2.209,0-4,1.791-4,4v4h8v-4C20,55.791,18.209,54,16,54z"/>
	</g>
	<g>
		<path style="fill:#657B88;" d="M24,54L24,54c-2.209,0-4,1.791-4,4v4h8v-4C28,55.791,26.209,54,24,54z"/>
	</g>
	<g>
		<path style="fill:#657B88;" d="M40,54L40,54c-2.209,0-4,1.791-4,4v4h8v-4C44,55.791,42.209,54,40,54z"/>
	</g>
	<g>
		<path style="fill:#657B88;" d="M48,54L48,54c-2.209,0-4,1.791-4,4v4h8v-4C52,55.791,50.209,54,48,54z"/>
	</g>
	<g>
		<path style="fill:#657B88;" d="M52,34L52,34c-3.279,3.279-7.34,5.669-11.799,6.943L40,41l1-7l-0.769,1.076    C37.492,38.912,33.532,41.705,29,43l0,0l2-8l-2.382,2.041C25.597,39.631,21.925,41.346,18,42h0l2-7l-2.657,2.126    C15.826,38.339,13.942,39,12,39h0V18l0.766-1.148C14.895,13.657,17.708,10.975,21,9l0,0v6l0.279-0.418    C23.717,10.924,27.068,7.966,31,6l0,0v7l0,0c3.3-2.64,7.093-4.598,11.157-5.759L43,7l-3,7l2.404-1.03    C45.436,11.67,48.701,11,52,11h0V34z"/>
	</g>
	<g>
		<circle style="fill:#FFFFFF;" cx="24" cy="24" r="6"/>
	</g>
	<g>
		<circle style="fill:#FFFFFF;" cx="40" cy="24" r="6"/>
	</g>
	<g>
		<circle style="fill:#39474E;" cx="25" cy="24" r="2"/>
	</g>
	<g>
		<circle style="fill:#39474E;" cx="41" cy="24" r="2"/>
	</g>
	<g>
		<path d="M21,62h-2v-4c0-1.654-1.346-3-3-3s-3,1.346-3,3h-2c0-2.757,2.243-5,5-5s5,2.243,5,5V62z"/>
	</g>
	<g>
		<path d="M45,62h-2v-4c0-2.757,2.243-5,5-5s5,2.243,5,5h-2c0-1.654-1.346-3-3-3s-3,1.346-3,3V62z"/>
	</g>
	<g>
		<path d="M52,63H36c-0.552,0-1-0.448-1-1v-4c0-2.757,2.243-5,5-5s5,2.243,5,5h-2c0-1.654-1.346-3-3-3s-3,1.346-3,3v3h14V7.618    l-0.579-0.29C44.757,4.497,38.417,3,32.085,3h-0.17c-6.332,0-12.672,1.497-18.336,4.329L13,7.618V61h14v-3c0-1.654-1.346-3-3-3    s-3,1.346-3,3h-2c0-2.757,2.243-5,5-5s5,2.243,5,5v4c0,0.552-0.448,1-1,1H12c-0.552,0-1-0.448-1-1V7    c0-0.379,0.214-0.725,0.553-0.895l1.132-0.566C18.625,2.57,25.274,1,31.915,1h0.17c6.641,0,13.291,1.57,19.23,4.54l1.132,0.566    C52.786,6.275,53,6.621,53,7v55C53,62.552,52.552,63,52,63z"/>
	</g>
	<g>
		<path d="M25,27c-1.654,0-3-1.346-3-3s1.346-3,3-3s3,1.346,3,3S26.654,27,25,27z M25,23c-0.551,0-1,0.449-1,1s0.449,1,1,1    s1-0.449,1-1S25.551,23,25,23z"/>
	</g>
	<g>
		<path d="M24,31c-3.86,0-7-3.14-7-7s3.14-7,7-7s7,3.14,7,7S27.86,31,24,31z M24,19c-2.757,0-5,2.243-5,5s2.243,5,5,5s5-2.243,5-5    S26.757,19,24,19z"/>
	</g>
	<g>
		<path d="M41,27c-1.654,0-3-1.346-3-3s1.346-3,3-3s3,1.346,3,3S42.654,27,41,27z M41,23c-0.551,0-1,0.449-1,1s0.449,1,1,1    s1-0.449,1-1S41.551,23,41,23z"/>
	</g>
	<g>
		<path d="M40,31c-3.86,0-7-3.14-7-7s3.14-7,7-7s7,3.14,7,7S43.86,31,40,31z M40,19c-2.757,0-5,2.243-5,5s2.243,5,5,5s5-2.243,5-5    S42.757,19,40,19z"/>
	</g>
	<g>
		<path d="M12.832,18.555l-1.664-1.109l0.766-1.148c2.198-3.297,5.155-6.117,8.552-8.154c0.309-0.186,0.694-0.191,1.007-0.013    C21.806,8.307,22,8.64,22,9v2.932c2.334-2.841,5.251-5.175,8.553-6.826c0.31-0.154,0.678-0.138,0.973,0.044    C31.82,5.332,32,5.653,32,6v4.999c3.007-2.118,6.323-3.702,9.882-4.719l0.844-0.241c0.37-0.107,0.77,0.01,1.025,0.301    c0.255,0.29,0.321,0.7,0.168,1.055l-2.015,4.702l0.106-0.045C45.185,10.69,48.545,10,52,10v2c-3.182,0-6.278,0.636-9.202,1.889    l-2.404,1.03c-0.375,0.161-0.811,0.077-1.101-0.212c-0.289-0.289-0.373-0.725-0.212-1.101l2.159-5.038    c-3.497,1.151-6.726,2.901-9.615,5.212c-0.3,0.24-0.712,0.287-1.058,0.121C30.22,13.735,30,13.384,30,13V7.681    c-3.15,1.854-5.856,4.406-7.889,7.456l-0.279,0.418c-0.245,0.367-0.701,0.531-1.122,0.402C20.289,15.83,20,15.441,20,15v-4.156    c-2.51,1.769-4.702,4.012-6.402,6.562L12.832,18.555z"/>
	</g>
	<g>
		<path d="M29,44c-0.256,0-0.506-0.098-0.695-0.281c-0.257-0.249-0.361-0.615-0.275-0.961l1.239-4.957    c-3.159,2.708-6.999,4.501-11.104,5.186c-0.342,0.058-0.683-0.064-0.911-0.32c-0.229-0.256-0.31-0.611-0.215-0.941l1.139-3.986    l-0.21,0.168C16.28,39.257,14.16,40,12,40v-2c1.708,0,3.384-0.588,4.718-1.655l2.657-2.126c0.339-0.272,0.817-0.292,1.179-0.052    c0.362,0.241,0.527,0.689,0.407,1.107l-1.546,5.412c3.149-0.779,6.079-2.285,8.552-4.405l2.382-2.042    c0.331-0.284,0.807-0.32,1.177-0.091s0.55,0.671,0.444,1.093l-1.558,6.229c3.6-1.392,6.753-3.824,9.005-6.977l0.768-1.076    c0.269-0.375,0.758-0.519,1.186-0.347c0.428,0.171,0.683,0.613,0.618,1.07l-0.776,5.435c3.784-1.296,7.247-3.451,10.08-6.284    l1.414,1.414c-3.391,3.391-7.62,5.879-12.231,7.197l-0.201,0.058c-0.326,0.093-0.676,0.015-0.933-0.208    c-0.255-0.223-0.381-0.56-0.333-0.896l0.464-3.252c-2.728,3.012-6.274,5.233-10.2,6.355C29.184,43.987,29.092,44,29,44z"/>
	</g>
	<g>
		<path d="M12,52h-0.595c-3.097,0-6.011-1.365-7.994-3.744C1.856,46.39,1,44.024,1,41.595c0-3.838,1.029-7.616,2.975-10.924    l7.163-12.178l1.724,1.014L5.699,31.685C3.933,34.686,3,38.113,3,41.595c0,1.962,0.692,3.874,1.948,5.381    C6.55,48.897,8.903,50,11.405,50H12V52z"/>
	</g>
	<g>
		<rect x="6" y="38.901" transform="matrix(0.1961 -0.9806 0.9806 0.1961 -37.5184 42.235)" width="2" height="10.198"/>
	</g>
	<g>
		<path d="M52.595,52H52v-2h0.595c2.502,0,4.855-1.103,6.458-3.024C60.308,45.468,61,43.557,61,41.595    c0-3.482-0.933-6.909-2.699-9.91l-7.163-12.178l1.724-1.014l7.163,12.178C61.971,33.979,63,37.756,63,41.595    c0,2.429-0.856,4.795-2.412,6.661C58.605,50.635,55.692,52,52.595,52z"/>
	</g>
	<g>
		<rect x="51.901" y="43" transform="matrix(0.9805 -0.1963 0.1963 0.9805 -7.5283 12.0454)" width="10.198" height="2"/>
	</g>
	<g>
		<path d="M32,51c-2.794,0-5.564-0.923-7.8-2.6l-0.8-0.6l1.2-1.6l0.8,0.6c1.892,1.418,4.236,2.2,6.6,2.2s4.708-0.781,6.6-2.2    l0.8-0.6l1.2,1.6l-0.8,0.6C37.564,50.077,34.794,51,32,51z"/>
	</g>
	<g>
		<rect x="25.53" y="47.962" transform="matrix(0.99 -0.1414 0.1414 0.99 -7.0457 4.2711)" width="2" height="7.5"/>
	</g>
	<g>
		<rect x="33.72" y="50.713" transform="matrix(0.1416 -0.9899 0.9899 0.1416 -19.0281 81.4806)" width="7.5" height="2"/>
	</g>
</g>
</svg>
