<?xml version="1.0" encoding="iso-8859-1"?>
<!-- Generator: Adobe Illustrator 22.1.0, SVG Export Plug-In . SVG Version: 6.00 Build 0)  -->
<svg xmlns="http://www.w3.org/2000/svg" xmlns:xlink="http://www.w3.org/1999/xlink" version="1.1" id="Layer_3" x="0px" y="0px" viewBox="0 0 64 64" style="enable-background:new 0 0 64 64;" xml:space="preserve" width="512" height="512">
<g>
	<g>
		<path style="fill:#429488;" d="M37,49l-2,8c0,2.761,2.239,5,5,5s5-2.239,5-5V41.935c0-7.704,4.479-14.617,11.378-18.043    C59.916,22.134,62,19.828,62,17C62,9.82,48.569,2,32,2S2,9.82,2,17c0,2.828,2.084,5.134,5.622,6.892    C14.521,27.319,19,34.232,19,41.935V57c0,2.761,2.239,5,5,5s5-2.239,5-5l-2-8c0-2.761,2.239-5,5-5S37,46.239,37,49z"/>
	</g>
	<g>
		<path style="fill:#2C665C;" d="M35,57c0,2.761,2.239,5,5,5s5-2.239,5-5v-1h-9.75L35,57z"/>
	</g>
	<g>
		<path style="fill:#2C665C;" d="M24,62c2.761,0,5-2.239,5-5l-0.25-1H19v1C19,59.761,21.239,62,24,62z"/>
	</g>
	<g>
		<path style="fill:#B63830;" d="M32,40L32,40c-4.418,0-8-3.582-8-8v-8h16v8C40,36.418,36.418,40,32,40z"/>
	</g>
	<g>
		<circle style="fill:#FFFFFF;" cx="16" cy="16" r="7"/>
	</g>
	<g>
		<circle style="fill:#FFFFFF;" cx="48" cy="16" r="7"/>
	</g>
	<g>
		<polyline style="fill:#FFFFFF;" points="27,24 28,30 36,30 37,24   "/>
	</g>
	<g>
		<polyline style="fill:#FFFFFF;" points="25,36 27,33 30,34 29,40   "/>
	</g>
	<g>
		<polyline style="fill:#FFFFFF;" points="39,36 37,33 34,34 35,40   "/>
	</g>
	<g>
		<circle style="fill:#39474E;" cx="16" cy="16" r="3"/>
	</g>
	<g>
		<circle style="fill:#39474E;" cx="48" cy="16" r="3"/>
	</g>
	<g>
		<path d="M40,63c-3.309,0-6-2.691-6-6c0-0.082,0.01-0.163,0.03-0.242l1.969-7.874C35.937,46.731,34.167,45,32,45    s-3.937,1.731-3.999,3.884l1.969,7.874C29.99,56.837,30,56.918,30,57c0,3.309-2.691,6-6,6s-6-2.691-6-6V41.936    c0-7.262-4.147-13.833-10.823-17.148C2.072,22.252,1,19.153,1,17C1,9.447,14.257,1,32,1s31,8.447,31,16    c0,2.153-1.072,5.252-6.177,7.787C50.147,28.103,46,34.674,46,41.936V57C46,60.309,43.309,63,40,63z M36.001,57.116    C36.063,59.269,37.833,61,40,61c2.206,0,4-1.794,4-4V41.936c0-8.026,4.572-15.284,11.933-18.939C59.295,21.327,61,19.31,61,17    C61,9.245,45.135,3,32,3S3,9.245,3,17c0,2.31,1.705,4.327,5.067,5.996C15.428,26.651,20,33.909,20,41.936V57c0,2.206,1.794,4,4,4    c2.167,0,3.937-1.731,3.999-3.884l-1.969-7.874C26.01,49.163,26,49.082,26,49c0-3.309,2.691-6,6-6s6,2.691,6,6    c0,0.082-0.01,0.163-0.03,0.242L36.001,57.116z"/>
	</g>
	<g>
		<path d="M16,24c-4.411,0-8-3.589-8-8s3.589-8,8-8s8,3.589,8,8S20.411,24,16,24z M16,10c-3.309,0-6,2.691-6,6s2.691,6,6,6    s6-2.691,6-6S19.309,10,16,10z"/>
	</g>
	<g>
		<path d="M16,20c-2.206,0-4-1.794-4-4s1.794-4,4-4s4,1.794,4,4h-2c0-1.103-0.897-2-2-2s-2,0.897-2,2s0.897,2,2,2V20z"/>
	</g>
	<g>
		<path d="M48,24c-4.411,0-8-3.589-8-8s3.589-8,8-8s8,3.589,8,8S52.411,24,48,24z M48,10c-3.309,0-6,2.691-6,6s2.691,6,6,6    s6-2.691,6-6S51.309,10,48,10z"/>
	</g>
	<g>
		<path d="M48,20v-2c1.103,0,2-0.897,2-2s-0.897-2-2-2s-2,0.897-2,2h-2c0-2.206,1.794-4,4-4s4,1.794,4,4S50.206,20,48,20z"/>
	</g>
	<g>
		<path d="M32,41c-4.962,0-9-4.037-9-9v-8c0-0.553,0.448-1,1-1h16c0.552,0,1,0.447,1,1v8C41,36.963,36.962,41,32,41z M25,25v7    c0,3.859,3.14,7,7,7s7-3.141,7-7v-7H25z"/>
	</g>
	<g>
		<path d="M36,31h-8c-0.489,0-0.906-0.354-0.986-0.836l-1-6l1.973-0.328L28.847,29h6.306l0.861-5.164l1.973,0.328l-1,6    C36.906,30.646,36.489,31,36,31z"/>
	</g>
	<g>
		<rect x="31" y="24" width="2" height="6"/>
	</g>
	<g>
		<path d="M29.986,40.164l-1.973-0.328l0.859-5.157l-1.465-0.488l-1.576,2.364l-1.664-1.109l2-3c0.25-0.376,0.719-0.537,1.148-0.394    l3,1c0.467,0.155,0.751,0.627,0.67,1.112L29.986,40.164z"/>
	</g>
	<g>
		<path d="M34.014,40.164l-1-6c-0.081-0.485,0.203-0.957,0.67-1.112l3-1c0.428-0.144,0.898,0.018,1.148,0.394l2,3l-1.664,1.109    l-1.576-2.364l-1.465,0.488l0.859,5.157L34.014,40.164z"/>
	</g>
	<g>
		<rect x="19" y="55" width="10" height="2"/>
	</g>
	<g>
		<rect x="23" y="56" width="2" height="6"/>
	</g>
	<g>
		<rect x="35" y="55" width="10" height="2"/>
	</g>
	<g>
		<rect x="39" y="56" width="2" height="6"/>
	</g>
</g>
</svg>
