<?xml version="1.0" encoding="iso-8859-1"?>
<!-- Generator: Adobe Illustrator 22.1.0, SVG Export Plug-In . SVG Version: 6.00 Build 0)  -->
<svg xmlns="http://www.w3.org/2000/svg" xmlns:xlink="http://www.w3.org/1999/xlink" version="1.1" id="Layer_3" x="0px" y="0px" viewBox="0 0 64 64" style="enable-background:new 0 0 64 64;" xml:space="preserve" width="512" height="512">
<g>
	<g>
		<path style="fill:#457B3A;" d="M42.013,22H52c5.523,0,10,4.477,10,10h-2c-0.64,0-1.254-0.254-1.707-0.707l-0.586-0.586    C57.254,30.254,56.64,30,56,30s-1.254,0.254-1.707,0.707l-0.586,0.586C53.254,31.746,52.64,32,52,32s-1.254-0.254-1.707-0.707    l-0.586-0.586C49.254,30.254,48.64,30,48,30s-1.254,0.254-1.707,0.707L45,32h-0.143l-0.186-0.326    C42.984,28.722,42.077,25.395,42.013,22z"/>
	</g>
	<g>
		<path style="fill:#67AC5B;" d="M43.858,30.069c-0.152-0.334-0.298-0.67-0.432-1.011c-0.044-0.111-0.085-0.223-0.127-0.335    c-0.134-0.361-0.259-0.725-0.373-1.093c-0.027-0.088-0.056-0.176-0.082-0.265c-0.123-0.417-0.232-0.839-0.329-1.263    c-0.008-0.034-0.017-0.068-0.025-0.102H52c2.932,0,5.365,2.107,5.888,4.888l-0.181-0.181C57.254,30.254,56.64,30,56,30    s-1.254,0.254-1.707,0.707l-0.586,0.586C53.254,31.746,52.64,32,52,32s-1.254-0.254-1.707-0.707l-0.586-0.586    C49.254,30.254,48.64,30,48,30s-1.254,0.254-1.707,0.707L45,32h-0.143l-0.186-0.326c-0.237-0.416-0.456-0.84-0.662-1.27    C43.956,30.293,43.909,30.18,43.858,30.069z"/>
	</g>
	<g>
		<path style="fill:#457B3A;" d="M21.987,22H12C6.477,22,2,26.477,2,32h2c0.64,0,1.254-0.254,1.707-0.707l0.586-0.586    C6.746,30.254,7.36,30,8,30s1.254,0.254,1.707,0.707l0.586,0.586C10.746,31.746,11.36,32,12,32s1.254-0.254,1.707-0.707    l0.586-0.586C14.746,30.254,15.36,30,16,30s1.254,0.254,1.707,0.707L19,32h0.143l0.186-0.326    C21.016,28.722,21.923,25.395,21.987,22z"/>
	</g>
	<g>
		<path style="fill:#67AC5B;" d="M20.142,30.069c0.152-0.334,0.298-0.67,0.432-1.011c0.044-0.111,0.085-0.223,0.127-0.335    c0.134-0.361,0.259-0.725,0.373-1.093c0.027-0.088,0.056-0.176,0.082-0.265c0.123-0.417,0.232-0.839,0.329-1.263    c0.008-0.034,0.017-0.068,0.025-0.102H12c-2.932,0-5.365,2.107-5.888,4.888l0.181-0.181C6.746,30.254,7.36,30,8,30    s1.254,0.254,1.707,0.707l0.586,0.586C10.746,31.746,11.36,32,12,32s1.254-0.254,1.707-0.707l0.586-0.586    C14.746,30.254,15.36,30,16,30s1.254,0.254,1.707,0.707L19,32h0.143l0.186-0.326c0.237-0.416,0.456-0.84,0.662-1.27    C20.044,30.293,20.091,30.18,20.142,30.069z"/>
	</g>
	<g>
		<path style="fill:#28388E;" d="M44.671,31.674l2.658,4.652C49.079,39.389,50,42.856,50,46.383v0c0,4.91-1.782,9.653-5.016,13.349    L43,62h-8l0.641-3.207C35.88,57.6,36,56.388,36,55.172v0c0-1.935-1.294-3.722-3.193-4.093C30.244,50.578,28,52.527,28,55v0.172    c0,1.216,0.12,2.429,0.359,3.621L29,62h-8l-1.984-2.268C15.782,56.037,14,51.294,14,46.383v0c0-3.528,0.921-6.994,2.671-10.057    l2.658-4.652C21.079,28.611,22,25.144,22,21.617V19v-6.657c0-5.326,4.019-9.977,9.334-10.321C37.159,1.645,42,6.257,42,12v7v2.617    C42,25.144,42.921,28.611,44.671,31.674z"/>
	</g>
	<g>
		<path style="fill:#2C67BA;" d="M47,46.383L47,46.383c0-3.528-0.921-6.995-2.671-10.057l-2.658-4.652    C39.921,28.611,39,25.144,39,21.617V19v-7c0-5.007-3.681-9.152-8.484-9.883C25.613,2.859,22,7.294,22,12.343V19v2.617    c0,3.528-0.921,6.994-2.671,10.057l-2.658,4.652C14.921,39.389,14,42.856,14,46.383v0c0,4.91,1.782,9.653,5.016,13.349L21,62h5    l-0.641-3.207C25.12,57.6,25,56.388,25,55.172V55c0-2.473,2.244-4.422,4.807-3.921c0.244,0.048,0.477,0.12,0.7,0.212    c0.692-0.279,1.479-0.372,2.3-0.212C34.706,51.45,36,53.237,36,55.172c0,1.216-0.12,2.428-0.359,3.621L35,62h5l1.984-2.268    C45.218,56.037,47,51.294,47,46.383z"/>
	</g>
	<g>
		<path style="fill:#39474E;" d="M42,35H22v2c0,5.523,4.477,10,10,10h0c5.523,0,10-4.477,10-10V35z"/>
	</g>
	<g>
		<polyline style="fill:#FFFFFF;" points="42,35 37,41 35,35 32,40 29,35 27,41 22,35   "/>
	</g>
	<g>
		<polyline style="fill:#FFFFFF;" points="29,47 30,43 34,43 35,47   "/>
	</g>
	<g>
		<path style="fill:#FFFFFF;" d="M37,11c-1.657,0-3-1.343-3-3c0-0.546,0.157-1.051,0.412-1.492C33.673,6.183,32.859,6,32,6    c-3.314,0-6,2.686-6,6s2.686,6,6,6s6-2.686,6-6c0-0.393-0.04-0.777-0.113-1.149C37.605,10.939,37.311,11,37,11z"/>
	</g>
	<g>
		<circle style="fill:#657B88;" cx="32" cy="12" r="2"/>
	</g>
	<g>
		<path d="M32,19c-3.86,0-7-3.14-7-7s3.14-7,7-7c0.974,0,1.921,0.2,2.815,0.593c0.26,0.114,0.459,0.334,0.547,0.604    c0.088,0.27,0.057,0.565-0.085,0.811C35.093,7.327,35,7.661,35,8c0,1.103,0.897,2,2,2c0.175,0,0.363-0.033,0.59-0.104    c0.272-0.084,0.566-0.049,0.81,0.096c0.244,0.146,0.415,0.389,0.469,0.668C38.956,11.108,39,11.559,39,12C39,15.86,35.86,19,32,19    z M32,7c-2.757,0-5,2.243-5,5s2.243,5,5,5s5-2.243,5-5c-2.206,0-4-1.794-4-4c0-0.297,0.034-0.59,0.101-0.877    C32.741,7.041,32.373,7,32,7z"/>
	</g>
	<g>
		<path d="M32,48c-6.065,0-11-4.935-11-11v-2c0-0.552,0.448-1,1-1h20c0.552,0,1,0.448,1,1v2C43,43.065,38.065,48,32,48z M23,36v1    c0,4.962,4.038,9,9,9s9-4.038,9-9v-1H23z"/>
	</g>
	<g>
		<path d="M43,63h-8c-0.3,0-0.583-0.134-0.773-0.366c-0.19-0.231-0.266-0.536-0.207-0.83l0.642-3.208    C34.886,57.471,35,56.319,35,55.172c0-1.508-1.025-2.846-2.385-3.111c-0.917-0.179-1.814,0.042-2.521,0.622    C29.399,53.255,29,54.1,29,55v0.172c0,1.147,0.114,2.299,0.339,3.425l0.642,3.207c0.059,0.294-0.017,0.599-0.207,0.83    C29.583,62.866,29.3,63,29,63h-8c-0.289,0-0.562-0.125-0.752-0.341l-1.984-2.268C14.869,56.512,13,51.537,13,46.383    c0-3.696,0.969-7.346,2.803-10.553l2.658-4.652C20.122,28.271,21,24.965,21,21.617v-9.274c0-5.974,4.511-10.946,10.27-11.319    c3.076-0.205,6.009,0.848,8.251,2.95C41.732,6.045,43,8.971,43,12v9.617c0,3.349,0.878,6.655,2.539,9.561l0,0l2.658,4.652    C50.031,39.038,51,42.687,51,46.383c0,5.154-1.869,10.128-5.263,14.007l-1.984,2.268C43.562,62.875,43.289,63,43,63z M36.22,61    h6.327l1.686-1.927C47.307,55.56,49,51.053,49,46.383c0-3.349-0.878-6.655-2.539-9.561l-2.658-4.652    C41.969,28.962,41,25.313,41,21.617V12c0-2.515-1.011-4.847-2.847-6.568c-1.833-1.719-4.229-2.578-6.754-2.413    C26.689,3.324,23,7.419,23,12.342v9.274c0,3.696-0.969,7.346-2.803,10.553l-2.658,4.652C15.878,39.729,15,43.035,15,46.383    c0,4.669,1.693,9.176,4.768,12.69L21.454,61h6.327l-0.402-2.011C27.127,57.734,27,56.451,27,55.172V55    c0-1.5,0.665-2.907,1.823-3.861s2.681-1.331,4.176-1.041C35.317,50.551,37,52.685,37,55.172c0,1.279-0.127,2.562-0.378,3.816    L36.22,61z"/>
	</g>
	<g>
		<path d="M32,15c-1.654,0-3-1.346-3-3s1.346-3,3-3s3,1.346,3,3S33.654,15,32,15z M32,11c-0.551,0-1,0.449-1,1s0.449,1,1,1    s1-0.449,1-1S32.551,11,32,11z"/>
	</g>
	<g>
		<path d="M37,42c-0.062,0-0.124-0.006-0.186-0.018c-0.356-0.067-0.648-0.322-0.763-0.666l-1.312-3.938l-1.881,3.136    c-0.361,0.603-1.354,0.603-1.715,0l-1.881-3.136l-1.312,3.938c-0.115,0.344-0.407,0.599-0.763,0.666    c-0.359,0.067-0.722-0.063-0.954-0.342l-5-6l1.536-1.28l3.851,4.621l1.432-4.297c0.124-0.37,0.452-0.635,0.84-0.678    c0.384-0.044,0.765,0.145,0.966,0.479L32,38.056l2.143-3.571c0.201-0.335,0.582-0.523,0.966-0.479    c0.388,0.042,0.716,0.308,0.84,0.678l1.432,4.297l3.851-4.621l1.536,1.28l-5,6C37.576,41.871,37.293,42,37,42z"/>
	</g>
	<g>
		<path d="M34.03,47.243L33.219,44h-2.438l-0.811,3.243l-1.94-0.485l1-4C29.141,42.312,29.541,42,30,42h4    c0.459,0,0.859,0.312,0.97,0.757l1,4L34.03,47.243z"/>
	</g>
	<g>
		<path d="M12,33c-0.912,0-1.77-0.355-2.414-1L9,31.414c-0.526-0.526-1.474-0.526-2,0L6.414,32C5.77,32.645,4.912,33,4,33H2    c-0.552,0-1-0.448-1-1c0-6.065,4.935-11,11-11h10v2H12c-4.625,0-8.446,3.506-8.945,8H4c0.372,0,0.737-0.151,1-0.414L5.586,30    c1.289-1.29,3.539-1.29,4.828,0L11,30.586c0.526,0.526,1.474,0.526,2,0L13.586,30c1.289-1.29,3.539-1.29,4.828,0l1.293,1.293    l-1.414,1.414L17,31.414c-0.526-0.526-1.474-0.526-2,0L14.414,32C13.77,32.645,12.912,33,12,33z"/>
	</g>
	<g>
		<path d="M7.069,31.166l-1.973-0.331C5.664,27.454,8.567,25,12,25h10v2H12C9.548,27,7.474,28.752,7.069,31.166z"/>
	</g>
	<g>
		<path d="M62,33h-2c-0.912,0-1.77-0.355-2.414-1L57,31.414c-0.526-0.526-1.474-0.526-2,0L54.414,32c-1.289,1.29-3.539,1.29-4.828,0    L49,31.414c-0.526-0.526-1.474-0.526-2,0l-1.293,1.293l-1.414-1.414L45.586,30c1.289-1.29,3.539-1.29,4.828,0L51,30.586    c0.526,0.526,1.474,0.526,2,0L53.586,30c1.289-1.29,3.539-1.29,4.828,0L59,30.586C59.263,30.849,59.628,31,60,31h0.945    c-0.499-4.494-4.32-8-8.945-8H42v-2h10c6.065,0,11,4.935,11,11C63,32.552,62.552,33,62,33z"/>
	</g>
	<g>
		<path d="M56.931,31.166C56.526,28.752,54.452,27,52,27H42v-2h10c3.433,0,6.336,2.454,6.903,5.834L56.931,31.166z"/>
	</g>
	<g>
		<rect x="23.5" y="57.938" transform="matrix(0.9701 -0.2425 0.2425 0.9701 -13.8206 7.7336)" width="2" height="4.123"/>
	</g>
	<g>
		<rect x="37.438" y="59" transform="matrix(0.2427 -0.9701 0.9701 0.2427 -28.2915 83.7605)" width="4.123" height="2"/>
	</g>
</g>
</svg>
