<?xml version="1.0" encoding="iso-8859-1"?>
<!-- Generator: Adobe Illustrator 22.1.0, SVG Export Plug-In . SVG Version: 6.00 Build 0)  -->
<svg xmlns="http://www.w3.org/2000/svg" xmlns:xlink="http://www.w3.org/1999/xlink" version="1.1" id="Layer_3" x="0px" y="0px" viewBox="0 0 64 64" style="enable-background:new 0 0 64 64;" xml:space="preserve" width="512" height="512">
<g>
	<g>
		<path style="fill:#2C665C;" d="M46.049,36.149c0.622-0.4,1.21-0.826,1.761-1.276c0,0,0.192,0.128,0.192,0.128    C51.749,37.499,54,41.705,54,46.209V48l-6.698,4.784c0.024-0.091,0.047-0.181,0.07-0.272L48,50v-1.675    C48,44.188,47.341,40.078,46.049,36.149z"/>
	</g>
	<g>
		<path style="fill:#429488;" d="M54,47h-6.026C47.989,47.441,48,47.883,48,48.325V50l-0.628,2.512    c-0.023,0.091-0.046,0.182-0.07,0.272L54,48V47z"/>
	</g>
	<g>
		<path style="fill:#2C665C;" d="M17.95,36.148c-0.621-0.4-1.209-0.826-1.759-1.275c0,0-0.192,0.128-0.192,0.128    C12.251,37.499,10,41.705,10,46.209V48l6.698,4.784c-0.024-0.091-0.047-0.181-0.07-0.272L16,50v-1.675    c0-4.137,0.659-8.247,1.951-12.176L17.95,36.148z"/>
	</g>
	<g>
		<path style="fill:#429488;" d="M16.628,52.512L16,50v-1.675c0-0.442,0.011-0.883,0.026-1.325H10v1l6.698,4.784    C16.674,52.694,16.651,52.603,16.628,52.512z"/>
	</g>
	<g>
		<path style="fill:#612694;" d="M46,36L46,36c1.325,3.974,2,8.136,2,12.325V50l-0.628,2.512C46.474,56.103,44.617,59.383,42,62l0,0    l0,0c-2.596-1.298-4.702-3.404-6-6l0,0h-8l0,0c-1.298,2.596-3.404,4.702-6,6l0,0l0,0c-2.617-2.617-4.474-5.897-5.372-9.488L16,50    v-1.675c0-4.189,0.675-8.351,2-12.325l0,0"/>
	</g>
	<g>
		<path style="fill:#9037AA;" d="M47.925,46.037c-0.075-1.281-0.208-2.557-0.409-3.822l-2.31,1.027    C41.114,45.06,36.687,46,32.209,46h-0.418c-4.477,0-8.905-0.94-12.996-2.758l-2.31-1.027c-0.201,1.266-0.334,2.541-0.409,3.822    l0.957,0.479C21.614,48.807,26.667,50,31.79,50h0.42c5.123,0,10.176-1.193,14.758-3.484L47.925,46.037z"/>
	</g>
	<g>
		<path style="fill:#E58231;" d="M41.88,11.766C42.57,11.047,43,10.075,43,9c0-2.209-1.791-4-4-4c-1.202,0-2.267,0.541-3,1.38    C35.267,5.541,34.202,5,33,5c-0.38,0-0.741,0.07-1.089,0.169C31.528,3.359,29.924,2,28,2c-2.209,0-4,1.791-4,4    c0,0.047,0.012,0.091,0.014,0.137C22.284,6.578,21,8.133,21,10c0,0.726,0.193,1.407,0.532,1.994l0.036,0    C24.643,10.732,28.199,10,32,10C35.573,10,38.935,10.641,41.88,11.766z"/>
	</g>
	<g>
		<path style="fill:#F29C37;" d="M21.298,11.515c0.068,0.165,0.145,0.326,0.233,0.479l0.036,0C24.643,10.732,28.199,10,32,10    c3.573,0,6.935,0.641,9.88,1.766c0.349-0.363,0.63-0.792,0.824-1.265C42.11,9.036,40.678,8,39,8c-1.202,0-2.267,0.541-3,1.38    C35.267,8.541,34.202,8,33,8c-0.38,0-0.741,0.07-1.089,0.169C31.528,6.359,29.924,5,28,5c-2.209,0-4,1.791-4,4    c0,0.047,0.012,0.091,0.014,0.137C22.773,9.454,21.771,10.348,21.298,11.515z"/>
	</g>
	<g>
		<ellipse style="fill:#612694;" cx="32" cy="25" rx="21" ry="15"/>
	</g>
	<g>
		<ellipse style="fill:#9037AA;" cx="32" cy="26.5" rx="20.894" ry="13.5"/>
	</g>
	<g>
		<circle style="fill:#FFFFFF;" cx="24" cy="22" r="6"/>
	</g>
	<g>
		<circle style="fill:#FFFFFF;" cx="40" cy="22" r="6"/>
	</g>
	<g>
		<polyline style="fill:#FFFFFF;" points="31,32 30,37 25,36 26,32   "/>
	</g>
	<g>
		<polyline style="fill:#FFFFFF;" points="33,32 34,37 39,36 38,32   "/>
	</g>
	<g>
		<circle style="fill:#39474E;" cx="24" cy="22" r="2"/>
	</g>
	<g>
		<circle style="fill:#39474E;" cx="40" cy="22" r="2"/>
	</g>
	<g>
		<path d="M32,41c-12.131,0-22-7.178-22-16S19.869,9,32,9s22,7.178,22,16S44.131,41,32,41z M32,11c-11.028,0-20,6.28-20,14    s8.972,14,20,14s20-6.28,20-14S43.028,11,32,11z"/>
	</g>
	<g>
		<path d="M42.536,12.536l-1.415-1.414C41.688,10.555,42,9.801,42,9c0-1.654-1.346-3-3-3c-0.864,0-1.662,0.369-2.247,1.038    c-0.38,0.435-1.126,0.435-1.506,0C34.662,6.369,33.864,6,33,6c-0.243,0-0.502,0.042-0.815,0.131    c-0.267,0.076-0.553,0.037-0.79-0.105c-0.238-0.143-0.405-0.378-0.462-0.649C30.642,3.999,29.408,3,28,3c-1.654,0-3,1.346-3,3    c0.005-0.007,0.012,0.045,0.013,0.106c0.015,0.469-0.298,0.884-0.752,1C22.93,7.446,22,8.636,22,10    c0,0.526,0.138,1.043,0.398,1.495l-1.732,0.999C20.23,11.739,20,10.876,20,10c0-2.019,1.215-3.809,3.034-4.584    C23.324,2.933,25.44,1,28,1c2.012,0,3.811,1.224,4.589,3.02C33.833,3.895,35.03,4.281,36,5.018C36.862,4.363,37.914,4,39,4    c2.757,0,5,2.243,5,5C44,10.335,43.48,11.591,42.536,12.536z"/>
	</g>
	<g>
		<path d="M24,25c-1.654,0-3-1.346-3-3s1.346-3,3-3s3,1.346,3,3S25.654,25,24,25z M24,21c-0.551,0-1,0.449-1,1s0.449,1,1,1    s1-0.449,1-1S24.551,21,24,21z"/>
	</g>
	<g>
		<path d="M24,29c-3.86,0-7-3.14-7-7s3.14-7,7-7s7,3.14,7,7S27.86,29,24,29z M24,17c-2.757,0-5,2.243-5,5s2.243,5,5,5s5-2.243,5-5    S26.757,17,24,17z"/>
	</g>
	<g>
		<path d="M40,25c-1.654,0-3-1.346-3-3s1.346-3,3-3s3,1.346,3,3S41.654,25,40,25z M40,21c-0.551,0-1,0.449-1,1s0.449,1,1,1    s1-0.449,1-1S40.551,21,40,21z"/>
	</g>
	<g>
		<path d="M40,29c-3.86,0-7-3.14-7-7s3.14-7,7-7s7,3.14,7,7S43.86,29,40,29z M40,17c-2.757,0-5,2.243-5,5s2.243,5,5,5s5-2.243,5-5    S42.757,17,40,17z"/>
	</g>
	<g>
		<rect x="20" y="31" width="24" height="2"/>
	</g>
	<g>
		<path d="M30.001,38c-0.065,0-0.131-0.006-0.197-0.02l-5-1c-0.268-0.054-0.502-0.215-0.649-0.446    c-0.146-0.231-0.191-0.512-0.125-0.777l1-4l1.94,0.485l-0.746,2.982l2.991,0.598l0.804-4.02l1.961,0.393l-1,5    C30.886,37.671,30.468,38,30.001,38z"/>
	</g>
	<g>
		<path d="M33.999,38c-0.467,0-0.885-0.329-0.979-0.804l-1-5l1.961-0.393l0.804,4.02l2.991-0.598l-0.746-2.982l1.94-0.485l1,4    c0.066,0.266,0.021,0.546-0.125,0.777c-0.146,0.231-0.381,0.392-0.649,0.446l-5,1C34.13,37.994,34.064,38,33.999,38z"/>
	</g>
	<g>
		<path d="M42,63c-0.151,0-0.305-0.035-0.447-0.105c-2.585-1.293-4.751-3.372-6.155-5.895h-6.795    c-1.404,2.523-3.57,4.602-6.155,5.895c-0.386,0.192-0.85,0.116-1.154-0.188c-2.745-2.745-4.693-6.186-5.635-9.952l-0.628-2.512    C15.01,50.163,15,50.082,15,50v-1.675c0-4.305,0.69-8.558,2.051-12.641l1.897,0.633C17.656,40.195,17,44.236,17,48.325v1.552    l0.598,2.393c0.794,3.175,2.377,6.096,4.596,8.491c2.099-1.211,3.826-3.038,4.911-5.208C27.275,55.214,27.621,55,28,55h8    c0.379,0,0.725,0.214,0.895,0.553c1.085,2.17,2.812,3.997,4.911,5.208c2.219-2.395,3.802-5.315,4.596-8.491L47,49.877v-1.552    c0-4.089-0.656-8.129-1.949-12.008l1.897-0.633C48.31,39.767,49,44.02,49,48.325V50c0,0.082-0.01,0.163-0.03,0.243l-0.628,2.512    c-0.942,3.766-2.891,7.208-5.635,9.952C42.515,62.899,42.259,63,42,63z"/>
	</g>
	<g>
		<path d="M16.419,53.814l-7-5C9.156,48.626,9,48.323,9,48v-2.042c0-4.692,2.331-9.046,6.234-11.649l0.211-0.141l1.109,1.664    l-0.211,0.141C12.998,38.204,11,41.936,11,45.958v1.528l6.581,4.701L16.419,53.814z"/>
	</g>
	<g>
		<rect x="10" y="46" width="6" height="2"/>
	</g>
	<g>
		<path d="M47.581,53.814l-1.162-1.628L53,47.485v-1.528c0-4.021-1.998-7.754-5.344-9.985l-0.211-0.141l1.109-1.664l0.211,0.141    C52.669,36.911,55,41.266,55,45.958V48c0,0.323-0.156,0.626-0.419,0.814L47.581,53.814z"/>
	</g>
	<g>
		<rect x="48" y="46" width="6" height="2"/>
	</g>
	<g>
		<path d="M32.209,47h-0.418c-4.647,0-9.157-0.957-13.403-2.844l-2.794-1.242l0.812-1.827l2.794,1.242    C23.189,44.101,27.425,45,31.791,45h0.418c4.366,0,8.602-0.899,12.59-2.671l2.794-1.242l0.812,1.827l-2.794,1.242    C41.366,46.043,36.856,47,32.209,47z"/>
	</g>
	<g>
		<path d="M32.21,51h-0.42c-5.25,0-10.508-1.241-15.205-3.589l-1.032-0.516l0.895-1.789l1.032,0.516C21.9,47.832,26.848,49,31.79,49    h0.42c4.942,0,9.89-1.168,14.311-3.378l1.032-0.516l0.895,1.789l-1.032,0.516C42.718,49.759,37.46,51,32.21,51z"/>
	</g>
</g>
</svg>
