<?xml version="1.0" encoding="iso-8859-1"?>
<!-- Generator: Adobe Illustrator 22.1.0, SVG Export Plug-In . SVG Version: 6.00 Build 0)  -->
<svg xmlns="http://www.w3.org/2000/svg" xmlns:xlink="http://www.w3.org/1999/xlink" version="1.1" id="Layer_3" x="0px" y="0px" viewBox="0 0 64 64" style="enable-background:new 0 0 64 64;" xml:space="preserve" width="512" height="512">
<g>
	<g>
		<path style="fill:#FAE0B8;" d="M12,27.906l-8.292,4.146C2.661,32.575,2,33.645,2,34.816v1.09v0c0,2.297,2.417,3.791,4.472,2.764    L12,35.906"/>
	</g>
	<g>
		<path style="fill:#FAE0B8;" d="M52,27.906l8.292,4.146C61.339,32.575,62,33.645,62,34.816v1.09v0c0,2.297-2.417,3.791-4.472,2.764    L52,35.906"/>
	</g>
	<g>
		<path style="fill:#97C05C;" d="M52,13v28.802C52,48.584,51.33,55.35,50,62l0,0h-8l1-4l-11,1l-11-1l1,4h-8l0,0    c-1.33-6.65-2-13.416-2-20.198V12"/>
	</g>
	<g>
		<path style="fill:#FAE0B8;" d="M46,51c0,3.314-6.268,4-14,4s-14-0.686-14-4s6.268-8,14-8S46,47.686,46,51z"/>
	</g>
	<g>
		<polyline style="fill:#FFFFFF;" points="18,36 16,41 20,43 22,38   "/>
	</g>
	<g>
		<polyline style="fill:#FFFFFF;" points="46,36 48,41 44,43 42,38   "/>
	</g>
	<g>
		<circle style="fill:#FFFFFF;" cx="21" cy="27" r="5"/>
	</g>
	<g>
		<circle style="fill:#FFFFFF;" cx="43" cy="27" r="5"/>
	</g>
	<g>
		<circle style="fill:#39474E;" cx="23" cy="27" r="2"/>
	</g>
	<g>
		<circle style="fill:#39474E;" cx="45" cy="27" r="2"/>
	</g>
	<g>
		<path style="fill:#F8D859;" d="M43,18c-3.938,0-7.116-3.251-6.997-7.215C36.118,6.954,39.461,4,43.293,4h0    c6.05,0,11.684,3.076,14.955,8.165L62,18H43z"/>
	</g>
	<g>
		<path style="fill:#F6C244;" d="M28,18c4.595,0,8.284-3.873,7.983-8.533C35.707,5.215,31.988,2,27.727,2l-0.265,0    c-3.595,0-7.083,0.926-10.164,2.687l0,0C15.792,5.547,14.088,6,12.353,6h0c-1.547,0-3.074-0.36-4.458-1.052L2,2v0    c0,8.837,7.163,16,16,16H28z"/>
	</g>
	<g>
		<path d="M28,19H18C8.626,19,1,11.374,1,2c0-0.347,0.18-0.668,0.474-0.851s0.663-0.198,0.973-0.044l5.896,2.948    c2.633,1.317,5.904,1.226,8.459-0.235C20.029,1.975,23.715,1,27.462,1h0.265c4.884,0,8.949,3.691,9.254,8.403    c0.163,2.519-0.694,4.917-2.413,6.751C32.872,17.962,30.479,19,28,19z M3.092,3.664C3.922,11.155,10.292,17,18,17h10    c1.956,0,3.771-0.786,5.108-2.214c1.337-1.427,2.003-3.292,1.876-5.254C34.748,5.869,31.56,3,27.727,3h-0.265    c-3.399,0-6.742,0.883-9.667,2.555C14.669,7.34,10.668,7.451,7.448,5.842L3.092,3.664z"/>
	</g>
	<g>
		<path d="M62,19H43c-2.183,0-4.222-0.863-5.742-2.429c-1.52-1.566-2.32-3.631-2.254-5.816C35.132,6.479,38.851,3,43.293,3    c6.42,0,12.325,3.224,15.797,8.625l3.751,5.835c0.198,0.308,0.212,0.699,0.037,1.02C62.703,18.8,62.366,19,62,19z M43.293,5    c-3.373,0-6.194,2.608-6.291,5.814c-0.049,1.64,0.551,3.189,1.691,4.364C39.834,16.353,41.363,17,43,17h17.168l-2.761-4.294    C54.306,7.881,49.029,5,43.293,5z"/>
	</g>
	<g>
		<path d="M50,63h-8c-0.308,0-0.599-0.142-0.788-0.385c-0.189-0.242-0.257-0.559-0.182-0.857l0.659-2.635l-9.598,0.873    c-0.06,0.006-0.121,0.006-0.181,0l-9.598-0.873l0.659,2.635c0.075,0.299,0.007,0.615-0.182,0.857C22.599,62.858,22.308,63,22,63    h-8c-0.477,0-0.887-0.337-0.98-0.804c-1.34-6.7-2.02-13.562-2.02-20.395V17h2v24.802C13,48.23,13.613,54.685,14.823,61h5.896    l-0.689-2.758c-0.079-0.313,0-0.646,0.211-0.893c0.21-0.245,0.529-0.376,0.85-0.346L32,57.996l10.91-0.992    c0.329-0.03,0.64,0.101,0.85,0.346c0.211,0.246,0.29,0.579,0.211,0.893L43.281,61h5.896C50.387,54.685,51,48.23,51,41.802V18h2    v23.802c0,6.833-0.679,13.694-2.02,20.395C50.887,62.663,50.477,63,50,63z"/>
	</g>
	<g>
		<path d="M21,33c-3.309,0-6-2.691-6-6s2.691-6,6-6s6,2.691,6,6S24.309,33,21,33z M21,23c-2.206,0-4,1.794-4,4s1.794,4,4,4    s4-1.794,4-4S23.206,23,21,23z"/>
	</g>
	<g>
		<path d="M23,30c-1.654,0-3-1.346-3-3s1.346-3,3-3s3,1.346,3,3S24.654,30,23,30z M23,26c-0.551,0-1,0.449-1,1s0.449,1,1,1    s1-0.449,1-1S23.551,26,23,26z"/>
	</g>
	<g>
		<path d="M43,33c-3.309,0-6-2.691-6-6s2.691-6,6-6s6,2.691,6,6S46.309,33,43,33z M43,23c-2.206,0-4,1.794-4,4s1.794,4,4,4    s4-1.794,4-4S45.206,23,43,23z"/>
	</g>
	<g>
		<path d="M45,30c-1.654,0-3-1.346-3-3s1.346-3,3-3s3,1.346,3,3S46.654,30,45,30z M45,26c-0.551,0-1,0.449-1,1s0.449,1,1,1    s1-0.449,1-1S45.551,26,45,26z"/>
	</g>
	<g>
		<path d="M34.789,40h-5.578c-4.916,0-9.676-1.441-13.766-4.168l1.109-1.664C20.314,36.675,24.691,38,29.211,38h5.578    c4.52,0,8.896-1.325,12.656-3.832l1.109,1.664C44.465,38.559,39.705,40,34.789,40z"/>
	</g>
	<g>
		<path d="M20,44c-0.154,0-0.307-0.035-0.447-0.105l-4-2c-0.465-0.232-0.674-0.783-0.481-1.266l2-5l1.857,0.742l-1.659,4.146    l2.205,1.103l1.596-3.99l1.857,0.742l-2,5c-0.104,0.26-0.312,0.464-0.573,0.563C20.241,43.979,20.12,44,20,44z"/>
	</g>
	<g>
		<path d="M44,44c-0.12,0-0.241-0.021-0.355-0.065c-0.261-0.1-0.469-0.304-0.573-0.563l-2-5l1.857-0.742l1.596,3.99l2.205-1.103    l-1.659-4.146l1.857-0.742l2,5c0.193,0.482-0.016,1.033-0.481,1.266l-4,2C44.307,43.965,44.154,44,44,44z"/>
	</g>
	<g>
		<path d="M32,56c-7.791,0-15-0.605-15-5c0-4.052,6.922-9,15-9s15,4.948,15,9C47,55.395,39.791,56,32,56z M32,44    c-3.358,0-6.685,0.925-9.369,2.605C20.425,47.985,19,49.711,19,51c0,1.99,4.374,3,13,3s13-1.01,13-3C45,48.604,39.51,44,32,44z"/>
	</g>
	<g>
		<rect x="31" y="50" width="2" height="2"/>
	</g>
	<g>
		<path d="M5.088,40c-0.745,0-1.487-0.206-2.148-0.614C1.725,38.635,1,37.334,1,35.906v-1.091c0-1.56,0.866-2.961,2.261-3.658    l8.292-4.146l0.895,1.789l-8.292,4.146C3.443,33.303,3,34.019,3,34.815v1.091c0,0.729,0.371,1.395,0.991,1.777    c0.62,0.384,1.381,0.417,2.034,0.092l5.528-2.764l0.895,1.789l-5.528,2.764C6.337,39.855,5.711,40,5.088,40z"/>
	</g>
	<g>
		<path d="M58.912,40c-0.624,0-1.25-0.145-1.832-0.436l-5.528-2.764l0.895-1.789l5.528,2.764c0.652,0.325,1.413,0.292,2.034-0.092    C60.629,37.301,61,36.636,61,35.906v-1.091c0-0.797-0.443-1.513-1.155-1.869L51.553,28.8l0.895-1.789l8.292,4.146    C62.134,31.854,63,33.256,63,34.815v1.091c0,1.428-0.725,2.729-1.94,3.479C60.399,39.794,59.657,40,58.912,40z"/>
	</g>
</g>
</svg>
