<?xml version="1.0" encoding="iso-8859-1"?>
<!-- Generator: Adobe Illustrator 22.1.0, SVG Export Plug-In . SVG Version: 6.00 Build 0)  -->
<svg xmlns="http://www.w3.org/2000/svg" xmlns:xlink="http://www.w3.org/1999/xlink" version="1.1" id="Layer_3" x="0px" y="0px" viewBox="0 0 64 64" style="enable-background:new 0 0 64 64;" xml:space="preserve" width="512" height="512">
<g>
	<g>
		<path style="fill:#D1DA59;" d="M50,45l7.039,4.106C60.111,50.898,62,54.187,62,57.744v0.084c0,2.089-1.527,3.955-3.607,4.153    C56.007,62.209,54,60.339,54,58l0.087-0.346c0.558-2.234-0.211-4.59-1.98-6.065L49,49"/>
	</g>
	<g>
		<path style="fill:#9E9C3D;" d="M62,57.828v-0.084c0-0.253-0.031-0.5-0.05-0.75l-7.691-0.961c0.015,0.538-0.039,1.083-0.173,1.621    L54,58c0,2.339,2.007,4.209,4.393,3.981C60.473,61.783,62,59.917,62,57.828z"/>
	</g>
	<g>
		<path style="fill:#D1DA59;" d="M14,45l-7.039,4.106C3.889,50.898,2,54.187,2,57.744v0.084c0,2.089,1.527,3.955,3.607,4.153    C7.993,62.209,10,60.339,10,58l-0.087-0.346c-0.558-2.234,0.211-4.59,1.98-6.065L15,49"/>
	</g>
	<g>
		<path style="fill:#9E9C3D;" d="M5.607,61.981C7.993,62.209,10,60.339,10,58l-0.087-0.346c-0.135-0.538-0.188-1.083-0.173-1.621    L2.05,56.994C2.031,57.243,2,57.491,2,57.744v0.084C2,59.917,3.527,61.783,5.607,61.981z"/>
	</g>
	<g>
		<path style="fill:#9E9C3D;" d="M50,43c0,10.493-8.059,19-18,19s-18-8.507-18-19s8.059-27,18-27S50,32.507,50,43z"/>
	</g>
	<g>
		<path style="fill:#B63830;" d="M46,43c0,8.284-5.716,15-14,15s-14-6.716-14-15H46z"/>
	</g>
	<g>
		<polyline style="fill:#FFFFFF;" points="42,43 39,48 36,43 32,51 28,43 25,48 22,43   "/>
	</g>
	<g>
		<polyline style="fill:#FFFFFF;" points="22,54 27,51 27,57   "/>
	</g>
	<g>
		<polyline style="fill:#FFFFFF;" points="42,54 37,51 37,57   "/>
	</g>
	<g>
		<path style="fill:#D1DA59;" d="M37,36c0,2.761-2.239,3-5,3s-5-0.239-5-3s2.239-7,5-7S37,33.239,37,36z"/>
	</g>
	<g>
		<path style="fill:#D1DA59;" d="M38,18l3.179-0.795c3.087-0.772,5.74-2.738,7.377-5.466v0L54,16l-0.164,0.132    c-3.123,2.499-5.266,6.019-6.05,9.941L47,30"/>
	</g>
	<g>
		<path style="fill:#D1DA59;" d="M26,18l-3.179-0.795c-3.087-0.772-5.74-2.738-7.377-5.466l0,0L10,16l0.164,0.132    c3.123,2.499,5.266,6.019,6.05,9.941L17,30"/>
	</g>
	<g>
		<circle style="fill:#D1D8DB;" cx="9" cy="9" r="7"/>
	</g>
	<g>
		<circle style="fill:#D1D8DB;" cx="55" cy="9" r="7"/>
	</g>
	<g>
		<circle style="fill:#39474E;" cx="9" cy="9" r="3"/>
	</g>
	<g>
		<circle style="fill:#39474E;" cx="55" cy="9" r="3"/>
	</g>
	<g>
		<path d="M32,63c-10.477,0-19-8.972-19-20c0-11.057,8.512-28,19-28s19,16.943,19,28C51,54.028,42.477,63,32,63z M32,17    c-9.22,0-17,15.97-17,26c0,9.925,7.626,18,17,18s17-8.075,17-18C49,32.97,41.22,17,32,17z"/>
	</g>
	<g>
		<path d="M9,17c-4.411,0-8-3.589-8-8s3.589-8,8-8s8,3.589,8,8S13.411,17,9,17z M9,3C5.691,3,3,5.691,3,9s2.691,6,6,6s6-2.691,6-6    S12.309,3,9,3z"/>
	</g>
	<g>
		<path d="M9,13c-2.206,0-4-1.794-4-4s1.794-4,4-4s4,1.794,4,4h-2c0-1.103-0.897-2-2-2S7,7.897,7,9s0.897,2,2,2V13z"/>
	</g>
	<g>
		<path d="M16.02,30.196l-0.785-3.928c-0.738-3.687-2.761-7.01-5.695-9.355l-0.165-0.134l1.252-1.559l0.164,0.132    c3.3,2.638,5.575,6.376,6.405,10.523l0.785,3.928L16.02,30.196z"/>
	</g>
	<g>
		<path d="M25.758,18.97l-3.18-0.795c-3.368-0.842-6.207-2.944-7.992-5.921l1.715-1.029c1.511,2.519,3.912,4.298,6.762,5.011    l3.18,0.795L25.758,18.97z"/>
	</g>
	<g>
		<path d="M55,17c-4.411,0-8-3.589-8-8s3.589-8,8-8s8,3.589,8,8S59.411,17,55,17z M55,3c-3.309,0-6,2.691-6,6s2.691,6,6,6    s6-2.691,6-6S58.309,3,55,3z"/>
	</g>
	<g>
		<path d="M55,13v-2c1.103,0,2-0.897,2-2s-0.897-2-2-2s-2,0.897-2,2h-2c0-2.206,1.794-4,4-4s4,1.794,4,4S57.206,13,55,13z"/>
	</g>
	<g>
		<path d="M47.98,30.196l-1.961-0.393l0.785-3.928c0.83-4.147,3.105-7.886,6.406-10.525l0.163-0.13l1.252,1.559l-0.164,0.132    c-2.936,2.348-4.958,5.671-5.696,9.357L47.98,30.196z"/>
	</g>
	<g>
		<path d="M38.242,18.97l-0.484-1.939l3.18-0.795c2.85-0.713,5.251-2.492,6.762-5.011l1.715,1.029    c-1.785,2.977-4.624,5.079-7.992,5.921L38.242,18.97z"/>
	</g>
	<g>
		<path d="M32,59c-8.552,0-15-6.879-15-16c0-0.553,0.447-1,1-1h28c0.553,0,1,0.447,1,1C47,52.121,40.552,59,32,59z M19.029,44    C19.476,51.479,24.901,57,32,57s12.524-5.521,12.971-13H19.029z"/>
	</g>
	<g>
		<path d="M32,52c-0.379,0-0.725-0.214-0.895-0.553l-3.186-6.371l-2.062,3.438c-0.361,0.602-1.354,0.602-1.715,0l-3-5l1.715-1.029    L25,46.057l2.143-3.571c0.187-0.312,0.522-0.518,0.896-0.484c0.365,0.014,0.693,0.226,0.856,0.552L32,48.764l3.105-6.211    c0.163-0.326,0.491-0.538,0.856-0.552c0.364-0.021,0.709,0.172,0.896,0.484L39,46.057l2.143-3.571l1.715,1.029l-3,5    c-0.361,0.602-1.354,0.602-1.715,0l-2.062-3.438l-3.186,6.371C32.725,51.786,32.379,52,32,52z"/>
	</g>
	<g>
		<path d="M28,57h-2v-4.233l-3.485,2.091l-1.029-1.715l5-3c0.31-0.185,0.694-0.19,1.008-0.013S28,50.64,28,51V57z"/>
	</g>
	<g>
		<path d="M38,57h-2v-6c0-0.36,0.193-0.692,0.507-0.87s0.699-0.172,1.008,0.013l5,3l-1.029,1.715L38,52.767V57z"/>
	</g>
	<g>
		<path d="M32,40c-2.097,0-6,0-6-4c0-3.222,2.52-8,6-8s6,4.778,6,8C38,40,34.097,40,32,40z M32,30c-1.932,0-4,3.521-4,6    c0,1.476,0.604,2,4,2s4-0.524,4-2C36,33.521,33.932,30,32,30z"/>
	</g>
	<g>
		<path d="M5.99,63c-0.159,0-0.318-0.008-0.478-0.023C2.982,62.735,1,60.475,1,57.828c0-3.98,2.091-7.622,5.457-9.586l7.039-4.106    l1.008,1.729L7.465,49.97C4.711,51.576,3,54.556,3,57.744c0,1.71,1.187,3.098,2.702,3.242c0.866,0.073,1.683-0.189,2.315-0.766    c0.596-0.542,0.949-1.304,0.98-2.106l-0.055-0.218c-0.647-2.59,0.259-5.366,2.31-7.076l3.106-2.589l1.281,1.537l-3.106,2.589    c-1.466,1.221-2.113,3.204-1.651,5.054l0.087,0.346C10.99,57.836,11,57.918,11,58c0,1.406-0.597,2.755-1.638,3.701    C8.44,62.539,7.232,63,5.99,63z"/>
	</g>
	<g>
		<path d="M58.01,63c-1.242,0-2.45-0.461-3.372-1.299C53.597,60.755,53,59.406,53,58c0-0.082,0.01-0.164,0.03-0.243l0.087-0.347    c0.462-1.849-0.186-3.832-1.651-5.053l-3.106-2.589l1.281-1.537l3.106,2.589c2.051,1.71,2.957,4.486,2.31,7.075l-0.055,0.219    c0.031,0.803,0.385,1.564,0.98,2.106c0.633,0.576,1.449,0.839,2.315,0.766C59.813,60.842,61,59.454,61,57.828    c0-3.272-1.711-6.252-4.465-7.859l-7.039-4.104l1.008-1.729l7.039,4.105C60.909,50.206,63,53.848,63,57.744    c0,2.73-1.982,4.991-4.513,5.232C58.328,62.992,58.169,63,58.01,63z"/>
	</g>
	<g>
		<rect x="1.969" y="55.5" transform="matrix(0.9923 -0.124 0.124 0.9923 -6.9616 1.1805)" width="8.062" height="2"/>
	</g>
	<g>
		<rect x="57" y="52.469" transform="matrix(0.124 -0.9923 0.9923 0.124 -5.2577 107.0442)" width="2" height="8.062"/>
	</g>
</g>
</svg>
