<?xml version="1.0" encoding="iso-8859-1"?>
<!-- Generator: Adobe Illustrator 22.1.0, SVG Export Plug-In . SVG Version: 6.00 Build 0)  -->
<svg xmlns="http://www.w3.org/2000/svg" xmlns:xlink="http://www.w3.org/1999/xlink" version="1.1" id="Layer_3" x="0px" y="0px" viewBox="0 0 64 64" style="enable-background:new 0 0 64 64;" xml:space="preserve" width="512" height="512">
<g>
	<g>
		<polyline style="fill:#657B88;" points="21,39 6,44 10,52 13,46 21,44   "/>
	</g>
	<g>
		<polyline style="fill:#657B88;" points="43,39 58,44 54,52 51,46 43,44   "/>
	</g>
	<g>
		<polyline style="fill:#457B3A;" points="21,36 21,62 28,62 27,58 37,58 36,62 43,62 43,36   "/>
	</g>
	<g>
		<rect x="25" y="40" style="fill:#657B88;" width="14" height="4"/>
	</g>
	<g>
		<path style="fill:#67AC5B;" d="M48,36H16c-2.209,0-4-1.791-4-4V6c0-2.209,1.791-4,4-4h32c2.209,0,4,1.791,4,4v26    C52,34.209,50.209,36,48,36z"/>
	</g>
	<g>
		<circle style="fill:#FFFFFF;" cx="23" cy="19" r="6"/>
	</g>
	<g>
		<circle style="fill:#FFFFFF;" cx="41" cy="19" r="6"/>
	</g>
	<g>
		<polyline style="fill:#FFFFFF;" points="35,32 35,28 39,28 39,32   "/>
	</g>
	<g>
		<circle style="fill:#39474E;" cx="23" cy="19" r="2"/>
	</g>
	<g>
		<circle style="fill:#39474E;" cx="41" cy="19" r="2"/>
	</g>
	<g>
		<path style="fill:#74564A;" d="M24,2L24,2c-3.226,1.936-5.654,4.962-6.844,8.532L17,11l10-6v0c0,3.792,1.724,7.379,4.685,9.748    L32,15l2-9l0,0c3.237,2.589,7.258,4,11.403,4H47l-7-8"/>
	</g>
	<g>
		<path d="M48,37H16c-2.757,0-5-2.243-5-5V6c0-2.757,2.243-5,5-5h32c2.757,0,5,2.243,5,5v26C53,34.757,50.757,37,48,37z M16,3    c-1.654,0-3,1.346-3,3v26c0,1.654,1.346,3,3,3h32c1.654,0,3-1.346,3-3V6c0-1.654-1.346-3-3-3H16z"/>
	</g>
	<g>
		<path d="M32,16c-0.224,0-0.445-0.075-0.625-0.22l-0.314-0.252c-2.768-2.213-4.52-5.365-4.954-8.826l-8.592,5.155    c-0.358,0.215-0.813,0.186-1.141-0.078c-0.326-0.262-0.455-0.699-0.322-1.096l0.156-0.468c1.264-3.793,3.848-7.015,7.277-9.073    l1.029,1.715c-2.312,1.388-4.189,3.377-5.441,5.732l7.412-4.447c0.309-0.186,0.694-0.191,1.008-0.013C27.807,4.307,28,4.64,28,5    c0,3.093,1.221,6,3.388,8.146l1.636-7.362c0.075-0.337,0.318-0.612,0.645-0.727c0.326-0.114,0.687-0.053,0.957,0.163    c2.887,2.31,6.474,3.636,10.161,3.77l-5.539-6.33l1.506-1.317l7,8c0.258,0.295,0.32,0.715,0.157,1.072    C47.748,10.771,47.393,11,47,11h-1.597c-3.83,0-7.595-1.158-10.76-3.288l-1.667,7.504c-0.075,0.337-0.319,0.612-0.645,0.727    C32.224,15.981,32.111,16,32,16z"/>
	</g>
	<g>
		<path d="M23,26c-3.859,0-7-3.14-7-7s3.141-7,7-7s7,3.14,7,7S26.859,26,23,26z M23,14c-2.757,0-5,2.243-5,5s2.243,5,5,5    s5-2.243,5-5S25.757,14,23,14z"/>
	</g>
	<g>
		<path d="M41,26c-3.859,0-7-3.14-7-7s3.141-7,7-7s7,3.14,7,7S44.859,26,41,26z M41,14c-2.757,0-5,2.243-5,5s2.243,5,5,5    s5-2.243,5-5S43.757,14,41,14z"/>
	</g>
	<g>
		<path d="M23,22c-1.654,0-3-1.346-3-3s1.346-3,3-3s3,1.346,3,3S24.654,22,23,22z M23,18c-0.552,0-1,0.449-1,1s0.448,1,1,1    s1-0.449,1-1S23.552,18,23,18z"/>
	</g>
	<g>
		<path d="M41,22c-1.654,0-3-1.346-3-3s1.346-3,3-3s3,1.346,3,3S42.654,22,41,22z M41,18c-0.552,0-1,0.449-1,1s0.448,1,1,1    s1-0.449,1-1S41.552,18,41,18z"/>
	</g>
	<g>
		<rect x="22" y="31" width="20" height="2"/>
	</g>
	<g>
		<path d="M40,32h-2v-3h-2v3h-2v-4c0-0.552,0.447-1,1-1h4c0.553,0,1,0.448,1,1V32z"/>
	</g>
	<g>
		<path d="M43,63h-7c-0.308,0-0.599-0.142-0.788-0.385s-0.257-0.559-0.182-0.858L35.719,59h-7.438l0.688,2.757    c0.075,0.299,0.008,0.615-0.182,0.858S28.308,63,28,63h-7c-0.553,0-1-0.448-1-1V36h2v25h4.719l-0.688-2.757    c-0.075-0.299-0.008-0.615,0.182-0.858S26.692,57,27,57h10c0.308,0,0.599,0.142,0.788,0.385s0.257,0.559,0.182,0.858L37.281,61H42    V36h2v26C44,62.552,43.553,63,43,63z"/>
	</g>
	<g>
		<path d="M10,53c-0.379,0-0.725-0.214-0.895-0.553l-4-8c-0.13-0.259-0.141-0.562-0.029-0.83c0.111-0.268,0.333-0.474,0.607-0.566    l15-5l0.633,1.897L7.41,44.584l2.59,5.18l2.105-4.211c0.131-0.261,0.369-0.452,0.652-0.523l8-2l0.484,1.94l-7.554,1.888    l-2.794,5.589C10.725,52.786,10.379,53,10,53z"/>
	</g>
	<g>
		<path d="M54,53c-0.379,0-0.725-0.214-0.895-0.553l-2.794-5.589l-7.554-1.888l0.484-1.94l8,2c0.283,0.071,0.521,0.262,0.652,0.523    L54,49.764l2.59-5.18l-13.906-4.635l0.633-1.897l15,5c0.274,0.092,0.496,0.298,0.607,0.566c0.111,0.268,0.101,0.571-0.029,0.83    l-4,8C54.725,52.786,54.379,53,54,53z"/>
	</g>
	<g>
		<path d="M39,45H25c-0.553,0-1-0.448-1-1v-4c0-0.552,0.447-1,1-1h14c0.553,0,1,0.448,1,1v4C40,44.552,39.553,45,39,45z M26,43h12    v-2H26V43z"/>
	</g>
</g>
</svg>
