<?xml version="1.0" encoding="iso-8859-1"?>
<!-- Generator: Adobe Illustrator 22.1.0, SVG Export Plug-In . SVG Version: 6.00 Build 0)  -->
<svg xmlns="http://www.w3.org/2000/svg" xmlns:xlink="http://www.w3.org/1999/xlink" version="1.1" id="Layer_3" x="0px" y="0px" viewBox="0 0 64 64" style="enable-background:new 0 0 64 64;" xml:space="preserve" width="512" height="512">
<g>
	<g>
		<path style="fill:#74564A;" d="M48,27c0-8.837-7.163-16-16-16s-16,7.163-16,16c0,2.406,0.531,4.687,1.483,6.733    C20.89,41.062,23,48.926,23,57.008V62h7l-0.978-7.826C29.007,54.058,29,53.941,29,53.824v0C29,52.264,30.264,51,31.824,51h0.352    C33.736,51,35,52.264,35,53.824v0c0,0.117-0.007,0.234-0.022,0.35L34,62h7v-4.992c0-8.082,2.11-15.946,5.517-23.275    C47.469,31.687,48,29.406,48,27z"/>
	</g>
	<g>
		<polygon style="fill:#657B88;" points="34,62 41,62 41,58 34.5,58   "/>
	</g>
	<g>
		<polygon style="fill:#657B88;" points="29.5,58 23,58 23,62 30,62   "/>
	</g>
	<g>
		<path style="fill:#657B88;" d="M19,26l-1.845-3.321c-2.055-3.7-5.18-6.692-8.966-8.584L8,14c-3.735,0-6.673-3.413-5.865-7.291    c0.473-2.268,2.306-4.102,4.574-4.574C10.587,1.327,14,4.265,14,8l0.095,0.189c1.893,3.785,4.885,6.911,8.584,8.966L26,19"/>
	</g>
	<g>
		<path style="fill:#657B88;" d="M45,26l1.845-3.321c2.055-3.7,5.18-6.692,8.966-8.584L56,14c3.735,0,6.673-3.413,5.865-7.291    c-0.473-2.268-2.306-4.102-4.574-4.574C53.413,1.327,50,4.265,50,8l-0.095,0.189c-1.893,3.785-4.885,6.911-8.584,8.966L38,19"/>
	</g>
	<g>
		<circle style="fill:#FFFFFF;" cx="8" cy="8" r="2"/>
	</g>
	<g>
		<circle style="fill:#FFFFFF;" cx="56" cy="8" r="2"/>
	</g>
	<g>
		<ellipse style="fill:#B63830;" cx="32" cy="33" rx="10" ry="7"/>
	</g>
	<g>
		<polyline style="fill:#FFFFFF;" points="24,29 28,34 30,26   "/>
	</g>
	<g>
		<polyline style="fill:#FFFFFF;" points="40,29 36,34 34,26   "/>
	</g>
	<g>
		<path d="M42.72,16.509C39.875,13.601,36.067,12,32,12c-4.028,0-7.81,1.575-10.647,4.435l-1.42-1.409    C23.149,11.785,27.435,10,32,10c4.61,0,8.925,1.814,12.15,5.109L42.72,16.509z"/>
	</g>
	<g>
		<path d="M41,63h-7c-0.287,0-0.56-0.123-0.75-0.338c-0.19-0.215-0.278-0.502-0.243-0.786l0.978-7.825    C33.995,53.975,34,53.899,34,53.824C34,52.818,33.182,52,32.176,52h-0.352C30.818,52,30,52.818,30,53.824    c0,0.075,0.005,0.15,0.014,0.226l0.978,7.826c0.036,0.284-0.053,0.571-0.243,0.786C30.56,62.877,30.287,63,30,63h-7    c-0.552,0-1-0.447-1-1v-4.992c0-7.424-1.825-15.112-5.424-22.853C15.53,31.906,15,29.498,15,27c0-1.802,0.28-3.575,0.833-5.271    l1.901,0.62C17.247,23.844,17,25.409,17,27c0,2.205,0.468,4.329,1.39,6.312C22.112,41.318,24,49.291,24,57.008V61h4.867    l-0.837-6.701C28.01,54.143,28,53.983,28,53.824C28,51.716,29.715,50,31.824,50h0.352C34.285,50,36,51.716,36,53.824    c0,0.159-0.01,0.318-0.03,0.476L35.133,61H40v-3.992c0-7.717,1.888-15.689,5.61-23.696C46.532,31.329,47,29.205,47,27    c0-1.591-0.247-3.156-0.735-4.651l1.901-0.62C48.72,23.425,49,25.198,49,27c0,2.498-0.53,4.906-1.576,7.155    C43.825,41.896,42,49.584,42,57.008V62C42,62.553,41.552,63,41,63z"/>
	</g>
	<g>
		<path d="M18.126,26.486l-1.845-3.321c-1.964-3.534-4.912-6.359-8.526-8.169c-2.024-0.069-3.904-1.002-5.189-2.582    C1.23,10.77,0.716,8.616,1.156,6.505c0.552-2.647,2.702-4.797,5.349-5.349c2.11-0.44,4.265,0.074,5.909,1.411    c1.58,1.285,2.513,3.165,2.582,5.189c1.811,3.614,4.635,6.562,8.169,8.526l3.321,1.845l-0.972,1.748l-3.321-1.845    c-3.892-2.163-7.002-5.411-8.993-9.393l-0.095-0.189C13.036,8.309,13,8.155,13,8c0-1.512-0.674-2.927-1.848-3.882    C9.977,3.163,8.429,2.797,6.913,3.114C5.032,3.506,3.506,5.032,3.114,6.913c-0.317,1.519,0.049,3.064,1.004,4.239    C5.073,12.326,6.488,13,8,13c0.155,0,0.309,0.036,0.447,0.105L8.637,13.2c3.982,1.991,7.23,5.101,9.393,8.993l1.845,3.321    L18.126,26.486z"/>
	</g>
	<g>
		<path d="M8,11c-1.654,0-3-1.346-3-3s1.346-3,3-3s3,1.346,3,3S9.654,11,8,11z M8,7C7.449,7,7,7.449,7,8s0.449,1,1,1s1-0.449,1-1    S8.551,7,8,7z"/>
	</g>
	<g>
		<path d="M45.874,26.486l-1.748-0.972l1.845-3.321c2.163-3.892,5.411-7.002,9.393-8.993l0.189-0.095C55.691,13.036,55.845,13,56,13    c1.512,0,2.927-0.674,3.882-1.848c0.955-1.175,1.321-2.72,1.004-4.239c-0.392-1.881-1.918-3.407-3.799-3.799    c-1.518-0.317-3.063,0.05-4.239,1.004C51.674,5.073,51,6.488,51,8c0,0.155-0.036,0.309-0.105,0.447L50.8,8.637    c-1.991,3.982-5.101,7.23-8.993,9.393l-3.321,1.845l-0.972-1.748l3.321-1.845c3.534-1.964,6.359-4.912,8.169-8.526    c0.069-2.024,1.002-3.904,2.582-5.189c1.644-1.337,3.796-1.852,5.909-1.411c2.647,0.552,4.797,2.702,5.349,5.349    c0.44,2.111-0.074,4.265-1.411,5.909c-1.285,1.58-3.165,2.513-5.189,2.582c-3.614,1.811-6.562,4.635-8.526,8.169L45.874,26.486z"/>
	</g>
	<g>
		<path d="M56,11c-1.654,0-3-1.346-3-3s1.346-3,3-3s3,1.346,3,3S57.654,11,56,11z M56,7c-0.551,0-1,0.449-1,1s0.449,1,1,1    s1-0.449,1-1S56.551,7,56,7z"/>
	</g>
	<g>
		<path d="M32,41c-6.065,0-11-3.589-11-8s4.935-8,11-8s11,3.589,11,8S38.065,41,32,41z M32,27c-4.962,0-9,2.691-9,6s4.038,6,9,6    s9-2.691,9-6S36.962,27,32,27z"/>
	</g>
	<g>
		<path d="M28,35c-0.3,0-0.589-0.135-0.781-0.375l-4-5l1.562-1.249l2.739,3.423l1.51-6.042l1.94,0.485l-2,8    c-0.092,0.369-0.386,0.653-0.757,0.734C28.142,34.992,28.071,35,28,35z"/>
	</g>
	<g>
		<path d="M36,35c-0.071,0-0.142-0.008-0.213-0.023c-0.371-0.081-0.665-0.365-0.757-0.734l-2-8l1.94-0.485l1.51,6.042l2.739-3.423    l1.562,1.249l-4,5C36.589,34.865,36.3,35,36,35z"/>
	</g>
	<g>
		<rect x="23" y="57" width="7" height="2"/>
	</g>
	<g>
		<rect x="34" y="57" width="7" height="2"/>
	</g>
</g>
</svg>
