<?xml version="1.0" encoding="iso-8859-1"?>
<!-- Generator: Adobe Illustrator 22.1.0, SVG Export Plug-In . SVG Version: 6.00 Build 0)  -->
<svg xmlns="http://www.w3.org/2000/svg" xmlns:xlink="http://www.w3.org/1999/xlink" version="1.1" id="Layer_3" x="0px" y="0px" viewBox="0 0 64 64" style="enable-background:new 0 0 64 64;" xml:space="preserve" width="512" height="512">
<g>
	<g>
		<path style="fill:#74564A;" d="M29,53v6c0,1.657-1.343,3-3,3h0c-1.657,0-3-1.343-3-3v-7"/>
	</g>
	<g>
		<path style="fill:#74564A;" d="M39,52v7c0,1.657-1.343,3-3,3h0c-1.657,0-3-1.343-3-3v-6"/>
	</g>
	<g>
		<path style="fill:#2C665C;" d="M47,19h6c1.657,0,3,1.343,3,3v0c0,1.657-1.343,3-3,3h-4"/>
	</g>
	<g>
		<path style="fill:#429488;" d="M49,25h6c1.657,0,3,1.343,3,3v0c0,1.657-1.343,3-3,3h-5"/>
	</g>
	<g>
		<path style="fill:#2C665C;" d="M50,31h5c1.657,0,3,1.343,3,3v0c0,1.657-1.343,3-3,3h-5"/>
	</g>
	<g>
		<path style="fill:#429488;" d="M50,37h3c1.657,0,3,1.343,3,3v0c0,1.657-1.343,3-3,3h-5"/>
	</g>
	<g>
		<path style="fill:#9E9C3D;" d="M46.662,18.183C47.513,16.879,48,15.473,48,14c0-6.627-9.402-12-21-12S6,7.373,6,14    c0,6.541,9.164,11.85,20.554,11.987C26.195,27.885,26,29.904,26,32c0,1.048,0.063,2.07,0.156,3.075C18.744,35.621,13,39.405,13,44    c0,4.971,6.716,9,15,9c2.88,0,5.56-0.495,7.845-1.339C36.545,51.873,37.263,52,38,52c6.627,0,12-8.954,12-20    C50,26.635,48.725,21.774,46.662,18.183z"/>
	</g>
	<g>
		<path style="fill:#D1DA59;" d="M47,32c0-5.365-1.275-10.226-3.338-13.817C44.513,16.879,45,15.473,45,14    c0-6.338-8.605-11.516-19.5-11.957C14.605,2.484,6,7.662,6,14c0,6.541,9.164,11.85,20.554,11.987C26.195,27.885,26,29.904,26,32    c0,1.048,0.063,2.07,0.156,3.075C18.744,35.621,13,39.405,13,44c0,4.971,6.716,9,15,9c2.88,0,5.56-0.495,7.845-1.339    c0.225,0.068,0.454,0.111,0.682,0.16C42.432,50.568,47,42.181,47,32z"/>
	</g>
	<g>
		<circle style="fill:#FFFFFF;" cx="20" cy="14" r="6"/>
	</g>
	<g>
		<polyline style="fill:#FFFFFF;" points="11,22 9,26 16,29 18,25   "/>
	</g>
	<g>
		<polyline style="fill:#FFFFFF;" points="22,36 22,32 14,34 16,38   "/>
	</g>
	<g>
		<circle style="fill:#39474E;" cx="19" cy="14" r="2"/>
	</g>
	<g>
		<path d="M28,54c-8.972,0-16-4.393-16-10c0-4.852,5.555-8.97,13.079-9.829C25.026,33.403,25,32.686,25,32    c0-1.705,0.126-3.397,0.375-5.044C13.858,26.47,5,20.906,5,14C5,6.71,14.663,1,27,1s22,5.71,22,13    c0,1.429-0.396,2.841-1.181,4.207C49.874,22.029,51,26.9,51,32c0,11.58-5.832,21-13,21c-0.693,0-1.39-0.095-2.119-0.29    C33.475,53.555,30.758,54,28,54z M27,3C15.972,3,7,7.935,7,14c0,5.929,8.777,10.857,19.565,10.987    c0.296,0.003,0.575,0.138,0.762,0.367c0.188,0.229,0.264,0.528,0.209,0.819C27.181,28.058,27,30.018,27,32    c0,0.911,0.05,1.886,0.152,2.982c0.024,0.267-0.06,0.534-0.232,0.739c-0.174,0.205-0.422,0.332-0.69,0.351    C19.372,36.578,14,40.06,14,44c0,4.336,6.411,8,14,8c2.643,0,5.236-0.442,7.498-1.277c0.205-0.076,0.429-0.083,0.637-0.019    C36.794,50.903,37.404,51,38,51c6.065,0,11-8.523,11-19c0-4.992-1.139-9.722-3.205-13.319c-0.188-0.326-0.176-0.729,0.029-1.044    C46.604,16.44,47,15.217,47,14C47,7.935,38.028,3,27,3z"/>
	</g>
	<g>
		<path d="M20,21c-3.859,0-7-3.14-7-7s3.141-7,7-7s7,3.14,7,7S23.859,21,20,21z M20,9c-2.757,0-5,2.243-5,5s2.243,5,5,5s5-2.243,5-5    S22.757,9,20,9z"/>
	</g>
	<g>
		<path d="M19,17c-1.654,0-3-1.346-3-3s1.346-3,3-3s3,1.346,3,3S20.654,17,19,17z M19,13c-0.552,0-1,0.449-1,1s0.448,1,1,1    s1-0.449,1-1S19.552,13,19,13z"/>
	</g>
	<g>
		<path d="M16,30c-0.132,0-0.266-0.026-0.394-0.081l-7-3c-0.254-0.108-0.451-0.316-0.546-0.575    c-0.095-0.258-0.078-0.544,0.045-0.791l2-4l1.789,0.895l-1.525,3.051l5.158,2.211l1.578-3.157l1.789,0.895l-2,4    C16.72,29.796,16.367,30,16,30z"/>
	</g>
	<g>
		<path d="M26,63c-2.206,0-4-1.794-4-4v-7h2v7c0,1.103,0.897,2,2,2s2-0.897,2-2v-6h2v6C30,61.206,28.206,63,26,63z"/>
	</g>
	<g>
		<path d="M36,63c-2.206,0-4-1.794-4-4v-6h2v6c0,1.103,0.897,2,2,2s2-0.897,2-2v-7h2v7C40,61.206,38.206,63,36,63z"/>
	</g>
	<g>
		<path d="M15.105,38.447l-2-4c-0.136-0.271-0.141-0.589-0.014-0.865c0.126-0.275,0.371-0.479,0.666-0.552l8-2    c0.297-0.076,0.614-0.007,0.857,0.182S23,31.692,23,32v4h-2v-2.719l-5.548,1.387l1.442,2.885L15.105,38.447z"/>
	</g>
	<g>
		<path d="M53,26h-4v-2h4c1.103,0,2-0.897,2-2s-0.897-2-2-2h-6v-2h6c2.206,0,4,1.794,4,4S55.206,26,53,26z"/>
	</g>
	<g>
		<path d="M55,32h-5v-2h5c1.103,0,2-0.897,2-2s-0.897-2-2-2h-6v-2h6c2.206,0,4,1.794,4,4S57.206,32,55,32z"/>
	</g>
	<g>
		<path d="M55,38h-5v-2h5c1.103,0,2-0.897,2-2s-0.897-2-2-2h-5v-2h5c2.206,0,4,1.794,4,4S57.206,38,55,38z"/>
	</g>
	<g>
		<path d="M53,44h-5v-2h5c1.103,0,2-0.897,2-2s-0.897-2-2-2h-3v-2h3c2.206,0,4,1.794,4,4S55.206,44,53,44z"/>
	</g>
</g>
</svg>
