<?xml version="1.0" encoding="iso-8859-1"?>
<!-- Generator: Adobe Illustrator 22.1.0, SVG Export Plug-In . SVG Version: 6.00 Build 0)  -->
<svg xmlns="http://www.w3.org/2000/svg" xmlns:xlink="http://www.w3.org/1999/xlink" version="1.1" id="Layer_3" x="0px" y="0px" viewBox="0 0 64 64" style="enable-background:new 0 0 64 64;" xml:space="preserve" width="512" height="512">
<g>
	<g>
		<path style="fill:#28388E;" d="M29,58h-8c-2.209,0-4,1.791-4,4v0h12V58z"/>
	</g>
	<g>
		<path style="fill:#28388E;" d="M35,58h8c2.209,0,4,1.791,4,4v0H35V58z"/>
	</g>
	<g>
		<rect x="25" y="44" style="fill:#657B88;" width="4" height="14"/>
	</g>
	<g>
		<rect x="35" y="44" style="fill:#657B88;" width="4" height="14"/>
	</g>
	<g>
		<path style="fill:#657B88;" d="M12,29L12,29c-3.314,0-6,2.686-6,6v11c0,1.105-0.895,2-2,2h0c-1.105,0-2-0.895-2-2V35    c0-5.523,4.477-10,10-10h0"/>
	</g>
	<g>
		<path style="fill:#657B88;" d="M52,29L52,29c3.314,0,6,2.686,6,6v11c0,1.105,0.895,2,2,2h0c1.105,0,2-0.895,2-2V35    c0-5.523-4.477-10-10-10h0"/>
	</g>
	<g>
		<ellipse style="fill:#2C67BA;" cx="32" cy="24" rx="20" ry="22"/>
	</g>
	<g>
		<ellipse style="fill:#4496EC;" cx="30.5" cy="24" rx="18.5" ry="21.932"/>
	</g>
	<g>
		<path style="fill:#FFFFFF;" d="M29.109,14.15C29.671,14.958,30,15.941,30,17c0,2.761-2.239,5-5,5s-5-2.239-5-5    c0-0.096,0.003-0.191,0.008-0.286"/>
	</g>
	<g>
		<path style="fill:#FFFFFF;" d="M34.89,14.152C34.329,14.96,34,15.942,34,17c0,2.761,2.239,5,5,5s5-2.239,5-5    c0-0.096-0.003-0.191-0.008-0.286"/>
	</g>
	<g>
		<polyline style="fill:#FFFFFF;" points="22,32 26,38 29,32   "/>
	</g>
	<g>
		<polyline style="fill:#FFFFFF;" points="42,32 38,38 35,32   "/>
	</g>
	<g>
		<path style="fill:#39474E;" d="M26.396,14.568C26.769,14.931,27,15.439,27,16c0,1.105-0.895,2-2,2s-2-0.895-2-2    c0-0.138,0.014-0.273,0.041-0.403"/>
	</g>
	<g>
		<path style="fill:#39474E;" d="M37.602,14.57C37.23,14.933,37,15.44,37,16c0,1.105,0.895,2,2,2s2-0.895,2-2    c0-0.185-0.025-0.365-0.072-0.535"/>
	</g>
	<g>
		<path d="M32,47c-11.579,0-21-10.318-21-23S20.421,1,32,1s21,10.318,21,23S43.579,47,32,47z M32,3c-10.477,0-19,9.42-19,21    s8.523,21,19,21s19-9.42,19-21S42.477,3,32,3z"/>
	</g>
	<g>
		<path d="M47.47,19.848l-1.216-0.76C41.975,16.414,37.046,15,32,15s-9.975,1.414-14.254,4.088l-1.216,0.76l-1.061-1.695l1.216-0.76    C21.283,14.519,26.579,13,32,13s10.717,1.519,15.314,4.392l1.216,0.761L47.47,19.848z"/>
	</g>
	<g>
		<path d="M25,23c-3.309,0-6-2.691-6-6c0-0.113,0.003-0.226,0.009-0.337l1.998,0.103C21.003,16.843,21,16.921,21,17    c0,2.206,1.794,4,4,4s4-1.794,4-4c0-0.821-0.246-1.609-0.713-2.279l1.643-1.143C30.63,14.586,31,15.769,31,17    C31,20.309,28.309,23,25,23z"/>
	</g>
	<g>
		<path d="M25,19c-1.654,0-3-1.346-3-3c0-0.207,0.021-0.412,0.062-0.609l1.957,0.412C24.007,15.865,24,15.931,24,16    c0,0.551,0.448,1,1,1s1-0.449,1-1c0-0.271-0.107-0.526-0.302-0.716l1.396-1.431C27.679,14.423,28,15.185,28,16    C28,17.654,26.654,19,25,19z"/>
	</g>
	<g>
		<path d="M39,23c-3.309,0-6-2.691-6-6c0-1.229,0.369-2.41,1.068-3.417l1.643,1.14C35.246,15.393,35,16.181,35,17    c0,2.206,1.794,4,4,4s4-1.794,4-4c0-0.079-0.003-0.157-0.007-0.235l1.998-0.103C44.997,16.774,45,16.887,45,17    C45,20.309,42.309,23,39,23z"/>
	</g>
	<g>
		<path d="M39,19c-1.654,0-3-1.346-3-3c0-0.813,0.32-1.575,0.902-2.145l1.398,1.429C38.107,15.475,38,15.729,38,16    c0,0.551,0.448,1,1,1s1-0.449,1-1c0-0.091-0.012-0.182-0.036-0.269l1.928-0.532C41.964,15.46,42,15.729,42,16    C42,17.654,40.654,19,39,19z"/>
	</g>
	<g>
		<rect x="29" y="25" width="2" height="4"/>
	</g>
	<g>
		<rect x="33" y="25" width="2" height="4"/>
	</g>
	<g>
		<rect x="20" y="31" width="24" height="2"/>
	</g>
	<g>
		<path d="M26,39c-0.333,0-0.646-0.166-0.832-0.445l-4-6l1.664-1.109l3.044,4.566l2.229-4.459l1.789,0.895l-3,6    c-0.159,0.319-0.477,0.529-0.832,0.551C26.041,39,26.021,39,26,39z"/>
	</g>
	<g>
		<path d="M38,39c-0.021,0-0.041,0-0.062-0.002c-0.355-0.022-0.673-0.232-0.832-0.551l-3-6l1.789-0.895l2.229,4.459l3.044-4.566    l1.664,1.109l-4,6C38.646,38.834,38.333,39,38,39z"/>
	</g>
	<g>
		<path d="M29,63H17c-0.553,0-1-0.448-1-1c0-2.757,2.243-5,5-5h8c0.553,0,1,0.448,1,1v4C30,62.552,29.553,63,29,63z M18.171,61H28    v-2h-7C19.696,59,18.584,59.836,18.171,61z"/>
	</g>
	<g>
		<rect x="28" y="45" width="2" height="13"/>
	</g>
	<g>
		<rect x="24" y="44" width="2" height="14"/>
	</g>
	<g>
		<path d="M47,63H35c-0.553,0-1-0.448-1-1v-4c0-0.552,0.447-1,1-1h8c2.757,0,5,2.243,5,5C48,62.552,47.553,63,47,63z M36,61h9.829    c-0.413-1.164-1.525-2-2.829-2h-7V61z"/>
	</g>
	<g>
		<rect x="34" y="45" width="2" height="13"/>
	</g>
	<g>
		<rect x="38" y="44" width="2" height="14"/>
	</g>
	<g>
		<path d="M4,49c-1.654,0-3-1.346-3-3V35c0-6.065,4.935-11,11-11v2c-4.963,0-9,4.038-9,9v11c0,0.551,0.448,1,1,1s1-0.449,1-1V35    c0-3.86,3.141-7,7-7v2c-2.757,0-5,2.243-5,5v11C7,47.654,5.654,49,4,49z"/>
	</g>
	<g>
		<path d="M60,49c-1.654,0-3-1.346-3-3V35c0-2.757-2.243-5-5-5v-2c3.859,0,7,3.14,7,7v11c0,0.551,0.448,1,1,1s1-0.449,1-1V35    c0-4.962-4.037-9-9-9v-2c6.065,0,11,4.935,11,11v11C63,47.654,61.654,49,60,49z"/>
	</g>
</g>
</svg>
