<svg id="choi" enable-background="new 0 0 300 300" height="512" viewBox="0 0 300 300" width="512" xmlns="http://www.w3.org/2000/svg"><g><circle cx="148.214" cy="146.644" fill="#edebdc" r="92"/><g fill="#4c241d"><path d="m246 50.766c-2.211 0-4-1.791-4-4v-8c0-2.209 1.789-4 4-4s4 1.791 4 4v8c0 2.209-1.789 4-4 4z"/><path d="m246 74.766c-2.211 0-4-1.791-4-4v-8c0-2.209 1.789-4 4-4s4 1.791 4 4v8c0 2.209-1.789 4-4 4z"/><path d="m238 58.766h-8c-2.211 0-4-1.791-4-4s1.789-4 4-4h8c2.211 0 4 1.791 4 4s-1.789 4-4 4z"/><path d="m262 58.766h-8c-2.211 0-4-1.791-4-4s1.789-4 4-4h8c2.211 0 4 1.791 4 4s-1.789 4-4 4z"/><path d="m48 190.766c-7.719 0-14-6.281-14-14s6.281-14 14-14 14 6.281 14 14-6.281 14-14 14zm0-20c-3.309 0-6 2.691-6 6s2.691 6 6 6 6-2.691 6-6-2.691-6-6-6z"/><circle cx="53.504" cy="237.133" r="4.276"/><circle cx="261.504" cy="113.133" r="4.276"/></g><g><path d="m84.436 139.114c-.414-8.28-4.538-15.668-10.518-21.411-2.638-2.533-4.279-6.095-4.279-10.041 0-5.578 3.302-10.353 8.038-12.574-1.523-1.905-2.47-4.287-2.47-6.914 0-6.151 4.986-11.136 11.136-11.136 1.16 0 2.255.227 3.305.556-2.811-3.346-4.168-7.955-2.718-12.946 1.315-4.526 5.042-8.211 9.604-9.397 7.562-1.966 14.411 2.263 16.757 8.666 3.289-2.944 7.925-4.417 12.937-3.096 4.756 1.254 8.634 5.182 9.802 9.96 1.243 5.081-.338 9.812-3.447 13.067 4.458-1.627 9.541-1.975 15.151.922 5.931 3.063 10.318 8.893 10.914 15.541.702 7.833-3.274 14.732-9.402 18.425 2.377 2.042 3.914 5.034 3.914 8.413 0 6.15-4.986 11.136-11.136 11.136 0 0-11.136 11.136-11.136 38.977h-44.545z" fill="#a9ba5a"/><path d="m130.887 181.264h-44.543c-2.133 0-3.887-1.672-3.996-3.801l-1.906-38.15c-.426-8.508-5.289-14.879-9.293-18.725-3.551-3.412-5.508-8.002-5.508-12.926 0-5.432 2.52-10.531 6.66-13.891-.723-1.771-1.094-3.658-1.094-5.598 0-7.195 5.047-13.232 11.785-14.762-.883-3.16-.871-6.547.098-9.879 1.73-5.951 6.496-10.607 12.438-12.154 7.402-1.924 14.934.918 19.188 6.777 3.832-1.896 8.207-2.344 12.535-1.201 6.18 1.629 11.152 6.684 12.668 12.877.723 2.955.695 5.965-.02 8.789 3.289.102 6.52.969 9.672 2.598 7.359 3.801 12.363 10.979 13.062 18.736.668 7.459-2.195 14.58-7.629 19.475 1.398 2.318 2.156 4.979 2.156 7.721 0 7.676-5.742 14.035-13.156 15.008-2.41 3.219-9.117 14.072-9.117 35.105 0 2.21-1.789 4.001-4 4.001zm-40.739-8h36.812c1.012-26.277 11.754-37.326 12.234-37.805.75-.75 1.766-1.172 2.828-1.172 3.934 0 7.137-3.201 7.137-7.137 0-2.07-.895-3.98-2.52-5.379-.977-.836-1.488-2.088-1.379-3.367.105-1.279.82-2.43 1.918-3.092 5.148-3.104 8.016-8.715 7.484-14.643-.453-5.057-3.812-9.787-8.766-12.344-3.93-2.035-7.73-2.262-11.945-.721-1.75.633-3.703-.016-4.719-1.568-1.02-1.557-.828-3.609.457-4.953 2.398-2.512 3.293-5.92 2.453-9.354-.812-3.332-3.602-6.162-6.934-7.041-4.559-1.207-7.75.869-9.25 2.209-.988.885-2.352 1.219-3.637.9-1.285-.32-2.332-1.26-2.785-2.504-1.547-4.217-6.168-7.705-12-6.174-3.176.828-5.836 3.436-6.77 6.645-1.305 4.492.656 7.727 1.941 9.254 1.145 1.359 1.25 3.311.266 4.791s-2.824 2.135-4.52 1.602c-.82-.256-1.492-.375-2.113-.375-3.934 0-7.137 3.201-7.137 7.137 0 2 .867 3.508 1.594 4.42.766.957 1.047 2.211.77 3.404-.277 1.191-1.086 2.191-2.195 2.711-3.484 1.635-5.734 5.148-5.734 8.953 0 2.727 1.082 5.268 3.047 7.156 7.242 6.953 11.305 15.285 11.746 24.096z" fill="#4c241d"/></g><g><path d="m205.243 160.823c3.56-7.487 10.204-12.726 17.93-15.734 3.408-1.327 6.291-3.986 7.805-7.629 2.141-5.15.925-10.828-2.596-14.697 2.137-1.174 3.926-3.01 4.935-5.436 2.361-5.68-.33-12.197-6.009-14.557-1.071-.445-2.169-.656-3.266-.755 3.88-2.011 6.902-5.746 7.478-10.912.523-4.684-1.504-9.517-5.261-12.363-6.229-4.718-14.176-3.442-18.8 1.571-1.908-3.981-5.623-7.121-10.758-7.824-4.873-.667-9.961 1.471-12.874 5.435-3.098 4.215-3.454 9.19-1.832 13.39-3.492-3.214-8.052-5.486-14.344-4.964-6.653.552-12.941 4.251-16.043 10.162-3.654 6.964-2.631 14.86 1.61 20.623-2.979.974-5.547 3.146-6.844 6.267-2.36 5.679.33 12.197 6.009 14.558 0 0 6.009 14.557-4.677 40.266l41.133 17.097z" fill="#a9ba5a"/><path d="m188.84 199.318c-.516 0-1.035-.098-1.535-.307l-41.133-17.096c-2.039-.848-3.008-3.188-2.16-5.229 8.062-19.393 6.051-31.98 5.055-35.916-2.875-1.658-5.113-4.205-6.402-7.324-1.543-3.736-1.535-7.852.02-11.586 1.051-2.531 2.773-4.697 4.953-6.301-3.141-6.604-3.051-14.277.426-20.908 3.617-6.898 10.996-11.607 19.258-12.291 3.5-.291 6.848.146 9.926 1.316.426-2.883 1.555-5.672 3.359-8.125 3.77-5.141 10.328-7.893 16.637-7.029 4.438.607 8.305 2.701 11.113 5.922 6.172-3.775 14.219-3.518 20.316 1.107 4.898 3.707 7.512 9.836 6.824 15.994-.387 3.449-1.676 6.58-3.703 9.16 5.637 3.998 7.977 11.512 5.219 18.154-.746 1.793-1.816 3.393-3.16 4.75 2.535 4.691 2.902 10.367.82 15.383-1.887 4.545-5.457 8.033-10.047 9.822-5.176 2.014-12.109 6.031-15.77 13.727l-16.402 34.492c-.684 1.438-2.114 2.285-3.614 2.285zm-35.973-23.283 33.996 14.129 14.766-31.057c0-.002 0-.002 0-.002 3.793-7.967 10.738-14.102 20.094-17.742 2.539-.99 4.516-2.922 5.559-5.438 1.461-3.516.73-7.623-1.855-10.471-.828-.906-1.191-2.141-.988-3.35s.945-2.258 2.02-2.848c1.02-.561 2.398-1.617 3.164-3.467 1.512-3.633-.215-7.816-3.848-9.328-.578-.24-1.242-.389-2.094-.465-1.77-.162-3.219-1.471-3.562-3.215-.34-1.744.508-3.504 2.086-4.32 1.77-.918 4.82-3.152 5.34-7.805.371-3.318-1.082-6.746-3.699-8.729-4.805-3.641-10.402-2.203-13.445 1.094-.906.973-2.227 1.445-3.535 1.242-1.312-.197-2.441-1.031-3.016-2.227-.867-1.814-3.02-4.951-7.691-5.59-3.383-.471-7.07 1.072-9.102 3.84-2.098 2.852-2.582 6.342-1.328 9.578.672 1.734.059 3.701-1.477 4.748s-3.594.898-4.961-.361c-3.312-3.045-6.945-4.291-11.309-3.92-5.559.461-10.473 3.539-12.832 8.033-2.766 5.273-2.27 11.555 1.293 16.395.762 1.033.977 2.371.586 3.594s-1.348 2.182-2.566 2.58c-2.039.664-3.598 2.084-4.391 3.998-.734 1.762-.738 3.701-.012 5.463.73 1.762 2.098 3.135 3.859 3.867.98.406 1.758 1.188 2.164 2.168.257.628 5.937 14.954-3.216 39.606z" fill="#4c241d"/></g><g><path d="m120.527 200.09c-7.672 18.458 1.072 39.64 19.529 47.312 8.203 3.41 16.945 3.577 24.8 1.09 12.816-4.058 21.795-15.623 24.028-28.879 2.914-17.293 8.366-57.888.76-84.258 0 0-20.101 33.854-41.938 42.868-21.836 9.013-27.179 21.867-27.179 21.867z" fill="#efefd2"/><path d="m153.957 254.172c-5.258 0-10.512-1.029-15.438-3.076-20.465-8.506-30.191-32.076-21.688-52.541.246-.588 6.246-14.494 29.348-24.029 20.367-8.408 39.832-40.887 40.027-41.215.816-1.369 2.379-2.146 3.945-1.924 1.582.201 2.895 1.326 3.336 2.857 7.883 27.332 2.164 69.271-.66 86.033-2.547 15.115-13.055 27.686-26.766 32.027-3.936 1.249-8.022 1.868-12.104 1.868zm-29.746-52.522c-3.289 7.934-3.297 16.674-.02 24.613 3.281 7.949 9.457 14.145 17.398 17.445 7 2.906 14.836 3.258 22.059.969 10.879-3.443 19.234-13.545 21.289-25.729 2.434-14.43 7.098-48.078 2.871-73.461-7.59 10.936-22.43 29.766-38.574 36.432-19.574 8.079-24.867 19.382-25.023 19.731z" fill="#4c241d"/></g><g><path d="m147.592 207.888c0 19.989-16.204 36.193-36.193 36.193-7.995 0-15.385-2.593-21.375-6.983-11.541-8.46-16.276-23.431-13.057-37.374 3.939-17.063 14.488-56.691 31.648-78.141 0 0 5.568 38.977 22.272 55.681s16.705 30.624 16.705 30.624z" fill="#efefd2"/><path d="m111.398 248.08c-8.605 0-16.812-2.682-23.738-7.756-12.559-9.205-18.285-25.494-14.59-41.5 3.824-16.568 14.637-57.506 32.422-79.74 1-1.25 2.648-1.777 4.176-1.361 1.539.42 2.684 1.715 2.91 3.293.055.377 5.582 37.863 21.137 53.42 17.676 17.674 17.879 32.816 17.879 33.453 0 22.162-18.032 40.191-40.196 40.191zm-4.976-116.435c-13.66 21.836-22.266 54.715-25.555 68.979-2.977 12.887 1.547 25.938 11.52 33.248 5.543 4.062 12.117 6.209 19.012 6.209 17.742 0 32.18-14.426 32.195-32.164-.012-.377-.559-12.848-15.535-27.824-12.352-12.355-18.825-35.437-21.637-48.448z" fill="#4c241d"/></g><g><path d="m172.861 161.689c1.781-8.097 7.072-14.699 13.921-19.372 3.021-2.061 5.23-5.302 5.884-9.193.924-5.5-1.54-10.757-5.843-13.733 1.817-1.626 3.146-3.818 3.582-6.409 1.019-6.066-3.072-11.809-9.137-12.828-1.144-.192-2.261-.15-3.352.001 3.327-2.834 5.429-7.154 4.826-12.317-.547-4.682-3.611-8.933-7.913-10.858-7.132-3.192-14.586-.157-17.962 5.769-2.756-3.448-7.084-5.669-12.245-5.197-4.898.449-9.373 3.679-11.317 8.198-2.067 4.805-1.293 9.732 1.234 13.458-4.126-2.344-9.082-3.529-15.094-1.601-6.357 2.038-11.649 7.059-13.339 13.518-1.99 7.608.787 15.071 6.219 19.729-2.683 1.62-4.695 4.316-5.255 7.648-1.019 6.065 3.071 11.808 9.137 12.828 0 0 9.137 12.828 4.523 40.283l43.929 7.382z" fill="#77a052"/><path d="m164.66 202.994c-.219 0-.441-.018-.668-.055l-43.926-7.383c-2.176-.367-3.648-2.43-3.281-4.607 3.48-20.711-1.316-32.521-3.176-36.131-3.176-.967-5.93-2.941-7.887-5.689-2.344-3.293-3.266-7.303-2.598-11.291.453-2.703 1.645-5.203 3.406-7.258-4.547-5.727-6.188-13.223-4.297-20.467 1.977-7.537 8.102-13.787 15.992-16.314 3.375-1.084 6.711-1.4 9.965-.957-.234-2.904.234-5.877 1.438-8.672 2.523-5.857 8.266-10.018 14.625-10.6 4.469-.426 8.703.758 12.164 3.264 5.164-5.074 13.059-6.633 20.043-3.504 5.605 2.51 9.535 7.891 10.254 14.043.402 3.447-.148 6.789-1.543 9.76 6.395 2.627 10.371 9.418 9.18 16.514-.324 1.914-1.004 3.713-2.008 5.338 3.527 3.998 5.168 9.445 4.27 14.801-.82 4.863-3.512 9.064-7.578 11.836-4.586 3.131-10.441 8.609-12.266 16.926v.002l-8.207 37.305c-.41 1.858-2.058 3.139-3.902 3.139zm-39.398-14.678 36.305 6.102 7.391-33.586c1.891-8.611 7.273-16.158 15.57-21.82 2.254-1.535 3.742-3.861 4.195-6.553.629-3.748-1.008-7.588-4.172-9.777-1.008-.695-1.641-1.816-1.719-3.039s.41-2.412 1.324-3.23c.867-.777 1.973-2.119 2.305-4.096.652-3.877-1.973-7.564-5.855-8.217-.617-.105-1.301-.098-2.141.02-1.785.248-3.473-.709-4.195-2.326-.727-1.621-.297-3.527 1.055-4.68 1.52-1.297 3.988-4.164 3.445-8.812-.387-3.316-2.578-6.326-5.574-7.67-5.516-2.463-10.633.201-12.852 4.1-.656 1.15-1.84 1.904-3.164 2.008-1.309.117-2.609-.453-3.438-1.49-1.254-1.57-4.027-4.129-8.758-3.713-3.43.316-6.648 2.645-8.004 5.797-1.398 3.246-1.082 6.756.867 9.629 1.047 1.539.891 3.594-.371 4.959-1.258 1.369-3.297 1.682-4.914.766-3.902-2.219-7.688-2.615-11.895-1.27-5.309 1.701-9.406 5.809-10.691 10.723-1.508 5.758.391 11.766 4.953 15.68.973.836 1.488 2.088 1.379 3.367-.105 1.279-.82 2.43-1.918 3.094-1.836 1.105-3.031 2.84-3.375 4.883-.316 1.883.117 3.773 1.223 5.324 1.105 1.553 2.75 2.582 4.629 2.896 1.047.176 1.98.76 2.598 1.625.394.549 9.156 13.226 5.797 39.306zm47.601-26.627h.039z" fill="#4c241d"/></g><g><path d="m99.18 219.045c-3.313 19.712 9.982 38.378 29.694 41.69 8.761 1.472 17.315-.336 24.407-4.53 11.571-6.843 17.711-20.134 16.898-33.553-1.061-17.505-4.901-58.284-18.258-82.26 0 0-11.951 37.515-31.192 51.22-19.242 13.705-21.549 27.433-21.549 27.433z" fill="#efefd2"/><path d="m134.867 265.234c-2.219 0-4.445-.184-6.656-.555-21.855-3.674-36.648-24.443-32.977-46.297v-.002c.105-.627 2.816-15.527 23.176-30.027 17.922-12.762 29.586-48.812 29.699-49.176.488-1.52 1.828-2.605 3.414-2.766 1.566-.146 3.117.639 3.895 2.033 13.836 24.842 17.723 66.994 18.754 83.965.926 15.299-6.473 29.914-18.855 37.238-6.212 3.675-13.294 5.587-20.45 5.587zm-31.746-45.498c-2.926 17.494 8.922 34.113 26.418 37.053 7.477 1.264 15.188-.172 21.707-4.027 9.824-5.811 15.688-17.533 14.941-29.867-.887-14.607-3.934-48.441-13.77-72.213-4.926 12.365-15.137 34.055-29.367 44.188-17.257 12.29-19.859 24.503-19.929 24.866z" fill="#4c241d"/></g><path d="m134 250.766c-2.211 0-4-1.791-4-4s1.789-4 4-4c8.824 0 16-7.178 16-16 0-2.209 1.789-4 4-4s4 1.791 4 4c0 13.234-10.766 24-24 24z" fill="#4c241d"/></g></svg>