<svg id="green_x5F_pepper" enable-background="new 0 0 300 300" height="512" viewBox="0 0 300 300" width="512" xmlns="http://www.w3.org/2000/svg"><g><circle cx="153.751" cy="140.987" fill="#edebdc" r="92"/><g fill="#4c241d"><path d="m237.751 56.987c-2.209 0-4-1.791-4-4v-8c0-2.209 1.791-4 4-4s4 1.791 4 4v8c0 2.209-1.791 4-4 4z"/><path d="m237.751 80.987c-2.209 0-4-1.791-4-4v-8c0-2.209 1.791-4 4-4s4 1.791 4 4v8c0 2.209-1.791 4-4 4z"/><path d="m229.751 64.987h-8c-2.209 0-4-1.791-4-4s1.791-4 4-4h8c2.209 0 4 1.791 4 4s-1.791 4-4 4z"/><path d="m253.751 64.987h-8c-2.209 0-4-1.791-4-4s1.791-4 4-4h8c2.209 0 4 1.791 4 4s-1.791 4-4 4z"/><path d="m63.751 228.987c-7.719 0-14-6.281-14-14s6.281-14 14-14 14 6.281 14 14-6.281 14-14 14zm0-20c-3.309 0-6 2.691-6 6s2.691 6 6 6 6-2.691 6-6-2.691-6-6-6z"/><circle cx="34.901" cy="87.928" r="4.276"/><circle cx="162.901" cy="43.928" r="4.276"/></g><g><path d="m113.183 82.668c-5.492-7.872-7.282-14.734-7.61-19.61-.296-4.396-3.93-8.754-8.269-9.635l-.539-.109c-3.023-.613-5.78.552-6.574 3.228-3.26 10.981 5.567 24.772 13.54 34.425-4.796 9.079-2.256 22.554 7.04 32.996 11.193 12.573 27.907 15.964 37.33 7.575s7.989-25.383-3.204-37.956c-9.216-10.352-22.164-14.46-31.714-10.914z" fill="#a9ba5a"/><path d="m135.294 140.097c-9.369 0-19.705-4.705-27.512-13.473-9.533-10.713-12.852-24.443-8.713-35.061-11.32-14.287-15.598-26.445-12.713-36.16 1.365-4.6 5.971-7.07 11.203-6.01l.539.109c6.012 1.221 11.047 7.057 11.465 13.287.234 3.469 1.381 8.783 5.338 15.211 10.865-2.422 23.721 2.518 32.984 12.92 12.641 14.201 13.93 33.762 2.875 43.605-4.228 3.765-9.661 5.572-15.466 5.572zm-40.096-82.94c-.521 0-1.053.117-1.174.523-2.146 7.234 2.395 18.152 12.791 30.74 1.029 1.246 1.207 2.988.453 4.416-4.135 7.822-1.465 19.529 6.49 28.467 9.705 10.904 23.916 14.154 31.682 7.246 7.762-6.91 6.178-21.404-3.531-32.309-7.873-8.84-19.127-12.879-27.334-9.824-1.711.635-3.631.033-4.674-1.461-6.279-9-7.99-16.73-8.318-21.631-.18-2.674-2.551-5.471-5.074-5.982l-.539-.109c-.209-.043-.489-.076-.772-.076z" fill="#4c241d"/></g><g><path d="m260.84 189.898c-.531-.713-63.469-100.803-68.63-106.6-16.141-18.13-40.923-21.886-52.575-6.85-3.827 4.938-5.508 11.545-5.12 18.673h-.001c-12.762 0-21.013 5.867-21.013 18.703v.004c-7.035-1.209-13.792-.304-19.139 2.926-16.283 9.834-15.42 34.885.721 53.015 5.161 5.797 97.297 79.893 97.943 80.503 11.174 10.547 26.22 6.631 27.284-6.309l.497-6.046c8.304 2.069 15.231 1.423 19.715-2.57 4.484-3.992 5.927-10.798 4.833-19.285l6.062.206c12.976.441 18.607-14.051 9.423-26.37z" fill="#77a052"/><path d="m206.927 260.349c-5.727 0-11.701-2.498-16.648-7.168-.264-.215-3.627-2.934-8.885-7.184-41.984-33.939-85.426-69.219-89.299-73.568-10.143-11.395-15.053-25.775-13.135-38.469 1.35-8.926 6.084-16.252 13.332-20.631 4.988-3.01 10.986-4.34 17.523-3.955 1.562-10.521 8.863-16.912 20.682-18.064.305-6.695 2.34-12.621 5.975-17.311 5.189-6.695 13.016-10.551 22.039-10.859 12.803-.48 26.543 6.104 36.688 17.498 3.904 4.389 35.658 54.377 62.885 97.438 3.414 5.398 5.631 8.908 6.029 9.518 5.631 7.611 6.842 16.701 3.156 23.746-3.047 5.826-9.025 9.191-15.986 8.928l-1.594-.055c.242 9.834-3.271 15.242-6.508 18.125-3.238 2.881-9.031 5.744-18.754 4.365l-.131 1.588c-.57 6.943-4.576 12.492-10.717 14.846-2.123.813-4.369 1.21-6.652 1.212zm-99.227-143.032c-4.258 0-8.148.973-11.273 2.859-6.633 4.008-8.857 10.357-9.557 14.979-1.545 10.215 2.748 22.459 11.201 31.953 3.957 4.447 67.477 55.793 88.352 72.666 9.117 7.371 9.139 7.391 9.354 7.596 5.568 5.25 11.369 5.668 14.939 4.297 3.293-1.264 5.285-4.115 5.607-8.031l.496-6.045c.096-1.17.701-2.24 1.654-2.924.955-.686 2.16-.916 3.299-.631 5.066 1.262 11.967 2 16.088-1.676 4.123-3.67 4.193-10.609 3.527-15.785-.15-1.164.219-2.336 1.008-3.203.789-.869 1.898-1.391 3.094-1.307l6.062.205c3.922.146 6.992-1.516 8.627-4.641 1.773-3.389 2.035-9.197-2.545-15.342-.174-.232-.191-.258-6.313-9.938-14.377-22.738-58.129-91.934-62.1-96.393-8.453-9.494-20.184-15.18-30.439-14.822-4.672.158-11.238 1.635-15.986 7.764-3.109 4.01-4.631 9.693-4.287 16.002.061 1.098-.334 2.172-1.09 2.969-.756.799-1.805 1.25-2.904 1.25-17.014 0-17.014 11.066-17.014 14.703 0 1.18-.52 2.297-1.422 3.059-.9.758-2.098 1.078-3.254.885-1.747-.3-3.464-.449-5.124-.449z" fill="#4c241d"/></g><path d="m200.542 228.987c-.721 0-1.451-.195-2.109-.604-18.248-11.359-38.143-28.246-53.215-45.176-14.592-16.391-25.816-34.164-31.605-50.049-.758-2.074.312-4.371 2.389-5.127 2.072-.764 4.369.311 5.127 2.389 5.453 14.957 16.129 31.814 30.066 47.467 14.59 16.389 33.83 32.727 51.465 43.703 1.875 1.168 2.449 3.635 1.283 5.51-.758 1.219-2.065 1.887-3.401 1.887z" fill="#4c241d"/><g><path d="m246.825 206.378c8.897 18.842 12.402 35.001 5.696 40.97-6.697 5.963-22.314.632-39.975-10.36" fill="#77a052"/><path d="m244.862 253.806c-10.285.002-23.633-6.701-34.43-13.422-1.875-1.168-2.449-3.635-1.283-5.51 1.164-1.875 3.631-2.451 5.51-1.283 20.549 12.793 31.807 13.795 35.201 10.77 3.402-3.029 3.701-14.348-6.652-36.275-.943-1.996-.088-4.381 1.91-5.324 1.996-.934 4.381-.09 5.324 1.91 7.564 16.02 14.527 36.947 4.738 45.664-2.747 2.446-6.3 3.47-10.318 3.47z" fill="#4c241d"/></g><path d="m234.827 198.378c-1.498 0-2.936-.846-3.619-2.291-7.91-16.752-20.422-36.018-33.467-51.535-1.42-1.691-1.203-4.215.488-5.637 1.695-1.416 4.217-1.201 5.637.488 13.662 16.254 26.266 35.668 34.576 53.266.943 1.998.088 4.383-1.908 5.326-.553.26-1.135.383-1.707.383z" fill="#4c241d"/><path d="m180.587 125.112c-.943 0-1.893-.332-2.654-1.008-12.051-10.699-24.535-18.764-35.15-22.707-2.07-.77-3.127-3.072-2.357-5.143.77-2.072 3.074-3.121 5.143-2.357 11.689 4.344 24.717 12.719 37.678 24.223 1.65 1.467 1.801 3.996.336 5.648-.793.889-1.893 1.344-2.996 1.344z" fill="#4c241d"/></g></svg>