<svg id="jalapeno" enable-background="new 0 0 300 300" height="512" viewBox="0 0 300 300" width="512" xmlns="http://www.w3.org/2000/svg"><g><circle cx="127.53" cy="160.073" fill="#edebdc" r="92"/><g><path d="m163.941 117.386c0-20.557 17.33-37.067 38.177-35.717 19.025 1.232 33.412 17.879 33.412 36.944v19.304c0 19.025-3.505 38.031-11.511 55.289-11.718 25.258-30.062 42.413-56.265 52.141-19.069 7.08-33.596 9.879-44.381 10.559-10.771.68-16.694-12.406-9.187-20.159 20.879-21.56 52.788-63.77 49.755-118.361z" fill="#77a052"/><path d="m122.612 259.932c-6.139 0-11.672-3.529-14.289-9.201-2.787-6.039-1.613-13.012 2.99-17.766 19.441-20.078 51.611-61.764 48.635-115.357-.004-.074-.008-.148-.008-.223 0-10.957 4.586-21.541 12.586-29.037 8.109-7.6 18.715-11.365 29.852-10.672 20.832 1.35 37.152 19.332 37.152 40.938v19.305c0 20.811-4 39.979-11.883 56.973-12.254 26.41-31.391 44.141-58.504 54.207-17.066 6.338-32.381 9.973-45.518 10.803-.339.021-.677.03-1.013.03zm45.328-142.654c3.098 56.58-30.543 100.25-50.881 121.254-2.773 2.865-2.58 6.449-1.473 8.848 1.408 3.049 4.215 4.77 7.535 4.537 12.355-.781 26.904-4.252 43.24-10.318 25.035-9.295 42.707-25.674 54.027-50.074 7.391-15.932 11.141-33.967 11.141-53.605v-19.305c0-17.4-13.031-31.875-29.668-32.953-8.918-.582-17.383 2.453-23.867 8.523-6.456 6.054-10.027 14.251-10.054 23.093z" fill="#4c241d"/></g><path d="m191.592 201.22c-.801 0-1.609-.24-2.313-.74-1.801-1.279-2.223-3.777-.945-5.578 3.605-5.068 6.863-10.721 9.684-16.801 7.391-15.932 11.141-33.967 11.141-53.605v-19.306c0-2.209 1.789-4 4-4s4 1.791 4 4v19.305c0 20.811-4 39.979-11.883 56.973-3.027 6.523-6.531 12.604-10.418 18.07-.781 1.098-2.016 1.682-3.266 1.682z" fill="#4c241d"/><g><circle cx="115.215" cy="183.758" fill="#77a052" r="44.315"/><path d="m115.215 232.073c-26.643 0-48.316-21.674-48.316-48.314 0-26.643 21.674-48.316 48.316-48.316 26.641 0 48.314 21.674 48.314 48.316.001 26.64-21.673 48.314-48.314 48.314zm0-88.631c-22.23 0-40.316 18.086-40.316 40.316 0 22.229 18.086 40.314 40.316 40.314 22.229 0 40.314-18.086 40.314-40.314.001-22.23-18.085-40.316-40.314-40.316z" fill="#4c241d"/></g><g><path d="m173.175 93.429s4.189-16.311 31.034-25.26v-16.979c0-4.854 4.756-8.282 9.361-6.747 2.499.833 4.333 2.979 4.766 5.578l3.77 22.622s8.949 8.949 7.554 25.763c-21.145 6.654-40.442 6.676-56.485-4.977z" fill="#a9ba5a"/><path d="m203.405 106.915c-12.387 0-23.164-3.408-32.582-10.25-1.328-.965-1.93-2.643-1.523-4.232.188-.727 4.75-17.383 30.91-27.096v-14.147c0-3.615 1.684-6.9 4.613-9.014 2.934-2.113 6.578-2.67 10.012-1.527 3.914 1.303 6.77 4.643 7.449 8.713l3.582 21.498c2.508 3.041 9.055 12.568 7.781 27.877-.133 1.621-1.234 2.998-2.785 3.486-9.938 3.125-19.066 4.692-27.457 4.692zm-25.309-14.983c12.629 7.934 28.297 9.064 47.711 3.461.184-12.854-6.254-19.641-6.547-19.941-.566-.584-.965-1.348-1.098-2.15l-3.77-22.623c-.191-1.139-.988-2.074-2.086-2.439-.961-.322-1.984-.166-2.805.428-.82.592-1.293 1.512-1.293 2.523v16.979c0 1.721-1.102 3.25-2.734 3.795-18.272 6.091-25.081 15.514-27.378 19.967z" fill="#4c241d"/></g><g><path d="m107.53 208.073c-10.996 0-18.474-9.004-18.474-20h18.474z" fill="#efefd2"/><path d="m107.53 212.073c-12.812 0-22.475-10.318-22.475-24 0-2.209 1.791-4 4-4h18.475c2.209 0 4 1.791 4 4v20c0 2.209-1.791 4-4 4zm-14.074-20c1.193 5.736 4.951 9.998 10.074 11.455v-11.455z" fill="#4c241d"/></g><g><path d="m123.53 156.073c10.996 0 18.474 9.004 18.474 20h-18.474z" fill="#efefd2"/><path d="m142.005 180.073h-18.475c-2.209 0-4-1.791-4-4v-20c0-2.209 1.791-4 4-4 12.812 0 22.473 10.318 22.473 24 0 2.209-1.789 4-3.998 4zm-14.475-8h10.074c-1.193-5.736-4.951-9.998-10.074-11.455z" fill="#4c241d"/></g><g><path d="m123.53 208.073c10.996 0 18.474-9.004 18.474-20h-18.474z" fill="#efefd2"/><path d="m123.53 212.073c-2.209 0-4-1.791-4-4v-20c0-2.209 1.791-4 4-4h18.475c2.209 0 3.998 1.791 3.998 4 0 13.682-9.661 24-22.473 24zm4-20v11.455c5.123-1.457 8.881-5.719 10.074-11.455z" fill="#4c241d"/></g><g><path d="m107.53 156.073c-10.996 0-18.474 9.004-18.474 20h18.474z" fill="#efefd2"/><path d="m107.53 180.073h-18.475c-2.209 0-4-1.791-4-4 0-13.682 9.662-24 22.475-24 2.209 0 4 1.791 4 4v20c0 2.209-1.791 4-4 4zm-14.074-8h10.074v-11.455c-5.123 1.457-8.881 5.719-10.074 11.455z" fill="#4c241d"/></g><g fill="#4c241d"><path d="m115.53 96.073c-2.209 0-4-1.791-4-4v-8c0-2.209 1.791-4 4-4s4 1.791 4 4v8c0 2.209-1.791 4-4 4z"/><path d="m115.53 120.073c-2.209 0-4-1.791-4-4v-8c0-2.209 1.791-4 4-4s4 1.791 4 4v8c0 2.209-1.791 4-4 4z"/><path d="m107.53 104.073h-8c-2.209 0-4-1.791-4-4s1.791-4 4-4h8c2.209 0 4 1.791 4 4s-1.791 4-4 4z"/><path d="m131.53 104.073h-8c-2.209 0-4-1.791-4-4s1.791-4 4-4h8c2.209 0 4 1.791 4 4s-1.791 4-4 4z"/><path d="m245.53 256.073c-7.719 0-14-6.281-14-14s6.281-14 14-14 14 6.281 14 14-6.281 14-14 14zm0-20c-3.309 0-6 2.691-6 6s2.691 6 6 6 6-2.691 6-6-2.691-6-6-6z"/><circle cx="260.194" cy="191.251" r="4.276"/><circle cx="60.194" cy="67.251" r="4.276"/></g></g></svg>