<svg id="spinach" enable-background="new 0 0 300 300" height="512" viewBox="0 0 300 300" width="512" xmlns="http://www.w3.org/2000/svg"><g><circle cx="139.66" cy="152" fill="#edebdc" r="92"/><g fill="#4c241d"><path d="m243.66 48c-2.211 0-4-1.791-4-4v-8c0-2.209 1.789-4 4-4s4 1.791 4 4v8c0 2.209-1.789 4-4 4z"/><path d="m243.66 72c-2.211 0-4-1.791-4-4v-8c0-2.209 1.789-4 4-4s4 1.791 4 4v8c0 2.209-1.789 4-4 4z"/><path d="m235.66 56h-8c-2.211 0-4-1.791-4-4s1.789-4 4-4h8c2.211 0 4 1.791 4 4s-1.789 4-4 4z"/><path d="m259.66 56h-8c-2.211 0-4-1.791-4-4s1.789-4 4-4h8c2.211 0 4 1.791 4 4s-1.789 4-4 4z"/><path d="m50.34 181.393c-7.719 0-14-6.281-14-14s6.281-14 14-14 14 6.281 14 14-6.281 14-14 14zm0-20c-3.309 0-6 2.691-6 6s2.691 6 6 6 6-2.691 6-6-2.692-6-6-6z"/><circle cx="84.95" cy="210.489" r="4.276"/><circle cx="252.95" cy="118.489" r="4.276"/></g><g><path d="m162.338 118.016c-4.677-30.572-28.104-72.585-51.034-69.077-22.929 3.508-36.678 51.208-32 81.78 3.981 26.022 20.796 45.727 39.849 48.871l11.443 74.794c.835 5.459 5.938 9.208 11.397 8.373 5.459-.835 9.208-5.938 8.373-11.397l-11.443-74.794c17.242-8.697 27.396-32.528 23.415-58.55z" fill="#a9ba5a"/><path d="m140.449 266.877c-2.957 0-5.828-.938-8.258-2.721-3.016-2.217-4.984-5.473-5.547-9.168l-11.023-72.039c-19.949-4.885-36.293-25.629-40.27-51.623-2.402-15.701-.172-36 5.828-52.979 6.949-19.664 17.434-31.514 29.52-33.361 12.047-1.846 24.906 6.502 36.289 23.484 9.445 14.09 16.84 32.842 19.301 48.939 3.98 25.994-5.414 50.676-22.992 61.303l11.023 72.043c.566 3.697-.34 7.393-2.555 10.406s-5.473 4.984-9.168 5.549c-.718.112-1.433.167-2.148.167zm-26.504-214.137c-.688 0-1.367.051-2.035.152-8.902 1.363-17.355 11.611-23.188 28.121-5.586 15.811-7.68 34.625-5.465 49.102 3.652 23.859 18.68 42.582 36.547 45.529 1.707.283 3.039 1.631 3.301 3.342l11.445 74.793c.242 1.586 1.086 2.98 2.379 3.93 1.293.951 2.887 1.342 4.457 1.096 1.586-.244 2.98-1.088 3.93-2.381.949-1.291 1.34-2.873 1.098-4.457l-11.445-74.795c-.262-1.711.605-3.396 2.152-4.178 16.172-8.156 24.914-30.516 21.262-54.373-2.297-15.012-9.207-32.521-18.039-45.697-8.692-12.965-18.188-20.184-26.399-20.184z" fill="#4c241d"/></g><g><path d="m136.983 118.016c4.677-30.572 28.104-72.585 51.034-69.077 22.929 3.508 36.678 51.208 32 81.78-3.981 26.022-20.796 45.727-39.849 48.871l-11.443 74.794c-.835 5.459-5.938 9.208-11.397 8.373-5.459-.835-9.208-5.938-8.373-11.397l11.443-74.794c-17.243-8.697-27.396-32.528-23.415-58.55z" fill="#a9ba5a"/><path d="m158.871 266.877c-.715 0-1.43-.055-2.148-.166-3.695-.564-6.953-2.535-9.168-5.549s-3.121-6.709-2.555-10.406l11.023-72.043c-17.578-10.627-26.973-35.309-22.992-61.303 2.461-16.098 9.855-34.85 19.301-48.939 11.387-16.988 24.312-25.324 36.289-23.484 12.086 1.848 22.57 13.697 29.52 33.361 6 16.979 8.23 37.277 5.828 52.979-3.977 25.994-20.32 46.738-40.27 51.623l-11.023 72.041c-.562 3.693-2.531 6.949-5.547 9.166-2.43 1.782-5.301 2.718-8.258 2.72zm26.504-214.137c-8.211 0-17.707 7.217-26.398 20.184-8.832 13.176-15.742 30.686-18.039 45.697-3.652 23.857 5.09 46.217 21.262 54.373 1.547.781 2.414 2.467 2.152 4.178l-11.445 74.795c-.242 1.584.148 3.166 1.098 4.457.949 1.293 2.344 2.137 3.93 2.381 1.586.238 3.168-.15 4.457-1.096 1.293-.949 2.137-2.344 2.379-3.928l11.445-74.795c.262-1.711 1.594-3.059 3.301-3.342 17.867-2.947 32.895-21.67 36.547-45.529 2.215-14.477.121-33.291-5.465-49.102-5.832-16.51-14.285-26.758-23.188-28.121-.669-.101-1.349-.152-2.036-.152zm-48.391 65.276h.039z" fill="#4c241d"/></g><g><path d="m191.66 124c0-30.928-16.804-76-40-76s-44 45.072-44 76c0 26.325 13.641 48.346 32 54.336v75.664c0 5.523 4.477 10 10 10 5.523 0 10-4.477 10-10v-75.664c18.359-5.99 32-28.011 32-54.336z" fill="#77a052"/><path d="m149.66 268c-7.719 0-14-6.281-14-14v-72.881c-18.98-7.846-32-30.822-32-57.119 0-31.592 21.504-80 48-80 26.449 0 44 48.15 44 80 0 26.297-13.02 49.273-32 57.119v72.881c0 7.719-6.281 14-14 14zm2-216c-19.844 0-40 41.891-40 72 0 24.137 12.023 44.916 29.242 50.533 1.645.537 2.758 2.072 2.758 3.803v75.664c0 3.309 2.691 6 6 6s6-2.691 6-6v-75.664c0-1.73 1.113-3.266 2.758-3.803 17.219-5.617 29.242-26.396 29.242-50.533 0-31.736-16.949-72-36-72z" fill="#4c241d"/></g><path d="m155.66 148c-1.023 0-2.047-.391-2.828-1.172-1.562-1.562-1.562-4.094 0-5.656l18-18c1.562-1.562 4.094-1.562 5.656 0s1.562 4.094 0 5.656l-18 18c-.781.781-1.804 1.172-2.828 1.172z" fill="#4c241d"/><path d="m147.66 92c-1.023 0-2.047-.391-2.828-1.172-1.562-1.562-1.562-4.096 0-5.656l12.145-12.143c1.562-1.562 4.094-1.562 5.656 0s1.562 4.096 0 5.656l-12.145 12.143c-.781.781-1.804 1.172-2.828 1.172z" fill="#4c241d"/><path d="m143.66 120c-1.023 0-2.047-.391-2.828-1.172l-18-18c-1.562-1.562-1.562-4.094 0-5.656s4.094-1.562 5.656 0l18 18c1.562 1.562 1.562 4.094 0 5.656-.781.781-1.804 1.172-2.828 1.172z" fill="#4c241d"/><path d="m147.66 164c-1.023 0-2.047-.391-2.828-1.172l-14-14c-1.562-1.562-1.562-4.094 0-5.656s4.094-1.562 5.656 0l14 14c1.562 1.562 1.562 4.094 0 5.656-.781.781-1.804 1.172-2.828 1.172z" fill="#4c241d"/><g><path d="m115.66 204h68v20h-68z" fill="#efefd2"/><path d="m183.66 228h-68c-2.211 0-4-1.791-4-4v-20c0-2.209 1.789-4 4-4h68c2.211 0 4 1.791 4 4v20c0 2.209-1.789 4-4 4zm-64-8h60v-12h-60z" fill="#4c241d"/></g></g></svg>