<svg id="wheat" enable-background="new 0 0 300 300" height="512" viewBox="0 0 300 300" width="512" xmlns="http://www.w3.org/2000/svg"><g><circle cx="126.486" cy="118.263" fill="#edebdc" r="92"/><path d="m246 193.737c-2.211 0-4-1.791-4-4v-8c0-2.209 1.789-4 4-4s4 1.791 4 4v8c0 2.209-1.789 4-4 4z" fill="#4c241d"/><path d="m246 217.737c-2.211 0-4-1.791-4-4v-8c0-2.209 1.789-4 4-4s4 1.791 4 4v8c0 2.209-1.789 4-4 4z" fill="#4c241d"/><path d="m238 201.737h-8c-2.211 0-4-1.791-4-4s1.789-4 4-4h8c2.211 0 4 1.791 4 4s-1.789 4-4 4z" fill="#4c241d"/><path d="m262 201.737h-8c-2.211 0-4-1.791-4-4s1.789-4 4-4h8c2.211 0 4 1.791 4 4s-1.789 4-4 4z" fill="#4c241d"/><circle cx="249.393" cy="89.303" fill="#4c241d" r="4.276"/><g><path d="m90 161.737c-11.046 0-20-8.954-20-20v-76c0-11.046 8.954-20 20-20 11.046 0 20 8.954 20 20v76c0 11.045-8.954 20-20 20z" fill="#ffec95"/><path d="m90 165.737c-13.234 0-24-10.766-24-24v-76c0-13.234 10.766-24 24-24s24 10.766 24 24v76c0 13.234-10.766 24-24 24zm0-116c-8.824 0-16 7.178-16 16v76c0 8.822 7.176 16 16 16s16-7.178 16-16v-76c0-8.823-7.176-16-16-16z" fill="#4c241d"/></g><path d="m90 241.737c-2.211 0-4-1.791-4-4v-76c0-2.209 1.789-4 4-4s4 1.791 4 4v76c0 2.209-1.789 4-4 4z" fill="#4c241d"/><g><path d="m38 269.737c0-19.882 16.118-32 36-32h144c19.882 0 36 12.118 36 32" fill="#bf7e68"/><path d="m254 273.737c-2.211 0-4-1.791-4-4 0-16.486-13.16-28-32-28h-144c-18.84 0-32 11.514-32 28 0 2.209-1.789 4-4 4s-4-1.791-4-4c0-20.859 16.824-36 40-36h144c23.176 0 40 15.141 40 36 0 2.209-1.789 4-4 4z" fill="#4c241d"/></g><g fill="#4c241d"><circle cx="225.393" cy="249.303" r="4.276"/><circle cx="205.393" cy="253.303" r="4.276"/><circle cx="229.393" cy="261.303" r="4.276"/><path d="m85.996 81.737c-.836 0-1.676-.26-2.395-.801l-16-12c-1.77-1.324-2.129-3.832-.801-5.6 1.324-1.766 3.832-2.129 5.598-.799l16 12c1.77 1.324 2.129 3.832.801 5.6-.785 1.047-1.984 1.6-3.203 1.6z"/><path d="m85.996 101.737c-.836 0-1.676-.26-2.395-.801l-16-12c-1.77-1.324-2.129-3.832-.801-5.6 1.324-1.766 3.832-2.125 5.598-.799l16 12c1.77 1.324 2.129 3.832.801 5.6-.785 1.047-1.984 1.6-3.203 1.6z"/><path d="m85.996 121.737c-.836 0-1.676-.26-2.395-.801l-16-12c-1.77-1.324-2.129-3.832-.801-5.6 1.324-1.766 3.832-2.125 5.598-.799l16 12c1.77 1.324 2.129 3.832.801 5.6-.785 1.047-1.984 1.6-3.203 1.6z"/><path d="m85.996 141.737c-.836 0-1.676-.26-2.395-.801l-16-12c-1.77-1.324-2.129-3.832-.801-5.6 1.324-1.764 3.832-2.125 5.598-.799l16 12c1.77 1.324 2.129 3.832.801 5.6-.785 1.047-1.984 1.6-3.203 1.6z"/><path d="m94.004 81.737c-1.219 0-2.418-.553-3.203-1.6-1.328-1.768-.969-4.275.801-5.6l16-12c1.766-1.33 4.273-.969 5.598.799 1.328 1.768.969 4.275-.801 5.6l-16 12c-.719.541-1.559.801-2.395.801z"/><path d="m94.004 101.737c-1.219 0-2.418-.553-3.203-1.6-1.328-1.768-.969-4.275.801-5.6l16-12c1.766-1.33 4.273-.969 5.598.799 1.328 1.768.969 4.275-.801 5.6l-16 12c-.719.541-1.559.801-2.395.801z"/><path d="m94.004 121.737c-1.219 0-2.418-.553-3.203-1.6-1.328-1.768-.969-4.275.801-5.6l16-12c1.766-1.33 4.273-.969 5.598.799 1.328 1.768.969 4.275-.801 5.6l-16 12c-.719.541-1.559.801-2.395.801z"/><path d="m94.004 141.737c-1.219 0-2.418-.553-3.203-1.6-1.328-1.768-.969-4.275.801-5.6l16-12c1.766-1.332 4.273-.969 5.598.799 1.328 1.768.969 4.275-.801 5.6l-16 12c-.719.541-1.559.801-2.395.801z"/></g><g><path d="m130 161.737c-11.046 0-20-8.954-20-20v-76c0-11.046 8.954-20 20-20 11.046 0 20 8.954 20 20v76c0 11.045-8.954 20-20 20z" fill="#ffce56"/><path d="m130 165.737c-13.234 0-24-10.766-24-24v-76c0-13.234 10.766-24 24-24s24 10.766 24 24v76c0 13.234-10.766 24-24 24zm0-116c-8.824 0-16 7.178-16 16v76c0 8.822 7.176 16 16 16s16-7.178 16-16v-76c0-8.823-7.176-16-16-16z" fill="#4c241d"/></g><path d="m130 241.737c-2.211 0-4-1.791-4-4v-76c0-2.209 1.789-4 4-4s4 1.791 4 4v76c0 2.209-1.789 4-4 4z" fill="#4c241d"/><path d="m125.996 81.737c-.836 0-1.676-.26-2.395-.801l-16-12c-1.77-1.324-2.129-3.832-.801-5.6 1.324-1.766 3.832-2.129 5.598-.799l16 12c1.77 1.324 2.129 3.832.801 5.6-.785 1.047-1.984 1.6-3.203 1.6z" fill="#4c241d"/><path d="m125.996 101.737c-.836 0-1.676-.26-2.395-.801l-16-12c-1.77-1.324-2.129-3.832-.801-5.6 1.324-1.766 3.832-2.125 5.598-.799l16 12c1.77 1.324 2.129 3.832.801 5.6-.785 1.047-1.984 1.6-3.203 1.6z" fill="#4c241d"/><path d="m125.996 121.737c-.836 0-1.676-.26-2.395-.801l-16-12c-1.77-1.324-2.129-3.832-.801-5.6 1.324-1.766 3.832-2.125 5.598-.799l16 12c1.77 1.324 2.129 3.832.801 5.6-.785 1.047-1.984 1.6-3.203 1.6z" fill="#4c241d"/><path d="m125.996 141.737c-.836 0-1.676-.26-2.395-.801l-16-12c-1.77-1.324-2.129-3.832-.801-5.6 1.324-1.764 3.832-2.125 5.598-.799l16 12c1.77 1.324 2.129 3.832.801 5.6-.785 1.047-1.984 1.6-3.203 1.6z" fill="#4c241d"/><path d="m134.004 81.737c-1.219 0-2.418-.553-3.203-1.6-1.328-1.768-.969-4.275.801-5.6l16-12c1.766-1.33 4.273-.969 5.598.799 1.328 1.768.969 4.275-.801 5.6l-16 12c-.719.541-1.559.801-2.395.801z" fill="#4c241d"/><path d="m134.004 101.737c-1.219 0-2.418-.553-3.203-1.6-1.328-1.768-.969-4.275.801-5.6l16-12c1.766-1.33 4.273-.969 5.598.799 1.328 1.768.969 4.275-.801 5.6l-16 12c-.719.541-1.559.801-2.395.801z" fill="#4c241d"/><path d="m134.004 121.737c-1.219 0-2.418-.553-3.203-1.6-1.328-1.768-.969-4.275.801-5.6l16-12c1.766-1.33 4.273-.969 5.598.799 1.328 1.768.969 4.275-.801 5.6l-16 12c-.719.541-1.559.801-2.395.801z" fill="#4c241d"/><path d="m134.004 141.737c-1.219 0-2.418-.553-3.203-1.6-1.328-1.768-.969-4.275.801-5.6l16-12c1.766-1.332 4.273-.969 5.598.799 1.328 1.768.969 4.275-.801 5.6l-16 12c-.719.541-1.559.801-2.395.801z" fill="#4c241d"/><g><path d="m170 161.737c-11.046 0-20-8.954-20-20v-76c0-11.046 8.954-20 20-20 11.046 0 20 8.954 20 20v76c0 11.045-8.954 20-20 20z" fill="#ffec95"/><path d="m170 165.737c-13.234 0-24-10.766-24-24v-76c0-13.234 10.766-24 24-24s24 10.766 24 24v76c0 13.234-10.766 24-24 24zm0-116c-8.824 0-16 7.178-16 16v76c0 8.822 7.176 16 16 16s16-7.178 16-16v-76c0-8.823-7.176-16-16-16z" fill="#4c241d"/></g><path d="m170 241.737c-2.211 0-4-1.791-4-4v-76c0-2.209 1.789-4 4-4s4 1.791 4 4v76c0 2.209-1.789 4-4 4z" fill="#4c241d"/><path d="m165.996 81.737c-.836 0-1.676-.26-2.395-.801l-16-12c-1.77-1.324-2.129-3.832-.801-5.6 1.324-1.766 3.832-2.129 5.598-.799l16 12c1.77 1.324 2.129 3.832.801 5.6-.785 1.047-1.984 1.6-3.203 1.6z" fill="#4c241d"/><path d="m165.996 101.737c-.836 0-1.676-.26-2.395-.801l-16-12c-1.77-1.324-2.129-3.832-.801-5.6 1.324-1.766 3.832-2.125 5.598-.799l16 12c1.77 1.324 2.129 3.832.801 5.6-.785 1.047-1.984 1.6-3.203 1.6z" fill="#4c241d"/><path d="m165.996 121.737c-.836 0-1.676-.26-2.395-.801l-16-12c-1.77-1.324-2.129-3.832-.801-5.6 1.324-1.766 3.832-2.125 5.598-.799l16 12c1.77 1.324 2.129 3.832.801 5.6-.785 1.047-1.984 1.6-3.203 1.6z" fill="#4c241d"/><path d="m165.996 141.737c-.836 0-1.676-.26-2.395-.801l-16-12c-1.77-1.324-2.129-3.832-.801-5.6 1.324-1.764 3.832-2.125 5.598-.799l16 12c1.77 1.324 2.129 3.832.801 5.6-.785 1.047-1.984 1.6-3.203 1.6z" fill="#4c241d"/><path d="m174.004 81.737c-1.219 0-2.418-.553-3.203-1.6-1.328-1.768-.969-4.275.801-5.6l16-12c1.762-1.33 4.273-.969 5.598.799 1.328 1.768.969 4.275-.801 5.6l-16 12c-.719.541-1.559.801-2.395.801z" fill="#4c241d"/><path d="m174.004 101.737c-1.219 0-2.418-.553-3.203-1.6-1.328-1.768-.969-4.275.801-5.6l16-12c1.762-1.33 4.273-.969 5.598.799 1.328 1.768.969 4.275-.801 5.6l-16 12c-.719.541-1.559.801-2.395.801z" fill="#4c241d"/><path d="m174.004 121.737c-1.219 0-2.418-.553-3.203-1.6-1.328-1.768-.969-4.275.801-5.6l16-12c1.762-1.33 4.273-.969 5.598.799 1.328 1.768.969 4.275-.801 5.6l-16 12c-.719.541-1.559.801-2.395.801z" fill="#4c241d"/><path d="m174.004 141.737c-1.219 0-2.418-.553-3.203-1.6-1.328-1.768-.969-4.275.801-5.6l16-12c1.762-1.332 4.273-.969 5.598.799 1.328 1.768.969 4.275-.801 5.6l-16 12c-.719.541-1.559.801-2.395.801z" fill="#4c241d"/><g><path d="m210 161.737c-11.046 0-20-8.954-20-20v-76c0-11.046 8.954-20 20-20 11.046 0 20 8.954 20 20v76c0 11.045-8.954 20-20 20z" fill="#ffce56"/><path d="m210 165.737c-13.234 0-24-10.766-24-24v-76c0-13.234 10.766-24 24-24s24 10.766 24 24v76c0 13.234-10.766 24-24 24zm0-116c-8.824 0-16 7.178-16 16v76c0 8.822 7.176 16 16 16s16-7.178 16-16v-76c0-8.823-7.176-16-16-16z" fill="#4c241d"/></g><path d="m210 241.737c-2.211 0-4-1.791-4-4v-76c0-2.209 1.789-4 4-4s4 1.791 4 4v76c0 2.209-1.789 4-4 4z" fill="#4c241d"/><path d="m205.996 81.737c-.836 0-1.676-.26-2.395-.801l-16-12c-1.77-1.324-2.129-3.832-.801-5.6 1.324-1.766 3.832-2.129 5.598-.799l16 12c1.77 1.324 2.129 3.832.801 5.6-.785 1.047-1.984 1.6-3.203 1.6z" fill="#4c241d"/><path d="m205.996 101.737c-.836 0-1.676-.26-2.395-.801l-16-12c-1.77-1.324-2.129-3.832-.801-5.6 1.324-1.766 3.832-2.125 5.598-.799l16 12c1.77 1.324 2.129 3.832.801 5.6-.785 1.047-1.984 1.6-3.203 1.6z" fill="#4c241d"/><path d="m205.996 121.737c-.836 0-1.676-.26-2.395-.801l-16-12c-1.77-1.324-2.129-3.832-.801-5.6 1.324-1.766 3.832-2.125 5.598-.799l16 12c1.77 1.324 2.129 3.832.801 5.6-.785 1.047-1.984 1.6-3.203 1.6z" fill="#4c241d"/><path d="m205.996 141.737c-.836 0-1.676-.26-2.395-.801l-16-12c-1.77-1.324-2.129-3.832-.801-5.6 1.324-1.764 3.832-2.125 5.598-.799l16 12c1.77 1.324 2.129 3.832.801 5.6-.785 1.047-1.984 1.6-3.203 1.6z" fill="#4c241d"/><path d="m214.004 81.737c-1.219 0-2.418-.553-3.203-1.6-1.328-1.768-.969-4.275.801-5.6l16-12c1.762-1.33 4.273-.969 5.598.799 1.328 1.768.969 4.275-.801 5.6l-16 12c-.719.541-1.559.801-2.395.801z" fill="#4c241d"/><path d="m214.004 101.737c-1.219 0-2.418-.553-3.203-1.6-1.328-1.768-.969-4.275.801-5.6l16-12c1.762-1.33 4.273-.969 5.598.799 1.328 1.768.969 4.275-.801 5.6l-16 12c-.719.541-1.559.801-2.395.801z" fill="#4c241d"/><path d="m214.004 121.737c-1.219 0-2.418-.553-3.203-1.6-1.328-1.768-.969-4.275.801-5.6l16-12c1.762-1.33 4.273-.969 5.598.799 1.328 1.768.969 4.275-.801 5.6l-16 12c-.719.541-1.559.801-2.395.801z" fill="#4c241d"/><path d="m214.004 141.737c-1.219 0-2.418-.553-3.203-1.6-1.328-1.768-.969-4.275.801-5.6l16-12c1.762-1.332 4.273-.969 5.598.799 1.328 1.768.969 4.275-.801 5.6l-16 12c-.719.541-1.559.801-2.395.801z" fill="#4c241d"/></g></svg>