<svg id="radish-turnip" enable-background="new 0 0 300 300" height="512" viewBox="0 0 300 300" width="512" xmlns="http://www.w3.org/2000/svg"><g><circle cx="142.408" cy="143.676" fill="#edebdc" r="92"/><g fill="#4c241d"><path d="m234.408 223.676c-2.209 0-4-1.791-4-4v-8c0-2.209 1.791-4 4-4s4 1.791 4 4v8c0 2.209-1.791 4-4 4z"/><path d="m234.408 247.676c-2.209 0-4-1.791-4-4v-8c0-2.209 1.791-4 4-4s4 1.791 4 4v8c0 2.209-1.791 4-4 4z"/><path d="m226.408 231.676h-8c-2.209 0-4-1.791-4-4s1.791-4 4-4h8c2.209 0 4 1.791 4 4s-1.791 4-4 4z"/><path d="m250.408 231.676h-8c-2.209 0-4-1.791-4-4s1.791-4 4-4h8c2.209 0 4 1.791 4 4s-1.791 4-4 4z"/><path d="m58.986 68.324c-7.719 0-14-6.281-14-14s6.281-14 14-14 14 6.281 14 14-6.281 14-14 14zm0-20c-3.309 0-6 2.691-6 6s2.691 6 6 6 6-2.691 6-6-2.691-6-6-6z"/><circle cx="41.315" cy="90.715" r="4.276"/><circle cx="261.315" cy="190.715" r="4.276"/></g><g><path d="m166.408 187.676v25.171c0 14.09-7.639 27.073-19.956 33.916l-16.044 8.913 18.058-6.019c17.881-5.96 29.942-22.694 29.942-41.542v-20.438h-12z" fill="#f93f74"/><path d="m130.408 259.676c-1.547 0-3.008-.902-3.662-2.389-.832-1.893-.086-4.105 1.719-5.107l16.043-8.912c11.041-6.135 17.9-17.791 17.9-30.422v-25.17c0-2.209 1.791-4 4-4h12c2.209 0 4 1.791 4 4v20.438c0 20.602-13.131 38.822-32.676 45.338l-18.059 6.02c-.419.137-.845.204-1.265.204zm40-68v21.17c0 7.604-2.021 14.922-5.678 21.295 6.104-7.059 9.678-16.219 9.678-26.027v-16.438z" fill="#4c241d"/></g><g><path d="m198.408 199.676h-47.605c-26.51 0-48-21.49-48-48v-12c0-26.51 21.49-48 48-48h47.605c26.51 0 48 21.49 48 48v12c0 26.509-21.49 48-48 48z" fill="#f93f74"/><path d="m198.408 203.676h-47.605c-28.674 0-52-23.326-52-52v-12c0-28.674 23.326-52 52-52h47.605c28.674 0 52 23.326 52 52v12c0 28.674-23.326 52-52 52zm-47.605-108c-24.262 0-44 19.738-44 44v12c0 24.262 19.738 44 44 44h47.605c24.262 0 44-19.738 44-44v-12c0-24.262-19.738-44-44-44z" fill="#4c241d"/></g><g><circle cx="90.408" cy="167.676" fill="#f93f74" r="52"/><path d="m90.408 223.676c-30.879 0-56-25.121-56-56s25.121-56 56-56 56 25.121 56 56-25.121 56-56 56zm0-104c-26.467 0-48 21.533-48 48s21.533 48 48 48 48-21.533 48-48-21.533-48-48-48z" fill="#4c241d"/></g><g><circle cx="90.408" cy="167.676" fill="#efefd2" r="38.81"/><path d="m90.408 210.486c-23.605 0-42.811-19.205-42.811-42.811s19.205-42.811 42.811-42.811 42.811 19.205 42.811 42.811-19.205 42.811-42.811 42.811zm0-77.621c-19.195 0-34.811 15.615-34.811 34.811s15.615 34.811 34.811 34.811 34.811-15.615 34.811-34.811-15.616-34.811-34.811-34.811z" fill="#4c241d"/></g><path d="m216.07 186.168c-1.143 0-2.277-.486-3.068-1.432-1.418-1.693-1.195-4.217.498-5.635 6.955-5.826 10.943-14.363 10.943-23.426 0-2.209 1.791-4 4-4s4 1.791 4 4c0 11.436-5.033 22.209-13.807 29.559-.747.627-1.66.934-2.566.934z" fill="#4c241d"/><g><path d="m163.991 91.676-10.964-28h9.245l9.244 10 5.245-18h23.112l-14.587 36z" fill="#77a052"/><path d="m185.285 95.676h-21.295c-1.646 0-3.125-1.008-3.725-2.541l-10.963-28c-.482-1.232-.324-2.621.42-3.713.746-1.094 1.982-1.746 3.305-1.746h9.244c1.115 0 2.18.465 2.938 1.285l4.445 4.809 3.268-11.213c.498-1.707 2.062-2.881 3.84-2.881h23.111c1.33 0 2.574.662 3.316 1.766.744 1.104.891 2.504.391 3.736l-14.588 36c-.611 1.51-2.078 2.498-3.707 2.498zm-18.564-8h15.869l11.346-28h-14.174l-4.406 15.119c-.402 1.385-1.52 2.443-2.924 2.773-1.4.328-2.875-.119-3.854-1.178l-8.057-8.715h-1.633z" fill="#4c241d"/></g></g></svg>