<svg id="zuccini" enable-background="new 0 0 300 300" height="512" viewBox="0 0 300 300" width="512" xmlns="http://www.w3.org/2000/svg"><g><circle cx="138.596" cy="147.26" fill="#edebdc" r="92"/><g fill="#4c241d"><path d="m236.367 52.74c-2.211 0-4-1.791-4-4v-8c0-2.209 1.789-4 4-4s4 1.791 4 4v8c0 2.209-1.789 4-4 4z"/><path d="m236.367 76.74c-2.211 0-4-1.791-4-4v-8c0-2.209 1.789-4 4-4s4 1.791 4 4v8c0 2.209-1.789 4-4 4z"/><path d="m228.367 60.74h-8c-2.211 0-4-1.791-4-4s1.789-4 4-4h8c2.211 0 4 1.791 4 4s-1.789 4-4 4z"/><path d="m252.367 60.74h-8c-2.211 0-4-1.791-4-4s1.789-4 4-4h8c2.211 0 4 1.791 4 4s-1.789 4-4 4z"/><path d="m60.594 135.26c-7.719 0-14-6.281-14-14s6.281-14 14-14 14 6.281 14 14-6.281 14-14 14zm0-20c-3.309 0-6 2.691-6 6s2.691 6 6 6 6-2.691 6-6-2.692-6-6-6z"/><circle cx="47.909" cy="60.026" r="4.276"/><circle cx="243.909" cy="124.026" r="4.276"/></g><g><path d="m150.135 69.851 8-21.111h12l-4 38z" fill="#a9ba5a"/><path d="m166.137 90.74c-1.078 0-2.137-.438-2.902-1.248l-16-16.889c-1.059-1.115-1.383-2.734-.84-4.17l8-21.111c.59-1.555 2.078-2.582 3.742-2.582h12c1.133 0 2.215.48 2.973 1.324.758.842 1.125 1.967 1.004 3.094l-4 38c-.16 1.553-1.215 2.869-2.691 3.371-.423.143-.856.211-1.286.211zm-11.371-21.818 8.301 8.764 2.629-24.945h-4.797z" fill="#4c241d"/></g><g><path d="m181.732 219.06c.342 3.17.445 6.373-.068 9.519-2.79 17.105-17.635 30.161-35.529 30.161-19.882 0-36-16.118-36-36 0 0-3.773-113.204 32.66-149.029 2.498-2.457 5.656-4.153 9.116-4.707 3.925-.629 9.197-.387 13.668 3.588 2.972 2.642 4.591 6.463 4.977 10.421 1.43 14.65 6.089 63.709 7.579 95.728.517 11.119 2.688 31.903 3.597 40.319z" fill="#77a052"/><path d="m146.137 262.74c-22.055 0-40-17.943-40-40-.156-4.561-3.406-115.248 33.855-151.881 3.172-3.121 7.074-5.129 11.285-5.805 6.562-1.062 12.43.52 16.961 4.549 3.555 3.16 5.793 7.785 6.297 13.023 1.402 14.379 6.102 63.805 7.598 95.928.504 10.902 2.668 31.66 3.574 40.078.445 4.094.414 7.459-.094 10.59-3.168 19.423-19.769 33.518-39.476 33.518zm9.012-190.002c-.836 0-1.703.07-2.605.215-2.559.41-4.961 1.658-6.941 3.609-34.766 34.182-31.504 144.93-31.469 146.045.004 17.777 14.359 32.133 32.004 32.133 15.766 0 29.047-11.273 31.578-26.805.391-2.398.402-5.082.039-8.443 0-.002 0-.002 0-.004-1.137-10.547-3.117-29.842-3.613-40.562-1.488-31.934-6.168-81.189-7.566-95.525-.312-3.227-1.609-6.002-3.652-7.818-2.131-1.894-4.736-2.845-7.775-2.845z" fill="#4c241d"/></g><path d="m128.32 258.008c-2.012 0-3.742-1.51-3.973-3.553-8.781-78.064-.773-139.42 24.477-187.572 1.023-1.955 3.438-2.713 5.402-1.686 1.953 1.027 2.711 3.443 1.684 5.4-24.484 46.691-32.207 106.539-23.609 182.963.246 2.195-1.336 4.176-3.531 4.422-.149.018-.301.026-.45.026z" fill="#4c241d"/><g><circle cx="96.596" cy="221.26" fill="#77a052" r="38"/><path d="m96.594 263.26c-23.16 0-42-18.842-42-42s18.84-42 42-42 42 18.842 42 42-18.84 42-42 42zm0-76c-18.746 0-34 15.252-34 34s15.254 34 34 34 34-15.252 34-34-15.254-34-34-34z" fill="#4c241d"/></g><g><circle cx="96.596" cy="221.26" fill="#ffec95" r="24.255"/><path d="m96.594 249.514c-15.578 0-28.254-12.674-28.254-28.254s12.676-28.254 28.254-28.254c15.582 0 28.258 12.674 28.258 28.254s-12.676 28.254-28.258 28.254zm0-48.508c-11.168 0-20.254 9.086-20.254 20.254s9.086 20.254 20.254 20.254c11.172 0 20.258-9.086 20.258-20.254s-9.086-20.254-20.258-20.254z" fill="#4c241d"/></g></g></svg>