<svg id="mushroom" enable-background="new 0 0 300 300" height="512" viewBox="0 0 300 300" width="512" xmlns="http://www.w3.org/2000/svg"><g><circle cx="118.562" cy="154" fill="#edebdc" r="92"/><g fill="#4c241d"><path d="m246.562 58c-2.209 0-4-1.791-4-4v-8c0-2.209 1.791-4 4-4s4 1.791 4 4v8c0 2.209-1.791 4-4 4z"/><path d="m246.562 82c-2.209 0-4-1.791-4-4v-8c0-2.209 1.791-4 4-4s4 1.791 4 4v8c0 2.209-1.791 4-4 4z"/><path d="m238.562 66h-8c-2.209 0-4-1.791-4-4s1.791-4 4-4h8c2.209 0 4 1.791 4 4s-1.791 4-4 4z"/><path d="m262.562 66h-8c-2.209 0-4-1.791-4-4s1.791-4 4-4h8c2.209 0 4 1.791 4 4s-1.791 4-4 4z"/><path d="m60.562 66c-7.719 0-14-6.281-14-14s6.281-14 14-14 14 6.281 14 14-6.281 14-14 14zm0-20c-3.309 0-6 2.691-6 6s2.691 6 6 6 6-2.691 6-6-2.691-6-6-6z"/><circle cx="113.161" cy="61.47" r="4.276"/><circle cx="269.161" cy="125.47" r="4.276"/></g><g><path d="m150.939 154.557c-41.704 0-76.463 19.075-84.356 44.391 19.712 16.003 50.137 26.303 84.356 26.303s64.644-10.3 84.356-26.303c-7.893-25.316-42.652-44.391-84.356-44.391z" fill="#bf7e68"/><path d="m150.939 229.252c-33.92 0-65.586-9.912-86.877-27.197-1.27-1.031-1.785-2.732-1.297-4.297 8.527-27.35 45.609-47.201 88.174-47.201s79.646 19.852 88.174 47.201c.488 1.564-.027 3.266-1.297 4.297-21.291 17.285-52.957 27.197-86.877 27.197zm-79.629-31.676c19.854 15.074 48.678 23.676 79.629 23.676s59.775-8.602 79.629-23.676c-9.037-22.762-41.877-39.02-79.629-39.02s-70.592 16.258-79.629 39.02z" fill="#4c241d"/></g><g><path d="m150.939 86.879c-59.438 0-107.623 30.976-107.623 69.186 0 16.212 8.739 31.089 23.267 42.883 5.779-18.534 25.986-33.686 52.746-40.494l-6.8 81.262c-.823 9.841 6.942 18.284 16.818 18.284h43.184c9.876 0 17.641-8.442 16.818-18.284l-6.799-81.262c26.76 6.808 46.967 21.96 52.746 40.494 14.528-11.794 23.267-26.671 23.267-42.883-.001-38.211-48.185-69.186-107.624-69.186z" fill="#edebdc"/><path d="m172.531 262h-43.184c-5.822 0-11.422-2.457-15.363-6.742-3.943-4.285-5.926-10.072-5.441-15.875l6.32-75.514c-22.791 7.074-39.596 20.668-44.461 36.271-.395 1.266-1.393 2.254-2.662 2.639-1.268.377-2.646.111-3.678-.725-16.189-13.143-24.746-29.045-24.746-45.99 0-40.355 50.074-73.186 111.623-73.186s111.623 32.83 111.623 73.186c0 16.943-8.557 32.848-24.744 45.99-1.031.836-2.41 1.102-3.678.725-1.27-.385-2.268-1.373-2.662-2.639-4.865-15.604-21.67-29.195-44.463-36.271l6.32 75.514c.484 5.803-1.498 11.59-5.441 15.875-3.941 4.285-9.541 6.742-15.363 6.742zm-53.201-107.545c.936 0 1.854.328 2.584.947.988.836 1.51 2.098 1.402 3.387l-6.801 81.262c-.303 3.631.889 7.107 3.355 9.791 2.467 2.682 5.832 4.158 9.477 4.158h43.184c3.645 0 7.01-1.477 9.477-4.158 2.467-2.684 3.658-6.16 3.355-9.791l-6.801-81.262c-.107-1.289.414-2.551 1.402-3.387.988-.838 2.318-1.137 3.57-.824 25.91 6.594 45.385 20.43 53.424 37.629 11.539-10.771 17.604-23.178 17.604-36.143 0-35.943-46.484-65.186-103.623-65.186s-103.623 29.243-103.623 65.186c0 12.967 6.064 25.371 17.605 36.143 8.039-17.199 27.514-31.037 53.422-37.629.327-.082.657-.123.987-.123z" fill="#4c241d"/></g><path d="m84.773 128.482c-1.273 0-2.525-.607-3.301-1.736-1.252-1.82-.789-4.311 1.033-5.561 17.757-12.193 43.292-19.185 70.057-19.185 22.172 0 43.668 4.797 60.527 13.506 1.963 1.016 2.732 3.428 1.719 5.391-1.012 1.961-3.424 2.734-5.391 1.719-15.745-8.136-35.937-12.616-56.855-12.616-25.188 0-49.072 6.48-65.529 17.779-.691.477-1.48.703-2.26.703z" fill="#4c241d"/><path d="m130.566 258c-.064 0-.129-.002-.193-.004-2.207-.105-3.91-1.98-3.807-4.186l4-84c.107-2.205 2.012-3.867 4.186-3.807 2.207.105 3.91 1.98 3.807 4.186l-4 84c-.104 2.143-1.872 3.811-3.993 3.811z" fill="#4c241d"/><path d="m170.558 258c-2.121 0-3.889-1.668-3.992-3.811l-4-84c-.104-2.205 1.6-4.08 3.807-4.186 2.172-.121 4.078 1.6 4.186 3.807l4 84c.104 2.205-1.6 4.08-3.807 4.186-.065.002-.129.004-.194.004z" fill="#4c241d"/><path d="m150.562 258c-2.209 0-4-1.791-4-4v-44c0-2.209 1.791-4 4-4s4 1.791 4 4v44c0 2.209-1.791 4-4 4z" fill="#4c241d"/><path d="m204.763 218.051c-2.109 0-3.875-1.652-3.99-3.785-1.09-20.182-17.543-50.025-17.709-50.324-.926-1.67-.543-3.764.916-4.996 1.457-1.234 3.586-1.264 5.078-.07 1.412 1.127 34.629 27.859 37.975 47.801.365 2.18-1.105 4.242-3.283 4.607-2.184.367-4.242-1.105-4.607-3.283-1.447-8.627-10.938-20.102-20.127-29.338 4.506 10.617 9.143 23.992 9.746 35.174.119 2.205-1.572 4.09-3.779 4.209-.073.003-.147.005-.22.005z" fill="#4c241d"/><path d="m96.361 218.051c-.072 0-.146-.002-.219-.006-2.207-.119-3.898-2.004-3.779-4.209.604-11.172 5.23-24.531 9.734-35.143-8.719 8.77-17.734 19.578-19.848 28.033-.537 2.145-2.715 3.457-4.852 2.91-2.143-.537-3.445-2.709-2.91-4.852 4.91-19.635 36.246-44.848 37.578-45.91 1.49-1.191 3.619-1.162 5.078.07s1.842 3.326.916 4.996c-.166.299-16.621 30.168-17.709 50.324-.114 2.134-1.88 3.787-3.989 3.787z" fill="#4c241d"/></g></svg>