<svg id="beet" enable-background="new 0 0 300 300" height="512" viewBox="0 0 300 300" width="512" xmlns="http://www.w3.org/2000/svg"><g><circle cx="141.093" cy="143.913" fill="#edebdc" r="92"/><g fill="#4c241d"><path d="m233.093 223.914c-2.211 0-4-1.791-4-4v-8c0-2.209 1.789-4 4-4s4 1.791 4 4v8c0 2.209-1.789 4-4 4z"/><path d="m233.093 247.914c-2.211 0-4-1.791-4-4v-8c0-2.209 1.789-4 4-4s4 1.791 4 4v8c0 2.209-1.789 4-4 4z"/><path d="m225.093 231.914h-8c-2.211 0-4-1.791-4-4s1.789-4 4-4h8c2.211 0 4 1.791 4 4s-1.789 4-4 4z"/><path d="m249.093 231.914h-8c-2.211 0-4-1.791-4-4s1.789-4 4-4h8c2.211 0 4 1.791 4 4s-1.789 4-4 4z"/><path d="m57.671 68.562c-7.719 0-14-6.281-14-14s6.281-14 14-14 14 6.281 14 14-6.281 14-14 14zm0-20c-3.309 0-6 2.691-6 6s2.691 6 6 6 6-2.691 6-6-2.691-6-6-6z"/><circle cx="40" cy="90.953" r="4.276"/><circle cx="260" cy="190.953" r="4.276"/></g><g><path d="m177.34 187.438v25.171c0 14.09-7.639 27.073-19.956 33.916l-16.044 8.913 18.058-6.019c17.881-5.96 29.942-22.694 29.942-41.542v-20.438h-12z" fill="#f93f74"/><path d="m141.339 259.438c-1.547 0-3.008-.902-3.66-2.389-.832-1.893-.09-4.105 1.719-5.107l16.047-8.912c11.039-6.135 17.895-17.791 17.895-30.42v-25.172c0-2.209 1.789-4 4-4h12c2.211 0 4 1.791 4 4v20.439c0 20.604-13.133 38.822-32.676 45.336l-18.059 6.02c-.418.138-.844.205-1.266.205zm40-68v21.172c0 7.604-2.02 14.922-5.676 21.295 6.102-7.059 9.676-16.219 9.676-26.027v-16.439h-4z" fill="#4c241d"/></g><g><path d="m174.923 87.529-10.964-28h9.245l9.245 10 5.245-18h23.112l-14.588 36z" fill="#e66353"/><path d="m196.218 91.529h-21.293c-1.645 0-3.125-1.008-3.723-2.541l-10.965-28c-.484-1.232-.328-2.621.418-3.713.746-1.094 1.984-1.746 3.305-1.746h9.242c1.117 0 2.18.465 2.938 1.285l4.445 4.809 3.27-11.213c.496-1.707 2.062-2.881 3.84-2.881h23.109c1.332 0 2.574.662 3.316 1.766.746 1.104.891 2.504.391 3.736l-14.586 36c-.613 1.51-2.078 2.498-3.707 2.498zm-18.563-8h15.867l11.344-28h-14.172l-4.406 15.119c-.402 1.385-1.52 2.443-2.922 2.773-1.41.328-2.879-.119-3.855-1.178l-8.059-8.715h-1.629z" fill="#4c241d"/></g><g><path d="m239.138 147.915c0 29.823-24.177 54-54 54s-54-24.177-54-54 26.177-62 56-62 52 32.177 52 62z" fill="#f93f74"/><path d="m185.14 205.916c-31.98 0-58-26.02-58-58 0-37.17 32.254-66 60-66 33 0 56 34.783 56 66 0 31.98-26.02 58-58 58zm2-116c-26.242 0-52 28.729-52 58 0 27.57 22.43 50 50 50s50-22.43 50-50c0-27.379-20.528-58-48-58z" fill="#4c241d"/></g><path d="m210.687 176.139c-1.023 0-2.047-.391-2.828-1.172-1.562-1.562-1.562-4.096 0-5.656 6.066-6.066 9.41-14.135 9.41-22.719 0-2.209 1.789-4 4-4s4 1.791 4 4c0 10.721-4.176 20.799-11.754 28.375-.782.781-1.805 1.172-2.828 1.172z" fill="#4c241d"/><g><circle cx="103.866" cy="175.529" fill="#f93f74" r="56"/><path d="m103.866 235.529c-33.086 0-60-26.916-60-60s26.914-60 60-60 60 26.916 60 60-26.914 60-60 60zm0-112c-28.672 0-52 23.326-52 52s23.328 52 52 52 52-23.326 52-52-23.328-52-52-52z" fill="#4c241d"/></g><g><circle cx="103.866" cy="175.529" fill="#f93f74" r="36.69"/><path d="m103.866 216.219c-22.438 0-40.691-18.254-40.691-40.689s18.254-40.689 40.691-40.689 40.691 18.254 40.691 40.689-18.253 40.689-40.691 40.689zm0-73.379c-18.027 0-32.691 14.664-32.691 32.689s14.664 32.689 32.691 32.689 32.691-14.664 32.691-32.689-14.663-32.689-32.691-32.689z" fill="#4c241d"/></g><g><circle cx="103.866" cy="175.529" fill="#f93f74" r="18.112"/><path d="m103.866 197.641c-12.191 0-22.113-9.92-22.113-22.111s9.922-22.111 22.113-22.111 22.113 9.92 22.113 22.111-9.921 22.111-22.113 22.111zm0-36.223c-7.781 0-14.113 6.33-14.113 14.111s6.332 14.111 14.113 14.111 14.113-6.33 14.113-14.111-6.331-14.111-14.113-14.111z" fill="#4c241d"/></g></g></svg>