<svg id="squash" enable-background="new 0 0 300 300" height="512" viewBox="0 0 300 300" width="512" xmlns="http://www.w3.org/2000/svg"><g><circle cx="134" cy="168.117" fill="#edebdc" r="92"/><g fill="#4c241d"><path d="m69.838 47.883c-2.209 0-4-1.791-4-4v-8c0-2.209 1.791-4 4-4s4 1.791 4 4v8c0 2.209-1.791 4-4 4z"/><path d="m69.838 71.883c-2.209 0-4-1.791-4-4v-8c0-2.209 1.791-4 4-4s4 1.791 4 4v8c0 2.209-1.791 4-4 4z"/><path d="m61.838 55.883h-8c-2.209 0-4-1.791-4-4s1.791-4 4-4h8c2.209 0 4 1.791 4 4s-1.791 4-4 4z"/><path d="m85.838 55.883h-8c-2.209 0-4-1.791-4-4s1.791-4 4-4h8c2.209 0 4 1.791 4 4s-1.791 4-4 4z"/><path d="m248 124.117c-7.719 0-14-6.281-14-14s6.281-14 14-14 14 6.281 14 14-6.281 14-14 14zm0-20c-3.309 0-6 2.691-6 6s2.691 6 6 6 6-2.691 6-6-2.691-6-6-6z"/><circle cx="214.747" cy="48.418" r="4.276"/><circle cx="58.747" cy="132.418" r="4.276"/></g><g><path d="m199.472 139.419-2.639-28.102c-1.918-20.421-18.273-37.434-39.333-39.065-23.697-1.834-44.087 15.155-46.205 37.707l-2.766 29.459c-1.46 15.549-7.216 30.245-15.385 43.695-4.571 7.527-7.144 16.017-7.144 25.004 0 30.928 30.445 56 68 56s68-25.072 68-56c0-8.987-2.573-17.477-7.143-25.002-8.169-13.45-13.925-28.147-15.385-43.696z" fill="#ffec95"/><path d="m154 268.117c-39.701 0-72-26.916-72-60 0-9.529 2.6-18.639 7.725-27.078 8.537-14.059 13.525-28.188 14.822-41.994l2.766-29.457c2.324-24.76 25.012-43.275 50.496-41.324 22.762 1.764 40.848 19.713 43.008 42.682l2.641 28.1v.002c1.293 13.799 6.277 27.928 14.816 41.992 5.129 8.441 7.727 17.551 7.727 27.078-.001 33.083-32.302 59.999-72.001 59.999zm.078-191.998c-19.891 0-36.977 14.783-38.801 34.215l-2.766 29.459c-1.412 15.023-6.777 30.297-15.951 45.398-4.353 7.17-6.56 14.883-6.56 22.926 0 28.674 28.711 52 64 52s64-23.326 64-52c0-8.041-2.207-15.754-6.562-22.926-9.176-15.107-14.539-30.383-15.949-45.398v.002l-2.641-28.102c-1.762-18.773-17.09-34.016-35.656-35.453-1.044-.08-2.083-.121-3.114-.121z" fill="#4c241d"/></g><path d="m107.844 198.932c-.363 0-.73-.051-1.098-.154-2.125-.605-3.355-2.818-2.752-4.943 1.254-4.404 3.104-8.693 5.494-12.75 8.293-14.07 13.135-28.211 14.393-42.027l2.686-29.459c1.652-18.119 13.883-33.506 31.16-39.197 2.086-.691 4.359.449 5.051 2.547s-.449 4.359-2.551 5.051c-14.246 4.693-24.33 17.383-25.691 32.326l-2.686 29.459c-1.367 15.002-6.572 30.266-15.471 45.363-2.045 3.469-3.623 7.129-4.689 10.879-.502 1.756-2.104 2.905-3.846 2.905z" fill="#4c241d"/><path d="m198.383 229.816c-.52 0-1.047-.102-1.555-.316-2.035-.859-2.988-3.205-2.129-5.24 2.191-5.193 3.301-10.623 3.301-16.143 0-8.012-2.301-15.703-6.836-22.861-9.582-15.113-15.188-30.404-16.66-45.445l-2.891-29.459c-1.461-14.92-12.359-27.609-27.762-32.328-2.111-.646-3.299-2.883-2.652-4.996.645-2.107 2.871-3.303 4.996-2.652 18.5 5.666 31.602 21.053 33.379 39.195l2.891 29.459c1.352 13.785 6.551 27.896 15.457 41.943 5.359 8.459 8.078 17.592 8.078 27.145 0 6.594-1.324 13.07-3.934 19.252-.644 1.526-2.125 2.446-3.683 2.446z" fill="#4c241d"/><path d="m154 138.564c-2.211 0-4-1.791-4-4v-58.447c0-2.209 1.789-4 4-4s4 1.791 4 4v58.447c0 2.209-1.789 4-4 4z" fill="#4c241d"/><path d="m154 268.117c-2.211 0-4-1.791-4-4v-129.553c0-2.209 1.789-4 4-4s4 1.791 4 4v129.553c0 2.209-1.789 4-4 4z" fill="#4c241d"/><g><path d="m171.713 62.805c.767-.929 1.527-1.797 2.24-2.58 2.214-2.431 1.983-5.878-.561-8.058-2.843-2.437-7.457-2.341-10.236.15-4.191 3.757-7.305 7.999-9.61 12.079-2.602 4.606-7.361 7.935-12.946 9.746-5.629 1.825-9.267 4.717-9.267 7.975 0 5.523 10.447 10 23.333 10s23.334-4.477 23.334-10c0-1.933-1.294-3.729-3.525-5.249-5.072-3.457-6.504-9.528-2.762-14.063z" fill="#77a052"/><path d="m154.668 96.117c-13.584 0-27.334-4.809-27.334-14 0-5.008 4.387-9.303 12.035-11.779 4.916-1.596 8.717-4.404 10.693-7.908 2.848-5.039 6.355-9.443 10.422-13.092 4.32-3.869 11.121-3.967 15.512-.205 2.066 1.768 3.297 4.17 3.457 6.758.156 2.559-.746 5.055-2.543 7.029-.668.736-1.387 1.555-2.109 2.432-.953 1.154-1.34 2.424-1.148 3.77.234 1.65 1.355 3.27 3.074 4.439 4.359 2.973 5.273 6.293 5.273 8.557 0 9.191-13.75 13.999-27.332 13.999zm13.715-41.722c-.941 0-1.891.303-2.555.9-3.422 3.066-6.383 6.791-8.797 11.068-2.969 5.256-8.367 9.369-15.195 11.584-4.865 1.576-6.502 3.523-6.502 4.17 0 1.543 6.648 6 19.334 6 12.684 0 19.332-4.457 19.332-6 0-.295-.473-1.057-1.777-1.945-3.57-2.432-5.938-6.049-6.492-9.922-.508-3.564.523-7.111 2.898-9.99v-.002c.809-.979 1.613-1.898 2.367-2.723.23-.256.5-.662.473-1.148-.027-.414-.262-.822-.68-1.18-.633-.543-1.516-.812-2.406-.812z" fill="#4c241d"/></g><g><circle cx="86" cy="220.117" fill="#ffec95" r="44"/><path d="m86 268.117c-26.467 0-48-21.533-48-48s21.533-48 48-48 48 21.533 48 48-21.533 48-48 48zm0-88c-22.057 0-40 17.943-40 40s17.943 40 40 40 40-17.943 40-40-17.943-40-40-40z" fill="#4c241d"/></g><g><circle cx="86" cy="220.117" fill="#efefd2" r="29.356"/><path d="m86 253.473c-18.393 0-33.355-14.963-33.355-33.355s14.962-33.356 33.355-33.356 33.355 14.963 33.355 33.355-14.962 33.356-33.355 33.356zm0-58.711c-13.98 0-25.355 11.375-25.355 25.355s11.375 25.356 25.355 25.356 25.355-11.375 25.355-25.355-11.375-25.356-25.355-25.356z" fill="#4c241d"/></g></g></svg>