<svg id="garlic" enable-background="new 0 0 300 300" height="512" viewBox="0 0 300 300" width="512" xmlns="http://www.w3.org/2000/svg"><g><circle cx="130.562" cy="167.487" fill="#edebdc" r="92"/><g fill="#4c241d"><path d="m240.483 63.271c-2.209 0-4-1.791-4-4v-8c0-2.209 1.791-4 4-4s4 1.791 4 4v8c0 2.209-1.791 4-4 4z"/><path d="m240.483 87.271c-2.209 0-4-1.791-4-4v-8c0-2.209 1.791-4 4-4s4 1.791 4 4v8c0 2.209-1.791 4-4 4z"/><path d="m232.483 71.271h-8c-2.209 0-4-1.791-4-4s1.791-4 4-4h8c2.209 0 4 1.791 4 4s-1.791 4-4 4z"/><path d="m256.483 71.271h-8c-2.209 0-4-1.791-4-4s1.791-4 4-4h8c2.209 0 4 1.791 4 4s-1.791 4-4 4z"/><path d="m72.563 79.488c-7.719 0-14-6.281-14-14s6.281-14 14-14 14 6.281 14 14-6.281 14-14 14zm0-20c-3.309 0-6 2.691-6 6s2.691 6 6 6 6-2.691 6-6-2.691-6-6-6z"/><circle cx="53.161" cy="122.957" r="4.276"/><circle cx="257.161" cy="142.957" r="4.276"/></g><g><ellipse cx="156.483" cy="75.271" fill="#77a052" rx="8" ry="40"/><path d="m156.483 119.271c-2.814 0-12-3.174-12-44s9.186-44 12-44 12 3.174 12 44-9.185 44-12 44zm0-77.992c-1.795 4.887-4 16.557-4 33.992s2.205 29.105 4 33.992c1.795-4.887 4-16.557 4-33.992s-2.205-29.105-4-33.992z" fill="#4c241d"/></g><g><path d="m176.483 51.271-20 32-20-32v76h40z" fill="#efefd2"/><path d="m176.483 131.271h-40c-2.209 0-4-1.791-4-4v-76c0-1.785 1.182-3.354 2.896-3.846 1.717-.488 3.549.211 4.496 1.727l16.607 26.572 16.607-26.572c.945-1.516 2.775-2.215 4.496-1.727 1.715.492 2.896 2.061 2.896 3.846v76c.002 2.209-1.789 4-3.998 4zm-36-8h32v-58.052l-12.607 20.172c-1.465 2.34-5.32 2.34-6.785 0l-12.607-20.172v58.052z" fill="#4c241d"/></g><g><path d="m175.682 89.162-7.88 10.733c-5.726 7.799-17.214 7.826-22.976.053l-7.929-10.697c-36.479 44.036-54.176 72.375-62.76 89.513-16.206 32.354 4.568 72.346 40.206 74.713 1.17.078 2.351.116 3.541.113 15.466-.036 29.293-7.007 38.744-17.97 9.502 10.919 23.36 17.826 38.826 17.79 1.19-.003 2.371-.046 3.54-.129 35.627-2.532 56.216-42.62 39.861-74.898-8.664-17.097-26.491-45.354-63.173-89.221z" fill="#efefd2"/><path d="m117.801 257.592c-1.25 0-2.49-.041-3.719-.121-17.633-1.172-32.922-10.891-41.955-26.666-9.529-16.641-10.115-36.766-1.566-53.83 8.041-16.055 25.543-44.75 63.256-90.275.785-.943 2.012-1.455 3.188-1.445 1.228.033 2.375.629 3.105 1.615l7.93 10.697c1.977 2.668 4.984 4.195 8.254 4.195h.025c3.279-.008 6.289-1.551 8.258-4.234l7.881-10.732c.729-.99 1.871-1.592 3.098-1.631 1.268-.076 2.406.488 3.195 1.432 37.928 45.357 55.559 73.967 63.672 89.979 8.627 17.027 8.135 37.152-1.318 53.84-8.959 15.816-24.205 25.605-41.826 26.857-1.299.094-2.625.102-3.936.141-14.465 0-28.332-5.758-38.701-15.945-10.35 10.264-24.24 16.09-38.748 16.125-.032-.002-.061-.002-.093-.002zm18.928-161.848c-34.99 42.654-51.393 69.594-59.016 84.812-7.346 14.664-6.838 31.963 1.355 46.273 7.68 13.408 20.631 21.668 35.539 22.658 1.076.072 2.09.127 3.27.104 13.643-.033 26.664-6.076 35.721-16.582.758-.879 1.859-1.387 3.02-1.389h.01c1.156 0 2.258.502 3.018 1.373 9.082 10.438 22.088 16.418 35.693 16.418 1.23-.014 2.258-.039 3.369-.121 14.906-1.059 27.82-9.377 35.438-22.82 8.127-14.35 8.555-31.65 1.141-46.279-7.689-15.18-24.217-42.041-59.406-84.539l-4.854 6.609c-3.486 4.752-8.84 7.486-14.686 7.5-5.652-.02-11.215-2.695-14.727-7.43z" fill="#4c241d"/></g><path d="m100.171 229.627c-1.602 0-3.115-.971-3.729-2.555-5.816-14.996-5.045-31.799 2.119-46.098 7.385-14.744 25.82-40.697 54.791-77.139 1.371-1.732 3.891-2.02 5.619-.643 1.73 1.375 2.018 3.891.643 5.619-28.627 36.01-46.762 61.494-53.9 75.744-6.154 12.285-6.814 26.727-1.814 39.621.799 2.061-.223 4.377-2.281 5.176-.478.187-.966.275-1.448.275z" fill="#4c241d"/><g><path d="m116.612 250.994c-4.652-4.25-8.506-9.303-11.375-14.897l83.678-61.436c11.789 11.619 17.92 28.607 14.976 46.171-4.8 28.636-31.906 47.96-60.542 43.159-10.368-1.738-19.514-6.399-26.737-12.997" fill="#fff"/><path d="m152.161 268.729c-3.145 0-6.311-.264-9.475-.793-10.781-1.807-20.73-6.643-28.771-13.988-5.018-4.582-9.135-9.975-12.236-16.027-.896-1.746-.393-3.887 1.191-5.049l83.678-61.436c1.586-1.164 3.777-1.002 5.176.375 13.133 12.945 19.156 31.518 16.113 49.682-2.498 14.904-10.652 27.943-22.957 36.715-9.692 6.909-21.049 10.521-32.719 10.521zm-32.852-20.688c6.9 6.303 15.441 10.453 24.699 12.004 12.801 2.143 25.66-.82 36.229-8.352 10.564-7.531 17.564-18.727 19.709-31.523 2.426-14.477-1.859-29.26-11.508-40.197l-77.992 57.26c2.418 4.009 5.391 7.634 8.863 10.808z" fill="#4c241d"/></g><g><path d="m192.741 178.902c-1.204-1.475-2.467-2.903-3.827-4.242l-38.544 28.299c3.512 5.051 8.768 8.687 15.062 9.742 13.072 2.191 25.594-7.513 27.968-21.675.707-4.213.415-8.338-.659-12.124z" fill="#eaeaea"/><path d="m169.116 217.008c-1.436 0-2.889-.117-4.346-.361-7.117-1.193-13.398-5.242-17.684-11.402-1.24-1.781-.832-4.227.916-5.51l38.545-28.299c1.586-1.164 3.777-1.002 5.176.375 1.357 1.34 2.705 2.832 4.117 4.562.344.424.6.912.748 1.438 1.285 4.529 1.541 9.197.758 13.877-2.474 14.753-14.662 25.32-28.23 25.32zm-12.942-13.348c2.762 2.697 6.184 4.471 9.92 5.096 10.85 1.822 21.357-6.424 23.361-18.391.541-3.23.422-6.453-.355-9.588-.227-.271-.453-.537-.678-.793z" fill="#4c241d"/></g><path d="m192.483 155.273c-1.609 0-3.127-.98-3.736-2.574-6.471-16.926-24.637-34.43-34.891-43.357-1.666-1.451-1.84-3.979-.391-5.645s3.977-1.84 5.645-.391c10.816 9.418 30.02 27.986 37.109 46.537.789 2.062-.244 4.375-2.309 5.164-.468.181-.952.266-1.427.266z" fill="#4c241d"/></g></svg>