<svg id="carrot" enable-background="new 0 0 300 300" height="512" viewBox="0 0 300 300" width="512" xmlns="http://www.w3.org/2000/svg"><g><circle cx="130.175" cy="157.367" fill="#edebdc" r="92"/><g fill="#4c241d"><path d="m228.177 235.87c-2.211 0-4-1.791-4-4v-8c0-2.209 1.789-4 4-4s4 1.791 4 4v8c0 2.209-1.789 4-4 4z"/><path d="m228.177 259.87c-2.211 0-4-1.791-4-4v-8c0-2.209 1.789-4 4-4s4 1.791 4 4v8c0 2.209-1.789 4-4 4z"/><path d="m220.177 243.87h-8c-2.211 0-4-1.791-4-4s1.789-4 4-4h8c2.211 0 4 1.791 4 4s-1.789 4-4 4z"/><path d="m244.177 243.87h-8c-2.211 0-4-1.791-4-4s1.789-4 4-4h8c2.211 0 4 1.791 4 4s-1.789 4-4 4z"/><path d="m120.173 63.87c-2.209 0-4-1.791-4-4v-8c0-2.209 1.791-4 4-4s4 1.791 4 4v8c0 2.209-1.791 4-4 4z"/><path d="m120.173 87.87c-2.209 0-4-1.791-4-4v-8c0-2.209 1.791-4 4-4s4 1.791 4 4v8c0 2.209-1.791 4-4 4z"/><path d="m112.173 71.87h-8c-2.209 0-4-1.791-4-4s1.791-4 4-4h8c2.209 0 4 1.791 4 4s-1.791 4-4 4z"/><path d="m136.173 71.87h-8c-2.209 0-4-1.791-4-4s1.791-4 4-4h8c2.211 0 4 1.791 4 4s-1.789 4-4 4z"/><path d="m66.173 127.87c-7.719 0-14-6.281-14-14s6.281-14 14-14 14 6.281 14 14-6.282 14-14 14zm0-20c-3.309 0-6 2.691-6 6s2.691 6 6 6 6-2.691 6-6-2.692-6-6-6z"/><circle cx="41.082" cy="44.406" r="4.276"/><circle cx="249.082" cy="204.406" r="4.276"/></g><g><path d="m254.726 72.085c-.082-.065-.176-.104-.26-.167.766-.642 1.478-1.371 2.124-2.184 5.147-6.492 4.056-15.926-2.436-21.073-6.492-5.146-15.926-4.056-21.073 2.436-.693.874-1.252 1.807-1.721 2.769-.506-.597-1.073-1.156-1.71-1.661-5.193-4.117-12.741-3.245-16.858 1.949-4.117 5.193-3.245 12.741 1.949 16.858.648.514 1.444 1.145 2.351 1.864l-22.117 48.825 42.491-32.673c.907.719 1.703 1.35 2.351 1.864 5.193 4.117 12.741 3.245 16.858-1.949 4.117-5.193 3.245-12.741-1.949-16.858z" fill="#77a052"/><path d="m194.973 125.7c-.879 0-1.758-.289-2.484-.865-1.438-1.141-1.918-3.113-1.16-4.785l20.828-45.979c-6.824-5.5-7.953-15.521-2.496-22.402 2.652-3.35 6.453-5.465 10.699-5.955 3.578-.408 7.121.371 10.148 2.223 3.109-3.584 7.391-5.846 12.145-6.396 5.051-.572 10.008.834 13.984 3.986 8.078 6.404 9.551 18.105 3.391 26.301 4.297 5.678 4.406 13.768-.219 19.6-2.652 3.35-6.453 5.465-10.699 5.955-4.188.49-8.348-.678-11.68-3.279l-40.02 30.77c-.718.551-1.577.826-2.437.826zm27.239-72.091c-.312 0-.621.018-.934.053-2.121.246-4.023 1.303-5.352 2.977-2.738 3.457-2.156 8.5 1.297 11.24l2.352 1.863c1.438 1.141 1.918 3.113 1.16 4.785l-15.516 34.25 29.809-22.92c1.453-1.117 3.484-1.104 4.922.037l2.352 1.863c1.676 1.33 3.766 1.926 5.891 1.678 2.121-.246 4.023-1.303 5.352-2.977 2.699-3.41 2.168-8.361-1.164-11.127-.102-.064-.203-.131-.266-.178-.996-.723-1.602-1.865-1.645-3.096s.48-2.412 1.426-3.203c.574-.48 1.098-1.021 1.559-1.604 3.77-4.756 2.969-11.688-1.785-15.455-2.305-1.826-5.184-2.646-8.098-2.309-2.918.338-5.527 1.791-7.352 4.094-.473.59-.883 1.252-1.262 2.035-.594 1.217-1.762 2.053-3.105 2.219-1.328.178-2.676-.354-3.551-1.391-.332-.396-.711-.768-1.133-1.102-1.434-1.133-3.164-1.732-4.957-1.732z" fill="#4c241d"/></g><g><path d="m98.638 245.665c4.855-26.16 37.678-109.292 65.663-155.627 6.683-11.065 19.737-16.571 32.301-13.532 16.83 4.071 30.699 12.432 41.764 24.856 9.275 10.414 9.176 26.155.532 37.098-18.758 23.747-77.046 93.721-128.383 116.665-6.272 2.801-13.13-2.707-11.877-9.46z" fill="#fc8c29"/><path d="m107.079 259.859c-2.756 0-5.488-.918-7.75-2.699-3.709-2.92-5.48-7.604-4.625-12.223v-.002c4.785-25.779 37.695-109.809 66.172-156.967 7.633-12.643 22.375-18.812 36.668-15.352 17.406 4.211 32.145 12.986 43.809 26.084 10.453 11.736 10.742 29.5.688 42.236-17.133 21.682-77.125 94.254-129.893 117.84-1.628.725-3.352 1.083-5.069 1.083zm-4.508-13.463c-.318 1.713.32 3.387 1.707 4.479.646.508 2.391 1.586 4.605.598 51.102-22.84 110.031-94.174 126.879-115.494 7.645-9.684 7.484-23.123-.387-31.957-10.559-11.857-23.918-19.807-39.715-23.627-10.91-2.648-22.117 2.072-27.934 11.709-28.081 46.495-60.471 129.051-65.155 154.292z" fill="#4c241d"/></g><g><circle cx="82.173" cy="197.87" fill="#fc8c29" r="42"/><path d="m82.173 243.87c-25.365 0-46-20.635-46-46s20.635-46 46-46 46 20.635 46 46-20.635 46-46 46zm0-84c-20.953 0-38 17.047-38 38s17.047 38 38 38 38-17.047 38-38-17.047-38-38-38z" fill="#4c241d"/></g><g><circle cx="82.173" cy="197.87" fill="#f96e43" r="26.921"/><path d="m82.173 228.792c-17.051 0-30.922-13.871-30.922-30.922s13.871-30.922 30.922-30.922 30.922 13.871 30.922 30.922-13.872 30.922-30.922 30.922zm0-53.844c-12.639 0-22.922 10.283-22.922 22.922s10.283 22.922 22.922 22.922 22.922-10.283 22.922-22.922-10.284-22.922-22.922-22.922z" fill="#4c241d"/></g><path d="m190.7 194.007c-1.004 0-2.012-.377-2.789-1.133l-14.527-14.137c-1.582-1.541-1.617-4.074-.078-5.656 1.543-1.582 4.07-1.619 5.656-.078l14.527 14.137c1.582 1.541 1.617 4.074.078 5.656-.785.807-1.824 1.211-2.867 1.211z" fill="#4c241d"/><path d="m143.438 234.939c-1.004 0-2.012-.377-2.789-1.133l-7.266-7.068c-1.584-1.541-1.619-4.072-.078-5.656 1.543-1.582 4.07-1.619 5.656-.078l7.266 7.068c1.582 1.541 1.617 4.072.078 5.656-.785.806-1.824 1.211-2.867 1.211z" fill="#4c241d"/><path d="m172.169 131.87c-.699 0-1.41-.184-2.055-.57l-20-12c-1.895-1.137-2.508-3.594-1.371-5.488 1.137-1.893 3.59-2.508 5.488-1.371l20 12c1.895 1.137 2.508 3.594 1.371 5.488-.75 1.25-2.074 1.941-3.433 1.941z" fill="#4c241d"/></g></svg>