<svg id="artichoke" enable-background="new 0 0 300 300" height="512" viewBox="0 0 300 300" width="512" xmlns="http://www.w3.org/2000/svg"><g><circle cx="116.865" cy="142" fill="#edebdc" r="92"/><g fill="#4c241d"><path d="m248.865 58c-2.209 0-4-1.791-4-4v-8c0-2.209 1.791-4 4-4s4 1.791 4 4v8c0 2.209-1.791 4-4 4z"/><path d="m248.865 82c-2.209 0-4-1.791-4-4v-8c0-2.209 1.791-4 4-4s4 1.791 4 4v8c0 2.209-1.791 4-4 4z"/><path d="m240.865 66h-8c-2.209 0-4-1.791-4-4s1.791-4 4-4h8c2.209 0 4 1.791 4 4s-1.791 4-4 4z"/><path d="m264.865 66h-8c-2.209 0-4-1.791-4-4s1.791-4 4-4h8c2.209 0 4 1.791 4 4s-1.791 4-4 4z"/><path d="m46.865 70c-7.719 0-14-6.281-14-14s6.281-14 14-14 14 6.281 14 14-6.282 14-14 14zm0-20c-3.309 0-6 2.691-6 6s2.691 6 6 6 6-2.691 6-6-2.692-6-6-6z"/><circle cx="90.859" cy="48.129" r="4.276"/><circle cx="270.859" cy="108.129" r="4.276"/></g><g><path d="m242.398 176.786c2.372-7.798 3.73-16.212 3.73-25.037 0-13.258-2.929-25.669-8.028-36.296-2.39-4.981-5.258-9.569-8.524-13.67-3.348-4.203-7.115-7.892-11.217-10.964-8.668-6.492-18.834-10.228-29.704-10.228-31.742 0-57.474 31.858-57.474 71.158 0 8.908 1.381 17.399 3.796 25.259 36.745-11.369 72.604-12.072 107.421-.222z" fill="#a9ba5a"/><path d="m134.976 181.008c-.646 0-1.289-.156-1.869-.463-.939-.498-1.643-1.348-1.955-2.363-2.635-8.578-3.971-17.473-3.971-26.434 0-41.441 27.576-75.158 61.473-75.158 11.369 0 22.469 3.812 32.104 11.027 4.357 3.264 8.377 7.191 11.947 11.674 3.465 4.35 6.494 9.205 9 14.432 5.512 11.48 8.424 24.629 8.424 38.025 0 8.869-1.312 17.684-3.904 26.201-.314 1.037-1.037 1.9-2.002 2.395-.961.496-2.084.578-3.113.229-32.898-11.199-68.209-11.111-104.951.258-.388.118-.787.177-1.183.177zm53.678-96.418c-29.484 0-53.473 30.127-53.473 67.158 0 6.842.855 13.639 2.545 20.262 35.492-10.264 69.748-10.371 101.936-.324 1.639-6.527 2.467-13.217 2.467-19.938 0-12.205-2.641-24.156-7.635-34.564-2.248-4.686-4.955-9.027-8.047-12.908-3.145-3.949-6.674-7.4-10.486-10.256-8.239-6.168-17.682-9.43-27.307-9.43z" fill="#4c241d"/></g><g><path d="m153.075 184.59-10.947-27.368h16.421s-16.421-38.316 27.368-87.579c0 0 32.842 27.368 32.842 87.579h16.421l-10.947 21.895z" fill="#ffce56"/><path d="m153.074 188.59c-1.623 0-3.102-.986-3.713-2.514l-10.947-27.367c-.492-1.232-.342-2.629.402-3.729s1.984-1.758 3.312-1.758h11.014c-3.051-12.783-5.951-46.033 29.785-86.238 1.434-1.611 3.893-1.797 5.551-.414 1.369 1.141 32.852 28.049 34.234 86.652h12.469c1.387 0 2.674.719 3.402 1.896.729 1.18.795 2.652.176 3.893l-10.947 21.895c-.629 1.256-1.871 2.092-3.271 2.199l-71.158 5.473c-.104.008-.206.012-.309.012zm-5.037-27.367 7.662 19.154 65.971-5.074 7.039-14.08h-9.949c-2.209 0-4-1.791-4-4 0-47.258-20.877-73.637-28.588-81.766-38.227 45.283-24.098 79.838-23.947 80.189.531 1.236.404 2.656-.336 3.777-.74 1.123-1.996 1.799-3.34 1.799h-10.512z" fill="#4c241d"/></g><g><path d="m242.398 176.786c-34.817-11.85-70.676-11.146-107.422.221 6.88 22.391 22.6 39.348 41.889 44.347v23.309c0 5.157 4.18 9.337 9.337 9.337h1.326c5.157 0 9.337-4.18 9.337-9.337v-22.512c20.98-3.729 38.271-21.491 45.533-45.365z" fill="#efefd2"/><path d="m187.527 258h-1.324c-7.355 0-13.338-5.982-13.338-13.338v-20.309c-19.201-6.201-34.664-23.23-41.713-46.172-.646-2.107.535-4.344 2.643-4.994 38.389-11.877 75.359-11.943 109.893-.189 2.043.695 3.166 2.887 2.537 4.951-7.439 24.465-24.639 42.334-45.359 47.439v19.273c-.001 7.357-5.984 13.339-13.339 13.339zm-47.442-78.346c7.049 19.219 21.254 33.545 37.783 37.826 1.764.459 2.996 2.051 2.996 3.873v23.309c0 2.943 2.395 5.338 5.338 5.338h1.324c2.943 0 5.338-2.395 5.338-5.338v-22.512c0-1.939 1.391-3.6 3.301-3.938 18.146-3.227 33.652-17.973 41.172-38.871-30.644-9.579-63.32-9.47-97.252.313z" fill="#4c241d"/></g><g><path d="m185.917 124.38 16.421 32.842h-32.842z" fill="#e66353"/><path d="m202.339 161.223h-32.844c-1.387 0-2.674-.719-3.402-1.896-.729-1.18-.795-2.652-.176-3.893l16.422-32.842c1.355-2.711 5.801-2.711 7.156 0l16.422 32.842c.619 1.24.553 2.713-.176 3.893-.728 1.177-2.015 1.896-3.402 1.896zm-26.371-8h19.898l-9.949-19.898z" fill="#4c241d"/></g><path d="m185.917 172.166c-2.209 0-4-1.791-4-4v-10.943c0-2.209 1.791-4 4-4s4 1.791 4 4v10.943c0 2.209-1.791 4-4 4z" fill="#4c241d"/><g><path d="m159.812 149.011c0-39.3-25.732-71.158-57.474-71.158s-57.474 31.858-57.474 71.158c0 35.295 20.777 64.507 48 70.111v24.667c0 5.639 4.571 10.211 10.211 10.211 5.639 0 10.211-4.571 10.211-10.211v-24.946c26.501-6.333 46.526-35.171 46.526-69.832z" fill="#a9ba5a"/><path d="m103.076 258c-7.836 0-14.211-6.375-14.211-14.211v-21.512c-28.002-7.607-48-37.809-48-73.266 0-41.441 27.576-75.158 61.473-75.158s61.475 33.717 61.475 75.158c0 34.561-19.383 64.617-46.525 72.889v21.889c-.001 7.836-6.376 14.211-14.212 14.211zm-.739-176.146c-29.484 0-53.473 30.127-53.473 67.158 0 33.012 18.844 60.85 44.807 66.191 1.859.383 3.193 2.02 3.193 3.918v24.668c0 3.424 2.787 6.211 6.211 6.211s6.211-2.787 6.211-6.211v-24.945c0-1.852 1.27-3.461 3.07-3.891 25.18-6.018 43.455-33.75 43.455-65.941.001-37.032-23.987-67.158-53.474-67.158z" fill="#4c241d"/></g><path d="m116.574 192.963c-1.791.002-3.422-1.213-3.877-3.029-1.191-4.768-4.67-9.715-10.357-14.734-5.688 5.021-9.168 9.969-10.359 14.734-.537 2.145-2.715 3.455-4.852 2.91-2.143-.535-3.445-2.707-2.91-4.852 1.791-7.166 7.049-14.277 15.623-21.137 1.461-1.168 3.535-1.168 4.996 0 8.574 6.857 13.828 13.969 15.621 21.137.535 2.145-.768 4.316-2.91 4.852-.327.082-.653.119-.975.119z" fill="#4c241d"/><path d="m116.574 173.232c-1.791.002-3.422-1.213-3.877-3.029-1.191-4.77-4.672-9.717-10.357-14.736-5.688 5.021-9.168 9.969-10.359 14.736-.537 2.143-2.715 3.449-4.852 2.91-2.143-.535-3.445-2.707-2.91-4.852 1.793-7.168 7.049-14.279 15.623-21.139 1.461-1.168 3.535-1.168 4.996 0 8.572 6.857 13.828 13.971 15.621 21.139.535 2.145-.768 4.316-2.91 4.852-.327.082-.653.119-.975.119z" fill="#4c241d"/><path d="m110.556 159.732c-.299 0-.604-.033-.908-.104-2.15-.498-3.492-2.648-2.992-4.801 2.229-9.611 7.863-15.725 15.639-21.943 1.461-1.168 3.535-1.168 4.996 0 8.574 6.857 13.828 13.969 15.621 21.137.535 2.145-.768 4.316-2.91 4.852-2.133.535-4.314-.766-4.852-2.91-1.191-4.771-4.676-9.721-10.369-14.744-6.115 5.301-9.002 9.68-10.332 15.418-.428 1.847-2.075 3.095-3.893 3.095z" fill="#4c241d"/><path d="m97.587 131.262c-1.791.002-3.422-1.213-3.877-3.029-1.191-4.768-4.67-9.715-10.357-14.734-5.688 5.02-9.166 9.967-10.357 14.734-.537 2.143-2.713 3.447-4.852 2.91-2.143-.535-3.445-2.707-2.91-4.852 1.793-7.168 7.047-14.279 15.621-21.137 1.461-1.168 3.535-1.168 4.996 0 8.574 6.857 13.828 13.969 15.621 21.137.535 2.145-.768 4.316-2.91 4.852-.326.082-.652.119-.975.119z" fill="#4c241d"/><path d="m120.835 118.15c-1.791.002-3.422-1.213-3.877-3.029-1.191-4.768-4.67-9.715-10.357-14.734-5.688 5.02-9.166 9.967-10.357 14.734-.537 2.145-2.715 3.457-4.852 2.91-2.143-.535-3.445-2.707-2.91-4.852 1.793-7.168 7.047-14.279 15.621-21.137 1.461-1.168 3.535-1.168 4.996 0 8.574 6.857 13.828 13.969 15.621 21.137.535 2.145-.768 4.316-2.91 4.852-.326.082-.652.119-.975.119z" fill="#4c241d"/><path d="m140.304 183.471c-1.791.002-3.422-1.213-3.877-3.029-1.191-4.768-4.672-9.715-10.357-14.736-5.686 5.021-9.166 9.969-10.357 14.736-.537 2.145-2.715 3.457-4.852 2.91-2.143-.535-3.445-2.707-2.91-4.852 1.791-7.166 7.047-14.279 15.619-21.139 1.461-1.168 3.539-1.168 5 0 8.572 6.859 13.828 13.973 15.619 21.139.535 2.145-.768 4.316-2.91 4.852-.326.082-.653.119-.975.119z" fill="#4c241d"/><path d="m92.841 183.471c-1.791.002-3.422-1.213-3.877-3.029-1.191-4.768-4.672-9.715-10.357-14.736-5.686 5.021-9.166 9.969-10.357 14.736-.535 2.145-2.705 3.457-4.852 2.91-2.143-.535-3.445-2.707-2.91-4.852 1.791-7.166 7.047-14.279 15.619-21.139 1.461-1.168 3.539-1.168 5 0 8.572 6.859 13.828 13.973 15.619 21.139.535 2.145-.768 4.316-2.91 4.852-.326.082-.652.119-.975.119z" fill="#4c241d"/><g><path d="m217.856 193.114c-3.246 5.243-7.951 9.447-13.503 12.089" fill="#efefd2"/><path d="m204.355 209.203c-1.494 0-2.928-.842-3.613-2.281-.949-1.994-.104-4.381 1.893-5.33 4.889-2.328 8.977-5.988 11.822-10.584 1.16-1.881 3.625-2.457 5.506-1.295 1.879 1.162 2.459 3.627 1.295 5.506-3.654 5.904-8.906 10.607-15.186 13.596-.555.263-1.141.388-1.717.388z" fill="#4c241d"/></g></g></svg>