<svg id="corn" enable-background="new 0 0 300 300" height="512" viewBox="0 0 300 300" width="512" xmlns="http://www.w3.org/2000/svg"><g><circle cx="148.082" cy="174" fill="#edebdc" r="92"/><path d="m63.918 49.766c-2.211 0-4-1.791-4-4v-8c0-2.209 1.789-4 4-4s4 1.791 4 4v8c0 2.209-1.789 4-4 4z" fill="#4c241d"/><path d="m63.918 73.766c-2.211 0-4-1.791-4-4v-8c0-2.209 1.789-4 4-4s4 1.791 4 4v8c0 2.209-1.789 4-4 4z" fill="#4c241d"/><path d="m55.918 57.766h-8c-2.211 0-4-1.791-4-4s1.789-4 4-4h8c2.211 0 4 1.791 4 4s-1.789 4-4 4z" fill="#4c241d"/><path d="m79.918 57.766h-8c-2.211 0-4-1.791-4-4s1.789-4 4-4h8c2.211 0 4 1.791 4 4s-1.789 4-4 4z" fill="#4c241d"/><path d="m242.082 126c-7.719 0-14-6.281-14-14s6.281-14 14-14 14 6.281 14 14-6.281 14-14 14zm0-20c-3.309 0-6 2.691-6 6s2.691 6 6 6 6-2.691 6-6-2.691-6-6-6z" fill="#4c241d"/><circle cx="52.829" cy="134.301" fill="#4c241d" r="4.276"/><circle cx="224.829" cy="226.301" fill="#4c241d" r="4.276"/><g><path d="m153.166 238h-6.169c-18.913 0-33.896-15.97-32.692-34.845l8.12-139.208c.932-14.59 21.657-33.947 27.657-33.947 6 0 26.725 19.357 27.656 33.947l8.12 139.208c1.205 18.875-13.779 34.845-32.692 34.845z" fill="#ffce56"/><path d="m153.168 242h-6.172c-10.262 0-19.781-4.121-26.805-11.607-7.023-7.484-10.531-17.248-9.879-27.492l8.121-139.186c1.008-15.811 22.708-37.715 31.649-37.715s30.641 21.904 31.648 37.693l8.121 139.229c.652 10.223-2.855 19.986-9.879 27.471-7.023 7.486-16.542 11.607-26.804 11.607zm-3.172-208.004c-4.125.559-22.789 17.799-23.578 30.205l-8.121 139.186c-.512 8.037 2.234 15.676 7.73 21.533 5.492 5.855 12.941 9.08 20.969 9.08h6.172c8.027 0 15.477-3.225 20.969-9.08 5.496-5.857 8.242-13.496 7.73-21.512l-8.121-139.228c-.789-12.385-19.453-29.625-23.75-30.184z" fill="#4c241d"/></g><g><path d="m168.082 238h-35.572c-3.985 0-7.679 2.723-8.319 6.656-.815 5.012 3.032 9.344 7.89 9.344h4v6.119c0 5.457 4.424 9.881 9.881 9.881h8.238c5.457 0 9.881-4.424 9.881-9.881v-6.119h3.572c3.985 0 7.679-2.723 8.318-6.657.817-5.012-3.03-9.343-7.889-9.343z" fill="#a9ba5a"/><path d="m154.203 274h-8.242c-7.652 0-13.879-6.227-13.879-13.881v-2.119c-3.527 0-6.859-1.541-9.145-4.23-2.285-2.686-3.266-6.242-2.695-9.756.93-5.709 6.207-10.014 12.27-10.014h35.57c3.527 0 6.859 1.541 9.145 4.229s3.266 6.242 2.695 9.758c-.91 5.574-5.957 9.811-11.84 10.006v2.127c0 7.653-6.227 13.88-13.879 13.88zm-21.691-32c-2.152 0-4.07 1.449-4.371 3.299-.199 1.213.117 2.381.891 3.289.762.898 1.875 1.412 3.051 1.412h4c2.211 0 4 1.791 4 4v6.119c0 3.242 2.637 5.881 5.879 5.881h8.242c3.242 0 5.879-2.639 5.879-5.881v-6.119c0-2.209 1.789-4 4-4h3.574c2.148 0 4.066-1.449 4.367-3.299.199-1.213-.117-2.381-.891-3.289-.762-.898-1.875-1.412-3.051-1.412z" fill="#4c241d"/></g><g fill="#fff"><circle cx="142.082" cy="60" r="6"/><circle cx="154.082" cy="72" r="6"/><circle cx="134.082" cy="112" r="6"/><circle cx="162.082" cy="160" r="6"/><circle cx="134.082" cy="188" r="6"/><circle cx="150.082" cy="96" r="6"/><circle cx="146.082" cy="152" r="6"/><circle cx="162.082" cy="108" r="6"/><circle cx="134.082" cy="164" r="6"/><circle cx="138.082" cy="136" r="6"/><circle cx="154.082" cy="128" r="6"/><circle cx="166.082" cy="88" r="6"/><circle cx="170.082" cy="176" r="6"/><circle cx="166.082" cy="144" r="6"/><circle cx="154.082" cy="200" r="6"/><circle cx="138.082" cy="84" r="6"/><circle cx="150.082" cy="180" r="6"/><circle cx="158.082" cy="52" r="6"/></g><g><path d="m144.082 238s-12-28 12-48 36-20 44-40-8 112-56 88z" fill="#77a052"/><path d="m155.477 244.916c-4.309 0-8.723-1.109-13.184-3.338-.848-.424-1.516-1.133-1.887-2.002-.133-.309-12.875-30.99 13.113-52.648 8.543-7.117 15.688-11.814 21.43-15.59 10.75-7.068 16.676-10.963 21.418-22.824.551-1.373 1.836-4.586 5.047-4.586h.039c1.426.014 3.238.797 4.062 2.957 2.965 7.799-7.371 68.621-31.055 90.039-5.874 5.314-12.296 7.992-18.983 7.992zm-8.227-9.848c7.195 3.133 13.746 2.293 20.008-2.539 16.793-12.951 26.09-48.273 29.406-68.572-4.695 5.766-10.398 9.516-17.32 14.066-5.863 3.854-12.508 8.223-20.699 15.049-18.75 15.625-13.293 36.459-11.395 41.996z" fill="#4c241d"/></g><g><path d="m155.046 238s12-28-12-48-36-20-44-40 8 112 56 88z" fill="#77a052"/><path d="m143.652 244.916c-6.688 0-13.109-2.678-18.984-7.992-23.684-21.418-34.02-82.24-31.055-90.039.824-2.16 2.637-2.943 4.062-2.957 3.328-.195 4.531 3.207 5.086 4.586 4.742 11.861 10.668 15.756 21.418 22.824 5.742 3.775 12.887 8.473 21.43 15.59 25.988 21.658 13.246 52.34 13.113 52.648-.371.869-1.039 1.578-1.887 2.002-4.456 2.229-8.874 3.338-13.183 3.338zm11.395-6.916h.039zm0 0h.039zm-52.582-74.043c3.316 20.299 12.613 55.621 29.406 68.572 6.266 4.828 12.82 5.666 20.008 2.539 1.898-5.537 7.355-26.371-11.395-41.996-8.191-6.826-14.836-11.195-20.699-15.049-6.922-4.55-12.625-8.3-17.32-14.066z" fill="#4c241d"/></g></g></svg>