<svg id="broccoli" enable-background="new 0 0 300 300" height="512" viewBox="0 0 300 300" width="512" xmlns="http://www.w3.org/2000/svg"><g><circle cx="131.603" cy="154" fill="#edebdc" r="92"/><g fill="#4c241d"><path d="m223.603 230c-2.209 0-4-1.791-4-4v-8c0-2.209 1.791-4 4-4s4 1.791 4 4v8c0 2.209-1.791 4-4 4z"/><path d="m223.603 254c-2.209 0-4-1.791-4-4v-8c0-2.209 1.791-4 4-4s4 1.791 4 4v8c0 2.209-1.791 4-4 4z"/><path d="m215.603 238h-8c-2.209 0-4-1.791-4-4s1.791-4 4-4h8c2.209 0 4 1.791 4 4s-1.791 4-4 4z"/><path d="m239.603 238h-8c-2.209 0-4-1.791-4-4s1.791-4 4-4h8c2.209 0 4 1.791 4 4s-1.791 4-4 4z"/><path d="m73.603 62c-7.719 0-14-6.281-14-14s6.281-14 14-14 14 6.281 14 14-6.281 14-14 14zm0-20c-3.309 0-6 2.691-6 6s2.691 6 6 6 6-2.691 6-6-2.691-6-6-6z"/><circle cx="40.121" cy="73.228" r="4.276"/><circle cx="264.121" cy="205.228" r="4.276"/></g><g><path d="m115.603 218.831v43.169h52l-.073-42.449c-.026-15.134 4.787-29.879 13.737-42.083l22.492-30.671-11.949-7.78-35.022 43.5c-1.709 2.123-5.138.898-5.115-1.828l.528-62.689-20.598 4v58.133c0 2.783-3.559 3.943-5.199 1.694l-36.029-49.406-11.908 7.78 25.876 40.272c7.351 11.444 11.26 24.758 11.26 38.358z" fill="#77a052"/><path d="m167.603 266h-52c-2.209 0-4-1.791-4-4v-43.168c0-12.861-3.674-25.377-10.625-36.195l-25.877-40.273c-1.188-1.848-.662-4.309 1.178-5.512l11.908-7.779c1.785-1.168 4.164-.727 5.42.992l33.996 46.619v-54.684c0-1.916 1.357-3.562 3.238-3.926l20.598-4c1.172-.24 2.398.082 3.318.85.924.768 1.453 1.91 1.443 3.109l-.5 59.457 32.994-40.982c1.285-1.604 3.574-1.967 5.299-.844l11.949 7.781c.92.6 1.555 1.553 1.752 2.635.197 1.08-.061 2.195-.711 3.082l-22.492 30.67c-8.502 11.598-12.984 25.33-12.961 39.713l.072 42.449c.002 1.061-.418 2.08-1.17 2.832-.749.752-1.766 1.174-2.829 1.174zm-48-8h43.994l-.066-38.443c-.027-16.1 4.99-31.473 14.51-44.455l19.992-27.26-5.375-3.5-32.754 40.684c-1.861 2.312-4.867 3.16-7.668 2.162-2.797-.998-4.588-3.562-4.562-6.533l.486-57.795-12.557 2.439v54.834c0 2.984-1.906 5.611-4.744 6.537-2.836.928-5.926-.07-7.686-2.484l-33.793-46.338-5.402 3.531 23.73 36.934c7.781 12.109 11.895 26.121 11.895 40.52z" fill="#4c241d"/></g><g><path d="m248.53 138.894c-.113-.695-.229-1.381-.39-2.058 3.122-3.498 5.077-8.062 5.077-13.12 0-10.926-8.857-19.783-19.783-19.783-5.67 0-10.748 2.416-14.355 6.238-4.854-9.009-14.26-15.204-25.211-15.204-15.877 0-28.748 12.871-28.748 28.749 0 2.846.541 5.539 1.311 8.135-7.124 2.993-12.129 10.031-12.129 18.243 0 10.926 8.857 19.783 19.783 19.783.402 0 .778-.095 1.175-.118 2.692 7.727 9.964 13.307 18.608 13.307 8.212 0 15.25-5.005 18.243-12.129 2.596.77 5.289 1.311 8.135 1.311 2.304 0 4.515-.342 6.663-.854 3.498 3.122 8.063 5.077 13.12 5.077 10.926 0 19.783-8.857 19.783-19.783 0-7.869-4.63-14.607-11.282-17.794z" fill="#a9ba5a"/><path d="m193.869 187.066c-9.055 0-17.252-5.211-21.229-13.232-12.443-.75-22.338-11.111-22.338-23.74 0-8.426 4.406-16.084 11.469-20.348-.441-2.104-.65-4.07-.65-6.029 0-18.059 14.691-32.75 32.748-32.75 10.34 0 19.963 4.949 26.102 13.18 3.934-2.742 8.578-4.213 13.465-4.213 13.113 0 23.783 10.67 23.783 23.783 0 4.695-1.432 9.279-4.078 13.195 6.654 4.369 10.672 11.688 10.672 19.775 0 13.113-10.67 23.783-23.783 23.783-5.09 0-10.047-1.68-14.164-4.766-4.107.766-7.617.742-11.648-.107-4.265 7.063-11.926 11.469-20.349 11.469zm-18.608-21.308c1.691 0 3.213 1.07 3.775 2.684 2.215 6.355 8.176 10.625 14.832 10.625 6.371 0 12.084-3.799 14.555-9.68.789-1.881 2.867-2.875 4.826-2.285 4.799 1.424 8.07 1.512 12.73.402 1.273-.309 2.613.033 3.59.906 2.936 2.619 6.65 4.061 10.459 4.061 8.703 0 15.783-7.08 15.783-15.783 0-6.088-3.451-11.523-9.01-14.186-1.18-.564-2.01-1.672-2.219-2.965-.098-.598-.193-1.188-.334-1.771-.305-1.273.033-2.617.906-3.594 2.619-2.934 4.062-6.646 4.062-10.455 0-8.703-7.08-15.783-15.783-15.783-4.348 0-8.414 1.77-11.447 4.984-.879.934-2.137 1.395-3.432 1.219-1.273-.168-2.389-.936-2.998-2.066-4.355-8.082-12.666-13.104-21.689-13.104-13.646 0-24.748 11.104-24.748 24.75 0 2.139.363 4.361 1.146 6.998.578 1.955-.406 4.035-2.287 4.824-5.879 2.469-9.678 8.182-9.678 14.555 0 8.703 7.08 15.783 15.783 15.783.385-.061.658-.096.938-.111.082-.006.16-.008.24-.008z" fill="#4c241d"/></g><g><path d="m129.831 132.3c-.113-.695-.229-1.381-.39-2.058 3.123-3.498 5.077-8.062 5.077-13.12 0-10.926-8.857-19.783-19.783-19.783-5.67 0-10.748 2.416-14.355 6.238-4.854-9.009-14.26-15.204-25.211-15.204-15.877 0-28.748 12.871-28.748 28.749 0 2.846.541 5.539 1.311 8.135-7.124 2.993-12.129 10.031-12.129 18.243 0 10.926 8.857 19.783 19.783 19.783.402 0 .778-.095 1.175-.118 2.692 7.727 9.964 13.307 18.608 13.307 8.212 0 15.25-5.005 18.243-12.129 2.596.77 5.289 1.311 8.135 1.311 2.304 0 4.515-.342 6.663-.854 3.498 3.122 8.063 5.077 13.12 5.077 10.926 0 19.783-8.857 19.783-19.783 0-7.869-4.629-14.608-11.282-17.794z" fill="#a9ba5a"/><path d="m75.169 180.471c-9.055 0-17.252-5.211-21.227-13.23-12.445-.75-22.34-11.111-22.34-23.74 0-8.424 4.404-16.084 11.469-20.35-.441-2.104-.65-4.07-.65-6.029 0-18.057 14.691-32.748 32.748-32.748 10.342 0 19.965 4.949 26.102 13.178 3.934-2.742 8.578-4.213 13.465-4.213 13.113 0 23.783 10.67 23.783 23.783 0 4.697-1.432 9.281-4.078 13.197 6.654 4.369 10.672 11.688 10.672 19.775 0 13.113-10.67 23.783-23.783 23.783-5.092 0-10.049-1.68-14.164-4.768-4.109.762-7.613.738-11.648-.107-4.265 7.062-11.923 11.469-20.349 11.469zm-18.607-21.307c1.691 0 3.213 1.07 3.775 2.684 2.215 6.354 8.176 10.623 14.832 10.623 6.373 0 12.086-3.799 14.555-9.678.789-1.881 2.869-2.863 4.824-2.287 4.799 1.426 8.068 1.512 12.734.402 1.283-.311 2.617.037 3.592.908 2.932 2.619 6.645 4.061 10.455 4.061 8.703 0 15.783-7.08 15.783-15.783 0-6.088-3.451-11.523-9.01-14.186-1.18-.564-2.01-1.672-2.219-2.965-.098-.598-.193-1.188-.334-1.771-.305-1.273.033-2.617.906-3.594 2.619-2.934 4.062-6.648 4.062-10.457 0-8.703-7.08-15.783-15.783-15.783-4.348 0-8.414 1.77-11.447 4.984-.879.934-2.148 1.396-3.432 1.219-1.273-.168-2.389-.938-2.998-2.068-4.354-8.08-12.664-13.1-21.689-13.1-13.646 0-24.748 11.102-24.748 24.748 0 2.139.363 4.361 1.146 6.998.578 1.955-.406 4.033-2.285 4.824-5.881 2.471-9.68 8.186-9.68 14.557 0 8.703 7.08 15.783 15.783 15.783.387-.062.66-.096.938-.111.08-.006.16-.008.24-.008z" fill="#4c241d"/></g><g><path d="m182.586 112.517c-.113-.695-.229-1.381-.39-2.058 3.122-3.498 5.077-8.062 5.077-13.12 0-10.926-8.857-19.783-19.783-19.783-5.67 0-10.748 2.416-14.355 6.238-4.854-9.009-14.26-15.204-25.211-15.204-15.877 0-28.748 12.871-28.748 28.749 0 2.846.541 5.539 1.311 8.135-7.124 2.993-12.129 10.031-12.129 18.243 0 10.926 8.857 19.783 19.783 19.783.402 0 .778-.095 1.175-.118 2.692 7.727 9.964 13.307 18.608 13.307 8.212 0 15.25-5.005 18.243-12.129 2.596.77 5.289 1.311 8.135 1.311 2.304 0 4.515-.342 6.663-.854 3.498 3.123 8.063 5.077 13.12 5.077 10.926 0 19.783-8.857 19.783-19.783 0-7.87-4.629-14.608-11.282-17.794z" fill="#77a052"/><path d="m127.923 160.688c-9.057 0-17.252-5.211-21.227-13.23-12.443-.75-22.338-11.111-22.338-23.74 0-8.424 4.406-16.084 11.467-20.35-.441-2.102-.65-4.068-.65-6.029 0-18.057 14.691-32.748 32.748-32.748 10.34 0 19.965 4.949 26.102 13.176 3.934-2.74 8.578-4.211 13.465-4.211 13.113 0 23.783 10.67 23.783 23.783 0 4.697-1.43 9.281-4.078 13.197 6.656 4.371 10.674 11.688 10.674 19.775 0 13.113-10.67 23.783-23.783 23.783-5.09 0-10.049-1.68-14.166-4.768-4.111.762-7.613.736-11.646-.107-4.267 7.062-11.927 11.469-20.351 11.469zm-18.605-21.307c1.691 0 3.213 1.07 3.775 2.684 2.213 6.354 8.174 10.623 14.83 10.623 6.371 0 12.086-3.799 14.557-9.678.791-1.881 2.875-2.865 4.824-2.287 4.803 1.424 8.068 1.51 12.732.402 1.279-.305 2.617.035 3.592.906 2.934 2.619 6.648 4.062 10.457 4.062 8.703 0 15.783-7.08 15.783-15.783 0-6.088-3.453-11.523-9.012-14.186-1.184-.566-2.014-1.678-2.221-2.975-.096-.598-.195-1.189-.332-1.771-.301-1.271.039-2.609.908-3.582 2.619-2.936 4.061-6.65 4.061-10.459 0-8.703-7.08-15.783-15.783-15.783-4.348 0-8.412 1.77-11.443 4.982-.881.936-2.152 1.398-3.432 1.221-1.273-.166-2.391-.936-3-2.066-4.355-8.082-12.668-13.102-21.691-13.102-13.646 0-24.748 11.102-24.748 24.748 0 2.141.365 4.363 1.146 6.996.582 1.955-.402 4.035-2.285 4.826-5.879 2.471-9.678 8.186-9.678 14.557 0 8.703 7.08 15.783 15.783 15.783.385-.061.658-.096.938-.111.081-.005.159-.007.239-.007z" fill="#4c241d"/></g><path d="m115.603 98c-2.209 0-4-1.791-4-4 0-8.822 7.178-16 16-16 2.209 0 4 1.791 4 4s-1.791 4-4 4c-4.412 0-8 3.588-8 8 0 2.209-1.791 4-4 4z" fill="#4c241d"/><path d="m203.281 150.418c-.871 0-1.748-.283-2.482-.865-1.732-1.373-2.023-3.889-.65-5.619 2.26-2.852 3.455-6.287 3.455-9.934 0-2.209 1.791-4 4-4s4 1.791 4 4c0 5.393-1.842 10.686-5.186 14.902-.79.996-1.96 1.516-3.137 1.516z" fill="#4c241d"/><path d="m86.32 152.033c-.865 0-1.736-.279-2.469-.855-7.783-6.115-12.248-15.291-12.248-25.178 0-2.209 1.791-4 4-4s4 1.791 4 4c0 7.414 3.35 14.299 9.189 18.889 1.738 1.363 2.039 3.879.674 5.615-.789 1.006-1.961 1.529-3.146 1.529z" fill="#4c241d"/></g></svg>