<svg id="green_x5F_onion" enable-background="new 0 0 300 300" height="512" viewBox="0 0 300 300" width="512" xmlns="http://www.w3.org/2000/svg"><g><circle cx="144.486" cy="150.529" fill="#edebdc" r="92"/><g fill="#4c241d"><path d="m244 174.002c-2.211 0-4-1.791-4-4v-8c0-2.209 1.789-4 4-4s4 1.791 4 4v8c0 2.209-1.789 4-4 4z"/><path d="m244 198.002c-2.211 0-4-1.791-4-4v-8c0-2.209 1.789-4 4-4s4 1.791 4 4v8c0 2.209-1.789 4-4 4z"/><path d="m236 182.002h-8c-2.211 0-4-1.791-4-4s1.789-4 4-4h8c2.211 0 4 1.791 4 4s-1.789 4-4 4z"/><path d="m260 182.002h-8c-2.211 0-4-1.791-4-4s1.789-4 4-4h8c2.211 0 4 1.791 4 4s-1.789 4-4 4z"/><path d="m90 158.002c-7.719 0-14-6.281-14-14s6.281-14 14-14 14 6.281 14 14-6.281 14-14 14zm0-20c-3.309 0-6 2.691-6 6s2.691 6 6 6 6-2.691 6-6-2.691-6-6-6z"/><circle cx="79.393" cy="189.568" r="4.276"/><circle cx="227.393" cy="93.568" r="4.276"/></g><g><path d="m40 274.002c0-19.882 16.118-32 36-32h144c19.882 0 36 12.118 36 32" fill="#bf7e68"/><path d="m256 278.002c-2.211 0-4-1.791-4-4 0-16.486-13.16-28-32-28h-144c-18.84 0-32 11.514-32 28 0 2.209-1.789 4-4 4s-4-1.791-4-4c0-20.859 16.824-36 40-36h144c23.176 0 40 15.141 40 36 0 2.209-1.789 4-4 4z" fill="#4c241d"/></g><g><path d="m147.691 216.199-15.383-4.395 7.691 2.197-7.699-2.172c.594-2.141 14.074-53.053-30.547-108.83l12.492-9.996c50.005 62.507 34.146 120.749 33.446 123.196z" fill="#a9ba5a"/><path d="m147.695 220.201c-.367 0-.734-.051-1.102-.156l-15.379-4.365c-2.121-.598-3.355-2.797-2.77-4.918.574-2.062 13.508-51.109-29.816-105.264-1.379-1.725-1.098-4.24.625-5.621l12.492-9.996c.832-.664 1.887-.971 2.941-.852 1.055.115 2.02.646 2.684 1.477 51.277 64.1 34.891 124.262 34.168 126.793-.503 1.756-2.104 2.902-3.843 2.902zm-6.586-10.041 3.641 1.039c2.719-13.746 8.18-61.201-31.16-112.547l-6.25 5c36.645 47.932 32.141 92.141 29.68 105.338l4.078 1.166c.004 0 .007.002.011.004z" fill="#4c241d"/></g><g><path d="m136.008 206.336c-4.105-98.553 52.152-151.971 54.547-154.197l10.891 11.727-5.446-5.864 5.457 5.852c-.535.498-53.25 50.941-49.465 141.814z" fill="#a9ba5a"/><path d="m136.008 210.336c-1 0-1.969-.375-2.707-1.057-.781-.717-1.246-1.717-1.289-2.777-4.18-100.305 53.367-155.014 55.82-157.293.77-.721 1.711-1.102 2.871-1.068 1.059.039 2.059.498 2.781 1.275l5.441 5.857 5.457 5.852c.723.777 1.109 1.809 1.07 2.869-.035 1.012-.453 1.971-1.164 2.686-.039.039-.082.078-.121.117-.004.002-.008.006-.012.01-1.406 1.355-51.824 50.904-48.168 138.695.094 2.207-1.621 4.07-3.828 4.162l-15.984.668c-.058.002-.113.004-.167.004zm54.441-152.432c-11.441 12.055-52.676 61.379-50.578 144.268l7.992-.334c-1.898-78.24 37.148-126.184 48.07-138.027z" fill="#4c241d"/></g><g><path d="m151.984 210.51-15.969-1.008c.172-2.766 4.77-68.145 51.277-101.971l9.414 12.941c-40.347 29.343-44.683 89.434-44.722 90.038z" fill="#77a052"/><path d="m151.988 214.51c-.086 0-.172-.002-.258-.008l-15.965-1.008c-2.207-.139-3.879-2.037-3.742-4.24.176-2.842 4.879-70.018 52.918-104.957 1.789-1.303 4.289-.904 5.586.881l9.414 12.941c.625.859.883 1.93.715 2.977-.164 1.049-.738 1.988-1.598 2.611-38.645 28.105-43.043 86.48-43.082 87.066-.144 2.112-1.902 3.737-3.988 3.737zm-11.613-8.74 8.031.506c1.703-13.793 9.758-60.15 42.77-86.609l-4.715-6.48c-36.41 28.881-44.473 78.172-46.086 92.583z" fill="#4c241d"/></g><circle cx="227.393" cy="253.568" fill="#4c241d" r="4.276"/><circle cx="207.393" cy="257.568" fill="#4c241d" r="4.276"/><circle cx="231.393" cy="265.568" fill="#4c241d" r="4.276"/><g><path d="m151.969 210.695-15.938-1.401c7.773-90.355-15.516-178.163-15.75-179.04l15.438-4.253c.996 3.689 24.281 91.378 16.25 184.694z" fill="#77a052"/><path d="m151.969 214.695c-.117 0-.234-.006-.352-.016l-15.938-1.4c-2.195-.193-3.824-2.129-3.633-4.328 7.668-89.131-15.395-176.789-15.629-177.664-.57-2.123.684-4.307 2.801-4.889l15.438-4.252c1.023-.291 2.121-.15 3.047.383.926.527 1.602 1.402 1.879 2.43 1 3.713 24.469 92.012 16.371 186.08-.09 1.057-.598 2.035-1.41 2.719-.727.607-1.637.937-2.574.937zm-11.629-9.037 7.969.699c6.234-81.334-10.977-157.402-15.449-175.418l-7.75 2.135c4.292 17.76 21.199 94.131 15.23 172.584z" fill="#4c241d"/></g><g><path d="m142 262.002c-.71 0-1.451-.041-2.216-.121-14.573-1.525-24.158-16.103-21.139-30.442l5.355-25.437h36l5.355 25.437c3.019 14.338-6.567 28.917-21.139 30.442-.765.08-1.506.121-2.216.121z" fill="#ffce56"/><path d="m142 266.002c-.844 0-1.727-.047-2.633-.143-7.84-.82-14.777-4.869-19.535-11.402-4.988-6.852-6.848-15.543-5.102-23.842l5.355-25.438c.391-1.852 2.023-3.176 3.914-3.176h36c1.891 0 3.523 1.324 3.914 3.176l5.355 25.438c1.746 8.299-.113 16.99-5.102 23.842-4.758 6.533-11.695 10.582-19.535 11.402-.904.096-1.787.143-2.631.143zm-14.754-56-4.688 22.262c-1.281 6.086.082 12.459 3.742 17.484 3.406 4.678 8.344 7.572 13.902 8.154 1.234.129 2.359.129 3.594 0 5.559-.582 10.496-3.477 13.902-8.154 3.66-5.025 5.023-11.398 3.742-17.484l-4.688-22.262z" fill="#4c241d"/></g></g></svg>