<svg id="asparagus" enable-background="new 0 0 300 300" height="512" viewBox="0 0 300 300" width="512" xmlns="http://www.w3.org/2000/svg"><g><circle cx="137.082" cy="157.932" fill="#edebdc" r="92"/><g fill="#4c241d"><path d="m248.596 58c-2.209 0-4-1.791-4-4v-8c0-2.209 1.791-4 4-4s4 1.791 4 4v8c0 2.209-1.791 4-4 4z"/><path d="m248.596 82c-2.209 0-4-1.791-4-4v-8c0-2.209 1.791-4 4-4s4 1.791 4 4v8c0 2.209-1.791 4-4 4z"/><path d="m240.596 66h-8c-2.209 0-4-1.791-4-4s1.791-4 4-4h8c2.209 0 4 1.791 4 4s-1.791 4-4 4z"/><path d="m264.596 66h-8c-2.209 0-4-1.791-4-4s1.791-4 4-4h8c2.209 0 4 1.791 4 4s-1.791 4-4 4z"/><path d="m62.596 222c-7.719 0-14-6.281-14-14s6.281-14 14-14 14 6.281 14 14-6.281 14-14 14zm0-20c-3.309 0-6 2.691-6 6s2.691 6 6 6 6-2.691 6-6-2.691-6-6-6z"/><circle cx="35.68" cy="153.402" r="4.276"/><circle cx="263.68" cy="133.402" r="4.276"/></g><g><path d="m188.596 113.71v-.978c3.04-3.15 6.175-7.324 8.981-12.183 7.18-12.436 9.472-24.554 5.119-27.067-2.148-1.24-5.515.1-9.237 3.262.039-.066.079-.128.117-.195 7.18-12.436 9.472-24.554 5.119-27.067-2.625-1.516-7.07.827-11.758 5.64-2.36-12.57-7-21.123-12.342-21.123s-9.982 8.553-12.342 21.123c-4.688-4.812-9.133-7.155-11.758-5.64-4.352 2.513-2.061 14.631 5.119 27.067.038.066.079.129.117.195-3.721-3.162-7.088-4.502-9.237-3.261-4.352 2.513-2.061 14.631 5.119 27.067 2.805 4.859 5.94 9.032 8.981 12.183v.978c-5.51-6.528-11.04-9.994-14.1-8.227-4.352 2.513-2.061 14.631 5.119 27.067.028.049.056.097.084.146 4.73 8.15 8.896 22.348 8.896 31.771v101.532h8.801c10.604 0 19.199-8.596 19.199-19.199v-82.334c0-9.423 4.167-23.621 8.896-31.771.028-.048.056-.097.084-.146 7.18-12.436 9.472-24.554 5.119-27.067-3.056-1.766-8.586 1.699-14.096 8.227z" fill="#77a052"/><path d="m169.397 270h-8.801c-2.209 0-4-1.791-4-4v-101.533c0-8.33-3.826-21.959-8.355-29.764-3.781-6.547-6.391-13.121-7.439-18.664-1.676-8.857 1.086-12.514 3.697-14.02.883-.51 1.824-.828 2.816-.955-3.25-5.92-5.547-11.912-6.514-17.025-1.676-8.857 1.086-12.514 3.697-14.02.812-.471 1.816-.85 3.023-.967-1.273-3.186-2.195-6.23-2.721-9.014-1.676-8.857 1.086-12.514 3.697-14.02 1.947-1.125 5.713-2.041 11.348 1.789 3.218-11.407 8.444-17.807 14.751-17.807s11.533 6.4 14.75 17.809c5.639-3.832 9.402-2.91 11.35-1.789 2.609 1.506 5.371 5.162 3.695 14.02-.527 2.793-1.453 5.85-2.715 9.014 1.205.119 2.207.498 3.021.969 2.607 1.504 5.369 5.16 3.693 14.018-.967 5.113-3.264 11.105-6.514 17.025.994.127 1.934.445 2.818.957 2.609 1.504 5.371 5.16 3.695 14.018-1.049 5.543-3.658 12.117-7.35 18.512-4.619 7.957-8.445 21.586-8.445 29.916v82.334c.002 12.791-10.404 23.197-23.197 23.197zm-4.801-8h4.801c8.381 0 15.199-6.818 15.199-15.199v-82.334c0-9.824 4.145-24.662 9.438-33.779 6.674-11.561 7.414-19.756 6.621-21.646-1.014.168-4.203 1.564-9.002 7.25-1.084 1.285-2.857 1.748-4.43 1.178-1.578-.578-2.627-2.078-2.627-3.758v-.979c0-1.037.402-2.033 1.121-2.777 2.949-3.057 5.854-6.998 8.395-11.404 6.598-11.428 7.336-19.615 6.543-21.508-.639.109-2.213.717-4.604 2.75-1.49 1.264-3.672 1.27-5.166.016-1.494-1.256-1.863-3.408-.873-5.09 6.695-11.592 7.436-19.787 6.643-21.678-.865.139-3.232 1.158-6.852 4.873-1.045 1.07-2.596 1.471-4.021 1.037-1.43-.432-2.5-1.623-2.775-3.09-2.509-13.364-6.827-17.862-8.411-17.862s-5.902 4.498-8.41 17.861c-.275 1.467-1.346 2.658-2.775 3.09-1.426.434-2.977.033-4.021-1.037-3.619-3.713-5.986-4.734-6.852-4.873-.793 1.889-.057 10.078 6.543 21.51.973 1.686.65 3.924-.846 5.17-1.494 1.248-3.613 1.33-5.092.072-2.393-2.033-3.967-2.641-4.605-2.75-.793 1.891-.055 10.08 6.543 21.508 2.541 4.406 5.445 8.348 8.395 11.404.719.744 1.121 1.74 1.121 2.777v.979c0 1.68-1.049 3.18-2.627 3.758-1.574.568-3.344.107-4.43-1.178-4.799-5.686-7.988-7.082-9.002-7.25-.793 1.889-.057 10.078 6.543 21.51 5.371 9.254 9.516 24.092 9.516 33.916v97.533z" fill="#4c241d"/></g><g><path d="m144.596 113.71v-.978c3.04-3.15 6.175-7.324 8.981-12.183 7.18-12.436 9.472-24.554 5.119-27.067-2.148-1.24-5.515.1-9.237 3.262.039-.066.079-.128.117-.195 7.18-12.436 9.472-24.554 5.119-27.067-2.625-1.516-7.07.827-11.758 5.64-2.36-12.57-7-21.123-12.342-21.123s-9.982 8.553-12.342 21.123c-4.688-4.812-9.133-7.155-11.758-5.64-4.352 2.513-2.061 14.631 5.119 27.067.038.066.079.129.117.195-3.721-3.162-7.088-4.502-9.237-3.261-4.352 2.513-2.061 14.631 5.119 27.067 2.805 4.859 5.94 9.032 8.981 12.183v.978c-5.51-6.528-11.04-9.994-14.1-8.227-4.352 2.513-2.061 14.631 5.119 27.067.028.049.056.097.084.146 4.73 8.15 8.896 22.348 8.896 31.771v82.334c0 10.604 8.596 19.199 19.199 19.199h8.801v-101.533c0-9.423 4.167-23.621 8.896-31.771.028-.048.056-.097.084-.146 7.18-12.436 9.472-24.554 5.119-27.067-3.056-1.767-8.586 1.698-14.096 8.226z" fill="#77a052"/><path d="m144.596 270h-8.801c-12.793 0-23.199-10.406-23.199-23.199v-82.334c0-8.33-3.826-21.959-8.355-29.764-3.781-6.547-6.391-13.121-7.439-18.664-1.676-8.857 1.086-12.514 3.697-14.02.883-.51 1.824-.828 2.816-.955-3.25-5.92-5.547-11.912-6.514-17.025-1.676-8.857 1.086-12.514 3.697-14.02.812-.471 1.816-.85 3.023-.967-1.273-3.186-2.195-6.23-2.721-9.014-1.676-8.857 1.086-12.514 3.697-14.02 1.947-1.125 5.709-2.041 11.348 1.789 3.218-11.407 8.444-17.807 14.751-17.807s11.533 6.4 14.75 17.809c5.641-3.832 9.402-2.91 11.35-1.789 2.609 1.506 5.371 5.162 3.695 14.02-.527 2.793-1.453 5.85-2.715 9.014 1.205.119 2.207.498 3.021.969 2.607 1.504 5.369 5.16 3.693 14.018-.967 5.113-3.264 11.105-6.514 17.025.994.127 1.934.445 2.818.957 2.609 1.504 5.371 5.16 3.695 14.018-1.049 5.543-3.658 12.117-7.35 18.512-4.619 7.957-8.445 21.586-8.445 29.916v101.531c.002 2.209-1.789 4-3.998 4zm-40.059-160.959c-.793 1.889-.057 10.078 6.543 21.51 5.371 9.254 9.516 24.092 9.516 33.916v82.334c0 8.381 6.818 15.199 15.199 15.199h4.801v-97.533c0-9.824 4.145-24.662 9.438-33.779 6.674-11.561 7.414-19.756 6.621-21.646-1.014.168-4.203 1.564-9.002 7.25-1.086 1.285-2.859 1.748-4.43 1.178-1.578-.578-2.627-2.078-2.627-3.758v-.979c0-1.037.402-2.033 1.121-2.777 2.949-3.057 5.854-6.998 8.395-11.404 6.598-11.428 7.336-19.615 6.543-21.508-.639.109-2.213.717-4.604 2.75-1.49 1.264-3.672 1.27-5.166.016-1.494-1.256-1.863-3.408-.873-5.09 6.695-11.592 7.436-19.787 6.643-21.678-.865.139-3.232 1.158-6.852 4.873-1.043 1.07-2.594 1.471-4.021 1.037-1.43-.432-2.5-1.623-2.775-3.09-2.509-13.364-6.827-17.862-8.411-17.862s-5.902 4.498-8.41 17.861c-.275 1.467-1.346 2.658-2.775 3.09-1.43.434-2.977.033-4.021-1.037-3.619-3.713-5.986-4.734-6.852-4.873-.793 1.889-.057 10.078 6.543 21.51.973 1.686.65 3.924-.846 5.17-1.494 1.248-3.613 1.33-5.092.072-2.393-2.033-3.967-2.641-4.605-2.75-.793 1.891-.055 10.08 6.543 21.508 2.541 4.406 5.445 8.348 8.395 11.404.719.744 1.121 1.74 1.121 2.777v.979c0 1.68-1.049 3.18-2.627 3.758-1.574.568-3.344.107-4.43-1.178-4.799-5.686-7.989-7.082-9.003-7.25z" fill="#4c241d"/></g><g><path d="m164.596 113.71v-.978c3.04-3.15 6.175-7.324 8.981-12.183 7.18-12.436 9.472-24.554 5.119-27.067-2.148-1.24-5.515.1-9.237 3.262.039-.066.079-.128.117-.195 7.18-12.436 9.472-24.554 5.119-27.067-2.625-1.516-7.07.827-11.758 5.64-2.36-12.57-7-21.123-12.342-21.123s-9.982 8.553-12.342 21.123c-4.688-4.812-9.133-7.155-11.758-5.64-4.352 2.513-2.061 14.631 5.119 27.067.038.066.079.129.117.195-3.721-3.162-7.088-4.502-9.237-3.261-4.352 2.513-2.061 14.631 5.119 27.067 2.805 4.859 5.94 9.032 8.981 12.183v.978c-5.51-6.528-11.04-9.994-14.1-8.227-4.352 2.513-2.061 14.631 5.119 27.067.292.505.587 1.003.885 1.493 5.298 8.702 8.095 42.679 8.095 52.867v79.089h28v-79.09c0-10.188 2.797-44.165 8.095-52.867.298-.49.594-.988.885-1.493 7.18-12.436 9.472-24.554 5.119-27.067-3.056-1.766-8.586 1.699-14.096 8.227z" fill="#77a052"/><path d="m164.596 270h-28c-2.209 0-4-1.791-4-4v-79.09c0-11.09-2.994-43.365-7.512-50.787-.314-.516-.625-1.041-.932-1.572-3.693-6.395-6.303-12.969-7.352-18.512-1.676-8.857 1.086-12.514 3.697-14.02.883-.51 1.824-.828 2.816-.955-3.25-5.92-5.547-11.912-6.514-17.025-1.676-8.857 1.086-12.514 3.697-14.02.812-.471 1.816-.85 3.023-.967-1.273-3.186-2.195-6.23-2.721-9.014-1.676-8.857 1.086-12.514 3.697-14.02 1.947-1.125 5.707-2.041 11.348 1.789 3.22-11.407 8.446-17.807 14.753-17.807s11.533 6.4 14.75 17.809c5.643-3.832 9.402-2.91 11.35-1.789 2.609 1.506 5.371 5.162 3.695 14.02-.527 2.793-1.453 5.85-2.715 9.014 1.205.119 2.207.498 3.021.969 2.607 1.504 5.369 5.16 3.693 14.018-.967 5.113-3.264 11.105-6.514 17.025.994.127 1.934.445 2.818.957 2.609 1.504 5.371 5.16 3.695 14.018-1.049 5.543-3.658 12.117-7.35 18.512-.309.531-.619 1.057-.934 1.574-4.518 7.42-7.512 39.695-7.512 50.785v79.088c.003 2.209-1.788 4-3.997 4zm-24-8h20v-75.09c0-7.184 2.262-44.406 8.68-54.947l.838-1.412c6.598-11.432 7.334-19.621 6.541-21.51-1.014.168-4.203 1.564-9.002 7.25-1.086 1.285-2.861 1.748-4.43 1.178-1.578-.578-2.627-2.078-2.627-3.758v-.979c0-1.037.402-2.033 1.121-2.777 2.949-3.057 5.854-6.998 8.395-11.404 6.598-11.428 7.336-19.615 6.543-21.508-.639.109-2.213.717-4.604 2.75-1.49 1.264-3.672 1.27-5.166.016-1.494-1.256-1.863-3.408-.873-5.09 6.695-11.592 7.436-19.787 6.643-21.678-.865.139-3.232 1.158-6.852 4.873-1.043 1.07-2.596 1.471-4.021 1.037-1.43-.432-2.5-1.623-2.775-3.09-2.509-13.363-6.827-17.861-8.411-17.861s-5.902 4.498-8.41 17.861c-.275 1.467-1.346 2.658-2.775 3.09-1.426.434-2.979.033-4.021-1.037-3.619-3.713-5.986-4.734-6.852-4.873-.793 1.889-.057 10.078 6.543 21.51.973 1.686.65 3.924-.846 5.17-1.492 1.248-3.611 1.33-5.092.072-2.393-2.033-3.967-2.641-4.605-2.75-.793 1.891-.055 10.08 6.543 21.508 2.541 4.406 5.445 8.348 8.395 11.404.719.744 1.121 1.74 1.121 2.777v.979c0 1.68-1.049 3.18-2.627 3.758-1.578.568-3.346.107-4.43-1.178-4.799-5.686-7.988-7.082-9.002-7.25-.793 1.889-.057 10.078 6.543 21.51l.836 1.41c6.418 10.543 8.68 47.766 8.68 54.949v75.09z" fill="#4c241d"/></g><g><path d="m108.596 198h88v20h-88z" fill="#efefd2"/><path d="m196.596 222h-88c-2.209 0-4-1.791-4-4v-20c0-2.209 1.791-4 4-4h88c2.209 0 4 1.791 4 4v20c0 2.209-1.791 4-4 4zm-84-8h80v-12h-80z" fill="#4c241d"/></g></g></svg>