<svg height="512pt" viewBox="0 -1 512 512" width="512pt" xmlns="http://www.w3.org/2000/svg"><path d="m83.726562 15.550781 5.738282 10.488281c5.71875 10.464844 14.324218 19.066407 24.785156 24.789063l10.492188 5.738281c10.734374 5.871094 10.734374 21.289063 0 27.160156l-10.492188 5.734376c-10.460938 5.722656-19.066406 14.324218-24.785156 24.789062l-5.738282 10.488281c-5.871093 10.738281-21.289062 10.738281-27.160156 0l-5.738281-10.488281c-5.722656-10.464844-14.324219-19.066406-24.789063-24.789062l-10.488281-5.734376c-10.734375-5.871093-10.734375-21.289062 0-27.160156l10.488281-5.738281c10.464844-5.722656 19.066407-14.324219 24.789063-24.789063l5.738281-10.488281c5.871094-10.734375 21.289063-10.734375 27.160156 0zm0 0" fill="#61a5ce"/><path d="m476.972656 89.984375 3.21875 5.886719c3.210938 5.871094 8.035156 10.695312 13.90625 13.90625l5.886719 3.21875c6.023437 3.296875 6.023437 11.945312 0 15.238281l-5.886719 3.21875c-5.871094 3.210937-10.695312 8.039063-13.90625 13.910156l-3.21875 5.882813c-3.296875 6.023437-11.945312 6.023437-15.238281 0l-3.21875-5.882813c-3.210937-5.871093-8.039063-10.699219-13.910156-13.910156l-5.882813-3.21875c-6.023437-3.292969-6.023437-11.941406 0-15.238281l5.882813-3.21875c5.871093-3.210938 10.699219-8.035156 13.910156-13.90625l3.21875-5.886719c3.292969-6.019531 11.941406-6.019531 15.238281 0zm0 0" fill="#8ed7e8"/><path d="m165.222656 329.324219h200.800782l-82.589844-274.265625c-5.316406-17.652344-30.304688-17.652344-35.621094 0zm0 0" fill="#7de2e2"/><path d="m265.621094 41.820312c-7.574219 0-15.152344 4.414063-17.808594 13.238282l-82.589844 274.265625h100.398438zm0 0" fill="#a0f0f2"/><path d="m142.367188 260.925781-57.820313-53.148437c-13.734375-12.625-35.480469.339844-30.902344 18.425781l47.960938 189.453125 98.511719 25.136719 16.226562-76.578125zm0 0" fill="#7de2e2"/><path d="m196.710938 410.792969-113.648438-42.5625c-17.640625-6.605469-33.496094 13.117187-23.253906 28.925781l57.320312 88.472656c6.617188 10.214844 17.957032 16.378906 30.128906 16.378906h84.351563zm0 0" fill="#a0f0f2"/><path d="m388.878906 260.925781 57.820313-53.148437c13.734375-12.625 35.480469.339844 30.902343 18.425781l-47.960937 189.453125-98.511719 25.136719-16.226562-76.578125zm0 0" fill="#66d3d0"/><path d="m334.535156 410.792969 113.648438-42.5625c17.640625-6.605469 33.496094 13.117187 23.253906 28.925781l-57.320312 88.472656c-6.617188 10.214844-17.957032 16.378906-30.128907 16.378906h-84.351562zm0 0" fill="#7de2e2"/><path d="m319.570312 502.011719 90.84375-156.460938c6.15625-10.601562 9.191407-22.726562 8.761719-34.980469l-5.558593-158.234374c-.710938-20.253907-27.15625-27.4375-38.015626-10.320313l-106.53125 167.902344c-4.972656 7.835937-8.480468 16.507812-10.355468 25.597656l-34.355469 166.496094zm0 0" fill="#a0f0f2"/><path d="m211.675781 502.011719-90.84375-156.460938c-6.15625-10.601562-9.191406-22.726562-8.761719-34.980469l5.558594-158.234374c.710938-20.253907 27.15625-27.4375 38.015625-10.320313l106.53125 167.898437c4.972657 7.839844 8.480469 16.511719 10.355469 25.597657l34.355469 166.496093h-95.210938zm0 0" fill="#bdfaff"/><path d="m472.859375 199.03125c-10.21875-6.09375-22.480469-4.824219-31.234375 3.222656l-18.160156 16.695313-2.351563-66.875c-.441406-12.585938-8.582031-22.847657-20.734375-26.148438-12.152344-3.304687-24.363281 1.4375-31.109375 12.070313l-35.960937 56.675781-42.695313-141.777344c-3.394531-11.28125-13.207031-18.574219-24.988281-18.574219-.003906 0 0 0-.003906 0-11.78125 0-21.59375 7.292969-24.988282 18.574219l-42.695312 141.777344-35.957031-56.675781c-6.75-10.632813-18.960938-15.375-31.113281-12.070313-12.152344 3.296875-20.292969 13.5625-20.734376 26.148438l-2.347656 66.871093-18.164062-16.691406c-8.757813-8.050781-21.019532-9.3125-31.234375-3.222656-10.214844 6.09375-14.929688 17.480469-12.011719 29.011719l33.328125 131.652343c-9.257813-1.28125-18.453125 2.285157-24.566406 9.894532-7.441407 9.253906-8.078125 21.675781-1.621094 31.644531l57.320313 88.476563c8.03125 12.394531 21.644531 19.800781 36.421874 19.800781h236.734376c14.773437 0 28.390624-7.402344 36.421874-19.800781l57.320313-88.476563c6.457031-9.96875 5.820313-22.390625-1.621094-31.644531-7.4375-9.257813-19.433593-12.546875-30.558593-8.382813l-45.441407 17.019531 16.789063-28.910156c6.871094-11.839844 10.25-25.328125 9.769531-39.007812l-2.515625-71.625 27.621094-25.386719c4.5625-4.191406 9.910156-3.460937 13.398437-1.382813 3.488281 2.082032 6.675781 6.441407 5.152344 12.449219l-28.21875 111.480469c-1.019531 4.015625 1.367187 8.300781 5.429687 9.109375 4.597657.917969 8.25-2.03125 9.109376-5.429687l28.222656-111.480469c2.917968-11.53125-1.796875-22.917969-12.011719-29.011719zm-217.867187-141.808594c.667968-2.210937 1.785156-3.878906 3.128906-5.101562v133.453125c0 4.144531 3.359375 7.5 7.5 7.5 4.144531 0 7.5-3.355469 7.5-7.5v-133.453125c1.347656 1.222656 2.464844 2.890625 3.132812 5.097656l46.429688 154.195312-49.5625 78.113282v-70.082032c0-4.144531-3.355469-7.5-7.5-7.5-4.140625 0-7.5 3.355469-7.5 7.5v70.082032l-49.558594-78.113282zm-188.921876 154.691406c3.488282-2.078124 8.839844-2.808593 13.402344 1.382813l27.617188 25.386719-2.515625 71.628906c-.480469 13.679688 2.898437 27.167969 9.769531 39.003906l16.785156 28.910156-34.539062-12.933593-35.675782-140.929688c-1.519531-6.003906 1.667969-10.367187 5.15625-12.449219zm149.921876 282.59375-24.019532-41.367187c-2.078125-3.582031-6.671875-4.796875-10.25-2.722656-3.582031 2.082031-4.800781 6.671875-2.722656 10.253906l19.648438 33.835937h-51.394532c-9.667968 0-18.578125-4.84375-23.832031-12.957031l-57.320313-88.472656c-3.488281-5.386719-1.914062-10.8125.722657-14.09375 2.636719-3.277344 7.59375-5.976563 13.605469-3.730469l62.585937 23.4375 19.144531 32.976563c2.082032 3.582031 6.675782 4.800781 10.253906 2.722656 3.582032-2.082031 4.800782-6.671875 2.71875-10.253906l-47.8125-82.351563c-5.453124-9.394531-8.136718-20.09375-7.753906-30.949218l5.558594-158.234376c.25-7.125 5.160156-10.976562 9.671875-12.199218 4.515625-1.226563 10.695313-.390625 14.515625 5.632812l106.53125 167.898438c4.503906 7.097656 7.644531 14.867187 9.34375 23.097656l32.496094 157.476562zm234.824218-119.253906c6.007813-2.246094 10.96875.453125 13.605469 3.734375 2.636719 3.277344 4.210937 8.703125.722656 14.089844l-57.320312 88.472656c-5.253907 8.113281-14.164063 12.957031-23.832031 12.957031h-51.394532l55.632813-95.816406zm-46.886718-33.46875-88.675782 152.726563h-2.257812l-33.117188-160.511719c-1.277344-6.183594-3.226562-12.148438-5.816406-17.839844.433594-.75 107.871094-170.128906 107.871094-170.128906 3.820312-6.019531 10.003906-6.855469 14.515625-5.628906 4.511719 1.226562 9.421875 5.074218 9.675781 12.199218l5.558594 158.234376c.378906 10.851562-2.300782 21.554687-7.753906 30.949218zm0 0"/><path d="m70.144531 140.292969c8.53125 0 16.070313-4.46875 20.160157-11.953125l5.738281-10.488282c5.042969-9.222656 12.585937-16.765624 21.808593-21.808593l10.488282-5.738281c7.484375-4.089844 11.953125-11.628907 11.953125-20.160157 0-8.527343-4.46875-16.066406-11.953125-20.160156l-10.488282-5.734375c-9.222656-5.042969-16.765624-12.585938-21.808593-21.808594l-5.738281-10.488281c-4.089844-7.484375-11.628907-11.953125-20.160157-11.953125-8.527343 0-16.066406 4.46875-20.160156 11.953125l-5.734375 10.488281c-5.046875 9.222656-12.585938 16.765625-21.808594 21.808594l-10.488281 5.734375c-7.484375 4.09375-11.953125 11.628906-11.953125 20.160156s4.46875 16.066407 11.953125 20.160157l10.488281 5.738281c9.222656 5.042969 16.761719 12.585937 21.808594 21.804687l5.734375 10.492188c4.09375 7.484375 11.632813 11.953125 20.160156 11.953125zm-40.503906-57.410157-10.492187-5.738281c-3.742188-2.046875-4.148438-5.578125-4.148438-7s.40625-4.949219 4.148438-7l10.492187-5.738281c11.742187-6.421875 21.34375-16.023438 27.769531-27.769531l5.738282-10.488281c2.046874-3.746094 5.578124-4.148438 7-4.148438 1.421874 0 4.949218.402344 7 4.148438l5.734374 10.488281c6.425782 11.746093 16.027344 21.351562 27.769532 27.769531l10.492187 5.738281c3.746094 2.050781 4.148438 5.578125 4.148438 7s-.402344 4.953125-4.148438 7l-10.492187 5.738281c-11.742188 6.421876-21.34375 16.023438-27.769532 27.769532l-5.734374 10.488281c-2.050782 3.746094-5.578126 4.148437-7 4.148437-1.421876 0-4.953126-.402343-7-4.148437l-5.738282-10.488281c-6.425781-11.746094-16.027344-21.347656-27.769531-27.769532zm0 0"/><path d="m503.582031 106.417969-5.886719-3.21875c-4.621093-2.527344-8.398437-6.304688-10.925781-10.925781l-3.21875-5.886719c-2.839843-5.191407-8.28125-8.417969-14.199219-8.417969-5.917968 0-11.359374 3.226562-14.199218 8.417969l-3.21875 5.886719c-2.527344 4.621093-6.304688 8.398437-10.925782 10.925781l-5.886718 3.21875c-5.191406 2.839843-8.417969 8.28125-8.417969 14.199219 0 5.917968 3.226563 11.359374 8.417969 14.199218l5.886718 3.21875c4.621094 2.527344 8.398438 6.304688 10.925782 10.925782l3.21875 5.886718c2.839844 5.191406 8.28125 8.417969 14.199218 8.417969 5.917969 0 11.359376-3.226563 14.199219-8.417969l3.21875-5.886718c2.527344-4.621094 6.304688-8.398438 10.925781-10.925782l5.886719-3.21875c5.191407-2.839844 8.417969-8.28125 8.417969-14.199218 0-5.917969-3.226562-11.359376-8.417969-14.199219zm-13.085937 18.457031c-7.140625 3.90625-12.980469 9.746094-16.886719 16.890625 0 0-3.554687 6.5-4.257813 6.5-.703124 0-4.257812-6.503906-4.257812-6.503906-3.90625-7.140625-9.746094-12.980469-16.890625-16.886719 0 0-6.5-3.554688-6.5-4.257812 0-.703126 6.5-4.257813 6.5-4.257813 7.144531-3.90625 12.980469-9.746094 16.890625-16.890625 0 0 3.554688-6.5 4.257812-6.5.703126 0 4.257813 6.5 4.257813 6.5 3.90625 7.144531 9.746094 12.984375 16.890625 16.890625 0 0 6.5 3.554687 6.5 4.257813 0 .703124-6.503906 4.257812-6.503906 4.257812zm0 0"/></svg>