<svg height="511pt" viewBox="-44 0 511 511.9988" width="511pt" xmlns="http://www.w3.org/2000/svg"><path d="m191.597656 48.292969c-16.164062-8.472657-35.734375 2.28125-37.25 20.464843l-15.015625 180.167969c-5.476562 50.453125-53.191406 60.410157-53.191406 60.410157-53.765625 11.464843-87.792969 64.664062-75.652344 118.28125 0 0 24.851563 76.882812 96.230469 76.882812h76.988281c14.609375 0 28.71875-5.3125 39.707031-14.945312l15.167969-13.300782c10.554688-9.257812 26.484375-8.734375 36.414063 1.195313l9.410156 9.410156c11.296875 11.292969 26.613281 17.640625 42.585938 17.640625h25.777343c18.453125 0 33.785157-14.226562 35.167969-32.625l28.730469-382.261719c1.421875-18.878906-17.503907-32.667969-35.039063-25.53125l-90.011718 36.632813zm0 0" fill="#dd9f80"/><path d="m106.71875 504.5h64.304688c-7.152344-9.777344-12.34375-20.5-16.097657-31.113281-10.007812-28.277344-5.339843-59.460938 11.144531-84.523438 10.796876-16.414062 14.644532-33.898437 14.644532-33.898437l-86.785156-48.066406c-4.695313 1.792968-7.789063 2.4375-7.789063 2.4375-53.765625 11.464843-87.792969 64.664062-75.65625 118.28125.003906 0 24.855469 76.882812 96.234375 76.882812zm0 0" fill="#c68d6d"/><path d="m307.9375 398.449219c-23.265625-86.375-119.363281-132.746094-120.332031-133.203125l25.503906-53.867188c4.96875 2.351563 122.03125 58.90625 152.375 171.570313zm0 0" fill="#898890"/><path d="m291.617188 100.714844-100.019532-52.421875c-16.164062-8.472657-35.734375 2.28125-37.25 20.464843l-3.757812 45.074219c73.8125 22.804688 170.753906 57.984375 248.085937 215.199219l7.203125-95.867188c-29.121094-79.816406-114.261718-132.449218-114.261718-132.449218zm0 0" fill="#898890"/><path d="m273.769531 447.84375c-1.277343 1.277344 66.453125.929688 115.9375.507812l9.964844-132.601562c-36.90625 2.933594-121.207031 21.742188-125.902344 132.09375zm0 0" fill="#74747c"/><path d="m106.71875 504.5h76.988281c14.609375 0 28.71875-5.3125 39.707031-14.945312l15.167969-13.296876c10.554688-9.257812 26.484375-8.738281 36.414063 1.191407l9.410156 9.410156c11.296875 11.296875 26.613281 17.640625 42.585938 17.640625h25.777343c18.453125 0 33.785157-14.222656 35.167969-32.625l3.683594-49.039062c-144.402344 27.640624-319.191406 24.472656-373.164063 22.664062 12.144531 22.714844 39.222657 59 88.261719 59zm0 0" fill="#898890"/><path d="m117.566406 257.972656s8.988282-132.355468-16.382812-208.632812c-6.464844-19.4375 7.273437-39.664063 27.6875-41.324219 15.207031-1.234375 32.960937-.507813 50.714844 5.03125 22.980468 7.171875 40.25 26.222656 45.820312 49.644531 12.71875 53.464844 30.699219 170.988282-26.9375 261.660156 1.1875-4.4375-80.902344-66.378906-80.902344-66.378906zm0 0" fill="#d8d7da"/><path d="m117.570312 257.972656s82.089844 61.941406 80.90625 66.378906c20.152344-31.707031 31.054688-66.691406 36.171876-101.074218 0 0-45.285157-24.105469-115.554688-25.773438.199219 35.015625-1.523438 60.46875-1.523438 60.46875zm0 0" fill="#c6c5ca"/><path d="m197.433594 282.015625c-11.148438-10.195313-24.8125-21.15625-40.285156-30.492187-23.328126-14.074219-53.132813-11.269532-73.835938 6.441406-33.988281 29.066406-78.777344 77.789062-49.394531 114.136718 41.019531 50.75 116.652343 6.253907 160.734375-27.304687 20.292968-15.449219 21.601562-45.570313 2.78125-62.78125zm0 0" fill="#eaeaea"/><path d="m314.148438 221.984375-40.734376-40.730469c-5.855468-5.859375-5.855468-15.355468 0-21.210937l40.734376-40.734375c5.855468-5.855469 15.355468-5.855469 21.210937 0l40.734375 40.734375c5.855469 5.855469 5.855469 15.351562 0 21.210937l-40.734375 40.730469c-8.457031 7.566406-18.28125 2.929687-21.210937 0zm-8.914063-51.335937 19.519531 19.519531 19.519532-19.519531-19.519532-19.519532zm0 0" fill="#eaeaea"/><path d="m294.542969 380.371094-40.730469-40.734375c-5.859375-5.855469-5.859375-15.355469 0-21.210938l40.730469-40.734375c5.855469-5.855468 15.355469-5.855468 21.214843 0l40.730469 40.734375c5.859375 5.855469 5.859375 15.355469 0 21.210938l-40.730469 40.734375c-8.628906 8.933594-18.285156 2.925781-21.214843 0zm-8.910157-51.339844 19.515626 19.519531 19.519531-19.519531-19.519531-19.519531zm0 0" fill="#eaeaea"/><g fill="#898890"><path d="m172.066406 311.953125c0 9.433594-7.644531 17.078125-17.078125 17.078125-9.429687 0-17.074219-7.644531-17.074219-17.078125 0-9.429687 7.644532-17.074219 17.074219-17.074219 9.433594 0 17.078125 7.644532 17.078125 17.074219zm0 0"/><path d="m204.683594 211.488281c0 9.429688-7.644532 17.074219-17.078125 17.074219-9.429688 0-17.074219-7.644531-17.074219-17.074219 0-9.429687 7.644531-17.078125 17.074219-17.078125 9.433593 0 17.078125 7.648438 17.078125 17.078125zm0 0"/><path d="m204.683594 137.84375c0 9.433594-7.644532 17.078125-17.078125 17.078125-9.429688 0-17.074219-7.644531-17.074219-17.078125 0-9.429688 7.644531-17.074219 17.074219-17.074219 9.433593 0 17.078125 7.644531 17.078125 17.074219zm0 0"/><path d="m193.1875 64.203125c0 9.429687-7.644531 17.078125-17.078125 17.078125-9.429687 0-17.074219-7.648438-17.074219-17.078125s7.644532-17.074219 17.074219-17.074219c9.433594 0 17.078125 7.644532 17.078125 17.074219zm0 0"/><path d="m108.90625 346.109375c0 9.429687-7.644531 17.074219-17.074219 17.074219-9.429687 0-17.074219-7.644532-17.074219-17.074219 0-9.433594 7.644532-17.078125 17.074219-17.078125 9.429688 0 17.074219 7.644531 17.074219 17.078125zm0 0"/></g><path d="m18.457031 445.5c12.144531 22.714844 39.222657 59 88.261719 59h64.304688c-7.152344-9.777344-12.34375-20.5-16.097657-31.113281-3.175781-8.976563-4.875-18.246094-5.183593-27.519531-58.898438 1.523437-107.160157.441406-131.285157-.367188zm0 0" fill="#74747c"/><path d="m330.058594 145.828125c-2.929688-2.929687-7.679688-2.929687-10.605469 0l-19.519531 19.515625c-2.929688 2.929688-2.929688 7.679688 0 10.605469l19.519531 19.519531c1.460937 1.464844 6.28125 4.148438 10.605469 0l19.515625-19.519531c2.929687-2.925781 2.929687-7.675781 0-10.605469zm-5.304688 33.730469-8.914062-8.910156 8.914062-8.914063 8.910156 8.914063zm0 0"/><path d="m299.847656 353.851562c1.460938 1.464844 6.285156 3.894532 10.605469 0l19.519531-19.519531c2.925782-2.925781 2.925782-7.675781 0-10.605469l-19.519531-19.519531c-2.929687-2.925781-7.679687-2.925781-10.605469 0l-19.519531 19.519531c-2.929687 2.929688-2.929687 7.679688 0 10.605469zm5.300782-33.730468 8.914062 8.910156-8.914062 8.914062-8.910157-8.914062zm0 0"/><path d="m154.988281 336.53125c13.550781 0 24.578125-11.023438 24.578125-24.574219 0-13.554687-11.027344-24.578125-24.578125-24.578125s-24.574219 11.023438-24.574219 24.578125c0 13.550781 11.023438 24.574219 24.574219 24.574219zm0-34.152344c5.28125 0 9.578125 4.296875 9.578125 9.578125 0 5.277344-4.296875 9.574219-9.578125 9.574219s-9.574219-4.296875-9.574219-9.574219c0-5.28125 4.296876-9.578125 9.574219-9.578125zm0 0"/><path d="m187.605469 186.910156c-13.550781 0-24.574219 11.027344-24.574219 24.578125s11.023438 24.574219 24.574219 24.574219 24.578125-11.023438 24.578125-24.574219-11.027344-24.578125-24.578125-24.578125zm0 34.152344c-5.28125 0-9.574219-4.292969-9.574219-9.574219s4.292969-9.578125 9.574219-9.578125 9.578125 4.296875 9.578125 9.578125-4.296875 9.574219-9.578125 9.574219zm0 0"/><path d="m187.605469 113.269531c-13.550781 0-24.574219 11.023438-24.574219 24.578125 0 13.550782 11.023438 24.574219 24.574219 24.574219s24.578125-11.023437 24.578125-24.574219c0-13.554687-11.027344-24.578125-24.578125-24.578125zm0 34.152344c-5.28125 0-9.574219-4.296875-9.574219-9.574219 0-5.28125 4.292969-9.578125 9.574219-9.578125s9.578125 4.296875 9.578125 9.578125c0 5.277344-4.296875 9.574219-9.578125 9.574219zm0 0"/><path d="m176.109375 39.625c-13.550781 0-24.574219 11.027344-24.574219 24.578125s11.023438 24.578125 24.574219 24.578125 24.578125-11.027344 24.578125-24.578125-11.023438-24.578125-24.578125-24.578125zm0 34.15625c-5.28125 0-9.574219-4.296875-9.574219-9.578125s4.292969-9.578125 9.574219-9.578125 9.578125 4.296875 9.578125 9.578125-4.296875 9.578125-9.578125 9.578125zm0 0"/><path d="m91.832031 370.683594c13.550781 0 24.574219-11.023438 24.574219-24.574219 0-13.554687-11.023438-24.578125-24.574219-24.578125s-24.574219 11.023438-24.574219 24.578125c-.003906 13.550781 11.023438 24.574219 24.574219 24.574219zm0-34.152344c5.28125 0 9.574219 4.296875 9.574219 9.578125 0 5.277344-4.292969 9.574219-9.574219 9.574219s-9.574219-4.296875-9.574219-9.574219c-.003906-5.28125 4.292969-9.578125 9.574219-9.578125zm0 0"/><path d="m410.675781 61.03125c-9.300781-6.777344-21.214843-8.230469-31.875-3.894531l-86.785156 35.320312-59.203125-31.03125c-.035156-.152343-.074219-.316406-.109375-.46875-6.210937-26.113281-25.707031-47.210937-50.882813-55.066406-16.363281-5.105469-34.382812-6.90625-53.554687-5.347656-12.214844.992187-23.078125 7.425781-29.808594 17.648437-6.597656 10.019532-8.195312 22.25-4.382812 33.546875 4.207031 12.464844 7.71875 27.5625 10.4375 44.863281.640625 4.09375 4.480469 6.894532 8.570312 6.246094 4.09375-.640625 6.890625-4.480468 6.246094-8.570312-2.851563-18.140625-6.566406-34.066406-11.039063-47.332032-2.328124-6.898437-1.34375-14.371093 2.695313-20.507812 4.171875-6.339844 10.914063-10.328125 18.496094-10.945312 17.246093-1.402344 33.351562.183593 47.871093 4.714843 20.148438 6.289063 35.765626 23.230469 40.757813 44.21875 5.742187 24.144531 12.628906 61.796875 12.816406 104.042969.191407 43.765625-6.792969 83.027344-20.773437 116.972656-2.160156-3.25-4.714844-6.269531-7.65625-8.960937-13.546875-12.390625-27.503906-22.945313-41.476563-31.378907-10.8125-6.523437-22.863281-9.832031-34.929687-10.046874.761718-25.855469 1.050781-68.449219-2.9375-110.085938-.398438-4.121094-4.054688-7.152344-8.183594-6.75-4.121094.398438-7.144531 4.058594-6.75 8.183594 4.011719 41.828125 3.613281 84.75 2.824219 109.996094-11.742188 2.332031-23.003907 7.652343-32.609375 15.863281-23.011719 19.683593-39.863282 38.621093-50.078125 56.285156-6.484375 11.214844-12.226563 25.609375-11.3125 40.460937-15.238281 24.019532-20.171875 52.441407-13.875 80.265626.050781.21875 19.632812 82.726562 103.546875 82.726562h76.988281c16.4375 0 32.292969-5.96875 44.652344-16.804688l15.167969-13.300781c7.5625-6.628906 19.054687-6.253906 26.167968.855469l9.410156 9.410156c12.792969 12.792969 29.800782 19.835938 47.890626 19.835938h25.777343c22.246094 0 40.976563-17.375 42.644531-39.558594l28.734376-382.265625c.863281-11.46875-4.175782-22.367187-13.472657-29.140625zm-26.21875 10c5.8125-2.367188 12.3125-1.574219 17.382813 2.125 5.074218 3.695312 7.820312 9.636719 7.351562 15.894531l-8.601562 114.449219c-4.296875-7.875-9.199219-15.707031-14.683594-23.46875 3.804688-8.304688 2.320312-18.460938-4.511719-25.292969l-8.957031-8.957031c-2.929688-2.929688-7.679688-2.929688-10.605469 0-2.929687 2.929688-2.929687 7.675781 0 10.605469l8.957031 8.957031c4.164063 5.164062 1.417969 9.191406 0 10.609375l-40.566406 40.5625c-5.257812 4.546875-10.722656.214844-10.769531.167969l-40.734375-40.730469c-1.417969-1.417969-4-6.109375 0-10.609375l40.734375-40.730469c5.300781-3.878906 9.1875-1.417969 10.605469 0l7.847656 7.847657c2.929688 2.929687 7.675781 2.929687 10.605469 0 2.929687-2.929688 2.929687-7.675782 0-10.605469l-7.847657-7.847657c-4.25-4.25-9.898437-6.589843-15.910156-6.589843-2.929687 0-5.773437.5625-8.414062 1.628906-3.296875-2.535156-6.300782-4.757813-8.941406-6.65625zm-122.863281 100.925781c.308594 5.316407 2.464844 10.546875 6.519531 14.601563l40.730469 40.730468c3.4375 3.441407 10.886719 7.507813 19.882812 5.996094 18.675782 22.21875 36.113282 48.15625 52.015626 77.402344-5.417969.996094-11.304688 2.335938-17.421876 4.128906-.476562-.585937-42.261718-42.425781-42.261718-42.425781-4.25-4.25-13.257813-6.835937-18.886719-6.371094-21.53125-20.972656-43.429687-36.507812-59.40625-46.539062 2.179687-16.308594 3.238281-33.351563 3.160156-51.078125-.011719-2.1875-.042969-4.359375-.085937-6.523438 5.375 3.214844 10.636718 6.585938 15.753906 10.078125zm26.621094 101.457031-31.484375 31.488282c-8.878907-8.300782-18.542969-16.230469-28.859375-23.667969 5.242187-14.394531 9.351562-29.609375 12.316406-45.589844 13.726562 8.972657 30.890625 21.582031 48.027344 37.769531zm-29.101563 50.3125 40.734375-40.730468c4.265625-3.820313 9.1875-1.417969 10.605469 0l40.730469 40.730468c4.398437 4.195313 1.417968 9.191407 0 10.605469l-40.730469 40.734375c-.03125.03125-.0625.058594-.09375.09375-4.359375 4.824219-9.6875.734375-10.511719-.09375l-40.734375-40.730468c-1.414062-1.417969-3.921875-6.238282 0-10.609376zm35.300781 65.800782c3.140626 1.757812 7 3.046875 11.203126 3.046875h.175781c5.65625-.050781 10.945312-2.449219 15.308593-6.945313l40.691407-40.6875c4.398437-4.402344 6.589843-10.1875 6.574219-15.96875 7.074218-2.03125 13.800781-3.398437 19.726562-4.316406.992188 1.941406 1.96875 3.910156 2.945312 5.878906l-6.460937 85.984375c-33.078125 6.117188-67.664063 10.632813-101.753906 13.945313 2.058593-15.128906 5.941406-28.84375 11.589843-40.9375zm98.757813-87.367188c-15.652344-28.601562-32.765625-54.164062-51.085937-76.292968l33.867187-33.867188c9.539063 13.984375 17.03125 28.160156 22.324219 42.253906zm-88.976563-183.503906s-37.417968 37.539062-38.011718 38.3125c-6.820313-4.511719-13.867188-8.808594-21.058594-12.835938-1.457031-23.972656-4.707031-45.761718-8.195312-63.609374 0 0 49.324218 21.632812 67.265624 38.132812zm-262.851562 197.402344c9.230469-15.964844 25.429688-34.082032 46.84375-52.394532 10.535156-9.011718 23.582031-13.625 36.652344-13.625 9.816406 0 19.648437 2.605469 28.433594 7.90625 13.128906 7.921876 26.28125 17.882813 39.101562 29.605469 7.335938 6.710938 11.289062 16.269531 10.839844 26.222657-.445313 9.925781-5.222656 19.054687-13.101563 25.054687-19.960937 15.195313-49.894531 35.171875-79.15625 44.0625-31.699219 9.628906-54.992187 4.558594-71.207031-15.503906-11.019531-13.632813-10.496094-30.421875 1.59375-51.328125zm339.117188 155.253906c-1.085938 14.40625-13.246094 25.6875-27.691407 25.6875h-25.777343c-14.082032 0-27.324219-5.484375-37.28125-15.441406l-9.410157-9.414063c-12.683593-12.679687-33.179687-13.351562-46.664062-1.527343l-15.167969 13.300781c-9.621094 8.4375-21.964844 13.082031-34.761719 13.082031h-76.988281c-27.039062 0-50.15625-11.851562-68.707031-35.222656-2.226563-2.804688-4.25-5.621094-6.089844-8.378906 12.84375.335937 29.453125.640624 48.835937.714843h.027344c4.128906 0 7.484375-3.335937 7.5-7.46875.015625-4.140625-3.328125-7.511719-7.46875-7.53125-24.285156-.09375-44.1875-.550781-57.699218-.96875-3.257813-6.574219-17.59375-36.582031-.027344-68.675781 1.394531 2.472656 18.484375 32.988281 59.578125 32.988281 31.804687 0 71.460937-17.289062 116.53125-51.691406 25.035156-19.113281 18.96875-42.523437 18.527343-45.550781 1.53125-3.148438 3-6.34375 4.40625-9.582032 8.601563 6.367188 16.699219 13.082032 24.191407 20.074219-6.484375 8.796875-5.773438 21.277344 2.1875 29.234375l34.257812 34.257813c-7.808593 15.332031-12.925781 33.015625-15.242187 52.671875-56.085938 4.898437-109.976563 6.675781-152.527344 7.128906-4.144531.046875-7.464844 3.4375-7.421875 7.582031.046875 4.113281 3.394531 7.417969 7.5 7.417969h.078125c71.714844-.765625 175.414062-5.253906 268.261719-22.011719zm0 0"/></svg>