<svg height="512pt" viewBox="-36 0 512 512" width="512pt" xmlns="http://www.w3.org/2000/svg"><path d="m338.578125 62.257812c0 30.242188-24.515625 54.757813-54.753906 54.757813-30.242188 0-54.757813-24.515625-54.757813-54.757813 0-30.242187 24.515625-54.757812 54.757813-54.757812 30.238281 0 54.753906 24.515625 54.753906 54.757812zm0 0" fill="#ffcd00"/><path d="m229.066406 62.257812c0 30.238282 24.515625 54.757813 54.757813 54.757813 4.847656 0 9.542969-.628906 14.015625-1.8125 11.152344-51.566406-9.957032-87.363281-26.851563-106.191406-24.050781 5.773437-41.921875 27.421875-41.921875 53.246093zm0 0" fill="#ffb600"/><path d="m263.914062 62.257812c0 30.242188-24.515624 54.757813-54.753906 54.757813-30.242187 0-54.757812-24.515625-54.757812-54.757813 0-30.242187 24.515625-54.757812 54.757812-54.757812 30.238282 0 54.753906 24.515625 54.753906 54.757812zm0 0" fill="#ffde55"/><path d="m16.589844 294.65625c-9.242188-6.046875-11.789063-18.472656-5.714844-27.699219 42.429688-64.503906 102.652344-80.550781 105.195312-81.203125l9.929688 38.75.105469-.027344c-.480469.125-48.226563 13.40625-81.816407 64.464844-5.277343 8.023438-16.042968 13.339844-27.699218 5.714844zm0 0" fill="#935b45"/><path d="m47.023438 344.242188c-10.808594-2.277344-17.691407-12.929688-15.386719-23.734376 16.109375-75.507812 66.390625-112.332031 68.523437-113.863281l23.324219 32.496094.085937-.0625c-.398437.292969-40.0625 30.007813-52.816406 89.777344-2.003906 9.394531-10.101562 18.257812-23.730468 15.386719zm0 0" fill="#b2785b"/><path d="m161.339844 216.976562c0 21.550782-17.472656 39.023438-39.023438 39.023438-21.550781 0-39.019531-17.472656-39.019531-39.023438 0-21.550781 17.46875-39.019531 39.019531-39.019531 21.550782 0 39.023438 17.46875 39.023438 39.019531zm0 0" fill="#c68d6d"/><path d="m432.289062 375.328125c0 102.613281-83.183593 129.171875-185.796874 129.171875-102.617188 0-185.800782-26.558594-185.800782-129.171875s83.183594-187.203125 185.800782-187.203125c102.613281 0 185.796874 84.589844 185.796874 187.203125zm0 0" fill="#fce6d4"/><path d="m299.351562 242.835938v-46.964844c-16.757812-5.035156-34.496093-7.746094-52.859374-7.746094-102.617188 0-185.800782 84.589844-185.800782 187.203125 0 83.628906 55.257813 116.742187 131.25 126.132813-35.589844-49.027344-31.910156-107.785157-21.515625-150.046876 7.390625-30.050781 30.332031-53.667968 59.9375-62.675781 45.921875-13.980469 68.988281-45.902343 68.988281-45.902343zm0 0" fill="#efd4bf"/><path d="m246.492188 77.375c-30.058594 0-60.117188-4.609375-89.082032-13.824219-20.726562-6.59375-40.128906 13.148438-33.019531 33.707031l35.671875 103.136719h172.859375l35.667969-103.136719c7.113281-20.558593-12.292969-40.300781-33.019532-33.707031-28.964843 9.214844-59.023437 13.824219-89.078124 13.824219zm0 0" fill="#fce6d4"/><path d="m202.03125 73.992188c-15.058594-2.304688-29.980469-5.785157-44.617188-10.441407-20.730468-6.597656-40.132812 13.148438-33.023437 33.707031l35.671875 103.136719h103.628906c-46.5625-37.945312-58.578125-96.828125-61.660156-126.402343zm0 0" fill="#efd4bf"/><path d="m246.492188 247.476562c-31.9375 0-63.875-5.042968-94.925782-15.132812-21.273437-6.910156-32.914062-29.757812-26-51.03125 6.910156-21.273438 29.757813-32.917969 51.03125-26.003906 45.722656 14.859375 94.0625 14.859375 139.785156 0 21.269532-6.910156 44.121094 4.730468 51.035157 26.003906 6.910156 21.273438-4.730469 44.121094-26.003907 51.03125-31.050781 10.089844-62.988281 15.132812-94.921874 15.132812zm0 0" fill="#eab9a4"/><path d="m182.46875 373.105469c0-13.179688-13.421875-23.867188-29.972656-23.867188-16.554688 0-29.972656 10.6875-29.972656 23.867188 0 13.183593 13.417968 23.871093 29.972656 23.871093 16.550781 0 29.972656-10.6875 29.972656-23.871093zm0 0" fill="#ffa6bb"/><path d="m370.460938 373.105469c0-13.179688-13.421876-23.867188-29.972657-23.867188-16.554687 0-29.976562 10.6875-29.976562 23.867188 0 13.183593 13.421875 23.871093 29.976562 23.871093 16.550781 0 29.972657-10.6875 29.972657-23.871093zm0 0" fill="#ffa6bb"/><path d="m216.074219 212.023438c-10.035157-24.976563 16.9375-45.976563 16.9375-45.976563-19.003907-1.148437-37.921875-4.730469-56.414063-10.738281-21.273437-6.914063-44.121094 4.730468-51.03125 26.003906-6.914062 21.273438 4.726563 44.121094 26 51.03125 31.050782 10.089844 62.988282 15.132812 94.925782 15.132812 17.332031 0 34.679687-1.488281 51.871093-4.460937-30.980469-14.457031-72.964843-7.785156-82.289062-30.992187zm0 0" fill="#dd9f80"/><path d="m246.492188 369.230469c9.707031 0 19.414062-3.140625 27.511718-9.421875 3.273438-2.539063 3.867188-7.25 1.328125-10.523438-2.535156-3.273437-7.25-3.871094-10.519531-1.332031-10.789062 8.367187-25.855469 8.367187-36.640625 0-3.273437-2.539063-7.984375-1.941406-10.523437 1.332031-2.539063 3.273438-1.945313 7.984375 1.328124 10.523438 8.101563 6.28125 17.808594 9.421875 27.515626 9.421875zm0 0"/><path d="m160.710938 354.84375c1.640624-2.496094 4.128906-2.765625 5.121093-2.765625.996094 0 3.445313.300781 5.125 2.765625 3.503907 5.144531 9.117188 2.984375 10.386719 2.152344 3.460938-2.273438 4.425781-6.925782 2.148438-10.386719-3.917969-5.96875-10.519532-9.53125-17.660157-9.53125-7.136719 0-13.738281 3.5625-17.660156 9.53125-2.273437 3.460937-1.308594 8.113281 2.152344 10.386719 3.460937 2.273437 8.113281 1.308594 10.386719-2.152344zm0 0"/><path d="m322.023438 354.84375c1.640624-2.496094 4.128906-2.765625 5.125-2.765625.992187 0 3.441406.300781 5.121093 2.765625 3.503907 5.144531 9.117188 2.984375 10.386719 2.152344 3.460938-2.273438 4.425781-6.925782 2.148438-10.386719-3.917969-5.96875-10.519532-9.53125-17.65625-9.53125-7.140626 0-13.742188 3.5625-17.660157 9.53125-2.277343 3.460937-1.3125 8.113281 2.148438 10.386719 3.460937 2.273437 8.113281 1.308594 10.386719-2.152344zm0 0"/><path d="m418.707031 287.15625c-12.503906-24.617188-30.371093-46.625-51.871093-63.957031 9.371093-12.140625 12.800781-28.550781 7.714843-44.207031-3.316406-10.199219-9.742187-18.53125-17.886719-24.296876l19.015626-54.984374c4.210937-12.175782 1.246093-25.460938-7.738282-34.671876-9.027344-9.253906-22.300781-12.5625-34.644531-8.636718-20.265625 6.449218-41.109375 10.589844-62.226563 12.40625 2.15625-17.300782-4.890624-35.054688-13.605468-45.765625 7.753906-5.214844 16.921875-8.042969 26.359375-8.042969 17.34375 0 33.265625 9.480469 41.554687 24.738281 1.359375 2.5 5.5625 5.578125 10.171875 3.007813 3.617188-2.015625 4.988281-6.53125 3.011719-10.167969-10.917969-20.097656-31.890625-32.578125-54.738281-32.578125-13.511719 0-26.609375 4.40625-37.34375 12.460938-10.40625-7.820313-23.332031-12.460938-37.320313-12.460938-31.820312 0-58.125 24-61.800781 54.847656-8.308594.472656-16.269531 3.988282-22.320313 10.191406-8.984374 9.210938-11.949218 22.496094-7.738281 34.671876l19.011719 54.957031c-5.878906 4.152343-10.699219 9.53125-14.171875 15.796875-15.6875.054687-29.851563 8.019531-38.28125 20.371094-22.109375 11.496093-53.789063 33.324218-79.25 71.996093-11.65625 17.707031 1.742187 34.085938 7.875 38.101563 4.84375 3.167968 9.984375 4.789062 15.035156 4.898437-1.179687 4.238281-2.257812 8.609375-3.21875 13.109375-1.535156 7.207032-.171875 14.574219 3.84375 20.75 4 6.15625 14.300781 12.136719 26.441407 12.5-.925782 7.671875-1.394532 15.402344-1.394532 23.136719 0 23.25 4.191406 43.820313 12.457032 61.132813 1.289062 2.695312 5.222656 5.851562 10 3.535156 3.726562-1.804688 5.320312-6.261719 3.539062-10-7.296875-15.277344-10.996094-33.671875-10.996094-54.667969 0-28.386719 6.824219-56.714844 19.738282-81.925781 11.855468-23.144532 28.84375-43.742188 49.273437-59.820313 3.636719 2.460938 7.664063 4.46875 12.046875 5.894531 31.65625 10.285157 64.371094 15.5 97.242188 15.5 32.871093 0 65.585937-5.214843 97.242187-15.5 4.378906-1.421874 8.40625-3.429687 12.042969-5.890624 20.589844 16.199218 37.691406 37.003906 49.554687 60.363281 12.914063 25.421875 19.460938 52.804687 19.460938 81.378906 0 45.242187-16.578125 76.832031-50.679688 96.574219-29.167969 16.886718-70.914062 25.097656-127.621093 25.097656-72.800782 0-121.773438-13.722656-149.714844-41.953125-2.914063-2.945313-7.660156-2.96875-10.605469-.054687-2.941406 2.914062-2.96875 7.660156-.054687 10.605468 30.90625 31.222656 83.363281 46.402344 160.375 46.402344 59.417968 0 103.621093-8.867188 135.136718-27.113281 38.59375-22.34375 58.160156-59.203125 58.160156-109.558594 0-30.523437-7.289062-61.011719-21.082031-88.171875zm-209.546875-272.15625c26.054688 0 49.25 24.464844 46.648438 54.710938-31.667969.007812-66.304688-4.117188-93.628906-12.539063 2.542968-23.675781 22.640624-42.171875 46.980468-42.171875zm-188.464844 273.378906c-2.777343-1.816406-8.800781-9.265625-3.554687-17.300781 18.332031-28.085937 40.359375-46.511719 58.855469-58.367187-.007813.0625-.015625.121093-.023438.179687-.175781 1.996094-.214844 3.976563-.136718 5.9375-14.347657 15.414063-31.488282 38.78125-43.152344 70.867187-2.929688 1.472657-6.984375 1.957032-11.988282-1.316406zm53.882813-1.8125c-7.996094 15.613282-13.832031 32.335938-17.367187 49.539063-2.390626 1.226562-5.28125 1.503906-8.644532.796875-3.246094-.683594-11.417968-4.421875-9.597656-14.828125 6.804688-38.875 25.554688-66.730469 41.179688-85.457031 3.316406 7.128906 8.421874 13.378906 14.914062 18.070312-7.835938 9.945312-14.722656 20.628906-20.484375 31.878906zm30.261719-43.355468c-9.476563-6.3125-14.949219-17.375-13.921875-29 1.273437-14.457032 12.175781-25.789063 25.8125-28.25-2.242188 13.445312 1.429687 26.902343 9.425781 37.25-7.585938 6.117187-14.714844 12.8125-21.316406 20zm234.257812-18c-30.15625 9.796874-61.3125 14.765624-92.605468 14.765624-31.292969 0-62.453126-4.96875-92.609376-14.765624-17.304687-5.625-26.300781-24.121094-21.183593-41.582032 7.449219-25.441406 33.199219-23.914062 41.582031-21.1875 28.925781 9.398438 58.792969 13.070313 88.773438 10.914063 4.132812-.296875 7.242187-3.886719 6.945312-8.019531-.296875-4.128907-3.878906-7.234376-8.019531-6.941407-28.039063 2.015625-55.988281-1.421875-83.0625-10.21875-9.570313-3.109375-19.636719-3.136719-29.046875-.195312l-18.390625-53.171875c-2.382813-6.882813-.773438-14.09375 4.300781-19.296875 5.113281-5.242188 12.351562-7.042969 19.359375-4.8125 29.5625 9.40625 60.296875 14.175781 91.351563 14.175781 31.054687 0 61.789062-4.769531 91.351562-14.175781 7.011719-2.230469 14.246094-.429688 19.359375 4.8125 5.074219 5.203125 6.683594 12.414062 4.300781 19.296875l-18.398437 53.199218c-9.15625-2.851562-19.242188-3.015624-29.039063.167969-6.902344 2.242188-13.976562 4.164063-21.019531 5.710938-4.046875.886719-6.605469 4.886719-5.71875 8.933593.890625 4.046876 4.890625 6.605469 8.933594 5.71875 7.523437-1.652343 15.070312-3.703124 22.441406-6.097656 17.304687-5.625 35.960937 3.882813 41.582031 21.1875 5.621094 17.304688-3.882812 35.957032-21.1875 41.582032zm0 0"/></svg>