<svg height="511pt" viewBox="-20 1 511 511.999" width="511pt" xmlns="http://www.w3.org/2000/svg"><path d="m418.519531 189.308594c5.207031-82.558594-69.292969-181.808594-197.75-181.808594s-202.957031 99.25-197.75 181.808594c3.339844 52.917968-6.160156 106.011718-13.410156 137.3125-6.25 26.996094 6.398437 55.097656 31.167969 67.515625 24.496094 12.277343 47.695312 8.53125 47.695312 8.53125h264.597656s22.363282 3.613281 46.363282-7.878907c25.488281-12.207031 38.867187-40.648437 32.492187-68.183593-7.25-31.304688-16.742187-84.386719-13.40625-137.296875zm0 0" fill="#e5cfa1"/><path d="m169.996094 99.011719c-30.203125-35.820313-8.511719-70.183594 7.066406-87.457031-101.40625 19.441406-158.625 105.070312-154.042969 177.753906 3.339844 52.917968-6.160156 106.011718-13.410156 137.3125-6.25 26.996094 6.398437 55.097656 31.167969 67.515625 24.496094 12.277343 47.695312 8.53125 47.695312 8.53125h177.320313c-.226563-78.210938-.484375-203.34375.203125-202.65625-5-66-53-50-96-101zm0 0" fill="#d3bd94"/><path d="m359.351562 504.5h-277.160156c-16.339844 0-29.585937-13.246094-29.585937-29.585938v-14.242187c0-49.230469 39.910156-89.136719 89.136719-89.136719h158.054687c49.230469 0 89.140625 39.90625 89.140625 89.136719v14.242187c-.003906 16.339844-13.246094 29.585938-29.585938 29.585938zm0 0" fill="#c68d6d"/><path d="m220.769531 371.535156h-79.027343c-49.226563 0-89.136719 39.90625-89.136719 89.136719v14.246094c0 16.339843 13.246093 29.582031 29.585937 29.582031h138.578125zm0 0" fill="#b2785b"/><path d="m88.210938 389.394531c-21.621094 16.265625-35.605469 42.136719-35.605469 71.277344v14.242187c0 16.339844 13.246093 29.585938 29.585937 29.585938h49.828125c-3.84375-58.144531-25-94.175781-43.808593-115.105469zm0 0" fill="#9ad880"/><path d="m353.328125 389.394531c21.621094 16.265625 35.605469 42.136719 35.605469 71.277344v14.242187c0 16.339844-13.242188 29.585938-29.582032 29.585938h-49.832031c3.84375-58.144531 25-94.175781 43.808594-115.105469zm0 0" fill="#9ad880"/><path d="m117.683594 354.851562s-50.476563 3.617188-80.230469 49.160157c-11.660156 17.847656-.871094 41.929687 20.214844 45.042969 32.382812 4.777343 82.554687.003906 131.488281-52.332032-.570312-.730468-71.472656-41.871094-71.472656-41.871094zm0 0" fill="#acabb1"/><path d="m323.855469 354.851562s50.476562 3.617188 80.234375 49.160157c11.65625 17.847656.867187 41.929687-20.21875 45.042969-32.382813 4.777343-82.554688.003906-131.488282-52.332032.570313-.730468 71.472657-41.871094 71.472657-41.871094zm0 0" fill="#acabb1"/><path d="m100.160156 276.355469c0 23.613281-19.144531 42.757812-42.757812 42.757812-23.617188 0-42.761719-19.144531-42.761719-42.757812 0-23.617188 19.144531-42.757813 42.761719-42.757813 23.613281 0 42.757812 19.140625 42.757812 42.757813zm0 0" fill="#ffaea1"/><path d="m426.898438 276.355469c0 23.613281-19.144532 42.757812-42.757813 42.757812-23.617187 0-42.761719-19.144531-42.761719-42.757812 0-23.617188 19.144532-42.757813 42.761719-42.757813 23.613281 0 42.757813 19.140625 42.757813 42.757813zm0 0" fill="#ffcfc2"/><path d="m236.285156 411.101562h-31.03125c-81.320312 0-147.851562-66.535156-147.851562-147.855468v-67.925782c0-89.851562 73.515625-163.371093 163.367187-163.371093 89.855469 0 163.371094 73.515625 163.371094 163.371093v67.925782c0 81.320312-66.535156 147.855468-147.855469 147.855468zm0 0" fill="#ffe2d9"/><path d="m135.621094 299.46875c-7.621094-40.351562 4.839844-81.640625 32.121094-112.328125 40.574218-45.640625 53.027343-155.191406 53.027343-155.191406-89.851562 0-163.371093 73.515625-163.371093 163.371093v67.925782c0 80.769531 65.652343 146.949218 146.21875 147.847656-42.992188-35.609375-61.320313-76.289062-67.996094-111.625zm0 0" fill="#ffcfc2"/><path d="m156.742188 308.875c0-13.183594-13.417969-23.867188-29.972657-23.867188-16.554687 0-29.972656 10.683594-29.972656 23.867188s13.417969 23.867188 29.972656 23.867188c16.554688 0 29.972657-10.683594 29.972657-23.867188zm0 0" fill="#ffa6bb"/><path d="m344.734375 308.875c0-13.183594-13.421875-23.867188-29.972656-23.867188-16.554688 0-29.972657 10.683594-29.972657 23.867188s13.417969 23.867188 29.972657 23.867188c16.550781 0 29.972656-10.683594 29.972656-23.867188zm0 0" fill="#ffa6bb"/><path d="m241.628906 302.828125c0-13.640625-9.339844-24.695313-20.859375-24.695313s-20.855469 11.054688-20.855469 24.695313 9.335938 24.699219 20.855469 24.699219 20.859375-11.058594 20.859375-24.699219zm0 0" fill="#57565c"/><path d="m220.769531 20.675781s-202.160156 3.933594-163.367187 212.921875c0 0 27.285156-47.675781 100.765625-89.78125 5.179687-2.964844 11.5-3.136718 16.820312-.429687 7.253907 3.6875 18.058594 9.121093 27.351563 13.785156 11.601562 5.820313 25.261718 5.820313 36.859375 0 9.292969-4.664063 20.097656-10.097656 27.351562-13.785156 5.320313-2.707031 11.644531-2.535157 16.820313.429687 73.484375 42.105469 100.769531 89.78125 100.769531 89.78125 38.789063-208.988281-163.371094-212.921875-163.371094-212.921875zm0 0" fill="#e5cfa1"/><path d="m169.996094 99.011719c-21.027344-24.941407-16.90625-49.160157-7.203125-67.40625-56.398438 18.507812-130.210938 68.28125-105.390625 201.992187 0 0 27.285156-47.675781 100.765625-89.78125 5.179687-2.964844 11.5-3.136718 16.820312-.429687 7.253907 3.6875 18.058594 9.121093 27.351563 13.785156 11.601562 5.820313 25.261718 5.820313 36.859375 0 2.25-1.128906 4.589843-2.304687 6.945312-3.488281-19.03125-16.832032-48.617187-22.019532-76.148437-54.671875zm0 0" fill="#d3bd94"/><path d="m414.121094 263.753906-47.265625 48.433594c-10.351563 10.605469-16.628907 24.527344-17.726563 39.308594l-10.585937 153.003906h57.671875c10.5 0 19.878906-6.570312 23.460937-16.441406l40.847657-112.46875c5.113281-13.914063 5.148437-29.183594.105468-43.121094l-23.027344-63.640625c-3.558593-9.832031-16.175781-12.558594-23.480468-5.074219zm0 0" fill="#eaeaea"/><path d="m428.097656 260.003906c-4.722656-1.320312-10.097656-.226562-13.972656 3.75l-47.269531 48.433594c-10.351563 10.605469-16.628907 24.527344-17.726563 39.308594l-10.585937 153.003906h35.3125zm0 0" fill="#d8d7da"/><path d="m301.425781 295.773438c4.144531 0 7.5-3.359376 7.5-7.5v-12.453126c0-4.140624-3.355469-7.5-7.5-7.5-4.140625 0-7.5 3.359376-7.5 7.5v12.453126c0 4.140624 3.359375 7.5 7.5 7.5zm0 0"/><path d="m140.113281 295.773438c4.144531 0 7.5-3.359376 7.5-7.5v-12.453126c0-4.140624-3.355469-7.5-7.5-7.5-4.140625 0-7.5 3.359376-7.5 7.5v12.453126c0 4.140624 3.359375 7.5 7.5 7.5zm0 0"/><path d="m220.769531 335.027344c15.636719 0 28.359375-14.445313 28.359375-32.199219s-12.722656-32.195313-28.359375-32.195313-28.355469 14.441407-28.355469 32.195313 12.71875 32.199219 28.355469 32.199219zm0-49.394532c7.367188 0 13.359375 7.714844 13.359375 17.195313 0 9.484375-5.992187 17.199219-13.359375 17.199219-7.363281 0-13.355469-7.714844-13.355469-17.199219 0-9.480469 5.988282-17.195313 13.355469-17.195313zm0 0"/><path d="m467.683594 329.917969-23.027344-63.640625c-5.378906-12.863282-17.226562-13.839844-17.226562-13.839844-1.328126-19.707031-2.367188-47.664062-1.421876-62.65625 2.714844-43.085938-15.511718-89.953125-48.761718-125.367188-39.003906-41.535156-94.574219-64.414062-156.476563-64.414062-61.902343 0-117.472656 22.878906-156.472656 64.414062-33.25 35.414063-51.480469 82.28125-48.761719 125.367188 1.183594 18.761719.792969 39.144531-1.144531 60.59375-4.597656 7.585938-7.25 16.476562-7.25 25.980469 0 4.898437.71875 9.628906 2.03125 14.113281-1.9375 11.519531-4.238281 23.101562-6.867187 34.460938-6.683594 28.855468 5.609374 58.117187 30.109374 73.132812-5.496093 9.976562-9.148437 25.574219-3.960937 37.101562 3.53125 7.851563 9.550781 14.046876 16.960937 17.777344-.203124 2.570313-.308593 21.972656-.308593 21.972656 0 20.449219 16.636719 37.085938 37.082031 37.085938h314.027344c13.605468 0 25.863281-8.59375 30.511718-21.378906l40.835938-112.445313c5.710938-15.546875 5.753906-32.6875.121094-48.257812zm-76.640625-53.253907c.386719-4.453124.597656-8.929687.597656-13.417968v-21.339844c8.386719 1.816406 15.804687 6.632812 20.882813 13.53125-1.347657.871094-21.480469 21.226562-21.480469 21.226562zm-315.8125-201.980468c36.136719-38.488282 87.824219-59.683594 145.539062-59.683594 57.714844 0 109.402344 21.195312 145.539063 59.683594 30.46875 32.449218 47.1875 75.125 44.726562 114.152344-.894531 14.195312-.917968 29.28125-.101562 44.980468-6.691406-4.210937-14.382813-6.847656-22.519532-7.535156-7.960937-12.144531-37.644531-52.492188-101.3125-88.972656-7.402343-4.242188-16.359374-4.46875-23.949218-.609375-7.617188 3.875-19.058594 9.625-27.316406 13.769531-9.433594 4.734375-20.695313 4.734375-30.132813 0-8.277344-4.15625-19.734375-9.914062-27.3125-13.769531-7.59375-3.859375-16.546875-3.632813-23.949219.609375-13.15625 7.535156-25.75 15.773437-37.4375 24.484375-3.320312 2.476562-4.007812 7.175781-1.53125 10.496093 2.476563 3.320313 7.175782 4.007813 10.496094 1.53125 11.207031-8.351562 23.296875-16.257812 35.929688-23.496093 3-1.71875 6.625-1.816407 9.691406-.253907 7.605468 3.867188 19.09375 9.640626 27.386718 13.800782 13.644532 6.851562 29.941407 6.851562 43.589844 0 8.269532-4.148438 19.738282-9.914063 27.386719-13.800782 3.066406-1.5625 6.691406-1.46875 9.691406.253907 63.179688 36.199219 91.554688 76.9375 96.996094 85.402343v27.519532c0 10.800781-1.25 21.535156-3.707031 31.976562l-11.445313 11.722656c-22.945312 25.796876-20.195312 49.164063-20.195312 49.164063-26.742188 30.179687-65.003907 47.492187-105.003907 47.492187h-31.035156c-37.324218 0-72.527344-14.644531-99.117187-41.234374-26.589844-26.589844-41.234375-61.792969-41.234375-99.117188v-27.523438c3.234375-5.050781 14.539062-21.507812 36.339844-41.488281 3.054687-2.800781 3.261718-7.546875.460937-10.597656-2.800781-3.054687-7.542969-3.261719-10.597656-.460937-21.507813 19.714843-33.378907 36.132812-37.96875 43.109374-8.234375.695313-15.902344 3.382813-22.535157 7.578126.820313-15.722657.800782-30.8125-.09375-45.027344-2.464843-39.03125 14.257813-81.707032 44.722657-114.15625zm242.425781 422.316406c1.539062-15.722656 4.492188-30.550781 8.820312-44.257812 2.648438.742187 5.3125 1.410156 7.992188 1.996093l-2.925781 42.261719zm-104.386719-78.398438v78.398438h-74.328125c-1.601562-17.378906-4.832031-33.804688-9.644531-48.988281 16.21875-6.402344 33.230469-16.421875 50.316406-31.535157 8.398438 1.402344 33.65625 2.125 33.65625 2.125zm15 0s25.222657-.738281 33.636719-2.160156c15.859375 14.027344 32.707031 24.570313 50.351562 31.523438-4.820312 15.199218-8.054687 31.640625-9.660156 49.035156h-74.328125zm107.246094 20.984376c-19.347656-4.574219-37.871094-13.757813-55.292969-27.398438 21.898438-6.511719 42.246094-17.84375 59.492188-33.277344zm-313.375-163.230469c0-16.871094 11.910156-31 27.761719-34.449219v21.339844c0 16.664062 2.636718 32.9375 7.707031 48.359375-.070313 0-.136719.007812-.207031.007812-19.445313 0-35.261719-15.816406-35.261719-35.257812zm-5.222656 51.960937c1.351562-5.839844 2.617187-11.742187 3.796875-17.660156 9.179687 9.8125 22.453125 14.925781 42.558594 15.609375 4.882812 10.917969 11.058593 21.289063 18.4375 30.929687-12.644532 5.652344-27.203126 14.660157-39.980469 28.941407-19.996094-11.375-30.160157-34.746094-24.8125-57.820313zm26.8125 79.796875c14.050781-21.507812 33.15625-32.9375 48.136719-38.9375 1.199218 1.277344 20.386718 26.90625 69.394531 43.074219-39.144531 30.625-76.777344 33.179688-102.496094 29.382812-7.347656-1.082031-13.5625-5.800781-16.632813-12.621093-3.078124-6.84375-2.480468-14.65625 1.597657-20.898438zm16.375 66.800781s.039062-16.722656.09375-17.957031c25.421875 2.71875 41.382812-.382812 54.882812-4.15625 4.316407 13.6875 7.265625 28.5 8.800781 44.199219h-41.691406c-12.179687 0-22.085937-9.90625-22.085937-22.085938zm393.371093-101.886718-40.851562 112.472656c-2.496094 6.878906-9.089844 11.5-16.410156 11.5h-13.011719l11.785156-53.117188c.894531-4.042968-1.65625-8.046874-5.699219-8.945312-4.042968-.894531-8.046874 1.65625-8.945312 5.699219l-12.503906 56.363281h-21.257813l10.027344-144.949219c.964844-13 6.507813-25.296875 15.613281-34.625l14.277344-14.632812.007812.003906c0-.003906.003907-.011719.003907-.015625l31.597656-32.375-30.855469 139.074219c-.894531 4.042969 1.667969 7.988281 5.699219 8.945312 5.125 1.21875 8.167969-2.203125 8.945313-5.699219l30.328124-136.707031 21.347657 59c4.4375 12.257813 4.40625 25.75-.097657 38.007813zm0 0"/></svg>