<svg height="511pt" viewBox="0 -35 511.99967 511" width="511pt" xmlns="http://www.w3.org/2000/svg"><path d="m94.566406 247.472656c-25.089844-8.449218-46.847656-24.558594-62.917968-46.585937-13.660157-18.722657-22.117188-40.832031-23.8125-62.25-1.921876-24.242188 4.480468-46.410157 18.503906-64.101563 14.375-18.140625 33.324218-28.164062 54.792968-29 50.273438-1.976562 97.660157 47.488282 102.894532 53.132813l-34.480469 31.980469.03125.03125c-9.542969-10.210938-58.136719-56.921876-86.378906-26.933594-14.960938 15.882812-10.90625 45.644531 6.441406 69.421875 10.160156 13.921875 24.34375 24.484375 39.9375 29.734375 18.089844 6.089844 37.59375 5.292968 57.96875-2.375l16.566406 44.011718c-37.203125 16.65625-76.761719 7.242188-89.546875 2.933594zm0 0" fill="#ffcd00"/><path d="m417.429688 247.472656c25.09375-8.449218 46.851562-24.558594 62.921874-46.585937 13.660157-18.722657 22.117188-40.832031 23.8125-62.25 1.917969-24.242188-4.480468-46.410157-18.507812-64.101563-14.375-18.140625-33.320312-28.164062-54.789062-29-50.273438-1.976562-97.664063 47.488282-102.898438 53.132813l34.484375 31.980469-.03125.03125c9.542969-10.210938 58.136719-56.921876 86.378906-26.933594 14.960938 15.882812 10.902344 45.644531-6.441406 69.421875-10.160156 13.921875-24.34375 24.484375-39.9375 29.734375-18.089844 6.089844-37.59375 5.292968-57.96875-2.375l-16.570313 44.011718c37.203126 16.65625 76.761719 7.242188 89.546876 2.933594zm0 0" fill="#ffcd00"/><path d="m327.882812 244.542969 16.570313-44.015625c20.375 7.667968 39.878906 8.46875 57.96875 2.375 15.59375-5.25 29.777344-15.808594 39.9375-29.734375 17.34375-23.777344 21.402344-53.539063 6.441406-69.421875 0 0 40.5 35.921875 11.03125 119.476562-12.464843 10.773438-26.785156 18.992188-42.402343 24.25-12.785157 4.308594-52.34375 13.722656-89.546876-2.929687zm0 0" fill="#ffb600"/><path d="m184.113281 244.542969-16.566406-44.015625c-20.375 7.667968-39.878906 8.46875-57.96875 2.375-15.597656-5.25-29.78125-15.808594-39.9375-29.734375-17.347656-23.777344-21.402344-53.539063-6.445313-69.421875 0 0-40.496093 35.917968-11.03125 119.476562 12.46875 10.769532 26.789063 18.992188 42.402344 24.25 12.785156 4.308594 52.34375 13.722656 89.546875-2.929687zm0 0" fill="#ffb600"/><path d="m299.03125 313.039062h-86.0625s12.925781 57.183594-25.410156 94.058594c-9.84375 9.464844-3.21875 26.078125 10.4375 26.078125h116.007812c13.65625 0 20.277344-16.613281 10.4375-26.078125-38.339844-36.875-25.410156-94.058594-25.410156-94.058594zm0 0" fill="#ffcd00"/><path d="m299.03125 313.039062h-86.0625s5.859375 25.914063-2.007812 54.101563c37.484374 6.546875 66.726562-4.460937 86.746093-17.332031-2.320312-20.644532 1.324219-36.769532 1.324219-36.769532zm0 0" fill="#ffb600"/><path d="m160.277344 245.765625h191.441406s-7.71875 88.742187-95.71875 88.742187-95.722656-88.742187-95.722656-88.742187zm0 0" fill="#ffde55"/><path d="m291.777344 288.371094v-42.605469h-131.5s7.722656 88.742187 95.722656 88.742187c3.039062 0 5.988281-.105468 8.839844-.308593-4.726563-5.046875-8.839844-12.054688-8.839844-21.160157 0-21.46875 35.777344-24.667968 35.777344-24.667968zm0 0" fill="#ffcd00"/><path d="m367.082031 45.300781h-222.164062s-148.164063 244.835938 111.082031 244.835938 111.082031-244.835938 111.082031-244.835938zm0 0" fill="#ffeb99"/><path d="m177.871094 171.625c3.660156-27.902344 23.800781-51.003906 51.042968-58.054688 48.660157-12.59375 76.386719-39.808593 76.386719-39.808593v-28.460938h-160.394531s-133.765625 221.101563 75.402344 243.085938c-42.527344-34.71875-47.085938-81.308594-42.4375-116.761719zm0 0" fill="#ffde55"/><path d="m367.144531 73.761719h-222.289062c-18.160157 0-32.882813-14.722657-32.882813-32.882813 0-18.15625 14.722656-32.878906 32.882813-32.878906h222.289062c18.160157 0 32.878907 14.722656 32.878907 32.878906 0 18.160156-14.71875 32.882813-32.878907 32.882813zm0 0" fill="#b2e59c"/><path d="m200.128906 40.878906c0-18.15625 14.722656-32.878906 32.878906-32.878906h-88.152343c-18.160157 0-32.882813 14.722656-32.882813 32.878906 0 18.160156 14.722656 32.882813 32.882813 32.882813h88.152343c-18.15625 0-32.878906-14.722657-32.878906-32.882813zm0 0" fill="#9ad880"/><path d="m256 199.1875c-15.519531 0-28.101562-12.582031-28.101562-28.101562v-20.429688c0-4.234375 3.433593-7.667969 7.671874-7.667969h40.859376c4.234374 0 7.667968 3.433594 7.667968 7.667969v20.429688c0 15.519531-12.578125 28.101562-28.097656 28.101562zm0 0" fill="#57565c"/><path d="m191.976562 171.085938c0-13.183594-13.417968-23.867188-29.972656-23.867188-16.554687 0-29.972656 10.683594-29.972656 23.867188 0 13.183593 13.417969 23.867187 29.972656 23.867187 16.554688 0 29.972656-10.683594 29.972656-23.867187zm0 0" fill="#ffa6bb"/><path d="m379.964844 171.085938c0-13.183594-13.417969-23.867188-29.972656-23.867188-16.550782 0-29.972657 10.683594-29.972657 23.867188 0 13.183593 13.421875 23.867187 29.972657 23.867187 16.554687 0 29.972656-10.683594 29.972656-23.867187zm0 0" fill="#ffa6bb"/><path d="m336.65625 130.53125c-4.144531 0-7.5 3.359375-7.5 7.5v12.453125c0 4.140625 3.355469 7.5 7.5 7.5 4.140625 0 7.5-3.359375 7.5-7.5v-12.453125c0-4.140625-3.359375-7.5-7.5-7.5zm0 0"/><path d="m175.34375 130.53125c-4.144531 0-7.5 3.359375-7.5 7.5v12.453125c0 4.140625 3.355469 7.5 7.5 7.5 4.140625 0 7.5-3.359375 7.5-7.5v-12.453125c0-4.140625-3.359375-7.5-7.5-7.5zm0 0"/><path d="m276.429688 135.484375h-40.859376c-8.367187 0-15.171874 6.808594-15.171874 15.171875v20.429688c0 19.628906 15.972656 35.601562 35.601562 35.601562s35.597656-15.972656 35.601562-35.601562v-20.429688c-.003906-8.363281-6.808593-15.171875-15.171874-15.171875zm.167968 35.601563c0 11.359374-9.242187 20.601562-20.597656 20.601562-11.359375 0-20.601562-9.242188-20.601562-20.601562 0 0 .078124-20.597657.171874-20.597657 0 0 41.027344.074219 41.027344.167969zm0 0"/><path d="m491.535156 69.875c-15.777344-19.902344-36.652344-30.910156-60.371094-31.832031-7.628906-.300781-15.550781.5-23.652343 2.332031-.273438-22.03125-18.269531-39.875-40.367188-39.875h-23.753906c-4.144531 0-7.5 3.359375-7.5 7.5s3.355469 7.5 7.5 7.5h23.753906c13.996094 0 25.378907 11.386719 25.378907 25.378906 0 13.996094-11.382813 25.378906-25.378907 25.378906h-222.289062c-13.996094 0-25.382813-11.382812-25.382813-25.378906s11.386719-25.378906 25.382813-25.378906h167.203125c4.144531 0 7.5-3.359375 7.5-7.5s-3.355469-7.5-7.5-7.5h-167.203125c-22.097657 0-40.097657 17.84375-40.367188 39.875-8.105469-1.832031-16.027343-2.632812-23.648437-2.332031-19.371094.75-37.226563 8.429687-51.632813 22.210937-2.992187 2.859375-3.261719 7.769532-.238281 10.601563 4.25 3.976562 9.152344 1.628906 10.605469.238281 11.890625-11.371094 25.96875-17.449219 41.851562-18.0625 8.316407-.324219 17.144531.921875 26.289063 3.691406 3 7 7.925781 12.988282 14.105468 17.296875-2.722656 6.042969-5.53125 12.675781-8.253906 19.757813-28.578125-14.257813-46.019531-5.582032-55.828125 4.828125-16.90625 17.953125-14.449219 51.167969 5.84375 78.984375 9.011719 12.351562 20.746094 22.152344 34.109375 28.546875 2.425782 12.398437 8.65625 29.15625 15.75 38.296875-8.339844-1.476563-47.21875-11.402344-75.734375-47.964844-13.414062-17.195312-20.804687-38.363281-22.394531-58.421875-1.179688-14.886719.980469-28.800781 6.417969-41.351563 1.644531-3.800781-.101563-8.21875-3.902344-9.863281-3.800781-1.648437-8.214844.101563-9.859375 3.898438-6.421875 14.828125-8.980469 31.144531-7.609375 48.503906 1.804687 22.78125 10.765625 46.246094 25.230469 66.074219 16.992187 23.289062 40.015625 40.328125 66.585937 49.277344 4.996094 1.679687 18.304688 5.605468 36.089844 6.679687 9.515625 8.566406 21.039063 15.625 34.542969 21.175781 7.054687 15.898438 16.796875 28.925782 29 38.738282 4.871094 3.917968 10.105468 7.265624 15.671875 10.085937.660156 18.074219-2.253907 48.433594-25.121094 70.429687-6.714844 6.460938-8.808594 16.210938-5.332031 24.839844 3.460937 8.59375 11.691406 14.144532 20.96875 14.144532h116.007812c9.277344 0 17.511719-5.550782 20.972656-14.144532 3.476563-8.628906 1.382813-18.382812-5.332031-24.839844-22.875-22-25.78125-52.367187-25.121093-70.429687 5.632812-2.851563 10.929687-6.25 15.851562-10.230469 12.113281-9.789062 21.789062-22.75 28.800781-38.550781 13.515625-5.558594 25.050781-12.644531 34.574219-21.21875 17.777344-1.078125 31.082031-5 36.078125-6.679687 26.570313-8.949219 49.59375-25.988282 66.585937-49.277344 14.464844-19.824219 23.425782-43.292969 25.230469-66.074219 2.066407-26.167969-4.886719-50.152344-20.109375-69.359375zm-415.835937 98.875c-15.78125-21.632812-18.8125-47.367188-7.042969-59.859375 9.125-9.6875 22.5-9.980469 39.796875-.894531-8.179687 24.449218-14.359375 52.578125-12.984375 79.652344-7.554688-5.011719-14.351562-11.472657-19.769531-18.898438zm243.542969 243.75c3.484374 3.355469 2.273437 7.296875 1.816406 8.425781-.449219 1.113281-2.285156 4.753907-7.058594 4.753907h-116.003906c-4.773438 0-6.609375-3.640626-7.058594-4.753907-.453125-1.128906-1.667969-5.070312 1.820312-8.425781 24.324219-23.394531 29.546876-54.15625 29.789063-75.203125 10.257813 3.121094 21.421875 4.710937 33.453125 4.710937 12.027344 0 23.191406-1.589843 33.449219-4.710937.246093 21.039063 5.460937 51.804687 29.792969 75.203125zm-11.492188-133.90625c-4.078125.710938-6.808594 4.597656-6.097656 8.679688.636718 3.640624 4.128906 6.871093 8.679687 6.09375 6.347657-1.085938 12.398438-2.441407 18.1875-3.988282-12.4375 19.558594-34.277343 37.628906-72.519531 37.628906-38.292969 0-60.125-18.121093-72.546875-37.664062 20.667969 5.511719 53.300781 10.699219 91.59375 7.835938 4.128906-.3125 7.320313-3.730469 7.113281-7.867188-.207031-4.136719-3.734375-7.117188-7.863281-7.117188-86.605469 0-129.511719-16.132812-150.195313-48.816406-13.269531-20.96875-17.023437-48.828125-11.15625-82.816406 4.589844-26.570312 14.273438-52.019531 22.5625-70.40625 3 .714844 237.976563.714844 240.980469 0 7.851563 17.425781 17.152344 41.621094 21.964844 67.097656 6.097656 32.292969 3.695313 59.269532-7.140625 80.171875-13.824219 26.671875-41.941406 43.886719-83.5625 51.167969zm95.78125-170.589844c17.304688-9.09375 30.683594-8.804687 39.8125.886719 11.765625 12.492187 8.738281 38.226563-7.042969 59.859375-5.425781 7.433594-12.234375 13.898438-19.796875 18.914062 1.367188-27.140624-4.84375-55.324218-12.972656-79.660156zm93.15625 30.042969c-1.589844 20.054687-9.757812 40.648437-22.394531 58.421875-27.378907 38.492188-67.398438 46.488281-75.738281 47.964844 2.222656-3.226563 12.816406-18.722656 15.730468-38.285156 13.371094-6.398438 25.113282-16.203126 34.128906-28.558594 20.296876-27.816406 22.753907-61.03125 5.847657-78.984375-9.808594-10.414063-27.257813-19.089844-55.839844-4.824219-2.730469-7.121094-5.539063-13.757812-8.246094-19.761719 6.179688-4.308593 11.105469-10.292969 14.105469-17.296875 9.144531-2.769531 17.972656-4.019531 26.296875-3.691406 19.210937.746094 36.226563 9.792969 49.199219 26.164062 12.828125 16.179688 18.675781 36.53125 16.910156 58.851563zm0 0"/></svg>