<svg height="512pt" viewBox="0 -80 512.00007 512" width="512pt" xmlns="http://www.w3.org/2000/svg"><path d="m446.515625 116.984375-25.660156-75.84375c-6.804688-20.109375-25.671875-33.640625-46.902344-33.640625h-191.8125v170.109375h220.886719c31.425781 0 53.5625-30.859375 43.488281-60.625zm0 0" fill="#acabb1"/><path d="m446.515625 116.984375-25.660156-75.84375c-6.804688-20.109375-25.671875-33.640625-46.902344-33.640625h-76.597656c21.226562 0 40.09375 13.53125 46.898437 33.640625l21.507813 80.003906c10.070312 29.761719-5.367188 56.464844-36.789063 56.464844h74.058594c31.421875 0 53.558594-30.859375 43.484375-60.625zm0 0" fill="#97979e"/><path d="m213.554688 7.5h-88.792969c-17.46875 0-32.996094 13.53125-38.59375 33.640625l-21.117188 75.84375c-8.289062 29.765625 9.925781 60.625 35.785157 60.625h136.644531c25.855469 0 44.070312-30.859375 35.785156-60.625l-21.117187-75.84375c-5.601563-20.109375-21.125-33.640625-38.59375-33.640625zm0 0" fill="#c6c5ca"/><path d="m502.019531 283.265625-25.664062-75.84375c-6.804688-20.109375-25.671875-33.640625-46.898438-33.640625h-329.5625v170.109375h358.636719c31.425781 0 53.558594-30.859375 43.488281-60.625zm0 0" fill="#d8d7da"/><path d="m502.019531 283.265625-25.664062-75.84375c-6.804688-20.109375-25.671875-33.640625-46.898438-33.640625h-76.597656c21.226563 0 40.09375 13.53125 46.898437 33.640625l25.664063 75.84375c10.070313 29.765625-12.066406 60.625-43.488281 60.625h76.601562c31.421875 0 53.554688-30.859375 43.484375-60.625zm0 0" fill="#c6c5ca"/><path d="m190.453125 173.78125h-107.90625c-21.230469 0-40.097656 13.53125-46.902344 33.640625l-25.664062 75.84375c-10.0703128 29.765625 12.066406 60.625 43.488281 60.625h166.058594c31.421875 0 53.558594-30.859375 43.488281-60.625l-25.664063-75.84375c-6.804687-20.109375-25.667968-33.640625-46.898437-33.640625zm0 0" fill="#eaeaea"/><path d="m482.6875 226.128906-47.398438-6.1875c-9.078124-1.183594-18.140624 2.289063-24.097656 9.242188l-11.878906 13.859375c-4.277344 4.988281-10.386719 8.039062-16.941406 8.460937l-25.539063 1.648438c-7.878906.507812-14.96875 4.960937-18.847656 11.835937l-14.636719 25.9375c-2.761718 4.902344 1.933594 10.644531 7.285156 8.902344l34.199219-11.128906c3.886719-1.265625 8.03125-1.53125 12.046875-.769531l34.425782 6.511718c10.976562 2.078125 22.316406-.609375 31.195312-7.390625l17.582031-13.421875c7.300781-5.578125 16.554688-7.949218 25.640625-6.578125l11.394532 1.722657zm0 0" fill="#c6c5ca"/><path d="m482.6875 226.128906-47.398438-6.1875c-9.078124-1.183594-18.140624 2.289063-24.097656 9.242188l-2.917968 3.40625 17.144531 50.675781c1.21875 3.605469 1.96875 7.21875 2.285156 10.800781 5.316406-1.261718 10.359375-3.625 14.796875-7.015625l17.578125-13.421875c7.304687-5.578125 16.558594-7.949218 25.640625-6.578125l11.394531 1.722657zm0 0" fill="#acabb1"/><path d="m67.203125 109.25 59.460937-9.777344c8.929688-1.433594 18.0625-.941406 26.792969 1.4375l9.535157 2.597656c8.011718 2.179688 13.941406-7.40625 8.414062-13.597656l-21.257812-23.808594c-6.199219-6.941406-15.480469-10.28125-24.679688-8.886718l-45.75 7.09375zm0 0" fill="#acabb1"/><path d="m396.980469 101.546875 45.558593 3.6875-15.15625-44.789063-34.984374 17.585938c-11.238282 5.648438-7.953126 22.5 4.582031 23.515625zm0 0" fill="#898890"/><path d="m509.121094 280.859375-25.660156-75.839844c-6.421876-18.96875-22.128907-32.835937-41.035157-37.246093 3.726563-4.082032 6.84375-8.757813 9.199219-13.894532 5.675781-12.371094 6.382812-26.328125 1.996094-39.296875l-25.664063-75.84375c-7.839843-23.171875-29.542969-38.738281-54.003906-38.738281h-249.191406c-20.890625 0-39.304688 15.726562-45.820313 39.128906l-21.117187 75.84375c-5.289063 18.996094-1.113281 39.320313 9.925781 53.261719-18.085938 4.855469-33 18.429687-39.207031 36.785156l-25.664063 75.84375c-5.585937 16.503907-2.9648435 34.089844 7.191406 48.246094 10.15625 14.160156 25.972657 22.277344 43.398438 22.277344h405.0625c17.421875 0 33.242188-8.117188 43.398438-22.277344 10.15625-14.15625 12.777343-31.742187 7.191406-48.25zm-77.339844-184.019531-34.195312-2.769532c-3.367188-.273437-4.234376-2.875-4.449219-3.980468-.214844-1.105469-.390625-3.839844 2.628906-5.359375l27.28125-13.710938zm-307.019531-81.839844h88.792969c14.074218 0 26.679687 11.3125 31.367187 28.152344l4.070313 14.625c1.113281 3.988281 5.246093 6.320312 9.238281 5.214844 3.988281-1.113282 6.324219-5.246094 5.210937-9.238282l-4.070312-14.621094c-2.640625-9.484374-7.234375-17.707031-13.15625-24.132812h127.738281c18.027344 0 34.019531 11.472656 39.796875 28.546875l4.441406 13.125-29.160156 14.660156c-8.078125 4.058594-12.347656 12.753907-10.617188 21.628907 1.730469 8.875 8.949219 15.328124 17.960938 16.0625l40.644531 3.289062s17.113281 34.992188-17.199219 53.96875h-147.753906c9.886719-13.773438 13.507813-33.042969 8.425782-51.308594l-8.875-31.863281c-1.109376-3.988281-5.246094-6.316406-9.234376-5.214844-3.992187 1.113281-6.324218 5.246094-5.214843 9.238281l8.871093 31.863282c5.140626 18.453125-1.597656 38.792968-15.375 47.285156h-163.070312c-29.382812-24.03125-14.449219-50.410156-14.449219-50.410156l54.703125-8.996094c7.933594-1.269531 15.886719-.84375 23.636719 1.269531l9.539063 2.597657c6.828124 1.859374 13.910156-.933594 17.628906-6.949219 3.722656-6.015625 3.058594-13.601563-1.652344-18.878907l-21.257812-23.808593c-7.914063-8.863281-19.648438-13.085938-31.421876-11.300781l-34.257812 5.3125 3.328125-11.964844c4.691406-16.839844 17.296875-28.152344 31.371094-28.152344zm-39.117188 55.976562 40.949219-6.34375c6.722656-1.023437 13.433594 1.394532 17.960938 6.464844 0 0 21.671874 24.273438 21.34375 24.804688-.328126.535156-10.472657-2.226563-10.472657-2.226563-9.820312-2.679687-19.898437-3.21875-29.980469-1.601562l-47.867187 7.871093zm-32.175781 265.414063c-12.53125 0-23.90625-5.839844-31.210938-16.023437-7.304687-10.179688-9.1875-22.828126-5.171874-34.699219l25.664062-75.839844c5.773438-17.074219 21.769531-28.550781 39.796875-28.550781h107.90625c18.023437 0 34.019531 11.476562 39.796875 28.550781l25.660156 75.84375c4.019532 11.867187 2.132813 24.515625-5.171875 34.695313-7.304687 10.183593-18.679687 16.023437-31.210937 16.023437zm436.273438-16.023437c-7.304688 10.183593-18.679688 16.023437-31.210938 16.023437h-201.855469c2.261719-2.207031 22.847657-22.675781 13.445313-55.53125l-25.664063-75.839844c-3.152343-9.316406-8.550781-17.402343-15.464843-23.742187h200.460937c18.027344 0 34.019531 11.472656 39.796875 28.550781l16.824219 49.710937c-10.796875-1.417968-21.882813 1.515626-30.546875 8.128907l-17.578125 13.421875c-7.175781 5.480468-16.378907 7.664062-25.253907 5.984375l-34.425781-6.515625c-5.238281-.992188-10.6875-.644532-15.761719 1.007812l-30.953124 10.074219 12.957031-22.964844c2.644531-4.6875 7.429687-7.691406 12.800781-8.039062l25.539062-1.648438c8.519532-.550781 16.59375-4.582031 22.152344-11.066406l11.878906-13.859375c4.328126-5.046875 10.84375-7.535156 17.433594-6.683594l16.429688 2.144532c4.105468.53125 7.871094-2.355469 8.40625-6.464844.539062-4.105469-2.359375-7.871094-6.464844-8.40625l-16.429688-2.144532c-11.628906-1.519531-23.128906 2.890626-30.761718 11.796876l-11.882813 13.855468c-2.941406 3.433594-7.21875 5.570313-11.730469 5.859375l-25.535156 1.648438c-10.449218.675781-19.753906 6.519531-24.898437 15.636719l-14.632813 25.933593c-2.792968 4.949219-2.273437 10.984375 1.324219 15.378907 2.65625 3.246093 8.179687 6.027343 14.8125 4.339843l34.195313-11.128906c2.679687-.871094 5.558593-1.054687 8.332031-.53125l34.425781 6.515625c13.050781 2.46875 26.585938-.738281 37.140625-8.800781l17.582031-13.425781c13.859375-10.695313 26.84375-4.078126 26.84375-4.078126l3.4375 10.160157c4.023438 11.871093 2.136719 24.519531-5.167968 34.699219zm0 0"/></svg>