<svg height="512pt" viewBox="-22 0 511 512" width="512pt" xmlns="http://www.w3.org/2000/svg"><path d="m398.953125 102.410156c-14.453125 0-26.171875-11.71875-26.171875-26.171875 0-14.457031 11.71875-26.175781 26.171875-26.175781l15.457031-19.683594h-378.574218v93.3125h378.574218zm0 0" fill="#fce6d4"/><path d="m119.863281 30.378906h-84.027343v93.3125h85.523437c-11.808594-12.347656-19.082031-29.0625-19.082031-47.453125 0-17.609375 6.660156-33.683593 17.585937-45.859375zm0 0" fill="#efd4bf"/><path d="m8 76.238281v359.523438c0 37.902343 30.835938 68.738281 68.734375 68.738281h87.644531v-337.753906zm0 0" fill="#4d6299"/><path d="m76.738281 123.691406v380.808594h303.175781c27.699219 0 50.15625-22.457031 50.15625-50.15625v-330.652344zm0 0" fill="#7e8cc1"/><path d="m76.738281 123.691406v380.808594h141.480469c-38.75-49.96875-53.066406-113.601562-57.949219-163.96875-4.304687-44.449219 14.582031-88.175781 50.335938-114.933594 49.203125-36.824218 75.386719-80.625 75.386719-80.625v-21.28125zm0 0" fill="#6678b2"/><path d="m98.074219 409.035156c-7.425781 0-14.589844 1.125-21.335938 3.199219v92.265625h90.011719c2.425781-7.238281 3.761719-14.972656 3.761719-23.027344 0-40.003906-32.429688-72.4375-72.4375-72.4375zm0 0" fill="#ffde55"/><path d="m430.070312 454.34375v-42.105469c-6.746093-2.078125-13.910156-3.199219-21.339843-3.199219-40.003907 0-72.433594 32.429688-72.433594 72.433594 0 8.054688 1.332031 15.792969 3.757813 23.027344h39.859374c27.699219 0 50.15625-22.457031 50.15625-50.15625zm0 0" fill="#ffeb99"/><path d="m170.511719 168.003906c0-16.695312-5.664063-32.0625-15.152344-44.3125h-78.625v113.546875c6.746094 2.078125 13.914063 3.199219 21.339844 3.199219 40.007812 0 72.4375-32.429688 72.4375-72.433594zm0 0" fill="#ffde55"/><path d="m408.730469 240.4375c7.429687 0 14.59375-1.121094 21.339843-3.199219v-113.546875h-78.621093c-9.492188 12.25-15.152344 27.617188-15.152344 44.3125 0 40.003906 32.429687 72.433594 72.433594 72.433594zm0 0" fill="#ffeb99"/><path d="m408.789062 144.972656h-332.054687c-37.898437 0-68.734375-30.835937-68.734375-68.738281 0-37.898437 30.835938-68.734375 68.734375-68.734375h332.054687c11.75 0 21.28125 9.527344 21.28125 21.28125s-9.53125 21.28125-21.28125 21.28125h-332.054687c-14.429687 0-26.171875 11.742188-26.171875 26.171875 0 14.433594 11.742188 26.175781 26.171875 26.175781h332.054687c11.75 0 21.28125 9.527344 21.28125 21.28125s-9.527343 21.28125-21.28125 21.28125zm0 0" fill="#909bd1"/><path d="m107.46875 102.410156h-30.734375c-14.429687 0-26.171875-11.738281-26.171875-26.171875 0-14.433593 11.742188-26.175781 26.171875-26.175781h30.734375c10.316406-24.953125 34.90625-42.5625 63.542969-42.5625h-94.277344c-37.898437 0-68.734375 30.835938-68.734375 68.734375 0 37.902344 30.835938 68.738281 68.734375 68.738281h94.277344c-28.636719 0-53.226563-17.605468-63.542969-42.5625zm0 0" fill="#7e8cc1"/><path d="m430.070312 366.265625h-49.546874c-22.933594 0-41.527344-18.59375-41.527344-41.527344 0-22.9375 18.59375-41.527343 41.527344-41.527343h49.546874c17.058594 0 30.886719 13.828124 30.886719 30.886718v21.277344c0 17.058594-13.828125 30.890625-30.886719 30.890625zm0 0" fill="#dd9f80"/><path d="m403.597656 324.738281c0 9.546875-7.738281 17.285157-17.285156 17.285157s-17.285156-7.738282-17.285156-17.285157 7.738281-17.289062 17.285156-17.289062 17.285156 7.742187 17.285156 17.289062zm0 0" fill="#ffeb99"/><path d="m313.3125 324.738281c0-52.132812-26.824219-94.390625-59.910156-94.390625-33.085938 0-59.90625 42.257813-59.90625 94.390625 0 52.128907 26.820312 94.390625 59.90625 94.390625 33.085937 0 59.910156-42.261718 59.910156-94.390625zm0 0" fill="#fff"/><path d="m300.566406 68.734375h-25.472656c-4.144531 0-7.5 3.359375-7.5 7.5 0 4.144531 3.355469 7.5 7.5 7.5h25.472656c4.140625 0 7.5-3.355469 7.5-7.5 0-4.140625-3.359375-7.5-7.5-7.5zm0 0"/><path d="m437.570312 276.453125v-152.761719c0-15.867187-12.910156-28.78125-28.78125-28.78125h-9.832031c-10.296875 0-18.675781-8.375-18.675781-18.671875s8.378906-18.675781 18.675781-18.675781h9.832031c15.871094 0 28.78125-12.910156 28.78125-28.78125s-12.914062-28.78125-28.78125-28.78125h-332.050781c-12.011719 0-23.988281 2.878906-34.632812 8.328125-3.6875 1.886719-5.144531 6.40625-3.257813 10.09375 1.886719 3.6875 6.402344 5.148437 10.089844 3.261719 8.664062-4.4375 18.015625-6.683594 27.800781-6.683594h332.050781c7.597657 0 13.78125 6.183594 13.78125 13.78125 0 7.601562-6.183593 13.78125-13.78125 13.78125h-332.050781c-18.570312 0-33.675781 15.105469-33.675781 33.671875 0 18.570313 15.105469 33.675781 33.675781 33.675781h332.050781c7.597657 0 13.78125 6.183594 13.78125 13.78125 0 7.601563-6.183593 13.78125-13.78125 13.78125h-332.050781c-33.765625 0-61.238281-27.46875-61.238281-61.238281 0-13.367187 4.25-26.078125 12.289062-36.753906 2.492188-3.308594 1.832032-8.011719-1.476562-10.503907-3.308594-2.488281-8.011719-1.828124-10.503906 1.480469-10.015625 13.300781-15.308594 29.128907-15.308594 45.777344v359.527344c0 42.039062 34.199219 76.238281 76.238281 76.238281h303.171875c31.792969 0 57.660156-25.863281 57.660156-57.65625v-81.320312c17.585938-3.5 30.886719-19.046876 30.886719-37.648438v-21.277344c0-18.601562-13.300781-34.148437-30.886719-37.644531zm-377.921874-192.71875h179.90625c4.140624 0 7.5-3.355469 7.5-7.5 0-4.140625-3.359376-7.5-7.5-7.5h-179.90625c2.894531-6.570313 9.460937-11.171875 17.089843-11.171875h294.210938c-3.578125 5.347656-5.667969 11.773438-5.667969 18.675781 0 6.902344 2.089844 13.324219 5.667969 18.671875h-294.210938c-7.628906 0-14.195312-4.601562-17.089843-11.175781zm320.875 290.03125h42.046874v28.980469c-4.554687-.796875-9.179687-1.210938-13.839843-1.210938-44.078125 0-79.933594 35.859375-79.933594 79.9375 0 5.230469.515625 10.421875 1.527344 15.527344h-153.84375c1.011719-5.105469 1.53125-10.296875 1.53125-15.527344 0-44.074218-35.859375-79.9375-79.9375-79.9375-4.65625 0-9.28125.414063-13.835938 1.210938v-156.019532c4.554688.796876 9.179688 1.210938 13.835938 1.210938 44.078125 0 79.9375-35.859375 79.9375-79.9375 0-5.246094-.523438-10.4375-1.527344-15.527344h153.839844c-1.007813 5.089844-1.527344 10.28125-1.527344 15.527344 0 44.078125 35.859375 79.9375 79.933594 79.9375 4.660156 0 9.285156-.414062 13.839843-1.210938v28.984376h-42.046874c-27.03125 0-49.023438 21.992187-49.023438 49.023437 0 27.035156 21.992188 49.03125 49.023438 49.03125zm-217.511719-205.761719c0 35.804688-29.128907 64.933594-64.9375 64.933594-4.671875 0-9.308594-.503906-13.835938-1.488281v-78.972657h76.890625c1.242188 5.054688 1.882813 10.253907 1.882813 15.527344zm259.558593-19.050781v82.496094c-4.53125.984375-9.164062 1.488281-13.839843 1.488281-35.804688 0-64.933594-29.128906-64.933594-64.933594 0-5.273437.636719-10.472656 1.878906-15.527344h63.113281c4.988282 0 9.683594-1.28125 13.78125-3.523437zm-407.070312 286.808594v-314.171875c12.5 16.835937 31.761719 28.355468 53.738281 30.511718v344.421876c-30.238281-3.710938-53.738281-29.535157-53.738281-60.761719zm68.738281-17.734375c4.527344-.984375 9.164063-1.492188 13.835938-1.492188 35.808593 0 64.9375 29.132813 64.9375 64.9375 0 5.246094-.632813 10.449219-1.886719 15.527344h-76.886719zm295.671875 78.972656h-34.230468c-1.25-5.078125-1.882813-10.28125-1.882813-15.527344 0-35.804687 29.128906-64.9375 64.933594-64.9375 4.675781 0 9.308593.507813 13.839843 1.492188v36.316406c0 23.519531-19.136718 42.65625-42.660156 42.65625zm73.546875-161.625c0 12.898438-10.492187 23.390625-23.386719 23.390625h-49.546874c-18.761719 0-34.027344-15.265625-34.027344-34.027344s15.265625-34.027343 34.027344-34.027343h49.546874c12.894532 0 23.386719 10.492187 23.386719 23.390624zm0 0"/><path d="m386.3125 299.953125c-13.667969 0-24.785156 11.117187-24.785156 24.785156 0 13.664063 11.117187 24.785157 24.785156 24.785157s24.785156-11.121094 24.785156-24.785157c0-13.667969-11.117187-24.785156-24.785156-24.785156zm0 34.570313c-5.394531 0-9.785156-4.390626-9.785156-9.785157 0-5.398437 4.390625-9.785156 9.785156-9.785156 5.398438 0 9.785156 4.390625 9.785156 9.785156s-4.386718 9.785157-9.785156 9.785157zm0 0"/><path d="m253.402344 222.847656c-18.660156 0-35.953125 11.054688-48.691406 31.128906-12.070313 19.011719-18.714844 44.144532-18.714844 70.761719 0 8.089844.621094 16.144531 1.84375 23.9375.644531 4.089844 4.488281 6.882813 8.574218 6.242188 4.09375-.644531 6.890626-4.484375 6.246094-8.574219-1.105468-7.023438-1.664062-14.292969-1.664062-21.605469 0-23.808593 5.816406-46.082031 16.378906-62.726562 9.890625-15.582031 22.6875-24.164063 36.027344-24.164063 13.34375 0 26.140625 8.582032 36.03125 24.164063 10.5625 16.644531 16.378906 38.917969 16.378906 62.726562 0 23.808594-5.816406 46.082031-16.378906 62.726563-9.890625 15.582031-22.6875 24.164062-36.03125 24.164062-16.917969 0-32.953125-13.960937-42.898438-37.347656-1.621094-3.8125-6.023437-5.585938-9.839844-3.964844-3.808593 1.621094-5.585937 6.023438-3.964843 9.835938 12.378906 29.101562 33.578125 46.476562 56.707031 46.476562 18.660156 0 35.953125-11.054687 48.691406-31.125 12.070313-19.015625 18.714844-44.148437 18.714844-70.765625 0-26.617187-6.644531-51.75-18.714844-70.761719-12.742187-20.074218-30.035156-31.128906-48.695312-31.128906zm0 0"/></svg>