<svg height="512pt" viewBox="0 0 512.0011 512" width="512pt" xmlns="http://www.w3.org/2000/svg"><path d="m113.855469 113.855469c-100.050781 100.050781-112.53125 249.785156-27.871094 334.445312 84.65625 84.65625 234.394531 72.179688 334.445313-27.871093 100.050781-100.050782 112.527343-249.789063 27.867187-334.445313-84.65625-84.660156-234.390625-72.179687-334.441406 27.871094zm256.492187 256.492187c-64.859375 64.863282-150.53125 84.351563-191.347656 43.53125-40.820312-40.820312-21.332031-126.488281 43.527344-191.351562 64.859375-64.859375 150.53125-84.347656 191.351562-43.527344 40.820313 40.820312 21.328125 126.488281-43.53125 191.347656zm0 0" fill="#ffcd00"/><path d="m353.0625 471.144531c-32.734375-7.316406-58.609375-23.359375-78.601562-41.667969-38.023438 10.933594-73.335938 6.527344-95.464844-15.597656-40.816406-40.820312-21.328125-126.488281 43.53125-191.351562 64.859375-64.859375 150.53125-84.347656 191.347656-43.527344 22.128906 22.125 26.53125 57.4375 15.597656 95.460938 18.3125 19.996093 34.355469 45.867187 41.671875 78.601562 50.335938-91.78125 44.316407-199.914062-22.847656-267.078125-84.65625-84.660156-234.390625-72.179687-334.441406 27.871094s-112.53125 249.785156-27.871094 334.445312c67.160156 67.160157 175.300781 73.179688 267.078125 22.84375zm0 0" fill="#ffb600"/><path d="m113.855469 113.855469c-100.050781 100.050781-112.53125 249.785156-27.871094 334.445312 35.589844 35.585938 82.6875 54.011719 132.753906 55.976563-79.367187-79.363282-59.273437-168.617188-59.273437-168.617188 6.171875-36.867187 27.980468-78.046875 63.0625-113.132812 35.085937-35.082032 76.265625-56.894532 113.136718-63.0625 0 0 89.25-20.097656 168.617188 59.269531-1.96875-50.0625-20.390625-97.164063-55.980469-132.75-84.660156-84.660156-234.394531-72.179687-334.445312 27.871094zm0 0" fill="#ffeb99"/><path d="m281.386719 47.082031c-39.648438-39.648437-124.242188-19.339843-188.945313 45.363281-64.699218 64.703126-85.011718 149.292969-45.363281 188.941407 39.648437 39.648437 124.242187 19.339843 188.945313-45.363281 64.699218-64.703126 85.011718-149.292969 45.363281-188.941407zm0 0" fill="#ffde55"/><path d="m98.207031 214.648438c-33.21875-4.203126-50.785156-22.183594-59.914062-42.207032-17.300781 43.257813-15.582031 84.585938 8.78125 108.949219 36.425781 36.425781 110.796875 22.242187 172.816406-30.480469-22.429687-13.222656-60.269531-28.488281-121.683594-36.261718zm0 0" fill="#ffcd00"/><path d="m230.90625 31.542969c-33.734375-33.738281-105.714844-16.457031-160.765625 38.597656-55.054687 55.054687-72.335937 127.035156-38.601563 160.769531 33.734376 33.734375 105.714844 16.453125 160.769532-38.601562 55.054687-55.050782 72.335937-127.03125 38.597656-160.765625zm0 0" fill="#abebf4"/><path d="m98.210938 214.648438c-59.261719-7.496094-68.714844-58.847657-69.304688-87.398438-19.660156 40.667969-20.144531 80.882812 2.632812 103.664062 25.871094 25.871094 74.238282 21.734376 120.210938-6.425781-15.464844-3.871093-33.207031-7.265625-53.539062-9.839843zm0 0" fill="#8ed7e8"/><path d="m69.515625 340.8125c21.363281 0 38.683594 17.320312 38.683594 38.683594 0 21.367187-17.320313 38.6875-38.683594 38.6875-21.367187 0-62.015625-17.320313-62.015625-38.6875 0-21.363282 40.648438-38.683594 62.015625-38.683594zm0 0" fill="#ff737d"/><path d="m340.8125 69.515625c0 21.363281 17.320312 38.683594 38.683594 38.683594 21.367187 0 38.6875-17.320313 38.6875-38.683594 0-21.367187-17.320313-62.015625-38.6875-62.015625-21.363282 0-38.683594 40.648438-38.683594 62.015625zm0 0" fill="#ff737d"/><path d="m179.382812 91.984375c2.929688-2.929687 2.929688-7.679687 0-10.605469l-8.804687-8.804687c-2.929687-2.929688-7.675781-2.929688-10.605469 0-2.929687 2.929687-2.929687 7.675781 0 10.605469l8.804688 8.804687c2.929687 2.925781 7.675781 2.925781 10.605468 0zm0 0"/><path d="m91.984375 179.382812c2.925781-2.929687 2.925781-7.675781 0-10.605468l-8.804687-8.804688c-2.929688-2.929687-7.675782-2.929687-10.605469 0-2.929688 2.929688-2.929688 7.679688 0 10.605469l8.800781 8.804687c2.929688 2.929688 7.679688 2.929688 10.609375 0zm0 0"/><path d="m137.640625 137.640625c5.046875-5.046875 7.199219-12.230469 5.75-19.222656-.839844-4.054688-4.808594-6.660157-8.863281-5.820313-1.488282.308594-6.984375 2.75-5.824219 8.863282.554687 2.933593-.964844 4.875-1.667969 5.578124-.703125.699219-2.652344 2.269532-5.574218 1.664063-4.058594-.835937-8.027344 1.769531-8.867188 5.824219-.839844 4.054687 1.769531 8.023437 5.824219 8.863281 6.992187 1.449219 14.175781-.699219 19.222656-5.75zm0 0"/><path d="m379.496094 0c-12.136719 0-23.917969 9.144531-33.28125 25.753906-25.867188-4.410156-55.878906-3.914062-82.980469.410156-10.441406-4.375-22.300781-6.675781-35.238281-6.820312-17.996094-12.648438-42.835938-15.90625-71.226563-9.089844-31.691406 7.609375-64.339843 26.992188-91.933593 54.585938-27.589844 27.589844-46.976563 60.238281-54.585938 91.929687-6.8125 28.378907-3.558594 53.207031 9.078125 71.203125.136719 12.972656 2.449219 24.847656 6.839844 35.308594-4.984375 28.332031-5.132813 56.191406-.425781 82.941406-16.601563 9.359375-25.742188 21.136719-25.742188 33.273438 0 22.84375 31.949219 39.953125 56.625 44.796875 7.011719 10.496093 15.105469 20.355469 24.054688 29.308593 42.53125 42.53125 101.972656 62.953126 167.378906 57.503907 64.933594-5.414063 128.03125-35.730469 177.671875-85.371094 33.707031-33.707031 59.007812-74.460937 73.167969-117.855469 1.285156-3.9375-.863282-8.171875-4.804688-9.457031-3.9375-1.285156-8.167969.867187-9.453125 4.804687-13.429687 41.160157-37.46875 79.855469-69.515625 111.902344-55.570312 55.570313-127.007812 83.386719-193.234375 81.660156-22.59375-23.179687-38.632813-49.085937-47.910156-77.332031 21.636719 21.410157 54.765625 28.375 93.34375 19.601563 37.5-8.53125 75.972656-31.050782 108.328125-63.40625 32.355468-32.355469 54.875-70.828125 63.402344-108.328125 8.777343-38.578125 1.8125-71.707031-19.597657-93.34375 28.296875 9.292969 54.246094 25.375 77.453125 48.03125.40625 16.285156-.96875 33.046875-4.222656 50.050781-.777344 4.070312 1.851562 8.257812 5.957031 8.777344 7.054688.886718 8.484375-4.425782 8.777344-5.960938 14.320313-74.890625-5.296875-145.675781-53.820313-194.199218-8.949218-8.949219-18.804687-17.015626-29.304687-24.03125-4.839844-24.679688-21.949219-56.648438-44.800781-56.648438zm0 15c14.695312 0 31.1875 35.449219 31.1875 54.515625 0 8.328125-5.339844 31.183594-31.183594 31.183594-25.847656 0-31.1875-22.855469-31.1875-31.183594 0-.003906 0-.003906 0-.003906 0-21.8125 16.488281-54.511719 31.183594-54.511719zm-354.660156 145.269531c6.972656-29.039062 24.945312-59.164062 50.605468-84.824219 25.664063-25.664062 55.789063-43.636718 84.828125-50.609374 27.734375-6.65625 50.9375-2.394532 65.339844 12.007812 17.964844 17.96875 19.96875 50.023438 5.355469 85.75-1.570313 3.832031.265625 8.210938 4.101562 9.777344 3.832032 1.570312 8.210938-.265625 9.78125-4.101563 14.722656-35.996093 14.238282-69.457031-.746094-92.304687 12.816407 2.570312 23.683594 8.117187 31.984376 16.414062 17.261718 17.261719 22.394531 44.972656 14.460937 78.027344-8.25 34.359375-29.496094 69.984375-59.824219 100.316406-30.332031 30.328125-65.957031 51.574219-100.316406 59.824219-33.054688 7.933594-60.761719 2.800781-78.023438-14.460937-8.296874-8.296876-13.828124-19.144532-16.398437-31.933594 17.863281 11.78125 42.105469 14.671875 69.695313 8.046875 31.695312-7.609375 64.34375-26.992188 91.933593-54.585938 12.488281-12.488281 23.347657-26.058593 32.273438-40.335937 2.195312-3.511719 1.128906-8.140625-2.386719-10.335938-3.511719-2.195312-8.136719-1.128906-10.332031 2.382813-8.324219 13.316406-18.472657 25.996093-30.160157 37.683593-25.664062 25.664063-55.789062 43.636719-84.828124 50.605469-27.730469 6.660157-50.933594 2.398438-65.335938-12.003906s-18.667969-37.605469-12.007812-65.339844zm66.449218 282.726563c-5.558594-5.558594-10.746094-11.503906-15.523437-17.742188 8.488281-1.164062 16.925781-4.261718 23.203125-10.175781 3.953125-3.730469 3.476562-7.554687.988281-10.558594-2.640625-3.191406-7.371094-3.632812-10.558594-.992187-5.570312 4.617187-12.632812 7.15625-19.878906 7.15625-19.066406 0-54.519531-16.03125-54.515625-31.1875-.003906-6.484375 7.132812-14.25 19.085938-20.769532 11.417968-6.230468 25.65625-10.414062 35.429687-10.414062 16.347656 0 31.183594 10.707031 31.183594 31.1875 0 4.140625 3.359375 7.496094 7.5 7.496094 4.144531 0 7.5-3.355469 7.5-7.5 0-12.335938-4.804688-23.933594-13.527344-32.65625s-20.320313-13.527344-32.65625-13.527344c-8.5625 0-19.3125 2.355469-29.664063 6.308594-2.855468-18.324219-3.304687-37.210938-1.335937-56.425782 1.046875 1.199219 38.625 50.738282 125.214844 11.910157-37.976563 91.082031 4.132812 162 36.375 200.019531-41.097657-5.261719-79.164063-22.472656-108.820313-52.128906zm333.144532-179c-7.910157 34.78125-29 70.667968-59.382813 101.050781s-66.269531 51.472656-101.050781 59.382813c-33.539063 7.632812-61.839844 2-79.695313-15.855469-25.921875-25.921875-25.367187-74.582031 1.253907-124.351563 19.558593-11.125 38.511718-25.632812 55.773437-42.894531 17.261719-17.265625 31.769531-36.214844 42.894531-55.773437 49.816406-26.660157 98.351563-27.253907 124.351563-1.253907 17.855469 17.855469 23.484375 46.15625 15.855469 79.695313zm70.832031-63.753906c-38.0625-32.332032-106.386719-74.742188-200.15625-36.507813 40.972656-82.929687-10.722657-124.164063-11.921875-125.210937 19.238281-1.96875 38.136718-1.519532 56.4375 1.332031-3.957032 10.351562-6.308594 21.097656-6.308594 29.660156 0 12.335937 4.804688 23.933594 13.527344 32.65625s20.320312 13.527344 32.65625 13.527344c12.335937 0 23.9375-4.804688 32.660156-13.527344 7.230469-7.234375 11.761719-16.445313 13.097656-26.417969 6.246094 4.777344 12.183594 9.972656 17.742188 15.535156 29.078125 29.078126 46.90625 66.921876 52.265625 108.953126zm0 0"/></svg>