<svg height="512pt" viewBox="-121 0 512 512.00079" width="512pt" xmlns="http://www.w3.org/2000/svg"><path d="m136.394531 95.050781s-2.578125-28.363281-17.21875-50.660156c-8.441406-12.859375-26.417969-15.097656-37.871093-4.824219 0 0-16.703126 16.101563-1.085938 36.527344 11.847656 15.496094 29.152344 37.5625 31.011719 74.023438.679687-1.359376 25.164062-12.242188 25.164062-12.242188zm0 0" fill="#7fb762"/><path d="m136.394531 95.050781s-1.773437-19.414062-10.671875-38.746093c-4.273437 4.4375-13.207031 15.109374-17.136718 30.261718-1.984376 7.664063-6.140626 12.671875-10.539063 15.945313 6.699219 12.507812 12.183594 27.964843 13.183594 47.605469.679687-1.359376 25.164062-12.238282 25.164062-12.238282zm0 0" fill="#6c9e4f"/><path d="m136.457031 165.585938s-32.015625-89.140626 29.1875-148.988282c11.46875-11.21875 29.96875-12.34375 41.777344-1.480468 15.628906 14.378906 15.230469 34.746093 1.238281 47.207031-20.601562 18.351562-42.835937 50.804687-36.765625 103.265625 0-.773438-35.4375-.003906-35.4375-.003906zm0 0" fill="#8dc971"/><path d="m263.070312 250.308594c0 70.574218-57.210937 254.191406-127.785156 254.191406-70.574218 0-127.785156-183.617188-127.785156-254.191406 0-70.574219 57.210938-127.785156 127.785156-127.785156 70.574219 0 127.785156 57.210937 127.785156 127.785156zm0 0" fill="#ffb864"/><path d="m128.085938 363.78125c-5.828126-7.289062-10.890626-14.859375-15.28125-22.582031-32.835938-57.769531-12.984376-130.621094 43.222656-166.0625 18.65625-11.765625 29.734375-27.421875 35.984375-39.363281-17.09375-8.480469-36.351563-13.25-56.726563-13.25-70.574218 0-127.785156 57.210937-127.785156 127.785156 0 70.574218 57.210938 254.191406 127.785156 254.191406 14.152344 0 27.765625-7.378906 40.488282-19.753906-3.578126-32.722656-14.789063-79.835938-47.6875-120.964844zm0 0" fill="#ffa84a"/><path d="m196.007812 350.996094h-38.261718c-10.351563 0-18.742188-8.390625-18.742188-18.742188 0-10.351562 8.390625-18.742187 18.742188-18.742187h38.261718c10.347657 0 18.742188 8.390625 18.742188 18.742187 0 10.351563-8.394531 18.742188-18.742188 18.742188zm0 0" fill="#ff9c31"/><path d="m70.460938 313.511719h-54.375c2.714843 12.070312 6.027343 24.707031 9.878906 37.484375h44.496094c10.351562 0 18.742187-8.390625 18.742187-18.742188 0-10.351562-8.390625-18.742187-18.742187-18.742187zm0 0" fill="#ff8308"/><path d="m130.3125 398.042969c-10.347656 0-18.742188 8.390625-18.742188 18.742187 0 10.351563 8.394532 18.742188 18.742188 18.742188h80.34375c6.257812-11.746094 12.082031-24.40625 17.402344-37.484375zm0 0" fill="#ff9c31"/><path d="m150.289062 398.042969h-19.976562c-10.347656 0-18.742188 8.390625-18.742188 18.742187 0 10.351563 8.394532 18.742188 18.742188 18.742188h35.292969c-3.792969-12.1875-8.777344-24.855469-15.316407-37.484375zm0 0" fill="#ff8308"/><path d="m227.148438 240.671875v-12.449219c0-4.140625-3.355469-7.5-7.5-7.5-4.140626 0-7.496094 3.359375-7.496094 7.5v12.449219c0 4.140625 3.355468 7.5 7.496094 7.5 4.144531 0 7.5-3.359375 7.5-7.5zm0 0"/><path d="m58.351562 248.171875c4.144532 0 7.5-3.359375 7.5-7.5v-12.449219c0-4.140625-3.355468-7.5-7.5-7.5-4.140624 0-7.5 3.359375-7.5 7.5v12.449219c0 4.140625 3.359376 7.5 7.5 7.5zm0 0"/><path d="m157.320312 234.75c-10.785156 8.367188-25.851562 8.367188-36.636718 0-3.273438-2.539062-7.984375-1.945312-10.523438 1.328125-2.539062 3.273437-1.941406 7.984375 1.328125 10.523437 8.101563 6.28125 17.808594 9.421876 27.511719 9.421876 9.707031 0 19.414062-3.140626 27.511719-9.421876 3.273437-2.539062 3.867187-7.25 1.328125-10.523437-2.535156-3.273437-7.25-3.867187-10.519532-1.328125zm0 0"/><path d="m135.632812 115.027344c-.578124-27.695313 5.6875-64.15625 35.253907-93.070313 8.792969-8.597656 22.90625-9.191406 31.457031-1.324219 6.058594 5.574219 9.363281 12.441407 9.308594 19.339844-.050782 6.265625-2.886719 12.214844-7.980469 16.75-12.707031 11.320313-22.601563 24.613282-29.40625 39.503906-1.71875 3.769532-.0625 8.21875 3.707031 9.9375 3.769532 1.722657 8.21875.0625 9.9375-3.703124 5.933594-12.988282 14.59375-24.609376 25.738282-34.535157 8.300781-7.394531 12.914062-17.277343 13-27.832031.089843-11.1875-4.933594-22.019531-14.148438-30.496094-14.566406-13.402344-37.453125-12.6875-52.101562 1.636719-13.109376 12.820313-22.140626 26.890625-28.257813 41.117187-2.03125-4.320312-4.257813-8.363281-6.695313-12.078124-5.203124-7.921876-22.847656-28.628907-49.347656-6.105469-7.875 6.691406-17.402344 26.121093-1.835937 46.480469 0 0 15.527343 15.675781 23.507812 39.621093-15.734375 4.523438-30.566406 11.917969-43.9375 22.015625-3.304687 2.496094-3.960937 7.199219-1.464843 10.503906 2.496093 3.304688 7.199218 3.960938 10.503906 1.464844 20.992187-15.851562 46.03125-24.230468 72.414062-24.230468 66.324219 0 120.285156 53.960937 120.285156 120.285156 0 31.539062-12.652343 93.414062-36.835937 150.644531-4.097656 9.695313-8.3125 18.730469-12.609375 27.078125h-75.8125c-6.199219 0-11.242188-5.046875-11.242188-11.246094 0-6.199218 5.042969-11.242187 11.242188-11.242187h63.011719c4.144531 0 7.5-3.355469 7.5-7.5 0-4.140625-3.355469-7.496094-7.5-7.496094h-63.011719c-14.46875 0-26.238281 11.769531-26.238281 26.238281 0 14.472656 11.769531 26.242188 26.238281 26.242188h67.550781c-20.492187 34.757812-42.40625 53.976562-62.578125 53.976562-27.242187 0-57.65625-35.011718-83.453125-96.050781-5.933593-14.046875-11.167969-28.371094-15.699219-42.457031h34.328126c14.46875 0 26.242187-11.769532 26.242187-26.242188 0-14.46875-11.773437-26.242187-26.242187-26.242187h-48.328126c-4.726562-22.402344-7.136718-41.941407-7.136718-55.703125 0-26.886719 8.671875-52.308594 25.078125-73.519532 2.535156-3.277343 1.933593-7.988281-1.34375-10.519531-3.273438-2.535156-7.984375-1.933593-10.519531 1.34375-18.457032 23.863281-28.210938 52.457031-28.210938 82.695313 0 38.539062 15.988281 104.347656 38.019531 156.480468 12.878907 30.480469 26.933594 54.949219 41.769531 72.726563 17.992188 21.554687 36.664063 32.484375 55.496094 32.484375 18.832032 0 37.503906-10.929688 55.496094-32.484375 14.835938-17.777344 28.890625-42.246094 41.769531-72.726563 22.027344-52.132812 38.019531-117.941406 38.019531-156.480468 0-74.480469-60.5-135.089844-134.9375-135.28125zm-48.878906-42.734375s-13.121094-15.988281-.296875-27.273438c3.847657-3.375 17.140625-8.917969 26.449219 3.484375 5.28125 7.039063 8.785156 16.300782 11.777344 26.574219-3.382813 14.421875-4.328125 28.390625-4.035156 40.746094-2.738282.292969-5.457032.65625-8.15625 1.109375-6.777344-19.824219-17.632813-34.042969-25.738282-44.640625zm-16.292968 248.71875c6.199218 0 11.242187 5.042969 11.242187 11.242187 0 6.199219-5.042969 11.242188-11.242187 11.242188h-38.910157c-2.21875-7.652344-4.226562-15.179688-6.007812-22.484375zm0 0"/><path d="m157.742188 306.011719c-14.46875 0-26.238282 11.773437-26.238282 26.242187s11.769532 26.242188 26.238282 26.242188h38.265624c14.46875 0 26.238282-11.773438 26.238282-26.242188s-11.769532-26.242187-26.238282-26.242187zm49.507812 26.242187c0 6.199219-5.042969 11.246094-11.242188 11.246094h-38.265624c-6.199219 0-11.242188-5.046875-11.242188-11.246094 0-6.199218 5.042969-11.242187 11.242188-11.242187h38.265624c6.199219 0 11.242188 5.042969 11.242188 11.242187zm0 0"/></svg>