<svg height="415pt" viewBox="0 -1 415.17752 415" width="415pt" xmlns="http://www.w3.org/2000/svg"><path d="m315.769531 256.089844c0 84.828125-68.769531 153.597656-153.601562 153.597656-84.828125 0-153.597657-68.769531-153.597657-153.597656 0-84.832032 68.769532-153.601563 153.597657-153.601563 84.832031 0 153.601562 68.769531 153.601562 153.601563zm0 0" fill="#c1dbdc"/><path d="m227.820312 111.953125c80.78125 0 146.269532 66.0625 146.269532 147.550781h-292.539063c0-81.488281 65.488281-147.550781 146.269531-147.550781zm0 0" fill="#6b4f5b"/><path d="m374.085938 266.328125h-292.535157c-3.769531 0-6.824219-3.054687-6.824219-6.824219 0-85.125 68.675782-154.375 153.089844-154.375 84.417969 0 153.097656 69.25 153.097656 154.375 0 3.769532-3.054687 6.824219-6.828124 6.824219zm-285.542969-13.652344h278.554687c-3.535156-74.4375-64.65625-133.894531-139.277344-133.894531-74.621093 0-135.742187 59.457031-139.277343 133.894531zm0 0" fill="#4c241d"/><path d="m107.652344 343.652344c-16.453125-23.867188-26.101563-52.871094-26.101563-84.148438h292.539063c0 81.488282-65.488282 147.546875-146.269532 147.546875-25.390624 0-49.269531-6.523437-70.082031-18.003906" fill="#fff"/><path d="m227.816406 413.875c-25.644531 0-51.019531-6.515625-73.375-18.851562-3.304687-1.820313-4.503906-5.972657-2.679687-9.273438 1.820312-3.304688 5.96875-4.507812 9.273437-2.679688 20.34375 11.21875 43.4375 17.152344 66.785156 17.152344 74.625 0 135.742188-59.457031 139.277344-133.890625h-278.558594c1.25 26.425781 9.734376 51.6875 24.734376 73.445313 2.136718 3.101562 1.359374 7.355468-1.746094 9.492187-3.101563 2.144531-7.359375 1.359375-9.496094-1.746093-17.863281-25.910157-27.304688-56.351563-27.304688-88.019532 0-3.769531 3.054688-6.828125 6.828126-6.828125h292.535156c3.769531 0 6.828125 3.058594 6.828125 6.828125-.003907 85.121094-68.683594 154.371094-153.101563 154.371094zm0 0" fill="#4c241d"/><path d="m135.992188 381.1875c-1.515626 0-3.039063-.5-4.304688-1.535156-3.507812-2.851563-6.933594-5.90625-10.191406-9.074219-2.703125-2.632813-2.761719-6.953125-.132813-9.652344 2.636719-2.707031 6.957031-2.757812 9.652344-.132812 2.96875 2.886719 6.097656 5.675781 9.289063 8.277343 2.925781 2.378907 3.363281 6.679688.984374 9.601563-1.351562 1.652344-3.316406 2.515625-5.296874 2.515625zm0 0" fill="#4c241d"/><path d="m166.632812 212.507812c6.222657-28.367187 31.347657-48.578124 60.386719-48.578124 29.042969 0 54.167969 20.210937 60.390625 48.578124l2.820313 12.859376h25.535156l-12.5625-92.132813c-22.035156-13.417969-47.769531-21.28125-75.382813-21.28125-26.394531 0-51.089843 7.152344-72.46875 19.492187l-17.078124 93.921876h25.539062zm0 0" fill="#ffce56"/><path d="m315.769531 232.195312h-25.535156c-3.207031 0-5.980469-2.234374-6.667969-5.363281l-2.820312-12.859375c-5.496094-25.042968-28.089844-43.21875-53.722656-43.21875-25.636719 0-48.226563 18.175782-53.726563 43.21875l-2.816406 12.859375c-.6875 3.128907-3.460938 5.363281-6.667969 5.363281h-25.535156c-2.027344 0-3.945313-.898437-5.242188-2.453124-1.292968-1.554688-1.839844-3.605469-1.476562-5.59375l17.078125-93.921876c.359375-1.972656 1.566406-3.691406 3.304687-4.695312 23.132813-13.34375 49.375-20.402344 75.882813-20.402344 27.707031 0 55 7.699219 78.933593 22.273438 1.757813 1.066406 2.9375 2.871094 3.214844 4.90625l12.5625 92.136718c.265625 1.953126-.324218 3.925782-1.621094 5.414063-1.300781 1.484375-3.175781 2.335937-5.144531 2.335937zm-20.046875-13.652343h12.226563l-11.0625-81.121094c-21.113281-12.203125-44.925781-18.640625-69.066407-18.640625-23.078124 0-45.941406 5.882812-66.324218 17.039062l-15.039063 82.722657h11.863281l1.644532-7.5c6.859375-31.253907 35.058594-53.941407 67.058594-53.941407s60.199218 22.6875 67.054687 53.941407zm0 0" fill="#4c241d"/><path d="m274.542969 260.78125c0 25.804688-20.917969 46.722656-46.722657 46.722656-25.804687 0-46.722656-20.917968-46.722656-46.722656s20.917969-46.722656 46.722656-46.722656c25.804688 0 46.722657 20.917968 46.722657 46.722656zm0 0" fill="#edebdc"/><path d="m227.816406 314.332031c-29.527344 0-53.546875-24.023437-53.546875-53.550781 0-29.53125 24.019531-53.550781 53.546875-53.550781 29.53125 0 53.554688 24.019531 53.554688 53.550781 0 29.527344-24.023438 53.550781-53.554688 53.550781zm0-93.449219c-22 0-39.894531 17.898438-39.894531 39.902344 0 22 17.894531 39.894532 39.894531 39.894532 22.003906 0 39.902344-17.894532 39.902344-39.894532 0-22.003906-17.898438-39.902344-39.902344-39.902344zm0 0" fill="#4c241d"/><path d="m248.160156 260.78125c0 11.234375-9.105468 20.339844-20.339844 20.339844-11.234374 0-20.339843-9.105469-20.339843-20.339844s9.105469-20.339844 20.339843-20.339844c11.234376 0 20.339844 9.105469 20.339844 20.339844zm0 0" fill="#edebdc"/><g fill="#4c241d"><path d="m227.816406 287.949219c-14.976562 0-27.164062-12.1875-27.164062-27.167969s12.1875-27.164062 27.164062-27.164062c14.980469 0 27.167969 12.183593 27.167969 27.164062s-12.183594 27.167969-27.167969 27.167969zm0-40.679688c-7.449218 0-13.511718 6.0625-13.511718 13.511719s6.0625 13.515625 13.511718 13.515625c7.449219 0 13.515625-6.066406 13.515625-13.515625s-6.0625-13.511719-13.515625-13.511719zm0 0"/><path d="m363.554688 54.703125c-3.769532 0-6.824219-3.058594-6.824219-6.828125v-20.480469c0-3.769531 3.054687-6.824219 6.824219-6.824219 3.769531 0 6.828124 3.054688 6.828124 6.824219v20.480469c0 3.769531-3.058593 6.828125-6.828124 6.828125zm0 0"/><path d="m363.554688 102.488281c-3.769532 0-6.824219-3.054687-6.824219-6.828125v-20.476562c0-3.773438 3.054687-6.828125 6.824219-6.828125 3.769531 0 6.828124 3.054687 6.828124 6.828125v20.476562c0 3.773438-3.058593 6.828125-6.828124 6.828125zm0 0"/><path d="m349.902344 68.355469h-20.480469c-3.769531 0-6.824219-3.058594-6.824219-6.828125 0-3.769532 3.054688-6.824219 6.824219-6.824219h20.480469c3.769531 0 6.828125 3.054687 6.828125 6.824219 0 3.769531-3.058594 6.828125-6.828125 6.828125zm0 0"/><path d="m397.6875 68.355469h-20.476562c-3.773438 0-6.828126-3.058594-6.828126-6.828125 0-3.769532 3.054688-6.824219 6.828126-6.824219h20.476562c3.773438 0 6.828125 3.054687 6.828125 6.824219 0 3.769531-3.054687 6.828125-6.828125 6.828125zm0 0"/><path d="m21.039062 209.480469c-3.417968 0-6.804687-.84375-9.90625-2.5-4.957031-2.65625-8.589843-7.082031-10.21875-12.464844-1.628906-5.378906-1.070312-11.078125 1.585938-16.035156 2.652344-4.960938 7.078125-8.589844 12.460938-10.21875 11.113281-3.375 22.890624 2.929687 26.257812 14.042969 3.367188 11.109374-2.933594 22.890624-14.042969 26.261718-2.019531.609375-4.085937.914063-6.136719.914063zm.023438-28.476563c-.710938 0-1.429688.105469-2.144531.324219-1.890625.570313-3.445313 1.847656-4.378907 3.589844-.933593 1.742187-1.128906 3.746093-.554687 5.640625.570313 1.894531 1.847656 3.449218 3.589844 4.378906 1.742187.929688 3.753906 1.132812 5.640625.558594 3.90625-1.183594 6.121094-5.328125 4.9375-9.234375-.96875-3.191407-3.914063-5.257813-7.089844-5.257813zm0 0"/><path d="m34.554688 42.203125c-11.609376 0-21.054688-9.445313-21.054688-21.058594 0-11.609375 9.445312-21.0546872 21.054688-21.0546872 11.609374 0 21.058593 9.4453122 21.058593 21.0546872 0 11.613281-9.449219 21.058594-21.058593 21.058594zm0-28.460937c-4.082032 0-7.402344 3.320312-7.402344 7.402343 0 4.085938 3.320312 7.40625 7.402344 7.40625 4.085937 0 7.402343-3.320312 7.402343-7.40625 0-4.082031-3.316406-7.402343-7.402343-7.402343zm0 0"/><path d="m92.242188 93.824219c-1.746094 0-3.492188-.664063-4.828126-2-2.664062-2.664063-2.664062-6.984375 0-9.652344l20.128907-20.125c2.664062-2.667969 6.988281-2.667969 9.652343 0 2.664063 2.664063 2.664063 6.984375 0 9.652344l-20.125 20.125c-1.335937 1.335937-3.082031 2-4.828124 2zm0 0"/><path d="m112.367188 93.824219c-1.746094 0-3.492188-.664063-4.824219-2l-20.128907-20.125c-2.664062-2.667969-2.664062-6.988281 0-9.652344 2.667969-2.667969 6.988282-2.667969 9.65625 0l20.125 20.125c2.664063 2.667969 2.664063 6.988281 0 9.652344-1.332031 1.335937-3.082031 2-4.828124 2zm0 0"/><path d="m224.03125 33.171875c0 6.285156-5.097656 11.382813-11.386719 11.382813-6.285156 0-11.382812-5.097657-11.382812-11.382813 0-6.289063 5.097656-11.386719 11.382812-11.386719 6.289063 0 11.386719 5.097656 11.386719 11.386719zm0 0"/><path d="m415.175781 176.53125c0 6.289062-5.09375 11.382812-11.382812 11.382812-6.289063 0-11.386719-5.09375-11.386719-11.382812s5.097656-11.386719 11.386719-11.386719c6.289062 0 11.382812 5.097657 11.382812 11.386719zm0 0"/></g></svg>