<svg height="414pt" viewBox="0 -2 414.09739 414" width="414pt" xmlns="http://www.w3.org/2000/svg"><path d="m319.101562 235.570312c0 84.828126-68.769531 153.597657-153.601562 153.597657s-153.601562-68.769531-153.601562-153.597657c0-84.832031 68.769531-153.601562 153.601562-153.601562s153.601562 68.769531 153.601562 153.601562zm0 0" fill="#c1dbdc"/><g fill="#4c241d"><path d="m360.058594 41.007812c-3.773438 0-6.824219-3.050781-6.824219-6.824218v-20.480469c0-3.773437 3.050781-6.828125 6.824219-6.828125 3.773437 0 6.828125 3.054688 6.828125 6.828125v20.480469c0 3.773437-3.054688 6.824218-6.828125 6.824218zm0 0"/><path d="m360.058594 88.796875c-3.773438 0-6.824219-3.054687-6.824219-6.828125v-20.480469c0-3.773437 3.050781-6.828125 6.824219-6.828125 3.773437 0 6.828125 3.054688 6.828125 6.828125v20.480469c0 3.773438-3.054688 6.828125-6.828125 6.828125zm0 0"/><path d="m346.40625 54.660156h-20.480469c-3.773437 0-6.824219-3.050781-6.824219-6.824218 0-3.773438 3.050782-6.828126 6.824219-6.828126h20.480469c3.773438 0 6.828125 3.054688 6.828125 6.828126 0 3.773437-3.054687 6.824218-6.828125 6.824218zm0 0"/><path d="m394.191406 54.660156h-20.476562c-3.773438 0-6.828125-3.050781-6.828125-6.824218 0-3.773438 3.054687-6.828126 6.828125-6.828126h20.476562c3.773438 0 6.828125 3.054688 6.828125 6.828126 0 3.773437-3.054687 6.824218-6.828125 6.824218zm0 0"/><path d="m393.015625 188.957031c-3.421875 0-6.808594-.839843-9.910156-2.496093-4.957031-2.652344-8.585938-7.078126-10.21875-12.464844-1.632813-5.378906-1.066407-11.082032 1.582031-16.039063 2.652344-4.960937 7.078125-8.585937 12.464844-10.21875 5.375-1.640625 11.082031-1.074219 16.039062 1.585938 4.960938 2.652343 8.585938 7.078125 10.222656 12.460937v.007813c3.359376 11.105469-2.941406 22.882812-14.046874 26.25-2.023438.613281-4.082032.914062-6.132813.914062zm.03125-28.476562c-.722656 0-1.449219.109375-2.15625.324219-1.890625.570312-3.449219 1.851562-4.382813 3.589843-.929687 1.746094-1.128906 3.746094-.554687 5.640625.574219 1.894532 1.855469 3.453125 3.59375 4.386719 1.757813.925781 3.75 1.121094 5.640625.554687 3.898438-1.179687 6.117188-5.328124 4.941406-9.234374-.574218-1.894532-1.855468-3.449219-3.59375-4.378907-1.09375-.585937-2.289062-.882812-3.488281-.882812zm0 0"/><path d="m24.234375 42.164062c-11.613281 0-21.0625-9.449218-21.0625-21.054687 0-11.613281 9.449219-21.0625 21.0625-21.0625s21.058594 9.449219 21.058594 21.0625c0 11.605469-9.445313 21.054687-21.058594 21.054687zm0-28.460937c-4.089844 0-7.40625 3.320313-7.40625 7.40625 0 4.082031 3.316406 7.398437 7.40625 7.398437 4.085937 0 7.40625-3.316406 7.40625-7.398437 0-4.085937-3.320313-7.40625-7.40625-7.40625zm0 0"/><path d="m6.824219 162.050781c-1.746094 0-3.492188-.667969-4.824219-2.003906-2.667969-2.664063-2.667969-6.984375 0-9.652344l20.125-20.117187c2.667969-2.667969 6.988281-2.667969 9.652344 0 2.667968 2.664062 2.667968 6.984375 0 9.652344l-20.125 20.117187c-1.332032 1.335937-3.078125 2.003906-4.828125 2.003906zm0 0"/><path d="m26.953125 162.050781c-1.746094 0-3.492187-.667969-4.828125-2.003906l-20.125-20.117187c-2.667969-2.667969-2.667969-6.988282 0-9.652344 2.664062-2.667969 6.988281-2.667969 9.652344 0l20.125 20.117187c2.667968 2.667969 2.667968 6.988281 0 9.652344-1.332032 1.335937-3.078125 2.003906-4.824219 2.003906zm0 0"/></g><path d="m346.445312 191.582031c8.730469 18.523438 13.613282 39.21875 13.613282 61.054688v123.011719c0 15.007812-12.164063 27.171874-27.171875 27.171874h-232.375c-15.003907 0-27.171875-12.164062-27.171875-27.171874v-119.375c0-79.257813 64.820312-147.382813 144.074218-146.996094 36.003907.175781 68.871094 13.621094 93.957032 35.699218" fill="#bf7e68"/><path d="m332.886719 409.648438h-232.375c-18.746094 0-34-15.253907-34-34v-119.371094c0-40.753906 16.816406-80.863282 46.132812-110.035156 28.570313-28.433594 66.007813-43.773438 104.800781-43.792969 36.277344.179687 71.234376 13.464843 98.4375 37.398437 2.832032 2.496094 3.105469 6.808594.617188 9.636719-2.5 2.832031-6.8125 3.105469-9.632812.617187-24.734376-21.757812-56.515626-33.832031-89.488282-34-.214844 0-.425781 0-.640625 0-35.117187 0-68.640625 14.121094-94.460937 39.8125-26.765625 26.632813-42.113282 63.214844-42.113282 100.363282v119.371094c0 11.21875 9.128907 20.347656 20.347657 20.347656h232.371093c11.222657 0 20.347657-9.128906 20.347657-20.347656v-123.011719c0-20.339844-4.359375-39.910157-12.960938-58.140625-1.605469-3.414063-.144531-7.480469 3.261719-9.085938 3.414062-1.613281 7.488281-.148437 9.085938 3.257813 9.464843 20.074219 14.265624 41.59375 14.265624 63.96875v123.011719c.003907 18.746093-15.25 34-33.996093 34zm0 0" fill="#4c241d"/><path d="m336.066406 180.027344c-2.207031 0-4.371094-1.066406-5.6875-3.039063-2.566406-3.847656-5.351562-7.605469-8.289062-11.171875-2.402344-2.90625-1.988282-7.214844.925781-9.609375 2.90625-2.398437 7.21875-1.976562 9.605469.929688 3.234375 3.917969 6.300781 8.050781 9.121094 12.277343 2.09375 3.140626 1.246093 7.375-1.894532 9.46875-1.167968.773438-2.480468 1.144532-3.78125 1.144532zm0 0" fill="#4c241d"/><path d="m319.101562 238.980469c0-18.851563-4.585937-34.132813-10.242187-34.132813s-10.238281 15.28125-10.238281 34.132813c0 18.851562 4.582031 34.136719 10.238281 34.136719s10.242187-15.285157 10.242187-34.136719zm0 0" fill="#6b4f5b"/><path d="m308.859375 279.941406c-16.246094 0-17.066406-34.117187-17.066406-40.960937 0-6.839844.820312-40.957031 17.066406-40.957031s17.066406 34.117187 17.066406 40.957031c0 6.84375-.820312 40.960937-17.066406 40.960937zm0-65.253906c-1.660156 4.542969-3.414063 12.949219-3.414063 24.292969 0 11.347656 1.753907 19.753906 3.414063 24.292969 1.660156-4.539063 3.414063-12.945313 3.414063-24.292969 0-11.34375-1.753907-19.75-3.414063-24.292969zm0 0" fill="#4c241d"/><path d="m134.78125 245.808594c0-18.851563-4.585938-34.132813-10.242188-34.132813s-10.238281 15.28125-10.238281 34.132813c0 18.851562 4.582031 34.132812 10.238281 34.132812s10.242188-15.28125 10.242188-34.132812zm0 0" fill="#6b4f5b"/><path d="m124.539062 286.769531c-16.246093 0-17.066406-34.121093-17.066406-40.960937s.820313-40.960938 17.066406-40.960938c16.25 0 17.066407 34.121094 17.066407 40.960938s-.816407 40.960937-17.066407 40.960937zm0-65.253906c-1.660156 4.539063-3.414062 12.945313-3.414062 24.292969s1.753906 19.753906 3.414062 24.292968c1.660157-4.539062 3.414063-12.945312 3.414063-24.292968s-1.753906-19.753906-3.414063-24.292969zm0 0" fill="#4c241d"/><path d="m284.964844 291.511719c0 21.886719-29.035156 39.628906-64.851563 39.628906-35.816406 0-64.855469-17.742187-64.855469-39.628906 0-21.890625 21.832032-25.222657 57.648438-25.222657 35.820312 0 72.058594 3.332032 72.058594 25.222657zm0 0" fill="#ffded5"/><path d="m220.113281 337.96875c-40.195312 0-71.679687-20.40625-71.679687-46.460938 0-32.046874 37.265625-32.046874 64.472656-32.046874 25.605469 0 78.886719 0 78.886719 32.046874 0 26.054688-31.484375 46.460938-71.679688 46.460938zm-7.207031-64.851562c-42.960938 0-50.820312 6.191406-50.820312 18.390624 0 17.78125 26.574218 32.808594 58.027343 32.808594s58.027344-15.027344 58.027344-32.808594c0-18.390624-49.101563-18.390624-65.234375-18.390624zm0 0" fill="#4c241d"/><path d="m179.28125 268.441406c-2.234375 3.28125-3.542969 7.234375-3.542969 11.5 0 11.3125 9.171875 20.480469 20.480469 20.480469 11.3125 0 20.480469-9.167969 20.480469-20.480469 0-5.265625-2.042969-10.015625-5.304688-13.640625-12.605469.035157-23.4375.519531-32.113281 2.140625zm0 0" fill="#fff"/><path d="m196.21875 307.25c-15.058594 0-27.304688-12.25-27.304688-27.308594 0-5.5 1.632813-10.804687 4.726563-15.339844 1.019531-1.507812 2.597656-2.539062 4.386719-2.875 8.144531-1.519531 18.433594-2.210937 33.347656-2.25h.019531c1.933594 0 3.78125.816407 5.074219 2.257813 4.550781 5.054687 7.058594 11.519531 7.058594 18.207031 0 15.058594-12.246094 27.308594-27.308594 27.308594zm-12.578125-32.613281c-.707031 1.667969-1.074219 3.464843-1.074219 5.304687 0 7.527344 6.125 13.652344 13.652344 13.652344s13.65625-6.125 13.65625-13.652344c0-2.785156-.835938-5.054687-1.867188-6.792968-10.40625.105468-18.160156.578124-24.367187 1.488281zm0 0" fill="#4c241d"/><path d="m305.445312 221.914062c0 5.65625-4.582031 10.242188-10.238281 10.242188s-10.242187-4.585938-10.242187-10.242188c0-5.652343 4.585937-10.238281 10.242187-10.238281s10.238281 4.585938 10.238281 10.238281zm0 0" fill="#fff"/><path d="m148.433594 221.914062c0 5.65625-4.585938 10.242188-10.242188 10.242188-5.652344 0-10.238281-4.585938-10.238281-10.242188 0-5.652343 4.585937-10.238281 10.238281-10.238281 5.65625 0 10.242188 4.585938 10.242188 10.238281zm0 0" fill="#fff"/><path d="m216.699219 116.101562c-3.773438 0-6.824219-3.054687-6.824219-6.828124v-54.613282c0-3.773437 3.050781-6.824218 6.824219-6.824218 3.773437 0 6.828125 3.050781 6.828125 6.824218v54.613282c0 3.773437-3.054688 6.828124-6.828125 6.828124zm0 0" fill="#4c241d"/><path d="m204.039062 114.808594c-2.6875 0-5.230468-1.601563-6.320312-4.238282-.132812-.335937-7.753906-18.375-26.804688-37.429687-2.667968-2.664063-2.667968-6.984375 0-9.652344 2.664063-2.664062 6.984376-2.664062 9.652344 0 21.214844 21.214844 29.453125 41.082031 29.792969 41.917969 1.425781 3.488281-.253906 7.476562-3.746094 8.894531-.839843.347657-1.714843.507813-2.574219.507813zm0 0" fill="#4c241d"/><path d="m229.351562 114.800781c-.859374 0-1.734374-.160156-2.578124-.511719-3.488282-1.429687-5.15625-5.402343-3.734376-8.882812.339844-.835938 8.578126-20.707031 29.792969-41.917969 2.664063-2.664062 6.988281-2.664062 9.652344 0 2.664063 2.667969 2.664063 6.988281 0 9.652344-19.140625 19.140625-26.734375 37.246094-26.8125 37.429687-1.085937 2.640626-3.632813 4.230469-6.320313 4.230469zm0 0" fill="#4c241d"/></svg>