<svg height="407pt" viewBox="-1 0 407 407.63307" width="407pt" xmlns="http://www.w3.org/2000/svg"><path d="m307.789062 194.832031c0 84.832031-68.769531 153.601563-153.601562 153.601563-84.828125 0-153.597656-68.769532-153.597656-153.601563s68.769531-153.601562 153.597656-153.601562c84.832031 0 153.601562 68.769531 153.601562 153.601562zm0 0" fill="#c1dbdc"/><g fill="#4c241d"><path d="m36.195312 26.105469c-1.746093 0-3.492187-.667969-4.828124-2-2.664063-2.664063-2.664063-6.988281 0-9.652344l12.453124-12.453125c2.667969-2.667969 6.988282-2.667969 9.65625 0 2.664063 2.664062 2.664063 6.988281 0 9.652344l-12.457031 12.453125c-1.332031 1.332031-3.078125 2-4.824219 2zm0 0"/><path d="m7.140625 55.160156c-1.746094 0-3.492187-.667968-4.824219-2-2.667968-2.667968-2.667968-6.988281 0-9.65625l12.453125-12.453125c2.664063-2.664062 6.988281-2.664062 9.652344 0 2.667969 2.667969 2.667969 6.988281 0 9.652344l-12.453125 12.457031c-1.332031 1.332032-3.082031 2-4.828125 2zm0 0"/><path d="m19.597656 26.105469c-1.746094 0-3.496094-.667969-4.828125-2l-12.453125-12.453125c-2.667968-2.664063-2.667968-6.988282 0-9.652344 2.664063-2.667969 6.988282-2.667969 9.652344 0l12.453125 12.453125c2.667969 2.664063 2.667969 6.988281 0 9.652344-1.332031 1.332031-3.078125 2-4.824219 2zm0 0"/><path d="m48.648438 55.160156c-1.746094 0-3.492188-.667968-4.828126-2l-12.453124-12.457031c-2.664063-2.664063-2.664063-6.984375 0-9.652344 2.667968-2.664062 6.988281-2.664062 9.652343 0l12.457031 12.453125c2.664063 2.667969 2.664063 6.988282 0 9.65625-1.335937 1.332032-3.082031 2-4.828124 2zm0 0"/><path d="m33.542969 407.632812c-3.421875 0-6.804688-.839843-9.90625-2.492187-4.960938-2.65625-8.585938-7.082031-10.21875-12.46875-1.636719-5.378906-1.070313-11.078125 1.578125-16.039063 2.652344-4.960937 7.078125-8.585937 12.46875-10.21875 5.378906-1.640624 11.070312-1.074218 16.039062 1.585938 4.957032 2.65625 8.585938 7.082031 10.21875 12.460938v.007812c3.359375 11.105469-2.941406 22.886719-14.046875 26.253906-2.019531.609375-4.078125.910156-6.132812.910156zm.03125-28.472656c-.71875 0-1.445313.105469-2.152344.320313-1.894531.574219-3.453125 1.851562-4.386719 3.59375-.925781 1.742187-1.125 3.746093-.554687 5.640625.574219 1.890625 1.855469 3.449218 3.59375 4.382812 1.753906.929688 3.746093 1.121094 5.640625.554688 3.898437-1.179688 6.121094-5.328125 4.941406-9.234375-.574219-1.890625-1.855469-3.445313-3.59375-4.378907-1.09375-.585937-2.289062-.878906-3.488281-.878906zm0 0"/><path d="m210.894531 42.386719c-11.613281 0-21.058593-9.445313-21.058593-21.054688 0-11.613281 9.445312-21.058593 21.058593-21.058593 11.617188 0 21.0625 9.445312 21.0625 21.058593 0 11.609375-9.449219 21.054688-21.0625 21.054688zm0-28.460938c-4.085937 0-7.40625 3.320313-7.40625 7.40625 0 4.082031 3.320313 7.402344 7.40625 7.402344 4.089844 0 7.410157-3.320313 7.410157-7.402344 0-4.085937-3.324219-7.40625-7.410157-7.40625zm0 0"/><path d="m404.417969 75.945312c0 5.082032-4.121094 9.199219-9.203125 9.199219-5.082032 0-9.203125-4.117187-9.203125-9.199219 0-5.082031 4.121093-9.203124 9.203125-9.203124 5.082031 0 9.203125 4.121093 9.203125 9.203124zm0 0"/><path d="m28.949219 301.222656c0 5.082032-4.117188 9.203125-9.203125 9.203125-5.082032 0-9.199219-4.121093-9.199219-9.203125 0-5.082031 4.117187-9.199218 9.199219-9.199218 5.085937 0 9.203125 4.117187 9.203125 9.199218zm0 0"/><path d="m370.980469 394.378906c-1.746094 0-3.492188-.667968-4.824219-2-2.667969-2.664062-2.667969-6.988281 0-9.652344l20.125-20.121093c2.667969-2.664063 6.988281-2.664063 9.652344 0 2.667968 2.667969 2.667968 6.988281 0 9.652343l-20.125 20.121094c-1.332032 1.335938-3.078125 2-4.828125 2zm0 0"/><path d="m391.109375 394.378906c-1.746094 0-3.496094-.667968-4.828125-2l-20.125-20.121094c-2.667969-2.664062-2.667969-6.984374 0-9.652343 2.664062-2.664063 6.984375-2.664063 9.652344 0l20.125 20.121093c2.667968 2.664063 2.667968 6.988282 0 9.652344-1.332032 1.335938-3.078125 2-4.824219 2zm0 0"/><path d="m318.960938 50.460938c-1.746094 0-3.492188-.667969-4.824219-2-2.667969-2.667969-2.667969-6.988282 0-9.652344l28.59375-28.601563c2.664062-2.667969 6.984375-2.667969 9.652343 0 2.664063 2.664063 2.664063 6.988281 0 9.652344l-28.59375 28.601563c-1.332031 1.332031-3.082031 2-4.828124 2zm0 0"/><path d="m347.554688 50.460938c-1.746094 0-3.492188-.667969-4.824219-2l-28.59375-28.601563c-2.667969-2.664063-2.667969-6.988281 0-9.652344 2.664062-2.667969 6.984375-2.667969 9.652343 0l28.59375 28.597657c2.664063 2.667968 2.664063 6.988281 0 9.652343-1.332031 1.335938-3.082031 2.003907-4.828124 2.003907zm0 0"/></g><path d="m357.5625 193.234375c7.289062-8.847656 11.667969-20.175781 11.667969-32.535156 0-28.273438-22.925781-51.199219-51.203125-51.199219-21.898438 0-40.535156 13.777344-47.851563 33.113281-14.074219-3.257812-28.929687-5.042969-44.308593-5.042969-17.675782 0-34.664063 2.34375-50.5625 6.605469-6.878907-20.160156-25.9375-34.675781-48.421876-34.675781-28.277343 0-51.199218 22.925781-51.199218 51.199219 0 14.273437 5.851562 27.167969 15.269531 36.453125-15.90625 20.03125-25.164063 43.820312-25.164063 69.363281 0 71.210937 71.667969 128.941406 160.078126 128.941406 88.410156 0 160.078124-57.730469 160.078124-128.941406.003907-27.230469-10.5-52.46875-28.382812-73.28125zm0 0" fill="#9dc1e4"/><path d="m225.867188 402.285156c-92.03125 0-166.90625-60.90625-166.90625-135.773437 0-24.367188 7.972656-48.09375 23.113281-68.953125-8.558594-10.367188-13.21875-23.246094-13.21875-36.859375 0-31.992188 26.035156-58.027344 58.027343-58.027344 22.6875 0 43.066407 13.199219 52.519532 33.433594 28.144531-6.640625 58.21875-7.113281 86.773437-1.347657 9.746094-19.40625 29.894531-32.085937 51.851563-32.085937 31.996094 0 58.027344 26.035156 58.027344 58.027344 0 11.519531-3.457032 22.800781-9.828126 32.308593 17.390626 21.925782 26.550782 47.230469 26.550782 73.503907 0 74.867187-74.875 135.773437-166.910156 135.773437zm-98.984376-285.960937c-24.46875 0-44.375 19.90625-44.375 44.375 0 11.953125 4.699219 23.171875 13.242188 31.59375 2.480469 2.445312 2.71875 6.371093.550781 9.105469-15.492187 19.515624-23.6875 42.035156-23.6875 65.113281 0 67.339843 68.75 122.121093 153.253907 122.121093 84.507812 0 153.253906-54.78125 153.253906-122.121093 0-24.664063-9.246094-48.464844-26.738282-68.832031-2.160156-2.515626-2.199218-6.226563-.085937-8.785157 6.511719-7.914062 10.105469-17.929687 10.105469-28.195312 0-24.46875-19.90625-44.375-44.375-44.375-18.304688 0-34.972656 11.535156-41.464844 28.699219-1.214844 3.203124-4.582031 5.015624-7.929688 4.242187-30-6.949219-62.050781-6.402344-91.566406 1.5-3.515625.953125-7.070312-.996094-8.222656-4.386719-6.136719-17.980468-22.996094-30.054687-41.960938-30.054687zm0 0" fill="#4c241d"/><path d="m348.21875 160.699219c0 16.671875-13.515625 30.191406-30.191406 30.191406-16.671875 0-30.191406-13.519531-30.191406-30.191406 0-16.675781 13.519531-30.191407 30.191406-30.191407 16.675781 0 30.191406 13.515626 30.191406 30.191407zm0 0" fill="#fff"/><path d="m318.027344 197.71875c-20.410156 0-37.019532-16.605469-37.019532-37.019531 0-20.410157 16.609376-37.019531 37.019532-37.019531 20.414062 0 37.019531 16.609374 37.019531 37.019531 0 20.414062-16.605469 37.019531-37.019531 37.019531zm0-60.386719c-12.886719 0-23.363282 10.480469-23.363282 23.367188s10.480469 23.367187 23.363282 23.367187c12.886718 0 23.367187-10.480468 23.367187-23.367187s-10.480469-23.367188-23.367187-23.367188zm0 0" fill="#4c241d"/><path d="m330.207031 160.699219c0 6.726562-5.453125 12.179687-12.179687 12.179687-6.726563 0-12.175782-5.453125-12.175782-12.179687 0-6.726563 5.449219-12.179688 12.175782-12.179688 6.726562 0 12.179687 5.453125 12.179687 12.179688zm0 0" fill="#6b4f5b"/><path d="m318.027344 179.707031c-10.480469 0-19.003906-8.527343-19.003906-19.007812s8.523437-19.007813 19.003906-19.007813c10.480468 0 19.007812 8.527344 19.007812 19.007813s-8.527344 19.007812-19.007812 19.007812zm0-24.359375c-2.949219 0-5.351563 2.398438-5.351563 5.351563 0 2.957031 2.398438 5.355469 5.351563 5.355469 2.957031 0 5.355468-2.398438 5.355468-5.355469 0-2.953125-2.398437-5.351563-5.355468-5.351563zm0 0" fill="#4c241d"/><path d="m157.074219 160.699219c0 16.671875-13.519531 30.191406-30.191407 30.191406-16.675781 0-30.191406-13.519531-30.191406-30.191406 0-16.675781 13.515625-30.191407 30.191406-30.191407 16.671876 0 30.191407 13.515626 30.191407 30.191407zm0 0" fill="#fff"/><path d="m126.882812 197.71875c-20.414062 0-37.019531-16.605469-37.019531-37.019531 0-20.410157 16.605469-37.019531 37.019531-37.019531 20.414063 0 37.019532 16.609374 37.019532 37.019531 0 20.414062-16.605469 37.019531-37.019532 37.019531zm0-60.386719c-12.886718 0-23.367187 10.480469-23.367187 23.367188s10.480469 23.367187 23.367187 23.367187c12.882813 0 23.367188-10.480468 23.367188-23.367187s-10.480469-23.367188-23.367188-23.367188zm0 0" fill="#4c241d"/><path d="m225.867188 395.457031c52.085937 0 98.339843-20.050781 127.574218-51.074219 1.324219-6.453124 2.132813-13.0625 2.132813-19.84375 0-62.210937-58.070313-112.640624-129.707031-112.640624-71.632813 0-129.707032 50.429687-129.707032 112.640624 0 6.78125.8125 13.390626 2.136719 19.84375 29.230469 31.023438 75.488281 51.074219 127.570313 51.074219zm0 0" fill="#fff"/><path d="m225.867188 402.285156c-52.359376 0-100.671876-19.398437-132.539063-53.226562-.871094-.921875-1.464844-2.066406-1.71875-3.3125-1.535156-7.472656-2.273437-14.40625-2.273437-21.207032 0-65.875 61.246093-119.46875 136.53125-119.46875 75.289062 0 136.535156 53.59375 136.535156 119.46875 0 6.800782-.742188 13.734376-2.273438 21.207032-.253906 1.246094-.847656 2.390625-1.71875 3.3125-31.867187 33.828125-80.179687 53.226562-132.542968 53.226562zm-121.257813-61.179687c29.3125 30.226562 73.378906 47.527343 121.257813 47.527343 47.882812 0 91.949218-17.300781 121.261718-47.527343 1.085938-5.832031 1.621094-11.273438 1.621094-16.566407 0-58.347656-55.128906-105.8125-122.882812-105.8125-67.75 0-122.878907 47.464844-122.878907 105.8125 0 5.292969.535157 10.734376 1.621094 16.566407zm0 0" fill="#4c241d"/><path d="m158.460938 389.898438c-1.59375 0-3.183594-.550782-4.472657-1.671876-19.519531-16.953124-30.273437-39.574218-30.273437-63.6875 0-49.40625 45.828125-89.605468 102.152344-89.605468 56.328124 0 102.152343 40.199218 102.152343 89.605468 0 .023438-.003906.707032-.003906.730469-.074219 17.132813-6.886719 32.972657-19.175781 44.558594-12.285156 11.597656-28.429688 17.4375-45.652344 16.550781l-37.6875-2.039062c-.003906 0-.011719 0-.019531 0-37.023438 0-67.445313-26.828125-67.445313-59.800782 0-32.976562 30.425782-59.804687 67.832032-59.804687 22.292968 0 43.167968 9.652344 55.839843 25.8125 7.828125 9.988281 10.8125 22.875 8.195313 35.355469-2.507813 11.929687-9.988282 22.007812-20.515625 27.644531-12.625 6.765625-27.804688 8.179687-45.046875 4.207031-23.140625-5.3125-35.886719-17.105468-35.886719-33.214844 0-18.40625 16.789063-33.382812 37.414063-33.382812 5.804687 0 11.359374 1.144531 16.519531 3.417969 8.339843 3.65625 12.675781 12.175781 10.78125 21.199219-1.929688 9.183593-9.742188 15.59375-19 15.59375-3.773438 0-6.828125-3.050782-6.828125-6.824219 0-3.773438 3.054687-6.828125 6.828125-6.828125 4.417969 0 5.472656-3.945313 5.640625-4.738282.265625-1.273437.511718-4.398437-2.90625-5.898437-3.421875-1.507813-7.136719-2.269531-11.035156-2.269531-13.101563 0-23.761719 8.855468-23.761719 19.734375 0 11.652343 13.753906 17.257812 25.289062 19.90625 13.945313 3.207031 25.90625 2.21875 35.550781-2.941407 7.0625-3.78125 11.886719-10.320312 13.59375-18.417968 1.789063-8.519532-.246093-17.316406-5.582031-24.113282-10.105469-12.894531-26.957031-20.585937-45.089843-20.585937-29.875 0-54.183594 20.707031-54.183594 46.152344 0 25.445312 24.308594 46.152343 54.183594 46.152343l38.050781 2.046876c13.328125.765624 26-3.832032 35.554687-12.839844 9.539063-9 14.828125-21.332032 14.886719-34.734375 0-.007813.007813-.679688.007813-.691407 0-41.8125-39.703126-75.886718-88.5-75.886718-48.800782 0-88.5 34.074218-88.5 75.953125 0 20.097656 9.082031 39.058593 25.566406 53.378906 2.847656 2.472656 3.152344 6.789063.679687 9.628906-1.34375 1.554688-3.246093 2.347657-5.152343 2.347657zm0 0" fill="#4c241d"/><path d="m246.355469 191.417969c-2.507813 0-4.914063-1.378907-6.113281-3.773438l-6.828126-13.652343c-1.683593-3.375-.320312-7.472657 3.054688-9.160157 3.367188-1.671875 7.464844-.320312 9.160156 3.054688l6.828125 13.652343c1.683594 3.375.320313 7.472657-3.054687 9.160157-.980469.488281-2.019532.71875-3.046875.71875zm0 0" fill="#4c241d"/><path d="m205.382812 191.417969c-1.027343 0-2.066406-.234375-3.046874-.71875-3.375-1.6875-4.738282-5.789063-3.054688-9.160157l6.828125-13.652343c1.691406-3.375 5.785156-4.730469 9.160156-3.054688 3.375 1.6875 4.738281 5.789063 3.050781 9.160157l-6.824218 13.652343c-1.199219 2.394531-3.605469 3.773438-6.113282 3.773438zm0 0" fill="#4c241d"/><path d="m314.617188 147.046875c0 5.652344-4.585938 10.238281-10.242188 10.238281s-10.238281-4.585937-10.238281-10.238281c0-5.65625 4.582031-10.242187 10.238281-10.242187s10.242188 4.585937 10.242188 10.242187zm0 0" fill="#fff"/><path d="m139.0625 160.699219c0 6.726562-5.453125 12.179687-12.179688 12.179687-6.726562 0-12.179687-5.453125-12.179687-12.179687 0-6.726563 5.453125-12.179688 12.179687-12.179688 6.726563 0 12.179688 5.453125 12.179688 12.179688zm0 0" fill="#6b4f5b"/><path d="m126.882812 179.707031c-10.480468 0-19.007812-8.527343-19.007812-19.007812s8.527344-19.007813 19.007812-19.007813c10.480469 0 19.007813 8.527344 19.007813 19.007813s-8.527344 19.007812-19.007813 19.007812zm0-24.359375c-2.953124 0-5.355468 2.398438-5.355468 5.351563 0 2.957031 2.402344 5.355469 5.355468 5.355469 2.953126 0 5.351563-2.398438 5.351563-5.355469 0-2.953125-2.398437-5.351563-5.351563-5.351563zm0 0" fill="#4c241d"/><path d="m123.46875 147.046875c0 5.652344-4.585938 10.238281-10.238281 10.238281-5.65625 0-10.242188-4.585937-10.242188-10.238281 0-5.65625 4.585938-10.242187 10.242188-10.242187 5.652343 0 10.238281 4.585937 10.238281 10.242187zm0 0" fill="#fff"/></svg>