<svg height="425pt" viewBox="0 -15 425.27072 425" width="425pt" xmlns="http://www.w3.org/2000/svg"><path d="m336.246094 171.277344c0 84.828125-68.769532 153.597656-153.597656 153.597656-84.832032 0-153.601563-68.769531-153.601563-153.597656 0-84.832032 68.769531-153.601563 153.601563-153.601563 84.828124 0 153.597656 68.769531 153.597656 153.601563zm0 0" fill="#c1dbdc"/><g fill="#4c241d"><path d="m384.035156 106.695312c-3.769531 0-6.828125-3.050781-6.828125-6.824218v-20.640625c0-3.773438 3.058594-6.828125 6.828125-6.828125 3.769532 0 6.824219 3.054687 6.824219 6.828125v20.640625c0 3.773437-3.054687 6.824218-6.824219 6.824218zm0 0"/><path d="m384.035156 58.523438c-3.769531 0-6.828125-3.054688-6.828125-6.828126v-20.636718c0-3.773438 3.058594-6.828125 6.828125-6.828125 3.769532 0 6.824219 3.054687 6.824219 6.828125v20.636718c0 3.773438-3.054687 6.828126-6.824219 6.828126zm0 0"/><path d="m418.445312 72.289062h-20.648437c-3.769531 0-6.828125-3.050781-6.828125-6.824218 0-3.773438 3.058594-6.828125 6.828125-6.828125h20.648437c3.769532 0 6.824219 3.054687 6.824219 6.828125 0 3.773437-3.054687 6.824218-6.824219 6.824218zm0 0"/><path d="m370.273438 72.289062h-20.648438c-3.769531 0-6.828125-3.050781-6.828125-6.824218 0-3.773438 3.058594-6.828125 6.828125-6.828125h20.648438c3.769531 0 6.824218 3.054687 6.824218 6.828125 0 3.773437-3.054687 6.824218-6.824218 6.824218zm0 0"/><path d="m21.039062 363.59375c-3.421874 0-6.804687-.835938-9.90625-2.492188-4.960937-2.652343-8.589843-7.085937-10.21875-12.472656-1.628906-5.375-1.070312-11.074218 1.585938-16.035156 2.652344-4.960938 7.074219-8.585938 12.460938-10.21875 11.113281-3.359375 22.890624 2.933594 26.257812 14.046875 1.628906 5.378906 1.070312 11.078125-1.582031 16.039063-2.65625 4.957031-7.078125 8.585937-12.460938 10.21875-2.019531.617187-4.085937.914062-6.136719.914062zm.019532-28.46875c-.707032 0-1.429688.105469-2.140625.320312-3.90625 1.183594-6.121094 5.324219-4.9375 9.230469.574219 1.894531 1.847656 3.453125 3.589843 4.386719 1.742188.925781 3.753907 1.121094 5.640626.554688 1.890624-.574219 3.449218-1.847657 4.378906-3.59375.933594-1.746094 1.132812-3.746094.558594-5.640626-.96875-3.191406-3.910157-5.257812-7.089844-5.257812zm0 0"/><path d="m376.023438 261.195312c-3.417969 0-6.800782-.839843-9.902344-2.492187-4.964844-2.65625-8.589844-7.085937-10.21875-12.476563-1.628906-5.371093-1.070313-11.070312 1.582031-16.03125 2.65625-4.960937 7.078125-8.585937 12.460937-10.222656 11.113282-3.367187 22.894532 2.9375 26.261719 14.046875 1.628907 5.378907 1.070313 11.082031-1.585937 16.039063-2.652344 4.960937-7.074219 8.585937-12.460938 10.21875-2.019531.621094-4.082031.917968-6.136718.917968zm.023437-28.472656c-.710937 0-1.429687.105469-2.144531.320313-3.90625 1.1875-6.117188 5.328125-4.9375 9.234375.574218 1.890625 1.851562 3.453125 3.59375 4.386718 1.742187.925782 3.75 1.117188 5.640625.550782 1.890625-.570313 3.449219-1.84375 4.378906-3.589844.933594-1.746094 1.128906-3.746094.558594-5.640625-.96875-3.195313-3.910157-5.261719-7.089844-5.261719zm0 0"/><path d="m365.308594 377.648438c-1.746094 0-3.492188-.664063-4.828125-2-2.664063-2.664063-2.664063-6.984376 0-9.652344l20.128906-20.117188c2.664063-2.667968 6.988281-2.667968 9.652344 0 2.664062 2.664063 2.664062 6.984375 0 9.652344l-20.125 20.117188c-1.335938 1.335937-3.082031 2-4.828125 2zm0 0"/><path d="m385.433594 377.648438c-1.746094 0-3.492188-.664063-4.828125-2l-20.125-20.117188c-2.664063-2.667969-2.664063-6.988281 0-9.652344 2.660156-2.667968 6.988281-2.667968 9.652343 0l20.128907 20.117188c2.664062 2.667968 2.664062 6.988281 0 9.652344-1.332031 1.335937-3.082031 2-4.828125 2zm0 0"/><path d="m27.496094 80.582031c-1.746094 0-3.496094-.667969-4.828125-2-2.664063-2.664062-2.664063-6.988281 0-9.652343l26.738281-26.734376c2.667969-2.664062 6.988281-2.664062 9.65625 0 2.664062 2.667969 2.664062 6.988282 0 9.652344l-26.742188 26.734375c-1.332031 1.335938-3.078124 2-4.824218 2zm0 0"/><path d="m54.234375 80.582031c-1.746094 0-3.492187-.667969-4.828125-2l-26.738281-26.734375c-2.664063-2.664062-2.664063-6.984375 0-9.652344 2.664062-2.664062 6.988281-2.664062 9.652343 0l26.742188 26.734376c2.664062 2.664062 2.664062 6.988281 0 9.652343-1.335938 1.335938-3.082031 2-4.828125 2zm0 0"/></g><path d="m268.882812 132.78125 137.703126 21.828125-101.089844 96.027344 21.792968 137.710937-122.5625-66.472656-124.238281 63.28125 25.34375-137.105469-98.574219-98.601562 138.222657-18.265625 63.316406-124.21875zm0 0" fill="#bf7e68"/><path d="m327.289062 395.167969c-1.117187 0-2.238281-.273438-3.253906-.824219l-119.40625-64.753906-121.042968 61.648437c-2.3125 1.179688-5.097657.933594-7.183594-.605469-2.082032-1.5625-3.101563-4.164062-2.628906-6.714843l24.691406-133.574219-96.035156-96.066406c-1.839844-1.839844-2.4726568-4.5625-1.636719-7.019532.832031-2.460937 2.996093-4.234374 5.570312-4.574218l134.664063-17.800782 61.6875-121.019531c1.167968-2.289062 3.519531-3.726562 6.082031-3.726562h.085937c2.601563.03125 4.953126 1.539062 6.074219 3.882812l58.539063 122.582031 134.160156 21.265626c2.570312.40625 4.679688 2.234374 5.449219 4.714843.773437 2.480469.070312 5.1875-1.816407 6.972657l-98.488281 93.558593 21.230469 134.160157c.40625 2.566406-.679688 5.140624-2.804688 6.640624-1.171874.835938-2.550781 1.253907-3.9375 1.253907zm-122.5625-80.117188c1.121094 0 2.242188.273438 3.253907.824219l110.402343 59.875-19.628906-124.046875c-.351562-2.21875.414063-4.464844 2.042969-6.011719l91.058594-86.5-124.046875-19.667968c-2.21875-.347657-4.125-1.773438-5.089844-3.800782l-54.121094-113.332031-57.035156 111.890625c-1.019531 2-2.960938 3.375-5.191406 3.667969l-124.507813 16.453125 88.792969 88.828125c1.589844 1.585937 2.292969 3.859375 1.886719 6.066406l-22.832031 123.5 111.914062-57c.980469-.5 2.039062-.746094 3.101562-.746094zm0 0" fill="#4c241d"/><path d="m308.941406 201.921875h-21.71875c-2.941406-17.394531-11.300781-32.929687-23.367187-44.757813l21.4375-21.4375c5.332031-5.328124 5.332031-13.972656 0-19.304687-5.332031-5.335937-13.976563-5.335937-19.3125 0l-24.980469 24.984375c-10.488281-4.875-22.132812-7.675781-34.457031-7.675781-13.101563 0-25.441407 3.152343-36.421875 8.621093l-19.199219-26.386718c-4.4375-6.097656-12.976563-7.445313-19.074219-3.011719-6.097656 4.4375-7.445312 12.980469-3.007812 19.074219l19.175781 26.355468c-11.414063 11.667969-19.3125 26.738282-22.152344 43.539063h-19.039062c-7.539063 0-13.652344 6.113281-13.652344 13.65625v.144531c0 7.539063 6.113281 13.652344 13.652344 13.652344h19.039062c2.839844 16.804688 10.734375 31.875 22.152344 43.539062l-19.175781 26.355469c-4.4375 6.097657-3.09375 14.636719 3.003906 19.074219 6.097656 4.433594 14.636719 3.089844 19.074219-3.007812l19.199219-26.386719c7.074218 3.519531 14.714843 6.039062 22.769531 7.394531v28.535156c0 7.539063 6.113281 13.652344 13.652343 13.652344 7.542969 0 13.65625-6.113281 13.65625-13.652344v-28.535156c7.3125-1.230469 14.28125-3.417969 20.800782-6.445312l24.984375 24.980468c5.332031 5.335938 13.976562 5.335938 19.308593 0 5.335938-5.332031 5.332032-13.972656 0-19.308594l-21.4375-21.4375c12.070313-11.824218 20.429688-27.359374 23.367188-44.757812h21.71875c7.542969 0 13.65625-6.113281 13.65625-13.652344v-.144531c0-7.542969-6.113281-13.65625-13.652344-13.65625zm0 0" fill="#ffce56"/><path d="m206.539062 345.355469c-11.292968 0-20.476562-9.1875-20.476562-20.480469v-22.953125c-4.683594-1.105469-9.269531-2.59375-13.703125-4.445313l-15.921875 21.875c-3.214844 4.425782-7.964844 7.332032-13.371094 8.1875-5.398437.84375-10.8125-.457031-15.238281-3.675781-4.421875-3.210937-7.328125-7.957031-8.179687-13.367187-.855469-5.40625.449218-10.820313 3.667968-15.238282l15.894532-21.847656c-9.222657-10.726562-15.675782-23.421875-18.933594-37.207031h-13.457032c-11.292968 0-20.476562-9.1875-20.476562-20.480469 0-11.4375 9.183594-20.625 20.476562-20.625h13.457032c3.257812-13.789062 9.710937-26.480468 18.933594-37.207031l-15.894532-21.839844c-3.21875-4.429687-4.523437-9.84375-3.667968-15.25.851562-5.40625 3.757812-10.152343 8.1875-13.367187 4.410156-3.226563 9.796874-4.519532 15.230468-3.671875 5.40625.855469 10.15625 3.761719 13.371094 8.1875l15.914062 21.867187c21.332032-8.996094 45.535157-9.207031 67.097657-.523437l21.703125-21.699219c7.988281-7.992188 20.980468-7.988281 28.964844 0 3.867187 3.867188 6 9.007812 6 14.480469 0 5.464843-2.132813 10.613281-5.996094 14.480469l-16.75 16.746093c9.492187 10.851563 16.113281 23.730469 19.429687 37.792969h16.140625c11.292969 0 20.480469 9.1875 20.480469 20.480469 0 11.4375-9.1875 20.625-20.480469 20.625h-16.140625c-3.3125 14.066406-9.9375 26.941406-19.429687 37.789062l16.746094 16.75c7.980468 7.988281 7.980468 20.976563.003906 28.960938-7.988282 7.980469-20.980469 7.988281-28.96875 0l-21.707032-21.707031c-4.035156 1.613281-8.1875 2.929687-12.425781 3.929687v22.953125c0 11.292969-9.1875 20.480469-20.480469 20.480469zm-36.417968-63.234375c1.027344 0 2.066406.234375 3.035156.714844 6.582031 3.273437 13.605469 5.554687 20.859375 6.773437 3.292969.554687 5.699219 3.398437 5.699219 6.734375v28.53125c0 3.769531 3.0625 6.828125 6.824218 6.828125 3.765626 0 6.828126-3.058594 6.828126-6.828125v-28.53125c0-3.335938 2.40625-6.179688 5.691406-6.734375 6.605468-1.113281 13.023437-3.097656 19.066406-5.90625 2.609375-1.199219 5.675781-.652344 7.699219 1.367187l24.984375 24.980469c2.652344 2.660157 6.992187 2.660157 9.65625 0 2.65625-2.660156 2.65625-6.992187-.003906-9.652343l-21.433594-21.441407c-1.289063-1.285156-2.011719-3.039062-2-4.859375.011718-1.824218.746094-3.566406 2.046875-4.839844 11.355469-11.132812 18.757812-25.3125 21.417969-41.019531.550781-3.28125 3.398437-5.6875 6.726562-5.6875h21.722656c3.761719 0 6.824219-3.058593 6.824219-6.824219 0-3.914062-3.0625-6.976562-6.824219-6.976562h-21.722656c-3.328125 0-6.175781-2.40625-6.726562-5.683594-2.660157-15.707031-10.0625-29.890625-21.417969-41.027344-1.300781-1.273437-2.035157-3.023437-2.046875-4.839843-.011719-1.820313.710937-3.574219 2-4.863281l21.4375-21.433594c1.289062-1.285156 1.996094-3.007813 1.996094-4.824219 0-1.828125-.707032-3.539063-1.996094-4.828125-2.660156-2.652344-6.996094-2.671875-9.65625 0l-24.984375 24.980469c-2.023438 2.019531-5.101563 2.574219-7.703125 1.367187-20.753906-9.652344-44.53125-9.304687-64.960938.867188-2.992187 1.472656-6.601562.59375-8.5625-2.097656l-19.199218-26.386719c-1.074219-1.472657-2.65625-2.441407-4.457032-2.730469-1.816406-.265625-3.601562.15625-5.074218 1.230469-1.480469 1.070312-2.449219 2.652343-2.734376 4.453125-.28125 1.804687.152344 3.605468 1.226563 5.085937l19.175781 26.34375c1.957032 2.703125 1.6875 6.414063-.640625 8.792969-10.722656 10.960938-17.742187 24.753906-20.304687 39.910156-.550782 3.277344-3.398438 5.683594-6.726563 5.683594h-19.039062c-3.761719 0-6.828125 3.0625-6.828125 6.828125 0 3.914063 3.066406 6.972656 6.828125 6.972656h19.035156c3.332031 0 6.175781 2.40625 6.730469 5.6875 2.558594 15.152344 9.578125 28.945313 20.300781 39.90625 2.332031 2.382813 2.601563 6.09375.640625 8.792969l-19.175781 26.351562c-1.074219 1.472657-1.507813 3.273438-1.222657 5.082032.28125 1.800781 1.25 3.378906 2.726563 4.453125s3.296875 1.492187 5.082031 1.226562c1.800782-.285156 3.382813-1.253906 4.453125-2.726562l19.203125-26.386719c1.320313-1.820312 3.394532-2.816406 5.523438-2.816406zm0 0" fill="#4c241d"/><path d="m245.832031 215.648438c0 21.703124-17.589843 39.292968-39.292969 39.292968-21.699218 0-39.289062-17.589844-39.289062-39.292968 0-21.699219 17.589844-39.292969 39.289062-39.292969 21.703126 0 39.292969 17.59375 39.292969 39.292969zm0 0" fill="#bd53b5"/><path d="m206.539062 261.769531c-25.425781 0-46.117187-20.6875-46.117187-46.121093 0-25.429688 20.691406-46.117188 46.117187-46.117188 25.429688 0 46.121094 20.6875 46.121094 46.117188 0 25.433593-20.6875 46.121093-46.121094 46.121093zm0-78.585937c-17.902343 0-32.464843 14.566406-32.464843 32.464844 0 17.898437 14.5625 32.464843 32.464843 32.464843 17.90625 0 32.46875-14.566406 32.46875-32.464843 0-17.898438-14.5625-32.464844-32.46875-32.464844zm0 0" fill="#4c241d"/><path d="m240.675781 188.34375c0 7.539062-6.113281 13.652344-13.65625 13.652344-7.539062 0-13.652343-6.113282-13.652343-13.652344 0-7.542969 6.113281-13.652344 13.652343-13.652344 7.542969 0 13.65625 6.109375 13.65625 13.652344zm0 0" fill="#fff"/></svg>