<svg id="beans" enable-background="new 0 0 300 300" height="512" viewBox="0 0 300 300" width="512" xmlns="http://www.w3.org/2000/svg"><g><circle cx="136.701" cy="152.945" fill="#edebdc" r="92"/><g fill="#4c241d"><path d="m236.701 72.945c-2.211 0-4-1.791-4-4v-8c0-2.209 1.789-4 4-4s4 1.791 4 4v8c0 2.209-1.79 4-4 4z"/><path d="m236.701 96.945c-2.211 0-4-1.791-4-4v-8c0-2.209 1.789-4 4-4s4 1.791 4 4v8c0 2.209-1.79 4-4 4z"/><path d="m228.701 80.945h-8c-2.211 0-4-1.791-4-4s1.789-4 4-4h8c2.211 0 4 1.791 4 4s-1.79 4-4 4z"/><path d="m252.701 80.945h-8c-2.211 0-4-1.791-4-4s1.789-4 4-4h8c2.211 0 4 1.791 4 4s-1.79 4-4 4z"/><path d="m110.701 60.945c-7.719 0-14-6.281-14-14s6.281-14 14-14 14 6.281 14 14-6.282 14-14 14zm0-20c-3.309 0-6 2.691-6 6s2.691 6 6 6 6-2.691 6-6-2.692-6-6-6z"/><circle cx="227.321" cy="142.85" r="4.276"/><circle cx="183.321" cy="42.85" r="4.276"/></g><g><path d="m155.3 259.46c-2.281-.549-35.086-8.997-24.088-32.826 8.712-18.876 27.616-18.295 40.158-15.402 12.214 2.817 25.184-2.825 30.417-14.215.68-1.48 1.245-3.045 1.656-4.693 1.966-7.893 8.581-13.902 16.714-14.041 8.637-.147 17.97 4.822 20.278 25.596.046.414.089.825.128 1.234 3.108 32.159-25.158 57.928-55.543 57.941-10.201.005-21.026-1.503-29.72-3.594z" fill="#bf7e68"/><path d="m184.982 267.055c-9.664 0-20.82-1.35-30.613-3.705 0 0 0 0-.004 0-2.129-.512-21.012-5.389-27.336-18.447-2.941-6.068-2.754-12.777.551-19.943 7.512-16.281 23.387-22.539 44.688-17.625 10.695 2.471 21.562-2.578 25.887-11.986.602-1.314 1.074-2.658 1.406-3.988 2.465-9.891 10.906-16.912 20.531-17.076 7.699-.137 21.469 3.479 24.32 29.156l.133 1.293c1.48 15.334-3.605 30.287-14.328 42.1-11.488 12.654-28.383 20.215-45.195 20.223-.013-.002-.025-.002-.04-.002zm-28.746-11.483c9.207 2.213 19.684 3.482 28.746 3.482h.039c14.594-.006 29.273-6.586 39.27-17.6 9.188-10.123 13.555-22.893 12.293-35.957l-.121-1.166c-2.48-22.277-12.805-22.119-16.238-22.049-6.008.102-11.312 4.629-12.898 11.008-.453 1.812-1.094 3.629-1.902 5.395-5.898 12.838-20.609 19.746-34.953 16.445-12.188-2.812-28.25-2.805-35.625 13.18-2.289 4.955-2.488 9.242-.617 13.104 3.844 7.936 16.078 12.73 22.012 14.158z" fill="#4c241d"/></g><g><path d="m102.711 136.234c2.244-.683 34.804-10.033 37.405 16.083 2.06 20.687-14.53 29.77-26.806 33.634-11.956 3.763-20.276 15.203-19.012 27.673.164 1.62.471 3.256.952 4.885 2.306 7.8-.348 16.334-7.289 20.576-7.371 4.506-17.934 4.953-30.455-11.783-.249-.333-.495-.666-.736-.998-18.982-26.144-7.682-62.687 18.502-78.101 8.79-5.176 18.886-9.364 27.439-11.969z" fill="#914d41"/><path d="m79.052 245.721c-6.844 0-15.449-3.594-24.75-16.021l-.762-1.037c-9.059-12.477-12.254-27.943-9-43.562 3.484-16.732 14.215-31.814 28.703-40.344 8.344-4.912 18.66-9.414 28.305-12.348 2.109-.641 20.84-6.012 32.914 2.039 5.609 3.738 8.852 9.617 9.633 17.473 1.777 17.84-8.727 31.281-29.582 37.846-10.453 3.291-17.281 13.154-16.234 23.455.145 1.441.418 2.836.809 4.146 2.887 9.779-.828 20.109-9.039 25.129-2.677 1.636-6.446 3.222-10.997 3.224zm38.422-107.655c-5.273 0-10.461 1.039-13.594 1.994-.004 0-.004 0-.004 0-9.062 2.76-18.75 6.982-26.578 11.59-12.574 7.404-21.895 20.518-24.926 35.08-2.789 13.383-.078 26.604 7.637 37.225l.699.951c13.414 17.934 22.266 12.541 25.168 10.766 5.125-3.135 7.402-9.727 5.539-16.031-.531-1.783-.902-3.676-1.098-5.613-1.426-14.055 7.738-27.469 21.793-31.893 11.922-3.754 25.77-11.904 24.023-29.422-.539-5.432-2.539-9.229-6.109-11.609-3.398-2.266-8.003-3.038-12.55-3.038zm-14.762-1.832h.039z" fill="#4c241d"/></g><g><circle cx="174.701" cy="166.945" fill="#bf7e68" r="14"/><path d="m174.701 184.945c-9.926 0-18-8.074-18-18s8.074-18 18-18 18 8.074 18 18-8.075 18-18 18zm0-28c-5.516 0-10 4.486-10 10s4.484 10 10 10 10-4.486 10-10-4.485-10-10-10z" fill="#4c241d"/></g><g><circle cx="66.701" cy="98.945" fill="#d9be6f" r="14"/><path d="m66.701 116.945c-9.926 0-18-8.074-18-18s8.074-18 18-18 18 8.074 18 18-8.075 18-18 18zm0-28c-5.516 0-10 4.486-10 10s4.484 10 10 10 10-4.486 10-10-4.485-10-10-10z" fill="#4c241d"/></g><g><circle cx="154.701" cy="98.945" fill="#6b4f5b" r="14"/><path d="m154.701 116.945c-9.926 0-18-8.074-18-18s8.074-18 18-18 18 8.074 18 18-8.075 18-18 18zm0-28c-5.516 0-10 4.486-10 10s4.484 10 10 10 10-4.486 10-10-4.485-10-10-10z" fill="#4c241d"/></g><g><path d="m144.701 232.945c0-6.627 5.373-12 12-12" fill="#bf7e68"/><path d="m144.701 236.945c-2.211 0-4-1.791-4-4 0-8.822 7.176-16 16-16 2.211 0 4 1.791 4 4s-1.789 4-4 4c-4.41 0-8 3.588-8 8 0 2.209-1.79 4-4 4z" fill="#4c241d"/></g><path d="m112.701 172.945c-2.211 0-4-1.791-4-4s1.789-4 4-4c4.41 0 8-3.588 8-8 0-2.209 1.789-4 4-4s4 1.791 4 4c0 8.823-7.176 16-16 16z" fill="#4c241d"/></g></svg>