<svg id="gree-beans-bowl" enable-background="new 0 0 300 300" height="512" viewBox="0 0 300 300" width="512" xmlns="http://www.w3.org/2000/svg"><g><circle cx="170.711" cy="124" fill="#edebdc" r="92"/><g><circle cx="84.711" cy="102" fill="#a9ba5a" r="20"/><path d="m84.711 126c-13.234 0-24-10.766-24-24s10.766-24 24-24 24 10.766 24 24-10.766 24-24 24zm0-40c-8.822 0-16 7.178-16 16s7.178 16 16 16 16-7.178 16-16-7.178-16-16-16z" fill="#4c241d"/></g><g><circle cx="94.711" cy="132" fill="#77a052" r="20"/><path d="m94.711 156c-13.234 0-24-10.766-24-24s10.766-24 24-24 24 10.766 24 24-10.766 24-24 24zm0-40c-8.822 0-16 7.178-16 16s7.178 16 16 16 16-7.178 16-16-7.178-16-16-16z" fill="#4c241d"/></g><g><circle cx="122.711" cy="112" fill="#77a052" r="20"/><path d="m122.711 136c-13.234 0-24-10.766-24-24s10.766-24 24-24 24 10.766 24 24-10.766 24-24 24zm0-40c-8.822 0-16 7.178-16 16s7.178 16 16 16 16-7.178 16-16-7.178-16-16-16z" fill="#4c241d"/></g><g><circle cx="142.711" cy="136" fill="#a9ba5a" r="20"/><path d="m142.711 160c-13.234 0-24-10.766-24-24s10.766-24 24-24 24 10.766 24 24-10.766 24-24 24zm0-40c-8.822 0-16 7.178-16 16s7.178 16 16 16 16-7.178 16-16-7.178-16-16-16z" fill="#4c241d"/></g><g><circle cx="162.711" cy="80" fill="#77a052" r="20"/><path d="m162.711 104c-13.234 0-24-10.766-24-24s10.766-24 24-24 24 10.766 24 24-10.766 24-24 24zm0-40c-8.822 0-16 7.178-16 16s7.178 16 16 16 16-7.178 16-16-7.178-16-16-16z" fill="#4c241d"/></g><g><circle cx="122.711" cy="140" fill="#77a052" r="20"/><path d="m122.711 164c-13.234 0-24-10.766-24-24s10.766-24 24-24 24 10.766 24 24-10.766 24-24 24zm0-40c-8.822 0-16 7.178-16 16s7.178 16 16 16 16-7.178 16-16-7.178-16-16-16z" fill="#4c241d"/></g><g><circle cx="150.711" cy="100" fill="#77a052" r="20"/><path d="m150.711 124c-13.234 0-24-10.766-24-24s10.766-24 24-24 24 10.766 24 24-10.766 24-24 24zm0-40c-8.822 0-16 7.178-16 16s7.178 16 16 16 16-7.178 16-16-7.178-16-16-16z" fill="#4c241d"/></g><g><circle cx="66.711" cy="140" fill="#a9ba5a" r="20"/><path d="m66.711 164c-13.234 0-24-10.766-24-24s10.766-24 24-24 24 10.766 24 24-10.766 24-24 24zm0-40c-8.822 0-16 7.178-16 16s7.178 16 16 16 16-7.178 16-16-7.178-16-16-16z" fill="#4c241d"/></g><g><circle cx="110.711" cy="80" fill="#a9ba5a" r="20"/><path d="m110.711 104c-13.234 0-24-10.766-24-24s10.766-24 24-24 24 10.766 24 24-10.766 24-24 24zm0-40c-8.822 0-16 7.178-16 16s7.178 16 16 16 16-7.178 16-16-7.178-16-16-16z" fill="#4c241d"/></g><g><circle cx="182.711" cy="116" fill="#a9ba5a" r="20"/><path d="m182.711 140c-13.234 0-24-10.766-24-24s10.766-24 24-24 24 10.766 24 24-10.766 24-24 24zm0-40c-8.822 0-16 7.178-16 16s7.178 16 16 16 16-7.178 16-16-7.178-16-16-16z" fill="#4c241d"/></g><g><circle cx="210.711" cy="152" fill="#77a052" r="20"/><path d="m210.711 176c-13.234 0-24-10.766-24-24s10.766-24 24-24 24 10.766 24 24-10.766 24-24 24zm0-40c-8.822 0-16 7.178-16 16s7.178 16 16 16 16-7.178 16-16-7.178-16-16-16z" fill="#4c241d"/></g><g><circle cx="230.711" cy="148" fill="#a9ba5a" r="20"/><path d="m230.711 172c-13.234 0-24-10.766-24-24s10.766-24 24-24 24 10.766 24 24-10.766 24-24 24zm0-40c-8.822 0-16 7.178-16 16s7.178 16 16 16 16-7.178 16-16-7.178-16-16-16z" fill="#4c241d"/></g><g><circle cx="174.711" cy="148" fill="#77a052" r="20"/><path d="m174.711 172c-13.234 0-24-10.766-24-24s10.766-24 24-24 24 10.766 24 24-10.766 24-24 24zm0-40c-8.822 0-16 7.178-16 16s7.178 16 16 16 16-7.178 16-16-7.178-16-16-16z" fill="#4c241d"/></g><g><path d="m146.711 264c-59.647 0-108-48.353-108-108v-4h216v4c0 59.647-48.353 108-108 108z" fill="#fff"/><path d="m146.711 268c-61.758 0-112-50.242-112-112v-4c0-2.209 1.791-4 4-4h216c2.209 0 4 1.791 4 4v4c0 61.758-50.242 112-112 112zm-104-112c0 57.346 46.654 104 104 104s104-46.654 104-104z" fill="#4c241d"/></g><path d="m230.711 268h-84c-2.209 0-4-1.791-4-4s1.791-4 4-4h84c2.209 0 4 1.791 4 4s-1.791 4-4 4z" fill="#4c241d"/><g><path d="m103.31 237.652c7.661 3.89 15.915 6.782 24.589 8.505" fill="#fff"/><path d="m127.902 250.158c-.258 0-.521-.025-.783-.076-8.908-1.771-17.529-4.754-25.619-8.863-1.971-1-2.756-3.408-1.756-5.377s3.41-2.756 5.377-1.756c7.439 3.779 15.365 6.52 23.557 8.148 2.168.432 3.574 2.537 3.145 4.703-.38 1.905-2.052 3.221-3.921 3.221z" fill="#4c241d"/></g><g><path d="m68.733 208.008c6.535 9.083 14.618 16.977 23.863 23.298" fill="#fff"/><path d="m92.592 235.305c-.777 0-1.562-.227-2.254-.697-9.658-6.604-18.02-14.768-24.852-24.264-1.291-1.793-.883-4.293.91-5.582 1.795-1.299 4.291-.885 5.582.91 6.291 8.74 13.986 16.254 22.875 22.33 1.824 1.248 2.291 3.736 1.045 5.561-.775 1.132-2.029 1.742-3.306 1.742z" fill="#4c241d"/></g><g fill="#4c241d"><path d="m251.289 64.648c-7.719 0-14-6.281-14-14s6.281-14 14-14 14 6.281 14 14-6.281 14-14 14zm0-20c-3.309 0-6 2.691-6 6s2.691 6 6 6 6-2.691 6-6-2.691-6-6-6z"/><circle cx="233.618" cy="87.04" r="4.276"/><circle cx="57.618" cy="55.04" r="4.276"/></g></g></svg>