<svg id="onion" enable-background="new 0 0 300 300" height="512" viewBox="0 0 300 300" width="512" xmlns="http://www.w3.org/2000/svg"><g><circle cx="130.947" cy="150.527" fill="#edebdc" r="92"/><g fill="#4c241d"><path d="m242.461 78c-2.211 0-4-1.791-4-4v-8c0-2.209 1.789-4 4-4s4 1.791 4 4v8c0 2.209-1.789 4-4 4z"/><path d="m242.461 102c-2.211 0-4-1.791-4-4v-8c0-2.209 1.789-4 4-4s4 1.791 4 4v8c0 2.209-1.789 4-4 4z"/><path d="m234.461 86h-8c-2.211 0-4-1.791-4-4s1.789-4 4-4h8c2.211 0 4 1.791 4 4s-1.789 4-4 4z"/><path d="m258.461 86h-8c-2.211 0-4-1.791-4-4s1.789-4 4-4h8c2.211 0 4 1.791 4 4s-1.789 4-4 4z"/><path d="m88.461 62c-7.719 0-14-6.281-14-14s6.281-14 14-14 14 6.281 14 14-6.281 14-14 14zm0-20c-3.309 0-6 2.691-6 6s2.691 6 6 6 6-2.691 6-6-2.691-6-6-6z"/><circle cx="41.854" cy="101.566" r="4.276"/><circle cx="173.854" cy="101.566" r="4.276"/></g><g><path d="m186.461 193.474c0 37.846-32.442 68.526-72.46 68.526s-72.46-30.68-72.46-68.526 32.205-87.215 72.46-93.445c34.888 12.459 72.46 55.599 72.46 93.445z" fill="#ffce56"/><path d="m114 266c-42.16 0-76.461-32.535-76.461-72.525 0-39.613 33.133-90.789 75.848-97.398.656-.104 1.328-.037 1.957.186 35.461 12.662 75.117 56.926 75.117 97.213 0 39.989-34.301 72.524-76.461 72.524zm-.387-161.854c-37.797 6.59-68.074 53.945-68.074 89.328 0 35.581 30.711 64.526 68.461 64.526s68.461-28.945 68.461-64.525c0-36.106-36.789-77.329-68.848-89.329z" fill="#4c241d"/></g><path d="m110.871 265.15c-1.441 0-2.832-.779-3.547-2.143-28.664-54.697-28.508-110.16.457-164.852 1.035-1.955 3.453-2.697 5.406-1.662s2.699 3.455 1.664 5.408c-27.656 52.219-27.805 105.172-.441 157.391 1.027 1.957.27 4.375-1.688 5.4-.589.312-1.226.458-1.851.458z" fill="#4c241d"/><path d="m102.578 265.15c-1.176 0-2.34-.514-3.129-1.502-42.504-53.162-43.207-110.832-1.98-162.389 1.379-1.725 3.895-2.008 5.625-.625 1.723 1.379 2.004 3.896.625 5.621-38.652 48.336-37.949 102.457 1.98 152.396 1.379 1.725 1.098 4.242-.629 5.623-.734.589-1.617.876-2.492.876z" fill="#4c241d"/><path d="m115.625 265.15c-.625 0-1.262-.146-1.852-.457-1.957-1.025-2.715-3.443-1.688-5.4 27.367-52.215 27.219-105.168-.441-157.391-1.035-1.953-.289-4.373 1.664-5.408 1.949-1.035 4.371-.287 5.406 1.662 28.969 54.695 29.121 110.158.457 164.852-.714 1.363-2.105 2.142-3.546 2.142z" fill="#4c241d"/><path d="m123.918 265.15c-.875 0-1.758-.287-2.496-.875-1.723-1.381-2.004-3.898-.625-5.623 38.934-48.689 40.559-101.625 4.582-149.057-1.336-1.762-.988-4.27.77-5.605 1.762-1.338 4.266-.988 5.605.77 38.406 50.635 36.734 107.062-4.707 158.889-.789.988-1.953 1.501-3.129 1.501z" fill="#4c241d"/><g><path d="m258.461 186c0 33.836-26.692 61.266-59.619 61.266s-59.618-27.43-59.618-61.266z" fill="#ffec95"/><path d="m198.844 251.266c-35.082 0-63.621-29.277-63.621-65.266 0-2.209 1.789-4 4-4h119.238c2.211 0 4 1.791 4 4 0 35.988-28.539 65.266-63.617 65.266zm-55.489-61.266c2.004 29.717 26.125 53.266 55.488 53.266 29.359 0 53.48-23.549 55.484-53.266z" fill="#4c241d"/></g><path d="m198.844 234.203c-25.672 0-46.559-20.885-46.559-46.557 0-2.209 1.789-4 4-4s4 1.791 4 4c0 21.26 17.297 38.557 38.559 38.557 21.258 0 38.555-17.297 38.555-38.557 0-2.209 1.789-4 4-4s4 1.791 4 4c-.001 25.672-20.883 46.557-46.555 46.557z" fill="#4c241d"/><path d="m198.844 216.979c-16.172 0-29.332-13.158-29.332-29.332 0-2.209 1.789-4 4-4s4 1.791 4 4c0 11.762 9.57 21.332 21.332 21.332s21.328-9.57 21.328-21.332c0-2.209 1.789-4 4-4s4 1.791 4 4c0 16.173-13.156 29.332-29.328 29.332z" fill="#4c241d"/><path d="m198.844 202.371c-8.121 0-14.727-6.605-14.727-14.725 0-2.209 1.789-4 4-4s4 1.791 4 4c0 3.707 3.016 6.725 6.727 6.725 3.707 0 6.723-3.018 6.723-6.725 0-2.209 1.789-4 4-4s4 1.791 4 4c-.001 8.12-6.606 14.725-14.723 14.725z" fill="#4c241d"/><g><path d="m114.001 100.029 8.46-22.029" fill="#ffec95"/><path d="m114 104.031c-.477 0-.961-.086-1.434-.268-2.062-.793-3.094-3.105-2.301-5.168l8.461-22.029c.793-2.064 3.102-3.092 5.168-2.301 2.062.793 3.094 3.105 2.301 5.168l-8.461 22.029c-.609 1.593-2.129 2.569-3.734 2.569z" fill="#4c241d"/></g><g><path d="m118.231 101.489 16.23-11.489" fill="#ffec95"/><path d="m118.234 105.49c-1.254 0-2.488-.588-3.27-1.689-1.277-1.803-.848-4.299.953-5.576l16.23-11.49c1.812-1.275 4.301-.848 5.578.955s.848 4.299-.953 5.576l-16.23 11.49c-.702.496-1.511.734-2.308.734z" fill="#4c241d"/></g><g><path d="m114.921 100.029-8.46-22.029" fill="#ffec95"/><path d="m114.922 104.031c-1.605 0-3.125-.977-3.734-2.568l-8.461-22.029c-.793-2.062.238-4.375 2.301-5.168 2.062-.791 4.375.236 5.168 2.301l8.461 22.029c.793 2.062-.238 4.375-2.301 5.168-.473.181-.958.267-1.434.267z" fill="#4c241d"/></g><g><path d="m110.691 101.489-16.23-11.489" fill="#ffec95"/><path d="m110.688 105.49c-.797 0-1.605-.238-2.309-.734l-16.23-11.49c-1.801-1.277-2.23-3.773-.953-5.576s3.77-2.23 5.578-.955l16.23 11.49c1.801 1.277 2.23 3.773.953 5.576-.781 1.101-2.016 1.689-3.269 1.689z" fill="#4c241d"/></g></g></svg>