<svg id="sweet_x5F_potato" enable-background="new 0 0 300 300" height="512" viewBox="0 0 300 300" width="512" xmlns="http://www.w3.org/2000/svg"><g><path d="m248 59.997c-2.211 0-4-1.791-4-4v-8c0-2.209 1.789-4 4-4s4 1.791 4 4v8c0 2.209-1.789 4-4 4z" fill="#4c241d"/><path d="m248 83.997c-2.211 0-4-1.791-4-4v-8c0-2.209 1.789-4 4-4s4 1.791 4 4v8c0 2.209-1.789 4-4 4z" fill="#4c241d"/><path d="m240 67.997h-8c-2.211 0-4-1.791-4-4s1.789-4 4-4h8c2.211 0 4 1.791 4 4s-1.789 4-4 4z" fill="#4c241d"/><path d="m264 67.997h-8c-2.211 0-4-1.791-4-4s1.789-4 4-4h8c2.211 0 4 1.791 4 4s-1.789 4-4 4z" fill="#4c241d"/><circle cx="124" cy="147.997" fill="#edebdc" r="92"/><path d="m70 239.997c-7.719 0-14-6.281-14-14s6.281-14 14-14 14 6.281 14 14-6.281 14-14 14zm0-20c-3.309 0-6 2.691-6 6s2.691 6 6 6 6-2.691 6-6-2.691-6-6-6z" fill="#4c241d"/><g><path d="m213.497 111.328c-40.584-40.584-84.852-39.598-121.058-36.206l-6.221-6.221c-3.124-3.124-8.19-3.124-11.314 0s-3.124 8.189 0 11.314l6.221 6.221c-6.221 33.377-4.379 80.474 36.206 121.059 40.584 40.584 92.556 55.479 121.059 36.206l3.392 3.392c3.124 3.124 8.19 3.124 11.314 0s3.124-8.19 0-11.314l-3.392-3.392c19.273-28.503 4.378-80.475-36.207-121.059z" fill="#fc8c29"/><path d="m208.336 256.003c-29.086 0-64.617-16.465-93.832-45.68-41.309-41.307-43.492-89.045-37.688-122.537l-4.738-4.742c-4.68-4.678-4.68-12.293 0-16.971 4.531-4.533 12.441-4.533 16.969 0l4.895 4.895c38.016-3.426 81.715-3.139 122.383 37.531 40.234 40.232 56.285 92.447 38.457 123.309l1.141 1.143c4.68 4.678 4.68 12.291 0 16.971-4.531 4.527-12.438 4.533-16.969.002l-1.141-1.145c-8.454 4.882-18.508 7.224-29.477 7.224zm-127.774-185.445c-1.07 0-2.074.416-2.828 1.172-1.559 1.561-1.559 4.098 0 5.658l6.219 6.221c.934.934 1.344 2.264 1.105 3.561-5.906 31.686-4.605 77.789 35.102 117.498 38.828 38.828 88.695 54.18 115.988 35.719 1.594-1.072 3.715-.869 5.07.486l3.391 3.393c1.512 1.512 4.152 1.508 5.656 0 1.559-1.561 1.559-4.098 0-5.658l-3.391-3.393c-1.355-1.355-1.559-3.482-.484-5.068 18.461-27.301 3.102-77.164-35.723-115.99-38.883-38.885-81.219-38.48-117.855-35.051-1.18.102-2.359-.312-3.203-1.154l-6.219-6.221c-.753-.757-1.761-1.173-2.828-1.173z" fill="#4c241d"/></g><g fill="#4c241d"><circle cx="195.53" cy="203.292" r="4.276"/><circle cx="131.53" cy="99.292" r="4.276"/><circle cx="235.128" cy="180.665" r="4.276"/><circle cx="179.556" cy="116.985" r="4"/><circle cx="196.527" cy="156.583" r="4"/><circle cx="238.953" cy="204.666" r="4"/><circle cx="219.154" cy="167.897" r="4"/><circle cx="221.983" cy="193.352" r="4"/><circle cx="156.929" cy="111.328" r="4"/><circle cx="165.414" cy="102.843" r="4"/><path d="m120.16 164.925c-3.742 0-7.258-1.455-9.898-4.1-2.645-2.643-4.102-6.158-4.102-9.898s1.457-7.256 4.102-9.9c1.562-1.562 4.094-1.562 5.656 0s1.562 4.094 0 5.656c-1.133 1.135-1.758 2.641-1.758 4.244 0 1.602.625 3.109 1.758 4.24 2.266 2.268 6.215 2.271 8.484 0 1.562-1.559 4.094-1.561 5.656.002s1.562 4.096 0 5.658c-2.644 2.643-6.16 4.098-9.898 4.098z"/><path d="m197.793 236.349c-4.438 0-8.805-2.098-11.52-6.01-1.262-1.816-.809-4.309 1.004-5.568 1.816-1.262 4.305-.809 5.566 1.006 1.887 2.715 5.637 3.395 8.352 1.506 1.316-.912 2.195-2.285 2.48-3.861.285-1.578-.062-3.17-.977-4.486-1.262-1.814-.812-4.309 1.004-5.568 1.812-1.256 4.305-.812 5.566 1.002 2.133 3.072 2.945 6.791 2.281 10.473-.664 3.68-2.723 6.881-5.793 9.014-2.428 1.683-5.209 2.492-7.963 2.492z"/><path d="m214.047 150.372c-.352 0-.707-.047-1.059-.145-2.133-.582-3.387-2.781-2.805-4.912.875-3.193-1.012-6.5-4.199-7.375-3.203-.871-6.5 1.01-7.371 4.203-.586 2.131-2.793 3.381-4.918 2.799-2.129-.584-3.383-2.785-2.801-4.916 2.043-7.445 9.754-11.84 17.203-9.801 7.441 2.037 11.84 9.754 9.805 17.199-.488 1.778-2.097 2.946-3.855 2.948z"/></g></g></svg>