<svg height="404pt" viewBox="0 -6 404.66869 404" width="404pt" xmlns="http://www.w3.org/2000/svg"><path d="m323.316406 214.988281c0 84.832031-68.769531 153.597657-153.601562 153.597657-84.832032 0-153.601563-68.765626-153.601563-153.597657s68.769531-153.601562 153.601563-153.601562c84.832031 0 153.601562 68.769531 153.601562 153.601562zm0 0" fill="#c1dbdc"/><g fill="#4c241d"><path d="m38.945312 359.40625c-1.746093 0-3.492187-.664062-4.828124-2-2.664063-2.664062-2.664063-6.984375 0-9.652344l13.769531-13.765625c2.664062-2.664062 6.984375-2.664062 9.652343 0 2.664063 2.667969 2.664063 6.988281 0 9.652344l-13.765624 13.765625c-1.335938 1.335938-3.082032 2-4.828126 2zm0 0"/><path d="m6.824219 391.535156c-1.746094 0-3.492188-.667968-4.824219-2-2.667969-2.667968-2.667969-6.988281 0-9.65625l13.765625-13.765625c2.664063-2.664062 6.988281-2.664062 9.652344 0 2.667969 2.667969 2.667969 6.988281 0 9.65625l-13.765625 13.765625c-1.332032 1.332032-3.082032 2-4.828125 2zm0 0"/><path d="m20.589844 359.40625c-1.742188 0-3.492188-.664062-4.824219-2l-13.765625-13.765625c-2.667969-2.664063-2.667969-6.984375 0-9.652344 2.664062-2.664062 6.988281-2.664062 9.652344 0l13.765625 13.765625c2.667969 2.667969 2.667969 6.988282 0 9.652344-1.332031 1.335938-3.078125 2-4.828125 2zm0 0"/><path d="m52.714844 391.535156c-1.746094 0-3.496094-.667968-4.828125-2l-13.765625-13.765625c-2.667969-2.667969-2.667969-6.988281 0-9.65625 2.664062-2.664062 6.988281-2.664062 9.652344 0l13.765624 13.765625c2.667969 2.667969 2.667969 6.988282 0 9.65625-1.335937 1.332032-3.082031 2-4.824218 2zm0 0"/><path d="m383.574219 352.695312c-3.421875 0-6.804688-.839843-9.90625-2.492187-4.960938-2.65625-8.589844-7.085937-10.21875-12.476563-1.628907-5.371093-1.070313-11.070312 1.582031-16.03125 2.65625-4.960937 7.078125-8.585937 12.460938-10.222656 11.121093-3.359375 22.894531 2.933594 26.261718 14.046875 1.628906 5.378907 1.070313 11.082031-1.582031 16.039063-2.65625 4.960937-7.078125 8.585937-12.460937 10.21875-2.023438.617187-4.085938.917968-6.136719.917968zm.023437-28.472656c-.710937 0-1.429687.105469-2.144531.320313-3.90625 1.183593-6.121094 5.324219-4.9375 9.230469.574219 1.894531 1.851563 3.453124 3.59375 4.386718 1.738281.933594 3.75 1.121094 5.640625.554688 1.886719-.574219 3.445312-1.847656 4.378906-3.59375.929688-1.746094 1.128906-3.746094.554688-5.640625-.96875-3.191407-3.910156-5.257813-7.085938-5.257813zm0 0"/><path d="m48.929688 55.714844c-11.609376 0-21.058594-9.445313-21.058594-21.054688 0-11.613281 9.449218-21.058594 21.058594-21.058594 11.609374 0 21.054687 9.445313 21.054687 21.058594 0 11.609375-9.445313 21.054688-21.054687 21.054688zm0-28.460938c-4.085938 0-7.402344 3.320313-7.402344 7.40625 0 4.082032 3.316406 7.402344 7.402344 7.402344 4.082031 0 7.402343-3.320312 7.402343-7.402344 0-4.085937-3.320312-7.40625-7.402343-7.40625zm0 0"/><path d="m354.246094 44.027344c-1.746094 0-3.496094-.667969-4.828125-2-2.664063-2.664063-2.664063-6.988282 0-9.652344l30.042969-30.042969c2.664062-2.664062 6.984374-2.664062 9.652343 0 2.664063 2.667969 2.664063 6.988281 0 9.65625l-30.042969 30.039063c-1.332031 1.335937-3.078124 2-4.824218 2zm0 0"/></g><path d="m179.957031 102.347656s-61.441406-47.785156 20.476563-81.917968c0 0-47.785156 40.957031 6.828125 75.089843 0 0-29.894531 4.238281-27.304688 6.828125zm0 0" fill="#b5a19c"/><path d="m179.953125 109.175781c-1.472656 0-2.949219-.472656-4.1875-1.441406-1.148437-.886719-27.980469-22.09375-24.433594-48.574219 2.417969-18.039062 18.054688-33.191406 46.476563-45.035156 3.097656-1.316406 6.679687-.136719 8.441406 2.722656 1.757812 2.859375 1.175781 6.578125-1.371094 8.761719-.175781.152344-18.304687 16.058594-16.890625 34.304687.835938 10.8125 8.539063 20.847657 22.890625 29.820313 2.433594 1.523437 3.65625 4.394531 3.058594 7.203125-.59375 2.804688-2.875 4.9375-5.714844 5.34375-8.570312 1.214844-18.898437 3.121094-22.976562 4.382812-.054688.066407-.113282.132813-.171875.199219-1.34375 1.523438-3.226563 2.3125-5.121094 2.3125zm-2.421875-67.878906c-7.445312 6.171875-11.746094 12.796875-12.667969 19.679687-1.851562 13.820313 9.714844 26.984376 15.769531 32.832032 2.339844-.789063 5.503907-1.589844 9.816407-2.441406-9.847657-9.121094-15.242188-19.328126-16.082031-30.484376-.527344-7.0625.867187-13.6875 3.164062-19.585937zm0 0" fill="#4c241d"/><path d="m384.285156 44.027344c-1.746094 0-3.492187-.667969-4.824218-2l-30.042969-30.039063c-2.664063-2.667969-2.664063-6.988281 0-9.65625 2.667969-2.664062 6.988281-2.664062 9.652343 0l30.042969 30.042969c2.664063 2.664062 2.664063 6.988281 0 9.652344-1.332031 1.335937-3.082031 2-4.828125 2zm0 0" fill="#4c241d"/><path d="m78.492188 156.613281c-10.785157 17.40625-17.992188 37.410157-20.480469 59.105469-9.023438 78.660156 47.429687 149.738281 126.085937 158.761719 78.660156 9.023437 149.742188-47.429688 158.765625-126.089844 9.023438-78.65625-47.429687-149.738281-126.089843-158.761719-36.046876-4.132812-70.5 5.480469-98.121094 24.683594" fill="#b5a19c"/><path d="m200.542969 382.246094c-5.695313 0-11.429688-.320313-17.21875-.984375-39.859375-4.566407-75.550781-24.386719-100.5-55.800781-24.949219-31.417969-36.167969-70.664063-31.597657-110.527344 2.546876-22.21875 9.773438-43.046875 21.460938-61.910156 1.988281-3.214844 6.191406-4.214844 9.402344-2.207032 3.203125 1.980469 4.191406 6.191406 2.203125 9.390625-10.621094 17.148438-17.183594 36.082031-19.5 56.289063-4.160157 36.230468 6.042969 71.914062 28.726562 100.472656 22.679688 28.558594 55.125 46.574219 91.355469 50.734375 74.824219 8.511719 142.625-45.292969 151.203125-120.085937 4.15625-36.234376-6.042969-71.914063-28.726563-100.472657-22.679687-28.5625-55.128906-46.574219-91.355468-50.734375-33.023438-3.78125-66.203125 4.566406-93.453125 23.503906-3.089844 2.160157-7.34375 1.394532-9.5-1.714843-2.152344-3.089844-1.386719-7.34375 1.710937-9.496094 29.976563-20.839844 66.5-30.035156 102.792969-25.855469 39.859375 4.570313 75.546875 24.386719 100.5 55.800782 24.949219 31.417968 36.167969 70.667968 31.597656 110.527343-8.777343 76.480469-73.886719 133.066407-149.101562 133.070313zm0 0" fill="#4c241d"/><path d="m90.902344 146.359375c-1.558594 0-3.125-.53125-4.40625-1.617187-2.878906-2.433594-3.234375-6.742188-.800782-9.621094 3.292969-3.886719 6.808594-7.640625 10.460938-11.152344 2.71875-2.621094 7.035156-2.527344 9.652344.171875 2.617187 2.722656 2.535156 7.042969-.179688 9.652344-3.320312 3.203125-6.519531 6.613281-9.511718 10.15625-1.351563 1.59375-3.277344 2.410156-5.214844 2.410156zm0 0" fill="#4c241d"/><path d="m203.847656 310.265625c-27.5 0-49.039062-13.363281-49.039062-30.425781 0-3.773438 3.058594-6.824219 6.828125-6.824219s6.824219 3.050781 6.824219 6.824219c0 7.921875 15.132812 16.773437 35.386718 16.773437s35.386719-8.851562 35.386719-16.773437c0-3.773438 3.058594-6.824219 6.828125-6.824219s6.824219 3.050781 6.824219 6.824219c.003906 17.0625-21.539063 30.425781-49.039063 30.425781zm0 0" fill="#4c241d"/><path d="m26.777344 128.601562c0 6.289063-5.097656 11.386719-11.382813 11.386719-6.289062 0-11.386719-5.097656-11.386719-11.386719 0-6.285156 5.097657-11.382812 11.386719-11.382812 6.285157 0 11.382813 5.097656 11.382813 11.382812zm0 0" fill="#4c241d"/><path d="m343.738281 243.421875c.007813-.378906.058594-.746094.058594-1.128906h-.117187c-1.195313-30.988281-26.625-55.765625-57.910157-55.765625-20.550781 0-38.570312 10.703125-48.863281 26.828125-7.164062 11.21875-19.433594 18.621093-32.746094 18.699219-.101562 0-.207031 0-.3125 0-.105468 0-.210937 0-.316406 0-13.308594-.082032-25.574219-7.472657-32.734375-18.691407-10.292969-16.128906-28.3125-26.835937-48.871094-26.835937-31.285156 0-56.714843 24.777344-57.910156 55.765625h-.117187c0 .382812.050781.75.058593 1.128906-.007812.382813-.058593.75-.058593 1.128906h.117187c1.195313 30.996094 26.625 55.769531 57.910156 55.769531 20.554688 0 38.578125-10.707031 48.871094-26.839843 7.160156-11.214844 19.425781-18.609375 32.734375-18.691407h.316406.3125c13.3125.082032 25.582032 7.480469 32.746094 18.703126 10.292969 16.121093 28.3125 26.828124 48.863281 26.828124 31.285157 0 56.714844-24.777343 57.910157-55.769531h.117187c0-.378906-.050781-.746093-.058594-1.128906zm0 0" fill="#fff"/><path d="m285.769531 307.148438c-22.210937 0-42.628906-11.207032-54.617187-29.980469-6.085938-9.53125-16.441406-15.484375-27.027344-15.546875-11.140625.066406-21.496094 6.015625-27.574219 15.535156-11.984375 18.78125-32.40625 29.992188-54.621093 29.992188-34.523438 0-62.691407-26.71875-64.675782-61.050782-.117187-.5-.179687-1.015625-.179687-1.539062 0-.160156.035156-.929688.046875-1.09375-.027344-.441406-.046875-.800782-.046875-1.167969 0-.539063.0625-1.066406.183593-1.574219 1.996094-34.320312 30.15625-61.019531 64.671876-61.019531 22.214843 0 42.636718 11.207031 54.621093 29.984375 6.078125 9.519531 16.429688 15.472656 27.019531 15.539062 11.136719-.066406 21.496094-6.019531 27.582032-15.542968 11.984375-18.773438 32.402344-29.980469 54.617187-29.980469 34.523438 0 62.6875 26.71875 64.671875 61.050781.117188.5.179688 1.015625.179688 1.539063 0 .160156-.035156.929687-.046875 1.09375h-.003907c.011719.300781.050782 1.089843.050782 1.167969 0 .539062-.0625 1.066406-.183594 1.574218-1.996094 34.320313-30.15625 61.019532-64.667969 61.019532zm-82.222656-59.179688c.234375 0 .898437.003906 1.039063.011719 14.785156.074219 29.523437 8.445312 38.070312 21.839843 9.472656 14.820313 25.585938 23.675782 43.113281 23.675782 27.582031 0 50.023438-21.613282 51.09375-49.207032.007813-.222656.027344-.441406.054688-.660156l-.003907-.089844c0-.078124 0-.160156 0-.238281 0-.023437 0-.054687 0-.101562-.027343-.214844-.042968-.425781-.050781-.640625-1.066406-27.59375-23.511719-49.207032-51.09375-49.207032-17.53125 0-33.644531 8.855469-43.113281 23.675782-8.546875 13.386718-23.285156 21.757812-38.453125 21.851562-.03125 0-.6875 0-.710937 0-15.175782-.09375-29.90625-8.460937-38.445313-21.847656-9.46875-14.828125-25.585937-23.679688-43.117187-23.679688-27.585938 0-50.027344 21.613282-51.09375 49.207032-.007813.21875-.027344.441406-.058594.660156l.007812.082031c0 .066407-.003906.183594-.007812.324219.03125.222656.050781.441406.058594.660156 1.066406 27.59375 23.507812 49.207032 51.09375 49.207032 17.53125 0 33.648437-8.855469 43.117187-23.6875 8.542969-13.378907 23.273437-21.746094 38.445313-21.839844.011718.003906.035156.003906.054687.003906zm-139.644531-5.675781h.066406zm0 0" fill="#4c241d"/><path d="m309.660156 242.292969c0 13.199219-10.695312 23.894531-23.890625 23.894531-13.195312 0-23.894531-10.695312-23.894531-23.894531 0-13.195313 10.699219-23.890625 23.894531-23.890625 13.195313 0 23.890625 10.695312 23.890625 23.890625zm0 0" fill="#6b4f5b"/><path d="m285.769531 273.015625c-16.941406 0-30.722656-13.78125-30.722656-30.722656 0-16.9375 13.78125-30.71875 30.722656-30.71875 16.9375 0 30.71875 13.78125 30.71875 30.71875 0 16.941406-13.78125 30.722656-30.71875 30.722656zm0-47.789063c-9.410156 0-17.066406 7.652344-17.066406 17.066407 0 9.414062 7.65625 17.066406 17.066406 17.066406 9.410157 0 17.066407-7.652344 17.066407-17.066406 0-9.414063-7.65625-17.066407-17.066407-17.066407zm0 0" fill="#4c241d"/><path d="m145.820312 242.292969c0 13.199219-10.695312 23.894531-23.890624 23.894531-13.195313 0-23.894532-10.695312-23.894532-23.894531 0-13.195313 10.699219-23.890625 23.894532-23.890625 13.195312 0 23.890624 10.695312 23.890624 23.890625zm0 0" fill="#6b4f5b"/><path d="m121.929688 273.015625c-16.941407 0-30.722657-13.78125-30.722657-30.722656 0-16.9375 13.78125-30.71875 30.722657-30.71875 16.9375 0 30.71875 13.78125 30.71875 30.71875 0 16.941406-13.78125 30.722656-30.71875 30.722656zm0-47.789063c-9.410157 0-17.066407 7.652344-17.066407 17.066407 0 9.414062 7.65625 17.066406 17.066407 17.066406 9.410156 0 17.066406-7.652344 17.066406-17.066406 0-9.414063-7.65625-17.066407-17.066406-17.066407zm0 0" fill="#4c241d"/><path d="m289.183594 225.226562c0 7.542969-6.113282 13.65625-13.65625 13.65625-7.539063 0-13.652344-6.113281-13.652344-13.65625 0-7.539062 6.113281-13.652343 13.652344-13.652343 7.542968 0 13.65625 6.113281 13.65625 13.652343zm0 0" fill="#fff"/><path d="m152.648438 225.226562c0 7.542969-6.113282 13.65625-13.652344 13.65625-7.542969 0-13.652344-6.113281-13.652344-13.65625 0-7.539062 6.109375-13.652343 13.652344-13.652343 7.539062 0 13.652344 6.113281 13.652344 13.652343zm0 0" fill="#fff"/></svg>