<svg height="420pt" viewBox="0 -2 420.39979 420" width="420pt" xmlns="http://www.w3.org/2000/svg"><path d="m317.722656 194.761719c0 84.832031-68.769531 153.601562-153.597656 153.601562-84.832031 0-153.601562-68.769531-153.601562-153.601562s68.769531-153.601563 153.601562-153.601563c84.828125 0 153.597656 68.769532 153.597656 153.601563zm0 0" fill="#c1dbdc"/><g fill="#4c241d"><path d="m379.164062 102.875c-3.769531 0-6.828124-3.054688-6.828124-6.828125v-20.640625c0-3.773438 3.058593-6.824219 6.828124-6.824219 3.769532 0 6.824219 3.050781 6.824219 6.824219v20.640625c0 3.773437-3.054687 6.828125-6.824219 6.828125zm0 0"/><path d="m379.164062 54.699219c-3.769531 0-6.828124-3.050781-6.828124-6.824219v-20.640625c0-3.773437 3.058593-6.828125 6.828124-6.828125 3.769532 0 6.824219 3.054688 6.824219 6.828125v20.640625c0 3.773438-3.054687 6.824219-6.824219 6.824219zm0 0"/><path d="m413.574219 68.46875h-20.648438c-3.769531 0-6.828125-3.054688-6.828125-6.828125s3.058594-6.824219 6.828125-6.824219h20.648438c3.769531 0 6.824219 3.050782 6.824219 6.824219s-3.054688 6.828125-6.824219 6.828125zm0 0"/><path d="m365.398438 68.46875h-20.648438c-3.769531 0-6.824219-3.054688-6.824219-6.828125s3.054688-6.824219 6.824219-6.824219h20.648438c3.769531 0 6.828124 3.050782 6.828124 6.824219s-3.058593 6.828125-6.828124 6.828125zm0 0"/><path d="m43.472656 407.5625c-3.421875 0-6.804687-.839844-9.902344-2.496094-4.964843-2.652344-8.589843-7.085937-10.222656-12.472656-1.628906-5.375-1.070312-11.074219 1.585938-16.035156 2.652344-4.960938 7.074218-8.585938 12.460937-10.21875 11.109375-3.359375 22.890625 2.933594 26.257813 14.046875 1.632812 5.378906 1.070312 11.078125-1.582032 16.039062-2.65625 4.957031-7.078124 8.585938-12.460937 10.21875-2.019531.617188-4.085937.917969-6.136719.917969zm.023438-28.476562c-.710938 0-1.429688.105468-2.144532.320312-3.90625 1.1875-6.117187 5.328125-4.9375 9.234375.574219 1.894531 1.851563 3.453125 3.59375 4.386719 1.742188.925781 3.757813 1.117187 5.640626.550781 1.890624-.570313 3.445312-1.84375 4.378906-3.589844.933594-1.746093 1.128906-3.746093.554687-5.640625-.964843-3.195312-3.910156-5.261718-7.085937-5.261718zm0 0"/><path d="m220.828125 42.3125c-11.609375 0-21.054687-9.445312-21.054687-21.050781 0-11.617188 9.445312-21.0625 21.054687-21.0625 11.613281 0 21.058594 9.445312 21.058594 21.0625 0 11.605469-9.445313 21.050781-21.058594 21.050781zm0-28.457031c-4.082031 0-7.402344 3.320312-7.402344 7.40625 0 4.082031 3.320313 7.398437 7.402344 7.398437 4.085937 0 7.40625-3.316406 7.40625-7.398437 0-4.085938-3.320313-7.40625-7.40625-7.40625zm0 0"/><path d="m393.871094 164.617188c0 5.082031-4.121094 9.203124-9.203125 9.203124s-9.203125-4.121093-9.203125-9.203124c0-5.082032 4.121094-9.199219 9.203125-9.199219s9.203125 4.117187 9.203125 9.199219zm0 0"/><path d="m387.742188 387.480469c-1.746094 0-3.492188-.667969-4.824219-2-2.667969-2.667969-2.667969-6.988281 0-9.652344l20.125-20.121094c2.664062-2.664062 6.988281-2.664062 9.652343 0 2.667969 2.664063 2.667969 6.988281 0 9.652344l-20.125 20.121094c-1.335937 1.335937-3.082031 2-4.828124 2zm0 0"/><path d="m407.871094 387.480469c-1.746094 0-3.496094-.667969-4.828125-2l-20.125-20.121094c-2.667969-2.664063-2.667969-6.988281 0-9.652344 2.660156-2.664062 6.984375-2.664062 9.652343 0l20.125 20.121094c2.667969 2.664063 2.667969 6.984375 0 9.652344-1.328124 1.335937-3.078124 2-4.824218 2zm0 0"/><path d="m22.621094 56.28125c-1.746094 0-3.492188-.667969-4.824219-2-2.667969-2.667969-2.667969-6.988281 0-9.652344l26.738281-26.734375c2.667969-2.664062 6.988282-2.664062 9.652344 0 2.667969 2.664063 2.667969 6.988281 0 9.652344l-26.738281 26.734375c-1.332031 1.332031-3.078125 2-4.828125 2zm0 0"/><path d="m49.363281 56.28125c-1.746093 0-3.496093-.667969-4.828125-2l-26.738281-26.734375c-2.667969-2.664063-2.667969-6.988281 0-9.652344 2.664063-2.664062 6.984375-2.664062 9.652344 0l26.738281 26.734375c2.667969 2.664063 2.667969 6.984375 0 9.652344-1.332031 1.332031-3.078125 2-4.824219 2zm0 0"/></g><path d="m128.480469 390.277344c-39.171875-20.382813-65-55.304688-65-94.964844 0-62.875 64.925781-113.847656 145.015625-113.847656s145.015625 50.96875 145.015625 113.847656-64.925781 113.851562-145.015625 113.851562c-6.890625 0-13.667969-.378906-20.304688-1.109374" fill="#ffec95"/><path d="m208.496094 415.988281c-7.078125 0-14.164063-.390625-21.054688-1.148437-3.746094-.414063-6.449218-3.789063-6.035156-7.539063.417969-3.746093 3.890625-6.386719 7.539062-6.035156 6.390626.707031 12.972657 1.066406 19.550782 1.066406 76.195312 0 138.191406-48.003906 138.191406-107.019531 0-59.011719-61.992188-107.027344-138.191406-107.027344-76.195313 0-138.191406 48.015625-138.191406 107.027344 0 35.6875 22.925781 68.929688 61.324218 88.90625 3.347656 1.742188 4.648438 5.863281 2.90625 9.210938-1.738281 3.332031-5.863281 4.636718-9.207031 2.898437-43-22.375-68.675781-60.132813-68.675781-101.015625 0-66.539062 68.117187-120.679688 151.84375-120.679688 83.726562 0 151.84375 54.140626 151.84375 120.679688s-68.117188 120.675781-151.84375 120.675781zm0 0" fill="#4c241d"/><path d="m18.40625 137.3125c0 5.082031-4.121094 9.203125-9.203125 9.203125s-9.203125-4.121094-9.203125-9.203125 4.121094-9.203125 9.203125-9.203125 9.203125 4.121094 9.203125 9.203125zm0 0" fill="#4c241d"/><path d="m257.945312 142.839844 4.535157-31.75c2.367187-16.566406 11.414062-31.445313 25.03125-41.171875l36.367187-25.976563-22.542968 39.445313c-6.753907 11.824219-9.378907 25.5625-7.453126 39.046875l5.273438 36.890625zm0 0" fill="#6b4f5b"/><path d="m299.15625 166.15625c-.855469 0-1.714844-.164062-2.535156-.488281l-41.210938-16.484375c-2.921875-1.175782-4.664062-4.1875-4.21875-7.308594l4.535156-31.746094c2.617188-18.328125 12.757813-35.007812 27.820313-45.761718l36.367187-25.980469c2.601563-1.871094 6.160157-1.660157 8.542969.488281 2.382813 2.152344 2.945313 5.664062 1.351563 8.453125l-22.539063 39.445313c-5.972656 10.453124-8.328125 22.78125-6.625 34.695312l5.269531 36.890625c.347657 2.414063-.621093 4.828125-2.539062 6.335937-1.222656.960938-2.714844 1.460938-4.21875 1.460938zm-33.695312-27.660156 25.269531 10.105468-3.601563-25.199218c-2.132812-14.90625.8125-30.320313 8.285156-43.402344l7.078126-12.394531-11.011719 7.867187c-12.042969 8.601563-20.148438 21.933594-22.238281 36.585938zm0 0" fill="#4c241d"/><path d="m159.046875 142.839844-4.539063-31.75c-2.367187-16.566406-11.410156-31.445313-25.027343-41.171875l-36.367188-25.976563 22.539063 39.449219c6.757812 11.824219 9.382812 25.5625 7.453125 39.042969l-5.269531 36.890625zm0 0" fill="#6b4f5b"/><path d="m117.835938 166.15625c-1.507813 0-2.996094-.5-4.21875-1.460938-1.914063-1.507812-2.886719-3.921874-2.539063-6.332031l5.269531-36.894531c1.703125-11.914062-.648437-24.238281-6.621094-34.691406l-22.539062-39.449219c-1.59375-2.789063-1.03125-6.300781 1.347656-8.453125 2.390625-2.152344 5.949219-2.355469 8.546875-.488281l36.367188 25.980469c15.0625 10.753906 25.203125 27.433593 27.820312 45.761718l4.535157 31.746094c.445312 3.121094-1.296876 6.132812-4.222657 7.308594l-41.207031 16.484375c-.824219.324219-1.683594.488281-2.539062.488281zm-3.335938-98.546875 7.078125 12.390625c7.472656 13.082031 10.417969 28.496094 8.285156 43.402344l-3.601562 25.199218 25.269531-10.105468-3.777344-26.4375c-2.09375-14.652344-10.203125-27.984375-22.242187-36.585938zm0 0" fill="#4c241d"/><path d="m208.496094 126.359375c-91.035156 0-164.832032 80.074219-164.832032 148.347656 0 47.796875 32.304688 93.292969 85.613282 76.714844 51.875-16.136719 106.566406-16.136719 158.4375 0 53.308594 16.578125 85.617187-28.917969 85.617187-76.714844-.003906-68.273437-73.800781-148.347656-164.835937-148.347656zm0 0" fill="#f53e28"/><path d="m309.386719 361.734375c-7.609375 0-15.542969-1.261719-23.699219-3.796875-50.5-15.703125-103.886719-15.703125-154.386719 0-22.847656 7.109375-43.96875 4.195312-61.078125-8.398438-20.59375-15.160156-33.386718-43.832031-33.386718-74.832031 0-35.367187 18.835937-74.507812 50.382812-104.710937 34-32.542969 77.070312-50.464844 121.277344-50.464844 44.207031 0 87.277344 17.921875 121.277344 50.464844 31.546874 30.203125 50.382812 69.34375 50.382812 104.710937 0 31-12.792969 59.671875-33.386719 74.832031-11.003906 8.101563-23.671875 12.195313-37.382812 12.195313zm-100.890625-29.234375c27.339844 0 54.671875 4.136719 81.246094 12.402344 18.527343 5.765625 35.453124 3.558594 48.933593-6.355469 17.164063-12.636719 27.828125-37.097656 27.828125-63.839844 0-64.097656-70.480468-141.519531-158.007812-141.519531s-158.007813 77.421875-158.007813 141.519531c0 26.738281 10.664063 51.199219 27.828125 63.839844 13.480469 9.914063 30.398438 12.125 48.933594 6.355469 26.574219-8.269532 53.910156-12.402344 81.246094-12.402344zm0 0" fill="#4c241d"/><path d="m356.847656 249.984375c0 27.3125-22.140625 49.449219-49.453125 49.449219-27.308593 0-49.449219-22.136719-49.449219-49.449219s22.140626-49.449219 49.449219-49.449219c27.3125 0 49.453125 22.136719 49.453125 49.449219zm0 0" fill="#fff"/><path d="m307.394531 306.261719c-31.027343 0-56.277343-25.246094-56.277343-56.28125 0-31.027344 25.25-56.273438 56.277343-56.273438 31.03125 0 56.277344 25.246094 56.277344 56.273438 0 31.035156-25.246094 56.28125-56.277344 56.28125zm0-98.902344c-23.5 0-42.621093 19.121094-42.621093 42.621094 0 23.507812 19.117187 42.628906 42.621093 42.628906 23.507813 0 42.625-19.121094 42.625-42.628906 0-23.5-19.121093-42.621094-42.625-42.621094zm0 0" fill="#4c241d"/><path d="m332.410156 249.984375c0 13.816406-11.199218 25.015625-25.015625 25.015625-13.8125 0-25.011719-11.199219-25.011719-25.015625s11.199219-25.015625 25.011719-25.015625c13.816407 0 25.015625 11.199219 25.015625 25.015625zm0 0" fill="#6b4f5b"/><path d="m307.394531 281.828125c-17.554687 0-31.835937-14.289063-31.835937-31.847656 0-17.550781 14.28125-31.839844 31.835937-31.839844 17.5625 0 31.84375 14.289063 31.84375 31.839844 0 17.558593-14.28125 31.847656-31.84375 31.847656zm0-50.035156c-10.023437 0-18.183593 8.160156-18.183593 18.1875 0 10.035156 8.160156 18.195312 18.183593 18.195312 10.03125 0 18.191407-8.160156 18.191407-18.195312 0-10.027344-8.160157-18.1875-18.191407-18.1875zm0 0" fill="#4c241d"/><path d="m150.804688 249.984375c0 27.3125-22.140626 49.449219-49.449219 49.449219-27.3125 0-49.453125-22.136719-49.453125-49.449219s22.140625-49.449219 49.453125-49.449219c27.308593 0 49.449219 22.136719 49.449219 49.449219zm0 0" fill="#fff"/><path d="m101.351562 306.261719c-31.03125 0-56.277343-25.246094-56.277343-56.28125 0-31.027344 25.246093-56.273438 56.277343-56.273438s56.277344 25.246094 56.277344 56.273438c0 31.035156-25.246094 56.28125-56.277344 56.28125zm0-98.902344c-23.503906 0-42.625 19.121094-42.625 42.621094 0 23.507812 19.121094 42.628906 42.625 42.628906 23.503907 0 42.625-19.121094 42.625-42.628906 0-23.5-19.121093-42.621094-42.625-42.621094zm0 0" fill="#4c241d"/><path d="m126.367188 249.984375c0 13.816406-11.199219 25.015625-25.011719 25.015625-13.816407 0-25.015625-11.199219-25.015625-25.015625s11.199218-25.015625 25.015625-25.015625c13.8125 0 25.011719 11.199219 25.011719 25.015625zm0 0" fill="#6b4f5b"/><path d="m101.351562 281.828125c-17.554687 0-31.839843-14.289063-31.839843-31.847656 0-17.550781 14.285156-31.839844 31.839843-31.839844 17.558594 0 31.84375 14.289063 31.84375 31.839844 0 17.558593-14.285156 31.847656-31.84375 31.847656zm0-50.035156c-10.027343 0-18.1875 8.160156-18.1875 18.1875 0 10.035156 8.160157 18.195312 18.1875 18.195312 10.03125 0 18.191407-8.160156 18.191407-18.195312 0-10.027344-8.160157-18.1875-18.191407-18.1875zm0 0" fill="#4c241d"/><path d="m307.394531 229.378906c0 6.828125-5.535156 12.363282-12.363281 12.363282-6.824219 0-12.359375-5.535157-12.359375-12.363282s5.535156-12.363281 12.359375-12.363281c6.828125 0 12.363281 5.535156 12.363281 12.363281zm0 0" fill="#fff"/><path d="m119.75 228.894531c0 5.65625-4.585938 10.242188-10.238281 10.242188-5.65625 0-10.242188-4.585938-10.242188-10.242188s4.585938-10.238281 10.242188-10.238281c5.652343 0 10.238281 4.582031 10.238281 10.238281zm0 0" fill="#fff"/><path d="m161.597656 403.078125c-4.902344-1.316406-9.6875-2.832031-14.339844-4.535156" fill="#ffec95"/><path d="m161.597656 409.902344c-.582031 0-1.175781-.074219-1.769531-.234375-5.066406-1.355469-10.085937-2.949219-14.921875-4.722657-3.539062-1.292968-5.355469-5.21875-4.058594-8.757812 1.300782-3.535156 5.234375-5.347656 8.757813-4.054688 4.453125 1.632813 9.082031 3.09375 13.757812 4.347657 3.640625.972656 5.804688 4.71875 4.828125 8.359375-.820312 3.046875-3.574218 5.0625-6.59375 5.0625zm0 0" fill="#4c241d"/></svg>