<svg height="426pt" viewBox="0 -13 426.81441 426" width="426pt" xmlns="http://www.w3.org/2000/svg"><path d="m342.890625 224.277344c0 84.828125-68.765625 153.597656-153.597656 153.597656s-153.601563-68.769531-153.601563-153.597656c0-84.832032 68.769532-153.601563 153.601563-153.601563s153.597656 68.769531 153.597656 153.601563zm0 0" fill="#c1dbdc"/><g fill="#4c241d"><path d="m351.191406 41.894531c-1.746094 0-3.492187-.664062-4.824218-2-2.667969-2.664062-2.667969-6.984375 0-9.652343l12.453124-12.453126c2.664063-2.664062 6.984376-2.664062 9.652344 0 2.664063 2.667969 2.664063 6.988282 0 9.652344l-12.453125 12.453125c-1.332031 1.335938-3.078125 2-4.828125 2zm0 0"/><path d="m322.140625 70.949219c-1.746094 0-3.496094-.667969-4.828125-2-2.664062-2.667969-2.664062-6.988281 0-9.652344l12.453125-12.453125c2.667969-2.667969 6.988281-2.667969 9.652344 0 2.667969 2.664062 2.667969 6.984375 0 9.652344l-12.453125 12.453125c-1.332032 1.335937-3.078125 2-4.824219 2zm0 0"/><path d="m334.59375 41.894531c-1.746094 0-3.496094-.664062-4.828125-2l-12.453125-12.453125c-2.664062-2.664062-2.664062-6.984375 0-9.652344 2.667969-2.664062 6.988281-2.664062 9.652344 0l12.453125 12.453126c2.667969 2.667968 2.667969 6.988281 0 9.652343-1.332031 1.335938-3.078125 2-4.824219 2zm0 0"/><path d="m363.644531 70.949219c-1.746093 0-3.492187-.667969-4.824219-2l-12.453124-12.453125c-2.667969-2.667969-2.667969-6.988282 0-9.652344 2.664062-2.667969 6.984374-2.667969 9.652343 0l12.453125 12.453125c2.664063 2.664063 2.664063 6.984375 0 9.652344-1.332031 1.335937-3.078125 2-4.828125 2zm0 0"/><path d="m71.867188 145.769531h-17.609376c-3.773437 0-6.824218-3.054687-6.824218-6.828125 0-3.773437 3.050781-6.824218 6.824218-6.824218h17.609376c3.773437 0 6.824218 3.050781 6.824218 6.824218 0 3.773438-3.050781 6.828125-6.824218 6.828125zm0 0"/><path d="m30.777344 145.769531h-17.605469c-3.773437 0-6.824219-3.054687-6.824219-6.828125 0-3.773437 3.050782-6.824218 6.824219-6.824218h17.605469c3.773437 0 6.828125 3.050781 6.828125 6.824218 0 3.773438-3.054688 6.828125-6.828125 6.828125zm0 0"/><path d="m42.519531 134.027344c-3.773437 0-6.828125-3.050782-6.828125-6.824219v-17.605469c0-3.773437 3.054688-6.828125 6.828125-6.828125 3.773438 0 6.828125 3.054688 6.828125 6.828125v17.605469c0 3.773437-3.054687 6.824219-6.828125 6.824219zm0 0"/><path d="m42.519531 175.117188c-3.773437 0-6.828125-3.054688-6.828125-6.828126v-17.605468c0-3.773438 3.054688-6.824219 6.828125-6.824219 3.773438 0 6.828125 3.050781 6.828125 6.824219v17.605468c0 3.773438-3.054687 6.828126-6.828125 6.828126zm0 0"/><path d="m348.398438 160.574219c-11.613282 0-21.058594-9.445313-21.058594-21.050781 0-11.613282 9.445312-21.0625 21.058594-21.0625 11.617187 0 21.0625 9.449218 21.0625 21.0625-.003907 11.605468-9.449219 21.050781-21.0625 21.050781zm0-28.457031c-4.085938 0-7.40625 3.316406-7.40625 7.40625 0 4.078124 3.320312 7.398437 7.40625 7.398437 4.089843 0 7.410156-3.320313 7.410156-7.398437-.003906-4.085938-3.324219-7.40625-7.410156-7.40625zm0 0"/><path d="m146.671875 68.835938c-1.746094 0-3.492187-.667969-4.828125-2-2.664062-2.664063-2.664062-6.988282 0-9.652344l20.128906-20.121094c2.664063-2.664062 6.988282-2.664062 9.652344 0 2.664062 2.667969 2.664062 6.988281 0 9.652344l-20.125 20.121094c-1.335938 1.332031-3.082031 2-4.828125 2zm0 0"/></g><path d="m105.085938 191.207031s-92.179688 36.871094-98.160157 122.78125c-1.460937 21.019531 14.324219 39.335938 35.265625 41.664063 16.796875 1.867187 33.027344-7.027344 40.203125-22.328125 7.351563-15.671875 14.441407-40.703125 16.277344-80.078125.800781-17.113282 2.441406-34.21875 4.867187-51.175782zm0 0" fill="#9dc1e4"/><path d="m46.644531 362.722656c-1.726562 0-3.457031-.09375-5.207031-.285156-24.886719-2.769531-43.039062-24.253906-41.324219-48.921875 6.207031-89.152344 98.511719-127.074219 102.4375-128.648437 2.265625-.898438 4.832031-.53125 6.753907.972656 1.914062 1.507812 2.878906 3.914062 2.539062 6.328125l-1.546875 10.859375c-2.40625 16.832031-4.023437 33.832031-4.804687 50.53125-1.605469 34.339844-7.300782 62.15625-16.921876 82.664062-7.644531 16.300782-24.070312 26.5-41.925781 26.5zm49.882813-159.800781c-23.902344 12.742187-78.398438 48.523437-82.789063 111.539063-1.207031 17.339843 11.628907 32.449218 29.207031 34.402343 14.058594 1.601563 27.367188-5.863281 33.265626-18.441406 8.859374-18.878906 14.121093-44.953125 15.640624-77.5.773438-16.523437 2.347657-33.339844 4.675782-50zm0 0" fill="#4c241d"/><path d="m39.558594 286.519531s-14.878906-2.109375-30.671875 12.683594c-.925781 4.761719-1.605469 9.679687-1.960938 14.785156-1.460937 21.019531 14.324219 39.335938 35.265625 41.660157 6.382813.710937 12.675782-.152344 18.429688-2.3125-14.382813-7.082032-32.589844-24.550782-21.0625-66.816407zm0 0" fill="#f53e28"/><path d="m46.539062 362.714844c-1.707031 0-3.414062-.09375-5.105468-.277344-24.882813-2.769531-43.035156-24.253906-41.320313-48.921875.359375-5.132813 1.050781-10.386719 2.070313-15.621094.273437-1.40625.988281-2.691406 2.035156-3.671875 17.964844-16.832031 35.566406-14.546875 36.300781-14.460937 1.941407.273437 3.664063 1.375 4.746094 3.007812 1.074219 1.640625 1.390625 3.660157.878906 5.546875-7.90625 29.007813-1.859375 49.375 17.496094 58.894532 2.445313 1.207031 3.9375 3.738281 3.804687 6.460937-.136718 2.71875-1.875 5.097656-4.421874 6.058594-5.269532 1.972656-10.890626 2.984375-16.484376 2.984375zm-31.359374-59.984375c-.695313 3.941406-1.175782 7.871093-1.441407 11.730469-1.207031 17.339843 11.625 32.449218 29.207031 34.402343.003907 0 .019532.007813.027344.007813-9.78125-10.175782-17.433594-27.0625-12.195312-54.703125-4.210938 1.117187-9.730469 3.507812-15.597656 8.5625zm0 0" fill="#4c241d"/><path d="m307.632812 191.207031s92.179688 36.871094 98.160157 122.78125c1.460937 21.019531-14.324219 39.335938-35.265625 41.664063-16.792969 1.867187-33.027344-7.027344-40.203125-22.328125-7.347657-15.671875-14.441407-40.703125-16.277344-80.078125-.800781-17.113282-2.441406-34.21875-4.863281-51.175782zm0 0" fill="#9dc1e4"/><path d="m366.074219 362.722656c-17.863281 0-34.28125-10.195312-41.929688-26.5-9.617187-20.507812-15.3125-48.320312-16.917969-82.660156-.78125-16.699219-2.398437-33.699219-4.804687-50.527344l-1.546875-10.863281c-.339844-2.414063.625-4.820313 2.539062-6.328125 1.917969-1.507812 4.488282-1.875 6.753907-.972656 3.925781 1.574218 96.234375 39.492187 102.4375 128.644531 1.714843 24.667969-16.4375 46.15625-41.324219 48.921875-1.75.191406-3.480469.285156-5.207031.285156zm-49.882813-159.800781c2.328125 16.664063 3.898438 33.46875 4.671875 50.003906 1.523438 32.542969 6.78125 58.617188 15.640625 77.496094 5.902344 12.582031 19.207032 20.042969 33.265625 18.441406 17.582031-1.953125 30.414063-17.058593 29.207031-34.398437-4.382812-63.023438-58.882812-98.800782-82.785156-111.542969zm0 0" fill="#4c241d"/><path d="m373.160156 286.519531s14.878906-2.109375 30.671875 12.683594c.925781 4.761719 1.605469 9.679687 1.960938 14.785156 1.460937 21.019531-14.324219 39.335938-35.265625 41.660157-6.382813.710937-12.675782-.152344-18.429688-2.3125 14.382813-7.082032 32.589844-24.550782 21.0625-66.816407zm0 0" fill="#f53e28"/><path d="m366.179688 362.714844c-5.59375 0-11.207032-1.011719-16.484376-2.984375-2.546874-.960938-4.289062-3.339844-4.421874-6.0625-.132813-2.71875 1.359374-5.253907 3.804687-6.460938 19.355469-9.519531 25.402344-29.886719 17.496094-58.890625-.515625-1.886718-.195313-3.90625.878906-5.546875 1.082031-1.632812 2.808594-2.734375 4.746094-3.007812.753906-.085938 18.332031-2.375 36.300781 14.460937 1.046875.980469 1.757812 2.265625 2.03125 3.671875 1.023438 5.234375 1.714844 10.488281 2.074219 15.621094 1.714843 24.664063-16.4375 46.152344-41.324219 48.917969-1.6875.191406-3.394531.28125-5.101562.28125zm15.757812-68.546875c5.242188 27.640625-2.410156 44.527343-12.191406 54.703125.007812 0 .011718-.007813.019531-.007813 17.585937-1.953125 30.417969-17.0625 29.214844-34.402343-.269531-3.859376-.75-7.789063-1.441407-11.730469-5.867187-5.054688-11.386718-7.445313-15.601562-8.5625zm0 0" fill="#4c241d"/><path d="m166.796875 68.835938c-1.746094 0-3.492187-.667969-4.824219-2l-20.128906-20.121094c-2.664062-2.664063-2.664062-6.984375 0-9.652344 2.667969-2.664062 6.988281-2.664062 9.65625 0l20.125 20.121094c2.664062 2.664062 2.664062 6.988281 0 9.652344-1.332031 1.332031-3.078125 2-4.828125 2zm0 0" fill="#4c241d"/><path d="m111.804688 350.609375c-11.710938-13.496094-20.707032-29.726563-25.867188-48.066406-18.71875-66.507813 20.023438-135.597657 86.527344-154.316407 66.507812-18.71875 135.597656 20.023438 154.316406 86.53125 18.714844 66.507813-20.023438 135.59375-86.53125 154.3125-30.476562 8.578126-61.496094 5.089844-87.964844-7.605468" fill="#9dc1e4"/><path d="m206.324219 400.582031c-19.585938 0-39.058594-4.359375-56.992188-12.964843-3.402343-1.628907-4.835937-5.707032-3.199219-9.109376 1.625-3.390624 5.691407-4.847656 9.105469-3.199218 25.914063 12.417968 55.433594 14.992187 83.164063 7.1875 30.40625-8.554688 55.667968-28.441406 71.113281-56 15.457031-27.554688 19.246094-59.480469 10.6875-89.894532-8.554687-30.40625-28.4375-55.664062-56-71.113281-27.558594-15.460937-59.472656-19.265625-89.890625-10.6875-30.40625 8.554688-55.667969 28.441407-71.113281 56-15.457031 27.554688-19.246094 59.480469-10.6875 89.894531 4.765625 16.960938 12.992187 32.246094 24.445312 45.441407 2.472657 2.84375 2.167969 7.15625-.679687 9.625-2.847656 2.480469-7.160156 2.171875-9.625-.679688-12.789063-14.726562-21.96875-31.777343-27.289063-50.691406-9.546875-33.921875-5.3125-69.527344 11.921875-100.265625 17.238282-30.734375 45.410156-52.921875 79.332032-62.46875 33.917968-9.546875 69.519531-5.3125 100.265624 11.917969 30.734376 17.242187 52.921876 45.414062 62.46875 79.332031 9.546876 33.921875 5.3125 69.527344-11.921874 100.269531-17.238282 30.734375-45.410157 52.917969-79.332032 62.464844-11.738281 3.308594-23.777344 4.941406-35.773437 4.941406zm0 0" fill="#4c241d"/><path d="m134.960938 378.210938c-1.347657 0-2.707032-.394532-3.894532-1.226563-3.707031-2.582031-7.289062-5.339844-10.632812-8.214844-2.859375-2.453125-3.1875-6.757812-.734375-9.625 2.453125-2.863281 6.773437-3.1875 9.628906-.734375 2.992187 2.566406 6.207031 5.054688 9.539063 7.371094 3.09375 2.15625 3.859374 6.40625 1.699218 9.5-1.328125 1.910156-3.445312 2.929688-5.605468 2.929688zm0 0" fill="#4c241d"/><path d="m281.425781 280.25c-3.773437 0-6.828125-3.054688-6.828125-6.828125 0-4.78125-3.886718-8.671875-8.664062-8.671875-4.78125 0-8.675782 3.890625-8.675782 8.671875 0 3.773437-3.050781 6.828125-6.824218 6.828125-3.773438 0-6.828125-3.054688-6.828125-6.828125 0-12.3125 10.011719-22.324219 22.328125-22.324219 12.304687 0 22.316406 10.011719 22.316406 22.324219 0 3.773437-3.050781 6.828125-6.824219 6.828125zm0 0" fill="#4c241d"/><path d="m156.328125 280.25c-3.773437 0-6.828125-3.054688-6.828125-6.828125 0-4.78125-3.886719-8.671875-8.667969-8.671875-4.777343 0-8.671875 3.890625-8.671875 8.671875 0 3.773437-3.054687 6.828125-6.828125 6.828125-3.773437 0-6.824219-3.054688-6.824219-6.828125 0-12.3125 10.011719-22.324219 22.324219-22.324219 12.308594 0 22.320313 10.011719 22.320313 22.324219 0 3.773437-3.050782 6.828125-6.824219 6.828125zm0 0" fill="#4c241d"/><path d="m37.695312 9.234375c0 4.878906-3.953124 8.828125-8.828124 8.828125-4.878907 0-8.828126-3.949219-8.828126-8.828125 0-4.875 3.949219-8.828125 8.828126-8.828125 4.875 0 8.828124 3.953125 8.828124 8.828125zm0 0" fill="#4c241d"/><path d="m426.8125 173.074219c0 4.878906-3.949219 8.832031-8.828125 8.832031-4.875 0-8.828125-3.953125-8.828125-8.832031 0-4.875 3.953125-8.828125 8.828125-8.828125 4.878906 0 8.828125 3.953125 8.828125 8.828125zm0 0" fill="#4c241d"/><path d="m248.058594 334.179688c-29.148438-12.90625-57.09375-14.304688-83.398438 0v-35.742188c27.375-16.019531 55.1875-15.542969 83.398438 0zm0 0" fill="#f53e28"/><path d="m248.058594 341.003906c-.9375 0-1.878906-.195312-2.757813-.585937-28.875-12.773438-54.179687-12.855469-77.382812-.242188-2.125 1.148438-4.679688 1.101563-6.746094-.132812-2.070313-1.226563-3.339844-3.460938-3.339844-5.867188v-35.738281c0-2.429688 1.289063-4.667969 3.378907-5.894531 29.050781-16.992188 59.375-17.03125 90.140624-.085938 2.179688 1.199219 3.535157 3.492188 3.535157 5.980469v35.738281c0 2.304688-1.167969 4.457031-3.101563 5.71875-1.125.734375-2.425781 1.109375-3.726562 1.109375zm-43.851563-23.8125c11.90625 0 24.265625 2.300782 37.023438 6.890625v-21.53125c-24.113281-12.167969-47.003907-12.207031-69.746094-.105469v21c10.46875-4.167968 21.390625-6.253906 32.722656-6.253906zm0 0" fill="#4c241d"/><path d="m164.660156 391.777344c-3.773437 0-6.828125-3.054688-6.828125-6.828125v-50.773438c0-3.773437 3.054688-6.824219 6.828125-6.824219 3.773438 0 6.824219 3.050782 6.824219 6.824219v50.773438c0 3.773437-3.050781 6.828125-6.824219 6.828125zm0 0" fill="#4c241d"/><path d="m248.058594 392.082031c-3.773438 0-6.824219-3.054687-6.824219-6.828125v-51.078125c0-3.773437 3.050781-6.828125 6.824219-6.828125 3.773437 0 6.828125 3.054688 6.828125 6.828125v51.078125c0 3.773438-3.054688 6.828125-6.828125 6.828125zm0 0" fill="#4c241d"/></svg>