<svg height="511pt" viewBox="0 0 511.99933 511" width="511pt" xmlns="http://www.w3.org/2000/svg"><path d="m349.769531 215.503906-52.777343-52.773437-272.273438 249.90625c-22.296875 20.464843-23.042969 55.386719-1.644531 76.785156 21.402343 21.402344 56.320312 20.652344 76.785156-1.644531zm0 0" fill="#b2785b"/><path d="m296.992188 162.730469-90.4375 83.011719c19.371093-.175782 38.121093 2.152343 50.617187 9.585937 14.390625 8.5625 30.5 11.652344 44.820313 12.226563l47.777343-52.050782zm0 0" fill="#935b45"/><path d="m349.375 101.574219-46.125-63.472657c-8.648438-11.898437-27.476562-5.050781-26.460938 9.625l8.183594 118.246094zm0 0" fill="#acabb1"/><path d="m413.621094 165.820312 63.46875 46.125c11.902344 8.644532 5.054687 27.472657-9.621094 26.457032l-118.246094-8.183594zm0 0" fill="#d8d7da"/><path d="m480.582031 8.535156-94.015625 22.230469c-23.796875 5.628906-41.738281 25.222656-45.246094 49.421875l-15.441406 106.433594 106.433594-15.441406c24.195312-3.511719 43.792969-21.449219 49.417969-45.246094l22.234375-94.015625c3.324218-14.066407-9.320313-26.710938-23.382813-23.382813zm0 0" fill="#eaeaea"/><path d="m480.582031 8.535156-94.015625 22.230469c-23.796875 5.628906-41.738281 25.222656-45.25 49.421875l-15.441406 106.433594 172.917969-172.917969c-4.503907-4.503906-11.179688-6.832031-18.210938-5.167969zm0 0" fill="#d8d7da"/><path d="m337.398438 235.769531-60.667969-60.667969c-9.011719-9.011718-9.011719-23.621093 0-32.632812s23.621093-9.011719 32.632812 0l60.667969 60.667969c9.011719 9.011719 9.011719 23.621093 0 32.628906-9.011719 9.015625-23.621094 9.015625-32.632812.003906zm0 0" fill="#dd9f80"/><path d="m313.761719 204.394531c1.175781-9.8125 11.945312-15.597656 20.871093-11.347656 9.683594 4.613281 20.210938 2.972656 26.515626 1.207031l-51.785157-51.785156c-9.011719-9.011719-23.621093-9.011719-32.632812 0s-9.011719 23.621094 0 32.632812l41.988281 41.984376c-4.273438-4.269532-5.441406-8.640626-4.957031-12.691407zm0 0" fill="#c68d6d"/><path d="m367.832031 205.335938-60.667969-60.667969c-9.011718-9.011719-9.011718-23.621094 0-32.632813 9.007813-9.011718 23.621094-9.011718 32.628907 0l60.671875 60.667969c9.007812 9.011719 9.007812 23.621094 0 32.632813-9.011719 9.011718-23.621094 9.011718-32.632813 0zm0 0" fill="#eab9a4"/><path d="m337.804688 142.679688c9.011718-9.011719 23.621093-9.011719 32.632812 0l-30.644531-30.644532c-9.007813-9.011718-23.621094-9.011718-32.628907 0-9.011718 9.011719-9.011718 23.621094 0 32.632813l30.644532 30.640625c-9.015625-9.007813-9.015625-23.617188-.003906-32.628906zm0 0" fill="#dd9f80"/><path d="m24.71875 412.636719c-22.296875 20.464843-23.042969 55.386719-1.644531 76.785156 21.402343 21.402344 56.320312 20.652344 76.785156-1.644531l64.464844-70.234375-69.371094-69.371094zm0 0" fill="#66666d"/><path d="m489.296875 231.363281c3.410156-9.378906.28125-19.613281-7.796875-25.488281l-39.894531-28.992188c23.503906-6.425781 41.699219-25.011718 47.425781-49.222656l22.230469-94.015625c2.167969-9.15625-.511719-18.59375-7.164063-25.242187-6.652344-6.652344-16.085937-9.332032-25.242187-7.167969l-94.015625 22.234375c-23.964844 5.664062-42.410156 23.546875-49.015625 46.695312l-26.507813-36.472656c-5.859375-8.066406-16.105468-11.203125-25.484375-7.792968-9.375 3.410156-15.210937 12.390624-14.523437 22.34375l5.933594 85.695312c-16.527344 12.113281-15.683594 32.066406-5.976563 44.0625l-249.617187 229.113281c-12.304688 11.292969-19.277344 26.707031-19.632813 43.40625-.359375 16.695313 5.949219 32.394531 17.757813 44.207031 11.808593 11.808594 27.507812 18.113282 44.207031 17.757813s32.113281-7.328125 43.40625-19.632813l107.570312-117.199218c2.800781-3.050782 2.597657-7.785156-.453125-10.597656-3.050781-2.800782-7.796875-2.597657-10.597656.457031l-37.8125 41.195312-58.300781-58.300781 173.964843-159.675781 44.011719 44.011719-100.503906 109.496093c-2.726563 2.972657-2.761719 7.339844.453125 10.597657 2.910156 2.949218 7.792969 2.597656 10.597656-.453126l100.183594-109.148437c11.996094 9.707031 32.128906 10.367187 42.160156-3.597656l90.289063 6.25c9.957031.6875 18.933593-5.148438 22.347656-14.523438zm-116.160156-31.328125-60.671875-60.671875c-6.070313-6.070312-6.070313-15.953125 0-22.023437 6.074218-6.070313 15.953125-6.070313 22.027344 0l60.667968 60.667968c6.070313 6.074219 6.070313 15.953126 0 22.023438-6.074218 6.074219-15.953125 6.074219-22.023437.003906zm15.152343-161.96875s96.71875-22.621094 98.027344-22.492187l-77.539062 77.539062c-2.929688 2.929688-2.929688 7.679688 0 10.609375 2.929687 2.929688 7.675781 2.929688 10.605468 0l77.539063-77.539062c.132813 1.308594-22.488281 98.027344-22.488281 98.027344-4.949219 20.933593-21.90625 36.457031-43.199219 39.546874l-25.425781 3.6875c-.011719-.011718-.027344-.027343-.042969-.042968l-25.03125-25.03125 16.320313-16.320313c2.929687-2.929687 2.929687-7.675781 0-10.605469-2.929688-2.929687-7.675782-2.929687-10.605469 0l-16.320313 16.320313-25.03125-25.03125c-.015625-.015625-.03125-.03125-.042968-.042969l3.6875-25.425781c3.085937-21.292969 18.613281-38.25 39.546874-43.199219zm-104.015624 9.140625c-.347657-4.984375 3.5-6.78125 4.683593-7.210937 1.1875-.429688 5.289063-1.519532 8.226563 2.515625l35.027344 48.203125-1.164063 8.027344c-10.113281-2.566407-21.289063.089843-29.1875 7.988281-5.921875 5.925781-8.898437 13.691406-8.9375 21.472656-1.015625 0-2.027344.046875-3.03125.148437zm-130.332032 370.558594-59.605468 64.941406c-8.503907 9.261719-20.105469 14.511719-32.675782 14.78125-12.570312.269531-24.390625-4.480469-33.28125-13.367187-8.890625-8.894532-13.636718-20.710938-13.367187-33.28125.269531-12.570313 5.519531-24.175782 14.78125-32.675782l64.9375-59.605468zm188.761719-187.300781-60.667969-60.667969c-6.074218-6.074219-6.074218-15.953125 0-22.027344 3.972656-3.96875 9.648438-5.472656 15.019532-4.035156 1.300781 2.226563 69.480468 70.410156 71.710937 71.707031 1.390625 5.289063-.101563 11.085938-4.039063 15.023438-6.070312 6.070312-15.953124 6.070312-22.023437 0zm125.285156.457031-84.261719-5.832031c.339844-1.816406.5-3.660156.511719-5.511719 7.800781-.023437 15.589844-3 21.527344-8.9375 7.898437-7.898437 10.558594-19.078125 7.992187-29.1875l7.179688-1.042969 51.746094 37.601563c4.039062 2.9375 2.945312 7.035156 2.515625 8.222656-.433594 1.1875-2.226563 5.03125-7.210938 4.6875zm0 0"/></svg>