<svg height="512pt" viewBox="0 -43 512 512" width="512pt" xmlns="http://www.w3.org/2000/svg"><path d="m159.671875 7.5c-39.207031 0-70.992187 47.136719-70.992187 105.285156 0 58.148438 31.785156 105.285156 70.992187 105.285156h180.488281v-210.570312zm0 0" fill="#b2785b"/><path d="m232.003906 127.824219c-71.84375.449219-119.042968-18.917969-142.429687-31.796875-.589844 5.457031-.894531 11.054687-.894531 16.757812 0 58.148438 31.785156 105.285156 70.992187 105.285156h180.492187v-74.710937c-33.050781-8.960937-70.640624-15.769531-108.160156-15.535156zm0 0" fill="#935b45"/><path d="m222.691406 85.390625h94.636719v-44.105469h-94.636719c-12.179687 0-22.054687 9.871094-22.054687 22.050782 0 12.179687 9.875 22.054687 22.054687 22.054687zm0 0" fill="#935b45"/><path d="m411.15625 112.785156c0-58.148437-31.785156-105.285156-70.996094-105.285156-39.207031 0-70.992187 47.136719-70.992187 105.285156 0 58.148438 31.785156 105.285156 70.992187 105.285156 39.210938 0 70.996094-47.136718 70.996094-105.285156zm0 0" fill="#c68d6d"/><path d="m402.199219 164.015625c-33.230469-13.097656-81.261719-28.707031-132.105469-34.179687 5.496094 50.035156 34.777344 88.238281 70.066406 88.238281 26.667969-.003907 49.90625-21.8125 62.039063-54.058594zm0 0" fill="#b2785b"/><path d="m367.144531 112.785156c0-27.816406-12.082031-50.363281-26.984375-50.363281-14.898437 0-26.980468 22.546875-26.980468 50.363281s12.082031 50.367188 26.980468 50.367188c14.902344 0 26.984375-22.550782 26.984375-50.367188zm0 0" fill="#b2785b"/><path d="m340.160156 163.152344c7.332032 0 13.984375-5.46875 18.847656-14.324219-13.234374-4.09375-27.480468-7.972656-42.339843-11.257813 4.636719 15.269532 13.421875 25.582032 23.492187 25.582032zm0 0" fill="#935b45"/><path d="m151.074219 79.183594h-58.703125c-2.394532 10.550781-3.691406 21.851562-3.691406 33.601562 0 3.542969.117187 7.046875.347656 10.5h62.578125c12.445312 0 22.484375-10.308594 22.035156-22.855468-.421875-11.949219-10.609375-21.246094-22.566406-21.246094zm0 0" fill="#935b45"/><path d="m178.128906 184.289062h31.820313c12.179687 0 22.054687-9.875 22.054687-22.054687 0-12.175781-9.875-22.050781-22.054687-22.050781h-31.820313c-12.179687 0-22.054687 9.871094-22.054687 22.050781s9.875 22.054687 22.054687 22.054687zm0 0" fill="#7c4737"/><path d="m253.015625 207.929688c-39.207031 0-70.992187 47.140624-70.992187 105.289062 0 58.144531 31.785156 105.285156 70.992187 105.285156h180.492187v-210.574218zm0 0" fill="#c68d6d"/><path d="m433.507812 385.8125c-34.777343-18.621094-76.792968-38.027344-116.757812-48.5-58.097656-15.226562-101.101562-52.183594-124.957031-77.425781-6.207031 15.640625-9.769531 33.871093-9.769531 53.332031 0 58.148438 31.785156 105.285156 70.992187 105.285156h180.492187zm0 0" fill="#b2785b"/><path d="m504.5 313.21875c0-58.148438-31.785156-105.285156-70.992188-105.285156-39.210937 0-70.992187 47.136718-70.992187 105.285156s31.78125 105.285156 70.992187 105.285156c39.207032 0 70.992188-47.136718 70.992188-105.285156zm0 0" fill="#dd9f80"/><path d="m460.488281 313.21875c0-27.816406-12.082031-50.367188-26.980469-50.367188-14.902343 0-26.980468 22.550782-26.980468 50.367188s12.078125 50.363281 26.980468 50.363281c14.898438 0 26.980469-22.546875 26.980469-50.363281zm0 0" fill="#c68d6d"/><path d="m78.492188 207.929688c-39.207032 0-70.992188 47.140624-70.992188 105.289062 0 58.144531 31.785156 105.285156 70.992188 105.285156h180.492187v-210.574218zm0 0" fill="#dd9f80"/><path d="m79.886719 349.816406c-37.625-31.148437-48.914063-82.851562-52.292969-109.992187-12.433594 18.964843-20.09375 44.855469-20.09375 73.394531 0 58.148438 31.785156 105.285156 70.992188 105.285156h65.472656c-15.117188-20.253906-37.140625-46.390625-64.078125-68.6875zm0 0" fill="#c68d6d"/><path d="m137.363281 371.867188h94.636719v-44.105469h-94.636719c-12.179687 0-22.054687 9.875-22.054687 22.054687 0 12.179688 9.875 22.050782 22.054687 22.050782zm0 0" fill="#c68d6d"/><path d="m329.976562 313.21875c0-58.148438-31.785156-105.285156-70.992187-105.285156-39.210937 0-70.996094 47.136718-70.996094 105.285156s31.785157 105.285156 70.996094 105.285156c39.207031 0 70.992187-47.136718 70.992187-105.285156zm0 0" fill="#eab9a4"/><path d="m285.964844 313.21875c0-27.816406-12.082032-50.367188-26.980469-50.367188-14.902344 0-26.980469 22.550782-26.980469 50.367188s12.078125 50.363281 26.980469 50.363281c14.898437 0 26.980469-22.546875 26.980469-50.363281zm0 0" fill="#dd9f80"/><path d="m75.566406 275.261719h-63.3125c-3.070312 11.777343-4.753906 24.566406-4.753906 37.957031 0 2.0625.039062 4.109375.117188 6.144531h67.949218c12.179688 0 22.054688-9.871093 22.054688-22.050781s-9.875-22.050781-22.054688-22.050781zm0 0" fill="#c68d6d"/><path d="m151.601562 123.285156c3.328126 0 6.484376-.734375 9.3125-2.054687-33.09375-6.703125-56.816406-17.207031-71.339843-25.203125-.589844 5.457031-.894531 11.054687-.894531 16.757812 0 3.542969.117187 7.046875.347656 10.5zm0 0" fill="#7c4737"/><path d="m53.796875 319.367188c-8.882813-14.402344-14.910156-29.851563-19.003906-44.105469h-22.539063c-3.070312 11.777343-4.753906 24.566406-4.753906 37.957031 0 2.0625.039062 4.109375.117188 6.144531h46.179687zm0 0" fill="#b2785b"/><path d="m433.507812 418.503906c12.515626 0 24.273438-4.804687 34.484376-13.234375-26.488282-15.699219-62.269532-35.167969-99.71875-50.441406 10.878906 37.449219 35.992187 63.675781 65.234374 63.675781zm0 0" fill="#c68d6d"/><path d="m489.925781 234.574219c-14.847656-22.015625-34.882812-34.144531-56.417969-34.144531h-43.75c18.113282-21.109376 28.898438-53.046876 28.898438-87.644532 0-25.070312-5.546875-48.773437-16.035156-68.554687-1.941406-3.660157-6.480469-5.054688-10.140625-3.113281-3.660157 1.941406-5.054688 6.484374-3.113281 10.144531 9.347656 17.621093 14.289062 38.894531 14.289062 61.523437 0 36.808594-13.929688 71.101563-35.53125 87.644532h-55.925781c-21.640625-16.5625-35.53125-50.660157-35.53125-87.644532 0-26.644531 6.929687-51.59375 19.511719-70.253906 11.972656-17.753906 27.59375-27.53125 43.980468-27.53125 11.554688 0 22.90625 4.9375 32.835938 14.273438 3.015625 2.835937 7.761718 2.695312 10.601562-.324219 2.835938-3.019531 2.691406-7.765625-.324218-10.601563-12.761719-12.003906-27.667969-18.347656-43.109376-18.347656h-180.492187c-21.535156 0-41.570313 12.125-56.417969 34.144531-14.234375 21.113281-22.074218 49.039063-22.074218 78.640625 0 34.820313 10.742187 66.597656 28.867187 87.648438h-31.554687c-21.535157 0-41.570313 12.125-56.417969 34.144531-14.234375 21.109375-22.074219 49.039063-22.074219 78.640625s7.839844 57.527344 22.074219 78.640625c14.847656 22.019531 34.882812 34.144531 56.417969 34.144531h355.015624c21.535157 0 41.570313-12.125 56.417969-34.144531 14.234375-21.113281 22.074219-49.039063 22.074219-78.640625s-7.839844-57.53125-22.074219-78.644531zm-224.449219-156.683594h-42.785156c-8.027344 0-14.554687-6.53125-14.554687-14.554687 0-8.023438 6.527343-14.554688 14.554687-14.554688h52.738282c-4.296876 8.988281-7.640626 18.777344-9.953126 29.109375zm-166.980468 8.792969h52.578125c8.035156 0 14.796875 6.285156 15.070312 14.015625.144531 3.992187-1.300781 7.773437-4.066406 10.640625-2.769531 2.867187-6.488281 4.449218-10.476563 4.449218h-55.386718c-.019532-1-.996094-16.539062 2.28125-29.105468zm-1.210938 44.105468h54.316406c8.09375 0 15.644532-3.210937 21.269532-9.03125 5.617187-5.824218 8.554687-13.492187 8.265625-21.59375-.558594-15.703124-14.042969-28.480468-30.0625-28.480468h-48.972657c3.269532-10.738282 7.828126-20.609375 13.589844-29.152344 11.96875-17.753906 27.589844-27.527344 43.980469-27.527344h141.117187c-6.097656 5.0625-11.742187 11.355469-16.796874 18.78125h-61.300782c-16.296875 0-29.554687 13.257813-29.554687 29.554688 0 16.292968 13.257812 29.550781 29.554687 29.550781h40.199219c-.792969 6.507813-1.222656 13.15625-1.222656 19.898437 0 34.75 10.753906 66.574219 28.878906 87.644532h-158.855469c-18.082031-13.839844-30.730468-39.855469-34.40625-69.644532zm-79.109375 151.972657h57.390625c8.027344 0 14.554688 6.527343 14.554688 14.550781s-6.527344 14.554688-14.554688 14.554688h-60.542968c.085937-10.039063 1.160156-19.820313 3.152343-29.105469zm60.316407 128.242187c-16.390626 0-32.011719-9.777344-43.980469-27.53125-10.40625-15.433594-16.929688-35.171875-18.882813-56.605468h59.941406c16.292969 0 29.550782-13.257813 29.550782-29.554688s-13.257813-29.550781-29.550782-29.550781h-53.230468c3.125-9.058594 7.199218-17.425781 12.171875-24.800781 11.972656-17.753907 27.589843-27.53125 43.980469-27.53125h141.117187c-6.195313 5.148437-11.929687 11.558593-17.042969 19.144531-14.234375 21.113281-22.074218 49.042969-22.074218 78.644531 0 18.066406 2.933593 35.5 8.445312 51.148438h-51.574219c-8.023437 0-14.554687-6.527344-14.554687-14.550782 0-8.027344 6.53125-14.554687 14.554687-14.554687h21.863281c4.144532 0 7.5-3.355469 7.5-7.5 0-4.140625-3.355468-7.5-7.5-7.5h-21.863281c-16.296875 0-29.554687 13.257812-29.554687 29.554687 0 16.292969 13.257812 29.550782 29.554687 29.550782h57.914063c2.203125 4.378906 11.566406 20.199218 24.332031 31.636718zm136.511718-27.53125c-3.015625-4.46875-19.515625-33.65625-19.515625-70.253906 0-26.648438 6.933594-51.597656 19.515625-70.257812 11.96875-17.753907 27.589844-27.53125 43.980469-27.53125 16.386719 0 32.007813 9.777343 43.980469 27.53125 12.582031 18.660156 19.511718 43.609374 19.511718 70.257812 0 26.644531-6.929687 51.59375-19.511718 70.253906-11.972656 17.753906-27.59375 27.53125-43.980469 27.53125-16.390625 0-32.011719-9.777344-43.980469-27.53125zm83.351563 27.53125c6.199219-5.148437 11.929687-11.558594 17.046875-19.144531 14.234375-21.113281 22.074218-49.042969 22.074218-78.644531 0-29.601563-7.839843-57.527344-22.074218-78.640625-5.117188-7.585938-10.847656-14-17.046875-19.144531h95.777343c-6.195312 5.144531-11.929687 11.558593-17.042968 19.144531-14.234375 21.113281-22.074219 49.039062-22.074219 78.640625 0 29.601562 7.839844 57.53125 22.074219 78.644531 5.113281 7.585937 10.847656 13.996094 17.042968 19.144531zm179.132812-27.53125c-11.972656 17.753906-27.589843 27.53125-43.980469 27.53125-16.394531 0-32.011718-9.777344-43.980468-27.53125-12.582032-18.660156-19.511719-43.609375-19.511719-70.253906 0-26.648438 6.929687-51.597656 19.511719-70.257812 11.96875-17.753907 27.589844-27.53125 43.980468-27.53125 16.390626 0 32.007813 9.777343 43.980469 27.53125 12.582031 18.660156 19.511719 43.613281 19.511719 70.257812 0 26.640625-6.929688 51.59375-19.511719 70.253906zm0 0"/><path d="m451.277344 274.292969c-3.785156 1.675781-5.5 6.105469-3.820313 9.894531 3.566407 8.058594 5.53125 18.367188 5.53125 29.03125 0 24.53125-10.285156 42.863281-19.480469 42.863281-9.199218 0-19.484374-18.332031-19.484374-42.863281 0-24.535156 10.285156-42.867188 19.484374-42.867188 4.140626 0 7.5-3.355468 7.5-7.5 0-4.140624-3.359374-7.5-7.5-7.5-10.105468 0-19.230468 6.644532-25.691406 18.710938-5.667968 10.582031-8.792968 24.488281-8.792968 39.15625 0 14.664062 3.125 28.570312 8.792968 39.152344 6.464844 12.066406 15.585938 18.710937 25.691406 18.710937 10.101563 0 19.226563-6.644531 25.6875-18.710937 5.667969-10.582032 8.792969-24.488282 8.792969-39.152344 0-12.894531-2.359375-25.03125-6.816406-35.105469-1.675781-3.785156-6.105469-5.496093-9.894531-3.820312zm0 0"/><path d="m284.671875 274.0625c-6.460937-12.066406-15.585937-18.710938-25.6875-18.710938s-19.226563 6.644532-25.691406 18.710938c-5.667969 10.582031-8.789063 24.488281-8.789063 39.15625 0 14.664062 3.121094 28.570312 8.789063 39.152344 6.464843 12.066406 15.589843 18.710937 25.691406 18.710937s19.226563-6.644531 25.6875-18.710937c5.671875-10.582032 8.792969-24.488282 8.792969-39.152344 0-14.667969-3.121094-28.574219-8.792969-39.15625zm-25.6875 82.019531c-9.199219 0-19.480469-18.332031-19.480469-42.863281 0-24.535156 10.28125-42.867188 19.480469-42.867188 9.195313 0 19.480469 18.332032 19.480469 42.867188 0 24.53125-10.285156 42.863281-19.480469 42.863281zm0 0"/><path d="m340.160156 54.921875c-10.101562 0-19.226562 6.644531-25.6875 18.710937-5.667968 10.582032-8.792968 24.484376-8.792968 39.152344 0 14.667969 3.125 28.574219 8.792968 39.15625 6.464844 12.066406 15.585938 18.710938 25.6875 18.710938 10.105469 0 19.230469-6.644532 25.691406-18.710938 5.667969-10.582031 8.792969-24.488281 8.792969-39.15625 0-14.667968-3.125-28.570312-8.792969-39.152344-6.460937-12.066406-15.585937-18.710937-25.691406-18.710937zm0 100.730469c-9.195312 0-19.480468-18.332032-19.480468-42.867188 0-24.53125 10.285156-42.863281 19.480468-42.863281 9.199219 0 19.484375 18.332031 19.484375 42.863281 0 24.535156-10.285156 42.867188-19.484375 42.867188zm0 0"/><path d="m209.949219 132.683594h-31.820313c-16.296875 0-29.554687 13.257812-29.554687 29.550781 0 16.296875 13.257812 29.554687 29.554687 29.554687h31.820313c16.296875 0 29.554687-13.257812 29.554687-29.554687 0-16.292969-13.257812-29.550781-29.554687-29.550781zm0 44.105468h-31.820313c-8.027344 0-14.554687-6.527343-14.554687-14.554687 0-8.019531 6.527343-14.550781 14.554687-14.550781h31.820313c8.023437 0 14.554687 6.527344 14.554687 14.550781 0 8.027344-6.53125 14.554687-14.554687 14.554687zm0 0"/></svg>