<svg height="512pt" viewBox="-43 0 512 512.002" width="512pt" xmlns="http://www.w3.org/2000/svg"><path d="m243.554688 117.589844h-60.414063v-79.882813c0-16.683593 13.523437-30.207031 30.207031-30.207031s30.207032 13.523438 30.207032 30.207031zm0 0" fill="#b2785b"/><path d="m345.820312 262.4375-122.148437-31.375c-6.101563-1.566406-12.5-1.566406-18.601563 0l-122.148437 31.375c-12.988281 3.335938-23.175781 13.359375-26.75 26.28125-7.625 27.609375-15.828125 77.046875 7.085937 117.148438 24.613282 43.066406 82.5 55.628906 120.199219 87.40625 17.761719 14.96875 44.066407 14.96875 61.828125 0 37.699219-31.777344 95.589844-44.339844 120.199219-87.40625 22.914063-40.101563 14.714844-89.539063 7.085937-117.148438-3.570312-12.925781-13.765624-22.945312-26.75-26.28125zm0 0" fill="#fce6d4"/><path d="m212.21875 418.664062c-11.0625-2.742187-20.429688-6.527343-28.367188-10.921874-34.421874-19.054688-30.175781-70.0625 6.949219-83.09375 67.054688-23.539063 151.207031-20.980469 151.207031-20.980469l1-41.953125-119.335937-30.652344c-6.101563-1.566406-12.5-1.566406-18.601563 0l-122.148437 31.375c-12.988281 3.332031-23.175781 13.355469-26.75 26.28125-7.625 27.609375-15.828125 77.046875 7.085937 117.148438 24.613282 43.066406 82.5 55.628906 120.199219 87.40625 17.761719 14.96875 44.066407 14.96875 61.828125 0 9.746094-8.214844 20.839844-15.148438 32.363282-21.652344-12.460938-21.414063-33.035157-44.917969-65.429688-52.957032zm0 0" fill="#efd4bf"/><path d="m12.222656 226.136719c-19.445312 46.234375 23.777344 94.308593 71.84375 79.976562 36.785156-10.964843 81.113282-19.644531 129.28125-19.644531 48.167969 0 92.496094 8.679688 129.28125 19.644531 48.070313 14.332031 91.289063-33.742187 71.84375-79.976562-30.722656-73.0625-89.644531-151.203125-201.125-151.203125-111.480468 0-170.398437 78.140625-201.125 151.203125zm0 0" fill="#dd9f80"/><path d="m149.324219 378.144531c0-13.183593-13.417969-23.871093-29.972657-23.871093-16.554687 0-29.972656 10.6875-29.972656 23.871093 0 13.183594 13.417969 23.867188 29.972656 23.867188 16.554688 0 29.972657-10.683594 29.972657-23.867188zm0 0" fill="#ffa6bb"/><path d="m337.316406 378.144531c0-13.183593-13.417968-23.871093-29.972656-23.871093s-29.972656 10.6875-29.972656 23.871093c0 13.183594 13.417968 23.867188 29.972656 23.867188s29.972656-10.683594 29.972656-23.867188zm0 0" fill="#ffa6bb"/><path d="m234.207031 372.097656c0-13.640625-9.339843-24.699218-20.859375-24.699218-11.519531 0-20.855468 11.058593-20.855468 24.699218s9.335937 24.699219 20.855468 24.699219c11.519532 0 20.859375-11.058594 20.859375-24.699219zm0 0" fill="#57565c"/><g fill="#c68d6d"><path d="m125.191406 198.804688c-27.871094-44.097657 15.007813-110.902344 15.007813-110.902344-65.628907 25.203125-104.820313 83.164062-127.976563 138.234375-19.445312 46.234375 23.777344 94.308593 71.84375 79.976562 36.785156-10.96875 81.113282-19.644531 129.28125-19.644531 31.917969 0 62.113282 3.800781 89.582032 9.5625-53.363282-58.382812-153.015626-58.113281-177.738282-97.226562zm0 0"/><path d="m257.171875 146.535156c0 9.230469-7.480469 16.710938-16.710937 16.710938-9.226563 0-16.707032-7.480469-16.707032-16.710938 0-9.226562 7.480469-16.707031 16.707032-16.707031 9.230468 0 16.710937 7.480469 16.710937 16.707031zm0 0"/><path d="m334.921875 175.101562c0 9.230469-7.480469 16.710938-16.707031 16.710938-9.230469 0-16.710938-7.480469-16.710938-16.710938 0-9.226562 7.480469-16.707031 16.710938-16.707031 9.226562 0 16.707031 7.480469 16.707031 16.707031zm0 0"/><path d="m276.972656 215.011719c0 9.226562-7.480468 16.707031-16.707031 16.707031-9.230469 0-16.710937-7.480469-16.710937-16.707031 0-9.230469 7.480468-16.710938 16.710937-16.710938 9.226563 0 16.707031 7.480469 16.707031 16.710938zm0 0"/></g><path d="m286.503906 345.089844v12.453125c0 4.140625 3.359375 7.5 7.5 7.5 4.144532 0 7.5-3.359375 7.5-7.5v-12.453125c0-4.140625-3.355468-7.5-7.5-7.5-4.140625 0-7.5 3.359375-7.5 7.5zm0 0"/><path d="m125.191406 345.089844v12.453125c0 4.140625 3.355469 7.5 7.5 7.5 4.144532 0 7.5-3.359375 7.5-7.5v-12.453125c0-4.140625-3.355468-7.5-7.5-7.5-4.140625 0-7.5 3.359375-7.5 7.5zm0 0"/><path d="m421.386719 223.230469c-26.515625-63.058594-77.019531-136.847657-170.332031-152.695313v-32.828125c0-20.792969-16.914063-37.707031-37.707032-37.707031-20.792968 0-37.707031 16.914062-37.707031 37.707031v32.8125c-43.109375 7.300781-80.675781 27.53125-112.03125 60.40625-2.859375 2.996094-2.746094 7.742188.25 10.601563s7.742187 2.746094 10.605469-.25c37.242187-39.046875 83.96875-58.84375 138.882812-58.84375 48.675782 0 91.03125 15.585937 125.886719 46.328125 27.585937 24.328125 50.574219 58.066406 68.328125 100.28125 7.847656 18.667969 4.308594 39.644531-9.242188 54.75-13.578124 15.136719-34.097656 20.933593-53.546874 15.132812-44.421876-13.242187-88.636719-19.957031-131.425782-19.957031-42.785156 0-87.003906 6.714844-131.421875 19.957031-19.449219 5.804688-39.96875.003907-53.546875-15.132812-13.550781-15.105469-17.089844-36.082031-9.242187-54.75 10.214843-24.289063 22.308593-46.011719 35.945312-64.566407 2.453125-3.335937 1.734375-8.03125-1.605469-10.484374-3.335937-2.453126-8.03125-1.734376-10.484374 1.605468-14.332032 19.503906-27.011719 42.257813-37.683594 67.632813-10.121094 24.070312-5.558594 51.113281 11.90625 70.582031 7.398437 8.246094 16.402344 14.332031 26.222656 18.054688-4.507812 27.878906-5.117188 65.472656 13.3125 97.722656 16.246094 28.429687 45.570312 44.1875 73.929688 59.425781 16.761718 9.007813 34.09375 18.320313 47.945312 29.992187 9.9375 8.378907 22.632812 12.996094 35.746094 12.996094 13.113281 0 25.808594-4.617187 35.75-12.992187 13.847656-11.675781 31.179687-20.988281 47.941406-29.996094 9.699219-5.210937 19.726562-10.597656 29.128906-16.453125 3.515625-2.1875 4.59375-6.8125 2.402344-10.328125-2.1875-3.519531-6.8125-4.59375-10.328125-2.40625-9 5.605469-18.8125 10.875-28.300781 15.976563-17.4375 9.367187-35.46875 19.054687-50.511719 31.738281-14.871094 12.53125-37.292969 12.527343-52.160156-.003907-15.042969-12.679687-33.074219-22.367187-50.511719-31.734374-27.71875-14.894532-53.898438-28.960938-68.007812-53.65625-16.011719-28.019532-15.65625-61.339844-11.738282-86.578126 9.222656 1.234376 18.796875.53125 28.175782-2.265624 43.027343-12.828126 85.804687-19.332032 127.136718-19.332032 41.335938 0 84.113282 6.503906 127.140625 19.332032 6.429688 1.917968 20.601563 4.519531 30.175781 1.960937 3.976563 25.367187 4.363282 58.789063-11.691406 86.882813-4.269531 7.476562-9.816406 14.292968-16.960937 20.835937-3.050781 2.800781-3.332031 7.613281-.460938 10.597656 3.855469 4.007813 9.160157 1.78125 10.597657.460938 8.304687-7.609375 14.792968-15.605469 19.847656-24.449219 18.574218-32.503906 17.824218-70.433594 13.183594-98.5 9.074218-3.765625 17.394531-9.570312 24.308593-17.277344 17.460938-19.472656 22.023438-46.519531 11.898438-70.585937zm-230.746094-154.699219v-30.824219c0-12.519531 10.1875-22.707031 22.707031-22.707031 12.523438 0 22.707032 10.1875 22.707032 22.707031v30.828125c-7.324219-.71875-14.882813-1.105468-22.707032-1.105468-7.71875.003906-15.289062.375-22.707031 1.101562zm0 0"/><path d="m184.992188 372.097656c0 17.753906 12.71875 32.199219 28.355468 32.199219 15.636719 0 28.359375-14.445313 28.359375-32.199219s-12.722656-32.199218-28.359375-32.199218c-15.636718 0-28.355468 14.445312-28.355468 32.199218zm41.714843 0c0 9.484375-5.992187 17.199219-13.359375 17.199219-7.363281 0-13.355468-7.714844-13.355468-17.199219s5.992187-17.199218 13.355468-17.199218c7.367188 0 13.359375 7.714843 13.359375 17.199218zm0 0"/><path d="m240.460938 122.328125c-13.347657 0-24.207032 10.859375-24.207032 24.207031 0 13.351563 10.859375 24.210938 24.207032 24.210938 13.351562 0 24.210937-10.859375 24.210937-24.210938 0-13.347656-10.859375-24.207031-24.210937-24.207031zm0 33.417969c-5.078126 0-9.207032-4.132813-9.207032-9.210938 0-5.074218 4.128906-9.207031 9.207032-9.207031 5.078124 0 9.210937 4.132813 9.210937 9.207031 0 5.078125-4.132813 9.210938-9.210937 9.210938zm0 0"/><path d="m342.421875 175.101562c0-13.347656-10.859375-24.207031-24.207031-24.207031s-24.210938 10.859375-24.210938 24.207031c0 13.347657 10.863282 24.210938 24.210938 24.210938s24.207031-10.863281 24.207031-24.210938zm-33.417969 0c0-5.078124 4.132813-9.207031 9.210938-9.207031s9.207031 4.128907 9.207031 9.207031c0 5.078126-4.128906 9.210938-9.207031 9.210938s-9.210938-4.132812-9.210938-9.210938zm0 0"/><path d="m236.054688 215.011719c0 13.347656 10.859374 24.207031 24.210937 24.207031 13.347656 0 24.207031-10.859375 24.207031-24.207031 0-13.351563-10.859375-24.210938-24.207031-24.210938-13.351563 0-24.210937 10.859375-24.210937 24.210938zm24.210937-9.210938c5.078125 0 9.207031 4.132813 9.207031 9.210938s-4.128906 9.207031-9.207031 9.207031-9.210937-4.128906-9.210937-9.207031 4.132812-9.210938 9.210937-9.210938zm0 0"/></svg>