<svg height="407pt" viewBox="-1 0 407 407.63648" width="407pt" xmlns="http://www.w3.org/2000/svg"><path d="m307.789062 194.832031c0 84.832031-68.769531 153.601563-153.597656 153.601563-84.832031 0-153.601562-68.769532-153.601562-153.601563s68.769531-153.601562 153.601562-153.601562c84.828125 0 153.597656 68.769531 153.597656 153.601562zm0 0" fill="#c1dbdc"/><g fill="#4c241d"><path d="m36.195312 26.105469c-1.746093 0-3.492187-.667969-4.824218-2-2.667969-2.664063-2.667969-6.988281 0-9.652344l12.453125-12.453125c2.664062-2.667969 6.988281-2.667969 9.652343 0 2.664063 2.664062 2.664063 6.988281 0 9.652344l-12.453124 12.453125c-1.332032 1.332031-3.078126 2-4.828126 2zm0 0"/><path d="m7.144531 55.160156c-1.746093 0-3.492187-.667968-4.828125-2-2.664062-2.664062-2.664062-6.988281 0-9.652344l12.453125-12.453124c2.667969-2.667969 6.988281-2.667969 9.65625 0 2.664063 2.664062 2.664063 6.984374 0 9.652343l-12.457031 12.453125c-1.332031 1.332032-3.078125 2-4.824219 2zm0 0"/><path d="m19.597656 26.105469c-1.746094 0-3.492187-.667969-4.828125-2l-12.453125-12.453125c-2.664062-2.664063-2.664062-6.988282 0-9.652344 2.667969-2.667969 6.988282-2.667969 9.652344 0l12.457031 12.453125c2.664063 2.664063 2.664063 6.988281 0 9.652344-1.335937 1.332031-3.082031 2-4.828125 2zm0 0"/><path d="m48.648438 55.160156c-1.746094 0-3.492188-.667968-4.824219-2l-12.453125-12.453125c-2.667969-2.667969-2.667969-6.988281 0-9.652343 2.664062-2.667969 6.984375-2.667969 9.652344 0l12.453124 12.453124c2.664063 2.664063 2.664063 6.988282 0 9.652344-1.332031 1.332032-3.078124 2-4.828124 2zm0 0"/><path d="m33.542969 407.636719c-3.417969 0-6.804688-.84375-9.90625-2.5-4.960938-2.65625-8.589844-7.078125-10.21875-12.464844-1.628907-5.378906-1.070313-11.074219 1.582031-16.035156 2.65625-4.960938 7.082031-8.589844 12.464844-10.21875 11.109375-3.367188 22.886718 2.933593 26.257812 14.042969 3.367188 11.109374-2.933594 22.890624-14.042968 26.261718-2.023438.609375-4.085938.914063-6.136719.914063zm.019531-28.472657c-.710938 0-1.429688.101563-2.144531.320313-1.890625.574219-3.445313 1.847656-4.378907 3.589844-.929687 1.742187-1.128906 3.746093-.554687 5.640625.574219 1.894531 1.851563 3.449218 3.59375 4.378906 1.738281.933594 3.746094 1.136719 5.640625.558594 3.90625-1.183594 6.117188-5.328125 4.9375-9.234375-.972656-3.191407-3.914062-5.253907-7.09375-5.253907zm0 0"/><path d="m210.894531 42.386719c-11.613281 0-21.058593-9.445313-21.058593-21.058594 0-11.609375 9.445312-21.054687 21.058593-21.054687 11.617188 0 21.0625 9.445312 21.0625 21.054687 0 11.613281-9.445312 21.058594-21.0625 21.058594zm0-28.460938c-4.085937 0-7.40625 3.320313-7.40625 7.402344 0 4.085937 3.320313 7.40625 7.40625 7.40625 4.089844 0 7.410157-3.320313 7.410157-7.40625 0-4.082031-3.320313-7.402344-7.410157-7.402344zm0 0"/><path d="m404.417969 75.945312c0 5.082032-4.121094 9.199219-9.203125 9.199219-5.082032 0-9.199219-4.117187-9.199219-9.199219 0-5.082031 4.117187-9.203124 9.199219-9.203124 5.082031 0 9.203125 4.121093 9.203125 9.203124zm0 0"/><path d="m28.953125 301.222656c0 5.082032-4.121094 9.203125-9.203125 9.203125s-9.203125-4.121093-9.203125-9.203125c0-5.082031 4.121094-9.199218 9.203125-9.199218s9.203125 4.117187 9.203125 9.199218zm0 0"/></g><path d="m273.65625 177.007812s12.375-37.125 70.660156-55.492187c13.0625-4.117187 27.203125 1.664063 33.972656 13.570313 13.441407 23.648437 26.71875 67.363281-13.609374 117.773437zm0 0" fill="#ffded5"/><path d="m364.675781 259.683594c-1.585937 0-3.140625-.554688-4.371093-1.582032l-91.019532-75.851562c-2.15625-1.796875-2.992187-4.738281-2.101562-7.40625.546875-1.648438 14.175781-40.648438 75.082031-59.835938 15.941406-5.050781 33.601563 2 41.960937 16.703126 13.359376 23.503906 29.269532 71.054687-14.214843 125.410156-1.148438 1.433594-2.820313 2.34375-4.648438 2.53125-.226562.023437-.460937.03125-.6875.03125zm-82.679687-84.609375 81.582031 67.980469c31.539063-43.304688 22.425781-80.574219 8.78125-104.59375-5.207031-9.144532-16.113281-13.535157-25.988281-10.433594-43.035156 13.554687-59.375 37.496094-64.375 47.046875zm0 0" fill="#4c241d"/><path d="m377.808594 387.554688c-1.746094 0-3.492188-.667969-4.824219-2-2.667969-2.664063-2.667969-6.984376 0-9.652344l20.125-20.125c2.667969-2.667969 6.988281-2.667969 9.652344 0 2.667969 2.664062 2.667969 6.984375 0 9.652344l-20.125 20.125c-1.332031 1.335937-3.078125 2-4.828125 2zm0 0" fill="#4c241d"/><path d="m323.453125 211.628906c3.367187-22.6875 17.320313-40.339844 38.949219-54.34375 0 0 19.089844 28.179688-10.933594 82.355469zm0 0" fill="#bf7e68"/><path d="m351.472656 246.46875c-1.800781 0-3.542968-.710938-4.828125-2l-28.019531-28.015625c-1.527344-1.527344-2.246094-3.695313-1.925781-5.832031 3.476562-23.402344 17.609375-43.273438 41.992187-59.066406 3.113282-2.027344 7.28125-1.175782 9.363282 1.90625.875 1.289062 21.074218 32.304687-10.613282 89.492187-1.039062 1.875-2.898437 3.152344-5.019531 3.449219-.316406.042968-.640625.066406-.949219.066406zm-20.683594-37.160156 18.925782 18.929687c15.007812-30.816406 12.699218-50.996093 9.777344-60.625-15.988282 11.929688-25.429688 25.648438-28.703126 41.695313zm0 0" fill="#4c241d"/><path d="m164.429688 177.007812s-12.375-37.125-70.660157-55.492187c-13.0625-4.117187-27.203125 1.664063-33.96875 13.570313-13.445312 23.648437-26.722656 67.363281 13.609375 117.773437zm0 0" fill="#ffded5"/><path d="m73.40625 259.683594c-.226562 0-.457031-.007813-.683594-.03125-1.824218-.1875-3.5-1.097656-4.644531-2.53125-43.488281-54.359375-27.570313-101.90625-14.210937-125.410156 8.355468-14.703126 26.007812-21.746094 41.957031-16.703126 60.902343 19.1875 74.535156 58.1875 75.082031 59.835938.890625 2.667969.054688 5.609375-2.105469 7.40625l-91.023437 75.851562c-1.234375 1.027344-2.78125 1.582032-4.371094 1.582032zm11.855469-132.648438c-7.847657 0-15.449219 4.246094-19.523438 11.425782-13.65625 24.019531-22.769531 61.285156 8.769531 104.59375l81.597657-67.996094c-4.976563-9.601563-21.195313-33.425782-64.382813-47.035156-2.128906-.667969-4.304687-.988282-6.460937-.988282zm0 0" fill="#4c241d"/><path d="m114.636719 211.628906c-3.371094-22.6875-17.324219-40.339844-38.953125-54.34375 0 0-19.089844 28.179688 10.9375 82.355469zm0 0" fill="#bf7e68"/><path d="m86.621094 246.46875c-.320313 0-.632813-.023438-.953125-.066406-2.121094-.296875-3.980469-1.578125-5.019531-3.449219-31.695313-57.1875-11.492188-88.203125-10.617188-89.496094 2.09375-3.070312 6.25-3.917969 9.359375-1.898437 24.390625 15.792968 38.519531 35.664062 41.996094 59.066406.316406 2.140625-.398438 4.300781-1.929688 5.828125l-28.011719 28.015625c-1.285156 1.289062-3.027343 2-4.824218 2zm-8.035156-78.859375c-2.914063 9.59375-5.238282 29.78125 9.785156 60.625l18.925781-18.925781c-3.269531-16.046875-12.710937-29.765625-28.710937-41.699219zm0 0" fill="#4c241d"/><path d="m352.90625 35.269531s-49.769531 11.523438-84.96875 40.652344l-3.039062 32.164063-24.886719 5.761718 5.761719 24.882813-16.078126-1.519531-1.519531 16.082031-29.441406 54.007812 61.269531-22.707031 8.375-27.503906-5.761718-24.882813 32.164062 3.039063-5.761719-24.882813 49.765625-11.523437zm0 0" fill="#a9ba5a"/><path d="m198.730469 214.125c-1.941407 0-3.839844-.828125-5.160157-2.359375-1.867187-2.152344-2.191406-5.234375-.832031-7.734375l28.773438-52.777344 1.386719-14.6875c.167968-1.800781 1.046874-3.460937 2.441406-4.617187 1.390625-1.15625 3.191406-1.722657 4.992187-1.535157l6.660157.625-3.632813-15.652343c-.40625-1.765625-.101563-3.617188.859375-5.15625.960938-1.539063 2.484375-2.628907 4.253906-3.035157l20.089844-4.65625 2.582031-27.265624c.167969-1.800782 1.046875-3.460938 2.441407-4.617188 36.023437-29.808594 85.683593-41.558594 87.777343-42.039062 2.296875-.535157 4.679688.148437 6.347657 1.800781 1.667968 1.652343 2.367187 4.039062 1.863281 6.328125l-14.121094 63.570312c-.574219 2.566406-2.566406 4.578125-5.125 5.171875l-43.117187 9.980469 4.230468 18.234375c.492188 2.136719-.074218 4.382813-1.515625 6.035156-1.445312 1.652344-3.597656 2.503907-5.78125 2.304688l-22.738281-2.152344 3.625 15.65625c.269531 1.167969.226562 2.382813-.117188 3.527344l-8.375 27.503906c-.625 2.039063-2.160156 3.671875-4.160156 4.414063l-61.273437 22.707031c-.773438.285156-1.582031.425781-2.375.425781zm37.121093-69.480469-.882812 9.285157c-.085938.917968-.351562 1.816406-.796875 2.625l-20.722656 38.007812 41.007812-15.199219 6.859375-22.515625-5.355468-23.101562c-.492188-2.136719.074218-4.382813 1.515624-6.035156 1.445313-1.652344 3.597657-2.515626 5.78125-2.300782l22.738282 2.148438-3.632813-15.65625c-.40625-1.761719-.101562-3.617188.859375-5.15625.960938-1.535156 2.488282-2.628906 4.253906-3.035156l45.574219-10.554688 10.71875-48.242188c-15.699219 4.847657-45.699219 15.796876-69.308593 34.503907l-2.773438 29.304687c-.269531 2.925782-2.390625 5.34375-5.25 6.007813l-18.234375 4.226562 4.226563 18.230469c.492187 2.136719-.066407 4.382812-1.515626 6.03125-1.445312 1.652344-3.589843 2.488281-5.777343 2.304688zm0 0" fill="#4c241d"/><path d="m85.183594 35.269531s49.765625 11.523438 84.96875 40.652344l3.039062 32.164063 24.882813 5.761718-5.761719 24.882813 16.082031-1.519531 1.519531 16.082031 29.441407 54.007812-61.273438-22.707031-8.371093-27.503906 5.761718-24.882813-32.164062 3.039063 5.761718-24.882813-49.769531-11.523437zm0 0" fill="#a9ba5a"/><path d="m239.355469 214.125c-.792969 0-1.601563-.140625-2.371094-.425781l-61.273437-22.707031c-1.996094-.742188-3.539063-2.371094-4.160157-4.410157l-8.375-27.503906c-.347656-1.144531-.390625-2.363281-.121093-3.527344l3.628906-15.65625-22.734375 2.148438c-2.207031.195312-4.339844-.652344-5.777344-2.300781-1.449219-1.652344-2.011719-3.898438-1.515625-6.035157l4.21875-18.234375-43.113281-9.984375c-2.558594-.59375-4.550781-2.601562-5.121094-5.167969l-14.121094-63.570312c-.507812-2.292969.195313-4.675781 1.859375-6.332031 1.664063-1.648438 4.070313-2.335938 6.34375-1.800781 2.097656.484374 51.75 12.230468 87.78125 42.042968 1.394532 1.152344 2.273438 2.8125 2.445313 4.613282l2.578125 27.269531 20.089844 4.652343c1.769531.40625 3.296874 1.5 4.253906 3.039063.960937 1.535156 1.265625 3.386719.859375 5.152344l-3.632813 15.652343 6.660156-.625c1.792969-.164062 3.597657.382813 4.992188 1.535157 1.394531 1.15625 2.273438 2.816406 2.441406 4.621093l1.386719 14.683594 28.773437 52.78125c1.359376 2.496094 1.03125 5.582032-.835937 7.730469-1.320313 1.527344-3.21875 2.359375-5.160156 2.359375zm-55.726563-34.757812 41.007813 15.199218-20.722657-38.007812c-.445312-.8125-.710937-1.707032-.796874-2.628906l-.882813-9.28125-9.285156.875c-2.171875.179687-4.332031-.652344-5.78125-2.300782-1.445313-1.652344-2.007813-3.898437-1.511719-6.035156l4.226562-18.230469-18.234374-4.222656c-2.863282-.664063-4.980469-3.085937-5.253907-6.007813l-2.769531-29.308593c-23.648438-18.742188-53.621094-29.675781-69.308594-34.507813l10.71875 48.25 45.570313 10.554688c3.671875.847656 5.960937 4.515625 5.109375 8.1875l-3.621094 15.65625 22.730469-2.148438c2.199219-.214844 4.339843.648438 5.78125 2.304688 1.449219 1.648437 2.011719 3.894531 1.515625 6.03125l-5.351563 23.105468zm0 0" fill="#4c241d"/><path d="m397.9375 387.554688c-1.746094 0-3.496094-.667969-4.828125-2l-20.125-20.125c-2.667969-2.667969-2.667969-6.988282 0-9.652344 2.664063-2.667969 6.984375-2.667969 9.652344 0l20.125 20.125c2.667969 2.667968 2.667969 6.988281 0 9.652344-1.332031 1.335937-3.078125 2-4.824219 2zm0 0" fill="#4c241d"/><path d="m77.609375 331.164062c-9.496094-15.4375-14.804687-32.683593-14.804687-50.882812 0-65.984375 69.804687-119.480469 155.914062-119.480469s155.917969 53.496094 155.917969 119.480469c0 65.988281-69.808594 119.480469-155.917969 119.480469-39.460938 0-75.496094-11.234375-102.960938-29.753907" fill="#ffded5"/><path d="m218.71875 406.589844c-39.289062 0-77.210938-10.984375-106.777344-30.921875-3.125-2.109375-3.949218-6.351563-1.84375-9.476563 2.109375-3.128906 6.355469-3.953125 9.476563-1.84375 27.335937 18.4375 62.542969 28.589844 99.144531 28.589844 82.214844 0 149.09375-50.535156 149.09375-112.652344 0-62.121094-66.882812-112.65625-149.09375-112.65625-82.207031 0-149.085938 50.535156-149.085938 112.65625 0 16.507813 4.640626 32.425782 13.792969 47.304688 1.976563 3.210937.972657 7.417968-2.234375 9.390625-3.207031 1.964843-7.421875.972656-9.390625-2.238281-10.496093-17.0625-15.820312-35.382813-15.820312-54.457032 0-69.648437 73-126.308594 162.738281-126.308594s162.746094 56.660157 162.746094 126.308594c0 69.644532-73.007813 126.304688-162.746094 126.304688zm0 0" fill="#4c241d"/><path d="m98.378906 363.082031c-1.667968 0-3.335937-.605469-4.648437-1.824219-3.554688-3.304687-6.910157-6.769531-9.976563-10.296874-2.472656-2.84375-2.171875-7.15625.675782-9.632813 2.84375-2.472656 7.160156-2.167969 9.628906.675781 2.75 3.164063 5.769531 6.277344 8.964844 9.25 2.761718 2.566406 2.917968 6.886719.351562 9.648438-1.34375 1.449218-3.167969 2.179687-4.996094 2.179687zm0 0" fill="#4c241d"/><path d="m215.628906 334.230469c-13.152344 0-23.851562-10.703125-23.851562-23.859375 0-3.769532 3.050781-6.824219 6.824218-6.824219 3.773438 0 6.828126 3.054687 6.828126 6.824219 0 5.628906 4.574218 10.203125 10.199218 10.203125 5.628906 0 10.203125-4.574219 10.203125-10.203125 0-3.769532 3.050781-6.824219 6.824219-6.824219s6.828125 3.054687 6.828125 6.824219c0 13.15625-10.699219 23.859375-23.855469 23.859375zm0 0" fill="#4c241d"/><path d="m163.125 274.105469c0 10.234375-8.296875 18.53125-18.53125 18.53125s-18.527344-8.296875-18.527344-18.53125 8.292969-18.53125 18.527344-18.53125 18.53125 8.296875 18.53125 18.53125zm0 0" fill="#ffce56"/><path d="m144.597656 299.460938c-13.984375 0-25.359375-11.371094-25.359375-25.355469 0-13.980469 11.375-25.359375 25.359375-25.359375 13.980469 0 25.355469 11.378906 25.355469 25.359375 0 13.984375-11.375 25.355469-25.355469 25.355469zm0-37.0625c-6.457031 0-11.707031 5.25-11.707031 11.707031 0 6.453125 5.25 11.703125 11.707031 11.703125 6.453125 0 11.703125-5.25 11.703125-11.703125 0-6.457031-5.25-11.707031-11.703125-11.707031zm0 0" fill="#4c241d"/><path d="m305.195312 274.105469c0 10.234375-8.296874 18.53125-18.53125 18.53125-10.234374 0-18.53125-8.296875-18.53125-18.53125s8.296876-18.53125 18.53125-18.53125c10.234376 0 18.53125 8.296875 18.53125 18.53125zm0 0" fill="#ffce56"/><path d="m286.664062 299.460938c-13.980468 0-25.351562-11.371094-25.351562-25.355469 0-13.980469 11.371094-25.359375 25.351562-25.359375 13.984376 0 25.359376 11.378906 25.359376 25.359375 0 13.984375-11.375 25.355469-25.359376 25.355469zm0-37.0625c-6.453124 0-11.699218 5.25-11.699218 11.707031 0 6.453125 5.246094 11.703125 11.699218 11.703125 6.453126 0 11.707032-5.25 11.707032-11.703125 0-6.457031-5.253906-11.707031-11.707032-11.707031zm0 0" fill="#4c241d"/><path d="m311.371094 258.664062c0 5.117188-4.148438 9.265626-9.265625 9.265626-5.117188 0-9.265625-4.148438-9.265625-9.265626 0-5.117187 4.148437-9.265624 9.265625-9.265624 5.117187 0 9.265625 4.148437 9.265625 9.265624zm0 0" fill="#fff"/><path d="m138.417969 258.664062c0 5.117188-4.148438 9.265626-9.265625 9.265626-5.117188 0-9.265625-4.148438-9.265625-9.265626 0-5.117187 4.148437-9.265624 9.265625-9.265624 5.117187 0 9.265625 4.148437 9.265625 9.265624zm0 0" fill="#fff"/></svg>