<svg height="396pt" viewBox="0 0 396 396.72832" width="396pt" xmlns="http://www.w3.org/2000/svg"><path d="m323.683594 220.183594c0 84.832031-68.769532 153.601562-153.601563 153.601562s-153.597656-68.769531-153.597656-153.601562c0-84.832032 68.765625-153.601563 153.597656-153.601563s153.601563 68.769531 153.601563 153.601563zm0 0" fill="#c1dbdc"/><g fill="#4c241d"><path d="m39.316406 364.605469c-1.746094 0-3.492187-.664063-4.828125-2-2.664062-2.664063-2.664062-6.984375 0-9.652344l13.765625-13.765625c2.667969-2.664062 6.988282-2.664062 9.65625 0 2.664063 2.667969 2.664063 6.988281 0 9.652344l-13.765625 13.765625c-1.335937 1.335937-3.082031 2-4.828125 2zm0 0"/><path d="m7.191406 396.726562c-1.746094 0-3.496094-.664062-4.828125-2-2.664062-2.664062-2.664062-6.984374 0-9.652343l13.765625-13.765625c2.667969-2.664063 6.988282-2.664063 9.652344 0 2.667969 2.667968 2.667969 6.988281 0 9.652344l-13.765625 13.765624c-1.332031 1.335938-3.078125 2-4.824219 2zm0 0"/><path d="m20.957031 364.605469c-1.746093 0-3.496093-.664063-4.828125-2l-13.765625-13.765625c-2.664062-2.664063-2.664062-6.984375 0-9.652344 2.667969-2.664062 6.988281-2.664062 9.652344 0l13.765625 13.765625c2.667969 2.667969 2.667969 6.988281 0 9.652344-1.332031 1.335937-3.078125 2-4.824219 2zm0 0"/><path d="m53.082031 396.726562c-1.746093 0-3.492187-.664062-4.828125-2l-13.765625-13.765624c-2.664062-2.664063-2.664062-6.984376 0-9.652344 2.667969-2.664063 6.988281-2.664063 9.65625 0l13.765625 13.765625c2.664063 2.667969 2.664063 6.988281 0 9.652343-1.335937 1.335938-3.082031 2-4.828125 2zm0 0"/><path d="m349.304688 46.105469h-19.46875c-3.773438 0-6.824219-3.058594-6.824219-6.828125 0-3.769532 3.050781-6.828125 6.824219-6.828125h19.46875c3.773437 0 6.824218 3.058593 6.824218 6.828125 0 3.769531-3.050781 6.828125-6.824218 6.828125zm0 0"/><path d="m303.875 46.105469h-19.464844c-3.773437 0-6.828125-3.058594-6.828125-6.828125 0-3.769532 3.054688-6.828125 6.828125-6.828125h19.464844c3.773438 0 6.828125 3.058593 6.828125 6.828125 0 3.769531-3.054687 6.828125-6.828125 6.828125zm0 0"/><path d="m316.855469 33.125c-3.773438 0-6.824219-3.058594-6.824219-6.828125v-19.46875c0-3.773437 3.050781-6.828125 6.824219-6.828125 3.773437 0 6.828125 3.054688 6.828125 6.828125v19.46875c0 3.769531-3.054688 6.828125-6.828125 6.828125zm0 0"/><path d="m316.855469 78.554688c-3.773438 0-6.824219-3.058594-6.824219-6.828126v-19.46875c0-3.769531 3.050781-6.828124 6.824219-6.828124 3.773437 0 6.828125 3.058593 6.828125 6.828124v19.46875c0 3.769532-3.054688 6.828126-6.828125 6.828126zm0 0"/><path d="m49.296875 60.910156c-11.613281 0-21.058594-9.445312-21.058594-21.054687 0-11.613281 9.445313-21.058594 21.058594-21.058594s21.058594 9.445313 21.058594 21.058594c0 11.609375-9.445313 21.054687-21.058594 21.054687zm0-28.460937c-4.085937 0-7.40625 3.320312-7.40625 7.40625 0 4.082031 3.320313 7.402343 7.40625 7.402343s7.40625-3.320312 7.40625-7.402343c0-4.085938-3.320313-7.40625-7.40625-7.40625zm0 0"/><path d="m354.617188 383.730469c-1.746094 0-3.496094-.667969-4.828126-2-2.664062-2.667969-2.664062-6.988281 0-9.652344l30.042969-30.042969c2.664063-2.664062 6.984375-2.664062 9.652344 0 2.664063 2.667969 2.664063 6.988282 0 9.652344l-30.042969 30.042969c-1.332031 1.335937-3.078125 2-4.824218 2zm0 0"/><path d="m384.65625 383.730469c-1.746094 0-3.492188-.667969-4.824219-2l-30.042969-30.042969c-2.664062-2.664062-2.664062-6.984375 0-9.652344 2.667969-2.664062 6.988282-2.664062 9.652344 0l30.042969 30.042969c2.664063 2.664063 2.664063 6.984375 0 9.652344-1.335937 1.335937-3.082031 2-4.828125 2zm0 0"/></g><path d="m100.75 324.617188c12.464844 16.246093 28.628906 30.066406 48.035156 40.070312 70.382813 36.265625 156.835938 8.613281 193.105469-61.765625s8.617187-156.835937-61.765625-193.105469c-70.378906-36.269531-156.832031-8.613281-193.101562 61.765625-16.621094 32.253907-19.820313 67.878907-11.628907 100.507813" fill="#ffce56"/><path d="m214.296875 387.511719c-23.613281 0-47.039063-5.632813-68.636719-16.761719-19.878906-10.234375-36.8125-24.363281-50.324218-41.976562-2.300782-2.992188-1.734376-7.277344 1.257812-9.570313 3.007812-2.300781 7.28125-1.722656 9.566406 1.257813 12.289063 16.007812 27.679688 28.84375 45.753906 38.152343 32.421876 16.710938 69.414063 19.792969 104.136719 8.679688 34.738281-11.109375 63.066407-35.082031 79.773438-67.5 34.484375-66.921875 8.089843-149.421875-58.828125-183.90625-32.414063-16.714844-69.394532-19.789063-104.136719-8.679688-34.738281 11.109375-63.066406 35.082031-79.769531 67.5-15.222656 29.539063-19.15625 63.535157-11.082032 95.71875.921876 3.65625-1.300781 7.363281-4.957031 8.28125-3.59375.925781-7.367187-1.296875-8.28125-4.960937-8.886719-35.40625-4.5625-72.796875 12.1875-105.292969 18.371094-35.660156 49.53125-62.027344 87.746094-74.25 38.21875-12.230469 78.894531-8.832031 114.546875 9.546875 73.613281 37.933594 102.640625 128.683594 64.703125 202.296875-18.371094 35.660156-49.53125 62.03125-87.746094 74.25-15.070312 4.824219-30.53125 7.214844-45.910156 7.214844zm0 0" fill="#4c241d"/><path d="m89.175781 313.792969c-2.398437 0-4.726562-1.269531-5.972656-3.515625-2.464844-4.441406-4.734375-9.058594-6.738281-13.730469-1.488282-3.460937.113281-7.476563 3.578125-8.964844 3.453125-1.496093 7.476562.109375 8.96875 3.578125 1.824219 4.25 3.886719 8.453125 6.125 12.488282 1.835937 3.300781.640625 7.453124-2.652344 9.285156-1.046875.582031-2.1875.859375-3.308594.859375zm0 0" fill="#4c241d"/><path d="m323.683594 271.382812c0 60.324219-48.902344 109.226563-109.226563 109.226563s-109.226562-48.902344-109.226562-109.226563c0-60.324218 48.902343-109.226562 109.226562-109.226562s109.226563 48.902344 109.226563 109.226562zm0 0" fill="#efefd2"/><path d="m214.457031 387.4375c-63.992187 0-116.054687-52.058594-116.054687-116.054688 0-63.992187 52.0625-116.050781 116.054687-116.050781 63.992188 0 116.050781 52.058594 116.050781 116.050781 0 63.996094-52.058593 116.054688-116.050781 116.054688zm0-218.453125c-56.46875 0-102.402343 45.9375-102.402343 102.398437 0 56.464844 45.933593 102.402344 102.402343 102.402344 56.464844 0 102.398438-45.9375 102.398438-102.402344 0-56.460937-45.933594-102.398437-102.398438-102.398437zm0 0" fill="#4c241d"/><path d="m262.242188 93.890625c0 26.390625-22.921876 27.304687-51.199219 27.304687-28.277344 0-51.199219-.914062-51.199219-27.304687s22.921875-47.785156 51.199219-47.785156c28.277343 0 51.199219 21.394531 51.199219 47.785156zm0 0" fill="#ffce56"/><path d="m211.042969 128.023438c-25.851563 0-58.027344 0-58.027344-34.132813 0-30.113281 26.035156-54.613281 58.027344-54.613281 31.992187 0 58.027343 24.5 58.027343 54.613281 0 34.132813-32.175781 34.132813-58.027343 34.132813zm0-75.09375c-24.46875 0-44.375 18.375-44.375 40.960937 0 17.519531 11.082031 20.480469 44.375 20.480469s44.375-2.960938 44.375-20.480469c0-22.585937-19.910157-40.960937-44.375-40.960937zm0 0" fill="#4c241d"/><path d="m193.976562 121.195312c-3.773437 0-6.828124-3.054687-6.828124-6.824218v-27.308594c0-3.769531 3.054687-6.824219 6.828124-6.824219 3.773438 0 6.828126 3.054688 6.828126 6.824219v27.308594c0 3.769531-3.054688 6.824218-6.828126 6.824218zm0 0" fill="#4c241d"/><path d="m228.109375 121.195312c-3.773437 0-6.828125-3.054687-6.828125-6.824218v-27.308594c0-3.769531 3.054688-6.824219 6.828125-6.824219s6.828125 3.054688 6.828125 6.824219v27.308594c0 3.769531-3.054688 6.824218-6.828125 6.824218zm0 0" fill="#4c241d"/><path d="m235.207031 330.15625c5.707031 6.394531 12.589844 9.375 17.515625 6.832031 6.152344-3.175781 7.027344-13.820312 2.453125-24.621093-10.285156.125-18.660156 7.832031-19.96875 17.789062zm0 0" fill="#f53e28"/><path d="m248.84375 344.742188c-6.179688 0-12.894531-3.5-18.734375-10.039063-1.320313-1.484375-1.933594-3.472656-1.675781-5.441406 1.761718-13.359375 13.222656-23.5625 26.660156-23.71875h.082031c2.738281 0 5.214844 1.636719 6.285157 4.160156 6.234374 14.71875 3.929687 28.429687-5.605469 33.355469-2.191407 1.128906-4.558594 1.683594-7.011719 1.683594zm-6.121094-16.746094c3.300782 2.816406 5.960938 3.382812 6.875 2.929687 1.324219-.6875 2.40625-4.851562.972656-10.847656-3.605468 1.367187-6.472656 4.234375-7.847656 7.917969zm0 0" fill="#4c241d"/><path d="m230.804688 294.523438c-6.699219 3.457031-7.226563 15.769531-1.175782 27.496093 1.605469 3.105469 3.519532 5.828125 5.578125 8.136719 1.308594-9.957031 9.683594-17.664062 19.96875-17.785156-.40625-.960938-.785156-1.917969-1.277343-2.875-6.054688-11.726563-16.390626-18.429688-23.09375-14.972656zm0 0" fill="#e66353"/><path d="m235.203125 336.980469c-1.921875 0-3.78125-.808594-5.101563-2.285157-2.539062-2.855468-4.738281-6.066406-6.539062-9.542968-8.03125-15.566406-6.265625-31.335938 4.105469-36.695313 10.402343-5.34375 24.261719 2.347657 32.292969 17.910157.480468.925781.882812 1.863281 1.273437 2.800781.882813 2.097656.773437 4.765625-.472656 6.667969-1.246094 1.894531-3.234375 3.332031-5.507813 3.359374-6.796875.078126-12.390625 5.066407-13.285156 11.851563-.347656 2.648437-2.207031 4.847656-4.757812 5.632813-.660157.203124-1.339844.300781-2.007813.300781zm-1.265625-36.390625c-1.566406.8125-2.980469 6.871094.320312 15.148437 2.792969-3.46875 6.414063-6.226562 10.519532-8-4.515625-5.984375-9.402344-7.910156-10.839844-7.148437zm0 0" fill="#4c241d"/><path d="m319.996094 140.425781c-14.933594 10.296875-19.390625 37.144531-11.199219 66.023438l41.523437-14.386719c-6.304687-18.953125-16.542968-36.609375-30.324218-51.636719zm0 0" fill="#ffce56"/><path d="m308.796875 213.273438c-1.089844 0-2.175781-.257813-3.15625-.773438-1.667969-.867188-2.898437-2.382812-3.414063-4.1875-9.070312-31.976562-3.492187-61.519531 13.894532-73.507812 2.796875-1.921876 6.59375-1.507813 8.910156 1.007812 14.335938 15.640625 25.03125 33.84375 31.769531 54.089844 1.179688 3.546875-.710937 7.386718-4.246093 8.609375l-41.523438 14.386719c-.730469.253906-1.480469.375-2.234375.375zm10.660156-63.085938c-7.777343 9.625-10.035156 27.554688-5.835937 47.363281l27.941406-9.679687c-5.328125-13.757813-12.730469-26.386719-22.105469-37.683594zm0 0" fill="#4c241d"/><path d="m308.792969 206.445312c1.125 3.96875 2.480469 7.972657 4.089843 11.980469 9.679688 24.101563 25.753907 42.039063 41.632813 48.808594 5.4375-25.367187 3.746094-51.296875-4.195313-75.171875zm0 0" fill="#fff"/><path d="m354.515625 274.0625c-.90625 0-1.820313-.179688-2.679687-.546875-18.273438-7.789063-35.207032-27.433594-45.285157-52.546875-1.632812-4.046875-3.089843-8.304688-4.320312-12.652344-.988281-3.484375.914062-7.132812 4.332031-8.316406l41.527344-14.386719c1.726562-.605469 3.621094-.484375 5.253906.324219s2.878906 2.238281 3.457031 3.96875c8.460938 25.453125 9.980469 52.683594 4.386719 78.757812-.425781 1.992188-1.71875 3.691407-3.53125 4.628907-.980469.511719-2.058594.769531-3.140625.769531zm-37.21875-63.335938c.601563 1.75 1.246094 3.46875 1.917969 5.148438 7.121094 17.738281 18.273437 32.59375 30.261718 40.792969 2.664063-18.597657 1.441407-37.628907-3.613281-55.835938zm0 0" fill="#4c241d"/><path d="m341.640625 195.066406c-7.46875 6.664063-8.378906 20.128906-1.558594 31.945313 4.34375 7.523437 10.855469 12.597656 17.464844 14.558593.496094-16.894531-1.953125-33.660156-7.226563-49.507812zm0 0" fill="#6b4f5b"/><path d="m357.550781 248.398438c-.648437 0-1.300781-.09375-1.941406-.28125-8.613281-2.554688-16.425781-9.003907-21.4375-17.695313-8.355469-14.472656-7.128906-31.484375 2.933594-40.449219.664062-.601562 1.453125-1.0625 2.304687-1.355468l8.679688-3.007813c1.730468-.601563 3.621094-.480469 5.253906.328125 1.632812.804688 2.882812 2.234375 3.460938 3.964844 5.539062 16.664062 8.085937 34.113281 7.574218 51.867187-.066406 2.117188-1.105468 4.085938-2.820312 5.332031-1.183594.851563-2.589844 1.296876-4.007813 1.296876zm-12.195312-47.390626c-4.238281 4.871094-4.046875 14.476563.640625 22.589844 1.292968 2.25 2.847656 4.257813 4.574218 5.960938-.539062-9.753906-2.113281-19.367188-4.707031-28.726563zm0 0" fill="#4c241d"/><path d="m108.914062 140.425781c14.933594 10.296875 19.394532 37.144531 11.203126 66.023438l-41.527344-14.386719c6.308594-18.953125 16.542968-36.609375 30.324218-51.636719zm0 0" fill="#ffce56"/><path d="m120.117188 213.273438c-.753907 0-1.507813-.121094-2.234376-.378907l-41.527343-14.386719c-3.53125-1.222656-5.425781-5.058593-4.246094-8.605468 6.738281-20.25 17.433594-38.449219 31.773437-54.09375 2.3125-2.519532 6.121094-2.933594 8.90625-1.003906 17.386719 11.988281 22.96875 41.527343 13.894532 73.503906-.511719 1.808594-1.746094 3.324218-3.414063 4.191406-.980469.515625-2.066406.773438-3.152343.773438zm-32.769532-25.402344 27.941406 9.679687c4.199219-19.808593 1.941407-37.738281-5.832031-47.363281-9.375 11.296875-16.78125 23.925781-22.109375 37.683594zm0 0" fill="#4c241d"/><path d="m120.117188 206.445312c-1.125 3.96875-2.476563 7.972657-4.085938 11.980469-9.683594 24.101563-25.753906 42.039063-41.632812 48.808594-5.441407-25.367187-3.75-51.296875 4.191406-75.171875zm0 0" fill="#fff"/><path d="m74.398438 274.0625c-1.082032 0-2.164063-.257812-3.140626-.765625-1.8125-.9375-3.105468-2.636719-3.535156-4.632813-5.589844-26.070312-4.074218-53.304687 4.386719-78.753906.582031-1.734375 1.828125-3.164062 3.460937-3.96875 1.632813-.8125 3.523438-.933594 5.253907-.328125l41.523437 14.386719c3.421875 1.183594 5.320313 4.835938 4.335938 8.316406-1.234375 4.347656-2.6875 8.609375-4.320313 12.660156-10.082031 25.101563-27.015625 44.746094-45.285156 52.539063-.863281.363281-1.773437.546875-2.679687.546875zm8.652343-73.230469c-5.054687 18.203125-6.28125 37.238281-3.613281 55.835938 11.992188-8.203125 23.140625-23.0625 30.257812-40.785157.675782-1.679687 1.320313-3.40625 1.921876-5.15625zm0 0" fill="#4c241d"/><path d="m87.269531 195.066406c7.472657 6.664063 8.382813 20.128906 1.5625 31.945313-4.34375 7.523437-10.859375 12.597656-17.46875 14.558593-.496093-16.894531 1.953125-33.660156 7.226563-49.507812zm0 0" fill="#6b4f5b"/><path d="m71.363281 248.398438c-1.421875 0-2.828125-.445313-4.007812-1.296876-1.714844-1.246093-2.753907-3.214843-2.820313-5.332031-.511718-17.753906 2.03125-35.203125 7.574219-51.867187.582031-1.730469 1.828125-3.160156 3.460937-3.964844 1.632813-.8125 3.523438-.929688 5.253907-.328125l8.679687 3.007813c.851563.292968 1.640625.753906 2.304688 1.355468 10.0625 8.964844 11.289062 25.976563 2.933594 40.453125-5.011719 8.6875-12.824219 15.136719-21.4375 17.691407-.640626.1875-1.296876.28125-1.941407.28125zm11.6875-47.566407c-2.59375 9.359375-4.167969 18.972657-4.707031 28.730469 1.726562-1.707031 3.277344-3.714844 4.574219-5.960938 4.683593-8.117187 4.878906-17.726562.636719-22.59375zm0 0" fill="#4c241d"/><path d="m34.574219 121.195312c0 6.222657-5.042969 11.269532-11.265625 11.269532s-11.265625-5.046875-11.265625-11.269532c0-6.21875 5.042969-11.265624 11.265625-11.265624s11.265625 5.046874 11.265625 11.265624zm0 0" fill="#4c241d"/><path d="m396.386719 100.71875c0 6.21875-5.042969 11.265625-11.265625 11.265625-6.21875 0-11.265625-5.046875-11.265625-11.265625 0-6.222656 5.046875-11.265625 11.265625-11.265625 6.222656 0 11.265625 5.042969 11.265625 11.265625zm0 0" fill="#4c241d"/></svg>