<svg height="417pt" viewBox="0 -1 417.08032 417" width="417pt" xmlns="http://www.w3.org/2000/svg"><path d="m315.929688 200.183594c0 84.832031-68.769532 153.601562-153.601563 153.601562s-153.601563-68.769531-153.601563-153.601562c0-84.832032 68.769532-153.597656 153.601563-153.597656s153.601563 68.765624 153.601563 153.597656zm0 0" fill="#c1dbdc"/><g fill="#4c241d"><path d="m377.367188 79.472656c-3.773438 0-6.824219-3.054687-6.824219-6.824218v-19.734376c0-3.769531 3.050781-6.828124 6.824219-6.828124 3.773437 0 6.828124 3.058593 6.828124 6.828124v19.734376c0 3.769531-3.054687 6.824218-6.828124 6.824218zm0 0"/><path d="m377.367188 33.425781c-3.773438 0-6.824219-3.054687-6.824219-6.824219v-19.734374c0-3.769532 3.050781-6.8281255 6.824219-6.8281255 3.773437 0 6.828124 3.0585935 6.828124 6.8281255v19.730468c0 3.773438-3.054687 6.828125-6.828124 6.828125zm0 0"/><path d="m410.253906 46.585938h-19.734375c-3.773437 0-6.824219-3.058594-6.824219-6.828126 0-3.769531 3.050782-6.828124 6.824219-6.828124h19.734375c3.773438 0 6.828125 3.058593 6.828125 6.828124 0 3.769532-3.054687 6.828126-6.828125 6.828126zm0 0"/><path d="m364.214844 46.585938h-19.734375c-3.773438 0-6.824219-3.058594-6.824219-6.828126 0-3.769531 3.050781-6.828124 6.824219-6.828124h19.734375c3.773437 0 6.828125 3.058593 6.828125 6.828124 0 3.769532-3.054688 6.828126-6.828125 6.828126zm0 0"/><path d="m362.535156 406.160156c-3.421875 0-6.808594-.84375-9.910156-2.5-4.957031-2.652344-8.585938-7.074218-10.21875-12.460937-1.632812-5.382813-1.066406-11.078125 1.582031-16.039063 2.652344-4.960937 7.085938-8.589844 12.472657-10.21875 5.367187-1.644531 11.074218-1.070312 16.035156 1.582032 4.960937 2.65625 8.585937 7.078124 10.21875 12.460937v.007813c3.359375 11.109374-2.941406 22.886718-14.046875 26.253906-2.019531.613281-4.078125.914062-6.132813.914062zm.039063-28.476562c-.726563 0-1.445313.105468-2.160157.324218-1.894531.574219-3.453124 1.847657-4.386718 3.59375-.933594 1.742188-1.125 3.746094-.550782 5.636719.570313 1.890625 1.84375 3.449219 3.589844 4.382813 1.753906.933594 3.753906 1.128906 5.640625.554687 3.902344-1.183593 6.121094-5.324219 4.941407-9.234375-.574219-1.886718-1.847657-3.445312-3.59375-4.378906-1.09375-.582031-2.28125-.878906-3.480469-.878906zm0 0"/><path d="m21.058594 75.042969c-11.613282 0-21.058594-9.445313-21.058594-21.054688s9.445312-21.058593 21.058594-21.058593c11.617187 0 21.0625 9.449218 21.0625 21.058593s-9.445313 21.054688-21.0625 21.054688zm0-28.457031c-4.085938 0-7.40625 3.316406-7.40625 7.402343 0 4.082031 3.320312 7.402344 7.40625 7.402344 4.089844 0 7.410156-3.320313 7.410156-7.402344 0-4.085937-3.320312-7.402343-7.410156-7.402343zm0 0"/></g><path d="m145.261719 128.503906s20.480469-109.226562 136.53125-68.265625c116.054687 40.960938 54.613281 225.28125 116.054687 273.066407 0 0-112.640625 64.851562-167.253906-187.734376 0 0-13.652344-109.226562-75.09375-13.652343zm0 0" fill="#a9ba5a"/><path d="m365.640625 347.625c-10.039063 0-21.632813-1.867188-34.019531-7.363281-48.382813-21.472657-84.621094-86.496094-107.699219-193.246094-2.1875-17.140625-10.105469-44.433594-22.460937-47.234375-5.585938-1.308594-18.265626 1.683594-40.21875 35.828125-1.6875 2.625-4.945313 3.769531-7.898438 2.785156l-10.242188-3.414062c-3.234374-1.078125-5.179687-4.378907-4.546874-7.730469.367187-1.976562 9.515624-48.59375 48.765624-71.234375 25.96875-14.957031 58.515626-15.710937 96.75-2.214844 71.898438 25.378907 79.433594 101.4375 86.074219 168.546875 4.457031 44.996094 8.664063 87.503906 31.898438 105.566406 1.792969 1.398438 2.773437 3.59375 2.621093 5.863282-.160156 2.269531-1.441406 4.3125-3.40625 5.445312-.863281.496094-14.949218 8.402344-35.617187 8.402344zm-166.445313-261.753906c1.777344 0 3.542969.199218 5.296876.597656 25.601562 5.820312 32.207031 52.90625 32.875 58.253906 27.371093 126.472656 69.226562 169.34375 99.507812 182.929688 20.613281 9.253906 38.492188 6.515625 48.667969 3.359375-20.703125-23.644531-24.734375-64.417969-28.988281-107.316407-6.546876-66.140624-13.320313-134.53125-77.035157-157.019531-34.300781-12.109375-63.03125-11.722656-85.378906 1.167969-24.738281 14.265625-35.792969 40.496094-39.984375 53.769531 16.492188-23.972656 31.316406-35.742187 45.039062-35.742187zm0 0" fill="#4c241d"/><path d="m112.878906 44.746094c-1.746094 0-3.492187-.664063-4.824218-2-2.667969-2.664063-2.667969-6.984375 0-9.652344l20.125-20.125c2.667968-2.667969 6.988281-2.667969 9.652343 0 2.667969 2.664062 2.667969 6.988281 0 9.652344l-20.125 20.125c-1.332031 1.335937-3.078125 2-4.828125 2zm0 0" fill="#4c241d"/><path d="m133.007812 44.746094c-1.746093 0-3.492187-.664063-4.828124-2l-20.125-20.125c-2.667969-2.664063-2.667969-6.988282 0-9.652344 2.664062-2.667969 6.988281-2.667969 9.652343 0l20.125 20.125c2.667969 2.667969 2.667969 6.988281 0 9.652344-1.332031 1.335937-3.078125 2-4.824219 2zm0 0" fill="#4c241d"/><path d="m246.539062 378.542969c-16.199218 12.523437-35.355468 21.761719-56.675781 26.472656-77.308593 17.09375-153.832031-31.71875-170.929687-109.027344-17.09375-77.308593 31.722656-153.835937 109.03125-170.929687s153.835937 31.71875 170.929687 109.027344c7.832031 35.429687 1.824219 70.691406-14.421875 100.148437" fill="#efefd2"/><path d="m158.894531 415.242188c-68.898437 0-131.15625-47.792969-146.628906-117.78125-8.65625-39.167969-1.542969-79.367188 20.027344-113.191407 21.574219-33.820312 55.027343-57.214843 94.191406-65.878906 80.894531-17.878906 161.203125 33.371094 179.074219 114.222656 7.886718 35.6875 2.527344 72.949219-15.105469 104.917969-1.828125 3.300781-5.972656 4.5-9.28125 2.679688-3.300781-1.820313-4.5-5.972657-2.679687-9.273438 16.035156-29.0625 20.90625-62.933594 13.734374-95.378906-16.253906-73.503906-89.285156-120.085938-162.792968-103.835938-73.507813 16.253906-120.085938 89.28125-103.835938 162.789063 16.253906 73.511719 89.3125 120.117187 162.792969 103.839843 19.855469-4.386718 38.015625-12.871093 53.976563-25.207031 2.984374-2.320312 7.273437-1.757812 9.570312 1.222657 2.308594 2.984374 1.761719 7.273437-1.226562 9.574218-17.566407 13.582032-37.539063 22.914063-59.375 27.742188-10.867188 2.402344-21.742188 3.558594-32.441407 3.558594zm0 0" fill="#4c241d"/><path d="m262.242188 371.261719c-1.699219 0-3.40625-.628907-4.726563-1.902344-2.722656-2.609375-2.808594-6.933594-.203125-9.652344 3.214844-3.34375 6.28125-6.878906 9.113281-10.507812 2.316407-2.980469 6.601563-3.503907 9.582031-1.179688 2.972657 2.320313 3.5 6.609375 1.179688 9.578125-3.121094 4-6.496094 7.890625-10.019531 11.5625-1.339844 1.398438-3.132813 2.101563-4.925781 2.101563zm0 0" fill="#4c241d"/><path d="m94.25 231.867188c-3.253906-3.777344-6.496094-6.953126-9.496094-9.453126-9.175781-7.644531-23.183594-5.453124-29.34375 4.777344-8.785156 14.582032-10.089844 35.105469-9.835937 48.410156.160156 8.445313 6.070312 15.582032 14.304687 17.464844 4.765625 1.089844 9.53125 1.648438 14.292969 1.976563-2.550781-6.085938-4.003906-12.75-4.003906-19.765625 0-18.3125 9.625-34.359375 24.082031-43.410156zm0 0" fill="#fff"/><path d="m74.175781 301.871094c-.152343 0-.316406-.007813-.464843-.015625-5.871094-.402344-10.75-1.082031-15.347657-2.136719-11.328125-2.582031-19.394531-12.449219-19.613281-23.988281-.285156-15.085938 1.351562-36.359375 10.8125-52.0625 3.933594-6.523438 10.535156-11 18.105469-12.277344 7.679687-1.296875 15.496093.8125 21.453125 5.777344 3.472656 2.890625 6.933594 6.339843 10.300781 10.25 1.300781 1.511719 1.875 3.511719 1.574219 5.476562-.292969 1.964844-1.441406 3.707031-3.128906 4.761719-13.066407 8.183594-20.871094 22.246094-20.871094 37.621094 0 5.867187 1.167968 11.628906 3.472656 17.125.921875 2.183594.640625 4.6875-.738281 6.613281-1.289063 1.800781-3.363281 2.855469-5.554688 2.855469zm-2.0625-77.199219c-.71875 0-1.453125.0625-2.171875.179687-3.699218.625-6.789062 2.707032-8.6875 5.863282-8.1875 13.597656-9.0625 33.878906-8.855468 44.753906.101562 5.253906 3.800781 9.753906 9 10.941406 1.027343.238282 2.074218.449219 3.160156.644532-.8125-3.867188-1.21875-7.800782-1.21875-11.777344 0-17.347656 7.59375-33.417969 20.648437-44.367188-1.214843-1.175781-2.421875-2.265625-3.609375-3.25-2.332031-1.945312-5.257812-2.988281-8.265625-2.988281zm0 0" fill="#4c241d"/><path d="m114.5 271.367188c-4.8125-17.890626-12.566406-30.574219-20.25-39.5-14.457031 9.050781-24.082031 25.097656-24.082031 43.410156 0 7.015625 1.453125 13.679687 4.003906 19.769531 8.691406.597656 17.378906.113281 26.066406-1.503906 10.371094-1.933594 17-11.988281 14.261719-22.175781zm0 0" fill="#f53e28"/><path d="m81.308594 302.117188c-2.539063 0-5.074219-.085938-7.609375-.261719-2.570313-.179688-4.824219-1.792969-5.816407-4.171875-3.015624-7.175782-4.542968-14.714844-4.542968-22.40625 0-20.109375 10.203125-38.5 27.289062-49.191406 2.867188-1.789063 6.589844-1.226563 8.792969 1.328124 9.957031 11.566407 17.25 25.757813 21.671875 42.175782 1.792969 6.683594.765625 13.574218-2.90625 19.402344-3.695312 5.867187-9.78125 9.972656-16.699219 11.261718-6.652343 1.238282-13.414062 1.863282-20.179687 1.863282zm-2.296875-13.679688c6.695312.128906 13.390625-.378906 19.976562-1.601562 3.234375-.605469 5.945313-2.425782 7.644531-5.121094 1.621094-2.566406 2.074219-5.613282 1.273438-8.574219-3.273438-12.164063-8.292969-22.878906-14.949219-31.929687-10.089843 8.378906-15.964843 20.726562-15.964843 34.070312.003906 4.464844.679687 8.875 2.019531 13.15625zm0 0" fill="#4c241d"/><path d="m83.820312 254.796875c0 5.65625-4.582031 10.242187-10.238281 10.242187s-10.242187-4.585937-10.242187-10.242187 4.585937-10.238281 10.242187-10.238281 10.238281 4.582031 10.238281 10.238281zm0 0" fill="#fff"/><path d="m216.753906 231.867188c3.253906-3.777344 6.496094-6.953126 9.492188-9.453126 9.179687-7.644531 23.183594-5.453124 29.347656 4.777344 8.78125 14.582032 10.085938 35.105469 9.832031 48.410156-.160156 8.445313-6.070312 15.582032-14.304687 17.464844-4.765625 1.089844-9.527344 1.648438-14.292969 1.976563 2.554687-6.085938 4.007813-12.75 4.007813-19.765625 0-18.3125-9.628907-34.359375-24.082032-43.410156zm0 0" fill="#fff"/><path d="m236.828125 301.871094c-2.195313 0-4.265625-1.054688-5.554687-2.855469-1.378907-1.925781-1.660157-4.429687-.742188-6.613281 2.308594-5.496094 3.476562-11.257813 3.476562-17.125 0-15.375-7.808593-29.441406-20.875-37.625-1.691406-1.054688-2.832031-2.796875-3.125-4.765625-.300781-1.964844.273438-3.964844 1.574219-5.476563 3.367188-3.910156 6.832031-7.355468 10.292969-10.238281 5.964844-4.96875 13.769531-7.066406 21.457031-5.78125 7.574219 1.277344 14.175781 5.753906 18.105469 12.277344 9.460938 15.703125 11.101562 36.976562 10.816406 52.0625-.222656 11.539062-8.289062 21.40625-19.613281 23.992187-4.601563 1.050782-9.480469 1.730469-15.347656 2.132813-.152344.007812-.3125.015625-.464844.015625zm-9.808594-70.964844c13.046875 10.957031 20.640625 27.023438 20.640625 44.371094 0 3.976562-.40625 7.910156-1.21875 11.777344 1.085938-.195313 2.132813-.40625 3.160156-.640626 5.199219-1.191406 8.902344-5.691406 9-10.945312.207032-10.875-.667968-31.15625-8.855468-44.753906-1.898438-3.15625-4.984375-5.238282-8.6875-5.863282-3.734375-.613281-7.546875.394532-10.445313 2.808594-1.179687.984375-2.386719 2.074219-3.59375 3.246094zm0 0" fill="#4c241d"/><path d="m196.503906 271.367188c4.808594-17.890626 12.566406-30.574219 20.25-39.5 14.453125 9.050781 24.082032 25.097656 24.082032 43.410156 0 7.015625-1.453126 13.679687-4.007813 19.769531-8.691406.597656-17.378906.113281-26.0625-1.503906-10.375-1.933594-17.003906-11.988281-14.261719-22.175781zm0 0" fill="#f53e28"/><path d="m229.699219 302.117188c-6.773438 0-13.53125-.625-20.179688-1.863282-6.925781-1.289062-13.011719-5.394531-16.707031-11.261718-3.671875-5.828126-4.699219-12.714844-2.90625-19.402344 4.421875-16.417969 11.714844-30.609375 21.675781-42.175782 2.199219-2.554687 5.925781-3.128906 8.792969-1.335937 17.085938 10.699219 27.285156 29.089844 27.285156 49.199219 0 7.6875-1.527344 15.230468-4.539062 22.40625-.996094 2.378906-3.246094 3.992187-5.820313 4.167968-2.535156.179688-5.066406.265626-7.601562.265626zm-26.605469-28.980469c-.800781 2.96875-.34375 6.011719 1.273438 8.582031 1.695312 2.695312 4.414062 4.511719 7.652343 5.113281 6.574219 1.226563 13.289063 1.734375 19.96875 1.605469 1.339844-4.28125 2.019531-8.691406 2.019531-13.160156 0-13.335938-5.871093-25.691406-15.964843-34.074219-6.660157 9.0625-11.675781 19.773437-14.949219 31.933594zm0 0" fill="#4c241d"/><path d="m247.660156 254.796875c0 5.65625-4.582031 10.242187-10.238281 10.242187s-10.242187-4.585937-10.242187-10.242187 4.585937-10.238281 10.242187-10.238281 10.238281 4.582031 10.238281 10.238281zm0 0" fill="#fff"/><path d="m218.179688 333.070312h-27.859376c-1.390624 0-2.746093-.421874-3.894531-1.214843-33.851562-23.480469-60.171875-1.410157-61.265625-.460938-1.238281 1.070313-2.84375 1.675781-4.476562 1.675781h-27.863282c-3.773437 0-6.828124-3.058593-6.828124-6.828124 0-3.769532 3.054687-6.828126 6.828124-6.828126h25.566407c8.1875-5.851562 38.191406-23.589843 74.019531 0h25.773438c3.773437 0 6.828124 3.058594 6.828124 6.828126 0 3.769531-3.054687 6.828124-6.828124 6.828124zm0 0" fill="#4c241d"/><path d="m190.324219 326.246094c-38.886719-26.96875-69.644531 0-69.644531 0h-11.605469c23.292969 59.804687 77.148437 48.019531 94.398437 0zm0 0" fill="#ffded5"/><path d="m155.5 373.628906c-22.445312 0-41.660156-16.332031-52.785156-44.90625-.820313-2.101562-.546875-4.46875.726562-6.332031 1.273438-1.859375 3.378906-2.972656 5.632813-2.972656h9.3125c8.1875-5.851563 38.195312-23.589844 74.019531 0h11.066406c2.222656 0 4.308594 1.085937 5.585938 2.902343 1.273437 1.8125 1.589844 4.140626.839844 6.230469-9.726563 27.078125-30.839844 44.765625-53.785157 45.070313-.207031.003906-.414062.007812-.613281.007812zm-35.859375-40.558594c9 17.246094 21.734375 26.902344 35.878906 26.902344h.414063c14.640625-.195312 28.511718-10.480468 37.121094-26.902344h-2.734376c-1.394531 0-2.746093-.421874-3.894531-1.214843-33.851562-23.480469-60.171875-1.410157-61.265625-.460938-1.242187 1.070313-2.847656 1.675781-4.480468 1.675781zm0 0" fill="#4c241d"/><path d="m123.914062 351.378906c19.398438 21.605469 45.65625 19.214844 63.835938.648438-8.09375-7.28125-19.5-11.894532-32.25-11.894532-12.382812 0-23.539062 4.324219-31.585938 11.246094zm0 0" fill="#e66353"/><path d="m155.5625 373.601562c-.324219 0-.640625-.003906-.960938-.011718-13.285156-.285156-25.652343-6.390625-35.765624-17.652344-1.226563-1.363281-1.855469-3.167969-1.734376-5 .117188-1.832031.972657-3.542969 2.359376-4.738281 9.675781-8.316407 22.472656-12.898438 36.039062-12.898438 13.960938 0 27.035156 4.847657 36.8125 13.644531 1.382812 1.246094 2.203125 3 2.253906 4.859376.058594 1.863281-.640625 3.664062-1.941406 4.996093-10.632812 10.855469-23.757812 16.800781-37.0625 16.800781zm-20.910156-21.417968c6.195312 4.941406 13.089844 7.601562 20.242187 7.753906 7.433594.21875 15.105469-2.441406 21.9375-7.441406-12.289062-7.109375-29.746093-7.210938-42.179687-.3125zm0 0" fill="#4c241d"/></svg>