<svg height="416pt" viewBox="0 -6 416.70722 416" width="416pt" xmlns="http://www.w3.org/2000/svg"><path d="m321.125 237.359375c0 84.828125-68.769531 153.597656-153.597656 153.597656-84.832032 0-153.601563-68.769531-153.601563-153.597656 0-84.832031 68.769531-153.601563 153.601563-153.601563 84.828125 0 153.597656 68.769532 153.597656 153.601563zm0 0" fill="#c1dbdc"/><path d="m403.046875 179.332031c0 86.714844-70.296875 157.011719-157.015625 157.011719-86.714844 0-157.011719-70.296875-157.011719-157.011719 0-86.71875 70.296875-157.015625 157.011719-157.015625 86.71875 0 157.015625 70.296875 157.015625 157.015625zm0 0" fill="#d9be6f"/><g fill="#4c241d"><path d="m246.03125 343.171875c-90.339844 0-163.839844-73.5-163.839844-163.839844 0-90.34375 73.5-163.839843 163.839844-163.839843s163.839844 73.496093 163.839844 163.839843c0 90.339844-73.5 163.839844-163.839844 163.839844zm0-314.027344c-82.8125 0-150.1875 67.375-150.1875 150.1875s67.375 150.183594 150.1875 150.183594 150.1875-67.371094 150.1875-150.183594-67.375-150.1875-150.1875-150.1875zm0 0"/><path d="m35.878906 205.164062c-1.746094 0-3.492187-.667968-4.828125-2-2.664062-2.667968-2.664062-6.988281 0-9.652343l12.453125-12.457031c2.667969-2.664063 6.988282-2.664063 9.65625 0 2.664063 2.667968 2.664063 6.988281 0 9.65625l-12.457031 12.453124c-1.332031 1.332032-3.078125 2-4.824219 2zm0 0"/><path d="m6.824219 234.21875c-1.746094 0-3.492188-.667969-4.824219-2-2.667969-2.667969-2.667969-6.988281 0-9.65625l12.453125-12.453125c2.664063-2.664063 6.988281-2.664063 9.652344 0 2.667969 2.667969 2.667969 6.988281 0 9.652344l-12.453125 12.457031c-1.332032 1.332031-3.082032 2-4.828125 2zm0 0"/><path d="m19.28125 205.164062c-1.746094 0-3.496094-.667968-4.828125-2l-12.453125-12.453124c-2.667969-2.667969-2.667969-6.988282 0-9.65625 2.664062-2.664063 6.988281-2.664063 9.652344 0l12.453125 12.457031c2.667969 2.664062 2.667969 6.984375 0 9.652343-1.332031 1.332032-3.082031 2-4.824219 2zm0 0"/><path d="m48.332031 234.21875c-1.746093 0-3.492187-.667969-4.828125-2l-12.453125-12.457031c-2.664062-2.664063-2.664062-6.984375 0-9.652344 2.667969-2.664063 6.988281-2.664063 9.652344 0l12.457031 12.453125c2.664063 2.667969 2.664063 6.988281 0 9.65625-1.335937 1.332031-3.082031 2-4.828125 2zm0 0"/><path d="m33.226562 395.546875c-3.421874 0-6.804687-.84375-9.90625-2.5-4.960937-2.652344-8.585937-7.078125-10.222656-12.460937-1.632812-5.382813-1.066406-11.078126 1.582032-16.039063 2.652343-4.964844 7.085937-8.589844 12.472656-10.21875 5.367187-1.640625 11.066406-1.070313 16.035156 1.582031 4.960938 2.65625 8.585938 7.078125 10.21875 12.460938v.007812c3.363281 11.109375-2.9375 22.886719-14.042969 26.253906-2.023437.609376-4.082031.914063-6.136719.914063zm.039063-28.476563c-.726563 0-1.449219.105469-2.160156.324219-1.894531.574219-3.453125 1.847657-4.386719 3.589844-.933594 1.746094-1.125 3.746094-.554688 5.640625.574219 1.890625 1.847657 3.449219 3.59375 4.382812 1.761719.933594 3.746094 1.128907 5.640626.554688 3.898437-1.183594 6.121093-5.324219 4.941406-9.234375-.574219-1.886719-1.847656-3.445313-3.59375-4.378906-1.09375-.582031-2.28125-.878907-3.480469-.878907zm0 0"/><path d="m26.257812 43.949219c-11.613281 0-21.058593-9.445313-21.058593-21.054688 0-11.613281 9.445312-21.058593 21.058593-21.058593 11.617188 0 21.0625 9.445312 21.0625 21.058593 0 11.609375-9.449218 21.054688-21.0625 21.054688zm0-28.457031c-4.085937 0-7.40625 3.316406-7.40625 7.402343 0 4.082031 3.320313 7.402344 7.40625 7.402344 4.089844 0 7.410157-3.320313 7.410157-7.402344 0-4.085937-3.324219-7.402343-7.410157-7.402343zm0 0"/></g><path d="m133.148438 307.113281c-7.535157-19.042969-11.09375-40.003906-9.707032-61.796875 5.03125-79.015625 73.164063-138.992187 152.175782-133.964844 79.015624 5.03125 138.996093 73.164063 133.964843 152.175782-5.03125 79.015625-73.160156 138.996094-152.175781 133.964844-36.210938-2.304688-68.421875-17.863282-92.210938-41.644532" fill="#9dc1e4"/><path d="m266.613281 404.613281c-3.195312 0-6.40625-.101562-9.640625-.304687-36.472656-2.320313-70.78125-17.816406-96.605468-43.628906-2.664063-2.664063-2.664063-6.988282 0-9.65625 2.667968-2.664063 6.988281-2.664063 9.652343 0 23.476563 23.464843 54.660157 37.546874 87.820313 39.65625 75.128906 4.804687 140.148437-52.449219 144.933594-127.582032 4.78125-75.132812-52.453126-140.148437-127.585938-144.929687-75.035156-4.699219-140.148438 52.453125-144.933594 127.582031-1.292968 20.292969 1.820313 40.089844 9.246094 58.851562 1.386719 3.507813-.324219 7.472657-3.832031 8.859376-3.5 1.375-7.472657-.328126-8.859375-3.835938-8.175782-20.644531-11.601563-42.429688-10.179688-64.742188 5.265625-82.648437 76.660156-145.628906 159.425782-140.34375 82.648437 5.261719 145.605468 76.78125 140.34375 159.421876-5.058594 79.417968-71.292969 140.648437-149.785157 140.652343zm0 0" fill="#4c241d"/><path d="m150.296875 345.191406c-2.117187 0-4.207031-.976562-5.539063-2.828125-2.972656-4.113281-5.773437-8.429687-8.320312-12.828125-1.890625-3.261718-.777344-7.4375 2.488281-9.328125 3.253907-1.886719 7.433594-.769531 9.328125 2.480469 2.316406 4.003906 4.867188 7.933594 7.574219 11.683594 2.203125 3.050781 1.519531 7.320312-1.535156 9.527344-1.214844.875-2.605469 1.292968-3.996094 1.292968zm0 0" fill="#4c241d"/><path d="m389.390625 251.011719c0 28.277343-22.921875 51.199219-51.199219 51.199219s-51.199218-22.921876-51.199218-51.199219c0-28.277344 22.921874-51.199219 51.199218-51.199219s51.199219 22.921875 51.199219 51.199219zm0 0" fill="#fff"/><path d="m338.191406 309.039062c-31.992187 0-58.027344-26.03125-58.027344-58.027343 0-31.996094 26.035157-58.027344 58.027344-58.027344 31.992188 0 58.027344 26.03125 58.027344 58.027344 0 31.996093-26.035156 58.027343-58.027344 58.027343zm0-102.402343c-24.464844 0-44.371094 19.90625-44.371094 44.375 0 24.464843 19.90625 44.371093 44.371094 44.371093 24.46875 0 44.375-19.90625 44.375-44.371093 0-24.46875-19.90625-44.375-44.375-44.375zm0 0" fill="#4c241d"/><path d="m363.054688 251.011719c0 13.730469-11.132813 24.863281-24.863282 24.863281-13.730468 0-24.863281-11.132812-24.863281-24.863281s11.132813-24.863281 24.863281-24.863281c13.730469 0 24.863282 11.132812 24.863282 24.863281zm0 0" fill="#6b4f5b"/><path d="m338.191406 282.699219c-17.472656 0-31.683594-14.214844-31.683594-31.6875 0-17.472657 14.210938-31.691407 31.683594-31.691407s31.6875 14.21875 31.6875 31.691407c0 17.472656-14.214844 31.6875-31.6875 31.6875zm0-49.726563c-9.945312 0-18.03125 8.089844-18.03125 18.035156 0 9.949219 8.085938 18.039063 18.03125 18.039063 9.945313 0 18.035156-8.089844 18.035156-18.039063 0-9.945312-8.089843-18.035156-18.035156-18.035156zm0 0" fill="#4c241d"/><path d="m246.03125 251.011719c0 28.277343-22.921875 51.199219-51.199219 51.199219-28.277343 0-51.199219-22.921876-51.199219-51.199219 0-28.277344 22.921876-51.199219 51.199219-51.199219 28.277344 0 51.199219 22.921875 51.199219 51.199219zm0 0" fill="#fff"/><path d="m194.832031 309.039062c-31.992187 0-58.027343-26.03125-58.027343-58.027343 0-31.996094 26.035156-58.027344 58.027343-58.027344 31.992188 0 58.027344 26.03125 58.027344 58.027344 0 31.996093-26.035156 58.027343-58.027344 58.027343zm0-102.402343c-24.464843 0-44.375 19.90625-44.375 44.375 0 24.464843 19.910157 44.371093 44.375 44.371093 24.46875 0 44.375-19.90625 44.375-44.371093 0-24.46875-19.90625-44.375-44.375-44.375zm0 0" fill="#4c241d"/><path d="m219.695312 251.011719c0 13.730469-11.132812 24.863281-24.863281 24.863281s-24.863281-11.132812-24.863281-24.863281 11.132812-24.863281 24.863281-24.863281 24.863281 11.132812 24.863281 24.863281zm0 0" fill="#6b4f5b"/><path d="m194.832031 282.699219c-17.472656 0-31.6875-14.214844-31.6875-31.6875 0-17.472657 14.214844-31.691407 31.6875-31.691407 17.472657 0 31.6875 14.21875 31.6875 31.691407 0 17.472656-14.214843 31.6875-31.6875 31.6875zm0-49.726563c-9.945312 0-18.03125 8.089844-18.03125 18.035156 0 9.949219 8.085938 18.039063 18.03125 18.039063 9.945313 0 18.03125-8.089844 18.03125-18.039063 0-9.945312-8.085937-18.035156-18.03125-18.035156zm0 0" fill="#4c241d"/><path d="m330.164062 387.824219c-.378906 0-.765624-.03125-1.160156-.097657-23.566406-4.039062-39.613281-19.847656-49.070312-48.324218-1.1875-3.578125.75-7.441406 4.324218-8.632813 3.574219-1.179687 7.441407.75 8.632813 4.332031 7.828125 23.570313 20.035156 36.015626 38.421875 39.164063 3.714844.636719 6.214844 4.167969 5.574219 7.882813-.570313 3.328124-3.453125 5.675781-6.722657 5.675781zm0 0" fill="#4c241d"/><path d="m202.859375 387.824219c-3.265625 0-6.152344-2.347657-6.722656-5.671875-.640625-3.71875 1.863281-7.246094 5.574219-7.882813 18.386718-3.152343 30.59375-15.59375 38.421874-39.167969 1.191407-3.582031 5.054688-5.511718 8.632813-4.328124 3.574219 1.1875 5.511719 5.050781 4.328125 8.628906-9.460938 28.480468-25.507812 44.285156-49.074219 48.328125-.394531.0625-.78125.09375-1.160156.09375zm0 0" fill="#4c241d"/><path d="m359.871094 368.070312c-.183594 0-.378906-.007812-.574219-.023437-17.511719-1.457031-30.171875-11.234375-37.644531-29.066406-1.457032-3.476563.183594-7.476563 3.660156-8.933594 3.5-1.449219 7.480469.179687 8.9375 3.660156 5.496094 13.121094 13.808594 19.707031 26.183594 20.734375 3.75.3125 6.546875 3.609375 6.230468 7.363282-.292968 3.566406-3.277343 6.265624-6.792968 6.265624zm0 0" fill="#4c241d"/><path d="m173.152344 368.070312c-3.515625 0-6.5-2.699218-6.792969-6.265624-.3125-3.753907 2.480469-7.050782 6.234375-7.363282 12.371094-1.027344 20.683594-7.613281 26.179688-20.734375 1.457031-3.480469 5.441406-5.113281 8.9375-3.660156 3.472656 1.457031 5.113281 5.457031 3.664062 8.933594-7.476562 17.832031-20.136719 27.613281-37.648438 29.066406-.195312.015625-.386718.023437-.574218.023437zm0 0" fill="#4c241d"/><path d="m198.246094 172.503906c28.507812 0 53.59375 14.582032 68.265625 36.671875 14.671875-22.089843 39.757812-36.671875 68.265625-36.671875 27.902344 0 52.503906 13.972656 67.296875 35.273438-18.277344-53.054688-66.957031-92.636719-126.457031-96.425782-65.761719-4.183593-123.847657 36.726563-144.429688 96.101563 14.820312-21.113281 39.304688-34.949219 67.058594-34.949219zm0 0" fill="#d9be6f"/><path d="m266.511719 216.003906c-2.285157 0-4.417969-1.144531-5.6875-3.050781-13.976563-21.050781-37.378907-33.621094-62.578125-33.621094-24.40625 0-47.386719 11.980469-61.476563 32.046875-1.945312 2.773438-5.65625 3.707032-8.691406 2.152344-3.035156-1.550781-4.460937-5.097656-3.347656-8.3125 22.027343-63.550781 84.347656-105 151.320312-100.675781 60.667969 3.859375 112.667969 43.507812 132.480469 101.011719 1.113281 3.226562-.328125 6.769531-3.367188 8.3125-3.054687 1.546874-6.753906.605468-8.695312-2.195313-14.066406-20.25-37.125-32.339844-61.691406-32.339844-25.199219 0-48.601563 12.570313-62.582032 33.625-1.261718 1.902344-3.394531 3.046875-5.683593 3.046875zm-68.265625-50.328125c26.59375 0 51.480468 11.839844 68.265625 32.074219 16.789062-20.234375 41.675781-32.074219 68.265625-32.074219 15.972656 0 31.414062 4.324219 44.835937 12.199219-23.300781-34.5-61.472656-56.976562-104.429687-59.707031-48.871094-3.113281-94.804688 20.402343-121.480469 59.550781 13.363281-7.769531 28.695313-12.042969 44.542969-12.042969zm0 0" fill="#4c241d"/><path d="m396.21875 192.988281c-2.824219 0-5.464844-1.769531-6.445312-4.589843-17.234376-49.542969-43.785157-83.085938-78.921876-99.6875-48.117187-22.75-96.109374-5.546876-96.59375-5.375-3.53125 1.296874-7.457031-.503907-8.765624-4.042969-1.300782-3.539063.507812-7.464844 4.046874-8.769531 2.179688-.800782 53.878907-19.332032 107.152344 5.839843 38.566406 18.230469 67.492188 54.417969 85.972656 107.550781 1.242188 3.5625-.640624 7.453126-4.207031 8.691407-.738281.257812-1.492187.382812-2.238281.382812zm0 0" fill="#4c241d"/><path d="m370.664062 34.132812c-1.746093 0-3.492187-.667968-4.824218-2-2.667969-2.667968-2.667969-6.988281 0-9.652343l20.125-20.128907c2.667968-2.664062 6.988281-2.664062 9.652344 0 2.667968 2.667969 2.667968 6.988282 0 9.65625l-20.125 20.125c-1.332032 1.335938-3.078126 2-4.828126 2zm0 0" fill="#4c241d"/><path d="m390.792969 34.132812c-1.746094 0-3.496094-.667968-4.828125-2l-20.125-20.125c-2.667969-2.667968-2.667969-6.988281 0-9.65625 2.664062-2.664062 6.984375-2.664062 9.652344 0l20.125 20.128907c2.667968 2.664062 2.667968 6.984375 0 9.652343-1.332032 1.335938-3.078126 2-4.824219 2zm0 0" fill="#4c241d"/></svg>