<svg height="428pt" viewBox="-12 0 428 428.1856" width="428pt" xmlns="http://www.w3.org/2000/svg"><path d="m336.34375 197.027344c0 84.828125-68.769531 153.597656-153.601562 153.597656-84.832032 0-153.601563-68.769531-153.601563-153.597656 0-84.832032 68.769531-153.601563 153.601563-153.601563 84.832031 0 153.601562 68.769531 153.601562 153.601563zm0 0" fill="#c1dbdc"/><g fill="#4c241d"><path d="m356.820312 105.140625c-3.769531 0-6.824218-3.054687-6.824218-6.828125v-20.640625c0-3.773437 3.054687-6.828125 6.824218-6.828125 3.773438 0 6.828126 3.054688 6.828126 6.828125v20.640625c0 3.773438-3.054688 6.828125-6.828126 6.828125zm0 0"/><path d="m356.820312 56.96875c-3.769531 0-6.824218-3.054688-6.824218-6.828125v-20.640625c0-3.773438 3.054687-6.828125 6.824218-6.828125 3.773438 0 6.828126 3.054687 6.828126 6.828125v20.640625c0 3.773437-3.054688 6.828125-6.828126 6.828125zm0 0"/><path d="m391.230469 70.734375h-20.644531c-3.769532 0-6.828126-3.054687-6.828126-6.828125s3.058594-6.828125 6.828126-6.828125h20.644531c3.769531 0 6.828125 3.054687 6.828125 6.828125s-3.058594 6.828125-6.828125 6.828125zm0 0"/><path d="m343.058594 70.734375h-20.648438c-3.769531 0-6.828125-3.054687-6.828125-6.828125s3.058594-6.828125 6.828125-6.828125h20.648438c3.769531 0 6.824218 3.054687 6.824218 6.828125s-3.054687 6.828125-6.824218 6.828125zm0 0"/><path d="m21.132812 389.347656c-3.421874 0-6.804687-.839844-9.90625-2.492187-4.960937-2.65625-8.589843-7.089844-10.21875-12.476563-1.628906-5.371094-1.070312-11.070312 1.582032-16.035156 2.65625-4.960938 7.078125-8.585938 12.460937-10.21875 11.113281-3.347656 22.894531 2.933594 26.261719 14.046875 1.628906 5.378906 1.070312 11.078125-1.582031 16.039063-2.65625 4.960937-7.078125 8.585937-12.460938 10.21875-2.019531.617187-4.082031.917968-6.136719.917968zm.023438-28.476562c-.710938 0-1.429688.109375-2.144531.324218-3.90625 1.183594-6.121094 5.324219-4.9375 9.230469.574219 1.894531 1.851562 3.453125 3.59375 4.386719 1.738281.925781 3.75 1.121094 5.640625.554688 1.886718-.574219 3.445312-1.847657 4.378906-3.59375.929688-1.746094 1.128906-3.746094.554688-5.640626-.96875-3.191406-3.910157-5.261718-7.085938-5.261718zm0 0"/><path d="m382.945312 191.375c-3.421874 0-6.804687-.839844-9.90625-2.496094-4.960937-2.652344-8.589843-7.085937-10.21875-12.472656-1.628906-5.371094-1.070312-11.074219 1.585938-16.035156 2.652344-4.960938 7.074219-8.585938 12.457031-10.21875 11.117188-3.347656 22.894531 2.933594 26.261719 14.046875 1.628906 5.378906 1.070312 11.078125-1.582031 16.039062-2.65625 4.957031-7.078125 8.585938-12.460938 10.21875-2.019531.617188-4.082031.917969-6.136719.917969zm.023438-28.476562c-.710938 0-1.429688.105468-2.144531.320312-3.90625 1.1875-6.121094 5.328125-4.9375 9.234375.574219 1.894531 1.851562 3.453125 3.59375 4.386719 1.742187.933594 3.746093 1.121094 5.640625.554687 1.886718-.574219 3.445312-1.847656 4.378906-3.59375.929688-1.746093 1.128906-3.746093.554688-5.640625-.964844-3.195312-3.910157-5.261718-7.085938-5.261718zm0 0"/><path d="m365.402344 403.398438c-1.746094 0-3.496094-.667969-4.828125-2-2.664063-2.664063-2.664063-6.984376 0-9.652344l20.128906-20.121094c2.664063-2.664062 6.984375-2.664062 9.652344 0 2.664062 2.667969 2.664062 6.988281 0 9.65625l-20.128907 20.117188c-1.332031 1.332031-3.078124 2-4.824218 2zm0 0"/><path d="m385.527344 403.398438c-1.746094 0-3.492188-.667969-4.824219-2l-20.128906-20.117188c-2.664063-2.667969-2.664063-6.988281 0-9.65625 2.660156-2.664062 6.988281-2.664062 9.652343 0l20.128907 20.121094c2.664062 2.667968 2.664062 6.988281 0 9.652344-1.332031 1.332031-3.078125 2-4.828125 2zm0 0"/><path d="m41.242188 58.546875c-1.746094 0-3.492188-.667969-4.828126-2-2.664062-2.667969-2.664062-6.988281 0-9.65625l26.742188-26.730469c2.664062-2.667968 6.988281-2.667968 9.652344 0 2.667968 2.664063 2.667968 6.984375 0 9.652344l-26.738282 26.734375c-1.335937 1.332031-3.082031 2-4.828124 2zm0 0"/></g><path d="m220.289062 6.828125c-38.863281 155.449219-129.542968 233.554687-129.542968 297.941406 0 64.390625 58 116.585938 129.542968 116.585938 71.542969 0 129.539063-52.195313 129.539063-116.585938 0-64.386719-90.675781-142.492187-129.539063-297.941406zm0 0" fill="#efefd2"/><path d="m220.289062 428.1875c-75.195312 0-136.367187-55.363281-136.367187-123.414062 0-31.421876 19.628906-64.753907 44.476563-106.953126 28.730468-48.789062 64.484374-109.507812 85.269531-192.648437.757812-3.039063 3.488281-5.171875 6.621093-5.171875 3.136719 0 5.867188 2.132812 6.625 5.171875 20.785157 83.140625 56.535157 143.859375 85.265626 192.648437 24.851562 42.199219 44.480468 75.53125 44.480468 106.953126-.003906 68.054687-61.179687 123.414062-136.371094 123.414062zm0-395.5c-21.652343 72.753906-53.792968 127.339844-80.125 172.058594-23.792968 40.414062-42.589843 72.332031-42.589843 100.023437 0 60.523438 55.050781 109.761719 122.714843 109.761719 67.664063 0 122.710938-49.242188 122.710938-109.761719 0-27.691406-18.792969-59.613281-42.589844-100.023437-26.328125-44.71875-58.472656-99.304688-80.121094-172.058594zm0 0" fill="#4c241d"/><path d="m67.980469 58.546875c-1.742188 0-3.492188-.667969-4.824219-2l-26.742188-26.734375c-2.664062-2.667969-2.664062-6.988281 0-9.652344 2.664063-2.667968 6.988282-2.667968 9.652344 0l26.742188 26.730469c2.664062 2.667969 2.664062 6.988281 0 9.65625-1.335938 1.332031-3.082032 2-4.828125 2zm0 0" fill="#4c241d"/><path d="m37.023438 139.578125c0 5.082031-4.121094 9.199219-9.203126 9.199219-5.082031 0-9.203124-4.117188-9.203124-9.199219 0-5.085937 4.121093-9.203125 9.203124-9.203125 5.082032 0 9.203126 4.117188 9.203126 9.203125zm0 0" fill="#4c241d"/><path d="m220.289062 418.890625c61.023438 0 110.492188-54.976563 110.492188-101.855469 0-32.816406-21.65625-64.054687-57.390625-52.671875-34.773437 11.078125-71.433594 11.078125-106.203125 0-35.734375-11.382812-57.390625 19.855469-57.390625 52.671875 0 46.878906 49.46875 101.855469 110.492187 101.855469zm0 0" fill="#fc8c29"/><path d="m220.289062 425.71875c-66.070312 0-117.316406-58.425781-117.316406-108.6875 0-22.253906 9.113282-42.738281 23.785156-53.457031 11.996094-8.78125 26.699219-10.761719 42.5-5.714844 33.386719 10.636719 68.679688 10.636719 102.066407 0 15.800781-5.039063 30.496093-3.0625 42.5 5.714844 14.667969 10.71875 23.78125 31.203125 23.78125 53.457031 0 50.261719-51.246094 108.6875-117.316407 108.6875zm-67.632812-156.933594c-6.582031 0-12.554688 1.941406-17.84375 5.808594-11.21875 8.199219-18.1875 24.457031-18.1875 42.4375 0 43.046875 46.242188 95.035156 103.664062 95.035156 57.421876 0 103.664063-51.988281 103.664063-95.035156 0-17.980469-6.96875-34.238281-18.1875-42.4375-8.457031-6.1875-18.65625-7.449219-30.300781-3.722656-36.097656 11.492187-74.257813 11.492187-110.347656 0-4.367188-1.390625-8.523438-2.085938-12.460938-2.085938zm0 0" fill="#4c241d"/><path d="m330.398438 308.007812c0 12.519532-10.148438 22.671876-22.671876 22.671876-12.519531 0-22.667968-10.152344-22.667968-22.671876 0-12.519531 10.148437-22.667968 22.667968-22.667968 12.523438 0 22.671876 10.148437 22.671876 22.667968zm0 0" fill="#6b4f5b"/><path d="m307.726562 337.503906c-16.261718 0-29.496093-13.230468-29.496093-29.492187 0-16.265625 13.234375-29.5 29.496093-29.5 16.265626 0 29.496094 13.234375 29.496094 29.5 0 16.261719-13.230468 29.492187-29.496094 29.492187zm0-45.339844c-8.734374 0-15.839843 7.109376-15.839843 15.847657 0 8.734375 7.105469 15.839843 15.839843 15.839843 8.738282 0 15.84375-7.105468 15.84375-15.839843 0-8.738281-7.105468-15.847657-15.84375-15.847657zm0 0" fill="#4c241d"/><path d="m155.515625 308.007812c0 12.519532-10.148437 22.671876-22.667969 22.671876-12.519531 0-22.667968-10.152344-22.667968-22.671876 0-12.519531 10.148437-22.667968 22.667968-22.667968 12.519532 0 22.667969 10.148437 22.667969 22.667968zm0 0" fill="#6b4f5b"/><path d="m132.847656 337.503906c-16.261718 0-29.496094-13.230468-29.496094-29.492187 0-16.265625 13.234376-29.5 29.496094-29.5 16.261719 0 29.496094 13.234375 29.496094 29.5.003906 16.261719-13.230469 29.492187-29.496094 29.492187zm0-45.339844c-8.738281 0-15.84375 7.109376-15.84375 15.847657 0 8.734375 7.105469 15.839843 15.84375 15.839843 8.738282 0 15.84375-7.105468 15.84375-15.839843 0-8.738281-7.105468-15.847657-15.84375-15.847657zm0 0" fill="#4c241d"/><path d="m327.117188 300.234375c-2.527344 0-4.953126-1.40625-6.140626-3.828125-1.660156-3.386719-.253906-7.472656 3.132813-9.132812l36.539063-17.875c3.394531-1.667969 7.476562-.253907 9.132812 3.132812 1.660156 3.386719.253906 7.476562-3.132812 9.136719l-36.539063 17.871093c-.96875.472657-1.988281.695313-2.992187.695313zm0 0" fill="#4c241d"/><path d="m109.003906 301.390625c-1.007812 0-2.027344-.21875-2.996094-.691406l-38.90625-19.03125c-3.386718-1.660157-4.789062-5.746094-3.132812-9.136719 1.660156-3.378906 5.753906-4.792969 9.132812-3.132812l38.90625 19.035156c3.386719 1.660156 4.792969 5.746094 3.136719 9.132812-1.191406 2.417969-3.617187 3.824219-6.140625 3.824219zm0 0" fill="#4c241d"/><path d="m302.207031 292.597656c0 5.65625-4.582031 10.242188-10.238281 10.242188s-10.238281-4.585938-10.238281-10.242188c0-5.652344 4.582031-10.238281 10.238281-10.238281s10.238281 4.585937 10.238281 10.238281zm0 0" fill="#fff"/><path d="m158.847656 292.597656c0 5.65625-4.582031 10.242188-10.238281 10.242188s-10.242187-4.585938-10.242187-10.242188c0-5.652344 4.585937-10.238281 10.242187-10.238281s10.238281 4.585937 10.238281 10.238281zm0 0" fill="#fff"/></svg>