<svg height="415pt" viewBox="0 -1 415.1783 415" width="415pt" xmlns="http://www.w3.org/2000/svg"><path d="m315.769531 256.089844c0 84.832031-68.769531 153.597656-153.597656 153.597656-84.832031 0-153.601563-68.765625-153.601563-153.597656 0-84.832032 68.769532-153.601563 153.601563-153.601563 84.828125 0 153.597656 68.769531 153.597656 153.601563zm0 0" fill="#c1dbdc"/><path d="m107.652344 343.652344c-16.453125-23.867188-26.101563-52.871094-26.101563-84.148438h292.539063c0 81.488282-65.488282 147.546875-146.269532 147.546875-25.390624 0-49.269531-6.523437-70.082031-18.003906" fill="#fff"/><path d="m227.820312 413.878906c-25.652343 0-51.023437-6.519531-73.378906-18.855468-3.300781-1.820313-4.5-5.972657-2.679687-9.273438 1.828125-3.300781 5.972656-4.5 9.28125-2.679688 20.339843 11.21875 43.433593 17.152344 66.78125 17.152344 74.621093 0 135.738281-59.457031 139.277343-133.890625h-278.566406c1.246094 26.425781 9.742188 51.6875 24.742188 73.441407 2.136718 3.101562 1.359375 7.359374-1.746094 9.496093-3.101562 2.136719-7.355469 1.355469-9.492188-1.742187-17.867187-25.910156-27.316406-56.347656-27.316406-88.023438 0-3.769531 3.054688-6.828125 6.828125-6.828125h292.539063c3.773437 0 6.828125 3.058594 6.828125 6.828125 0 85.121094-68.683594 154.375-153.097657 154.375zm0 0" fill="#4c241d"/><path d="m135.988281 381.1875c-1.511719 0-3.039062-.5-4.304687-1.535156-3.480469-2.835938-6.90625-5.886719-10.1875-9.074219-2.699219-2.628906-2.757813-6.949219-.132813-9.652344 2.632813-2.699219 6.953125-2.765625 9.652344-.132812 2.988281 2.90625 6.113281 5.6875 9.292969 8.277343 2.921875 2.378907 3.359375 6.679688.980468 9.601563-1.347656 1.652344-3.3125 2.515625-5.300781 2.515625zm0 0" fill="#4c241d"/><path d="m312.082031 139.023438c-1.863281-1.324219-3.808593-2.53125-5.730469-3.773438-18.15625 21.691406-45.414062 35.503906-75.914062 35.503906-31.515625 0-59.53125-14.773437-77.65625-37.722656-3.511719 2.128906-6.949219 4.371094-10.261719 6.777344-36.871093 26.789062-60.96875 70.355468-60.96875 119.695312h292.539063c.003906-49.808594-24.539063-93.761718-62.007813-120.480468zm0 0" fill="#ffce56"/><path d="m374.089844 266.328125h-292.539063c-3.773437 0-6.828125-3.054687-6.828125-6.824219 0-49.390625 23.839844-96.199218 63.78125-125.21875 3.292969-2.386718 6.804688-4.703125 10.738282-7.089844 2.960937-1.796874 6.765624-1.085937 8.898437 1.605469 17.636719 22.324219 43.984375 35.128907 72.292969 35.128907 27.335937 0 53.09375-12.050782 70.679687-33.058594 2.207031-2.636719 6.042969-3.234375 8.925781-1.363282l1.167969.746094c1.632813 1.042969 3.261719 2.089844 4.828125 3.210938 40.625 28.960937 64.878906 76.078125 64.878906 126.039062.003907 3.769532-3.050781 6.824219-6.824218 6.824219zm-285.546875-13.652344h278.554687c-2.089844-42.988281-23.800781-83.015625-58.980468-108.09375-.007813-.003906-.015626-.007812-.015626-.011719-.1875-.128906-.367187-.257812-.550781-.390624-19.988281 21.300781-47.761719 33.402343-77.117187 33.402343-30.460938 0-58.9375-12.902343-79.058594-35.597656-1.691406 1.117187-3.308594 2.226563-4.851562 3.351563-34.558594 25.113281-55.90625 64.851562-57.980469 107.339843zm0 0" fill="#4c241d"/><path d="m230.4375 170.753906c30.5 0 57.757812-13.8125 75.914062-35.503906-22.703124-14.652344-49.574218-23.296875-78.53125-23.296875-27.476562 0-53.09375 7.761719-75.039062 21.078125 18.125 22.949219 46.140625 37.722656 77.65625 37.722656zm0 0" fill="#6b4f5b"/><path d="m230.4375 177.582031c-32.515625 0-62.765625-14.695312-83.015625-40.316406-1.207031-1.535156-1.707031-3.519531-1.359375-5.441406.347656-1.925781 1.507812-3.609375 3.179688-4.628907 23.78125-14.433593 50.953124-22.066406 78.578124-22.066406 29.082032 0 57.515626 8.433594 82.230469 24.382813 1.644531 1.0625 2.75 2.78125 3.046875 4.714843.292969 1.9375-.253906 3.902344-1.515625 5.402344-20.1875 24.121094-49.757812 37.953125-81.144531 37.953125zm-67.074219-42.710937c17.40625 18.558594 41.4375 29.058594 67.074219 29.058594 24.652344 0 48.027344-9.804688 65.277344-27.144532-20.8125-11.800781-44.117188-18.003906-67.890625-18.003906-22.441407 0-44.5625 5.542969-64.460938 16.089844zm0 0" fill="#4c241d"/><path d="m274.542969 260.78125c0 25.804688-20.917969 46.726562-46.722657 46.726562-25.804687 0-46.722656-20.921874-46.722656-46.726562s20.917969-46.722656 46.722656-46.722656c25.804688 0 46.722657 20.917968 46.722657 46.722656zm0 0" fill="#edebdc"/><path d="m227.820312 314.332031c-29.523437 0-53.550781-24.023437-53.550781-53.550781s24.027344-53.550781 53.550781-53.550781c29.527344 0 53.546876 24.023437 53.546876 53.550781s-24.019532 53.550781-53.546876 53.550781zm0-93.449219c-22 0-39.898437 17.902344-39.898437 39.902344s17.898437 39.894532 39.898437 39.894532c22.003907 0 39.894532-17.894532 39.894532-39.894532s-17.890625-39.902344-39.894532-39.902344zm0 0" fill="#4c241d"/><path d="m248.160156 260.78125c0 11.234375-9.105468 20.339844-20.339844 20.339844-11.234374 0-20.339843-9.105469-20.339843-20.339844 0-11.230469 9.105469-20.339844 20.339843-20.339844 11.234376 0 20.339844 9.109375 20.339844 20.339844zm0 0" fill="#edebdc"/><g fill="#4c241d"><path d="m227.820312 287.949219c-14.976562 0-27.164062-12.1875-27.164062-27.167969 0-14.976562 12.1875-27.164062 27.164062-27.164062 14.980469 0 27.167969 12.1875 27.167969 27.164062 0 14.980469-12.183593 27.167969-27.167969 27.167969zm0-40.679688c-7.453124 0-13.511718 6.0625-13.511718 13.511719s6.058594 13.515625 13.511718 13.515625c7.453126 0 13.515626-6.066406 13.515626-13.515625s-6.058594-13.511719-13.515626-13.511719zm0 0"/><path d="m363.558594 54.703125c-3.773438 0-6.828125-3.058594-6.828125-6.828125v-20.480469c0-3.769531 3.054687-6.824219 6.828125-6.824219 3.773437 0 6.824218 3.054688 6.824218 6.824219v20.480469c0 3.769531-3.050781 6.828125-6.824218 6.828125zm0 0"/><path d="m363.558594 102.488281c-3.773438 0-6.828125-3.054687-6.828125-6.824219v-20.480468c0-3.769532 3.054687-6.828125 6.828125-6.828125 3.773437 0 6.824218 3.058593 6.824218 6.828125v20.480468c0 3.769532-3.050781 6.824219-6.824218 6.824219zm0 0"/><path d="m349.902344 68.355469h-20.480469c-3.773437 0-6.824219-3.054688-6.824219-6.828125 0-3.769532 3.050782-6.824219 6.824219-6.824219h20.480469c3.773437 0 6.828125 3.054687 6.828125 6.824219 0 3.773437-3.054688 6.828125-6.828125 6.828125zm0 0"/><path d="m397.691406 68.355469h-20.480468c-3.773438 0-6.828126-3.054688-6.828126-6.828125 0-3.769532 3.054688-6.824219 6.828126-6.824219h20.480468c3.773438 0 6.824219 3.054687 6.824219 6.824219 0 3.773437-3.050781 6.828125-6.824219 6.828125zm0 0"/><path d="m21.042969 209.480469c-3.421875 0-6.808594-.84375-9.90625-2.5-4.960938-2.65625-8.585938-7.078125-10.222657-12.460938-1.632812-5.382812-1.066406-11.078125 1.582032-16.039062 2.652344-4.964844 7.085937-8.589844 12.472656-10.21875 5.367188-1.640625 11.074219-1.074219 16.035156 1.582031 4.960938 2.65625 8.585938 7.078125 10.21875 12.460938v.007812c3.363282 11.109375-2.941406 22.886719-14.042968 26.253906-2.023438.609375-4.085938.914063-6.136719.914063zm.039062-28.476563c-.726562 0-1.445312.105469-2.160156.320313-1.890625.574219-3.453125 1.851562-4.386719 3.59375-.933594 1.742187-1.125 3.746093-.550781 5.640625.574219 1.890625 1.847656 3.445312 3.589844 4.378906 1.753906.933594 3.753906 1.128906 5.640625.554688 3.902344-1.179688 6.121094-5.320313 4.941406-9.230469-.570312-1.890625-1.84375-3.449219-3.589844-4.378907-1.097656-.582031-2.285156-.878906-3.484375-.878906zm0 0"/><path d="m34.554688 42.203125c-11.613282 0-21.058594-9.445313-21.058594-21.058594 0-11.609375 9.445312-21.0546872 21.058594-21.0546872 11.613281 0 21.0625 9.4453122 21.0625 21.0546872 0 11.613281-9.449219 21.058594-21.0625 21.058594zm0-28.460937c-4.085938 0-7.40625 3.320312-7.40625 7.402343 0 4.085938 3.320312 7.40625 7.40625 7.40625 4.089843 0 7.40625-3.320312 7.40625-7.40625 0-4.082031-3.316407-7.402343-7.40625-7.402343zm0 0"/><path d="m92.242188 93.824219c-1.746094 0-3.492188-.664063-4.824219-2-2.667969-2.664063-2.667969-6.984375 0-9.652344l20.125-20.125c2.664062-2.667969 6.988281-2.667969 9.652343 0 2.667969 2.664063 2.667969 6.988281 0 9.652344l-20.125 20.125c-1.332031 1.335937-3.078124 2-4.828124 2zm0 0"/><path d="m112.371094 93.824219c-1.746094 0-3.496094-.664063-4.828125-2l-20.125-20.125c-2.667969-2.664063-2.667969-6.988281 0-9.652344 2.664062-2.667969 6.984375-2.667969 9.652343 0l20.125 20.125c2.667969 2.667969 2.667969 6.988281 0 9.652344-1.332031 1.335937-3.078124 2-4.824218 2zm0 0"/><path d="m224.03125 33.171875c0 6.289063-5.097656 11.382813-11.386719 11.382813-6.285156 0-11.382812-5.09375-11.382812-11.382813s5.097656-11.386719 11.382812-11.386719c6.289063 0 11.386719 5.097656 11.386719 11.386719zm0 0"/><path d="m415.179688 176.53125c0 6.289062-5.097657 11.386719-11.386719 11.386719-6.289063 0-11.386719-5.097657-11.386719-11.386719s5.097656-11.386719 11.386719-11.386719c6.289062 0 11.386719 5.097657 11.386719 11.386719zm0 0"/></g><path d="m227.023438 196.652344c-2.449219 0-4.714844-1.3125-5.925782-3.441406l-25.695312-44.964844c-1.875-3.273438-.734375-7.445313 2.539062-9.316406 3.265625-1.871094 7.441406-.738282 9.3125 2.542968l19.769532 34.59375 19.765624-34.59375c1.867188-3.28125 6.03125-4.414062 9.3125-2.542968 3.273438 1.871093 4.414063 6.042968 2.539063 9.316406l-25.695313 44.964844c-1.210937 2.128906-3.476562 3.441406-5.921874 3.441406zm0 0" fill="#f53e28"/></svg>