<svg height="399pt" viewBox="-4 0 399 399.28832" width="399pt" xmlns="http://www.w3.org/2000/svg"><path d="m324.355469 193.3125c0 84.832031-68.769531 153.601562-153.601563 153.601562-84.828125 0-153.597656-68.769531-153.597656-153.601562 0-84.828125 68.769531-153.597656 153.597656-153.597656 84.832032 0 153.601563 68.769531 153.601563 153.597656zm0 0" fill="#c1dbdc"/><g fill="#4c241d"><path d="m351.660156 79.429688c-3.773437 0-6.824218-3.054688-6.824218-6.828126v-19.734374c0-3.773438 3.050781-6.828126 6.824218-6.828126 3.773438 0 6.828125 3.054688 6.828125 6.828126v19.734374c0 3.773438-3.054687 6.828126-6.828125 6.828126zm0 0"/><path d="m351.660156 33.386719c-3.773437 0-6.824218-3.050781-6.824218-6.824219v-19.734375c0-3.773437 3.050781-6.828125 6.824218-6.828125 3.773438 0 6.828125 3.054688 6.828125 6.828125v19.730469c0 3.777344-3.054687 6.828125-6.828125 6.828125zm0 0"/><path d="m384.550781 46.539062h-19.734375c-3.773437 0-6.828125-3.050781-6.828125-6.824218 0-3.773438 3.054688-6.828125 6.828125-6.828125h19.734375c3.773438 0 6.824219 3.054687 6.824219 6.828125 0 3.773437-3.050781 6.824218-6.824219 6.824218zm0 0"/><path d="m338.507812 46.539062h-19.730468c-3.773438 0-6.828125-3.050781-6.828125-6.824218 0-3.773438 3.054687-6.828125 6.828125-6.828125h19.730468c3.773438 0 6.828126 3.054687 6.828126 6.828125 0 3.773437-3.054688 6.824218-6.828126 6.824218zm0 0"/><path d="m370.960938 399.289062c-3.417969 0-6.804688-.839843-9.90625-2.496093-4.957032-2.652344-8.585938-7.078125-10.21875-12.464844-1.632813-5.378906-1.066407-11.082031 1.582031-16.039063 2.652343-4.960937 7.078125-8.585937 12.464843-10.21875 5.378907-1.640624 11.074219-1.074218 16.039063 1.585938 4.960937 2.652344 8.585937 7.078125 10.21875 12.460938v.007812c3.363281 11.105469-2.9375 22.882812-14.042969 26.253906-2.023437.609375-4.082031.910156-6.136718.910156zm.035156-28.476562c-.71875 0-1.445313.109375-2.152344.324219-1.894531.570312-3.453125 1.851562-4.386719 3.589843-.925781 1.746094-1.125 3.746094-.554687 5.640626.574218 1.894531 1.855468 3.453124 3.59375 4.386718 1.753906.925782 3.746094 1.113282 5.640625.554688 3.898437-1.179688 6.121093-5.328125 4.941406-9.234375-.574219-1.894531-1.855469-3.449219-3.59375-4.378907-1.09375-.585937-2.289063-.882812-3.488281-.882812zm0 0"/><path d="m29.488281 68.175781c-11.613281 0-21.058593-9.449219-21.058593-21.054687 0-11.613282 9.445312-21.058594 21.058593-21.058594s21.0625 9.445312 21.0625 21.058594c0 11.605468-9.449219 21.054687-21.0625 21.054687zm0-28.460937c-4.085937 0-7.40625 3.320312-7.40625 7.40625 0 4.082031 3.320313 7.398437 7.40625 7.398437 4.089844 0 7.40625-3.316406 7.40625-7.398437 0-4.085938-3.316406-7.40625-7.40625-7.40625zm0 0"/><path d="m121.308594 37.875c-1.746094 0-3.492188-.667969-4.824219-2-2.667969-2.667969-2.667969-6.988281 0-9.652344l20.125-20.121094c2.667969-2.667968 6.988281-2.667968 9.652344 0 2.667969 2.664063 2.667969 6.988282 0 9.652344l-20.125 20.121094c-1.332031 1.332031-3.082031 2-4.828125 2zm0 0"/><path d="m141.4375 37.875c-1.746094 0-3.496094-.667969-4.828125-2l-20.125-20.121094c-2.667969-2.664062-2.667969-6.988281 0-9.652344 2.664063-2.667968 6.984375-2.667968 9.652344 0l20.125 20.121094c2.667969 2.664063 2.667969 6.984375 0 9.652344-1.332031 1.332031-3.078125 2-4.824219 2zm0 0"/></g><path d="m289.101562 358.019531c-16.199218 12.523438-35.355468 21.761719-56.675781 26.472657-77.308593 17.09375-153.835937-31.71875-170.929687-109.027344s31.722656-153.835938 109.03125-170.929688 153.835937 31.71875 170.929687 109.027344c7.832031 35.429688 1.824219 70.691406-14.421875 100.148438" fill="#bd53b5"/><path d="m201.457031 394.722656c-68.902343 0-131.15625-47.792968-146.628906-117.78125-17.878906-80.859375 33.363281-161.195312 114.222656-179.074218 80.890625-17.839844 161.199219 33.367187 179.074219 114.21875 7.886719 35.695312 2.523438 72.953124-15.109375 104.921874-1.824219 3.292969-5.964844 4.488282-9.28125 2.679688-3.300781-1.824219-4.5-5.972656-2.679687-9.28125 16.035156-29.050781 20.90625-62.925781 13.734374-95.375-16.25-73.503906-89.285156-120.078125-162.792968-103.832031-73.507813 16.253906-120.085938 89.28125-103.832032 162.792969 16.25 73.507812 89.320313 120.085937 162.792969 103.835937 19.859375-4.386719 38.011719-12.875 53.972657-25.207031 2.972656-2.3125 7.265624-1.761719 9.574218 1.226562 2.304688 2.980469 1.757813 7.265625-1.230468 9.570313-17.558594 13.582031-37.53125 22.914062-59.371094 27.742187-10.875 2.402344-21.746094 3.5625-32.445313 3.5625zm0 0" fill="#4c241d"/><path d="m304.800781 350.734375c-1.707031 0-3.40625-.632813-4.730469-1.90625-2.714843-2.613281-2.800781-6.933594-.1875-9.652344 3.1875-3.3125 6.253907-6.847656 9.105469-10.5 2.3125-2.972656 6.601563-3.507812 9.582031-1.179687 2.972657 2.320312 3.5 6.605468 1.179688 9.578125-3.140625 4.027343-6.515625 7.914062-10.027344 11.566406-1.339844 1.394531-3.128906 2.09375-4.921875 2.09375zm0 0" fill="#4c241d"/><path d="m85.804688 291.289062c43.863281 10.964844 84.894531-12.394531 84.894531-57.609374l-163.726563-69.734376s6.0625 109.148438 78.832032 127.34375zm0 0" fill="#fff"/><path d="m107.214844 300.820312c-7.511719 0-15.257813-.957031-23.066406-2.914062-76.765626-19.191406-83.738282-128.925781-83.992188-133.585938-.1328125-2.359374.957031-4.613281 2.890625-5.964843 1.933594-1.355469 4.433594-1.613281 6.59375-.695313l163.734375 69.742188c2.519531 1.074218 4.152344 3.546875 4.152344 6.28125 0 21.417968-8.625 39.945312-24.285156 52.171875-12.613282 9.851562-28.691407 14.964843-46.027344 14.964843zm-19.757813-16.152343c21.738281 5.40625 42.636719 1.933593 57.386719-9.574219 11.371094-8.878906 17.847656-21.59375 18.886719-36.964844l-148.714844-63.339844c3.835937 27.410157 18.746094 96.453126 72.441406 109.878907zm0 0" fill="#4c241d"/><path d="m303.496094 291.289062c-43.863282 10.964844-84.898438-12.394531-84.898438-57.609374l163.730469-69.734376s-6.066406 109.148438-78.832031 127.34375zm0 0" fill="#fff"/><path d="m282.082031 300.820312c-17.339843 0-33.40625-5.113281-46.027343-14.96875-15.660157-12.226562-24.285157-30.753906-24.285157-52.171874 0-2.734376 1.632813-5.207032 4.152344-6.28125l163.734375-69.738282c2.175781-.917968 4.660156-.660156 6.59375.691406 1.933594 1.355469 3.027344 3.609376 2.894531 5.96875-.253906 4.660157-7.226562 114.390626-83.996093 133.585938-7.804688 1.957031-15.554688 2.914062-23.066407 2.914062zm21.414063-9.535156h.066406zm-77.925782-53.15625c1.039063 15.371094 7.511719 28.085938 18.886719 36.964844 14.746094 11.511719 35.652344 14.992188 57.386719 9.574219 53.691406-13.425781 68.605469-82.46875 72.4375-109.882813zm0 0" fill="#4c241d"/><path d="m265.597656 265.359375c-.894531 0-1.796875-.171875-2.660156-.539063-3.476562-1.464843-5.09375-5.472656-3.628906-8.945312 6.433594-15.191406 21.246094-25.011719 37.738281-25.011719 5.226563 0 10.320313.972657 15.140625 2.890625 3.5 1.394532 5.214844 5.367188 3.8125 8.867188-1.386719 3.5-5.367188 5.226562-8.863281 3.8125-3.203125-1.273438-6.59375-1.917969-10.089844-1.917969-10.996094 0-20.878906 6.546875-25.164063 16.679687-1.101562 2.605469-3.632812 4.164063-6.285156 4.164063zm0 0" fill="#4c241d"/><path d="m123.703125 265.359375c-2.660156 0-5.1875-1.558594-6.289063-4.164063-4.285156-10.132812-14.167968-16.679687-25.164062-16.679687-3.496094 0-6.886719.648437-10.089844 1.921875-3.5 1.410156-7.476562-.316406-8.863281-3.8125-1.398437-3.503906.3125-7.476562 3.8125-8.867188 4.820313-1.921874 9.914063-2.894531 15.140625-2.894531 16.492188 0 31.304688 9.820313 37.738281 25.015625 1.464844 3.472656-.152343 7.480469-3.625 8.945313-.867187.363281-1.765625.535156-2.660156.535156zm0 0" fill="#4c241d"/><path d="m279.097656 318.292969c-3.125 19.289062-36.28125 35.382812-81.035156 35.382812s-85.675781-16.398437-81.03125-35.382812c1.679688-6.890625 163.496094-8.820313 162.066406 0zm0 0" fill="#ffded5"/><path d="m198.0625 360.507812c-37.035156 0-71.269531-10.667968-83.253906-25.933593-5.539063-7.058594-5.453125-13.632813-4.414063-17.90625 1.328125-5.417969 2.382813-9.699219 74.882813-10.933594 31.390625-.519531 73.722656 0 89.75 3.261719 8.027344 1.625 11.660156 5.125 10.808594 10.394531-3.859376 23.824219-40.773438 41.117187-87.773438 41.117187zm-74.3125-37.621093c.273438.925781.816406 2.007812 1.804688 3.261719 7.875 10.039062 35.96875 20.707031 72.507812 20.707031 38.148438 0 65.347656-12.152344 72.546875-24.867188-23.984375-3.949219-125.460937-3.421875-146.859375.898438zm0 0" fill="#4c241d"/><path d="m215.679688 313.417969 12.8125 30.316406c2.628906 6.214844 11.460937 6.15625 14.003906-.097656l11.804687-29.011719zm0 0" fill="#fff"/><path d="m235.476562 355.1875c-5.808593 0-11.007812-3.445312-13.265624-8.792969l-12.816407-30.320312c-.90625-2.148438-.660156-4.597657.65625-6.519531 1.316407-1.917969 3.507813-3.257813 5.847657-2.957032l38.617187 1.199219c2.234375.070313 4.296875 1.234375 5.507813 3.105469 1.222656 1.875 1.449218 4.21875.605468 6.292968l-11.804687 29.019532c-2.199219 5.40625-7.402344 8.933594-13.25 8.976562-.03125-.003906-.066407-.003906-.097657-.003906zm-9.359374-34.621094 8.664062 20.507813c.074219.175781.195312.460937.695312.460937h.003907c.5-.003906.621093-.292968.6875-.464844l8.113281-19.925781zm0 0" fill="#4c241d"/><path d="m180.445312 313.417969-12.8125 30.316406c-2.628906 6.214844-11.460937 6.15625-14.003906-.097656l-11.804687-29.011719zm0 0" fill="#fff"/><path d="m160.648438 355.1875c-.03125 0-.066407 0-.097657 0-5.847656-.039062-11.046875-3.566406-13.25-8.972656l-11.804687-29.019532c-.839844-2.074218-.613282-4.421874.605468-6.296874 1.214844-1.871094 3.273438-3.03125 5.507813-3.105469l38.621094-1.199219c2.332031-.285156 4.519531 1.039062 5.84375 2.960938 1.316406 1.917968 1.5625 4.371093.65625 6.519531l-12.816407 30.320312c-2.257812 5.347657-7.457031 8.792969-13.265624 8.792969zm-8.804688-34.046875 8.113281 19.925781c.066407.175782.183594.460938.683594.464844h.007813c.5 0 .621093-.285156.691406-.460938l8.667968-20.503906zm0 0" fill="#4c241d"/></svg>