<svg height="413pt" viewBox="0 -8 413.64479 413" width="413pt" xmlns="http://www.w3.org/2000/svg"><path d="m329.722656 196.363281c0 84.832031-68.769531 153.601563-153.601562 153.601563-84.828125 0-153.597656-68.769532-153.597656-153.601563 0-84.828125 68.769531-153.597656 153.597656-153.597656 84.832031 0 153.601562 68.769531 153.601562 153.597656zm0 0" fill="#c1dbdc"/><g fill="#4c241d"><path d="m65.527344 363.617188h-17.609375c-3.773438 0-6.828125-3.054688-6.828125-6.824219 0-3.773438 3.054687-6.828125 6.828125-6.828125h17.609375c3.769531 0 6.824218 3.054687 6.824218 6.828125 0 3.769531-3.054687 6.824219-6.824218 6.824219zm0 0"/><path d="m24.4375 363.617188h-17.609375c-3.773437 0-6.828125-3.054688-6.828125-6.824219 0-3.773438 3.054688-6.828125 6.828125-6.828125h17.609375c3.769531 0 6.824219 3.054687 6.824219 6.828125 0 3.769531-3.054688 6.824219-6.824219 6.824219zm0 0"/><path d="m36.175781 351.878906c-3.769531 0-6.828125-3.058594-6.828125-6.828125v-17.609375c0-3.769531 3.058594-6.828125 6.828125-6.828125s6.828125 3.058594 6.828125 6.828125v17.609375c0 3.769531-3.058594 6.828125-6.828125 6.828125zm0 0"/><path d="m36.175781 392.96875c-3.769531 0-6.828125-3.058594-6.828125-6.828125v-17.609375c0-3.769531 3.058594-6.828125 6.828125-6.828125s6.828125 3.058594 6.828125 6.828125v17.609375c0 3.769531-3.058594 6.828125-6.828125 6.828125zm0 0"/><path d="m389.84375 392.078125c-11.609375 0-21.058594-9.449219-21.058594-21.058594s9.449219-21.054687 21.058594-21.054687 21.058594 9.445312 21.058594 21.054687-9.449219 21.058594-21.058594 21.058594zm0-28.460937c-4.085938 0-7.402344 3.320312-7.402344 7.40625 0 4.082031 3.316406 7.402343 7.402344 7.402343 4.082031 0 7.402344-3.320312 7.402344-7.402343 0-4.085938-3.320313-7.40625-7.402344-7.40625zm0 0"/><path d="m10.621094 109.195312c-1.746094 0-3.492188-.667968-4.824219-2-2.667969-2.667968-2.667969-6.988281 0-9.652343l20.125-20.128907c2.667969-2.664062 6.988281-2.664062 9.652344 0 2.667969 2.667969 2.667969 6.988282 0 9.652344l-20.125 20.128906c-1.332031 1.332032-3.078125 2-4.828125 2zm0 0"/><path d="m30.75 109.195312c-1.746094 0-3.496094-.667968-4.828125-2l-20.125-20.128906c-2.667969-2.664062-2.667969-6.984375 0-9.652344 2.664063-2.664062 6.984375-2.664062 9.652344 0l20.125 20.125c2.667969 2.667969 2.667969 6.988282 0 9.652344-1.332031 1.335938-3.078125 2.003906-4.824219 2.003906zm0 0"/><path d="m256.382812 34.101562c-1.746093 0-3.492187-.667968-4.828124-2-2.664063-2.664062-2.664063-6.988281 0-9.652343l20.128906-20.128907c2.664062-2.664062 6.984375-2.664062 9.652344 0 2.664062 2.667969 2.664062 6.988282 0 9.65625l-20.128907 20.125c-1.332031 1.332032-3.078125 2-4.824219 2zm0 0"/><path d="m276.507812 34.101562c-1.746093 0-3.492187-.667968-4.824218-2l-20.128906-20.125c-2.664063-2.667968-2.664063-6.988281 0-9.65625 2.667968-2.664062 6.988281-2.664062 9.652343 0l20.128907 20.128907c2.664062 2.664062 2.664062 6.988281 0 9.652343-1.332032 1.332032-3.078126 2-4.828126 2zm0 0"/></g><path d="m86.429688 274.222656c-3.820313-20.121094-3.371094-41.378906 2.089843-62.519531 19.804688-76.660156 98.003907-122.746094 174.664063-102.941406 76.65625 19.804687 122.746094 98.003906 102.941406 174.664062-19.804688 76.65625-98.003906 122.746094-174.664062 102.941407-35.128907-9.078126-63.839844-30.414063-82.726563-58.25" fill="#bf7e68"/><path d="m227.300781 397.765625c-12.40625.003906-24.992187-1.546875-37.546875-4.789063-35.386718-9.144531-66.167968-30.816406-86.671875-61.027343-2.117187-3.121094-1.304687-7.363281 1.816407-9.484375 3.117187-2.117188 7.359374-1.308594 9.484374 1.816406 18.636719 27.460938 46.617188 47.164062 78.785157 55.472656 72.90625 18.847656 147.519531-25.148437 166.347656-98.039062 18.832031-72.890625-25.148437-147.515625-98.039063-166.347656-72.875-18.8125-147.511718 25.148437-166.347656 98.039062-5.085937 19.691406-5.757812 39.71875-1.992187 59.539062.703125 3.703126-1.730469 7.277344-5.433594 7.980469-3.726563.730469-7.28125-1.730469-7.980469-5.433593-4.140625-21.808594-3.40625-43.84375 2.183594-65.5 20.71875-80.175782 102.789062-128.5625 182.980469-107.84375 80.179687 20.71875 128.5625 102.800781 107.847656 182.980468-17.472656 67.628906-78.613281 112.636719-145.433594 112.636719zm0 0" fill="#4c241d"/><path d="m343.382812 288.523438c-2.207031 0-4.371093-1.066407-5.6875-3.039063l-13.652343-20.480469c-2.089844-3.136718-1.242188-7.375 1.894531-9.464844 3.128906-2.101562 7.375-1.246093 9.464844 1.890626l13.652344 20.480468c2.09375 3.136719 1.246093 7.375-1.890626 9.46875-1.164062.773438-2.480468 1.144532-3.78125 1.144532zm0 0" fill="#4c241d"/><path d="m275.109375 302.179688c-.714844 0-1.445313-.109376-2.160156-.351563-3.578125-1.191406-5.511719-5.058594-4.316407-8.636719l6.828126-20.480468c1.1875-3.574219 5.042968-5.523438 8.636718-4.316407 3.578125 1.191407 5.511719 5.058594 4.316406 8.636719l-6.828124 20.480469c-.953126 2.859375-3.617188 4.667969-6.476563 4.667969zm0 0" fill="#4c241d"/><path d="m310.382812 301.039062c-3.03125 0-5.800781-2.039062-6.601562-5.109374l-5.6875-21.835938c-.949219-3.644531 1.238281-7.375 4.886719-8.324219 3.667969-.960937 7.375 1.238281 8.324219 4.882813l5.6875 21.835937c.953124 3.644531-1.238282 7.375-4.886719 8.324219-.574219.152344-1.15625.226562-1.722657.226562zm0 0" fill="#4c241d"/><path d="m111.261719 288.523438c-1.300781 0-2.617188-.371094-3.777344-1.144532-3.140625-2.09375-3.984375-6.332031-1.894531-9.46875l13.652344-20.480468c2.089843-3.136719 6.320312-3.992188 9.46875-1.890626 3.136718 2.089844 3.980468 6.328126 1.890624 9.464844l-13.652343 20.480469c-1.316407 1.972656-3.480469 3.039063-5.6875 3.039063zm0 0" fill="#4c241d"/><path d="m179.535156 302.179688c-2.859375 0-5.523437-1.808594-6.476562-4.667969l-6.824219-20.480469c-1.195313-3.578125.738281-7.441406 4.316406-8.636719 3.585938-1.207031 7.441407.742188 8.636719 4.316407l6.824219 20.480468c1.195312 3.578125-.738281 7.441406-4.316407 8.636719-.714843.238281-1.445312.351563-2.160156.351563zm0 0" fill="#4c241d"/><path d="m144.261719 301.039062c-.570313 0-1.144531-.074218-1.722657-.226562-3.652343-.949219-5.835937-4.679688-4.886718-8.324219l5.6875-21.835937c.949218-3.652344 4.675781-5.835938 8.328125-4.882813 3.648437.949219 5.835937 4.679688 4.882812 8.324219l-5.683593 21.835938c-.800782 3.070312-3.570313 5.109374-6.605469 5.109374zm0 0" fill="#4c241d"/><path d="m97.390625 314.972656c-2.570313 0-5.03125-1.460937-6.191406-3.941406-2.148438-4.605469-4.085938-9.371094-5.761719-14.171875-1.238281-3.558594.640625-7.449219 4.203125-8.691406 3.550781-1.246094 7.445313.636719 8.691406 4.199219 1.523438 4.367187 3.289063 8.703124 5.242188 12.890624 1.59375 3.414063.113281 7.476563-3.300781 9.070313-.933594.441406-1.917969.644531-2.882813.644531zm0 0" fill="#4c241d"/><path d="m293.640625 151.992188c-7.996094 0-15.617187 1.542968-22.664063 4.242187l15.398438-22.304687 35.894531-9.058594 24.953125-92.339844-77.492187 56.074219 4.261719 36.777343-46.667969 67.609376-46.671875-67.609376 4.261718-36.777343-77.488281-56.074219 24.949219 92.339844 35.894531 9.058594 17.101563 24.773437c-8.519532-4.257813-18.09375-6.710937-28.265625-6.710937-35.007813 0-63.390625 28.378906-63.390625 63.390624 0 35.007813 28.378906 63.390626 63.390625 63.390626 25.988281 0 48.292969-15.65625 58.078125-38.035157 3.398437-7.765625 16.976562-7.765625 20.375 0 9.785156 22.382813 32.09375 38.035157 58.082031 38.035157 35.007813 0 63.390625-28.378907 63.390625-63.390626 0-35.011718-28.382812-63.390624-63.390625-63.390624zm0 0" fill="#6b4f5b"/><path d="m293.640625 285.597656c-27.890625 0-53.144531-16.535156-64.335937-42.125-.898438-2.046875-6.96875-2.042968-7.859376-.003906-11.195312 25.59375-36.449218 42.128906-64.339843 42.128906-38.714844 0-70.214844-31.5-70.214844-70.21875 0-38.714844 31.5-70.214844 70.214844-70.214844 3.800781 0 7.554687.300782 11.25.90625l-4.242188-6.152343-33.40625-8.429688c-2.390625-.605469-4.277343-2.453125-4.917969-4.839843l-24.957031-92.335938c-.75-2.792969.335938-5.757812 2.714844-7.398438 2.378906-1.644531 5.535156-1.609374 7.878906.085938l77.492188 56.078125c2 1.445313 3.0625 3.863281 2.773437 6.316406l-3.960937 34.222657 39.59375 57.359374 39.589843-57.359374-3.960937-34.222657c-.285156-2.453125.777344-4.871093 2.777344-6.316406l77.488281-56.078125c2.34375-1.691406 5.503906-1.730469 7.878906-.085938 2.382813 1.640626 3.46875 4.605469 2.714844 7.398438l-24.953125 92.339844c-.644531 2.382812-2.527344 4.230468-4.921875 4.839844l-33.402344 8.429687-3.863281 5.59375c2.3125-.238281 4.636719-.351563 6.96875-.351563 38.714844 0 70.214844 31.5 70.214844 70.214844 0 38.71875-31.5 70.21875-70.214844 70.21875zm-68.269531-57.511718c7.46875 0 13.765625 3.800781 16.445312 9.917968 9.011719 20.617188 29.355469 33.941406 51.824219 33.941406 31.1875 0 56.5625-25.375 56.5625-56.566406s-25.375-56.5625-56.5625-56.5625c-6.851563 0-13.65625 1.277344-20.222656 3.789063-2.796875 1.089843-5.957031.199219-7.808594-2.152344-1.851563-2.355469-1.953125-5.636719-.25-8.101563l15.398437-22.300781c.941407-1.359375 2.34375-2.332031 3.945313-2.738281l32.019531-8.082031 18.878906-69.863281-58.632812 42.425781 3.800781 32.800781c.195313 1.648438-.21875 3.304688-1.164062 4.664062l-46.667969 67.613282c-2.546875 3.691406-8.6875 3.691406-11.234375 0l-46.671875-67.613282c-.941406-1.359374-1.355469-3.019531-1.164062-4.664062l3.800781-32.800781-58.625-42.425781 18.878906 69.863281 32.019531 8.082031c1.605469.40625 3.003906 1.378906 3.945313 2.738281l17.097656 24.769531c1.773437 2.566407 1.582031 6.003907-.460937 8.355469-2.039063 2.355469-5.414063 3.023438-8.207032 1.632813-7.949218-3.976563-16.433594-5.992188-25.210937-5.992188-31.1875 0-56.5625 25.371094-56.5625 56.5625s25.375 56.566406 56.5625 56.566406c22.46875 0 42.8125-13.324218 51.828125-33.945312 2.671875-6.117188 8.972656-9.914062 16.4375-9.914062zm0 0" fill="#4c241d"/><path d="m38.179688 22.285156c0 4.875-3.953126 8.828125-8.832032 8.828125-4.875 0-8.828125-3.953125-8.828125-8.828125s3.953125-8.828125 8.828125-8.828125c4.878906 0 8.832032 3.953125 8.832032 8.828125zm0 0" fill="#4c241d"/><path d="m413.644531 145.164062c0 4.875-3.953125 8.828126-8.828125 8.828126s-8.828125-3.953126-8.828125-8.828126 3.953125-8.828124 8.828125-8.828124 8.828125 3.953124 8.828125 8.828124zm0 0" fill="#4c241d"/><path d="m198.707031 215.378906c0 22.976563-18.625 41.601563-41.601562 41.601563-22.976563 0-41.601563-18.625-41.601563-41.601563 0-22.972656 18.625-41.601562 41.601563-41.601562 22.976562 0 41.601562 18.628906 41.601562 41.601562zm0 0" fill="#e66353"/><path d="m157.105469 263.808594c-26.703125 0-48.425781-21.726563-48.425781-48.429688 0-26.699218 21.722656-48.425781 48.425781-48.425781s48.425781 21.726563 48.425781 48.425781c0 26.703125-21.722656 48.429688-48.425781 48.429688zm0-83.203125c-19.171875 0-34.773438 15.601562-34.773438 34.773437 0 19.175782 15.601563 34.773438 34.773438 34.773438s34.773437-15.597656 34.773437-34.773438c0-19.171875-15.597656-34.773437-34.773437-34.773437zm0 0" fill="#4c241d"/><path d="m157.265625 232.824219c-14.308594 0-28.671875-5.039063-42.988281-15.113281-3.082032-2.167969-3.820313-6.429688-1.652344-9.511719s6.421875-3.820313 9.511719-1.65625c23.714843 16.695312 46.578125 16.707031 69.894531.03125 3.0625-2.195313 7.328125-1.480469 9.523438 1.585937 2.191406 3.066406 1.480468 7.328125-1.585938 9.523438-14.109375 10.089844-28.378906 15.140625-42.703125 15.140625zm0 0" fill="#4c241d"/><path d="m335.242188 215.378906c0 22.976563-18.628907 41.601563-41.601563 41.601563-22.976563 0-41.601563-18.625-41.601563-41.601563 0-22.972656 18.625-41.601562 41.601563-41.601562 22.972656 0 41.601563 18.628906 41.601563 41.601562zm0 0" fill="#e66353"/><path d="m293.640625 263.808594c-26.703125 0-48.429687-21.726563-48.429687-48.429688 0-26.699218 21.726562-48.425781 48.429687-48.425781 26.699219 0 48.425781 21.726563 48.425781 48.425781 0 26.703125-21.722656 48.429688-48.425781 48.429688zm0-83.203125c-19.175781 0-34.773437 15.601562-34.773437 34.773437 0 19.175782 15.597656 34.773438 34.773437 34.773438 19.171875 0 34.773437-15.597656 34.773437-34.773438 0-19.171875-15.601562-34.773437-34.773437-34.773437zm0 0" fill="#4c241d"/><path d="m247.804688 250.976562c0-16.964843-9.171876-30.71875-20.480469-30.71875-11.3125 0-20.480469 13.753907-20.480469 30.71875 0 16.96875 9.167969 30.722657 20.480469 30.722657 11.308593 0 20.480469-13.753907 20.480469-30.722657zm0 0" fill="#b5a19c"/><path d="m227.324219 288.523438c-15.316407 0-27.308594-16.492188-27.308594-37.546876 0-21.050781 11.992187-37.546874 27.308594-37.546874 15.3125 0 27.304687 16.496093 27.304687 37.546874 0 21.054688-11.992187 37.546876-27.304687 37.546876zm0-61.4375c-6.457031 0-13.65625 9.8125-13.65625 23.890624 0 14.082032 7.199219 23.894532 13.65625 23.894532 6.453125 0 13.652343-9.8125 13.652343-23.894532 0-14.078124-7.199218-23.890624-13.652343-23.890624zm0 0" fill="#4c241d"/><path d="m293.800781 232.824219c-14.3125 0-28.671875-5.039063-42.988281-15.113281-3.085938-2.167969-3.824219-6.429688-1.65625-9.511719 2.175781-3.082031 6.425781-3.820313 9.515625-1.65625 23.714844 16.695312 46.574219 16.707031 69.890625.03125 3.070312-2.195313 7.332031-1.480469 9.523438 1.585937 2.195312 3.066406 1.484374 7.328125-1.582032 9.523438-14.109375 10.089844-28.378906 15.140625-42.703125 15.140625zm0 0" fill="#4c241d"/><path d="m227.324219 322.65625c-35 0-65.195313 17.960938-79.640625 44 13.058594 8.734375 27.707031 15.558594 43.777344 19.710938 41.195312 10.640624 82.746093 2.125 115.527343-19.804688-14.457031-26.003906-44.691406-43.90625-79.664062-43.90625zm0 0" fill="#edebdc"/><path d="m227.015625 397.703125c-12.472656 0-24.992187-1.554687-37.261719-4.726563-16.214844-4.191406-31.648437-11.136718-45.863281-20.648437-2.953125-1.972656-3.902344-5.878906-2.175781-8.988281 16.257812-29.304688 49.0625-47.511719 85.609375-47.511719 36.554687 0 69.367187 18.167969 85.632812 47.414063 1.726563 3.101562.78125 7.015624-2.167969 8.988281-25.050781 16.761719-54.28125 25.472656-83.773437 25.472656zm-70.003906-33.199219c11.375 6.863282 23.511719 11.984375 36.160156 15.253906 35.410156 9.148438 73.105469 3.539063 104.480469-15.351562-14.761719-21.6875-41.105469-34.921875-70.328125-34.921875-29.214844 0-55.554688 13.269531-70.3125 35.019531zm0 0" fill="#4c241d"/></svg>