<svg height="426pt" viewBox="0 -16 426.34209 426" width="426pt" xmlns="http://www.w3.org/2000/svg"><path d="m322.398438 201.558594c0 84.828125-68.769532 153.597656-153.597657 153.597656-84.832031 0-153.601562-68.769531-153.601562-153.597656 0-84.832032 68.769531-153.601563 153.601562-153.601563 84.828125 0 153.597657 68.769531 153.597657 153.601563zm0 0" fill="#c1dbdc"/><g fill="#4c241d"><path d="m73.007812 37.9375c-1.746093 0-3.496093-.667969-4.828124-2-2.667969-2.664062-2.667969-6.988281 0-9.652344l15.03125-15.035156c2.664062-2.664062 6.984374-2.664062 9.652343 0 2.664063 2.667969 2.664063 6.988281 0 9.652344l-15.03125 15.035156c-1.332031 1.335938-3.078125 2-4.824219 2zm0 0"/><path d="m37.9375 73.011719c-1.746094 0-3.496094-.667969-4.828125-2-2.664063-2.667969-2.664063-6.988281 0-9.652344l15.03125-15.035156c2.664063-2.664063 6.984375-2.664063 9.652344 0 2.664062 2.667969 2.664062 6.988281 0 9.652343l-15.03125 15.035157c-1.332031 1.332031-3.078125 2-4.824219 2zm0 0"/><path d="m52.964844 37.9375c-1.746094 0-3.492188-.667969-4.824219-2l-15.03125-15.035156c-2.664063-2.664063-2.664063-6.984375 0-9.652344 2.664063-2.664062 6.988281-2.664062 9.652344 0l15.03125 15.035156c2.664062 2.664063 2.664062 6.988282 0 9.652344-1.332031 1.335938-3.082031 2-4.828125 2zm0 0"/><path d="m88.035156 73.011719c-1.746094 0-3.492187-.667969-4.824218-2l-15.03125-15.035157c-2.667969-2.664062-2.667969-6.984374 0-9.652343 2.664062-2.664063 6.988281-2.664063 9.652343 0l15.03125 15.035156c2.664063 2.664063 2.664063 6.984375 0 9.652344-1.332031 1.332031-3.082031 2-4.828125 2zm0 0"/><path d="m54.976562 393.878906c-3.421874 0-6.800781-.839844-9.902343-2.492187-4.964844-2.65625-8.589844-7.085938-10.222657-12.476563-1.628906-5.371094-1.066406-11.070312 1.585938-16.03125 2.652344-4.964844 7.074219-8.589844 12.460938-10.222656 11.113281-3.34375 22.890624 2.933594 26.257812 14.046875 1.632812 5.378906 1.070312 11.078125-1.582031 16.039063-2.652344 4.960937-7.074219 8.585937-12.460938 10.21875-2.019531.617187-4.082031.917968-6.136719.917968zm.023438-28.472656c-.710938 0-1.429688.105469-2.144531.320312-3.90625 1.183594-6.121094 5.324219-4.9375 9.230469.574219 1.894531 1.851562 3.453125 3.59375 4.386719 1.742187.925781 3.75 1.121094 5.640625.554688 1.886718-.574219 3.445312-1.847657 4.378906-3.59375.929688-1.746094 1.128906-3.746094.554688-5.640626-.96875-3.191406-3.910157-5.257812-7.085938-5.257812zm0 0"/><path d="m389.347656 42.285156c-11.609375 0-21.058594-9.445312-21.058594-21.054687 0-11.613281 9.449219-21.058594 21.058594-21.058594s21.054688 9.445313 21.054688 21.058594c0 11.609375-9.445313 21.054687-21.054688 21.054687zm0-28.460937c-4.085937 0-7.40625 3.320312-7.40625 7.40625 0 4.082031 3.320313 7.402343 7.40625 7.402343 4.082032 0 7.402344-3.320312 7.402344-7.402343 0-4.085938-3.320312-7.40625-7.402344-7.40625zm0 0"/><path d="m309.800781 28.054688c0 5.082031-4.121093 9.203124-9.203125 9.203124-5.082031 0-9.203125-4.121093-9.203125-9.203124 0-5.082032 4.121094-9.199219 9.203125-9.199219 5.082032 0 9.203125 4.117187 9.203125 9.199219zm0 0"/><path d="m405.375 150.9375c0 5.082031-4.121094 9.199219-9.203125 9.199219s-9.203125-4.117188-9.203125-9.199219 4.121094-9.203125 9.203125-9.203125 9.203125 4.121094 9.203125 9.203125zm0 0"/><path d="m358.789062 393.777344c-1.746093 0-3.492187-.667969-4.828124-2-2.664063-2.664063-2.664063-6.988282 0-9.652344l32.777343-32.773438c2.667969-2.664062 6.988281-2.664062 9.652344 0 2.667969 2.664063 2.667969 6.988282 0 9.652344l-32.773437 32.773438c-1.335938 1.335937-3.082032 2-4.828126 2zm0 0"/></g><path d="m99.90625 216.140625-84.730469 32.949219c-9.699219 3.773437-11.335937 16.808594-2.867187 22.859375 14.226562 10.160156 31.574218 14.992187 49.003906 13.652343l50.515625-3.886718zm0 0" fill="#9dc1e4"/><path d="m55.632812 292.644531c-16.890624 0-33.476562-5.28125-47.289062-15.148437-5.960938-4.25-9.097656-11.40625-8.1875-18.671875.910156-7.273438 5.714844-13.4375 12.546875-16.09375l84.730469-32.953125c1.886718-.746094 4.023437-.59375 5.804687.398437 1.777344 1 3.019531 2.734375 3.382813 4.738281l11.921875 65.574219c.347656 1.902344-.128907 3.863281-1.308594 5.386719-1.183594 1.53125-2.957031 2.492188-4.882813 2.640625l-50.519531 3.886719c-2.066406.160156-4.136719.242187-6.199219.242187zm39.035157-67.144531-77.019531 29.953125c-3.144532 1.226563-3.804688 3.953125-3.945313 5.066406s-.167969 3.914063 2.574219 5.871094c12.898437 9.210937 28.699218 13.609375 44.511718 12.402344l42.972657-3.308594zm0 0" fill="#4c241d"/><path d="m326.4375 216.140625 84.734375 32.949219c9.699219 3.773437 11.332031 16.808594 2.863281 22.859375-14.226562 10.160156-31.574218 14.992187-49.003906 13.652343l-50.515625-3.886718zm0 0" fill="#9dc1e4"/><path d="m370.714844 292.644531c-2.066406 0-4.136719-.082031-6.207032-.242187l-50.515624-3.886719c-1.925782-.144531-3.699219-1.105469-4.882813-2.636719-1.179687-1.527344-1.65625-3.488281-1.308594-5.386718l11.921875-65.574219c.363282-2.007813 1.605469-3.738281 3.382813-4.738281 1.773437-.996094 3.910156-1.148438 5.804687-.402344l84.730469 32.957031c6.828125 2.652344 11.636719 8.820313 12.546875 16.09375.910156 7.265625-2.226562 14.417969-8.1875 18.671875-13.808594 9.867188-30.402344 15.144531-47.285156 15.144531zm-48.128906-17.160156 42.96875 3.308594c15.796874 1.21875 31.609374-3.1875 44.515624-12.402344 2.738282-1.957031 2.710938-4.757813 2.574219-5.871094-.140625-1.113281-.804687-3.839843-3.949219-5.066406l-77.019531-29.953125zm0 0" fill="#4c241d"/><path d="m391.566406 393.777344c-1.746094 0-3.496094-.667969-4.828125-2l-32.777343-32.773438c-2.664063-2.664062-2.664063-6.988281 0-9.652344 2.667968-2.664062 6.988281-2.664062 9.65625 0l32.773437 32.773438c2.667969 2.664062 2.667969 6.988281 0 9.652344-1.332031 1.335937-3.078125 2-4.824219 2zm0 0" fill="#4c241d"/><path d="m336.113281 201.613281c8.292969 13.480469 12.929688 28.542969 12.929688 44.433594 0 57.625-60.957031 104.335937-136.152344 104.335937s-136.15625-46.714843-136.15625-104.335937 60.960937-104.335937 136.15625-104.335937c34.457031 0 65.925781 9.8125 89.910156 25.984374" fill="#9dc1e4"/><path d="m212.890625 357.210938c-78.839844 0-142.980469-49.867188-142.980469-111.167969 0-61.292969 64.140625-111.160157 142.980469-111.160157 34.484375 0 67.773437 9.648438 93.726563 27.152344 3.125 2.105469 3.949218 6.355469 1.84375 9.480469-2.113282 3.128906-6.351563 3.941406-9.480469 1.839844-23.722657-16.003907-54.296875-24.820313-86.089844-24.820313-71.3125 0-129.328125 43.742188-129.328125 97.507813s58.015625 97.515625 129.328125 97.515625c71.308594 0 129.324219-43.75 129.324219-97.515625 0-14.253907-4.011719-28-11.914063-40.851563-1.976562-3.214844-.976562-7.421875 2.234375-9.394531 3.207032-1.980469 7.410156-.980469 9.390625 2.234375 9.253907 15.039062 13.945313 31.191406 13.945313 48.011719-.003906 61.300781-64.140625 111.167969-142.980469 111.167969zm0 0" fill="#4c241d"/><path d="m80.632812 221.640625c-2.457031 7.839844-3.898437 15.984375-3.898437 24.40625 0 57.621094 60.960937 104.335937 136.15625 104.335937s136.152344-46.714843 136.152344-104.335937c0-8.355469-1.3125-16.476563-3.734375-24.265625-35.878906 12.007812-81.917969 19.226562-132.132813 19.226562-50.410156 0-96.605469-7.277343-132.542969-19.367187zm0 0" fill="#efefd2"/><path d="m212.890625 357.210938c-78.839844 0-142.980469-49.867188-142.980469-111.167969 0-8.621094 1.417969-17.519531 4.214844-26.445313.546875-1.753906 1.777344-3.207031 3.414062-4.039062 1.632813-.832032 3.542969-.96875 5.273438-.394532 36.429688 12.261719 82.726562 19.015626 130.359375 19.015626 47.457031 0 93.613281-6.699219 129.96875-18.867188 1.742187-.574219 3.640625-.441406 5.273437.390625 1.636719.839844 2.867188 2.300781 3.410157 4.054687 2.683593 8.621094 4.042969 17.464844 4.042969 26.285157 0 61.300781-64.136719 111.167969-142.976563 111.167969zm-127.527344-126.878907c-1.199219 5.332031-1.800781 10.59375-1.800781 15.714844 0 53.765625 58.015625 97.511719 129.324219 97.511719 71.3125 0 129.328125-43.746094 129.328125-97.511719 0-5.195313-.5625-10.410156-1.671875-15.566406-36.542969 11.210937-81.429688 17.351562-127.371094 17.351562-46.136719 0-91.179687-6.1875-127.808594-17.5zm0 0" fill="#4c241d"/><path d="m323.335938 191.84375c-1.808594 0-3.621094-.71875-4.960938-2.140625-1.613281-1.703125-3.296875-3.371094-5.042969-5-2.761719-2.566406-2.917969-6.886719-.351562-9.644531 2.574219-2.761719 6.890625-2.914063 9.648437-.355469 1.964844 1.828125 3.859375 3.707031 5.671875 5.628906 2.585938 2.738281 2.464844 7.058594-.273437 9.644531-1.320313 1.25-3.007813 1.867188-4.691406 1.867188zm0 0" fill="#4c241d"/><path d="m290.671875 189.3125c0 4.9375-4.003906 8.941406-8.941406 8.941406-4.941407 0-8.945313-4.003906-8.945313-8.941406s4.003906-8.941406 8.945313-8.941406c4.9375 0 8.941406 4.003906 8.941406 8.941406zm0 0" fill="#4c241d"/><path d="m153.558594 189.3125c0 4.9375-4.003906 8.941406-8.941406 8.941406-4.941407 0-8.945313-4.003906-8.945313-8.941406s4.003906-8.941406 8.945313-8.941406c4.9375 0 8.941406 4.003906 8.941406 8.941406zm0 0" fill="#4c241d"/><path d="m213.171875 355.15625c-3.769531 0-6.824219-3.050781-6.824219-6.824219v-61.441406c0-3.773437 3.054688-6.828125 6.824219-6.828125s6.828125 3.054688 6.828125 6.828125v61.441406c0 3.773438-3.058594 6.824219-6.828125 6.824219zm0 0" fill="#4c241d"/><path d="m297.375 332.40625c-2.160156 0-4.28125-1.023438-5.609375-2.929688l-36.410156-52.339843c-2.152344-3.089844-1.386719-7.351563 1.703125-9.503907 3.109375-2.15625 7.359375-1.382812 9.503906 1.707032l36.410156 52.339844c2.152344 3.089843 1.390625 7.351562-1.703125 9.503906-1.191406.828125-2.550781 1.222656-3.894531 1.222656zm0 0" fill="#4c241d"/><path d="m128.96875 332.40625c-1.34375 0-2.703125-.394531-3.890625-1.222656-3.09375-2.152344-3.859375-6.414063-1.703125-9.503906l36.40625-52.339844c2.160156-3.089844 6.40625-3.863282 9.503906-1.707032 3.09375 2.152344 3.859375 6.414063 1.703125 9.503907l-36.410156 52.339843c-1.324219 1.910157-3.449219 2.929688-5.609375 2.929688zm0 0" fill="#4c241d"/></svg>