<svg id="leaf" enable-background="new 0 0 300 300" height="512" viewBox="0 0 300 300" width="512" xmlns="http://www.w3.org/2000/svg"><g><circle cx="122.938" cy="174.703" fill="#edebdc" r="92"/><g><path d="m92.323 209.017 20.267 2.533c1.703.213 3.228 1.156 4.18 2.583l8.67 13.005c4.476 6.714 13.674 8.29 20.129 3.448l4.352-3.264c1.379-1.034 3.141-1.414 4.823-1.04l29.926 6.65c4.165.926 7.907-2.737 7.07-6.921l-1.219-6.094c-.79-3.951 2.523-7.516 6.521-7.016l17.748 2.218c4.679.585 8.122-4.281 6.013-8.499l-.486-.971c-1.837-3.674.546-8.054 4.629-8.508l18.844-2.094c5.228-.581 7.143-7.192 3.036-10.478l-5.101-4.081c-3.254-2.604-2.86-7.668.759-9.736l13.212-7.55c4.431-2.532 3.779-9.113-1.062-10.727l-3.198-1.066c-4.737-1.579-5.497-7.961-1.262-10.607l12.105-7.566c4.712-2.945 3.117-10.175-2.397-10.865l-8.36-1.045c-4.875-.609-6.916-6.559-3.442-10.033l9.002-9.002c3.719-3.719 1.085-10.078-4.175-10.078h-3.713c-5.26 0-7.894-6.359-4.175-10.078l.959-.959c3.245-3.245 1.709-8.789-2.743-9.902l-3.823-.956c-2.628-.657-4.472-3.018-4.472-5.728v-11.973c0-4.715-5.255-7.528-9.179-4.912l-16.035 10.69c-1.516 1.011-3.413 1.265-5.142.689l-17.106-5.702c-3.823-1.274-7.771 1.571-7.771 5.601v4.316c0 3.261-2.643 5.904-5.904 5.904h-21.363c-4.389 0-7.243 4.619-5.281 8.544 2.109 4.218-1.334 9.083-6.013 8.498l-13.076-1.634c-5.015-.627-8.448 4.928-5.645 9.133l5.136 7.705c2.616 3.923-.197 9.179-4.912 9.179h-18.109c-4.95 0-7.703 5.726-4.61 9.592l3.064 3.83c3.092 3.866.34 9.592-4.61 9.592h-10.284c-5.26 0-7.894 6.359-4.175 10.078l15.386 15.386c3.103 3.103 1.856 8.388-2.308 9.775l-6.376 2.125c-4.785 1.595-5.496 8.068-1.171 10.663l4.726 2.836c3.528 2.117 3.863 7.102.651 9.673l-5.466 4.373c-4.077 3.26-2.225 9.819 2.956 10.466z" fill="#77a052"/><path d="m137.192 237.404c-1.027 0-2.066-.088-3.105-.266-4.941-.846-9.195-3.609-11.977-7.781l-8.668-13.004c-.309-.461-.801-.766-1.348-.834l-20.27-2.533c-4.02-.504-7.203-3.238-8.301-7.137-1.102-3.898.18-7.895 3.344-10.424l5.465-4.373c.676-.541.734-1.244.711-1.615s-.176-1.059-.922-1.504l-4.723-2.836c-3.355-2.012-5.18-5.68-4.75-9.572.426-3.891 3-7.078 6.711-8.314l6.379-2.127c.875-.291 1.16-.982 1.25-1.367.09-.387.145-1.131-.508-1.783l-15.383-15.387c-2.844-2.84-3.688-7.076-2.148-10.789 1.535-3.717 5.129-6.117 9.148-6.117h10.285c1.082 0 1.562-.754 1.715-1.078.156-.324.445-1.17-.227-2.014l-3.066-3.832c-2.398-3-2.855-7.014-1.191-10.477s5.086-5.613 8.926-5.613h18.109c1.027 0 1.516-.703 1.68-1.006.16-.303.477-1.1-.094-1.957l-5.137-7.703c-2.176-3.262-2.246-7.361-.184-10.699 2.059-3.334 5.758-5.119 9.652-4.621l13.074 1.635c1.031.127 1.59-.512 1.789-.789.199-.281.613-1.031.152-1.953-1.547-3.09-1.387-6.691.434-9.635 1.816-2.941 4.965-4.697 8.422-4.697h21.367c1.051 0 1.902-.854 1.902-1.902v-4.316c0-3.174 1.539-6.176 4.113-8.033 2.574-1.859 5.91-2.369 8.926-1.363l17.105 5.703c.551.186 1.172.1 1.656-.223l16.035-10.689c3.047-2.029 6.938-2.219 10.168-.492 3.227 1.729 5.23 5.074 5.23 8.732v11.975c0 .875.594 1.635 1.445 1.848l3.816.955c3.508.877 6.18 3.48 7.145 6.967.965 3.484.016 7.09-2.543 9.646l-.953.955c-.816.814-.562 1.723-.418 2.076.148.354.613 1.176 1.762 1.176h3.711c4.02 0 7.613 2.4 9.152 6.113 1.535 3.715.695 7.951-2.148 10.793l-9.004 9.004c-.758.758-.57 1.625-.453 1.963s.5 1.139 1.562 1.271l8.363 1.045c4.215.527 7.527 3.547 8.441 7.695.914 4.146-.82 8.281-4.422 10.531l-12.105 7.566c-.926.576-.926 1.477-.883 1.838s.254 1.238 1.289 1.582l3.199 1.066c3.754 1.252 6.332 4.479 6.723 8.418.391 3.941-1.504 7.609-4.941 9.576l-13.211 7.549c-.762.436-.926 1.131-.957 1.506-.027.375.023 1.086.711 1.635l5.102 4.08c3.137 2.512 4.445 6.629 3.324 10.49-1.117 3.861-4.422 6.643-8.418 7.086l-18.844 2.094c-.859.096-1.285.656-1.461.982-.18.326-.418.988-.031 1.762l.484.975c1.637 3.27 1.34 7.158-.773 10.146-2.113 2.986-5.691 4.562-9.312 4.107l-17.746-2.219c-.844-.086-1.383.326-1.633.594-.246.266-.637.838-.473 1.67l1.219 6.092c.66 3.299-.383 6.672-2.785 9.021-2.402 2.354-5.789 3.326-9.074 2.59l-29.926-6.65c-.547-.115-1.109.002-1.555.336l-4.355 3.264c-3.161 2.376-6.903 3.616-10.77 3.616zm-44.375-32.355 20.27 2.533c2.855.357 5.41 1.936 7.012 4.332l8.668 13.006c1.551 2.322 3.918 3.861 6.672 4.334 2.742.471 5.492-.191 7.73-1.865l4.352-3.264c2.309-1.738 5.258-2.371 8.09-1.746l29.926 6.65c.871.188 1.469-.229 1.746-.498.273-.27.711-.854.535-1.736l-1.219-6.092c-.621-3.115.297-6.361 2.457-8.686 2.164-2.326 5.352-3.471 8.484-3.084l17.746 2.219c1.016.133 1.594-.512 1.789-.789.199-.281.609-1.031.148-1.953l-.484-.975c-1.445-2.893-1.387-6.316.16-9.16 1.547-2.842 4.391-4.752 7.605-5.107l18.844-2.094c1.141-.127 1.512-.996 1.617-1.363s.258-1.299-.641-2.018l-5.102-4.08c-2.562-2.051-3.941-5.23-3.684-8.504.254-3.273 2.109-6.199 4.961-7.828l13.211-7.549c.965-.553.984-1.473.949-1.842-.039-.369-.238-1.266-1.293-1.617l-3.199-1.066c-3.676-1.227-6.242-4.381-6.699-8.229s1.297-7.514 4.582-9.566l12.105-7.566c1.031-.643.941-1.629.852-2.023-.086-.395-.418-1.33-1.621-1.48l-8.363-1.045c-3.781-.473-6.898-3.008-8.137-6.613s-.332-7.52 2.363-10.215l9.004-9.004c.812-.812.559-1.721.414-2.074-.148-.354-.613-1.176-1.762-1.176h-3.711c-4.02 0-7.613-2.4-9.152-6.113-1.535-3.715-.695-7.951 2.148-10.793l.953-.957c.711-.711.582-1.535.492-1.857-.09-.32-.398-1.096-1.371-1.338l-3.82-.955c-4.418-1.105-7.504-5.059-7.504-9.609v-11.977c0-1.029-.703-1.516-1.008-1.678-.305-.16-1.098-.477-1.953.094l-16.035 10.689c-2.527 1.682-5.75 2.109-8.625 1.156l-17.105-5.703c-.801-.268-1.418.053-1.719.264-.293.213-.789.695-.789 1.543v4.316c0 5.461-4.441 9.902-9.902 9.902h-21.367c-.922 0-1.41.566-1.617.902-.207.338-.496 1.027-.082 1.852 1.637 3.277 1.336 7.168-.777 10.154-2.117 2.984-5.668 4.578-9.312 4.104l-13.074-1.635c-1.113-.137-1.664.576-1.855.889-.195.312-.578 1.139.035 2.057l5.137 7.705c2.031 3.047 2.215 6.943.488 10.17-1.727 3.225-5.074 5.229-8.73 5.229h-18.11c-1.082 0-1.559.754-1.715 1.078s-.445 1.17.23 2.016l3.062 3.83c2.398 2.998 2.855 7.014 1.191 10.477-1.66 3.463-5.082 5.613-8.926 5.613h-10.284c-1.148 0-1.613.822-1.758 1.176-.148.354-.398 1.262.414 2.072l15.383 15.387c2.445 2.443 3.43 5.912 2.637 9.277s-3.227 6.027-6.504 7.121l-6.379 2.127c-1.047.348-1.25 1.232-1.289 1.598-.043.363-.031 1.273.91 1.838l4.727 2.838c2.777 1.666 4.566 4.59 4.785 7.824s-1.16 6.373-3.691 8.4l-5.465 4.373c-.891.713-.75 1.641-.645 2.006.102.365.465 1.228 1.594 1.371z" fill="#4c241d"/></g><g fill="#4c241d"><path d="m62.938 50.703c-2.211 0-4-1.791-4-4v-8c0-2.209 1.789-4 4-4s4 1.791 4 4v8c0 2.209-1.789 4-4 4z"/><path d="m62.938 74.703c-2.211 0-4-1.791-4-4v-8c0-2.209 1.789-4 4-4s4 1.791 4 4v8c0 2.209-1.789 4-4 4z"/><path d="m54.938 58.703h-8c-2.211 0-4-1.791-4-4s1.789-4 4-4h8c2.211 0 4 1.791 4 4s-1.789 4-4 4z"/><path d="m78.938 58.703h-8c-2.211 0-4-1.791-4-4s1.789-4 4-4h8c2.211 0 4 1.791 4 4s-1.789 4-4 4z"/><path d="m232.938 258.703c-7.719 0-14-6.281-14-14s6.281-14 14-14 14 6.281 14 14-6.281 14-14 14zm0-20c-3.309 0-6 2.691-6 6s2.691 6 6 6 6-2.691 6-6-2.691-6-6-6z"/><circle cx="209.185" cy="37.573" r="4.276"/><path d="m38.934 258.705c-1.75 0-3.359-1.16-3.852-2.932-.59-2.129.656-4.334 2.785-4.924 127.48-35.412 165.805-150.582 172.191-173.309.602-2.127 2.812-3.354 4.934-2.77 2.129.598 3.367 2.807 2.77 4.934-6.594 23.453-46.141 142.293-177.754 178.852-.359.1-.718.149-1.074.149z"/></g><g><path d="m126.938 110.703 8 20" fill="#77a052"/><path d="m134.938 134.705c-1.586 0-3.09-.953-3.715-2.516l-8-20c-.82-2.053.18-4.379 2.23-5.201 2.031-.812 4.379.178 5.199 2.229l8 20c.82 2.053-.18 4.379-2.23 5.201-.484.193-.988.287-1.484.287z" fill="#4c241d"/></g><g><path d="m218.938 154.703 28.387-7.097" fill="#77a052"/><path d="m218.934 158.703c-1.793 0-3.422-1.213-3.875-3.029-.539-2.145.766-4.314 2.91-4.852l28.387-7.098c2.129-.545 4.312.77 4.848 2.91.539 2.145-.766 4.314-2.91 4.852l-28.387 7.098c-.324.082-.652.119-.973.119z" fill="#4c241d"/></g><g><path d="m142.938 198.703 20 8" fill="#77a052"/><path d="m162.938 210.705c-.496 0-1-.094-1.484-.287l-20-8c-2.051-.822-3.051-3.148-2.23-5.201s3.164-3.039 5.199-2.229l20 8c2.051.822 3.051 3.148 2.23 5.201-.625 1.563-2.129 2.516-3.715 2.516z" fill="#4c241d"/></g><g><path d="m169.178 94.703 5.76 12" fill="#77a052"/><path d="m174.942 110.703c-1.492 0-2.922-.836-3.609-2.27l-5.762-12c-.957-1.99-.117-4.381 1.875-5.336 2-.965 4.383-.115 5.336 1.875l5.762 12c.957 1.99.117 4.381-1.875 5.336-.559.268-1.149.395-1.727.395z" fill="#4c241d"/></g></g></svg>