<svg id="lettuce-cabbage-cauliflower" enable-background="new 0 0 300 300" height="512" viewBox="0 0 300 300" width="512" xmlns="http://www.w3.org/2000/svg"><g><circle cx="172" cy="150.701" fill="#edebdc" r="92"/><g fill="#4c241d"><path d="m56 50.701c-2.211 0-4-1.791-4-4v-8c0-2.209 1.789-4 4-4s4 1.791 4 4v8c0 2.209-1.789 4-4 4z"/><path d="m56 74.701c-2.211 0-4-1.791-4-4v-8c0-2.209 1.789-4 4-4s4 1.791 4 4v8c0 2.209-1.789 4-4 4z"/><path d="m48 58.701h-8c-2.211 0-4-1.791-4-4s1.789-4 4-4h8c2.211 0 4 1.791 4 4s-1.789 4-4 4z"/><path d="m72 58.701h-8c-2.211 0-4-1.791-4-4s1.789-4 4-4h8c2.211 0 4 1.791 4 4s-1.789 4-4 4z"/><path d="m234 90.701c-7.719 0-14-6.281-14-14s6.281-14 14-14 14 6.281 14 14-6.281 14-14 14zm0-20c-3.309 0-6 2.691-6 6s2.691 6 6 6 6-2.691 6-6-2.691-6-6-6z"/></g><g><path d="m206 90.701c-3.511 0-6.761 1.046-9.531 2.785-6.02-6.946-14.886-11.358-24.799-11.358-.316 0-.622.039-.936.047-2.618-6.705-9.102-11.474-16.734-11.474-9.941 0-18 8.059-18 18 0 5.14 2.18 9.748 5.636 13.028-1.787 4.05-2.797 8.519-2.797 13.23 0 18.132 14.699 32.832 32.832 32.832 14.124 0 26.13-8.936 30.763-21.449 1.154.232 2.345.36 3.567.36 9.941 0 18-8.059 18-18s-8.06-18.001-18.001-18.001z" fill="#efefd2"/><path d="m171.672 151.791c-20.309 0-36.832-16.523-36.832-36.832 0-4.244.719-8.391 2.145-12.363-3.23-3.92-4.984-8.762-4.984-13.895 0-12.131 9.871-22 22-22 8.156 0 15.453 4.418 19.273 11.461 9.008.395 17.547 4.096 24.016 10.375 2.762-1.207 5.723-1.836 8.711-1.836 12.129 0 22 9.869 22 22 0 12.482-10.613 22.621-23.055 21.975-6.036 12.75-19.028 21.115-33.274 21.115zm-17.672-77.09c-7.719 0-14 6.281-14 14 0 3.844 1.559 7.439 4.391 10.125 1.227 1.164 1.59 2.973.906 4.518-1.629 3.691-2.457 7.598-2.457 11.615 0 15.898 12.934 28.832 28.832 28.832 11.984 0 22.84-7.57 27.012-18.838.688-1.852 2.648-2.9 4.539-2.533 8.719 1.773 16.777-5.082 16.777-13.719 0-7.719-6.281-14-14-14-2.578 0-5.141.752-7.406 2.174-1.668 1.047-3.855.725-5.148-.77-5.496-6.342-13.434-9.979-21.773-9.979l-.836.045c-.035.002-.07.002-.102.002-1.645 0-3.125-1.008-3.727-2.545-2.117-5.423-7.223-8.927-13.008-8.927z" fill="#4c241d"/></g><g><path d="m171.757 105.116c.121-.793.243-1.588.243-2.415 0-8.837-7.163-16-16-16-2.116 0-4.127.433-5.976 1.179-.665-.93-1.402-1.805-2.172-2.648-.765-10.347-9.309-18.531-19.852-18.531-8.054 0-14.952 4.788-18.121 11.649-1.662.524-3.279 1.13-4.854 1.815-2.561-3.302-6.523-5.465-11.025-5.465-7.732 0-14 6.268-14 14 0 3.535 1.354 6.726 3.515 9.19-7.608 10.807-11.454 24.5-9.968 38.567 5.34 50.554 32.46 66.052 32.46 66.052 65.663 10.944 93.023-65.663 93.023-65.663-3.036-21.25-16.174-29.018-27.273-31.73z" fill="#efefd2"/><path d="m118.566 207.574c-4.23 0-8.637-.355-13.215-1.119-.469-.078-.918-.238-1.328-.473-1.18-.674-28.961-17.109-34.453-69.104-1.445-13.687 1.766-27.385 9.07-38.889-1.718-2.805-2.64-6.014-2.64-9.288 0-9.926 8.074-18 18-18 4.527 0 8.793 1.693 12.086 4.727.324-.121.648-.238.973-.354 4.207-7.57 12.242-12.373 20.941-12.373 11.859 0 21.926 8.867 23.648 20.49 1.434-.326 2.887-.49 4.352-.49 10.848 0 19.703 8.68 19.992 19.457 11.258 3.635 23.918 12.572 27 34.121.09.643.023 1.299-.195 1.912-.266.745-25.504 69.383-84.231 69.383zm-11.101-8.881c25.34 3.957 47.707-5.23 66.48-27.324 12.641-14.879 19.422-31.012 20.973-34.961-2.418-14.867-10.523-24.086-24.109-27.408-2.016-.492-3.316-2.439-3.004-4.488.09-.596.195-1.189.195-1.811 0-6.617-5.383-12-12-12-1.508 0-3.016.299-4.48.891-1.715.691-3.68.117-4.754-1.389-.57-.801-1.207-1.551-1.871-2.275-.602-.662-.965-1.508-1.031-2.4-.617-8.314-7.582-14.826-15.863-14.826-6.188 0-11.875 3.66-14.488 9.326-.473 1.021-1.352 1.797-2.426 2.137-1.516.479-3.02 1.041-4.469 1.67-1.684.727-3.637.227-4.758-1.219-1.926-2.486-4.789-3.914-7.859-3.914-5.516 0-10 4.486-10 10 0 3.037 1.371 5.24 2.523 6.553 1.219 1.389 1.324 3.43.262 4.939-7.312 10.389-10.602 23.119-9.262 35.846 4.617 43.7 26.218 60.13 29.941 62.653z" fill="#4c241d"/></g><g><path d="m193.558 125.903s-6.443.006-14.043 3.025c-3.3-3.785-8.099-6.226-13.515-6.226-9.941 0-18 8.059-18 18 0 6.533 3.515 12.199 8.723 15.353-.927 3.995-1.469 8.499-1.469 13.624 0 0-27.017-10.775-38.09 15.967 1.183-2.527 7.194-16.236 6.564-31.962 7.115-2.403 12.271-9.056 12.271-16.982 0-9.941-8.059-18-18-18-2.234 0-4.349.458-6.323 1.202.188-1.043.323-2.105.323-3.202 0-9.941-8.059-18-18-18-3.682 0-7.1 1.116-9.952 3.013-7.316-8.093-21.878-17.722-43.704-3.171 0 0 19.428 10.926 12.45 24.615-7.18 14.085-12.45 29.573-12.45 46.52 0 53.34 44.894 96.194 98.958 92.838 46.906-2.912 84.832-41.509 86.987-88.456.252-5.499.027-10.898-.638-16.161-1.05-8.309-.051-16.84 3.619-24.369 2.727-5.593 6.969-10.911 13.535-13.1.002 0-27.358-27.36-49.246 5.472z" fill="#a9ba5a"/><path d="m133.289 266.705c-24.805 0-48.164-9.219-66.355-26.314-19.441-18.271-30.59-44.045-30.59-70.713 0-15.514 4.215-31.324 12.887-48.336 5.176-10.152-10.688-19.223-10.848-19.312-1.211-.682-1.984-1.945-2.035-3.334-.055-1.391.621-2.709 1.777-3.48 22.504-14.998 38.242-6.525 46.652 1.518 2.879-1.336 6.016-2.031 9.223-2.031 11.492 0 20.957 8.859 21.918 20.107 12.887-1.346 24.082 9.068 24.082 21.893 0 8.395-4.809 15.951-12.227 19.627-.02 4.035-.426 7.904-1.031 11.463 8.191-4.961 17.609-5.004 24.707-3.434.168-2.244.445-4.426.824-6.533-5.227-4.156-8.273-10.373-8.273-17.123 0-12.131 9.871-22 22-22 5.363 0 10.531 2.012 14.551 5.594 4.543-1.512 8.504-2.068 10.824-2.273 6.988-9.789 15.246-15.217 24.57-16.139 16.168-1.592 29.145 11.176 29.688 11.721.98.98 1.383 2.398 1.066 3.748-.32 1.35-1.316 2.438-2.629 2.875-4.605 1.535-8.375 5.254-11.207 11.057-3.137 6.439-4.258 14.086-3.242 22.115.699 5.551.922 11.219.664 16.846-2.238 48.719-42.094 89.246-90.738 92.266-2.09.128-4.18.192-6.258.192zm-85.535-167.891c7.062 5.793 14.047 15.484 8.602 26.16-8.082 15.859-12.012 30.482-12.012 44.703 0 24.828 9.969 47.871 28.07 64.883 18.086 16.998 41.703 25.496 66.641 23.965 44.621-2.771 81.188-39.953 83.238-84.648.238-5.172.035-10.379-.609-15.477-1.211-9.574.168-18.779 3.988-26.621 2.586-5.299 5.871-9.348 9.82-12.104-4.312-2.973-11.262-6.586-18.805-5.828-7.32.742-13.98 5.543-19.801 14.273-.738 1.109-1.98 1.777-3.316 1.781-.129.002-5.898.088-12.578 2.742-1.574.633-3.371.191-4.492-1.088-2.691-3.086-6.516-4.855-10.5-4.855-7.719 0-14 6.281-14 14 0 4.895 2.539 9.355 6.797 11.932 1.477.896 2.211 2.641 1.824 4.324-.906 3.91-1.367 8.189-1.367 12.721 0 1.326-.656 2.566-1.754 3.311-1.105.74-2.496.9-3.727.404-.926-.359-22.41-8.494-32.191 12.152-.34.809-.617 1.416-.797 1.797-.918 1.967-3.25 2.836-5.234 1.963-1.988-.877-2.914-3.182-2.082-5.191.273-.656.555-1.293.844-1.912 1.906-4.551 5.926-15.754 5.422-28.357-.07-1.773 1.035-3.383 2.715-3.949 5.715-1.93 9.551-7.23 9.551-13.193 0-9.336-9.152-16.725-18.914-13.053-1.348.504-2.867.248-3.977-.674-1.105-.926-1.629-2.375-1.367-3.793.176-.961.258-1.748.258-2.48 0-7.719-6.281-14-14-14-2.758 0-5.434.811-7.738 2.344-1.641 1.09-3.852.826-5.184-.646-6.563-7.265-17.485-13.648-33.325-5.586zm145.805 27.088h.039z" fill="#4c241d"/></g><path d="m132.949 206.096c-.496 0-1-.094-1.484-.289-2.051-.82-3.051-3.148-2.23-5.199 8.43-21.061 26.465-22.859 38.207-20.26 2.605-36.1 31.629-41.502 39.922-42.305 7.156-10.037 15.641-15.492 25.238-16.219 2.215-.139 4.121 1.484 4.289 3.686.168 2.203-1.484 4.125-3.688 4.291-7.527.57-14.363 5.389-20.316 14.32-.742 1.113-1.992 1.781-3.328 1.781-1.391.008-34.305.652-34.305 39.775 0 1.328-.66 2.568-1.758 3.312-1.102.748-2.504.895-3.727.402-.965-.379-23.816-9.047-33.105 14.188-.625 1.564-2.129 2.517-3.715 2.517z" fill="#4c241d"/><path d="m139.832 246.453c-2.098 0-3.855-1.631-3.988-3.752-.137-2.205 1.539-4.104 3.746-4.24 24.547-1.523 46.98-17.201 57.152-39.941.898-2.014 3.254-2.93 5.285-2.018 2.016.9 2.922 3.268 2.02 5.283-11.551 25.816-36.059 42.928-63.965 44.66-.082.006-.168.008-.25.008z" fill="#4c241d"/><path d="m104 164.701c-2.211 0-4-1.791-4-4 0-10.529-4.207-20.32-11.848-27.568-1.602-1.521-1.668-4.053-.148-5.656 1.527-1.602 4.055-1.67 5.656-.148 9.246 8.775 14.34 20.627 14.34 33.373 0 2.208-1.789 3.999-4 3.999z" fill="#4c241d"/><path d="m99.953 100.736c-1.215 0-2.41-.549-3.199-1.592-1.328-1.764-.977-4.271.785-5.602 5.934-4.477 13.012-6.842 20.461-6.842 2.211 0 4 1.791 4 4s-1.789 4-4 4c-5.699 0-11.105 1.809-15.641 5.229-.722.546-1.57.807-2.406.807z" fill="#4c241d"/><circle cx="202.247" cy="37.571" fill="#4c241d" r="4.276"/></g></svg>