<svg id="cucumber" enable-background="new 0 0 300 300" height="512" viewBox="0 0 300 300" width="512" xmlns="http://www.w3.org/2000/svg"><g><circle cx="141.481" cy="146.01" fill="#edebdc" r="92"/><g fill="#4c241d"><path d="m233.481 46.01c-2.211 0-4-1.791-4-4v-8c0-2.209 1.789-4 4-4s4 1.791 4 4v8c0 2.209-1.789 4-4 4z"/><path d="m233.481 70.01c-2.211 0-4-1.791-4-4v-8c0-2.209 1.789-4 4-4s4 1.791 4 4v8c0 2.209-1.789 4-4 4z"/><path d="m225.481 54.01h-8c-2.211 0-4-1.791-4-4s1.789-4 4-4h8c2.211 0 4 1.791 4 4s-1.789 4-4 4z"/><path d="m249.481 54.01h-8c-2.211 0-4-1.791-4-4s1.789-4 4-4h8c2.211 0 4 1.791 4 4s-1.789 4-4 4z"/><path d="m63.481 134.01c-7.719 0-14-6.281-14-14s6.281-14 14-14 14 6.281 14 14-6.281 14-14 14zm0-20c-3.309 0-6 2.691-6 6s2.691 6 6 6 6-2.691 6-6-2.691-6-6-6z"/><circle cx="50.795" cy="58.776" r="4.276"/><path d="m157.02 74.586c-.418 0-.844-.066-1.266-.207-2.086-.695-3.219-2.943-2.539-5.031.176-.559 3.641-12.318-8.547-24.51-1.562-1.562-1.562-4.096 0-5.656 1.562-1.562 4.094-1.562 5.656 0 15.852 15.854 10.715 31.988 10.488 32.668-.557 1.675-2.116 2.736-3.792 2.736z"/><circle cx="246.795" cy="122.776" r="4.276"/></g><g><path d="m121.663 109.477c0-21.481 16.861-39.467 36.693-39.467s35.126 17.987 35.126 39.467l-6.14 101.078c-.448 9.765-8.225 55.435-29.769 55.435s-30.529-40.416-31.242-55.967z" fill="#77a052"/><path d="m157.571 269.99c-24.309 0-34.379-41.055-35.238-59.783l-4.664-100.545c-.004-.062-.004-.123-.004-.186 0-23.561 18.633-43.467 40.691-43.467 21.574 0 39.125 19.5 39.125 43.467l-6.148 101.32c-.441 9.688-8.098 59.194-33.762 59.194zm-31.906-160.603 4.66 100.451c.707 15.35 9.547 52.152 27.246 52.152 17.309 0 25.293-41.111 25.773-51.617l6.145-101.139c-.008-19.314-13.969-35.224-31.133-35.224-17.691 0-32.644 16.191-32.691 35.377z" fill="#4c241d"/></g><path d="m177.481 108.01c-2.211 0-4-1.791-4-4 0-1.104-.898-2-2-2-2.211 0-4-1.791-4-4s1.789-4 4-4c5.516 0 10 4.486 10 10 0 2.209-1.789 4-4 4z" fill="#4c241d"/><path d="m173.481 152.01c-2.211 0-4-1.791-4-4 0-1.104-.898-2-2-2-2.211 0-4-1.791-4-4s1.789-4 4-4c5.516 0 10 4.486 10 10 0 2.209-1.789 4-4 4z" fill="#4c241d"/><path d="m173.481 188.01c-2.211 0-4-1.791-4-4 0-1.104-.898-2-2-2-2.211 0-4-1.791-4-4s1.789-4 4-4c5.516 0 10 4.486 10 10 0 2.209-1.789 4-4 4z" fill="#4c241d"/><path d="m166.466 230.48c-1.516.002-2.961-.861-3.637-2.326-.461-1.006-1.66-1.439-2.656-.982-2.004.926-4.379.047-5.305-1.959-.926-2.008-.047-4.383 1.961-5.307 5.008-2.32 10.965-.105 13.266 4.9.926 2.006.047 4.383-1.957 5.307-.543.25-1.114.367-1.672.367z" fill="#4c241d"/><path d="m143.185 131.676c-.141 0-.285-.008-.43-.023-2.195-.234-3.785-2.205-3.551-4.4.586-5.482 5.543-9.471 11-8.887 2.195.234 3.789 2.203 3.555 4.4-.23 2.195-2.188 3.764-4.398 3.557-1.086-.141-2.086.68-2.203 1.777-.22 2.052-1.954 3.576-3.973 3.576z" fill="#4c241d"/><path d="m139.185 171.676c-.141 0-.285-.008-.43-.023-2.195-.234-3.785-2.205-3.551-4.4.582-5.482 5.527-9.461 11-8.887 2.195.234 3.789 2.203 3.555 4.4-.23 2.195-2.18 3.758-4.398 3.557-1.082-.135-2.086.68-2.203 1.777-.22 2.052-1.954 3.576-3.973 3.576z" fill="#4c241d"/><path d="m147.185 207.676c-.141 0-.285-.008-.43-.023-2.195-.234-3.785-2.205-3.551-4.4.586-5.482 5.527-9.469 11-8.887 2.195.234 3.789 2.203 3.555 4.4-.23 2.193-2.199 3.76-4.398 3.557-1.086-.127-2.086.682-2.203 1.777-.22 2.052-1.954 3.576-3.973 3.576z" fill="#4c241d"/><path d="m139.185 103.676c-.141 0-.285-.008-.43-.023-2.195-.234-3.785-2.205-3.551-4.4.582-5.482 5.527-9.463 11-8.887 2.195.234 3.789 2.203 3.555 4.4-.23 2.195-2.18 3.742-4.398 3.557-1.082-.123-2.086.68-2.203 1.777-.22 2.052-1.954 3.576-3.973 3.576z" fill="#4c241d"/><g><circle cx="99.481" cy="220.01" fill="#77a052" r="38"/><path d="m99.481 262.01c-23.16 0-42-18.842-42-42s18.84-42 42-42 42 18.842 42 42-18.839 42-42 42zm0-76c-18.746 0-34 15.252-34 34s15.254 34 34 34 34-15.252 34-34-15.253-34-34-34z" fill="#4c241d"/></g><g><circle cx="99.481" cy="220.01" fill="#efefd2" r="24.255"/><path d="m99.481 248.264c-15.578 0-28.254-12.674-28.254-28.254s12.676-28.254 28.254-28.254 28.254 12.674 28.254 28.254-12.675 28.254-28.254 28.254zm0-48.508c-11.168 0-20.254 9.086-20.254 20.254s9.086 20.254 20.254 20.254 20.254-9.086 20.254-20.254-9.086-20.254-20.254-20.254z" fill="#4c241d"/></g></g></svg>