<svg id="pepper" enable-background="new 0 0 300 300" height="512" viewBox="0 0 300 300" width="512" xmlns="http://www.w3.org/2000/svg"><g><circle cx="158" cy="145.645" fill="#edebdc" r="92"/><path d="m242 61.645c-2.211 0-4-1.791-4-4v-8c0-2.209 1.789-4 4-4s4 1.791 4 4v8c0 2.209-1.789 4-4 4z" fill="#4c241d"/><path d="m242 85.645c-2.211 0-4-1.791-4-4v-8c0-2.209 1.789-4 4-4s4 1.791 4 4v8c0 2.209-1.789 4-4 4z" fill="#4c241d"/><path d="m234 69.645h-8c-2.211 0-4-1.791-4-4s1.789-4 4-4h8c2.211 0 4 1.791 4 4s-1.789 4-4 4z" fill="#4c241d"/><path d="m258 69.645h-8c-2.211 0-4-1.791-4-4s1.789-4 4-4h8c2.211 0 4 1.791 4 4s-1.789 4-4 4z" fill="#4c241d"/><path d="m85.758 53.02c-7.719 0-14-6.281-14-14s6.281-14 14-14 14 6.281 14 14-6.281 14-14 14zm0-20c-3.309 0-6 2.691-6 6s2.691 6 6 6 6-2.691 6-6-2.692-6-6-6z" fill="#4c241d"/><circle cx="39.15" cy="92.585" fill="#4c241d" r="4.276"/><circle cx="167.15" cy="48.585" fill="#4c241d" r="4.276"/><g><path d="m205.319 122.045c1.132-7.144 4.359-11.877 7.356-14.77 2.702-2.608 2.886-6.859.23-9.515l-.33-.33c-1.85-1.85-4.684-2.572-7.057-1.47-9.736 4.523-12.314 16.642-12.778 26.019-9.619 2.693-16.682 11.502-16.682 21.98 0 12.617 10.228 22.845 22.845 22.845s22.845-10.228 22.845-22.845c.001-10.387-6.938-19.14-16.429-21.914z" fill="#a9ba5a"/><path d="m198.902 170.805c-14.801 0-26.844-12.043-26.844-26.844 0-11.012 6.812-20.877 16.875-24.908 1.211-13.531 6.336-22.742 14.902-26.721 3.785-1.768 8.445-.857 11.566 2.271l.324.32c2.012 2.012 3.102 4.676 3.078 7.508-.027 2.877-1.25 5.691-3.352 7.721-1.863 1.797-4.164 4.789-5.484 9.363 9.449 4.295 15.781 13.871 15.781 24.445.002 14.802-12.041 26.845-26.846 26.845zm9.004-71.364c-.25 0-.488.047-.699.146-7.918 3.676-10.062 14.312-10.469 22.59-.086 1.719-1.262 3.191-2.918 3.654-8.102 2.268-13.762 9.723-13.762 18.129 0 10.391 8.453 18.844 18.844 18.844 10.395 0 18.848-8.453 18.848-18.844 0-8.311-5.574-15.744-13.551-18.076-1.934-.564-3.145-2.479-2.828-4.467 1.359-8.582 5.387-13.994 8.527-17.023.578-.557.898-1.279.906-2.035.004-.473-.121-1.164-.727-1.771l-.324-.322c-.526-.53-1.222-.825-1.847-.825z" fill="#4c241d"/></g><g><path d="m229.212 131.746c-6.142.857-11.79 3.718-16.24 7.901-4.262-3.83-9.021-6.039-14.068-6.039s-9.806 2.209-14.067 6.039c-4.45-4.183-10.099-7.044-16.24-7.901-18.7-2.61-34.713 11.844-34.713 30.038 0 5.817 19.546 93.216 19.623 93.88 1.333 11.473 15.174 16.78 24.573 10.066l4.391-3.136c4.826 5.296 10.43 8.387 16.434 8.387 6.003 0 11.607-3.091 16.434-8.387l4.391 3.136c9.399 6.714 23.24 1.407 24.573-10.066.077-.664 19.623-88.063 19.623-93.88-.001-18.194-16.014-32.648-34.714-30.038z" fill="#ffce56"/><path d="m198.902 274.98c-5.918 0-11.691-2.465-16.863-7.164l-1.637 1.168c-5.715 4.088-13.301 4.84-19.801 1.961-6.172-2.736-10.309-8.275-11.07-14.818-.051-.201-.754-3.398-1.848-8.357-12.645-57.426-17.801-82.338-17.801-85.986 0-9.939 4.305-19.387 11.809-25.916 7.5-6.525 17.52-9.484 27.457-8.082 5.715.797 11.098 3.084 15.75 6.666 8.867-6.434 19.16-6.43 28.012 0 4.652-3.582 10.035-5.869 15.746-6.666h.004c9.918-1.4 19.957 1.557 27.457 8.082 7.504 6.529 11.809 15.977 11.809 25.916 0 3.617-5.348 29.438-17.879 86.336-1.051 4.77-1.727 7.83-1.812 8.264-.719 6.285-4.855 11.824-11.027 14.561-6.496 2.881-14.082 2.125-19.801-1.957l-1.641-1.17c-5.164 4.698-10.942 7.162-16.864 7.162zm-16.433-16.386c1.09 0 2.172.445 2.957 1.305 4.285 4.699 8.816 7.082 13.477 7.082 5.809 0 10.535-3.85 13.477-7.08 1.371-1.498 3.629-1.736 5.281-.562l4.395 3.137c3.426 2.453 7.996 2.895 11.91 1.156 3.605-1.602 5.926-4.672 6.363-8.428.039-.328.039-.328 1.906-8.805 11.633-52.826 17.586-81.303 17.691-84.639 0-7.602-3.301-14.848-9.059-19.857-5.836-5.08-13.32-7.273-21.105-6.195-5.195.727-10.055 3.096-14.051 6.854-1.508 1.428-3.871 1.449-5.41.061-7.406-6.652-15.387-6.652-22.793 0-1.535 1.389-3.898 1.367-5.41-.061-3.996-3.758-8.855-6.127-14.055-6.854-7.754-1.074-15.266 1.117-21.102 6.195-5.758 5.01-9.059 12.256-9.059 19.881.105 3.295 6.031 31.654 17.613 84.266 1.945 8.834 1.945 8.834 1.984 9.172.434 3.738 2.754 6.811 6.363 8.41 3.914 1.736 8.477 1.297 11.91-1.156l4.391-3.135c.701-.503 1.517-.747 2.326-.747z" fill="#4c241d"/></g><g><path d="m231.414 194.294c0 33.516-14.555 76.686-32.51 76.686s-32.51-43.17-32.51-76.686 14.555-60.686 32.51-60.686 32.51 27.17 32.51 60.686z" fill="#ffce56"/><path d="m198.902 274.98c-22.285 0-36.508-47.787-36.508-80.686 0-36.273 16.035-64.688 36.508-64.688s36.512 28.414 36.512 64.688c0 32.899-14.223 80.686-36.512 80.686zm0-137.373c-15.453 0-28.508 25.959-28.508 56.688 0 34.645 14.922 72.686 28.508 72.686 13.59 0 28.512-38.041 28.512-72.686 0-30.729-13.059-56.688-28.512-56.688z" fill="#4c241d"/></g><g><path d="m131.404 131.746c-6.142.857-11.79 3.718-16.24 7.901-4.262-3.83-9.021-6.039-14.068-6.039s-9.806 2.209-14.067 6.039c-4.45-4.183-10.099-7.044-16.24-7.901-18.7-2.61-34.713 11.844-34.713 30.038 0 5.817 19.546 93.216 19.623 93.88 1.333 11.473 15.174 16.78 24.573 10.066l4.391-3.136c4.826 5.296 10.43 8.387 16.434 8.387 6.003 0 11.607-3.091 16.434-8.387l4.391 3.136c9.399 6.714 23.24 1.407 24.573-10.066.077-.664 19.623-88.063 19.623-93.88-.001-18.194-16.013-32.648-34.714-30.038z" fill="#d9be6f"/><path d="m101.098 274.98c-5.922 0-11.699-2.465-16.863-7.164l-1.641 1.17c-5.719 4.082-13.301 4.844-19.801 1.957-6.172-2.736-10.309-8.275-11.066-14.818-.047-.176-.723-3.236-1.773-8.006-12.531-56.898-17.879-82.719-17.879-86.336 0-9.939 4.305-19.385 11.809-25.916 7.5-6.523 17.496-9.473 27.461-8.082 5.711.797 11.094 3.084 15.746 6.666 8.859-6.43 19.152-6.434 28.012 0 4.652-3.582 10.035-5.869 15.746-6.666h.004c9.918-1.4 19.953 1.557 27.457 8.082 7.504 6.529 11.809 15.977 11.809 25.916 0 3.648-5.156 28.561-17.801 85.986-1.094 4.959-1.797 8.156-1.887 8.607-.723 6.293-4.859 11.832-11.031 14.568-6.496 2.879-14.086 2.127-19.801-1.959l-1.637-1.17c-5.173 4.701-10.946 7.165-16.864 7.165zm-16.434-16.386c1.09 0 2.172.445 2.957 1.307 2.941 3.23 7.668 7.08 13.477 7.08 5.801 0 10.531-3.852 13.477-7.082 1.367-1.496 3.641-1.738 5.281-.559l4.391 3.137c3.434 2.451 7.996 2.893 11.91 1.154 3.609-1.6 5.93-4.672 6.367-8.43.035-.318.035-.318 1.98-9.152 11.582-52.611 17.508-80.971 17.613-84.289 0-7.602-3.301-14.848-9.059-19.857-5.836-5.08-13.328-7.273-21.105-6.195-5.195.727-10.055 3.096-14.051 6.854-1.508 1.428-3.867 1.449-5.41.061-7.406-6.652-15.387-6.652-22.793 0-1.535 1.389-3.898 1.367-5.41-.061-3.996-3.758-8.855-6.127-14.055-6.854-7.75-1.074-15.262 1.117-21.102 6.195-5.758 5.012-9.059 12.258-9.059 19.881.105 3.312 6.059 31.789 17.691 84.615 1.867 8.477 1.867 8.477 1.906 8.799.438 3.762 2.758 6.832 6.363 8.434 3.918 1.736 8.477 1.297 11.91-1.156l4.395-3.137c.705-.501 1.517-.745 2.326-.745z" fill="#4c241d"/></g><g><ellipse cx="102" cy="193.645" fill="#ffce56" rx="12" ry="44"/><path d="m102 241.645c-12.629 0-16-30.172-16-48s3.371-48 16-48 16 30.172 16 48-3.371 48-16 48zm-.168-88.024c-2.516 1.117-7.832 15.848-7.832 40.024s5.316 38.906 8.168 40.023c2.516-1.117 7.832-15.848 7.832-40.023s-5.316-38.907-8.168-40.024z" fill="#4c241d"/></g><g><path d="m131.404 131.746c-2.78.388-5.437 1.236-7.949 2.382-2.818-5.863-8.014-10.364-14.389-12.148-.464-9.377-3.042-21.497-12.778-26.02-2.373-1.102-5.207-.38-7.057 1.47l-.33.33c-2.655 2.656-2.472 6.907.23 9.515 2.997 2.893 6.224 7.626 7.355 14.771-6.818 1.993-12.27 7.098-14.827 13.652-3.32-1.983-6.976-3.407-10.873-3.951-.265-.037-.524-.036-.789-.066v5.965c0 17.673 14.327 32 32 32s32-14.327 32-32v-6.118c-.858.048-1.719.096-2.593.218z" fill="#edebdc"/><path d="m102 173.645c-19.852 0-36-16.15-36-36v-5.965c0-1.137.484-2.221 1.332-2.979.848-.762 1.973-1.125 3.105-.998.406.027.652.047.906.082 2.879.4 5.738 1.232 8.535 2.482 2.809-4.707 7.004-8.482 11.961-10.748-1.32-4.572-3.621-7.568-5.484-9.369-2.105-2.027-3.324-4.842-3.352-7.723-.023-2.832 1.066-5.494 3.07-7.498l.34-.336c3.113-3.119 7.754-4.029 11.562-2.26 8.559 3.977 13.68 13.186 14.895 26.721 5.02 2.018 9.324 5.537 12.336 10.08 1.895-.639 3.781-1.09 5.645-1.35.957-.135 1.906-.193 2.852-.248 1.129-.049 2.207.332 3.008 1.084.801.756 1.289 1.807 1.289 2.906v6.117c0 19.851-16.148 36.002-36 36.002zm-28-37.075v1.074c0 15.439 12.562 28 28 28s28-12.561 28-28v-1.57c-1.602.377-3.238.943-4.883 1.693-1.992.898-4.324.053-5.266-1.906-2.371-4.928-6.695-8.584-11.863-10.029-1.656-.463-2.832-1.936-2.918-3.654-.41-8.277-2.559-18.916-10.465-22.59-.754-.344-1.812-.062-2.543.668l-.34.34c-.598.6-.723 1.289-.719 1.762.008.758.328 1.48.906 2.037 3.141 3.035 7.168 8.451 8.527 17.023.316 1.988-.895 3.902-2.828 4.467-5.531 1.615-10.102 5.828-12.223 11.268-.43 1.096-1.316 1.947-2.43 2.328-1.109.381-2.336.256-3.348-.35-1.845-1.102-3.72-1.957-5.607-2.561z" fill="#4c241d"/></g><g fill="#edebdc"><circle cx="132" cy="171.645" r="4.221"/><circle cx="68" cy="171.645" r="4.221"/><circle cx="56" cy="155.645" r="4.221"/><circle cx="148" cy="155.645" r="4.221"/><circle cx="148" cy="175.645" r="4.221"/><circle cx="76" cy="191.645" r="4.221"/><circle cx="128" cy="191.645" r="4.221"/><circle cx="52" cy="171.645" r="4.221"/></g></g></svg>