<svg id="eggplant" enable-background="new 0 0 300 300" height="512" viewBox="0 0 300 300" width="512" xmlns="http://www.w3.org/2000/svg"><g><circle cx="156" cy="132.606" fill="#edebdc" r="92"/><g fill="#4c241d"><path d="m240 188.606c-2.209 0-4-1.791-4-4v-8c0-2.209 1.791-4 4-4s4 1.791 4 4v8c0 2.209-1.791 4-4 4z"/><path d="m240 212.606c-2.209 0-4-1.791-4-4v-8c0-2.209 1.791-4 4-4s4 1.791 4 4v8c0 2.209-1.791 4-4 4z"/><path d="m232 196.606h-8c-2.209 0-4-1.791-4-4s1.791-4 4-4h8c2.209 0 4 1.791 4 4s-1.791 4-4 4z"/><path d="m256 196.606h-8c-2.209 0-4-1.791-4-4s1.791-4 4-4h8c2.209 0 4 1.791 4 4s-1.791 4-4 4z"/><path d="m68.717 62.696c-7.719 0-14-6.281-14-14s6.281-14 14-14 14 6.281 14 14-6.281 14-14 14zm0-20c-3.309 0-6 2.691-6 6s2.691 6 6 6 6-2.691 6-6-2.692-6-6-6z"/><circle cx="51.045" cy="85.088" r="4.276"/><circle cx="255.045" cy="137.088" r="4.276"/></g><g><path d="m198.039 211.669c0 27.027-21.91 48.938-48.938 48.938s-48.938-21.91-48.938-48.938c0 0-9.258-131.927 46.823-158.825 5.402-2.591 11.722-2.501 17.081.178 7.704 3.852 11.909 12.298 10.409 20.78-3.091 17.477-6.322 46.936 2.956 63.172 20.607 36.06 20.607 74.695 20.607 74.695z" fill="#842582"/><path d="m149.102 264.606c-29.189 0-52.938-23.748-52.938-52.938-.375-5.217-8.773-134.678 49.092-162.432 6.451-3.092 14.15-3.018 20.602.207 9.338 4.668 14.385 14.736 12.559 25.055-2.832 16.01-6.271 45.158 2.49 60.492 20.893 36.561 21.133 75.057 21.133 76.678-.001 29.19-23.749 52.938-52.938 52.938zm6.218-209.643c-2.271 0-4.537.496-6.604 1.488-52.986 25.412-44.652 153.645-44.562 154.938.01 25.059 20.168 45.217 44.947 45.217s44.938-20.158 44.938-44.938c0-.402-.283-38.068-20.078-72.709-9.51-16.643-7.111-44.998-3.424-65.855 1.205-6.801-2.113-13.434-8.258-16.504-2.179-1.09-4.572-1.637-6.959-1.637z" fill="#4c241d"/></g><g><path d="m110.466 90.612s20.605-15.454 36.059-25.757c0 0-5.151 20.605 0 30.908 0 0 20.605-5.151 25.757-20.605 0 0 5.151 13.291 0 24.675 0 0 15.454-9.221 10.303-50.432l2.158-4.315c1.653-3.307.313-7.328-2.994-8.981-2.577-1.289-5.69-.783-7.727 1.254l-1.771 1.771c-2.93 2.93-7.044 4.307-11.151 3.754-12.023-1.621-38.835.534-50.634 47.728z" fill="#a9ba5a"/><path d="m172.283 103.835c-.959 0-1.912-.346-2.664-1.016-1.305-1.164-1.701-3.041-.98-4.633 1.824-4.033 2.133-8.406 1.861-12.154-8.625 9.904-22.275 13.43-23.004 13.613-1.832.457-3.711-.416-4.549-2.092-3.373-6.75-3.027-16.641-2.08-23.994-13.545 9.422-27.83 20.125-28 20.252-1.355 1.02-3.203 1.072-4.613.133-1.41-.936-2.078-2.66-1.668-4.303 12.691-50.77 42.729-52.389 55.051-50.723 2.889.395 5.73-.564 7.787-2.617l1.77-1.77c3.26-3.264 8.219-4.068 12.344-2.004 2.555 1.275 4.461 3.473 5.363 6.184.904 2.709.697 5.609-.58 8.164l-1.621 3.238c4.879 41.57-10.572 52.084-12.365 53.156-.638.38-1.347.566-2.052.566zm-25.76-42.979c.807 0 1.613.244 2.305.73 1.35.951 1.977 2.635 1.578 4.238-1.156 4.648-3.312 16.979-1.426 24.936 5.574-2.084 16.297-7.234 19.508-16.867.533-1.6 2.014-2.693 3.699-2.732 1.631-.129 3.217.979 3.826 2.553.104.27 1.234 3.252 1.957 7.602 1.646-7.088 2.422-17.207.645-31.418-.098-.783.037-1.578.391-2.285l2.158-4.314c.322-.645.375-1.375.146-2.057-.227-.682-.707-1.234-1.35-1.557-1.041-.516-2.291-.316-3.111.504l-1.77 1.77c-3.834 3.836-9.125 5.609-14.514 4.891-11.443-1.545-31.189 1.201-42.803 33.4 7.424-5.426 17.834-12.914 26.543-18.721.674-.448 1.447-.673 2.218-.673z" fill="#4c241d"/></g><path d="m163.326 245.897c-1.555 0-3.033-.912-3.682-2.434-.867-2.031.078-4.381 2.111-5.248 11.083-4.724 18.245-15.56 18.245-27.609 0-2.209 1.791-4 4-4s4 1.791 4 4c0 15.26-9.07 28.984-23.107 34.969-.512.219-1.043.322-1.567.322z" fill="#4c241d"/><g><circle cx="86" cy="222.606" fill="#842582" r="42"/><path d="m86 268.606c-25.365 0-46-20.635-46-46s20.635-46 46-46 46 20.635 46 46-20.635 46-46 46zm0-84c-20.953 0-38 17.047-38 38s17.047 38 38 38 38-17.047 38-38-17.047-38-38-38z" fill="#4c241d"/></g><g><circle cx="86" cy="222.606" fill="#efefd2" r="29.911"/><path d="m86 256.516c-18.697 0-33.91-15.213-33.91-33.91s15.213-33.91 33.91-33.91 33.91 15.213 33.91 33.91-15.213 33.91-33.91 33.91zm0-59.82c-14.287 0-25.91 11.623-25.91 25.91s11.623 25.91 25.91 25.91 25.91-11.623 25.91-25.91-11.623-25.91-25.91-25.91z" fill="#4c241d"/></g></g></svg>