<svg height="512pt" viewBox="-9 0 512 512" width="512pt" xmlns="http://www.w3.org/2000/svg"><path d="m331.628906 420.03125c0 46.652344-37.816406 84.46875-84.46875 84.46875-46.648437 0-84.464844-37.816406-84.464844-84.46875 0-46.648438 37.816407-159.058594 84.464844-159.058594 46.652344 0 84.46875 112.410156 84.46875 159.058594zm0 0" fill="#efd4bf"/><path d="m247.160156 260.972656c-40.414062 0-74.199218 84.359375-82.507812 137.246094 80.414062 9.683594 131.078125-12.347656 158.199218-30.8125-13.820312-49.613281-42.523437-106.433594-75.691406-106.433594zm0 0" fill="#e0c1ad"/><path d="m417.539062 240.949219c0-54.765625-76.28125-99.164063-170.378906-99.164063s-170.378906 44.398438-170.378906 99.164063 76.28125 99.160156 170.378906 99.160156 170.378906-44.394531 170.378906-99.160156zm0 0" fill="#fce6d4"/><path d="m247.160156 141.785156c-94.097656 0-170.378906 44.398438-170.378906 99.164063 0 53.03125 71.53125 96.339843 161.503906 99.027343-14.84375-27.496093 5.097656-62.222656 37.570313-62.296874 62.875-.148438 99.171875 8.117187 117.453125 14.265624 15.386718-14.898437 24.230468-32.347656 24.230468-50.996093 0-54.765625-76.28125-99.164063-170.378906-99.164063zm0 0" fill="#efd4bf"/><path d="m14.324219 162.304688c-23.289063 47.902343 16.792969 102.34375 69.503906 94.671874 50.695313-7.378906 111.546875-14.195312 163.332031-14.195312 51.789063 0 112.640625 6.816406 163.335938 14.195312 52.707031 7.671876 92.792968-46.769531 69.5-94.671874-35.550782-73.121094-104.082032-154.804688-232.835938-154.804688s-197.28125 81.683594-232.835937 154.804688zm0 0" fill="#dd9f80"/><path d="m247.160156 7.5c-128.753906 0-197.28125 81.683594-232.835937 154.804688-23.289063 47.902343 16.792969 102.34375 69.503906 94.671874 50.695313-7.378906 111.546875-14.195312 163.332031-14.195312 24.132813 0 50.238282 1.480469 76.363282 3.808594-79.96875-59.785156-183.5-39.1875-179.640626-124.101563 4.230469-93.160156 103.277344-114.988281 103.277344-114.988281zm0 0" fill="#c68d6d"/><path d="m247.160156 192.074219c-15.519531 0-28.097656-12.582031-28.097656-28.101563v-20.429687c0-4.238281 3.433594-7.671875 7.667969-7.671875h40.859375c4.238281 0 7.671875 3.433594 7.671875 7.671875v20.429687c0 15.519532-12.582031 28.101563-28.101563 28.101563zm0 0" fill="#57565c"/><path d="m183.136719 163.972656c0-13.183594-13.417969-23.871094-29.972657-23.871094-16.554687 0-29.972656 10.6875-29.972656 23.871094s13.417969 23.867188 29.972656 23.867188c16.554688 0 29.972657-10.683594 29.972657-23.867188zm0 0" fill="#ffd9e8"/><path d="m371.128906 163.972656c0-13.183594-13.417968-23.871094-29.972656-23.871094s-29.972656 10.6875-29.972656 23.871094 13.417968 23.867188 29.972656 23.867188 29.972656-10.683594 29.972656-23.867188zm0 0" fill="#ffd9e8"/><path d="m320.316406 130.917969v12.453125c0 4.140625 3.359375 7.5 7.5 7.5 4.144532 0 7.5-3.359375 7.5-7.5v-12.453125c0-4.140625-3.355468-7.5-7.5-7.5-4.140625 0-7.5 3.359375-7.5 7.5zm0 0"/><path d="m159.003906 130.917969v12.453125c0 4.140625 3.355469 7.5 7.5 7.5 4.140625 0 7.5-3.359375 7.5-7.5v-12.453125c0-4.140625-3.359375-7.5-7.5-7.5s-7.5 3.359375-7.5 7.5zm0 0"/><path d="m486.742188 159.023438c-17.894532-36.800782-40.144532-67.890626-66.140626-92.410157-3.015624-2.84375-7.757812-2.707031-10.601562.308594-2.84375 3.011719-2.703125 7.761719.308594 10.601563 24.667968 23.273437 45.84375 52.898437 62.941406 88.0625 9.667969 19.882812 7.625 42.4375-5.464844 60.339843-13.164062 18.003907-34.175781 26.832031-56.210937 23.632813-65.074219-9.472656-120.394531-14.277344-164.414063-14.277344-44.019531 0-99.339844 4.804688-164.414062 14.277344-22.027344 3.210937-43.046875-5.628906-56.214844-23.632813-13.085938-17.902343-15.128906-40.457031-5.460938-60.339843 20.832032-42.847657 47.527344-77.230469 79.351563-102.203126 40.914063-32.105468 90.28125-48.382812 146.738281-48.382812 52.480469 0 98.914063 14.085938 138.007813 41.859375 3.378906 2.402344 8.0625 1.605469 10.460937-1.769531 2.398438-3.375 1.605469-8.058594-1.773437-10.457032-41.679688-29.617187-91.039063-44.632812-146.695313-44.632812-134.105468 0-204.304687 86.480469-239.582031 159.023438-12.140625 24.96875-9.578125 53.289062 6.847656 75.753906 14.28125 19.53125 35.933594 30.4375 59.410157 30.421875 12.402343 32.519531 49.273437 59.296875 99.304687 72.875-11 29.375-17.949219 60.792969-17.949219 81.957031 0 50.710938 41.257813 91.96875 91.96875 91.96875 50.710938 0 91.96875-41.257812 91.96875-91.96875 0-20.839844-7.097656-52.886719-17.96875-81.996094 13.578125-3.683594 26.390625-8.378906 38.058594-14.015625 30.796875-14.886719 52.4375-35.695312 61.273438-58.808593h.050781c23.453125 0 45.082031-10.921876 59.355469-30.4375 16.425781-22.460938 18.984374-50.78125 6.84375-75.75zm-134.054688 151.492187c-29.476562 14.25-56.042969 22.21875-123.273438 21.550781-4.148437-.042968-7.691406 2.886719-7.949218 7.023438-.257813 4.132812 2.882812 7.75 7.023437 7.945312 38.425781 1.816406 59.058594-1.507812 77.976563-5.472656 10.660156 27.984375 17.664062 58.839844 17.664062 78.46875 0 42.441406-34.527344 76.96875-76.96875 76.96875-42.4375 0-76.96875-34.527344-76.96875-76.96875 0-19.605469 7.003906-50.472656 17.65625-78.441406 2.566406.539062 5.117188 1.324218 7.777344 1.527344 5.40625.40625 8.054688-2.433594 8.703125-6.0625.730469-4.074219-1.980469-7.972657-6.058594-8.703126-53.0625-9.511718-94.722656-34.488281-108.78125-64.613281 62.371094-8.929687 115.402344-13.457031 157.671875-13.457031 42.269532 0 95.300782 4.527344 157.675782 13.457031-8.375 18.003907-26.632813 34.441407-52.148438 46.777344zm0 0"/><path d="m226.730469 128.371094c-8.363281 0-15.171875 6.808594-15.171875 15.171875v20.429687c0 19.628906 15.972656 35.601563 35.601562 35.601563s35.601563-15.972657 35.601563-35.601563v-20.429687c0-8.363281-6.804688-15.171875-15.171875-15.171875zm41.03125 15.171875v20.429687c0 11.359375-9.242188 20.601563-20.601563 20.601563s-20.601562-9.242188-20.601562-20.601563v-20.429687c0-.097657 41.203125-.097657 41.203125 0zm0 0"/></svg>