<svg height="512pt" viewBox="-17 0 512 512.001" width="512pt" xmlns="http://www.w3.org/2000/svg"><path d="m238.832031 294.980469-162.398437-253.316407c-10.652344-16.613281-36.402344-9.070312-36.402344 10.667969v251.640625zm0 0" fill="#ffcd00"/><path d="m129.738281 124.808594c-2.84375 23.742187-10.859375 51.894531-32.054687 65.054687-21.628906 13.433594-41.46875 23.148438-57.652344 39.78125v74.328125l198.800781-8.992187zm0 0" fill="#ffb600"/><path d="m237.433594 294.980469 162.398437-253.316407c10.652344-16.613281 36.402344-9.070312 36.402344 10.667969v251.640625zm0 0" fill="#ffcd00"/><path d="m346.527344 124.808594c2.84375 23.742187 10.859375 51.894531 32.054687 65.054687 21.628907 13.433594 41.46875 23.148438 57.652344 39.78125v74.328125l-198.800781-8.992187zm0 0" fill="#ffb600"/><path d="m133.339844 290.46875h210.988281l-80.996094-264.84375c-7.390625-24.167969-41.605469-24.167969-48.996093 0zm0 0" fill="#ffde55"/><path d="m379.421875 504.5h-281.179687c-31.375 0-56.808594-25.433594-56.808594-56.808594v-143.71875h394.800781v143.71875c0 31.375-25.4375 56.808594-56.8125 56.808594zm0 0" fill="#ffde55"/><path d="m41.433594 303.972656v143.71875c0 31.375 25.433594 56.808594 56.808594 56.808594h79.675781c-9.234375-12.78125-14.75-27.121094-17.921875-41.003906-7.253906-31.75 13.488281-63.21875 45.5625-68.878906 86.390625-15.25 97.296875-55.761719 97.296875-55.761719v-34.882813zm0 0" fill="#ffcd00"/><path d="m426.289062 338.855469h-374.914062c-24.230469 0-43.875-19.644531-43.875-43.875 0-24.234375 19.644531-43.875 43.875-43.875h374.917969c24.230469 0 43.875 19.640625 43.875 43.875-.003907 24.230469-19.644531 43.875-43.878907 43.875zm0 0" fill="#ffeb99"/><path d="m280.914062 292.085938c0-36.765626-18.839843-66.566407-42.082031-66.566407-23.238281 0-42.078125 29.800781-42.078125 66.566407 0 36.761718 18.839844 66.5625 42.078125 66.5625 23.242188 0 42.082031-29.800782 42.082031-66.5625zm0 0" fill="#ff929f"/><path d="m235.328125 292.085938c0-25.765626 9.269531-48.101563 22.804687-59.167969-5.777343-4.722657-12.34375-7.398438-19.300781-7.398438-23.238281 0-42.078125 29.800781-42.078125 66.566407 0 36.761718 18.839844 66.5625 42.078125 66.5625 6.957031 0 13.523438-2.675782 19.300781-7.398438-13.53125-11.066406-22.804687-33.402344-22.804687-59.164062zm0 0" fill="#ff737d"/><path d="m130.65625 294.980469c0-28.804688-14.761719-52.15625-32.972656-52.15625-18.207032 0-32.96875 23.351562-32.96875 52.15625 0 28.800781 14.761718 52.152343 32.96875 52.152343 18.210937 0 32.972656-23.351562 32.972656-52.152343zm0 0" fill="#9ad880"/><path d="m96.195312 294.980469c0-19.789063 6.964844-37 17.230469-45.839844-4.679687-4.027344-10.039062-6.316406-15.742187-6.316406-18.207032 0-32.96875 23.351562-32.96875 52.15625 0 28.800781 14.761718 52.152343 32.96875 52.152343 5.703125 0 11.0625-2.289062 15.742187-6.316406-10.265625-8.839844-17.230469-26.050781-17.230469-45.835937zm0 0" fill="#8dc971"/><path d="m412.953125 294.980469c0-28.804688-14.761719-52.15625-32.972656-52.15625-18.207031 0-32.96875 23.351562-32.96875 52.15625 0 28.800781 14.761719 52.152343 32.96875 52.152343 18.210937 0 32.972656-23.351562 32.972656-52.152343zm0 0" fill="#9ad880"/><path d="m378.492188 294.980469c0-19.789063 6.964843-37 17.230468-45.839844-4.679687-4.027344-10.039062-6.316406-15.742187-6.316406-18.207031 0-32.96875 23.351562-32.96875 52.15625 0 28.800781 14.761719 52.152343 32.96875 52.152343 5.703125 0 11.0625-2.289062 15.742187-6.316406-10.265625-8.839844-17.230468-26.050781-17.230468-45.835937zm0 0" fill="#8dc971"/><path d="m174.808594 435.746094c0-13.183594-13.417969-23.867188-29.972656-23.867188-16.550782 0-29.972657 10.683594-29.972657 23.867188s13.421875 23.867187 29.972657 23.867187c16.554687 0 29.972656-10.683593 29.972656-23.867187zm0 0" fill="#ffa6bb"/><path d="m362.800781 435.746094c0-13.183594-13.417969-23.867188-29.972656-23.867188-16.550781 0-29.972656 10.683594-29.972656 23.867188s13.421875 23.867187 29.972656 23.867187c16.554687 0 29.972656-10.683593 29.972656-23.867187zm0 0" fill="#ffa6bb"/><path d="m257.152344 410.59375c-10.785156 8.367188-25.851563 8.367188-36.640625 0-3.273438-2.539062-7.984375-1.945312-10.523438 1.332031-2.539062 3.269531-1.941406 7.980469 1.332031 10.519531 8.097657 6.285157 17.804688 9.425782 27.511719 9.425782s19.414063-3.140625 27.515625-9.425782c3.273438-2.539062 3.867188-7.25 1.328125-10.519531-2.539062-3.277343-7.25-3.871093-10.523437-1.332031zm0 0"/><path d="m158.175781 399.71875c-7.136719 0-13.738281 3.5625-17.660156 9.527344-2.273437 3.464844-1.308594 8.113281 2.152344 10.386718 3.460937 2.273438 8.109375 1.3125 10.386719-2.148437 1.636718-2.496094 4.125-2.765625 5.121093-2.765625.996094 0 3.441407.296875 5.121094 2.765625 3.507813 5.144531 9.117187 2.984375 10.386719 2.148437 3.464844-2.273437 4.425781-6.921874 2.152344-10.386718-3.917969-5.964844-10.519532-9.527344-17.660157-9.527344zm0 0"/><path d="m319.492188 399.71875c-7.140626 0-13.742188 3.5625-17.660157 9.527344-2.277343 3.464844-1.3125 8.113281 2.148438 10.386718 3.464843 2.273438 8.113281 1.3125 10.386719-2.148437 1.640624-2.496094 4.128906-2.765625 5.121093-2.765625.996094 0 3.441407.296875 5.125 2.765625 3.503907 5.144531 9.117188 2.984375 10.386719 2.148437 3.460938-2.273437 4.421875-6.921874 2.148438-10.386718-3.917969-5.964844-10.519532-9.527344-17.65625-9.527344zm0 0"/><path d="m477.664062 294.980469c0-22.207031-14.164062-41.164063-33.929687-48.324219v-194.324219c0-12.40625-7.695313-22.675781-19.597656-26.164062-11.902344-3.488281-23.921875 1.007812-30.617188 11.449219l-80.351562 125.328124-42.664063-139.511718c-4.351562-14.234375-16.785156-23.433594-31.671875-23.433594-14.882812 0-27.316406 9.199219-31.667969 23.433594l-43.121093 140.992187-81.296875-126.808593c-6.691406-10.441407-18.710938-14.933594-30.617188-11.449219-11.902344 3.488281-19.597656 13.757812-19.597656 26.164062v53.898438c0 4.144531 3.359375 7.5 7.5 7.5 4.144531 0 7.5-3.355469 7.5-7.5v-53.898438c0-6.773437 4.554688-10.519531 8.816406-11.769531 4.261719-1.246094 10.117188-.550781 13.769532 5.148438l88.171874 137.53125-18.460937 60.359374h-21.292969c-6.054687-5.265624-13.167968-8.277343-20.851562-8.277343-7.679688 0-14.796875 3.011719-20.851563 8.277343 0 0-28.03125.066407-29.300781.160157v-105.574219c0-4.140625-3.355469-7.5-7.5-7.5s-7.5 3.359375-7.5 7.5v109.011719c-19.027344 7.53125-32.53125 26.105469-32.53125 47.78125 0 22.207031 14.164062 41.164062 33.933594 48.320312v104.390625c0 35.460938 28.847656 64.308594 64.308594 64.308594h281.183593c35.457031 0 64.308594-28.847656 64.308594-64.308594v-104.390625c19.765625-7.15625 33.929687-26.113281 33.929687-48.320312zm-71.515624-249.265625c3.65625-5.703125 9.511718-6.398438 13.769531-5.152344 4.261719 1.25 8.816406 4.996094 8.816406 11.769531v191.335938c-.8125-.039063-27.550781-.0625-27.550781-.0625v.300781c-6.128906-5.460938-13.375-8.582031-21.203125-8.582031-7.496094 0-14.613281 2.96875-20.730469 8.28125h-21.414062l-18.910157-61.84375zm-26.167969 293.917968c-11.980469 0-22.738281-15.683593-25.027344-36.476562-.453125-4.117188-4.15625-7.078125-8.273437-6.636719-4.117188.453125-7.089844 4.15625-6.636719 8.273438 1.097656 9.980469 3.824219 19.011719 7.742187 26.558593h-66.699218c4.65625-11.316406 7.328124-24.738281 7.328124-39.265624 0-12.128907-1.867187-23.476563-5.1875-33.480469h64.535157c-2.085938 4.03125-3.839844 8.503906-5.191407 13.351562-1.109374 3.992188 1.222657 8.128907 5.214844 9.238281 3.992188 1.113282 8.125-1.222656 9.234375-5.210937 4.273438-15.347656 13.503907-25.660156 22.964844-25.660156 13.804687 0 25.46875 20.449219 25.46875 44.65625 0 24.203125-11.664063 44.652343-25.472656 44.652343zm-175.726563-47.546874c0-32.019532 15.835938-59.066407 34.578125-59.066407 18.746094 0 34.582031 27.046875 34.582031 59.066407 0 32.015624-15.835937 59.0625-34.582031 59.0625-18.742187 0-34.578125-27.046876-34.578125-59.0625zm-7.671875 39.265624h-66.613281c5.152344-10.003906 8.1875-22.566406 8.1875-36.371093 0-13.808594-3.035156-26.371094-8.1875-36.375h64.472656c-3.320312 10.003906-5.1875 21.351562-5.1875 33.480469 0 14.527343 2.671875 27.949218 7.328125 39.265624zm24.925781-303.53125c2.890626-9.453124 10.84375-12.820312 17.324219-12.820312s14.4375 3.367188 17.328125 12.820312l65.992188 215.785157h-45.566406c-9.023438-15.746094-22.472657-25.585938-37.753907-25.585938-15.277343 0-28.726562 9.839844-37.753906 25.585938h-45.5625zm-123.824218 222.503907c13.808594 0 25.472656 20.449219 25.472656 44.65625 0 24.203125-11.664062 44.652343-25.472656 44.652343-13.804688 0-25.46875-20.449218-25.46875-44.652343 0-24.207031 11.664062-44.65625 25.46875-44.65625zm-82.683594 44.65625c0-20.058594 16.320312-36.375 36.375-36.375h14.027344c-5.152344 10.003906-8.1875 22.566406-8.1875 36.375 0 13.804687 3.035156 26.367187 8.1875 36.371093h-14.027344c-20.054688 0-36.375-16.316406-36.375-36.371093zm413.734375 152.710937c0 27.1875-22.121094 49.308594-49.3125 49.308594h-281.179687c-27.1875 0-49.308594-22.121094-49.308594-49.308594v-101.402344c.808594.039063 27.898437.0625 27.898437.0625 6.058594 5.269532 13.171875 8.28125 20.851563 8.28125 7.683594 0 14.796875-3.011718 20.855468-8.28125h86.246094c8.820313 12.328126 20.742188 19.796876 34.050782 19.796876 13.304687 0 25.226562-7.46875 34.046874-19.796876h86.390626c6.074218 5.285157 13.164062 8.28125 20.710937 8.28125 7.679687 0 14.792969-3.011718 20.851563-8.28125 0 0 27.085937-.023437 27.898437-.0625zm-2.445313-116.339844h-14.023437c5.152344-10.003906 8.1875-22.566406 8.1875-36.371093 0-13.808594-3.035156-26.371094-8.1875-36.375h14.023437c20.058594 0 36.375 16.316406 36.375 36.375 0 20.054687-16.316406 36.371093-36.375 36.371093zm0 0"/></svg>