<svg height="512pt" viewBox="0 0 512.04119 512" width="512pt" xmlns="http://www.w3.org/2000/svg"><path d="m503.488281 230.417969c0 124.929687-110.761719 273.066406-247.464843 273.066406-2.816407 0-5.71875-.085937-8.535157-.171875-132.777343-5.972656-238.933593-150.613281-238.933593-272.894531-.550782-28.167969 6.179687-56.003907 19.542968-80.8125l83.371094-71.933594c29.714844-12.628906 61.203125-20.605469 93.351562-23.636719 5.546876-.683594 11.265626-1.195312 16.984376-1.535156 8.445312-.683594 16.980468-1.027344 25.683593-1.195312 2.816407-.085938 5.71875-.085938 8.535157-.085938 2.8125 0 5.714843 0 8.53125.085938 8.703124.167968 17.238281.511718 25.683593 1.109374 5.71875.425782 11.351563.9375 16.984375 1.535157 32.457032 3.148437 64.234375 11.296875 94.207032 24.148437h.085937l82.515625 71.59375v.085938c13.296875 24.765625 19.996094 52.535156 19.457031 80.640625zm0 0" fill="#2e7d32"/><path d="m477.886719 230.417969c0 122.28125-104.257813 266.921875-234.664063 272.894531-130.40625-5.972656-234.667968-150.613281-234.667968-272.894531-.550782-28.128907 6.054687-55.933594 19.191406-80.8125l81.921875-71.933594c29.125-12.617187 60.050781-20.589844 91.644531-23.636719 5.453125-.683594 11.09375-1.195312 16.683594-1.535156 8.296875-.683594 16.675781-1.027344 25.226562-1.195312 8.53125.167968 16.929688.511718 25.222656 1.109374 5.617188.425782 11.152344.9375 16.683594 1.535157 31.914063 3.160156 63.136719 11.308593 92.527344 24.148437h.078125l81.066406 71.59375v.085938c13.0625 24.839844 19.628907 52.582031 19.085938 80.640625zm0 0" fill="#4cae50"/><path d="m162.15625 204.816406c-2.855469 0-5.703125.171875-8.535156.511719 3.242187.382813 6.457031.96875 9.625 1.761719-2.53125-.613282-5.09375-1.085938-7.679688-1.417969-.644531-.164063-1.300781-.277344-1.960937-.34375-38.863281 4.328125-68.261719 37.1875-68.25 76.289063-.03125 14.6875 4.207031 29.066406 12.203125 41.386718 1.195312 1.878906 2.472656 3.671875 3.839844 5.460938 10.597656-5.117188 21.902343-8.625 33.535156-10.410156 3.925781-.683594 7.9375-1.277344 12.03125-1.621094 2.21875-.171875 4.4375-.339844 6.65625-.425782 2.816406-.171874 5.632812-.257812 8.535156-.257812 5.203125 0 10.238281.257812 15.1875.683594 4.097656.425781 8.105469.9375 12.03125 1.621094 4.257812.644531 8.472656 1.527343 12.628906 2.644531 3.414063.941406 6.742188 1.964843 9.898438 3.074219l18.945312-8.023438c5.351563-10.582031 8.128906-22.273438 8.105469-34.132812 0-42.414063-34.382813-76.800782-76.796875-76.800782zm3.480469 2.878906c1.636719.449219 3.242187.960938 4.828125 1.515626-1.59375-.542969-3.191406-1.074219-4.828125-1.515626zm0 0" fill="#fff"/><path d="m349.886719 204.816406c-2.851563 0-5.699219.171875-8.53125.511719-38.871094 4.320313-68.277344 37.179687-68.265625 76.289063-.023438 11.859374 2.753906 23.550781 8.105468 34.132812l11.777344 4.949219 7.167969 3.074219c11.164063-3.894532 22.773437-6.359376 34.558594-7.339844 2.21875-.171875 4.4375-.339844 6.65625-.425782 2.816406-.171874 5.632812-.257812 8.53125-.257812 5.207031 0 10.242187.257812 15.191406.683594 10.996094.941406 21.847656 3.144531 32.339844 6.570312 4.535156 1.5 8.957031 3.324219 13.226562 5.460938 17.917969-23.15625 21.089844-54.492188 8.179688-80.769532-12.914063-26.277343-39.65625-42.914062-68.9375-42.878906zm0 0" fill="#fff"/><g fill="#fdc008"><path d="m204.820312 268.816406c.492188 17.679688-4.945312 35.011719-15.445312 49.238282-3.925781-.683594-7.933594-1.195313-12.03125-1.621094-4.949219-.425782-9.984375-.683594-15.1875-.683594-2.902344 0-5.71875.085938-8.535156.257812-2.21875.085938-4.4375.253907-6.65625.425782-4.09375.34375-8.105469.9375-12.03125 1.621094-10.5-14.226563-15.9375-31.558594-15.445313-49.238282 0-32 15.617188-58.453125 36.097657-63.144531 2.140624-.582031 4.351562-.871094 6.570312-.855469 10.132812.355469 19.59375 5.164063 25.855469 13.144532 11.421875 14.4375 17.378906 32.453124 16.808593 50.855468zm0 0"/><path d="m392.554688 268.816406c.492187 17.679688-4.945313 35.011719-15.445313 49.238282-3.925781-.683594-7.9375-1.195313-12.03125-1.621094-4.949219-.425782-9.984375-.683594-15.191406-.683594-2.898438 0-5.714844.085938-8.53125.257812-2.21875.085938-4.4375.253907-6.65625.425782-4.097657.34375-8.105469.9375-12.03125 1.621094-10.5-14.226563-15.9375-31.558594-15.445313-49.238282 0-32 15.613282-58.453125 36.09375-63.144531 2.140625-.582031 4.351563-.871094 6.570313-.855469 10.136719.355469 19.597656 5.164063 25.859375 13.144532 11.421875 14.4375 17.375 32.453124 16.808594 50.855468zm0 0"/><path d="m158.484375 151.3125c-7.789063 18.015625-24.167969 30.863281-43.519531 34.136719-14.246094 3.058593-28.777344 4.628906-43.347656 4.691406-8.589844.769531-17.175782-1.527344-24.234376-6.484375-8.277343-6.742188-10.753906-17.496094-15.191406-26.710938-3.480468-6.738281-6.53125-13.695312-9.128906-20.820312-1.023438-2.816406-1.878906-5.71875-2.644531-8.703125-.769531-2.988281-1.28125-5.890625-1.792969-8.875-1.886719-12.394531-1.539062-25.023437 1.023438-37.292969 1.082031-5.625 2.683593-11.136718 4.777343-16.46875 3.34375-8.925781 7.816407-17.386718 13.3125-25.171875 6-9.804687 12.824219-19.085937 20.394531-27.734375 2.109376-2.007812 5.097657-2.792968 7.917969-2.082031 2.824219.707031 5.085938 2.816406 5.992188 5.582031 5.683593 18.609375 14.929687 35.941406 27.222656 51.027344 7.875 8.15625 16.664063 15.371094 26.195313 21.503906 9.730468 6.316406 19.796874 8.449219 26.796874 16.042969 6.277344 7.871094 9.460938 17.765625 8.957032 27.820313.378906 6.628906-.550782 13.269531-2.730469 19.539062zm0 0"/></g><path d="m493.417969 118.546875c-.5625 4.085937-1.386719 8.136719-2.472657 12.117187-.511718 1.792969-1.023437 3.582032-1.621093 5.375-3.050781 8.691407-6.816407 17.109376-11.265625 25.171876-4.691406 8.707031-7.59375 18.859374-16.296875 24.492187-6.203125 3.433594-13.230469 5.089844-20.3125 4.777344-5.375.085937-11.175781-.082031-17.234375-.597657-31.746094-2.8125-69.207032-15.527343-74.070313-49.234374-2.265625-13 1.714844-26.308594 10.75-35.925782 2.28125-2.28125 4.867188-4.234375 7.679688-5.804687 24.320312-13.824219 44.375-25.597657 59.480469-50.34375 1.277343-2.050781 6.824218-17.152344 11.175781-28.417969.941406-2.304688 1.707031-4.351562 2.476562-6.230469 1.007813-2.546875 3.183594-4.449219 5.84375-5.109375 2.65625-.660156 5.472657.003906 7.554688 1.78125 15.972656 14.542969 27.636719 33.203125 33.707031 53.933594 1.6875 5.449219 3 11.007812 3.921875 16.640625 2.1875 12.34375 2.417969 24.957031.683594 37.375zm0 0" fill="#ff9701"/><path d="m468.160156 118.546875c-.5625 4.085937-1.386718 8.136719-2.476562 12.117187-.511719 1.792969-1.023438 3.582032-1.621094 5.375-3.046875 8.691407-6.8125 17.109376-11.261719 25.171876-4.695312 8.707031-7.59375 18.859374-16.300781 24.492187-3.734375 2.285156-7.933594 3.710937-12.285156 4.179687-31.746094-2.8125-69.207032-15.527343-74.070313-49.234374-2.265625-13 1.714844-26.308594 10.75-35.925782 2.28125-2.28125 4.867188-4.234375 7.679688-5.804687 24.320312-13.824219 44.375-25.597657 59.480469-50.34375 1.277343-2.050781 6.824218-17.152344 11.175781-28.417969 11.128906 12.925781 19.414062 28.042969 24.320312 44.375 1.691407 5.449219 3.003907 11.007812 3.925781 16.640625 2.183594 12.34375 2.414063 24.957031.683594 37.375zm0 0" fill="#fdc008"/><path d="m179.222656 281.617188c.027344 11.632812-.597656 23.257812-1.878906 34.816406-4.949219-.425782-9.984375-.683594-15.1875-.683594-5.207031 0-10.242188.257812-15.191406.683594-1.277344-11.558594-1.90625-23.183594-1.875-34.816406 0-42.410157 7.679687-76.800782 17.066406-76.800782s17.066406 34.390625 17.066406 76.800782zm0 0" fill="#37474f"/><path d="m366.953125 281.617188c.03125 11.632812-.597656 23.257812-1.875 34.816406-4.949219-.425782-9.984375-.683594-15.191406-.683594-5.203125 0-10.238281.257812-15.1875.683594-1.28125-11.558594-1.90625-23.183594-1.878907-34.816406 0-42.410157 7.679688-76.800782 17.066407-76.800782s17.066406 34.390625 17.066406 76.800782zm0 0" fill="#37474f"/><path d="m187.753906 401.085938c3.632813 17.707031 9.886719 34.777343 18.550782 50.644531.949218 1.550781 2.773437 2.328125 4.546874 1.945312 1.773438-.382812 3.109376-1.851562 3.332032-3.652343 1.765625-13.796876 7.320312-37.332032 24.746094-48.964844zm0 0" fill="#ffebb2"/><path d="m324.289062 401.085938c-3.632812 17.707031-9.886718 34.777343-18.550781 50.644531-.949219 1.550781-2.773437 2.328125-4.546875 1.945312-1.773437-.382812-3.109375-1.851562-3.332031-3.652343-1.730469-13.773438-7.320313-37.308594-24.769531-48.9375zm0 0" fill="#ffebb2"/><path d="m153.621094 238.953125c0 9.425781-7.640625 17.066406-17.066406 17.066406-9.425782 0-17.066407-7.640625-17.066407-17.066406s7.640625-17.070313 17.066407-17.070313c9.425781 0 17.066406 7.644532 17.066406 17.070313zm0 0" fill="#fff"/><path d="m341.355469 238.953125c0 9.425781-7.640625 17.066406-17.066407 17.066406-9.425781 0-17.066406-7.640625-17.066406-17.066406s7.640625-17.070313 17.066406-17.070313c9.425782 0 17.066407 7.644532 17.066407 17.070313zm0 0" fill="#fff"/><path d="m256.023438 512.019531c141.804687 0 256-154.054687 256-281.601562.421874-28.167969-5.984376-56.019531-18.671876-81.167969 2.324219-5.308594 4.273438-10.777344 5.828126-16.359375.375-1.40625.648437-2.851563.972656-4.265625v-.070312c9.160156-45.496094-5.746094-92.507813-39.449219-124.414063-4.140625-3.589844-9.761719-4.941406-15.078125-3.628906-5.394531 1.304687-9.820312 5.148437-11.863281 10.308593-1.414063 3.59375-3.214844 8.296876-5.050781 13.101563-2.824219 7.378906-7.089844 18.539063-7.980469 20.238281-5.539063 9.144532-12.570313 17.296875-20.792969 24.125-45.789062-18.03125-94.71875-26.734375-143.914062-25.601562-48.816407-.972656-97.355469 7.5625-142.910157 25.125-2.695312-2.382813-5.296875-4.804688-7.679687-7.304688-11.515625-14.140625-20.121094-30.417968-25.308594-47.898437-1.890625-5.550781-6.484375-9.746094-12.179688-11.128907-5.597656-1.371093-11.511718.214844-15.675781 4.207032-6.980469 7.542968-13.1875 15.769531-18.523437 24.550781-1.230469 1.878906-2.253906 3.414063-2.988282 4.480469-19.496093 27.046875-26.347656 61.203125-18.789062 93.679687l.058594.316407c.058594.253906.078125.5.136718.757812 1.683594 6.628906 3.949219 13.097656 6.777344 19.328125-12.871094 25.257813-19.367187 53.277344-18.9179685 81.621094 0 127.546875 114.1914065 281.601562 256.0000005 281.601562zm179.285156-458.964843c3.523437-7.507813 6.644531-15.199219 9.34375-23.042969 1.808594-4.734375 3.582031-9.386719 4.835937-13.003907 14.777344 13.5 25.550781 30.804688 31.140625 50.023438-8.488281 2.75-17.539062 3.265625-26.285156 1.5-4.574219-1.136719-9.207031 1.652344-10.339844 6.230469-1.136718 4.574219 1.652344 9.207031 6.226563 10.34375 4.496093 1.097656 9.109375 1.640625 13.738281 1.621093 6.960938-.082031 13.875-1.089843 20.566406-2.996093 1.96875 11.835937 1.996094 23.910156.078125 35.753906-18.558593 2.566406-37.464843-.144531-54.554687-7.816406-2.800782-1.203125-6.03125-.820313-8.476563 1.003906-2.445312 1.824219-3.730469 4.8125-3.371093 7.839844.359374 3.027343 2.304687 5.636719 5.105468 6.839843 15.0625 6.648438 31.324219 10.132813 47.789063 10.242188 2.933593 0 5.851562-.214844 8.78125-.453125-2.671875 6.898437-5.792969 13.617187-9.347657 20.105469-1.148437 2.15625-2.207031 4.394531-3.265624 6.644531-1.964844 5.71875-5.457032 10.792969-10.09375 14.671875-4.898438 2.5-10.371094 3.664062-15.867188 3.371094-28.292969.5625-77.652344-7.683594-82.652344-42.472656-1.929687-10.320313 1.144532-20.945313 8.285156-28.644532 1.761719-1.746094 3.75-3.25 5.90625-4.472656 23.507813-13.3125 45.765626-25.96875 62.457032-53.289062zm-390.589844-8.535157c.8125-1.152343 1.945312-2.875 3.304688-4.957031 4.648437-7.617188 10.003906-14.78125 16-21.394531 6.050781 19.777343 15.933593 38.171875 29.078124 54.136719 8.355469 8.621093 17.667969 16.265624 27.75 22.785156 3.914063 2.457031 7.992188 4.648437 12.203126 6.550781 4.785156 1.871094 9.179687 4.617187 12.953124 8.097656 4.960938 6.363281 7.359376 14.351563 6.726563 22.394531.34375 5.472657-.398437 10.957032-2.183594 16.144532-6.925781 15.285156-21 26.128906-37.546875 28.917968-13.695312 2.875-27.644531 4.359376-41.636718 4.4375-6.550782.71875-13.140626-.921874-18.59375-4.625-4.347657-4.414062-7.566407-9.8125-9.386719-15.734374-1.125-2.722657-2.25-5.445313-3.523438-8.046876-2.796875-5.703124-5.230469-10.890624-7.269531-16.078124 2.816406.222656 5.632812.433593 8.464844.433593 16.433594-.117187 32.667968-3.601562 47.699218-10.238281 2.804688-1.203125 4.75-3.8125 5.109376-6.839844.355468-3.027344-.929688-6.019531-3.371094-7.84375-2.445313-1.824218-5.675782-2.203125-8.476563-1-17.039062 7.652344-35.886719 10.363282-54.394531 7.824219-2.167969-11.8125-2.121094-23.925781.148438-35.71875 6.617187 1.878906 13.453124 2.871094 20.332031 2.949219 4.617187.019531 9.21875-.519532 13.707031-1.609375 2.960938-.734375 5.300781-2.996094 6.144531-5.925781.84375-2.929688.0625-6.089844-2.054687-8.285157-2.117188-2.195312-5.242188-3.097656-8.203125-2.363281-8.316407 1.742188-16.941407 1.347656-25.0625-1.152344 3.074219-8.082031 7.132812-15.753906 12.082031-22.84375zm-16.539062 124.773438c2.726562 8.054687 7.472656 15.273437 13.78125 20.96875 7.988281 5.957031 17.800781 8.949219 27.753906 8.464843h2.105468c15.179688-.105468 30.3125-1.753906 45.160157-4.925781 24.941406-6.066406 42.050781-19.71875 49.492187-39.5 2.601563-7.316406 3.710938-15.082031 3.261719-22.835937.4375-12.09375-3.5625-23.929688-11.25-33.28125-5.195313-5.136719-11.359375-9.199219-18.132813-11.945313-3.53125-1.582031-6.953124-3.40625-10.238281-5.453125-.453125-.296875-.855469-.613281-1.324219-.914062 24.566407-8.746094 50.09375-14.523438 76.03125-17.210938v48.292969c0 4.710937 3.820313 8.53125 8.535157 8.53125 4.710937 0 8.53125-3.820313 8.53125-8.53125v-49.894531c8.363281-.617188 16.898437-.992188 25.601562-1.128906v76.621093c0 4.714844 3.820313 8.535157 8.535157 8.535157 4.710937 0 8.53125-3.820313 8.53125-8.535157v-76.621093c8.6875.15625 17.238281.519531 25.601562 1.136718v49.886719c0 4.710937 3.820312 8.53125 8.53125 8.53125 4.714844 0 8.535156-3.820313 8.535156-8.53125v-48.273437c26.074219 2.710937 51.730469 8.550781 76.414063 17.390624-5.828125 3.695313-12.167969 7.398438-19.242188 11.40625-3.484375 1.972657-6.6875 4.402344-9.53125 7.222657-10.988281 11.480469-15.863281 27.503906-13.132812 43.160156 6.050781 42.332031 54.886719 57.171875 96.359375 57.171875h3.53125c8.675781.335938 17.273437-1.785156 24.796875-6.117188 7.414062-5.507812 13.066406-13.058593 16.257812-21.726562.332031-.707031.691407-1.382812 1.023438-2.089844 7.660156 19.527344 11.480469 40.347656 11.253906 61.320313 0 119.816406-106.578125 264.535156-238.929687 264.535156-132.355469 0-238.933594-144.71875-238.933594-264.535156-.257813-20.898438 3.507812-41.648438 11.089844-61.125zm0 0"/><path d="m147.699219 324.933594c5.070312-.433594 9.789062-.648438 14.457031-.648438 2.261719 0 4.53125.058594 6.824219.160156 2.449219.105469 4.941406.265626 7.542969.488282 7.484374.683594 14.902343 1.949218 22.1875 3.789062-1.609376 4.015625-2.429688 8.300782-2.421876 12.628906 0 4.710938 3.820313 8.53125 8.53125 8.53125 4.714844 0 8.535157-3.820312 8.535157-8.53125.003906-4.351562 1.6875-8.535156 4.691406-11.683593.085937-.09375.15625-.195313.238281-.289063 4.863282-4.917968 12.210938-6.414062 18.609375-3.789062 6.398438 2.621094 10.582031 8.847656 10.59375 15.761718 0 4.710938 3.820313 8.53125 8.535157 8.53125 4.710937 0 8.53125-3.820312 8.53125-8.53125.019531-6.914062 4.207031-13.132812 10.605468-15.75 6.398438-2.617187 13.746094-1.117187 18.605469 3.804688.074219.09375.144531.1875.230469.28125 3 3.140625 4.683594 7.316406 4.691406 11.664062 0 4.710938 3.820312 8.53125 8.535156 8.53125 4.710938 0 8.53125-3.820312 8.53125-8.53125-.015625-4.328124-.859375-8.617187-2.480468-12.628906 7.285156-1.839844 14.703124-3.105468 22.183593-3.789062 5.042969-.433594 9.761719-.648438 14.429688-.648438 2.238281 0 4.488281.058594 6.777343.152344 2.472657.113281 4.992188.273438 7.621094.496094 14.730469 1.050781 29.136719 4.832031 42.484375 11.144531 3.660157 1.851563 8.117188.839844 10.617188-2.40625 11.601562-14.867187 17.882812-33.195313 17.835937-52.054687.109375-33.976563-19.945312-64.78125-51.0625-78.425782-31.113281-13.648437-67.359375-7.535156-92.28125 15.5625-24.917968 23.097656-33.761718 58.777344-22.511718 90.835938-5.148438 2.011718-9.726563 5.246094-13.34375 9.421875-3.625-4.164063-8.203126-7.386719-13.347657-9.386719 11.246094-32.058594 2.40625-67.730469-22.503906-90.828125-24.914063-23.097656-61.152344-29.21875-92.269531-15.582031-31.117188 13.636718-51.179688 44.429687-51.082032 78.402344-.046874 18.859374 6.234376 37.1875 17.835938 52.054687 2.507812 3.230469 6.960938 4.226563 10.605469 2.371094 13.339843-6.292969 27.726562-10.0625 42.4375-11.109375zm194.6875-17.542969c-.671875-8.21875-1.03125-16.984375-1.03125-25.773437-.898438-21.980469 1.988281-43.953126 8.53125-64.953126 6.546875 21 9.433593 42.972657 8.535156 64.953126 0 8.789062-.359375 17.554687-1.03125 25.773437-5.054687-.230469-9.917969-.230469-15.003906 0zm75.769531-25.773437c.039062 12.789062-3.566406 25.324218-10.402344 36.132812-10.714844-4.304688-21.929687-7.242188-33.375-8.75.726563-8.738281 1.109375-18.054688 1.109375-27.382812.421875-22.203126-2.214843-44.359376-7.832031-65.84375 29.753906 8.046874 50.441406 35.019531 50.5 65.84375zm-86.035156-65.84375c-5.621094 21.484374-8.257813 43.640624-7.832032 65.84375 0 9.3125.375 18.621093 1.101563 27.308593-7.90625 1.097657-15.707031 2.84375-23.324219 5.222657-4.414062-3.34375-9.582031-5.550782-15.050781-6.425782-3.523437-8.253906-5.359375-17.128906-5.394531-26.105468.054687-30.824219 20.742187-57.796876 50.5-65.84375zm-177.46875 91.617187c-.671875-8.21875-1.03125-16.984375-1.03125-25.773437-.898438-21.980469 1.988281-43.953126 8.535156-64.953126 6.542969 21 9.429688 42.972657 8.53125 64.953126 0 8.789062-.359375 17.554687-1.03125 25.773437-5.050781-.230469-9.925781-.230469-15.003906 0zm75.769531-25.773437c-.03125 8.988281-1.863281 17.878906-5.394531 26.148437-5.46875.875-10.636719 3.082031-15.050782 6.425781-7.617187-2.378906-15.417968-4.121094-23.324218-5.214844.726562-8.738281 1.101562-18.039062 1.101562-27.359374.425782-22.203126-2.210937-44.359376-7.832031-65.84375 29.757813 8.046874 50.445313 35.019531 50.5 65.84375zm-136.535156 0c.058593-30.824219 20.746093-57.796876 50.5-65.84375-5.617188 21.484374-8.253907 43.640624-7.832031 65.84375 0 9.328124.375 18.644531 1.109374 27.382812-11.445312 1.511719-22.660156 4.449219-33.375 8.75-6.835937-10.808594-10.441406-23.34375-10.402343-36.132812zm0 0"/><path d="m366.953125 358.417969c-4.710937 0-8.53125 3.820312-8.53125 8.535156 0 14.136719-11.460937 25.597656-25.601563 25.597656h-153.597656c-14.140625 0-25.601562-11.460937-25.601562-25.597656 0-4.714844-3.820313-8.535156-8.53125-8.535156-4.714844 0-8.535156 3.820312-8.535156 8.535156.027343 23.550781 19.113281 42.636719 42.667968 42.664063h1.707032c3.292968 13.347656 11.867187 42.746093 26.359374 57.234374 1.605469 1.609376 3.789063 2.507813 6.066407 2.5 1.121093.003907 2.230469-.21875 3.269531-.648437 3.1875-1.320313 5.265625-4.433594 5.261719-7.886719 0-10.238281 3.78125-38.527344 20.140625-51.199218h28.160156c19.566406 15.199218 19.96875 50.84375 19.96875 51.199218.023438 3.441406 2.109375 6.53125 5.292969 7.835938 3.183593 1.304687 6.839843.570312 9.273437-1.859375 14.503906-14.507813 23.039063-43.886719 26.359375-57.234375h1.738281c23.554688-.027344 42.640626-19.113282 42.667969-42.667969-.03125-4.6875-3.84375-8.472656-8.535156-8.472656zm-158.992187 78.164062c-3.816407-8.734375-6.953126-17.746093-9.386719-26.964843h20.539062c-5.21875 8.292968-8.988281 17.410156-11.152343 26.964843zm96.121093 0c-2.164062-9.554687-5.933593-18.671875-11.152343-26.964843h20.539062c-2.433594 9.21875-5.570312 18.230468-9.386719 26.964843zm0 0"/></svg>