<svg height="512pt" viewBox="0 0 512.05743 512" width="512pt" xmlns="http://www.w3.org/2000/svg"><path d="m503.496094 383.898438c0 108.375-110.765625 119.46875-247.46875 119.46875-2.902344 0-5.714844 0-8.53125-.085938-132.78125-.425781-238.933594-13.3125-238.933594-119.382812.074219-12.292969 1.332031-24.554688 3.753906-36.605469l58.539063-127.488281c7.597656-10.328126 15.773437-20.210938 24.488281-29.613282 17.710938-19.097656 37.917969-35.714844 60.078125-49.40625 10.898437-6.625 22.347656-12.304687 34.21875-16.980468h132.777344c11.867187 4.675781 23.316406 10.355468 34.21875 16.980468 22.15625 13.691406 42.363281 30.308594 60.074219 49.40625 8.714843 9.402344 16.894531 19.285156 24.492187 29.613282l58.535156 127.402343v.085938c2.421875 12.050781 3.679688 24.3125 3.757813 36.605469zm0 0" fill="#2e7d32"/><path d="m477.894531 383.898438c0 106.070312-104.261719 118.957031-234.667969 119.382812-130.40625-.425781-234.664062-13.3125-234.664062-119.382812.070312-12.289063 1.304688-24.546876 3.683594-36.605469l57.5-127.488281c7.453125-10.316407 15.480468-20.203126 24.046875-29.613282 17.339843-19.054687 37.183593-35.675781 58.980469-49.40625 10.621093-8.027344 21.867187-15.191406 33.632812-21.417968h140.628906c11.570313 4.605468-4.191406 14.761718 6.621094 21.417968 21.808594 13.730469 41.660156 30.351563 59.007812 49.40625 8.566407 9.410156 16.59375 19.296875 24.046876 29.613282l57.496093 127.402343v.085938c2.382813 12.058593 3.613281 24.316406 3.6875 36.605469zm0 0" fill="#4cae50"/><path d="m76.828125 221.765625c-39.613281-15.847656-68.265625 25.601563-68.265625 93.867187 0 109.277344 85.332031 8.53125 153.597656 42.667969 46.199219 23.089844 65.042969 3.207031 72.398438-12.066406 1.25-2.640625 1.0625-5.734375-.492188-8.203125-1.558594-2.46875-4.269531-3.972656-7.1875-3.984375-19.15625-1.265625-36.695312-11.183594-47.652344-26.949219-34.132812-42.664062-51.199218 0-93.863281-8.53125" fill="#4cae50"/><path d="m503.496094 315.632812c0 51.027344-18.605469 56.234376-45.3125 50.859376-24.832032-5.035157-56.664063-19.285157-87.210938-14.679688-7.328125 1.019531-14.445312 3.210938-21.078125 6.488281-22.101562 11.09375-37.886719 12.285157-49.238281 8.875-10.351562-3.328125-18.773438-10.945312-23.125-20.910156-1.257812-2.636719-1.074219-5.738281.484375-8.214844 1.554687-2.472656 4.273437-3.976562 7.195313-3.984375 19.144531-1.289062 36.667968-11.210937 47.617187-26.96875 5.035156-7 11.640625-12.730468 19.285156-16.722656 16.382813-7.511719 30.121094 3.328125 49.066407 7.679688 8.359374 2.074218 17.078124 2.246093 25.515624.511718l8.53125-76.800781c1.054688-.445313 2.136719-.816406 3.246094-1.109375 37.886719-12.457031 65.023438 28.585938 65.023438 94.976562zm0 0" fill="#2e7d32"/><path d="m477.894531 315.632812c0 32.253907-7.421875 46.25-19.710937 50.859376-20.054688 7.253906-52.992188-10.582032-87.210938-14.679688-15.855468-2.613281-32.132812-.351562-46.679687 6.488281-7.488281 3.902344-15.425781 6.882813-23.636719 8.875-10.351562-3.328125-18.773438-10.945312-23.125-20.910156-1.257812-2.636719-1.074219-5.738281.484375-8.214844 1.554687-2.472656 4.273437-3.976562 7.195313-3.984375 19.144531-1.289062 36.667968-11.210937 47.617187-26.96875 5.035156-7 11.640625-12.730468 19.285156-16.722656 13.566407 4.351562 28.246094 12.371094 48.980469 8.191406l.085938-.511718 8.449218-76.289063c9.121094-4.039063 19.4375-4.433594 28.84375-1.109375 23.890625 9.046875 39.421875 44.800781 39.421875 94.976562zm0 0" fill="#4cae50"/><g fill="#f34335"><path d="m153.628906 400.964844c0 9.425781-7.640625 17.066406-17.066406 17.066406s-17.066406-7.640625-17.066406-17.066406c0-9.425782 7.640625-17.066406 17.066406-17.066406s17.066406 7.640624 17.066406 17.066406zm0 0"/><path d="m384.027344 400.964844c0 9.425781-7.640625 17.066406-17.066406 17.066406-9.425782 0-17.066407-7.640625-17.066407-17.066406 0-9.425782 7.640625-17.066406 17.066407-17.066406 9.425781 0 17.066406 7.640624 17.066406 17.066406zm0 0"/><path d="m85.363281 435.097656c0 18.851563-15.285156 34.136719-34.136719 34.136719h-.597656c-14.601562-9.441406-26.136718-22.933594-33.191406-38.828125 2.523438-17.714844 18.292969-30.472656 36.144531-29.238281 17.847657 1.234375 31.714844 16.039062 31.78125 33.929687zm0 0"/></g><path d="m494.621094 430.40625c-7.054688 15.894531-18.59375 29.386719-33.195313 38.828125h-.597656c-13.488281-.011719-25.699219-7.972656-31.148437-20.3125-2-4.332031-3.019532-9.050781-2.984376-13.824219.0625-17.890625 13.929688-32.695312 31.78125-33.929687 17.847657-1.234375 33.621094 11.523437 36.144532 29.238281zm0 0" fill="#c42828"/><path d="m477.894531 413.339844c-7.054687 15.894531-18.589843 29.386718-33.195312 38.824218h-.597657c-4.984374-.007812-9.910156-1.117187-14.421874-3.242187-2-4.332031-3.019532-9.050781-2.984376-13.824219 0-11.675781 5.976563-22.542968 15.832032-28.804687 9.859375-6.261719 22.234375-7.046875 32.808594-2.085938 1.261718 2.914063 2.121093 5.988281 2.558593 9.132813zm0 0" fill="#f34335"/><path d="m307.226562 251.632812c0-30.632812-22.921874-55.46875-51.199218-55.46875s-51.199219 24.835938-51.199219 55.46875c0 30.632813 22.921875 55.464844 51.199219 55.464844s51.199218-24.832031 51.199218-55.464844zm0 0" fill="#ac1457"/><path d="m256.027344 8.433594c-3.207032-.003906-6.414063.1875-9.597656.570312-38.511719 4.726563-67.449219 37.429688-67.449219 76.230469 0 38.796875 28.9375 71.5 67.449219 76.226563 3.183593.378906 6.390624.570312 9.597656.570312 42.417968 0 76.800781-34.382812 76.800781-76.796875 0-42.417969-34.382813-76.800781-76.800781-76.800781zm0 0" fill="#f4f4f4"/><path d="m307.226562 85.234375c0 28.273437-22.921874 51.199219-51.199218 51.199219s-51.199219-22.925782-51.199219-51.199219c0-28.277344 22.921875-51.203125 51.199219-51.203125s51.199218 22.925781 51.199218 51.203125zm0 0" fill="#9c27af"/><path d="m281.628906 85.234375c0 14.136719-11.460937 25.597656-25.601562 25.597656-14.136719 0-25.597656-11.460937-25.597656-25.597656 0-14.140625 11.460937-25.601563 25.597656-25.601563 14.140625 0 25.601562 11.460938 25.601562 25.601563zm0 0" fill="#37474f"/><path d="m110.960938 51.097656c-3.207032-.003906-6.414063.1875-9.597657.574219-38.511719 4.722656-67.449219 37.429687-67.449219 76.226563 0 38.800781 28.9375 71.503906 67.449219 76.230468 3.183594.378906 6.390625.570313 9.597657.570313 42.414062 0 76.800781-34.382813 76.800781-76.800781 0-42.414063-34.386719-76.800782-76.800781-76.800782zm0 0" fill="#f4f4f4"/><path d="m162.160156 127.898438c0 28.277343-22.921875 51.199218-51.199218 51.199218-28.277344 0-51.199219-22.921875-51.199219-51.199218 0-28.277344 22.921875-51.199219 51.199219-51.199219 28.277343 0 51.199218 22.921875 51.199218 51.199219zm0 0" fill="#9c27af"/><path d="m136.5625 127.898438c0 14.140624-11.460938 25.601562-25.601562 25.601562-14.136719 0-25.597657-11.460938-25.597657-25.601562 0-14.136719 11.460938-25.597657 25.597657-25.597657 14.140624 0 25.601562 11.460938 25.601562 25.597657zm0 0" fill="#37474f"/><path d="m477.894531 127.898438c0 42.417968-34.382812 76.800781-76.800781 76.800781-3.195312.015625-6.386719-.183594-9.554688-.597657-1.011718-.078124-2.011718-.25-2.988281-.511718-37.066406-6.089844-64.265625-38.128906-64.265625-75.691406s27.199219-69.597657 64.265625-75.691407c.976563-.257812 1.976563-.429687 2.988281-.511719 3.167969-.414062 6.359376-.613281 9.554688-.597656 42.417969 0 76.800781 34.386719 76.800781 76.800782zm0 0" fill="#ced7db"/><path d="m452.292969 127.898438c-.015625 37.375-26.917969 69.316406-63.742188 75.691406-37.066406-6.089844-64.265625-38.128906-64.265625-75.691406s27.199219-69.597657 64.265625-75.691407c36.824219 6.375 63.726563 38.320313 63.742188 75.691407zm0 0" fill="#f4f4f4"/><path d="m452.292969 127.898438c0 28.277343-22.921875 51.199218-51.199219 51.199218s-51.199219-22.921875-51.199219-51.199218c0-28.277344 22.921875-51.199219 51.199219-51.199219s51.199219 22.921875 51.199219 51.199219zm0 0" fill="#9c27af"/><path d="m426.695312 127.898438c0 14.140624-11.460937 25.601562-25.601562 25.601562-14.136719 0-25.597656-11.460938-25.597656-25.601562 0-14.136719 11.460937-25.597657 25.597656-25.597657 14.140625 0 25.601562 11.460938 25.601562 25.597657zm0 0" fill="#37474f"/><path d="m302.023438 276.039062c-7.5625 18.765626-25.765626 31.054688-45.996094 31.054688-20.230469 0-38.433594-12.289062-45.992188-31.054688 8.589844-17.570312 26.4375-28.707031 45.992188-28.707031 19.554687 0 37.40625 11.136719 45.996094 28.707031zm0 0" fill="#f34335"/><path d="m93.894531 102.300781c0 9.425781-7.640625 17.066407-17.066406 17.066407s-17.066406-7.640626-17.066406-17.066407 7.640625-17.066406 17.066406-17.066406 17.066406 7.640625 17.066406 17.066406zm0 0" fill="#f4f4f4"/><path d="m238.960938 59.632812c0 9.425782-7.640626 17.066407-17.066407 17.066407s-17.066406-7.640625-17.066406-17.066407c0-9.425781 7.640625-17.066406 17.066406-17.066406s17.066407 7.640625 17.066407 17.066406zm0 0" fill="#f4f4f4"/><path d="m384.027344 102.300781c0 9.425781-7.640625 17.066407-17.066406 17.066407-9.425782 0-17.066407-7.640626-17.066407-17.066407s7.640625-17.066406 17.066407-17.066406c9.425781 0 17.066406 7.640625 17.066406 17.066406zm0 0" fill="#f4f4f4"/><path d="m476.539062 217.617188c-9.277343-6.394532-20.65625-8.984376-31.789062-7.226563-1.644531-2.167969-3.292969-4.34375-5.035156-6.511719 30.246094-15.320312 48.539062-47.101562 46.597656-80.945312-1.945312-33.847656-23.753906-63.328125-55.550781-75.085938-31.796875-11.761718-67.542969-3.566406-91.039063 20.871094-7.9375-39.929688-42.980468-68.6914062-83.695312-68.6914062-40.710938 0-75.753906 28.7617182-83.695313 68.6914062-23.5-24.421875-59.234375-32.605469-91.023437-20.84375-31.789063 11.761719-53.589844 41.230469-55.539063 75.070312-1.945312 33.835938 16.332031 65.613282 46.5625 80.941407-1.707031 2.167969-3.414062 4.335937-5.035156 6.511719-11.128906-1.757813-22.503906.828124-31.777344 7.21875-22.554687 15.242187-35.4921872 50.988281-35.4921872 98.015624-.2304688 10.765626.9726562 21.511719 3.5781252 31.957032-2.304688 11.96875-3.5 24.121094-3.5781252 36.308594 0 118.214843 121.0898442 128 256.0000002 128 134.914062 0 256-9.785157 256-128-.089844-12.15625-1.296875-24.277344-3.601563-36.214844 2.628907-10.472656 3.839844-21.253906 3.601563-32.050782 0-47.027343-12.9375-82.773437-35.488282-98.015624zm-75.445312-157.984376c33.40625-.019531 61.914062 24.152344 67.351562 57.113282 5.4375 32.957031-13.796874 65.007812-45.4375 75.714844-7.039062 2.472656-14.453124 3.722656-21.914062 3.703124-37.683594-.039062-68.222656-30.578124-68.265625-68.265624 0-.851563 0-1.707032.078125-2.953126.074219-1.246093.144531-2.34375.273438-3.496093 3.703124-7.847657 6.175781-16.222657 7.328124-24.824219 11.617188-22.757812 35.035157-37.058594 60.585938-36.992188zm-145.066406-42.667968c37.703125 0 68.265625 30.566406 68.265625 68.269531 0 37.699219-30.5625 68.265625-68.265625 68.265625s-68.265625-30.566406-68.265625-68.265625c.042969-37.6875 30.582031-68.226563 68.265625-68.269531zm-213.332032 110.933594c-.03125-31.496094 21.511719-58.914063 52.117188-66.34375 30.609375-7.429688 62.324219 7.066406 76.734375 35.070312 1.152344 8.621094 3.632813 17.011719 7.355469 24.875.121094 1.152344.199218 2.355469.273437 3.847656.0625.8125.050781 1.707032.050781 2.558594-.039062 37.6875-30.578124 68.226562-68.265624 68.269531-7.496094.011719-14.941407-1.25-22.015626-3.730469-27.671874-9.359374-46.285156-35.332031-46.25-64.546874zm-16.359374 301.773437c2.789062-12.921875 14.984374-21.578125 28.105468-19.949219 13.121094 1.632813 22.828125 13.007813 22.367188 26.222656-.457032 13.214844-10.925782 23.890626-24.128906 24.609376-11.285157-7.863282-20.355469-18.5-26.34375-30.882813zm46.226562 42.121094c14.703125-8.414063 23.007812-24.753907 21.140625-41.59375-1.867187-16.835938-13.554687-30.960938-29.742187-35.949219-16.191407-4.988281-33.796876.113281-44.816407 12.980469-1.398437-7.699219-2.085937-15.507813-2.050781-23.332031 0-4.386719.34375-8.960938.71875-13.558594 15.613281 11.332031 37.546875 5.121094 60.824219-1.46875 25.601562-7.277344 54.554687-15.503906 79.710937-2.933594 12.636719 6.90625 26.695313 10.8125 41.085938 11.417969 5.4375.035156 10.847656-.832031 16-2.5625 11.960937-4.285157 21.648437-13.273438 26.8125-24.882813 2.503906-5.152344 2.210937-11.226562-.777344-16.117187-3.070312-5.039063-8.488281-8.167969-14.386719-8.3125-16.628906-1.226563-31.792969-9.964844-41.1875-23.738281-24.382812-30.464844-44.375-23.203126-61.988281-16.753907-11.503906 5.351563-24.339844 7.15625-36.871094 5.1875-4.625-.929687-9.132812 2.0625-10.066406 6.6875s2.058594 9.132813 6.6875 10.066407c15.601562 2.640624 31.640625.597656 46.078125-5.878907 16.820313-6.128906 26.09375-9.515625 42.804687 11.382813 12.523438 17.832031 32.542969 28.929687 54.304688 30.097656-3.167969 7.476562-9.28125 13.3125-16.894531 16.136719-11 3.753906-25.789063 1.074219-43.9375-8.007813-31.082031-15.519531-64.855469-5.921875-92 1.792969-20.128907 5.710937-37.546875 10.652344-46.371094 3.976563-7.003906-5.273438-10.546875-18.996094-10.546875-40.796876 0-40.660156 10.464844-72.011718 27.992188-83.882812 8.503906-5.644531 19.34375-6.425781 28.566406-2.054688 2.105468.839844 4.453125.808594 6.535156-.085937 2.082031-.890625 3.71875-2.574219 4.558594-4.675781 1.023437-2.648438.636718-5.628906-1.023438-7.929688 1.757813-2.234375 3.59375-4.453125 5.4375-6.671875 7.105469 1.921875 14.4375 2.898438 21.800782 2.902344 40.746093-.058594 75.785156-28.878906 83.703124-68.847656 16.03125 16.722656 38.195313 26.179687 61.363282 26.179687 23.167968 0 45.332031-9.457031 61.363281-26.179687 7.917969 39.96875 42.957031 68.789062 83.703125 68.847656 7.363281 0 14.695312-.976563 21.804688-2.902344 1.851562 2.21875 3.675781 4.4375 5.433593 6.671875-1.660156 2.300782-2.046875 5.28125-1.03125 7.929688.839844 2.101562 2.480469 3.785156 4.558594 4.675781 2.082031.894531 4.433594.925781 6.535156.085937 9.226563-4.371093 20.070313-3.589843 28.578125 2.054688 17.519532 11.871094 27.988282 43.222656 27.988282 83.882812 0 21.800782-3.53125 35.523438-10.503907 40.796876-8.875 6.664062-26.25 1.707031-46.378906-3.976563-27.144531-7.679687-60.929687-17.3125-91.996094-1.792969-18.152343 9.082032-32.933593 11.777344-43.941406 8.007813-7.601563-2.746094-13.671875-8.597657-16.691406-16.09375 21.667969-1.28125 41.566406-12.378907 54.042969-30.140625 16.71875-20.898438 25.984374-17.511719 42.804687-11.382813 14.4375 6.484375 30.476563 8.53125 46.078125 5.878907 4.476562-1.058594 7.308594-5.46875 6.40625-9.980469-.898438-4.507813-5.210938-7.492188-9.75-6.746094-12.535156 1.964844-25.367188.15625-36.871094-5.1875-17.632812-6.433594-37.617187-13.722656-61.988281 16.75-9.398437 13.777344-24.566406 22.515625-41.199219 23.738281-5.894531.148438-11.308594 3.28125-14.378906 8.3125-2.984375 4.890625-3.277344 10.964844-.777344 16.121094 5.167969 11.605469 14.855469 20.597656 26.8125 24.882812 5.15625 1.726563 10.5625 2.59375 16 2.558594 14.386719-.597656 28.441406-4.5 41.082032-11.398437 25.15625-12.570313 54.140624-4.34375 79.699218 2.933593 23.261719 6.613282 45.226563 12.800782 60.835938 1.46875.375 4.554688.714844 9.128907.714844 13.515626.035156 7.824218-.648438 15.632812-2.046876 23.332031-11.019531-12.867188-28.625-17.96875-44.816406-12.980469s-27.875 19.113281-29.742187 35.949219c-1.871094 16.839843 6.4375 33.179687 21.140625 41.59375-40.363282 18.148437-102.121094 23.039062-183.46875 23.039062s-143.101563-4.890625-183.464844-23.039062zm386.789062-11.265625c-13.21875-.707032-23.707031-11.390625-24.167968-24.617188-.464844-13.230468 9.253906-24.621094 22.390625-26.25 13.132812-1.628906 25.339843 7.046875 28.121093 19.988282-5.972656 12.390624-15.035156 23.035156-26.316406 30.90625zm0 0"/><path d="m256.027344 119.367188c18.851562 0 34.132812-15.285157 34.132812-34.132813 0-18.851563-15.28125-34.136719-34.132812-34.136719-18.851563 0-34.132813 15.285156-34.132813 34.136719 0 18.847656 15.28125 34.132813 34.132813 34.132813zm0-51.203126c9.425781 0 17.066406 7.644532 17.066406 17.070313s-7.640625 17.066406-17.066406 17.066406c-9.425782 0-17.066406-7.640625-17.066406-17.066406s7.640624-17.070313 17.066406-17.070313zm0 0"/><path d="m145.09375 127.898438c0-18.851563-15.28125-34.132813-34.132812-34.132813-18.851563 0-34.132813 15.28125-34.132813 34.132813 0 18.851562 15.28125 34.132812 34.132813 34.132812 18.851562 0 34.132812-15.28125 34.132812-34.132812zm-51.199219 0c0-9.425782 7.640625-17.066407 17.066407-17.066407 9.425781 0 17.066406 7.640625 17.066406 17.066407 0 9.425781-7.640625 17.066406-17.066406 17.066406-9.425782 0-17.066407-7.640625-17.066407-17.066406zm0 0"/><path d="m401.09375 162.03125c18.851562 0 34.132812-15.28125 34.132812-34.132812 0-18.851563-15.28125-34.132813-34.132812-34.132813s-34.132812 15.28125-34.132812 34.132813c0 18.851562 15.28125 34.132812 34.132812 34.132812zm0-51.199219c9.425781 0 17.066406 7.640625 17.066406 17.066407 0 9.425781-7.640625 17.066406-17.066406 17.066406s-17.066406-7.640625-17.066406-17.066406c0-9.425782 7.640625-17.066407 17.066406-17.066407zm0 0"/><path d="m136.5625 375.367188c-14.140625 0-25.601562 11.460937-25.601562 25.597656 0 14.140625 11.460937 25.601562 25.601562 25.601562 14.136719 0 25.597656-11.460937 25.597656-25.601562 0-14.136719-11.460937-25.597656-25.597656-25.597656zm0 34.132812c-4.714844 0-8.535156-3.820312-8.535156-8.535156 0-4.710938 3.820312-8.53125 8.535156-8.53125 4.710938 0 8.53125 3.820312 8.53125 8.53125 0 4.714844-3.820312 8.535156-8.53125 8.535156zm0 0"/><path d="m366.960938 375.367188c-14.136719 0-25.597657 11.460937-25.597657 25.597656 0 14.140625 11.460938 25.601562 25.597657 25.601562 14.140624 0 25.601562-11.460937 25.601562-25.601562 0-14.136719-11.460938-25.597656-25.601562-25.597656zm0 34.132812c-4.710938 0-8.53125-3.820312-8.53125-8.535156 0-4.710938 3.820312-8.53125 8.53125-8.53125 4.714843 0 8.535156 3.820312 8.535156 8.53125 0 4.714844-3.820313 8.535156-8.535156 8.535156zm0 0"/><path d="m309.789062 279.316406c.121094-.238281.226563-.480468.324219-.726562 3.71875-8.5 5.640625-17.679688 5.648438-26.957032 1.097656-34.136718-25.601563-62.746093-59.734375-64-34.132813 1.253907-60.832032 29.863282-59.734375 64 .003906 9.277344 1.921875 18.453126 5.632812 26.957032.097657.246094.203125.488281.324219.726562 8.851562 21.917969 30.121094 36.269532 53.761719 36.269532 23.636719 0 44.910156-14.351563 53.757812-36.269532zm-53.761718-74.617187c24.703125 1.261719 43.757812 22.222656 42.667968 46.933593 0 1.707032-.09375 3.351563-.246093 4.992188-11.183594-11.382812-26.46875-17.792969-42.421875-17.792969s-31.238282 6.410157-42.417969 17.792969c-.152344-1.640625-.246094-3.285156-.246094-4.992188-1.09375-24.710937 17.960938-45.671874 42.664063-46.933593zm0 93.867187c-15.242188-.300781-29.125-8.847656-36.257813-22.324218 7.710938-12.644532 21.457031-20.359376 36.265625-20.359376 14.8125 0 28.554688 7.714844 36.269532 20.359376-7.136719 13.480468-21.027344 22.03125-36.277344 22.324218zm0 0"/></svg>