<svg height="512pt" viewBox="0 -4 512 512" width="512pt" xmlns="http://www.w3.org/2000/svg"><path d="m443.734375 170.84375c.019531 5.40625-.4375 10.800781-1.367187 16.128906-11.007813 67.753906-90.28125 120.234375-186.367188 120.234375-2.476562 0-4.949219 0-7.425781-.171875-.738281.042969-1.476563.042969-2.21875 0-99.15625-3.667968-177.917969-63.230468-178.089844-136.191406-5.53125 5.078125-10.773437 10.460938-15.699219 16.128906-27.90625 30.554688-43.582031 70.320313-44.03125 111.699219 0 106.070313 106.152344 192.597656 238.929688 196.097656 2.816406.171875 5.632812.171875 8.535156.171875 136.703125 0 247.464844-87.894531 247.464844-196.269531-.90625-49.144531-22.613282-95.601563-59.730469-127.828125zm0 0" fill="#6a1b99"/><path d="m187.734375 8.539062c-3.210937 0-6.414063.191407-9.601563.582032-38.476562 4.753906-67.375 37.445312-67.375 76.21875 0 38.769531 28.898438 71.460937 67.375 76.21875 3.1875.386718 6.390626.582031 9.601563.582031 42.414063 0 76.800781-34.386719 76.800781-76.800781 0-42.414063-34.386718-76.800782-76.800781-76.800782zm0 0" fill="#f4f4f4"/><path d="m238.933594 85.339844c0 28.277344-22.921875 51.199218-51.199219 51.199218s-51.199219-22.921874-51.199219-51.199218 22.921875-51.199219 51.199219-51.199219 51.199219 22.921875 51.199219 51.199219zm0 0" fill="#00bbd3"/><path d="m213.332031 85.339844c0 14.136718-11.460937 25.601562-25.597656 25.601562-14.140625 0-25.601563-11.464844-25.601563-25.601562 0-14.140625 11.460938-25.601563 25.601563-25.601563 14.136719 0 25.597656 11.460938 25.597656 25.601563zm0 0" fill="#37474f"/><path d="m179.199219 59.738281c0 9.425781-7.640625 17.066407-17.066407 17.066407-9.425781 0-17.066406-7.640626-17.066406-17.066407s7.640625-17.066406 17.066406-17.066406c9.425782 0 17.066407 7.640625 17.066407 17.066406zm0 0" fill="#f4f4f4"/><path d="m477.867188 298.671875c0 106.070313-104.261719 192.597656-234.667969 196.097656-130.40625-3.5-234.664063-90.027343-234.664063-196.097656.390625-41.246094 15.757813-80.945313 43.246094-111.699219 4.832031-5.660156 9.980469-11.046875 15.417969-16.128906.171875 72.960938 77.527343 132.523438 174.933593 136.191406.726563.042969 1.457032.042969 2.183594 0 2.425782.171875 4.855469.171875 7.289063.171875 94.371093 0 172.226562-52.480469 183.039062-120.234375 27.476563 30.757813 42.839844 70.457032 43.222657 111.699219zm0 0" fill="#9c27af"/><path d="m460.800781 305.671875v.167969c-.601562 30.34375-12.816406 59.296875-34.132812 80.898437-4.6875 4.992188-9.675781 9.695313-14.933594 14.078125-11.167969 9.28125-23.332031 17.296875-36.269531 23.894532-5.203125 2.730468-10.75 5.289062-16.382813 7.59375-13.996093 5.886718-28.507812 10.457031-43.347656 13.652343-5.546875 1.195313-11.179687 2.21875-16.898437 3.074219-11.359376 1.730469-22.816407 2.753906-34.300782 3.070312-2.816406.171876-5.632812.171876-8.535156.171876s-5.71875 0-8.535156-.171876c-11.484375-.316406-22.941406-1.339843-34.300782-3.070312-5.71875-.855469-11.351562-1.878906-16.898437-3.074219-14.839844-3.195312-29.351563-7.765625-43.347656-13.652343-5.632813-2.304688-11.179688-4.863282-16.382813-7.59375-12.9375-6.597657-25.101562-14.613282-36.269531-23.894532-5.257813-4.382812-10.246094-9.085937-14.933594-14.078125-21.316406-21.601562-33.53125-50.554687-34.132812-80.898437v-.167969c-.023438-7.609375.804687-15.195313 2.476562-22.613281 1.984375-9.421875 5.257813-18.523438 9.726563-27.050782 6.996094 10.523438 15.125 20.253907 24.234375 29.011719 4.683593 4.589844 9.609375 8.917969 14.761719 12.96875 10.957031 8.695313 22.699218 16.351563 35.074218 22.871094 5.203125 2.730469 10.582032 5.375 16.128906 7.851563 13.855469 5.992187 28.21875 10.734374 42.921876 14.164062 5.460937 1.367188 11.09375 2.476562 16.808593 3.5 11.296875 1.835938 22.699219 2.976562 34.132813 3.414062 2.816406 0 5.71875.082032 8.535156.082032s5.71875-.082032 8.535156-.082032c11.433594-.4375 22.835938-1.578124 34.132813-3.414062 5.714843-1.023438 11.347656-2.132812 16.808593-3.5 14.703126-3.429688 29.066407-8.171875 42.921876-14.164062 5.546874-2.476563 10.925781-5.121094 16.128906-7.851563 12.375-6.519531 24.117187-14.175781 35.074218-22.871094 5.152344-4.050781 10.078126-8.378906 14.761719-12.96875 9.109375-8.757812 17.238281-18.488281 24.234375-29.011719 4.453125 8.5625 7.726563 17.691407 9.726563 27.132813 1.671875 7.394531 2.5 14.949219 2.476562 22.53125zm0 0" fill="#ffebb2"/><path d="m324.265625 34.140625c-3.207031-.003906-6.414063.191406-9.597656.578125-38.480469 4.757812-67.378907 37.449219-67.378907 76.222656 0 38.769532 28.898438 71.460938 67.378907 76.21875 3.183593.386719 6.390625.582032 9.597656.578125 42.417969 0 76.800781-34.382812 76.800781-76.796875 0-42.417968-34.382812-76.800781-76.800781-76.800781zm0 0" fill="#f4f4f4"/><path d="m375.464844 110.941406c0 28.273438-22.921875 51.199219-51.199219 51.199219s-51.199219-22.925781-51.199219-51.199219c0-28.277344 22.921875-51.203125 51.199219-51.203125s51.199219 22.925781 51.199219 51.203125zm0 0" fill="#00bbd3"/><path d="m349.867188 110.941406c0 14.136719-11.460938 25.597656-25.601563 25.597656-14.136719 0-25.597656-11.460937-25.597656-25.597656 0-14.140625 11.460937-25.601562 25.597656-25.601562 14.140625 0 25.601563 11.460937 25.601563 25.601562zm0 0" fill="#37474f"/><path d="m315.734375 85.339844c0 9.425781-7.640625 17.066406-17.066406 17.066406s-17.066407-7.640625-17.066407-17.066406c0-9.425782 7.640626-17.066406 17.066407-17.066406s17.066406 7.640624 17.066406 17.066406zm0 0" fill="#f4f4f4"/><path d="m450.851562 165.851562c-10.046874-22.214843-24.109374-42.386718-41.480468-59.496093-1.71875-33.328125-22.75-62.582031-53.800782-74.824219-31.046874-12.242188-66.382812-5.21875-90.386718 17.96875-19.75-42.730469-70.398438-61.363281-113.128906-41.617188-42.730469 19.746094-61.363282 70.394532-41.617188 113.125-17.644531 12.925782-33.878906 27.671876-48.433594 44-38.546875 33.851563-61.054687 82.371094-62.003906 133.664063 0 112.921875 114.839844 204.800781 256 204.800781s256-91.878906 256-204.800781c-.933594-50.871094-23.109375-99.03125-61.148438-132.820313zm-126.585937-123.179687c37.703125 0 68.269531 30.566406 68.269531 68.269531 0 37.699219-30.566406 68.265625-68.269531 68.265625s-68.265625-30.566406-68.265625-68.265625c.042969-37.6875 30.582031-68.226562 68.265625-68.269531zm-136.53125-25.597656c29.703125-.023438 55.996094 19.195312 64.996094 47.503906-12.242188 18.777344-16.574219 41.632813-12.046875 63.589844-19.980469 24.695312-54.367188 32.324219-82.917969 18.398437-28.550781-13.929687-43.707031-45.722656-36.542969-76.671875 7.164063-30.949219 34.742188-52.851562 66.511719-52.820312zm-68.601563 118.78125c14.5 19.863281 36.902344 32.453125 61.40625 34.519531 24.503907 2.0625 48.695313-6.601562 66.3125-23.757812 15.316407 33.34375 50.253907 53.144531 86.726563 49.152343 36.476563-3.988281 66.304687-30.875 74.050781-66.738281 10.964844 13.214844 20.191406 27.785156 27.453125 43.347656-1.359375 69.785156-81.171875 126.292969-179.082031 126.292969-97.28125 0-176.582031-55.753906-178.976562-124.867187 12.859374-13.894532 26.953124-26.597657 42.109374-37.949219zm136.867188 350.550781c-131.746094 0-238.933594-84.214844-238.933594-187.734375.609375-40.574219 16.449219-79.441406 44.375-108.882813 12.730469 70.980469 95.179688 125.949219 194.558594 125.949219s181.828125-54.96875 194.558594-125.949219c27.925781 29.441407 43.765625 68.308594 44.375 108.882813 0 103.519531-107.1875 187.734375-238.933594 187.734375zm0 0"/><path d="m441.445312 251.328125c-35.257812 53.839844-109.78125 90.011719-185.445312 90.011719s-150.1875-36.171875-185.445312-90.011719c-1.664063-2.542969-4.558594-4.007813-7.59375-3.847656-3.039063.164062-5.757813 1.925781-7.144532 4.632812-8.625 16.605469-13.136718 35.042969-13.148437 53.753907.972656 36.503906 17.238281 70.917968 44.824219 94.847656.332031.367187.699218.703125 1.09375 1.007812 15.621093 14.132813 33.316406 25.792969 52.46875 34.566406.394531.226563.804687.417969 1.230468.574219 35.75 16.035157 74.53125 24.203125 113.714844 23.941407 39.183594.261718 77.964844-7.90625 113.714844-23.941407.425781-.15625.835937-.347656 1.230468-.574219 19.152344-8.773437 36.847657-20.433593 52.46875-34.566406.394532-.304687.761719-.640625 1.09375-1.007812 27.585938-23.929688 43.851563-58.34375 44.824219-94.847656-.011719-4.851563-.324219-9.695313-.9375-14.507813 0-.09375-.050781-.160156-.050781-.253906-1.757812-13.597657-5.871094-26.785157-12.160156-38.964844-1.386719-2.707031-4.105469-4.472656-7.144532-4.632813-3.035156-.164062-5.929687 1.304688-7.59375 3.847657zm5.265626 21.871094c1.867187 5.351562 3.273437 10.847656 4.199218 16.4375-7.078125 11.296875-15.191406 21.910156-24.242187 31.699219v-26.621094c7.222656-6.644532 13.925781-13.839844 20.042969-21.515625zm-37.109376 118.34375c-10.445312 9.136719-21.898437 17.054687-34.136718 23.601562v-33.28125c12.003906-6.269531 23.425781-13.589843 34.136718-21.878906zm-51.203124-20.480469c-13.683594 6.351562-27.980469 11.292969-42.664063 14.753906v-34.238281c14.582031-3.332031 28.855469-7.898437 42.664063-13.652344zm17.066406-40.960938c11.964844-6.054687 23.382812-13.121093 34.136718-21.128906v28.953125c-10.554687 9.214844-21.988281 17.371094-34.136718 24.355469zm-76.796875 59.109376c-11.304688 1.730468-22.703125 2.734374-34.132813 3.003906v-34.039063c11.433594-.335937 22.832032-1.40625 34.132813-3.199219zm-51.203125 3.003906c-11.429688-.269532-22.828125-1.273438-34.132813-3.003906v-34.21875c11.300781 1.796874 22.699219 2.863281 34.132813 3.199218zm-51.199219-6.382813c-14.683594-3.460937-28.980469-8.402343-42.664063-14.753906v-33.152344c13.808594 5.753907 28.082032 10.320313 42.664063 13.652344zm-59.730469-23.535156c-12.148437-6.992187-23.578125-15.152344-34.136718-24.371094v-28.925781c10.753906 8.003906 22.171874 15.074219 34.136718 21.125zm-34.136718-2.296875c10.710937 8.289062 22.132812 15.609375 34.136718 21.882812v33.277344c-12.238281-6.546875-23.691406-14.464844-34.136718-23.601562zm51.203124 29.980469c13.785157 5.714843 28.066407 10.160156 42.664063 13.277343v33.960938c-14.617187-3.25-28.902344-7.855469-42.664063-13.753906zm59.730469 16.484375c11.3125 1.628906 22.710938 2.578125 34.132813 2.84375v34.3125c-11.429688-.339844-22.832032-1.398438-34.132813-3.167969zm51.203125 2.84375c11.421875-.265625 22.820313-1.214844 34.132813-2.84375v33.988281c-11.300781 1.769531-22.703125 2.828125-34.132813 3.167969zm51.199219-6.050782c14.597656-3.117187 28.878906-7.5625 42.664063-13.277343v33.449219c-13.761719 5.898437-28.046876 10.503906-42.664063 13.757812zm-250.445313-130.058593c6.117188 7.675781 12.820313 14.871093 20.042969 21.515625v26.621094c-9.046875-9.789063-17.164062-20.398438-24.25-31.691407.933594-5.589843 2.339844-11.089843 4.207031-16.445312zm-4.703124 45.484375c7.550781 9.59375 15.824218 18.59375 24.746093 26.921875v28.210937c-13.203125-15.722656-21.773437-34.8125-24.746093-55.132812zm366.082031 55.132812v-28.210937c8.921875-8.328125 17.195312-17.328125 24.746093-26.921875-2.972656 20.320312-11.542968 39.410156-24.746093 55.132812zm0 0"/><path d="m187.734375 119.472656c18.851563 0 34.132813-15.28125 34.132813-34.132812 0-18.851563-15.28125-34.132813-34.132813-34.132813s-34.132813 15.28125-34.132813 34.132813c0 18.851562 15.28125 34.132812 34.132813 34.132812zm0-51.199218c9.425781 0 17.066406 7.640624 17.066406 17.066406 0 9.425781-7.640625 17.066406-17.066406 17.066406s-17.066406-7.640625-17.066406-17.066406c0-9.425782 7.640625-17.066406 17.066406-17.066406zm0 0"/><path d="m324.265625 145.074219c18.851563 0 34.132813-15.285157 34.132813-34.132813 0-18.851562-15.28125-34.136718-34.132813-34.136718s-34.132813 15.285156-34.132813 34.136718c0 18.847656 15.28125 34.132813 34.132813 34.132813zm0-51.203125c9.425781 0 17.066406 7.644531 17.066406 17.070312 0 9.421875-7.640625 17.066406-17.066406 17.066406s-17.066406-7.644531-17.066406-17.066406c0-9.425781 7.640625-17.070312 17.066406-17.070312zm0 0"/></svg>