<svg height="503pt" viewBox="0 0 503 503.808" width="503pt" xmlns="http://www.w3.org/2000/svg"><path d="m495.617188 361.121094c0 91.152344-86.957032 126.65625-201.441407 133.117187-5.539062.335938-11.164062.589844-16.789062.757813-5.621094.167968-11.164063.335937-16.785157.335937-2.769531.082031-5.539062.082031-8.394531.082031s-5.625 0-8.394531-.082031c-5.621094 0-11.246094-.167969-16.785156-.335937-5.539063-.167969-11.246094-.421875-16.789063-.757813-114.484375-6.460937-201.441406-41.964843-201.441406-133.117187 0-95.855469 96.1875-219.070313 219.320313-233.507813 2.410156-.246093 4.597656-1.523437 5.996093-3.503906 1.402344-1.976563 1.878907-4.464844 1.308594-6.820313-2.515625-7.589843-8.359375-13.613281-15.863281-16.367187-22.582032-11.246094-34.75-27.867187-29.628906-49.519531 2.265624-9.570313 13.847656-39.785156 69.664062-42.808594h.25c2.9375-.167969 5.960938-.25 9.152344-.25 41.714844 0 65.382812 23.25 71.761718 43.644531 12.003907 38.273438-8.8125 42.722657-28.203124 39.785157-1.929688-.25-3.777344-.585938-5.621094-1.007813-3.175782-.757813-5.632813-3.269531-6.3125-6.460937-.679688-3.191407.535156-6.492188 3.121094-8.476563 5.445312-3.480469 7.121093-10.671875 3.777343-16.199219-4.953125-9.320312-12.003906-17.710937-38.523437-17.710937-3.109375 0-6.128906.082031-8.898438.335937-23.503906 1.507813-35.757812 9.230469-37.519531 16.871094-.460937 8.007812 4.382813 15.375 11.917969 18.128906 25.347656 12.671875 33.828125 25.683594 35.253906 42.722656.332031 3.976563 3.421875 7.171876 7.386719 7.636719 122.796875 15.023438 218.480469 137.90625 218.480469 233.507813zm0 0" fill="#ac1457"/><path d="m470.4375 361.121094c0 91.152344-85.402344 126.65625-197.84375 133.117187-5.445312.335938-10.96875.589844-16.492188.757813-5.523437.167968-10.960937.335937-16.484374.335937-5.523438 0-11.046876-.167969-16.484376-.335937-5.4375-.167969-11.046874-.421875-16.492187-.757813-112.441406-6.460937-197.84375-41.964843-197.84375-133.117187 0-95.855469 94.46875-219.070313 215.402344-233.507813 2.386719-.28125 4.539062-1.570312 5.914062-3.542969 1.371094-1.976562 1.832031-4.445312 1.261719-6.78125-2.429688-7.542968-8.164062-13.566406-15.578125-16.367187-22.175781-11.246094-34.09375-27.867187-29.058594-49.519531 2.222657-9.570313 13.597657-39.785156 68.414063-42.808594h.253906c36.265625 2.601562 57.125 24.257812 62.949219 43.394531 8.25 26.859375.664062 37.101563-11.203125 39.785157-1.898438-.25-3.710938-.585938-5.523438-1.007813-3.140625-.804687-5.546875-3.324219-6.210937-6.496094-.664063-3.171875.53125-6.445312 3.078125-8.441406 5.363281-3.546875 6.992187-10.679687 3.703125-16.199219-4.859375-9.320312-11.75-17.710937-37.839844-17.710937-3.046875 0-6.015625.082031-8.734375.335937-2.578125-.25-5.164062-.359375-7.75-.335937-28.769531 0-43.601562 8.644531-45.582031 17.207031-.480469 7.964844 4.28125 15.3125 11.75 18.128906 24.894531 12.671875 33.21875 25.683594 34.621093 42.722656.296876 3.945313 3.328126 7.136719 7.253907 7.636719 120.511719 15.023438 214.519531 137.90625 214.519531 233.507813zm0 0" fill="#e81e63"/><path d="m185.058594 193.25c-2.804688 0-5.605469.167969-8.390625.503906-33.65625 4.144532-58.941407 32.734375-58.941407 66.644532 0 33.910156 25.285157 62.5 58.941407 66.644531 2.785156.335937 5.585937.503906 8.390625.503906 37.085937 0 67.148437-30.0625 67.148437-67.148437 0-37.085938-30.0625-67.148438-67.148437-67.148438zm0 0" fill="#fff"/><path d="m319.355469 193.25c-2.804688 0-5.609375.167969-8.394531.503906-33.65625 4.144532-58.9375 32.734375-58.9375 66.644532 0 33.910156 25.28125 62.5 58.9375 66.644531 2.785156.335937 5.589843.503906 8.394531.503906 37.082031 0 67.148437-30.0625 67.148437-67.148437 0-37.085938-30.066406-67.148438-67.148437-67.148438zm0 0" fill="#fff"/><path d="m227.027344 260.398438c0 23.175781-18.789063 41.96875-41.96875 41.96875-23.175782 0-41.964844-18.792969-41.964844-41.96875 0-23.179688 18.789062-41.96875 41.964844-41.96875 23.179687 0 41.96875 18.789062 41.96875 41.96875zm0 0" fill="#00bbd3"/><path d="m361.320312 260.398438c0 23.175781-18.789062 41.96875-41.964843 41.96875-23.179688 0-41.96875-18.792969-41.96875-41.96875 0-23.179688 18.789062-41.96875 41.96875-41.96875 23.175781 0 41.964843 18.789062 41.964843 41.96875zm0 0" fill="#00bbd3"/><path d="m201.847656 260.398438c0 9.269531-7.515625 16.785156-16.789062 16.785156-9.269532 0-16.785156-7.515625-16.785156-16.785156 0-9.269532 7.515624-16.789063 16.785156-16.789063 9.273437 0 16.789062 7.519531 16.789062 16.789063zm0 0" fill="#37474f"/><path d="m336.140625 260.398438c0 9.269531-7.515625 16.785156-16.785156 16.785156-9.273438 0-16.789063-7.515625-16.789063-16.785156 0-9.269532 7.515625-16.789063 16.789063-16.789063 9.269531 0 16.785156 7.519531 16.785156 16.789063zm0 0" fill="#37474f"/><path d="m227.027344 352.726562c13.90625 0 25.179687 11.273438 25.179687 25.179688v8.394531h-50.359375v-8.394531c0-13.90625 11.273438-25.179688 25.179688-25.179688zm0 0" fill="#ffebb2"/><path d="m277.386719 352.726562c13.90625 0 25.179687 11.273438 25.179687 25.179688v8.394531h-50.359375v-8.394531c0-13.90625 11.273438-25.179688 25.179688-25.179688zm0 0" fill="#ffebb2"/><path d="m168.273438 243.609375c0 9.273437-7.515626 16.789063-16.789063 16.789063-9.269531 0-16.785156-7.515626-16.785156-16.789063 0-9.269531 7.515625-16.785156 16.785156-16.785156 9.273437 0 16.789063 7.515625 16.789063 16.785156zm0 0" fill="#fff"/><path d="m302.566406 243.609375c0 9.273437-7.515625 16.789063-16.785156 16.789063s-16.785156-7.515626-16.785156-16.789063c0-9.269531 7.515625-16.785156 16.785156-16.785156s16.785156 7.515625 16.785156 16.785156zm0 0" fill="#fff"/><path d="m401.609375 173.398438c12.351563-7.113282 27.710937-6.382813 39.332031 1.863281 2.574219 1.613281 5.816406 1.707031 8.476563.253906 2.664062-1.457031 4.335937-4.234375 4.371093-7.269531.035157-3.035156-1.574218-5.851563-4.203124-7.367188-18.902344-13.0625-44.09375-12.347656-62.226563 1.761719-12.5625-8.847656-25.875-16.582031-39.785156-23.109375 12.9375-15.117188 30.292969-25.796875 49.621093-30.535156 2.886719-.820313 5.113282-3.117188 5.84375-6.027344.730469-2.910156-.148437-5.988281-2.300781-8.074219-2.152343-2.089843-5.257812-2.867187-8.140625-2.046875-24.296875 5.925782-45.8125 20.03125-60.929687 39.953125-17.222657-6.695312-35.207031-11.246093-53.542969-13.546875-1.863281-21.636718-13.789062-36.425781-39.875-49.472656-5.625-2.808594-7.882812-7.140625-7.503906-8.695312.671875-2.867188 10.996094-10.734376 38.25-10.734376 24.0625 0 27.972656 7.351563 31.121094 13.277344 1.039062 1.941406 1.476562 3.167969-1.679688 5.710938-5.132812 4.136718-7.417969 10.863281-5.875 17.273437 1.460938 6.199219 6.363281 11 12.589844 12.335938 18.835937 4.148437 32.484375 1.796875 40.515625-6.972657 8.03125-8.773437 9.132812-23.140624 3.0625-42.457031-7.703125-24.65625-35.359375-49.519531-79.734375-49.519531-70.214844 0-84.523438 37.914062-87.234375 49.519531-5.726563 24.21875 6.363281 45.140625 34.042969 58.933594 8.722656 4.347656 10.726562 8.023437 11.347656 10.800781-18.625 2.246094-36.894532 6.808594-54.390625 13.582032-15.121094-19.925782-36.640625-34.039063-60.941407-39.972657-2.886718-.820312-5.992187-.039062-8.144531 2.046875-2.152343 2.085938-3.03125 5.164063-2.300781 8.074219s2.960938 5.207031 5.84375 6.03125c19.335938 4.734375 36.695312 15.421875 49.628906 30.550781-13.914062 6.519532-27.234375 14.242188-39.808594 23.082032-18.132812-14.089844-43.304687-14.800782-62.203124-1.753907-3.878907 2.425781-5.097657 7.515625-2.742188 11.4375s7.421875 5.234375 11.386719 2.949219c11.628906-8.324219 27.039062-9.105469 39.449219-2.007812-62.238282 49.742187-102.527344 124.417968-102.527344 187.847656 0 61.421875 38.972656 133.941406 218.230468 141.929687 10.703126.480469 21.824219.757813 33.574219.757813s22.855469-.277344 33.574219-.757813c179.257812-7.988281 218.230469-80.507812 218.230469-141.929687 0-63.238282-40.238281-137.90625-102.402344-187.722656zm-107.433594 312.363281v-7.132813c0-4.636718-3.757812-8.394531-8.394531-8.394531s-8.394531 3.757813-8.394531 8.394531v7.957032c-5.453125.167968-11.121094.234374-16.785157.285156v-25.03125c0-4.632813-3.757812-8.390625-8.394531-8.390625s-8.394531 3.757812-8.394531 8.390625v25.03125c-5.664062-.050782-11.328125-.117188-16.785156-.285156v-7.957032c0-4.636718-3.757813-8.394531-8.394532-8.394531-4.636718 0-8.394531 3.757813-8.394531 8.394531v7.132813c-128-7.25-193.046875-49.007813-193.046875-124.640625 0-59.890625 38.726563-130.578125 98.335938-176.886719 1.308594 1.578125 2.511718 3.238281 3.601562 4.96875 2.445313 3.855469 7.519532 5.050781 11.425782 2.695313 3.90625-2.359376 5.214843-7.40625 2.945312-11.363282-1.3125-2.160156-2.765625-4.234375-4.347656-6.203125 11.589844-7.882812 23.835937-14.75 36.601562-20.53125 1.152344 2.445313 2.0625 4.996094 2.730469 7.613281.816406 3.871094 4.226563 6.644532 8.183594 6.65625.5625.003907 1.125-.054687 1.675781-.167968 2.183594-.445313 4.097656-1.738282 5.328125-3.597656 1.226563-1.855469 1.664063-4.125 1.21875-6.304688-.867187-3.632812-2.085937-7.167969-3.640625-10.5625 15.441406-5.707031 31.496094-9.585938 47.839844-11.5625 4.945312-.570312 9.394531-3.261719 12.1875-7.378906 2.675781-3.933594 3.5-8.839844 2.257812-13.429688-3.144531-9.90625-10.574218-17.871094-20.234375-21.699218-20.582031-10.238282-29.058593-23.71875-25.179687-40.050782 1.988281-8.546875 13.015625-36.539062 70.875-36.539062 35.878906 0 57.914062 18.960937 63.789062 37.773437 4.027344 12.824219 4.195313 22.082031.5625 26.09375-3.542968 3.851563-12.480468 4.550781-24.242187 1.679688 8.523437-6.035157 11.066406-17.554688 5.875-26.617188-7.117188-13.285156-17.632813-22.140625-45.984375-22.140625-30.21875 0-51.152344 9.074219-54.558594 23.636719-1.546875 11.855469 5.1875 23.242187 16.324219 27.597656 23.921875 11.949219 29.554687 22.988281 30.671875 35.90625.648437 7.945313 6.824218 14.324219 14.746094 15.234375 16.054687 2.019532 31.828124 5.878906 47.003906 11.507813-1.5625 3.386719-2.789063 6.921875-3.660156 10.550781-.804688 4.484375 2.117187 8.789062 6.582031 9.703125 4.464843.910156 8.839843-1.90625 9.859375-6.347656.660156-2.597657 1.5625-5.125 2.695312-7.554688 12.75 5.808594 24.980469 12.699219 36.554688 20.597657-1.582032 1.960937-3.027344 4.027343-4.332032 6.179687-1.609374 2.570313-1.707031 5.8125-.25 8.476563 1.453126 2.664062 4.234376 4.332031 7.269532 4.367187 3.03125.035156 5.851562-1.570313 7.367187-4.199219 1.082031-1.710937 2.277344-3.347656 3.582031-4.894531 59.628907 46.332031 98.371094 117.054687 98.371094 176.792969 0 75.632812-65.046875 117.390625-193.046875 124.640625zm0 0"/><path d="m319.355469 184.855469c-28.324219.039062-54.246094 15.917969-67.148438 41.128906-15.914062-31.050781-51.027343-47.164063-84.949219-38.976563-33.917968 8.1875-57.816406 38.539063-57.816406 73.433594 0 34.890625 23.898438 65.246094 57.816406 73.429688 33.921876 8.1875 69.035157-7.921875 84.949219-38.976563 16.960938 33.039063 55.417969 48.851563 90.710938 37.292969 35.292969-11.554688 56.949219-47.046875 51.085937-83.71875-5.863281-36.671875-37.511718-63.640625-74.648437-63.613281zm-134.296875 134.296875c-32.449219 0-58.753906-26.304688-58.753906-58.753906 0-32.449219 26.304687-58.753907 58.753906-58.753907 32.449218 0 58.753906 26.304688 58.753906 58.753907-.039062 32.429687-26.320312 58.710937-58.753906 58.753906zm134.296875 0c-32.449219 0-58.753907-26.304688-58.753907-58.753906 0-32.449219 26.304688-58.753907 58.753907-58.753907s58.753906 26.304688 58.753906 58.753907c-.042969 32.429687-26.324219 58.710937-58.753906 58.753906zm0 0"/><path d="m185.058594 235.21875c-10.183594 0-19.363282 6.132812-23.261719 15.542969-3.898437 9.410156-1.742187 20.238281 5.457031 27.441406 7.203125 7.203125 18.03125 9.355469 27.441406 5.457031 9.410157-3.894531 15.542969-13.078125 15.542969-23.261718 0-13.90625-11.273437-25.179688-25.179687-25.179688zm0 33.574219c-4.632813 0-8.390625-3.757813-8.390625-8.394531 0-4.636719 3.757812-8.394532 8.390625-8.394532 4.636718 0 8.394531 3.757813 8.394531 8.394532 0 4.636718-3.757813 8.394531-8.394531 8.394531zm0 0"/><path d="m319.355469 235.21875c-13.90625 0-25.179688 11.273438-25.179688 25.179688s11.273438 25.179687 25.179688 25.179687 25.179687-11.273437 25.179687-25.179687-11.273437-25.179688-25.179687-25.179688zm0 33.574219c-4.636719 0-8.394531-3.757813-8.394531-8.394531 0-4.636719 3.757812-8.394532 8.394531-8.394532s8.394531 3.757813 8.394531 8.394532c0 4.636718-3.757812 8.394531-8.394531 8.394531zm0 0"/><path d="m386.503906 344.332031c-4.636718 0-8.394531 3.757813-8.394531 8.394531 0 13.90625-11.273437 25.179688-25.179687 25.179688h-41.96875c.0625-14-8.605469-26.554688-21.71875-31.460938-13.113282-4.90625-27.894532-1.117187-37.035157 9.488282-9.140625-10.605469-23.921875-14.394532-37.035156-9.488282s-21.78125 17.460938-21.71875 31.460938h-41.96875c-13.90625 0-25.179687-11.273438-25.179687-25.179688 0-4.636718-3.757813-8.394531-8.390626-8.394531-4.636718 0-8.394531 3.757813-8.394531 8.394531.027344 23.164063 18.800781 41.9375 41.964844 41.964844h201.445313c23.164062-.027344 41.9375-18.800781 41.964843-41.964844 0-4.636718-3.757812-8.394531-8.390625-8.394531zm-159.476562 16.789063c9.269531 0 16.785156 7.515625 16.785156 16.785156h-33.574219c0-9.269531 7.515625-16.785156 16.789063-16.785156zm33.574218 16.785156c0-9.269531 7.515626-16.785156 16.785157-16.785156 9.273437 0 16.789062 7.515625 16.789062 16.785156zm0 0"/><path d="m282.039062 412.320312c-9.347656 4.460938-19.488281 7.027344-29.832031 7.554688-10.34375-.527344-20.480469-3.09375-29.828125-7.554688-4.152344-2.070312-9.195312-.382812-11.265625 3.769532-2.070312 4.148437-.382812 9.191406 3.769531 11.261718 11.679688 5.609376 24.378907 8.777344 37.324219 9.308594 12.941407-.507812 25.640625-3.648437 37.324219-9.234375 4.152344-2.066406 5.839844-7.109375 3.769531-11.261719-2.070312-4.152343-7.113281-5.839843-11.261719-3.769531zm0 0"/></svg>