<svg height="496pt" viewBox="0 0 496.7856 496" width="496pt" xmlns="http://www.w3.org/2000/svg"><path d="m183.238281 28.882812-41.703125 51.449219c-15.257812-8.738281-32.46875-13.480469-50.046875-13.792969-45.832031 0-28.074219 59.542969-12.882812 96.125 1.488281 3.558594.308593 7.675782-2.835938 9.910157s-7.417969 1.996093-10.292969-.578125c-29.398437-26.839844-54.917968-70.359375-56.980468-105.703125-.527344-5.941407-.167969-11.925781 1.074218-17.753907 4.046876-19.492187 18.167969-34.191406 46.824219-38.484374 5.464844-.847657 10.984375-1.289063 16.515625-1.320313h2.0625c15.441406-.082031 30.867188.9375 46.164063 3.054687 6.191406.824219 11.972656 1.816407 17.589843 2.890626 15.320313 3.058593 30.25 7.824218 44.511719 14.203124zm0 0" fill="#fdc008"/><path d="m488.289062 66.292969v.082031c-2.0625 35.34375-27.582031 78.78125-56.980468 105.621094-2.875 2.574218-7.148438 2.8125-10.292969.578125s-4.324219-6.351563-2.835937-9.910157c.328124-.824218.660156-1.652343 1.074218-2.558593 14.863282-36.75 30.800782-93.566407-13.957031-93.566407-4.730469.007813-9.453125.394532-14.121094 1.15625-12.621093 2.082032-24.777343 6.359376-35.921875 12.636719l-6.359375-7.847656-35.34375-43.601563c14.257813-6.378906 29.1875-11.144531 44.507813-14.203124 5.617187-1.074219 11.398437-2.066407 17.589844-2.890626 10.214843-1.457031 20.496093-2.394531 30.804687-2.808593 4.953125-.164063 10.074219-.246094 15.359375-.246094h2.0625c5.53125.03125 11.054688.472656 16.519531 1.320313 28.652344 4.292968 42.773438 18.992187 46.820313 38.484374 1.242187 5.828126 1.601562 11.8125 1.074218 17.753907zm0 0" fill="#ff9701"/><path d="m464.421875 66.292969v.082031c-1.816406 30.554688-21.054687 67.054688-45.167969 93.730469 14.863282-36.75 30.800782-93.566407-13.957031-93.566407-4.730469.007813-9.453125.394532-14.121094 1.15625-3.1875-.800781-6.460937-1.1875-9.746093-1.15625-11.109376.066407-22.121094 2.078126-32.535157 5.945313l-35.34375-43.601563c14.257813-6.378906 29.1875-11.144531 44.507813-14.203124 5.617187-1.074219 11.398437-2.066407 17.589844-2.890626 10.214843-1.457031 20.496093-2.394531 30.804687-2.808593 3.375.175781 6.738281.535156 10.074219 1.074219 28.65625 4.292968 42.777344 18.992187 46.824218 38.484374 1.238282 5.828126 1.601563 11.8125 1.070313 17.753907zm0 0" fill="#fdc008"/><path d="m364.003906 124.347656v135.347656l-43.601562 211.488282h-144.019532l-43.601562-211.488282v-135.347656c.015625-60.632812 46.875-110.953125 107.351562-115.285156 2.726563-.246094 5.453126-.328125 8.261719-.328125 63.847657 0 115.609375 51.761719 115.609375 115.613281zm0 0" fill="#37474f"/><path d="m339.230469 124.347656v135.347656l-15.878907 211.488282h-148.644531l-41.925781-211.488282v-135.347656c-1.003906-59.5 43.976562-109.734375 103.222656-115.285156 26.890625 2.0625 52.066406 14.007812 70.675782 33.527344 20.988281 22.035156 32.652343 51.324218 32.550781 81.757812zm0 0" fill="#607d8a"/><path d="m207.101562 66.539062c-2.746093-.019531-5.488281.257813-8.175781.828126h-.164062c-19.242188 3.90625-33.074219 20.828124-33.074219 40.464843s13.832031 36.554688 33.074219 40.460938h.164062c2.6875.570312 5.429688.847656 8.175781.828125 22.804688 0 41.292969-18.488282 41.292969-41.289063 0-22.804687-18.488281-41.292969-41.292969-41.292969zm0 0" fill="#fff"/><path d="m289.683594 66.539062c-2.746094-.019531-5.488282.257813-8.175782.828126h-.164062c-19.246094 3.90625-33.074219 20.828124-33.074219 40.464843s13.828125 36.554688 33.074219 40.460938h.164062c2.6875.570312 5.429688.847656 8.175782.828125 22.804687 0 41.289062-18.488282 41.289062-41.289063 0-22.804687-18.484375-41.292969-41.289062-41.292969zm0 0" fill="#fff"/><path d="m223.617188 107.832031c0 9.121094-7.394532 16.515625-16.515626 16.515625-9.121093 0-16.515624-7.394531-16.515624-16.515625 0-9.125 7.394531-16.519531 16.515624-16.519531 9.121094 0 16.515626 7.394531 16.515626 16.519531zm0 0" fill="#e64c3c"/><path d="m306.199219 107.832031c0 9.121094-7.394531 16.515625-16.515625 16.515625s-16.515625-7.394531-16.515625-16.515625c0-9.125 7.394531-16.519531 16.515625-16.519531s16.515625 7.394531 16.515625 16.519531zm0 0" fill="#e64c3c"/><path d="m198.84375 198.667969h49.550781v8.257812c0 13.683594-11.09375 24.777344-24.777343 24.777344-13.679688 0-24.773438-11.09375-24.773438-24.777344zm0 0" fill="#f9eab0"/><path d="m207.101562 198.667969h33.03125v16.515625c0 9.125-7.394531 16.519531-16.515624 16.519531-9.121094 0-16.515626-7.394531-16.515626-16.519531zm0 0" fill="#ffebb2"/><path d="m248.394531 198.667969h49.546875v8.257812c0 13.683594-11.09375 24.777344-24.773437 24.777344-13.683594 0-24.773438-11.09375-24.773438-24.777344zm0 0" fill="#f9eab0"/><path d="m256.652344 198.667969h33.03125v16.515625c0 9.125-7.394532 16.519531-16.515625 16.519531-9.121094 0-16.515625-7.394531-16.515625-16.519531zm0 0" fill="#ffebb2"/><path d="m482.921875 402.726562c-16.1875 55.410157-67.304687 90.34375-119 84.230469-5.5625-.621093-11.058594-1.726562-16.433594-3.300781-56.980469-16.601562-88.609375-79.691406-70.769531-141.050781 12.160156-44.675781 49.773438-77.804688 95.628906-84.230469 13.351563-1.605469 26.894532-.484375 39.800782 3.304688 56.984374 16.597656 88.609374 79.769531 70.773437 141.046874zm0 0" fill="#37474f"/><path d="m459.550781 402.726562c-12.160156 44.675782-49.773437 77.808594-95.628906 84.230469-5.5625-.621093-11.058594-1.726562-16.433594-3.300781-56.980469-16.601562-88.609375-79.691406-70.769531-141.050781 12.160156-44.675781 49.773438-77.804688 95.628906-84.230469 5.5625.621094 11.058594 1.726562 16.433594 3.304688 56.980469 16.597656 88.609375 79.769531 70.769531 141.046874zm0 0" fill="#607d8a"/><g fill="#e81e63"><path d="m425.191406 423.609375c-4.3125 14.808594-37.824218 37.292969-68.476562 28.359375-30.65625-8.933594-46.832032-45.90625-42.511719-60.714844 4.316406-14.804687 32.660156-19.578125 63.3125-10.644531 30.652344 8.9375 51.992187 28.1875 47.675781 43zm0 0"/><path d="m402.929688 293.40625c-13.136719-3.828125-27.40625 5.492188-31.871094 20.816406-4.46875 15.324219 2.558594 30.851563 15.695312 34.679688 13.136719 3.828125 27.40625-5.488282 31.871094-20.816406 4.46875-15.324219-2.558594-30.851563-15.695312-34.679688zm0 0"/><path d="m457.460938 349.929688c-6.308594-6.589844-17.652344-5.964844-25.335938 1.390624-7.6875 7.359376-8.804688 18.664063-2.496094 25.253907 6.304688 6.589843 17.652344 5.964843 25.335938-1.390625 7.6875-7.359375 8.804687-18.664063 2.496094-25.253906zm0 0"/><path d="m347.1875 326.570312c-2.527344-10.335937-11.761719-16.957031-20.621094-14.789062s-13.992187 12.304688-11.460937 22.640625c2.527343 10.332031 11.761719 16.953125 20.621093 14.785156 8.859376-2.167969 13.992188-12.300781 11.460938-22.636719zm0 0"/></g><path d="m220.03125 342.640625c-17.867188-61.300781-78.496094-97.542969-135.417969-80.953125-56.921875 16.59375-88.582031 79.734375-70.714843 141.035156 17.867187 61.300782 78.496093 97.546875 135.417968 80.953125 56.921875-16.589843 88.582032-79.734375 70.714844-141.035156zm0 0" fill="#607d8a"/><path d="m71.597656 423.609375c4.308594 14.808594 37.820313 37.292969 68.472656 28.359375 30.65625-8.933594 46.832032-45.90625 42.515626-60.714844-4.320313-14.804687-32.664063-19.578125-63.316407-10.644531-30.652343 8.9375-51.992187 28.1875-47.671875 43zm0 0" fill="#e81e63"/><path d="m125.722656 314.222656c-4.464844-15.324218-18.738281-24.644531-31.871094-20.816406-13.136718 3.828125-20.164062 19.355469-15.699218 34.679688 4.46875 15.328124 18.738281 24.644531 31.875 20.816406 13.136718-3.828125 20.164062-19.355469 15.695312-34.679688zm0 0" fill="#e81e63"/><path d="m64.65625 351.335938c-7.683594-7.355469-19.03125-7.980469-25.335938-1.390626-6.308593 6.589844-5.191406 17.894532 2.496094 25.253907 7.683594 7.355469 19.027344 7.980469 25.335938 1.390625s5.191406-17.894532-2.496094-25.253906zm0 0" fill="#e81e63"/><path d="m170.222656 311.789062c-8.859375-2.167968-18.09375 4.453126-20.625 14.789063-2.527344 10.335937 2.605469 20.472656 11.464844 22.640625s18.09375-4.453125 20.621094-14.789062c2.53125-10.335938-2.601563-20.472657-11.460938-22.640626zm0 0" fill="#e81e63"/><path d="m207.101562 87.183594c0 6.84375-5.546874 12.386718-12.386718 12.386718s-12.386719-5.542968-12.386719-12.386718c0-6.839844 5.546875-12.386719 12.386719-12.386719s12.386718 5.546875 12.386718 12.386719zm0 0" fill="#fff"/><path d="m289.683594 87.183594c0 6.84375-5.546875 12.386718-12.386719 12.386718-6.84375 0-12.386719-5.542968-12.386719-12.386718 0-6.839844 5.542969-12.386719 12.386719-12.386719 6.839844 0 12.386719 5.546875 12.386719 12.386719zm0 0" fill="#fff"/><path d="m419.996094 393.773438c-11.691406-9.882813-25.402344-17.082032-40.175782-21.089844-14.613281-4.558594-30.046874-5.855469-45.214843-3.800782-15.242188 2.570313-25.308594 9.6875-28.332031 20.058594-5.894532 20.242188 13.742187 60.929688 48.128906 70.953125 5.511718 1.589844 11.222656 2.390625 16.960937 2.371094 11.535157-.128906 22.878907-2.933594 33.148438-8.183594 12.808593-5.347656 23.054687-15.4375 28.605469-28.160156 3.023437-10.371094-1.636719-21.792969-13.121094-32.148437zm-2.734375 27.515624c-4.460938 8.117188-11.554688 14.46875-20.117188 18.003907-11.695312 6.203125-25.261719 7.890625-38.117187 4.738281-26.476563-7.71875-39.914063-40.15625-36.898438-50.472656 1.105469-3.78125 6.9375-7.003906 15.210938-8.398438 3.417968-.554687 6.875-.832031 10.339844-.824218 9.320312.089843 18.578124 1.480468 27.515624 4.128906 12.371094 3.34375 23.875 9.3125 33.734376 17.496094 6.277343 5.699218 9.4375 11.546874 8.332031 15.328124zm0 0"/><path d="m384.445312 356.828125c2.722657.800781 5.550782 1.203125 8.390626 1.203125 6.277343-.050781 12.40625-1.941406 17.621093-5.441406 7.839844-5.242188 13.550781-13.113282 16.09375-22.195313 6.429688-18.285156-3.082031-38.335937-21.3125-44.917969-18.910156-4.238281-37.703125 7.554688-42.117187 26.425782-2.730469 9.027344-2.144532 18.734375 1.652344 27.367187 3.628906 8.480469 10.835937 14.914063 19.671874 17.558594zm-5.460937-40.300781c1.925781-8.5625 9.144531-14.910156 17.878906-15.730469 1.273438-.003906 2.539063.179687 3.757813.535156 9.410156 4.089844 13.871094 14.914063 10.074218 24.445313-1.441406 5.292968-4.730468 9.898437-9.273437 12.980468-3.546875 2.628907-8.117187 3.449219-12.359375 2.214844-4.238281-1.238281-7.65625-4.382812-9.234375-8.507812-2.164063-5.042969-2.460937-10.691406-.84375-15.9375zm0 0"/><path d="m417.410156 363.433594c-.835937 6.660156 1.265625 13.355468 5.753906 18.347656 4.492188 4.988281 10.929688 7.78125 17.640626 7.648438.472656 0 .941406 0 1.421874-.039063 6.929688-.449219 13.46875-3.363281 18.441407-8.210937 10.90625-9.460938 12.136719-25.953126 2.757812-36.929688-4.867187-4.949219-11.648437-7.53125-18.574219-7.070312-14.261718 1.054687-25.773437 12.074218-27.449218 26.277343zm16.433594 1.652344c.855469-6.105469 5.78125-10.835938 11.917969-11.4375h.519531c1.941406-.066407 3.824219.660156 5.21875 2.015624 2.941406 4.410157 1.957031 10.34375-2.246094 13.574219-2.132812 2.109375-4.9375 3.402344-7.929687 3.652344-2.121094.285156-4.25-.457031-5.730469-2.003906s-2.132812-3.710938-1.75-5.816407zm0 0"/><path d="m307.074219 336.378906c2.546875 12.082032 12.945312 20.914063 25.277343 21.472656 1.796876 0 3.589844-.214843 5.335938-.644531 13.804688-4.222656 21.628906-18.785156 17.53125-32.628906-1.59375-6.757813-5.550781-12.726563-11.15625-16.828125-5.585938-4.121094-12.695312-5.589844-19.457031-4.015625-13.816407 4.222656-21.644531 18.796875-17.53125 32.644531zm21.472656-16.582031c2.074219-.410156 4.230469.101563 5.902344 1.398437 2.382812 1.820313 4.054687 4.417969 4.722656 7.339844 1.8125 4.984375-.550781 10.523438-5.40625 12.660156-4.335937 1.074219-9.207031-2.949218-10.628906-8.730468-1.8125-4.984375.546875-10.523438 5.402343-12.667969zm0 0"/><path d="m190.511719 388.941406c-3.023438-10.371094-13.089844-17.488281-28.332031-20.058594-15.171876-2.042968-30.605469-.746093-45.222657 3.800782-14.769531 4.011718-28.480469 11.210937-40.167969 21.089844-11.484374 10.355468-16.144531 21.777343-13.121093 32.148437 5.554687 12.722656 15.800781 22.808594 28.605469 28.160156 10.269531 5.253907 21.617187 8.054688 33.148437 8.183594 5.738281.019531 11.449219-.78125 16.960937-2.371094 34.386719-10.023437 54.027344-50.710937 48.128907-70.953125zm-52.777344 55.097656c-12.855469 3.160157-26.425781 1.472657-38.117187-4.738281-8.5625-3.535156-15.660157-9.886719-20.117188-18.003906-1.109375-3.78125 2.089844-9.628906 8.332031-15.25 9.855469-8.183594 21.359375-14.152344 33.726563-17.5 8.9375-2.648437 18.199218-4.035156 27.523437-4.128906 3.460938-.007813 6.921875.269531 10.339844.824219 8.257813 1.398437 14.113281 4.617187 15.210937 8.398437 3.039063 10.242187-10.398437 42.679687-36.898437 50.398437zm0 0"/><path d="m86.328125 352.589844c5.214844 3.5 11.34375 5.390625 17.621094 5.441406 2.839843 0 5.660156-.402344 8.382812-1.203125 8.835938-2.644531 16.042969-9.078125 19.671875-17.558594 3.796875-8.632812 4.382813-18.339843 1.652344-27.367187-4.421875-18.863282-23.207031-30.652344-42.117188-26.425782-18.222656 6.589844-27.730468 26.636719-21.304687 44.917969 2.542969 9.082031 8.253906 16.953125 16.09375 22.195313zm9.828125-51.257813c1.21875-.355469 2.484375-.535156 3.757812-.535156 8.738282.816406 15.960938 7.167969 17.886719 15.730469 1.625 5.242187 1.332031 10.890625-.828125 15.9375-1.578125 4.125-4.996094 7.269531-9.234375 8.507812-4.238281 1.234375-8.8125.414063-12.359375-2.214844-4.539062-3.082031-7.828125-7.6875-9.273437-12.980468-3.796875-9.523438.652343-20.34375 10.050781-24.445313zm0 0"/><path d="m79.375 363.433594c-1.679688-14.199219-13.191406-25.21875-27.449219-26.277344-6.929687-.484375-13.71875 2.101562-18.574219 7.070312-9.390624 10.980469-8.160156 27.480469 2.757813 36.945313 4.972656 4.847656 11.511719 7.761719 18.441406 8.207031.480469 0 .949219.042969 1.421875.042969 6.707032.132813 13.140625-2.65625 17.632813-7.640625 4.492187-4.984375 6.597656-11.671875 5.769531-18.332031zm-18.167969 7.433594c-1.539062 1.449218-3.625 2.175781-5.730469 1.996093-2.988281-.25-5.796874-1.539062-7.929687-3.648437-4.203125-3.230469-5.183594-9.164063-2.246094-13.578125 1.394531-1.351563 3.277344-2.078125 5.21875-2.011719h.523438c6.125.597656 11.046875 5.308594 11.914062 11.402344.289063 2.113281-.355469 4.246094-1.765625 5.847656zm0 0"/><path d="m159.097656 357.222656c1.746094.429688 3.539063.648438 5.335938.644532 12.335937-.558594 22.730468-9.386719 25.277344-21.46875 4.097656-13.84375-3.726563-28.402344-17.53125-32.621094-6.761719-1.570313-13.871094-.105469-19.457032 4.011718-5.605468 4.105469-9.5625 10.078126-11.15625 16.839844-4.082031 13.835938 3.738282 28.375 17.53125 32.59375zm-1.476562-28.695312c.667968-2.921875 2.339844-5.519532 4.722656-7.339844 1.300781-.964844 2.859375-1.507812 4.476562-1.5625.484376 0 .964844.054688 1.4375.164062 4.84375 2.148438 7.203126 7.675782 5.398438 12.660157-1.417969 5.78125-6.234375 9.761719-10.636719 8.730469-4.839843-2.144532-7.195312-7.664063-5.398437-12.644532zm0 0"/><path d="m432.441406.878906c-.175781 0-.324218-.082031-.496094-.066406h-.074218c-3.203125-.203125-6.53125-.335938-10.058594-.335938-36.738281-.890624-73.28125 5.617188-107.453125 19.132813-40.242187-25.539063-91.613281-25.539063-131.859375 0-34.195312-13.53125-70.761719-20.035156-107.527344-19.132813-3.527344 0-6.851562.132813-10.058594.34375h-.074218c-.152344.015626-.304688.039063-.453125.066407-43.453125 3.105469-58.128907 25.445312-62.613281 44.429687-11.914063 50.433594 38.367187 128.652344 86.023437 152.527344 3.21875 1.613281 7.109375.957031 9.621094-1.621094s3.0625-6.488281 1.363281-9.660156c-15.898438-29.828125-36.707031-84.398438-24.957031-104.003906 1.976562-3.335938 6.011719-7.761719 17.664062-7.761719 13.800781.253906 27.367188 3.578125 39.722657 9.730469-4.40625 12.8125-6.667969 26.269531-6.6875 39.820312v125.859375c-14.171876-1.609375-28.523438-.402343-42.226563 3.550781-61.191406 17.847657-95.445313 85.703126-76.328125 151.28125 14.144531 52.453126 61.027344 89.410157 115.332031 90.921876 20.269531.019531 40.132813-5.707032 57.277344-16.519532h139.621094c17.148437 10.8125 37.011719 16.539063 57.285156 16.519532 54.300781-1.527344 101.171875-38.480469 115.332031-90.921876 19.117188-65.578124-15.136718-133.433593-76.328125-151.28125-13.703125-3.953124-28.054687-5.15625-42.222656-3.542968v-125.867188c-.027344-13.554687-2.28125-27.007812-6.675781-39.828125 12.351562-6.148437 25.914062-9.46875 39.707031-9.722656 11.652344 0 15.691406 4.425781 17.65625 7.753906 11.757813 19.582031-9.085937 74.167969-24.949219 103.980469-1.363281 2.558594-1.28125 5.644531.210938 8.132812 1.492187 2.484376 4.179687 4.003907 7.082031 4.003907 1.28125 0 2.542969-.296875 3.691406-.867188 47.65625-23.832031 97.941407-102.050781 86.023438-152.484375-4.476563-18.976562-19.152344-41.304687-62.570313-44.4375zm-340.953125 57.402344c-12.71875-1.074219-24.980469 5.003906-31.824219 15.78125-13.371093 22.296875-.621093 63.355469 11.03125 91.417969-26.375-24.320313-49.96875-63.429688-53.695312-95.414063 7.953125 3.101563 16.40625 4.707032 24.941406 4.730469 4.5625 0 8.257813-3.695313 8.257813-8.257813 0-4.558593-3.695313-8.257812-8.257813-8.257812-8.578125 0-17.023437-2.097656-24.601562-6.109375.175781-1.023437.273437-2.074219.503906-3.066406 4.015625-17 17.21875-27.160157 39.035156-30.675781.582032 10.851562 4.914063 21.164062 12.257813 29.175781 3.238281 3.128906 8.390625 3.082031 11.574219-.101563 3.1875-3.1875 3.230468-8.335937.101562-11.578125-4.59375-5.246093-7.269531-11.894531-7.597656-18.859375.609375-.007812 1.140625-.074218 1.757812-.074218 13.777344-.023438 27.542969.804687 41.214844 2.476562-3.804688 6.414062-6.515625 13.414062-8.023438 20.71875-.636718 2.921875.355469 5.957031 2.59375 7.9375 2.242188 1.984375 5.375 2.597656 8.195313 1.613281 2.824219-.984375 4.894531-3.417969 5.410156-6.363281 1.625-7.667969 4.925781-14.882812 9.671875-21.125 11.203125 2.117188 22.21875 5.121094 32.941406 8.988281-12.183593 10.660157-22.164062 23.597657-29.390624 38.085938-14.367188-7.019531-30.105469-10.789063-46.097657-11.042969zm55.511719 417.46875c-52.445312 15.253906-108.617188-18.496094-125.183594-75.335938-16.566406-56.839843 12.691406-115.507812 65.105469-130.800781 8.359375-2.4375 17.019531-3.675781 25.726563-3.675781 46.949218 1.519531 87.359374 33.625 99.449218 79.015625 8.117188 26.96875 5.699219 56.015625-6.761718 81.273437-11.621094 23.976563-32.792969 41.949219-58.335938 49.523438zm262.863281-206.136719c52.453125 15.292969 81.65625 73.96875 65.105469 130.800781-16.546875 56.832032-72.726562 90.589844-125.191406 75.335938-25.542969-7.582031-46.714844-25.566406-58.328125-49.546875-12.460938-25.257813-14.878907-54.304687-6.761719-81.277344 16.558594-56.796875 72.761719-90.589843 125.175781-75.3125zm-85.628906-2.757812c-14.972656-12.765625-34.734375-13.285157-55.328125-.949219-3.914062 2.34375-5.183594 7.417969-2.839844 11.328125 2.34375 3.914063 7.414063 5.1875 11.328125 2.84375 13.007813-7.804687 23.800781-8.761719 32.808594-3.097656-19.816406 16.507812-34.234375 38.574219-41.386719 63.355469-9.296875 30.976562-6.492187 64.328124 7.851563 93.316406 5.390625 10.773437 12.417969 20.648437 20.828125 29.273437h-98.207032c8.410157-8.632812 15.429688-18.515625 20.8125-29.296875 14.34375-28.988281 17.148438-62.339844 7.851563-93.316406-7.148437-24.785156-21.566406-46.855469-41.386719-63.367188 9.007813-5.65625 19.816406-4.6875 32.808594 3.105469 3.914062 2.34375 8.984375 1.074219 11.328125-2.839843 2.34375-3.914063 1.074219-8.984376-2.839844-11.328126-20.570312-12.339843-40.324219-11.808593-55.328125.949219-9.777344-6.046875-20.390625-10.621093-31.496094-13.585937v-128.898438c0-59.292968 48.0625-107.355468 107.355469-107.355468 59.289063 0 107.351563 48.0625 107.351563 107.355468v128.898438c-11.109375 2.972656-21.726563 7.558594-31.511719 13.609375zm101.855469-101.375c11.652344-28.078125 24.402344-69.128907 11.03125-91.417969-6.839844-10.777344-19.105469-16.855469-31.824219-15.78125-15.96875.246094-31.6875 4.003906-46.039063 11-5.960937-12.027344-13.820312-23.015625-23.28125-32.535156-1.964843-1.957032-4.054687-3.734375-6.125-5.542969 10.710938-3.851563 21.710938-6.851563 32.898438-8.96875 4.746094 6.242187 8.046875 13.457031 9.671875 21.125.519531 2.945313 2.585937 5.378906 5.410156 6.363281 2.820313.984375 5.957031.367188 8.195313-1.613281 2.238281-1.980469 3.230468-5.015625 2.59375-7.9375-1.507813-7.296875-4.21875-14.292969-8.023438-20.703125 13.671875-1.671875 27.4375-2.5 41.214844-2.476562.617188 0 1.148438.066406 1.757812.074218-.328124 6.964844-3.003906 13.613282-7.597656 18.859375-2.144531 2.074219-3.007812 5.144531-2.25 8.03125.753906 2.886719 3.007813 5.144531 5.898438 5.898438 2.886718.757812 5.957031-.105469 8.03125-2.25 7.34375-8.011719 11.675781-18.324219 12.253906-29.175781 21.816406 3.476562 35.023438 13.675781 39.035156 30.675781.230469.992187.332032 2.042969.503906 3.066406-7.578124 4.011719-16.023437 6.109375-24.601562 6.109375-4.558594 0-8.257812 3.699219-8.257812 8.257812 0 4.5625 3.699218 8.257813 8.257812 8.257813 8.535156-.023437 16.988281-1.628906 24.941406-4.730469-3.726562 31.984375-27.320312 71.09375-53.695312 95.414063zm0 0"/><path d="m207.101562 157.378906c16.617188-.011718 32.125-8.355468 41.292969-22.214844 12.0625 18.238282 34.65625 26.414063 55.597657 20.113282 20.941406-6.296875 35.277343-25.578125 35.277343-47.445313 0-21.871093-14.335937-41.152343-35.277343-47.449219-20.941407-6.300781-43.535157 1.875-55.597657 20.113282-13.0625-19.742188-38.261719-27.492188-60.15625-18.496094-21.898437 8.996094-34.371093 32.222656-29.777343 55.445312 4.59375 23.222657 24.96875 39.949219 48.640624 39.933594zm82.582032-82.582031c18.242187 0 33.03125 14.789063 33.03125 33.035156 0 18.242188-14.789063 33.03125-33.03125 33.03125-18.242188 0-33.03125-14.789062-33.03125-33.03125 0-18.246093 14.789062-33.035156 33.03125-33.035156zm-82.582032 0c18.242188 0 33.03125 14.789063 33.03125 33.035156 0 18.242188-14.789062 33.03125-33.03125 33.03125-18.242187 0-33.03125-14.789062-33.03125-33.03125 0-18.246093 14.789063-33.035156 33.03125-33.035156zm0 0"/><path d="m215.359375 107.832031c0 4.558594-3.695313 8.257813-8.257813 8.257813-4.558593 0-8.257812-3.699219-8.257812-8.257813 0-4.5625 3.699219-8.261719 8.257812-8.261719 4.5625 0 8.257813 3.699219 8.257813 8.261719zm0 0"/><path d="m297.941406 107.832031c0 4.558594-3.699218 8.257813-8.257812 8.257813-4.5625 0-8.257813-3.699219-8.257813-8.257813 0-4.5625 3.695313-8.261719 8.257813-8.261719 4.558594 0 8.257812 3.699219 8.257812 8.261719zm0 0"/><path d="m330.972656 157.378906c-4.558594 0-8.257812 3.695313-8.257812 8.257813 0 13.683593-11.089844 24.773437-24.773438 24.773437h-99.097656c-13.683594 0-24.773438-11.089844-24.773438-24.773437 0-4.5625-3.699218-8.257813-8.257812-8.257813-4.5625 0-8.257812 3.695313-8.257812 8.257813.023437 19.613281 13.820312 36.511719 33.03125 40.464843v.824219c-.0625 13.777344 8.46875 26.128907 21.371093 30.953125 12.902344 4.828125 27.441407 1.101563 36.4375-9.332031 8.992188 10.433594 23.535157 14.160156 36.433594 9.332031 12.902344-4.824218 21.433594-17.175781 21.371094-30.953125v-.824219c19.210937-3.953124 33.007812-20.851562 33.03125-40.464843 0-4.5625-3.695313-8.257813-8.257813-8.257813zm-107.355468 66.0625c-9.121094 0-16.515626-7.394531-16.515626-16.515625h33.03125c0 9.121094-7.394531 16.515625-16.515624 16.515625zm49.550781 0c-9.121094 0-16.515625-7.394531-16.515625-16.515625h33.03125c0 9.121094-7.394532 16.515625-16.515625 16.515625zm0 0"/></svg>