<svg height="504pt" viewBox="0 0 504 504.38764" width="504pt" xmlns="http://www.w3.org/2000/svg"><path d="m495.578125 470.703125c-.210937 4.675781-1.625 9.214844-4.113281 13.179687-4.5 5.886719-11.476563 9.359376-18.886719 9.398438-3.5.136719-7-.203125-10.40625-1.003906-19.304687-4.28125-34.582031-21.488282-54.894531-20.398438-2.054688.105469-4.082032.472656-6.042969 1.089844-8.648437 3.90625-16.933594 8.570312-24.761719 13.933594-10.59375 5.347656-22.21875 8.355468-34.078125 8.8125-3.28125.09375-6.5625-.074219-9.820312-.5-14.488281-2.371094-27.890625-9.175782-38.355469-19.472656-11.773438-9.773438-26.769531-14.800782-42.050781-14.101563-2.855469 0-5.542969.167969-8.226563.417969-10.65625 1.226562-20.855468 5.027344-29.714844 11.078125-9.238281 6.921875-19.066406 13.019531-29.375 18.214843-10.007812 4.222657-20.976562 5.640626-31.726562 4.113282-6.207031-.859375-12.273438-2.523438-18.046875-4.953125-12.171875-5.117188-23-18.800781-36.34375-19.890625-3.4375-.164063-6.871094.410156-10.070313 1.679687-.757812.25-1.511718.5-2.269531.835938-18.042969 7.472656-33.65625 20.984375-54.21875 20.480469-2.269531-.035157-4.523437-.34375-6.714843-.921876-10.335938-2.492187-17.382813-12.054687-16.703126-22.664062-1.378906-18.273438 4.777344-36.316406 17.039063-49.9375 11.160156-11.921875 25.765625-18.132812 39.195313-27.027344 13.816406-8.695312 26.050781-19.679687 36.175781-32.484375 14.851562-21.523437 23.953125-46.488281 26.441406-72.519531 5.660156-47.875 8.015625-96.082031 7.050781-144.28125l.5-33.742188 8.730469-33.492187c18.980469-38.582031 56.855469-64.34375 99.714844-67.816406h.335937c2.769532-.253907 5.457032-.335938 8.226563-.335938 46.164062.417969 88.125 26.90625 108.359375 68.40625l8.644531 32.398438.417969 33.742187c-.167969 25.683594-.335938 51.367188 1.007812 77.132813 1.847656 36.597656 4.617188 73.949219 16.785156 108.78125 5.582032 17.613281 15.414063 33.582031 28.625 46.5 17.121094 15.863281 40.203126 23.585937 56.488282 40.203125 14.6875 15.109375 25.261718 33.324218 23.082031 55.144531zm0 0" fill="#9d9c24"/><path d="m470.117188 470.703125c-.199219 4.664063-1.589844 9.203125-4.035157 13.179687-2.949219 4.1875-7.308593 7.167969-12.28125 8.394532-18.941406-4.28125-33.941406-21.488282-53.875-20.398438-2.019531.105469-4.011719.472656-5.933593 1.089844-3.445313-.871094-6.996094-1.238281-10.542969-1.089844-11.871094.589844-20.101563 9.90625-30.21875 15.023438-8.328125 4.269531-17.328125 7.078125-26.605469 8.3125-14.277344-2.402344-27.445312-9.210938-37.652344-19.472656-11.488281-9.753907-26.242187-14.792969-41.296875-14.101563-2.804687 0-5.4375.167969-8.074219.417969-2.804687-.25-5.597656-.417969-8.394531-.417969-13.3125-.179687-26.34375 3.84375-37.242187 11.496094-9.050782 6.914062-18.699219 13.007812-28.828125 18.214843-4.671875 2.054688-9.609375 3.441407-14.664063 4.113282-6.101562-.863282-12.058594-2.527344-17.71875-4.953125-11.945312-5.117188-22.570312-18.800781-35.671875-19.890625-3.378906-.160156-6.753906.410156-9.890625 1.679687-2.082031-.933593-4.3125-1.5-6.585937-1.679687-4.179688-.140625-8.332031.722656-12.113281 2.515625-14.664063 6.210937-27.765626 16.535156-43.335938 19.558593-10.226562-2.597656-17.128906-12.136718-16.398438-22.664062-1.378906-18.21875 4.652344-36.222656 16.726563-49.9375 10.953125-11.921875 25.289063-18.132812 38.46875-27.027344 13.601563-8.726562 25.609375-19.710937 35.511719-32.484375 14.605468-21.609375 23.535156-46.550781 25.960937-72.519531 5.554688-47.882812 7.867188-96.085938 6.914063-144.28125l.496094-33.742188 8.535156-33.492187c18.304687-38.359375 55.554687-64.164063 97.902344-67.816406h.304687c42.441406 3.625 79.75 29.554687 97.949219 68.070312l8.496094 32.398438.410156 33.742187c-.167969 25.683594-.335938 51.367188.980468 77.132813 1.8125 36.597656 4.535157 73.949219 16.476563 108.78125 5.445313 17.554687 15.089844 33.515625 28.101563 46.5 16.789062 15.863281 39.449218 23.585937 55.4375 40.203125 15.445312 14.054687 23.773437 34.292968 22.6875 55.144531zm0 0" fill="#ccdb39"/><path d="m161.515625 75.808594c-18.441406 3.984375-37.609375-2.117188-50.359375-16.023438-25.179688-24.027344-83.933594 0-50.359375 48.070313 33.574219 48.070312 73.863281-16.953125 109.113281-.738281 42.648438 19.625-8.394531-31.308594-8.394531-31.308594zm0 0" fill="#ccdb39"/><path d="m445.382812 107.855469c-13.511718 19.304687-28.117187 20.394531-42.972656 15.695312-21.824218-6.714843-44.402344-25.597656-65.300781-16.785156-.253906.082031-.589844.25-.839844.335937-16.957031 7.804688-19.054687 4.449219-15.359375-2.519531 6.882813-10.402343 14.847656-20.050781 23.753906-28.789062 18.441407 4.007812 37.625-2.101563 50.359376-16.03125 3.589843-3.394531 7.890624-5.945313 12.589843-7.46875 27.613281-9.152344 66.476563 14.433593 37.769531 55.5625zm0 0" fill="#9d9c24"/><path d="m420.203125 107.855469c-4.320313 6.816406-10.492187 12.257812-17.792969 15.695312-21.824218-6.714843-44.402344-25.597656-65.300781-16.785156-5.207031-1.78125-10.710937-2.523437-16.199219-2.183594 6.882813-10.402343 14.847656-20.050781 23.753906-28.789062 18.441407 4.007812 37.625-2.101563 50.359376-16.03125 3.589843-3.394531 7.890624-5.945313 12.589843-7.46875 19.386719 6.210937 32.902344 26.4375 12.589844 55.5625zm0 0" fill="#ccdb39"/><path d="m210.199219 134.296875c-2.792969-.023437-5.578125.257813-8.308594.835937h-.167969c-19.558594 3.972657-33.617187 21.171876-33.617187 41.128907 0 19.960937 14.058593 37.15625 33.617187 41.128906h.167969c2.730469.578125 5.515625.859375 8.308594.839844 23.179687 0 41.96875-18.789063 41.96875-41.96875 0-23.175781-18.789063-41.964844-41.96875-41.964844zm0 0" fill="#fff"/><path d="m294.132812 134.296875c-2.792968-.023437-5.578124.257813-8.308593.835937h-.167969c-19.558594 3.972657-33.617188 21.171876-33.617188 41.128907 0 19.960937 14.058594 37.15625 33.617188 41.128906h.167969c2.730469.578125 5.515625.859375 8.308593.839844 23.179688 0 41.96875-18.789063 41.96875-41.96875 0-23.175781-18.789062-41.964844-41.96875-41.964844zm0 0" fill="#fff"/><path d="m226.984375 176.261719c0 9.273437-7.515625 16.789062-16.785156 16.789062s-16.785157-7.515625-16.785157-16.789062c0-9.269531 7.515626-16.785157 16.785157-16.785157s16.785156 7.515626 16.785156 16.785157zm0 0" fill="#e81e63"/><path d="m310.921875 176.261719c0 9.273437-7.515625 16.789062-16.789063 16.789062-9.269531 0-16.785156-7.515625-16.785156-16.789062 0-9.269531 7.515625-16.785157 16.785156-16.785157 9.273438 0 16.789063 7.515626 16.789063 16.785157zm0 0" fill="#e81e63"/><path d="m210.199219 159.476562c0 9.269532-7.515625 16.785157-16.785157 16.785157-9.273437 0-16.789062-7.515625-16.789062-16.785157 0-9.273437 7.515625-16.789062 16.789062-16.789062 9.269532 0 16.785157 7.515625 16.785157 16.789062zm0 0" fill="#fff"/><path d="m294.132812 159.476562c0 9.269532-7.515624 16.785157-16.785156 16.785157-9.273437 0-16.789062-7.515625-16.789062-16.785157 0-9.273437 7.515625-16.789062 16.789062-16.789062 9.269532 0 16.785156 7.515625 16.785156 16.789062zm0 0" fill="#fff"/><path d="m31.972656 502.011719c15.066406-.601563 29.6875-5.273438 42.3125-13.511719 4.972656-2.796875 10.085938-5.335938 15.316406-7.613281 2.636719-1.269531 5.527344-1.925781 8.453126-1.914063 6.671874 1.597656 12.832031 4.847656 17.917968 9.449219 4.898438 3.886719 10.230469 7.1875 15.890625 9.839844 9.449219 3.976562 19.59375 6.058593 29.847657 6.125 9.078124.035156 18.066406-1.773438 26.421874-5.320313 8.128907-3.753906 15.847657-8.34375 23.023438-13.699218 2.519531-1.761719 5.078125-3.523438 7.65625-5.203126 9.789062-6.773437 21.449219-10.316406 33.355469-10.132812 13.246093-.746094 26.285156 3.539062 36.5 12.003906 14.382812 14.175782 33.769531 22.105469 53.964843 22.074219 13.074219-.480469 25.890626-3.78125 37.566407-9.683594 3.707031-1.933593 7.285156-4.105469 10.710937-6.507812 4.804688-4.015625 10.605469-6.660157 16.785156-7.652344 9.9375.5625 19.519532 3.859375 27.699219 9.523437 11.160157 7.394532 24.164063 11.507813 37.542969 11.878907 10.023438-.148438 19.402344-4.953125 25.382812-12.992188 3.34375-5.121093 5.289063-11.027343 5.648438-17.132812 2.148438-21.476563-6.410156-42.277344-25.441406-61.859375-9.359375-8.84375-19.816406-16.449219-31.121094-22.621094-9.148438-5.070312-17.753906-11.0625-25.683594-17.886719-12.203125-11.96875-21.261718-26.769531-26.371094-43.082031-11.820312-33.835938-14.546874-71.132812-16.335937-106.453125-1.324219-25.527344-1.148437-51.511719-.988281-76.808594l-.253906-20.53125.949218.445313c11.496094 6.476562 24.265625 10.371094 37.417969 11.414062 14.988281-.359375 28.707031-8.503906 36.191406-21.496094 18.902344-27.050781 11.753907-48.597656-1.242187-59.742187-18.015625-14.917969-44.1875-14.5625-61.792969.839844-6.652344 6.640625-14.957031 11.390625-24.054687 13.753906-22.859376-41.148437-66.003907-66.910156-113.074219-67.515625-46.878907.632812-89.871094 26.183594-112.835938 67.054688-8.429687-2.546876-16.105469-7.125-22.351562-13.335938-17.601563-15.394531-43.773438-15.75-61.792969-.839844-12.992188 11.144532-20.144531 32.691406-1.242188 59.746094 7.484376 13.015625 21.21875 21.179688 36.226563 21.535156 12.792969-.953125 25.222656-4.675781 36.429687-10.910156l-.335937 20.53125c1.003906 47.816406-1.328125 95.644531-6.976563 143.140625-2.230468 24.632813-10.785156 48.269531-24.835937 68.625-9.523437 12.070313-21.054687 22.40625-34.09375 30.550781-3.953125 2.621094-8.023437 4.996094-12.0625 7.363282-10.515625 5.511718-20.164063 12.546874-28.628906 20.871093-13.707031 15.191407-20.671875 35.285157-19.304688 55.699219-.3906248 8.53125 2.800781 16.839844 8.804688 22.910156 6 6.074219 14.269531 9.363282 22.804687 9.070313zm368.875-436.148438c11.398438-9.335937 27.777344-9.417969 39.273438-.203125 9.886718 8.480469 9.324218 21.765625-1.59375 37.386719-14.765625 21.132813-28.898438 15.804687-52.652344 4.53125-4.316406-2.046875-8.78125-4.195313-13.355469-6.015625l-.199219-.085938c-7.46875-3.292968-15.496093-5.132812-23.65625-5.414062-4.496093-.019531-8.960937.765625-13.183593 2.316406 3.398437-4.136718 7.59375-8.855468 12.011719-13.429687 19.796874 2.378906 39.558593-4.691407 53.355468-19.085938zm-333.144531 37.183594c-10.910156-15.621094-11.472656-28.90625-1.585937-37.386719 5.710937-4.558594 12.820312-7 20.128906-6.90625 7.050781-.1875 13.910156 2.34375 19.144531 7.074219 13.792969 14.402344 33.554687 21.480469 53.355469 19.113281 4.425781 4.582032 8.621094 9.300782 12.011718 13.429688-17.425781-6.453125-34.882812 1.839844-50.359374 9.234375-23.761719 11.246093-37.921876 16.617187-52.695313-4.558594zm-35.78125 322.777344c7.378906-7.136719 15.753906-13.167969 24.863281-17.902344 4.304688-2.519531 8.628906-5.035156 12.859375-7.863281 14.628907-9.179688 27.558594-20.824219 38.214844-34.414063 15.804687-22.621093 25.476563-48.957031 28.066406-76.433593 5.703125-48.214844 8.082031-96.761719 7.125-145.304688l.421875-28.109375c7.210938-3.386719 15.472656-3.765625 22.964844-1.050781 7.265625 3.359375 20.789062 9.542968 26.992188.648437 2.820312-4.054687 8.058593-11.59375-25.953126-45.527343-2.210937-2.171876-5.425781-2.964844-8.394531-2.074219-.082031 0-.402343.109375-.839843.210937 20.941406-31.523437 56.082031-50.6875 93.925781-51.21875 37.671875.503906 72.6875 19.492188 93.660156 50.789063-2.582031-.375-5.195313.472656-7.066406 2.292969-34.003907 33.933593-28.765625 41.472656-25.953125 45.527343 6.195312 8.902344 19.726562 2.691407 26.992187-.648437 6.8125-2.5625 14.351563-2.40625 21.050781.429687l.34375 27.699219c-.15625 25.371094-.332031 51.617188 1.015626 77.621094 1.847656 36.527344 4.703124 75.1875 17.25 111.113281 5.996093 18.925781 16.59375 36.070313 30.839843 49.898437 8.753907 7.609376 18.28125 14.289063 28.417969 19.933594 10.058594 5.457032 19.382812 12.164063 27.757812 19.960938 15.621094 16.0625 22.402344 31.894531 20.738282 48.539062-.082032 3.257813-1.011719 6.441406-2.691406 9.230469-3.027344 3.675781-7.554688 5.785156-12.316407 5.742187-10.277343-.585937-20.199219-3.992187-28.671875-9.84375-10.8125-7.367187-23.550781-11.398437-36.636718-11.585937-9.257813 1.03125-18.039063 4.664063-25.3125 10.484375-2.8125 1.980469-5.746094 3.78125-8.789063 5.390625-9.503906 4.828125-19.941406 7.546875-30.59375 7.964844-15.976563.078125-31.292969-6.378907-42.394531-17.871094-13.296875-11.167969-30.292969-16.949219-47.640625-16.207031-15.160157-.1875-30.011719 4.304687-42.523438 12.867187-2.71875 1.769531-5.386719 3.625-8.066406 5.480469-6.246094 4.6875-12.957031 8.722656-20.027344 12.042969-13.925781 5.570312-29.515625 5.269531-43.214843-.835938-4.421876-2.164062-8.589844-4.808593-12.433594-7.882812-7.484375-6.601563-16.660156-10.988281-26.496094-12.664063-5.570312-.257812-11.125.8125-16.199219 3.128906-5.761719 2.496094-11.390625 5.28125-16.871093 8.34375-10.140626 6.679688-21.828126 10.644532-33.945313 11.507813-4.132813.359375-8.21875-1.121094-11.15625-4.054687-2.941406-2.929688-4.433594-7.011719-4.085937-11.148438 0-20.25 4.273437-33.050781 14.773437-44.207031zm0 0"/><path d="m210.199219 226.621094c16.890625-.011719 32.648437-8.488282 41.96875-22.578125 12.261719 18.539062 35.222656 26.847656 56.507812 20.445312 21.285157-6.402343 35.855469-26 35.855469-48.226562 0-22.226563-14.570312-41.824219-35.855469-48.226563-21.285156-6.402344-44.246093 1.90625-56.507812 20.445313-13.273438-20.066407-38.890625-27.945313-61.144531-18.800781-22.253907 9.144531-34.933594 32.75-30.265626 56.355468 4.667969 23.601563 25.382813 40.605469 49.441407 40.585938zm83.933593-83.933594c18.542969 0 33.574219 15.03125 33.574219 33.574219s-15.03125 33.574219-33.574219 33.574219c-18.542968 0-33.574218-15.03125-33.574218-33.574219s15.03125-33.574219 33.574218-33.574219zm-83.933593 0c18.542969 0 33.574219 15.03125 33.574219 33.574219s-15.03125 33.574219-33.574219 33.574219-33.574219-15.03125-33.574219-33.574219 15.03125-33.574219 33.574219-33.574219zm0 0"/><path d="m218.59375 176.261719c0 4.636719-3.757812 8.394531-8.394531 8.394531s-8.394531-3.757812-8.394531-8.394531 3.757812-8.394531 8.394531-8.394531 8.394531 3.757812 8.394531 8.394531zm0 0"/><path d="m302.527344 176.261719c0 4.636719-3.757813 8.394531-8.394532 8.394531-4.636718 0-8.394531-3.757812-8.394531-8.394531s3.757813-8.394531 8.394531-8.394531c4.636719 0 8.394532 3.757812 8.394532 8.394531zm0 0"/><path d="m284.734375 259.171875-1.453125 1.445313c-3.320312 3.179687-8.554688 3.179687-11.878906 0l-1.425782-1.425782c-9.960937-9.511718-25.640624-9.511718-35.605468 0l-1.449219 1.441406c-3.320313 3.179688-8.558594 3.179688-11.878906 0l-1.425781-1.425781c-9.964844-9.519531-25.652344-9.519531-35.613282 0l-13.3125 13.304688c-3.179687 3.292969-3.136718 8.527343.101563 11.765625 3.238281 3.234375 8.472656 3.28125 11.765625.101562l13.3125-13.304687c3.320312-3.179688 8.558594-3.179688 11.878906 0l1.425781 1.425781c9.964844 9.511719 25.640625 9.511719 35.605469 0l1.449219-1.441406c3.324219-3.179688 8.558593-3.179688 11.878906 0l1.425781 1.425781c9.964844 9.507813 25.640625 9.507813 35.605469 0l1.453125-1.441406c3.320312-3.175781 8.546875-3.175781 11.867188 0l13.3125 13.300781c3.292968 3.183594 8.527343 3.136719 11.765624-.101562 3.238282-3.238282 3.285157-8.472657.101563-11.765626l-13.300781-13.304687c-9.964844-9.507813-25.644532-9.507813-35.605469 0zm0 0"/><path d="m140.902344 424.070312c15.90625 7.738282 40.390625 4.195313 72.773437-10.492187 12.046875-5.941406 25.105469-9.566406 38.492188-10.691406 13.402343 1.113281 26.472656 4.738281 38.53125 10.691406 16.582031 8.441406 34.726562 13.371094 53.300781 14.488281 6.695312.167969 13.34375-1.199218 19.429688-3.996094 6.90625-3.050781 12.160156-8.9375 14.402343-16.148437 1.09375-4.507813-1.671875-9.046875-6.175781-10.140625-4.507812-1.09375-9.046875 1.671875-10.140625 6.179688-1.160156 2.269531-3.085937 4.050781-5.4375 5.035156-6.289063 3.070312-22.269531 5.773437-58.46875-10.683594-14.199219-7.019531-29.640625-11.167969-45.441406-12.214844-15.804688 1.039063-31.246094 5.183594-45.445313 12.195313-35.402344 16.089843-51.441406 13.78125-57.855468 10.972656-2.613282-.953125-4.773438-2.851563-6.050782-5.324219-1.09375-4.503906-5.632812-7.269531-10.140625-6.175781-4.503906 1.09375-7.269531 5.632813-6.175781 10.140625 2.238281 7.214844 7.492188 13.109375 14.402344 16.164062zm0 0"/></svg>