<svg height="512pt" viewBox="0 0 512.03779 512" width="512pt" xmlns="http://www.w3.org/2000/svg"><path d="m221.871094 460.820312v8.53125c0 18.851563-15.28125 34.136719-34.132813 34.136719h-17.066406c-18.851563 0-34.132813-15.285156-34.132813-34.136719v-35.753906zm0 0" fill="#fdc008"/><path d="m375.472656 433.597656v35.753906c0 18.851563-15.28125 34.136719-34.132812 34.136719h-17.066406c-1.429688 0-2.851563-.085937-4.269532-.257812-17.058594-2.175781-29.84375-16.679688-29.867187-33.878907v-8.53125l59.734375-19.03125zm0 0" fill="#f29c1f"/><path d="m349.871094 441.789062v27.5625c-.019532 17.199219-12.808594 31.703126-29.867188 33.878907-17.058594-2.175781-29.84375-16.679688-29.867187-33.878907v-8.53125zm0 0" fill="#fdc008"/><path d="m457.476562 163.007812-14.507812 109.992188-33.960938 127.0625c-9.222656 12.976562-20.558593 24.3125-33.535156 33.535156-24.59375 17.742188-54.15625 27.269532-84.480468 27.222656h-69.972657c-30.324219.046876-59.890625-9.480468-84.480469-27.222656-13.027343-9.257812-24.398437-20.652344-33.621093-33.707031l-34.050781-128.679687v-.085938l-14.335938-108.117188c-2.425781-17.863281-1.238281-36.027343 3.5-53.417968l33.449219-59.136719c25.683593-26.839844 61.242187-41.984375 98.390625-41.898437h132.265625c37.148437-.085938 72.707031 15.058593 98.390625 41.898437l33.449218 59.136719c4.738282 17.390625 5.929688 35.554687 3.5 53.417968zm0 0" fill="#f29c1f"/><path d="m434.019531 163.007812-14.175781 109.992188-33.234375 127.0625c-8.980469 12.9375-20.070313 24.273438-32.804687 33.535156-23.914063 17.695313-52.878907 27.238282-82.628907 27.222656h-53.835937c-29.746094.015626-58.714844-9.527343-82.628906-27.222656-12.78125-9.300781-23.894532-20.695312-32.878907-33.707031l-33.304687-128.679687v-.085938l-14.019532-108.117188c-2.378906-17.859374-1.21875-36.011718 3.414063-53.417968l32.714844-59.136719c24.871093-26.730469 59.738281-41.910156 96.25-41.898437h114.753906c36.503906-.007813 71.367187 15.171874 96.230469 41.898437l32.71875 59.136719c4.636718 17.40625 5.800781 35.558594 3.429687 53.417968zm0 0" fill="#fdc008"/><path d="m123.617188 343.453125c1.59375 4.285156 1.398437 9.027344-.535157 13.167969l-14.984375 32.058594-18.015625 38.527343c-9.71875 21.46875-34.996093 30.992188-56.464843 21.273438-10.308594-4.667969-18.34375-13.238281-22.335938-23.828125-3.988281-10.59375-3.605469-22.335938 1.0625-32.644532l18.015625-38.527343 18.011719-38.527344 18.015625-38.539063.75-1.601562c2.914062-6.234375 9.285156-10.109375 16.160156-9.828125s12.910156 4.664063 15.300781 11.113281zm0 0" fill="#fdc008"/><path d="m503.472656 408.511719c.085938 5.496093-.839844 10.964843-2.730468 16.128906-1.953126 5.144531-4.878907 9.871094-8.621094 13.90625-3.847656 4.210937-8.523438 7.582031-13.738282 9.898437-9.535156 4.421876-20.390624 5.0625-30.378906 1.792969-.753906-.175781-1.496094-.402343-2.21875-.683593-10.625-3.96875-19.222656-12.019532-23.890625-22.355469l-18.175781-38.230469-15.191406-31.828125c-1.984375-4.144531-2.199219-8.917969-.597656-13.226563l24.746093-66.988281c.699219-1.996093 1.804688-3.824219 3.242188-5.375 3.773437-4.3125 9.464843-6.433593 15.140625-5.644531 5.675781.792969 10.570312 4.390625 13.019531 9.570312l.855469 1.707032 18.261718 38.3125 18.261719 38.230468 18.175781 38.316407c2.378907 5.171875 3.683594 10.773437 3.839844 16.46875zm0 0" fill="#f29c1f"/><path d="m477.871094 408.511719c.085937 5.496093-.839844 10.964843-2.730469 16.128906-1.949219 5.144531-4.875 9.871094-8.617187 13.90625-3.851563 4.210937-8.527344 7.582031-13.738282 9.898437-1.542968.722657-3.140625 1.324219-4.78125 1.792969-.753906-.175781-1.496094-.402343-2.21875-.683593-10.625-3.96875-19.222656-12.019532-23.890625-22.355469l-18.175781-38.230469-15.191406-31.828125c-1.984375-4.144531-2.199219-8.917969-.597656-13.226563l24.746093-66.988281c.699219-1.996093 1.804688-3.824219 3.242188-5.375 1.046875 1.171875 1.910156 2.496094 2.5625 3.925781l.851562 1.707032 18.261719 38.3125 18.261719 38.230468 18.175781 38.316407c2.378906 5.171875 3.683594 10.773437 3.839844 16.46875zm0 0" fill="#fdc008"/><path d="m232.453125 182.632812c-11.996094 25.621094-38.550781 41.1875-66.769531 39.140626-28.214844-2.046876-52.242188-21.285157-60.414063-48.371094-8.171875-27.085938 1.210938-56.402344 23.589844-73.710938l28.328125 22.695313 18.773438 15.019531 9.386718 7.511719 18.859375 15.101562zm0 0" fill="#fff"/><path d="m409.605469 153.621094c-.015625 31.964844-22.203125 59.640625-53.402344 66.601562-31.199219 6.957032-63.046875-8.660156-76.644531-37.589844l22.867187-18.347656 5.375-4.265625 18.859375-15.101562 2.390625-1.878907 6.996094-5.632812 18.773437-15.019531 28.332032-22.695313c16.714844 12.890625 26.488281 32.820313 26.453125 53.929688zm0 0" fill="#fff"/><path d="m102.40625 59.753906c-2.675781-4.082031-6.46875-7.3125-10.925781-9.300781-12.609375-5.773437-26.421875-8.4375-40.277344-7.765625 0 0 17.070313 17.066406 17.070313 34.132812 0 0-34.136719-8.535156-42.667969 25.601563 11.191406.097656 22.234375 2.542969 32.425781 7.167969 4.339844 2.179687 7.914062 5.632812 10.242188 9.898437zm0 0" fill="#f0c419"/><path d="m409.605469 59.753906c2.675781-4.082031 6.464843-7.3125 10.921875-9.300781 12.613281-5.773437 26.425781-8.4375 40.277344-7.765625 0 0-17.066407 17.066406-17.066407 34.132812 0 0 34.132813-8.535156 42.667969 25.601563-11.191406.097656-22.238281 2.542969-32.429688 7.167969-4.351562 2.386718-16.636718 5.628906-18.773437 9.898437zm0 0" fill="#f29c1f"/><path d="m204.207031 160.019531c-3.28125 17.316407-19.207031 29.285157-36.75 27.625-17.542969-1.660156-30.941406-16.402343-30.917969-34.023437-.058593-13.628906 8.089844-25.949219 20.648438-31.234375l18.773438 15.019531 9.386718 7.511719zm0 0" fill="#f34335"/><path d="m375.472656 153.621094c.019532 17.621094-13.375 32.363281-30.921875 34.023437-17.542969 1.660157-33.464843-10.308593-36.75-27.625l18.859375-15.101562 2.390625-1.878907 6.996094-5.632812 18.773437-15.019531c12.558594 5.285156 20.707032 17.605469 20.652344 31.234375zm0 0" fill="#f34335"/><path d="m187.738281 153.621094c0 9.425781-7.640625 17.066406-17.066406 17.066406s-17.066406-7.640625-17.066406-17.066406c0-9.425782 7.640625-17.066406 17.066406-17.066406 1.800781-.03125 3.589844.257812 5.289063.851562l9.386718 7.511719c1.574219 2.628906 2.398438 5.636719 2.390625 8.703125zm0 0" fill="#2c2f38"/><path d="m358.40625 153.621094c-.03125 9.414062-7.652344 17.039062-17.066406 17.066406-4.921875 0-9.597656-2.152344-12.800782-5.890625-2.777343-3.054687-4.300781-7.046875-4.265624-11.175781-.011719-3.066406.816406-6.074219 2.386718-8.703125l2.390625-1.878907 6.996094-5.632812c1.699219-.59375 3.492187-.882812 5.292969-.851562 9.414062.027343 17.035156 7.652343 17.066406 17.066406zm0 0" fill="#2c2f38"/><path d="m324.273438 426.6875c0-18.851562-30.566407-34.132812-68.269532-34.132812s-68.265625 15.28125-68.265625 34.132812 30.5625 34.132812 68.265625 34.132812 68.269532-15.28125 68.269532-34.132812zm0 0" fill="#ff5722"/><path d="m162.136719 153.621094c0 9.425781-7.640625 17.066406-17.066407 17.066406-9.425781 0-17.066406-7.640625-17.066406-17.066406 0-9.425782 7.640625-17.066406 17.066406-17.066406 9.425782 0 17.066407 7.640624 17.066407 17.066406zm0 0" fill="#fff"/><path d="m332.804688 153.621094c.035156 4.128906-1.488282 8.121094-4.265626 11.175781-3.203124 3.738281-7.878906 5.890625-12.800781 5.890625-1.445312.015625-2.882812-.183594-4.265625-.597656-3.566406-.898438-6.746094-2.933594-9.046875-5.804688l5.375-4.265625 18.859375-15.101562 2.390625-1.878907c2.449219 2.980469 3.777344 6.722657 3.753907 10.582032zm0 0" fill="#fff"/><path d="m196.273438 256.019531h119.464843c9.425781 0 17.066407 7.640625 17.066407 17.066407v68.265624c0 9.425782-7.640626 17.070313-17.066407 17.070313h-119.464843c-9.425782 0-17.070313-7.644531-17.070313-17.070313v-68.265624c0-9.425782 7.644531-17.066407 17.070313-17.066407zm0 0" fill="#ac1457"/><path d="m322.992188 257.640625-32.855469 41.046875-17.066407-8.535156-17.066406 8.535156-17.066406-8.535156-17.066406 8.535156-32.851563-41.046875c2.269531-1.058594 4.746094-1.609375 7.253907-1.621094h119.464843c2.507813.011719 4.980469.5625 7.253907 1.621094zm0 0" fill="#ffebb2"/><path d="m451.75 271.703125 14.175781-107.570313c2.25-16.515624 1.59375-33.296874-1.945312-49.585937 7.273437-2.230469 14.820312-3.441406 22.425781-3.59375 2.625-.003906 5.101562-1.214844 6.714844-3.285156 1.617187-2.066407 2.1875-4.765625 1.550781-7.3125-3.609375-19.347657-20.585937-33.316407-40.265625-33.125 3.035156-6.851563 7.242188-13.117188 12.433594-18.519531 2.433594-2.441407 3.15625-6.105469 1.839844-9.292969-1.320313-3.183594-4.425782-5.261719-7.875-5.265625-13.066407-.355469-26.085938 1.714844-38.398438 6.101562-26.910156-25.957031-62.882812-40.390625-100.269531-40.2343748h-132.265625c-37.386719-.1562502-73.359375 14.2773438-100.265625 40.2343748-12.3125-4.386718-25.332031-6.457031-38.402344-6.101562-3.445313 0-6.554687 2.078125-7.878906 5.261718-1.320313 3.1875-.59375 6.855469 1.839843 9.296876 5.1875 5.402343 9.394532 11.667968 12.433594 18.519531-19.683594-.191407-36.660156 13.777343-40.269531 33.125-.636719 2.546875-.0625 5.246093 1.554687 7.316406 1.617188 2.070313 4.09375 3.28125 6.722657 3.28125 7.605469.152344 15.152343 1.363281 22.425781 3.59375-3.539062 16.285156-4.199219 33.066406-1.945312 49.578125l13.992187 105.640625-55.507813 118.726563c-7.09375 15.640624-5.871093 33.792968 3.25 48.339843 9.121094 14.550781 24.929688 23.558594 42.097657 23.988281h1.285156c20.066406-.007812 38.277344-11.734374 46.585937-29.996093l6.929688-14.820313c6.957031 8.070313 14.765625 15.371094 23.285156 21.777344v31.570312c.027344 23.554688 19.113282 42.640626 42.667969 42.667969h17.066406c23.550781-.027343 42.636719-19.113281 42.667969-42.667969h51.199219c.027343 23.554688 19.113281 42.640626 42.667969 42.667969h17.066406c23.550781-.027343 42.636718-19.113281 42.664062-42.667969v-31.570312c8.46875-6.378906 16.238282-13.636719 23.175782-21.648438l6.972656 14.605469c8.3125 18.304688 26.550781 30.066407 46.652344 30.082031h1.3125c17.195312-.429687 33.023437-9.464843 42.140624-24.050781 9.113282-14.585937 10.296876-32.769531 3.148438-48.414062zm-264.011719 223.25h-17.066406c-14.140625 0-25.601563-11.460937-25.601563-25.601563v-20.230468c20.851563 11.964844 44.253907 18.800781 68.269532 19.933594v.296874c0 14.140626-11.464844 25.601563-25.601563 25.601563zm68.265625-42.667969c-34.183594 0-59.730468-13.515625-59.730468-25.597656s25.546874-25.601562 59.730468-25.601562 59.734375 13.519531 59.734375 25.601562-25.550781 25.597656-59.734375 25.597656zm85.335938 42.667969h-17.066406c-14.140626 0-25.601563-11.460937-25.601563-25.601563v-.296874c24.015625-1.128907 47.414063-7.960938 68.265625-19.925782v20.222656c0 14.140626-11.460938 25.601563-25.597656 25.601563zm151.398437-73.316406c-4.890625 13.011719-17.183593 21.761719-31.078125 22.117187-13.785156.371094-26.429687-7.601562-32.035156-20.199218l-36.488281-76.550782c-2.03125-4.257812-7.125-6.0625-11.378907-4.035156-4.257812 2.03125-6.0625 7.125-4.035156 11.382812l21.335938 44.671876c-8.089844 10.597656-17.722656 19.921874-28.578125 27.664062-14.410157 10.417969-30.738281 17.882812-48.042969 21.964844 6.355469-5.566406 10.113281-13.523438 10.367188-21.964844 0-24.328125-33.015626-42.667969-76.800782-42.667969s-76.800781 18.339844-76.800781 42.667969c.257813 8.441406 4.015625 16.394531 10.371094 21.957031-17.328125-4.09375-33.671875-11.574219-48.09375-22.007812-10.917969-7.785157-20.585938-17.1875-28.671875-27.878907l21.03125-44.996093c1.292968-2.761719 1.015625-6.003907-.730469-8.503907s-4.691406-3.882812-7.730469-3.621093c-3.039062.261719-5.707031 2.125-7 4.886719l-36.070312 77.167968c-7.75 17.1875-27.964844 24.835938-45.148438 17.082032-17.1875-7.75-24.835937-27.960938-17.085937-45.148438l72.089843-154.113281c1.355469-2.769531 1.113282-6.054688-.636718-8.59375-1.75-2.539063-4.734375-3.933594-7.804688-3.652344-3.070312.28125-5.753906 2.195313-7.011718 5.011719l-3.183594 6.828125-10.539063-79.234375c-1.570312-11.808594-1.464843-23.777344.308594-35.558594 3.160156 2.359375 7.527344 2.234375 10.546875-.300781 3.015625-2.539063 3.890625-6.820313 2.109375-10.339844-3.089844-5.832031-7.898437-10.570313-13.773437-13.566406-7.589844-3.792969-15.78125-6.242188-24.210938-7.238281 6.433594-8.847657 17.703125-12.746094 28.230469-9.769532 2.546875.65625 5.257812.078125 7.320312-1.554687 2.070313-1.613281 3.285157-4.09375 3.285157-6.722657-.335938-8.617187-2.914063-16.996093-7.484376-24.3125 6.316407.839844 12.453126 2.695313 18.175782 5.496094 2.796875 1.324219 5.277344 3.226563 7.28125 5.582032 1.371094 2.726562 4.09375 4.515624 7.140625 4.6875 3.046875.175781 5.957031-1.285157 7.632812-3.839844 1.675781-2.550782 1.863281-5.800782.492188-8.527344-1.34375-2.40625-3.074219-4.574219-5.121094-6.417969 23.324219-20.953125 53.597656-32.496093 84.949219-32.402343h23.46875v25.601562c0 4.710938 3.820312 8.53125 8.53125 8.53125 4.714844 0 8.535156-3.820312 8.535156-8.53125v-25.601562h17.066406v42.667968c0 4.710938 3.820313 8.53125 8.53125 8.53125 4.714844 0 8.535156-3.820312 8.535156-8.53125v-42.667968h17.066407v25.601562c0 4.710938 3.820312 8.53125 8.53125 8.53125 4.714843 0 8.535156-3.820312 8.535156-8.53125v-25.601562h23.464844c31.367187-.09375 61.648437 11.460937 84.976562 32.425781-2.046875 1.84375-3.777343 4.011719-5.121093 6.417969-1.996094 4.0625-.40625 8.976562 3.59375 11.09375 1.222656.691406 2.605468 1.046874 4.011718 1.042968 3.058594-.011718 5.894532-1.605468 7.5-4.207031 1.96875-2.53125 4.523438-4.542969 7.441406-5.871094 5.722657-2.800781 11.859376-4.65625 18.175782-5.496093-4.582032 7.316406-7.167969 15.703124-7.511719 24.328124 0 2.628907 1.214844 5.109376 3.285156 6.726563 2.070313 1.617187 4.773438 2.1875 7.324219 1.550781 10.542969-2.957031 21.820312.925782 28.304688 9.753906-8.425782.992188-16.613282 3.441407-24.199219 7.234376-5.878907 3-10.6875 7.738281-13.773438 13.570312-1.792969 3.507812-.933593 7.789062 2.074219 10.332031 3.011719 2.546875 7.375 2.683594 10.535156.332031 1.773438 11.777344 1.875 23.746094.308594 35.550782l-10.75 81.546875-3.894531-8.160157c-1.3125-2.753906-3.996094-4.59375-7.035157-4.832031-3.042968-.238281-5.980468 1.160157-7.707031 3.675781-1.726562 2.515626-1.980469 5.761719-.667969 8.511719l72.925782 152.902344c3.753906 8.238281 4.058594 17.636719.855468 26.101563zm0 0"/><path d="m240.183594 186.242188c.066406-.214844.121094-.433594.164062-.65625.199219-.550782.335938-1.125.40625-1.707032.097656-.515625.140625-1.039062.128906-1.5625-.03125-.539062-.113281-1.078125-.246093-1.601562-.113281-.527344-.277344-1.042969-.488281-1.539063-.222657-.472656-.488282-.925781-.800782-1.347656-.328125-.484375-.707031-.9375-1.125-1.347656-.171875-.152344-.25-.367188-.4375-.511719l-103.59375-82.933594c-.1875-.148437-.417968-.179687-.613281-.316406-.476563-.3125-.980469-.570312-1.511719-.777344-.953125-.457031-2.003906-.679687-3.0625-.648437-.570312-.015625-1.144531.019531-1.707031.109375-1.070313.261718-2.09375.679687-3.039063 1.246094-.1875.128906-.410156.15625-.585937.300781-18.863281 14.460937-29.886719 36.902343-29.800781 60.671875.015625 35.964844 24.984375 67.101562 60.085937 74.929687 35.101563 7.824219 70.9375-9.757812 86.226563-42.308593zm-60.980469-32.621094c0 4.710937-3.820313 8.53125-8.53125 8.53125-4.714844 0-8.535156-3.820313-8.535156-8.53125 0-4.714844 3.820312-8.535156 8.535156-8.535156.507813.015624 1.011719.089843 1.5.214843l6.300781 5.042969c.460938 1.03125.710938 2.144531.730469 3.277344zm-68.265625 0c-.058594-16.15625 6.488281-31.632813 18.125-42.839844l27.152344 21.746094c-9.101563 6.171875-13.242188 17.472656-10.285156 28.066406 2.957031 10.59375 12.351562 18.117188 23.335937 18.683594 10.984375.570312 21.101563-5.945313 25.136719-16.175782l27.09375 21.691407c-13.933594 22.824219-41.359375 33.585937-67.097656 26.328125-25.738282-7.257813-43.5-30.757813-43.460938-57.5zm0 0"/><path d="m388.367188 92.941406c-.195313-.113281-.394532-.214844-.597657-.300781-.507812-.324219-1.050781-.589844-1.613281-.800781-.457031-.191406-.933594-.335938-1.417969-.4375-.5625-.09375-1.132812-.136719-1.707031-.117188-1.058594-.023437-2.113281.203125-3.070312.65625-.515626.203125-1.011719.457032-1.476563.757813-.195313.136719-.4375.171875-.625.324219l-103.636719 82.953124c-.1875.144532-.261718.359376-.433594.511719-.417968.414063-.796874.863281-1.128906 1.347657-.308594.425781-.578125.875-.800781 1.351562-.207031.496094-.371094 1.007812-.484375 1.535156-.132812.523438-.21875 1.0625-.25 1.605469-.011719.523437.03125 1.046875.128906 1.558594.074219.582031.210938 1.15625.410156 1.707031.042969.222656.09375.441406.160157.65625 15.292969 32.554688 51.128906 50.136719 86.230469 42.304688 35.105468-7.828126 60.074218-38.96875 60.082031-74.933594.097656-23.765625-10.917969-46.214844-29.769531-60.679688zm-47.027344 52.144532c4.710937 0 8.53125 3.820312 8.53125 8.535156 0 4.710937-3.820313 8.53125-8.53125 8.53125-4.714844 0-8.535156-3.820313-8.535156-8.53125.023437-1.132813.273437-2.246094.734374-3.277344l6.296876-5.042969c.492187-.125.996093-.199219 1.503906-.214843zm0 68.265624c-20.75-.054687-39.988282-10.867187-50.824219-28.558593l27.089844-21.691407c4.035156 10.230469 14.15625 16.746094 25.140625 16.175782 10.984375-.566406 20.378906-8.089844 23.335937-18.683594s-1.183593-21.894531-10.289062-28.066406l27.152343-21.746094c11.636719 11.207031 18.1875 26.683594 18.125 42.839844-.035156 32.972656-26.757812 59.695312-59.730468 59.730468zm0 0"/><path d="m315.738281 247.488281h-119.464843c-14.140626 0-25.601563 11.460938-25.601563 25.597657v68.265624c0 14.140626 11.460937 25.601563 25.601563 25.601563h119.464843c14.136719 0 25.601563-11.460937 25.601563-25.601563v-68.265624c0-14.136719-11.464844-25.597657-25.601563-25.597657zm-59.734375 41.660157-13.25-6.675782c-2.402344-1.199218-5.230468-1.199218-7.628906 0l-10.90625 5.453125-18.738281-23.371093h101.050781l-18.773438 23.414062-10.871093-5.496094c-2.402344-1.199218-5.226563-1.199218-7.628907 0zm68.269532 52.203124c0 4.714844-3.824219 8.535157-8.535157 8.535157h-119.464843c-4.714844 0-8.535157-3.820313-8.535157-8.535157v-68.265624c.03125-.921876.214844-1.832032.546875-2.695313l26.921875 33.628906c2.511719 3.144531 6.878907 4.101563 10.480469 2.304688l13.25-6.628907 13.253906 6.628907c.117188.050781.246094 0 .367188.085937 1.078125.507813 2.253906.785156 3.445312.808594 1.183594-.023438 2.34375-.296875 3.414063-.800781.121093-.050781.246093 0 .367187-.085938l13.285156-6.636719 13.253907 6.628907c3.597656 1.796875 7.964843.839843 10.480469-2.304688l26.921874-33.628906c.328126.863281.511719 1.773437.546876 2.695313zm0 0"/></svg>