<svg height="512pt" viewBox="-43 0 512 512.00249" width="512pt" xmlns="http://www.w3.org/2000/svg"><path d="m196.269531 469.335938v17.066406c-.03125 9.414062-7.65625 17.039062-17.066406 17.066406h-51.203125c-9.414062-.027344-17.039062-7.652344-17.066406-17.066406v-40.105469zm0 0" fill="#4cae50"/><path d="m315.734375 446.296875v40.105469c-.027344 9.414062-7.652344 17.039062-17.066406 17.066406h-51.199219c-9.414062-.027344-17.039062-7.652344-17.066406-17.066406v-17.066406zm0 0" fill="#4cae50"/><path d="m374.273438 435.203125c-4.085938.035156-8.152344-.597656-12.03125-1.878906-7.492188-2.21875-14.183594-6.542969-19.285157-12.457031l16.46875-126.550782 6.144531-46.847656h1.363282l47.445312 130.476562c4.761719 13.082032 2.839844 27.664063-5.144531 39.070313-7.988281 11.402344-21.039063 18.191406-34.960937 18.1875zm0 0" fill="#2e7d32"/><path d="m362.242188 433.324219c-7.492188-2.21875-14.183594-6.542969-19.285157-12.457031l16.46875-126.550782 30.464844 83.628906c3.996094 11 3.300781 23.15625-1.929687 33.628907-5.226563 10.472656-14.527344 18.335937-25.71875 21.75zm0 0" fill="#4cae50"/><path d="m83.714844 420.867188c-7.847656 9.121093-19.289063 14.355468-31.320313 14.335937-13.921875.003906-26.96875-6.785156-34.957031-18.1875-7.988281-11.40625-9.910156-25.988281-5.148438-39.070313l47.445313-130.476562h1.367187zm0 0" fill="#4cae50"/><path d="m354.816406 164.355469c5.304688 12.976562 8.308594 26.78125 8.875 40.789062l5.972656 133.546875c.261719 5.691406.089844 11.398438-.511718 17.066406-1.683594 18.457032-7.546875 36.285157-17.152344 52.136719-23.484375 38.34375-65.285156 61.636719-110.25 61.441407h-56.832031c-44.960938.195312-86.765625-23.097657-110.25-61.441407-9.601563-15.851562-15.46875-33.679687-17.152344-52.136719-.601563-5.667968-.769531-11.375-.511719-17.066406l5.972656-133.546875c.566407-14.007812 3.570313-27.8125 8.875-40.789062-25.257812-8.789063-63.316406-27.734375-63.316406-61.953125 0-20.136719 7.933594-32.339844 18.089844-37.71875 1.382812-.683594 2.808594-1.28125 4.265625-1.789063h.085937c7.9375-2.375 16.507813-1.289062 23.605469 2.980469 7.097657 4.273438 12.066407 11.335938 13.6875 19.460938 3.160157 12.648437 9.011719 24.464843 17.148438 34.644531 1.28125 1.707031 2.648437 3.242187 3.84375 4.695312 1.535156 1.621094 2.984375 3.070313 4.351562 4.4375 8.140625-9.351562 17.628907-17.433593 28.160157-23.980469-38.488282-42.15625-34.816407-85.929687-11.605469-94.890624 1.019531-.429688 2.078125-.773438 3.15625-1.023438 2.015625-.453125 4.078125-.679688 6.144531-.683594 34.132812 0 42.664062 17.066406 42.664062 42.667969.382813 11.816406 3.171876 23.429687 8.195313 34.132813v.085937c.167969.511719.425781 1.023437.597656 1.449219 6.574219-1.03125 13.222657-1.542969 19.878907-1.535156h45.058593c1.109375 0 2.304688 0 3.414063.085937 2.816406.085937 5.628906.171875 8.359375.425781 2.734375.257813 5.464843.597656 8.109375 1.023438 5.351562-11.15625 8.34375-23.300782 8.789062-35.667969 0-20.90625 5.714844-36.097656 26.367188-40.960937 1.773437-.4375 3.566406-.78125 5.375-1.023438 3.625-.460938 7.273437-.691406 10.925781-.683594 30.972656 0 40.871094 49.238282-2.304687 96.597656 6.890624 4.316407 13.351562 9.289063 19.285156 14.847657 1.621094 1.535156 3.242187 3.074219 4.691406 4.609375 1.453125 1.535156 2.816406 2.984375 4.183594 4.523437 12.335937-11.964843 21.109375-27.121093 25.34375-43.777343 2.027344-8.917969 7.902344-16.480469 16.042968-20.652344 1.320313-.753906 2.722657-1.355469 4.179688-1.789063h.085938c17.492187-5.546875 39.421874 5.972657 39.421874 39.507813 0 34.21875-38.058593 53.164062-63.316406 61.953125zm0 0" fill="#2e7d32"/><path d="m329.21875 164.355469c5.304688 12.976562 8.304688 26.78125 8.875 40.789062l5.972656 133.546875c.257813 5.691406.085938 11.398438-.511718 17.066406-1.683594 18.457032-7.550782 36.285157-17.152344 52.136719-23.488282 38.34375-65.289063 61.636719-110.25 61.441407h-31.234375c-44.960938.195312-86.765625-23.097657-110.25-61.441407-9.601563-15.851562-15.46875-33.679687-17.152344-52.136719-.601563-5.667968-.769531-11.375-.511719-17.066406l5.972656-133.546875c.566407-14.007812 3.570313-27.8125 8.875-40.789062-25.257812-8.789063-63.316406-27.734375-63.316406-61.953125 0-20.136719 7.933594-32.339844 18.089844-37.71875 8.140625 4.171875 14.015625 11.734375 16.042969 20.652344 4.230469 16.65625 13.007812 31.8125 25.34375 43.777343 2.816406-3.160156 5.71875-6.230469 8.875-9.132812 2.523437 3.222656 5.261719 6.273437 8.191406 9.132812 1.304687-1.5625 2.699219-3.046875 4.183594-4.4375 1.535156 1.621094 2.984375 3.070313 4.351562 4.4375 8.140625-9.351562 17.628907-17.433593 28.160157-23.980469-38.488282-42.15625-34.816407-85.929687-11.605469-94.890624 20.648437 4.863281 26.367187 20.054687 26.367187 40.960937.445313 12.367187 3.4375 24.511719 8.789063 35.667969 5.449219-.871094 10.953125-1.355469 16.46875-1.449219 1.109375-.085937 2.304687-.085937 3.414062-.085937h45.054688c6.660156-.007813 13.304687.503906 19.882812 1.535156.171875-.425782.425781-.9375.597657-1.449219 5.515624.09375 11.019531.578125 16.46875 1.449219.171874-.339844.257812-.683594.425781-1.023438 2.734375.257813 5.464843.597656 8.109375 1.023438 5.351562-11.15625 8.34375-23.300782 8.789062-35.667969 0-20.90625 5.714844-36.097656 26.367188-40.960937 23.210937 8.960937 26.878906 52.734374-11.605469 94.890624 10.527344 6.546876 20.019531 14.628907 28.160156 23.980469 2.929688-2.859375 5.667969-5.910156 8.191407-9.132812 3.15625 2.902343 6.058593 5.972656 8.875 9.132812 1.367187-1.367187 2.816406-2.816406 4.351562-4.523437 1.453125 1.535156 2.816406 2.984375 4.183594 4.523437 12.335937-11.964843 21.109375-27.121093 25.34375-43.777343 2.027344-8.917969 7.902344-16.480469 16.042968-20.652344 10.152344 5.378906 18.089844 17.582031 18.089844 37.71875 0 34.21875-38.058594 53.164062-63.316406 61.953125zm0 0" fill="#4cae50"/><path d="m162.132812 204.800781c0 18.851563-15.28125 34.136719-34.132812 34.136719-1.117188 0-2.234375-.066406-3.34375-.207031-.066406 0-.066406.070312-.136719 0-17.300781-1.902344-30.398437-16.523438-30.398437-33.929688s13.097656-32.023437 30.398437-33.925781c.070313-.070312.070313 0 .136719 0 1.109375-.140625 2.226562-.207031 3.34375-.207031 18.851562 0 34.132812 15.28125 34.132812 34.132812zm0 0" fill="#e6e7e8"/><path d="m170.667969 204.800781c.011719 21.878907-16.550781 40.207031-38.316407 42.414063-.082031 0-.082031.082031-.167968 0-21.628906-2.382813-38-20.65625-38-42.414063 0-21.757812 16.371094-40.027343 38-42.410156.085937-.085937.085937 0 .167968 0 21.765626 2.207031 38.328126 20.535156 38.316407 42.410156zm0 0" fill="#fff"/><path d="m332.800781 204.800781c0 18.851563-15.28125 34.136719-34.132812 34.136719-1.117188 0-2.234375-.066406-3.34375-.207031-.070313 0-.070313.070312-.136719 0-17.304688-1.902344-30.402344-16.523438-30.402344-33.929688s13.097656-32.023437 30.402344-33.925781c.066406-.070312.066406 0 .136719 0 1.109375-.140625 2.226562-.207031 3.34375-.207031 18.851562 0 34.132812 15.28125 34.132812 34.132812zm0 0" fill="#fff"/><path d="m145.066406 204.800781c0 9.425781-7.640625 17.070313-17.066406 17.070313s-17.066406-7.644532-17.066406-17.070313 7.640625-17.066406 17.066406-17.066406 17.066406 7.640625 17.066406 17.066406zm0 0" fill="#00bbd3"/><path d="m315.734375 204.800781c0 9.425781-7.640625 17.070313-17.066406 17.070313s-17.066407-7.644532-17.066407-17.070313 7.640626-17.066406 17.066407-17.066406 17.066406 7.640625 17.066406 17.066406zm0 0" fill="#00bbd3"/><path d="m238.933594 238.9375c-1.589844-13.425781-12.175782-24.011719-25.597656-25.601562-13.425782 1.589843-24.011719 12.175781-25.601563 25.601562 0 9.425781 11.460937 8.53125 25.601563 8.53125 14.136718 0 25.597656.894531 25.597656-8.53125zm0 0" fill="#e81e63"/><path d="m307.203125 281.601562c0 9.300782-18.007813 32-44.972656 46.59375-14.960938 8.355469-31.761719 12.871094-48.894531 13.140626-17.136719-.269532-33.9375-4.785157-48.898438-13.140626-26.964844-14.59375-44.96875-37.292968-44.96875-46.59375 0-8.53125 41.984375-8.53125 93.867188-8.53125 51.882812 0 93.867187 0 93.867187 8.53125zm0 0" fill="#ac1457"/><path d="m262.230469 328.195312c-14.960938 8.355469-31.761719 12.871094-48.894531 13.140626-17.136719-.269532-33.9375-4.785157-48.898438-13.140626 6.488281-12.117187 25.941406-20.992187 48.898438-20.992187 22.953124 0 42.410156 8.875 48.894531 20.992187zm0 0" fill="#f34335"/><path d="m273.066406 435.203125c0 25.921875-26.742187 34.132813-59.730468 34.132813-32.992188 0-59.734376-8.210938-59.734376-34.132813 0-25.925781 26.742188-59.734375 59.734376-59.734375 32.988281 0 59.730468 33.808594 59.730468 59.734375zm0 0" fill="#ff9701"/><path d="m119.46875 375.46875c0 18.851562-15.28125 34.132812-34.132812 34.132812-3.625.011719-7.226563-.566406-10.667969-1.707031-9.601563-15.851562-15.46875-33.679687-17.152344-52.136719 8.597656-12.09375 24.027344-17.246093 38.167969-12.75 14.140625 4.5 23.753906 17.621094 23.785156 32.460938zm0 0" fill="#ff9701"/><path d="m369.152344 355.757812c-1.683594 18.457032-7.546875 36.285157-17.152344 52.136719-10.398438 3.394531-21.792969 1.609375-30.65625-4.804687-8.859375-6.414063-14.117188-16.683594-14.140625-27.621094-.023437-17.726562 13.566406-32.5 31.230469-33.960938.960937-.144531 1.929687-.199218 2.902344-.171874 11.066406-.007813 21.445312 5.371093 27.816406 14.421874zm0 0" fill="#f47c00"/><path d="m343.554688 347.222656c-1.683594 18.457032-7.550782 36.289063-17.152344 52.140625-2.488282.839844-5.066406 1.386719-7.679688 1.621094-10.234375-9.03125-14.089844-23.296875-9.796875-36.253906 4.292969-12.953125 15.90625-22.09375 29.507813-23.222657 1.925781 1.695313 3.644531 3.617188 5.121094 5.714844zm0 0" fill="#ff9701"/><path d="m136.535156 192.003906c0 7.066406-5.730468 12.796875-12.800781 12.796875s-12.800781-5.730469-12.800781-12.796875c0-7.070312 5.730468-12.800781 12.800781-12.800781s12.800781 5.730469 12.800781 12.800781zm0 0" fill="#fff"/><path d="m307.203125 192.003906c0 7.066406-5.734375 12.796875-12.800781 12.796875-7.070313 0-12.800782-5.730469-12.800782-12.796875 0-7.070312 5.730469-12.800781 12.800782-12.800781 7.066406 0 12.800781 5.730469 12.800781 12.800781zm0 0" fill="#fff"/><path d="m76.546875 83.261719c-4.136719-19.15625-22.074219-32.097657-41.558594-29.976563-16.144531 1.988282-34.988281 16.042969-34.988281 49.117188 0 27.792968 21.539062 51.378906 60.894531 66.988281-3.785156 11.445313-5.957031 23.363281-6.441406 35.410156l-1.707031 37.890625c-.421875.585938-.773438 1.222656-1.042969 1.894532l-47.433594 130.429687c-5.828125 15.671875-3.523437 33.214844 6.152344 46.847656 9.585937 13.703125 25.253906 21.867188 41.972656 21.871094 11.105469-.011719 21.890625-3.730469 30.644531-10.5625 5.882813 6.402344 12.367188 12.222656 19.363282 17.390625v35.839844c0 14.136718 11.460937 25.601562 25.597656 25.601562h51.203125c14.136719 0 25.597656-11.464844 25.597656-25.601562v-8.53125h17.066407v8.53125c0 14.136718 11.460937 25.601562 25.601562 25.601562h51.199219c14.136719 0 25.601562-11.464844 25.601562-25.601562v-35.839844c6.996094-5.171875 13.480469-11.003906 19.359375-17.417969 8.75 6.847657 19.535156 10.574219 30.644532 10.589844 16.722656-.003906 32.390624-8.167969 41.976562-21.871094 9.675781-13.632812 11.976562-31.167969 6.152344-46.835937l-47.445313-130.476563c-.269531-.671875-.617187-1.308593-1.042969-1.894531l-1.699218-37.855469c-.488282-12.039062-2.65625-23.953125-6.441406-35.394531 39.355468-15.625 60.894531-39.210938 60.894531-67.003906 0-33.074219-18.839844-47.128906-34.988281-49.117188-19.488282-2.136718-37.433594 10.808594-41.554688 29.976563-3.082031 12.273437-8.917969 23.679687-17.066406 33.355469-4.804688-4.789063-9.96875-9.203126-15.445313-13.199219 27.109375-33.714844 28.449219-65.117188 20.75-82.558594-5.070312-12.734375-17.460937-21.023437-31.160156-20.85546875-45.894531 0-51.203125 29.21484375-51.203125 51.19921875-.257812 9.050781-2.15625 17.984375-5.605469 26.359375-4.828125-.507812-9.679687-.761719-14.53125-.761719h-45.058593c-4.84375 0-9.6875.253907-14.503907.761719-3.457031-8.375-5.363281-17.304688-5.632812-26.359375 0-21.984375-5.308594-51.19921875-51.199219-51.19921875-13.699219-.16406225-26.085938 8.12499975-31.15625 20.85546875-7.679688 17.441406-6.355469 48.84375 20.753906 82.558594-5.480468 3.996093-10.644531 8.410156-15.445312 13.199219-8.15625-9.675782-13.996094-21.082032-17.074219-33.355469zm3.898437 317.328125c-1.0625-1.875-2.074218-3.78125-3.03125-5.714844-.578124-1.179688-1.21875-2.320312-1.757812-3.515625-3.328125-7.390625-5.867188-15.117187-7.566406-23.042969-.257813-1.183594-.402344-2.394531-.617188-3.589844-.390625-2.167968-.707031-4.34375-.972656-6.519531 8.335938-9.121093 21.988281-10.988281 32.464844-4.441406 10.476562 6.546875 14.785156 19.636719 10.242187 31.125-4.546875 11.488281-16.644531 18.089844-28.761719 15.699219zm-28.050781 26.078125c-11.136719.003906-21.574219-5.425781-27.964843-14.550781-6.390626-9.121094-7.929688-20.789063-4.117188-31.253907l29.949219-82.363281-1.78125 39.816406c-.285157 6.074219-.105469 12.160156.535156 18.207032.597656 5.992187 1.609375 11.933593 3.03125 17.785156 1.960937 8.558594 4.773437 16.898437 8.386719 24.898437 2.0625 4.503907 4.378906 8.882813 6.9375 13.117188 1.570312 2.582031 3.222656 5.101562 4.957031 7.5625-5.71875 4.386719-12.722656 6.773437-19.933594 6.78125zm135.339844 59.734375c0 4.714844-3.820313 8.535156-8.53125 8.535156h-51.203125c-4.710938 0-8.53125-3.820312-8.53125-8.535156v-25.054688c20.125 10.8125 42.605469 16.484375 65.449219 16.523438h2.816406zm25.601563-25.601563c-33.972657 0-51.203126-8.609375-51.203126-25.597656 0-22.570313 24.109376-51.199219 51.203126-51.199219s51.199218 28.628906 51.199218 51.199219c0 16.988281-17.230468 25.597656-51.199218 25.597656zm93.867187 25.601563c0 4.714844-3.824219 8.535156-8.535156 8.535156h-51.199219c-4.714844 0-8.535156-3.820312-8.535156-8.535156v-8.53125h2.816406c22.84375-.039063 45.328125-5.710938 65.453125-16.523438zm52.050781-121.820313c-.230468 1.277344-.382812 2.558594-.65625 3.839844-.820312 3.84375-1.835937 7.644531-3.046875 11.382813l-.152343.46875c-1.257813 3.769531-2.707032 7.472656-4.34375 11.09375-.539063 1.203124-1.1875 2.363281-1.777344 3.550781-.953125 1.925781-1.953125 3.820312-3.019532 5.699219-12.117187 2.386718-24.214843-4.21875-28.753906-15.707032-4.542968-11.488281-.230468-24.578125 10.242188-31.121094 10.476562-6.546874 24.132812-4.675781 32.464844 4.441407-.300782 2.109375-.605469 4.234375-.957032 6.351562zm47.148438 16.289063c3.808594 10.472656 2.261718 22.144531-4.136719 31.265625-6.398437 9.125-16.847656 14.546875-27.992187 14.53125-7.214844-.019531-14.222657-2.417969-19.933594-6.824219 1.707031-2.457031 3.414062-4.984375 4.964844-7.570312 10.226562-16.929688 16.492187-35.949219 18.332031-55.636719v-.1875c.636719-6.035157.820312-12.105469.542969-18.167969l-1.78125-39.824219zm-306.347656-246.152344c7.582031-8.714844 16.425781-16.246094 26.238281-22.339844 2.15625-1.339844 3.601562-3.566406 3.949219-6.078125.347656-2.511719-.4375-5.046875-2.148438-6.917969-25.957031-28.46875-30.828125-56.492187-24.148438-71.679687 2.421876-6.457031 8.628907-10.707031 15.523438-10.632813 28.550781 0 34.132812 12.515626 34.132812 34.132813.382813 13.589844 3.636719 26.941406 9.546876 39.183594 1.585937 3.503906 5.316406 5.519531 9.113281 4.917969 6.136719-.960938 12.335937-1.441407 18.542969-1.433594h45.058593c6.207031-.007813 12.40625.472656 18.542969 1.433594 3.792969.582031 7.515625-1.425782 9.113281-4.917969 5.914063-12.242188 9.167969-25.59375 9.546875-39.183594 0-21.617187 5.582032-34.132813 34.136719-34.132813 6.910156-.074218 13.125 4.195313 15.539063 10.675782 6.679687 15.144531 1.808593 43.167968-24.152344 71.679687-1.707032 1.871094-2.492188 4.40625-2.144532 6.917969.347657 2.511719 1.792969 4.738281 3.945313 6.078125 9.8125 6.09375 18.652344 13.625 26.234375 22.339844 1.535156 1.765625 3.734375 2.820312 6.074219 2.917969 2.332031.066406 4.597656-.796876 6.296875-2.398438 13.496094-13.039062 23.085937-29.589844 27.683594-47.785156 2.121093-10.75 12.007812-18.164063 22.917968-17.1875 9.667969 1.109375 20.003906 10.1875 20.003906 32.09375 0 29.457031-36.078124 46.40625-57.589843 53.886718-2.222657.765626-4.027344 2.410157-4.996094 4.546876-.96875 2.136718-1.015625 4.582031-.125 6.753906 4.929687 12.066406 7.71875 24.902344 8.242187 37.929687l1.910157 41.949219v.078125l4.027343 90.164063c-14.953124-7.859376-33.136718-6.140626-46.351562 4.382812s-18.960938 27.859375-14.652344 44.195312c4.3125 16.332032 17.867188 28.574219 34.550782 31.207032-15.382813 18.355468-35.878907 31.722656-58.878907 38.398437 3.953125-6.167969 5.992188-13.367187 5.863281-20.691406 0-30.925781-30.445312-68.265625-68.265624-68.265625-37.820313 0-68.269532 37.339844-68.269532 68.265625-.128906 7.308594 1.902344 14.496094 5.839844 20.660156-23.003906-6.675781-43.5-20.042969-58.882812-38.402343 16.667968-2.648438 30.199218-14.890626 34.5-31.210938 4.300781-16.320312-1.445313-33.636719-14.640626-44.15625-13.199218-10.519531-31.363281-12.25-46.3125-4.417969l4.027344-90.15625v-.050781l1.878906-41.933594c.527344-13.019531 3.316407-25.847656 8.242188-37.914062.890625-2.171875.84375-4.613282-.125-6.75-.96875-2.136719-2.773438-3.78125-4.992188-4.546875-21.453124-7.515625-57.535156-24.464844-57.535156-53.921875 0-21.90625 10.335938-30.984375 20.003906-32.179688.75-.09375 1.503907-.136718 2.261719-.136718 10.089844.238281 18.667969 7.429687 20.660157 17.324218 4.589843 18.210938 14.175781 34.777344 27.679687 47.828125 1.695313 1.605469 3.964844 2.46875 6.296875 2.398438 2.339844-.097657 4.539062-1.152344 6.078125-2.917969zm0 0"/><path d="m128 247.46875c23.566406 0 42.667969-19.101562 42.667969-42.667969 0-23.5625-19.101563-42.664062-42.667969-42.664062-23.5625 0-42.664062 19.101562-42.664062 42.664062.027343 23.554688 19.113281 42.640625 42.664062 42.667969zm0-68.265625c14.140625 0 25.601562 11.460937 25.601562 25.597656 0 14.140625-11.460937 25.601563-25.601562 25.601563-14.136719 0-25.597656-11.460938-25.597656-25.601563 0-14.136719 11.460937-25.597656 25.597656-25.597656zm0 0"/><path d="m298.667969 247.46875c23.5625 0 42.667969-19.101562 42.667969-42.667969 0-23.5625-19.105469-42.664062-42.667969-42.664062s-42.667969 19.101562-42.667969 42.664062c.03125 23.554688 19.117188 42.640625 42.667969 42.667969zm0-68.265625c14.136719 0 25.601562 11.460937 25.601562 25.597656 0 14.140625-11.464843 25.601563-25.601562 25.601563s-25.601563-11.460938-25.601563-25.601563c0-14.136719 11.464844-25.597656 25.601563-25.597656zm0 0"/><path d="m136.535156 204.800781c0 4.714844-3.820312 8.535157-8.535156 8.535157-4.710938 0-8.53125-3.820313-8.53125-8.535157 0-4.710937 3.820312-8.53125 8.53125-8.53125 4.714844 0 8.535156 3.820313 8.535156 8.53125zm0 0"/><path d="m307.203125 204.800781c0 4.714844-3.824219 8.535157-8.535156 8.535157-4.710938 0-8.535157-3.820313-8.535157-8.535157 0-4.710937 3.824219-8.53125 8.535157-8.53125 4.710937 0 8.535156 3.820313 8.535156 8.53125zm0 0"/><path d="m209.996094 256.003906h9.808594c8.199218 1.171875 16.535156-.914062 23.21875-5.8125 2.957031-2.984375 4.566406-7.054687 4.445312-11.253906-1.625-18.136719-16-32.511719-34.132812-34.136719-18.136719 1.625-32.511719 16-34.132813 34.136719-.128906 4.207031 1.480469 8.28125 4.445313 11.269531 5.929687 5.90625 15.375 5.796875 26.347656 5.796875zm3.339844-34.132812c8.457031 0 16.390624 10.800781 17.066406 16.382812-4.519532.675782-9.09375.902344-13.65625.683594h-6.824219c-4.542969.207031-9.097656-.023438-13.59375-.691406.613281-5.574219 8.550781-16.375 17.007813-16.375zm0 0"/><path d="m110.933594 281.601562c0 14.824219 22.640625 39.59375 49.496094 54.101563 16.175781 9.058594 34.363281 13.929687 52.90625 14.167969 4.441406.007812 8.878906-.277344 13.285156-.855469 13.914062-1.988281 27.355468-6.488281 39.664062-13.277344 26.808594-14.542969 49.449219-39.3125 49.449219-54.136719 0-16.339843-22.921875-17.066406-102.398437-17.066406-79.480469 0-102.402344.726563-102.402344 17.066406zm136.621094 44.09375c-.804688.324219-1.597657.570313-2.398438.851563-2.671875 1.023437-5.351562 1.9375-8.03125 2.695313-.980469.285156-1.960938.53125-2.945312.777343-2.703126.675781-5.417969 1.230469-8.121094 1.640625-.742188.109375-1.484375.253906-2.21875.347656-6.972656.878907-14.027344.878907-21 0-.753906-.09375-1.503906-.238281-2.253906-.347656-2.6875-.417968-5.382813-.957031-8.074219-1.632812-.996094-.246094-1.996094-.5-2.992188-.785156-2.648437-.757813-5.292969-1.703126-7.945312-2.667969-.855469-.316407-1.648438-.574219-2.476563-.914063-.238281-.101562-.46875-.238281-.707031-.332031 10.398437-6.6875 22.589844-10.035156 34.945313-9.59375 12.367187-.441406 24.578124 2.910156 34.984374 9.609375-.28125.101562-.527343.25-.765624.351562zm-34.21875-44.09375c32.3125 0 71.753906 0 84.238281 3.191407-8.296875 13.273437-19.691407 24.335937-33.210938 32.230469-13.933593-12.59375-32.265625-19.1875-51.027343-18.355469-18.761719-.832031-37.097657 5.761719-51.03125 18.355469-13.519532-7.898438-24.921876-18.957032-33.226563-32.230469 12.472656-3.191407 51.933594-3.191407 84.257813-3.191407zm0 0"/></svg>