<svg height="512pt" viewBox="0 0 512.02142 512" width="512pt" xmlns="http://www.w3.org/2000/svg"><path d="m503.476562 366.945312c0 113.066407-110.761718 136.53125-247.464843 136.53125-2.902344 0-5.71875 0-8.535157-.085937-132.777343-.9375-238.933593-25.769531-238.933593-136.445313 1.363281-40.960937 12.230469-81.042968 31.746093-117.078124l206.847657-139.351563 8.53125-5.714844 216.066406 145.066407c19.511719 36.035156 30.378906 76.117187 31.742187 117.078124zm0 0" fill="#2e7d32"/><path d="m477.878906 366.945312c0 110.675782-104.261718 135.507813-234.667968 136.445313-130.40625-.9375-234.667969-25.769531-234.667969-136.445313 1.324219-40.894531 11.988281-80.945312 31.183593-117.078124l203.152344-139.351563 203.816406 139.351563c19.195313 36.132812 29.859376 76.183593 31.183594 117.078124zm0 0" fill="#4cae50"/><path d="m503.476562 187.742188c.054688 24.617187-11.761718 47.746093-31.742187 62.125-1.339844 1.015624-2.738281 1.957031-4.183594 2.816406-4.207031-3.707032-9.03125-6.652344-14.25-8.703125-12.53125-4.898438-26.171875-6.257813-39.421875-3.925781-10.363281 1.476562-20.097656 5.855468-28.078125 12.628906-22.433593-13.945313-36.03125-38.523438-35.921875-64.941406.011719-3.480469.238282-6.957032.679688-10.410157l13.996094-34.558593c2.3125-3.394532 4.972656-6.542969 7.9375-9.386719 11.238281-11.257813 25.703124-18.746094 41.386718-21.417969 4.230469-.6875 8.511719-1.03125 12.796875-1.023438 42.417969 0 76.800781 34.382813 76.800781 76.796876zm0 0" fill="#2e7d32"/><path d="m477.878906 187.742188c.066406 21.367187-8.851562 41.773437-24.578125 56.238281-2.269531 2.101562-4.664062 4.070312-7.167969 5.886719-1.339843 1.015624-2.734374 1.957031-4.179687 2.816406-7.980469-6.773438-17.714844-11.152344-28.074219-12.628906-13.28125-2.332032-26.949218-.972657-39.511718 3.925781-15.65625-14.507813-24.535157-34.894531-24.488282-56.238281.011719-3.480469.238282-6.957032.679688-10.410157l13.996094-34.558593c2.3125-3.394532 4.972656-6.542969 7.9375-9.386719 11.238281-11.257813 25.703124-18.746094 41.386718-21.417969 36.953125 6.273438 63.996094 38.289062 64 75.773438zm0 0" fill="#4cae50"/><path d="m162.144531 187.742188c.042969 26.398437-13.539062 50.949218-35.925781 64.941406-5.082031-4.449219-11-7.84375-17.40625-9.984375-15.246094-5.007813-31.691406-5.007813-46.933594 0-6.410156 2.140625-12.328125 5.535156-17.410156 9.984375-1.445312-.859375-2.839844-1.800782-4.179688-2.816406-23.367187-16.9375-35.257812-45.550782-30.777343-74.058594 4.480469-28.511719 24.574219-52.097656 52.011719-61.046875 27.4375-8.953125 57.574218-1.757813 78.007812 18.625 2.964844 2.867187 5.652344 6.007812 8.019531 9.386719l13.910157 34.558593c.441406 3.453125.671874 6.929688.683593 10.410157zm0 0" fill="#4cae50"/><path d="m85.34375 128.011719c-2.859375-.035157-5.714844.195312-8.53125.683593-25.332031 3.691407-45.496094 23.117188-50.128906 48.292969-4.632813 25.179688 7.289062 50.507813 29.648437 62.980469 1.785157 1.027344 3.640625 1.941406 5.546875 2.730469 4.839844-1.636719 9.847656-2.726563 14.933594-3.242188 2.828125-.347656 5.679688-.519531 8.53125-.511719 4.003906-.011718 8.003906.332032 11.945312 1.023438 3.921876.527344 7.78125 1.441406 11.523438 2.730469 26.121094-11.128907 40.800781-39.109375 35.109375-66.929688-5.691406-27.820312-30.183594-47.785156-58.578125-47.757812zm0 0" fill="#fff"/><path d="m426.675781 128.011719c-2.859375-.035157-5.714843.195312-8.53125.683593-25.332031 3.691407-45.496093 23.117188-50.128906 48.292969-4.632813 25.179688 7.292969 50.507813 29.648437 62.980469 1.789063 1.027344 3.640626 1.941406 5.546876 2.730469 4.839843-1.636719 9.847656-2.726563 14.933593-3.242188 2.832031-.347656 5.679688-.519531 8.53125-.511719 4.007813-.011718 8.003907.332032 11.949219 1.023438 3.917969.527344 7.777344 1.441406 11.519531 2.730469 26.125-11.128907 40.800781-39.109375 35.109375-66.929688-5.691406-27.820312-30.179687-47.785156-58.578125-47.757812zm0 0" fill="#fff"/><path d="m128.011719 187.742188c0 23.566406-19.105469 42.667968-42.667969 42.667968s-42.667969-19.101562-42.667969-42.667968c0-23.5625 19.105469-42.664063 42.667969-42.664063s42.667969 19.101563 42.667969 42.664063zm0 0" fill="#f34335"/><path d="m469.34375 187.742188c0 23.566406-19.101562 42.667968-42.667969 42.667968-23.5625 0-42.664062-19.101562-42.664062-42.667968 0-23.5625 19.101562-42.664063 42.664062-42.664063 23.566407 0 42.667969 19.101563 42.667969 42.664063zm0 0" fill="#f34335"/><path d="m443.742188 341.34375s-12.882813 96.511719-128 121.941406c-19.632813 4.175782-39.660157 6.207032-59.730469 6.058594-20.074219.148438-40.101563-1.882812-59.734375-6.058594-115.113282-25.429687-128-121.941406-128-121.941406s12.96875-3.582031 34.132812-7.9375c13.996094-2.984375 31.488282-6.3125 51.199219-9.214844 15.875-2.472656 33.195313-4.605468 51.203125-6.144531 16.636719-1.449219 33.960938-2.304687 51.199219-2.304687 17.234375 0 34.558593.855468 51.199219 2.304687 18.003906 1.539063 35.328124 3.671875 51.199218 6.144531 19.710938 2.902344 37.207032 6.230469 51.199219 9.214844 21.164063 4.355469 34.132813 7.9375 34.132813 7.9375zm0 0" fill="#ac1457"/><path d="m315.742188 413.878906v49.40625c-19.632813 4.175782-39.660157 6.207032-59.730469 6.058594-20.074219.148438-40.101563-1.882812-59.734375-6.058594v-49.40625c-.015625-1.429687.097656-2.859375.339844-4.269531 2.226562-14.585937 14.769531-25.363281 29.527343-25.363281 14.753907 0 27.300781 10.777344 29.523438 25.363281.246093 1.410156.359375 2.839844.34375 4.269531-.019531-1.429687.097656-2.859375.339843-4.269531 2.226563-14.585937 14.769532-25.363281 29.527344-25.363281 14.753906 0 27.300782 10.777344 29.523438 25.363281.246094 1.410156.359375 2.839844.339844 4.269531zm0 0" fill="#f34335"/><g fill="#ffebb2"><path d="m256.011719 315.742188v8.535156c0 14.136718-11.460938 25.601562-25.601563 25.601562-14.136718 0-25.597656-11.464844-25.597656-25.601562v-6.230469c16.636719-1.449219 33.960938-2.304687 51.199219-2.304687zm0 0"/><path d="m204.8125 318.046875v14.765625c0 14.136719-11.464844 25.597656-25.601562 25.597656-14.140626 0-25.601563-11.460937-25.601563-25.597656v-8.621094c15.875-2.472656 33.195313-4.605468 51.203125-6.144531zm0 0"/><path d="m153.609375 324.191406v17.152344c0 14.140625-11.460937 25.601562-25.597656 25.601562-14.140625 0-25.601563-11.460937-25.601563-25.601562v-7.9375c13.996094-2.984375 31.488282-6.3125 51.199219-9.214844zm0 0"/><path d="m358.410156 324.191406v8.621094c0 14.136719-11.460937 25.597656-25.597656 25.597656-14.140625 0-25.601562-11.460937-25.601562-25.597656v-14.765625c18.003906 1.539063 35.328124 3.671875 51.199218 6.144531zm0 0"/><path d="m409.609375 333.40625v7.9375c0 14.140625-11.460937 25.601562-25.597656 25.601562-14.140625 0-25.601563-11.460937-25.601563-25.601562v-17.152344c19.710938 2.902344 37.207032 6.230469 51.199219 9.214844zm0 0"/><path d="m307.210938 318.046875v6.230469c0 14.136718-11.460938 25.601562-25.601563 25.601562-14.136719 0-25.597656-11.464844-25.597656-25.601562v-8.535156c17.234375 0 34.558593.855468 51.199219 2.304687zm0 0"/></g><path d="m238.945312 247.476562c0 9.425782-7.640624 17.066407-17.066406 17.066407-9.425781 0-17.066406-7.640625-17.066406-17.066407 0-9.425781 7.640625-17.066406 17.066406-17.066406 9.425782 0 17.066406 7.640625 17.066406 17.066406zm0 0" fill="#2e7d32"/><path d="m307.210938 247.476562c0 9.425782-7.640626 17.066407-17.066407 17.066407s-17.066406-7.640625-17.066406-17.066407c0-9.425781 7.640625-17.066406 17.066406-17.066406s17.066407 7.640625 17.066407 17.066406zm0 0" fill="#2e7d32"/><path d="m76.8125 170.675781c0 9.425781-7.644531 17.066407-17.070312 17.066407-9.421876 0-17.066407-7.640626-17.066407-17.066407s7.644531-17.066406 17.066407-17.066406c9.425781 0 17.070312 7.640625 17.070312 17.066406zm0 0" fill="#fff"/><path d="m418.144531 170.675781c0 9.425781-7.640625 17.066407-17.066406 17.066407s-17.066406-7.640626-17.066406-17.066407 7.640625-17.066406 17.066406-17.066406 17.066406 7.640625 17.066406 17.066406zm0 0" fill="#fff"/><path d="m366.945312 119.476562c.027344 33.429688-15.058593 65.078126-41.046874 86.101563-2.917969-4.910156-6.542969-9.367187-10.75-13.226563-6.792969-6.308593-14.691407-11.316406-23.296876-14.761718-23.003906-9.214844-48.675781-9.214844-71.679687 0-8.609375 3.445312-16.503906 8.453125-23.296875 14.761718-4.210938 3.859376-7.832031 8.316407-10.753906 13.226563-40.105469-32.535156-52.457032-88.449219-29.78125-134.851563 22.675781-46.402343 74.371094-71.019531 124.6875-59.375 50.316406 11.648438 85.941406 56.480469 85.917968 108.125zm0 0" fill="#4cae50"/><path d="m256.011719 25.609375c-24.910157-.039063-48.808594 9.835937-66.417969 27.449219-17.613281 17.613281-27.492188 41.511718-27.449219 66.417968-.042969 25.738282 10.550781 50.347657 29.269531 68.011719 1.707032 1.707031 3.582032 3.328125 5.460938 4.863281 6.792969-6.308593 14.6875-11.316406 23.296875-14.761718 1.875-.769532 3.753906-1.449219 5.714844-2.132813 9.722656-3.195312 19.890625-4.808593 30.125-4.78125 12.28125-.0625 24.460937 2.285157 35.839843 6.914063 5.816407 2.359375 11.316407 5.425781 16.382813 9.128906 2.453125 1.6875 4.765625 3.574219 6.914063 5.632812 30.847656-25.042968 42.585937-66.800781 29.304687-104.25-13.285156-37.449218-48.707031-62.480468-88.441406-62.492187zm0 0" fill="#fff"/><path d="m324.277344 119.476562c.011718 23.6875-12.261719 45.6875-32.425782 58.113282-11.378906-4.628906-23.558593-6.976563-35.839843-6.914063-10.234375-.027343-20.402344 1.585938-30.125 4.78125-1.960938.683594-3.839844 1.363281-5.714844 2.132813-27.984375-17.261719-39.6875-52.015625-27.847656-82.6875 11.84375-30.671875 43.863281-48.546875 76.1875-42.527344 32.320312 6.019531 55.761719 34.222656 55.765625 67.101562zm0 0" fill="#f34335"/><path d="m273.078125 119.476562c0 9.425782-7.640625 17.066407-17.066406 17.066407s-17.066407-7.640625-17.066407-17.066407c0-9.425781 7.640626-17.066406 17.066407-17.066406s17.066406 7.640625 17.066406 17.066406zm0 0" fill="#37474f"/><path d="m102.410156 187.742188c0 9.425781-7.640625 17.070312-17.066406 17.070312s-17.066406-7.644531-17.066406-17.070312c0-9.421876 7.640625-17.066407 17.066406-17.066407s17.066406 7.644531 17.066406 17.066407zm0 0" fill="#37474f"/><path d="m443.742188 187.742188c0 9.425781-7.640626 17.070312-17.066407 17.070312s-17.066406-7.644531-17.066406-17.070312c0-9.421876 7.640625-17.066407 17.066406-17.066407s17.066407 7.644531 17.066407 17.066407zm0 0" fill="#37474f"/><path d="m230.410156 93.878906c0 14.136719-11.460937 25.597656-25.597656 25.597656-14.140625 0-25.601562-11.460937-25.601562-25.597656 0-14.140625 11.460937-25.601562 25.601562-25.601562 14.136719 0 25.597656 11.460937 25.597656 25.601562zm0 0" fill="#fff"/><path d="m256.011719 512.011719c119.191406 0 256-16.488281 256-145.066407-1.273438-39.972656-11.40625-79.164062-29.671875-114.742187 27.050781-23.234375 36.765625-60.859375 24.34375-94.28125-12.421875-33.425781-44.347656-55.578125-80.007813-55.511719-18.488281-.023437-36.472656 6.019532-51.199219 17.203125v-.136719c0-65.980468-53.484374-119.4648432-119.464843-119.4648432s-119.46875 53.4843752-119.46875 119.4648432v.15625c-14.71875-11.195312-32.707031-17.246093-51.199219-17.222656-35.65625-.066406-67.585938 22.085938-80.003906 55.511719-12.421875 33.421875-2.707032 71.046875 24.339844 94.28125-18.261719 35.578125-28.398438 74.769531-29.6679692 114.742187 0 128.578126 136.8046872 145.066407 256.0000002 145.066407zm0-17.066407c-167.476563 0-238.933594-38.28125-238.933594-128 1.21875-36.820312 10.507813-72.921874 27.210937-105.753906h.171876c.871093-.015625 1.734374-.164062 2.558593-.4375.199219-.058594.367188-.152344.566407-.230468.839843-.324219 1.625-.785157 2.320312-1.363282.085938-.070312.1875-.085937.273438-.164062 9.988281-7.878906 22.449218-11.960938 35.164062-11.519532 12.71875-.433593 25.179688 3.65625 35.167969 11.546876.050781 0 .109375.050781.152343.09375.667969.566406 1.417969 1.023437 2.226563 1.355468.222656.09375.433594.179688.664063.257813.851562.296875 1.746093.460937 2.648437.476562 1.03125-.023437 2.046875-.238281 3.003906-.632812.253907-.09375.5-.203125.742188-.332031.257812-.09375.511719-.203126.757812-.332032 20.734375-12.910156 34.855469-34.179687 38.699219-58.300781 3.535156 3.769531 7.3125 7.304687 11.304688 10.582031.183593.113282.375.214844.574218.300782.179688.125.28125.3125.476563.433593.328125.132813.660156.246094 1 .339844.523437.246094 1.074219.4375 1.636719.566406.503906.089844 1.015624.136719 1.527343.136719.570313.023438 1.144531-.007812 1.707031-.105469.5-.105469.992188-.253906 1.46875-.441406.527344-.191406 1.03125-.433594 1.507813-.726563.464844-.308593.894531-.660156 1.28125-1.058593.296875-.210938.582031-.445313.855469-.691407.144531-.179687.175781-.390624.304687-.578124.128907-.1875.308594-.28125.417969-.46875 7.105469-11.160157 17.617188-19.730469 29.980469-24.441407 20.945312-8.203125 44.214843-8.203125 65.160156 0 12.355469 4.722657 22.855469 13.304688 29.941406 24.472657.164063.234374.34375.460937.53125.675781.082031.117187.101563.265625.195313.375s.179687.121093.253906.195312c.710938.839844 1.582031 1.53125 2.5625 2.03125.167969.078125.34375.144531.519531.207031 1.027344.453126 2.136719.699219 3.261719.722657.867188-.011719 1.730469-.15625 2.558594-.425781.265625-.085938.503906-.214844.75-.316407.355468-.121093.707031-.265625 1.042968-.433593.167969-.101563.261719-.273438.425782-.386719.214844-.101563.421875-.21875.621094-.347657 3.996093-3.277343 7.773437-6.8125 11.308593-10.582031 3.84375 24.121094 17.960938 45.390625 38.699219 58.300781.1875.097657.378906.183594.578125.253907.253906.136719.515625.253906.785156.351562.730469.296875 1.496094.488281 2.277344.570313.199219 0 .386719.078125.589844.078125.09375.003906.183593.003906.273437 0 .871094-.015625 1.734375-.164063 2.558594-.433594.191406-.0625.359375-.148437.546875-.214844.90625-.339843 1.75-.839843 2.484375-1.46875.042969 0 .09375 0 .136719-.074219 20.917969-15.398437 49.414062-15.398437 70.332031 0 .09375.082032.210938.109376.308594.1875.613281.507813 1.300781.925782 2.039062 1.234376.226563.109374.460938.203124.699219.28125.847656.300781 1.742187.460937 2.644531.480468h.171875c16.710938 32.832032 26.007813 68.933594 27.238281 105.753906 0 89.71875-71.460937 128-238.933593 128zm34.507812-326.828124c-22.378906-7.585938-46.636719-7.585938-69.019531 0-21.230469-15.027344-30.296875-42.070313-22.414062-66.863282 7.886718-24.789062 30.910156-41.625 56.925781-41.625 26.011719 0 49.035156 16.835938 56.921875 41.625 7.886718 24.792969-1.179688 51.835938-22.414063 66.863282zm88.003907-28.671876c12.738281-12.824218 30.078124-20.015624 48.152343-19.96875 29.335938-.039062 55.40625 18.691407 64.726563 46.507813 9.320312 27.816406-.199219 58.476563-23.636719 76.117187-25.167969-15.570312-56.976563-15.570312-82.140625 0-17.179688-12.777343-27.277344-32.949218-27.214844-54.359374.039063-2.601563.210938-5.203126.511719-7.789063 6.148437-10.375 10.679687-21.625 13.433594-33.367187 1.835937-2.566407 3.902343-4.964844 6.167969-7.167969zm-122.511719-122.367187c37.003906.007813 71.125 19.984375 89.25 52.25 18.121093 32.265625 17.429687 71.796875-1.820313 103.40625-.152344.238281-.289062.480469-.417968.734375-4.4375 7.085938-9.730469 13.601562-15.757813 19.394531-5.550781-6.617187-12.15625-12.269531-19.550781-16.722656 23.457031-21.355469 31.371094-54.929687 19.925781-84.511719-11.449219-29.582031-39.90625-49.082031-71.625-49.082031s-60.175781 19.5-71.625 49.082031c-11.449219 29.582032-3.53125 63.15625 19.925781 84.511719-7.402344 4.449219-14.011718 10.101563-19.558594 16.722656-6.035156-5.796875-11.335937-12.3125-15.785156-19.394531-.109375-.222656-.226562-.433594-.359375-.640625-19.292969-31.609375-20.019531-71.167969-1.898437-103.460937 18.121094-32.292969 52.265625-52.289063 89.296875-52.289063zm-238.933594 170.664063c-.015625-27.609376 16.613281-52.507813 42.125-63.070313s54.871094-4.707031 74.378906 14.832031c2.203125 2.160156 4.230469 4.492188 6.058594 6.972656 2.75 11.78125 7.285156 23.070313 13.457031 33.476563.300782 2.585937.472656 5.1875.511719 7.789063.054687 21.402343-10.039063 41.5625-27.210937 54.332031-12.226563-7.867188-26.515626-11.929688-41.054688-11.664063-14.554688-.265625-28.859375 3.804688-41.097656 11.691406-17.078125-12.855468-27.136719-32.980468-27.167969-54.359374zm0 0"/><path d="m256.011719 93.878906c-14.140625 0-25.601563 11.460938-25.601563 25.597656 0 14.140626 11.460938 25.601563 25.601563 25.601563 14.136719 0 25.597656-11.460937 25.597656-25.601563 0-14.136718-11.460937-25.597656-25.597656-25.597656zm0 34.132813c-4.714844 0-8.535157-3.820313-8.535157-8.535157 0-4.710937 3.820313-8.53125 8.535157-8.53125 4.710937 0 8.53125 3.820313 8.53125 8.53125 0 4.714844-3.820313 8.535157-8.53125 8.535157zm0 0"/><path d="m85.34375 213.34375c10.355469 0 19.6875-6.238281 23.652344-15.804688 3.960937-9.5625 1.769531-20.574218-5.550782-27.898437-7.320312-7.320313-18.332031-9.511719-27.898437-5.546875-9.566406 3.960938-15.804687 13.296875-15.804687 23.648438 0 14.140624 11.464843 25.601562 25.601562 25.601562zm0-34.132812c4.714844 0 8.535156 3.820312 8.535156 8.53125 0 4.714843-3.820312 8.535156-8.535156 8.535156-4.710938 0-8.53125-3.820313-8.53125-8.535156 0-4.710938 3.820312-8.53125 8.53125-8.53125zm0 0"/><path d="m426.675781 213.34375c10.355469 0 19.691407-6.238281 23.652344-15.804688 3.964844-9.5625 1.773437-20.574218-5.546875-27.898437-7.324219-7.320313-18.335938-9.511719-27.902344-5.546875-9.5625 3.960938-15.800781 13.296875-15.800781 23.648438 0 14.140624 11.460937 25.601562 25.597656 25.601562zm0-34.132812c4.714844 0 8.535157 3.820312 8.535157 8.53125 0 4.714843-3.820313 8.535156-8.535157 8.535156-4.710937 0-8.53125-3.820313-8.53125-8.535156 0-4.710938 3.820313-8.53125 8.53125-8.53125zm0 0"/><path d="m446.023438 333.117188c-.546876-.144532-13.484376-3.703126-34.628907-8.054688-16.972656-3.625-34.382812-6.757812-51.667969-9.320312-16.890624-2.636719-34.3125-4.726563-51.789062-6.21875-8.910156-.777344-17.640625-1.355469-26.277344-1.707032-8.632812-.351562-17.285156-.605468-25.648437-.605468s-16.921875.195312-25.601563.589843c-8.679687.390625-17.390625.972657-26.308594 1.707031-8.738281.75-17.46875 1.644532-26.101562 2.679688-8.636719 1.03125-17.238281 2.226562-25.6875 3.539062-8.644531 1.273438-17.304688 2.6875-25.914062 4.265626-8.609376 1.582031-17.238282 3.242187-25.730469 5.0625-21.160157 4.359374-34.070313 7.910156-34.617188 8.054687-4.121093 1.140625-6.761719 5.152344-6.179687 9.386719.128906 1.023437 15.054687 102.734375 134.613281 129.152344 20.226563 4.28125 40.855469 6.371093 61.527344 6.230468 20.691406.136719 41.335937-1.960937 61.574219-6.257812 119.5625-26.453125 134.488281-128.125 134.613281-129.152344.566406-4.222656-2.070313-8.210938-6.175781-9.351562zm-101.15625 11.75c-4.878907 4.875-12.214844 6.328124-18.585938 3.691406-6.371094-2.636719-10.527344-8.851563-10.539062-15.746094v-5.308594c1.863281.179688 3.707031.375 5.558593.570313 7.71875.808593 15.378907 1.734375 22.980469 2.78125 1.867188.257812 3.734375.503906 5.597656.777343v1.179688c.007813 4.527344-1.796875 8.867188-5.011718 12.054688zm-233.921876-4.445313c1.910157-.390625 3.839844-.75 5.765626-1.125 7.585937-1.492187 15.214843-2.878906 22.898437-4.164063 1.8125-.308593 3.636719-.59375 5.46875-.855468v7.066406c0 9.425781-7.640625 17.066406-17.066406 17.066406s-17.066407-7.640625-17.066407-17.066406zm51.199219-8.789063c1.875-.273437 3.769531-.519531 5.65625-.777343 7.59375-1.046875 15.253907-1.976563 22.980469-2.789063 1.835938-.195312 3.660156-.382812 5.496094-.5625v5.308594c0 9.425781-7.640625 17.066406-17.066406 17.066406-9.425782 0-17.066407-7.640625-17.066407-17.066406zm68.574219-6.757812 1.707031-.050781c5.050781-.222657 10.050781-.265625 15.058594-.34375-.191406 8.984375-7.3125 16.28125-16.289063 16.6875-8.972656.40625-16.726562-6.214844-17.730468-15.140625 5.765625-.4375 11.578125-.898438 17.253906-1.152344zm48.972656-.050781 1.585938.050781c5.691406.253906 11.503906.714844 17.304687 1.152344-.9375 8.988281-8.71875 15.683594-17.746093 15.277344-9.027344-.410157-16.171876-7.785157-16.292969-16.824219 5.042969.078125 10.070312.121093 15.148437.34375zm87.253906 9.410156c1.789063.28125 3.582032.582031 5.375.855469 7.71875 1.285156 15.398438 2.679687 23.039063 4.1875 1.914063.378906 3.824219.734375 5.71875 1.121094v.945312c0 9.425781-7.640625 17.066406-17.066406 17.066406s-17.066407-7.640625-17.066407-17.066406zm-125.398437 126.226563c-1.542969-.070313-3.046875-.195313-4.566406-.289063-3.171875-.199219-6.332031-.410156-9.429688-.710937-1.765625-.160157-3.496093-.382813-5.238281-.578126-2.78125-.324218-5.546875-.667968-8.261719-1.066406-1.789062-.265625-3.558593-.5625-5.324219-.855468-1.320312-.230469-2.609374-.492188-3.914062-.742188v-42.339844c-.007812-.796875.050781-1.59375.167969-2.382812 0-.230469 0-.425782.085937-.683594 1.484375-10.445312 10.402344-18.222656 20.949219-18.273438 10.550781-.050781 19.542969 7.640626 21.128906 18.070313l.332031 24.746094c.078126 4.65625 3.878907 8.390625 8.535157 8.386719h.117187c4.710938-.0625 8.476563-3.933594 8.414063-8.640626l-.261719-19.910156c.121094-.429687.210938-.871094.261719-1.3125-.003907-.796875.054687-1.59375.171875-2.382812 0-.230469 0-.425782.085937-.683594 1.617188-10.472656 10.679688-18.171875 21.277344-18.078125 10.597656.097656 19.519531 7.960937 20.945313 18.464844.140624.882812.203124 1.78125.1875 2.679687v42.332032c-1.304688.246093-2.558594.511718-3.917969.742187-1.765625.300781-3.53125.597656-5.324219.855469-2.714844.398437-5.476562.742187-8.261719 1.066406-1.703125.195312-3.472656.417969-5.238281.578125-3.097656.300781-6.253906.511719-9.429688.710937-1.519531.09375-3.019531.21875-4.5625.289063-4.753906.222656-9.566406.347656-14.507812.347656s-9.667969-.117187-14.421875-.339843zm82.773437-8.234376v-42.617187c-.023437-1.316406-.378906-2.609375-1.03125-3.753906-3.042968-14.480469-14.160156-25.910157-28.550781-29.34375-14.394531-3.4375-29.476562 1.738281-38.726562 13.285156-9.230469-11.527344-24.277344-16.699219-38.644531-13.289063-14.367188 3.410157-25.480469 14.792969-28.546876 29.238282-.671874 1.179687-1.039062 2.507812-1.078124 3.863281v42.617187c-81.96875-22.546874-104.199219-83.320312-109.496094-104.636718 3.933594-.972656 9.386718-2.253906 15.878906-3.6875 1.003906 14.871094 11.59375 27.339844 26.105469 30.742187 14.507812 3.398438 29.535156-3.070312 37.042969-15.945312 7.582031 6.578125 17.703124 9.433593 27.605468 7.78125 9.902344-1.648438 18.554688-7.628907 23.59375-16.3125 6.757813 5.867187 15.582032 8.792969 24.507813 8.128906 8.925781-.667969 17.21875-4.871094 23.03125-11.679687 5.8125 6.820312 14.109375 11.03125 23.042969 11.699218 8.9375.667969 17.765624-2.261718 24.53125-8.140625 5.039062 8.683594 13.6875 14.664063 23.589843 16.3125 9.902344 1.652344 20.023438-1.199219 27.609375-7.777343 7.503906 12.871093 22.53125 19.339843 37.042969 15.941406 14.507813-3.402344 25.097656-15.871094 26.101563-30.738282 6.503906 1.421876 11.949218 2.710938 15.882812 3.683594-5.34375 21.335938-27.613281 82.082032-109.535156 104.628906zm0 0"/><path d="m221.878906 273.078125c14.136719 0 25.597656-11.460937 25.597656-25.601563 0-14.136718-11.460937-25.597656-25.597656-25.597656-14.140625 0-25.601562 11.460938-25.601562 25.597656 0 14.140626 11.460937 25.601563 25.601562 25.601563zm0-34.132813c4.710938 0 8.53125 3.820313 8.53125 8.53125 0 4.714844-3.820312 8.535157-8.53125 8.535157-4.714844 0-8.535156-3.820313-8.535156-8.535157 0-4.710937 3.820312-8.53125 8.535156-8.53125zm0 0"/><path d="m290.144531 273.078125c14.136719 0 25.597657-11.460937 25.597657-25.601563 0-14.136718-11.460938-25.597656-25.597657-25.597656-14.140625 0-25.601562 11.460938-25.601562 25.597656 0 14.140626 11.460937 25.601563 25.601562 25.601563zm0-34.132813c4.710938 0 8.53125 3.820313 8.53125 8.53125 0 4.714844-3.820312 8.535157-8.53125 8.535157-4.714843 0-8.535156-3.820313-8.535156-8.535157 0-4.710937 3.820313-8.53125 8.535156-8.53125zm0 0"/></svg>