<svg height="496pt" viewBox="0 0 496.87302 496" width="496pt" xmlns="http://www.w3.org/2000/svg"><path d="m105.875 448.601562c3.757812-.675781 7.488281 1.308594 9.023438 4.800782 1.539062 3.496094.480468 7.585937-2.558594 9.898437-27.515625 20.96875-56.367188 32.761719-76.734375 18.5-4.523438-3.214843-8.34375-7.316406-11.230469-12.058593-9.25-14.367188-15.195312-38.152344-15.9375-74.238282-.164062-5.285156-.164062-10.820312-.082031-16.601562.082031-4.871094.246093-9.824219.496093-15.109375.992188-22.875 5.046876-45.511719 12.054688-67.304688 2.066406-6.359375 4.296875-12.550781 6.773438-18.5 13.117187-31.421875 32.089843-60.0625 55.90625-84.394531l29.648437 127.171875c-22.457031 23.679687-38.488281 52.703125-46.578125 84.316406-9.332031 42.050781 15.691406 47.070313 39.21875 43.519531zm0 0" fill="#fdc008"/><path d="m487.734375 378.984375c.085937 5.78125.085937 11.316406-.082031 16.601563-.742188 35.757812-6.523438 59.375-15.605469 73.742187-2.929687 4.777344-6.742187 8.953125-11.230469 12.304687-10.046875 6.710938-22.617187 8.445313-34.109375 4.707032h-.082031c-15.625-4.867188-30.175781-12.691406-42.859375-23.039063-2.546875-1.949219-3.734375-5.199219-3.042969-8.332031.691406-3.136719 3.132813-5.585938 6.265625-6.285156 1.058594-.234375 2.152344-.261719 3.21875-.082032 23.535157 3.550782 48.558594-1.488281 39.226563-43.519531-8.046875-31.460937-23.960938-60.363281-46.246094-83.984375l24.609375-104.464844 5.285156-22.542968c23.757813 24.425781 42.648438 53.152344 55.660157 84.644531 2.394531 5.945313 4.625 12.054687 6.6875 18.414063 6.839843 21.601562 10.8125 44.007812 11.8125 66.644531.246093 5.285156.410156 10.320312.492187 15.191406zm0 0" fill="#ff9701"/><path d="m462.960938 378.984375c.082031 5.78125.082031 11.316406-.082032 16.601563-.742187 35.757812-6.523437 59.375-15.609375 73.742187-2.925781 4.777344-6.738281 8.953125-11.230469 12.304687-2.859374 2.023438-6.003906 3.609376-9.332031 4.707032h-.082031c-15.625-4.867188-30.175781-12.691406-42.859375-23.039063-2.546875-1.949219-3.734375-5.199219-3.042969-8.332031.691406-3.136719 3.132813-5.585938 6.265625-6.285156 1.058594-.234375 2.152344-.261719 3.21875-.082032 23.535157 3.550782 48.558594-1.488281 39.226563-43.519531-8.046875-31.460937-23.960938-60.363281-46.246094-83.984375l24.609375-104.464844c14.867187 18.929688 27.039063 39.828126 36.171875 62.101563 2.394531 5.945313 4.625 12.054687 6.6875 18.414063 6.839844 21.601562 10.8125 44.007812 11.808594 66.644531.25 5.285156.414062 10.320312.496094 15.191406zm0 0" fill="#fdc008"/><path d="m413.496094 206.886719c0 109.421875-73.910156 198.195312-165.160156 198.195312-2.644532 0-5.367188-.082031-8.011719-.25h-.496094c-87.285156-5.285156-156.65625-91.910156-156.65625-197.945312 0-106.03125 69.371094-192.660157 156.65625-197.945313h.496094c2.644531-.164062 5.367187-.246094 8.011719-.246094 91.25 0 165.160156 88.773438 165.160156 198.191407zm0 0" fill="#d74315"/><path d="m388.722656 206.886719c0 106.035156-67.542968 192.660156-152.535156 197.945312h-.480469c-84.992187-5.285156-152.535156-91.910156-152.535156-197.945312 0-106.03125 67.542969-192.660157 152.535156-197.945313h.480469c84.992188 5.285156 152.535156 91.914063 152.535156 197.945313zm0 0" fill="#ff5722"/><path d="m248.335938 58.242188c-2.726563 0-5.453126.164062-8.09375.414062h-.332032c-37.3125 3.847656-67.34375 32.359375-73.125 69.421875-5.777344 37.0625 14.148438 73.363281 48.515625 88.390625h66.066407c35.785156-15.675781 55.691406-54.277344 47.707031-92.523438-7.984375-38.242187-41.671875-65.65625-80.738281-65.703124zm0 0" fill="#fff"/><path d="m297.882812 132.566406c0 27.363282-22.183593 49.546875-49.546874 49.546875-27.367188 0-49.550782-22.183593-49.550782-49.546875 0-27.367187 22.183594-49.550781 49.550782-49.550781 27.363281 0 49.546874 22.183594 49.546874 49.550781zm0 0" fill="#02a8f3"/><path d="m273.109375 132.566406c0 13.679688-11.09375 24.773438-24.773437 24.773438-13.683594 0-24.777344-11.09375-24.777344-24.773438 0-13.683594 11.09375-24.773437 24.777344-24.773437 13.679687 0 24.773437 11.089843 24.773437 24.773437zm0 0" fill="#37474f"/><path d="m248.335938 223.402344v-18.511719c-1.085938-8.296875-8.152344-14.5-16.515626-14.5-8.367187 0-15.433593 6.203125-16.519531 14.5v23.796875zm0 0" fill="#f9eab0"/><path d="m240.078125 223.402344v-18.511719c0-7.988281-3.71875-14.519531-8.257813-14.519531-4.542968 0-8.261718 6.53125-8.261718 14.519531v23.796875zm0 0" fill="#ffebb2"/><path d="m281.367188 228.6875v-23.796875c-1.085938-8.296875-8.152344-14.5-16.515626-14.5-8.367187 0-15.433593 6.203125-16.515624 14.5v19.15625zm0 0" fill="#f9eab0"/><path d="m273.109375 223.402344v-18.511719c0-7.988281-3.714844-14.519531-8.257813-14.519531-4.542968 0-8.257812 6.53125-8.257812 14.519531v23.796875zm0 0" fill="#ffebb2"/><path d="m58.398438 74.757812c0 13.683594-11.089844 24.777344-24.773438 24.777344s-24.773438-11.09375-24.773438-24.777344c0-13.679687 11.089844-24.773437 24.773438-24.773437s24.773438 11.09375 24.773438 24.773437zm0 0" fill="#ff5722"/><path d="m487.820312 74.757812c0 13.683594-11.09375 24.777344-24.777343 24.777344-13.679688 0-24.773438-11.09375-24.773438-24.777344 0-13.679687 11.09375-24.773437 24.773438-24.773437 13.683593 0 24.777343 11.09375 24.777343 24.773437zm0 0" fill="#ff5722"/><path d="m240.078125 107.792969c0 13.679687-11.09375 24.773437-24.777344 24.773437-13.679687 0-24.773437-11.09375-24.773437-24.773437 0-13.683594 11.09375-24.777344 24.773437-24.777344 13.683594 0 24.777344 11.09375 24.777344 24.777344zm0 0" fill="#fff"/><path d="m16.917969 282.6875-.082031.214844c-9.546876 25.828125-15.027344 52.984375-16.242188 80.492187-3.535156 74.257813 8.710938 116.53125 37.417969 129.222657 5.707031 2.492187 11.878906 3.75 18.109375 3.699218 32.386718 0 68.855468-30.753906 89.945312-51.726562 1.859375-1.460938 3.003906-3.644532 3.144532-6.003906.140624-2.359376-.738282-4.664063-2.410157-6.335938-2.476562-2.4375-6.230469-3.039062-9.347656-1.503906v-.0625c-21.859375 9.328125-48.558594 14.863281-58.960937 6.257812-7.269532-6.035156-6.046876-19.695312-3.734376-30.101562 6.605469-26.71875 19.460938-51.488282 37.507813-72.265625 31.753906 47.929687 80.929687 78.765625 136.070313 78.765625 54.988281 0 104.050781-30.664063 135.84375-78.34375 17.867187 20.691406 30.597656 45.308594 37.160156 71.84375 2.3125 10.40625 3.542968 24.066406-3.730469 30.101562-10.382813 8.636719-37.105469 3.082032-59.03125-6.292968-.121094-.050782-.253906 0-.378906-.074219-3.164063-1.363281-6.847657-.585938-9.191407 1.941406-3.078124 3.359375-2.851562 8.578125.503907 11.660156.15625.148438.324219.289063.496093.429688 21.097657 20.976562 57.550782 51.710937 89.9375 51.710937 6.242188.058594 12.425782-1.203125 18.144532-3.699218 28.714844-12.726563 40.953125-55 37.417968-129.253907-2.761718-64.738281-29.210937-126.207031-74.324218-172.71875-2.671875-48.703125-21.1875-95.195312-52.726563-132.402343 3.035157-2.570313 6.488281-4.59375 10.214844-5.984376 14.039063-5.15625 32.015625-1.316406 53.472656 11.203126-5.871093 15.785156.925781 33.472656 15.851563 41.265624 14.929687 7.792969 33.324218 3.257813 42.921875-10.582031 9.59375-13.839843 7.390625-32.65625-5.140625-43.902343-12.535156-11.25-31.480469-11.414063-44.203125-.382813-26.425781-15.632813-49.492188-20.148437-68.585938-13.152344-5.855469 2.15625-11.265625 5.367188-15.960937 9.480469-28.878906-28.84375-67.882813-45.261719-108.691406-45.75-40.8125.488281-79.816407 16.90625-108.695313 45.75-4.707031-4.117188-10.132813-7.328125-16.003906-9.480469-19.082031-7.003906-42.179688-2.480469-68.539063 13.152344-11.765625-10.019531-28.921875-10.496094-41.226562-1.140625-12.300782 9.351562-16.429688 26.007812-9.921875 40.027344 6.507812 14.015625 21.898437 21.609375 36.984375 18.242187 15.082031-3.363281 25.789062-16.773437 25.722656-32.230469-.03125-3.875-.753906-7.714843-2.128906-11.335937 21.363281-12.472656 39.292968-16.328125 53.328125-11.265625 3.777343 1.40625 7.277343 3.464844 10.339843 6.085938-31.410156 37.074218-49.898437 83.367187-52.660156 131.882812-25.597656 26.574219-45.539062 58.0625-58.617187 92.5625zm446.125-224.445312c9.121093 0 16.515625 7.394531 16.515625 16.515624 0 9.121094-7.394532 16.515626-16.515625 16.515626-9.121094 0-16.515625-7.394532-16.515625-16.515626 0-9.121093 7.394531-16.515624 16.515625-16.515624zm-429.417969 33.03125c-9.121094 0-16.515625-7.394532-16.515625-16.515626 0-9.121093 7.394531-16.515624 16.515625-16.515624s16.515625 7.394531 16.515625 16.515624c0 9.121094-7.394531 16.515626-16.515625 16.515626zm24.964844 312.023437c-4.808594 21.660156-1.652344 37.269531 9.3125 46.386719 7.675781 5.757812 17.128906 8.640625 26.707031 8.140625 4.246094-.035157 8.484375-.390625 12.675781-1.054688-25.679687 19.511719-48.058594 27.203125-62.585937 20.777344-1.304688-.605469-2.558594-1.3125-3.75-2.121094 4.183593-5.621093 7.226562-12.007812 8.953125-18.796875 1.101562-4.429687-1.59375-8.914062-6.019532-10.015625-4.429687-1.105469-8.914062 1.589844-10.019531 6.019531-.875 3.503907-2.265625 6.859376-4.128906 9.957032-6.925781-12.1875-12.269531-32.734375-13.0625-66.742188h.625c11.035156.929688 21.980469-2.574218 30.425781-9.734375 3.128906-3.242187 3.082032-8.390625-.101562-11.578125-3.1875-3.183594-8.335938-3.230468-11.578125-.097656-5.660157 3.957031-12.582031 5.6875-19.4375 4.863281.082031-4.824219.238281-9.859375.496093-15.15625.894532-19.679687 4.085938-39.191406 9.503907-58.136719 6.519531 11.59375 17.140625 20.335938 29.769531 24.503907.664062.164062 1.34375.246093 2.023438.246093 4.171874.003907 7.691406-3.101562 8.203124-7.242187.511719-4.140625-2.140624-8.011719-6.1875-9.023437-8.984374-2.273438-18.414062-12.695313-26.789062-29.324219 9.96875-25.3125 23.964844-48.84375 41.445312-69.683594 1.082032 36.476563 10.71875 72.191406 28.136719 104.257813-21.566406 23.726562-36.898437 52.4375-44.617187 83.554687zm330.222656 53.472656c4.191406.664063 8.425781 1.019531 12.667969 1.054688 9.578125.5 19.027343-2.382813 26.699219-8.140625 10.980468-9.085938 14.121093-24.726563 9.3125-46.386719-7.683594-30.9375-22.890626-59.5-44.269532-83.148437 17.46875-32.003907 27.171875-67.660157 28.332032-104.101563 17.40625 20.867187 31.308593 44.417969 41.167968 69.738281-8.40625 16.515625-17.507812 26.425782-26.425781 28.707032-4.039063 1.011718-6.691406 4.871093-6.191406 9.003906.5 4.132812 4 7.246094 8.164062 7.261718.675781.003907 1.351563-.078124 2.007813-.246093 12.417968-4.054688 22.890625-12.570313 29.398437-23.898438 5.304688 18.769531 8.433594 38.089844 9.324219 57.574219.246094 5.300781.402344 10.347656.496094 15.179688-6.675782.730468-13.390625-1.015626-18.863282-4.90625-3.230468-3.226563-8.460937-3.222657-11.683593.007812-3.226563 3.230469-3.222657 8.460938.007812 11.683594 8.445313 7.167968 19.398438 10.675781 30.4375 9.753906-.824219 33.519531-6.003906 53.957031-12.757812 66.199219-1.71875-2.980469-3.019531-6.183594-3.875-9.515625-1.144531-4.394532-5.625-7.039063-10.027344-5.917969s-7.074219 5.589844-5.976563 9.996094c1.714844 6.664062 4.679688 12.9375 8.738282 18.492187-1.300782.921875-2.679688 1.71875-4.128906 2.386719-14.527344 6.425781-36.871094-1.265625-62.554688-20.777344zm-42.539062-398.113281c-2.816407 4.257812-5.082032 8.859375-6.738282 13.691406-.957031 2.847656-.292968 5.992188 1.738282 8.210938 2.027343 2.21875 5.101562 3.15625 8.023437 2.453125 2.925781-.707031 5.234375-2.941407 6.027344-5.839844.722656-2.058594 1.605469-4.054687 2.644531-5.972656 28.441406 34.789062 44.878906 77.835937 46.863281 122.722656.242188 4.304687.40625 8.613281.40625 12.964844.257813 38.863281-9.933593 77.085937-29.507812 110.660156-28.523438 47.96875-74.980469 79.277344-127.394531 79.277344-86.519532 0-156.90625-85.207031-156.90625-189.9375-.636719-49.355469 16.078124-97.371094 47.238281-135.652344 1.042969 1.90625 1.9375 3.890625 2.675781 5.9375.796875 2.898437 3.105469 5.132813 6.027344 5.839844 2.921875.703125 5.996094-.234375 8.027344-2.453125 2.027343-2.21875 2.691406-5.363282 1.734374-8.210938-1.65625-4.832031-3.921874-9.433594-6.738281-13.691406 25.902344-26.226562 61.082031-41.207031 97.941407-41.703125 36.855468.496094 72.039062 15.476563 97.9375 41.703125zm0 0"/><path d="m207.042969 221.652344v1.363281c-51.015625 21.785156-57.6875 81.410156-57.804688 82.144531-.457031 4.535156 2.851563 8.585938 7.390625 9.042969 4.539063.453125 8.585938-2.855469 9.042969-7.390625.304687-3.074219 8.375-75.148438 82.582031-75.148438 73.933594 0 82.304688 72.089844 82.621094 75.148438.425781 4.25 4.027344 7.472656 8.296875 7.429688.277344.003906.554687-.011719.828125-.039063 2.1875-.210937 4.199219-1.28125 5.59375-2.980469 1.394531-1.695312 2.054688-3.878906 1.835938-6.0625-.074219-.734375-6.746094-60.359375-57.761719-82.144531v-1.363281c37.398437-19.085938 56.84375-61.316406 47.03125-102.144532-9.816407-40.828124-46.332031-69.605468-88.324219-69.605468-41.988281 0-78.507812 28.777344-88.320312 69.605468-9.816407 40.828126 9.628906 83.058594 47.03125 102.144532zm66.066406-5.109375v1.230469c-5.4375-1.207032-10.960937-1.996094-16.515625-2.355469v-10.511719c0-3.402344 3.78125-6.277344 8.257812-6.277344 4.476563 0 8.257813 2.875 8.257813 6.277344zm-33.03125-11.636719v10.511719c-5.558594.359375-11.082031 1.148437-16.519531 2.355469v-12.882813c0-3.394531 3.785156-6.261719 8.261718-6.261719 4.472657 0 8.257813 2.867188 8.257813 6.261719zm8.257813-138.40625c32.773437-.042969 61.695312 21.414062 71.15625 52.792969 9.464843 31.378906-2.777344 65.246093-30.113282 83.324219-1.785156-12.070313-12.332031-20.886719-24.527344-20.503907-6.03125-.015625-11.875 2.082031-16.515624 5.929688-4.644532-3.847657-10.488282-5.945313-16.515626-5.929688-12.195312-.382812-22.738281 8.429688-24.527343 20.496094-27.34375-18.074219-39.585938-51.945313-30.125-83.324219 9.464843-31.382812 38.390625-52.835937 71.167969-52.785156zm0 0"/><path d="m248.335938 165.597656c18.242187 0 33.03125-14.789062 33.03125-33.03125 0-18.242187-14.789063-33.03125-33.03125-33.03125-18.246094 0-33.035157 14.789063-33.035157 33.03125 0 18.242188 14.789063 33.03125 33.035157 33.03125zm0-49.546875c9.121093 0 16.515624 7.394531 16.515624 16.515625s-7.394531 16.515625-16.515624 16.515625c-9.121094 0-16.515626-7.394531-16.515626-16.515625s7.394532-16.515625 16.515626-16.515625zm0 0"/><path d="m248.335938 248.179688c-30.65625 0-33.035157 12.640624-33.035157 16.515624.003907 4.039063 2.929688 7.488282 6.917969 8.144532 3.984375.660156 7.863281-1.667969 9.164062-5.496094 5.339844-2.285156 11.167969-3.195312 16.953126-2.648438 5.78125-.546874 11.613281.363282 16.953124 2.648438 1.296876 3.828125 5.175782 6.15625 9.164063 5.496094 3.988281-.65625 6.914063-4.105469 6.914063-8.144532 0-3.875-2.378907-16.515624-33.03125-16.515624zm0 0"/></svg>