<svg height="512pt" viewBox="0 0 512 512.10604" width="512pt" xmlns="http://www.w3.org/2000/svg"><path d="m503.519531 179.304688v281.601562c0 23.5625-19.101562 42.667969-42.667969 42.667969h-409.597656c-11.316406 0-22.167968-4.496094-30.171875-12.5-8-8-12.496093-18.851563-12.496093-30.167969v-332.800781c.019531-62.652344 48.4375-114.648438 110.933593-119.125 2.816407-.253907 5.632813-.339844 8.535157-.339844 65.976562 0 119.464843 53.484375 119.464843 119.464844v281.601562c-.050781 10.847657 6.8125 20.523438 17.066407 24.0625 2.726562 1.035157 5.617187 1.554688 8.535156 1.535157 14.136718 0 25.597656-11.460938 25.597656-25.597657v-230.402343c-.007812-53.25 40.800781-97.621094 93.867188-102.058594 2.816406-.253906 5.632812-.339844 8.535156-.339844 27.167968-.035156 53.234375 10.742188 72.445312 29.953125 19.210938 19.210937 29.988282 45.277344 29.953125 72.445313zm0 0" fill="#6a1b99"/><path d="m477.917969 179.304688v281.601562c.199219 23.351562-18.554688 42.445312-41.90625 42.667969h-385.519531c-23.347657-.222657-42.105469-19.316407-41.90625-42.667969v-332.800781c-.472657-62.109375 47.046874-114.066407 108.953124-119.125 29.015626 2.046875 76.398438 14.933593 95.847657 34.644531 22.078125 22.570312 34.417969 52.90625 34.363281 84.480469v281.601562c-.070312 6.730469 2.539062 13.210938 7.257812 18.015625 4.714844 4.804688 11.148438 7.53125 17.882813 7.582032 2.863281.019531 5.707031-.5 8.378906-1.535157 2.558594 1.023438-15.804687 1.535157-12.878906 1.535157 6.695313-.007813 13.101563-2.714844 17.777344-7.507813 4.734375-4.832031 7.382812-11.328125 7.371093-18.089844v-230.402343c-.410156-52.796876 39.648438-97.132813 92.21875-102.058594 23.804688 2.015625 46.089844 12.523437 62.78125 29.613281 18.933594 19.351563 29.484376 45.375 29.378907 72.445313zm0 0" fill="#9c27af"/><path d="m85.386719 111.039062c-2.839844-.019531-5.671875.265626-8.449219.855469h-.167969c-19.886719 4.035157-34.179687 21.519531-34.179687 41.8125 0 20.289063 14.292968 37.773438 34.179687 41.8125h.167969c2.777344.585938 5.609375.875 8.449219.851563 23.5625 0 42.667969-19.101563 42.667969-42.664063 0-23.566406-19.105469-42.667969-42.667969-42.667969zm0 0" fill="#fff"/><path d="m170.71875 111.039062c-2.835938-.019531-5.671875.265626-8.445312.855469h-.171876c-19.886718 4.035157-34.175781 21.519531-34.175781 41.8125 0 20.289063 14.289063 37.773438 34.175781 41.8125h.171876c2.773437.585938 5.609374.875 8.445312.851563 23.566406 0 42.667969-19.101563 42.667969-42.664063 0-23.566406-19.101563-42.667969-42.667969-42.667969zm0 0" fill="#fff"/><path d="m401.121094 136.640625c-2.855469-.003906-5.703125.167969-8.535156.511719-34.214844 4.214844-59.921876 33.277344-59.921876 67.753906s25.707032 63.539062 59.921876 67.753906c2.832031.34375 5.679687.515625 8.535156.511719 37.703125 0 68.265625-30.5625 68.265625-68.265625s-30.5625-68.265625-68.265625-68.265625zm0 0" fill="#fff"/><path d="m110.988281 153.707031c0 14.136719-11.464843 25.597657-25.601562 25.597657-14.140625 0-25.601563-11.460938-25.601563-25.597657 0-14.140625 11.460938-25.601562 25.601563-25.601562 14.136719 0 25.601562 11.460937 25.601562 25.601562zm0 0" fill="#fdc008"/><path d="m196.320312 153.707031c0 14.136719-11.460937 25.597657-25.601562 25.597657-14.136719 0-25.597656-11.460938-25.597656-25.597657 0-14.140625 11.460937-25.601562 25.597656-25.601562 14.140625 0 25.601562 11.460937 25.601562 25.601562zm0 0" fill="#fdc008"/><path d="m443.785156 204.90625c0 23.5625-19.101562 42.667969-42.664062 42.667969-23.566406 0-42.667969-19.105469-42.667969-42.667969s19.101563-42.667969 42.667969-42.667969c23.5625 0 42.664062 19.105469 42.664062 42.667969zm0 0" fill="#f34335"/><path d="m426.71875 204.90625c0 14.136719-11.460938 25.601562-25.597656 25.601562-14.140625 0-25.601563-11.464843-25.601563-25.601562 0-14.140625 11.460938-25.601562 25.601563-25.601562 14.136718 0 25.597656 11.460937 25.597656 25.601562zm0 0" fill="#37474f"/><path d="m110.988281 230.507812c9.421875 0 17.066407 7.640626 17.066407 17.066407v17.066406h-34.136719v-17.066406c0-9.425781 7.644531-17.066407 17.070312-17.066407zm0 0" fill="#f5efca"/><g fill="#ffebb2"><path d="m110.988281 230.507812c9.421875 0 17.066407 7.640626 17.066407 17.066407v17.066406h-34.136719v-17.066406c0-9.425781 7.644531-17.066407 17.070312-17.066407zm0 0"/><path d="m145.121094 230.507812c9.425781 0 17.066406 7.640626 17.066406 17.066407v17.066406h-34.132812v-17.066406c0-9.425781 7.640624-17.066407 17.066406-17.066407zm0 0"/><path d="m366.988281 307.304688h34.132813v17.066406c0 9.425781-7.640625 17.066406-17.066406 17.066406-9.425782 0-17.066407-7.640625-17.066407-17.066406zm0 0"/><path d="m401.121094 307.304688h34.132812v17.066406c0 9.425781-7.640625 17.066406-17.066406 17.066406s-17.066406-7.640625-17.066406-17.066406zm0 0"/></g><path d="m418.1875 25.707031c0 9.425781-7.640625 17.066407-17.066406 17.066407-9.425782 0-17.066406-7.640626-17.066406-17.066407s7.640624-17.066406 17.066406-17.066406c9.425781 0 17.066406 7.640625 17.066406 17.066406zm0 0" fill="#6a1b99"/><path d="m76.851562 435.304688c0 18.851562-15.28125 34.132812-34.132812 34.132812s-34.132812-15.28125-34.132812-34.132812c0-18.851563 15.28125-34.132813 34.132812-34.132813s34.132812 15.28125 34.132812 34.132813zm0 0" fill="#45279f"/><path d="m230.453125 320.449219c-9.34375-8.484375-21.515625-13.171875-34.132813-13.144531-28.277343 0-51.199218 22.925781-51.199218 51.203124 0 28.273438 22.921875 51.199219 51.199218 51.199219 21.214844.023438 40.242188-13.054687 47.820313-32.871093 7.578125-19.816407 2.132813-42.25-13.6875-56.386719zm0 0" fill="#45279f"/><path d="m443.785156 469.4375c0 18.851562-15.28125 34.136719-34.132812 34.136719-18.851563 0-34.132813-15.285157-34.132813-34.136719 0-18.847656 15.28125-34.132812 34.132813-34.132812 18.851562 0 34.132812 15.285156 34.132812 34.132812zm0 0" fill="#45279f"/><path d="m196.320312 477.972656c0 14.136719-11.460937 25.601563-25.601562 25.601563-14.136719 0-25.597656-11.464844-25.597656-25.601563 0-14.136718 11.460937-25.601562 25.597656-25.601562 14.140625 0 25.601562 11.464844 25.601562 25.601562zm0 0" fill="#45279f"/><path d="m384.054688 179.304688c0 9.425781-7.644532 17.066406-17.066407 17.066406-9.425781 0-17.070312-7.640625-17.070312-17.066406 0-9.425782 7.644531-17.066407 17.070312-17.066407 9.421875 0 17.066407 7.640625 17.066407 17.066407zm0 0" fill="#fff"/><path d="m170.71875 136.640625c0 9.425781-7.640625 17.066406-17.066406 17.066406-9.425782 0-17.066406-7.640625-17.066406-17.066406s7.640624-17.066406 17.066406-17.066406c9.425781 0 17.066406 7.640625 17.066406 17.066406zm0 0" fill="#fff"/><path d="m85.386719 136.640625c0 9.425781-7.640625 17.066406-17.066407 17.066406-9.425781 0-17.066406-7.640625-17.066406-17.066406s7.640625-17.066406 17.066406-17.066406c9.425782 0 17.066407 7.640625 17.066407 17.066406zm0 0" fill="#fff"/><path d="m.0546875 128.105469v332.800781c.0273437 28.265625 22.9335935 51.171875 51.1992185 51.199219h409.597656c28.265626-.027344 51.171876-22.933594 51.203126-51.199219v-281.601562c-.09375-57.898438-44.675782-106.007813-102.402344-110.496094v-19.074219c11.753906-4.15625 18.808594-16.175781 16.699218-28.464844-2.109374-12.289062-12.765624-21.269531-25.230468-21.269531-12.46875 0-23.125 8.980469-25.234375 21.269531-2.105469 12.289063 4.945312 24.308594 16.699219 28.464844v19.074219c-57.726563 4.488281-102.308594 52.597656-102.398438 110.496094v230.402343c0 9.425781-7.640625 17.066407-17.066406 17.066407-9.425782 0-17.066406-7.640626-17.066406-17.066407v-281.601562c-.027344-36.488281-15.667969-71.21875-42.976563-95.417969 10.800781-4.914062 22.582031-7.300781 34.441406-6.980469 4.714844 0 8.535157-3.820312 8.535157-8.535156 0-4.710937-3.820313-8.53125-8.535157-8.53125-17.21875-.609375-34.242187 3.8125-48.988281 12.722656-42.710938-28.34375-98.246094-28.34375-140.953125 0-14.75-8.910156-31.773437-13.332031-48.992187-12.722656-4.710938 0-8.5312505 3.820313-8.5312505 8.53125 0 4.714844 3.8203125 8.535156 8.5312505 8.535156 11.863281-.320312 23.640624 2.066407 34.441406 6.980469-27.308594 24.199219-42.949219 58.929688-42.9726565 95.417969zm153.5976565 349.867187c0-9.425781 7.640625-17.066406 17.066406-17.066406s17.066406 7.640625 17.066406 17.066406c0 9.425782-7.640625 17.066406-17.066406 17.066406s-17.066406-7.640624-17.066406-17.066406zm230.402344-8.535156c0-14.136719 11.460937-25.597656 25.597656-25.597656 14.140625 0 25.601562 11.460937 25.601562 25.597656 0 14.140625-11.460937 25.601562-25.601562 25.601562-14.136719 0-25.597656-11.460937-25.597656-25.601562zm17.066406-452.265625c4.710937 0 8.53125 3.820313 8.53125 8.535156 0 4.710938-3.820313 8.53125-8.53125 8.53125-4.714844 0-8.535156-3.820312-8.535156-8.53125 0-4.714843 3.820312-8.535156 8.535156-8.535156zm-332.621094 44.375c.808594 3.96875 4.300781 6.824219 8.351562 6.824219.574219.003906 1.148438-.050782 1.707032-.167969 2.21875-.453125 4.167968-1.769531 5.414062-3.65625 1.25-1.890625 1.695313-4.195313 1.242188-6.414063-2.539063-9.390624-7.300782-18.03125-13.882813-25.191406 34.890625-21.027344 78.550781-21.027344 113.441407 0-6.582032 7.160156-11.34375 15.800782-13.882813 25.191406-.917969 4.605469 2.058594 9.085938 6.65625 10.027344 4.601563.941406 9.097656-2.015625 10.058594-6.613281 1.988281-7.167969 5.839843-13.679687 11.164062-18.875 25.480469 21.050781 40.230469 52.382813 40.21875 85.433594v188.679687c-16.96875-17.382812-42.773437-22.761718-65.273437-13.605468-22.5 9.160156-37.210938 31.035156-37.210938 55.328124 0 24.289063 14.710938 46.164063 37.210938 55.324219 22.5 9.15625 48.304687 3.777344 65.273437-13.605469v9.480469c0 18.851563 15.28125 34.132813 34.132813 34.132813 18.851562 0 34.132812-15.28125 34.132812-34.132813v-230.402343c0-51.839844 42.023438-93.867188 93.867188-93.867188 51.839844 0 93.867187 42.027344 93.867187 93.867188v281.601562c0 18.851562-15.285156 34.132812-34.136719 34.132812h-17.285156c5.644532-7.339843 8.722656-16.335937 8.753906-25.601562 0-23.5625-19.101562-42.664062-42.667968-42.664062-23.5625 0-42.664063 19.101562-42.664063 42.664062.03125 9.265625 3.105469 18.261719 8.753907 25.601562h-175.632813c3.070313-5.164062 4.707031-11.058593 4.742187-17.066406 0-18.851562-15.28125-34.132812-34.132812-34.132812s-34.132812 15.28125-34.132812 34.132812c.035156 6.007813 1.671874 11.902344 4.746093 17.066406h-90.078125c-15.109375-.050781-28.375-10.046874-32.597656-24.550781 17.976562 12.472657 42.472656 9.355469 56.753906-7.226562 14.277344-16.578125 13.730469-41.265625-1.273437-57.195313-15-15.929687-39.609375-17.957031-57.015625-4.699218v-273.261719c-.003906-33.042969 14.746094-64.359375 40.226562-85.402344 5.308594 5.191406 9.15625 11.691406 11.152344 18.84375zm170.488281 296.960937c0 23.5625-19.105469 42.664063-42.667969 42.664063-23.566406 0-42.667968-19.101563-42.667968-42.664063 0-23.566406 19.101562-42.667968 42.667968-42.667968 23.550782.027344 42.636719 19.113281 42.667969 42.667968zm-221.867187 76.796876c0-14.136719 11.460937-25.597657 25.597656-25.597657 14.140625 0 25.601562 11.460938 25.601562 25.597657 0 14.140624-11.460937 25.601562-25.601562 25.601562-14.136719 0-25.597656-11.460938-25.597656-25.601562zm0 0"/><path d="m34.1875 153.707031c.023438 22.574219 14.828125 42.464844 36.445312 48.972657 21.617188 6.503906 44.941407-1.917969 57.421876-20.726563 12.464843 18.84375 35.8125 27.292969 57.449218 20.78125 21.640625-6.507813 36.453125-26.433594 36.453125-49.027344 0-22.597656-14.8125-42.523437-36.453125-49.03125-21.636718-6.507812-44.984375 1.9375-57.449218 20.785157-12.480469-18.8125-35.804688-27.230469-57.421876-20.726563-21.617187 6.503906-36.421874 26.398437-36.445312 48.972656zm136.53125-34.132812c18.851562 0 34.132812 15.28125 34.132812 34.132812 0 18.851563-15.28125 34.132813-34.132812 34.132813s-34.132812-15.28125-34.132812-34.132813c0-18.851562 15.28125-34.132812 34.132812-34.132812zm-85.332031 0c18.851562 0 34.132812 15.28125 34.132812 34.132812 0 18.851563-15.28125 34.132813-34.132812 34.132813-18.851563 0-34.132813-15.28125-34.132813-34.132813 0-18.851562 15.28125-34.132812 34.132813-34.132812zm0 0"/><path d="m401.121094 281.707031c42.414062 0 76.796875-34.386719 76.796875-76.800781s-34.382813-76.800781-76.796875-76.800781c-42.417969 0-76.800782 34.386719-76.800782 76.800781.046876 42.394531 34.402344 76.753906 76.800782 76.800781zm0-136.535156c32.988281 0 59.730468 26.746094 59.730468 59.734375s-26.742187 59.734375-59.730468 59.734375c-32.992188 0-59.734375-26.746094-59.734375-59.734375.039062-32.972656 26.757812-59.695312 59.734375-59.734375zm0 0"/><path d="m93.917969 153.707031c0 4.710938-3.820313 8.53125-8.53125 8.53125-4.714844 0-8.535157-3.820312-8.535157-8.53125 0-4.714843 3.820313-8.535156 8.535157-8.535156 4.710937 0 8.53125 3.820313 8.53125 8.535156zm0 0"/><path d="m179.253906 153.707031c0 4.710938-3.820312 8.53125-8.535156 8.53125-4.710938 0-8.53125-3.820312-8.53125-8.53125 0-4.714843 3.820312-8.535156 8.53125-8.535156 4.714844 0 8.535156 3.820313 8.535156 8.535156zm0 0"/><path d="m401.121094 239.039062c18.851562 0 34.132812-15.28125 34.132812-34.132812s-15.28125-34.132812-34.132812-34.132812c-18.851563 0-34.132813 15.28125-34.132813 34.132812s15.28125 34.132812 34.132813 34.132812zm0-51.199218c9.425781 0 17.066406 7.640625 17.066406 17.066406s-7.640625 17.066406-17.066406 17.066406c-9.425782 0-17.066406-7.640625-17.066406-17.066406s7.640624-17.066406 17.066406-17.066406zm0 0"/><path d="m213.386719 221.972656c-4.714844 0-8.535157 3.820313-8.535157 8.535156 0 14.136719-11.460937 25.597657-25.597656 25.597657h-8.535156v-8.53125c.046875-10.117188-5.898438-19.304688-15.144531-23.410157-9.246094-4.105468-20.046875-2.355468-27.519531 4.464844-7.476563-6.820312-18.277344-8.570312-27.523438-4.464844-9.246094 4.105469-15.191406 13.292969-15.144531 23.410157v8.53125h-8.535157c-14.136718 0-25.597656-11.460938-25.597656-25.597657 0-4.714843-3.820312-8.535156-8.535156-8.535156-4.710938 0-8.53125 3.820313-8.53125 8.535156.027344 23.550782 19.113281 42.636719 42.664062 42.664063h102.402344c23.550782-.027344 42.636719-19.113281 42.664063-42.664063 0-2.265624-.898438-4.433593-2.496094-6.035156-1.601563-1.601562-3.773437-2.5-6.035156-2.5zm-110.933594 25.601563c0-4.714844 3.820313-8.535157 8.535156-8.535157 4.710938 0 8.53125 3.820313 8.53125 8.535157v8.53125h-17.066406zm34.132813 8.53125v-8.53125c0-4.714844 3.820312-8.535157 8.535156-8.535157 4.710937 0 8.53125 3.820313 8.53125 8.535157v8.53125zm0 0"/><path d="m332.851562 349.972656c4.714844 0 8.535157-3.820312 8.535157-8.535156.042969-10.808594 6.875-20.425781 17.066406-24.027344v6.960938c-.042969 10.117187 5.898437 19.304687 15.144531 23.410156s20.046875 2.355469 27.523438-4.464844c7.472656 6.820313 18.273437 8.570313 27.519531 4.464844s15.191406-13.292969 15.144531-23.410156v-6.960938c10.191406 3.601563 17.023438 13.21875 17.066406 24.027344 0 4.714844 3.820313 8.535156 8.535157 8.535156 4.710937 0 8.53125-3.820312 8.53125-8.535156-.027344-23.550781-19.113281-42.636719-42.664063-42.664062h-68.265625c-23.554687.027343-42.640625 19.113281-42.667969 42.664062 0 4.714844 3.820313 8.535156 8.53125 8.535156zm93.867188-25.601562c0 4.714844-3.820312 8.535156-8.53125 8.535156-4.714844 0-8.535156-3.820312-8.535156-8.535156v-8.53125h17.066406zm-34.132812-8.53125v8.53125c0 4.714844-3.820313 8.535156-8.53125 8.535156-4.714844 0-8.535157-3.820312-8.535157-8.535156v-8.53125zm0 0"/></svg>