<svg height="504pt" viewBox="0 0 504.17441 504" width="504pt" xmlns="http://www.w3.org/2000/svg"><path d="m235.027344 469.703125v.503906c.011718 6.683594-2.636719 13.09375-7.359375 17.820313-4.726563 4.722656-11.140625 7.371094-17.820313 7.359375h-50.363281c-6.679687.011719-13.09375-2.636719-17.816406-7.359375-4.726563-4.726563-7.375-11.136719-7.363281-17.820313v-29.292969zm0 0" fill="#e81e63"/><path d="m369.324219 440.914062v29.292969c.011719 6.683594-2.636719 13.09375-7.363281 17.820313-4.722657 4.722656-11.136719 7.371094-17.820313 7.359375h-50.359375c-6.683594.011719-13.09375-2.636719-17.820312-7.359375-4.726563-4.726563-7.375-11.136719-7.359376-17.820313v-.503906zm0 0" fill="#e81e63"/><path d="m453.257812 281.355469c-1.179687 110.085937-91.359374 198.382812-201.445312 197.246093-2.851562 0-5.621094-.085937-8.390625-.167968-106.785156-3.304688-191.953125-90.25-193.050781-197.078125 1.097656-106.832031 86.265625-193.777344 193.050781-197.078125 2.769531-.085938 5.539063-.167969 8.390625-.167969 110.085938-1.136719 200.265625 87.160156 201.445312 197.246094zm0 0" fill="#ac1457"/><path d="m428.078125 281.355469c0-108.84375-84.554687-197.078125-188.855469-197.078125-104.300781 0-188.851562 88.234375-188.851562 197.078125s84.550781 197.078125 188.851562 197.078125c104.300782 0 188.855469-88.234375 188.855469-197.078125zm0 0" fill="#e81e63"/><path d="m321.984375 248.199219c14.664063 20.722656 22.421875 45.539062 22.15625 70.925781 0 60.265625-41.292969 109.113281-92.328125 109.113281-51.03125 0-92.328125-48.847656-92.328125-109.113281-.261719-25.386719 7.492187-50.203125 22.160156-70.925781zm0 0" fill="#fdc008"/><path d="m381.914062 138.664062c-.082031 71.820313-58.28125 130.019532-130.101562 130.101563-3.15625 0-6.226562-.09375-9.289062-.371094-67.859376-5.125-120.304688-61.675781-120.304688-129.730469 0-68.050781 52.445312-124.605468 120.304688-129.726562 3.0625-.277344 6.132812-.371094 9.289062-.371094 71.820312.078125 130.019531 58.28125 130.101562 130.097656zm0 0" fill="#fff"/><path d="m348.339844 138.664062c0 53.3125-43.214844 96.527344-96.527344 96.527344-53.308594 0-96.523438-43.214844-96.523438-96.527344 0-53.308593 43.214844-96.523437 96.523438-96.523437 53.3125 0 96.527344 43.214844 96.527344 96.523437zm0 0" fill="#ff9701"/><path d="m293.78125 134.46875c0 23.179688-18.789062 41.96875-41.96875 41.96875-23.175781 0-41.964844-18.789062-41.964844-41.96875s18.789063-41.96875 41.964844-41.96875c23.179688 0 41.96875 18.789062 41.96875 41.96875zm0 0" fill="#37474f"/><path d="m114.875 326.789062-43.066406 83.285157c-8.515625 16.472656-28.769532 22.917969-45.242188 14.40625-16.46875-8.519531-22.917968-28.773438-14.402344-45.242188l58.484376-113.117187c3.121093-6.039063 9.574218-9.601563 16.347656-9.023438 6.773437.578125 12.527344 5.183594 14.574218 11.667969l14.394532 45.246094c1.34375 4.234375.949218 8.828125-1.089844 12.777343zm0 0" fill="#e81e63"/><path d="m495.726562 394.582031c.023438 11.238281-5.578124 21.746094-14.925781 27.988281-9.347656 6.242188-21.199219 7.394532-31.574219 3.066407-7.285156-3.015625-13.261718-8.515625-16.871093-15.527344l-43.058594-83.347656c-2.023437-3.941407-2.417969-8.527344-1.089844-12.757813l14.4375-45.238281c.640625-2.09375 1.699219-4.035156 3.105469-5.710937 3.613281-4.300782 9.136719-6.515626 14.722656-5.890626 5.585938.625 10.488282 4.003907 13.058594 8.996094l58.503906 113.0625c2.433594 4.753906 3.699219 10.019532 3.691406 15.359375zm0 0" fill="#ac1457"/><path d="m470.042969 394.664062c.011719 12.542969-6.984375 24.042969-18.128907 29.796876-.855468.476562-1.753906.871093-2.6875 1.175781-7.285156-3.015625-13.261718-8.515625-16.871093-15.527344l-43.058594-83.347656c-2.023437-3.941407-2.417969-8.527344-1.089844-12.757813l14.4375-45.238281c.640625-2.09375 1.699219-4.035156 3.105469-5.710937.785156.957031 1.460938 2 2.015625 3.105468l58.5 113.0625c2.5 4.761719 3.792969 10.0625 3.777344 15.441406zm0 0" fill="#e81e63"/><path d="m218.242188 92.5c0 18.542969-15.035157 33.574219-33.574219 33.574219-18.542969 0-33.574219-15.03125-33.574219-33.574219 0-18.539062 15.03125-33.570312 33.574219-33.570312 18.539062 0 33.574219 15.03125 33.574219 33.570312zm0 0" fill="#fff"/><path d="m251.8125 243.582031c57.945312 0 104.917969-46.972656 104.917969-104.917969 0-57.941406-46.972657-104.917968-104.917969-104.917968-57.941406 0-104.917969 46.976562-104.917969 104.917968.066407 57.917969 47 104.855469 104.917969 104.917969zm0-193.046875c48.675781 0 88.132812 39.457032 88.132812 88.128906 0 48.675782-39.457031 88.132813-88.132812 88.132813-48.671875 0-88.128906-39.457031-88.128906-88.132813.054687-48.648437 39.480468-88.074218 88.128906-88.128906zm0 0"/><path d="m251.8125 176.4375c23.179688 0 41.96875-18.789062 41.96875-41.96875s-18.789062-41.96875-41.96875-41.96875c-23.175781 0-41.964844 18.789062-41.964844 41.96875.027344 23.167969 18.800782 41.941406 41.964844 41.96875zm0-67.148438c13.910156 0 25.183594 11.273438 25.183594 25.179688s-11.273438 25.179688-25.183594 25.179688c-13.90625 0-25.179688-11.273438-25.179688-25.179688s11.273438-25.179688 25.179688-25.179688zm0 0"/><path d="m128.546875 483.273438c5.242187 12.445312 17.4375 20.527343 30.9375 20.507812h50.363281c15.515625.367188 29.121094-10.308594 32.457032-25.464844 3.171874.097656 6.320312.285156 9.507812.285156 3.191406 0 6.332031-.1875 9.496094-.285156 3.632812 14.972656 17.0625 25.503906 32.472656 25.464844h50.359375c8.910156.011719 17.457031-3.519531 23.757813-9.820312 6.296874-6.296876 9.832031-14.847657 9.816406-23.753907v-24.734375c16.640625-10.046875 31.527344-22.746094 44.066406-37.597656l3.140625 6.0625c10.652344 20.585938 35.976563 28.640625 56.5625 17.988281 20.585937-10.652343 28.640625-35.980469 17.988281-56.566406l-38.023437-73.542969c.101562-2.625.199219-5.261718.199219-7.898437-1.140626-64.84375-27.132813-126.777344-72.609376-173.019531-8.828124-69.066407-67.605468-120.8125005-137.234374-120.8125005-69.625 0-128.40625 51.7460935-137.230469 120.8125005-45.476563 46.25-71.464844 108.191406-72.597657 173.046874 0 2.96875.128907 5.875.277344 8.820313l-37.542968 72.59375c-10.660157 20.585937-2.617188 45.917969 17.96875 56.582031 20.589843 10.660156 45.921874 2.617188 56.582031-17.972656l2.921875-5.65625c12.472656 14.667969 27.238281 27.21875 43.730468 37.160156v24.734375c-.011718 4.488281.882813 8.933594 2.632813 13.066407zm123.265625-466.3125c67.21875 0 121.707031 54.488281 121.707031 121.703124 0 67.21875-54.488281 121.707032-121.707031 121.707032-67.214844 0-121.703125-54.488282-121.703125-121.707032.078125-67.183593 54.523437-121.625 121.703125-121.703124zm0 260.195312c23.667969.007812 46.9375-6.09375 67.558594-17.710938 10.84375 18.011719 16.511718 38.660157 16.378906 59.679688 0 55.539062-37.65625 100.722656-83.9375 100.722656s-83.933594-45.183594-83.933594-100.722656c-.132812-21.019531 5.535156-41.667969 16.375-59.679688 20.621094 11.617188 43.890625 17.71875 67.558594 17.710938zm-161.203125 114.832031 34.917969-67.515625c1.441406-2.671875 1.332031-5.910156-.292969-8.476562-1.621094-2.5625-4.5-4.054688-7.527344-3.894532-3.03125.15625-5.742187 1.9375-7.085937 4.65625l-46.265625 89.464844c-4.101563 8.042969-12.195313 13.277344-21.214844 13.710938-9.019531.4375-17.582031-3.988282-22.441406-11.597656-4.859375-7.609376-5.269531-17.238282-1.082031-25.238282l77.101562-149.117187c1.445312-2.667969 1.332031-5.910157-.289062-8.472657-1.621094-2.566406-4.5-4.054687-7.53125-3.898437-3.03125.160156-5.738282 1.9375-7.085938 4.660156l-21.234375 41.074219c6.085937-44.347656 24.503906-86.097656 53.15625-120.496094 2.441406 41.179688 23.144531 79.117188 56.453125 103.449219-12.609375 20.734375-19.222656 44.5625-19.09375 68.828125 0 64.796875 45.179688 117.507812 100.71875 117.507812s100.722656-52.710937 100.722656-117.507812c.125-24.265625-6.484375-48.09375-19.09375-68.828125 33.308594-24.332031 54.011719-62.269531 56.453125-103.449219 28.332031 34.019532 46.664063 75.234375 52.960938 119.054688l-20.488281-39.632813c-1.375-2.664062-4.070313-4.394531-7.066407-4.53125-2.996093-.140625-5.839843 1.332031-7.457031 3.855469-1.621094 2.527344-1.769531 5.722656-.390625 8.386719l77.109375 149.117187c6.296875 12.34375 1.4375 27.449219-10.867188 33.808594-12.308593 6.363281-27.441406 1.589844-33.867187-10.683594l-46.265625-89.464844c-1.347656-2.71875-4.054688-4.5-7.085938-4.65625-3.03125-.160156-5.910156 1.332032-7.53125 3.894532-1.621093 2.566406-1.730468 5.804687-.289062 8.476562l34.699219 67.105469c-13.105469 17.101563-29.503907 31.402344-48.230469 42.058594-6.984375 4.039062-14.21875 7.632812-21.664062 10.75-4.273438 1.800781-6.28125 6.722656-4.480469 10.996093 1.796875 4.273438 6.722656 6.28125 10.996093 4.484376 3.71875-1.574219 7.375-3.234376 10.96875-4.988282v15.328125c0 9.269531-7.515624 16.785157-16.785156 16.785157h-50.378906c-6.511719.007812-12.4375-3.75-15.207031-9.644532 6.378906-.609375 12.707031-1.433594 18.890625-2.515625 2.960937-.496093 5.429687-2.53125 6.480468-5.339843 1.050782-2.808594.523438-5.964844-1.386718-8.28125-1.90625-2.3125-4.902344-3.433594-7.863282-2.941407-8.808593 1.472657-17.691406 2.476563-26.605468 3.015625-10.839844.644532-21.710938.644532-32.550782 0-8.914062-.539062-17.796874-1.542968-26.605468-3.015625-4.574219-.761719-8.902344 2.324219-9.667969 6.898438-.761719 4.570312 2.324219 8.898437 6.898437 9.664062 6.183594 1.039063 12.511719 1.863281 18.890626 2.515625-2.769532 5.894532-8.695313 9.652344-15.207032 9.644532h-50.363281c-9.269531 0-16.785156-7.515626-16.785156-16.785157v-15.308593c3.59375 1.75 7.25 3.410156 10.96875 4.984374 4.277343 1.796876 9.199219-.207031 10.996093-4.480468 1.800782-4.277344-.207031-9.199219-4.480468-10.996094-7.449219-3.121094-14.691406-6.710938-21.679688-10.753906-18.574218-10.566406-34.859375-24.730469-47.894531-41.664063zm0 0"/><path d="m251.8125 361.09375c66.386719 0 67.148438-58.167969 67.148438-58.757812 0-4.632813-3.757813-8.390626-8.394532-8.390626-4.632812 0-8.390625 3.757813-8.390625 8.390626 0 1.679687-.570312 41.96875-50.363281 41.96875-48.496094 0-50.359375-37.644532-50.359375-41.96875 0-4.632813-3.757813-8.390626-8.394531-8.390626-4.632813 0-8.390625 3.757813-8.390625 8.390626 0 .589843.761719 58.757812 67.144531 58.757812zm0 0"/></svg>