<svg height="512pt" viewBox="0 0 512.01362 512" width="512pt" xmlns="http://www.w3.org/2000/svg"><path d="m503.480469 315.527344c0 119.210937-84.140625 173.226562-196.265625 185.085937-2.816406.34375-5.632813.597657-8.535156.855469-2.902344.253906-5.632813.425781-8.449219.597656-8.445313.597656-16.980469 1.023438-25.683594 1.109375-2.816406.085938-5.71875.085938-8.535156.085938-2.046875 0-4.179688 0-6.226563-.085938h-4.609375c-7.933593-.171875-15.699219-.511719-23.378906-1.109375-2.816406-.085937-5.632813-.34375-8.449219-.597656-2.816406-.257812-5.71875-.511719-8.535156-.855469-112.125-11.859375-196.265625-65.875-196.265625-185.085937 0-4.949219.171875-9.984375.511719-15.105469.085937-2.558594.257812-5.203125.511718-7.851563.597657-6.738281 1.367188-13.652343 2.476563-20.476562.511719-3.074219 1.023437-6.144531 1.621094-9.21875.09375-.804688.234375-1.601562.425781-2.386719l1.535156-7.683593c.34375-1.621094.683594-3.15625 1.109375-4.691407.511719-2.21875 1.023438-4.523437 1.621094-6.742187.855469-3.414063 1.792969-6.742188 2.730469-9.984375.769531-2.898438 1.621094-5.800781 2.5625-8.617188.082031-.339843.167968-.683593.253906-.9375 1.195312-3.671875 2.390625-7.425781 3.753906-11.09375.070313-.195312.125-.394531.171875-.597656 1.367188-3.753906 2.730469-7.59375 4.265625-11.351563 1.28125-3.328124 2.648438-6.570312 4.011719-9.8125 3.667969-8.703124 7.679687-17.320312 12.03125-25.769531 3.585937-6.996093 7.425781-13.824219 11.4375-20.566406 2.132813-3.496094 4.351563-7.082031 6.570313-10.582031l96.679687-96.851563c25.636719-15.625 54.691406-24.761719 84.652344-26.625 2.816406-.171875 5.632812-.253906 8.53125-.253906 32.917969.398437 65.113281 9.6875 93.1875 26.878906l40.957031 41.042969.941406.941406 54.78125 54.867188c2.21875 3.5 4.4375 7 6.570313 10.496094v.085937c31.878906 52.15625 49.476562 111.78125 51.03125 172.886719zm0 0" fill="#00828e"/><path d="m477.878906 315.527344c0 113.066406-74.339844 167.421875-176 182.953125-5.527344.855469-11.09375 1.535156-16.757812 2.132812-2.765625.34375-5.53125.597657-8.378906.855469-5.539063.511719-11.09375.851562-16.769532 1.195312-4.777344.253907-9.632812.425782-14.507812.511719h-4.519532c-7.800781-.171875-15.421874-.511719-22.964843-1.109375-2.765625-.085937-5.53125-.34375-8.304688-.597656-2.773437-.257812-5.613281-.511719-8.378906-.855469-110.113281-11.859375-192.75-65.875-192.75-185.085937 0-4.949219.167969-9.984375.503906-15.105469.085938-2.558594.246094-5.203125.503907-7.851563.589843-6.738281 1.339843-13.652343 2.429687-20.476562.503906-3.074219 1.007813-6.144531 1.589844-9.21875.09375-.800781.234375-1.601562.417969-2.386719l1.507812-7.683593c.335938-1.621094.675781-3.15625 1.09375-4.691407.503906-2.21875 1.007812-4.523437 1.585938-6.742187.855468-3.414063 1.769531-6.742188 2.6875-9.984375.753906-2.898438 1.589843-5.800781 2.511718-8.617188.085938-.339843.167969-.683593.253906-.9375 1.171876-3.671875 2.347657-7.425781 3.6875-11.09375.066407-.195312.125-.394531.171876-.597656 1.339843-3.753906 2.679687-7.59375 4.1875-11.351563 1.253906-3.328124 2.5625-6.570312 3.933593-9.8125 3.609375-8.703124 7.542969-17.320312 11.820313-25.769531 3.523437-6.996093 7.296875-13.824219 11.230468-20.566406 2.097657-3.496094 4.265626-7.082031 6.449219-10.582031l94.960938-96.851563c25.09375-15.597656 53.652343-24.746093 83.140625-26.625 29.484375 1.882813 58.046875 11.027344 83.140625 26.625l94.957031 96.851563c35.28125 54.832031 54.847656 118.289062 56.566406 183.46875zm0 0" fill="#00bbd3"/><g fill="#9c27af"><path d="m256.011719 8.328125-23.617188 43.570313c-2.707031 5.503906-2.273437 12.035156 1.144531 17.128906 3.414063 5.09375 9.289063 7.980468 15.410157 7.566406h14.128906c6.121094.414062 11.996094-2.472656 15.410156-7.566406 3.417969-5.09375 3.851563-11.625 1.144531-17.128906zm0 0"/><path d="m208.566406 78.828125c-.742187-1.378906-2.183594-2.238281-3.753906-2.238281-1.566406 0-3.007812.859375-3.753906 2.238281l-19.867188 32.804687c-2.707031 5.503907-2.269531 12.03125 1.148438 17.128907 3.414062 5.09375 9.289062 7.976562 15.40625 7.566406h14.132812c6.121094.410156 11.996094-2.472656 15.410156-7.566406 3.414063-5.097657 3.851563-11.625 1.144532-17.128907zm0 0"/><path d="m310.96875 78.828125c-.746094-1.378906-2.1875-2.238281-3.753906-2.238281-1.570313 0-3.011719.859375-3.757813 2.238281l-19.863281 32.804687c-2.707031 5.503907-2.269531 12.03125 1.144531 17.128907 3.414063 5.09375 9.289063 7.976562 15.410157 7.566406h14.128906c6.121094.410156 11.996094-2.472656 15.410156-7.566406 3.417969-5.097657 3.855469-11.625 1.144531-17.128907zm0 0"/></g><path d="m225.636719 169.605469v-.167969c-2.757813 3.097656-5.691407 6.03125-8.792969 8.789062-34.90625 32.167969-83.453125 42.152344-121.734375 43.296876-.726563 0-1.527344 0-2.234375 0-2.367188.152343-4.730469.152343-7.085938.152343-2.558593 0-5.117187-.066406-7.523437-.152343-2.902344-.085938-5.71875-.257813-8.363281-.425782h-.144532v.167969c-.964843 5.773437-1.457031 11.609375-1.476562 17.460937 0 51.882813 38.167969 93.867188 85.332031 93.867188 1.425781 0 2.765625-.144531 4.148438-.222656 1.457031.070312 2.910156.222656 4.386719.222656 11.957031.023438 23.808593-2.265625 34.898437-6.742188l41.304687-32.339843c27.746094-38.5625 22.285157-91.78125-12.714843-123.90625zm0 0" fill="#fff"/><path d="m442.125 221.234375v-.171875c-8.519531.582031-17.0625.722656-25.597656.425781-1.792969 0-3.5-.085937-5.292969-.167969-7.339844-.34375-15.019531-1.109374-22.867187-2.21875-22.515626-2.980468-44.324219-9.914062-64.429688-20.480468-14.128906-7.449219-26.839844-17.328125-37.546875-29.183594v.167969c-4.339844 3.957031-8.285156 8.332031-11.773437 13.058593-24.515626 32.851563-24.828126 77.828126-.769532 111.015626v.085937l41.300782 32.171875c6.980468 2.757812 14.253906 4.707031 21.675781 5.800781 4.332031.546875 8.691406.832031 13.054687.855469 24.902344.011719 48.785156-9.871094 66.390625-27.476562 17.605469-17.609376 27.492188-41.492188 27.476563-66.390626-.019532-5.867187-.5625-11.722656-1.621094-17.492187zm0 0" fill="#fff"/><path d="m416.527344 221.0625v.425781c-1.792969 0-3.5-.085937-5.292969-.167969zm0 0" fill="#fff"/><path d="m230.414062 255.792969c.007813 8.121093-1.617187 16.160156-4.777343 23.636719l-15.53125 21.25c-17.625 15.484374-42.683594 19.214843-64.058594 9.539062-21.375-9.671875-35.105469-30.964844-35.101563-54.425781-.03125-2.085938.113282-4.167969.429688-6.230469 1.058594-11.15625 5.328125-21.765625 12.285156-30.546875 8.167969-1.144531 16.261719-2.769531 24.234375-4.863281h.085938c13.933593-3.585938 27.394531-8.796875 40.109375-15.53125 25.121094 7.707031 42.285156 30.894531 42.324218 57.171875zm0 0" fill="#f34335"/><path d="m401.082031 255.792969c-.015625 23.371093-13.65625 44.589843-34.914062 54.300781-21.257813 9.710938-46.230469 6.132812-63.902344-9.160156l-15.875-21.589844c-6.640625-15.621094-6.34375-33.324219.8125-48.714844 7.160156-15.390625 20.511719-27.023437 36.734375-32.007812 20.105469 10.566406 41.914062 17.5 64.429688 20.480468 8.265624 10.441407 12.746093 23.375 12.714843 36.691407zm0 0" fill="#f34335"/><path d="m196.878906 330.800781.167969-4.949219 1.539063-36.4375c.402343-9.742187 8-17.65625 17.71875-18.460937 9.71875-.800781 18.511718 5.761719 20.507812 15.304687l1.539062 7.253907 6.484376 30.804687zm0 0" fill="#ffebb2"/><path d="m204.8125 330.800781.09375-4.949219.855469-36.4375c.222656-9.726562 4.265625-17.664062 9.429687-18.429687 5.160156-.769531 9.878906 5.714844 10.972656 15.273437l.851563 7.253907 3.398437 30.804687zm0 0" fill="#ffebb2"/><path d="m162.148438 93.660156-51.203126 51.199219v-102.398437l42.667969 8.53125zm0 0" fill="#e81e63"/><path d="m349.878906 93.660156 51.203125 51.199219v-102.398437l-42.667969 8.53125zm0 0" fill="#e81e63"/><path d="m162.148438 93.660156c-6.300782-18.976562-21.058594-33.953125-39.9375-40.535156l.171874-31.230469c13.191407 5.269531 26.703126 9.714844 40.445313 13.3125 2.902344.785157 5.894531 1.550781 8.980469 2.296875 5.460937 1.253906 9.957031 5.113282 12.03125 10.320313 2.070312 5.207031 1.457031 11.097656-1.648438 15.765625zm0 0" fill="#00828e"/><path d="m123.660156 27.183594-.679687 12.972656-6.65625 119.039062c-.210938 3.867188-2.683594 7.242188-6.304688 8.609376-3.621093 1.367187-7.710937.464843-10.421875-2.292969l-86.355468-86.359375-1.792969-1.792969c-2.628907-2.625-3.542969-6.507813-2.371094-10.03125 1.175781-3.523437 4.238281-6.082031 7.917969-6.605469l24.402344-3.5c16.183593-2.300781 31.402343-9.070312 43.949218-19.542968l22.269532-18.515626c2.988281-2.492187 7.167968-2.976562 10.648437-1.238281 3.476563 1.742188 5.597656 5.375 5.394531 9.257813zm0 0" fill="#00bbd3"/><path d="m500.578125 77.359375-1.792969 1.792969-86.355468 86.359375c-2.710938 2.757812-6.800782 3.660156-10.421876 2.292969-3.621093-1.367188-6.09375-4.742188-6.304687-8.609376l-6.65625-119.039062-.679687-12.972656c-.203126-3.882813 1.917968-7.515625 5.394531-9.257813 3.480469-1.738281 7.660156-1.253906 10.648437 1.238281l22.269532 18.515626c12.546874 10.472656 27.765624 17.242187 43.945312 19.542968l24.40625 3.5c3.679688.523438 6.742188 3.082032 7.917969 6.605469 1.171875 3.523437.257812 7.40625-2.371094 10.03125zm0 0" fill="#00828e"/><path d="m493.753906 55.566406-86.359375 86.359375c-2.710937 2.757813-6.800781 3.660157-10.421875 2.292969-3.617187-1.367188-6.089844-4.746094-6.304687-8.609375l-6.65625-119.039063c1.136719-2.9375 3.621093-5.144531 6.667969-5.925781 3.050781-.777343 6.289062-.035156 8.695312 2l22.269531 18.515625c12.546875 10.476563 27.765625 17.242188 43.949219 19.542969l24.402344 3.5c1.339844.167969 2.621094.632813 3.757812 1.363281zm0 0" fill="#00bbd3"/><path d="m349.878906 93.660156c6.300782-18.976562 21.058594-33.953125 39.9375-40.535156l-.171875-31.230469c-13.191406 5.269531-26.703125 9.714844-40.445312 13.3125-2.902344.785157-5.894531 1.550781-8.980469 2.296875-5.460938 1.253906-9.957031 5.113282-12.03125 10.320313-2.070312 5.207031-1.457031 11.097656 1.648438 15.765625zm0 0" fill="#00828e"/><path d="m204.8125 255.792969c0 18.851562-15.28125 34.132812-34.132812 34.132812-18.851563 0-34.132813-15.28125-34.132813-34.132812 0-18.851563 15.28125-34.132813 34.132813-34.132813 18.851562 0 34.132812 15.28125 34.132812 34.132813zm0 0" fill="#37474f"/><path d="m375.480469 255.792969c0 18.851562-15.28125 34.132812-34.132813 34.132812-18.851562 0-34.132812-15.28125-34.132812-34.132812 0-18.851563 15.28125-34.132813 34.132812-34.132813 18.851563 0 34.132813 15.28125 34.132813 34.132813zm0 0" fill="#37474f"/><path d="m136.546875 230.191406c0 14.140625-11.460937 25.601563-25.601563 25.601563-6.121093.039062-12.046874-2.179688-16.636718-6.230469-5.695313-4.820312-8.972656-11.90625-8.960938-19.371094-.011718-3.121094.566406-6.21875 1.707032-9.128906 6.3125-.425781 12.882812-1.109375 19.539062-2.046875 8.167969-1.144531 16.261719-2.769531 24.234375-4.863281h.085937c3.652344 4.546875 5.636719 10.207031 5.632813 16.039062zm0 0" fill="#fff"/><path d="m307.214844 230.191406c0 14.140625-11.460938 25.601563-25.601563 25.601563-14.136719 0-25.601562-11.460938-25.601562-25.601563 0-14.136718 11.464843-25.597656 25.601562-25.597656 14.140625 0 25.601563 11.460938 25.601563 25.597656zm0 0" fill="#fff"/><path d="m267.363281 324.316406 6.484375-30.636718 1.535156-7.421876c2-9.542968 10.792969-16.105468 20.511719-15.304687 9.714844.804687 17.3125 8.71875 17.71875 18.460937l1.535157 36.523438.171874 4.949219zm0 0" fill="#f9eab0"/><path d="m281.613281 324.316406 3.464844-30.636718.851563-7.421876c1.09375-9.558593 5.789062-16.128906 10.976562-15.273437 5.1875.851563 9.25 8.703125 9.429688 18.429687l.851562 36.523438.027344 4.949219zm0 0" fill="#ffebb2"/><path d="m506.628906 83.417969c4.914063-4.90625 6.628906-12.167969 4.4375-18.757813-2.195312-6.585937-7.921875-11.371094-14.796875-12.351562l-24.414062-3.492188c-14.617188-2.074218-28.367188-8.1875-39.707031-17.644531l-22.261719-18.578125c-5.574219-4.742188-13.460938-5.652344-19.96875-2.304688-2.09375 1.101563-3.953125 2.601563-5.476563 4.410157-11.207031 4.378906-22.636718 8.15625-34.246094 11.316406-58-34.679687-130.363281-34.679687-188.363281 0-11.613281-3.148437-23.042969-6.921875-34.246093-11.304687-1.523438-1.8125-3.382813-3.3125-5.476563-4.414063-6.507813-3.335937-14.386719-2.433594-19.96875 2.296875l-22.261719 18.550781c-11.339844 9.460938-25.089844 15.570313-39.707031 17.648438l-24.414063 3.488281c-6.886718.976562-12.625 5.765625-14.820312 12.363281-2.195312 6.597657-.46875 13.871094 4.460938 18.773438l49.929687 49.9375c-34.539063 54.621093-53.652344 117.570312-55.3164062 182.171875 0 113.535156 75.5039062 182.613281 212.6015622 194.441406 14.039063 1.210938 28.636719 1.824219 43.398438 1.824219 14.765625 0 29.363281-.613281 43.402343-1.824219 137.097657-11.828125 212.597657-80.90625 212.597657-194.441406-1.65625-64.613282-20.769531-127.574219-55.3125-182.203125zm-107.671875-57.710938 22.253907 18.554688c13.777343 11.476562 30.476562 18.898437 48.230468 21.433593l24.414063 3.492188c.472656.066406.863281.394531 1.015625.847656.148437.449219.03125.949219-.308594 1.285156l-88.199219 88.191407c-.324219.394531-.875.511719-1.332031.289062-.484375-.152343-.8125-.601562-.8125-1.109375l-7.328125-131.949218c-.058594-.507813.226563-.992188.699219-1.1875.1875-.101563.394531-.15625.605468-.160157.285157.003907.554688.117188.761719.3125zm-126.816406 30.253907c1.304687 2.308593 1.242187 5.144531-.160156 7.398437-1.921875 3.035156-5.308594 4.824219-8.902344 4.699219h-14.128906c-3.59375.125-6.980469-1.664063-8.902344-4.699219-1.402344-2.253906-1.464844-5.089844-.160156-7.398437l16.125-29.714844zm-254.984375 14.070312c.125-.46875.53125-.8125 1.015625-.851562l24.414063-3.492188c17.753906-2.535156 34.453124-9.957031 48.230468-21.4375l22.253906-18.558594c.367188-.359375.933594-.421875 1.367188-.144531.472656.195313.757812.679687.699219 1.1875l-7.328125 131.957031c-.003906.503906-.332032.949219-.8125 1.101563-.464844.195312-1 .078125-1.339844-.289063l-88.191406-88.191406c-.363282-.320312-.488282-.832031-.308594-1.28125zm477.789062 245.496094c0 128.042968-99.933593 167.011718-187.730468 176.527344v-39.996094c0-4.710938-3.820313-8.53125-8.535156-8.53125-4.710938 0-8.53125 3.820312-8.53125 8.53125v41.40625c-8.402344.566406-16.9375.925781-25.601563 1.074218v-59.546874c0-4.710938-3.820313-8.53125-8.535156-8.53125-4.710938 0-8.53125 3.820312-8.53125 8.53125v59.546874c-8.652344-.136718-17.1875-.496093-25.601563-1.074218v-41.40625c0-4.710938-3.820312-8.53125-8.53125-8.53125-4.714844 0-8.535156 3.820312-8.535156 8.53125v39.996094c-87.796875-9.515626-187.730469-48.484376-187.730469-176.527344 1.609375-60.054688 19.128907-118.609375 50.773438-169.675782l25.726562 25.726563c3.398438 3.445313 8.035157 5.390625 12.875 5.402344 2.269531-.003907 4.515625-.421875 6.632813-1.238281 6.785156-2.53125 11.410156-8.867188 11.75-16.101563l5.195312-93.570313c11.226563 7.320313 19.730469 18.136719 24.191406 30.773438 1.757813 4.371094 6.730469 6.492188 11.101563 4.734375 4.375-1.757813 6.496094-6.726563 4.738281-11.101563-6.675781-19.011718-20.730468-34.535156-38.988281-43.058593l.722656-13.011719c9.472657 3.367188 19.074219 6.492188 28.792969 9.035156h.136719c10.761719 2.910156 22.246093 5.402344 34.132812 7.398438.46875.089844.941407.140625 1.417969.152344 4.433594-.007813 8.121094-3.40625 8.488281-7.824219.367188-4.417969-2.710937-8.382813-7.082031-9.121094-3.464844-.589844-6.824219-1.289063-10.1875-1.964844 16.992188-7.671875 35.125-12.507812 53.683594-14.316406l-16.300782 30.0625c-4.171874 7.597656-3.984374 16.84375.488282 24.269531 4.980468 8.226563 13.960937 13.1875 23.578125 13.027344h14.128906c9.617187.15625 18.589844-4.804688 23.570313-13.027344 4.472656-7.425781 4.65625-16.671875.484374-24.269531l-16.296874-30.0625c18.558593 1.804687 36.691406 6.644531 53.683593 14.328125-3.414062.664062-6.722656 1.363281-10.1875 1.953125-4.375.738281-7.453125 4.703125-7.082031 9.125.367188 4.417969 4.0625 7.816406 8.496094 7.820313.476562 0 .953125-.042969 1.425781-.117188 11.945313-2.007812 23.46875-4.507812 34.203125-7.40625 9.769531-2.5625 19.378906-5.695312 28.859375-9.0625l.722656 13.011719c-18.257812 8.523437-32.3125 24.046875-38.988281 43.058593-1.757812 4.375.363281 9.34375 4.738281 11.101563 4.371094 1.757813 9.34375-.363281 11.101563-4.734375 4.464844-12.636719 12.964844-23.453125 24.191406-30.773438l5.195312 93.5625c.335938 7.238282 4.960938 13.578126 11.75 16.109376 2.117188.816406 4.363282 1.234374 6.632813 1.238281 4.835937-.011719 9.46875-1.957031 12.867187-5.402344l25.738282-25.738281c31.636718 51.074218 49.15625 109.628906 50.761718 169.6875zm0 0"/><path d="m197.746094 144.859375h14.132812c9.613282.15625 18.589844-4.804687 23.570313-13.03125 4.511719-7.558594 4.621093-16.960937.289062-24.625l-19.832031-32.667969c-2.269531-3.992187-6.5-6.460937-11.09375-6.476562-4.570312-.046875-8.8125 2.375-11.09375 6.339844l-20.070312 33.164062c-4.171876 7.597656-3.984376 16.839844.488281 24.265625 4.988281 8.238281 13.980469 13.203125 23.609375 13.03125zm-9.257813-28.808594 16.324219-26.957031 16.128906 26.597656c1.304688 2.3125 1.242188 5.148438-.160156 7.398438-1.921875 3.039062-5.3125 4.828125-8.902344 4.703125h-14.132812c-3.589844.125-6.976563-1.664063-8.898438-4.703125-1.363281-2.113282-1.5-4.796875-.359375-7.039063zm0 0"/><path d="m300.148438 144.859375h14.128906c9.617187.15625 18.589844-4.804687 23.570312-13.03125 4.511719-7.558594 4.625-16.960937.289063-24.625l-19.828125-32.667969c-2.269532-3.992187-6.503906-6.460937-11.09375-6.476562-4.574219-.046875-8.816406 2.375-11.09375 6.339844l-20.070313 33.164062c-4.171875 7.597656-3.988281 16.839844.484375 24.265625 4.988282 8.238281 13.984375 13.203125 23.613282 13.03125zm-9.257813-28.808594 16.324219-26.957031 16.125 26.597656c1.304687 2.3125 1.242187 5.148438-.160156 7.398438-1.921876 3.039062-5.308594 4.828125-8.902344 4.703125h-14.128906c-3.59375.125-6.980469-1.664063-8.902344-4.703125-1.363282-2.113282-1.5-4.796875-.355469-7.039063zm0 0"/><path d="m292.707031 163.734375c-2.378906-2.59375-6.105469-3.460937-9.386719-2.183594-1.28125.492188-2.421874 1.292969-3.320312 2.328125-10.246094 9.546875-18.410156 21.101563-23.988281 33.949219-5.496094-12.671875-13.519531-24.089844-23.574219-33.554687-1.542969-2.023438-3.902344-3.257813-6.445312-3.363282-2.542969-.101562-4.996094.933594-6.699219 2.824219-46.480469 51.757813-125.625 50.433594-148.777344 48.820313-4.449219-.25-8.359375 2.925781-9.027344 7.332031-1.140625 6.214843-1.722656 12.519531-1.742187 18.839843.085937 51.226563 37.984375 94.519532 88.746094 101.382813-31.664063 15.992187-56.816407 42.460937-71.175782 74.898437-1.425781 4.371094.863282 9.085938 5.179688 10.664063 4.316406 1.582031 9.109375-.542969 10.839844-4.800781.9375-2.507813 23.753906-61.714844 105.5625-81.785156 15.195312-3.628907 30.714843-5.722657 46.328124-6.246094 7.066407-.332032 14.558594-.332032 21.796876 0 15.59375.515625 31.089843 2.636718 46.25 6.332031 81.707031 20.070313 104.445312 79.171875 105.386718 81.691406 1.742188 4.234375 6.515625 6.34375 10.820313 4.769531 4.304687-1.574218 6.597656-6.261718 5.195312-10.625-14.335937-32.445312-39.476562-58.914062-71.140625-74.898437 50.761719-6.863281 88.660156-50.15625 88.746094-101.382813-.015625-6.183593-.570312-12.355468-1.65625-18.441406-.191406-2.089844-1.148438-4.039062-2.6875-5.46875-1.71875-1.636718-4.054688-2.460937-6.417969-2.261718-23.160156 1.597656-102.296875 2.925781-148.8125-48.820313zm-6.375 18c10.933594 10.554687 23.410157 19.382813 37 26.179687-19.949219 7.496094-33.164062 26.566407-33.183593 47.878907.019531 2.308593.1875 4.609375.511718 6.894531-7.417968 1.015625-14.117187 4.96875-18.585937 10.972656-13.875-30.765625-8.265625-66.824218 14.292969-91.925781zm-2.644531 106.316406c.660156-3.222656 2.757812-5.96875 5.695312-7.453125 2.933594-1.480468 6.386719-1.539062 9.375-.160156.109376.050781.230469.078125.339844.121094 3.539063 1.730468 5.835938 5.273437 5.972656 9.214844l1.253907 30.394531c-9.449219-1.8125-18.996094-3.0625-28.59375-3.753907zm37.496094-4.882812c-1.773438-6.824219-6.09375-12.710938-12.066406-16.453125-5.550782-16.097656 1.496093-33.835938 16.578124-41.738282 15.085938-7.898437 33.679688-3.589843 43.753907 10.144532 10.070312 13.730468 8.59375 32.761718-3.476563 44.773437-12.066406 12.015625-31.105468 13.40625-44.789062 3.273438zm-95.523438-101.445313c22.515625 25.066406 28.148438 61.046875 14.371094 91.792969-4.511719-5.96875-11.234375-9.878906-18.65625-10.851563.320312-2.277343.488281-4.574218.503906-6.871093-.023437-21.320313-13.261718-40.394531-33.226562-47.878907 13.59375-6.800781 26.074218-15.632812 37.007812-26.191406zm-54.980468 39.9375c11.058593-.09375 21.464843 5.21875 27.871093 14.226563 6.410157 9.011719 8.011719 20.585937 4.292969 31-5.792969 3.738281-9.988281 9.492187-11.785156 16.144531-11.875 8.882812-28.128906 9.070312-40.203125.460938-12.074219-8.605469-17.195313-24.035157-12.667969-38.15625 4.527344-14.121094 17.664062-23.691407 32.492188-23.675782zm36.429687 68.136719c.175781-3.917969 2.460937-7.429687 5.972656-9.179687.09375 0 .171875-.09375.265625-.136719 1.160156-.558594 2.410156-.894531 3.695313-1 5.425781-.453125 10.335937 3.207031 11.460937 8.535156l5.972656 28.390625c-9.597656.6875-19.144531 1.925781-28.597656 3.710938zm-130.296875-51.070313c.003906-2.917968.15625-5.835937.460938-8.738281 17.128906.566407 34.273437-.496093 51.199218-3.175781-12.816406 18.535156-11.980468 43.277344 2.054688 60.90625 14.039062 17.628906 37.96875 23.980469 58.902344 15.640625l-.675782 16.347656c-8.578125 2.867188-17.5625 4.335938-26.605468 4.351563-47.109376-.050782-85.28125-38.226563-85.335938-85.332032zm174.933594 76.894532-4.265625-20.371094c3.300781-4.964844 6.15625-10.214844 8.53125-15.683594 2.425781 5.535156 5.339843 10.835938 8.714843 15.847656l-4.265624 20.207032c-2.9375-.050782-5.804688-.050782-8.714844 0zm183.007812-85.632813c3.050782 28.746094-8.699218 57.078125-31.199218 75.230469s-52.675782 23.640625-80.128907 14.574219l-.671875-16.359375c20.917969 8.230468 44.757813 1.824218 58.738282-15.78125 13.980468-17.605469 14.816406-42.277344 2.0625-60.785156 16.925781 2.667968 34.070312 3.714843 51.199218 3.121093zm0 0"/><path d="m286.339844 359.046875c-9.503906 4.535156-19.808594 7.144531-30.328125 7.679687-10.515625-.535156-20.820313-3.144531-30.324219-7.679687-4.222656-2.105469-9.347656-.390625-11.453125 3.832031-2.105469 4.21875-.390625 9.347656 3.832031 11.449219 11.875 5.703125 24.785156 8.925781 37.945313 9.464844 13.15625-.515625 26.070312-3.710938 37.949219-9.386719 4.222656-2.105469 5.9375-7.230469 3.832031-11.453125-2.105469-4.21875-7.230469-5.933594-11.453125-3.828125zm0 0"/></svg>