<svg height="512pt" viewBox="0 0 512.01362 512" width="512pt" xmlns="http://www.w3.org/2000/svg"><path d="m503.480469 315.527344c0 119.210937-84.140625 173.226562-196.265625 185.085937-2.816406.34375-5.632813.597657-8.535156.855469-2.902344.253906-5.632813.425781-8.449219.597656-8.445313.597656-16.980469 1.023438-25.683594 1.109375-2.816406.085938-5.71875.085938-8.535156.085938-2.046875 0-4.179688 0-6.226563-.085938h-4.609375c-7.933593-.171875-15.699219-.511719-23.378906-1.109375-2.816406-.085937-5.632813-.34375-8.449219-.597656-2.816406-.257812-5.71875-.511719-8.535156-.855469-112.125-11.859375-196.265625-65.875-196.265625-185.085937 0-4.949219.171875-9.984375.511719-15.105469.085937-2.558594.257812-5.203125.511718-7.851563.597657-6.738281 1.367188-13.652343 2.476563-20.476562.511719-3.074219 1.023437-6.144531 1.621094-9.21875.09375-.804688.234375-1.601562.425781-2.386719l1.535156-7.683593c.34375-1.621094.683594-3.15625 1.109375-4.691407.511719-2.21875 1.023438-4.523437 1.621094-6.742187.855469-3.414063 1.792969-6.742188 2.730469-9.984375.769531-2.898438 1.621094-5.800781 2.5625-8.617188.082031-.339843.167968-.683593.253906-.9375 1.195312-3.671875 2.390625-7.425781 3.753906-11.09375.070313-.195312.125-.394531.171875-.597656 1.367188-3.753906 2.730469-7.59375 4.265625-11.351563 1.28125-3.328124 2.648438-6.570312 4.011719-9.8125 3.667969-8.703124 7.679687-17.320312 12.03125-25.769531 3.585937-6.996093 7.425781-13.824219 11.4375-20.566406 2.132813-3.496094 4.351563-7.082031 6.570313-10.582031l96.679687-96.851563c25.636719-15.625 54.691406-24.761719 84.652344-26.625 2.816406-.171875 5.632812-.253906 8.53125-.253906 32.917969.398437 65.113281 9.6875 93.1875 26.878906l40.957031 41.042969.941406.941406 54.78125 54.867188c2.21875 3.5 4.4375 7 6.570313 10.496094v.085937c1.027343 1.792969 2.136719 3.585937 3.074219 5.375 30 50.839844 46.507812 108.5 47.957031 167.511719zm0 0" fill="#ac1457"/><path d="m477.878906 315.527344c0 113.066406-74.339844 167.421875-176 182.953125-5.527344.855469-11.09375 1.535156-16.757812 2.132812-2.765625.34375-5.53125.597657-8.378906.855469-5.539063.511719-11.09375.851562-16.769532 1.195312-4.777344.253907-9.632812.425782-14.507812.511719h-4.519532c-7.800781-.171875-15.421874-.511719-22.964843-1.109375-2.765625-.085937-5.53125-.34375-8.304688-.597656-2.773437-.257812-5.613281-.511719-8.378906-.855469-110.113281-11.859375-192.75-65.875-192.75-185.085937 0-4.949219.167969-9.984375.503906-15.105469.085938-2.558594.246094-5.203125.503907-7.851563.589843-6.738281 1.339843-13.652343 2.429687-20.476562.503906-3.074219 1.007813-6.144531 1.589844-9.21875.09375-.800781.234375-1.601562.417969-2.386719l1.507812-7.683593c.335938-1.621094.675781-3.15625 1.09375-4.691407.503906-2.21875 1.007812-4.523437 1.585938-6.742187.855468-3.414063 1.769531-6.742188 2.6875-9.984375.753906-2.898438 1.589843-5.800781 2.511718-8.617188.085938-.339843.167969-.683593.253906-.9375 1.171876-3.671875 2.347657-7.425781 3.6875-11.09375.066407-.195312.125-.394531.171876-.597656 1.339843-3.753906 2.679687-7.59375 4.1875-11.351563 1.253906-3.328124 2.5625-6.570312 3.933593-9.8125 3.609375-8.703124 7.542969-17.320312 11.820313-25.769531 2.558594-5.121093 5.28125-10.242187 8.21875-15.191406.921875-1.789063 2.003906-3.582031 3.011718-5.375 2.097657-3.496094 4.265626-7.082031 6.449219-10.582031l94.960938-96.851563c25.09375-15.597656 53.652343-24.746093 83.140625-26.625 29.484375 1.882813 58.046875 11.027344 83.140625 26.625l94.957031 96.851563c35.28125 54.832031 54.847656 118.289062 56.566406 183.46875zm0 0" fill="#e81e63"/><g fill="#00bbd3"><path d="m256.011719 8.328125-23.617188 43.570313c-2.707031 5.503906-2.273437 12.035156 1.144531 17.128906 3.414063 5.09375 9.289063 7.980468 15.410157 7.566406h14.128906c6.121094.414062 11.996094-2.472656 15.410156-7.566406 3.417969-5.09375 3.851563-11.625 1.144531-17.128906zm0 0"/><path d="m208.566406 78.828125c-.742187-1.378906-2.183594-2.238281-3.753906-2.238281-1.566406 0-3.007812.859375-3.753906 2.238281l-19.867188 32.804687c-2.707031 5.503907-2.269531 12.03125 1.148438 17.128907 3.414062 5.09375 9.289062 7.976562 15.40625 7.566406h14.132812c6.121094.410156 11.996094-2.472656 15.410156-7.566406 3.414063-5.097657 3.851563-11.625 1.144532-17.128907zm0 0"/><path d="m310.96875 78.828125c-.746094-1.378906-2.1875-2.238281-3.753906-2.238281-1.570313 0-3.011719.859375-3.757813 2.238281l-19.863281 32.804687c-2.707031 5.503907-2.269531 12.03125 1.144531 17.128907 3.414063 5.09375 9.289063 7.976562 15.410157 7.566406h14.128906c6.121094.410156 11.996094-2.472656 15.410156-7.566406 3.417969-5.097657 3.855469-11.625 1.144531-17.128907zm0 0"/></g><path d="m162.148438 93.660156-51.203126 51.199219v-102.398437l42.667969 8.53125zm0 0" fill="#ffea3a"/><path d="m349.878906 93.660156 51.203125 51.199219v-102.398437l-42.667969 8.53125zm0 0" fill="#ffea3a"/><path d="m162.148438 93.660156c-6.300782-18.976562-21.058594-33.953125-39.9375-40.535156l.171874-31.230469c13.191407 5.269531 26.703126 9.714844 40.445313 13.3125 2.902344.785157 5.894531 1.550781 8.980469 2.296875 5.460937 1.253906 9.957031 5.113282 12.03125 10.320313 2.070312 5.207031 1.457031 11.097656-1.648438 15.765625zm0 0" fill="#ac1457"/><path d="m123.660156 27.183594-.679687 12.972656-6.65625 119.039062c-.210938 4.558594-3.597657 8.339844-8.109375 9.046876-3.148438.605468-6.390625-.421876-8.617188-2.730469l-86.355468-86.359375-1.792969-1.792969c-2.628907-2.625-3.542969-6.507813-2.371094-10.03125 1.175781-3.523437 4.238281-6.082031 7.917969-6.605469l24.402344-3.5c16.183593-2.300781 31.402343-9.070312 43.949218-19.542968l22.269532-18.515626c2.988281-2.492187 7.167968-2.976562 10.648437-1.238281 3.476563 1.742188 5.597656 5.375 5.394531 9.257813zm0 0" fill="#e81e63"/><path d="m500.578125 77.359375-1.792969 1.792969-86.355468 86.359375c-2.226563 2.308593-5.46875 3.335937-8.617188 2.730469-4.511719-.707032-7.898438-4.488282-8.109375-9.046876l-.339844-6.570312-6.316406-112.46875-.511719-9.300781-.167968-3.671875c-.203126-3.882813 1.917968-7.515625 5.394531-9.257813 3.480469-1.738281 7.660156-1.253906 10.648437 1.238281l22.269532 18.515626c12.546874 10.472656 27.765624 17.242187 43.945312 19.542968l24.40625 3.5c3.679688.523438 6.742188 3.082032 7.917969 6.605469 1.171875 3.523437.257812 7.40625-2.371094 10.03125zm0 0" fill="#ac1457"/><path d="m470.625 77.359375-75.261719 75.265625-6.316406-112.46875-.511719-9.300781 8.191406 6.824219c12.550782 10.472656 27.765626 17.242187 43.949219 19.542968l24.40625 3.5c3.675781.523438 6.738281 3.082032 7.914063 6.605469 1.175781 3.523437.257812 7.40625-2.371094 10.03125zm0 0" fill="#e81e63"/><path d="m349.878906 93.660156c6.300782-18.976562 21.058594-33.953125 39.9375-40.535156l-.171875-31.230469c-13.191406 5.269531-26.703125 9.714844-40.445312 13.3125-2.902344.785157-5.894531 1.550781-8.980469 2.296875-5.460938 1.253906-9.957031 5.113282-12.03125 10.320313-2.070312 5.207031-1.457031 11.097656 1.648438 15.765625zm0 0" fill="#ac1457"/><path d="m349.878906 153.394531c-2.898437 0-5.714844.167969-8.53125.425781-48.34375 4.363282-85.363281 44.902344-85.335937 93.441407.023437-24.902344-9.859375-48.789063-27.46875-66.398438s-41.496094-27.492187-66.394531-27.46875c-2.902344 0-5.71875.167969-8.535157.425781-48.34375 4.363282-85.363281 44.902344-85.332031 93.441407-.050781 14.355469 3.253906 28.527343 9.640625 41.386719 1.3125 2.789062 2.792969 5.496093 4.4375 8.105468 12.78125-9.464844 27.402344-16.152344 42.921875-19.628906 9.304688-2.199219 18.785156-3.542969 28.332031-4.007812 2.816407-.171876 5.632813-.257813 8.535157-.257813 12.410156-.019531 24.78125 1.414063 36.863281 4.265625 12.496093 2.898438 24.449219 7.765625 35.414062 14.421875h43.175781c19.507813-11.496094 41.621094-17.839844 64.257813-18.429687 2.644531-.171876 5.289063-.257813 8.019531-.257813 23.367188-.375 46.460938 5.015625 67.242188 15.703125 4.40625 2.367188 8.605468 5.109375 12.546875 8.191406 17.964843-28.953125 18.832031-65.367187 2.261719-95.140625-16.570313-29.773437-47.976563-48.230469-82.050782-48.21875zm0 0" fill="#fff"/><path d="m221.878906 230.191406c.039063 18.339844-8.402344 35.664063-22.867187 46.933594-24.246094-5.6875-49.480469-5.6875-73.730469 0-21.980469-17.238281-29.078125-47.414062-17.082031-72.648438 11.996093-25.230468 39.878906-38.777343 67.125-32.613281 27.25 6.164063 46.585937 30.390625 46.554687 58.328125zm0 0" fill="#ff9701"/><path d="m409.613281 230.191406c.039063 18.339844-8.402343 35.664063-22.867187 46.933594-24.25-5.6875-49.484375-5.6875-73.730469 0-21.980469-17.238281-29.078125-47.414062-17.082031-72.648438 11.996094-25.230468 39.875-38.777343 67.125-32.613281 27.25 6.164063 46.585937 30.390625 46.554687 58.328125zm0 0" fill="#ff9701"/><path d="m204.8125 230.191406c0 23.566406-19.101562 42.667969-42.664062 42.667969-23.566407 0-42.667969-19.101563-42.667969-42.667969 0-23.5625 19.101562-42.664062 42.667969-42.664062 23.5625 0 42.664062 19.101562 42.664062 42.664062zm0 0" fill="#37474f"/><path d="m392.546875 230.191406c0 23.566406-19.101563 42.667969-42.667969 42.667969-23.5625 0-42.664062-19.101563-42.664062-42.667969 0-23.5625 19.101562-42.664062 42.664062-42.664062 23.566406 0 42.667969 19.101562 42.667969 42.664062zm0 0" fill="#37474f"/><path d="m284.34375 349.832031c12.722656-7.066406 21.242188-19.847656 22.871094-34.304687 0-18.859375-22.957032-25.601563-51.203125-25.601563-28.242188 0-51.199219 6.742188-51.199219 25.601563 1.628906 14.457031 10.148438 27.238281 22.871094 34.304687h.085937l28.242188 16.894531zm0 0" fill="#ffea3a"/><path d="m230.414062 349.660156c14.136719 0 25.597657 11.460938 25.597657 25.601563v25.597656h-51.199219v-25.597656c0-14.140625 11.460938-25.601563 25.601562-25.601563zm0 0" fill="#f9eab0"/><path d="m230.414062 349.660156c9.425782 0 17.066407 7.640625 17.066407 17.066406v34.132813h-34.132813v-34.132813c0-9.425781 7.640625-17.066406 17.066406-17.066406zm0 0" fill="#ffebb2"/><path d="m281.613281 349.660156c14.140625 0 25.601563 11.460938 25.601563 25.601563v25.597656h-51.203125v-25.597656c0-14.140625 11.464843-25.601563 25.601562-25.601563zm0 0" fill="#f9eab0"/><path d="m281.613281 349.660156c9.425781 0 17.066407 7.640625 17.066407 17.066406v34.132813h-34.132813v-34.132813c0-9.425781 7.640625-17.066406 17.066406-17.066406zm0 0" fill="#ffebb2"/><path d="m119.480469 221.660156c0 14.136719-11.460938 25.601563-25.601563 25.601563-14.136718 0-25.597656-11.464844-25.597656-25.601563 0-14.140625 11.460938-25.601562 25.597656-25.601562 14.140625 0 25.601563 11.460937 25.601563 25.601562zm0 0" fill="#fff"/><path d="m307.214844 230.191406c0 14.140625-11.460938 25.601563-25.601563 25.601563-14.136719 0-25.601562-11.460938-25.601562-25.601563 0-14.136718 11.464843-25.597656 25.601562-25.597656 14.140625 0 25.601563 11.460938 25.601563 25.597656zm0 0" fill="#fff"/><path d="m506.628906 83.417969c4.914063-4.90625 6.628906-12.167969 4.4375-18.757813-2.195312-6.585937-7.921875-11.371094-14.796875-12.351562l-24.414062-3.492188c-14.617188-2.074218-28.367188-8.1875-39.707031-17.644531l-22.261719-18.578125c-5.574219-4.742188-13.460938-5.652344-19.96875-2.304688-2.09375 1.101563-3.953125 2.601563-5.476563 4.410157-11.207031 4.378906-22.636718 8.15625-34.246094 11.316406-58-34.679687-130.363281-34.679687-188.363281 0-11.613281-3.148437-23.042969-6.921875-34.246093-11.304687-3.070313-3.6875-7.496094-5.988282-12.277344-6.386719-4.785156-.398438-9.527344 1.140625-13.167969 4.269531l-22.261719 18.550781c-11.339844 9.460938-25.089844 15.570313-39.707031 17.648438l-24.414063 3.488281c-6.886718.976562-12.625 5.765625-14.820312 12.363281-2.195312 6.597657-.46875 13.871094 4.460938 18.773438l49.929687 49.9375c-34.539063 54.621093-53.652344 117.570312-55.3164062 182.171875 0 113.535156 75.5039062 182.613281 212.6015622 194.441406 14.039063 1.210938 28.636719 1.824219 43.398438 1.824219 14.765625 0 29.363281-.613281 43.402343-1.824219 137.097657-11.828125 212.597657-80.90625 212.597657-194.441406-1.65625-64.613282-20.769531-127.574219-55.3125-182.203125zm-107.671875-57.710938 22.253907 18.554688c13.777343 11.476562 30.476562 18.898437 48.230468 21.433593l24.414063 3.492188c.472656.066406.863281.394531 1.015625.847656.148437.449219.03125.949219-.308594 1.285156l-88.199219 88.191407c-.324219.394531-.875.515625-1.332031.289062-.484375-.152343-.8125-.601562-.8125-1.109375l-7.328125-131.949218c-.058594-.507813.226563-.992188.699219-1.1875.1875-.101563.394531-.15625.605468-.160157.285157.003907.554688.117188.761719.3125zm-83.210937 204.484375c0-18.847656 15.28125-34.132812 34.132812-34.132812 18.851563 0 34.132813 15.285156 34.132813 34.132812 0 18.851563-15.28125 34.136719-34.132813 34.136719-18.851562 0-34.132812-15.285156-34.132812-34.136719zm34.132812-51.199218c-21.121094-.027344-40.085937 12.933593-47.730468 32.625-7.644532 19.691406-2.390626 42.058593 13.222656 56.285156-13.859375 2.789062-27.183594 7.789062-39.457032 14.804687-13.210937-1.75-26.589843-1.75-39.800781 0-12.273437-7.015625-25.597656-12.015625-39.457031-14.804687 15.617188-14.242188 20.878906-36.621094 13.238281-56.332032-7.636719-19.710937-26.601562-32.699218-47.738281-32.699218-21.140625 0-40.105469 12.988281-47.742188 32.699218-7.636718 19.710938-2.378906 42.089844 13.242188 56.332032-14.984375 2.972656-29.335938 8.535156-42.410156 16.433594-15.203125-31.613282-9.511719-69.308594 14.347656-95.023438s61.023438-34.207031 93.683594-21.410156c32.664062 12.796875 54.164062 44.277344 54.203125 79.359375 0 4.710937 3.820312 8.53125 8.53125 8.53125 4.714843 0 8.535156-3.820313 8.535156-8.53125.046875-35.078125 21.550781-66.554688 54.210937-79.347657 32.660157-12.792968 69.824219-4.292968 93.679688 21.421876 23.855469 25.714843 29.546875 63.40625 14.34375 95.019531-13.074219-7.902344-27.425781-13.460938-42.410156-16.4375 15.625-14.222657 20.886718-36.589844 13.246094-56.289063-7.640626-19.699218-26.609376-32.667968-47.738282-32.636718zm-136.53125 213.335937v-17.066406c0-9.425781 7.640625-17.070313 17.066406-17.070313 9.425782 0 17.066407 7.644532 17.066407 17.070313v17.066406zm51.199219-17.066406c0-9.425781 7.640625-17.070313 17.066406-17.070313s17.066407 7.644532 17.066407 17.070313v17.066406h-34.132813zm17.339844-34.136719c-.09375 0-.179688 0-.273438 0-9.839843.03125-19.179687 4.335938-25.601562 11.792969-6.417969-7.457031-15.757813-11.761719-25.597657-11.792969-.09375 0-.179687 0-.273437 0-9.152344-5.585938-15.3125-14.980469-16.792969-25.597656 0-15.359375 29.867188-17.066406 42.664063-17.066406 12.800781 0 42.667969 1.707031 42.667969 17.066406-1.476563 10.617187-7.640626 20.015625-16.792969 25.597656zm-153.875-110.933594c0-18.847656 15.285156-34.132812 34.136719-34.132812 18.851562 0 34.132812 15.285156 34.132812 34.132812 0 18.851563-15.28125 34.136719-34.132812 34.136719-18.851563 0-34.136719-15.285156-34.136719-34.136719zm221.867187-85.332031c-40.75.050781-77.601562 24.230469-93.867187 61.59375-21.761719-50.441406-79.5625-74.585937-130.738281-54.613281l4.761718-85.769532c11.226563 7.320313 19.730469 18.136719 24.191406 30.773438 1.757813 4.371094 6.730469 6.492188 11.101563 4.734375 4.375-1.757813 6.496094-6.726563 4.738281-11.101563-6.675781-19.011718-20.730468-34.535156-38.988281-43.058593l.722656-13.011719c9.472657 3.367188 19.074219 6.492188 28.792969 9.035156h.136719c10.761719 2.910156 22.246093 5.402344 34.132812 7.398438.46875.089844.941407.140625 1.417969.152344 4.433594-.007813 8.121094-3.40625 8.488281-7.824219.367188-4.417969-2.710937-8.382813-7.082031-9.121094-3.464844-.589844-6.824219-1.289063-10.1875-1.964844 16.992188-7.671875 35.125-12.507812 53.683594-14.316406l-16.300782 30.0625c-4.171874 7.597656-3.984374 16.84375.488282 24.269531 4.980468 8.226563 13.960937 13.1875 23.578125 13.027344h14.128906c9.617187.15625 18.589844-4.804688 23.570313-13.027344 4.472656-7.425781 4.65625-16.671875.484374-24.269531l-16.296874-30.0625c18.558593 1.804687 36.691406 6.644531 53.683593 14.328125-3.414062.664062-6.722656 1.363281-10.1875 1.953125-4.375.738281-7.453125 4.703125-7.082031 9.125.367188 4.417969 4.0625 7.816406 8.496094 7.820313.476562 0 .953125-.042969 1.425781-.117188 11.945313-2.007812 23.46875-4.507812 34.203125-7.40625 9.769531-2.5625 19.378906-5.695312 28.859375-9.0625l.722656 13.011719c-18.257812 8.523437-32.3125 24.046875-38.988281 43.058593-1.757812 4.375.363281 9.34375 4.738281 11.101563 4.371094 1.757813 9.34375-.363281 11.101563-4.734375 4.464844-12.636719 12.964844-23.453125 24.191406-30.773438l4.761719 85.769532c-11.753907-4.597656-24.261719-6.960938-36.882813-6.980469zm-77.738281-88.898437c1.304687 2.308593 1.242187 5.144531-.160156 7.398437-1.921875 3.035156-5.308594 4.824219-8.902344 4.699219h-14.128906c-3.59375.125-6.980469-1.664063-8.902344-4.699219-1.402344-2.253906-1.464844-5.089844-.160156-7.398437l16.125-29.714844zm-254.984375 14.070312c.125-.46875.53125-.8125 1.015625-.851562l24.414063-3.492188c17.753906-2.535156 34.453124-9.957031 48.230468-21.4375l22.253906-18.558594c.371094-.355468.933594-.414062 1.367188-.144531.472656.195313.757812.679687.699219 1.1875l-7.328125 131.957031c-.003906.503906-.332032.949219-.8125 1.101563-.464844.195312-1 .078125-1.339844-.289063l-88.191406-88.191406c-.363282-.320312-.488282-.832031-.308594-1.28125zm477.789062 245.496094c0 128.042968-99.933593 167.011718-187.730468 176.527344v-39.996094c0-4.710938-3.820313-8.53125-8.535156-8.53125-4.710938 0-8.53125 3.820312-8.53125 8.53125v41.40625c-8.402344.566406-16.9375.925781-25.601563 1.074218v-59.546874c0-4.710938-3.820313-8.53125-8.535156-8.53125-4.710938 0-8.53125 3.820312-8.53125 8.53125v59.546874c-8.652344-.136718-17.1875-.496093-25.601563-1.074218v-41.40625c0-4.710938-3.820312-8.53125-8.53125-8.53125-4.714844 0-8.535156 3.820312-8.535156 8.53125v39.996094c-87.796875-9.515626-187.730469-48.484376-187.730469-176.527344 1.609375-60.054688 19.128907-118.609375 50.773438-169.675782l25.640625 25.597657c-36.757813 33.113281-44.507813 87.808593-18.390625 129.828125 1.28125 2.042968 3.367187 3.453125 5.746093 3.871094.488282.09375.984376.140624 1.484376.136718 1.898437.003906 3.746093-.632812 5.246093-1.800781 21.828125-15.199219 47.980469-22.949219 74.566407-22.089844 17.019531-.132812 33.921874 2.8125 49.894531 8.695313-9.671875 4.78125-15.785157 14.648437-15.761719 25.4375.667969 12.066406 5.949219 23.414062 14.746094 31.699218-9.222656 6.355469-14.734375 16.835938-14.746094 28.035157v17.066406h-34.132812c-28.265626-.03125-51.171876-22.9375-51.203126-51.203125 0-4.710938-3.820312-8.53125-8.53125-8.53125-4.714843 0-8.535156 3.820312-8.535156 8.53125.042969 37.6875 30.582032 68.226562 68.269532 68.269531h187.730468c37.6875-.042969 68.226563-30.582031 68.269532-68.269531 0-4.710938-3.820313-8.53125-8.535157-8.53125-4.710937 0-8.53125 3.820312-8.53125 8.53125-.03125 28.265625-22.9375 51.171875-51.203125 51.203125h-34.132812v-17.066406c-.011719-11.199219-5.523438-21.679688-14.746094-28.035157 8.796875-8.285156 14.078125-19.632812 14.746094-31.699218.023437-10.789063-6.089844-20.65625-15.761719-25.4375 15.972656-5.882813 32.875-8.828125 49.894531-8.695313 26.578125-.851562 52.71875 6.894531 74.539063 22.089844 1.5 1.167969 3.347656 1.804687 5.25 1.800781.496093.003906.996093-.042968 1.484375-.136718 2.375-.417969 4.460937-1.828126 5.742187-3.871094 26.101563-42.007813 18.363281-96.675782-18.371093-129.785156l25.648437-25.652344c31.644531 51.074218 49.164063 109.628906 50.773437 169.6875zm0 0"/><path d="m215.90625 74.535156c-2.269531-3.992187-6.5-6.460937-11.09375-6.476562-4.570312-.046875-8.8125 2.375-11.09375 6.339844l-20.070312 33.164062c-4.171876 7.597656-3.984376 16.839844.488281 24.265625 4.988281 8.238281 13.980469 13.203125 23.609375 13.03125h14.132812c9.613282.15625 18.589844-4.804687 23.570313-13.03125 4.511719-7.558594 4.621093-16.960937.289062-24.625zm4.839844 48.554688c-1.914063 3.027344-5.289063 4.816406-8.867188 4.703125h-14.132812c-3.589844.125-6.976563-1.664063-8.898438-4.703125-1.363281-2.113282-1.5-4.796875-.359375-7.039063l16.324219-26.957031 16.128906 26.597656c1.304688 2.3125 1.242188 5.148438-.160156 7.398438zm0 0"/><path d="m318.308594 74.535156c-2.269532-3.992187-6.503906-6.460937-11.09375-6.476562-4.574219-.046875-8.816406 2.375-11.09375 6.339844l-20.070313 33.164062c-4.171875 7.597656-3.988281 16.839844.484375 24.265625 4.988282 8.238281 13.984375 13.203125 23.613282 13.03125h14.128906c9.617187.15625 18.589844-4.804687 23.570312-13.03125 4.511719-7.558594 4.625-16.960937.289063-24.625zm4.835937 48.554688c-1.914062 3.027344-5.285156 4.816406-8.867187 4.703125h-14.128906c-3.59375.125-6.980469-1.664063-8.902344-4.703125-1.363282-2.113282-1.5-4.796875-.355469-7.039063l16.324219-26.957031 16.125 26.597656c1.304687 2.3125 1.242187 5.148438-.160156 7.398438zm0 0"/></svg>