<svg height="503pt" viewBox="0 0 503.89597 503" width="503pt" xmlns="http://www.w3.org/2000/svg"><path d="m69.699219 409.039062-33.996094 6.128907c-6.679687 1.238281-13.566406-.5625-18.789063-4.90625-5.222656-4.347657-8.238281-10.792969-8.234374-17.589844.003906-12.652344 10.257812-22.90625 22.914062-22.914063-6.082031.007813-11.914062-2.402343-16.210938-6.703124-4.300781-4.296876-6.710937-10.128907-6.703124-16.210938v-4.53125c-.007813-6.078125 2.402343-11.910156 6.703124-16.210938 4.296876-4.296874 10.128907-6.710937 16.210938-6.703124-12.65625.023437-22.933594-10.214844-22.957031-22.871094-.023438-12.65625 10.214843-22.933594 22.871093-22.957032 1.410157.019532 2.8125.160157 4.195313.421876l38.695313 7.046874zm0 0" fill="#00bbd3"/><path d="m495.496094 342.3125v4.53125c.007812 6.082031-2.402344 11.914062-6.703125 16.210938-4.296875 4.300781-10.128907 6.710937-16.210938 6.703124 12.65625.007813 22.910157 10.261719 22.914063 22.914063.003906 6.796875-3.011719 13.242187-8.234375 17.589844-5.222657 4.34375-12.109375 6.144531-18.789063 4.90625l-10.996094-2.015625-23-4.113282-4.699218-128 27.867187-5.117187 10.828125-1.929687c1.382813-.261719 2.785156-.402344 4.195313-.421876 12.65625.023438 22.894531 10.300782 22.871093 22.957032-.023437 12.65625-10.300781 22.894531-22.957031 22.871094 6.082031-.007813 11.914063 2.40625 16.210938 6.703124 4.300781 4.300782 6.710937 10.132813 6.703125 16.210938zm0 0" fill="#00828e"/><path d="m470.316406 342.3125v4.53125c.007813 6.082031-2.40625 11.914062-6.703125 16.210938-4.296875 4.300781-10.128906 6.710937-16.210937 6.703124 10.648437-.019531 19.902344 7.316407 22.308594 17.691407 2.410156 10.371093-2.664063 21.03125-12.234376 25.703125l-23-4.113282-4.699218-128 27.867187-5.117187c7.746094 3.933594 12.640625 11.875 12.671875 20.5625.007813 6.078125-2.40625 11.910156-6.703125 16.210937-4.296875 4.296876-10.128906 6.710938-16.210937 6.703126 6.082031-.007813 11.914062 2.40625 16.210937 6.703124 4.296875 4.300782 6.710938 10.132813 6.703125 16.210938zm0 0" fill="#00bbd3"/><path d="m176.546875 210.285156h151.082031c60.261719 0 109.113282 48.851563 109.113282 109.113282v67.148437c0 60.261719-48.851563 109.113281-109.113282 109.113281h-151.082031c-60.261719 0-109.113281-48.851562-109.113281-109.113281v-67.148437c0-60.261719 48.851562-109.113282 109.113281-109.113282zm0 0" fill="#1566bf"/><path d="m411.5625 319.398438v67.148437c.714844 59.542969-46.96875 108.390625-106.511719 109.113281h-131.105469c-59.542968-.722656-107.226562-49.570312-106.511718-109.113281v-67.148437c-.714844-59.542969 46.96875-108.390626 106.511718-109.113282h131.105469c59.542969.722656 107.226563 49.570313 106.511719 109.113282zm0 0" fill="#2295f2"/><g fill="#ffebb2"><path d="m248.3125 388.570312-2.351562 17.039063c-.652344 6.085937-4.566407 11.339844-10.214844 13.703125-5.648438 2.359375-12.136719 1.460938-16.929688-2.351562-4.792968-3.8125-7.128906-9.933594-6.09375-15.96875l2.519532-18.296876c10.671874 3.578126 21.816406 5.558594 33.070312 5.875zm0 0"/><path d="m211.96875 381.601562-10.242188 17.710938c-4.824218 7.59375-14.777343 10.03125-22.566406 5.527344-7.789062-4.5-10.644531-14.34375-6.472656-22.3125l9.734375-16.789063c9.03125 6.6875 18.984375 12.027344 29.546875 15.863281zm0 0"/><path d="m176.042969 360.617188-14.605469 12.761718c-4.472656 4.21875-10.894531 5.652344-16.738281 3.738282-5.84375-1.914063-10.175781-6.867188-11.289063-12.917969-1.109375-6.046875 1.171875-12.21875 5.953125-16.085938l14.4375-12.589843c6.132813 9.417968 13.628907 17.875 22.242188 25.09375zm0 0"/><path d="m325.949219 405.441406c-8.019531 4.625-18.273438 1.882813-22.914063-6.128906l-10.324218-17.878906c10.550781-3.875 20.476562-9.277344 29.460937-16.03125l9.90625 17.125c4.625 8.019531 1.882813 18.273437-6.128906 22.914062zm0 0"/><path d="m366.910156 371.78125c-6.097656 6.972656-16.691406 7.683594-23.667968 1.597656l-14.859376-13.011718c8.613282-7.230469 16.085938-15.71875 22.160157-25.179688l14.773437 12.925781c3.371094 2.914063 5.4375 7.054688 5.738282 11.5.300781 4.449219-1.191407 8.828125-4.144532 12.167969zm0 0"/><path d="m276.765625 419.375c-4.421875.621094-8.90625-.546875-12.464844-3.238281-3.5625-2.695313-5.902343-6.695313-6.503906-11.117188l-2.269531-16.449219c11.277344-.28125 22.453125-2.234374 33.15625-5.792968l2.433594 17.710937c1.242187 9.175781-5.179688 17.625-14.351563 18.886719zm0 0"/></g><path d="m84.21875 42.414062c-39.949219-.089843-73.066406 30.9375-75.570312 70.8125-2.5 39.871094 26.476562 74.800782 66.128906 79.699219 27.863281 3.445313 55.339844-8.847656 71.339844-31.921875 16-23.070312 17.886718-53.113281 4.894531-78-12.992188-24.890625-38.714844-40.523437-66.792969-40.589844zm0 0" fill="#fff"/><path d="m260.480469 8.839844c-39.949219-.089844-73.066407 30.941406-75.566407 70.8125-2.503906 39.871094 26.476563 74.800781 66.125 79.699218 27.863282 3.445313 55.339844-8.847656 71.339844-31.917968 16-23.074219 17.886719-53.113282 4.894532-78.003906-12.992188-24.890626-38.714844-40.523438-66.792969-40.589844zm0 0" fill="#fff"/><path d="m403.167969 25.628906c-3.15625 0-6.308594.1875-9.441407.570313-40.578124 5.011719-69.84375 41.339843-66.101562 82.054687 3.742188 40.71875 39.136719 71.105469 79.949219 68.636719 40.8125-2.464844 72.292969-36.894531 71.101562-77.765625-1.191406-40.871094-34.617187-73.410156-75.507812-73.496094zm0 0" fill="#fff"/><path d="m134.578125 117.957031c0 27.8125-22.546875 50.359375-50.359375 50.359375s-50.359375-22.546875-50.359375-50.359375 22.546875-50.363281 50.359375-50.363281 50.359375 22.550781 50.359375 50.363281zm0 0" fill="#fdc008"/><path d="m310.84375 84.382812c0 27.8125-22.550781 50.359376-50.363281 50.359376s-50.359375-22.546876-50.359375-50.359376 22.546875-50.359374 50.359375-50.359374 50.363281 22.546874 50.363281 50.359374zm0 0" fill="#fdc008"/><path d="m453.53125 101.167969c0 27.816406-22.546875 50.363281-50.363281 50.363281-27.8125 0-50.359375-22.546875-50.359375-50.363281 0-27.8125 22.546875-50.359375 50.359375-50.359375 27.816406 0 50.363281 22.546875 50.363281 50.359375zm0 0" fill="#fdc008"/><path d="m109.398438 117.957031c0 13.90625-11.273438 25.179688-25.179688 25.179688s-25.179688-11.273438-25.179688-25.179688 11.273438-25.179687 25.179688-25.179687 25.179688 11.273437 25.179688 25.179687zm0 0" fill="#37474f"/><path d="m285.660156 84.382812c0 13.90625-11.273437 25.179688-25.179687 25.179688s-25.179688-11.273438-25.179688-25.179688 11.273438-25.179687 25.179688-25.179687 25.179687 11.273437 25.179687 25.179687zm0 0" fill="#37474f"/><path d="m428.351562 101.167969c0 13.90625-11.273437 25.183593-25.183593 25.183593-13.90625 0-25.179688-11.277343-25.179688-25.183593s11.273438-25.179688 25.179688-25.179688c13.910156 0 25.183593 11.273438 25.183593 25.179688zm0 0" fill="#37474f"/><path d="m67.433594 92.777344c0 9.269531-7.515625 16.785156-16.789063 16.785156-9.269531 0-16.785156-7.515625-16.785156-16.785156 0-9.273438 7.515625-16.789063 16.785156-16.789063 9.273438 0 16.789063 7.515625 16.789063 16.789063zm0 0" fill="#fff"/><path d="m243.695312 59.203125c0 9.269531-7.515624 16.785156-16.789062 16.785156-9.269531 0-16.785156-7.515625-16.785156-16.785156 0-9.273437 7.515625-16.789063 16.785156-16.789063 9.273438 0 16.789062 7.515626 16.789062 16.789063zm0 0" fill="#fff"/><path d="m386.382812 75.988281c0 9.273438-7.515624 16.789063-16.785156 16.789063-9.273437 0-16.789062-7.515625-16.789062-16.789063 0-9.269531 7.515625-16.785156 16.789062-16.785156 9.269532 0 16.785156 7.515625 16.785156 16.785156zm0 0" fill="#fff"/><path d="m472.667969 265.175781c-1.914063.019531-3.820313.203125-5.699219.554688l-32.105469 5.875c-15.625-34.921875-47.234375-60.082031-84.773437-67.472657 2.550781-10.539062 6.007812-20.835937 10.332031-30.78125 38.71875 23.128907 88.792969 11.550782 113.429687-26.226562 24.636719-37.777344 15.039063-88.269531-21.738281-114.371094-36.78125-26.105468-87.609375-18.507812-115.144531 17.214844-16.378906-36.464844-56.210938-56.304688-95.183594-47.410156-38.96875 8.894531-66.25 44.054687-65.1875 84.015625 1.0625 39.957031 30.175782 73.617187 69.5625 80.425781-.636718 11.867188-1.152344 23.496094-1.542968 34.890625h-68.070313c-8.152344-.003906-16.285156.839844-24.265625 2.519531-3.585938-8.015625-7.625-16.042968-12.121094-24.089844 33.269532-29.917968 37.25-80.660156 9.046875-115.398437-28.199219-34.734375-78.679687-41.265625-114.792969-14.851563-36.113281 26.414063-45.183593 76.5-20.625 113.898438 24.5625 37.398438 74.125 48.980469 112.714844 26.339844 3.480469 6.320312 6.65625 12.621094 9.527344 18.894531-29.707031 10.984375-53.75 33.453125-66.71875 62.351563l-32.140625-5.875c-1.867187-.34375-3.761719-.527344-5.664063-.542969-12.875.007812-24.429687 7.898437-29.121093 19.890625-4.691407 11.988281-1.558594 25.628906 7.894531 34.371094-6.375 5.914062-10 14.21875-9.996094 22.914062v4.53125c-.007812 8.695312 3.609375 17 9.980469 22.914062-.253906.238282-.503906.488282-.75.742188-8.984375 8.921875-11.703125 22.378906-6.882813 34.089844 4.816407 11.710937 16.222657 19.359375 28.882813 19.375 1.910156.007812 3.820313-.152344 5.699219-.488282l26.414062-4.765624c14.398438 50.441406 60.460938 85.253906 112.917969 85.34375h151.082031c52.476563-.082032 98.550782-34.917969 112.933594-85.386719l26.390625 4.757812c13.453125 2.480469 26.960937-4.074219 33.335937-16.179687 6.378907-12.109375 4.144532-26.953125-5.511718-36.648438-.285156-.292968-.574219-.578125-.839844-.839844 6.359375-5.917968 9.96875-14.222656 9.953125-22.914062v-4.53125c.003906-8.695312-3.621094-17-9.996094-22.914062 9.421875-8.746094 12.535157-22.367188 7.847657-34.335938-4.6875-11.972656-16.21875-19.859375-29.074219-19.886719zm-455.597657-147.21875c0-37.085937 30.0625-67.148437 67.148438-67.148437s67.148438 30.0625 67.148438 67.148437c0 37.082031-30.0625 67.148438-67.148438 67.148438-37.066406-.042969-67.105469-30.082031-67.148438-67.148438zm386.097657-83.933593c35.054687-.019532 64.222656 26.933593 66.972656 61.878906 2.75 34.945312-21.84375 66.125-56.46875 71.59375-34.625 5.464844-67.628906-16.621094-75.777344-50.714844 6.117188-14.363281 7.984375-30.183594 5.378907-45.578125 11.339843-22.710937 34.511718-37.09375 59.894531-37.179687zm-209.835938 50.359374c0-37.085937 30.066407-67.148437 67.148438-67.148437 37.085937 0 67.148437 30.0625 67.148437 67.148437 0 37.085938-30.0625 67.148438-67.148437 67.148438-37.066407-.042969-67.105469-30.082031-67.148438-67.148438zm69.574219 83.808594c25.050781-.730468 48.457031-12.640625 63.789062-32.464844 4.710938 10.378907 11.492188 19.691407 19.929688 27.359376-5.773438 12.550781-10.273438 25.644531-13.429688 39.089843-1.804687-.09375-3.660156-.285156-5.566406-.285156h-66.214844c.378907-10.996094.878907-22.230469 1.492188-33.699219zm-228.71875 238.726563c-5.398438.964843-10.875-1.195313-14.160156-5.582031-3.285156-4.390626-3.8125-10.253907-1.367188-15.15625 2.449219-4.90625 7.453125-8.011719 12.933594-8.027344 4.632812 0 8.390625-3.757813 8.390625-8.394532 0-4.632812-3.757813-8.390624-8.390625-8.390624-8.015625-.011719-14.511719-6.507813-14.523438-14.523438v-4.53125c.011719-8.015625 6.507813-14.511719 14.523438-14.519531 4.632812 0 8.390625-3.757813 8.390625-8.394531 0-4.636719-3.757813-8.394532-8.390625-8.394532-5.507812.015625-10.542969-3.089844-13.007812-8.011718-2.460938-4.921876-1.929688-10.8125 1.382812-15.210938 3.308594-4.398438 8.820312-6.542969 14.234375-5.539062l29.335937 5.34375c-2.960937 10.347656-4.472656 21.050781-4.5 31.8125v67.148437c.039063 5.242187.429688 10.476563 1.167969 15.671875zm293.441406 80.351562h-151.082031c-55.601563-.0625-100.660156-45.121093-100.722656-100.722656v-67.148437c.078125-42.460938 26.75-80.320313 66.703125-94.6875 3.707031 9.566406 6.730468 19.382812 9.039062 29.378906.863282 3.832031 4.265625 6.554687 8.195313 6.554687.613281-.003906 1.226562-.066406 1.828125-.191406 2.175781-.484375 4.066406-1.8125 5.261718-3.691406 1.195313-1.878907 1.59375-4.15625 1.109376-6.332031-2.375-10.21875-5.441407-20.269532-9.175782-30.074219 5.859375-1.082031 11.804688-1.644531 17.761719-1.679688h67.601563c-.277344 11.484375-.453126 22.757813-.453126 33.574219 0 4.636719 3.757813 8.394531 8.390626 8.394531 4.636718 0 8.394531-3.757812 8.394531-8.394531 0-10.808594.183593-22.082031.453125-33.574219h66.695312c.839844 0 1.679688.109375 2.519532.128907-1.671876 11.070312-2.511719 22.25-2.519532 33.445312 0 4.636719 3.757813 8.394531 8.394532 8.394531 4.632812 0 8.390624-3.757812 8.390624-8.394531.007813-10.605469.824219-21.199219 2.445313-31.683594 47.28125 9.25 81.421875 50.652344 81.492187 98.832032v67.148437c-.0625 55.601563-45.121093 100.660156-100.722656 100.722656zm144.953125-159.476562c8.015625.007812 14.511719 6.503906 14.523438 14.519531v4.53125c-.011719 8.015625-6.507813 14.511719-14.523438 14.523438-4.632812 0-8.390625 3.757812-8.390625 8.390624 0 4.636719 3.757813 8.394532 8.390625 8.394532 5.515625-.027344 10.566407 3.074218 13.039063 8.003906 2.46875 4.929688 1.933594 10.832031-1.386719 15.234375s-8.851563 6.539063-14.269531 5.519531l-26.019532-4.691406c.746094-5.191406 1.144532-10.429688 1.191407-15.671875v-67.148437c-.027344-10.757813-1.539063-21.464844-4.492188-31.8125l29.296875-5.335938c4.238282-.835938 8.632813.28125 11.960938 3.042969 3.328125 2.757812 5.238281 6.867187 5.203125 11.191406-.011719 8.015625-6.507813 14.511719-14.523438 14.519531-4.632812 0-8.390625 3.757813-8.390625 8.394532 0 4.636718 3.757813 8.394531 8.390625 8.394531zm0 0"/><path d="m84.21875 84.382812c-18.542969 0-33.574219 15.03125-33.574219 33.574219s15.03125 33.574219 33.574219 33.574219 33.574219-15.03125 33.574219-33.574219c0-8.90625-3.539063-17.445312-9.832031-23.742187-6.296876-6.296875-14.835938-9.832032-23.742188-9.832032zm0 50.359376c-9.269531 0-16.785156-7.515626-16.785156-16.785157 0-9.273437 7.515625-16.789062 16.785156-16.789062s16.785156 7.515625 16.785156 16.789062c0 9.269531-7.515625 16.785157-16.785156 16.785157zm0 0"/><path d="m294.054688 84.382812c0-18.542968-15.03125-33.574218-33.574219-33.574218s-33.574219 15.03125-33.574219 33.574218c0 18.542969 15.03125 33.574219 33.574219 33.574219s33.574219-15.03125 33.574219-33.574219zm-50.359376 0c0-9.269531 7.515626-16.789062 16.785157-16.789062 9.273437 0 16.789062 7.519531 16.789062 16.789062 0 9.269532-7.515625 16.785157-16.789062 16.785157-9.269531 0-16.785157-7.515625-16.785157-16.785157zm0 0"/><path d="m403.167969 134.742188c18.542969 0 33.574219-15.03125 33.574219-33.574219 0-18.539063-15.03125-33.574219-33.574219-33.574219-18.539063 0-33.570313 15.035156-33.570313 33.574219 0 18.542969 15.03125 33.574219 33.570313 33.574219zm0-50.359376c9.273437 0 16.789062 7.515626 16.789062 16.785157 0 9.273437-7.515625 16.789062-16.789062 16.789062-9.269531 0-16.785157-7.515625-16.785157-16.789062 0-9.269531 7.515626-16.785157 16.785157-16.785157zm0 0"/><path d="m361.371094 333.507812c10.914062-18.96875 16.648437-40.476562 16.617187-62.363281 0-4.636719-3.757812-8.394531-8.390625-8.394531-4.636718 0-8.394531 3.757812-8.394531 8.394531.050781 21.136719-6.105469 41.824219-17.710937 59.492188-5.695313 8.863281-12.707032 16.808593-20.789063 23.5625-1.753906 1.625-3.617187 3.132812-5.574219 4.507812-8.339844 6.25-17.546875 11.257813-27.328125 14.855469-1.085937.402344-2.175781.746094-3.761719 1.25-10.03125 3.3125-20.496093 5.117188-31.054687 5.363281-.972656.066407-1.882813.074219-2.863281.066407-.980469-.007813-2.148438 0-3.535156-.082032-10.496094-.300781-20.890626-2.15625-30.84375-5.507812-.90625-.277344-1.820313-.546875-2.878907-.957032-5.679687-2.082031-11.171875-4.636718-16.417969-7.644531-3.804687-2.140625-7.480468-4.503906-11.003906-7.078125-1.988281-1.460937-3.894531-2.988281-5.96875-4.800781-3.03125-2.558594-5.90625-5.292969-8.617187-8.191406-.839844-.839844-1.679688-1.679688-2.4375-2.515625-.753907-.839844-1.316407-1.613282-1.980469-2.410156-1.007812-1.199219-2.03125-2.382813-2.988281-3.644532-.703125-.914062-1.339844-1.894531-2.011719-2.84375-.839844-1.210937-1.753906-2.382812-2.570312-3.636718-11.707032-17.734376-17.933594-38.53125-17.894532-59.785157 0-4.636719-3.757812-8.394531-8.394531-8.394531-4.632813 0-8.390625 3.757812-8.390625 8.394531-.019531 22.011719 5.769531 43.636719 16.785156 62.691407l-9.097656 7.941406c-9.640625 8.679687-11.109375 23.265625-3.386719 33.695312 7.71875 10.425782 22.097657 13.28125 33.214844 6.589844-2.902344 7.707031-1.847656 16.347656 2.828125 23.128906 4.671875 6.78125 12.371094 10.839844 20.609375 10.867188 2.214844.007812 4.425781-.277344 6.570313-.839844 4.222656-1.148438 8.070312-3.390625 11.15625-6.496094 2.242187 10.292969 10.652343 18.101563 21.082031 19.574219 1.136719.148437 2.28125.222656 3.425781.226563 9.714844-.050782 18.535156-5.6875 22.664062-14.480469 4.179688 8.539062 12.875 13.9375 22.382813 13.898437 1.167969 0 2.335937-.082031 3.492187-.242187 10.601563-1.414063 19.121094-9.429688 21.175782-19.925781 7.878906 8.785156 20.835937 10.851562 31.058594 4.953124 10.660156-6.125 15.289062-19.09375 10.910156-30.585937 3.957031 2.46875 8.527344 3.78125 13.195312 3.785156.585938 0 1.164063 0 1.761719-.058593 10.144531-.710938 18.867187-7.457032 22.105469-17.097657 3.242187-9.640625.363281-20.28125-7.292969-26.976562zm-205.472656 33.574219c-3.511719 2.796875-8.601563 2.332031-11.554688-1.050781-2.949219-3.382812-2.714844-8.492188.535156-11.589844l7.453125-6.503906c.058594.082031.132813.140625.191407.226562 3.265624 4.230469 6.804687 8.242188 10.59375 12.011719.101562.097657.183593.226563.292968.316407zm38.558593 28.035157c-1.113281 1.921874-2.949219 3.316406-5.101562 3.875-2.148438.601562-4.449219.296874-6.371094-.835938-1.9375-1.105469-3.351563-2.945312-3.917969-5.105469-.574218-2.136719-.253906-4.414062.878906-6.3125l5.203126-8.972656c2.417968 1.519531 4.875 2.949219 7.371093 4.296875.839844.457031 1.71875.839844 2.578125 1.277344 1.585938.839844 3.164063 1.679687 4.792969 2.382812zm33.75 16.527343c-2.214843-.304687-4.214843-1.480469-5.5625-3.265625-1.34375-1.785156-1.921875-4.03125-1.605469-6.246094l1.191407-8.679687c1.679687.414063 3.359375.722656 5.039062 1.058594.996094.203125 1.988281.453125 2.996094.628906 2.625.460937 5.277344.839844 7.9375 1.125.195313 0 .378906.058594.574219.074219l-1.125 8.125c-.277344 2.21875-1.433594 4.230468-3.210938 5.578125-1.777344 1.351562-4.023437 1.929687-6.234375 1.601562zm52.957031-3.835937c-2.046874 2.738281-5.546874 3.960937-8.851562 3.097656s-5.757812-3.648438-6.199219-7.035156l-1.039062-7.554688c2.953125-.300781 5.875-.714844 8.753906-1.207031.636719-.109375 1.257813-.269531 1.886719-.386719 2.007812-.386718 4.003906-.757812 5.96875-1.234375l1.117187 8.109375c.3125 2.203125-.277343 4.445313-1.636719 6.210938zm44.484376-14.691406c-.5625 2.128906-1.957032 3.945312-3.871094 5.039062-4.011719 2.289062-9.121094.933594-11.464844-3.046875l-5.546875-9.59375c1.828125-.839844 3.601563-1.78125 5.371094-2.703125.707031-.363281 1.433593-.6875 2.132812-1.066406 2.460938-1.34375 4.863281-2.761719 7.210938-4.257813l5.34375 9.234375c1.117187 1.9375 1.410156 4.238282.824219 6.394532zm34.957031-26.859376c-1.445313 1.664063-3.492188 2.6875-5.691407 2.839844-2.222656.128906-4.410156-.605468-6.109374-2.050781l-7.789063-6.820313c.175781-.167968.320313-.378906.488281-.554687 3.691406-3.6875 7.136719-7.613281 10.316406-11.753906.082032-.097657.175782-.183594.257813-.292969l7.808594 6.832031c1.660156 1.425781 2.679687 3.457031 2.828125 5.640625.160156 2.25-.601563 4.46875-2.109375 6.144532zm0 0"/></svg>