<svg height="511pt" viewBox="-59 0 511 511.99396" width="511pt" xmlns="http://www.w3.org/2000/svg"><path d="m384.496094 196.261719v230.398437c.011718 15.5625-10.523438 29.15625-25.597656 33.023438-5.59375 1.480468-11.476563 1.480468-17.066407 0-1.484375-.378906-2.9375-.863282-4.355469-1.449219-4.214843-1.6875-8.046874-4.214844-11.261718-7.425781-6.378906-6.417969-9.96875-15.097656-9.984375-24.148438v-55.464844c0-11.785156-9.550781-21.335937-21.332031-21.335937-1.433594.015625-2.863282.160156-4.269532.429687-1.46875.285157-2.902344.742188-4.265625 1.363282-2.460937 1.035156-4.691406 2.542968-6.570312 4.4375-3.085938 3.085937-5.144531 7.050781-5.886719 11.347656-.246094 1.238281-.359375 2.496094-.34375 3.757812v105.214844c.296875 13.785156-10.011719 25.5-23.722656 26.964844-3.53125.269531-7.082032-.226562-10.410156-1.449219-1.527344-.507812-2.988282-1.195312-4.351563-2.050781-1.910156-1.054688-3.664063-2.375-5.207031-3.921875-4.804688-4.792969-7.507813-11.304687-7.507813-18.09375v-71.167969c.09375-6.03125-2.253906-11.847656-6.511719-16.125-4.261718-4.273437-10.066406-6.644531-16.101562-6.574218-1.0625.089843-2.121094.261718-3.15625.515624h-.34375c-1.414062.285157-2.789062.742188-4.09375 1.363282-2.304688 1.089844-4.414062 2.5625-6.230469 4.351562-3.996093 4.007813-6.238281 9.441406-6.230469 15.105469-.078124 16.460937-13.402343 29.785156-29.863281 29.867187-2.894531.011719-5.773437-.421874-8.535156-1.28125-1.480469-.40625-2.914063-.976562-4.265625-1.707031-3.089844-1.414062-5.894531-3.378906-8.277344-5.800781-5.640625-5.5625-8.804687-13.160156-8.789062-21.078125v-25.601563c-.003906-5.617187-2.207032-11.011718-6.144532-15.019531l-.085937-.082031c-2.964844-2.957031-6.734375-4.976562-10.835937-5.804688-.121094.003907-.238282-.027343-.34375-.085937-1.292969-.242187-2.609376-.359375-3.925782-.339844-1.429687.015625-2.859375.15625-4.265625.425781h-.171875c-1.398437.339844-2.769531.796876-4.09375 1.367188-2.460937 1.03125-4.695312 2.539062-6.570312 4.4375-4 4.007812-6.242188 9.441406-6.230469 15.101562v64c.011719 15.5625-10.523437 29.15625-25.601563 33.023438-5.589843 1.480469-11.472656 1.480469-17.066406 0-1.480468-.378906-2.9375-.863281-4.351562-1.449219-4.214844-1.6875-8.046875-4.214843-11.261719-7.425781-6.382813-6.417969-9.96875-15.097656-9.984375-24.148438v-242.941406c0-99.757812 76.03125-185.003906 174.761719-191.746094l4.011719-.253906c.707031-.101562 1.417968-.15625 2.132812-.171875 50.941406-1.835937 100.441406 17.113281 137.132812 52.5 36.691407 35.390625 57.421876 84.171875 57.425782 135.148438zm0 0" fill="#f47c00"/><path d="m358.898438 196.261719v230.398437c.046874 13.933594-8.457032 26.46875-21.421876 31.574219-4.214843-1.6875-8.046874-4.214844-11.261718-7.425781-6.378906-6.417969-9.96875-15.097656-9.984375-24.148438v-55.464844c0-11.785156-9.550781-21.335937-21.332031-21.335937-1.433594.015625-2.863282.160156-4.269532.429687-1.40625-.273437-2.832031-.417968-4.265625-.429687-2.9375-.015625-5.847656.597656-8.53125 1.792969-.242187-.148438-.5-.261719-.769531-.339844-5.945312-2.34375-12.632812-1.886719-18.207031 1.238281-5.574219 3.128907-9.445313 8.59375-10.550781 14.886719-.242188 1.238281-.359376 2.496094-.339844 3.757812v105.214844c.054687 9.523438-4.820313 18.402344-12.886719 23.464844-1.910156-1.054688-3.664063-2.375-5.207031-3.921875-4.804688-4.792969-7.507813-11.304687-7.507813-18.09375v-71.167969c.09375-6.03125-2.253906-11.847656-6.511719-16.125-4.261718-4.273437-10.066406-6.644531-16.101562-6.574218-1.0625.089843-2.121094.261718-3.15625.515624h-.34375c-1.640625-.429687-3.339844-.601562-5.03125-.515624-2.621094.191406-5.191406.824218-7.597656 1.878906-2.953125-1.394532-6.207032-2.039063-9.472656-1.878906-11.277344.679687-20.070313 10.035156-20.050782 21.335937.015625 7.917969-3.152344 15.515625-8.789062 21.078125-2.382813 2.421875-5.1875 4.386719-8.277344 5.800781-3.089844-1.414062-5.894531-3.378906-8.277344-5.800781-5.640625-5.5625-8.804687-13.160156-8.789062-21.078125v-25.601563c-.003906-5.617187-2.207032-11.011718-6.144532-15.019531l-.085937-.082031c-2.964844-2.957031-6.734375-4.976562-10.835937-5.804688-.121094.003907-.238282-.027343-.34375-.085937-1.292969-.242187-2.609376-.359375-3.925782-.339844-1.429687.015625-2.859375.15625-4.265625.425781h-.171875c-.042968-.046874-.105468-.074218-.167968-.085937-1.296876-.242187-2.609376-.359375-3.925782-.339844-2.941406-.015625-5.847656.59375-8.535156 1.792969-1.378906-.585938-2.804688-1.042969-4.265625-1.367188-.121094.003907-.238281-.027343-.339844-.085937-1.296875-.242187-2.609375-.359375-3.925781-.339844-5.664062-.019531-11.101562 2.222657-15.105469 6.226563-4.003906 4.003906-6.246093 9.441406-6.230469 15.105468v64c.050782 13.933594-8.453124 26.46875-21.417968 31.574219-4.214844-1.6875-8.046875-4.214843-11.261719-7.425781-6.382813-6.417969-9.96875-15.097656-9.984375-24.148438v-242.941406c0-99.757812 76.03125-185.003906 174.761719-191.746094 98.5625 6.558594 175.148437 88.441407 175.105469 187.222657zm0 0" fill="#ff9701"/><path d="m137.03125 93.859375c-2.859375-.03125-5.714844.195313-8.535156.683594-18.230469 2.613281-34.234375 13.5-43.359375 29.496093-9.125 16-10.351563 35.316407-3.316407 52.339844.769532 2.023438 1.683594 3.992188 2.730469 5.886719 7.847657-4.027344 16.199219-6.980469 24.832031-8.789063 6.300782-1.3125 12.6875-2.167968 19.113282-2.558593 2.816406-.171875 5.632812-.257813 8.535156-.257813 9.292969-.027344 18.5625.945313 27.648438 2.902344 3.546874.734375 7.054687 1.675781 10.496093 2.816406 4.949219 1.515625 9.746094 3.484375 14.335938 5.886719 10.058593-18.527344 9.632812-40.980469-1.128907-59.109375-10.761718-18.128906-30.269531-29.257812-51.351562-29.296875zm0 0" fill="#f4f4f4"/><path d="m256.496094 93.859375c-2.859375-.03125-5.714844.195313-8.53125.683594-18.234375 2.613281-34.238282 13.5-43.363282 29.496093-9.125 16-10.347656 35.316407-3.316406 52.339844.773438 2.023438 1.683594 3.992188 2.730469 5.886719 13.691406-6.824219 28.664063-10.6875 43.949219-11.347656 2.816406-.171875 5.628906-.257813 8.53125-.257813 12.9375-.089844 25.804687 1.839844 38.144531 5.71875 4.949219 1.515625 9.75 3.484375 14.335937 5.886719 10.0625-18.527344 9.632813-40.980469-1.128906-59.109375-10.761718-18.128906-30.269531-29.257812-51.351562-29.296875zm0 0" fill="#f4f4f4"/><path d="m171.164062 153.59375c.007813 7.175781-2.261718 14.167969-6.484374 19.96875-9.085938-1.957031-18.355469-2.929688-27.648438-2.902344-2.902344 0-5.71875.085938-8.535156.257813-6.425782.390625-12.8125 1.246093-19.113282 2.558593-4.222656-5.769531-6.496093-12.734374-6.484374-19.882812 0-18.851562 15.28125-34.132812 34.132812-34.132812s34.132812 15.28125 34.132812 34.132812zm0 0" fill="#00bbd3"/><path d="m290.628906 153.59375c.011719 7.175781-2.261718 14.167969-6.484375 19.96875-9.085937-1.957031-18.355469-2.929688-27.648437-2.902344-2.902344 0-5.714844.085938-8.53125.257813-6.425782.390625-12.8125 1.246093-19.117188 2.558593-4.222656-5.769531-6.492187-12.734374-6.484375-19.882812 0-18.851562 15.28125-34.132812 34.132813-34.132812 18.851562 0 34.132812 15.28125 34.132812 34.132812zm0 0" fill="#00bbd3"/><path d="m154.097656 153.59375c0 9.425781-7.640625 17.066406-17.066406 17.066406s-17.066406-7.640625-17.066406-17.066406 7.640625-17.066406 17.066406-17.066406 17.066406 7.640625 17.066406 17.066406zm0 0" fill="#37474f"/><path d="m273.5625 153.59375c0 9.425781-7.640625 17.066406-17.066406 17.066406-9.425782 0-17.066406-7.640625-17.066406-17.066406s7.640624-17.066406 17.066406-17.066406c9.425781 0 17.066406 7.640625 17.066406 17.066406zm0 0" fill="#37474f"/><path d="m137.03125 127.992188c0 9.425781-7.640625 17.070312-17.066406 17.070312-9.425782 0-17.066406-7.644531-17.066406-17.070312 0-9.425782 7.640624-17.066407 17.066406-17.066407 9.425781 0 17.066406 7.640625 17.066406 17.066407zm0 0" fill="#f4f4f4"/><path d="m256.496094 127.992188c0 9.425781-7.640625 17.070312-17.066406 17.070312-9.425782 0-17.066407-7.644531-17.066407-17.070312 0-9.425782 7.640625-17.066407 17.066407-17.066407 9.425781 0 17.066406 7.640625 17.066406 17.066407zm0 0" fill="#f4f4f4"/><path d="m350.363281 469.328125c23.554688-.027344 42.640625-19.113281 42.667969-42.667969v-230.398437c-.003906-53.292969-21.675781-104.292969-60.039062-141.285157-38.367188-36.988281-90.121094-56.789062-143.378907-54.847656-104.277343 3.703125-189.117187 93.730469-189.117187 200.628906v242.96875c0 23.566407 19.101562 42.667969 42.667968 42.667969 23.5625 0 42.667969-19.101562 42.667969-42.667969v-64c0-3.394531 1.339844-6.652343 3.726563-9.0625 2.945312-2.902343 7.09375-4.234374 11.179687-3.582031l.445313.085938c5.984375 1.183593 10.285156 6.457031 10.246094 12.558593v25.601563c0 21.207031 17.191406 38.398437 38.402343 38.398437 21.207031 0 38.398438-17.191406 38.398438-38.398437 0-3.394531 1.339843-6.652344 3.730469-9.0625 2.207031-2.222656 5.15625-3.554687 8.285156-3.738281 3.316406-.128906 6.546875 1.105468 8.933594 3.414062 2.957031 2.792969 4.640624 6.675782 4.652343 10.742188v71.175781c0 9.0625 3.601563 17.75 10.011719 24.152344 6.410156 6.402343 15.101562 9.992187 24.164062 9.980469.851563 0 1.628907 0 2.449219-.09375 18.183594-1.765626 31.957031-17.210938 31.640625-35.480469v-105.222657c-.011718-.777343.058594-1.554687.210938-2.3125.449218-2.558593 1.675781-4.917968 3.515625-6.75 3.65625-3.519531 9.003906-4.632812 13.757812-2.859374 4.898438 1.925781 8.117188 6.65625 8.113281 11.921874v55.464844c.03125 23.554688 19.117188 42.640625 42.667969 42.667969zm-44.578125-125.960937c-11.066406-4.199219-23.5625-1.59375-32.023437 6.679687-4.269531 4.234375-7.128907 9.675781-8.195313 15.59375-.375 1.824219-.554687 3.6875-.535156 5.554687v105.222657c.25 9.308593-6.574219 17.296875-15.804688 18.507812-4.949218.347657-9.804687-1.460937-13.320312-4.964843-3.222656-3.199219-5.027344-7.558594-5.007812-12.101563v-71.175781c-.023438-8.765625-3.644532-17.136719-10.019532-23.152344-5.355468-5.148438-12.488281-8.039062-19.917968-8.070312-.578126 0-1.152344 0-1.707032.050781-7.292968.417969-14.175781 3.503906-19.34375 8.671875-5.589844 5.617187-8.730468 13.21875-8.746094 21.144531 0 11.78125-9.550781 21.332031-21.332031 21.332031-11.785156 0-21.335937-9.550781-21.335937-21.332031v-25.601563c.035156-14.15625-9.902344-26.378906-23.765625-29.242187-.160157-.042969-.324219-.085937-.484375-.113281-8.75-1.671875-17.789063.644531-24.652344 6.324218-6.867188 5.679688-10.835938 14.125-10.832031 23.03125v64c-.042969 10.8125-6.871094 20.425782-17.066407 24.03125v-41.097656c0-4.710937-3.820312-8.53125-8.53125-8.53125-4.714843 0-8.535156 3.820313-8.535156 8.53125v41.097656c-10.191406-3.605468-17.019531-13.21875-17.066406-24.03125v-242.96875c0-97.835937 77.449219-180.191406 172.65625-183.578124 48.628906-1.777344 95.890625 16.300781 130.921875 50.074218 35.03125 33.773438 54.824219 80.34375 54.824219 129.007813v230.398437c-.046875 10.808594-6.875 20.425782-17.066406 24.03125v-49.628906c0-4.714844-3.820313-8.535156-8.535157-8.535156-4.710937 0-8.53125 3.820312-8.53125 8.535156v49.628906c-10.195312-3.605468-17.023437-13.222656-17.070312-24.03125v-55.464844c-.035157-12.285156-7.550781-23.308593-18.976563-27.828124zm0 0"/><path d="m43.164062 230.394531c-4.714843 0-8.535156 3.820313-8.535156 8.53125v119.46875c0 4.710938 3.820313 8.53125 8.535156 8.53125 4.710938 0 8.53125-3.820312 8.53125-8.53125v-119.46875c0-4.710937-3.820312-8.53125-8.53125-8.53125zm0 0"/><path d="m350.363281 349.859375c4.714844 0 8.535157-3.820313 8.535157-8.53125v-68.265625c0-4.714844-3.820313-8.535156-8.535157-8.535156-4.710937 0-8.53125 3.820312-8.53125 8.535156v68.265625c0 4.710937 3.820313 8.53125 8.53125 8.53125zm0 0"/><path d="m316.511719 186.269531c18.128906-33.070312 6.015625-74.570312-27.050781-92.699219-33.066407-18.128906-74.570313-6.015624-92.699219 27.050782-18.125-33.066406-59.628907-45.179688-92.695313-27.050782-33.066406 18.128907-45.179687 59.628907-27.050781 92.699219.714844.855469 1.429687 1.707031 2.148437 2.558594.53125.375 1.105469.683594 1.707032.921875.371094.230469.761718.433594 1.160156.605469.691406.164062 1.398438.238281 2.109375.222656.378906.066406.761719.105469 1.144531.117187.6875-.117187 1.355469-.324218 1.996094-.605468.417969-.085938.828125-.210938 1.230469-.367188 15.105469-7.320312 31.738281-10.929687 48.519531-10.527344 16.773438-.371093 33.390625 3.265626 48.476562 10.605469.367188.175781.746094.320313 1.136719.433594.277344.125.5625.230469.851563.316406.667968.167969 1.351562.25 2.039062.25.757813 0 1.511719-.101562 2.246094-.300781.261719-.066406.503906-.222656.757812-.316406.457032-.148438.898438-.332032 1.324219-.554688.261719-.160156.476563-.390625.722657-.570312.382812-.253906.742187-.539063 1.078124-.851563.195313-.207031.332032-.472656.511719-.691406.230469-.273437.445313-.558594.640625-.855469.296875.4375.632813.84375 1.003906 1.222656.261719.363282.546876.707032.855469 1.03125.582031.417969 1.214844.753907 1.886719 1.007813.316406.195313.652344.371094.996094.519531.707031.171875 1.433594.25 2.160156.230469 1.035156.253906 2.128906.078125 3.039062-.476563.433594-.09375.863282-.21875 1.277344-.386718 15.082032-7.339844 31.695313-10.976563 48.460938-10.613282 16.773437-.371093 33.394531 3.265626 48.480468 10.605469.363282.175781.746094.320313 1.132813.433594.277344.125.5625.230469.855469.316406.664062.167969 1.351562.25 2.039062.25.757813 0 1.511719-.101562 2.242188-.300781.265625-.066406.503906-.222656.761718-.316406.453126-.148438.894532-.332032 1.320313-.554688.265625-.160156.480469-.390625.726563-.570312.382812-.253906.742187-.539063 1.074218-.851563.195313-.207031.332032-.472656.511719-.691406.316406-.375.605469-.773437.855469-1.195313zm-60.015625-83.875c16.703125-.019531 32.363281 8.117188 41.945312 21.796875 9.582032 13.679688 11.882813 31.179688 6.15625 46.871094-8.007812-3.195312-16.351562-5.484375-24.871094-6.828125 1.554688-3.332031 2.363282-6.964844 2.371094-10.640625 0-14.136719-11.460937-25.601562-25.601562-25.601562-14.136719 0-25.597656 11.464843-25.597656 25.601562.007812 3.667969.820312 7.285156 2.371093 10.605469-8.519531 1.34375-16.863281 3.632812-24.875 6.828125-5.710937-15.6875-3.40625-33.171875 6.175781-46.84375 9.582032-13.671875 25.234376-21.804688 41.925782-21.789063zm-8.53125 51.199219c0-4.710938 3.820312-8.53125 8.53125-8.53125 4.714844 0 8.535156 3.820312 8.535156 8.53125 0 4.714844-3.820312 8.535156-8.535156 8.535156-4.710938 0-8.53125-3.820312-8.53125-8.535156zm-110.933594-51.199219c16.703125-.019531 32.363281 8.117188 41.945312 21.796875 9.582032 13.679688 11.878907 31.179688 6.15625 46.871094-8.011718-3.195312-16.355468-5.484375-24.875-6.828125 1.558594-3.332031 2.367188-6.964844 2.371094-10.640625 0-14.136719-11.460937-25.601562-25.597656-25.601562-14.140625 0-25.601562 11.464843-25.601562 25.601562.011718 3.667969.820312 7.285156 2.371093 10.605469-8.519531 1.34375-16.863281 3.632812-24.871093 6.828125-5.710938-15.6875-3.40625-33.171875 6.175781-46.84375s25.230469-21.804688 41.925781-21.789063zm-8.535156 51.199219c0-4.710938 3.820312-8.53125 8.535156-8.53125 4.710938 0 8.53125 3.820312 8.53125 8.53125 0 4.714844-3.820312 8.535156-8.53125 8.535156-4.714844 0-8.535156-3.820312-8.535156-8.535156zm0 0"/><path d="m307.695312 213.328125c-4.710937 0-8.53125 3.820313-8.53125 8.53125 0 9.425781-7.640624 17.066406-17.066406 17.066406h-170.667968c-9.425782 0-17.066407-7.640625-17.066407-17.066406 0-4.710937-3.820312-8.53125-8.53125-8.53125-4.714843 0-8.535156 3.820313-8.535156 8.53125 0 18.851563 15.28125 34.132813 34.132813 34.132813h170.667968c18.851563 0 34.132813-15.28125 34.132813-34.132813 0-4.710937-3.820313-8.53125-8.535157-8.53125zm0 0"/></svg>