<svg height="512pt" viewBox="0 0 512 512.06675" width="512pt" xmlns="http://www.w3.org/2000/svg"><path d="m460.84375 477.894531c-3.480469.019531-6.957031-.179687-10.410156-.597656-1.792969-.171875-3.585938-.425781-5.378906-.683594-30.378907-4.523437-52.308594-20.648437-78.078126-23.722656l-6.484374 1.964844c-3.398438-.867188-6.847657-1.523438-10.328126-1.964844l-2.984374.855469-79.019532 23.722656c-6.269531 1.558594-12.667968 2.527344-19.113281 2.898438-4.4375-.339844-8.621094-.851563-12.546875-1.535157-3.242188-.511719-6.3125-1.195312-9.214844-1.875l-82.175781-24.066406c-3.457031.398437-6.878906 1.054687-10.238281 1.964844-1.453125.339843-2.902344.765625-4.355469 1.191406-24.0625 7-46.761719 21.847656-79.273437 21.847656-2.148438.019531-4.292969-.179687-6.398438-.597656-.957031-.148437-1.898438-.375-2.816406-.683594-34.644532-9.128906-40.703125-69.632812-24.917969-84.054687 5.546875-5.714844 10.308594-12.140625 14.164063-19.113282 1.535156-2.472656 2.988281-5.121093 4.523437-7.851562h440.492187c1.535157 2.730469 2.984376 5.378906 4.519532 7.851562 3.855468 6.972657 8.621094 13.398438 14.167968 19.113282 17.066407 15.617187 8.53125 85.335937-34.132812 85.335937zm0 0" fill="#1566bf"/><path d="m445.054688 476.613281c-3.109376.871094-6.328126 1.304688-9.554688 1.28125-3.480469.019531-6.957031-.179687-10.414062-.597656-30.890626-2.988281-52.90625-18.773437-77.90625-23.550781-1.792969-.34375-3.671876-.597656-5.546876-.855469l-6.484374 1.964844c-3.398438-.867188-6.847657-1.523438-10.328126-1.964844l-82.003906 24.578125c-2.132812.511719-4.265625.9375-6.316406 1.363281-4.234375.753907-8.507812 1.265625-12.796875 1.535157-7.335937-.539063-14.613281-1.679688-21.761719-3.410157l-71.425781-20.910156-10.75-3.15625c-3.457031.398437-6.878906 1.054687-10.242187 1.964844-21.503907 5.289062-41.386719 17.832031-67.496094 21.757812-34.644532-9.128906-40.703125-69.632812-24.917969-84.054687 5.546875-5.714844 10.308594-12.140625 14.164063-19.113282 1.535156-2.472656 2.988281-5.121093 4.523437-7.851562h415.148437c1.535157 2.730469 2.984376 5.378906 4.519532 7.851562 3.855468 6.972657 8.621094 13.398438 14.167968 19.113282 15.699219 14.339844 9.726563 74.582031-24.578124 84.054687zm0 0" fill="#2295f2"/><path d="m503.507812 281.628906c.277344 27.296875-7.496093 54.070313-22.355468 76.96875-1.535156 2.390625-3.15625 4.695313-4.863282 6.996094h-440.492187c-1.707031-2.300781-3.328125-4.605469-4.863281-6.996094-14.859375-22.898437-22.636719-49.671875-22.359375-76.96875.488281-32.046875 9.121093-63.4375 25.089843-91.222656l81.40625-87.125c28.71875-19.386719 61.097657-32.6875 95.148438-39.082031l70.570312-.769531 16.042969-.171876c35.882813 5.984376 70.054688 19.632813 100.179688 40.023438l81.410156 87.125c15.964844 27.785156 24.601563 59.175781 25.085937 91.222656zm0 0" fill="#1566bf"/><path d="m477.910156 281.628906c.289063 27.238282-7.339844 53.980469-21.957031 76.96875-1.511719 2.390625-3.105469 14.59375-4.777344 16.894532h-415.863281c-1.707031-2.300782-3.269531-14.503907-4.78125-16.894532-14.617188-22.988281-22.246094-49.730468-21.957031-76.96875.464843-31.992187 8.9375-63.351562 24.644531-91.222656l79.949219-87.125c28.113281-19.347656 59.933593-32.65625 93.449219-39.082031l69.308593-.769531c34.957031 6.105468 68.179688 19.699218 97.390625 39.851562l79.949219 87.125c15.707031 27.871094 24.179687 59.230469 24.644531 91.222656zm0 0" fill="#2295f2"/><path d="m350.164062 452.890625c3.480469.441406 6.929688 1.097656 10.328126 1.964844l-75.523438 22.613281c-11.742188 2.882812-23.871094 3.863281-35.921875 2.898438 6.445313-.371094 12.84375-1.339844 19.113281-2.898438zm0 0" fill="#4482c3"/><path d="m249.046875 480.367188c-12.957031.894531-25.972656-.257813-38.574219-3.410157l-75.601562-22.101562c3.359375-.910157 6.78125-1.566407 10.238281-1.964844l82.175781 24.066406c7.148438 1.730469 14.425782 2.871094 21.761719 3.410157zm0 0" fill="#4482c3"/><path d="m230.441406 423.621094v37.207031c.007813 5.53125-1.0625 11.007813-3.15625 16.128906-5.421875 13.171875-17.027344 22.796875-30.976562 25.683594-5.632813 1.136719-11.433594 1.136719-17.066406 0-19.90625-3.996094-34.203126-21.511719-34.132813-41.8125v-47.445313c.003906-5.109374 2.296875-9.945312 6.246094-13.183593 3.945312-3.238281 9.140625-4.539063 14.148437-3.542969l51.199219 10.242188c7.980469 1.585937 13.734375 8.585937 13.738281 16.722656zm0 0" fill="#2295f2"/><path d="m366.976562 413.382812v45.394532c.050782 20.503906-13.78125 38.445312-33.621093 43.605468-3.460938.847657-7.019531 1.21875-10.582031 1.109376-2.179688-.082032-4.347657-.335938-6.484376-.765626-8.390624-1.613281-16.113281-5.683593-22.1875-11.691406-3.863281-3.914062-6.957031-8.515625-9.132812-13.566406-2.195312-5.273438-3.328125-10.929688-3.328125-16.640625v-37.207031c.007813-8.136719 5.757813-15.136719 13.742187-16.722656l51.199219-10.242188c5.007813-.996094 10.199219.304688 14.148438 3.542969s6.242187 8.074219 6.246093 13.183593zm0 0" fill="#2295f2"/><path d="m231.382812 78.011719c-5.910156-.738281-11.375-3.527344-15.445312-7.875-9.566406-10.429688-20.378906-19.644531-32.1875-27.441407-3.15625-1.96875-4.675781-5.753906-3.753906-9.355468.917968-3.601563 4.066406-6.195313 7.78125-6.40625 14.59375-1.007813 29.214844 1.472656 42.664062 7.226562 4.582032-12.441406 14.925782-21.882812 27.734375-25.308594 2.976563-.707031 6.101563.246094 8.179688 2.492188 2.074219 2.25 2.773437 5.441406 1.828125 8.351562-2.238282 7.46875-3.453125 15.203126-3.609375 23 12.421875-8.410156 26.488281-14.078124 41.269531-16.625 3.507812-.574218 7.007812 1.089844 8.777344 4.175782 1.769531 3.082031 1.441406 6.941406-.824219 9.683594-7.671875 8.511718-14.214844 17.976562-19.464844 28.160156-4.871093 10.144531-15.742187 15.976562-26.890625 14.421875zm0 0" fill="#1566bf"/><path d="m126.675781 174.449219-11.347656 13.398437c-3.902344 3.375-8.234375 6.214844-12.886719 8.445313-16.511718 4.117187-33.722656 4.582031-50.429687 1.367187-5.65625-1.238281-11.109375-3.246094-16.214844-5.972656-15.273437-8.449219-27.222656-24.75-27.222656-55.128906-.023438-7.925782.433593-15.847656 1.367187-23.722656.59375-6.269532 1.503906-12.507813 2.730469-18.6875 4.964844-29.53125 16.289063-57.628907 33.195313-82.34375 2.132812-2.722657 5.695312-3.886719 9.023437-2.949219 3.324219.933593 5.761719 3.78125 6.164063 7.214843 5.585937 40.632813 30.570312 76.019532 66.988281 94.890626 0 0 15.1875 35.5-1.367188 63.488281zm0 0" fill="#fdc008"/><path d="m503.507812 136.558594c0 30.378906-11.945312 46.679687-27.21875 55.128906-5.105468 2.726562-10.5625 4.734375-16.214843 5.972656-16.710938 3.214844-33.921875 2.75-50.433594-1.367187-42.664063-25.597657-25.597656-85.332031-25.597656-85.332031 36.417969-18.871094 61.398437-54.257813 66.984375-94.890626.40625-3.433593 2.839844-6.28125 6.167968-7.214843 3.328126-.9375 6.890626.226562 9.023438 2.949219 16.902344 24.714843 28.230469 52.8125 33.195312 82.34375 1.226563 6.179687 2.136719 12.417968 2.730469 18.6875.933594 7.875 1.390625 15.796874 1.363281 23.722656zm0 0" fill="#fdc008"/><path d="m179.242188 153.628906c-2.851563-.003906-5.703126.167969-8.53125.511719-38.730469 4.492187-67.949219 37.296875-67.949219 76.285156 0 38.992188 29.21875 71.792969 67.949219 76.289063 2.828124.34375 5.679687.515625 8.53125.511718 42.414062 0 76.800781-34.382812 76.800781-76.800781 0-42.414062-34.386719-76.796875-76.800781-76.796875zm0 0" fill="#f4f4f4"/><path d="m332.84375 153.628906c-2.851562-.003906-5.703125.167969-8.535156.511719-38.730469 4.492187-67.945313 37.296875-67.945313 76.285156 0 38.992188 29.214844 71.792969 67.945313 76.289063 2.832031.34375 5.683594.515625 8.535156.511718 42.414062 0 76.796875-34.382812 76.796875-76.800781 0-42.414062-34.382813-76.796875-76.796875-76.796875zm0 0" fill="#f4f4f4"/><path d="m230.441406 230.425781c0 28.277344-22.921875 51.203125-51.199218 51.203125-28.277344 0-51.199219-22.925781-51.199219-51.203125 0-28.277343 22.921875-51.199219 51.199219-51.199219 28.277343 0 51.199218 22.921876 51.199218 51.199219zm0 0" fill="#e81e63"/><path d="m384.042969 230.425781c0 28.277344-22.921875 51.203125-51.199219 51.203125s-51.203125-22.925781-51.203125-51.203125c0-28.277343 22.925781-51.199219 51.203125-51.199219s51.199219 22.921876 51.199219 51.199219zm0 0" fill="#e81e63"/><path d="m204.84375 230.425781c0 14.140625-11.460938 25.601563-25.601562 25.601563-14.136719 0-25.601563-11.460938-25.601563-25.601563 0-14.136719 11.464844-25.597656 25.601563-25.597656 14.140624 0 25.601562 11.460937 25.601562 25.597656zm0 0" fill="#37474f"/><path d="m358.441406 230.425781c0 14.140625-11.460937 25.601563-25.597656 25.601563-14.140625 0-25.601562-11.460938-25.601562-25.601563 0-14.136719 11.460937-25.597656 25.601562-25.597656 14.136719 0 25.597656 11.460937 25.597656 25.597656zm0 0" fill="#37474f"/><path d="m170.710938 196.292969c0 14.140625-11.464844 25.601562-25.601563 25.601562-14.140625 0-25.601563-11.460937-25.601563-25.601562 0-14.136719 11.460938-25.597657 25.601563-25.597657 14.136719 0 25.601563 11.460938 25.601563 25.597657zm0 0" fill="#f4f4f4"/><path d="m324.308594 196.292969c0 14.140625-11.460938 25.601562-25.597656 25.601562-14.140626 0-25.601563-11.460937-25.601563-25.601562 0-14.136719 11.460937-25.597657 25.601563-25.597657 14.136718 0 25.597656 11.460938 25.597656 25.597657zm0 0" fill="#f4f4f4"/><path d="m512.042969 136.558594c0-58.988282-23.398438-110.078125-39.125-130.019532-4.253907-5.382812-11.3125-7.695312-17.925781-5.871093-6.613282 1.820312-11.488282 7.425781-12.386719 14.222656-4.035157 31.195313-20.582031 59.40625-45.839844 78.148437-26.285156-16.902343-55.363281-29.003906-85.878906-35.746093 2.808593-3.796875 5.683593-7.328125 8.183593-10.347657l1.3125-1.589843c4.546876-5.503907 5.191407-13.253907 1.609376-19.429688-3.578126-6.175781-10.625-9.472656-17.660157-8.261719-10.105469 1.835938-19.9375 4.953126-29.25 9.277344.390625-1.707031.851563-3.335937 1.246094-4.71875 1.867187-6.007812.304687-12.554687-4.074219-17.074218-4.164062-4.433594-10.449218-6.183594-16.304687-4.539063-12.5 3.320313-23.179688 11.445313-29.722657 22.601563-12.585937-3.953126-25.785156-5.582032-38.953124-4.792969-7.457032.40625-13.785157 5.609375-15.617188 12.851562-1.902344 7.21875 1.1875 14.828125 7.585938 18.675781 4.5625 2.878907 8.914062 6.066407 13.03125 9.550782-27.230469 7.003906-53.175782 18.292968-76.859376 33.449218-25.203124-18.765624-41.765624-46.910156-45.9375-78.054687-.898437-6.796875-5.777343-12.398437-12.386718-14.21875-6.613282-1.820313-13.671875.496094-17.921875 5.875-15.726563 19.933594-39.1250002 71.023437-39.1250002 130.011719 0 25.175781 7.6796872 44.101562 22.6718752 56.425781-14.457032 27.339844-22.226563 57.71875-22.6718752 88.644531-.3359378 30.125 8.6210932 59.625 25.6523432 84.476563-3.890624 7.3125-8.710937 14.089843-14.347656 20.15625-13.863281 12.699219-13.472656 43.699219-5.136718 65.179687 8.644531 22.1875 25.054687 34.984375 45.03125 34.984375 20.828124-.726562 41.292968-5.632812 60.1875-14.429687 8.191406-3.507813 16.609374-6.464844 25.199218-8.847656 1.011719 22.675781 16.832032 41.976562 38.871094 47.421874 22.035156 5.441407 45.023438-4.273437 56.476562-23.871093 15.964844 3.191406 32.386719 3.359375 48.410157.496093 2.164062 3.589844 4.742187 6.917969 7.679687 9.90625 9.625 9.585938 22.660156 14.953126 36.242188 14.925782h.707031c.078125 0 .136719-.042969.207031-.042969 26.996094-.503906 48.96875-21.867187 50.234375-48.835937 8.589844 2.382812 17.007813 5.339843 25.199219 8.847656 18.890625 8.796875 39.359375 13.703125 60.1875 14.429687 19.976562 0 36.386719-12.796875 45.027344-34.984375 8.339844-21.445312 8.738281-52.445312-5.117188-65.101562-5.644531-6.09375-10.472656-12.894532-14.363281-20.234375 17.03125-24.851563 25.988281-54.351563 25.652344-84.476563-.445313-30.925781-8.214844-61.304687-22.671875-88.644531 14.992187-12.324219 22.671875-31.25 22.671875-56.425781zm-52.523438-119.464844c15.0625 22.121094 25.421875 47.097656 30.4375 73.386719-9.351562-3.316407-19.191406-5.046875-29.113281-5.121094-4.714844 0-8.535156 3.820313-8.535156 8.535156 0 4.710938 3.820312 8.53125 8.535156 8.53125 11.261719.144531 22.347656 2.835938 32.425781 7.867188 1.109375 8.714843 1.679688 17.484375 1.707031 26.265625 0 20.4375-5.871093 35.304687-17.453124 44.171875-.945313.722656-1.953126 1.339843-2.949219 1.976562-6.667969-29.660156-21.710938-51.105469-44.042969-62.292969-4.210938-2.121093-9.347656-.421874-11.46875 3.789063-2.121094 4.214844-.421875 9.347656 3.789062 11.46875 22.308594 11.195313 31.746094 34.074219 35.667969 53.632813-15.085937 2.898437-30.613281 2.574218-45.566406-.957032-29.867187-18.898437-24.054687-59.449218-21.546875-71.558594 37.214844-20.566406 62.480469-57.550781 68.113281-99.695312zm-58.410156 213.332031c0 37.703125-30.5625 68.269531-68.265625 68.269531s-68.269531-30.566406-68.269531-68.269531 30.566406-68.265625 68.269531-68.265625c37.683594.042969 68.222656 30.582032 68.265625 68.265625zm-193.792969-156.882812c4.839844 5 7.972656 8.667969 8.046875 8.761719 3.023438 3.617187 8.40625 4.097656 12.023438 1.074218 3.617187-3.019531 4.097656-8.40625 1.074219-12.023437-11.683594-13.753907-25.203126-25.835938-40.179688-35.90625 13.101562-.914063 26.238281 1.261719 38.347656 6.347656 2.238282 1.113281 4.855469 1.1875 7.15625.203125 2.296875-.988281 4.050782-2.933594 4.789063-5.320312 3.585937-9.570313 11.5625-16.828126 21.429687-19.492188-2.480468 8.28125-3.8125 16.863281-3.960937 25.507812 0 3.230469 1.824219 6.183594 4.714843 7.632813 2.894532 1.445313 6.351563 1.132813 8.9375-.808594 11.335938-7.5625 24.121094-12.679687 37.546876-15.019531l-1.296876 1.570312c-9.695312 11.691407-24.304687 29.355469-24.304687 49.289063 0 4.714844 3.824219 8.535156 8.535156 8.535156 4.714844 0 8.535157-3.820312 8.535157-8.535156.136718-4.3125 1.132812-8.558594 2.933593-12.484375 27.917969 5.414062 54.683594 15.632812 79.105469 30.199219l-.230469.113281c-2.28125 1.035156-3.992187 3.023438-4.675781 5.433594-3.933594 15.285156-4.726562 31.207031-2.332031 46.804687-20.507813-11.140625-44.695313-13.378906-66.902344-6.1875-22.207031 7.195313-40.484375 23.1875-50.566406 44.238281-9.734375-20.417968-27.210938-36.109374-48.558594-43.589843-21.347656-7.484375-44.796875-6.136719-65.148437 3.742187 1.53125-15.632812-.679688-31.40625-6.453126-46.011718-.835937-1.960938-2.375-3.535157-4.316406-4.414063l-.214844-.101563c23.507813-13.996093 49.179688-23.984374 75.964844-29.558593zm-28.074218 88.617187c37.703124 0 68.265624 30.5625 68.265624 68.265625s-30.5625 68.269531-68.265624 68.269531c-37.703126 0-68.265626-30.566406-68.265626-68.269531.042969-37.683593 30.582032-68.222656 68.265626-68.265625zm-162.132813-25.601562c.027344-8.78125.597656-17.550782 1.707031-26.265625 10.078125-5.03125 21.164063-7.722657 32.425782-7.867188 4.714843 0 8.535156-3.820312 8.535156-8.53125 0-4.714843-3.820313-8.535156-8.535156-8.535156-9.921876.074219-19.761719 1.804687-29.117188 5.121094 5.007812-26.265625 15.367188-51.21875 30.441406-73.300781 5.679688 42.328124 31.171875 79.421874 68.648438 99.898437 2.800781 8.183594 9.566406 32.804687-1.59375 52.414063-3.851563 3.765624-7.335938 7.886718-10.410156 12.3125-2.992188 2.527343-6.265626 4.691406-9.761719 6.449218-15.058594 3.640625-30.71875 4.007813-45.929688 1.078125 3.925781-19.566406 13.355469-42.472656 35.679688-53.675781 4.210937-2.121094 5.910156-7.253906 3.789062-11.46875-2.121093-4.214844-7.257812-5.910156-11.46875-3.789062-22.332031 11.203124-37.375 32.648437-44.042969 62.292968-.980468-.632812-1.96875-1.238281-2.90625-1.945312-11.574218-8.847656-17.460937-23.707032-17.460937-44.1875zm452.453125 223.761718c-8.386719 9.835938-18.398438 18.15625-29.601562 24.601563-4.21875 2.109375-5.929688 7.234375-3.824219 11.453125 2.109375 4.21875 7.234375 5.929688 11.453125 3.824219 10.003906-5.425781 19.132812-12.332031 27.078125-20.480469 4.011719 6.960938 8.902343 13.378906 14.546875 19.097656 5.511718 5.050782 8.621094 26.121094.75 46.378906-3.523438 9.050782-11.9375 24.164063-29.121094 24.164063-18.652344-.757813-36.964844-5.25-53.847656-13.21875-10.164063-4.386719-20.703125-7.863281-31.488282-10.382813v-53.199218c0-4.710938-3.820312-8.53125-8.53125-8.53125-4.714843 0-8.535156 3.820312-8.535156 8.53125v59.734375c0 .113281.0625.195312.0625.308593 0 .109376-.0625.1875-.0625.289063v7.9375c-.0625 15.382813-10.410156 28.824219-25.265625 32.816406l-.332031-15.929687c-.097656-4.644532-3.890625-8.355469-8.535156-8.355469h-.179688c-2.261718.046875-4.414062.992187-5.980468 2.625-1.566407 1.636719-2.421876 3.824219-2.371094 6.089844l.332031 15.777343c-6-1.429687-11.5-4.464843-15.90625-8.78125-3.109375-3.152343-5.601563-6.851562-7.355469-10.914062-1.769531-4.222656-2.675781-8.753906-2.671875-13.328125v-51.199219c0-4.714844-3.820312-8.535156-8.535156-8.535156-4.710937 0-8.53125 3.820312-8.53125 8.535156v51.199219c0 3.386719.332031 6.769531.988281 10.09375-11.964844 1.753906-24.136718 1.585937-36.050781-.496094.613281-3.160156.925781-6.375.929687-9.597656v-51.199219c0-4.714844-3.820312-8.535156-8.535156-8.535156-4.710937 0-8.53125 3.820312-8.53125 8.535156v51.199219c.027344 15.558594-10.523437 29.144531-25.601562 32.980469v-15.914063c0-4.714843-3.820313-8.535156-8.53125-8.535156-4.714844 0-8.535156 3.820313-8.535156 8.535156v15.863281c-15.140626-3.710937-25.738282-17.34375-25.601563-32.929687v-7.9375c0-.101563-.058594-.1875-.058594-.289063 0-.101562.058594-.195312.058594-.308593v-59.734375c0-4.710938-3.820313-8.53125-8.53125-8.53125-4.714844 0-8.535156 3.820312-8.535156 8.53125v53.199218c-10.78125 2.519532-21.320313 5.996094-31.488281 10.382813-16.878907 7.96875-35.191407 12.460937-53.84375 13.21875-17.1875 0-25.601563-15.113281-29.125-24.132813-7.867188-20.257812-4.761719-41.324218.785156-46.410156 5.636718-5.703125 10.515625-12.109375 14.515625-19.054687 7.945312 8.148437 17.070312 15.054687 27.078125 20.480469 4.214844 2.105468 9.34375.394531 11.449218-3.824219 2.109376-4.21875.394532-9.34375-3.820312-11.453125-11.1875-6.457032-21.195312-14.769532-29.59375-24.582032-16.839844-22.777343-25.769531-50.433593-25.421875-78.753906.425781-27.8125 7.351563-55.132812 20.222656-79.789062 11.273438 4.550781 23.34375 6.796875 35.5 6.597656 8.269531-.027344 16.523438-.808594 24.652344-2.332031-12.71875 42.628906 9.476563 87.867187 50.96875 103.902343 41.492187 16.03125 88.339844-2.527343 107.589844-42.632812 19.214843 40.160156 66.097656 58.773438 107.625 42.726562 41.527343-16.046874 63.714843-61.347656 50.933593-103.996093 8.128907 1.523437 16.378907 2.304687 24.652344 2.332031 12.15625.199219 24.226563-2.046875 35.496094-6.597656 12.875 24.65625 19.800781 51.976562 20.226562 79.789062.335938 28.300782-8.585937 55.933594-25.414062 78.691406zm0 0"/><path d="m179.242188 264.558594c18.851562 0 34.132812-15.28125 34.132812-34.132813 0-18.851562-15.28125-34.132812-34.132812-34.132812-18.851563 0-34.132813 15.28125-34.132813 34.132812 0 18.851563 15.28125 34.132813 34.132813 34.132813zm0-51.199219c9.425781 0 17.066406 7.640625 17.066406 17.066406s-7.640625 17.066407-17.066406 17.066407c-9.425782 0-17.066407-7.640626-17.066407-17.066407s7.640625-17.066406 17.066407-17.066406zm0 0"/><path d="m332.84375 196.292969c-18.851562 0-34.132812 15.28125-34.132812 34.132812 0 18.851563 15.28125 34.132813 34.132812 34.132813s34.132812-15.28125 34.132812-34.132813c0-18.851562-15.28125-34.132812-34.132812-34.132812zm0 51.199219c-9.425781 0-17.066406-7.640626-17.066406-17.066407s7.640625-17.066406 17.066406-17.066406 17.066406 7.640625 17.066406 17.066406-7.640625 17.066407-17.066406 17.066407zm0 0"/><path d="m332.84375 332.828125c-4.714844 0-8.535156 3.820313-8.535156 8.53125 0 9.425781-7.640625 17.066406-17.066406 17.066406h-102.398438c-9.425781 0-17.066406-7.640625-17.066406-17.066406 0-4.710937-3.820313-8.53125-8.535156-8.53125-4.710938 0-8.53125 3.820313-8.53125 8.53125 0 18.851563 15.28125 34.132813 34.132812 34.132813h102.398438c18.851562 0 34.132812-15.28125 34.132812-34.132813 0-4.710937-3.820312-8.53125-8.53125-8.53125zm0 0"/></svg>