<svg height="504pt" viewBox="0 0 504 504.12805" width="504pt" xmlns="http://www.w3.org/2000/svg"><path d="m495.277344 347.675781c0 113.5625-108.945313 148.058594-243.410156 148.058594-2.855469 0-5.625 0-8.394532-.082031-130.601562-1.429688-235.015625-36.765625-235.015625-147.976563 0-111.214843 104.414063-257.007812 235.015625-263.050781 2.769532-.085938 5.625-.167969 8.394532-.167969 134.464843 0 243.410156 149.652344 243.410156 263.21875zm0 0" fill="#00695c"/><path d="m470.097656 347.675781c0 111.210938-102.550781 146.546875-230.820312 147.976563-128.269532-1.429688-230.820313-36.765625-230.820313-147.976563 0-111.214843 102.550781-257.007812 230.820313-263.050781 128.269531 6.042969 230.820312 151.835938 230.820312 263.050781zm0 0" fill="#009587"/><path d="m158.363281 194.242188c-1.9375 16.917968-11.367187 32.074218-25.683593 41.296874-9.046876 6.628907-19.605469 10.898438-30.71875 12.421876-.777344 4.207031-1.171876 8.476562-1.175782 12.757812 0 37.085938 30.0625 67.148438 67.148438 67.148438 37.082031 0 67.148437-30.0625 67.148437-67.148438s-30.066406-67.148438-67.148437-67.148438c-3.203125.007813-6.398438.234376-9.570313.671876zm0 0" fill="#fff"/><path d="m401.691406 247.875c-10.910156-1.5625-21.261718-5.800781-30.132812-12.335938-14.292969-9.222656-23.734375-24.328124-25.769532-41.214843-3.304687-.503907-6.644531-.753907-9.988281-.753907-37.082031 0-67.148437 30.0625-67.148437 67.148438s30.066406 67.148438 67.148437 67.148438c37.085938 0 67.148438-30.0625 67.148438-67.148438.007812-4.3125-.414063-8.613281-1.257813-12.84375zm0 0" fill="#fff"/><path d="m209.898438 260.71875c0 23.175781-18.789063 41.964844-41.964844 41.964844-23.179688 0-41.96875-18.789063-41.96875-41.964844 0-23.179688 18.789062-41.96875 41.96875-41.96875 23.175781 0 41.964844 18.789062 41.964844 41.96875zm0 0" fill="#00bbd3"/><path d="m377.769531 260.71875c0 23.175781-18.789062 41.964844-41.96875 41.964844-23.175781 0-41.964843-18.789063-41.964843-41.964844 0-23.179688 18.789062-41.96875 41.964843-41.96875 23.179688 0 41.96875 18.789062 41.96875 41.96875zm0 0" fill="#00bbd3"/><g fill="#f34335"><path d="m100.785156 34.09375c0 13.910156-11.273437 25.183594-25.179687 25.183594s-25.179688-11.273438-25.179688-25.183594c0-13.90625 11.273438-25.179688 25.179688-25.179688s25.179687 11.273438 25.179687 25.179688zm0 0"/><path d="m277.046875 34.09375c0 13.910156-11.273437 25.183594-25.179687 25.183594s-25.179688-11.273438-25.179688-25.183594c0-13.90625 11.273438-25.179688 25.179688-25.179688s25.179687 11.273438 25.179687 25.179688zm0 0"/><path d="m453.308594 34.09375c0 13.910156-11.273438 25.183594-25.179688 25.183594s-25.179687-11.273438-25.179687-25.183594c0-13.90625 11.273437-25.179688 25.179687-25.179688s25.179688 11.273438 25.179688 25.179688zm0 0"/></g><path d="m159.539062 243.929688c0 9.273437-7.515624 16.789062-16.785156 16.789062-9.273437 0-16.789062-7.515625-16.789062-16.789062 0-9.269532 7.515625-16.785157 16.789062-16.785157 9.269532 0 16.785156 7.515625 16.785156 16.785157zm0 0" fill="#fff"/><path d="m327.410156 243.929688c0 9.273437-7.519531 16.789062-16.789062 16.789062-9.269532 0-16.785156-7.515625-16.785156-16.789062 0-9.269532 7.515624-16.785157 16.785156-16.785157 9.269531 0 16.789062 7.515625 16.789062 16.785157zm0 0" fill="#fff"/><path d="m352.589844 260.71875c0 9.269531-7.515625 16.785156-16.789063 16.785156-9.269531 0-16.785156-7.515625-16.785156-16.785156 0-9.273438 7.515625-16.789062 16.785156-16.789062 9.273438 0 16.789063 7.515624 16.789063 16.789062zm0 0" fill="#37474f"/><path d="m184.71875 260.71875c0 9.269531-7.515625 16.785156-16.785156 16.785156-9.273438 0-16.789063-7.515625-16.789063-16.785156 0-9.273438 7.515625-16.789062 16.789063-16.789062 9.269531 0 16.785156 7.515624 16.785156 16.789062zm0 0" fill="#37474f"/><path d="m407.984375 144.636719c22.058594-22.328125 28.355469-54.558594 29.621094-78.503907 16.0625-4.878906 26.003906-20.929687 23.210937-37.480468-2.789062-16.554688-17.445312-28.457032-34.21875-27.796875-16.773437.660156-30.449218 13.675781-31.929687 30.398437-1.484375 16.722656 9.6875 31.941406 26.082031 35.542969-1.390625 23.5-7.609375 49.253906-25.347656 66.601563-37.527344-33.394532-85.035156-53.449219-135.140625-57.050782v-9.871094c16.367187-4.226562 27.042969-19.964843 24.910156-36.738281-2.128906-16.769531-16.398437-29.34375-33.304687-29.34375s-31.175782 12.574219-33.304688 29.34375c-2.132812 16.773438 8.542969 32.511719 24.910156 36.738281v9.871094c-50.105468 3.609375-97.613281 23.675782-135.132812 57.074219-17.734375-17.347656-23.957032-43.132813-25.347656-66.601563 16.632812-3.59375 28-19.003906 26.523437-35.957031-1.476563-16.957031-15.332031-30.167969-32.335937-30.8359372-17.007813-.6718748-31.855469 11.4140622-34.660157 28.1992182-2.800781 16.789063 7.316407 33.039063 23.617188 37.933594 1.269531 23.910156 7.554687 56.175782 29.621093 78.5-57.78125 54.609375-95.695312 133.207032-95.695312 203.015625 0 103.816407 84.714844 156.453125 251.804688 156.453125 167.089843 0 251.804687-52.636718 251.804687-156.453125 0-69.808593-37.914063-148.40625-95.6875-203.039062zm3.359375-110.542969c0-9.269531 7.515625-16.785156 16.785156-16.785156 9.273438 0 16.789063 7.515625 16.789063 16.785156 0 9.273438-7.515625 16.789062-16.789063 16.789062-9.269531 0-16.785156-7.515624-16.785156-16.789062zm-352.527344 0c0-9.269531 7.515625-16.785156 16.789063-16.785156 9.269531 0 16.785156 7.515625 16.785156 16.785156 0 9.273438-7.515625 16.789062-16.785156 16.789062-9.273438 0-16.789063-7.515624-16.789063-16.789062zm176.265625 0c0-9.269531 7.515625-16.785156 16.785157-16.785156 9.269531 0 16.785156 7.515625 16.785156 16.785156 0 9.273438-7.515625 16.789062-16.785156 16.789062-9.269532 0-16.785157-7.515624-16.785157-16.789062zm16.785157 453.246094c-155.949219 0-235.015626-47.003906-235.015626-139.664063 0-66.4375 36.417969-141.339843 91.613282-192.664062 9.898437 6.503906 20.976562 10.992187 32.609375 13.210937.550781.113282 1.113281.171875 1.679687.167969 4.3125.003906 7.925782-3.261719 8.359375-7.550781.433594-4.289063-2.457031-8.210938-6.683593-9.070313-7.972657-1.554687-15.640626-4.386719-22.710938-8.390625 34.164062-29.34375 76.839844-46.953125 121.753906-50.246094v16.503907c0 4.636719 3.757813 8.394531 8.394532 8.394531 4.636718 0 8.394531-3.757812 8.394531-8.394531v-16.503907c44.925781 3.292969 87.609375 20.910157 121.78125 50.261719-7.070313 4.003907-14.742188 6.839844-22.714844 8.394531-4.183594.890626-7.027344 4.785157-6.601563 9.039063.421876 4.257813 3.980469 7.515625 8.253907 7.5625.566406.003906 1.128906-.054687 1.679687-.167969 11.640625-2.214844 22.730469-6.707031 32.632813-13.210937 55.171875 51.324219 91.589843 126.226562 91.589843 192.664062 0 92.660157-79.066406 139.664063-235.015624 139.664063zm0 0"/><path d="m167.933594 336.257812c41.71875 0 75.539062-33.820312 75.539062-75.539062s-33.820312-75.542969-75.539062-75.542969c-3.582032.007813-7.15625.257813-10.703125.75-.328125.046875-.578125.234375-.890625.308594-.578125.132813-1.140625.328125-1.675782.578125-.449218.246094-.875.527344-1.277343.839844-.433594.320312-.835938.679687-1.199219 1.074218-.355469.410157-.667969.851563-.941406 1.320313-.265625.441406-.492188.902344-.679688 1.382813-.183594.546874-.3125 1.109374-.378906 1.679687-.09375.316406-.171875.636719-.226562.964844-1.957032 14.246093-10.0625 26.921875-22.175782 34.671875-7.917968 5.792968-17.144531 9.539062-26.855468 10.914062-.144532 0-.246094.101563-.378907.125-1.636719.207032-3.148437.984375-4.273437 2.191406-.40625.34375-.78125.726563-1.117188 1.140626-.265625.421874-.492187.871093-.679687 1.335937-.28125.53125-.503907 1.09375-.660157 1.675781 0 .144532-.128906.246094-.152343.386719-.851563 4.6875-1.28125 9.441406-1.277344 14.203125.050781 41.699219 33.84375 75.488281 75.542969 75.539062zm-58.484375-81.195312c10.136719-2.308594 19.707031-6.632812 28.140625-12.71875 13.984375-9.527344 24.007812-23.832031 28.1875-40.230469.703125 0 1.457031-.148437 2.15625-.148437 32.449218 0 58.753906 26.304687 58.753906 58.753906s-26.304688 58.753906-58.753906 58.753906c-32.449219 0-58.753906-26.304687-58.753906-58.753906 0-1.871094.089843-3.753906.269531-5.65625zm0 0"/><path d="m167.933594 285.898438c13.90625 0 25.179687-11.273438 25.179687-25.179688s-11.273437-25.179688-25.179687-25.179688-25.179688 11.273438-25.179688 25.179688 11.273438 25.179688 25.179688 25.179688zm0-33.574219c4.636718 0 8.394531 3.757812 8.394531 8.394531s-3.757813 8.394531-8.394531 8.394531c-4.636719 0-8.394532-3.757812-8.394532-8.394531s3.757813-8.394531 8.394532-8.394531zm0 0"/><path d="m335.800781 235.539062c-13.90625 0-25.179687 11.273438-25.179687 25.179688s11.273437 25.179688 25.179687 25.179688 25.179688-11.273438 25.179688-25.179688-11.273438-25.179688-25.179688-25.179688zm0 33.574219c-4.632812 0-8.390625-3.757812-8.390625-8.394531s3.757813-8.394531 8.390625-8.394531c4.636719 0 8.394531 3.757812 8.394531 8.394531s-3.757812 8.394531-8.394531 8.394531zm0 0"/><path d="m376.46875 228.730469c-12.121094-7.761719-20.261719-20.417969-22.292969-34.664063-.199219-.839844-.398437-1.679687-.605469-2.519531-.359374-.992187-.902343-1.910156-1.601562-2.703125-.367188-.410156-.773438-.78125-1.210938-1.113281-.371093-.285157-.765624-.535157-1.183593-.75-.574219-.292969-1.183594-.519531-1.8125-.660157-.226563-.097656-.457031-.183593-.695313-.253906-3.726562-.585937-7.492187-.882812-11.265625-.890625-41.71875 0-75.539062 33.824219-75.539062 75.542969s33.820312 75.539062 75.539062 75.539062c41.722657 0 75.542969-33.820312 75.542969-75.539062.011719-4.875-.464844-9.742188-1.429688-14.519531 0-.109375-.097656-.195313-.125-.304688-.171874-.582031-.40625-1.144531-.703124-1.679687-.183594-.457032-.40625-.898438-.671876-1.316406-.734374-.773438-1.519531-1.496094-2.351562-2.164063-.417969-.21875-.859375-.398437-1.308594-.539063-.5625-.261718-1.15625-.460937-1.761718-.585937-.109376 0-.1875-.085937-.292969-.09375-9.496094-1.390625-18.503907-5.09375-26.230469-10.785156zm-40.667969 90.742187c-32.449219 0-58.753906-26.304687-58.753906-58.753906s26.304687-58.753906 58.753906-58.753906c.839844 0 1.679688.160156 2.59375.191406 4.230469 16.394531 14.28125 30.683594 28.277344 40.207031 8.289063 5.960938 17.671875 10.238281 27.605469 12.589844.1875 1.882813.277344 3.804687.277344 5.765625-.035157 32.433594-26.320313 58.714844-58.753907 58.753906zm0 0"/><path d="m402.949219 353.046875c-4.636719 0-8.394531 3.757813-8.394531 8.394531 0 18.539063-15.03125 33.570313-33.574219 33.570313h-218.226563c-18.542968 0-33.574218-15.03125-33.574218-33.570313 0-4.636718-3.757813-8.394531-8.394532-8.394531-4.636718 0-8.394531 3.757813-8.394531 8.394531.027344 27.800782 22.558594 50.332032 50.363281 50.359375h218.226563c27.804687-.027343 50.335937-22.558593 50.363281-50.359375 0-2.226562-.886719-4.363281-2.460938-5.9375-1.574218-1.574218-3.707031-2.457031-5.933593-2.457031zm0 0"/><path d="m279.714844 430.84375c-.066406.058594-7.324219 6.136719-27.847656 6.136719-19.925782 0-27.347657-5.734375-27.824219-6.117188-3.335938-3.183593-8.613281-3.082031-11.820313.226563-3.210937 3.3125-3.148437 8.589844.136719 11.824218 1.8125 1.8125 12.230469 10.851563 39.507813 10.851563 27.277343 0 37.695312-9.039063 39.507812-10.851563 3.164062-3.179687 3.207031-8.308593.09375-11.539062-3.148438-3.292969-8.324219-3.523438-11.753906-.53125zm0 0"/></svg>