<svg height="512pt" viewBox="0 0 512 512.10516" width="512pt" xmlns="http://www.w3.org/2000/svg"><path d="m477.921875 190.398438v236.375c0 42.414062-34.386719 76.796874-76.800781 76.796874h-290.132813c-42.417969 0-76.800781-34.382812-76.800781-76.796874v-236.375l190.890625-104.960938h61.953125zm0 0" fill="#ac1457"/><path d="m452.320312 190.398438v236.375c.417969 41.988281-33.273437 76.367187-75.261718 76.796874h-267.605469c-41.988281-.429687-75.683594-34.808593-75.265625-76.796874v-236.375l187.078125-104.960938h72.164063zm0 0" fill="#e81e63"/><path d="m503.519531 119.570312c0 61.269532-49.664062 110.933594-110.933593 110.933594-4.277344.003906-8.550782-.25-12.796876-.765625-55.839843-6.605469-97.902343-53.941406-97.902343-110.167969 0-56.226562 42.0625-103.558593 97.902343-110.164062 4.246094-.515625 8.519532-.773438 12.796876-.769531 61.269531 0 110.933593 49.667969 110.933593 110.933593zm0 0" fill="#ac1457"/><path d="m477.921875 119.570312c0-60.839843-43.9375-110.164062-98.132813-110.164062-54.199218 0-98.136718 49.324219-98.136718 110.164062 0 60.84375 43.9375 110.167969 98.136718 110.167969 54.195313 0 98.132813-49.324219 98.132813-110.167969zm0 0" fill="#e81e63"/><path d="m392.585938 42.773438c-2.851563-.003907-5.699219.167968-8.53125.511718-28.609376 3.210938-53.019532 22.15625-63.234376 49.074219-10.210937 26.917969-4.511718 57.285156 14.765626 78.667969 2.203124 2.375 4.539062 4.625 6.996093 6.742187 11.925781-9.21875 26.414063-14.523437 41.472657-15.191406 2.730468-.253906 5.632812-.339844 8.53125-.339844 13.816406-.230469 27.496093 2.78125 39.9375 8.789063 3.621093 1.824218 7.003906 4.089844 10.070312 6.742187 24.382812-20.910156 33.167969-54.792969 22.007812-84.914062-11.15625-30.121094-39.894531-50.105469-72.015624-50.082031zm0 0" fill="#fff"/><path d="m230.453125 119.570312c0 61.269532-49.664063 110.933594-110.933594 110.933594-61.265625 0-110.933593-49.664062-110.933593-110.933594 0-61.265624 49.667968-110.933593 110.933593-110.933593 61.269531 0 110.933594 49.667969 110.933594 110.933593zm0 0" fill="#e81e63"/><path d="m119.519531 42.773438c-2.851562-.003907-5.699219.167968-8.53125.511718-28.609375 3.210938-53.019531 22.15625-63.234375 49.074219-10.210937 26.917969-4.511718 57.285156 14.765625 78.667969 2.203125 2.375 4.539063 4.625 6.996094 6.742187 7.710937-6.285156 16.808594-10.644531 26.539063-12.714843 4.898437-1.238282 9.894531-2.066407 14.933593-2.476563 2.730469-.253906 5.632813-.339844 8.53125-.339844 7.9375-.019531 15.847657.925781 23.554688 2.816407 5.679687 1.324218 11.179687 3.332031 16.382812 5.972656 3.621094 1.824218 7.003907 4.089844 10.070313 6.742187 24.382812-20.910156 33.167968-54.792969 22.007812-84.914062-11.15625-30.121094-39.894531-50.105469-72.015625-50.082031zm0 0" fill="#fff"/><path d="m170.722656 119.570312c-.011718 19.132813-10.671875 36.667969-27.648437 45.484376-7.707031-1.890626-15.617188-2.835938-23.554688-2.816407-2.898437 0-5.800781.085938-8.53125.339844-5.039062.410156-10.035156 1.238281-14.933593 2.476563-22.359376-11.53125-33.027344-37.59375-25.171876-61.492188 7.851563-23.898438 31.90625-38.550781 56.746094-34.566406 24.835938 3.980468 43.101563 25.417968 43.09375 50.574218zm0 0" fill="#00bbd3"/><path d="m341.386719 119.570312c.011719 19.132813 10.671875 36.667969 27.648437 45.484376 7.707032-1.890626 15.617188-2.835938 23.550782-2.816407 2.902343 0 5.804687.085938 8.535156.339844 5.039062.410156 10.03125 1.238281 14.933594 2.476563 22.359374-11.53125 33.027343-37.59375 25.171874-61.492188-7.855468-23.898438-31.90625-38.550781-56.746093-34.566406-24.839844 3.980468-43.105469 25.417968-43.09375 50.574218zm0 0" fill="#00bbd3"/><path d="m153.652344 119.570312c0 18.851563-15.28125 34.136719-34.132813 34.136719-18.851562 0-34.132812-15.285156-34.132812-34.136719 0-18.851562 15.28125-34.132812 34.132812-34.132812 18.851563 0 34.132813 15.28125 34.132813 34.132812zm0 0" fill="#37474f"/><path d="m426.722656 119.570312c0 18.851563-15.285156 34.136719-34.136718 34.136719-18.851563 0-34.132813-15.285156-34.132813-34.136719 0-18.851562 15.28125-34.132812 34.132813-34.132812 18.851562 0 34.136718 15.28125 34.136718 34.132812zm0 0" fill="#37474f"/><path d="m409.652344 290.238281v42.667969c-.011719 60.824219-42.808594 113.246094-102.398438 125.4375-8.421875 1.722656-17 2.582031-25.601562 2.5625h-51.199219c-8.597656.019531-17.175781-.839844-25.597656-2.5625-59.59375-12.191406-102.386719-64.613281-102.402344-125.4375v-42.667969c.027344-9.414062 7.652344-17.039062 17.066406-17.066406h273.066407c9.414062.027344 17.039062 7.652344 17.066406 17.066406zm0 0" fill="#ac1457"/><path d="m385.761719 273.171875-23.210938 57.941406c-.988281 2.441407-3.050781 4.292969-5.585937 5.007813-2.539063.71875-5.261719.222656-7.386719-1.339844l-3.070313-2.304688-17.066406-12.796874c-3.023437-2.304688-7.214844-2.304688-10.242187 0l-2.558594 1.960937-21.332031 15.957031c-3.027344 2.304688-7.214844 2.304688-10.242188 0l-2.558594-1.875-21.332031-16.042968c-3.027343-2.304688-7.21875-2.304688-10.242187 0l-2.558594 1.960937-21.335938 15.957031c-3.023437 2.304688-7.214843 2.304688-10.238281 0l-2.558593-1.875-21.335938-16.042968c-3.023438-2.304688-7.214844-2.304688-10.238281 0l-2.558594 1.960937-17.582031 13.140625c-1.90625 1.410156-4.3125 1.964844-6.644532 1.527344-2.332031-.4375-4.375-1.824219-5.640624-3.832032-.277344-.425781-.507813-.882812-.683594-1.363281l-23.210938-57.941406zm0 0" fill="#f9eab0"/><path d="m370.402344 273.171875-23.210938 57.941406c-.175781.480469-.40625.9375-.683594 1.363281l-17.066406-12.796874c-3.023437-2.304688-7.214844-2.304688-10.242187 0l-2.558594 1.960937-2.558594-1.960937c-3.027343-2.304688-7.214843-2.304688-10.242187 0l-21.332032 16.042968-21.332031-16.042968c-3.027343-2.304688-7.21875-2.304688-10.242187 0l-2.558594 1.960937-2.5625-1.960937c-3.023438-2.304688-7.214844-2.304688-10.238281 0l-21.332031 16.042968-21.335938-16.042968c-3.023438-2.304688-7.214844-2.304688-10.238281 0l-2.558594 1.960937-2.5625-1.960937c-3.023437-2.304688-7.214844-2.304688-10.238281 0l-17.066406 12.796874c-.277344-.425781-.507813-.882812-.683594-1.363281l-23.210938-57.941406zm0 0" fill="#ffebb2"/><path d="m307.253906 401.171875v57.171875c-8.421875 1.722656-17 2.582031-25.601562 2.5625h-51.199219c-8.597656.019531-17.175781-.839844-25.597656-2.5625v-57.171875c0-14.136719 11.460937-25.601563 25.597656-25.601563 14.140625 0 25.601563 11.464844 25.601563 25.601563 0-14.136719 11.460937-25.601563 25.597656-25.601563 14.140625 0 25.601562 11.464844 25.601562 25.601563zm0 0" fill="#f34335"/><path d="m102.453125 85.4375c0 14.140625-11.460937 25.601562-25.597656 25.601562-14.140625 0-25.601563-11.460937-25.601563-25.601562 0-14.136719 11.460938-25.597656 25.601563-25.597656 14.136719 0 25.597656 11.460937 25.597656 25.597656zm0 0" fill="#fff"/><path d="m375.519531 85.4375c0 14.140625-11.460937 25.601562-25.597656 25.601562-14.140625 0-25.601563-11.460937-25.601563-25.601562 0-14.136719 11.460938-25.597656 25.601563-25.597656 14.136719 0 25.597656 11.460937 25.597656 25.597656zm0 0" fill="#fff"/><path d="m392.585938.105469c-49.457032.082031-93.761719 30.609375-111.453126 76.800781h-50.15625c-16.71875-43.917969-57.644531-73.941406-104.554687-76.699219-46.90625-2.757812-91.070313 22.261719-112.816406 63.917969-21.746094 41.65625-17.03125 92.195312 12.046875 129.105469v233.542969c.054687 47.105468 38.226562 85.28125 85.335937 85.332031h290.132813c47.105468-.050781 85.28125-38.226563 85.332031-85.332031v-233.542969c28.308594-35.914063 33.589844-84.851563 13.601563-125.984375-19.992188-41.128906-61.738282-67.2109378-107.46875-67.140625zm-273.066407 17.066406c54.296875.136719 99.046875 42.628906 101.992188 96.84375 2.945312 54.214844-36.9375 101.304687-90.898438 107.324219-3.480469.386718-6.976562.585937-10.476562.597656-.207031 0-.410157 0-.617188 0-.203125 0-.410156 0-.613281 0-3.5-.011719-7-.210938-10.480469-.597656-53.960937-6.019532-93.839843-53.109375-90.894531-107.324219s47.695312-96.707031 101.988281-96.84375zm281.601563 477.867187h-290.132813c-37.6875-.042968-68.226562-30.582031-68.265625-68.265624v-215.828126c18.070313 15.265626 40.292969 24.789063 63.808594 27.351563h.042969c8.605469.976563 17.289062.976563 25.890625 0h.042968c33.730469-3.613281 64.320313-21.425781 84.105469-48.980469 19.789063-27.550781 26.894531-62.230468 19.542969-95.34375h39.796875c-11.03125 49.949219 11 101.378906 54.773437 127.847656 43.773438 26.472657 99.550782 22.097657 138.660157-10.875v215.828126c-.042969 37.683593-30.582031 68.222656-68.265625 68.265624zm-8.535156-273.066406c-56.550782 0-102.398438-45.847656-102.398438-102.402344 0-56.550781 45.847656-102.398437 102.398438-102.398437 56.554687 0 102.402343 45.847656 102.402343 102.398437-.0625 56.53125-45.871093 102.339844-102.402343 102.402344zm0 0"/><path d="m63.976562 184.253906c.300782.195313.609376.367188.929688.519532.476562.339843.984375.625 1.519531.855468.496094.183594 1.007813.316406 1.527344.402344.539063.121094 1.085937.183594 1.640625.1875.523438-.015625 1.042969-.082031 1.550781-.199219.546875-.09375 1.085938-.242187 1.605469-.441406.503906-.238281.984375-.523437 1.433594-.855469.335937-.164062.660156-.351562.972656-.5625 12.847656-9.351562 28.488281-14.074218 44.363281-13.386718 15.882813-.683594 31.527344 4.042968 44.375 13.402343.460938.335938.957031.621094 1.476563.855469.292968.199219.597656.378906.914062.539062 1.023438.441407 2.125.679688 3.242188.699219 1.09375-.015625 2.175781-.242187 3.183594-.667969.328124-.164062.648437-.351562.953124-.5625.496094-.234374.964844-.519531 1.398438-.851562 27.109375-23.242188 36.878906-60.90625 24.488281-94.394531s-44.320312-55.722657-80.03125-55.722657c-35.707031 0-67.636719 22.234376-80.03125 55.722657-12.390625 33.488281-2.617187 71.152343 24.488281 94.394531zm55.542969-39.082031c-14.136719 0-25.597656-11.460937-25.597656-25.601563 0-14.136718 11.460937-25.597656 25.597656-25.597656 14.140625 0 25.601563 11.460938 25.601563 25.597656 0 14.140626-11.460938 25.601563-25.601563 25.601563zm0-93.867187c27.332031-.027344 52.039063 16.261718 62.777344 41.394531 10.742187 25.128906 5.4375 54.246093-13.46875 73.976562-8.390625-5.210937-17.667969-8.839843-27.367187-10.699219 16.449218-9.863281 24.296874-29.492187 19.179687-47.976562-5.117187-18.488281-21.9375-31.285156-41.121094-31.285156-19.179687 0-36.003906 12.796875-41.121093 31.285156-5.113282 18.484375 2.734374 38.113281 19.183593 47.976562-9.699219 1.859376-18.976562 5.488282-27.367187 10.699219-18.910156-19.730469-24.210938-48.847656-13.472656-73.976562 10.742187-25.132813 35.449218-41.421875 62.777343-41.394531zm0 0"/><path d="m392.585938 34.238281c-35.695313-.027343-67.632813 22.183594-80.027344 55.660157-12.394532 33.476562-2.625 71.128906 24.484375 94.355468.296875.191406.605469.367188.921875.519532.480468.335937.992187.621093 1.527344.855468.492187.1875 1 .320313 1.519531.402344.542969.117188 1.09375.179688 1.648437.1875.523438-.015625 1.046875-.082031 1.558594-.199219.542969-.09375 1.074219-.242187 1.589844-.441406.507812-.234375.992187-.519531 1.441406-.855469.335938-.164062.660156-.351562.972656-.5625 12.847656-9.351562 28.488282-14.074218 44.363282-13.386718 15.882812-.683594 31.527343 4.042968 44.375 13.402343.460937.335938.957031.621094 1.476562.855469.292969.199219.597656.378906.914062.539062 1.023438.441407 2.125.679688 3.242188.699219 1.09375-.015625 2.175781-.242187 3.183594-.667969.328125-.164062.648437-.351562.953125-.5625.496093-.234374.964843-.519531 1.402343-.851562 27.054688-23.238281 36.789063-60.859375 24.398438-94.300781-12.386719-33.445313-44.28125-55.644531-79.945312-55.648438zm0 110.933594c-14.136719 0-25.597657-11.460937-25.597657-25.601563 0-14.136718 11.460938-25.597656 25.597657-25.597656 14.140624 0 25.601562 11.460938 25.601562 25.597656 0 14.140626-11.460938 25.601563-25.601562 25.601563zm49.308593 21.503906c-8.390625-5.210937-17.667969-8.839843-27.367187-10.699219 16.449218-9.863281 24.296875-29.492187 19.179687-47.976562-5.117187-18.488281-21.9375-31.285156-41.121093-31.285156-19.179688 0-36.003907 12.796875-41.117188 31.285156-5.117188 18.484375 2.730469 38.113281 19.179688 47.976562-9.699219 1.859376-18.976563 5.488282-27.367188 10.699219-25.808594-26.953125-25.195312-69.636719 1.382812-95.835937 26.578126-26.195313 69.269532-26.195313 95.84375 0 26.578126 26.199218 27.195313 68.882812 1.386719 95.835937zm0 0"/><path d="m392.585938 264.636719h-273.066407c-14.136719 0-25.597656 11.464843-25.597656 25.601562v42.667969c.089844 75.367188 61.164063 136.441406 136.53125 136.53125h51.199219c75.371094-.089844 136.445312-61.164062 136.535156-136.53125v-42.667969c0-6.789062-2.695312-13.300781-7.496094-18.101562-4.804687-4.800781-11.3125-7.5-18.105468-7.5zm-19.429688 17.070312-18.492188 46.222657-25.222656-18.917969c-3.035156-2.277344-7.207031-2.277344-10.242187 0l-29.011719 21.761719-29.011719-21.761719c-3.035156-2.277344-7.207031-2.277344-10.242187 0l-29.011719 21.761719-29.015625-21.761719c-3.03125-2.277344-7.203125-2.277344-10.238281 0l-25.226563 18.917969-18.488281-46.222657zm-142.703125 170.664063c-5.714844-.042969-11.417969-.5-17.066406-1.363282v-49.835937c0-9.425781 7.640625-17.066406 17.066406-17.066406s17.066406 7.640625 17.066406 17.066406v17.066406c0 4.714844 3.820313 8.535157 8.535157 8.535157 4.710937 0 8.53125-3.820313 8.53125-8.535157v-17.066406c0-9.425781 7.644531-17.066406 17.066406-17.066406 9.425781 0 17.070312 7.640625 17.070312 17.066406v49.835937c-5.648437.863282-11.355468 1.320313-17.070312 1.363282zm170.667969-119.464844c-.082032 52.792969-34.757813 99.292969-85.332032 114.429688v-46.164063c-.011718-14.191406-8.800781-26.898437-22.078124-31.910156-13.277344-5.011719-28.269532-1.289063-37.65625 9.355469-9.386719-10.644532-24.378907-14.367188-37.65625-9.355469-13.277344 5.011719-22.066407 17.71875-22.078126 31.910156v46.164063c-50.578124-15.136719-85.253906-61.636719-85.332031-114.429688v-42.667969c0-4.710937 3.820313-8.53125 8.53125-8.53125h1.050781l25.15625 62.898438c.984376 2.464843 3.0625 4.332031 5.621094 5.050781 2.554688.71875 5.300782.203125 7.425782-1.390625l29.015624-21.761719 29.011719 21.761719c3.035157 2.273437 7.207031 2.273437 10.238281 0l29.015626-21.761719 29.011718 21.761719c3.035156 2.273437 7.207032 2.273437 10.242188 0l29.011718-21.761719 29.015626 21.761719c1.476562 1.105469 3.273437 1.707031 5.117187 1.707031.78125-.003906 1.554687-.109375 2.304687-.316406 2.558594-.714844 4.636719-2.585938 5.625-5.050781l25.15625-62.898438h1.046876c4.714843 0 8.535156 3.820313 8.535156 8.53125zm0 0"/></svg>