<svg height="512pt" viewBox="-68 0 512 512.16407" width="512pt" xmlns="http://www.w3.org/2000/svg"><path d="m128.09375 444.367188v29.355468c0 16.492188 13.371094 29.867188 29.867188 29.867188 16.496093 0 29.867187-13.375 29.867187-29.867188v-21.335937zm0 0" fill="#ff9701"/><path d="m247.5625 444.367188v29.355468c0 16.492188-13.371094 29.867188-29.867188 29.867188-16.496093 0-29.867187-13.375-29.867187-29.867188v-21.335937zm0 0" fill="#ff9701"/><path d="m342.023438 457.335938c-7.332032 10.003906-20.777344 13.3125-31.914063 7.851562h-.085937c-1.335938-.664062-2.621094-1.4375-3.839844-2.304688l-41.300782-30.292968 18.09375-33.707032 6.398438-11.859374 47.105469 34.558593c11.394531 8.347657 13.878906 24.347657 5.542969 35.753907zm0 0" fill="#f47c00"/><path d="m319.410156 457.335938c-2.445312 3.308593-5.628906 5.996093-9.300781 7.851562h-.085937c-1.335938-.664062-2.621094-1.4375-3.839844-2.304688l-41.300782-30.292968 18.09375-33.707032 30.890626 22.699219c11.394531 8.347657 13.878906 24.347657 5.542968 35.753907zm0 0" fill="#ff9701"/><path d="m290.230469 334.882812-.003907 40.707032c.019532 3.828125-.269531 7.648437-.851562 11.433594-2.609375 17.578124-11.269531 33.695312-24.492188 45.566406-5.214843 4.691406-11.042968 8.652344-17.320312 11.777344-10.605469 5.28125-22.289062 8.027343-34.132812 8.019531h-51.203126c-11.84375.007812-23.53125-2.738281-34.132812-8.019531-5.828125-2.890626-11.25-6.535157-16.128906-10.835938-13.4375-11.550781-22.429688-27.421875-25.425782-44.886719-.757812-4.3125-1.128906-8.679687-1.109374-13.054687l-.003907-40.707032zm0 0" fill="#d74315"/><path d="m111.964844 433.53125-40.019532 29.351562c-7.378906 5.414063-17.082031 6.476563-25.457031 2.792969-8.375-3.683593-14.148437-11.554687-15.148437-20.648437-.996094-9.097656 2.933594-18.03125 10.3125-23.445313l44.886718-32.9375c2.996094 17.464844 11.988282 33.335938 25.425782 44.886719zm0 0" fill="#ff9701"/><path d="m264.628906 334.882812v40.707032c.039063 21.503906-8.695312 42.089844-24.191406 57-4.945312 4.667968-10.511719 8.632812-16.539062 11.777344-10.050782 5.265624-21.230469 8.019531-32.582032 8.019531h-32.578125c-17.792969-.042969-34.914062-6.777344-47.976562-18.855469-16.199219-14.902344-25.394531-35.929688-25.332031-57.941406l-.003907-40.707032zm0 0" fill="#ff5722"/><path d="m367.027344 187.855469c.058594 58.636719-28.640625 113.578125-76.800782 147.027343-5.488281 3.863282-11.1875 7.425782-17.066406 10.667969-26.21875 14.136719-55.542968 21.523438-85.332031 21.503907-2.644531 0-5.289063-.085938-7.851563-.253907-.449218.082031-.914062.082031-1.363281 0-33.457031-1.609375-65.769531-12.675781-93.183593-31.917969-62.820313-43.78125-90.878907-122.644531-69.832032-196.265624 21.046875-73.625 86.546875-125.738282 163.015625-129.707032.449219-.085937.914063-.085937 1.363281 0 2.5625-.171875 5.207032-.253906 7.851563-.253906 98.96875 0 179.199219 80.230469 179.199219 179.199219zm0 0" fill="#d74315"/><path d="m341.429688 187.855469c.265624 58.230469-27.628907 113-74.882813 147.027343-26.566406 19.1875-58.121094 30.269532-90.851563 31.917969-.441406.082031-.894531.082031-1.332031 0-2.5.167969-5.078125.253907-7.679687.253907-29.109375.003906-57.738282-7.398438-83.203125-21.503907v-10.667969c-47.242188-34.03125-75.125-88.800781-74.851563-147.027343-1.121094-94.226563 71.699219-172.847657 165.734375-178.945313.4375-.085937.890625-.085937 1.332031 0 94.03125 6.097656 166.851563 84.71875 165.734376 178.945313zm0 0" fill="#ff5722"/><path d="m187.828125 42.789062c-2.816406 0-5.71875.085938-8.535156.253907-76.636719 4.558593-136.449219 68.039062-136.449219 144.8125 0 76.773437 59.8125 140.25 136.449219 144.808593 2.816406.171876 5.71875.257813 8.535156.257813 80.117187 0 145.066406-64.949219 145.066406-145.066406 0-80.117188-64.949219-145.066407-145.066406-145.066407zm0 0" fill="#f4f4f4"/><path d="m273.160156 187.855469c0 47.128906-38.203125 85.332031-85.332031 85.332031s-85.332031-38.203125-85.332031-85.332031c0-47.128907 38.203125-85.332031 85.332031-85.332031s85.332031 38.203124 85.332031 85.332031zm0 0" fill="#2295f2"/><path d="m221.960938 187.855469c0 18.851562-15.28125 34.132812-34.132813 34.132812s-34.132813-15.28125-34.132813-34.132812c0-18.851563 15.28125-34.132813 34.132813-34.132813s34.132813 15.28125 34.132813 34.132813zm0 0" fill="#37474f"/><path d="m162.226562 145.1875c0 23.566406-19.101562 42.667969-42.664062 42.667969-23.566406 0-42.667969-19.101563-42.667969-42.667969 0-23.5625 19.101563-42.664062 42.667969-42.664062 23.5625 0 42.664062 19.101562 42.664062 42.664062zm0 0" fill="#f4f4f4"/><path d="m298.761719 339.183594c65.503906-47.980469 92.738281-132.632813 67.5-209.808594-25.242188-77.175781-97.238281-129.375-178.433594-129.375-81.199219 0-153.191406 52.199219-178.433594 129.375-25.238281 77.175781 1.996094 161.828125 67.5 209.808594v36.40625c.015625 3.058594.191407 6.113281.527344 9.15625l-40.832031 29.96875c-15.109375 11.183594-18.367188 32.46875-7.285156 47.65625 5.316406 7.332031 13.351562 12.226562 22.304687 13.59375 1.746094.273437 3.507813.410156 5.273437.410156 7.238282-.003906 14.285157-2.320312 20.113282-6.613281l34.859375-25.601563c2.460937 1.835938 5.027343 3.527344 7.679687 5.070313v24.492187c-.070312 16.320313 10.222656 30.886719 25.628906 36.269532 15.410157 5.378906 32.535157.386718 42.636719-12.429688 10.101563 12.839844 27.238281 17.847656 42.660157 12.460938 15.421874-5.382813 25.71875-19.96875 25.632812-36.300782v-24.484375c3.101562-1.804687 6.089844-3.800781 8.945312-5.972656l36.101563 26.453125c9.839844 7.214844 22.777344 8.632812 33.941406 3.722656 11.167969-4.910156 18.867188-15.40625 20.195313-27.53125 1.328125-12.128906-3.910156-24.042968-13.746094-31.257812l-43.121094-31.640625c.214844-2.378907.351563-4.863281.351563-7.421875zm-281.601563-151.328125c0-94.257813 76.410156-170.667969 170.667969-170.667969s170.667969 76.410156 170.667969 170.667969c0 94.257812-76.410156 170.667969-170.667969 170.667969-94.210937-.109376-170.558594-76.457032-170.667969-170.667969zm170.667969 187.734375c32.972656.027344 65.359375-8.691406 93.867187-25.261719v25.261719c.011719 3.410156-.242187 6.816406-.761718 10.1875-2.328125 15.609375-10.023438 29.921875-21.757813 40.472656-4.648437 4.175781-9.839843 7.703125-15.429687 10.488281-9.421875 4.675781-19.796875 7.113281-30.316406 7.117188h-51.203126c-10.539062-.003907-20.933593-2.449219-30.367187-7.144531-5.183594-2.574219-10.003906-5.824219-14.335937-9.660157-4.050782-3.5-7.660157-7.472656-10.761719-11.832031-6.003907-8.351562-10.039063-17.953125-11.800781-28.085938-.679688-3.808593-1.015626-7.675781-1-11.542968v-25.261719c28.503906 16.570313 60.894531 25.289063 93.867187 25.261719zm-120.925781 80.40625c-3.644532 2.683594-8.210938 3.800781-12.679688 3.105468-4.472656-.695312-8.484375-3.140624-11.144531-6.796874-5.546875-7.597657-3.925781-18.242188 3.625-23.84375l34.707031-25.472657c.066406.195313.160156.375.230469.570313 1.769531 5.101562 4.023437 10.023437 6.730469 14.695312.351562.617188.75 1.203125 1.128906 1.808594 1.039062 1.707031 2.132812 3.414062 3.292969 5.011719.496093.691406 1.023437 1.371093 1.542969 2.054687 1.136718 1.496094 2.324218 2.953125 3.558593 4.371094.324219.367188.589844.757812.914063 1.117188zm91.058594 39.058594c-11.78125 0-21.332032-9.550782-21.332032-21.332032v-16.871094c8.273438 2.652344 16.910156 4.023438 25.597656 4.070313h17.066407v12.800781c0 11.78125-9.550781 21.332032-21.332031 21.332032zm59.734374 0c-11.78125 0-21.335937-9.550782-21.335937-21.332032v-12.800781h17.070313c8.6875-.046875 17.320312-1.417969 25.597656-4.070313v16.871094c0 5.65625-2.246094 11.082032-6.246094 15.082032-4.003906 4.003906-9.429688 6.25-15.085938 6.25zm117.453126-42.75c-5.59375 7.589843-16.265626 9.246093-23.894532 3.703124l-33.449218-24.527343c7.617187-8.730469 13.375-18.925781 16.910156-29.960938l36.695312 26.949219c7.566406 5.578125 9.234375 16.207031 3.738282 23.835938zm0 0"/><path d="m341.429688 187.855469c0-84.832031-68.769532-153.601563-153.601563-153.601563s-153.601563 68.769532-153.601563 153.601563 68.769532 153.597656 153.601563 153.597656c84.789063-.097656 153.5-68.808594 153.601563-153.597656zm-290.136719 0c0-75.40625 61.128906-136.535157 136.535156-136.535157s136.53125 61.128907 136.53125 136.535157-61.125 136.53125-136.53125 136.53125c-75.367187-.085938-136.445313-61.164063-136.535156-136.53125zm0 0"/><path d="m281.695312 187.855469c0-51.839844-42.027343-93.867188-93.867187-93.867188s-93.867187 42.027344-93.867187 93.867188c0 51.839843 42.027343 93.867187 93.867187 93.867187 51.816406-.0625 93.804687-42.050781 93.867187-93.867187zm-170.667968 0c0-42.417969 34.386718-76.800781 76.800781-76.800781s76.800781 34.382812 76.800781 76.800781c0 42.414062-34.386718 76.800781-76.800781 76.800781-42.394531-.046875-76.753906-34.40625-76.800781-76.800781zm0 0"/><path d="m230.496094 187.855469c0-23.566407-19.105469-42.667969-42.667969-42.667969s-42.667969 19.101562-42.667969 42.667969c0 23.5625 19.105469 42.667969 42.667969 42.667969 23.550781-.03125 42.636719-19.117188 42.667969-42.667969zm-68.269532 0c0-10.355469 6.238282-19.691407 15.804688-23.652344s20.578125-1.773437 27.898438 5.550781c7.320312 7.320313 9.511718 18.332032 5.550781 27.898438-3.964844 9.566406-13.296875 15.800781-23.652344 15.800781-14.136719 0-25.601563-11.460937-25.601563-25.597656zm0 0"/></svg>