<svg height="512pt" viewBox="0 0 512.05941 512" width="512pt" xmlns="http://www.w3.org/2000/svg"><path d="m407.324219 346.140625c.425781 29.765625 8.726562 58.882813 24.066406 84.394531-25.523437-15.308594-54.636719-23.609375-84.394531-24.0625-11.53125.035156-22.78125-3.546875-32.171875-10.242187-.636719 3.347656-2.039063 6.503906-4.097657 9.21875-3.429687 4.746093-7.378906 9.097656-11.773437 12.96875l-.085937.085937-25.515626-.085937-60.246093-.253907c-.046875 0-.082031-.039062-.082031-.085937-6.808594-5.550781-11.851563-12.960937-14.507813-21.332031-9.515625 6.796875-20.902344 10.496094-32.597656 10.578125-29.765625.425781-58.882813 8.726562-84.394531 24.066406 3.09375-4.992187 5.859374-10.179687 8.277343-15.53125 10.128907-21.558594 15.515625-45.042969 15.785157-68.863281-.03125-11.53125 3.546874-22.78125 10.242187-32.171875-11.550781-1.800781-22.222656-7.242188-30.464844-15.53125-21.332031-20.824219-47.851562-35.554688-76.800781-42.664063 28.949219-7.113281 55.46875-21.84375 76.800781-42.667968 8.121094-8.15625 18.597657-13.558594 29.953125-15.445313-6.890625-9.472656-10.59375-20.886719-10.582031-32.597656-.273437-23.820313-5.65625-47.304688-15.789063-68.863281-2.414062-5.351563-5.179687-10.542969-8.277343-15.53125 25.511719 15.335937 54.632812 23.640624 84.394531 24.0625 3 .007812 5.996094.238281 8.960938.683593h.085937c8.332031 1.398438 16.238281 4.664063 23.125 9.558594 1.800781-11.550781 7.242187-22.222656 15.53125-30.464844 12.171875-12.3125 22.257813-26.519531 29.867187-42.070312 5.628907-11.027344 9.925782-22.6875 12.800782-34.730469 7.109375 28.949219 21.839844 55.46875 42.664062 76.800781 5.730469 5.710938 10.128906 12.617188 12.886719 20.222657 1.113281 3.171874 1.96875 6.421874 2.558594 9.730468 9.472656-6.890625 20.886719-10.59375 32.597656-10.582031 17.1875-.132813 34.242187-3.015625 50.519531-8.535156 11.851563-3.851563 23.21875-9.066407 33.875-15.53125-15.335937 25.511719-23.640625 54.632812-24.0625 84.394531.035156 11.53125-3.546875 22.78125-10.242187 32.171875 11.550781 1.800781 22.226562 7.242187 30.464843 15.53125 21.332032 20.824219 47.851563 35.554687 76.800782 42.667969-28.949219 7.109375-55.46875 21.839844-76.800782 42.664062-8.121093 8.15625-18.597656 13.558594-29.949218 15.445313 6.886718 9.472656 10.589844 20.886719 10.578125 32.597656zm0 0" fill="#00828e"/><path d="m401.097656 298.097656c-8.125 8.15625-18.597656 13.558594-29.953125 15.445313 6.886719 9.472656 10.59375 20.886719 10.582031 32.597656.269532 23.820313 5.65625 47.304687 15.785157 68.863281-16.277344-5.519531-33.332031-8.398437-50.515625-8.53125-11.53125.035156-22.78125-3.546875-32.171875-10.242187-.636719 3.347656-2.039063 6.503906-4.097657 9.21875-7.742187-1.503907-15.074218-4.644531-21.503906-9.21875-2.949218 8.820312-8.480468 16.546875-15.871094 22.1875l-60.246093-.253907c-.046875 0-.082031-.039062-.082031-.085937-6.808594-5.550781-11.851563-12.960937-14.507813-21.332031-6.367187 4.65625-13.679687 7.859375-21.417969 9.386718-2.070312-2.785156-3.5-5.988281-4.183594-9.386718-9.472656 6.886718-20.882812 10.589844-32.597656 10.578125-17.183594.132812-34.238281 3.015625-50.515625 8.535156 10.128907-21.558594 15.515625-45.042969 15.785157-68.863281-.03125-11.53125 3.546874-22.78125 10.242187-32.171875-11.550781-1.800781-22.222656-7.242188-30.464844-15.53125-21.332031-20.824219-47.851562-35.554688-76.800781-42.664063 28.949219-7.113281 55.46875-21.84375 76.800781-42.667968 8.121094-8.15625 18.597657-13.558594 29.953125-15.445313-6.890625-9.472656-10.59375-20.886719-10.582031-32.597656-.273437-23.820313-5.65625-47.304688-15.789063-68.863281 16.277344 5.519531 33.332032 8.398437 50.519532 8.53125 11.53125-.03125 22.78125 3.546874 32.171875 10.242187.5-3.253906 1.300781-6.453125 2.386719-9.558594h.085937c8.332031 1.398438 16.238281 4.664063 23.125 9.558594 1.800781-11.550781 7.242187-22.222656 15.53125-30.464844 12.171875-12.3125 22.257813-26.519531 29.867187-42.070312 7.609376 15.550781 17.695313 29.757812 29.867188 42.070312 8.152344 8.121094 13.554688 18.597657 15.445312 29.953125 6.832032-4.964844 14.714844-8.292968 23.039063-9.730468 1.113281 3.171874 1.96875 6.421874 2.558594 9.730468 9.472656-6.890625 20.886719-10.59375 32.597656-10.582031 17.1875-.132813 34.242187-3.015625 50.519531-8.535156-10.132812 21.5625-15.515625 45.046875-15.789062 68.863281.035156 11.53125-3.546875 22.78125-10.238282 32.171875 11.550782 1.800781 22.222657 7.242187 30.464844 15.53125 21.332032 20.824219 47.847656 35.554687 76.796875 42.667969-28.949219 7.109375-55.464843 21.839844-76.796875 42.664062zm0 0" fill="#00bbd3"/><path d="m359.113281 289.652344c-28.160156 71.253906-65.621093 111.957031-65.621093 162.898437 0 35.246094-17.921876 46.082031-28.929688 49.496094-2.769531.847656-5.636719 1.335937-8.53125 1.449219-2.898438-.113282-5.765625-.601563-8.535156-1.449219-11.007813-3.414063-28.925782-14.25-28.925782-49.496094 0-50.941406-37.464843-91.644531-65.625-162.898437-28.160156-71.253906 28.160157-101.890625 28.160157-101.890625l57.859375-8.53125 17.066406-59.734375 17.066406 59.734375 57.855469 8.53125s56.234375 30.550781 28.160156 101.890625zm0 0" fill="#ac1457"/><path d="m333.835938 289.652344c-26.980469 71.253906-62.882813 111.957031-62.882813 162.898437 0 35.246094-17.175781 46.082031-27.722656 49.496094-10.546875-3.414063-27.726563-14.25-27.726563-49.496094 0-50.941406-35.898437-91.644531-62.882812-162.898437-26.980469-71.253906 26.984375-101.890625 26.984375-101.890625l55.464843-8.53125 8.175782-29.867188 8.175781 29.867188 55.464844 8.53125s53.855469 30.550781 26.949219 101.890625zm0 0" fill="#e81e63"/><path d="m193.820312 260.039062c-3.070312 19.714844-5.289062 55.722657 19.542969 55.722657 14.847657 0 16.980469-10.410157 17.152344-31.230469zm0 0" fill="#f4f4f4"/><path d="m281.542969 284.53125c.171875 20.820312 2.304687 31.230469 17.152343 31.230469 24.832032 0 22.613282-36.007813 19.542969-55.722657zm0 0" fill="#f4f4f4"/><path d="m6.855469 248.265625c-3.984375.796875-6.855469 4.300781-6.855469 8.367187 0 4.066407 2.871094 7.566407 6.855469 8.367188 27.292969 6.792969 52.289062 20.710938 72.441406 40.328125 6.621094 6.691406 14.667969 11.804687 23.542969 14.957031-3.839844 8.382813-5.824219 17.492188-5.820313 26.710938-.449219 28.171875-8.296875 55.730468-22.75 79.914062-.128906.203125-.144531.425782-.253906.632813-.277344.523437-.5 1.078125-.660156 1.652343-.070313.28125-.128907.566407-.167969.855469-.519531 2.695313.308594 5.472657 2.226562 7.441407 2.609376 2.722656 6.753907 3.289062 10 1.363281.265626-.128907.554688-.195313.8125-.347657 24.125-14.394531 51.609376-22.210937 79.699219-22.664062 9.882813.003906 19.632813-2.289062 28.476563-6.699219 3.121094 4.839844 6.796875 9.300781 10.957031 13.285157 2.988281 9.757812 4.558594 19.898437 4.660156 30.105468 0 58.8125 45.550781 59.496094 46.011719 59.496094s46.011719-.683594 46.011719-59.460938c.097656-10.054687 1.625-20.039062 4.539062-29.664062 4.691407-4.261719 8.839844-9.085938 12.347657-14.367188 8.742187 4.261719 18.339843 6.476563 28.066406 6.464844 28.175781.457032 55.734375 8.316406 79.914062 22.785156.210938.128907.441406.152344.664063.265626.515625.273437 1.058593.488281 1.621093.648437.296876.070313.597657.128906.898438.171875.433594.113281.875.199219 1.320312.246094.28125 0 .554688-.144532.855469-.171875l.359375-.066407c1.890625-.222656 3.65625-1.078124 5-2.433593 1.285156-1.40625 2.050782-3.214844 2.167969-5.121094.058594-.785156.011719-1.578125-.136719-2.351563-.050781-.308593-.121094-.613281-.207031-.914062-.15625-.539062-.371094-1.058594-.640625-1.554688-.082031-.238281-.175781-.472656-.28125-.699218-14.378906-24.132813-22.191406-51.613282-22.65625-79.699219.007812-9.429687-2.082031-18.742187-6.109375-27.265625 8.652344-3.167969 16.496094-8.203125 22.980469-14.746094 20.1875-19.574218 45.179687-33.472656 72.457031-40.300781 3.988281-.800781 6.855469-4.300781 6.855469-8.367187 0-4.066407-2.867188-7.570313-6.855469-8.367188-27.289063-6.796875-52.289063-20.710938-72.441406-40.328125-6.621094-6.695313-14.667969-11.808594-23.542969-14.960937 3.839844-8.378907 5.824219-17.492188 5.820312-26.710938.453126-28.167969 8.296876-55.726562 22.75-79.914062.097657-.207032.183594-.421876.257813-.640626.269531-.507812.484375-1.046874.640625-1.601562.082031-.328125.144531-.65625.1875-.992188.121094-.710937.148438-1.4375.082031-2.15625l-.039062-.179687c-.207031-2.335937-1.414063-4.464844-3.3125-5.835937-1.898438-1.375-4.296875-1.859376-6.578125-1.324219-.28125 0-.554688.09375-.855469.164062-.539063.15625-1.0625.371094-1.5625.628907-.253906.128906-.535156.171874-.792969.324218-24.128906 14.394532-51.609375 22.210938-79.699218 22.664063-9.425782 0-18.734376 2.082031-27.257813 6.101562-3.171875-8.648437-8.207031-16.488281-14.753906-22.972656-19.574219-20.1875-33.476563-45.1875-40.300781-72.472656-.8125-3.976563-4.3125-6.8320315-8.371094-6.824219-4.054688 0-7.542969 2.855469-8.355469 6.824219-6.796875 27.292969-20.714844 52.289062-40.335937 72.441406-6.691407 6.625-11.808594 14.671875-14.96875 23.542969-8.378907-3.839844-17.484376-5.824219-26.699219-5.820313-28.175781-.445312-55.738281-8.289062-79.925781-22.75-.238282-.144531-.511719-.179687-.757813-.296875-.507813-.269531-1.039063-.488281-1.585937-.648437-.28125-.070313-.566407-.117188-.855469-.148438-2.792969-.554687-5.671875.378907-7.605469 2.46875-1.9375 2.085938-2.644531 5.03125-1.875 7.773438l.050781.253906c.183594.6875.453125 1.347656.804688 1.964844.101562.195312.125.417969.246093.605469 14.378907 24.132812 22.191407 51.613281 22.65625 79.699218-.011718 9.445313 2.074219 18.769532 6.109376 27.308594-8.652344 3.167969-16.496094 8.199219-22.980469 14.746094-20.203125 19.566406-45.210938 33.457031-72.5 40.269531zm109.902343-41.34375c2.890626-.503906 5.324219-2.460937 6.433594-5.179687 1.113282-2.71875.746094-5.816407-.964844-8.203126-5.855468-8.015624-8.992187-17.695312-8.960937-27.621093-.175781-22.371094-4.707031-44.496094-13.34375-65.136719 20.640625 8.632812 42.769531 13.164062 65.140625 13.339844 9.773438-.042969 19.3125 2.996094 27.257812 8.6875 2.40625 1.707031 5.523438 2.046875 8.242188.90625 2.71875-1.144532 4.65625-3.609375 5.121094-6.523438 1.511718-9.78125 6.117187-18.820312 13.140625-25.796875 15.683593-15.945312 28.125-34.78125 36.632812-55.464843 8.511719 20.683593 20.953125 39.519531 36.632813 55.464843 6.921875 6.875 11.496094 15.753907 13.074218 25.378907.503907 2.894531 2.460938 5.324218 5.179688 6.433593 2.714844 1.113281 5.816406.75 8.199219-.964843 8.011719-5.851563 17.679687-9 27.597656-8.976563 22.375-.175781 44.496094-4.707031 65.136719-13.34375-8.632813 20.640625-13.164063 42.769531-13.339844 65.140625.054688 9.792969-2.984375 19.347656-8.683594 27.308594-1.683594 2.402344-2.011718 5.503906-.871094 8.207031 1.140626 2.703125 3.589844 4.632813 6.484376 5.105469 9.78125 1.5 18.824218 6.105468 25.796874 13.132812 15.949219 15.679688 34.785157 28.117188 55.464844 36.632813-20.683594 8.507812-39.519531 20.949219-55.464844 36.632812-6.871093 6.917969-15.75 11.492188-25.371093 13.074219-2.890625.503906-5.324219 2.460938-6.433594 5.175781-1.113281 2.71875-.746094 5.816407.964844 8.203125 5.851562 8.011719 8.996093 17.683594 8.96875 27.605469.175781 22.375 4.707031 44.496094 13.34375 65.136719-20.640625-8.632813-42.765625-13.164063-65.140625-13.339844-9.664063.035156-19.097656-2.949219-26.984375-8.53125 4.148437-8.535156 8.746093-17.304688 13.707031-26.691406 12.40625-22.675782 23.519531-46.039063 33.277344-69.976563 30.523437-77.429687-31.34375-112.144531-31.972656-112.484375-4.136719-2.257812-9.324219-.734375-11.582032 3.40625-2.253906 4.136719-.730468 9.320313 3.40625 11.578125 2.015625 1.117188 49.152344 28.160157 24.269532 91.230469-9.542969 23.355469-20.40625 46.144531-32.539063 68.265625-10.976563 19.277344-20.203125 39.5-27.5625 60.425781-.042969.101563-.066406.203125-.101563.316406-3.863281 11.988282-5.878906 24.496094-5.972656 37.09375 0 27.382813-11.8125 37.058594-20.414062 40.488282v-23.695313c0-4.714843-3.820313-8.535156-8.53125-8.535156-4.714844 0-8.535156 3.820313-8.535156 8.535156v23.695313c-8.53125-3.410156-20.410157-13.0625-20.410157-40.488282-.101562-12.714843-2.148437-25.335937-6.074219-37.429687-.078124-.195313-.113281-.390625-.199218-.570313-7.351563-20.699218-16.507813-40.714843-27.367188-59.808593-12.128906-22.121094-22.992187-44.914063-32.535156-68.269531-24.882812-63.09375 22.253906-90.109376 24.242188-91.210938 2.679687-1.457031 4.378906-4.230469 4.460937-7.28125.078125-3.046875-1.476563-5.90625-4.078125-7.5-2.597656-1.59375-5.851562-1.675781-8.53125-.21875-.632812.339844-62.5 35.054688-31.976562 112.484375 9.761718 23.9375 20.871093 47.296875 33.28125 69.972656 5.121093 9.761719 9.917968 18.886719 14.183593 27.707031-7.800781 5.449219-17.089843 8.371094-26.609375 8.363282-22.371094.175781-44.496094 4.710937-65.132812 13.347656 8.660156-20.644531 13.210937-42.777344 13.40625-65.160156-.042969-9.777344 2.996094-19.316406 8.6875-27.265625 1.699218-2.40625 2.042968-5.519531.898437-8.234375-1.140625-2.71875-3.605469-4.652344-6.515625-5.121094-9.78125-1.5-18.824218-6.105469-25.796875-13.132812-15.949219-15.675782-34.785156-28.117188-55.464843-36.632813 20.683593-8.507813 39.519531-20.949219 55.464843-36.632813 6.878907-6.914062 15.757813-11.480468 25.378907-13.054687zm0 0"/><path d="m236.617188 187.4375c2.175781.621094 4.511718.351562 6.488281-.75 1.980469-1.101562 3.4375-2.941406 4.058593-5.121094l8.867188-31.007812 8.863281 31.007812c1.046875 3.664063 4.390625 6.195313 8.203125 6.195313.792969-.003907 1.582032-.113281 2.34375-.324219 4.53125-1.296875 7.148438-6.015625 5.855469-10.546875l-17.066406-59.730469c-1.050781-3.65625-4.398438-6.175781-8.199219-6.175781-3.804688 0-7.148438 2.519531-8.203125 6.175781l-17.066406 59.730469c-1.292969 4.53125 1.328125 9.25 5.855469 10.546875zm0 0"/><path d="m180.664062 251.292969c-1.257812 1.882812-1.714843 4.1875-1.269531 6.410156.441407 2.21875 1.75 4.171875 3.632813 5.425781l1.648437 1.101563c-3.015625 23.894531-.351562 41.121093 8.085938 50.96875 5.152343 5.976562 12.714843 9.316406 20.601562 9.097656 18.484375 0 23.578125-12.679687 25.046875-25.675781.175782 0 .363282.074218.542969.074218 3.761719.003907 7.085937-2.453124 8.175781-6.054687 1.09375-3.597656-.300781-7.488281-3.429687-9.578125l-45.226563-30.179688-.214844-.136718-5.714843-3.816406c-1.886719-1.269532-4.203125-1.734376-6.433594-1.289063-2.230469.441406-4.191406 1.757813-5.445313 3.652344zm32.699219 55.9375c-2.902343.246093-5.746093-.917969-7.636719-3.132813-4.894531-8.875-6.644531-19.144531-4.96875-29.140625l21.136719 14.078125c-.554687 18.195313-3.488281 18.195313-8.53125 18.195313zm0 0"/><path d="m265.996094 294.898438c1.582031 2.375 4.246094 3.796874 7.101562 3.796874.179688 0 .367188-.066406.542969-.074218 1.476563 12.996094 6.574219 25.675781 25.054687 25.675781 7.886719.21875 15.449219-3.121094 20.601563-9.097656 8.4375-9.847657 11.09375-27.042969 8.089844-50.96875l1.644531-1.101563c2.539062-1.691406 3.980469-4.609375 3.78125-7.652344-.195312-3.042968-2.003906-5.746093-4.734375-7.097656-2.734375-1.351562-5.980469-1.140625-8.519531.550782l-5.714844 3.816406-.214844.136718-45.226562 30.179688c-1.890625 1.25-3.207032 3.199219-3.65625 5.417969-.453125 2.222656 0 4.53125 1.25 6.417969zm40.378906 9.199218c-1.898438 2.226563-4.761719 3.394532-7.679688 3.132813-5.042968 0-7.976562 0-8.53125-18.195313l21.128907-14.078125c1.691406 9.988281-.039063 20.257813-4.917969 29.140625zm0 0"/><path d="m238.964844 332.828125c-4.714844 0-8.535156 3.820313-8.535156 8.535156v51.199219c0 4.714844 3.820312 8.535156 8.535156 8.535156 4.710937 0 8.53125-3.820312 8.53125-8.535156v-51.199219c0-4.714843-3.820313-8.535156-8.53125-8.535156zm0 0"/><path d="m273.097656 332.828125c-4.714844 0-8.535156 3.820313-8.535156 8.535156v51.199219c0 4.714844 3.820312 8.535156 8.535156 8.535156 4.710938 0 8.53125-3.820312 8.53125-8.535156v-51.199219c0-4.714843-3.820312-8.535156-8.53125-8.535156zm0 0"/></svg>