<svg height="504pt" viewBox="0 0 504 504.842" width="504pt" xmlns="http://www.w3.org/2000/svg"><path d="m495.632812 310.296875c0 82.507813-41.042968 133.289063-103.824218 160.148437l-55.566406 16.871094h-.082032c-27.664062 5.277344-55.777344 7.835938-83.9375 7.636719-1.929687 0-3.859375 0-5.789062-.082031h-.335938c-131.609375-1.511719-237.285156-52.207032-237.285156-184.574219 0-67.984375 27.867188-144.53125 72.773438-203.539063l71.511718-67.566406c26.996094-18.09375 58.300782-28.71875 90.734375-30.804687 2.769531-.167969 5.621094-.25 8.390625-.25 35.351563.546875 69.785156 11.335937 99.128906 31.054687l71.511719 67.566406c44.90625 59.007813 72.769531 135.554688 72.769531 203.539063zm0 0" fill="#00828e"/><path d="m470.453125 310.296875c0 82.507813-40.289063 133.289063-101.972656 160.148437l-54.554688 16.871094h-.085937c-23.613282 4.609375-47.582032 7.136719-71.636719 7.554688h-.328125c-129.277344-1.511719-233.0625-52.207032-233.0625-184.574219 0-67.984375 27.371094-144.53125 71.472656-203.539063l70.234375-67.566406c26.414063-18.054687 57.1875-28.691406 89.113281-30.804687 31.925782 2.113281 62.699219 12.75 89.113282 30.804687l70.238281 67.566406c44.097656 59.007813 71.46875 135.554688 71.46875 203.539063zm0 0" fill="#00bbd3"/><path d="m210.171875 272.78125v.082031c-.082031 2.6875-.167969 5.960938-.167969 9.652344v.253906c-.671875 47.671875 3.527344 169.546875 126.15625 204.546875h.082032c18.863281 5.257813 38.265624 8.328125 57.832031 9.148438 3.269531.203125 6.355469-1.519532 7.90625-4.402344 1.550781-2.886719 1.28125-6.410156-.6875-9.027344l-9.484375-12.589844-1.511719-2.015624c-2.265625-2.972657-2.265625-7.097657 0-10.070313l12.925781-17.289063c1.726563-2.292968 2.164063-5.304687 1.160156-7.992187-1.003906-2.683594-3.308593-4.671875-6.113281-5.269531-32.3125-6.464844-97.195312-34.917969-103.492187-141.851563-.09375-.496093-.152344-1.003906-.167969-1.511719-.167969-3.609374-.332031-7.382812-.332031-11.160156v-.421875zm0 0" fill="#00bbd3"/><path d="m134.714844 201.183594c-2.804688 0-5.605469.167968-8.390625.503906-38.097657 4.421875-66.835938 36.6875-66.835938 75.039062 0 38.351563 28.738281 70.613282 66.835938 75.035157 2.785156.339843 5.585937.507812 8.390625.503906 41.722656 0 75.542968-33.820313 75.542968-75.539063 0-41.722656-33.820312-75.542968-75.542968-75.542968zm0 0" fill="#fff"/><path d="m369.734375 201.183594c-2.808594 0-5.609375.167968-8.394531.503906-38.097656 4.421875-66.832032 36.6875-66.832032 75.039062 0 38.351563 28.734376 70.613282 66.832032 75.035157 2.785156.339843 5.585937.507812 8.394531.503906 41.71875 0 75.539063-33.820313 75.539063-75.539063 0-41.722656-33.820313-75.542968-75.539063-75.542968zm0 0" fill="#fff"/><path d="m185.078125 276.726562c0 27.8125-22.546875 50.359376-50.363281 50.359376-27.8125 0-50.359375-22.546876-50.359375-50.359376 0-27.816406 22.546875-50.363281 50.359375-50.363281 27.816406 0 50.363281 22.546875 50.363281 50.363281zm0 0" fill="#4cae50"/><path d="m420.09375 276.726562c0 27.8125-22.546875 50.359376-50.359375 50.359376-27.816406 0-50.363281-22.546876-50.363281-50.359376 0-27.816406 22.546875-50.363281 50.363281-50.363281 27.8125 0 50.359375 22.546875 50.359375 50.363281zm0 0" fill="#4cae50"/><path d="m159.894531 276.726562c0 13.90625-11.273437 25.179688-25.179687 25.179688s-25.179688-11.273438-25.179688-25.179688c0-13.910156 11.273438-25.183593 25.179688-25.183593s25.179687 11.273437 25.179687 25.183593zm0 0" fill="#37474f"/><path d="m394.914062 276.726562c0 13.90625-11.273437 25.179688-25.179687 25.179688-13.910156 0-25.183594-11.273438-25.183594-25.179688 0-13.910156 11.273438-25.183593 25.183594-25.183593 13.90625 0 25.179687 11.273437 25.179687 25.183593zm0 0" fill="#37474f"/><path d="m198.457031 72.183594c-26.808593-24.1875-96.851562-76.6875-182.867187-58.894532-2.875.59375-5.238282 2.632813-6.246094 5.390626-1.003906 2.761718-.507812 5.84375 1.308594 8.148437l21.503906 26.859375c2.28125 2.851562 2.453125 6.855469.429688 9.894531l-19.507813 29.277344c-1.800781 2.710937-1.875 6.214844-.1875 9 1.6875 2.78125 4.832031 4.335937 8.070313 3.992187 28.746093-3.359374 88.84375-4.601562 119.773437 29.277344 3.21875 3.480469 7.769531 5.425782 12.511719 5.351563 4.738281-.074219 9.226562-2.164063 12.332031-5.746094l34.203125-39.082031c6.050781-6.867188 5.460938-17.324219-1.324219-23.46875zm0 0" fill="#00bbd3"/><path d="m472.300781 53.710938c-2.265625 2.863281-2.433593 6.859374-.421875 9.90625l19.472656 29.207031c1.816407 2.710937 1.894532 6.230469.203126 9.019531-1.691407 2.789062-4.847657 4.34375-8.089844 3.992188-8.46875-1.011719-16.988282-1.515626-25.515625-1.511719-5.992188-.160157-11.988281.007812-17.964844.503906-27.027344 1.847656-57.15625 9.398437-76.296875 30.300781-3.226562 3.46875-7.773438 5.40625-12.515625 5.328125-4.738281-.082031-9.21875-2.171875-12.328125-5.75l-2.9375-3.273437-31.222656-35.753906c-6.039063-6.890626-5.441406-17.347657 1.34375-23.503907 21.234375-19.21875 69.75-56.320312 131.945312-61.773437 17-1.605469 34.148438-.644532 50.863282 2.851562 2.890624.59375 5.265624 2.644532 6.277343 5.414063 1.007813 2.773437.507813 5.871093-1.324219 8.183593zm0 0" fill="#00828e"/><path d="m439.925781 53.710938c-2.355469 2.828124-2.535156 6.878906-.433593 9.90625l20.21875 29.207031c2.570312 3.742187 1.679687 8.851562-2.007813 11.5-1.800781 1.253906-4.007813 1.789062-6.183594 1.511719-3.753906-.421876-7.933593-.839844-12.464843-1.007813-30.949219-2.015625-79.335938.335937-108.101563 26.605469l-32.429687-35.753906c-3.015626-3.265626-4.570313-7.613282-4.304688-12.046876.261719-4.4375 2.320312-8.570312 5.695312-11.457031 22.058594-19.21875 72.445313-56.320312 137.042969-61.773437 6.757813.589844 13.484375 1.542968 20.144531 2.851562 2.957032.484375 5.433594 2.507813 6.496094 5.3125 1.0625 2.804688.546875 5.964844-1.351562 8.285156zm0 0" fill="#00bbd3"/><path d="m126.324219 243.152344c0 13.90625-11.273438 25.179687-25.183594 25.179687-13.90625 0-25.179687-11.273437-25.179687-25.179687s11.273437-25.179688 25.179687-25.179688c13.910156 0 25.183594 11.273438 25.183594 25.179688zm0 0" fill="#fff"/><path d="m361.339844 243.152344c0 13.90625-11.273438 25.179687-25.179688 25.179687s-25.183594-11.273437-25.183594-25.179687 11.277344-25.179688 25.183594-25.179688 25.179688 11.273438 25.179688 25.179688zm0 0" fill="#fff"/><path d="m134.714844 243.152344c-18.542969 0-33.574219 15.03125-33.574219 33.574218 0 18.539063 15.03125 33.570313 33.574219 33.570313 18.542968 0 33.574218-15.03125 33.574218-33.570313 0-18.542968-15.03125-33.574218-33.574218-33.574218zm0 50.359375c-9.269532 0-16.785156-7.515625-16.785156-16.785157 0-9.273437 7.515624-16.789062 16.785156-16.789062 9.273437 0 16.789062 7.515625 16.789062 16.789062 0 9.269532-7.515625 16.785157-16.789062 16.785157zm0 0"/><path d="m369.734375 310.296875c18.539063 0 33.570313-15.03125 33.570313-33.570313 0-18.542968-15.03125-33.574218-33.570313-33.574218-18.542969 0-33.574219 15.03125-33.574219 33.574218 0 18.539063 15.03125 33.570313 33.574219 33.570313zm0-50.359375c9.269531 0 16.785156 7.515625 16.785156 16.789062 0 9.269532-7.515625 16.785157-16.785156 16.785157-9.273437 0-16.789063-7.515625-16.789063-16.785157 0-9.273437 7.515626-16.789062 16.789063-16.789062zm0 0"/><path d="m482.507812 114.195312c6.496094.738282 12.832032-2.363281 16.234376-7.949218 3.402343-5.585938 3.25-12.636719-.386719-18.070313l-19.507813-29.226562 21.503906-26.859375c3.648438-4.582032 4.660157-10.726563 2.671876-16.238282-1.988282-5.507812-6.691407-9.59375-12.425782-10.789062-47.851562-9.089844-97.378906-.457031-139.332031 24.289062-60.226563-39.136718-137.855469-39.136718-198.082031 0-41.960938-24.726562-91.480469-33.359374-139.332032-24.289062-5.730468 1.199219-10.425781 5.28125-12.414062 10.785156s-.980469 11.644532 2.660156 16.226563l21.503906 26.875-19.507812 29.257812c-3.636719 5.433594-3.789062 12.488281-.386719 18.074219 3.402344 5.585938 9.738281 8.6875 16.234375 7.945312 14.765625-1.707031 29.664063-1.988281 44.484375-.839843-41.53125 59.257812-66.003906 131.90625-66.003906 196.910156 0 124.492187 89.421875 193.050781 251.800781 193.050781 28.058594.171875 56.066406-2.328125 83.652344-7.460937 18.84375 5.089843 38.191406 8.09375 57.695312 8.957031h1.039063c6.351563-.019531 12.148437-3.617188 14.984375-9.300781 2.832031-5.683594 2.214844-12.480469-1.59375-17.558594l-3.25-4.324219c64.957031-31.484375 99.277344-87.710937 99.277344-163.363281 0-65.003906-24.476563-137.652344-65.957032-196.933594 14.804688-1.152343 29.6875-.875 44.4375.832031zm4.734376 196.101563c0 67.695313-28.539063 116.671875-84.773438 145.777344l7.46875-9.984375c3.496094-4.65625 4.339844-10.785156 2.230469-16.210938-2.019531-5.3125-6.640625-9.207031-12.21875-10.296875-21.738281-4.347656-67.011719-20.722656-87.167969-81.417969 28.851562 26.753907 72.421875 29.859376 104.773438 7.464844 32.351562-22.394531 44.785156-64.269531 29.90625-100.691406-14.882813-36.421875-53.082032-57.605469-91.859376-50.9375-38.777343 6.667969-67.707031 39.394531-69.570312 78.695312 0 .21875-.117188.402344-.117188.621094v1.335938c0 .703125-.109374 1.394531-.109374 2.105468.011718 3.15625.203124 6.308594.574218 9.445313 0 .226563 0 .453125.058594.6875 7.207031 119.421875 86.148438 144.367187 110.070312 149.183594l-12.851562 17.191406c-4.535156 5.964844-4.566406 14.21875-.074219 20.21875l10.910157 14.628906c-18.917969-.804687-37.683594-3.765625-55.933594-8.828125-.183594-.058594-.378906-.101562-.570313-.144531-80.863281-23.324219-121.09375-89.339844-119.589843-196.625 0-.375 0-.695313 0-1.066406.09375-1.578125.242187-3.128907.242187-4.722657 0-.800781-.097656-1.578124-.117187-2.367187 0-.488281 0-1.023437 0-1.496094v-.082031c-.035157-.265625-.089844-.523438-.160157-.78125-2.324219-40.910156-33.851562-74.164062-74.582031-78.664062s-78.753906 21.070312-89.953125 60.488281 7.699219 81.160156 44.710937 98.75c37.011719 17.585937 81.3125 5.878906 104.800782-27.695313 2.480468 30.007813 10.730468 59.257813 24.300781 86.140625h-50.957031c-13.90625 0-25.179688-11.273437-25.179688-25.179687 0-4.636719-3.757812-8.394532-8.394531-8.394532s-8.394531 3.757813-8.394531 8.394532c.027344 23.167968 18.800781 41.9375 41.96875 41.96875h61.011718c16.398438 24.171875 38.984376 43.496094 65.402344 55.957031-16.894531 1.867187-33.878906 2.800781-50.875 2.796875-87.769531 0-235.015625-22.90625-235.015625-176.265625 0-64.265625 25.390625-136.5 68.03125-194.316406 23.75 4.734375 47.21875 15.511719 58.753907 38.613281 1.339843 2.683594 4.007812 4.445312 7.003906 4.628906 2.996094.179688 5.859375-1.25 7.511718-3.753906 1.65625-2.5 1.847657-5.695312.507813-8.378906-15.109375-30.277344-45.636719-43.160156-74.871094-48.222656-.605469-.171876-1.226562-.273438-1.855469-.300782-20.605468-3.089844-41.53125-3.433594-62.226562-1.03125l19.503906-29.277344c4.0625-6.078124 3.722656-14.085937-.835937-19.800781l-21.4375-26.953125c104.414062-21.628906 185.929687 66.898438 186.734375 67.796875 3.109375 3.441407 8.414062 3.714844 11.859375.605469 3.441406-3.105469 3.710937-8.414062.605469-11.855469-14.066407-14.777343-29.847657-27.832031-47.003907-38.878906 51.085938-29.984375 114.394531-29.984375 165.480469 0-17.160156 11.050781-32.9375 24.105469-47.003906 38.890625-3.105469 3.441406-2.835938 8.746094.605468 11.855469 3.445313 3.105469 8.75 2.832031 11.859376-.609375.796874-.90625 82.328124-89.3671878 186.8125-67.746094l-21.503907 26.859375c-4.578125 5.707031-4.917969 13.722656-.839843 19.792969l19.589843 29.261718c-20.738281-2.414062-41.703125-2.066406-62.347656 1.03125-.609375.027344-1.214844.128907-1.804687.300782-29.25 5.035156-59.742188 17.945312-74.886719 48.222656-2.070313 4.148438-.386719 9.191406 3.761719 11.261719 4.148437 2.074219 9.191406.390625 11.261718-3.757813 11.542969-23.082031 35.003906-33.851562 58.757813-38.613281 42.621093 57.875 68.011719 130.109375 68.011719 194.375zm-184.253907-26.328125c-.132812-2.953125-.253906-6.085938-.292969-9.441406 1.425782-35.886719 31.015626-64.199219 66.929688-64.042969s65.253906 28.722656 66.371094 64.621094c1.117187 35.894531-26.390625 66.230469-62.226563 68.621093-35.835937 2.386719-67.125-24.03125-70.78125-59.757812zm-168.273437 59.902344c-36.78125.046875-66.75-29.507813-67.222656-66.285156-.472657-36.777344 28.730468-67.089844 65.503906-67.988282 36.769531-.898437 67.417968 27.953125 68.742187 64.710938-.058593 2.089844-.101562 4.449218-.109375 7.117187-2.488281 35.136719-31.6875 62.390625-66.914062 62.445313zm0 0"/><path d="m285.796875 142.429688c4.636719 0 8.394531-3.757813 8.394531-8.394532 0-4.632812-3.757812-8.390625-8.394531-8.390625h-25.179687v-16.789062c0-4.636719-3.757813-8.394531-8.394532-8.394531-4.632812 0-8.390625 3.757812-8.390625 8.394531v16.789062h-25.179687c-4.636719 0-8.394532 3.757813-8.394532 8.390625 0 4.636719 3.757813 8.394532 8.394532 8.394532h25.179687v25.179687h-25.179687c-4.636719 0-8.394532 3.757813-8.394532 8.394531 0 4.636719 3.757813 8.394532 8.394532 8.394532h25.179687v41.964843c0 4.636719 3.757813 8.394531 8.390625 8.394531 4.636719 0 8.394532-3.757812 8.394532-8.394531v-41.964843h25.179687c4.636719 0 8.394531-3.757813 8.394531-8.394532 0-4.636718-3.757812-8.394531-8.394531-8.394531h-25.179687v-25.179687zm0 0"/></svg>