<svg height="504pt" viewBox="0 0 504.13667 504" width="504pt" xmlns="http://www.w3.org/2000/svg"><path d="m336.179688 405.304688-38.445313 82.339843c-14.449219 5.632813-29.90625 8.234375-45.40625 7.636719-2.769531 0-5.539063-.082031-8.308594-.167969-12.722656-.1875-25.296875-2.722656-37.101562-7.46875l-38.441407-82.339843c1.308594-29.398438 7.140626-58.414063 17.289063-86.035157h133.121094c10.152343 27.621094 15.984375 56.636719 17.292969 86.035157zm0 0" fill="#c42828"/><path d="m311.082031 405.304688-36.300781 82.339843c-11.0625 4.726563-22.933594 7.261719-34.960938 7.46875-12.054687-.199219-23.953124-2.734375-35.042968-7.46875l-36.300782-82.339843c1.222657-29.320313 6.722657-58.304688 16.324219-86.035157h109.957031c9.601563 27.730469 15.101563 56.714844 16.324219 86.035157zm0 0" fill="#f34335"/><path d="m428.589844 193.117188c0 88.046874-78.898438 134.296874-176.261719 134.296874-2.601563 0-5.203125 0-7.722656-.167968-.445313.082031-.898438.082031-1.34375 0-93.167969-2.769532-167.195313-48.851563-167.195313-134.128906 0-85.277344 74.027344-178.613282 167.195313-184.402344h1.34375c2.519531-.167969 5.121093-.253906 7.722656-.253906 97.363281 0 176.261719 96.609374 176.261719 184.65625zm0 0" fill="#c42828"/><path d="m403.410156 193.117188c0 85.277343-72.183594 131.359374-163.019531 134.128906-.429687.082031-.875.082031-1.308594 0-90.832031-2.769532-163.015625-48.851563-163.015625-134.128906 0-85.277344 72.183594-178.613282 163.015625-184.402344h1.308594c90.835937 5.789062 163.019531 99.125 163.019531 184.402344zm0 0" fill="#f34335"/><path d="m170.179688 495.28125c-43.644532 0-55.773438-31.542969-63.695313-61.808594-.777344-2.875.023437-5.949218 2.113281-8.074218 2.085938-2.125 5.144532-2.984376 8.03125-2.257813l9.546875 2.382813c2.507813.628906 5.164063.066406 7.203125-1.523438 2.035156-1.589844 3.226563-4.03125 3.226563-6.617188v-16.394531c.003906-3.019531 1.628906-5.808593 4.261719-7.296875 2.628906-1.488281 5.855468-1.449218 8.449218.105469l22.769532 13.65625c3.6875 2.207031 8.449218 1.273437 11.027343-2.167969l12.734375-16.96875c1.753906-2.34375 4.605469-3.601562 7.519532-3.324218 2.914062.28125 5.472656 2.058593 6.75 4.691406 14.695312 29.863281 43.722656 105.597656-39.9375 105.597656zm0 0" fill="#ff5722"/><path d="m398.207031 433.503906c-7.976562 30.21875-20.0625 61.777344-63.707031 61.777344-4.683594.023438-9.363281-.230469-14.019531-.753906-60.429688-7.554688-43.644531-65.386719-29.710938-96.695313 1.257813-2.9375 2.601563-5.707031 3.777344-8.140625 1.28125-2.628906 3.84375-4.402344 6.757813-4.675781 2.914062-.273437 5.757812.988281 7.511718 3.332031l9.484375 12.589844 3.273438 4.367188c2.570312 3.425781 7.308593 4.367187 10.996093 2.179687l10.324219-6.210937 12.421875-7.46875c2.597656-1.582032 5.847656-1.632813 8.496094-.136719 2.648438 1.5 4.277344 4.3125 4.261719 7.355469v16.367187c.007812 2.242187.914062 4.390625 2.515625 5.960937 2.042968 2.101563 5.058594 2.933594 7.890625 2.179688l9.570312-2.433594c2.898438-.6875 5.945313.195313 8.023438 2.328125 2.082031 2.132813 2.890625 5.199219 2.132812 8.078125zm0 0" fill="#d74315"/><path d="m373.023438 433.503906c-7.214844 27.449219-17.875 56.070313-52.542969 61.023438-60.429688-7.554688-43.644531-65.386719-29.710938-96.695313l5.625 7.472657c2.570313 3.425781 7.308594 4.367187 10.992188 2.179687l10.914062-6.546875 11.832031-7.132812c2.601563-1.582032 5.851563-1.632813 8.5-.136719 2.648438 1.5 4.277344 4.3125 4.261719 7.355469v16.367187c0 2.578125 1.1875 5.015625 3.21875 6.605469 2.035157 1.589844 4.683594 2.15625 7.1875 1.535156l9.566407-2.433594c2.902343-.703125 5.960937.175782 8.042968 2.3125 2.085938 2.136719 2.890625 5.210938 2.113282 8.09375zm0 0" fill="#ff5722"/><path d="m193.574219 92.394531c-2.8125-.03125-5.621094.191407-8.394531.671875-28.886719 4.148438-50.335938 28.898438-50.335938 58.082032 0 29.1875 21.449219 53.9375 50.335938 58.085937 2.773437.480469 5.582031.703125 8.394531.671875 32.449219 0 58.753906-26.308594 58.753906-58.757812 0-32.445313-26.304687-58.753907-58.753906-58.753907zm0 0" fill="#f4f4f4"/><path d="m311.082031 92.394531c-2.8125-.03125-5.621093.191407-8.394531.671875-28.886719 4.148438-50.335938 28.898438-50.335938 58.082032 0 29.1875 21.449219 53.9375 50.335938 58.085937 2.773438.480469 5.582031.703125 8.394531.671875 32.449219 0 58.753907-26.308594 58.753907-58.757812 0-32.445313-26.304688-58.753907-58.753907-58.753907zm0 0" fill="#f4f4f4"/><path d="m227.148438 151.148438c0 18.542968-15.03125 33.574218-33.574219 33.574218s-33.574219-15.03125-33.574219-33.574218c0-18.539063 15.03125-33.570313 33.574219-33.570313s33.574219 15.03125 33.574219 33.570313zm0 0" fill="#00bbd3"/><path d="m344.65625 151.148438c0 18.542968-15.03125 33.574218-33.574219 33.574218s-33.574219-15.03125-33.574219-33.574218c0-18.539063 15.03125-33.570313 33.574219-33.570313s33.574219 15.03125 33.574219 33.570313zm0 0" fill="#00bbd3"/><path d="m210.359375 151.148438c0 9.273437-7.515625 16.789062-16.785156 16.789062-9.273438 0-16.789063-7.515625-16.789063-16.789062 0-9.269532 7.515625-16.785157 16.789063-16.785157 9.269531 0 16.785156 7.515625 16.785156 16.785157zm0 0" fill="#37474f"/><path d="m327.867188 151.148438c0 9.273437-7.515626 16.789062-16.785157 16.789062-9.273437 0-16.789062-7.515625-16.789062-16.789062 0-9.269532 7.515625-16.785157 16.789062-16.785157 9.269531 0 16.785157 7.515625 16.785157 16.785157zm0 0" fill="#37474f"/><path d="m59.277344 100.789062c0 13.90625-11.273438 25.179688-25.179688 25.179688s-25.179687-11.273438-25.179687-25.179688 11.273437-25.179687 25.179687-25.179687 25.179688 11.273437 25.179688 25.179687zm0 0" fill="#00bbd3"/><path d="m495.738281 100.789062c0 13.90625-11.273437 25.179688-25.179687 25.179688-13.910156 0-25.183594-11.273438-25.183594-25.179688s11.273438-25.179687 25.183594-25.179687c13.90625 0 25.179687 11.273437 25.179687 25.179687zm0 0" fill="#00828e"/><path d="m470.558594 100.789062c0-13.90625-5.636719-25.179687-12.589844-25.179687-6.957031 0-12.59375 11.273437-12.59375 25.179687s5.636719 25.179688 12.59375 25.179688c6.953125 0 12.589844-11.273438 12.589844-25.179688zm0 0" fill="#00bbd3"/><path d="m193.574219 125.96875c0 9.273438-7.515625 16.789062-16.789063 16.789062-9.269531 0-16.785156-7.515624-16.785156-16.789062 0-9.269531 7.515625-16.785156 16.785156-16.785156 9.273438 0 16.789063 7.515625 16.789063 16.785156zm0 0" fill="#f4f4f4"/><path d="m311.082031 125.96875c0 9.273438-7.515625 16.789062-16.789062 16.789062-9.269531 0-16.785157-7.515624-16.785157-16.789062 0-9.269531 7.515626-16.785156 16.785157-16.785156 9.273437 0 16.789062 7.515625 16.789062 16.785156zm0 0" fill="#f4f4f4"/><path d="m477.0625 67.871094c-4.917969-15.578125-13.917969-29.550782-26.070312-40.464844-30.871094-27.832031-66.6875-25.179688-99.117188 6.804688-28.660156-21.765626-63.5625-33.734376-99.546875-34.1445318-35.988281.4101558-70.886719 12.3789058-99.546875 34.1445318-32.441406-32.011719-68.253906-34.636719-99.125-6.796876-12.132812 10.921876-21.117188 24.890626-26.019531 40.457032-16.730469 3.128906-28.535157 18.183594-27.5820315 35.175781.9492185 16.988281 14.3632815 30.632813 31.3359375 31.875s32.226563-10.308594 35.640625-26.980469-6.078125-33.285156-22.171875-38.8125c4.25-11.207031 11.117187-21.238281 20.035156-29.25 23.894531-21.539062 48.992188-19.859375 74.699219 4.882813-44.054688 38.476562-71.921875 95.90625-71.921875 148.355469 0 64.570312 40.289063 112.078124 107.152344 132.136718-7.027344 21.347656-11.65625 43.410156-13.800781 65.78125l-20.09375-12.0625c-2.59375-1.558594-5.824219-1.597656-8.457032-.109375-2.628906 1.488281-4.257812 4.277344-4.257812 7.304688v31.214843l-23.140625-5.785156c-2.859375-.714844-5.886719.121094-7.972657 2.207032-2.082031 2.082031-2.921874 5.105468-2.210937 7.96875l.957031 3.859374c8.160156 32.9375 19.304688 78.058594 74.332032 78.058594 12.792968.398438 25.519531-1.957031 37.320312-6.90625 14.390625 5.023438 29.589844 7.359375 44.828125 6.890625 15.238281.464844 30.433594-1.878906 44.828125-6.910156 11.800781 4.953125 24.527344 7.308594 37.316406 6.910156 55.011719 0 66.175782-45.105469 74.332032-78.058593l.957031-3.863282c.714843-2.859375-.125-5.882812-2.210938-7.96875-2.085937-2.082031-5.109375-2.917968-7.96875-2.203125l-23.140625 5.78125v-31.195312c0-3.027344-1.628906-5.816407-4.261718-7.304688-2.632813-1.488281-5.863282-1.449219-8.453126.109375l-20.09375 12.0625c-2.144531-22.371094-6.773437-44.433594-13.800781-65.78125 66.863281-20.058594 107.152344-67.566406 107.152344-132.136718 0-52.449219-27.867187-109.878907-71.925781-148.355469 25.703125-24.742188 50.816406-26.421875 74.703125-4.890625 8.933593 8.011718 15.820312 18.042968 20.085937 29.257812-15.796875 5.5-25.070312 21.851563-21.679687 38.230469 3.386719 16.378906 18.386719 27.707031 35.066406 26.488281s29.875-14.609375 30.84375-31.308594c.972656-16.695312-10.582031-31.523437-27.007813-34.667968zm-426.175781 32.917968c0 9.273438-7.519531 16.789063-16.789063 16.789063-9.269531 0-16.785156-7.515625-16.785156-16.789063 0-9.269531 7.515625-16.785156 16.785156-16.785156 4.453125 0 8.722656 1.765625 11.871094 4.914063 3.148438 3.148437 4.917969 7.417969 4.917969 11.871093zm63.695312 330.492188 19.984375 4.996094c2.507813.625 5.167969.0625 7.203125-1.527344 2.039063-1.589844 3.230469-4.03125 3.230469-6.617188v-27.136718l29.25 17.542968c3.691406 2.21875 8.457031 1.285157 11.039062-2.15625l17.308594-23.074218c10.246094 20.808594 23.023438 56.042968 11.707032 76.027344-6.589844 11.675781-21.4375 17.550781-44.125 17.550781-37.660157 0-48.09375-26.859375-55.597657-55.605469zm248.304688 3.464844c2.035156 1.59375 4.691406 2.15625 7.199219 1.53125l19.988281-4.996094c-7.503907 28.746094-17.9375 55.605469-55.601563 55.605469-22.660156 0-37.535156-5.875-44.121094-17.550781-11.316406-19.984376 1.457032-55.21875 11.707032-76.027344l17.308594 23.074218c2.582031 3.441407 7.347656 4.375 11.035156 2.15625l29.253906-17.542968v27.136718c0 2.585938 1.191406 5.027344 3.230469 6.613282zm-35.464844-35.59375-19.808594-26.414063c-1.664062-2.246093-4.347656-3.507812-7.140625-3.359375-2.789062.144532-5.324218 1.664063-6.765625 4.054688-1.621093 2.703125-39.363281 66.308594-17.980469 104.144531 1.355469 2.355469 2.921876 4.585937 4.675782 6.65625-9.238282 1.878906-18.648438 2.765625-28.074219 2.652344-9.425781.117187-18.839844-.769531-28.078125-2.644531 1.757812-2.070313 3.324219-4.296876 4.675781-6.652344 21.386719-37.773438-16.359375-101.445313-17.976562-104.148438-1.441407-2.394531-3.976563-3.917968-6.765625-4.0625-2.785156-.105468-5.449219 1.144532-7.144532 3.359375l-19.808593 26.414063c1.671875-23.71875 6.339843-47.125 13.902343-69.667969 20.109376 4.316406 40.628907 6.4375 61.195313 6.320313 20.570313.101562 41.085937-2.03125 61.195313-6.359376 7.5625 22.554688 12.234374 45.976563 13.898437 69.707032zm92.773437-206.035156c0 92.925781-90.429687 125.902343-167.867187 125.902343s-167.871094-32.976562-167.871094-125.902343c0-48.238282 25.695313-101.117188 66.257813-136.242188 3.796875 4.625 7.28125 9.496094 10.433594 14.578125 2.425781 3.785156 7.402343 4.984375 11.289062 2.726563 3.882812-2.261719 5.296875-7.183594 3.207031-11.160157-3.539062-5.761719-7.464843-11.273437-11.75-16.5 25.625-18.941406 56.570313-29.320312 88.433594-29.664062 31.855469.335937 62.796875 10.703125 88.425781 29.628906-4.289062 5.226563-8.214844 10.742187-11.753906 16.5-2.183594 3.996094-.789062 9.003906 3.148438 11.289063 3.9375 2.289062 8.980468 1.019531 11.367187-2.859376 3.140625-5.085937 6.625-9.957031 10.421875-14.574218 40.566406 35.160156 66.257812 88.039062 66.257812 136.277344zm50.363282-75.539063c-9.273438 0-16.789063-7.515625-16.789063-16.789063 0-9.269531 7.515625-16.785156 16.789063-16.785156 9.269531 0 16.785156 7.515625 16.785156 16.785156 0 9.273438-7.515625 16.789063-16.785156 16.789063zm0 0"/><path d="m311.082031 84.003906c-24.445312.015625-46.949219 13.3125-58.753906 34.714844-14.796875-26.824219-45.875-40.234375-75.542969-32.59375-29.664062 7.640625-50.402344 34.390625-50.402344 65.023438 0 30.636718 20.738282 57.386718 50.402344 65.027343 29.667969 7.640625 60.746094-5.769531 75.542969-32.59375 15.820313 28.683594 50.027344 41.761719 80.949219 30.957031 30.921875-10.808593 49.535156-42.351562 44.042968-74.644531-5.492187-32.292969-33.480468-55.910156-66.238281-55.890625zm-117.507812 117.507813c-27.8125 0-50.363281-22.546875-50.363281-50.363281 0-27.8125 22.550781-50.359376 50.363281-50.359376s50.359375 22.546876 50.359375 50.359376c-.027344 27.804687-22.558594 50.335937-50.359375 50.363281zm117.507812 0c-27.8125 0-50.359375-22.546875-50.359375-50.363281 0-27.8125 22.546875-50.359376 50.359375-50.359376s50.359375 22.546876 50.359375 50.359376c-.027344 27.804687-22.558594 50.335937-50.359375 50.363281zm0 0"/><path d="m193.574219 125.96875c-13.90625 0-25.179688 11.273438-25.179688 25.179688 0 13.910156 11.273438 25.183593 25.179688 25.183593s25.179687-11.273437 25.179687-25.183593c0-13.90625-11.273437-25.179688-25.179687-25.179688zm0 33.574219c-4.636719 0-8.394531-3.757813-8.394531-8.394531 0-4.632813 3.757812-8.390626 8.394531-8.390626 4.632812 0 8.394531 3.757813 8.394531 8.390626 0 4.636718-3.761719 8.394531-8.394531 8.394531zm0 0"/><path d="m311.082031 125.96875c-13.90625 0-25.179687 11.273438-25.179687 25.179688 0 13.910156 11.273437 25.183593 25.179687 25.183593s25.179688-11.273437 25.179688-25.183593c0-13.90625-11.273438-25.179688-25.179688-25.179688zm0 33.574219c-4.636719 0-8.394531-3.757813-8.394531-8.394531 0-4.632813 3.757812-8.390626 8.394531-8.390626s8.394531 3.757813 8.394531 8.390626c0 4.636718-3.757812 8.394531-8.394531 8.394531zm0 0"/><path d="m327.867188 251.871094h-142.6875c-4.636719 0-8.394532 3.757812-8.394532 8.394531s3.757813 8.394531 8.394532 8.394531h142.6875c4.636718 0 8.394531-3.757812 8.394531-8.394531s-3.757813-8.394531-8.394531-8.394531zm0 0"/></svg>