<svg height="512pt" viewBox="0 0 512 512.06418" width="512pt" xmlns="http://www.w3.org/2000/svg"><path d="m503.503906 359.863281v19.882813c.003906 39.828125-32.109375 72.207031-71.933594 72.535156-2.96875 0-5.929687-.167969-8.875-.511719-1.386718-.132812-2.757812-.390625-4.097656-.769531-35.007812-7.246094-60.125-38.0625-60.160156-73.8125v-26.878906c.046875-3.046875-1.5625-5.878906-4.203125-7.402344-2.636719-1.523438-5.894531-1.5-8.511719.0625h-.085937c-1.789063 1.023438-3.582031 2.046875-5.460938 2.988281-3.496093 1.960938-7.082031 3.667969-10.75 5.289063-3.066406 1.378906-5.058593 4.40625-5.121093 7.765625v117.503906c.238281 13.953125-10.335938 25.71875-24.234376 26.964844-3.34375.199219-6.691406-.324219-9.8125-1.535157-1.554687-.507812-3.042968-1.195312-4.4375-2.046874-7.914062-4.496094-12.777343-12.917969-12.714843-22.015626v-102.574218c.027343-2.300782-.886719-4.511719-2.53125-6.121094-1.644531-1.613281-3.875-2.484375-6.171875-2.410156-2.132813.085937-4.269532.171875-6.402344.171875h-1.960938c-.941406 0-1.707031 0-2.644531-.085938h-2.390625c-.539062.042969-1.082031.042969-1.621094 0-.253906.042969-.515624.042969-.769531 0-.167969 0-.339843.085938-.425781 0-.132812-.0625-.28125-.09375-.425781-.085937h-.511719c-.460938-.027344-.925781.03125-1.367188.171875h-.339843c-3.855469.9375-6.570313 4.390625-6.570313 8.359375v101.207031c.238282 13.953125-10.339844 25.71875-24.234375 26.964844-3.34375.199219-6.691406-.324219-9.816406-1.535157-1.550781-.507812-3.042969-1.195312-4.4375-2.046874-7.914063-4.496094-12.777344-12.917969-12.710937-22.015626v-118.871093c-.0625-3.359375-2.054688-6.386719-5.121094-7.765625-5.558594-2.449219-10.96875-5.214844-16.214844-8.277344-2.636719-1.539062-5.894531-1.539062-8.53125 0h-.085938c-2.59375 1.535156-4.179687 4.324219-4.183593 7.339844v26.878906c.164062 40.777344-32.359375 74.175781-73.128907 75.09375-2.710937 0-5.417968-.167969-8.105468-.511719-1.496094-.167969-2.976563-.421875-4.4375-.769531-14.472656-2.550781-27.800782-9.527344-38.144532-19.96875-13.617187-13.589844-21.265624-32.042969-21.25-51.285156v-19.882813c-.054687-9.523437 4.820313-18.398437 12.886719-23.464843 1.304688-.851563 2.707031-1.539063 4.179688-2.046876 2.140625-.792968 4.382812-1.28125 6.65625-1.453124 7.09375-.519532 14.085937 1.933593 19.296875 6.773437 5.214844 4.839844 8.175781 11.628906 8.183594 18.742187v19.96875c.015624 8.886719 5.125 16.980469 13.140624 20.820313 1.296876.632813 2.675782 1.09375 4.09375 1.367187.085938.085938.171876.085938.171876 0 1.699218.425782 3.453124.597657 5.207031.511719 11.277343-.679687 20.070312-10.035156 20.050781-21.335937v-80.296875c-.15625-12.082031-3.015625-23.980469-8.363281-34.816407-32.507813-68.464843-18.238281-149.992187 35.585937-203.347656l29.867188-24.152344c24.875-16.253906 53.476562-25.914062 83.113281-28.074218.769531-.085938 1.535156-.085938 2.304687-.167969.9375-.085937 1.875-.085937 2.730469-.085937 37.101563-1.863282 73.847657 7.988281 105.046875 28.160156l30.121094 24.148437c53.109375 53.265625 67.382812 133.992188 35.753906 202.238281-5.757812 11.78125-8.820312 24.695313-8.960937 37.804688v78.589844c-.007813 5.664062 2.230469 11.097656 6.230469 15.105468.59375.609376 1.25 1.15625 1.964843 1.621094 1.300781 1.085938 2.734375 2.003906 4.265625 2.730469 2.40625 1.054687 4.972656 1.6875 7.59375 1.878906 6.035156.070313 11.839844-2.300781 16.101563-6.574219 4.257812-4.277343 6.605469-10.089843 6.511719-16.125v-19.96875c0-6.789062 2.703124-13.296874 7.507812-18.089843 1.542969-1.546875 3.296875-2.871094 5.207031-3.925781 1.363281-.851563 2.824219-1.539063 4.351563-2.046876 3.328125-1.226562 6.878906-1.71875 10.410156-1.453124 13.710938 1.464843 24.019531 13.179687 23.722656 26.964843zm0 0" fill="#6a1b99"/><path d="m477.90625 359.863281v19.882813c.023438 34.957031-24.929688 64.933594-59.308594 71.253906-1.464844.339844-2.945312.597656-4.4375.769531-36.925781-5.527343-64.253906-37.242187-64.253906-74.582031v-26.878906c.027344-3.019532-1.570312-5.824219-4.183594-7.339844h-.085937c-2.625-1.582031-5.90625-1.582031-8.53125 0-1.792969 1.023438-3.585938 2.046875-5.460938 2.988281-1.136719-1.945312-3.003906-3.351562-5.179687-3.910156-2.179688-.5625-4.492188-.230469-6.425782.921875-5.246093 3.0625-10.65625 5.828125-16.214843 8.277344-3.066407 1.378906-5.058594 4.40625-5.121094 7.765625v117.503906c-.003906 9.488281-4.867187 18.308594-12.882813 23.382813-7.914062-4.496094-12.777343-12.917969-12.714843-22.015626v-102.574218c.027343-2.300782-.886719-4.511719-2.53125-6.121094-1.644531-1.613281-3.875-2.484375-6.171875-2.410156-2.132813.085937-4.269532.171875-6.402344.171875h-.339844c-.585937-.144531-1.191406-.199219-1.792968-.171875-.851563 0-1.621094.085937-2.472657.085937h-2.390625c-.539062.042969-1.082031.042969-1.621094 0-.253906.042969-.515624.042969-.769531 0-.167969 0-.339843.085938-.425781 0-.222656.0625-.453125.09375-.683594.085938h-1.960937c-2.132813 0-4.183594-.085938-6.316407-.171875h-.511718c-2.816406.085937-5.460938.171875-8.277344.171875s-5.546875-.085938-8.363281-.171875c-2.296875-.074219-4.527344.796875-6.171875 2.410156-1.644532 1.609375-2.558594 3.820312-2.53125 6.121094v101.207031c-.003906 9.488281-4.867188 18.308594-12.886719 23.382813-7.914063-4.496094-12.777344-12.917969-12.710937-22.015626v-118.871093c-.0625-3.359375-2.054688-6.386719-5.121094-7.765625-5.558594-2.449219-10.96875-5.214844-16.214844-8.277344-2.636719-1.539062-5.894531-1.539062-8.53125 0h-.085938c-1.917968-1.148438-4.21875-1.480469-6.386718-.921875-2.164063.5625-4.015625 1.96875-5.132813 3.910156-1.878906-.941406-3.671875-1.964843-5.460937-2.988281-2.628906-1.566406-5.894532-1.59375-8.546875-.074219-2.652344 1.523438-4.277344 4.355469-4.253907 7.414063v26.878906c.003907 35.734375-25.085937 66.558594-60.074218 73.8125-14.472656-2.550781-27.800782-9.527344-38.144532-19.96875-13.617187-13.589844-21.265624-32.042969-21.25-51.285156v-19.882813c-.054687-9.523437 4.820313-18.398437 12.886719-23.464843 1.910157 1.054687 3.664063 2.378906 5.207031 3.925781 4.804688 4.792969 7.507813 11.300781 7.507813 18.089843v19.96875c-.09375 6.035157 2.253906 11.847657 6.511719 16.125 4.261718 4.273438 10.066406 6.644532 16.101562 6.574219 2.621094-.191406 5.1875-.824219 7.59375-1.878906 2.957032 1.398437 6.207032 2.042969 9.472656 1.878906 1.066407-.082031 2.121094-.253906 3.15625-.511719.085938.085938.171876.085938.171876 0 1.699218.425782 3.453124.597657 5.207031.511719 11.277343-.679687 20.070312-10.035156 20.050781-21.335937v-80.296875c-.15625-12.082031-3.015625-23.980469-8.363281-34.816407-32.507813-68.464843-18.238281-149.992187 35.585937-203.347656l29.867188-24.152344c24.875-16.253906 53.476562-25.914062 83.113281-28.074218 30.082031 1.925781 59.171875 11.53125 84.480469 27.90625l30.121094 24.148437c53.109374 53.265625 67.382812 133.992188 35.757812 202.238281-5.761719 11.78125-8.820312 24.695313-8.960938 37.804688v78.589844c-.019531 11.300781 8.773438 20.65625 20.050782 21.335937 3.265625.164063 6.519531-.480469 9.472656-1.878906 1.566406-.664063 3.007812-1.585937 4.269531-2.730469 1.300781 1.085938 2.734375 2.003906 4.265625 2.730469 2.40625 1.054687 4.972656 1.6875 7.59375 1.878906 6.035156.070313 11.839844-2.300781 16.101563-6.574219 4.257812-4.277343 6.605469-10.089843 6.511719-16.125v-19.96875c0-6.789062 2.703124-13.296874 7.507812-18.089843 1.542969-1.546875 3.296875-2.871094 5.207031-3.925781 8.066407 5.066406 12.941407 13.941406 12.886719 23.464843zm0 0" fill="#9c27af"/><path d="m164.074219 69.859375c4.226562-2.78125 6.992187-7.296875 7.546875-12.324219.558594-5.027344-1.15625-10.039062-4.671875-13.675781-14.898438-15.035156-44.945313-35.3125-98.644531-35.3125-85.332032 0-68.2656255 85.335937-17.066407 76.800781 49.210938-8.199218 19.625-63.710937 93.011719-14.957031 5.738281 3.832031 13.214844 3.847656 18.972656.039063zm0 0" fill="#9c27af"/><path d="m466.042969 85.859375c-1.746094-.046875-3.484375-.21875-5.203125-.511719-44.203125-7.339844-24.917969-52.820312-73.472656-26.792968-6.722657 3.601562-13.242188 7.5625-19.542969 11.859374-4.457031 2.972657-10.054688 3.667969-15.101563 1.878907-1.375-.417969-2.671875-1.050781-3.839844-1.878907l-.855468-.597656c-4.242188-2.75-7.027344-7.257812-7.589844-12.285156-.558594-5.023438 1.160156-10.035156 4.6875-13.65625 9.945312-9.894531 21.710938-17.777344 34.648438-23.210938.082031-.085937.082031-.085937.167968-.085937 20.230469-8.332031 41.953125-12.429687 63.832032-12.03125 82.34375 0 69.289062 79.53125 22.269531 77.3125zm0 0" fill="#6a1b99"/><path d="m466.042969 85.859375c-1.746094-.046875-3.484375-.21875-5.203125-.511719-44.203125-7.339844-24.917969-52.820312-73.472656-26.792968-7.167969-.429688-17.578126 3.242187-34.644532 13.738281-1.375-.417969-2.671875-1.050781-3.839844-1.878907l-.855468-.597656c-4.242188-2.75-7.027344-7.257812-7.589844-12.285156-.558594-5.023438 1.160156-10.035156 4.6875-13.65625 9.945312-9.894531 21.710938-17.777344 34.648438-23.210938.082031-.085937.082031-.085937.167968-.085937 12.894532-2.808594 26.058594-4.179687 39.253906-4.09375 65.023438 0 70.570313 49.578125 46.847657 69.375zm0 0" fill="#9c27af"/><path d="m187.773438 102.414062c-2.855469 0-5.703126.167969-8.535157.511719-34.21875 4.214844-59.921875 33.28125-59.921875 67.753907 0 34.476562 25.703125 63.542968 59.921875 67.757812 2.832031.339844 5.679688.511719 8.535157.511719 37.699218 0 68.265624-30.566407 68.265624-68.269531 0-37.703126-30.566406-68.265626-68.265624-68.265626zm0 0" fill="#fff"/><path d="m324.304688 102.414062c-2.851563 0-5.703126.167969-8.53125.511719-34.21875 4.214844-59.921876 33.28125-59.921876 67.753907 0 34.476562 25.703126 63.542968 59.921876 67.757812 2.828124.339844 5.679687.511719 8.53125.511719 37.703124 0 68.265624-30.566407 68.265624-68.269531 0-37.703126-30.5625-68.265626-68.265624-68.265626zm0 0" fill="#fff"/><path d="m230.4375 170.679688c0 23.566406-19.101562 42.667968-42.664062 42.667968-23.566407 0-42.667969-19.101562-42.667969-42.667968 0-23.5625 19.101562-42.664063 42.667969-42.664063 23.5625 0 42.664062 19.101563 42.664062 42.664063zm0 0" fill="#8ac24a"/><path d="m366.972656 170.679688c0 23.566406-19.105468 42.667968-42.667968 42.667968s-42.667969-19.101562-42.667969-42.667968c0-23.5625 19.105469-42.664063 42.667969-42.664063s42.667968 19.101563 42.667968 42.664063zm0 0" fill="#8ac24a"/><path d="m290.171875 290.148438c0 18.851562-15.28125 34.132812-34.132813 34.132812-18.851562 0-34.132812-15.28125-34.132812-34.132812 0-18.851563 15.28125-34.132813 34.132812-34.132813 18.851563 0 34.132813 15.28125 34.132813 34.132813zm0 0" fill="#ac1457"/><path d="m179.238281 153.613281c0 9.425781-7.640625 17.066407-17.066406 17.066407s-17.066406-7.640626-17.066406-17.066407 7.640625-17.066406 17.066406-17.066406 17.066406 7.640625 17.066406 17.066406zm0 0" fill="#fff"/><path d="m315.773438 153.613281c0 9.425781-7.644532 17.066407-17.070313 17.066407s-17.066406-7.640626-17.066406-17.066407 7.640625-17.066406 17.066406-17.066406 17.070313 7.640625 17.070313 17.066406zm0 0" fill="#fff"/><path d="m204.839844 170.679688c0 9.425781-7.644532 17.066406-17.066406 17.066406-9.425782 0-17.070313-7.640625-17.070313-17.066406 0-9.425782 7.644531-17.066407 17.070313-17.066407 9.421874 0 17.066406 7.640625 17.066406 17.066407zm0 0" fill="#37474f"/><path d="m341.371094 170.679688c0 9.425781-7.640625 17.066406-17.066406 17.066406-9.425782 0-17.066407-7.640625-17.066407-17.066406 0-9.425782 7.640625-17.066407 17.066407-17.066407 9.425781 0 17.066406 7.640625 17.066406 17.066407zm0 0" fill="#37474f"/><path d="m80.429688 460.8125h.675781c20.976562-.109375 41.046875-8.558594 55.789062-23.480469 16.054688-15.914062 25.144531-37.542969 25.277344-60.144531l-.070313-26.871094c5.53125 3.242188 11.253907 6.148438 17.136719 8.695313v118.871093c-.015625 9.378907 3.835938 18.351563 10.640625 24.808594 6.804688 6.457032 15.96875 9.828125 25.335938 9.324219 18.472656-1.402344 32.640625-16.976563 32.289062-35.5l-.101562-101.214844c5.820312.1875 11.554687.179688 17.167968 0v102.582031c0 9.078126 3.621094 17.785157 10.054688 24.191407 6.4375 6.40625 15.160156 9.984375 24.242188 9.941406h1.707031c18.460937-1.414063 32.617187-16.988281 32.265625-35.5l.058594-117.476563c5.839843-2.566406 11.519531-5.480468 17.007812-8.730468v26.878906c.136719 22.605469 9.230469 44.234375 25.292969 60.144531 14.945312 15.019531 35.257812 23.46875 56.445312 23.480469 44.507813-.367188 80.394531-36.554688 80.394531-81.066406v-19.882813c.339844-18.25-13.40625-33.695312-31.574218-35.472656-9.46875-.710937-18.804688 2.554687-25.769532 9.007813-6.960937 6.457031-10.917968 15.519531-10.921874 25.015624v19.96875c-.015626 4.050782-1.691407 7.921876-4.636719 10.707032-2.347657 2.359375-5.582031 3.613281-8.90625 3.457031-6.777344-.394531-12.070313-6.011719-12.058594-12.800781v-78.589844c.128906-11.871094 2.921875-23.5625 8.167969-34.210938 31.425781-67.703124 19.710937-147.59375-29.824219-203.425781 4.832031-2.832031 10.34375-4.304687 15.945313-4.265625 2.953124.527344 4.917968 2.984375 9.039062 8.882813 8.0625 13.898437 22.035156 23.347656 37.9375 25.652343 2.753906.464844 5.542969.699219 8.339844.699219 14.003906.195313 27.238281-6.386719 35.53125-17.675781 9.921875-13.5625 11.457031-31.527344 3.984375-46.582031-5.714844-11.28125-21.5625-30.214844-63.519531-30.214844-44.265626 0-73.386719 13.097656-91.753907 26.621094-59.003906-35.554688-132.847656-35.511719-191.8125.113281-18.328125-13.570312-47.527343-26.734375-91.902343-26.734375-41.957032 0-57.804688 18.933594-63.523438 30.222656-7.46875 15.054688-5.929688 33.011719 3.988281 46.574219 8.300781 11.273438 21.535157 17.84375 35.53125 17.640625 2.792969 0 5.582031-.234375 8.335938-.699219 15.902343-2.300781 29.878906-11.746094 37.941406-25.644531 4.121094-5.894531 6.082031-8.351563 9.035156-8.882813 5.753907-.007812 11.402344 1.535157 16.351563 4.472657-30.078125 33.515625-47.003906 76.785156-47.660156 121.8125-.328126 28.605469 5.847656 56.90625 18.066406 82.773437 4.8125 9.691406 7.386718 20.34375 7.535156 31.164063v80.296875c.015625 6.75-5.214844 12.351562-11.949219 12.800781-3.351562.179687-6.625-1.058594-9.019531-3.414063-2.953125-2.792968-4.628906-6.683593-4.632812-10.75v-19.96875c-.003907-9.476562-3.949219-18.527343-10.886719-24.980468-6.941407-6.453125-16.25-9.734375-25.703125-9.050782-18.210938 1.726563-32.015625 17.191407-31.6757815 35.480469v19.882813c-.0039063 44.511718 35.8828125 80.699218 80.3906255 81.066406zm-63.324219-100.949219c-.25-9.308593 6.597656-17.289062 15.835937-18.457031 4.945313-.402344 9.8125 1.414062 13.289063 4.949219 3.214843 3.1875 5.019531 7.53125 5.007812 12.058593v19.96875c.027344 8.738282 3.628907 17.089844 9.976563 23.097657 5.78125 5.628906 13.660156 8.578125 21.714844 8.132812 15.777343-.964843 28.070312-14.058593 28.042968-29.867187v-80.296875c-.144531-13.351563-3.285156-26.5-9.191406-38.476563-29.960938-62.992187-18.261719-137.910156 29.484375-188.765625 5.261719 3.257813 11.089844 7.125 17.484375 11.597657 2.492188 1.855468 5.800781 2.210937 8.628906.925781 2.832032-1.289063 4.738282-4.011719 4.976563-7.113281.242187-3.101563-1.226563-6.085938-3.828125-7.792969-9.8125-6.875-18.199219-12.21875-25.652344-16.441407-16.125-9.148437-27.441406-12.511718-36.238281-10.957031-8.632813 2.238281-15.917969 8.019531-20.054688 15.921875-5.449219 10.097656-15.378906 16.996094-26.742187 18.585938-10.320313 2.203125-20.980469-1.796875-27.308594-10.238282-6.15625-8.363281-7.144531-19.457031-2.558594-28.777343 6.851563-13.429688 23.996094-20.835938 48.332032-20.835938 43.152343 0 69.726562 13.488281 85.128906 25.949219.464844.480469.988281.90625 1.554687 1.261719 6.667969 5.371093 12.304688 11.914062 16.628907 19.304687 2.121093 4.210938 7.257812 5.90625 11.46875 3.789063 4.214843-2.121094 5.910156-7.257813 3.789062-11.46875-3.5625-6.382813-7.996094-12.238281-13.175781-17.402344 22.019531-12.359375 46.550781-19.574219 71.757812-21.109375 32.378907-2.066406 64.671875 5.226562 93.023438 21.007812-5.234375 5.191407-9.71875 11.089844-13.320313 17.519532-2.121094 4.210937-.429687 9.34375 3.78125 11.464844 4.210938 2.121093 9.34375.425781 11.464844-3.785157 4.359375-7.464843 10.054688-14.0625 16.804688-19.464843.269531-.195313.523437-.40625.765624-.632813 15.351563-12.59375 42.085938-26.433594 85.796876-26.433594 24.335937 0 41.480468 7.40625 48.296874 20.863281 4.585938 9.316407 3.597657 20.414063-2.558593 28.773438-6.335938 8.4375-16.988281 12.433594-27.308594 10.242188-11.355469-1.605469-21.269531-8.515626-26.707031-18.613282-4.136719-7.902344-11.421875-13.683594-20.054688-15.921875-12.960937-2.277343-30.855468 5.65625-61.894531 27.398438-3.695313 2.757812-4.535156 7.953125-1.890625 11.734375s7.8125 4.773437 11.671875 2.246094c6.554687-4.582032 12.492187-8.535157 17.859375-11.820313 47.09375 50.746094 58.828125 124.929687 29.695312 187.734375-6.308593 12.910156-9.648437 27.066406-9.777343 41.4375v78.589844c-.03125 7.929687 3.113281 15.542968 8.730469 21.136718 5.191406 5.1875 12.101562 8.292969 19.429687 8.730469 8.023437.390625 15.855469-2.550781 21.640625-8.121093 6.332031-6.023438 9.921875-14.371094 9.933594-23.109376v-19.96875c0-4.75 1.984375-9.28125 5.464844-12.507812 3.484374-3.226562 8.152343-4.855469 12.890624-4.5 9.210938 1.195312 16.027344 9.171875 15.777344 18.457031v19.882813c0 35.140625-28.332031 63.710937-63.472656 64h-.527344c-16.480468-.121094-32.230468-6.792969-43.785156-18.542969-12.832031-12.695313-20.101562-29.964844-20.214844-48.015625v-26.878906c.023438-6.121094-3.246094-11.78125-8.558594-14.820313-5.3125-3.039062-11.847656-2.988281-17.109374.132813-5.023438 2.929687-10.210938 5.570312-15.53125 7.910156-6.03125 2.808594-9.921876 8.828125-10 15.480469v117.503906c.226562 9.390625-6.761719 17.394531-16.097657 18.433594-4.691406.265625-9.285156-1.414063-12.699219-4.644531-3.414062-3.226563-5.347656-7.722657-5.339843-12.421876v-102.574218c-.003907-4.71875-1.945313-9.230469-5.367188-12.484375-3.242187-3.128907-7.628906-4.785157-12.132812-4.582031-5.445313.171874-10.929688.164062-16.015625 0-4.5625-.257813-9.027344 1.402343-12.316406 4.574218-3.421876 3.253906-5.363282 7.769532-5.367188 12.492188v101.207031c.230469 9.390625-6.757812 17.394531-16.09375 18.433594-4.691406.265625-9.285156-1.414063-12.703125-4.644531-3.414063-3.226563-5.34375-7.722657-5.335937-12.421876v-118.871093c-.097657-6.714844-4.058594-12.773438-10.171876-15.554688-5.265624-2.328125-10.394531-4.953125-15.359374-7.859375-5.265626-3.089844-11.78125-3.117187-17.070313-.078125-5.292969 3.039063-8.546875 8.683594-8.53125 14.789063v26.878906c-.121094 18.054688-7.402344 35.324219-20.238281 48.015625-11.5625 11.761719-27.335938 18.4375-43.828125 18.542969h-.511719c-35.148438-.28125-63.488281-28.851563-63.488281-64zm0 0"/><path d="m187.773438 247.480469c28.792968-.039063 55.148437-16.179688 68.265624-41.8125 16.164063 31.585937 51.863282 47.988281 86.363282 39.675781 34.496094-8.3125 58.804687-39.179688 58.804687-74.664062 0-35.484376-24.308593-66.347657-58.804687-74.660157-34.5-8.316406-70.199219 8.085938-86.363282 39.675781-17.207031-33.625-56.3125-49.746093-92.21875-38.015624-35.90625 11.730468-57.949218 47.828124-51.988281 85.125 5.964844 37.300781 38.167969 64.726562 75.941407 64.675781zm136.53125-136.53125c32.988281 0 59.734374 26.742187 59.734374 59.730469 0 32.992187-26.746093 59.734374-59.734374 59.734374-32.988282 0-59.734376-26.742187-59.734376-59.734374.039063-32.972657 26.761719-59.695313 59.734376-59.730469zm-136.53125 0c32.988281 0 59.730468 26.742187 59.730468 59.730469 0 32.992187-26.742187 59.734374-59.730468 59.734374-32.992188 0-59.734376-26.742187-59.734376-59.734374.035157-32.972657 26.757813-59.695313 59.734376-59.730469zm0 0"/><path d="m187.773438 196.28125c14.136718 0 25.597656-11.460938 25.597656-25.601562 0-14.136719-11.460938-25.597657-25.597656-25.597657-14.140626 0-25.601563 11.460938-25.601563 25.597657 0 14.140624 11.460937 25.601562 25.601563 25.601562zm0-34.132812c4.710937 0 8.53125 3.820312 8.53125 8.53125 0 4.714843-3.820313 8.535156-8.53125 8.535156-4.714844 0-8.535157-3.820313-8.535157-8.535156 0-4.710938 3.820313-8.53125 8.535157-8.53125zm0 0"/><path d="m324.304688 196.28125c14.140624 0 25.601562-11.460938 25.601562-25.601562 0-14.136719-11.460938-25.597657-25.601562-25.597657-14.136719 0-25.601563 11.460938-25.601563 25.597657 0 14.140624 11.464844 25.601562 25.601563 25.601562zm0-34.132812c4.714843 0 8.535156 3.820312 8.535156 8.53125 0 4.714843-3.820313 8.535156-8.535156 8.535156-4.710938 0-8.53125-3.820313-8.53125-8.535156 0-4.710938 3.820312-8.53125 8.53125-8.53125zm0 0"/><path d="m256.039062 247.480469c-23.566406 0-42.667968 19.101562-42.667968 42.667969 0 23.5625 19.101562 42.664062 42.667968 42.664062 23.5625 0 42.664063-19.101562 42.664063-42.664062-.027344-23.554688-19.113281-42.640626-42.664063-42.667969zm0 68.265625c-14.140624 0-25.601562-11.460938-25.601562-25.597656 0-14.140626 11.460938-25.601563 25.601562-25.601563 14.136719 0 25.597657 11.460937 25.597657 25.601563 0 14.136718-11.460938 25.597656-25.597657 25.597656zm0 0"/></svg>