<svg height="512pt" viewBox="0 -4 512 512" width="512pt" xmlns="http://www.w3.org/2000/svg"><path d="m416.171875 36.183594c.019531-7.316406-3.121094-14.289063-8.621094-19.117188-6.679687-5.976562-15.992187-8.046875-24.574219-5.460937-1.113281.339843-2.199218.765625-3.242187 1.28125-3.160156 1.480469-5.980469 3.601562-8.277344 6.230469l-9.8125 11.007812c-1.28125-.941406-2.5625-1.964844-3.84375-2.816406-1.789062-1.28125-3.582031-2.390625-5.460937-3.5-16.097656-10.042969-34.699219-15.335938-53.671875-15.273438-2.476563 0-4.867188.085938-7.253907.253906-1.109374.085938-2.21875.171876-3.328124.34375-1.023438-.171874-2.046876-.257812-3.074219-.34375-19.675781 1.359376-38.535157 8.417969-54.269531 20.3125l-3.328126-3.671874-5.632812-6.3125c-4.828125-5.5-11.796875-8.640626-19.113281-8.621094-2.492188-.011719-4.964844.359375-7.339844 1.109375-1.085937.308593-2.140625.710937-3.15625 1.195312-2.375 1.035157-4.5625 2.449219-6.488281 4.183594-5.074219 4.519531-8.140625 10.875-8.527344 17.664063-.382812 6.789062 1.949219 13.449218 6.480469 18.515624l19.199219 21.589844c-15.046876 39.980469-3.722657 85.097656 28.417968 113.238282-10.414062 40.503906-12.214844 82.742187-5.292968 123.988281 1.355468 8.074219 6.632812 14.949219 14.082031 18.347656 1.015625.511719 2.070312.941406 3.15625 1.277344 2.453125.792969 5.015625 1.195312 7.59375 1.195312 7.273437.019531 14.191406-3.125 18.957031-8.613281 4.769531-5.488281 6.914062-12.777344 5.875-19.972656-4.226562-30.171875-3.882812-60.8125 1.027344-90.878906 1.703125 0 3.410156 0 5.117187-.085938 1.109375-.085938 2.304688-.085938 3.414063-.257812 1.109375-.167969 1.964844-.167969 2.988281-.339844 1.109375.171875 2.304687.253906 3.414063.339844 3.828124.34375 7.675781.429687 11.519531.257812 54.152343-2.800781 96.925781-46.988281 97.960937-101.207031.207032-13.871094-2.4375-27.636719-7.765625-40.445313l16.382813-18.433594c4.1875-4.664062 6.5-10.714843 6.488281-16.980468zm0 0" fill="#f29c1f"/><path d="m503.464844 366.933594c0 15.789062-12.457032 30.550781-34.132813 43.265625l-68.265625 25.855469c-10.75 2.730468-22.1875 5.121093-34.132812 7.082031l-68.265625 7.851562c-13.824219.851563-28.160157 1.28125-42.667969 1.28125-2.046875 0-4.179688 0-6.230469-.085937-1.535156 0-3.070312.085937-4.605469 0-10.839843-.171875-21.421874-.597656-31.832031-1.195313l-68.265625-7.851562c-11.945312-1.960938-23.382812-4.351563-34.132812-7.082031l-68.265625-25.855469c-21.675781-12.714844-34.132813-27.476563-34.132813-43.265625 0-25.597656 32.679688-48.554688 84.394532-64.085938 13.136718-3.96875 26.464843-7.273437 39.933593-9.898437 29.589844-5.734375 59.570313-9.242188 89.6875-10.496094l38.824219-.511719 12.03125-.167968c33.578125.699218 67.046875 4.035156 100.097656 9.984374 11.945313 2.300782 23.296875 4.863282 33.960938 7.761719 58.457031 15.53125 96 40.023438 96 67.414063zm0 0" fill="#ff9701"/><g fill="#fdc008"><path d="m477.867188 366.933594c0 15.789062-12.238282 30.550781-33.527344 43.265625l-67.046875 25.855469c-10.554688 2.730468-21.785157 5.121093-33.519531 7.082031l-67.046876 7.851562c-10.238281.597657-20.617187 1.023438-31.265624 1.195313-1.511719 0-3.011719.085937-4.523438 0-10.648438-.171875-21.035156-.597656-31.265625-1.195313l-67.046875-7.851562c-11.730469-1.960938-22.960938-4.351563-33.519531-7.082031l-67.042969-25.855469c-21.292969-12.714844-33.527344-27.476563-33.527344-43.265625 0-25.597656 32.101563-48.554688 82.882813-64.085938 12.90625-3.964844 26.007812-7.269531 39.253906-9.898437 29.042969-5.730469 58.480469-9.238281 88.054687-10.496094l38.136719-.511719c31.324219.871094 62.539063 4.152344 93.363281 9.816406 11.730469 2.300782 22.875 4.863282 33.355469 7.761719 57.410157 15.53125 94.285157 40.023438 94.285157 67.414063zm0 0"/><path d="m110.933594 421.429688v39.371093c0 18.851563-15.28125 34.132813-34.132813 34.132813-18.851562 0-34.132812-15.28125-34.132812-34.132813v-52.171875c0-5.59375 2.742187-10.832031 7.335937-14.019531 4.597656-3.1875 10.464844-3.921875 15.703125-1.964844l34.132813 12.800781c6.667968 2.492188 11.089844 8.863282 11.09375 15.984376zm0 0"/><path d="m213.332031 441.738281v19.0625c0 18.851563-15.28125 34.132813-34.132812 34.132813-18.851563 0-34.132813-15.28125-34.132813-34.132813v-23.328125c0-4.898437 2.101563-9.558594 5.769532-12.796875 3.671874-3.242187 8.554687-4.75 13.414062-4.144531l34.132812 4.269531c8.542969 1.066407 14.953126 8.328125 14.949219 16.9375zm0 0"/><path d="m366.933594 437.472656v23.328125c0 18.851563-15.28125 34.132813-34.132813 34.132813-18.851562 0-34.132812-15.28125-34.132812-34.132813v-19.0625c-.003907-8.609375 6.40625-15.871093 14.949219-16.9375l34.132812-4.269531c4.859375-.605469 9.742188.902344 13.414062 4.144531 3.667969 3.238281 5.769532 7.898438 5.769532 12.796875zm0 0"/></g><path d="m469.332031 408.664062v52.136719c0 18.851563-15.28125 34.132813-34.132812 34.132813-4.457031.007812-8.871094-.894532-12.96875-2.644532-4.175781-1.679687-7.976563-4.175781-11.179688-7.339843-6.378906-6.417969-9.96875-15.097657-9.984375-24.148438v-39.339843c.011719-7.128907 4.425782-13.511719 11.09375-16.042969l29.78125-11.175781 4.351563-1.621094c5.25-1.960938 11.128906-1.222656 15.726562 1.980468 4.597657 3.203126 7.332031 8.457032 7.3125 14.0625zm0 0" fill="#ff9701"/><path d="m443.734375 392.953125v61.824219c.609375 15.597656-7.742187 30.179687-21.503906 37.546875-4.246094-1.90625-8.050781-4.664063-11.179688-8.109375-6.492187-7.371094-10.046875-16.875-9.984375-26.699219v-43.453125c-.171875-7.589844 4.191406-14.554688 11.09375-17.714844l29.78125-12.347656c1.230469 2.824219 1.839844 5.875 1.792969 8.953125zm0 0" fill="#fdc008"/><path d="m275.625 304.214844c1.039062 7.195312-1.105469 14.484375-5.875 19.972656-4.765625 5.488281-11.683594 8.632812-18.957031 8.613281-2.578125 0-5.140625-.402343-7.59375-1.195312-1.085938-.335938-2.140625-.765625-3.15625-1.277344 8.847656-4.089844 14.511719-12.953125 14.507812-22.699219-.003906-1.144531-.089843-2.285156-.257812-3.414062-4.332031-30.949219-3.84375-62.382813 1.449219-93.183594 4.804687 1.039062 9.683593 1.695312 14.59375 1.960938 2.046874.171874 4.179687.34375 6.316406.34375-4.910156 30.066406-5.253906 60.707031-1.027344 90.878906zm0 0" fill="#e57e25"/><path d="m409.683594 53.164062-16.382813 18.433594c5.328125 12.808594 7.972657 26.574219 7.765625 40.445313-1.035156 54.21875-43.808594 98.40625-97.960937 101.207031-3.84375.171875-7.691407.085938-11.519531-.257812-1.109376-.085938-2.304688-.167969-3.414063-.339844 51.433594-5.820313 90.597656-48.851563 91.5625-100.609375.203125-13.871094-2.4375-27.636719-7.765625-40.445313l16.382812-18.433594c4.523438-5.058593 6.84375-11.714843 6.441407-18.492187-.398438-6.777344-3.484375-13.113281-8.574219-17.605469-1.910156-1.75-4.101562-3.164062-6.484375-4.179687 1.042969-.515625 2.128906-.941407 3.242187-1.28125 8.582032-2.585938 17.894532-.515625 24.574219 5.460937 5.089844 4.492188 8.175781 10.828125 8.578125 17.605469.398438 6.777344-1.917968 13.433594-6.445312 18.492187zm0 0" fill="#f47c00"/><path d="m388.351562 53.164062-16.382812 18.433594c5.328125 12.808594 7.96875 26.574219 7.765625 40.445313-.964844 51.757812-40.128906 94.789062-91.5625 100.609375-3.734375-.277344-7.441406-.820313-11.09375-1.621094-.085937.683594-.257813 1.277344-.34375 1.960938.015625.121093-.015625.242187-.082031.34375-2.136719 0-4.269532-.171876-6.316406-.34375-4.910157-.265626-9.789063-.921876-14.59375-1.960938-5.292969 30.800781-5.78125 62.234375-1.449219 93.183594.167969 1.128906.253906 2.269531.257812 3.414062.003907 9.746094-5.660156 18.609375-14.507812 22.699219-7.449219-3.398437-12.726563-10.273437-14.082031-18.347656-6.921876-41.246094-5.121094-83.484375 5.292968-123.988281-32.140625-28.140626-43.464844-73.257813-28.417968-113.238282l-19.199219-21.589844c-4.53125-5.066406-6.863281-11.726562-6.480469-18.515624.386719-6.789063 3.453125-13.144532 8.527344-17.664063 1.925781-1.734375 4.113281-3.148437 6.488281-4.183594 1.015625-.484375 2.070313-.886719 3.15625-1.195312 2.375-.75 4.847656-1.121094 7.339844-1.109375 7.316406-.019532 14.285156 3.121094 19.113281 8.621094l5.632812 6.3125 3.328126 3.671874c15.734374-11.894531 34.59375-18.953124 54.269531-20.3125 1.027343.085938 2.050781.171876 3.074219.34375 1.109374-.171874 2.21875-.257812 3.328124-.34375 2.386719-.167968 4.777344-.253906 7.253907-.253906 18.972656-.0625 37.574219 5.230469 53.671875 15.273438 1.878906 1.109375 3.671875 2.21875 5.460937 3.5 1.28125.851562 2.5625 1.875 3.84375 2.816406l9.8125-11.007812c2.296875-2.628907 5.117188-4.75 8.277344-6.230469 2.382813 1.015625 4.574219 2.429687 6.484375 4.179687 5.089844 4.492188 8.175781 10.828125 8.574219 17.605469.402343 6.777344-1.917969 13.433594-6.441407 18.492187zm0 0" fill="#ff9701"/><path d="m288.171875 212.652344c-1.023437.171875-1.964844.253906-2.988281.339844-1.023438.085937-2.304688.171874-3.414063.257812-1.707031.085938-3.414062.085938-5.117187.085938.066406-.101563.097656-.222657.082031-.34375.085937-.683594.257813-1.277344.34375-1.960938 3.652344.800781 7.359375 1.34375 11.09375 1.621094zm0 0" fill="#f29c1f"/><path d="m366.933594 110.933594c0 37.703125-30.5625 68.269531-68.265625 68.269531-2.253907 0-4.507813-.136719-6.691407-.34375h-.273437c-34.886719-3.5-61.449219-32.863281-61.449219-67.925781s26.5625-64.421875 61.449219-67.925782h.273437c2.183594-.203124 4.4375-.339843 6.691407-.339843 37.703125 0 68.265625 30.5625 68.265625 68.265625zm0 0" fill="#e6e7e8"/><path d="m341.332031 110.933594c0 23.566406-19.101562 42.667968-42.664062 42.667968-23.566407 0-42.667969-19.101562-42.667969-42.667968 0-23.5625 19.101562-42.664063 42.667969-42.664063 23.5625 0 42.664062 19.101563 42.664062 42.664063zm0 0" fill="#f34335"/><path d="m324.265625 110.933594c0 14.140625-11.460937 25.601562-25.597656 25.601562-14.140625 0-25.601563-11.460937-25.601563-25.601562 0-14.136719 11.460938-25.597656 25.601563-25.597656 14.136719 0 25.597656 11.460937 25.597656 25.597656zm0 0" fill="#37474f"/><path d="m153.601562 324.269531c.019532 15.007813-9.769531 28.273438-24.117187 32.675781-14.351563 4.40625-29.894531-1.082031-38.300781-13.519531-8.402344-12.4375-7.695313-28.90625 1.746094-40.578125 13.136718-3.96875 26.464843-7.273437 39.933593-9.898437 12.585938 5.3125 20.761719 17.65625 20.738281 31.320312zm0 0" fill="#f34335"/><path d="m418.132812 324.269531c-.015624 17.472657-13.226562 32.109375-30.605468 33.917969-17.378906 1.804688-33.316406-9.804688-36.925782-26.902344-3.609374-17.09375 6.277344-34.15625 22.902344-39.527344 11.945313 2.300782 23.296875 4.863282 33.960938 7.761719 6.8125 6.429688 10.671875 15.382813 10.667968 24.75zm0 0" fill="#f34335"/><path d="m290.132812 76.800781c0 14.140625-11.460937 25.601563-25.597656 25.601563-14.140625 0-25.601562-11.460938-25.601562-25.601563 0-14.136719 11.460937-25.597656 25.601562-25.597656 14.136719 0 25.597656 11.460937 25.597656 25.597656zm0 0" fill="#fff"/><path d="m374.765625 283.402344c-.230469 0-.441406-.113282-.671875-.128906-30.589844-5.472657-61.53125-8.738282-92.585938-9.777344-.730468-17.574219.152344-35.179688 2.636719-52.59375 6.40625.828125 12.871094 1.113281 19.328125.855468 58.601563-3.152343 104.867188-50.9375 106.128906-109.613281.195313-13.199219-1.996093-26.332031-6.460937-38.757812l12.902344-14.503907c6.03125-6.746093 9.128906-15.617187 8.601562-24.652343-.523437-9.03125-4.628906-17.484375-11.402343-23.484375-6.757813-6.050782-15.636719-9.179688-24.695313-8.695313-9.027344.5-17.476563 4.601563-23.457031 11.382813l-4.683594 5.246094c-18.242188-12.273438-39.753906-18.78125-61.738281-18.679688-23.019531.0078125-45.46875 7.144531-64.265625 20.429688l-6.210938-6.953126c-7.996094-9.53125-20.542968-13.957031-32.746094-11.554687-12.207031 2.402344-22.136718 11.253906-25.921874 23.105469-3.785157 11.851562-.824219 24.820312 7.730468 33.855468l15.863282 17.816407c-13.054688 40.398437-1.949219 84.703125 28.613281 114.167969-6.507813 27.347656-9.214844 55.460937-8.046875 83.550781-27.070313 1.550781-54.007813 4.914062-80.632813 10.058593-1.238281-.023437-2.464843.226563-3.601562.726563-12.996094 2.652344-25.460938 5.734375-37.203125 9.222656-1.238282.097657-2.441406.464844-3.523438 1.078125-52.03125 16.007813-88.722656 40.308594-88.722656 71.429688 0 12.238281 6.101562 30.261718 34.132812 48.027344v45.839843c0 23.566407 19.101563 42.667969 42.667969 42.667969 23.5625 0 42.664063-19.101562 42.664063-42.667969v-14.035156c5.609375 1.261719 11.300781 2.417969 17.070312 3.460937v10.574219c0 23.566407 19.101563 42.667969 42.664063 42.667969 23.566406 0 42.667969-19.101562 42.667969-42.667969v-.851562c11.09375.535156 22.5.851562 34.132812.851562s23.039062-.347656 34.132812-.851562v.851562c0 23.566407 19.101563 42.667969 42.667969 42.667969 23.5625 0 42.664063-19.101562 42.664063-42.667969v-10.574219c5.78125-1.050781 11.46875-2.207031 17.070312-3.460937v14.035156c0 23.566407 19.101563 42.667969 42.664063 42.667969 23.566406 0 42.667969-19.101562 42.667969-42.667969v-45.839843c28.03125-17.765626 34.132812-35.789063 34.132812-48.027344 0-40.8125-60.109375-69.324219-137.234375-83.53125zm34.835937 40.867187c.027344 12.839844-9.464843 23.714844-22.191406 25.425781-12.730468 1.710938-24.753906-6.273437-28.117187-18.667968-3.363281-12.394532 2.976562-25.363282 14.824219-30.320313 10.164062 1.964844 19.773437 4.171875 28.816406 6.5625 4.269531 4.632813 6.648437 10.699219 6.667968 17zm-264.535156 0c0 14.136719-11.460937 25.597657-25.601562 25.597657-14.136719 0-25.597656-11.460938-25.597656-25.597657.023437-4.96875 1.503906-9.824219 4.265624-13.953125 10.335938-3.074218 21.574219-5.871094 33.640626-8.363281 8.199218 4.421875 13.308593 12.996094 13.292968 22.316406zm332.800782 69.785157v-10.054688c0-4.710938-3.820313-8.53125-8.535157-8.53125-4.710937 0-8.53125 3.820312-8.53125 8.53125v76.800781c0 14.140625-11.460937 25.601563-25.601562 25.601563-14.136719 0-25.597657-11.460938-25.597657-25.601563v-51.199219c0-4.714843-3.820312-8.535156-8.535156-8.535156-4.710937 0-8.53125 3.820313-8.53125 8.535156v19.625c-5.59375 1.316407-11.28125 2.519532-17.070312 3.609376v-14.703126c0-4.710937-3.820313-8.53125-8.53125-8.53125-4.714844 0-8.535156 3.820313-8.535156 8.53125v42.667969c0 14.140625-11.460938 25.601563-25.597657 25.601563-14.140625 0-25.601562-11.460938-25.601562-25.601563v-34.132812c0-4.714844-3.820313-8.535157-8.53125-8.535157-4.714844 0-8.535157 3.820313-8.535157 8.535157v16.160156c-22.289062 1.101563-45.976562 1.101563-68.265624 0v-16.160156c0-4.714844-3.820313-8.535157-8.535157-8.535157-4.710937 0-8.53125 3.820313-8.53125 8.535157v34.132812c0 14.140625-11.460937 25.601563-25.601562 25.601563-14.136719 0-25.597657-11.460938-25.597657-25.601563v-42.667969c0-4.710937-3.820312-8.53125-8.535156-8.53125-4.710937 0-8.53125 3.820313-8.53125 8.53125v14.738282c-5.792968-1.089844-11.480468-2.296875-17.070312-3.609375v-19.660157c0-4.714843-3.820313-8.535156-8.53125-8.535156-4.714844 0-8.535156 3.820313-8.535156 8.535156v51.199219c0 14.140625-11.460938 25.601563-25.597657 25.601563-14.140625 0-25.601562-11.460938-25.601562-25.601563v-76.800781c0-4.710938-3.820313-8.53125-8.53125-8.53125-4.714844 0-8.535157 3.820312-8.535157 8.53125v10.054688c-9.433593-6.058594-15.6875-15.996094-17.066406-27.121094 0-16.707032 21.65625-35.0625 60.324219-49.644532-2.667969 15.878907 3.832031 31.90625 16.808594 41.441407 12.972656 9.535156 30.210937 10.957031 44.570312 3.671875s23.394531-22.03125 23.363281-38.132813c-.015624-9.515625-3.226562-18.75-9.121093-26.214843 20.453125-3.230469 41.054687-5.417969 61.730469-6.5625 1.363281 14.550781 3.703124 28.996093 6.996093 43.238281.898438 3.867187 4.34375 6.605469 8.3125 6.605469.652344-.003907 1.300781-.074219 1.9375-.214844 2.203125-.507813 4.117188-1.875 5.316407-3.796875 1.199218-1.917969 1.585937-4.238281 1.074218-6.441407-11.011718-46.308593-10.625-94.59375 1.125-140.714843.824219-3.128907-.195312-6.453125-2.628906-8.585938-29.460938-25.792969-39.84375-67.148437-26.058594-103.800781 1.113282-2.960938.492188-6.292969-1.605468-8.660156l-19.214844-21.648438c-3.027344-3.378906-4.582032-7.824218-4.324219-12.351562s2.308594-8.765625 5.695313-11.78125c7.105468-6.0625 17.734374-5.417969 24.058593 1.460937l11.519531 12.882813c3.0625 3.402344 8.269532 3.78125 11.792969.855468 16.882813-13.890624 38.066407-21.480468 59.929688-21.472656 20.917969-.101562 41.257812 6.863282 57.71875 19.773438 3.53125 2.78125 8.617187 2.34375 11.621093-1l9.832032-11.09375c6.273437-7.03125 17.0625-7.648438 24.097656-1.371094 7.035156 6.273438 7.648438 17.0625 1.375 24.097656l-16.386719 18.429688c-2.175781 2.449218-2.761719 5.929687-1.5 8.953125 4.886719 11.75 7.308594 24.378906 7.109375 37.101562-1.054687 49.640625-40.1875 90.082031-89.765625 92.765625-8.015625.324219-16.042969-.355468-23.890625-2.027344-2.269531-.492187-4.636718-.035156-6.5625 1.261719-1.917968 1.304688-3.230468 3.328125-3.636718 5.613281-4.09375 23.753907-5.363282 47.910157-3.78125 71.960938v.070312c1.117187 17.878907 3.6875 35.640626 7.683593 53.101563 1.058594 4.597656 5.644531 7.460937 10.238281 6.402344 4.59375-1.0625 7.460938-5.644531 6.398438-10.242188-3.054688-13.265625-5.25-26.71875-6.570312-40.269531 23.015624.828125 45.96875 2.910156 68.753906 6.238281-12.179688 14.425781-13.433594 35.140625-3.082032 50.925781 10.351563 15.789063 29.851563 22.894532 47.933594 17.472657 18.085938-5.421875 30.453125-22.082031 30.414063-40.960938-.046875-3.496093-.53125-6.96875-1.445313-10.34375 44.109375 14.855469 69.710938 34.59375 69.710938 53.007813-1.378906 11.125-7.632813 21.0625-17.066406 27.121094zm0 0"/><path d="m375.464844 110.933594c0-42.414063-34.382813-76.800782-76.796875-76.800782-42.417969 0-76.800781 34.386719-76.800781 76.800782 0 42.417968 34.382812 76.800781 76.800781 76.800781 42.394531-.046875 76.75-34.402344 76.796875-76.800781zm-136.53125 0c0-32.988282 26.742187-59.730469 59.734375-59.730469 32.988281 0 59.730469 26.742187 59.730469 59.730469 0 32.992187-26.742188 59.734375-59.730469 59.734375-32.972657-.042969-59.691407-26.761719-59.734375-59.734375zm0 0"/><path d="m324.265625 110.933594c0-14.136719-11.460937-25.597656-25.597656-25.597656-14.140625 0-25.601563 11.460937-25.601563 25.597656 0 14.140625 11.460938 25.601562 25.601563 25.601562 14.136719 0 25.597656-11.460937 25.597656-25.601562zm-34.132813 0c0-4.710938 3.820313-8.53125 8.535157-8.53125 4.710937 0 8.53125 3.820312 8.53125 8.53125 0 4.714844-3.820313 8.535156-8.53125 8.535156-4.714844 0-8.535157-3.820312-8.535157-8.535156zm0 0"/></svg>