<svg height="512pt" viewBox="-9 0 512 512.02612" width="512pt" xmlns="http://www.w3.org/2000/svg"><g fill="#f34335"><path d="m250.714844 318.019531c34.015625-56.242187 50.742187-12.328125 55 2.101563.328125 1.105468 1.085937 2.027344 2.109375 2.5625 1.019531.539062 2.214843.636718 3.308593.277344 32.09375-11.285157 56.027344-38.425782 63.207032-71.679688.25-1.148438.964844-2.140625 1.972656-2.742188 1.007812-.605468 2.21875-.769531 3.351562-.449218 8.460938 3.625 15.128907 10.472656 18.527344 19.03125.625 1.324218 1.894532 2.234375 3.351563 2.410156 1.457031.171875 2.902343-.414062 3.824219-1.558594 29.457031-34.894531 19.0625-83.320312 14.265624-99.941406-.390624-1.394531-.0625-2.890625.878907-3.988281.941406-1.101563 2.371093-1.65625 3.808593-1.484375 6.761719.734375 13.222657 3.183594 18.773438 7.117187 1.410156 1.039063 3.308594 1.109375 4.792969.179688 1.484375-.929688 2.25-2.671875 1.929687-4.394531-5.328125-34.710938-24.550781-65.761719-53.246094-86.007813-1.328124-.886719-2.050781-2.441406-1.871093-4.027344.179687-1.585937 1.230469-2.9375 2.722656-3.507812 6.601563-1.992188 13.441406-3.113281 20.335937-3.328125 1.648438-.105469 3.089844-1.148438 3.710938-2.683594.621094-1.53125.308594-3.285156-.800781-4.507812-43.519531-48.699219-111.445313-29.167969-132.789063-21.332032-1.519531.546875-3.222656.191406-4.394531-.925781-1.167969-1.113281-1.609375-2.796875-1.132813-4.339844 2.089844-6.84375 5.40625-13.253906 9.785157-18.910156 1.039062-1.359375 1.164062-3.207031.320312-4.695313-.84375-1.484374-2.496093-2.324218-4.195312-2.132812-13.949219 1.128906-27.316407 6.101562-38.613281 14.371094-1.5 1.183594-3.617188 1.183594-5.117188 0-11.292969-8.261719-24.652344-13.234375-38.597656-14.363282-1.699219-.191406-3.347656.648438-4.191406 2.132813-.84375 1.488281-.71875 3.335937.316406 4.695313 4.378906 5.648437 7.695312 12.046874 9.789062 18.882812.472656 1.546875.035156 3.230469-1.136718 4.34375-1.171876 1.117188-2.871094 1.472656-4.394532.921875-21.332031-7.816406-89.28125-27.304687-132.785156 21.332031-1.121094 1.222656-1.4375 2.980469-.824219 4.515625.617188 1.539063 2.0625 2.585938 3.714844 2.695313 6.890625.21875 13.722656 1.335937 20.320313 3.328125 1.492187.570312 2.542968 1.921875 2.722656 3.507812.179687 1.585938-.542969 3.140625-1.871094 4.027344-28.695312 20.246094-47.917969 51.296875-53.246094 86.007813-.320312 1.722656.445313 3.464843 1.925782 4.394531 1.484374.929687 3.386718.859375 4.796874-.179688 5.550782-3.933593 12.011719-6.382812 18.773438-7.117187 1.4375-.171875 2.867188.382812 3.808594 1.484375.941406 1.097656 1.269531 2.59375.875 3.988281-4.792969 16.621094-15.144532 65.046875 14.269531 99.96875.921875 1.140625 2.367187 1.730469 3.824219 1.554688 1.457031-.171876 2.722656-1.082032 3.351562-2.410157 3.398438-8.554687 10.0625-15.40625 18.527344-19.027343 1.128906-.320313 2.34375-.160157 3.351562.445312 1.007813.605469 1.71875 1.597656 1.972657 2.746094 7.179687 33.253906 31.113281 60.394531 63.207031 71.679687 1.09375.359375 2.289062.257813 3.308594-.277343 1.019531-.535157 1.78125-1.460938 2.109375-2.566407 4.265625-14.429687 20.984375-58.339843 54.996093-2.097656.78125 1.261719 2.160157 2.023437 3.644532 2.019531 1.480468-.003906 2.855468-.78125 3.625-2.046875zm0 0"/><path d="m170.289062 512.027344h-68.265624c-9.425782 0-17.066407-7.640625-17.066407-17.066406 0-18.851563 15.28125-34.136719 34.132813-34.136719h59.734375c4.710937 0 8.53125 3.824219 8.53125 8.535156v25.601563c0 9.425781-7.640625 17.066406-17.066407 17.066406zm0 0"/><path d="m392.15625 512.027344h-68.265625c-9.425781 0-17.066406-7.640625-17.066406-17.066406v-25.601563c0-4.710937 3.820312-8.535156 8.53125-8.535156h59.734375c18.851562 0 34.132812 15.285156 34.132812 34.136719 0 9.425781-7.640625 17.066406-17.066406 17.066406zm0 0"/></g><path d="m170.289062 85.359375c-2.859374-.007813-5.71875.25-8.53125.769531-24.625 4.140625-42.660156 25.460938-42.660156 50.429688 0 24.972656 18.035156 46.292968 42.660156 50.433594 2.8125.515624 5.671876.773437 8.53125.765624 28.277344 0 51.199219-22.921874 51.199219-51.199218s-22.921875-51.199219-51.199219-51.199219zm0 0" fill="#fff"/><path d="m323.890625 85.359375c-2.863281-.007813-5.71875.25-8.535156.769531-24.625 4.140625-42.65625 25.460938-42.65625 50.429688 0 24.972656 18.03125 46.292968 42.65625 50.433594 2.816406.515624 5.671875.773437 8.535156.765624 28.277344 0 51.199219-22.921874 51.199219-51.199218s-22.921875-51.199219-51.199219-51.199219zm0 0" fill="#fff"/><path d="m289.757812 179.226562c0 14.140626-19.105468 34.132813-42.667968 34.132813-23.558594 0-42.667969-19.992187-42.667969-34.132813 0-14.140624 19.109375-17.066406 42.667969-17.066406 23.5625 0 42.667968 2.925782 42.667968 17.066406zm0 0" fill="#e81e63"/><path d="m204.421875 136.558594c0 18.851562-15.28125 34.132812-34.132813 34.132812-18.851562 0-34.132812-15.28125-34.132812-34.132812 0-18.851563 15.28125-34.132813 34.132812-34.132813 18.851563 0 34.132813 15.28125 34.132813 34.132813zm0 0" fill="#fdc008"/><path d="m358.023438 136.558594c0 18.851562-15.28125 34.132812-34.132813 34.132812s-34.132813-15.28125-34.132813-34.132812c0-18.851563 15.28125-34.132813 34.132813-34.132813s34.132813 15.28125 34.132813 34.132813zm0 0" fill="#fdc008"/><path d="m187.355469 136.558594c0 9.425781-7.640625 17.066406-17.066407 17.066406-9.425781 0-17.066406-7.640625-17.066406-17.066406 0-9.425782 7.640625-17.066406 17.066406-17.066406 9.425782 0 17.066407 7.640624 17.066407 17.066406zm0 0" fill="#37474f"/><path d="m340.957031 136.558594c0 9.425781-7.640625 17.066406-17.066406 17.066406s-17.066406-7.640625-17.066406-17.066406c0-9.425782 7.640625-17.066406 17.066406-17.066406s17.066406 7.640624 17.066406 17.066406zm0 0" fill="#37474f"/><path d="m170.289062 110.960938c0 9.425781-7.640624 17.066406-17.066406 17.066406-9.425781 0-17.066406-7.640625-17.066406-17.066406 0-9.425782 7.640625-17.066407 17.066406-17.066407 9.425782 0 17.066406 7.640625 17.066406 17.066407zm0 0" fill="#fff"/><path d="m323.890625 110.960938c0 9.425781-7.640625 17.066406-17.066406 17.066406s-17.066407-7.640625-17.066407-17.066406c0-9.425782 7.640626-17.066407 17.066407-17.066407s17.066406 7.640625 17.066406 17.066407zm0 0" fill="#fff"/><path d="m35.121094 168.808594c-10.152344 10.398437-18.390625 22.511718-24.335938 35.777344-15.828125 35.578124-14.148437 78.082031 4.617188 126.292968-9.25 9.414063-14.234375 22.207032-13.789063 35.398438 1.523438 13.054687 8.175781 24.964844 18.488281 33.109375 3.773438 2.828125 9.121094 2.0625 11.949219-1.707031 2.828125-3.769532 2.0625-9.121094-1.707031-11.945313-6.375-5.15625-10.558594-12.539063-11.699219-20.660156.066407-9.496094 4.15625-18.519531 11.253907-24.824219 7.683593-2.535156 16.042968-2.046875 23.375 1.375 8.714843 6.21875 14.132812 16.054688 14.734374 26.742188.875 4.550781 5.222657 7.570312 9.789063 6.804687 4.570313-.761719 7.695313-5.035156 7.039063-9.621094-1.273438-15.835937-9.847657-30.179687-23.191407-38.800781-9.570312-4.988281-20.585937-6.460938-31.128906-4.164062-16.265625-42.828126-17.820313-80.136719-4.269531-110.855469 3.898437-8.730469 8.980468-16.882813 15.105468-24.226563 3.453126.410156 6.804688-1.316406 8.480469-4.359375 3.40625-5.273437 8.640625-9.101562 14.695313-10.746093-5.613282 23.261718-11.734375 72.066406 22.929687 106.71875 2.089844 2.089843 5.113281 2.945312 7.992188 2.265624 2.875-.679687 5.195312-2.800781 6.128906-5.601562 2.273437-6.617188 6.136719-12.574219 11.257813-17.339844 4.242187 15.050782 11.527343 29.070313 21.402343 41.199219-.660156 2.117187-1.445312 4.265625-2.03125 6.347656-3.53125 12.535157-5.84375 25.378907-6.894531 38.359375-1.125 14.132813-.484375 28.355469 1.902344 42.332032 2.699218 15.414062 7.605468 30.359374 14.566406 44.375 5.300781 10.507812 11.605469 20.476562 18.824219 29.769531h-41.515625c-18.851563 0-34.132813 15.285156-34.132813 34.136719 0 9.425781 7.640625 17.066406 17.066407 17.066406h68.265624c9.425782 0 17.066407-7.640625 17.066407-17.066406v-25.601563c-.050781-.425781-.136719-.84375-.253907-1.253906-.050781-.625-.175781-1.238281-.367187-1.835938-.277344-.609375-.625-1.179687-1.042969-1.707031-.171875-.347656-.375-.683594-.605468-.996094-11.195313-11.972656-20.632813-25.476562-28.023438-40.109375-6.226562-12.53125-10.617188-25.898437-13.03125-39.6875-2.152344-12.578125-2.726562-25.375-1.703125-38.09375.914063-10.90625 2.8125-21.710937 5.664063-32.28125 10.894531 8.847657 23.496093 15.351563 37.019531 19.105469 2.257812.652344 4.683593.34375 6.707031-.851562 2.015625-1.207032 3.449219-3.1875 3.964844-5.476563 2.40625-10.847656 9.386718-26.402344 16.214844-27.402344 5.007812-.734375 14.941406 6.707031 27.707031 29.695313.164062.246094.339843.476562.53125.699218.152343.222657.304687.4375.484375.648438.632812.777344 1.398437 1.429688 2.261718 1.929688.65625.269531 1.3125.53125 1.972657.785156.726562.199218 1.480469.296875 2.234375.296875.730468-.003907 1.453125-.101563 2.160156-.289063.660156-.253906 1.316406-.515625 1.96875-.785156.867188-.5 1.632812-1.152344 2.261719-1.925781.179687-.214844.332031-.429688.488281-.648438.191406-.222656.367188-.457031.527344-.703125 12.800781-22.980468 22.511718-30.351562 27.707031-29.695312 6.828125.980468 13.792969 16.546875 16.214844 27.410156.511719 2.289062 1.949219 4.269531 3.96875 5.46875 2.015625 1.199219 4.441406 1.515625 6.699219.871094 13.519531-3.753906 26.125-10.257813 37.015624-19.105469 2.855469 10.566406 4.75 21.371094 5.667969 32.28125 1.019531 12.71875.445313 25.515625-1.707031 38.09375-2.390625 13.769531-6.75 27.125-12.945312 39.652344-7.390626 14.632812-16.828126 28.136719-28.023438 40.109375-.230469.316406-.433594.648437-.613281.996094-.414063.523437-.761719 1.097656-1.035157 1.707031-.191406.597656-.316406 1.21875-.375 1.84375-.113281.410156-.195312.832031-.246093 1.253906v25.601563c0 9.425781 7.640625 17.066406 17.066406 17.066406h68.265625c9.425781 0 17.066406-7.640625 17.066406-17.066406 0-18.851563-15.28125-34.136719-34.132812-34.136719h-41.515625c7.222656-9.296875 13.527343-19.273438 18.824219-29.789063 6.960937-14.015625 11.867187-28.957031 14.566406-44.371094 2.386718-13.980468 3.027344-28.199218 1.90625-42.335937-1.054688-12.976563-3.363282-25.824219-6.898438-38.355469-.585937-2.109375-1.371094-4.269531-2.027344-6.351562 9.875-12.128906 17.164063-26.15625 21.410157-41.214844 5.132812 4.757812 9 10.726562 11.246093 17.359375.933594 2.800781 3.253907 4.921875 6.132813 5.601563 2.875.679687 5.898437-.179688 7.988281-2.265626 34.671875-34.664062 28.542969-83.457031 22.929688-106.71875 6.003906 1.632813 11.203125 5.417969 14.601562 10.632813 1.625 3.183594 5.082032 4.992187 8.625 4.523437 6.039063 7.273438 11.058594 15.335938 14.925782 23.960938 13.652343 30.761719 12.160156 68.144531-4.136719 111.070312-10.542969-2.304687-21.5625-.832031-31.132813 4.15625-13.34375 8.621094-21.917968 22.960938-23.191406 38.800782-.65625 4.585937 2.46875 8.855468 7.039062 9.621094 4.570313.765624 8.914063-2.257813 9.789063-6.804688.613281-10.640625 5.984375-20.433594 14.625-26.667969 7.347656-3.476562 15.753906-3.984375 23.464844-1.417969 7.058593 6.28125 11.148437 15.242188 11.265625 24.6875-1.113282 8.164063-5.292969 15.59375-11.691406 20.789063-3.769532 2.824219-4.535157 8.175781-1.707032 11.945313 2.828125 3.769531 8.175782 4.535156 11.949219 1.707031 10.3125-8.144531 16.96875-20.054688 18.492187-33.109375.441407-13.191406-4.542968-25.984375-13.792968-35.398438 18.773437-48.210937 20.480468-90.714844 4.617187-126.292968-5.945312-13.265626-14.183593-25.378907-24.335937-35.777344-4.613282-35.488282-22.449219-67.921875-49.945313-90.820313 5.695313-.765625 11.433594-1.152343 17.175781-1.164062 3.234376 0 6.1875-1.824219 7.632813-4.714844s1.132813-6.351563-.804687-8.9375c-41.457032-55.269531-108.800782-43.246094-139.375-33.988281 2.859374-5.320313 6.417968-10.230469 10.589843-14.601563 2.433594-2.441406 3.160157-6.109375 1.835938-9.292969-1.320313-3.1875-4.429688-5.2617182-7.878907-5.2617182-18.179687-.4414058-36.058593 4.7265622-51.199218 14.8046872-15.140625-10.078125-33.015625-15.246093-51.199219-14.8046872-3.449219 0-6.558594 2.0742182-7.878906 5.2617182-1.324219 3.183594-.597657 6.851563 1.835937 9.292969 4.171875 4.371094 7.734375 9.28125 10.589844 14.601563-30.609375-9.257813-97.9375-21.273438-139.375 33.988281-1.9375 2.585937-2.25 6.046875-.804688 8.9375 1.445313 2.890625 4.398438 4.714844 7.632813 4.714844 5.746094.007812 11.484375.394531 17.175781 1.164062-27.5 22.894531-45.339844 55.332031-49.945312 90.820313zm135.167968 326.152344h-68.265624c0-9.425782 7.640624-17.066407 17.066406-17.066407h51.199218zm221.867188 0h-68.265625v-17.066407h51.199219c9.425781 0 17.066406 7.640625 17.066406 17.066407zm-306.03125-434.195313c47.667969-43.671875 120.003906-11.800781 123.308594-10.300781 2.640625 1.199218 5.710937.972656 8.148437-.597656 2.4375-1.570313 3.910157-4.273438 3.90625-7.175782-.304687-8.359375-2.75-16.5-7.097656-23.644531 9.847656 1.847656 19.054687 6.203125 26.726563 12.644531 3.125 3.066406 8.074218 3.234375 11.398437.386719.203125-.113281.398437-.238281.582031-.375 7.671875-6.445313 16.871094-10.804687 26.71875-12.65625-4.359375 7.144531-6.8125 15.285156-7.125 23.644531 0 2.902344 1.472656 5.605469 3.914063 7.175782 2.441406 1.570312 5.511719 1.792968 8.152343.589843.800782-.375 75.175782-33.347656 123.246094 10.308594-24.378906 3.117187-24.378906 12.554687-24.378906 16.058594.011719 3.21875 1.820312 6.15625 4.683594 7.621093 1.628906.855469 34.132812 18.074219 48.980468 66.082032-7.855468-5.441406-16.308593-9.964844-25.199218-13.472656-4.4375-1.582032-9.320313.730468-10.90625 5.171874-1.582032 4.4375.734375 9.320313 5.171875 10.90625.09375 0 2.339843.851563 5.855469 2.558594-.554688.464844-1.046876 1-1.460938 1.59375-1.597656 2.296875-1.964844 5.230469-.988281 7.851563.222656.582031 19.582031 54.042969-7.082031 92.332031-5.300782-10.59375-15.777344-17.621094-27.589844-18.507812-4.246094-.003907-7.84375 3.117187-8.449219 7.320312-2.371094 12.0625-7.035156 23.554688-13.738281 33.859375-.9375-2.277344-1.75-4.566406-2.753906-6.824219-1.917969-4.308594-6.960938-6.25-11.269532-4.332031-4.308594 1.914063-6.246094 6.960937-4.332031 11.269531 2.21875 5 4.246094 10.023438 6.078125 15.066406-8.035156 7.871094-17.59375 14.019532-28.085938 18.066407-3.898437-11.382813-12.414062-29.285157-27.835937-31.523438-12.507813-1.832031-24.832031 6.828125-37.621094 26.097657-12.800781-19.242188-25.097656-27.894532-37.625-26.097657-15.417969 2.238281-23.890625 20.148438-27.835937 31.523438-10.5-4.003907-20.082032-10.101563-28.160156-17.917969 1.832031-5.070312 3.871093-10.128906 6.121093-15.175781 1.238281-2.785157.898438-6.019531-.898437-8.488281-1.792969-2.464844-4.765625-3.789063-7.796875-3.46875-3.035157.320312-5.664063 2.234374-6.90625 5.019531-1.03125 2.332031-1.867188 4.679687-2.824219 7.015625-6.734375-10.34375-11.371094-21.910156-13.652344-34.039063-.578125-4.210937-4.164062-7.351562-8.414062-7.371093-11.8125.886718-22.289063 7.917968-27.589844 18.515624-26.664062-38.289062-7.300781-91.75-7.082031-92.332031.976562-2.621093.609375-5.550781-.988281-7.847656-.40625-.589844-.890626-1.117187-1.433594-1.582031 3.515625-1.703125 5.757812-2.558594 5.851562-2.558594 4.4375-1.589844 6.746094-6.476562 5.15625-10.914062s-6.476562-6.746094-10.914062-5.152344c-8.890625 3.507812-17.34375 8.03125-25.199219 13.472656 14.832031-48.042969 47.351563-65.289062 48.945313-66.054688 2.910156-1.453124 4.738281-4.433593 4.722656-7.683593 0-3.503907 0-12.960938-24.433594-16.058594zm0 0"/><path d="m170.289062 196.292969c9.640626.007812 19.136719-2.335938 27.667969-6.828125 8.402344 19.679687 27.734375 32.445312 49.132813 32.445312 21.398437 0 40.730468-12.765625 49.136718-32.445312 25.273438 13.207031 56.355469 6.703125 74.21875-15.523438 17.863282-22.222656 17.527344-53.976562-.804687-75.820312-18.332031-21.839844-49.546875-27.679688-74.535156-13.941406-24.984375 13.738281-36.777344 43.222656-28.160157 70.402343-6.589843-.722656-13.222656-1.042969-19.855468-.957031-6.632813-.089844-13.261719.222656-19.855469.941406 7.785156-24.636718-1.144531-51.484375-22.136719-66.542968-20.992187-15.058594-49.289062-14.917969-70.128906.355468-20.835938 15.269532-29.496094 42.207032-21.460938 66.761719 8.035157 24.554687 30.945313 41.15625 56.78125 41.152344zm110.933594-59.734375c-.175781-20.394532 13.984375-38.113282 33.914063-42.4375 19.933593-4.324219 40.164062 5.933594 48.453125 24.570312 8.289062 18.632813 2.363281 40.527344-14.195313 52.4375-16.554687 11.90625-39.199219 10.5625-54.226562-3.226562-1.265625-1.960938-2.851563-3.691406-4.695313-5.121094-5.953125-7.445312-9.210937-16.6875-9.25-26.222656zm-34.132812 34.132812c10.703125-.929687 21.476562.660156 31.453125 4.644532.734375.851562 1.503906 1.707031 2.28125 2.507812.222656.429688.359375.898438.398437 1.382812 0 8.761719-14.410156 25.597657-34.132812 25.597657-19.71875 0-34.132813-16.835938-34.132813-25.597657.042969-.484374.175781-.953124.402344-1.382812.773437-.851562 1.542969-1.648438 2.277344-2.507812 9.976562-3.984376 20.75-5.574219 31.453125-4.644532zm-76.800782-76.796875c23.554688.027344 42.640626 19.113281 42.667969 42.664063-.039062 9.527344-3.300781 18.765625-9.25 26.207031-1.84375 1.429687-3.429687 3.160156-4.695312 5.121094-14.046875 12.894531-34.953125 14.886719-51.183594 4.875s-23.832031-29.589844-18.605469-47.933594c5.222656-18.339844 21.996094-30.976563 41.066406-30.933594zm0 0"/><path d="m323.890625 213.359375c-4.714844 0-8.535156 3.820313-8.535156 8.535156 0 9.425781-7.640625 17.066407-17.066407 17.066407h-102.398437c-9.425781 0-17.066406-7.640626-17.066406-17.066407 0-4.714843-3.820313-8.535156-8.535157-8.535156-4.710937 0-8.53125 3.820313-8.53125 8.535156 0 18.847657 15.28125 34.132813 34.132813 34.132813h102.398437c18.851563 0 34.132813-15.285156 34.132813-34.132813 0-4.714843-3.820313-8.535156-8.53125-8.535156zm0 0"/><path d="m170.289062 162.160156c14.140626 0 25.601563-11.460937 25.601563-25.601562 0-14.136719-11.460937-25.597656-25.601563-25.597656-14.136718 0-25.597656 11.460937-25.597656 25.597656 0 14.140625 11.460938 25.601562 25.597656 25.601562zm0-34.132812c4.714844 0 8.535157 3.820312 8.535157 8.53125 0 4.714844-3.820313 8.535156-8.535157 8.535156-4.710937 0-8.53125-3.820312-8.53125-8.535156 0-4.710938 3.820313-8.53125 8.53125-8.53125zm0 0"/><path d="m323.890625 162.160156c14.136719 0 25.597656-11.460937 25.597656-25.601562 0-14.136719-11.460937-25.597656-25.597656-25.597656-14.140625 0-25.601563 11.460937-25.601563 25.597656 0 14.140625 11.460938 25.601562 25.601563 25.601562zm0-34.132812c4.710937 0 8.53125 3.820312 8.53125 8.53125 0 4.714844-3.820313 8.535156-8.53125 8.535156-4.714844 0-8.535156-3.820312-8.535156-8.535156 0-4.710938 3.820312-8.53125 8.535156-8.53125zm0 0"/></svg>