<svg height="512pt" viewBox="0 0 512.04051 512" width="512pt" xmlns="http://www.w3.org/2000/svg"><path d="m503.488281 373.183594c.203125 14.394531-2.316406 28.695312-7.425781 42.152344-2.582031 6.722656-5.964844 13.113281-10.070312 19.03125-36.265626 53.589843-125.523438 69.121093-229.972657 69.121093-2.472656 0-4.949219 0-7.335937-.085937-.796875.085937-1.597656.085937-2.390625 0-100.265625-.9375-185.089844-17.152344-220.246094-69.035156-4.105469-5.917969-7.484375-12.308594-10.070313-19.03125-5.105468-13.457032-7.625-27.757813-7.421874-42.152344 0-92.671875 88.488281-215.550782 204.882812-240.554688l47.105469-3.414062 9.472656-.683594c130.21875 9.21875 233.472656 144.554688 233.472656 244.652344zm0 0" fill="#00828e"/><path d="m477.886719 373.183594c.199219 14.378906-2.269531 28.675781-7.285157 42.152344-2.539062 6.710937-5.855468 13.101562-9.890624 19.03125-34.535157 51.882812-117.839844 68.097656-216.3125 69.035156-.78125.085937-1.574219.085937-2.355469 0-98.472657-.9375-181.761719-17.152344-216.3125-69.035156-4.035157-5.929688-7.355469-12.320313-9.890625-19.03125-5.015625-13.476563-7.484375-27.773438-7.285156-42.152344 0-92.671875 86.910156-215.550782 201.222656-240.554688l46.242187-3.414062c124.398438 13.824218 221.867188 145.835937 221.867188 243.96875zm0 0" fill="#00bbd3"/><path d="m284.605469 48.660156c-1.730469 10.117188-5.664063 19.730469-11.519531 28.160156-11.363282 17.066407-3.804688 53.027344 2.511718 75.152344 1.347656 4.738282.585938 9.828125-2.09375 13.964844-2.679687 4.132812-7.015625 6.90625-11.894531 7.609375l-21.707031 3.097656c-4.480469.648438-9.035156-.515625-12.652344-3.238281-3.617188-2.71875-5.996094-6.769531-6.617188-11.253906-4.503906-32.253906-21.152343-70.9375-49.945312-85.332032-4.746094-2.230468-8.765625-5.75-11.605469-10.15625zm0 0" fill="#00bbd3"/><g fill="#ffebb2"><path d="m256.019531 392.554688v17.066406c-11.445312-.316406-22.890625.628906-34.132812 2.816406v-19.882812c0-9.425782 7.640625-17.066407 17.066406-17.066407s17.066406 7.640625 17.066406 17.066407zm0 0"/><path d="m145.085938 426.6875v17.066406c-11.339844 1.195313-22.773438 1.28125-34.132813.253906v-17.320312c0-9.425781 7.640625-17.066406 17.066406-17.066406s17.066407 7.640625 17.066407 17.066406zm0 0"/><path d="m401.085938 426.6875v17.320312c-11.359376 1.027344-22.789063.941407-34.132813-.253906v-17.066406c0-9.425781 7.640625-17.066406 17.066406-17.066406s17.066407 7.640625 17.066407 17.066406zm0 0"/><path d="m290.152344 392.554688v19.882812c-11.238282-2.1875-22.683594-3.132812-34.132813-2.816406v-17.066406c0-9.425782 7.640625-17.066407 17.066407-17.066407 9.425781 0 17.066406 7.640625 17.066406 17.066407zm0 0"/></g><path d="m242.027344 220.4375c-4.617188 1.777344-9.347656 3.230469-14.167969 4.351562-4.265625 1.109376-8.703125 2.046876-13.3125 2.816407-11.679687 1.890625-23.492187 2.832031-35.328125 2.816406-2.644531 0-5.203125-.085937-7.761719-.171875h-1.539062c-8.71875-.371094-17.410157-1.253906-26.023438-2.644531-9.375-1.484375-18.578125-3.882813-27.480469-7.167969-1.023437 1.449219-1.960937 2.898438-2.898437 4.351562-13.550781 22.410157-14.742187 50.179688-3.171875 73.671876 11.574219 23.488281 34.320312 39.464843 60.34375 42.378906 2.832031.34375 5.679688.515625 8.53125.515625 28.664062.019531 54.949219-15.933594 68.160156-41.371094 13.210938-25.433594 11.148438-56.113281-5.351562-79.546875zm0 0" fill="#fff"/><path d="m395.625 220.4375c-4.625 1.738281-9.359375 3.191406-14.164062 4.351562-15.914063 3.894532-32.253907 5.785157-48.640626 5.632813-2.730468 0-5.460937-.085937-8.105468-.171875h-.855469c-18.355469-.390625-36.53125-3.703125-53.84375-9.8125-1.023437 1.449219-1.964844 2.898438-2.902344 4.351562-13.546875 22.410157-14.742187 50.179688-3.167969 73.671876 11.574219 23.488281 34.316407 39.464843 60.34375 42.378906 2.828126.34375 5.679688.515625 8.53125.515625 28.664063.019531 54.945313-15.933594 68.160157-41.371094 13.210937-25.433594 11.144531-56.113281-5.355469-79.546875zm0 0" fill="#fff"/><path d="m230.421875 264.554688c.046875 23.335937-15.691406 43.757812-38.273437 49.648437-22.582032 5.894531-46.292969-4.230469-57.652344-24.617187-11.359375-20.386719-7.496094-45.878907 9.398437-61.980469 23.402344 3.753906 47.25 3.753906 70.652344 0 10.152344 9.605469 15.894531 22.972656 15.875 36.949219zm0 0" fill="#e81e63"/><path d="m384.019531 264.554688c.050781 23.335937-15.6875 43.757812-38.269531 49.648437-22.585938 5.894531-46.292969-4.230469-57.65625-24.617187-11.359375-20.386719-7.492188-45.878907 9.398438-61.980469 23.402343 3.753906 47.253906 3.753906 70.65625 0 10.152343 9.605469 15.894531 22.972656 15.871093 36.949219zm0 0" fill="#e81e63"/><path d="m213.355469 264.554688c0 18.851562-15.285157 34.132812-34.136719 34.132812-18.847656 0-34.132812-15.28125-34.132812-34.132812 0-18.851563 15.285156-34.132813 34.132812-34.132813 18.851562 0 34.136719 15.28125 34.136719 34.132813zm0 0" fill="#37474f"/><path d="m366.953125 264.554688c0 18.851562-15.28125 34.132812-34.132813 34.132812-18.851562 0-34.132812-15.28125-34.132812-34.132812 0-18.851563 15.28125-34.132813 34.132812-34.132813 18.851563 0 34.132813 15.28125 34.132813 34.132813zm0 0" fill="#37474f"/><path d="m284.605469 48.660156c-41.980469 32.511719-88.832031 29.527344-125.523438 18.003906-13.484375-21.585937 13.738281-58.109374 71.339844-58.109374 46.164063 0 57.257813 19.539062 54.183594 40.105468zm0 0" fill="#00828e"/><path d="m145.085938 256.019531c0 9.425781-7.640626 17.066407-17.066407 17.066407s-17.066406-7.640626-17.066406-17.066407 7.640625-17.066406 17.066406-17.066406 17.066407 7.640625 17.066407 17.066406zm0 0" fill="#fff"/><path d="m298.6875 256.019531c0 9.425781-7.640625 17.066407-17.066406 17.066407-9.425782 0-17.066406-7.640626-17.066406-17.066407s7.640624-17.066406 17.066406-17.066406c9.425781 0 17.066406 7.640625 17.066406 17.066406zm0 0" fill="#fff"/><path d="m277.355469 120.699219c-2.433594-16.214844-2.40625-31.257813 2.847656-39.144531 6.59375-9.488282 10.988281-20.332032 12.859375-31.734376v-.210937c1.460938-8.652344.144531-17.542969-3.761719-25.398437-8.628906-16.050782-28.433593-24.1914068-58.878906-24.1914068-49.023437 0-77.058594 24.1757808-82.363281 46.6367188-2 8.039062-.777344 16.546875 3.410156 23.695312.128906.257813.292969.460938.429688.699219 3.636718 5.796875 8.824218 10.453125 14.972656 13.449219 16.117187 9.683594 28.457031 24.566406 34.988281 42.199219-116.171875 30.496093-201.8398438 153.0625-201.8398438 246.484375-.3437502 18.496094 3.6328128 36.816406 11.6132808 53.503906.070313.136719.121094.273438.199219.410156 28.550781 57.011719 109.164063 84.921875 244.1875 84.921875 135.023438 0 215.636719-27.910156 244.191407-84.964843.078124-.136719.128906-.273438.195312-.410157 7.976562-16.675781 11.953125-34.980469 11.613281-53.460937 0-105.121094-104.105469-239.003906-234.664062-252.484375zm-112.640625-70.117188c3.78125-16.25 28.160156-33.496093 65.707031-33.496093 23.328125 0 38.484375 5.25 43.792969 15.183593 1.785156 3.597657 2.574218 7.613281 2.285156 11.621094-31.300781 22.867187-68.785156 28.082031-111.511719 15.503906-.957031-2.84375-1.070312-5.90625-.324219-8.8125zm91.304687 444.371094c-111.460937 0-182.175781-18.097656-215.773437-56.097656 22.78125 6.992187 46.234375 11.570312 69.972656 13.652343 5.597656.496094 11.179688.742188 16.691406.742188h1.015625 1.316407c5.605468-.109375 11.203124-.417969 16.699218-.964844h.109375c39.765625-4.4375 50.132813-13.558594 59.289063-21.597656 5.023437-5.085938 11.464844-8.53125 18.484375-9.878906 10.605469-2.039063 21.398437-2.925782 32.195312-2.65625 3.527344 0 6.832031.054687 9.917969.164062 7.492188.113282 14.957031.933594 22.296875 2.441406 7.003906 1.363282 13.433594 4.804688 18.449219 9.878907 9.15625 8.039062 19.523437 17.160156 59.324218 21.597656 5.648438.617187 11.417969.914063 17.234376.964844.625 0 1.238281.050781 1.871093.050781 5.476563 0 11.023438-.238281 16.546875-.734375h.152344c23.738281-2.085937 47.191406-6.660156 69.972656-13.652344-33.585937 37.992188-104.300781 56.089844-215.765625 56.089844zm-119.464843-59.246094c-1.324219.078125-2.636719.179688-3.96875.222657-2.988282.109374-5.972657.125-9.011719.066406-1.347657 0-2.722657-.109375-4.085938-.171875v-9.136719c0-4.714844 3.820313-8.535156 8.53125-8.535156 4.714844 0 8.535157 3.820312 8.535157 8.535156zm93.867187-33.367187v-9.785156c0-4.714844 3.820313-8.535157 8.53125-8.535157 4.714844 0 8.535156 3.820313 8.535156 8.535157v8.644531c-.425781 0-.777343.042969-1.203125.050781-1.367187.042969-2.636718.117188-3.933594.179688-1.871093.09375-3.730468.1875-5.453124.3125-1.238282.09375-2.40625.222656-3.578126.335937-.945312.09375-1.996093.160156-2.898437.261719zm51.199219 0c-.855469-.101563-1.9375-.167969-2.882813-.261719-1.179687-.113281-2.347656-.242187-3.601562-.335937-1.707031-.125-3.578125-.21875-5.445313-.3125-1.296875-.0625-2.558594-.136719-3.933594-.179688-.425781 0-.777343 0-1.203124-.050781v-8.644531c0-4.714844 3.820312-8.535157 8.53125-8.535157 4.714843 0 8.535156 3.820313 8.535156 8.535157zm110.933594 33.484375c-1.382813.0625-2.773438.148437-4.15625.171875-2.96875.058594-5.972657 0-8.867188-.066406-1.355469 0-2.695312-.144532-4.042969-.222657v-9.019531c0-4.714844 3.820313-8.535156 8.53125-8.535156 4.714844 0 8.535157 3.820312 8.535157 8.535156zm93.867187-19.625c-24.871094 8.8125-50.621094 14.910156-76.800781 18.191406v-7.703125c0-14.140625-11.460938-25.601562-25.601563-25.601562-14.136719 0-25.597656 11.460937-25.597656 25.601562v7.339844c-26.453125-3.988282-33.578125-10.191406-40.433594-16.214844-5.503906-5.277344-12.089843-9.300781-19.300781-11.785156v-13.472656c.042969-10.117188-5.898438-19.304688-15.144531-23.410157-9.246094-4.105469-20.046875-2.351562-27.523438 4.464844-7.472656-6.816406-18.273437-8.570313-27.519531-4.464844s-15.191406 13.292969-15.144531 23.410157v13.472656c-7.210938 2.488281-13.796875 6.511718-19.304688 11.785156-6.824219 6.023438-13.984375 12.226562-40.429687 16.214844v-7.339844c0-14.140625-11.460938-25.601562-25.601563-25.601562-14.136719 0-25.597656 11.460937-25.597656 25.601562v7.738281c-26.183594-3.28125-51.929687-9.378906-76.800781-18.191406-5.867188-13.582031-8.777344-28.257813-8.535156-43.050781 0-87.527344 81.015624-202.539063 190.628906-230.402344 3.582031 11.820312 5.480468 24.089844 5.640625 36.4375 0 4.714844 3.820312 8.535156 8.53125 8.535156 4.714843 0 8.535156-3.820312 8.535156-8.535156 0-32.503906-13.101563-73.199219-37.691406-96.921875 5.179687.523437 10.316406.855469 15.359375.855469 20.703125.113281 41.140625-4.65625 59.65625-13.925782-.589844.953126-1.152344 1.9375-1.757813 2.839844-18.945312 28.417969 4.863281 94.191406 7.679688 101.605469 1.066406 2.859375 3.578125 4.929687 6.585937 5.433594 3.003906.503906 6.054688-.636719 7.992188-2.988281 1.941406-2.351563 2.480468-5.558594 1.414062-8.417969-3.566406-9.644531-6.535156-19.5-8.894531-29.507813 116.523437 15.429688 214.1875 138.984375 214.1875 234.992188.246094 14.792968-2.664063 29.46875-8.53125 43.050781zm0 0"/><path d="m392.605469 212.5c-19.230469 6.582031-39.460938 9.757812-59.785157 9.386719-20.320312.371093-40.554687-2.804688-59.785156-9.386719-3.640625-1.382812-7.753906-.125-10 3.054688-2.65625 3.789062-5 7.78125-7.015625 11.945312-2.011719-4.164062-4.359375-8.15625-7.011719-11.945312-2.246093-3.179688-6.363281-4.4375-10.003906-3.054688-19.230468 6.582031-39.460937 9.757812-59.785156 9.386719-20.320312.371093-40.550781-2.804688-59.78125-9.386719-3.640625-1.382812-7.757812-.125-10.003906 3.054688-18.554688 26.292968-20.730469 60.792968-5.617188 89.203124 15.109375 28.414063 44.929688 45.898438 77.105469 45.210938 32.171875-.6875 61.21875-19.433594 75.097656-48.464844 13.914063 28.988282 42.949219 47.6875 75.101563 48.359375 32.148437.667969 61.9375-16.804687 77.042968-45.191406 15.105469-28.390625 12.957032-62.859375-5.558593-89.152344-2.253907-3.167969-6.367188-4.410156-10-3.019531zm-34.183594 52.054688c0 14.136718-11.460937 25.597656-25.601563 25.597656-14.136718 0-25.601562-11.460938-25.601562-25.597656 0-14.140626 11.464844-25.601563 25.601562-25.601563 14.140626 0 25.601563 11.460937 25.601563 25.601563zm-153.601563 0c0 14.136718-11.460937 25.597656-25.601562 25.597656-14.136719 0-25.597656-11.460938-25.597656-25.597656 0-14.140626 11.460937-25.601563 25.597656-25.601563 14.140625 0 25.601562 11.460937 25.601562 25.601563zm-25.601562 68.265624c-37.683594-.042968-68.222656-30.582031-68.265625-68.265624-.019531-11.882813 3.089844-23.558594 9.019531-33.851563 8.882813 2.722656 17.972656 4.722656 27.179688 5.972656-15.070313 17.167969-13.941406 43.160157 2.558594 58.960938 16.5 15.796875 42.519531 15.796875 59.019531 0 16.5-15.800781 17.628906-41.792969 2.558593-58.960938 9.207032-1.25 18.296876-3.25 27.179688-5.972656 5.929688 10.292969 9.039062 21.96875 9.019531 33.851563-.042969 37.683593-30.582031 68.222656-68.269531 68.265624zm153.601562 0c-37.683593-.042968-68.222656-30.582031-68.265624-68.265624-.023438-11.882813 3.089843-23.558594 9.019531-33.851563 8.882812 2.722656 17.972656 4.722656 27.179687 5.972656-15.070312 17.167969-13.941406 43.160157 2.558594 58.960938 16.5 15.796875 42.515625 15.796875 59.015625 0 16.5-15.800781 17.628906-41.792969 2.5625-58.960938 9.203125-1.25 18.292969-3.25 27.175781-5.972656 5.929688 10.292969 9.042969 21.96875 9.019532 33.851563-.039063 37.683593-30.582032 68.222656-68.265626 68.265624zm0 0"/></svg>