<svg height="504pt" viewBox="0 0 504 504.57532" width="504pt" xmlns="http://www.w3.org/2000/svg"><path d="m201.652344 464.035156c-.722656 17.96875-15.507813 32.160156-33.492188 32.148438h-33.570312c-18.542969 0-33.574219-15.035156-33.574219-33.574219v-73.023437zm0 0" fill="#9c27af"/><path d="m403.179688 389.585938v73.023437c0 18.539063-15.03125 33.574219-33.574219 33.574219h-33.574219c-17.984375.011718-32.769531-14.179688-33.492188-32.148438l75.457032-55.816406zm0 0" fill="#6a1b99"/><path d="m377.996094 408.21875v54.390625c0 18.539063-15.03125 33.574219-33.570313 33.574219h-8.394531c-17.984375.011718-32.769531-14.179688-33.492188-32.148438zm0 0" fill="#9c27af"/><path d="m428.359375 303.132812c0 92.746094-78.898437 167.867188-176.261719 167.867188-2.601562 0-5.207031-.082031-7.722656-.25-.445312.082031-.898438.082031-1.34375 0-93.167969-4.449219-167.195312-77.808594-167.195312-167.617188.476562-59.9375 33.234374-114.960937 85.695312-143.949218h181.128906c52.464844 28.988281 85.222656 84.011718 85.699219 143.949218zm0 0" fill="#6a1b99"/><path d="m403.179688 303.132812c-.964844 90.398438-72.683594 164.140626-163.019532 167.617188-.433594.082031-.875.082031-1.308594 0-90.335937-3.476562-162.054687-77.21875-163.015624-167.617188.179687-59.453124 32.019531-114.304687 83.554687-143.949218h160.230469c51.535156 29.644531 83.375 84.496094 83.558594 143.949218zm0 0" fill="#9c27af"/><path d="m215.46875 271.371094c-45.125-17.617188-71.316406-64.855469-62.355469-112.460938 8.964844-47.601562 50.542969-82.085937 98.984375-82.085937 48.4375 0 90.019532 34.484375 98.980469 82.085937 8.964844 47.605469-17.230469 94.84375-62.351563 112.460938zm0 0" fill="#cc66a1"/><path d="m252.097656 84.902344c-2.855468 0-5.625.167968-8.394531.421875-42.640625 3.902343-77 36.609375-83 79.003906-6 42.398437 17.9375 83.355469 57.820313 98.9375h67.148437c41.398437-16.125 65.445313-59.453125 57.222656-103.113281-8.21875-43.664063-46.367187-75.28125-90.796875-75.25zm0 0" fill="#fff"/><path d="m310.851562 177.230469c0 32.449219-26.304687 58.753906-58.753906 58.753906-32.449218 0-58.753906-26.304687-58.753906-58.753906s26.304688-58.753907 58.753906-58.753907c32.449219 0 58.753906 26.304688 58.753906 58.753907zm0 0" fill="#00bbd3"/><path d="m285.671875 177.230469c0 18.542969-15.035156 33.574219-33.574219 33.574219-18.542968 0-33.574218-15.03125-33.574218-33.574219s15.03125-33.574219 33.574218-33.574219c18.539063 0 33.574219 15.03125 33.574219 33.574219zm0 0" fill="#37474f"/><path d="m252.097656 261.164062v16.789063c-11.382812-.128906-22.714844 1.542969-33.574218 4.953125v-21.742188c0-9.269531 7.515624-16.785156 16.785156-16.785156 9.273437 0 16.789062 7.515625 16.789062 16.785156zm0 0" fill="#ffebb2"/><path d="m285.671875 261.164062v21.742188c-10.863281-3.410156-22.191406-5.082031-33.574219-4.953125v-16.789063c0-9.269531 7.515625-16.785156 16.785156-16.785156 9.273438 0 16.789063 7.515625 16.789063 16.785156zm0 0" fill="#ffebb2"/><path d="m142.980469 76.507812c0 37.085938-30.0625 67.148438-67.144531 67.148438-37.085938 0-67.148438-30.0625-67.148438-67.148438 0-37.082031 30.0625-67.144531 67.148438-67.144531 37.082031 0 67.144531 30.0625 67.144531 67.144531zm0 0" fill="#cc66a1"/><path d="m495.507812 76.507812c0 37.085938-30.066406 67.148438-67.148437 67.148438-37.085937 0-67.148437-30.0625-67.148437-67.148438 0-37.082031 30.0625-67.144531 67.148437-67.144531 37.082031 0 67.148437 30.0625 67.148437 67.144531zm0 0" fill="#cc66a1"/><path d="m75.835938 17.753906c-2.8125-.03125-5.625.191406-8.394532.671875-28.890625 4.148438-50.335937 28.898438-50.335937 58.082031 0 29.1875 21.445312 53.9375 50.335937 58.085938 2.769532.480469 5.582032.703125 8.394532.671875 32.445312 0 58.753906-26.308594 58.753906-58.757813 0-32.445312-26.308594-58.753906-58.753906-58.753906zm0 0" fill="#fff"/><path d="m495.507812 76.507812c0 37.085938-30.066406 67.148438-67.148437 67.148438-3.207031.050781-6.410156-.203125-9.570313-.753906-.90625-.085938-1.804687-.253906-2.683593-.503906-31.804688-5.835938-54.902344-33.554688-54.902344-65.890626 0-32.332031 23.097656-60.050781 54.902344-65.886718.878906-.25 1.777343-.417969 2.683593-.503906 3.160157-.554688 6.363282-.804688 9.570313-.753907 17.808594 0 34.886719 7.074219 47.480469 19.664063 12.59375 12.59375 19.667968 29.671875 19.667968 47.480468zm0 0" fill="#ced7db"/><path d="m470.324219 76.507812c0 32.101563-22.71875 59.710938-54.21875 65.890626-31.804688-5.835938-54.902344-33.554688-54.902344-65.890626 0-32.332031 23.097656-60.050781 54.902344-65.886718 31.5 6.179687 54.21875 33.789062 54.21875 65.886718zm0 0" fill="#fff"/><path d="m117.800781 76.507812c0 23.179688-18.789062 41.96875-41.964843 41.96875-23.179688 0-41.96875-18.789062-41.96875-41.96875 0-23.175781 18.789062-41.964843 41.96875-41.964843 23.175781 0 41.964843 18.789062 41.964843 41.964843zm0 0" fill="#00bbd3"/><path d="m470.324219 76.507812c0 23.179688-18.789063 41.96875-41.964844 41.96875-23.179687 0-41.96875-18.789062-41.96875-41.96875 0-23.175781 18.789063-41.964843 41.96875-41.964843 23.175781 0 41.964844 18.789062 41.964844 41.964843zm0 0" fill="#00bbd3"/><path d="m101.015625 76.507812c0 13.910157-11.273437 25.183594-25.179687 25.183594-13.910157 0-25.183594-11.273437-25.183594-25.183594 0-13.90625 11.273437-25.179687 25.183594-25.179687 13.90625 0 25.179687 11.273437 25.179687 25.179687zm0 0" fill="#37474f"/><path d="m453.539062 76.507812c0 13.910157-11.273437 25.183594-25.179687 25.183594s-25.179687-11.273437-25.179687-25.183594c0-13.90625 11.273437-25.179687 25.179687-25.179687s25.179687 11.273437 25.179687 25.179687zm0 0" fill="#37474f"/><g fill="#fff"><path d="m59.046875 51.328125c0 9.273437-7.515625 16.789063-16.785156 16.789063-9.273438 0-16.789063-7.515626-16.789063-16.789063 0-9.269531 7.515625-16.785156 16.789063-16.785156 9.269531 0 16.785156 7.515625 16.785156 16.785156zm0 0"/><path d="m235.308594 143.65625c0 13.90625-11.273438 25.179688-25.179688 25.179688s-25.179687-11.273438-25.179687-25.179688 11.273437-25.179688 25.179687-25.179688 25.179688 11.273438 25.179688 25.179688zm0 0"/><path d="m411.570312 51.328125c0 9.273437-7.515624 16.789063-16.785156 16.789063-9.269531 0-16.789062-7.515626-16.789062-16.789063 0-9.269531 7.519531-16.785156 16.789062-16.785156 9.269532 0 16.785156 7.515625 16.785156 16.785156zm0 0"/></g><path d="m30.441406 136.75c-5.394531 16.105469-7.0625 33.222656-4.882812 50.066406 5.253906 36.730469 33.238281 40.875 55.722656 44.199219l2.367188.371094c-24.445313 51.53125-21.066407 111.953125 8.972656 160.4375v70.785156c.027344 23.164063 18.800781 41.9375 41.96875 41.964844h33.570312c18.640625.054687 35.039063-12.292969 40.148438-30.214844 28.804687 6.738281 58.773437 6.738281 87.578125 0 5.105469 17.921875 21.507812 30.269531 40.144531 30.214844h33.574219c23.164062-.027344 41.9375-18.800781 41.964843-41.964844v-70.785156c30.039063-48.484375 33.417969-108.90625 8.972657-160.4375l2.367187-.371094c22.488282-3.355469 50.472656-7.46875 55.726563-44.199219 2.179687-16.84375.507812-33.960937-4.886719-50.066406 31.699219-24.082031 39.105469-68.710938 16.886719-101.738281-22.222657-33.03125-66.351563-42.988281-100.601563-22.699219-34.25 20.285156-46.726562 63.769531-28.441406 99.128906s60.984375 50.3125 97.332031 34.085938c3.738281 12.609375 4.792969 25.863281 3.089844 38.90625-3.304687 23.164062-17.953125 26.480468-41.5625 29.980468-2.660156.394532-5.414063.839844-8.183594 1.277344-15.335937-25.460937-36.746093-46.714844-62.3125-61.871094-10.777343-45.324218-51.269531-77.320312-97.859375-77.320312s-87.082031 31.996094-97.859375 77.320312c-25.566406 15.15625-46.976562 36.410157-62.3125 61.871094-2.769531-.472656-5.523437-.882812-8.183593-1.277344-23.613282-3.5-38.257813-6.816406-41.566407-29.980468-1.699219-13.042969-.648437-26.296875 3.089844-38.90625 36.816406 16.5 80.113281 1.390625 98.671875-34.429688 18.558594-35.824218 5.929688-79.90625-28.785156-100.46875-34.710938-20.558594-79.4375-10.449218-101.933594 23.042969s-14.9375 78.71875 17.222656 103.078125zm339.164063-60.242188c0-32.445312 26.304687-58.753906 58.753906-58.753906s58.753906 26.308594 58.753906 58.753906c0 32.449219-26.304687 58.757813-58.753906 58.757813-32.433594-.039063-58.71875-26.324219-58.753906-58.757813zm-201.445313 411.28125h-33.570312c-13.910156 0-25.183594-11.273437-25.183594-25.179687v-47.726563c22.089844 25.492188 50.710938 44.484376 82.785156 54.933594-3.109375 10.675782-12.910156 18.003906-24.03125 17.972656zm226.625-25.179687c0 13.90625-11.273437 25.179687-25.179687 25.179687h-33.574219c-11.121094.03125-20.917969-7.296874-24.03125-17.972656 32.074219-10.449218 60.695312-29.441406 82.785156-54.933594zm-142.6875-369.3125c38.429688.015625 71.941406 26.128906 81.347656 63.390625s-7.695312 76.152344-41.515624 94.40625c-3.203126-7.429688-9.800782-12.847656-17.710938-14.546875-7.90625-1.699219-16.148438.53125-22.121094 5.984375-5.972656-5.453125-14.214844-7.683594-22.125-5.984375s-14.507812 7.117187-17.710937 14.546875c-33.820313-18.253906-50.921875-57.144531-41.515625-94.40625s42.917968-63.375 81.351562-63.390625zm17.96875 177.511719c-1.878906-.269532-3.808594-.445313-5.734375-.628906-1.0625-.09375-2.105469-.234376-3.179687-.300782l-.664063-.066406v-8.648438c0-4.632812 3.757813-8.390624 8.394531-8.390624 4.636719 0 8.394532 3.757812 8.394532 8.390624v10.855469c-1.242188-.253906-2.519532-.421875-3.792969-.640625-1.277344-.21875-2.257813-.410156-3.417969-.570312zm-30.214844-.628906c-1.921874.183593-3.855468.359374-5.734374.628906-1.15625.160156-2.273438.378906-3.414063.570312-1.144531.195313-2.519531.386719-3.796875.640625v-10.855469c0-4.632812 3.757812-8.390624 8.394531-8.390624s8.394531 3.757812 8.394531 8.390624v8.648438l-.664062.066406c-1.066406.066406-2.105469.207032-3.171875.300782zm-88.394531-94.519532c0 .53125-.082031 1.042969-.082031 1.570313-.160156 39.421875 22.84375 75.261719 58.753906 91.53125v8.46875c-57.914062 23.222656-58.753906 92.328125-58.753906 93.050781 0 4.632812 3.757812 8.390625 8.394531 8.390625 4.632813 0 8.390625-3.757813 8.390625-8.390625 0-.621094.605469-62.421875 52.957032-79.394531 20.210937-6.027344 41.746093-6.027344 61.960937 0 52.113281 16.894531 52.953125 76.875 52.953125 79.394531 0 4.632812 3.757812 8.390625 8.394531 8.390625 4.632813 0 8.390625-3.757813 8.390625-8.390625 0-.722656-.839844-69.828125-58.753906-93.050781v-8.46875c35.910156-16.269531 58.917969-52.109375 58.753906-91.53125 0-.527344-.074218-1.039063-.082031-1.570313 16.84375 11.980469 31.25 27.0625 42.445313 44.4375-13.84375 4.597656-23.773438 16.800782-25.457032 31.289063-.367187 2.195312.152344 4.449219 1.449219 6.261719 1.292969 1.808593 3.253906 3.035156 5.449219 3.398437.453125.082031.914062.121094 1.375.117187 4.097656-.003906 7.59375-2.964843 8.269531-7.007812 1-9.507812 8.015625-17.289062 17.375-19.261719 10.671875 21.167969 16.261719 44.53125 16.324219 68.238281 0 87.9375-75.304688 159.476563-167.867188 159.476563s-167.871094-71.539063-167.871094-159.476563c.058594-23.707031 5.648438-47.070312 16.316407-68.238281 9.359375 1.972657 16.375 9.753907 17.375 19.261719.675781 4.042969 4.175781 7.007812 8.277343 7.007812.464844.003907.925782-.035156 1.382813-.117187 2.199219-.363281 4.160156-1.589844 5.453125-3.398437 1.292969-1.8125 1.8125-4.066407 1.449219-6.261719-1.6875-14.488281-11.613281-26.691407-25.457031-31.289063 11.191406-17.375 25.59375-32.457031 42.433593-44.4375zm-75.621093-157.90625c32.445312 0 58.753906 26.308594 58.753906 58.753906 0 32.449219-26.308594 58.757813-58.753906 58.757813-32.449219 0-58.757813-26.308594-58.757813-58.757813.039063-32.433593 26.320313-58.714843 58.757813-58.753906zm0 0"/><path d="m75.835938 110.082031c18.539062 0 33.570312-15.03125 33.570312-33.574219 0-18.539062-15.03125-33.570312-33.570312-33.570312-18.542969 0-33.574219 15.03125-33.574219 33.570312 0 18.542969 15.03125 33.574219 33.574219 33.574219zm0-50.359375c9.269531 0 16.785156 7.515625 16.785156 16.785156 0 9.273438-7.515625 16.789063-16.785156 16.789063-9.273438 0-16.789063-7.515625-16.789063-16.789063 0-9.269531 7.515625-16.785156 16.789063-16.785156zm0 0"/><path d="m428.359375 42.9375c-18.542969 0-33.574219 15.03125-33.574219 33.570312 0 18.542969 15.03125 33.574219 33.574219 33.574219s33.574219-15.03125 33.574219-33.574219c0-8.902343-3.539063-17.441406-9.835938-23.738281s-14.835937-9.832031-23.738281-9.832031zm0 50.359375c-9.273437 0-16.789063-7.515625-16.789063-16.789063 0-9.269531 7.515626-16.785156 16.789063-16.785156 9.269531 0 16.785156 7.515625 16.785156 16.785156 0 9.273438-7.515625 16.789063-16.785156 16.789063zm0 0"/><path d="m252.097656 219.199219c23.175782 0 41.964844-18.789063 41.964844-41.96875 0-23.175781-18.789062-41.964844-41.964844-41.964844-23.179687 0-41.96875 18.789063-41.96875 41.964844.027344 23.167969 18.800782 41.941406 41.96875 41.96875zm0-67.148438c13.90625 0 25.179688 11.273438 25.179688 25.179688s-11.273438 25.179687-25.179688 25.179687-25.183594-11.273437-25.183594-25.179687 11.277344-25.179688 25.183594-25.179688zm0 0"/><path d="m232.792969 325.945312c5.507812-4.25 12.355469-6.386718 19.304687-6.027343 6.914063-.367188 13.738282 1.738281 19.246094 5.9375 3.292969 3.179687 8.527344 3.132812 11.765625-.105469 3.238281-3.234375 3.28125-8.472656.101563-11.765625-8.605469-7.457031-19.738282-11.339844-31.113282-10.851563-11.378906-.488281-22.511718 3.394532-31.117187 10.851563-3.242188 3.238281-3.265625 8.488281-.050781 11.75 3.234374 3.300781 8.515624 3.394531 11.863281.210937zm0 0"/></svg>