<?xml version="1.0" encoding="iso-8859-1"?>
<!-- Generator: Adobe Illustrator 22.1.0, SVG Export Plug-In . SVG Version: 6.00 Build 0)  -->
<svg xmlns="http://www.w3.org/2000/svg" xmlns:xlink="http://www.w3.org/1999/xlink" version="1.1" id="Layer_3" x="0px" y="0px" viewBox="0 0 64 64" style="enable-background:new 0 0 64 64;" xml:space="preserve" width="512" height="512">
<g>
	<g>
		<path style="fill:#D1DA59;" d="M52,42c0,16.569-8.954,20-20,20s-20-3.431-20-20S20.954,2,32,2S52,25.431,52,42z"/>
	</g>
	<g>
		<path style="fill:#F29C37;" d="M28.007,3.022L32,16l3.993-12.978C34.703,2.361,33.368,2,32,2S29.297,2.361,28.007,3.022z"/>
	</g>
	<g>
		<path style="fill:#E58231;" d="M26,5l-0.02-0.007C20.703,3.014,15.113,2,9.477,2H2l4.978,2.074    c4.613,1.922,8.693,4.931,11.892,8.77L19,13"/>
	</g>
	<g>
		<path style="fill:#E58231;" d="M38,5l0.02-0.007C43.297,3.014,48.887,2,54.523,2H62l-4.978,2.074    c-4.613,1.922-8.693,4.931-11.892,8.77L45,13"/>
	</g>
	<g>
		<path style="fill:#B63830;" d="M32,54L32,54c-8.837,0-16-7.163-16-16v-2h32v2C48,46.837,40.837,54,32,54z"/>
	</g>
	<g>
		<polyline style="fill:#FFFFFF;" points="46,36 43,42 40,36 38,45 35,36 32,41 29,36 26,45 24,36 21,42 18,36   "/>
	</g>
	<g>
		<polyline style="fill:#FFFFFF;" points="26,53 29,47 32,54   "/>
	</g>
	<g>
		<polyline style="fill:#FFFFFF;" points="38,53 35,47 32,54   "/>
	</g>
	<g>
		<circle style="fill:#FFFFFF;" cx="17" cy="23" r="9"/>
	</g>
	<g>
		<circle style="fill:#FFFFFF;" cx="47" cy="23" r="9"/>
	</g>
	<g>
		<path style="fill:#39474E;" d="M20,23c-1.657,0-3-1.343-3-3c0-0.738,0.277-1.405,0.719-1.928C17.482,18.038,17.246,18,17,18    c-2.761,0-5,2.239-5,5s2.239,5,5,5s5-2.239,5-5c0-0.246-0.038-0.482-0.072-0.719C21.405,22.723,20.738,23,20,23z"/>
	</g>
	<g>
		<path style="fill:#39474E;" d="M50,23c-1.657,0-3-1.343-3-3c0-0.738,0.277-1.405,0.719-1.928C47.482,18.038,47.246,18,47,18    c-2.761,0-5,2.239-5,5s2.239,5,5,5s5-2.239,5-5c0-0.246-0.038-0.482-0.072-0.719C51.405,22.723,50.738,23,50,23z"/>
	</g>
	<g>
		<path d="M32,63c-9.777,0-21-2.387-21-21c0-3.457,0.372-7.185,1.106-11.08l1.965,0.371C13.36,35.064,13,38.667,13,42    c0,16.742,9.604,19,19,19c16.742,0,19-9.604,19-19c0-3.333-0.36-6.936-1.071-10.708l1.965-0.371C52.628,34.815,53,38.543,53,42    C53,60.613,41.777,63,32,63z"/>
	</g>
	<g>
		<path d="M19.534,14.598l-1.789-0.895C21.84,5.512,26.902,1,32,1s10.16,4.511,14.255,12.702l-1.789,0.895C40.728,7.118,36.3,3,32,3    C27.699,3,23.271,7.119,19.534,14.598z"/>
	</g>
	<g>
		<path d="M17,33c-5.514,0-10-4.486-10-10s4.486-10,10-10s10,4.486,10,10h-2c0-4.411-3.589-8-8-8s-8,3.589-8,8s3.589,8,8,8V33z"/>
	</g>
	<g>
		<path d="M47,33v-2c4.411,0,8-3.589,8-8s-3.589-8-8-8s-8,3.589-8,8h-2c0-5.514,4.486-10,10-10s10,4.486,10,10S52.514,33,47,33z"/>
	</g>
	<g>
		<path d="M18.231,13.64l-0.13-0.156C15.019,9.784,11.039,6.85,6.594,4.997L1.615,2.923C1.176,2.74,0.926,2.271,1.02,1.804    C1.113,1.337,1.523,1,2,1h7.478c5.775,0,11.445,1.028,16.854,3.056l-0.702,1.873l-0.02-0.008C20.446,3.985,15.012,3,9.478,3H7    l0.363,0.151c4.741,1.976,8.986,5.105,12.275,9.052l0.13,0.157L18.231,13.64z"/>
	</g>
	<g>
		<path d="M45.769,13.64l-1.537-1.279l0.13-0.156c3.289-3.947,7.534-7.077,12.275-9.053L57,3h-2.478    C48.988,3,43.554,3.985,38.37,5.929l-0.741-1.857l0.02-0.008C43.077,2.028,48.747,1,54.522,1H62c0.477,0,0.887,0.337,0.98,0.804    c0.094,0.468-0.156,0.937-0.596,1.119l-4.979,2.074c-4.445,1.853-8.425,4.787-11.508,8.487L45.769,13.64z"/>
	</g>
	<g>
		<path d="M32,55c-9.374,0-17-7.626-17-17v-2c0-0.553,0.447-1,1-1h32c0.553,0,1,0.447,1,1v2C49,47.374,41.374,55,32,55z M17,37v1    c0,8.271,6.729,15,15,15s15-6.729,15-15v-1H17z"/>
	</g>
	<g>
		<path d="M38,46c-0.429,0-0.812-0.273-0.948-0.684l-2.312-6.938l-1.882,3.136c-0.361,0.602-1.354,0.602-1.715,0l-1.882-3.136    l-2.312,6.938c-0.142,0.426-0.531,0.701-1,0.683c-0.448-0.023-0.827-0.344-0.925-0.782l-1.389-6.25l-1.74,3.48    c-0.34,0.678-1.449,0.678-1.789,0l-3-6l1.789-0.895L21,39.764l2.105-4.211c0.189-0.378,0.593-0.602,1.017-0.545    c0.42,0.052,0.763,0.362,0.854,0.775l1.217,5.476l1.858-5.575c0.123-0.37,0.451-0.635,0.839-0.678    c0.396-0.043,0.766,0.146,0.967,0.479L32,39.057l2.143-3.571c0.2-0.334,0.572-0.522,0.967-0.479    c0.388,0.043,0.716,0.308,0.839,0.678l1.858,5.575l1.217-5.476c0.092-0.413,0.435-0.724,0.854-0.775    c0.425-0.058,0.827,0.167,1.017,0.545L43,39.764l2.105-4.211l1.789,0.895l-3,6c-0.34,0.678-1.449,0.678-1.789,0l-1.74-3.48    l-1.389,6.25c-0.098,0.438-0.477,0.759-0.925,0.782C38.034,46,38.017,46,38,46z"/>
	</g>
	<g>
		<path d="M31.081,54.394l-2.15-5.018l-2.036,4.071l-1.789-0.895l3-6c0.175-0.349,0.537-0.551,0.924-0.553    c0.39,0.012,0.736,0.248,0.89,0.606l3,7L31.081,54.394z"/>
	</g>
	<g>
		<path d="M32.919,54.394l-1.838-0.787l3-7c0.153-0.358,0.5-0.595,0.89-0.606c0.38,0.002,0.75,0.204,0.924,0.553l3,6l-1.789,0.895    l-2.036-4.071L32.919,54.394z"/>
	</g>
	<g>
		<path d="M17,29c-3.309,0-6-2.691-6-6s2.691-6,6-6c0.273,0,0.537,0.035,0.8,0.073c0.359,0.053,0.694,0.301,0.822,0.641    c0.129,0.34,0.095,0.728-0.141,1.005C18.262,18.979,18,19.411,18,20c0,1.103,0.897,2,2,2c0.589,0,1.021-0.262,1.281-0.481    c0.277-0.236,0.661-0.299,1.001-0.173c0.34,0.129,0.583,0.433,0.635,0.792C22.965,22.463,23,22.727,23,23    C23,26.309,20.309,29,17,29z M16.105,19.101C14.329,19.508,13,21.102,13,23c0,2.206,1.794,4,4,4c1.898,0,3.492-1.329,3.899-3.105    C20.605,23.964,20.304,24,20,24c-2.206,0-4-1.794-4-4C16,19.696,16.036,19.395,16.105,19.101z"/>
	</g>
	<g>
		<path d="M47,29c-3.309,0-6-2.691-6-6s2.691-6,6-6c0.273,0,0.537,0.035,0.8,0.073c0.359,0.053,0.694,0.301,0.822,0.641    c0.129,0.34,0.095,0.728-0.141,1.005C48.262,18.979,48,19.411,48,20c0,1.103,0.897,2,2,2c0.589,0,1.021-0.262,1.281-0.481    c0.278-0.236,0.66-0.299,1.001-0.173c0.34,0.129,0.583,0.433,0.635,0.792C52.965,22.463,53,22.727,53,23    C53,26.309,50.309,29,47,29z M46.105,19.101C44.329,19.508,43,21.102,43,23c0,2.206,1.794,4,4,4c1.898,0,3.492-1.329,3.899-3.105    C50.605,23.964,50.304,24,50,24c-2.206,0-4-1.794-4-4C46,19.696,46.036,19.395,46.105,19.101z"/>
	</g>
	<g>
		<path d="M32,17c-0.439,0-0.827-0.286-0.956-0.706l-4-13l1.912-0.588L32,12.6l3.044-9.894l1.912,0.588l-4,13    C32.827,16.714,32.439,17,32,17z"/>
	</g>
</g>
</svg>
