<?xml version="1.0" encoding="iso-8859-1"?>
<!-- Generator: Adobe Illustrator 22.1.0, SVG Export Plug-In . SVG Version: 6.00 Build 0)  -->
<svg xmlns="http://www.w3.org/2000/svg" xmlns:xlink="http://www.w3.org/1999/xlink" version="1.1" id="Layer_3" x="0px" y="0px" viewBox="0 0 64 64" style="enable-background:new 0 0 64 64;" xml:space="preserve" width="512" height="512">
<g>
	<g>
		<path style="fill:#9F2857;" d="M45,62L45,62c2.621-4.587,4-9.779,4-15.062V39l8,10l1.418-2.552C60.767,42.219,62,37.461,62,32.624    v0C62,16.799,49.994,3.21,34.21,2.079C16.642,0.821,2,14.701,2,32v0.624c0,4.837,1.233,9.595,3.582,13.824L7,49l8-10v7.938    c0,5.283,1.379,10.475,4,15.062l0,0l1.8-2.4C23.444,56.075,27.593,54,32,54h0c4.407,0,8.556,2.075,11.2,5.6L45,62L45,62z"/>
	</g>
	<g>
		<path style="fill:#D73964;" d="M57,49l1.418-2.552c2.123-3.822,3.325-8.077,3.538-12.432C61.175,18.888,49.456,6.171,34.21,5.079    C17.085,3.853,2.746,17.013,2.034,33.702c0.169,4.464,1.373,8.832,3.548,12.746L7,49l8-10v3v4.938c0,5.283,1.379,10.475,4,15.062    l1.8-2.4C23.444,56.075,27.593,54,32,54s8.556,2.075,11.2,5.6L45,62c2.621-4.587,4-9.779,4-15.062V42v-3L57,49z"/>
	</g>
	<g>
		<polyline style="fill:#FFFFFF;" points="21,40 25,46 27,37   "/>
	</g>
	<g>
		<polyline style="fill:#FFFFFF;" points="43,40 39,46 37,37   "/>
	</g>
	<g>
		<circle style="fill:#74564A;" cx="22" cy="21" r="9"/>
	</g>
	<g>
		<circle style="fill:#FFFFFF;" cx="43" cy="21" r="6"/>
	</g>
	<g>
		<circle style="fill:#39474E;" cx="22" cy="21" r="4"/>
	</g>
	<g>
		<circle style="fill:#39474E;" cx="43" cy="21" r="2"/>
	</g>
	<g>
		<path d="M45,63c-0.313,0-0.61-0.147-0.8-0.4l-1.8-2.4C39.957,56.943,36.069,55,32,55s-7.957,1.943-10.4,5.2L19.8,62.6    c-0.202,0.27-0.509,0.413-0.862,0.398c-0.336-0.021-0.639-0.21-0.806-0.502C15.429,57.766,14,52.386,14,46.938v-5.087    l-6.219,7.774c-0.209,0.26-0.526,0.407-0.865,0.371c-0.332-0.027-0.628-0.219-0.79-0.511l-1.418-2.553    C2.282,42.567,1,37.619,1,32.624V32c0-8.576,3.602-16.848,9.882-22.694c6.368-5.928,14.682-8.847,23.399-8.224    C50.386,2.235,63,16.09,63,32.624c0,4.995-1.282,9.943-3.708,14.309l-1.418,2.553c-0.162,0.292-0.458,0.483-0.79,0.511    c-0.336,0.041-0.656-0.111-0.865-0.371L50,41.851v5.087c0,5.448-1.429,10.828-4.132,15.559c-0.167,0.292-0.47,0.481-0.806,0.502    C45.041,62.999,45.021,63,45,63z M32,53c4.695,0,9.182,2.243,12,5.999l0.86,1.147C46.919,56.06,48,51.524,48,46.938V39    c0-0.425,0.269-0.803,0.669-0.943s0.845-0.013,1.112,0.318l7.068,8.836l0.694-1.249C59.805,41.893,61,37.28,61,32.624    c0-15.49-11.799-28.469-26.861-29.547c-8.164-0.585-15.938,2.147-21.895,7.693C6.369,16.239,3,23.977,3,32v0.624    c0,4.656,1.195,9.269,3.456,13.338l0.694,1.249l7.068-8.836c0.267-0.331,0.713-0.458,1.112-0.318C15.731,38.197,16,38.575,16,39    v7.938c0,4.587,1.081,9.122,3.14,13.209L20,59C22.818,55.243,27.305,53,32,53z"/>
	</g>
	<g>
		<path d="M22,31c-5.514,0-10-4.486-10-10s4.486-10,10-10s10,4.486,10,10S27.514,31,22,31z M22,13c-4.411,0-8,3.589-8,8s3.589,8,8,8    s8-3.589,8-8S26.411,13,22,13z"/>
	</g>
	<g>
		<path d="M22,26c-2.757,0-5-2.243-5-5s2.243-5,5-5s5,2.243,5,5S24.757,26,22,26z M22,18c-1.654,0-3,1.346-3,3s1.346,3,3,3    s3-1.346,3-3S23.654,18,22,18z"/>
	</g>
	<g>
		<path d="M43,24c-1.654,0-3-1.346-3-3s1.346-3,3-3s3,1.346,3,3S44.654,24,43,24z M43,20c-0.552,0-1,0.449-1,1s0.448,1,1,1    s1-0.449,1-1S43.552,20,43,20z"/>
	</g>
	<g>
		<path d="M43,28c-3.859,0-7-3.14-7-7s3.141-7,7-7s7,3.14,7,7S46.859,28,43,28z M43,16c-2.757,0-5,2.243-5,5s2.243,5,5,5    s5-2.243,5-5S45.757,16,43,16z"/>
	</g>
	<g>
		<path d="M44.349,42.759l-2.444-2.096C39.148,38.301,35.631,37,32,37s-7.148,1.301-9.905,3.663l-2.443,2.096l-1.303-1.518    l2.444-2.096C23.912,36.472,27.892,35,32,35s8.088,1.472,11.206,4.146l2.445,2.096L44.349,42.759z"/>
	</g>
	<g>
		<path d="M25,47c-0.33,0-0.645-0.164-0.832-0.445l-4-6l1.664-1.109l2.7,4.05l1.491-6.712l1.953,0.434l-2,9    c-0.087,0.392-0.399,0.692-0.793,0.767C25.122,46.994,25.061,47,25,47z"/>
	</g>
	<g>
		<path d="M39,47c-0.061,0-0.122-0.006-0.184-0.017c-0.394-0.074-0.706-0.375-0.793-0.767l-2-9l1.953-0.434l1.491,6.712l2.7-4.05    l1.664,1.109l-4,6C39.645,46.836,39.33,47,39,47z"/>
	</g>
</g>
</svg>
