<?xml version="1.0" encoding="iso-8859-1"?>
<!-- Generator: Adobe Illustrator 22.1.0, SVG Export Plug-In . SVG Version: 6.00 Build 0)  -->
<svg xmlns="http://www.w3.org/2000/svg" xmlns:xlink="http://www.w3.org/1999/xlink" version="1.1" id="Layer_3" x="0px" y="0px" viewBox="0 0 64 64" style="enable-background:new 0 0 64 64;" xml:space="preserve" width="512" height="512">
<g>
	<g>
		<path style="fill:#D73964;" d="M14,15c-3.314,0-6,2.686-6,6c-3.314,0-6-2.686-6-6s2.686-6,6-6h6"/>
	</g>
	<g>
		<path style="fill:#D73964;" d="M50,15c3.314,0,6,2.686,6,6c3.314,0,6-2.686,6-6s-2.686-6-6-6h-6"/>
	</g>
	<g>
		<path style="fill:#F6C244;" d="M50,60V2H14v58c0,1.105,0.895,2,2,2h6c1.105,0,2-0.895,2-2v-4h16v4c0,1.105,0.895,2,2,2h6    C49.105,62,50,61.105,50,60z"/>
	</g>
	<g>
		<path style="fill:#39474E;" d="M32,52L32,52c-6.075,0-11-4.925-11-11V28h22v13C43,47.075,38.075,52,32,52z"/>
	</g>
	<g>
		<polyline style="fill:#FFFFFF;" points="25,28 25,37 31,37 30,28   "/>
	</g>
	<g>
		<circle style="fill:#FFFFFF;" cx="24" cy="18" r="6"/>
	</g>
	<g>
		<circle style="fill:#FFFFFF;" cx="40" cy="18" r="6"/>
	</g>
	<g>
		<polyline style="fill:#FFFFFF;" points="30,52 29,46 34,46 34,52   "/>
	</g>
	<g>
		<circle style="fill:#39474E;" cx="22" cy="16" r="3"/>
	</g>
	<g>
		<circle style="fill:#39474E;" cx="38" cy="16" r="3"/>
	</g>
	<g>
		<path style="fill:#D73964;" d="M28,2c-1.657,0-3,1.343-3,3s1.343,3,3,3c0.395,0,0.77-0.081,1.116-0.22    C29.461,9.056,30.615,10,32,10s2.539-0.944,2.884-2.22C35.23,7.919,35.605,8,36,8c1.657,0,3-1.343,3-3s-1.343-3-3-3"/>
	</g>
	<g>
		<path d="M48,63h-6c-1.654,0-3-1.346-3-3v-3H25v3c0,1.654-1.346,3-3,3h-6c-1.654,0-3-1.346-3-3V2c0-0.552,0.447-1,1-1h36    c0.553,0,1,0.448,1,1v58C51,61.654,49.654,63,48,63z M24,55h16c0.553,0,1,0.448,1,1v4c0,0.551,0.448,1,1,1h6c0.552,0,1-0.449,1-1    V3H15v57c0,0.551,0.448,1,1,1h6c0.552,0,1-0.449,1-1v-4C23,55.448,23.447,55,24,55z"/>
	</g>
	<g>
		<path d="M32,53c-6.617,0-12-5.383-12-12V28c0-0.552,0.447-1,1-1h22c0.553,0,1,0.448,1,1v13C44,47.617,38.617,53,32,53z M22,29v12    c0,5.514,4.486,10,10,10s10-4.486,10-10V29H22z"/>
	</g>
	<g>
		<path d="M31,38h-6c-0.553,0-1-0.448-1-1v-9h2v8h3.883l-0.877-7.89l1.988-0.221l1,9c0.031,0.283-0.06,0.565-0.249,0.777    S31.284,38,31,38z"/>
	</g>
	<g>
		<path d="M24,25c-3.859,0-7-3.14-7-7s3.141-7,7-7s7,3.14,7,7S27.859,25,24,25z M24,13c-2.757,0-5,2.243-5,5s2.243,5,5,5    s5-2.243,5-5S26.757,13,24,13z"/>
	</g>
	<g>
		<path d="M22,20c-2.206,0-4-1.794-4-4s1.794-4,4-4s4,1.794,4,4S24.206,20,22,20z M22,14c-1.103,0-2,0.897-2,2s0.897,2,2,2    s2-0.897,2-2S23.103,14,22,14z"/>
	</g>
	<g>
		<path d="M40,25c-3.859,0-7-3.14-7-7s3.141-7,7-7s7,3.14,7,7S43.859,25,40,25z M40,13c-2.757,0-5,2.243-5,5s2.243,5,5,5    s5-2.243,5-5S42.757,13,40,13z"/>
	</g>
	<g>
		<path d="M38,20c-2.206,0-4-1.794-4-4s1.794-4,4-4s4,1.794,4,4S40.206,20,38,20z M38,14c-1.103,0-2,0.897-2,2s0.897,2,2,2    s2-0.897,2-2S39.103,14,38,14z"/>
	</g>
	<g>
		<path d="M8,22c-3.859,0-7-3.14-7-7s3.141-7,7-7h6v2H8c-2.757,0-5,2.243-5,5c0,2.444,1.763,4.484,4.084,4.916    C7.606,16.569,10.509,14,14,14v2c-2.757,0-5,2.243-5,5C9,21.552,8.553,22,8,22z"/>
	</g>
	<g>
		<path d="M56,22c-0.553,0-1-0.448-1-1c0-2.757-2.243-5-5-5v-2c3.491,0,6.394,2.569,6.916,5.916C59.237,19.484,61,17.444,61,15    c0-2.757-2.243-5-5-5h-6V8h6c3.859,0,7,3.14,7,7S59.859,22,56,22z"/>
	</g>
	<g>
		<path d="M32,11c-1.457,0-2.775-0.802-3.472-2.036C28.354,8.988,28.177,9,28,9c-2.206,0-4-1.794-4-4s1.794-4,4-4v2    c-1.103,0-2,0.897-2,2s0.897,2,2,2c0.249,0,0.499-0.05,0.742-0.147c0.265-0.107,0.562-0.095,0.818,0.033    c0.256,0.127,0.445,0.358,0.52,0.633C30.316,8.391,31.106,9,32,9s1.684-0.609,1.92-1.481c0.074-0.275,0.264-0.506,0.52-0.633    c0.255-0.127,0.553-0.14,0.818-0.033C35.501,6.95,35.751,7,36,7c1.103,0,2-0.897,2-2s-0.897-2-2-2V1c2.206,0,4,1.794,4,4    s-1.794,4-4,4c-0.177,0-0.354-0.012-0.528-0.036C34.775,10.198,33.457,11,32,11z"/>
	</g>
	<g>
		<path d="M29.014,52.165l-1-6c-0.049-0.29,0.033-0.586,0.224-0.811C28.427,45.129,28.706,45,29,45h5c0.553,0,1,0.448,1,1v6h-2v-5    h-2.819l0.806,4.835L29.014,52.165z"/>
	</g>
</g>
</svg>
