<?xml version="1.0" encoding="iso-8859-1"?>
<!-- Generator: Adobe Illustrator 22.1.0, SVG Export Plug-In . SVG Version: 6.00 Build 0)  -->
<svg xmlns="http://www.w3.org/2000/svg" xmlns:xlink="http://www.w3.org/1999/xlink" version="1.1" id="Layer_3" x="0px" y="0px" viewBox="0 0 64 64" style="enable-background:new 0 0 64 64;" xml:space="preserve" width="512" height="512">
<g>
	<g>
		<path style="fill:#97C05C;" d="M26.085,54h11.829c-0.623,1.604-1.505,3.108-2.623,4.45L34,60l0.401,0.115    C38.779,61.365,43.31,62,47.863,62H48l0.151-0.565c2.373-8.901,3.659-18.053,3.83-27.258C55.523,32.638,58,29.108,58,25    c0-5.523-4.477-10-10-10c-1.486,0-2.896,0.324-4.163,0.905C40.517,13.445,36.414,12,32,12h0c-4.414,0-8.517,1.445-11.837,3.905    C18.896,15.324,17.486,15,16,15c-5.523,0-10,4.477-10,10c0,4.108,2.477,7.638,6.02,9.176c0.171,9.205,1.456,18.358,3.83,27.258    L16,62h0.137c4.553,0,9.084-0.635,13.461-1.885L30,60l-1.292-1.55C27.59,57.108,26.708,55.604,26.085,54z"/>
	</g>
	<g>
		<path style="fill:#FAE0B8;" d="M48,62l0.151-0.565c0.223-0.838,0.428-1.68,0.632-2.522L44,57l-7-1l-0.041,0.005    c-0.48,0.859-1.031,1.681-1.668,2.445L34,60l0.401,0.115C38.779,61.365,43.31,62,47.863,62H48z"/>
	</g>
	<g>
		<path style="fill:#FAE0B8;" d="M30,60l-1.292-1.55c-0.638-0.766-1.19-1.59-1.67-2.45H27l-7,1l-4.782,1.913    c0.204,0.842,0.408,1.684,0.632,2.522L16,62h0.137c4.553,0,9.084-0.635,13.461-1.885L30,60z"/>
	</g>
	<g>
		<path style="fill:#4496EC;" d="M26,13l4.586-10.09C30.838,2.356,31.391,2,32,2h0c0.609,0,1.162,0.356,1.414,0.91L38,13"/>
	</g>
	<g>
		<polyline style="fill:#FFFFFF;" points="21,39 22,45 27,45 26,39   "/>
	</g>
	<g>
		<polyline style="fill:#FFFFFF;" points="43,39 42,45 37,45 38,39   "/>
	</g>
	<g>
		<circle style="fill:#FFFFFF;" cx="16" cy="25" r="10"/>
	</g>
	<g>
		<circle style="fill:#FFFFFF;" cx="48" cy="25" r="10"/>
	</g>
	<g>
		<path style="fill:#FAE0B8;" d="M24.651,20c-1.73-2.986-4.952-5-8.651-5c-5.523,0-10,4.477-10,10c0,0.326,0.018,0.648,0.049,0.966    C11.233,22.095,17.529,20,24,20H24.651z"/>
	</g>
	<g>
		<path style="fill:#FAE0B8;" d="M57.951,25.966C57.982,25.648,58,25.326,58,25c0-5.523-4.477-10-10-10    c-3.699,0-6.921,2.014-8.651,5H40C46.471,20,52.767,22.095,57.951,25.966z"/>
	</g>
	<g>
		<circle style="fill:#39474E;" cx="17" cy="28" r="3"/>
	</g>
	<g>
		<circle style="fill:#39474E;" cx="47" cy="28" r="3"/>
	</g>
	<g>
		<path d="M16.138,63H16c-0.453,0-0.85-0.305-0.967-0.743l-0.15-0.565c-2.406-9.025-3.708-18.337-3.866-27.675l2-0.033    c0.154,9.112,1.416,18.199,3.751,27.013c3.873-0.051,7.724-0.57,11.472-1.547l-0.3-0.358C25.399,56.041,24,52.176,24,48.207V48h2    v0.207c0,3.502,1.234,6.913,3.477,9.604l1.292,1.549c0.216,0.26,0.287,0.612,0.187,0.936c-0.1,0.323-0.355,0.574-0.682,0.667    l-0.401,0.114C25.405,62.353,20.783,63,16.138,63z"/>
	</g>
	<g>
		<path d="M43.241,16.709C39.969,14.282,36.082,13,32,13s-7.969,1.282-11.241,3.709l-1.191-1.607C23.188,12.418,27.486,11,32,11    s8.812,1.418,12.433,4.102L43.241,16.709z"/>
	</g>
	<g>
		<path d="M48,63h-0.138c-4.646,0-9.268-0.647-13.735-1.924l-0.4-0.114c-0.326-0.093-0.582-0.344-0.682-0.667    c-0.101-0.323-0.029-0.676,0.187-0.936l1.292-1.55C36.766,55.12,38,51.709,38,48.207V48h2v0.207c0,3.969-1.399,7.834-3.939,10.883    l-0.3,0.359c3.748,0.977,7.6,1.496,11.472,1.547c2.335-8.813,3.597-17.901,3.751-27.013l2,0.033    c-0.158,9.338-1.46,18.649-3.867,27.676l-0.149,0.564C48.85,62.695,48.453,63,48,63z"/>
	</g>
	<g>
		<path d="M16,36C9.935,36,5,31.065,5,25s4.935-11,11-11s11,4.935,11,11S22.065,36,16,36z M16,16c-4.963,0-9,4.037-9,9s4.037,9,9,9    s9-4.037,9-9S20.963,16,16,16z"/>
	</g>
	<g>
		<path d="M6.6,26.8L5.4,25.2C10.731,21.202,17.337,19,24,19h1v2h-1C17.767,21,11.588,23.06,6.6,26.8z"/>
	</g>
	<g>
		<path d="M17,32c-2.206,0-4-1.794-4-4s1.794-4,4-4s4,1.794,4,4S19.206,32,17,32z M17,26c-1.103,0-2,0.897-2,2s0.897,2,2,2    s2-0.897,2-2S18.103,26,17,26z"/>
	</g>
	<g>
		<path d="M48,36c-6.065,0-11-4.935-11-11s4.935-11,11-11s11,4.935,11,11S54.065,36,48,36z M48,16c-4.963,0-9,4.037-9,9s4.037,9,9,9    s9-4.037,9-9S52.963,16,48,16z"/>
	</g>
	<g>
		<path d="M57.4,26.8C52.412,23.06,46.233,21,40,21h-1v-2h1c6.663,0,13.269,2.202,18.6,6.2L57.4,26.8z"/>
	</g>
	<g>
		<path d="M47,32c-2.206,0-4-1.794-4-4s1.794-4,4-4s4,1.794,4,4S49.206,32,47,32z M47,26c-1.103,0-2,0.897-2,2s0.897,2,2,2    s2-0.897,2-2S48.103,26,47,26z"/>
	</g>
	<g>
		<path d="M22.2,62.6l-0.6-0.8C19.924,59.565,19,56.795,19,54h2c0,2.365,0.781,4.709,2.2,6.6l0.6,0.801L22.2,62.6z"/>
	</g>
	<g>
		<path d="M41.8,62.6L40.2,61.4l0.6-0.8C42.219,58.709,43,56.365,43,54h2c0,2.795-0.924,5.565-2.601,7.801L41.8,62.6z"/>
	</g>
	<g>
		<path d="M15.371,59.929l-0.742-1.857l5-2c0.073-0.029,0.15-0.05,0.229-0.062l7-1l0.283,1.98l-6.882,0.982L15.371,59.929z"/>
	</g>
	<g>
		<path d="M48.629,59.929l-4.889-1.956l-6.882-0.982l0.283-1.98l7,1c0.079,0.012,0.156,0.032,0.229,0.062l5,2L48.629,59.929z"/>
	</g>
	<g>
		<rect x="18" y="38" width="28" height="2"/>
	</g>
	<g>
		<rect x="26" y="53" width="12" height="2"/>
	</g>
	<g>
		<path d="M37.09,13.414l-4.586-10.09c-0.18-0.395-0.828-0.394-1.008-0.001L26.91,13.414l-1.82-0.828l4.586-10.09    C30.089,1.588,31.001,1,32,1s1.911,0.588,2.324,1.497l4.586,10.089L37.09,13.414z"/>
	</g>
	<g>
		<path d="M27,46h-5c-0.489,0-0.906-0.354-0.986-0.836l-1-6l1.973-0.328L22.847,44h2.973l-0.806-4.836l1.973-0.328l1,6    c0.049,0.29-0.033,0.586-0.224,0.811C27.573,45.871,27.294,46,27,46z"/>
	</g>
	<g>
		<path d="M42,46h-5c-0.294,0-0.573-0.129-0.763-0.354c-0.19-0.225-0.272-0.521-0.224-0.811l1-6l1.973,0.328L38.181,44h2.973    l0.86-5.164l1.973,0.328l-1,6C42.906,45.646,42.489,46,42,46z"/>
	</g>
</g>
</svg>
