<?xml version="1.0" encoding="iso-8859-1"?>
<!-- Generator: Adobe Illustrator 22.1.0, SVG Export Plug-In . SVG Version: 6.00 Build 0)  -->
<svg xmlns="http://www.w3.org/2000/svg" xmlns:xlink="http://www.w3.org/1999/xlink" version="1.1" id="Layer_3" x="0px" y="0px" viewBox="0 0 64 64" style="enable-background:new 0 0 64 64;" xml:space="preserve" width="512" height="512">
<g>
	<g>
		<path style="fill:#2C665C;" d="M33.888,12h-3.775c-10.365,0-18.588,8.732-17.968,19.078L14,62h15l-1-7h8l-1,7h15l1.855-30.922    C52.476,20.732,44.253,12,33.888,12z"/>
	</g>
	<g>
		<path style="fill:#457B3A;" d="M12.236,33.776c-0.777-0.202-1.502-0.534-2.15-0.971l-0.012-0.008L6.301,43.172    C6.102,43.72,6,44.298,6,44.881v0.822c0,2,1.192,3.808,3.03,4.596l4.355,1.866C13.385,52.165,12.236,33.776,12.236,33.776z"/>
	</g>
	<g>
		<path style="fill:#67AC5B;" d="M13,46l-6.362,2.121c0.527,0.951,1.35,1.732,2.392,2.178l4.355,1.866    C13.385,52.165,13.212,49.391,13,46z"/>
	</g>
	<g>
		<path style="fill:#457B3A;" d="M51.764,33.776c0.782-0.203,1.511-0.538,2.162-0.98c0,0,3.773,10.376,3.773,10.376    C57.898,43.72,58,44.298,58,44.881v0.822c0,2-1.192,3.808-3.03,4.596l-4.355,1.866C50.615,52.165,51.764,33.776,51.764,33.776z"/>
	</g>
	<g>
		<path style="fill:#67AC5B;" d="M51,46c-0.212,3.391-0.385,6.165-0.385,6.165l4.355-1.866c1.042-0.446,1.865-1.227,2.392-2.178    L51,46z"/>
	</g>
	<g>
		<path style="fill:#457B3A;" d="M26,7l-11,4l3.883,4.853c2.328-1.832,5.117-3.1,8.167-3.603L26,7z"/>
	</g>
	<g>
		<path style="fill:#457B3A;" d="M49,11L38,7l-1.05,5.25c3.05,0.503,5.839,1.771,8.167,3.603L49,11z"/>
	</g>
	<g>
		<path d="M15.652,20.877l-1.687-1.074C17.478,14.291,23.472,11,30,11h4c6.527,0,12.521,3.29,16.033,8.801l-1.687,1.075    C45.203,15.944,39.84,13,34,13h-4C24.159,13,18.795,15.945,15.652,20.877z"/>
	</g>
	<g>
		<path style="fill:#FFFFFF;" d="M14,62v-3c0-1.657,1.343-3,3-3s3,1.343,3,3v3"/>
	</g>
	<g>
		<path style="fill:#FFFFFF;" d="M20,62v-3c0-1.657,1.343-3,3-3s3,1.343,3,3v3"/>
	</g>
	<g>
		<path style="fill:#FFFFFF;" d="M38,62v-3c0-1.657,1.343-3,3-3s3,1.343,3,3v3"/>
	</g>
	<g>
		<path style="fill:#FFFFFF;" d="M44,62v-3c0-1.657,1.343-3,3-3s3,1.343,3,3v3"/>
	</g>
	<g>
		<polyline style="fill:#FFFFFF;" points="32,40 32,46 26,46 27,40   "/>
	</g>
	<g>
		<polyline style="fill:#FFFFFF;" points="32,40 32,46 38,46 37,40   "/>
	</g>
	<g>
		<circle style="fill:#FFFFFF;" cx="14" cy="27" r="7"/>
	</g>
	<g>
		<circle style="fill:#FFFFFF;" cx="50" cy="27" r="7"/>
	</g>
	<g>
		<circle style="fill:#39474E;" cx="14" cy="27" r="3"/>
	</g>
	<g>
		<circle style="fill:#39474E;" cx="50" cy="27" r="3"/>
	</g>
	<g>
		<polyline style="fill:#67AC5B;" points="17,10 14,5 22,2 24,8   "/>
	</g>
	<g>
		<polyline style="fill:#67AC5B;" points="47,10 50,5 42,2 40,8   "/>
	</g>
	<g>
		<path d="M50,63H35c-0.29,0-0.565-0.126-0.755-0.345c-0.19-0.219-0.275-0.51-0.234-0.797L34.847,56h-5.694l0.837,5.858    c0.041,0.287-0.044,0.578-0.234,0.797C29.565,62.874,29.29,63,29,63H14c-0.528,0-0.965-0.411-0.998-0.938l-1.75-28l1.996-0.125    L14.939,61h12.908l-0.837-5.858c-0.041-0.287,0.044-0.578,0.234-0.797C27.435,54.126,27.71,54,28,54h8    c0.29,0,0.565,0.126,0.755,0.345c0.19,0.219,0.275,0.51,0.234,0.797L36.153,61h12.908l1.691-27.062l1.996,0.125l-1.75,28    C50.965,62.589,50.528,63,50,63z"/>
	</g>
	<g>
		<path d="M21,62h-2v-3c0-1.103-0.897-2-2-2s-2,0.897-2,2v3h-2v-3c0-2.206,1.794-4,4-4s4,1.794,4,4V62z"/>
	</g>
	<g>
		<path d="M27,62h-2v-3c0-1.103-0.897-2-2-2s-2,0.897-2,2v3h-2v-3c0-2.206,1.794-4,4-4s4,1.794,4,4V62z"/>
	</g>
	<g>
		<path d="M45,62h-2v-3c0-1.103-0.897-2-2-2s-2,0.897-2,2v3h-2v-3c0-2.206,1.794-4,4-4s4,1.794,4,4V62z"/>
	</g>
	<g>
		<path d="M51,62h-2v-3c0-1.103-0.897-2-2-2s-2,0.897-2,2v3h-2v-3c0-2.206,1.794-4,4-4s4,1.794,4,4V62z"/>
	</g>
	<g>
		<rect x="20" y="39" width="24" height="2"/>
	</g>
	<g>
		<path d="M32,47h-6c-0.294,0-0.573-0.129-0.763-0.354c-0.19-0.225-0.271-0.521-0.223-0.811l1-6l1.973,0.329L27.181,45H31v-5h2v6    C33,46.552,32.552,47,32,47z"/>
	</g>
	<g>
		<path d="M38,47h-6c-0.552,0-1-0.448-1-1v-6h2v5h3.819l-0.806-4.835l1.973-0.329l1,6c0.048,0.29-0.033,0.586-0.223,0.811    C38.573,46.871,38.294,47,38,47z"/>
	</g>
	<g>
		<path d="M14,35c-4.411,0-8-3.589-8-8s3.589-8,8-8s8,3.589,8,8S18.411,35,14,35z M14,21c-3.309,0-6,2.691-6,6s2.691,6,6,6    s6-2.691,6-6S17.309,21,14,21z"/>
	</g>
	<g>
		<path d="M50,35c-4.411,0-8-3.589-8-8s3.589-8,8-8s8,3.589,8,8S54.411,35,50,35z M50,21c-3.309,0-6,2.691-6,6s2.691,6,6,6    s6-2.691,6-6S53.309,21,50,21z"/>
	</g>
	<g>
		<path d="M14,31c-2.206,0-4-1.794-4-4s1.794-4,4-4s4,1.794,4,4S16.206,31,14,31z M14,25c-1.103,0-2,0.897-2,2s0.897,2,2,2    s2-0.897,2-2S15.103,25,14,25z"/>
	</g>
	<g>
		<path d="M50,31c-2.206,0-4-1.794-4-4s1.794-4,4-4s4,1.794,4,4S52.206,31,50,31z M50,25c-1.103,0-2,0.897-2,2s0.897,2,2,2    s2-0.897,2-2S51.103,25,50,25z"/>
	</g>
	<g>
		<path d="M12.606,52.919l-3.97-1.701C6.427,50.271,5,48.106,5,45.703v-0.822c0-0.702,0.122-1.391,0.361-2.05L9.06,32.658    l1.88,0.684L7.241,43.514C7.081,43.954,7,44.414,7,44.881v0.822c0,1.602,0.952,3.045,2.424,3.677l3.97,1.701L12.606,52.919z"/>
	</g>
	<g>
		<rect x="6.838" y="46" transform="matrix(0.9486 -0.3164 0.3164 0.9486 -14.3559 5.5779)" width="6.325" height="2"/>
	</g>
	<g>
		<path d="M51.394,52.919l-0.788-1.838l3.97-1.701C56.048,48.749,57,47.305,57,45.703v-0.822c0-0.467-0.081-0.927-0.241-1.367    L53.06,33.342l1.88-0.684l3.699,10.172C58.878,43.49,59,44.179,59,44.881v0.822c0,2.403-1.427,4.568-3.636,5.515L51.394,52.919z"/>
	</g>
	<g>
		<rect x="53" y="43.838" transform="matrix(0.3162 -0.9487 0.9487 0.3162 -7.6644 83.3662)" width="2" height="6.325"/>
	</g>
	<g>
		<path d="M18.219,16.625l-4-5c-0.201-0.251-0.269-0.584-0.182-0.895c0.087-0.311,0.318-0.56,0.621-0.67l11-4    c0.274-0.099,0.578-0.075,0.832,0.068c0.254,0.143,0.433,0.39,0.49,0.675l1,5l-1.961,0.393l-0.772-3.859l-8.596,3.126l3.129,3.912    L18.219,16.625z"/>
	</g>
	<g>
		<path d="M16.143,10.515l-3-5C12.99,5.26,12.958,4.951,13.056,4.67c0.098-0.28,0.315-0.502,0.593-0.607l8-3    c0.254-0.095,0.537-0.083,0.782,0.034c0.245,0.117,0.432,0.329,0.518,0.586l2,6l-1.897,0.633l-1.672-5.016l-5.904,2.214    l2.382,3.971L16.143,10.515z"/>
	</g>
	<g>
		<path d="M45.781,16.625l-1.562-1.249l3.129-3.912l-8.596-3.126l-0.772,3.859l-1.961-0.393l1-5c0.057-0.286,0.236-0.532,0.49-0.675    s0.557-0.167,0.832-0.068l11,4c0.303,0.11,0.534,0.359,0.621,0.67c0.087,0.31,0.019,0.643-0.182,0.895L45.781,16.625z"/>
	</g>
	<g>
		<path d="M47.857,10.515l-1.715-1.029l2.382-3.971l-5.904-2.214l-1.672,5.016l-1.897-0.633l2-6    c0.086-0.257,0.273-0.469,0.518-0.586c0.244-0.118,0.527-0.129,0.782-0.034l8,3c0.278,0.104,0.495,0.327,0.593,0.607    c0.098,0.28,0.066,0.589-0.087,0.844L47.857,10.515z"/>
	</g>
</g>
</svg>
