<?xml version="1.0" encoding="iso-8859-1"?>
<!-- Generator: Adobe Illustrator 22.1.0, SVG Export Plug-In . SVG Version: 6.00 Build 0)  -->
<svg xmlns="http://www.w3.org/2000/svg" xmlns:xlink="http://www.w3.org/1999/xlink" version="1.1" id="Layer_3" x="0px" y="0px" viewBox="0 0 64 64" style="enable-background:new 0 0 64 64;" xml:space="preserve" width="512" height="512">
<g>
	<g>
		<path style="fill:#E25341;" d="M14,52l-7,5l0.021,0.021C10.209,60.209,14.533,62,19.042,62H20v-7"/>
	</g>
	<g>
		<path style="fill:#E25341;" d="M50,52l7,5l-0.021,0.021C53.791,60.209,49.467,62,44.958,62H44v-7"/>
	</g>
	<g>
		<path style="fill:#E25341;" d="M20,15l-0.056-0.07C17.391,11.739,16,7.773,16,3.686V2l-3.111,3.63    C11.025,7.805,10,10.575,10,13.439v0.374c0,2.088,0.545,4.14,1.581,5.954L14,24"/>
	</g>
	<g>
		<path style="fill:#E25341;" d="M44,15l0.056-0.07C46.609,11.739,48,7.773,48,3.686V2l3.111,3.63C52.975,7.805,54,10.575,54,13.439    v0.374c0,2.088-0.545,4.14-1.581,5.954L50,24"/>
	</g>
	<g>
		<path style="fill:#9037AA;" d="M55,41c0,12.703-10.297,15-23,15S9,53.703,9,41s10.297-31,23-31S55,28.297,55,41z"/>
	</g>
	<g>
		<path style="fill:#612694;" d="M24.542,24.153C20.871,25.376,17.027,26,13.158,26H13h-0.255c-0.778,1.636-1.451,3.315-2.001,5H11    h0.857c4.739,0,9.454,0.66,14.011,1.962L26,33l-1-9L24.542,24.153z"/>
	</g>
	<g>
		<path style="fill:#612694;" d="M53,31h0.256c-0.55-1.685-1.223-3.364-2.001-5H51h-0.158c-3.869,0-7.713-0.624-11.384-1.847L39,24    l-1,9l0.132-0.038C42.688,31.66,47.404,31,52.143,31H53z"/>
	</g>
	<g>
		<path style="fill:#612694;" d="M15,41c0-2.761-2.239-5-5-5c-0.18,0-0.358,0.01-0.534,0.028C9.161,37.742,9,39.414,9,41    c0,1.885,0.232,3.535,0.659,4.988C9.772,45.996,9.885,46,10,46C12.761,46,15,43.761,15,41z"/>
	</g>
	<g>
		<path style="fill:#612694;" d="M38.932,11.825C36.744,10.665,34.416,10,32,10c-1.002,0-1.988,0.126-2.956,0.342    C29.015,10.558,29,10.777,29,11c0,2.761,2.239,5,5,5C36.48,16,38.539,14.194,38.932,11.825z"/>
	</g>
	<g>
		<path style="fill:#612694;" d="M54.747,37.401C54.219,37.144,53.626,37,53,37c-2.209,0-4,1.791-4,4c0,2.209,1.791,4,4,4    c0.595,0,1.16-0.131,1.667-0.364C54.882,43.529,55,42.324,55,41C55,39.841,54.912,38.635,54.747,37.401z"/>
	</g>
	<g>
		<path style="fill:#39474E;" d="M46,48c0,3.314-6.268,4-14,4s-14-0.686-14-4s6.268-8,14-8S46,44.686,46,48z"/>
	</g>
	<g>
		<path style="fill:#B63830;" d="M32,52c2.964,0,5.709-0.103,7.972-0.414C39.687,48.466,36.232,46,32,46s-7.687,2.466-7.972,5.586    C26.291,51.897,29.036,52,32,52z"/>
	</g>
	<g>
		<polyline style="fill:#FFFFFF;" points="20,44 22,47 26,45 25,41   "/>
	</g>
	<g>
		<polyline style="fill:#FFFFFF;" points="44,44 42,47 38,45 39,41   "/>
	</g>
	<g>
		<circle style="fill:#FFFFFF;" cx="32" cy="28" r="8"/>
	</g>
	<g>
		<circle style="fill:#39474E;" cx="32" cy="28" r="4"/>
	</g>
	<g>
		<path d="M32,57C20.132,57,8,55.099,8,41C8,28.412,18.306,9,32,9s24,19.412,24,32C56,55.099,43.868,57,32,57z M32,11    c-12.145,0-22,18.153-22,30c0,9.944,6.374,14,22,14s22-4.056,22-14C54,29.153,44.145,11,32,11z"/>
	</g>
	<g>
		<path d="M13.132,24.496l-2.419-4.233C9.593,18.303,9,16.072,9,13.813v-0.374c0-3.102,1.111-6.106,3.13-8.46l3.111-3.63    c0.271-0.318,0.712-0.434,1.105-0.287C16.739,1.207,17,1.581,17,2v1.686c0,3.847,1.323,7.618,3.726,10.62l-1.506,1.32    l-0.056-0.069c-2.479-3.099-3.93-6.931-4.138-10.884L13.647,6.28C11.94,8.272,11,10.815,11,13.439v0.374    c0,1.911,0.501,3.799,1.449,5.457l2.419,4.233L13.132,24.496z"/>
	</g>
	<g>
		<path d="M50.868,24.496l-1.736-0.992l2.419-4.233C52.499,17.612,53,15.725,53,13.813v-0.374c0-2.624-0.94-5.167-2.647-7.159    l-1.379-1.607c-0.208,3.953-1.658,7.784-4.137,10.883L44,15l-0.78-0.626l0.056-0.069C45.677,11.304,47,7.532,47,3.686V2    c0-0.419,0.261-0.793,0.653-0.938c0.392-0.146,0.834-0.031,1.105,0.287l3.111,3.63c2.019,2.354,3.13,5.358,3.13,8.46v0.374    c0,2.259-0.593,4.489-1.713,6.449L50.868,24.496z"/>
	</g>
	<g>
		<path d="M20,63h-0.958c-4.809,0-9.329-1.872-12.729-5.272c-0.208-0.208-0.324-0.507-0.3-0.8s0.166-0.57,0.405-0.741l7-5    l1.162,1.627l-6.004,4.289C11.485,59.62,15.138,60.99,19,61v-6h2v7C21,62.553,20.553,63,20,63z"/>
	</g>
	<g>
		<path d="M11.242,60.97l-0.484-1.939l1.728-0.432C13.377,58.375,14,57.577,14,56.657V56h2v0.657c0,1.839-1.246,3.436-3.03,3.881    L11.242,60.97z"/>
	</g>
	<g>
		<path d="M44.958,63H44c-0.553,0-1-0.447-1-1v-7h2v6c3.87-0.01,7.528-1.385,10.425-3.896l-6.006-4.29l1.162-1.627l7,5    c0.239,0.171,0.392,0.438,0.416,0.731c0.023,0.293-0.082,0.581-0.29,0.789C54.287,61.128,49.767,63,44.958,63z"/>
	</g>
	<g>
		<path d="M52.758,60.97l-1.728-0.432C49.246,60.093,48,58.496,48,56.657V56h2v0.657c0,0.92,0.623,1.718,1.515,1.941l1.728,0.432    L52.758,60.97z"/>
	</g>
	<g>
		<path d="M32,37c-4.963,0-9-4.037-9-9s4.037-9,9-9s9,4.037,9,9S36.963,37,32,37z M32,21c-3.859,0-7,3.141-7,7s3.141,7,7,7    s7-3.141,7-7S35.859,21,32,21z"/>
	</g>
	<g>
		<path d="M32,33c-2.757,0-5-2.243-5-5s2.243-5,5-5s5,2.243,5,5S34.757,33,32,33z M32,25c-1.654,0-3,1.346-3,3s1.346,3,3,3    s3-1.346,3-3S33.654,25,32,25z"/>
	</g>
	<g>
		<path d="M13.158,27H13v-2h0.158c3.768,0,7.491-0.604,11.067-1.796l0.459-0.153l0.631,1.898l-0.458,0.152    C21.078,26.361,17.142,27,13.158,27z"/>
	</g>
	<g>
		<path d="M25.723,33.961l-0.132-0.038C21.126,32.647,16.505,32,11.857,32H11v-2h0.857c4.833,0,9.64,0.673,14.285,2l0.135,0.039    L25.723,33.961z"/>
	</g>
	<g>
		<path d="M51,27h-0.158c-3.983,0-7.92-0.639-11.7-1.899l-0.457-0.151l0.631-1.898l0.458,0.152C43.351,24.396,47.074,25,50.842,25    H51V27z"/>
	</g>
	<g>
		<path d="M38.277,33.961l-0.555-1.922l0.132-0.038C42.503,30.673,47.31,30,52.143,30H53v2h-0.857    c-4.647,0-9.269,0.647-13.736,1.924L38.277,33.961z"/>
	</g>
	<g>
		<path d="M32,53c-7.791,0-15-0.605-15-5c0-4.052,6.922-9,15-9s15,4.948,15,9C47,52.395,39.791,53,32,53z M32,41    c-3.358,0-6.686,0.925-9.369,2.605C20.425,44.985,19,46.711,19,48c0,1.99,4.374,3,13,3s13-1.01,13-3C45,45.604,39.51,41,32,41z"/>
	</g>
	<g>
		<path d="M41,52h-2c0-2.757-3.141-5-7-5s-7,2.243-7,5h-2c0-3.859,4.037-7,9-7S41,48.141,41,52z"/>
	</g>
	<g>
		<path d="M22.001,48c-0.325,0-0.642-0.158-0.833-0.445l-2-3l1.664-1.109l1.511,2.266l2.492-1.247l-0.805-3.222l1.939-0.484l1,4    c0.114,0.454-0.104,0.927-0.522,1.137l-4,2C22.305,47.966,22.151,48,22.001,48z"/>
	</g>
	<g>
		<path d="M41.999,48c-0.15,0-0.304-0.034-0.446-0.105l-4-2c-0.419-0.21-0.637-0.683-0.522-1.137l1-4l1.939,0.484l-0.805,3.222    l2.492,1.247l1.511-2.266l1.664,1.109l-2,3C42.641,47.841,42.324,48,41.999,48z"/>
	</g>
	<g>
		<path d="M10,47c-0.14,0-0.277-0.005-0.415-0.014L9.72,44.99C9.812,44.997,9.905,45,10,45c2.206,0,4-1.794,4-4s-1.794-4-4-4    c-0.146,0-0.288,0.008-0.43,0.022l-0.209-1.988C9.571,35.012,9.784,35,10,35c3.309,0,6,2.691,6,6S13.309,47,10,47z"/>
	</g>
	<g>
		<polygon style="fill:none;" points="21,36 21,36 21,36 21,36   "/>
	</g>
	<g>
		<path d="M34,17c-3.309,0-6-2.691-6-6c0-0.272,0.019-0.54,0.054-0.803l1.982,0.264C30.013,10.638,30,10.817,30,11    c0,2.206,1.794,4,4,4c1.967,0,3.626-1.405,3.946-3.342l1.973,0.326C39.439,14.891,36.95,17,34,17z"/>
	</g>
	<g>
		<path d="M53,46c-2.757,0-5-2.243-5-5s2.243-5,5-5c0.767,0,1.502,0.169,2.188,0.503l-0.875,1.799C53.901,38.102,53.46,38,53,38    c-1.654,0-3,1.346-3,3s1.346,3,3,3c0.439,0,0.862-0.092,1.257-0.274l0.838,1.816C54.437,45.846,53.731,46,53,46z"/>
	</g>
</g>
</svg>
