<?xml version="1.0" encoding="iso-8859-1"?>
<!-- Generator: Adobe Illustrator 22.1.0, SVG Export Plug-In . SVG Version: 6.00 Build 0)  -->
<svg xmlns="http://www.w3.org/2000/svg" xmlns:xlink="http://www.w3.org/1999/xlink" version="1.1" id="Layer_3" x="0px" y="0px" viewBox="0 0 64 64" style="enable-background:new 0 0 64 64;" xml:space="preserve" width="512" height="512">
<g>
	<g>
		<path style="fill:#D1D8DB;" d="M14,50l-0.667,0.4c-2.811,1.687-4.992,4.248-6.21,7.292L7,58c0,2.209,1.791,4,4,4s4-1.791,4-4    l-0.023-0.068c-0.599-1.797-0.131-3.778,1.208-5.117L17,52"/>
	</g>
	<g>
		<path style="fill:#D1D8DB;" d="M50,50l0.667,0.4c2.811,1.687,4.992,4.248,6.21,7.292L57,58c0,2.209-1.791,4-4,4s-4-1.791-4-4    l0.023-0.068c0.599-1.797,0.131-3.778-1.208-5.117L47,52"/>
	</g>
	<g>
		<path style="fill:#53BAD1;" d="M51,17l-0.102,0.305c-1.861,5.583-1.511,11.667,0.978,17L55,41c0,7.732-10.297,14-23,14    S9,48.732,9,41l3.124-6.695c2.489-5.333,2.838-11.417,0.978-17L13,17l9-1v2.615c0,3.448,1.37,6.754,3.808,9.192L26,28l0.733-0.488    C28.211,26.526,29.948,26,31.725,26h0.55c1.777,0,3.514,0.526,4.992,1.512L38,28l0.192-0.192C40.63,25.37,42,22.063,42,18.615V16    L51,17z"/>
	</g>
	<g>
		<ellipse style="fill:#B63830;" cx="32" cy="41" rx="14" ry="10"/>
	</g>
	<g>
		<polyline style="fill:#FFFFFF;" points="22,34 25,38 29,36 29,31   "/>
	</g>
	<g>
		<polyline style="fill:#FFFFFF;" points="42,34 39,38 35,36 35,31   "/>
	</g>
	<g>
		<polyline style="fill:#FFFFFF;" points="24,49 27,45 30,46 30,51   "/>
	</g>
	<g>
		<polyline style="fill:#FFFFFF;" points="40,49 37,45 34,46 34,51   "/>
	</g>
	<g>
		<circle style="fill:#D1D8DB;" cx="17" cy="10" r="8"/>
	</g>
	<g>
		<circle style="fill:#D1D8DB;" cx="47" cy="10" r="8"/>
	</g>
	<g>
		<circle style="fill:#39474E;" cx="17" cy="10" r="4"/>
	</g>
	<g>
		<circle style="fill:#39474E;" cx="47" cy="10" r="4"/>
	</g>
	<g>
		<path d="M17,19c-4.962,0-9-4.037-9-9s4.038-9,9-9s9,4.037,9,9S21.962,19,17,19z M17,3c-3.86,0-7,3.141-7,7s3.14,7,7,7s7-3.141,7-7    S20.86,3,17,3z"/>
	</g>
	<g>
		<path d="M47,19c-4.962,0-9-4.037-9-9s4.038-9,9-9s9,4.037,9,9S51.962,19,47,19z M47,3c-3.86,0-7,3.141-7,7s3.14,7,7,7s7-3.141,7-7    S50.86,3,47,3z"/>
	</g>
	<g>
		<path d="M38,29c-0.192,0-0.385-0.055-0.554-0.168l-0.733-0.488C35.394,27.465,33.859,27,32.275,27h-0.55    c-1.584,0-3.119,0.465-4.438,1.344l-0.733,0.488c-0.396,0.267-0.924,0.213-1.261-0.125l-0.192-0.192    C22.456,25.871,21,22.355,21,18.615V16h2v2.615c0,3.023,1.11,5.876,3.138,8.092l0.041-0.027c1.648-1.099,3.566-1.68,5.546-1.68    h0.55c1.98,0,3.898,0.581,5.547,1.68l0.041,0.027C39.89,24.491,41,21.639,41,18.615V16h2v2.615c0,3.74-1.456,7.256-4.101,9.899    l-0.192,0.192C38.514,28.9,38.258,29,38,29z"/>
	</g>
	<g>
		<path d="M17,15c-2.757,0-5-2.243-5-5s2.243-5,5-5s5,2.243,5,5h-2c0-1.654-1.346-3-3-3s-3,1.346-3,3s1.346,3,3,3V15z"/>
	</g>
	<g>
		<path d="M47,15v-2c1.654,0,3-1.346,3-3s-1.346-3-3-3s-3,1.346-3,3h-2c0-2.757,2.243-5,5-5s5,2.243,5,5S49.757,15,47,15z"/>
	</g>
	<g>
		<path d="M32,52c-8.271,0-15-4.935-15-11s6.729-11,15-11s15,4.935,15,11S40.271,52,32,52z M32,32c-7.168,0-13,4.037-13,9    s5.832,9,13,9s13-4.037,13-9S39.168,32,32,32z"/>
	</g>
	<g>
		<path d="M25,39c-0.307,0-0.606-0.141-0.8-0.4l-3-4l1.6-1.199l2.5,3.332L28,35.382V31h2v5c0,0.379-0.214,0.725-0.553,0.895l-4,2    C25.305,38.966,25.152,39,25,39z"/>
	</g>
	<g>
		<path d="M39,39c-0.151,0-0.304-0.034-0.447-0.105l-4-2C34.214,36.725,34,36.379,34,36v-5h2v4.382l2.701,1.351l2.5-3.332l1.6,1.199    l-3,4C39.606,38.859,39.306,39,39,39z"/>
	</g>
	<g>
		<path d="M31,51h-2v-4.279l-1.632-0.544L24.8,49.6L23.2,48.4l3-4c0.259-0.345,0.709-0.485,1.116-0.349l3,1    C30.725,45.188,31,45.569,31,46V51z"/>
	</g>
	<g>
		<path d="M35,51h-2v-5c0-0.431,0.275-0.812,0.684-0.948l3-1c0.407-0.138,0.858,0.004,1.116,0.349l3,4L39.2,49.6l-2.568-3.423    L35,46.721V51z"/>
	</g>
	<g>
		<path d="M11,63c-2.757,0-5-2.243-5-5c0-0.127,0.024-0.254,0.072-0.372l0.124-0.309c1.29-3.226,3.643-5.988,6.623-7.776l0.667-0.4    l1.029,1.715l-0.667,0.4c-2.608,1.564-4.667,3.981-5.795,6.805L8.005,58.18C8.099,59.75,9.406,61,11,61    c1.606,0,2.921-1.269,2.997-2.856c-0.662-2.188-0.094-4.46,1.481-6.036l0.815-0.814l1.414,1.414l-0.815,0.814    c-1.078,1.078-1.448,2.647-0.966,4.094C15.96,57.718,16,57.893,16,58C16,60.757,13.757,63,11,63z"/>
	</g>
	<g>
		<path d="M53,63c-2.757,0-5-2.243-5-5c0-0.108,0.018-0.216,0.052-0.318c0.504-1.513,0.134-3.082-0.944-4.16l-0.815-0.814    l1.414-1.414l0.815,0.814c1.593,1.593,2.156,3.899,1.481,6.042C50.082,59.734,51.396,61,53,61c1.594,0,2.901-1.25,2.995-2.82    l-0.046-0.116c-1.129-2.824-3.188-5.241-5.796-6.806l-0.667-0.4l1.029-1.715l0.667,0.4c2.98,1.788,5.333,4.551,6.624,7.777    l0.123,0.308C57.976,57.746,58,57.873,58,58C58,60.757,55.757,63,53,63z"/>
	</g>
	<g>
		<path d="M32,56C18.767,56,8,49.271,8,41c0-0.146,0.032-0.29,0.094-0.423l3.125-6.695c2.391-5.122,2.723-10.897,0.935-16.26    l-0.102-0.306l1.897-0.633l0.102,0.306c1.95,5.851,1.588,12.15-1.02,17.738l-3.028,6.488C10.198,48.285,19.991,54,32,54    s21.802-5.715,21.997-12.784l-3.028-6.488c-2.608-5.588-2.97-11.888-1.02-17.738l0.102-0.306l1.897,0.633l-0.102,0.306    c-1.788,5.362-1.456,11.138,0.935,16.26l3.125,6.695C55.968,40.71,56,40.854,56,41C56,49.271,45.233,56,32,56z"/>
	</g>
</g>
</svg>
