<?xml version="1.0" encoding="iso-8859-1"?>
<!-- Generator: Adobe Illustrator 22.1.0, SVG Export Plug-In . SVG Version: 6.00 Build 0)  -->
<svg xmlns="http://www.w3.org/2000/svg" xmlns:xlink="http://www.w3.org/1999/xlink" version="1.1" id="Layer_3" x="0px" y="0px" viewBox="0 0 64 64" style="enable-background:new 0 0 64 64;" xml:space="preserve" width="512" height="512">
<g>
	<g>
		<path style="fill:#9E9C3D;" d="M21,47l-0.466,0.933C18.867,51.265,18,54.94,18,58.666v0.165c0,1.624,1.216,3.081,2.839,3.166    C22.569,62.086,24,60.71,24,59l-0.193-0.385c-1.15-2.299-1.261-4.981-0.306-7.367L24,50"/>
	</g>
	<g>
		<path style="fill:#9E9C3D;" d="M34,52l0.234,0.625c1.732,4.618,5.622,8.089,10.407,9.285L45,62c1.71,0,3.086-1.431,2.996-3.161    C47.911,57.216,46.455,56,44.83,56h-0.466c-2.126,0-4.138-0.967-5.466-2.627L37,51"/>
	</g>
	<g>
		<path style="fill:#9E9C3D;" d="M17,35l-1.777-0.889C12.446,32.723,9.384,32,6.279,32H6.172c-2.089,0-3.955,1.527-4.153,3.607    C1.791,37.993,3.661,40,6,40l0.036-0.014c3.252-1.301,6.789-1.725,10.256-1.229L18,39"/>
	</g>
	<g>
		<path style="fill:#9E9C3D;" d="M41,31l0.024-0.012c5.276-2.638,10.977-4.321,16.839-4.973L58,26c2.209,0,4,1.791,4,4s-1.791,4-4,4    l-0.242-0.069c-4.413-1.261-9.094-1.23-13.49,0.089L41,35"/>
	</g>
	<g>
		<path style="fill:#E25341;" d="M41,27c0,13.807,0.941,25-9,25s-15-7.193-15-21S22.059,2,32,2S41,13.193,41,27z"/>
	</g>
	<g>
		<path style="fill:#39474E;" d="M38,40c0,4.418-3.582,8-8,8s-6-3.582-6-8s1.582-6,6-6S38,35.582,38,40z"/>
	</g>
	<g>
		<polyline style="fill:#FFFFFF;" points="28,34 28,38 33,38 33,34   "/>
	</g>
	<g>
		<polyline style="fill:#FFFFFF;" points="28,48 28,44 32,44 33,48   "/>
	</g>
	<g>
		<circle style="fill:#FFFFFF;" cx="30" cy="17" r="7"/>
	</g>
	<g>
		<circle style="fill:#39474E;" cx="30" cy="17" r="3"/>
	</g>
	<g>
		<path d="M32,53c-7.299,0-16-3.816-16-22c0-7.361,1.407-14.685,3.861-20.091C22.804,4.427,27.001,1,32,1    c2.735,0,4.83,0.77,6.405,2.354c3.7,3.722,3.659,11.058,3.607,20.346C42.006,24.779,42,25.881,42,27s0.006,2.221,0.013,3.301    c0.052,9.288,0.093,16.624-3.607,20.346C36.83,52.23,34.735,53,32,53z M32,3c-9.094,0-14,14.427-14,28c0,13.271,4.71,20,14,20    c2.175,0,3.807-0.577,4.986-1.764c3.115-3.132,3.073-10.45,3.026-18.924C40.006,29.229,40,28.123,40,27s0.006-2.229,0.013-3.312    c0.047-8.474,0.089-15.792-3.026-18.924C35.807,3.577,34.175,3,32,3z"/>
	</g>
	<g>
		<path d="M30,25c-4.411,0-8-3.589-8-8s3.589-8,8-8s8,3.589,8,8S34.411,25,30,25z M30,11c-3.309,0-6,2.691-6,6s2.691,6,6,6    s6-2.691,6-6S33.309,11,30,11z"/>
	</g>
	<g>
		<path d="M30,21c-2.206,0-4-1.794-4-4s1.794-4,4-4v2c-1.103,0-2,0.897-2,2s0.897,2,2,2s2-0.897,2-2h2C34,19.206,32.206,21,30,21z"/>
	</g>
	<g>
		<path d="M30,49c-4.448,0-7-3.28-7-9c0-4.972,2.028-7,7-7c5.72,0,9,2.552,9,7C39,44.963,34.963,49,30,49z M30,35    c-3.879,0-5,1.121-5,5c0,4.645,1.683,7,5,7c3.859,0,7-3.141,7-7C37,36.683,34.645,35,30,35z"/>
	</g>
	<g>
		<path d="M33,39h-5c-0.553,0-1-0.447-1-1v-4h2v3h3v-3h2v4C34,38.553,33.553,39,33,39z"/>
	</g>
	<g>
		<path d="M32.03,48.242L31.219,45H29v3h-2v-4c0-0.553,0.447-1,1-1h4c0.459,0,0.858,0.312,0.97,0.758l1,4L32.03,48.242z"/>
	</g>
	<g>
		<path d="M21.002,63c-0.071,0-0.143-0.002-0.215-0.005C18.663,62.884,17,61.054,17,58.83v-0.164c0-3.862,0.913-7.729,2.64-11.181    l0.466-0.933l1.789,0.895l-0.466,0.933C19.84,51.556,19,55.112,19,58.666v0.164c0,1.141,0.849,2.112,1.892,2.167    c0.562,0.027,1.083-0.165,1.485-0.547c0.35-0.332,0.562-0.765,0.612-1.236l-0.076-0.151c-1.276-2.554-1.4-5.537-0.341-8.187    l0.499-1.247l1.857,0.742l-0.499,1.247c-0.848,2.12-0.749,4.507,0.272,6.55l0.192,0.385C24.964,58.691,25,58.845,25,59    c0,1.092-0.454,2.149-1.246,2.901C23.002,62.614,22.032,63,21.002,63z"/>
	</g>
	<g>
		<path d="M45,63c-0.082,0-0.164-0.01-0.243-0.03l-0.358-0.09c-5.104-1.275-9.254-4.979-11.101-9.904l-0.234-0.624l1.873-0.703    l0.234,0.625c1.615,4.311,5.247,7.55,9.713,8.667l0.228,0.057c0.511-0.027,0.983-0.245,1.339-0.62    c0.382-0.402,0.576-0.93,0.547-1.486C46.942,57.849,45.971,57,44.83,57h-0.466c-2.443,0-4.721-1.095-6.247-3.002l-1.898-2.373    l1.562-1.25l1.898,2.373C40.824,54.18,42.531,55,44.364,55h0.466c2.224,0,4.054,1.663,4.165,3.786    c0.058,1.11-0.331,2.164-1.094,2.968C47.149,62.546,46.092,63,45,63z"/>
	</g>
	<g>
		<path d="M6,41c-1.406,0-2.755-0.597-3.701-1.638c-0.944-1.039-1.41-2.442-1.275-3.85C1.265,32.982,3.525,31,6.172,31h0.106    c3.243,0,6.491,0.767,9.392,2.217l1.777,0.889l-0.895,1.789l-1.777-0.889C12.151,33.693,9.213,33,6.278,33H6.172    c-1.626,0-3.014,1.187-3.158,2.702c-0.082,0.86,0.19,1.683,0.766,2.315c0.528,0.58,1.265,0.931,2.044,0.978    c3.394-1.319,7.043-1.738,10.61-1.229l1.708,0.244l-0.283,1.98l-1.708-0.244c-3.287-0.469-6.658-0.066-9.743,1.168    C6.289,40.961,6.127,41,6,41z"/>
	</g>
	<g>
		<path d="M41.287,35.958l-0.574-1.916l3.269-0.98c4.588-1.377,9.447-1.408,14.051-0.093l0.099,0.028C59.725,32.929,61,31.61,61,30    c0-1.637-1.317-2.972-2.947-3l-0.076,0.009c-5.766,0.641-11.318,2.28-16.506,4.874l-0.918-1.777l0.023-0.012    c5.399-2.699,11.179-4.405,17.177-5.072l0.134-0.015C57.924,25.002,57.962,25,58,25c2.757,0,5,2.243,5,5s-2.243,5-5,5    c-0.093,0-0.186-0.013-0.275-0.039l-0.242-0.069c-4.234-1.21-8.703-1.18-12.927,0.086L41.287,35.958z"/>
	</g>
</g>
</svg>
