<svg height="512pt" viewBox="-34 0 512 512" width="512pt" xmlns="http://www.w3.org/2000/svg"><path d="m435.199219 221.867188v273.066406c0 4.710937-3.820313 8.53125-8.53125 8.53125h-409.601563c-4.710937 0-8.53125-3.820313-8.53125-8.53125v-273.066406c-.058594-114.523438 90.363282-208.640626 204.796875-213.164063 2.816407-.085937 5.71875-.167969 8.535157-.167969 56.585937-.019531 110.855468 22.449219 150.867187 62.460938 40.011719 40.011718 62.484375 94.285156 62.464844 150.871094zm0 0" fill="#f47c00"/><path d="m409.601562 221.867188v273.066406c.03125 4.65625-3.699218 8.46875-8.355468 8.53125h-384.359375c-4.65625-.0625-8.386719-3.875-8.351563-8.53125v-273.066406c-1.171875-113.347657 87.324219-207.417969 200.53125-213.164063 52.707032 2.207031 102.570313 24.496094 139.367188 62.292969 39.363281 40.335937 61.328125 94.511718 61.167968 150.871094zm0 0" fill="#fdc008"/><path d="m128 110.933594c-2.851562-.003906-5.703125.167968-8.535156.511718-34.214844 4.214844-59.917969 33.277344-59.917969 67.753907 0 34.476562 25.703125 63.539062 59.917969 67.753906 2.832031.34375 5.683594.515625 8.535156.511719 37.703125 0 68.265625-30.5625 68.265625-68.265625s-30.5625-68.265625-68.265625-68.265625zm0 0" fill="#f4f4f4"/><path d="m315.734375 110.933594c-2.851563-.003906-5.703125.167968-8.535156.511718-34.214844 4.214844-59.921875 33.277344-59.921875 67.753907 0 34.476562 25.707031 63.539062 59.921875 67.753906 2.832031.34375 5.683593.515625 8.535156.511719 37.703125 0 68.265625-30.5625 68.265625-68.265625s-30.5625-68.265625-68.265625-68.265625zm0 0" fill="#f4f4f4"/><path d="m179.199219 179.199219c0 28.277343-22.921875 51.199219-51.199219 51.199219s-51.199219-22.921876-51.199219-51.199219c0-28.277344 22.921875-51.199219 51.199219-51.199219s51.199219 22.921875 51.199219 51.199219zm0 0" fill="#00bbd3"/><path d="m366.933594 179.199219c0 28.277343-22.921875 51.199219-51.199219 51.199219s-51.199219-22.921876-51.199219-51.199219c0-28.277344 22.921875-51.199219 51.199219-51.199219s51.199219 22.921875 51.199219 51.199219zm0 0" fill="#00bbd3"/><path d="m153.601562 179.199219c0 14.140625-11.464843 25.601562-25.601562 25.601562s-25.601562-11.460937-25.601562-25.601562c0-14.136719 11.464843-25.597657 25.601562-25.597657s25.601562 11.460938 25.601562 25.597657zm0 0" fill="#37474f"/><path d="m341.332031 179.199219c0 14.140625-11.460937 25.601562-25.597656 25.601562-14.140625 0-25.601563-11.460937-25.601563-25.601562 0-14.136719 11.460938-25.597657 25.601563-25.597657 14.136719 0 25.597656 11.460938 25.597656 25.597657zm0 0" fill="#37474f"/><path d="m128 281.601562h187.734375c14.136719 0 25.597656 11.460938 25.597656 25.597657v136.535156c0 14.136719-11.460937 25.597656-25.597656 25.597656h-187.734375c-14.136719 0-25.601562-11.460937-25.601562-25.597656v-136.535156c0-14.136719 11.464843-25.597657 25.601562-25.597657zm0 0" fill="#ac1457"/><path d="m329.8125 285.78125-29.523438 41.300781c-4.367187 6.242188-12.390624 8.765625-19.542968 6.144531h-.085938c-1.628906-.539062-3.15625-1.34375-4.523437-2.390624l-9.898438-7.421876c-4.582031-3.421874-10.570312-4.316406-15.957031-2.390624-1.613281.574218-3.136719 1.378906-4.519531 2.390624l-13.65625 10.238282c-4.582031 3.421875-10.574219 4.316406-15.957031 2.390625-1.613282-.574219-3.136719-1.378907-4.523438-2.390625l-13.652344-10.238282c-4.582031-3.421874-10.574218-4.316406-15.957031-2.390624-1.613281.574218-3.140625 1.378906-4.523437 2.390624l-9.898438 7.421876c-4.585938 3.492187-10.636719 4.390624-16.042969 2.390624 0 .085938 0 .085938-.085937 0-3.246094-1.164062-6.046875-3.3125-8.019532-6.144531l-29.523437-41.300781c4.179687-2.742188 9.078125-4.195312 14.078125-4.179688h187.734375c5-.015624 9.898437 1.4375 14.078125 4.179688zm0 0" fill="#f9eab0"/><path d="m329.8125 465.152344c-4.179688 2.742187-9.078125 4.195312-14.078125 4.179687h-187.734375c-5 .015625-9.898438-1.4375-14.078125-4.179687l29.523437-41.300782c1.972657-2.832031 4.773438-4.980468 8.019532-6.144531h.085937c5.40625-2.003906 11.457031-1.101562 16.042969 2.390625l9.898438 7.421875c1.382812 1.011719 2.910156 1.816407 4.523437 2.390625 5.382813 1.925782 11.375 1.027344 15.957031-2.390625l13.652344-10.238281c1.386719-1.011719 2.910156-1.816406 4.523438-2.390625 5.382812-1.925781 11.375-1.03125 15.957031 2.390625l13.65625 10.238281c1.382812 1.011719 2.90625 1.816407 4.519531 2.390625 5.386719 1.925782 11.375 1.027344 15.957031-2.390625l9.898438-7.421875c1.367187-1.046875 2.894531-1.851562 4.523437-2.390625h.085938c7.152344-2.621093 15.175781-.101562 19.542968 6.144531zm0 0" fill="#f9eab0"/><path d="m318.292969 285.78125-29.523438 41.300781c-1.972656 2.832031-4.777343 4.980469-8.023437 6.144531h-.085938c-1.628906-.539062-3.15625-1.34375-4.523437-2.390624l-9.898438-7.421876c-4.582031-3.421874-10.570312-4.316406-15.957031-2.390624-5.410156-1.925782-11.425781-1.03125-16.042969 2.390624l-13.652343 10.238282c-1.363282.996094-2.855469 1.796875-4.4375 2.390625-1.613282-.574219-3.136719-1.378907-4.523438-2.390625l-13.652344-10.238282c-4.582031-3.421874-10.574218-4.316406-15.957031-2.390624-5.410156-1.925782-11.425781-1.03125-16.042969 2.390624l-9.898437 7.421876c-1.375 1.027343-2.898438 1.835937-4.523438 2.390624 0 .085938 0 .085938-.085937 0-3.246094-1.164062-6.046875-3.3125-8.019532-6.144531l-29.523437-41.300781c4.179687-2.742188 9.078125-4.195312 14.078125-4.179688h176.214844c5-.015624 9.894531 1.4375 14.078125 4.179688zm0 0" fill="#ffebb2"/><path d="m318.292969 465.152344c-4.183594 2.742187-9.078125 4.195312-14.078125 4.179687h-176.214844c-5 .015625-9.898438-1.4375-14.078125-4.179687l29.523437-41.300782c1.972657-2.832031 4.773438-4.980468 8.019532-6.144531h.085937c1.625.554688 3.148438 1.363281 4.523438 2.390625l9.898437 7.421875c4.617188 3.421875 10.632813 4.316407 16.042969 2.390625 5.382813 1.925782 11.375 1.027344 15.957031-2.390625l13.652344-10.238281c1.386719-1.011719 2.910156-1.816406 4.523438-2.390625 1.582031.59375 3.074218 1.394531 4.4375 2.390625l13.652343 10.238281c4.617188 3.421875 10.632813 4.316407 16.042969 2.390625 5.386719 1.925782 11.375 1.027344 15.957031-2.390625l9.898438-7.421875c1.367187-1.046875 2.894531-1.851562 4.523437-2.390625h.085938c3.246094 1.164063 6.050781 3.3125 8.023437 6.144531zm0 0" fill="#ffebb2"/><path d="m221.867188 0c-122.476563.136719-221.730469 99.390625-221.867188 221.867188v273.066406c0 9.425781 7.640625 17.066406 17.066406 17.066406h409.601563c9.425781 0 17.066406-7.640625 17.066406-17.066406v-273.066406c-.136719-122.476563-99.390625-221.730469-221.867187-221.867188zm204.800781 494.933594h-409.601563v-273.066406c0-113.109376 91.691406-204.800782 204.800782-204.800782 113.105468 0 204.800781 91.691406 204.800781 204.800782zm0 0"/><path d="m152.183594 65.304688c1.144531 0 2.273437-.230469 3.328125-.671876 20.988281-8.90625 43.558593-13.476562 66.355469-13.433593 4.710937 0 8.53125-3.820313 8.53125-8.53125 0-4.714844-3.820313-8.535157-8.53125-8.535157-25.085938-.039062-49.917969 4.984376-73.011719 14.78125-3.738281 1.582032-5.847657 5.578126-5.039063 9.554688.808594 3.980469 4.308594 6.839844 8.367188 6.835938zm0 0"/><path d="m42.667969 273.066406c-4.714844 0-8.535157 3.820313-8.535157 8.535156v187.730469c0 4.714844 3.820313 8.535157 8.535157 8.535157 4.710937 0 8.53125-3.820313 8.53125-8.535157v-187.730469c0-4.714843-3.820313-8.535156-8.53125-8.535156zm0 0"/><path d="m204.800781 179.199219c0-42.414063-34.386719-76.800781-76.800781-76.800781s-76.800781 34.386718-76.800781 76.800781c0 42.417969 34.386719 76.800781 76.800781 76.800781 42.394531-.046875 76.753906-34.402344 76.800781-76.800781zm-136.535156 0c0-32.988281 26.746094-59.734375 59.734375-59.734375s59.734375 26.746094 59.734375 59.734375c0 32.992187-26.746094 59.734375-59.734375 59.734375-32.972656-.039063-59.695312-26.757813-59.734375-59.734375zm0 0"/><path d="m238.933594 179.199219c0 42.417969 34.382812 76.800781 76.800781 76.800781 42.414063 0 76.800781-34.382812 76.800781-76.800781 0-42.414063-34.386718-76.800781-76.800781-76.800781-42.398437.046874-76.753906 34.40625-76.800781 76.800781zm136.53125 0c0 32.992187-26.742188 59.734375-59.730469 59.734375-32.992187 0-59.734375-26.742188-59.734375-59.734375 0-32.988281 26.742188-59.734375 59.734375-59.734375 32.972656.039062 59.695313 26.761718 59.730469 59.734375zm0 0"/><path d="m162.132812 179.199219c0-18.851563-15.28125-34.132813-34.132812-34.132813s-34.132812 15.28125-34.132812 34.132813c0 18.851562 15.28125 34.132812 34.132812 34.132812s34.132812-15.28125 34.132812-34.132812zm-51.199218 0c0-9.425781 7.640625-17.066407 17.066406-17.066407s17.066406 7.640626 17.066406 17.066407-7.640625 17.066406-17.066406 17.066406-17.066406-7.640625-17.066406-17.066406zm0 0"/><path d="m281.601562 179.199219c0 18.851562 15.28125 34.132812 34.132813 34.132812s34.132813-15.28125 34.132813-34.132812c0-18.851563-15.28125-34.132813-34.132813-34.132813s-34.132813 15.28125-34.132813 34.132813zm51.199219 0c0 9.425781-7.640625 17.066406-17.066406 17.066406s-17.066406-7.640625-17.066406-17.066406 7.640625-17.066407 17.066406-17.066407 17.066406 7.640626 17.066406 17.066407zm0 0"/><path d="m334.925781 279.039062c-.0625-.050781-.085937-.117187-.15625-.160156-.066406-.042968-.324219-.121094-.46875-.214844-5.511719-3.632812-11.964843-5.578124-18.566406-5.597656h-187.734375c-6.59375.007813-13.046875 1.9375-18.558594 5.554688-.15625.101562-.335937.113281-.480468.222656-.144532.109375-.09375.109375-.152344.164062-9.335938 6.347657-14.929688 16.902344-14.941406 28.191407v136.535156c.023437 11.277344 5.613281 21.816406 14.941406 28.160156.058594.050781.085937.117188.152344.160157.070312.042968.324218.121093.480468.222656 5.511719 3.628906 11.960938 5.570312 18.558594 5.589844h187.734375c6.363281-.019532 12.59375-1.835938 17.96875-5.238282.371094-.15625.726563-.335937 1.066406-.539062.070313-.042969.09375-.109375.15625-.164063 9.335938-6.347656 14.929688-16.902343 14.941407-28.191406v-136.535156c-.023438-11.277344-5.613282-21.816407-14.941407-28.160157zm-37.855469 125.601563c-1.335937-1.867187-3.367187-3.117187-5.636718-3.46875-2.265625-.351563-4.582032.226563-6.421875 1.601563l-29.011719 21.761718-29.011719-21.761718c-3.035156-2.277344-7.207031-2.277344-10.242187 0l-29.011719 21.761718-29.015625-21.761718c-1.835938-1.375-4.152344-1.953126-6.421875-1.601563s-4.300781 1.601563-5.632813 3.46875l-33.648437 47.097656c-1.34375-2.457031-2.0625-5.207031-2.082031-8.003906v-136.535156c.019531-2.796875.734375-5.542969 2.082031-7.996094l33.648437 47.089844c1.332032 1.867187 3.363282 3.117187 5.632813 3.46875 2.269531.351562 4.585937-.226563 6.421875-1.601563l29.015625-21.761718 29.011719 21.761718c3.035156 2.277344 7.207031 2.277344 10.242187 0l29.011719-21.761718 29.011719 21.761718c1.480469 1.109375 3.273437 1.707032 5.121093 1.707032.4375 0 .875-.035157 1.304688-.101563 2.269531-.355469 4.300781-1.605469 5.632812-3.472656l33.648438-47.089844c1.34375 2.453125 2.0625 5.199219 2.082031 7.996094v136.535156c-.023437 2.796875-.738281 5.546875-2.082031 8.003906zm18.664063-114.507813c.152344 0 .296875.042969.460937.042969l-27.929687 39.089844-27.144531-20.359375c-3.035156-2.273438-7.207032-2.273438-10.242188 0l-29.011718 21.761719-29.015626-21.761719c-3.03125-2.273438-7.203124-2.273438-10.238281 0l-27.144531 20.359375-27.929688-39.089844c.164063 0 .308594-.042969.460938-.042969zm-187.734375 170.667969c-.152344 0-.296875-.042969-.460938-.042969l27.929688-39.089843 27.144531 20.359375c3.035157 2.273437 7.207031 2.273437 10.238281 0l29.015626-21.761719 29.011718 21.761719c3.035156 2.273437 7.207032 2.273437 10.242188 0l27.144531-20.359375 27.929687 39.132812c-.164062 0-.308593 0-.460937 0zm0 0"/></svg>