<svg height="504pt" viewBox="0 0 504.69864 504" width="504pt" xmlns="http://www.w3.org/2000/svg"><path d="m495.742188 363.367188c-.09375 1.417968-.886719 2.695312-2.117188 3.40625-1.234375.707031-2.738281.753906-4.007812.121093l-11.417969-5.707031-9.652344-4.785156-1.59375-.839844c-1.011719-.550781-2.210937-.632812-3.289063-.230469-1.078124.402344-1.929687 1.25-2.335937 2.328125-.160156.347656-.273437.714844-.332031 1.09375-.085938.835938-.253906 1.59375-.335938 2.433594-9.570312 63.875-52.460937 106.847656-68.492187 120.949219-1.054688.949219-2.527344 1.285156-3.890625.894531-1.367188-.394531-2.433594-1.460938-2.824219-2.824219-.621094-2.03125-1.496094-3.976562-2.601563-5.792969-1.21875-2.027343-2.625-3.9375-4.195312-5.707031-3.902344-4.511719-8.324219-8.539062-13.179688-12.003906-1-.765625-2.292968-1.050781-3.523437-.773437-1.230469.273437-2.277344 1.082031-2.855469 2.199218-.167968.253906-.25.589844-.417968.839844-.738282 1.585938-1.605469 3.101562-2.605469 4.535156-21.316407 32.398438-84.101563 33.152344-105.503907 32.398438h-.167968c-.757813.015625-1.511719-.011719-2.265625-.085938-.324219.007813-.648438-.078125-.921875-.25-1.960938-.4375-3.269532-2.289062-3.023438-4.28125 2.855469-25.601562-31.980468-28.875-40.707031-29.210937-.867187-.066407-1.726563.171875-2.433594.671875-.375.117187-.699219.351562-.925781.671875-.082031.167969-.25.253906-.335938.421875-6.492187 6.941406-7.621093 17.339844-2.769531 25.515625.644531 1.316406.558594 2.871093-.230469 4.105469-.789062 1.234374-2.164062 1.96875-3.628906 1.9375-5.121094-.167969-9.988281-.503907-14.6875-1.09375-3.023437-.332032-5.960937-.753907-8.816406-1.171876-81.246094-12.925781-98.371094-74.871093-101.726562-93.167968-.25-1.300782-1.097657-2.402344-2.285157-2.980469-1.191406-.578125-2.582031-.5625-3.757812.042969-1.382813.664062-2.703125 1.449218-3.945313 2.347656-2.414062 1.554688-4.613281 3.417969-6.546875 5.542969-2.511719 2.816406-4.550781 6.019531-6.042969 9.484375-.746093 1.621094-2.4375 2.59375-4.214843 2.421875-1.777344-.167969-3.25-1.445313-3.675781-3.179688-.839844-3.355469-1.511719-6.796875-2.097657-10.238281-.335937-2.097656-.671875-4.199219-.925781-6.296875-7.132812-52.710937 8.730469-112.554687 14.1875-130.851563.382812-1.371093.058594-2.84375-.871094-3.921874-.925781-1.082032-2.332031-1.625-3.746094-1.449219-2.148437.253906-4.28125.644531-6.378906 1.171875-2.351562.503906-4.53125 1.175781-6.628906 1.847656-5.320312 1.847656-10.371094 4.386719-15.027344 7.554688-1.394531.925781-3.207031.9375-4.609375.027343-1.40625-.914062-2.132812-2.574219-1.851562-4.222656.082031-.671875.167969-1.261719.25-1.933594l.503906-3.273437c7.605469-50.796875 36.007813-96.136719 78.394531-125.144532 1.054688-.671874 1.746094-1.785156 1.875-3.027343.132813-1.242188-.3125-2.476563-1.203125-3.351563-7.484375-5.414062-16.808593-7.644531-25.933593-6.210937h-1.34375c-1.007813.167969-2.183594.25-3.023438.417969h-.503906c-.410156-.097657-.832032-.152344-1.257813-.167969-.246093-.058594-.476562-.171875-.671875-.335938-1.070312-.511719-1.867187-1.457031-2.1875-2.597656-.320312-1.140625-.136718-2.367187.507813-3.359375 8.476562-13.894531 22.335937-23.652344 38.277343-26.945312.722657.03125 1.441407-.109376 2.097657-.417969h.082031c.925781-.167969 1.761719-.335938 2.601562-.421875 1.175782-.164063 2.433594-.25 3.609376-.332032h2.519531c.71875-.140624 1.449219-.199218 2.183593-.167968 2.683594 0 5.203126.167968 7.382813.335937h.085937c2.433594.25 4.53125.585938 6.292969.921875 1.398438.269532 2.835938-.199218 3.808594-1.238281s1.339844-2.507813.976563-3.882813c-3.792969-9.863281-9.335938-18.964843-16.367188-26.859374h-.082031c-.167969-.25-.421875-.503907-.589844-.753907-.867187-.984375-1.183594-2.34375-.839844-3.609375.539063-2.214844 2.71875-3.617187 4.953125-3.191406 7.265625 1.347656 14.355469 3.484375 21.152344 6.378906 2.6875 1.175782 5.203125 2.351563 7.386719 3.441406 1.425781.757813 2.769531 1.429688 3.945312 2.015626 1.273438.699218 2.824219.6875 4.085938-.03125 1.265625-.71875 2.070312-2.039063 2.125-3.492188.101562-12.304688 4.730469-24.136719 13.007812-33.238281 3.074219-3.285157 6.511719-6.214844 10.242188-8.730469 3.796875-2.539062 7.8125-4.726562 12-6.546875 1.386719-.621094 3-.441406 4.21875.460937 1.214843.90625 1.851562 2.398438 1.660156 3.902344-1.480469 8.367188-.964844 16.96875 1.507813 25.097656.65625 1.6875 1.5 3.292969 2.519531 4.785157.570312.765625 1.1875 1.492187 1.847656 2.179687.828125.816406 1.957031 1.253906 3.117187 1.207032 1.160157-.046876 2.25-.574219 3.007813-1.457032 5.707031-6.714844 23.167969-22.578125 61.355469-25.515625 1.511718-.167969 3.023437-.253906 4.535156-.335937h.503906c12-.546875 24.023438.015625 35.921875 1.679687 1.738281.210938 3.160157 1.476563 3.570313 3.179688.410156 1.699219-.277344 3.476562-1.722656 4.457031-7.691407 4.820312-14.085938 11.449219-18.632813 19.304688-.714844 1.160156-.714844 2.621093 0 3.777343.191406.355469.417969.691407.671875 1.007813 1.019531 1.109375 2.570312 1.5625 4.027344 1.175781 3.203125-.808594 6.453125-1.394531 9.734375-1.765625 1.640625-.261719 3.296875-.429688 4.953125-.5 27.449218-2.351562 76.128906 4.699219 129.007812 63.703125 1.128906 1.21875 1.433594 2.984375.78125 4.507813-.652344 1.523437-2.144531 2.523437-3.800781 2.542968-9.425781-.101562-17.992187 5.457032-21.742187 14.101563-1.054688 2.046875-.316407 4.558593 1.679687 5.707031 12.171875 6.464844 54.640625 33.40625 70.589844 99.714844.324219 1.480468-.175781 3.019531-1.304688 4.027344-1.132812 1.007812-2.71875 1.332031-4.152343.839843-3.988282-1.324219-8.054688-2.417969-12.167969-3.273437-3.023438-.585938-6.214844-1.175782-9.738281-1.507813-.097657-.070312-.21875-.097656-.335938-.085937-1.128906-.109375-2.253906.257812-3.105469 1.007812h-.082031c-.476562.34375-.851562.808594-1.09375 1.34375-.847656 1.609375-.542969 3.589844.757812 4.867188 29.691407 29.273437 44.980469 70.140625 41.796876 111.714844zm0 0" fill="#6a1b99"/><path d="m468.546875 356.402344-1.59375-.839844c-1.011719-.550781-2.210937-.632812-3.289063-.230469-1.078124.402344-1.929687 1.25-2.335937 2.328125l-4.109375-2.097656c-1.199219-.625-2.632812-.621094-3.824219.019531-1.195312.636719-1.992187 1.824219-2.136719 3.171875-.082031.835938-.25 1.59375-.335937 2.433594l-11.332031-5.625c-1.199219-.605469-2.621094-.589844-3.808594.046875-1.183594.632813-1.988281 1.808594-2.148438 3.144531-6.503906 41.457032-25.710937 79.875-54.976562 109.953125-3.902344-4.511719-8.324219-8.539062-13.179688-12.003906-1-.765625-2.292968-1.050781-3.523437-.773437-1.230469.273437-2.277344 1.082031-2.855469 2.199218-.167968.253906-.25.589844-.417968.839844-1.09375-.839844-2.015626-1.59375-2.9375-2.265625-1.003907-.765625-2.292969-1.050781-3.523438-.773437-1.230469.273437-2.277344 1.082031-2.855469 2.199218-.84375 1.878906-1.855469 3.679688-3.023437 5.375-2.589844-2.445312-5.335938-4.71875-8.226563-6.800781-.988281-.757813-2.265625-1.039063-3.480469-.761719-1.21875.273438-2.25 1.078125-2.8125 2.1875-13.179687 28.289063-55.0625 35.84375-84.605468 37.4375-1.960938-.4375-3.269532-2.289062-3.023438-4.28125 2.855469-25.601562-31.980468-28.875-40.707031-29.210937-.867187-.066407-1.726563.171875-2.433594.671875-3.105469-.417969-5.625-.585938-7.304687-.671875-1.261719-.082031-2.496094.414062-3.355469 1.34375-.085937.167969-.253906.253906-.335937.421875-4.585938-.984375-9.246094-1.574219-13.933594-1.765625-1.265625-.082031-2.5.414062-3.359375 1.34375-6.804688 6.9375-8.082031 17.589843-3.105469 25.9375.675781 1.167969.675781 2.605469 0 3.777343-81.246094-12.925781-98.371094-74.871093-101.726562-93.167968-.25-1.300782-1.097657-2.402344-2.285157-2.980469-1.191406-.578125-2.582031-.5625-3.757812.042969-1.382813.664062-2.703125 1.449218-3.945313 2.347656-.382812-1.136719-1.242187-2.054688-2.355468-2.507812-1.113282-.449219-2.367188-.394532-3.4375.160156-3.953126 1.960937-7.507813 4.636718-10.492188 7.890625-.503906-1.847657-.835938-3.527344-1.089844-4.953125-.25-1.300782-1.097656-2.402344-2.285156-2.980469-1.191406-.578125-2.582031-.5625-3.757812.042969-.046876 0-.085938.035156-.085938.082031-7.132812-52.710937 8.730469-112.554687 14.1875-130.851563.382812-1.371093.058594-2.84375-.871094-3.921874-.925781-1.082032-2.332031-1.625-3.746094-1.449219-2.148437.253906-4.28125.644531-6.378906 1.171875-.871094-.898438-2.117187-1.332032-3.355468-1.171875-4.429688.5625-8.789063 1.574219-13.011719 3.019531-.601563-1.996094-2.546875-3.269531-4.617188-3.019531-2.148437.253906-4.277343.644531-6.378906 1.171875 7.605469-50.796875 36.007813-96.136719 78.394531-125.144532 1.054688-.671874 1.746094-1.785156 1.875-3.027343.132813-1.242188-.3125-2.476563-1.203125-3.351563-7.484375-5.414062-16.808593-7.644531-25.933593-6.210937h-1.34375c-1.816407-.15625-3.636719-.183594-5.457032-.085938-1.070312-.511719-1.867187-1.457031-2.1875-2.597656-.320312-1.140625-.136718-2.367187.507813-3.359375 8.476562-13.894531 22.335937-23.652344 38.277343-26.945312.722657.03125 1.441407-.109376 2.097657-.417969h.082031c.425781-.261719.820312-.570313 1.175781-.921875 1.761719 0 3.523438.082031 5.035157.167968h2.519531c2.09375.214844 4.167969.578126 6.210937 1.089844 1.203125.261719 2.457032-.082031 3.355469-.921875h.085937c2.433594.25 4.53125.585938 6.292969.921875 1.398438.269532 2.835938-.199218 3.808594-1.238281s1.339844-2.507813.976563-3.882813c-3.792969-9.863281-9.335938-18.964843-16.367188-26.859374 3.359375 1.511718 6.296875 3.023437 8.644531 4.28125 1.265625.714843 2.8125.710937 4.070313-.011719 1.261718-.726563 2.042968-2.0625 2.058594-3.511719-.011719-.644531.015624-1.289062.082031-1.933594 4.449219 1.933594 8.3125 3.863282 11.332031 5.457032 1.019531.585937 2.246094.699218 3.355469.3125 1.109375-.386719 2-1.234376 2.4375-2.328126 1.425781.757813 2.769531 1.429688 3.945312 2.015626 1.273438.699218 2.824219.6875 4.085938-.03125 1.265625-.71875 2.070312-2.039063 2.125-3.492188.101562-12.304688 4.730469-24.136719 13.007812-33.238281-.546875 7.632812 1.820313 15.195312 6.632813 21.148437.847656.8125 1.988281 1.246094 3.160156 1.195313 1.171875-.046875 2.273438-.566407 3.050781-1.445313 2.128907-2.457031 4.492188-4.707031 7.050781-6.714844.957032 2.597657 2.441407 4.972657 4.363282 6.964844.828125.816406 1.957031 1.253906 3.117187 1.207032 1.164063-.046876 2.253907-.574219 3.011719-1.457032.503906-.585937 1.089844-1.257812 1.761719-1.929687.570312.765625 1.1875 1.492187 1.847656 2.179687.828125.816406 1.957031 1.253906 3.117187 1.207032 1.160157-.046876 2.25-.574219 3.007813-1.457032 5.707031-6.714844 23.167969-22.578125 61.355469-25.515625 4.367187.25 8.898437.753907 13.597656 1.34375 1.738281.210938 3.160156 1.476563 3.570312 3.179688.410157 1.699219-.277343 3.476562-1.722656 4.457031-7.671875 4.84375-14.0625 11.464844-18.632812 19.304688-.773438 1.453124-.613282 3.222656.40625 4.511718 1.015625 1.292969 2.703125 1.859375 4.292968 1.449219 4.253907-1.03125 8.570313-1.761719 12.925782-2.183594.84375 1.757813 2.8125 2.671875 4.699218 2.183594 1.679688-.421875 3.609376-.839844 5.710938-1.175781 2.96875-.523438 5.96875-.886719 8.980469-1.089844 1.507812.082031 3.105469.25 4.78125.5 27.953125 3.273438 66.058593 17.964844 106.597656 63.203125 1.128906 1.21875 1.433594 2.984375.78125 4.507813-.652344 1.523437-2.144531 2.523437-3.800781 2.542968-9.414063-.058594-17.957032 5.484375-21.738282 14.101563-.984374 2.070312-.21875 4.550781 1.761719 5.707031 12.167969 6.464844 54.554688 33.40625 70.503907 99.714844v.085937c.167968.488281.167968 1.019531 0 1.507813-1.089844-.25-2.265626-.417969-3.441407-.585938h-.082031c-2.101562-.421875-4.28125-.757812-6.546875-1.007812-1.78125-.1875-3.484375.75-4.28125 2.351562-4.398437-1.046875-8.855469-1.832031-13.347656-2.351562-1.792969-.203125-3.515625.746094-4.308594 2.367187-.789063 1.621094-.476563 3.5625.785156 4.851563 27.988281 27.53125 43.203125 65.507812 41.964844 104.75zm0 0" fill="#9c27af"/><path d="m167.894531 143.039062c-2.769531 0-5.539062.167969-8.226562.421876h-.335938c-42.890625 4.304687-75.550781 40.40625-75.550781 83.515624 0 43.109376 32.660156 79.207032 75.550781 83.511719h.335938c2.6875.253907 5.457031.421875 8.226562.421875 46.355469 0 83.933594-37.578125 83.933594-83.933594 0-46.355468-37.578125-83.9375-83.933594-83.9375zm0 0" fill="#fff"/><path d="m335.765625 143.039062c-2.769531 0-5.542969.167969-8.226563.421876h-.335937c-42.894531 4.304687-75.550781 40.40625-75.550781 83.515624 0 43.109376 32.65625 79.207032 75.550781 83.511719h.335937c2.683594.253907 5.457032.421875 8.226563.421875 46.355469 0 83.933594-37.578125 83.933594-83.933594 0-46.355468-37.578125-83.9375-83.933594-83.9375zm0 0" fill="#fff"/><path d="m218.253906 226.976562c0 27.8125-22.546875 50.359376-50.359375 50.359376s-50.359375-22.546876-50.359375-50.359376c0-27.816406 22.546875-50.363281 50.359375-50.363281s50.359375 22.546875 50.359375 50.363281zm0 0" fill="#8ac24a"/><path d="m386.125 226.976562c0 27.8125-22.546875 50.359376-50.359375 50.359376-27.816406 0-50.363281-22.546876-50.363281-50.359376 0-27.816406 22.546875-50.363281 50.363281-50.363281 27.8125 0 50.359375 22.546875 50.359375 50.363281zm0 0" fill="#8ac24a"/><path d="m193.074219 226.976562c0 13.90625-11.273438 25.179688-25.179688 25.179688s-25.179687-11.273438-25.179687-25.179688 11.273437-25.179687 25.179687-25.179687 25.179688 11.273437 25.179688 25.179687zm0 0" fill="#37474f"/><path d="m360.945312 226.976562c0 13.90625-11.273437 25.179688-25.179687 25.179688-13.910156 0-25.183594-11.273438-25.183594-25.179688s11.273438-25.179687 25.183594-25.179687c13.90625 0 25.179687 11.273437 25.179687 25.179687zm0 0" fill="#37474f"/><path d="m386.125 394.84375s-16.789062 41.96875-134.296875 41.96875-134.292969-41.96875-134.292969-41.96875 17.039063-39.785156 83.933594-53.800781c16.5625-3.433594 33.445312-5.09375 50.359375-4.953125 16.917969-.140625 33.796875 1.519531 50.363281 4.953125 66.894532 14.015625 83.933594 53.800781 83.933594 53.800781zm0 0" fill="#ac1457"/><path d="m251.828125 336.089844v16.789062c0 13.90625-11.273437 25.179688-25.179687 25.179688s-25.179688-11.273438-25.179688-25.179688v-11.835937c2.6875-.589844 5.457031-1.09375 8.394531-1.59375 11.097657-1.878907 22.320313-2.945313 33.574219-3.191407 2.769531-.167968 5.539062-.167968 8.390625-.167968zm0 0" fill="#f9eab0"/><path d="m243.4375 336.257812v11.582032c0 16.703125-7.472656 30.21875-16.789062 30.21875-9.316407 0-16.785157-13.515625-16.785157-30.21875v-8.390625c11.097657-1.878907 22.320313-2.945313 33.574219-3.191407zm0 0" fill="#ffebb2"/><path d="m302.191406 341.042969v11.835937c0 13.90625-11.273437 25.179688-25.179687 25.179688-13.910157 0-25.183594-11.273438-25.183594-25.179688v-16.789062c2.855469 0 5.625 0 8.394531.167968 11.253906.246094 22.476563 1.3125 33.574219 3.191407 2.9375.5 5.707031 1.003906 8.394531 1.59375zm0 0" fill="#f9eab0"/><path d="m293.796875 339.449219v8.390625c0 16.703125-7.46875 30.21875-16.785156 30.21875-9.320313 0-16.789063-13.515625-16.789063-30.21875v-11.582032c11.253906.246094 22.476563 1.3125 33.574219 3.191407zm0 0" fill="#ffebb2"/><path d="m330.390625 428.335938c-25.726563 6.105468-52.121094 8.957031-78.5625 8.476562-26.4375.480469-52.832031-2.371094-78.5625-8.476562 22.582031-17.035157 50.289063-25.886719 78.5625-25.097657 28.277344-.789062 55.980469 8.0625 78.5625 25.097657zm0 0" fill="#f34335"/><path d="m167.894531 193.402344c0 13.90625-11.273437 25.179687-25.179687 25.179687s-25.179688-11.273437-25.179688-25.179687 11.273438-25.179688 25.179688-25.179688 25.179687 11.273438 25.179687 25.179688zm0 0" fill="#fff"/><path d="m335.765625 193.402344c0 13.90625-11.273437 25.179687-25.183594 25.179687-13.90625 0-25.179687-11.273437-25.179687-25.179687s11.273437-25.179688 25.179687-25.179688c13.910157 0 25.183594 11.273438 25.183594 25.179688zm0 0" fill="#fff"/><path d="m483.09375 259.710938c2.882812 1.445312 6.335938 1.113281 8.890625-.855469 2.550781-1.96875 3.75-5.222657 3.085937-8.378907-13.921874-69.664062-55.246093-100.789062-72.660156-111.085937 4.792969-5.824219 12.78125-7.921875 19.816406-5.203125 3.558594 1.1875 7.476563-.128906 9.59375-3.230469 2.117188-3.097656 1.917969-7.226562-.488281-10.109375-61.421875-73.703125-118.859375-78.703125-148.496093-74.699218 5.277343-5.527344 11.6875-9.847657 18.792968-12.660157 3.640625-1.207031 6-4.730469 5.726563-8.558593-.269531-3.824219-3.101563-6.980469-6.875-7.664063-72.082031-13.101563-106.152344 8.394531-119.320313 20.984375-2.316406-9.019531-2.292968-18.480469.066406-27.488281.734376-2.972657-.203124-6.105469-2.453124-8.183594-2.246094-2.078125-5.445313-2.765625-8.351563-1.796875-33.890625 11.296875-45.574219 34.34375-47.898437 52.382812-12.976563-6.597656-27.230469-10.296874-41.777344-10.84375-3.394532 0-6.453125 2.046876-7.75 5.179688-1.300782 3.136719-.582032 6.746094 1.816406 9.148438 7.464844 7.488281 13.898438 15.9375 19.136719 25.121093-30.015625-3.257812-58.710938 13.1875-71.074219 40.734375-1.464844 2.929688-1.089844 6.445313.960938 9 2.050781 2.558594 5.402343 3.6875 8.582031 2.890625 8.492187-2.152343 17.363281-2.355469 25.945312-.585937-45.816406 33.800781-74.460937 86.027344-78.3359372 142.832031-.2773438 3.496094 1.6484372 6.792969 4.8281252 8.273437 3.179687 1.476563 6.945312.820313 9.441406-1.644531 6.921875-6.25 15.285156-10.6875 24.339844-12.917969-8.175781 29.648438-25.375 105.355469-4.507813 161.011719 1.414063 3.796875 5.34375 6.042969 9.332032 5.332031 3.992187-.707031 6.90625-4.167968 6.925781-8.21875.410156-8.207031 4.285156-15.855468 10.660156-21.042968 7.023437 28.136718 34.984375 96.523437 140.421875 96.523437 3.378906 0 6.425781-2.03125 7.730469-5.144531 1.308593-3.117188.617187-6.710938-1.746094-9.121094-5.5-4.878906-6.484375-13.101562-2.292969-19.136718 8.101563.601562 22.664063 3.128906 28.398438 10.457031 2.652344 3.613281 3.308594 8.324219 1.734375 12.523437-.605469 2.390625-.125 4.929688 1.308593 6.9375 1.433594 2.007813 3.679688 3.28125 6.136719 3.484375 1.023438.085938 7.4375.582031 16.90625.582031 28.429688 0 84.402344-4.5 104.625-38.183593 7.34375 6.070312 14.265625 14.058593 13.527344 19.800781-.402344 3.335938 1.222656 6.59375 4.128906 8.277344 2.910157 1.683594 6.542969 1.46875 9.234375-.546875 2.726563-2.046875 64.035156-48.859375 77.269532-128.242188l23.058593 11.574219c2.476563 1.253906 5.417969 1.199219 7.847657-.144531 2.433593-1.34375 4.039062-3.804688 4.296874-6.570313 4.992188-41.738281-7.703124-83.660156-35.015624-115.613281 4.972656 1.117187 9.824218 2.730469 14.476562 4.820313zm4.589844 96.765624-22.222656-11.113281c-2.476563-1.234375-5.402344-1.167969-7.820313.171875-2.417969 1.34375-4.023437 3.789063-4.285156 6.542969-5.992188 59.9375-43.996094 102.492187-62.347657 119.808594-6.441406-10.347657-15.21875-19.046875-25.625-25.398438-2.179687-1.339843-4.855468-1.609375-7.261718-.734375-2.40625.878906-4.28125 2.804688-5.089844 5.234375-10.914062 32.667969-69.734375 37.660157-100.238281 36.730469-.074219-6.167969-2.171875-12.140625-5.964844-17.007812-12.992187-16.632813-42.085937-17.113282-45.359375-17.113282-2.226562 0-4.359375.886719-5.933594 2.460938-8.527344 7.695312-11.890625 19.597656-8.652344 30.617187-102.527343-7.109375-111.023437-88.917969-111.316406-92.527343-.210937-2.566407-1.589844-4.890626-3.738281-6.308594-2.148437-1.417969-4.832031-1.773438-7.273437-.960938-8.265626 2.644532-15.5625 7.667969-20.984376 14.445313-10.3125-61.472657 14.496094-137.265625 14.78125-138.121094.851563-2.5625.421876-5.375-1.15625-7.5625-1.578124-2.1875-4.109374-3.484375-6.808593-3.484375-10.871094.066406-21.574219 2.703125-31.230469 7.695312 8.292969-48.3125 36.285156-91.007812 77.285156-117.875 3.917969-2.1875 5.429688-7.066406 3.425782-11.082031-6.253907-12.488281-20.496094-15.402343-32.5-15.164062 14.203124-15.328125 35.917968-21.199219 55.910156-15.109375 2.554687.851562 5.363281.421875 7.550781-1.148438 2.1875-1.574218 3.484375-4.097656 3.492187-6.792968-1.203124-10.914063-5.511718-21.253907-12.414062-29.796876 8.617188 2.886719 16.855469 6.78125 24.550781 11.609376 2.820313 1.871093 6.484375 1.867187 9.300781-.007813 2.8125-1.875 4.226563-5.257813 3.585938-8.578125-2.3125-17.980469 7.050781-35.445312 23.308594-43.472656-.664063 12.59375 1.410156 28.960937 15.105468 35.792968 3.898438 1.890626 8.597657.554688 10.914063-3.105468.199219-.34375 19.882813-30 86.007813-24.417969-7.898438 6.917969-13.828126 15.800781-17.183594 25.75-1.046875 3.152344-.140625 6.628906 2.320312 8.863281 2.460938 2.234375 6.007813 2.808594 9.046875 1.460938.660157-.292969 63.496094-26.859375 137.257813 50.921875-11.011719 3.070312-19.625 11.660156-22.722656 22.664062-1.378907 4.128907.628906 8.625 4.625 10.359375 2.097656.914063 48.335937 21.820313 67.148437 88.464844-9.894531-2.554688-20.074219-3.839844-30.292969-3.820312-3.648437 0-6.878906 2.351562-7.996094 5.824218-1.117187 3.472656.136719 7.269532 3.101563 9.394532 31.675781 25.828124 49.347656 65.054687 47.699219 105.890624zm0 0"/><path d="m335.765625 134.648438c-36.152344.054687-68.949219 21.1875-83.9375 54.085937-17.996094-39.550781-61.132813-61.199219-103.597656-51.988281-42.46875 9.207031-72.765625 46.777344-72.765625 90.230468 0 43.449219 30.296875 81.023438 72.765625 90.230469 42.464843 9.207031 85.601562-12.441406 103.597656-51.992187 19.03125 41.820312 65.914063 63.28125 110.003906 50.363281 44.089844-12.921875 71.96875-56.292969 65.417969-101.769531-6.550781-45.472656-45.542969-79.210938-91.484375-79.160156zm-167.871094 167.867187c-41.71875 0-75.539062-33.820313-75.539062-75.539063 0-41.722656 33.820312-75.542968 75.539062-75.542968 41.722657 0 75.542969 33.820312 75.542969 75.542968-.046875 41.699219-33.839844 75.492188-75.542969 75.539063zm167.871094 0c-41.722656 0-75.542969-33.820313-75.542969-75.539063 0-41.722656 33.820313-75.542968 75.542969-75.542968 41.71875 0 75.539063 33.820312 75.539063 75.542968-.046876 41.699219-33.839844 75.492188-75.539063 75.539063zm0 0"/><path d="m167.894531 193.402344c-18.542969 0-33.574219 15.03125-33.574219 33.574218 0 18.542969 15.03125 33.574219 33.574219 33.574219s33.574219-15.03125 33.574219-33.574219c0-18.542968-15.03125-33.574218-33.574219-33.574218zm0 50.359375c-9.269531 0-16.785156-7.515625-16.785156-16.785157 0-9.273437 7.515625-16.789062 16.785156-16.789062 9.273438 0 16.789063 7.515625 16.789063 16.789062 0 9.269532-7.515625 16.785157-16.789063 16.785157zm0 0"/><path d="m335.765625 193.402344c-18.542969 0-33.574219 15.03125-33.574219 33.574218 0 18.542969 15.03125 33.574219 33.574219 33.574219 18.539063 0 33.570313-15.03125 33.570313-33.574219 0-18.542968-15.03125-33.574218-33.570313-33.574218zm0 50.359375c-9.273437 0-16.789063-7.515625-16.789063-16.785157 0-9.273437 7.515626-16.789062 16.789063-16.789062 9.269531 0 16.785156 7.515625 16.785156 16.789062 0 9.269532-7.515625 16.785157-16.785156 16.785157zm0 0"/><path d="m303.96875 332.832031c-17.148438-3.546875-34.625-5.269531-52.140625-5.136719-5.3125 0-10.492187.175782-15.585937.445313-7.8125.421875-15.359376 1.167969-22.585938 2.226563-4.785156.695312-9.46875 1.492187-13.964844 2.464843-70.289062 14.765625-89.074218 56.902344-89.8125 58.6875-.875 2.050781-.902344 4.359375-.082031 6.429688 1.863281 4.84375 22.292969 47.253906 142.03125 47.253906 119.742187 0 140.171875-42.410156 142.09375-47.238281.820313-2.070313.792969-4.378906-.082031-6.425782-.765625-1.789062-19.566406-43.964843-89.871094-58.707031zm-94.105469 15.195313 1.855469-.347656c4.457031-.746094 9.011719-1.398438 13.746094-1.886719l.765625-.09375c5.035156-.492188 10.179687-.789063 15.460937-.980469h1.746094v8.160156c0 9.269532-7.515625 16.785156-16.789062 16.785156-9.269532 0-16.785157-7.515624-16.785157-16.785156zm50.359375-3.359375h1.746094c5.28125.191406 10.464844.488281 15.460938.980469.269531 0 .511718.070312.78125.101562 4.734374.480469 9.300781 1.132812 13.757812 1.890625.621094.097656 1.214844.226563 1.828125.335937v4.902344c0 9.269532-7.515625 16.785156-16.785156 16.785156-9.273438 0-16.789063-7.515624-16.789063-16.785156zm-65.234375 79.613281c17.71875-8.546875 37.171875-12.878906 56.839844-12.648438 19.667969-.230468 39.121094 4.097657 56.832031 12.648438-18.800781 2.914062-37.804687 4.296875-56.832031 4.136719-19.027344.15625-38.035156-1.222657-56.839844-4.128907zm137.03125-5.179688c-23.492187-16.359374-51.566406-24.855468-80.191406-24.257812-28.625-.59375-56.703125 7.902344-80.199219 24.273438-28.535156-8.125-40.289062-19.378907-44.398437-24.574219 5.429687-8.839844 22.988281-31.25 65.84375-42.808594v1.144531c-.0625 14 8.609375 26.554688 21.722656 31.460938 13.113281 4.902344 27.890625 1.117187 37.03125-9.488282 9.140625 10.605469 23.921875 14.390626 37.035156 9.488282 13.113281-4.90625 21.78125-17.460938 21.71875-31.460938v-1.183594c42.808594 11.574219 60.382813 33.964844 65.832031 42.804688-4.171874 5.304688-16.015624 16.519531-44.394531 24.609375zm0 0"/></svg>