<svg height="511pt" viewBox="0 0 511 511.99025" width="511pt" xmlns="http://www.w3.org/2000/svg"><path d="m452.4375 401.058594c0 80.125-87.890625 102.398437-196.265625 102.398437-2.386719 0-4.691406 0-6.996094-.085937-1.023437 0-2.046875.085937-3.074219 0-103.679687-1.363282-186.195312-24.660156-186.195312-102.3125.148438-13.472656 2.304688-26.847656 6.398438-39.683594l172.628906-147.113281c2.816406-.253907 5.632812-.511719 8.535156-.683594h.257812c2.8125-.167969 5.628907-.253906 8.445313-.253906 5.730469.007812 11.457031.324219 17.152344.9375l172.628906 147.03125v.082031c4.160156 12.824219 6.347656 26.203125 6.484375 39.683594zm0 0" fill="#ff9701"/><path d="m426.839844 401.058594c0 77.652344-80.640625 100.949218-181.964844 102.3125-1 0-2.003906.085937-3.003906 0-101.324219-1.363282-181.964844-24.660156-181.964844-102.3125.144531-13.460938 2.25-26.828125 6.253906-39.683594l168.679688-147.113281c2.753906-.253907 5.503906-.511719 8.335937-.683594h.257813c2.832031.171875 30.523437.429687 33.277344.683594l143.789062 147.03125v.082031c4.070312 12.839844 6.207031 26.214844 6.339844 39.683594zm0 0" fill="#fdc008"/><path d="m230.15625 254.121094-125.75 111.777344c-5.429688 4.796874-12.632812 7.078124-19.835938 6.285156-7.203124-.796875-13.734374-4.59375-17.992187-10.457032-28.253906-36.675781-47.175781-79.667968-55.140625-125.277343h-.085938c-18.859374-120.492188 64.9375-206.847657 85.332032-225.621094 2.605468-2.433594 6.4375-3.011719 9.644531-1.453125 131.761719 65.597656 134.707031 189.757812 132.375 227.152344-.40625 6.765625-3.480469 13.09375-8.546875 17.59375zm0 0" fill="#fdc008"/><path d="m445.699219 361.71875c-7.707031 10.605469-22.167969 13.695312-33.539063 7.167969-1.53125-.828125-2.960937-1.832031-4.265625-2.988281l-125.78125-111.785157c-5.085937-4.488281-8.1875-10.808593-8.617187-17.578125-2.21875-36.265625.425781-154.367187 121.171875-221.269531 3.671875-1.964844 7.425781-3.925781 11.265625-5.890625 3.171875-1.566406 6.992187-.988281 9.554687 1.453125 26.96875 24.832031 164.4375 167.421875 30.210938 350.890625zm0 0" fill="#ff9701"/><path d="m420.269531 361.71875c-2.144531 2.953125-4.910156 5.402344-8.109375 7.167969-1.53125-.828125-2.960937-1.832031-4.265625-2.988281l-125.78125-111.785157c-5.085937-4.488281-8.1875-10.808593-8.617187-17.578125-2.21875-36.265625.425781-154.367187 121.171875-221.269531 34.902343 34.132813 153.429687 171.773437 25.601562 346.453125zm0 0" fill="#fdc008"/><path d="m145.238281 196.257812c-48.808593 73.128907-97.535156 67.925782-133.800781 40.191407h-.085938c-14.933593-95.230469 34.390626-169.214844 65.707032-205.226563 44.289062 30.121094 115.371094 94.207032 68.179687 165.035156zm0 0" fill="#e81e63"/><path d="m500.910156 236.363281c-5.023437 3.898438-10.394531 7.324219-16.042968 10.242188-34.050782 17.492187-76.035157 12.628906-118.015626-50.347657-29.78125-44.628906-12.460937-86.613281 15.613282-119.039062 15.515625-17.527344 33.242187-32.957031 52.738281-45.910156 31.402344 36.09375 80.554687 109.910156 65.707031 205.054687zm0 0" fill="#ac1457"/><path d="m484.867188 246.605469c-34.050782 17.492187-76.035157 12.628906-118.015626-50.347657-29.78125-44.628906-12.460937-86.613281 15.613282-119.039062 11.132812-10.335938 23.058594-19.78125 35.671875-28.246094 30.546875 35.15625 77.992187 106.066406 66.730469 197.632813zm0 0" fill="#e81e63"/><path d="m368.554688 279.542969c-2.113282-3.796875-6.710938-5.4375-10.75-3.839844l-7.082032 2.816406-31.402344 12.542969-17.410156 6.996094h-.085937l-28.414063 11.351562-16.554687 6.65625c3.605469 26.277344 24.179687 46.988282 50.433593 50.773438 4.34375.6875 8.753907.859375 13.140626.511718 28.769531-2.367187 51.820312-24.808593 54.953124-53.503906 1.214844-11.863281-1.160156-23.8125-6.828124-34.304687zm0 0" fill="#f4f4f4"/><path d="m176.472656 364.023438c-11.460937-3.941407-21.394531-11.375-28.417968-21.25 7.1875 9.710937 17.070312 17.101562 28.417968 21.25zm0 0" fill="#fff"/><path d="m188.160156 366.839844c-.097656.066406-.21875.097656-.339844.082031-.40625-.042969-.804687-.128906-1.195312-.253906.507812.097656 1.019531.15625 1.535156.171875zm0 0" fill="#fff"/><path d="m239.019531 309.496094-8.957031-3.585938-19.628906-7.851562-13.910156-5.546875-3.496094-1.449219-19.714844-7.851562-18.773438-7.507813c-4.039062-1.597656-8.636718.042969-10.75 3.839844-5.664062 10.492187-8.042968 22.441406-6.828124 34.304687.253906 2.414063.683593 4.8125 1.28125 7.167969.335937 1.585937.761718 3.152344 1.28125 4.691406.433593 1.476563.945312 2.929688 1.535156 4.351563.480468 1.316406 1.050781 2.601562 1.707031 3.839844.738281 1.554687 1.566406 3.0625 2.472656 4.523437.941407 1.535156 1.878907 2.988281 2.816407 4.351563 7.1875 9.710937 17.070312 17.101562 28.417968 21.25 1.648438.601562 3.328125 1.113281 5.035156 1.535156 1.675782.492187 3.386719.863281 5.117188 1.109375.507812.097656 1.019531.15625 1.535156.171875 1.238282.257812 2.496094.429687 3.757813.511718 31.429687 2.441407 59.308593-20.050781 63.570312-51.285156zm0 0" fill="#f4f4f4"/><path d="m230.144531 307.617188c.054688 15.390624-10.328125 28.867187-25.222656 32.738281-14.898437 3.875-30.527344-2.835938-37.976563-16.308594-7.453124-13.46875-4.828124-30.273437 6.367188-40.835937l19.714844 7.851562 3.496094 1.449219 13.910156 5.546875 19.628906 7.851562c.070312.566406.097656 1.136719.082031 1.707032zm0 0" fill="#f34335"/><path d="m281.773438 307.617188c-.054688 15.390624 10.328124 28.867187 25.226562 32.738281 14.894531 3.875 30.523438-2.835938 37.976562-16.308594 7.449219-13.46875 4.828126-30.273437-6.371093-40.835937l-19.710938 7.851562-3.5 1.449219-13.910156 5.546875-19.625 7.851562c-.074219.566406-.101563 1.136719-.085937 1.707032zm0 0" fill="#f34335"/><path d="m210.433594 298.058594c2.003906 2.847656 3.074218 6.246094 3.074218 9.730468-.003906 8.980469-6.964843 16.421876-15.925781 17.023438-8.960937.601562-16.855469-5.84375-18.054687-14.746094-1.203125-8.898437 4.699218-17.207031 13.5-19.003906zm0 0" fill="#37474f"/><path d="m301.910156 298.058594h-.085937c-1.9375 2.875-2.976563 6.261718-2.984375 9.730468 0 8.980469 6.964844 16.421876 15.921875 17.023438 8.960937.601562 16.855469-5.84375 18.058593-14.746094 1.199219-8.898437-4.703124-17.207031-13.5-19.003906zm0 0" fill="#37474f"/><path d="m230.574219 401.058594c-8.828125 15.261718-14.214844 32.269531-15.789063 49.832031-.261718 2.644531-1.789062 4.996094-4.09375 6.316406-3.890625 2.3125-8.90625 1.1875-11.4375-2.5625-10.289062-15.839843-14.332031-34.933593-11.347656-53.585937zm0 0" fill="#f9eab0"/><path d="m230.574219 401.058594c-8.828125 15.261718-14.214844 32.269531-15.789063 49.832031-.261718 2.644531-1.789062 4.996094-4.09375 6.316406-1.191406-.558593-2.199218-1.449219-2.902344-2.5625-10.289062-15.839843-14.335937-34.933593-11.351562-53.585937zm0 0" fill="#ffebb2"/><path d="m313.089844 454.644531c-2.53125 3.75-7.546875 4.875-11.433594 2.5625-2.308594-1.320312-3.832031-3.671875-4.097656-6.316406-1.574219-17.5625-6.960938-34.570313-15.785156-49.832031h42.664062c2.988281 18.652344-1.058594 37.746094-11.347656 53.585937zm0 0" fill="#ffebb2"/><path d="m304.554688 454.644531c-.699219 1.113281-1.707032 2.003907-2.898438 2.5625-2.308594-1.320312-3.832031-3.671875-4.097656-6.316406-1.574219-17.5625-6.960938-34.570313-15.785156-49.832031h34.132812c2.984375 18.652344-1.058594 37.746094-11.351562 53.585937zm0 0" fill="#f5efca"/><path d="m187.90625 307.191406c0 9.425782-7.640625 17.066406-17.066406 17.066406-9.425782 0-17.066406-7.640624-17.066406-17.066406 0-9.425781 7.640624-17.066406 17.066406-17.066406 9.425781 0 17.066406 7.640625 17.066406 17.066406zm0 0" fill="#f4f4f4"/><path d="m307.371094 307.191406c-.09375 8.921875-7.046875 16.265625-15.953125 16.847656-8.902344.582032-16.753907-5.796874-18.007813-14.628906l28.414063-11.351562h.085937l2.21875-.851563c2.117188 2.894531 3.253906 6.394531 3.242188 9.984375zm0 0" fill="#f4f4f4"/><path d="m421.300781 4.496094c-5.234375-4.773438-12.855469-5.855469-19.207031-2.722656-79.523438 37.417968-132.019531 115.535156-136.628906 203.296874-6.230469-.355468-12.476563-.355468-18.703125 0-4.617188-87.765624-57.125-165.882812-136.652344-203.296874-6.347656-3.132813-13.964844-2.046876-19.183594 2.730468-14.21875 13.117188-106.609375 103.9375-87.953125 231.699219-.027344 1.011719.128906 2.023437.460938 2.984375 7.929687 44.910156 26.277344 87.335938 53.570312 123.871094-3.589844 12.351562-5.488281 25.136718-5.632812 38 0 74.648437 66.996094 110.933594 204.800781 110.933594s204.800781-36.285157 204.800781-110.933594c-.132812-12.898438-2.054687-25.710938-5.707031-38.078125 27.253906-36.519531 45.574219-78.917969 53.492187-123.792969.367188-1.011719.53125-2.089844.480469-3.164062 18.59375-127.660157-73.71875-218.410157-87.9375-231.527344zm71.96875 226.832031c-14.5 11.816406-33.21875 17.152344-51.769531 14.753906-23.253906-3.863281-45.976562-22.1875-67.550781-54.5625-12.863281-17.527343-17.851563-39.613281-13.773438-60.96875 8.296875-39.050781 47.550781-70.828125 73.574219-88.03125 30.292969 36.292969 71.597656 103.238281 59.519531 188.808594zm-414.847656-188.730469c25.976563 17.203125 65.160156 48.902344 73.449219 87.894532 4.105468 21.367187-.871094 43.484374-13.730469 61.039062-21.546875 32.324219-44.261719 50.675781-67.507813 54.550781-18.515624 2.398438-37.203124-2.914062-51.6875-14.695312-12.109374-85.527344 29.167969-152.464844 59.476563-188.789063zm365.484375 358.460938c0 63.144531-61.441406 93.863281-187.734375 93.863281s-187.734375-30.71875-187.734375-93.863281c.050781-6.808594.703125-13.59375 1.949219-20.285156 2.3125 2.902343 4.664062 5.792968 7.113281 8.710937 1.964844 2.335937 5.023438 3.445313 8.027344 2.910156 3.003906-.53125 5.492187-2.628906 6.53125-5.496093 1.039062-2.867188.472656-6.070313-1.492188-8.402344-31.628906-35.726563-54.578125-78.277344-67.046875-124.332032 11.695313 6.214844 24.707031 9.550782 37.949219 9.726563 4 0 7.996094-.328125 11.945312-.980469 28.09375-4.675781 54.613282-25.515625 78.90625-61.917968 15.480469-21.351563 21.355469-48.191407 16.214844-74.058594-8.953125-42.140625-46.234375-75.453125-78.726562-97.238282 5.117187-5.453124 9.539062-9.746093 12.679687-12.636718 108.203125 53.800781 126.523438 147.164062 128.085938 196.519531-.109375.527344-.160157 1.0625-.15625 1.597656 0 .238281.171875.425781.214843.664063.328126 10.128906-.164062 20.265625-1.46875 30.3125-.636718 4.609375 2.542969 8.882812 7.144532 9.597656 4.601562.714844 8.925781-2.390625 9.71875-6.980469 1.078125-8.773437 1.542968-17.613281 1.390625-26.453125 5.769531-.332031 11.550781-.332031 17.320312 0-.144531 8.839844.316407 17.679688 1.382813 26.453125.4375 3.042969 2.476562 5.613281 5.339844 6.734375 2.859374 1.117188 6.101562.613282 8.488281-1.324218s3.542969-5.007813 3.035156-8.035157c-.203125-1.546875-22.324219-154.949219 126.789063-229.085937 3.121093 2.875 7.507812 7.140625 12.59375 12.558594-32.554688 21.820312-69.894532 55.175781-78.847657 97.367187-5.128906 25.855469.769531 52.683594 16.265625 74.007813 24.292969 36.421874 50.859375 57.257812 78.949219 61.925781 4.0625.679687 8.175781 1.023437 12.296875 1.023437 13.167969-.164062 26.097656-3.511718 37.691406-9.75-12.46875 46.042969-35.40625 88.585938-67.027344 124.304688-3.035156 3.605468-2.574218 8.992187 1.035157 12.027344 3.609375 3.035156 8.992187 2.570312 12.027343-1.039063 2.476563-2.953125 4.863282-5.886719 7.203126-8.8125 1.257812 6.722656 1.910156 13.546875 1.945312 20.386719zm0 0"/><path d="m370.886719 267.605469c-.375-.429688-.796875-.820313-1.253907-1.160157-1.273437-.960937-2.773437-1.574218-4.351562-1.785156-1.117188-.054687-2.234375.066406-3.3125.351563-.222656.066406-.445312 0-.664062.117187l-61.9375 24.746094c-.242188.070312-.480469.152344-.714844.25l-42.480469 17.023438-105.128906-42.019532c-.214844-.085937-.445313-.050781-.65625-.117187-1.078125-.292969-2.199219-.410157-3.3125-.351563-.503907.058594-1 .164063-1.484375.316406-.546875.144532-1.078125.339844-1.589844.589844-.453125.242188-.886719.527344-1.285156.851563-.460938.339843-.878906.730469-1.253906 1.160156-.15625.179687-.367188.273437-.503907.460937-8.351562 11.570313-12.824219 25.480469-12.785156 39.75-.015625 31.144532 21.066406 58.351563 51.230469 66.109376 30.167968 7.757812 61.757812-5.898438 76.769531-33.1875 15.015625 27.289062 46.605469 40.945312 76.769531 33.1875 30.167969-7.757813 51.25-34.964844 51.230469-66.109376.03125-14.261718-4.449219-28.164062-12.800781-39.722656-.117188-.1875-.332032-.28125-.484375-.460937zm-46.449219 40.183593c0 4.710938-3.820312 8.53125-8.53125 8.53125-4.714844 0-8.535156-3.820312-8.535156-8.53125.023437-1.015624.222656-2.015624.589844-2.960937l11.589843-4.625c2.941407 1.386719 4.839844 4.332031 4.886719 7.585937zm-119.464844 0c.066406 4.246094-3.003906 7.890626-7.195312 8.554688-4.195313.667969-8.238282-1.851562-9.492188-5.910156-1.25-4.058594.671875-8.417969 4.511719-10.230469l11.570313 4.625c.386718.9375.589843 1.941406.605468 2.960937zm-8.535156 51.199219c-28.261719-.027343-51.171875-22.933593-51.199219-51.199219.007813-8.4375 2.125-16.734374 6.160157-24.140624l24.101562 9.632812c-6.011719 8.625-6.109375 20.054688-.253906 28.785156 5.855468 8.730469 16.46875 12.976563 26.730468 10.6875 10.257813-2.285156 18.066407-10.632812 19.660157-21.023437l23.894531 9.558593c-6.015625 22.179688-26.109375 37.609376-49.09375 37.699219zm119.46875 0c-22.996094-.074219-43.105469-15.507812-49.125-37.699219l23.890625-9.585937c1.539063 10.453125 9.347656 18.878906 19.652344 21.203125 10.304687 2.320312 20.976562-1.9375 26.847656-10.71875s5.734375-20.269531-.351563-28.90625l24.097657-9.632812c4.046875 7.402343 6.171875 15.703124 6.1875 24.140624-.027344 28.265626-22.933594 51.171876-51.199219 51.199219zm0 0"/><path d="m332.972656 392.523438h-153.601562c-23.550782.027343-42.636719 19.113281-42.664063 42.667968 0 4.710938 3.820313 8.53125 8.53125 8.53125 4.714844 0 8.535157-3.820312 8.535157-8.53125.039062-13.78125 10.976562-25.054687 24.746093-25.515625-1.765625 25.753907 9.4375 50.691407 29.867188 66.472657 1.472656 1.113281 3.273437 1.710937 5.121093 1.707031 4.710938 0 8.53125-3.820313 8.53125-8.53125 0-.382813.230469-36.320313 13.347657-59.734375h41.574219c13.113281 23.425781 13.34375 59.359375 13.34375 59.734375 0 3.230469 1.828124 6.1875 4.71875 7.632812 2.890624 1.445313 6.351562 1.132813 8.9375-.808593 20.429687-15.78125 31.632812-40.71875 29.863281-66.472657 13.773437.460938 24.710937 11.734375 24.75 25.515625 0 4.710938 3.820312 8.53125 8.53125 8.53125 4.714843 0 8.535156-3.820312 8.535156-8.53125-.03125-23.554687-19.117187-42.640625-42.667969-42.667968zm-126.660156 57.378906c-7.941406-11.878906-11.730469-26.054688-10.777344-40.3125h20.871094c-5.195312 12.910156-8.59375 26.476562-10.09375 40.3125zm99.710938-.050782c-1.5-13.820312-4.894532-27.367187-10.085938-40.261718h20.820312c.902344 14.230468-2.867187 28.367187-10.734374 40.261718zm0 0"/></svg>