<svg height="512pt" viewBox="0 0 512 512.12048" width="512pt" xmlns="http://www.w3.org/2000/svg"><path d="m503.554688 384.121094c0 108.371094-110.761719 119.464844-247.464844 119.464844-2.902344 0-5.71875 0-8.535156-.085938-132.777344-.425781-238.933594-13.308594-238.933594-119.378906.074218-12.296875 1.332031-24.554688 3.753906-36.609375l58.539062-127.488281c7.597657-10.324219 15.773438-20.210938 24.492188-29.609376 17.710938-19.097656 37.917969-35.714843 60.074219-49.410156 10.902343-6.621094 22.347656-12.304687 34.21875-16.980468h132.777343c11.871094 4.675781 23.316407 10.359374 34.21875 16.980468 22.15625 13.695313 42.363282 30.3125 60.074219 49.410156 8.71875 9.398438 16.894531 19.285157 24.492188 29.609376l58.539062 127.402343v.085938c2.421875 12.054687 3.679688 24.3125 3.753907 36.609375zm0 0" fill="#00828e"/><path d="m477.953125 384.121094c0 106.070312-104.257813 118.953125-234.664063 119.378906-130.40625-.425781-234.667968-13.308594-234.667968-119.378906.074218-12.292969 1.308594-24.550782 3.6875-36.609375l57.496094-127.488281c7.453124-10.3125 15.484374-20.199219 24.046874-29.609376 17.34375-19.054687 37.183594-35.675781 58.984376-49.410156 10.691406-6.613281 21.933593-12.296875 33.601562-16.980468h113.675781c11.675781 4.683593 22.929688 10.363281 33.628907 16.980468 21.808593 13.734375 41.660156 30.351563 59.007812 49.410156 8.566406 9.410157 16.59375 19.296876 24.046875 29.609376l57.472656 127.402343v.085938c2.378907 12.058593 3.613281 24.316406 3.683594 36.609375zm0 0" fill="#00bbd3"/><path d="m76.886719 221.988281c-39.609375-15.847656-68.265625 25.597657-68.265625 93.867188 0 109.277343 85.332031 8.53125 153.601562 42.664062 46.199219 23.09375 65.039063 3.210938 72.394532-12.066406 1.25-2.636719 1.066406-5.730469-.492188-8.199219-1.554688-2.472656-4.265625-3.972656-7.1875-3.984375-19.15625-1.265625-36.695312-11.183593-47.648438-26.949219-34.132812-42.667968-51.199218 0-93.867187-8.53125" fill="#00bbd3"/><path d="m503.554688 315.855469c0 51.027343-18.601563 56.234375-45.3125 50.855469-24.832032-5.03125-56.660157-19.285157-87.210938-14.675782-7.328125 1.019532-14.441406 3.210938-21.078125 6.484375-22.097656 11.09375-37.886719 12.289063-49.234375 8.875-10.351562-3.328125-18.773438-10.941406-23.125-20.90625-1.257812-2.640625-1.078125-5.738281.480469-8.214843 1.558593-2.472657 4.273437-3.980469 7.199219-3.988282 19.144531-1.285156 36.664062-11.207031 47.613281-26.964844 5.039062-7.003906 11.640625-12.730468 19.285156-16.726562 16.386719-7.507812 30.125 3.328125 49.070313 7.679688 8.359374 2.074218 17.078124 2.25 25.511718.515624l8.535156-76.800781c1.050782-.445312 2.136719-.816406 3.242188-1.109375 37.886719-12.460937 65.023438 28.585938 65.023438 94.976563zm0 0" fill="#00828e"/><path d="m477.953125 315.855469c0 32.253906-7.421875 46.25-19.710937 50.855469-24.832032-5.03125-56.660157-19.285157-87.210938-14.675782-15.855469-2.613281-32.132812-.351562-46.675781 6.484375-7.492188 3.902344-15.429688 6.882813-23.636719 8.875-10.351562-3.328125-18.773438-10.941406-23.125-20.90625-1.257812-2.640625-1.078125-5.738281.480469-8.214843 1.558593-2.472657 4.273437-3.980469 7.199219-3.988282 19.144531-1.285156 36.664062-11.207031 47.613281-26.964844 5.039062-7.003906 11.640625-12.730468 19.285156-16.726562 13.570313 4.351562 28.246094 12.375 48.984375 8.195312l.085938-.515624 8.445312-76.285157c9.121094-4.039062 19.441406-4.4375 28.84375-1.109375 23.894531 9.042969 39.421875 44.800782 39.421875 94.976563zm0 0" fill="#00bbd3"/><path d="m179.289062 179.320312c.03125 21.425782-15.832031 39.550782-37.074218 42.359376-21.238282 2.8125-41.269532-10.570313-46.808594-31.265626 17.710938-19.097656 37.917969-35.714843 60.074219-49.410156 14.570312 7.214844 23.796875 22.058594 23.808593 38.316406zm0 0" fill="#3f51b4"/><path d="m416.769531 190.414062c-3.234375 12.042969-11.597656 22.058594-22.867187 27.390626-5.714844 2.785156-11.992188 4.214843-18.347656 4.183593-16.113282-.015625-30.847657-9.109375-38.082032-23.511719-7.234375-14.398437-5.742187-31.644531 3.863282-44.585937 3.992187-5.480469 9.265624-9.90625 15.359374-12.886719 22.15625 13.695313 42.363282 30.3125 60.074219 49.410156zm0 0" fill="#283592"/><g fill="#3f51b4"><path d="m401.15625 203.128906c-1.402344 5.332032-3.871094 10.324219-7.253906 14.675782-5.714844 2.785156-11.992188 4.214843-18.347656 4.183593-16.113282-.015625-30.847657-9.109375-38.082032-23.511719-7.234375-14.398437-5.742187-31.644531 3.863282-44.585937 22.054687 13.664063 42.171874 30.222656 59.820312 49.238281zm0 0"/><path d="m153.6875 401.1875c0 9.425781-7.640625 17.066406-17.066406 17.066406-9.425782 0-17.066406-7.640625-17.066406-17.066406s7.640624-17.066406 17.066406-17.066406c9.425781 0 17.066406 7.640625 17.066406 17.066406zm0 0"/><path d="m384.089844 401.1875c0 9.425781-7.640625 17.066406-17.066406 17.066406-9.425782 0-17.070313-7.640625-17.070313-17.066406s7.644531-17.066406 17.070313-17.066406c9.425781 0 17.066406 7.640625 17.066406 17.066406zm0 0"/><path d="m85.421875 435.320312c0 18.851563-15.28125 34.132813-34.132813 34.132813h-.597656c-14.605468-9.441406-26.140625-22.933594-33.195312-38.824219 2.523437-17.714844 18.296875-30.472656 36.144531-29.242187 17.851563 1.234375 31.71875 16.042969 31.78125 33.933593zm0 0"/></g><path d="m494.679688 430.628906c-7.054688 15.890625-18.589844 29.382813-33.195313 38.824219h-.597656c-13.417969 0-25.582031-7.886719-31.058594-20.136719-2.027344-4.386718-3.078125-9.164062-3.074219-13.996094 0-18.851562 15.28125-34.132812 34.132813-34.132812 17.019531.046875 31.417969 12.589844 33.792969 29.441406zm0 0" fill="#283592"/><path d="m477.613281 413.558594c-7.054687 15.894531-18.589843 29.386718-33.195312 38.828125h-.597657c-4.832031-.003907-9.605468-1.050781-13.992187-3.070313-2.027344-4.386718-3.078125-9.164062-3.074219-13.996094 0-18.851562 15.28125-34.132812 34.132813-34.132812 4.863281-.003906 9.664062 1.042969 14.082031 3.070312 1.277344 2.976563 2.167969 6.101563 2.644531 9.300782zm0 0" fill="#3f51b4"/><path d="m332.886719 85.453125c0 42.417969-34.382813 76.800781-76.796875 76.800781-3.195313.015625-6.390625-.183594-9.558594-.597656-1.007812-.082031-2.007812-.25-2.988281-.511719-37.0625-6.09375-64.265625-38.128906-64.265625-75.691406s27.203125-69.597656 64.265625-75.691406c.980469-.257813 1.980469-.429688 2.988281-.511719 3.167969-.414062 6.363281-.613281 9.558594-.597656 20.367187 0 39.902344 8.09375 54.304687 22.496094 14.402344 14.402343 22.492188 33.9375 22.492188 54.304687zm0 0" fill="#ced7db"/><path d="m307.289062 85.453125c-.015624 37.375-26.917968 69.316406-63.746093 75.691406-37.0625-6.09375-64.265625-38.128906-64.265625-75.691406s27.203125-69.597656 64.265625-75.691406c36.828125 6.375 63.730469 38.320312 63.746093 75.691406zm0 0" fill="#f4f4f4"/><path d="m298.753906 85.453125c0 23.566406-19.101562 42.667969-42.664062 42.667969-23.566406 0-42.667969-19.101563-42.667969-42.667969 0-23.5625 19.101563-42.664063 42.667969-42.664063 23.5625 0 42.664062 19.101563 42.664062 42.664063zm0 0" fill="#e81e63"/><path d="m281.6875 85.453125c0 14.140625-11.460938 25.601563-25.597656 25.601563-14.140625 0-25.601563-11.460938-25.601563-25.601563 0-14.136719 11.460938-25.597656 25.601563-25.597656 14.136718 0 25.597656 11.460937 25.597656 25.597656zm0 0" fill="#37474f"/><path d="m247.554688 59.855469c0 9.425781-7.640626 17.066406-17.066407 17.066406s-17.066406-7.640625-17.066406-17.066406 7.640625-17.066407 17.066406-17.066407 17.066407 7.640626 17.066407 17.066407zm0 0" fill="#f4f4f4"/><path d="m476.597656 217.839844c-9.292968-6.40625-20.695312-8.992188-31.847656-7.21875-6.824219-8.953125-14.035156-17.722656-21.765625-26.0625-4.882813-5.167969-9.835937-10.121094-14.867187-14.847656-14.371094-13.601563-30.125-25.671876-47-36.007813h-.042969c-8.679688-5.183594-17.683594-9.800781-26.957031-13.824219 15.839843-35.785156 5.3125-77.753906-25.539063-101.824218-30.855469-24.074219-74.125-24.074219-104.980469 0-30.851562 24.070312-41.378906 66.039062-25.539062 101.824218-9.285156 4.03125-18.304688 8.660156-27 13.847656-6.082032 3.6875-12.089844 7.773438-18.046875 12.101563-15.78125 11.523437-30.453125 24.5-43.816407 38.757813-7.683593 8.292968-14.917968 17.066406-21.726562 26.007812-11.148438-1.765625-22.550781.816406-31.847656 7.21875-22.597656 15.269531-35.5312502 51.015625-35.5312502 98.042969-.2343748 10.761719.9687502 21.507812 3.5742182 31.957031-2.300781 11.964844-3.5 24.121094-3.5742182 36.308594 0 118.210937 121.0859372 128 256.0000002 128 134.910156 0 256-9.789063 256-128-.089844-12.164063-1.292969-24.296875-3.59375-36.242188 2.621094-10.464844 3.828125-21.238281 3.59375-32.023437 0-47.027344-12.9375-82.773438-35.492188-98.015625zm-120.175781-66.808594c2.390625 1.519531 4.773437 3.085938 7.144531 4.703125 1.585938 1.09375 3.183594 2.109375 4.761719 3.242187 4.164063 2.992188 8.289063 6.160157 12.382813 9.5.492187.398438.996093.75 1.484374 1.148438 4.546876 3.746094 9.027344 7.679688 13.464844 11.855469 1.476563 1.371093 2.917969 2.859375 4.386719 4.265625 2.332031 2.277344 4.644531 4.585937 6.9375 6.929687-5.714844 13.375-19.28125 21.660157-33.789063 20.636719-14.511718-1.023438-26.777343-11.128906-30.558593-25.171875-3.785157-14.046875 1.75-28.945313 13.785156-37.117187zm-100.332031-133.84375c37.699218 0 68.265625 30.5625 68.265625 68.265625s-30.566407 68.265625-68.265625 68.265625c-37.703125 0-68.269532-30.5625-68.269532-68.265625.042969-37.683594 30.582032-68.222656 68.269532-68.265625zm-143.875 168.480469c1.425781-1.371094 2.835937-2.824219 4.269531-4.164063 4.445313-4.144531 8.941406-8.121094 13.5-11.878906.460937-.382812.9375-.714844 1.40625-1.089844 4.101563-3.339844 8.246094-6.519531 12.433594-9.542968 1.628906-1.167969 3.277343-2.214844 4.90625-3.34375 2.328125-1.59375 4.667969-3.132813 7.023437-4.617188 12.035156 8.171875 17.570313 23.070312 13.789063 37.117188-3.78125 14.042968-16.050781 24.152343-30.5625 25.171874-14.507813 1.023438-28.070313-7.261718-33.785157-20.636718 2.332032-2.390625 4.671876-4.726563 7.019532-7.015625zm-85.816406 244.226562c2.789062-12.925781 14.984374-21.582031 28.105468-19.949219 13.121094 1.628907 22.824219 13.007813 22.367188 26.222657-.460938 13.210937-10.929688 23.890625-24.132813 24.609375-11.285156-7.867188-20.355469-18.5-26.339843-30.882813zm46.222656 42.121094c14.703125-8.417969 23.007812-24.757813 21.140625-41.59375-1.867188-16.839844-13.550781-30.960937-29.742188-35.949219-16.191406-4.988281-33.796875.109375-44.816406 12.976563-1.398437-7.695313-2.082031-15.503907-2.046875-23.328125 0-4.386719.339844-8.960938.714844-13.558594 15.617187 11.332031 37.546875 5.117188 60.828125-1.46875 25.597656-7.269531 54.550781-15.503906 79.707031-2.9375 12.640625 6.910156 26.699219 10.816406 41.089844 11.417969 5.4375.035156 10.84375-.828125 16-2.558594 11.957031-4.285156 21.644531-13.277344 26.8125-24.882813 2.5-5.15625 2.207031-11.230468-.777344-16.121093-3.070312-5.035157-8.492188-8.167969-14.386719-8.308594-16.628906-1.230469-31.792969-9.96875-41.191406-23.742187-24.378906-30.464844-44.375-23.203126-61.988281-16.75-11.503906 5.34375-24.335938 7.152343-36.871094 5.1875-4.625-.933594-9.132812 2.0625-10.066406 6.6875-.929688 4.625 2.0625 9.128906 6.6875 10.0625 15.605468 2.644531 31.640625.597656 46.082031-5.878907 16.816406-6.132812 26.085937-9.515625 42.800781 11.382813 12.523438 17.835937 32.546875 28.929687 54.308594 30.097656-3.171875 7.476562-9.285156 13.316406-16.898438 16.136719-11.007812 3.765625-25.789062 1.074219-43.9375-8.003907-31.078124-15.53125-64.851562-5.921874-91.996093 1.792969-20.140625 5.707031-37.546875 10.648438-46.371094 3.976563-7.007813-5.273438-10.546875-18.996094-10.546875-40.796875 0-40.664063 10.460938-72.015625 27.988281-83.882813 8.503907-5.644531 19.34375-6.421875 28.570313-2.058594 2.101562.839844 4.453125.8125 6.53125-.082031 2.082031-.894531 3.722656-2.574219 4.5625-4.679687 1.007812-2.609375.644531-5.546875-.964844-7.832032 3.003906-3.832031 6.058594-7.59375 9.222656-11.300781 10.417969 16.988281 29.753906 26.378907 49.542969 24.066407 19.792969-2.316407 36.4375-15.914063 42.65625-34.84375 6.21875-18.933594.875-39.75-13.691406-53.347657 4.984375-2.628906 9.976562-4.984375 15-7.152343 15.941406 22.613281 41.882812 36.066406 69.546875 36.066406 27.667968 0 53.609375-13.453125 69.546875-36.066406 5.027343 2.167968 10.019531 4.53125 14.996093 7.152343-14.746093 13.566407-20.222656 34.484375-14.015624 53.535157 6.207031 19.050781 22.953124 32.730468 42.859374 35.007812s39.308594-7.261719 49.660157-24.417969c3.164062 3.710938 6.238281 7.476563 9.226562 11.300781-1.613281 2.285157-1.972656 5.222657-.964843 7.832032.839843 2.105468 2.480468 3.785156 4.558593 4.679687 2.082031.894531 4.433594.921875 6.535157.082031 9.226562-4.367187 20.0625-3.585937 28.570312 2.058594 17.464844 11.867188 27.929688 43.21875 27.929688 83.882813 0 21.800781-3.542969 35.523437-10.515626 40.796875-8.867187 6.671875-26.246093 1.707031-46.371093-3.976563-27.152344-7.679687-60.925781-17.324219-91.996094-1.792969-18.152344 9.078126-32.9375 11.769532-43.9375 8.003907-7.601563-2.742188-13.671875-8.597657-16.691406-16.09375 21.667969-1.28125 41.566406-12.378907 54.042969-30.140625 16.714843-20.898438 25.980468-17.515625 42.800781-11.382813 14.4375 6.484375 30.476562 8.53125 46.082031 5.878907 4.472656-1.054688 7.308594-5.46875 6.40625-9.976563-.902344-4.511719-5.214844-7.492187-9.753906-6.746094-12.53125 1.960938-25.367188.15625-36.871094-5.191406-17.628906-6.441406-37.613281-13.726563-61.988281 16.753906-9.398438 13.773438-24.566407 22.515625-41.195313 23.738281-5.894531.148438-11.3125 3.277344-14.378906 8.3125-2.988281 4.890626-3.28125 10.964844-.777344 16.117188 5.164063 11.609375 14.851563 20.597656 26.8125 24.882812 5.15625 1.730469 10.5625 2.597657 16 2.5625 14.386719-.601562 28.441406-4.5 41.078125-11.402343 25.15625-12.566407 54.136719-4.332031 79.710938 2.9375 23.253906 6.613281 45.226562 12.800781 60.824219 1.46875.375 4.554687.71875 9.128906.71875 13.515625.035156 7.824218-.652344 15.632812-2.050782 23.328125-11.019531-12.867188-28.625-17.964844-44.816406-12.976563-16.1875 4.988282-27.875 19.109375-29.742188 35.949219-1.867187 16.835937 6.4375 33.175781 21.140626 41.59375-40.363282 18.148437-102.117188 23.039063-183.464844 23.039063-81.351563 0-143.105469-4.890626-183.46875-23.039063zm386.789062-11.265625c-13.214844-.707031-23.703125-11.390625-24.167968-24.621094-.460938-13.226562 9.253906-24.617187 22.390624-26.246094 13.136719-1.628906 25.339844 7.042969 28.121094 19.984376-5.972656 12.390624-15.039062 23.035156-26.316406 30.910156zm0 0"/><path d="m256.089844 119.585938c18.851562 0 34.132812-15.28125 34.132812-34.132813s-15.28125-34.132813-34.132812-34.132813c-18.851563 0-34.136719 15.28125-34.136719 34.132813s15.285156 34.132813 34.136719 34.132813zm0-51.199219c9.425781 0 17.066406 7.640625 17.066406 17.066406s-7.640625 17.066406-17.066406 17.066406c-9.425782 0-17.066406-7.640625-17.066406-17.066406s7.640624-17.066406 17.066406-17.066406zm0 0"/><path d="m136.621094 375.585938c-14.136719 0-25.597656 11.460937-25.597656 25.601562 0 14.136719 11.460937 25.601562 25.597656 25.601562 14.140625 0 25.601562-11.464843 25.601562-25.601562 0-14.140625-11.460937-25.601562-25.601562-25.601562zm0 34.132812c-4.710938 0-8.53125-3.820312-8.53125-8.53125 0-4.714844 3.820312-8.535156 8.53125-8.535156 4.714844 0 8.535156 3.820312 8.535156 8.535156 0 4.710938-3.820312 8.53125-8.535156 8.53125zm0 0"/><path d="m367.023438 375.585938c-14.140626 0-25.601563 11.460937-25.601563 25.601562 0 14.136719 11.460937 25.601562 25.601563 25.601562 14.136718 0 25.597656-11.464843 25.597656-25.601562 0-14.140625-11.460938-25.601562-25.597656-25.601562zm0 34.132812c-4.714844 0-8.535157-3.820312-8.535157-8.53125 0-4.714844 3.820313-8.535156 8.535157-8.535156 4.710937 0 8.53125 3.820312 8.53125 8.535156 0 4.710938-3.820313 8.53125-8.53125 8.53125zm0 0"/><path d="m315.820312 196.386719c0-4.710938-3.820312-8.53125-8.53125-8.53125-4.714843 0-8.535156 3.820312-8.535156 8.53125 0 9.425781-7.640625 17.066406-17.066406 17.066406h-51.199219c-9.425781 0-17.066406-7.640625-17.066406-17.066406 0-4.710938-3.820313-8.53125-8.535156-8.53125-4.710938 0-8.53125 3.820312-8.53125 8.53125 0 18.851562 15.28125 34.132812 34.132812 34.132812h51.199219c18.851562 0 34.132812-15.28125 34.132812-34.132812zm0 0"/></svg>