<svg height="512pt" viewBox="0 0 512.14787 512" width="512pt" xmlns="http://www.w3.org/2000/svg"><path d="m162.976562 339.097656v.171875l33.277344 113.066407 84.394532 10.070312 21.546874-6.1875c8.421876-2.417969 15.019532-8.972656 17.496094-17.375l29.308594-99.574219v-.171875l50.433594-219.648437c-1.449219-22.441407 18.6875-42.578125 18.6875-42.578125-20.261719-5.078125-41.703125-2.015625-59.734375 8.53125-8.53125-25.601563 17.066406-59.734375 17.066406-59.734375-34.132813 0-68.265625 25.601562-68.265625 25.601562-17.066406-8.535156 0-42.667969 0-42.667969-49.75 8.535157-51.199219 34.132813-51.199219 34.132813s-1.449219-25.597656-51.199219-34.132813c0 0 17.066407 34.132813 0 42.667969 0 0-34.132812-25.601562-68.265624-25.601562 0 0 25.597656 34.132812 17.066406 59.734375-18.03125-10.546875-39.472656-13.609375-59.734375-8.53125 0 0 20.136719 20.136718 18.6875 42.578125zm0 0" fill="#9d9c24"/><path d="m59.636719 230.46875.085937.085938-38.058594 21.417968c-.625.414063-1.199218.902344-1.707031 1.453125.464844-.621093 1.042969-1.140625 1.707031-1.539062zm0 0" fill="#46b29d"/><path d="m13.214844 173.976562 46.507812-20.308593v.085937l-46.507812 20.308594c-.726563.386719-1.414063.84375-2.046875 1.367188.617187-.570313 1.304687-1.058594 2.046875-1.453126zm0 0" fill="#46b29d"/><path d="m464.125 223.214844c-1.84375 1.792968-2.769531 4.332031-2.511719 6.890625.257813 2.558593 1.667969 4.863281 3.835938 6.25l24.351562 15.617187c3.027344 1.914063 4.515625 5.523438 3.722657 9.015625-.792969 3.488281-3.699219 6.097657-7.253907 6.515625-35.515625 5.460938-107.871093 20.222656-133.230469 56.917969-33.28125 48.296875-27.308593 66.304687-93.382812 68.09375-.707031.042969-1.414062.042969-2.125 0h-3.351562c-34.195313-.765625-49.5625-5.628906-60.699219-16.382813-11.136719-10.75-18.019531-27.390624-34.804688-51.710937-2.445312-3.503906-5.226562-6.765625-8.304687-9.730469-30.121094-29.695312-92.5-42.324218-124.65625-47.273437-1.652344-.222657-3.214844-.902344-4.503906-1.960938-1.761719-1.449219-2.851563-3.558593-3.011719-5.832031-.164063-2.277344.617187-4.519531 2.15625-6.199219.535156-.550781 1.125-1.039062 1.769531-1.453125l39.40625-21.417968-.101562-.085938-50.347657-42.835938c-1.667969-1.605468-2.597656-3.828124-2.5625-6.140624.035157-2.3125 1.027344-4.507813 2.742188-6.0625.65625-.527344 1.367187-.984376 2.117187-1.367188l48.152344-20.308594v-.085937l-27.214844-47.53125c-1.355468-3.015625-.757812-6.550781 1.511719-8.957031.445313-.574219.984375-1.0625 1.597656-1.453126 1.679688-1.234374 3.75-1.808593 5.828125-1.621093 44.019532 4.792969 84.578125 26.113281 113.492188 59.648437 7.164062 8.007813 13.726562 16.535156 19.625 25.515625 14.878906 21.539063 25.167968 45.910157 30.21875 71.59375v.257813c7.148437 38.144531-1.332032 54.441406 49.296875 55.976562h1.5c2.296875.085938 4.769531.171875 7.332031.171875 60.433594 0 50.617188-15.957031 58.128906-56.148437v-.171875c5.070313-25.707031 15.355469-50.105469 30.222656-71.679688 5.898438-8.980469 12.460938-17.511719 19.628907-25.515625 26.402343-30.257812 62.257812-50.703125 101.742187-58.027344 0 .085938.09375.085938.09375.085938 3.457032 2.195312 4.773438 6.59375 3.089844 10.324219l-17.84375 40.195312c-1.828125 4.183594.011719 9.066407 4.148438 11.007813l34.636718 16.722656c2.515625 1.160156 4.292969 3.488281 4.753906 6.222656.460938 2.730469-.460937 5.511719-2.460937 7.433594zm0 0" fill="#9d9c24"/><path d="m432.707031 223.214844c-1.730469 1.839844-2.585937 4.335937-2.351562 6.847656.238281 2.515625 1.539062 4.804688 3.578125 6.292969l22.707031 15.617187c2.832031 1.984375 4.207031 5.472656 3.488281 8.855469s-3.386718 6.011719-6.78125 6.675781c-33.066406 5.460938-100.429687 20.222656-124.03125 56.917969-31.011718 48.296875-25.421875 66.304687-86.949218 68.09375-.65625.042969-1.3125.042969-1.96875 0h-3.132813c-31.828125-.765625-46.140625-5.628906-56.507813-16.382813-10.367187-10.75-16.777343-27.390624-32.425781-51.710937-2.261719-3.484375-4.851562-6.742187-7.730469-9.730469-28.050781-29.695312-86.121093-42.324218-116.054687-47.273437-1.5625-.230469-3.019531-.910157-4.199219-1.960938-3.453125-3.140625-3.828125-8.4375-.851562-12.03125.484375-.550781 1.035156-1.039062 1.636718-1.453125l36.695313-21.417968-.035156-.085938-46.890625-42.835938c-3.246094-3.449218-3.167969-8.847656.171875-12.203124.605469-.523438 1.265625-.980469 1.96875-1.367188l44.828125-20.308594v-.085937l-25.328125-47.53125c-1.269531-3.007813-.730469-6.476563 1.390625-8.957031.410156-.5625.914062-1.054688 1.484375-1.453126 1.53125-1.226562 3.476562-1.808593 5.429687-1.621093 41.738282 5.105469 79.746094 26.558593 105.691406 59.648437 6.703126 8.046875 12.808594 16.574219 18.261719 25.515625 13.957031 21.804688 23.523438 46.125 28.160157 71.59375v.257813c6.664062 38.144531-1.238282 54.441406 45.902343 55.976562h1.390625c2.082032.085938 13.34375.171875 15.734375.171875 56.261719 0 47.128907-15.957031 54.128907-56.148437l5.605468-12.117188c2.574219-21.4375 10.300782-41.933594 22.519532-59.734375 5.457031-8.9375 11.558593-17.464843 18.261718-25.515625 33.558594-40.105468 62.460938-53.675781 85.828125-58.027344-.003906.023438.003907.042969.019531.0625.011719.015626.035157.023438.054688.023438 3.273438 2.332031 4.476562 6.632812 2.886719 10.324219l-16.617188 40.195312c-1.726562 4.117188-.058593 8.875 3.867188 11.007813l32.238281 16.722656c2.378906 1.296875 4.015625 3.625 4.4375 6.300781.417969 2.675781-.429688 5.390625-2.296875 7.355469zm0 0" fill="#ccdb39"/><g fill="#65ddb9"><path d="m59.636719 230.46875-48.640625-42.75v-.085938zm0 0"/><path d="m25.160156 267.417969c31.0625 4.949219 91.308594 17.578125 120.40625 47.273437-29.269531-29.609375-89.429687-42.238281-120.40625-47.1875-1.625-.21875-3.144531-.933594-4.351562-2.046875 1.234375 1.054688 2.746094 1.734375 4.351562 1.960938zm0 0"/><path d="m249.078125 392.515625c.679687.042969 1.363281.042969 2.046875 0-.679688.074219-1.363281.101563-2.046875.085937h-3.246094c-33.109375-.765624-47.957031-5.632812-58.621093-16.46875 10.75 10.753907 25.597656 15.617188 58.621093 16.382813zm0 0"/></g><path d="m418.121094 213.402344c.042968 29.695312-21.796875 54.886718-51.199219 59.050781-2.816406.488281-5.675781.71875-8.535156.683594-2.855469.015625-5.707031-.183594-8.53125-.597657-14.839844-2.082031-28.328125-9.742187-37.71875-21.417968v-.171875c4.851562-25.601563 14.777343-49.972657 29.183593-71.679688 2.816407-4.351562 5.632813-8.535156 8.535157-12.460937 3.414062-4.605469 6.910156-8.957032 10.410156-13.054688 2.21875.085938 4.351563.257813 6.484375.511719 29.496094 4.109375 51.429688 29.359375 51.371094 59.136719zm0 0" fill="#fff"/><path d="m401.054688 213.402344c0 33.023437-19.113282 59.734375-42.667969 59.734375-19.539063 0-36.007813-18.347657-41.042969-43.433594 1.96875-6.332031 4.304688-12.542969 6.996094-18.605469.9375-2.304687 2.046875-4.691406 3.15625-7.082031 4.054687-8.546875 8.671875-16.8125 13.824218-24.746094.941407-1.449219 1.878907-2.816406 2.816407-4.183593 1.878906-2.898438 3.753906-5.628907 5.71875-8.277344 2.816406-3.839844 5.632812-7.421875 8.617187-10.835938.683594-.765625 1.453125-1.449218 2.132813-2.132812 22.53125 1.535156 40.449219 27.5625 40.449219 59.5625zm0 0" fill="#ff9701"/><path d="m230.386719 391.75v26.453125c0 18.851563-15.28125 34.132813-34.132813 34.132813h-51.199218c-18.753907.023437-34.007813-15.105469-34.132813-33.859376.503906-13.363281-4.410156-26.363281-13.625-36.054687-9.214844-9.6875-21.953125-15.25-35.324219-15.417969h-44.917968c-3.441407.023438-6.527344 2.109375-7.832032 5.292969-1.308594 3.183594-.574218 6.839844 1.859375 9.273437l27.527344 12.3125c2.511719 1.554688 4.039063 4.300782 4.039063 7.253907s-1.527344 5.695312-4.039063 7.253906l-27.527344 12.3125c-2.433593 2.433594-3.167969 6.085937-1.859375 9.269531 1.304688 3.183594 4.390625 5.273438 7.832032 5.296875h25.601562c9.394531.070313 16.996094 7.667969 17.066406 17.066407 0 28.277343 22.921875 51.199218 51.199219 51.199218h119.464844c24.410156 0 45.433593-17.203125 50.261719-41.128906.617187-3.324219.929687-6.691406.941406-10.070312v-60.585938zm0 0" fill="#e81e63"/><path d="m199.839844 250.863281v.257813c-9.390625 11.675781-22.878906 19.335937-37.71875 21.417968-2.824219.414063-5.675782.613282-8.53125.597657-2.859375.035156-5.71875-.195313-8.535156-.683594-29.410157-4.234375-51.226563-29.457031-51.183594-59.167969.042968-29.710937 21.933594-54.867187 51.355468-59.019531 2.132813-.253906 4.265626-.425781 6.484376-.511719l.085937.085938c.613281.671875 1.183594 1.386718 1.707031 2.132812 2.984375 3.414063 5.800782 6.996094 8.617188 10.835938 2.816406 3.84375 5.71875 8.109375 8.535156 12.460937 6.578125 10.09375 12.257812 20.742188 16.980469 31.828125 2.691406 6.0625 5.027343 12.273438 6.996093 18.605469 2.191407 6.933594 3.929688 14 5.207032 21.160156zm0 0" fill="#fff"/><path d="m194.632812 229.703125c-5.035156 25.085937-21.503906 43.433594-41.042968 43.433594-23.554688 0-42.667969-26.710938-42.667969-59.734375 0-32 17.917969-58.027344 40.449219-59.5625.679687.683594 1.449218 1.367187 2.132812 2.132812 2.984375 3.414063 5.800782 6.996094 8.617188 10.835938 2.816406 3.84375 5.71875 8.109375 8.535156 12.460937 6.578125 10.09375 12.257812 20.742188 16.980469 31.828125 2.691406 6.0625 5.027343 12.273438 6.996093 18.605469zm0 0" fill="#ff9701"/><path d="m136.523438 187.800781c0 9.425781-7.644532 17.070313-17.070313 17.070313-9.421875 0-17.066406-7.644532-17.066406-17.070313s7.644531-17.066406 17.066406-17.066406c9.425781 0 17.070313 7.640625 17.070313 17.066406zm0 0" fill="#fff"/><path d="m349.855469 187.800781c-.027344 9.414063-7.652344 17.039063-17.066407 17.070313-1.800781.027344-3.59375-.261719-5.292968-.855469 4.054687-8.546875 8.671875-16.8125 13.824218-24.746094.941407-1.449219 1.878907-2.816406 2.816407-4.183593 3.628906 3.234374 5.710937 7.859374 5.71875 12.714843zm0 0" fill="#fff"/><path d="m502.738281 166.339844-33.417969-16.707032 17.253907-40.25c2.382812-5.535156 1.671875-11.910156-1.871094-16.78125-3.539063-4.871093-9.386719-7.515624-15.382813-6.960937-20.292968 2.066406-40.027343 7.894531-58.1875 17.1875 3.214844-7.3125 7.613282-14.046875 13.023438-19.925781 2.171875-2.171875 3.007812-5.347656 2.1875-8.308594s-3.167969-5.253906-6.148438-6c-18.273437-4.5625-37.523437-3.199219-54.972656 3.890625 2.023438-15.132813 7.902344-29.492187 17.066406-41.703125 1.9375-2.585938 2.246094-6.046875.796876-8.933594-1.445313-2.890625-4.398438-4.710937-7.632813-4.710937-23.972656 1.511719-47.101563 9.425781-66.976563 22.917969-.402343-9.617188 1.789063-19.167969 6.347657-27.644532 1.433593-2.878906 1.125-6.316406-.792969-8.894531-1.914062-2.578125-5.117188-3.859375-8.285156-3.320313-27.570313 4.730469-42.078125 14.738282-49.757813 23.808594-7.679687-9.070312-22.1875-19.078125-49.757812-23.808594-3.167969-.542968-6.375.742188-8.292969 3.324219-1.917969 2.578125-2.222656 6.019531-.785156 8.898438 4.5625 8.460937 6.742187 18.007812 6.304687 27.613281-19.863281-13.480469-42.976562-21.386719-66.933593-22.894531-3.234376 0-6.1875 1.824219-7.632813 4.714843-1.445313 2.890626-1.136719 6.351563.804687 8.9375 9.191407 12.191407 15.070313 26.554688 17.066407 41.695313-17.453125-7.089844-36.710938-8.453125-54.988281-3.890625-2.980469.746094-5.332032 3.039062-6.148438 6-.820312 2.960938.015625 6.136719 2.1875 8.308594 5.363281 5.875 9.742188 12.582031 12.964844 19.855468-18.085938-9.253906-37.738282-15.0625-57.953125-17.117187-6-.59375-11.863281 2.074219-15.359375 6.988281-3.679688 5.121094-4.257813 11.847656-1.507813 17.519532l21.816407 39.449218-38.347657 16.742188c-4.902343 2.453125-8.332031 7.109375-9.214843 12.519531-.863282 5.605469 1.070312 11.277344 5.179687 15.191406l39.671875 34.890625-28.101562 15.871094c-5.839844 3.90625-8.6875 10.992188-7.179688 17.851562 1.507812 6.863282 7.066406 12.097657 14.007812 13.195313 36.425782 5.808594 100.785157 20.375 122.699219 53.210937 3.199219 4.796876 5.972657 9.285157 8.535157 13.5l29.824218 101.230469h-39.792968c-14.070313.03125-25.515626-11.324219-25.601563-25.394531.585937-15.640625-5.203125-30.851562-16.039063-42.148438-10.832031-11.296874-25.785156-17.714843-41.441406-17.789062h-44.917968c-6.898438.007812-13.113282 4.167969-15.75 10.542969-2.636719 6.375-1.175782 13.710937 3.703124 18.589843.734376.738282 1.605469 1.335938 2.558594 1.757813l26.375 11.777344-26.382812 11.773437c-.957032.425782-1.824219 1.019532-2.5625 1.757813-4.878906 4.882812-6.335938 12.21875-3.699219 18.59375 2.640625 6.375 8.859375 10.535156 15.757813 10.539062h25.601562c2.296875 0 4.496094.941407 6.074219 2.613281 1.59375 1.554688 2.480469 3.695313 2.457031 5.921876.039062 32.972656 26.761719 59.695312 59.734375 59.734374h119.464844c26.371093-.105468 49.558593-17.46875 57.082031-42.746093l17.066406-4.90625c11.253906-3.191407 20.074219-11.945313 23.347656-23.175781l29.011719-98.679688c2.558594-4.214844 5.367188-8.703125 8.535157-13.5 21.972656-32.792969 86.441406-47.394531 122.9375-53.203125 6.941406-1.097656 12.5-6.332031 14.007812-13.195313 1.507812-6.859374-1.339844-13.945312-7.179688-17.851562l-23.5-15.664062 35.472657-35.476563c3.867187-3.878906 5.636719-9.378906 4.757812-14.785156-.878906-5.40625-4.296875-10.066407-9.195312-12.519531zm-393.113281-83.222656c13.710938-.691407 27.335938 2.566406 39.253906 9.386718 2.210938 1.460938 4.976563 1.8125 7.484375.953125 2.507813-.863281 4.472657-2.84375 5.316407-5.359375 5.972656-17.816406-1.570313-38.210937-8.707032-51.898437 16.757813 4.429687 32.574219 11.847656 46.695313 21.898437 2.585937 1.933594 6.039062 2.242188 8.925781.800782 6.210938-3.113282 15.890625-11.65625 10.914062-34.023438-.324218-1.46875-.691406-2.910156-1.089843-4.265625 26.972656 8.472656 29.035156 22.613281 29.035156 22.613281.078125.40625.183594.808594.316406 1.203125.085938.542969.222657 1.074219.410157 1.585938.246093.53125.546874 1.035156.898437 1.503906.246094.410156.53125.800781.851563 1.160156.425781.40625.894531.761719 1.398437 1.066407.40625.292968.839844.550781 1.289063.765624.539062.199219 1.097656.34375 1.664062.4375.398438.136719.808594.242188 1.21875.324219.171875 0 .316406-.070312.488281-.070312s.316407.078125.488281.070312c.398438-.078125.796876-.179687 1.183594-.308593.566406-.089844 1.125-.234376 1.664063-.433594.453125-.21875.882812-.476563 1.289062-.769532.503907-.300781.972657-.660156 1.398438-1.066406.320312-.359375.605469-.746094.855469-1.160156.347656-.46875.648437-.972656.894531-1.5.191406-.515625.328125-1.046875.410156-1.589844.148437-.394531.265625-.804687.351563-1.21875 0-.171875 2.15625-14.226562 29.011718-22.648437-.402344 1.390625-.769531 2.84375-1.09375 4.265625-4.972656 22.367187 4.703125 30.910156 10.914063 34.023437 2.890625 1.464844 6.355469 1.164063 8.953125-.765625 14.121094-10.054687 29.9375-17.472656 46.695312-21.90625-7.136718 13.652344-14.644531 34.082032-8.707031 51.898438.839844 2.519531 2.804687 4.5 5.3125 5.367187 2.507813.867188 5.277344.515625 7.488281-.945312 11.921875-6.8125 25.542969-10.070313 39.253906-9.386719-6.511718 9.371094-10.460937 20.28125-11.460937 31.648438-22.804687 15.898437-42.125 36.289062-56.769531 59.921874-18.527344 27.914063-29.882813 59.96875-33.058594 93.320313-3.183594 25.429687-3.839844 30.71875-45.074219 30.71875s-41.890625-5.289063-45.074219-30.71875c-3.179687-33.347656-14.53125-65.394531-33.058593-93.304687-14.644531-23.640626-33.960938-44.042969-56.769531-59.953126-1.003907-11.363281-4.953126-22.269531-11.460938-31.640624zm211.703125 165.453124c4.898437-23.097656 14.125-45.058593 27.195313-64.71875.4375-.683593.855468-1.28125 1.332031-1.953124v81.917968c-10.921875-1.820312-20.945313-7.179687-28.527344-15.246094zm45.59375-85.566406c24.636719 4.121094 42.6875 25.4375 42.6875 50.414063 0 24.980469-18.050781 46.296875-42.6875 50.417969zm-264.535156 50.398438c-.128907-25.015625 17.976562-46.398438 42.667969-50.398438v100.832032c-24.605469-4.179688-42.621094-25.476563-42.667969-50.433594zm59.734375-31.503906c.4375.671874.898437 1.269531 1.332031 1.953124 13.070313 19.660157 22.296875 41.621094 27.195313 64.71875-7.582032 8.066407-17.605469 13.425782-28.527344 15.246094zm40.277344 261.117187-16.800782-57.078125c10.539063 7.871094 23.132813 12.523438 36.257813 13.398438v18.867187c-.046875 11.730469-8.066407 21.929687-19.457031 24.746094zm27.988281 51.988281h-119.464844c-23.550781-.03125-42.636719-19.117187-42.667969-42.667968.050782-6.757813-2.640625-13.242188-7.457031-17.980469-4.753906-4.90625-11.308594-7.660157-18.140625-7.621094h-24.203125l23.636719-10.546875c.355468-.15625.699218-.339844 1.027344-.546875 5.019531-3.109375 8.074218-8.597656 8.074218-14.503906 0-5.910157-3.054687-11.394531-8.074218-14.507813-.328126-.203125-.671876-.386718-1.027344-.546875l-23.625-10.546875h43.519531c11.117187.175782 21.691406 4.847656 29.304687 12.953125 7.613282 8.105469 11.617188 18.949219 11.097657 30.054688.1875 23.429687 19.238281 42.328125 42.667969 42.328125h51.199218c23.554688-.03125 42.640625-19.117188 42.667969-42.667969v-17.460937c5.265625.238281 10.835937.394531 17.066406.394531s11.800781-.15625 17.066407-.394531v51.59375c-.003907 2.8125-.261719 5.621093-.769532 8.386718-4.050781 19.929688-21.5625 34.253906-41.898437 34.28125zm81.121093-58.566406c-1.636718 5.609375-6.039062 9.984375-11.65625 11.582031l-9.730468 2.789063v-51.472656c13.128906-.886719 25.722656-5.554688 36.257812-13.441407zm148.128907-219.355469c-3.617188 3.609375-5.429688 8.648438-4.933594 13.738281.496094 5.085938 3.246094 9.683594 7.492187 12.527344l23.460938 15.664063c-47.960938 7.597656-110.210938 24.289062-134.410156 60.589843-6.757813 10.136719-11.792969 18.773438-16.214844 26.453126-14.285156 24.675781-20.050781 34.472656-53.441406 37.160156-7.160156.582031-15.515625.855468-25.601563.855468-10.085937 0-18.414062-.265624-25.601562-.855468-33.378907-2.695313-39.148438-12.492188-53.453125-37.144532-2.003906-3.414062-4.152344-7.140624-6.5-11.09375-.078125-.136718-.152344-.265624-.238282-.390624-2.800781-4.652344-5.890624-9.617188-9.5-15.039063-24.214843-36.324219-86.355468-53-134.824218-60.253906l38.023437-21.441407c2.40625-1.359374 4.007813-3.800781 4.296875-6.550781.285156-2.746093-.777344-5.464843-2.855468-7.292969l-48.683594-42.179687 46.484375-20.34375c2.199219-.960937 3.890625-2.804687 4.664062-5.078125.769531-2.273438.546875-4.765625-.613281-6.867188l-25.871094-46.933593c24.117188 2.558593 47.253906 10.941406 67.414063 24.429687 9.234375 6.101563 17.855469 13.085938 25.742187 20.847656-26.132812 7.609376-45.242187 30.027344-48.621094 57.035157-3.378906 27.007812 9.617188 53.441406 33.074219 67.253906 23.453125 13.816406 52.871094 12.363281 74.855469-3.6875l.203125 1.628906c4.140625 33.152344 10.566406 45.6875 62.003906 45.6875s57.863281-12.535156 62.003907-45.6875l.203124-1.628906c21.972657 16.070313 51.398438 17.539063 74.863282 3.734375 23.460937-13.804688 36.472656-40.238281 33.097656-67.25-3.375-27.015625-22.488281-49.433594-48.628906-57.042969 25.015625-25.34375 57.976562-41.324219 93.363281-45.277343l-17.253906 40.269531c-3.554688 8.304687-.023438 17.941406 8.054687 21.980469l33.410156 16.707031zm0 0"/><path d="m230.386719 332.871094c-4.710938 0-8.53125 3.820312-8.53125 8.53125v8.535156c0 4.710938 3.820312 8.53125 8.53125 8.53125 4.714843 0 8.535156-3.820312 8.535156-8.53125v-8.535156c0-4.710938-3.820313-8.53125-8.535156-8.53125zm0 0"/><path d="m281.589844 332.871094c-4.714844 0-8.535156 3.820312-8.535156 8.53125v8.535156c0 4.710938 3.820312 8.53125 8.535156 8.53125 4.710937 0 8.53125-3.820312 8.53125-8.53125v-8.535156c0-4.710938-3.820313-8.53125-8.53125-8.53125zm0 0"/><path d="m238.921875 264.601562c4.710937 0 8.53125-3.820312 8.53125-8.53125v-153.601562c0-4.710938-3.820313-8.53125-8.53125-8.53125-4.714844 0-8.535156 3.820312-8.535156 8.53125v153.601562c0 4.710938 3.820312 8.53125 8.535156 8.53125zm0 0"/><path d="m273.054688 264.601562c4.714843 0 8.535156-3.820312 8.535156-8.53125v-153.601562c0-4.710938-3.820313-8.53125-8.535156-8.53125-4.710938 0-8.53125 3.820312-8.53125 8.53125v153.601562c0 4.710938 3.820312 8.53125 8.53125 8.53125zm0 0"/></svg>