<svg height="512pt" viewBox="0 0 512 512.00172" width="512pt" xmlns="http://www.w3.org/2000/svg"><path d="m87.980469 264.707031c-21.074219 3.578125-40.582031 13.421875-55.980469 28.242188-15.191406 16.433593-23.554688 38.039062-23.378906 60.417969-.085938 1.621093-.085938 3.328124-.085938 5.035156 0 14.761718.597656 28.074218 1.535156 40.019531 1.40625 20.757813 5.304688 41.273437 11.605469 61.101563 12.542969 37.117187 29.523438 43.945312 29.523438 43.945312h76.800781l-10.410156-38.144531c-15.1875-25.429688-25.683594-58.367188 1.878906-81.324219 9.554688-7.933594 18.515625-15.015625 26.707031-21.160156zm0 0" fill="#ff5722"/><path d="m119.46875 503.46875h64.289062c2.945313-.019531 5.671876-1.542969 7.230469-4.042969 1.558594-2.496093 1.726563-5.621093.449219-8.269531-27.597656-59.632812-80.503906-21.820312-80.503906-21.820312s0 34.132812 8.535156 34.132812zm0 0" fill="#ffebb2"/><path d="m59.734375 418.136719c0 12.542969-9.300781 29.78125-38.058594 41.386719-6.300781-19.828126-10.199219-40.34375-11.605469-61.101563 24.320313 4.269531 49.664063 10.839844 49.664063 19.714844zm0 0" fill="#e81e63"/><path d="m503.46875 358.402344c0 14.761718-.597656 28.074218-1.539062 40.019531-1.40625 20.757813-5.300782 41.273437-11.601563 61.101563-12.546875 37.117187-29.527344 43.945312-29.527344 43.945312h-76.800781l10.410156-38.144531c15.191406-25.429688 25.6875-58.367188-1.875-81.324219-7.59375-6.3125-14.847656-12.117188-21.675781-17.40625l-3.839844-100.179688-.085937-1.878906 76.714844 5.71875c13.683593 4.703125 26.117187 12.46875 36.351562 22.695313 15.195312 16.433593 23.554688 38.039062 23.382812 60.417969.085938 1.621093.085938 3.328124.085938 5.035156zm0 0" fill="#d74315"/><path d="m477.867188 358.402344c0 14.761718-.597657 28.074218-1.535157 40.019531-1.40625 20.757813-5.304687 41.273437-11.605469 61.101563-12.542968 37.117187-29.527343 43.945312-29.527343 43.945312h-51.199219l10.410156-38.144531c15.191406-25.429688 25.6875-58.367188-1.875-81.324219-7.59375-6.3125-14.847656-12.117188-21.675781-17.40625l-3.839844-100.179688 51.03125 3.839844c13.683594 4.703125 26.113281 12.46875 36.351563 22.695313 15.191406 16.433593 23.554687 38.039062 23.378906 60.417969.085938 1.621093.085938 3.328124.085938 5.035156zm0 0" fill="#ff5722"/><path d="m392.535156 503.46875h-64.292968c-2.941407-.019531-5.671876-1.542969-7.230469-4.042969-1.558594-2.496093-1.726563-5.621093-.449219-8.269531 27.597656-59.632812 80.503906-21.820312 80.503906-21.820312s0 34.132812-8.53125 34.132812zm0 0" fill="#ffebb2"/><path d="m452.265625 418.136719c0 12.542969 9.304687 29.78125 38.0625 41.386719 6.300781-19.828126 10.195313-40.34375 11.601563-61.101563-24.316407 4.269531-49.664063 10.839844-49.664063 19.714844zm0 0" fill="#e81e63"/><path d="m443.5625 280.152344c-.082031 1.425781-.871094 2.71875-2.109375 3.441406-1.234375.71875-2.75.773438-4.035156.140625l-10.835938-5.460937-3.925781-1.960938c-1.511719-.707031-3.289062-.507812-4.605469.511719-.3125.320312-.597656.660156-.855469 1.023437-.363281.535156-.597656 1.148438-.683593 1.792969-.0625.660156-.179688 1.316406-.339844 1.960937-6.570313 35.058594-24.613281 66.941407-51.285156 90.625-1.066407.929688-2.519531 1.269532-3.886719.910157s-2.46875-1.371094-2.941406-2.703125c-.746094-1.875-1.722656-3.652344-2.902344-5.289063-1.246094-1.664062-2.617188-3.234375-4.09375-4.695312-2.191406-2.203125-4.53125-4.253907-6.996094-6.144531-.976562-.742188-2.234375-1.023438-3.433594-.757813-1.199218.261719-2.222656 1.039063-2.796874 2.125-.085938.085937-.085938.253906-.171876.339844-.902343 1.742187-1.957031 3.398437-3.15625 4.949219-17.921874 23.296874-65.449218 23.46875-80.554687 22.871093h-.085937c-.566407-.011719-1.121094-.15625-1.621094-.429687h-.339844c-1.273438-.972656-2-2.492188-1.964844-4.09375 1.195313-18.347656-23.636718-21.078125-30.976562-21.503906-.90625-.070313-1.808594.171874-2.558594.683593-.367188.179688-.6875.441407-.9375.765625-.171875.171875-.34375.425782-.511719.597656-4.109375 4.964844-4.941406 11.867188-2.136719 17.664063.578126 1.386719.386719 2.972656-.503906 4.179687-.894531 1.203126-2.351562 1.855469-3.847656 1.707032-4.777344-.253906-9.386719-.679688-13.652344-1.277344-2.644531-.34375-5.121094-.855469-7.59375-1.367188-36.445312-5.59375-65.539062-33.324218-72.875-69.460937-.269531-1.328125-1.152344-2.453125-2.382812-3.023437-1.226563-.574219-2.65625-.527344-3.847656.121093-.960938.519531-1.875 1.117188-2.730469 1.792969-2.648438 1.917969-4.90625 4.320312-6.65625 7.082031-.339844.464844-.65625.949219-.9375 1.453125-.894531 1.515625-2.625 2.328125-4.363281 2.046875-1.738282-.285156-3.121094-1.605469-3.488282-3.328125-.253906-1.109375-.425781-2.21875-.597656-3.328125v-.085937c-.070312-.191406-.097656-.394532-.085938-.597656-.253906-1.109376-.425781-2.21875-.59375-3.414063-6.058593-39.847656 5.460938-85.585937 10.152344-101.542969.378906-1.425781.019532-2.945312-.960937-4.042968-.976563-1.101563-2.445313-1.632813-3.902344-1.421876-1.671875.273438-3.324219.640626-4.949219 1.109376-2.46875.621093-4.867187 1.476562-7.167968 2.5625-2.058594.882812-4.054688 1.910156-5.972657 3.070312-1.425781.851562-3.214843.800781-4.589843-.132812-1.375-.933594-2.078126-2.578126-1.8125-4.21875 0-.171876.085937-.339844.085937-.511719.074219-.605469.1875-1.203125.34375-1.792969 5.910156-38.40625 27.238281-72.738281 59.050781-95.058594 1.167969-.808594 1.859375-2.144531 1.84375-3.566406-.019531-1.421875-.742187-2.738281-1.929687-3.519531-5.609375-3.019531-12.035157-4.1875-18.347657-3.328125h-1.109374c-.046876.046875-.105469.078125-.171876.085937-.351562.078125-.714843.015625-1.023437-.167969h-.425781c-.023438-.023437-.054688-.039062-.085938-.039062s-.0625.015625-.085937.039062c-1.277344-.425781-2.285157-1.414062-2.738281-2.679687-.449219-1.269531-.289063-2.671875.433593-3.808594 6.984375-10.273437 17.867188-17.246093 30.125-19.285156h.167969c.855469-.167969 1.625-.253906 2.390625-.339844.511719-.085937 1.023437-.085937 1.535156-.171875 2.445313-.152344 4.894531-.183594 7.339844-.085937 1.886719.089843 3.769531.289062 5.632813.597656 1.503906.253906 3.03125-.320313 4-1.5s1.234374-2.789063.691406-4.214844c-2.410156-5.625-5.597656-10.882812-9.472656-15.617187-.339844-.511719-.679688-.9375-1.023438-1.367188-1.128906-1.414062-1.242188-3.386718-.285156-4.921875.960937-1.535156 2.785156-2.300781 4.554687-1.902343 3.339844.75 6.617188 1.75 9.8125 2.984374 2.617188.9375 5.183594 2.019532 7.679688 3.246094 1.109375.511719 2.046875 1.023438 2.984375 1.449219 1.273437.699219 2.8125.707031 4.089844.015625 1.277343-.6875 2.117187-1.980469 2.226562-3.429688.601562-10.921874 5.738281-21.097656 14.164062-28.074218 3.421876-2.832032 7.210938-5.1875 11.265626-6.996094 1.402343-.664062 3.050781-.511719 4.308593.390625 1.257813.90625 1.929688 2.421875 1.75 3.960937-.699219 5.148438-.464843 10.378907.683594 15.445313.441406 1.859375 1.160156 3.644531 2.132813 5.289063.394531.433593.765624.890624 1.109374 1.367187.820313.851563 1.964844 1.320313 3.152344 1.289063 1.183594-.03125 2.300782-.5625 3.078125-1.460938 11.96875-11.605469 27.871094-18.28125 44.542969-18.6875 1.28125-.171875 2.558594-.257812 3.925781-.339844h.339844c8.824219-.535156 17.679687-.25 26.453125.851563 1.761719.167969 3.238281 1.402343 3.710938 3.105469.472656 1.703124-.152344 3.523437-1.578126 4.574218-4.199218 2.980469-7.839843 6.675782-10.75 10.921875-1.085937 1.570313-.980468 3.667969.253907 5.121094.1875.242187.417969.445313.683593.597656h.085938c.941406.800781 2.203125 1.117188 3.414062.851563.9375-.167969 1.960938-.425782 3.070313-.597656 1.109375-.167969 2.5625-.339844 3.925781-.511719h.257813c20.5625-2.132813 58.367187 2.21875 99.582031 47.363281 1.117188 1.1875 1.457031 2.910156.875 4.433594-.582031 1.527344-1.980469 2.585937-3.605469 2.734375-6.113281.554687-11.515625 4.191406-14.335937 9.640625-1.132813 2.105468-.421875 4.730468 1.621094 5.972656 27.167968 16.519531 46.332031 43.492188 52.992187 74.582031.367187 1.464844-.085937 3.015625-1.179687 4.058594s-2.664063 1.414063-4.109376.976563c-3.871093-1.21875-7.839843-2.101563-11.863281-2.644532-.246093-.097656-.503906-.15625-.765625-.171875-1.988281-.351562-3.914062.871094-4.4375 2.816407h-.085937c-.585938 1.507812-.214844 3.21875.9375 4.351562 21.15625 22.042969 32.109375 51.9375 30.207031 82.433594zm0 0" fill="#f47c00"/><path d="m418.050781 276.824219c.039063.480469.039063.964843 0 1.449219l-3.925781-1.960938c-1.25-.59375-2.703125-.554688-3.917969.101562-1.214843.660157-2.042969 1.855469-2.226562 3.226563-.066407.660156-.179688 1.316406-.34375 1.960937l-10.578125-5.289062c-1.25-.59375-2.703125-.554688-3.917969.101562-1.214844.660157-2.042969 1.855469-2.226563 3.226563-5.011718 30.28125-18.878906 58.398437-39.851562 80.808594-2.191406-2.203125-4.53125-4.253907-6.996094-6.144531-.976562-.742188-2.234375-1.023438-3.433594-.757813-1.199218.261719-2.222656 1.039063-2.796874 2.125-.085938.085937-.085938.253906-.171876.339844-.765624-.597657-1.449218-1.195313-2.132812-1.707031-.976562-.742188-2.230469-1.023438-3.429688-.757813-1.199218.261719-2.222656 1.039063-2.800781 2.125-.925781 1.871094-2.039062 3.644531-3.328125 5.289063-2.339844-2.394532-4.847656-4.617188-7.507812-6.65625-.976563-.742188-2.230469-1.023438-3.429688-.757813-1.199218.261719-2.222656 1.039063-2.800781 2.125-9.898437 19.539063-38.144531 25.855469-59.988281 27.730469h-.339844c-1.273438-.972656-2-2.492188-1.964844-4.09375 1.195313-18.347656-23.636718-21.078125-30.976562-21.503906-.90625-.070313-1.808594.171874-2.558594.683593-1.976562-.339843-3.972656-.570312-5.972656-.683593-1.328125-.089844-2.625.445312-3.5 1.449218-.171875.171875-.339844.425782-.511719.597656-4.273437-1.121093-8.644531-1.804687-13.054687-2.046874-1.328126-.089844-2.625.445312-3.5 1.449218-4.550782 4.964844-5.601563 12.210938-2.644532 18.261719.46875 1.03125.46875 2.214844 0 3.242187-36.445312-5.59375-65.539062-33.324218-72.875-69.460937-.269531-1.328125-1.152344-2.453125-2.382812-3.023437-1.226563-.574219-2.65625-.527344-3.847656.121093-.960938.519531-1.875 1.117188-2.730469 1.792969-.503907-1.03125-1.414063-1.8125-2.511719-2.152344-1.101562-.339844-2.289062-.207031-3.289062.359375-3.835938 2.109375-7.070313 5.164063-9.386719 8.875-.34375-1.109375-.597657-2.132812-.855469-3.15625v-.085937c-.070312-.191406-.097656-.394532-.085938-.597656-.253906-1.109376-.425781-2.21875-.59375-3.414063-6.058593-39.847656 5.460938-85.585937 10.152344-101.542969.378906-1.425781.019532-2.945312-.960937-4.042968-.976563-1.101563-2.445313-1.632813-3.902344-1.421876-1.671875.273438-3.324219.640626-4.949219 1.109376-.964844-.890626-2.285156-1.296876-3.585937-1.109376-4.183594.671876-8.261719 1.90625-12.117188 3.671876-.257812-1.800782-1.625-3.238282-3.410156-3.585938 5.910156-38.40625 27.238281-72.738281 59.050781-95.058594 1.167969-.808594 1.859375-2.144531 1.84375-3.566406-.019531-1.421875-.742187-2.738281-1.929687-3.519531-5.609375-3.019531-12.035157-4.1875-18.347657-3.328125h-1.109374c-.394532-.070313-.792969-.101563-1.195313-.082032h-.425781c-.023438-.023437-.054688-.039062-.085938-.039062s-.0625.015625-.085937.039062c-1.277344-.425781-2.285157-1.414062-2.738281-2.679687-.449219-1.269531-.289063-2.671875.433593-3.808594 6.984375-10.273437 17.867188-17.246093 30.125-19.285156h.167969c.855469-.167969 1.625-.253906 2.390625-.339844.511719-.085937 1.023437-.085937 1.535156-.171875 1.492188.066406 2.972657.238282 4.4375.511719 1.007813.171875 2.042969-.042969 2.902344-.597656 1.886719.089843 3.769531.289062 5.632813.597656 1.503906.253906 3.03125-.320313 4-1.5s1.234374-2.789063.691406-4.214844c-2.410156-5.625-5.597656-10.882812-9.472656-15.617187 2.296874.097656 4.257812-1.636719 4.4375-3.925782 0-.425781.085937-.851562.085937-1.28125 3.648437 1.347657 7.210937 2.914063 10.667969 4.695313 1.9375 1.09375 4.390625.449219 5.546875-1.449219 1.109375.511719 2.046875 1.023438 2.984375 1.449219 1.273437.699219 2.8125.707031 4.089844.015625 1.277343-.6875 2.117187-1.980469 2.226562-3.429688.304688-6.609374 2.335938-13.023437 5.886719-18.601562.355469 3.628906 1.714843 7.085938 3.925781 9.984375.824219.851563 1.96875 1.320313 3.152344 1.289063 1.1875-.03125 2.304687-.5625 3.078125-1.460938 2.269531-2.449219 4.820312-4.628906 7.59375-6.484375.570312 2.433594 1.679687 4.707031 3.242187 6.65625.824219.851563 1.96875 1.320313 3.152344 1.289063 1.1875-.03125 2.304688-.5625 3.078125-1.460938l1.195313-1.195312c13.027343-11.554688 29.859374-17.902344 47.273437-17.832032h.34375c1.363281.082032 2.8125.167969 4.265625.339844l5.121094.511719c1.757812.167969 3.234375 1.402343 3.707031 3.105469.472656 1.703124-.152344 3.523437-1.574219 4.574218-4.199218 2.980469-7.839844 6.675782-10.753906 10.921875-.984375 1.445313-.988281 3.34375-.007812 4.792969.976562 1.445312 2.738281 2.152344 4.445312 1.777344 4.242188-.878906 8.554688-1.363282 12.886719-1.449219 1.019531 1.214844 2.625 1.769531 4.179687 1.449219 1.535156-.339844 3.15625-.597656 5.035156-.851563h.085938l1.878906-.257812h.253906c1.367188.171875 2.816407.34375 4.351563.511719 20.820313 3.160156 48.640625 14.507812 78.164063 46.851562 1.117187 1.1875 1.457031 2.910156.875 4.433594-.578126 1.527344-1.980469 2.585937-3.605469 2.734375-6.109375.554687-11.515625 4.191406-14.335938 9.640625-1.132812 2.105468-.417969 4.730468 1.621094 5.972656 27.167969 16.519531 46.335937 43.492188 52.992187 74.582031.234376.785157.203126 1.625-.082031 2.390625-.246093-.097656-.507812-.15625-.769531-.171875-1.984375-.351562-3.910156.871094-4.4375 2.816407h-.085938c-4.09375-1.292969-8.289062-2.238282-12.542968-2.816407-1.78125-.203125-3.496094.730469-4.296875 2.332031-.800781 1.601563-.515625 3.535157.710937 4.835938 20.332032 21.214844 31.253906 49.734375 30.296875 79.105469zm0 0" fill="#fdc008"/><path d="m256 153.601562c.042969 12.648438-4.644531 24.851563-13.140625 34.21875l-19.796875 13.566407c-5.820312 2.269531-12.015625 3.429687-18.261719 3.414062-2.832031.007813-5.660156-.25-8.449219-.765625-24.644531-4.101562-42.722656-25.410156-42.742187-50.398437-.023437-24.984375 18.019531-46.328125 42.65625-50.46875 2.816406-.515625 5.671875-.773438 8.535156-.765625 13.578125 0 26.601563 5.394531 36.203125 14.996094 9.601563 9.601562 14.996094 22.625 14.996094 36.203124zm0 0" fill="#e6e7e8"/><path d="m358.402344 153.601562c0 28.277344-22.925782 51.199219-51.203125 51.199219-2.886719.003907-5.773438-.253906-8.617188-.765625-3.300781-.53125-6.535156-1.417968-9.640625-2.648437l-19.800781-13.566407c-12.492187-13.867187-16.4375-33.441406-10.289063-51.0625 6.148438-17.625 21.410157-30.5 39.816407-33.589843 2.8125-.515625 5.671875-.773438 8.53125-.765625 13.582031 0 26.605469 5.394531 36.207031 14.996094 9.601562 9.601562 14.996094 22.625 14.996094 36.203124zm0 0" fill="#e6e7e8"/><path d="m238.933594 153.601562c.042968 12.648438-4.644532 24.851563-13.140625 34.21875l-19.796875 13.566407c-3.109375 1.230469-6.34375 2.117187-9.644532 2.648437-24.644531-4.101562-42.722656-25.410156-42.742187-50.398437-.023437-24.984375 18.019531-46.328125 42.65625-50.46875 24.636719 4.128906 42.679687 25.457031 42.667969 50.433593zm0 0" fill="#fff"/><path d="m341.335938 153.601562c-.035157 24.992188-18.105469 46.308594-42.753907 50.433594-3.300781-.53125-6.535156-1.417968-9.640625-2.648437l-19.800781-13.566407c-12.492187-13.867187-16.4375-33.441406-10.289063-51.0625 6.148438-17.625 21.410157-30.5 39.816407-33.589843 24.632812 4.128906 42.675781 25.457031 42.667969 50.433593zm0 0" fill="#fff"/><g fill="#e81e63"><path d="m238.933594 153.601562c0 18.851563-15.28125 34.132813-34.132813 34.132813-18.851562 0-34.132812-15.28125-34.132812-34.132813 0-18.851562 15.28125-34.132812 34.132812-34.132812 18.851563 0 34.132813 15.28125 34.132813 34.132812zm0 0"/><path d="m341.335938 153.601562c0 18.851563-15.285157 34.132813-34.136719 34.132813-18.851563 0-34.132813-15.28125-34.132813-34.132813 0-18.851562 15.28125-34.132812 34.132813-34.132812 18.851562 0 34.136719 15.28125 34.136719 34.132812zm0 0"/><path d="m68.265625 349.867188c-5.289063 21.078124-36.519531 12.886718-59.644531 3.5-.175782-22.378907 8.1875-43.984376 23.378906-60.417969 19.882812 16.042969 40.960938 38.144531 36.265625 56.917969zm0 0"/><path d="m444.398438 349.867188c5.292968 21.078124 36.523437 12.886718 59.648437 3.5.175781-22.378907-8.1875-43.984376-23.378906-60.417969-19.867188 16.042969-40.960938 38.144531-36.269531 56.917969zm0 0"/></g><path d="m501.929688 398.421875c-1.40625 20.757813-5.300782 41.273437-11.601563 61.101563-7.878906-3.066407-15.265625-7.261719-21.933594-12.460938-9.484375-6.699219-15.414062-17.339844-16.128906-28.925781 0-5.546875 9.984375-10.242188 23.46875-13.996094 7.9375-2.21875 17.152344-4.097656 26.195313-5.71875zm0 0" fill="#ac1457"/><path d="m504.066406 353.367188c-16.640625 6.742187-37.546875 12.886718-49.921875 7.851562-4.980469-1.855469-8.65625-6.144531-9.726562-11.351562-3.5-13.910157 7.167969-29.609376 20.992187-43.347657 4.839844-4.796875 9.941406-9.324219 15.273438-13.570312 15.195312 16.433593 23.554687 38.039062 23.382812 60.417969zm0 0" fill="#ac1457"/><path d="m475.734375 404.140625c-1.246094 14.488281-3.703125 28.84375-7.339844 42.921875-9.484375-6.699219-15.414062-17.339844-16.128906-28.925781 0-5.546875 9.984375-10.242188 23.46875-13.996094zm0 0" fill="#e81e63"/><path d="m478.464844 353.367188c-7.886719 3.253906-16.019532 5.878906-24.320313 7.851562-4.980469-1.855469-8.65625-6.144531-9.726562-11.351562-3.5-13.910157 7.167969-29.609376 20.992187-43.347657 8.382813 14.199219 12.886719 30.355469 13.054688 46.847657zm0 0" fill="#e81e63"/><path d="m298.667969 264.277344v25.859375c0 23.5625-19.101563 42.664062-42.667969 42.664062-23.5625 0-42.664062-19.101562-42.664062-42.664062v-25.859375c14.746093 2.027344 29.746093-.882813 42.664062-8.277344 12.917969 7.394531 27.921875 10.304688 42.667969 8.277344zm0 0" fill="#df4d60"/><path d="m290.132812 264.277344v25.859375c0 23.550781-15.289062 42.664062-34.132812 42.664062-18.839844 0-34.132812-19.113281-34.132812-42.664062v-25.859375c12.027343 1.910156 24.316406-1.070313 34.132812-8.277344 9.816406 7.207031 22.109375 10.1875 34.132812 8.277344zm0 0" fill="#f34335"/><path d="m290.132812 196.269531c0 9.386719-15.28125 25.597657-34.132812 25.597657-18.847656 0-34.132812-16.210938-34.132812-25.597657s15.285156-8.535156 34.132812-8.535156c18.851562 0 34.132812-.851563 34.132812 8.535156zm0 0" fill="#e81e63"/><path d="m204.800781 136.535156c0 9.425782-7.640625 17.066406-17.066406 17.066406s-17.066406-7.640624-17.066406-17.066406c0-9.425781 7.640625-17.066406 17.066406-17.066406s17.066406 7.640625 17.066406 17.066406zm0 0" fill="#fff"/><path d="m221.867188 153.601562c0 9.425782-7.640626 17.066407-17.066407 17.066407s-17.066406-7.640625-17.066406-17.066407c0-9.425781 7.640625-17.066406 17.066406-17.066406s17.066407 7.640625 17.066407 17.066406zm0 0" fill="#37474f"/><path d="m307.199219 136.535156c0 9.425782-7.640625 17.066406-17.066407 17.066406-9.425781 0-17.066406-7.640624-17.066406-17.066406 0-9.425781 7.640625-17.066406 17.066406-17.066406 9.425782 0 17.066407 7.640625 17.066407 17.066406zm0 0" fill="#fff"/><path d="m324.265625 153.601562c0 9.425782-7.640625 17.066407-17.066406 17.066407s-17.066407-7.640625-17.066407-17.066407c0-9.425781 7.640626-17.066406 17.066407-17.066406s17.066406 7.640625 17.066406 17.066406zm0 0" fill="#37474f"/><path d="m3.472656 416.761719c1.917969 15.445312 5.304688 30.675781 10.113282 45.480469 13.414062 39.699218 32.316406 48.292968 34.421874 49.136718 1.015626.410156 2.097657.621094 3.191407.621094h132.558593c5.800782.015625 11.203126-2.9375 14.320313-7.832031 3.183594-4.976563 3.597656-11.234375 1.097656-16.589844-6.609375-17.628906-20.960937-31.234375-38.917969-36.898437-13.027343-2.992188-26.671874-1.722657-38.921874 3.628906-14.738282-27.886719-13.652344-49.367188 3.585937-63.738282 7.480469-6.226562 14.667969-11.945312 21.597656-17.21875 21.039063 13.199219 45.570313 19.742188 70.390625 18.773438 3.410156-.019531 6.480469-2.070312 7.808594-5.214844 1.328125-3.160156.65625-6.808594-1.707031-9.292968-3.210938-2.746094-4.113281-7.335938-2.183594-11.09375 7.015625.148437 13.773437 2.675781 19.164063 7.167968 1.613281 2.300782 1.96875 5.253906.949218 7.871094-.609375 2.429688-.117187 5.003906 1.339844 7.039062 1.460938 2.035157 3.738281 3.328126 6.234375 3.53125.785156.070313 5.71875.453126 13.007813.453126 21.628906 0 64.066406-3.414063 81.183593-28.339844 4.539063 4.097656 8.285157 8.839844 7.910157 11.863281-.429688 3.398437 1.21875 6.730469 4.183593 8.449219 2.964844 1.722656 6.671875 1.503906 9.410157-.558594.460937-.347656 3.199218-2.472656 7.175781-6.074219 5.0625 3.992188 10.242187 8.15625 15.6875 12.679688 17.269531 14.378906 18.328125 35.839843 3.589843 63.753906-12.25-5.34375-25.890624-6.617187-38.917968-3.636719-17.957032 5.660156-32.308594 19.265625-38.921875 36.890625-2.5 5.355469-2.085938 11.617188 1.101562 16.597657 3.125 4.875 8.527344 7.816406 14.316407 7.789062h132.558593c1.089844.003906 2.171875-.207031 3.183594-.613281 2.105469-.851563 21.007813-9.4375 34.429687-49.144531 2.007813-5.972657 3.707032-12.441407 5.273438-19.191407 1.921875-8.25 3.59375-16.9375 4.839844-26.316406.75-5.6875 1.382812-11.554687 1.894531-17.59375v-.042969c1.050781-13.167968 1.578125-26.855468 1.578125-40.695312 0-1.859375 0-3.710938-.085938-5.351563.042969-24.210937-8.96875-47.566406-25.265624-65.476562-.171876-.1875-.316407-.382813-.488282-.5625-9.792968-9.804688-21.492187-17.496094-34.378906-22.597657-1.582031-22.671874-9.75-44.390624-23.5-62.488281 1.554688.5 3.078125 1.089844 4.5625 1.765625 2.917969 1.457032 6.40625 1.128906 8.996094-.847656s3.828125-5.257812 3.191406-8.453125c-5.605469-34.886719-25.425781-65.886719-54.742188-85.613281 3.261719-2.441406 7.542969-3.054688 11.359376-1.621094 3.617187 1.207031 7.601562-.132812 9.753906-3.28125 2.152344-3.152344 1.949218-7.351562-.496094-10.28125-43.84375-52.640625-85.332031-60.390625-109.890625-58.878906 2.78125-2.113282 5.84375-3.835938 9.09375-5.121094 3.726563-1.21875 6.144531-4.820312 5.859375-8.730469-.285156-3.910156-3.195312-7.125-7.0625-7.789062-52.1875-9.503907-79.085938 4.351562-91.132812 14.464843-.730469-5.65625-.410157-11.398437.945312-16.9375.753906-3.023437-.195312-6.214843-2.480469-8.328124-2.285156-2.117188-5.539062-2.820313-8.492187-1.835938-19.039063 4.84375-33.695313 20.050781-37.839844 39.253906-9.566406-4.539062-19.964844-7.054687-30.546875-7.398437-3.484375-.03125-6.640625 2.058593-7.96875 5.28125-1.324219 3.222656-.558594 6.929687 1.933594 9.359375 4.6875 4.753906 8.878906 9.972656 12.511719 15.574218-22.671876-.917968-43.621094 12.050782-52.90625 32.75-1.484376 2.980469-1.105469 6.546876.976562 9.144532 2.078125 2.597656 5.476562 3.746094 8.707031 2.949218 4.71875-1.125 9.578125-1.546874 14.421875-1.253906-33.539062 26.542969-54.34375 65.992188-57.300781 108.664063-.292969 3.558593 1.660156 6.921875 4.898437 8.433593 3.234376 1.507813 7.070313.84375 9.609376-1.667968 4.179687-3.714844 9.050781-6.566406 14.335937-8.398438-3.882813 14.683594-6.734375 29.617188-8.535156 44.699219-20.464844 4.398437-39.265625 14.519531-54.203125 29.183594-.179688.179687-.324219.382812-.496094.5625-16.265625 17.867187-25.2734375 41.160156-25.2578125 65.324219v.535156.042968c-.0859375 1.621094-.0859375 3.261719-.0859375 4.925782 0 13.839844.53125 27.527344 1.570312 40.738281.5 6.070313 1.136719 11.941406 1.902344 17.621094zm29.492188-111.789063c19.722656 17.222656 29.578125 32.625 27.023437 42.832032-.390625 2.265624-1.832031 4.207031-3.890625 5.238281-3.179687 1.613281-13.285156 3.933593-38.507812-5.402344.945312-15.402344 6.28125-30.214844 15.375-42.683594zm-5.894532 142.671875c-.242187-.855469-.515624-1.640625-.742187-2.511719-.230469-.867187-.480469-1.882812-.71875-2.839843-.957031-3.867188-1.859375-7.851563-2.652344-12.015625l-.15625-.699219c-.851562-4.351563-1.527343-8.917969-2.167969-13.585937-.160156-1.160157-.3125-2.328126-.46875-3.507813-.152343-1.175781-.238281-2.363281-.375-3.523437 23.039063 4.804687 29.695313 9.019531 31.367188 10.429687-.613281 8.394531-7.328125 19.394531-24.085938 28.253906zm128.910157 19.558594c12.980469 4.558594 23.195312 14.757813 27.777343 27.730469h-61.347656c-1.792968-6.824219-2.75-13.839844-2.847656-20.898438 10.875-6.703125 23.851562-9.136718 36.417969-6.832031zm200.039062 0c2.96875-.78125 6.027344-1.167969 9.097657-1.152344 9.617187.382813 18.996093 3.125 27.304687 7.984375-.085937 7.058594-1.035156 14.074219-2.824219 20.898438l-61.277344-.1875c4.59375-12.894532 14.777344-23.023438 27.699219-27.542969zm102.605469 27.730469h-51.328125c1.707031-8.421875 2.480469-17.007813 2.304687-25.597656 0-2.757813-1.332031-5.34375-3.574218-6.945313l-.164063-.113281c23.613281-44.613282 9.128907-70.671875-7.875-84.839844-5.011719-4.164062-9.804687-8.019531-14.507812-11.75 20.5-22.152344 34.515625-49.519531 40.515625-79.101562l15.273437 7.679687c2.511719 1.253906 5.476563 1.195313 7.9375-.160156 2.457031-1.355469 4.089844-3.832031 4.371094-6.625.152344-1.5.101563-2.875.203125-4.351563 5.445312 2.667969 10.59375 5.90625 15.359375 9.660156-25.179687 22.1875-35.941406 42.050782-31.65625 59.195313 1.601563 7.054687 6.265625 13.023437 12.722656 16.289063 5.046875 2.378906 10.589844 3.527343 16.167969 3.355468 10.402344-.375 20.675781-2.390625 30.449219-5.972656-.121094 8.679688-.453125 17.214844-1 25.597656-35.457031 6.777344-50.089844 14.710938-50.089844 26.882813 0 6.953125 2.746094 29.675781 35.789063 45.890625-3.832032 12.105468-11.089844 22.84375-20.898438 30.90625zm35.789062-147.308594c-25.234374 9.335938-35.320312 7.011719-38.511718 5.402344-2.050782-1.027344-3.492188-2.964844-3.890625-5.222656-2.558594-10.242188 7.304687-25.601563 27.035156-42.847657 9.078125 12.46875 14.410156 27.269531 15.367187 42.667969zm-3.039062 68.332031c-.648438 4.679688-1.355469 9.261719-2.175781 13.65625-.050781.230469-.101563.441407-.144531.671875-.792969 4.164063-1.707032 8.140625-2.652344 12.015625-.242188.964844-.488282 1.9375-.734375 2.886719-.25.945312-.496094 1.644531-.734375 2.488281-16.769532-8.855469-23.476563-19.855469-24.089844-28.253906 1.707031-1.40625 8.320312-5.621094 31.367188-10.425781-.136719 1.160156-.230469 2.390625-.375 3.53125-.144532 1.144531-.316407 2.289062-.460938 3.429687zm-412.074219-217.519531c6.730469-35.1875 27.601563-66.074219 57.738281-85.445312 3.992188-2.21875 5.53125-7.1875 3.488282-11.273438-4.574219-7.90625-13.050782-12.738281-22.1875-12.644531 10.375-8.941407 24.636718-11.882813 37.703125-7.777344 2.597656.863281 5.453125.421875 7.675781-1.183594 2.21875-1.601562 3.535156-4.175781 3.535156-6.914062-.464844-6.707031-2.667968-13.175781-6.390625-18.773438 4.347657 1.8125 8.535157 3.988281 12.519531 6.503907 2.871094 1.910156 6.609376 1.898437 9.472657-.019532 2.867187-1.921875 4.292969-5.378906 3.617187-8.761718-1.628906-11.644532 3.785156-23.148438 13.796875-29.3125-.984375 10.304687 3.980469 20.269531 12.800781 25.6875 3.980469 1.964843 8.804688.550781 11.09375-3.253907.144532-.238281 13.789063-20.613281 59.730469-18.0625-4.722656 4.980469-8.300781 10.9375-10.476562 17.449219-1.066407 3.214844-.132813 6.753906 2.378906 9.019531 2.515625 2.269531 6.128906 2.839844 9.21875 1.449219.492187-.210938 46.285156-19.625 101.085937 36.429688-7.636718 3.253906-13.402343 9.773437-15.703124 17.75-1.402344 4.207031.652343 8.789062 4.726562 10.539062.375.160156 34.519531 15.359375 49.496094 63.410156-6.660156-1.453125-13.453125-2.1875-20.269532-2.183594-3.699218 0-6.980468 2.386719-8.117187 5.910157-1.140625 3.523437.125 7.378906 3.125 9.542969 22.910156 18.78125 36.089844 46.921874 35.839844 76.542968l-14.128907-7.074218c-2.511718-1.257813-5.480468-1.199219-7.941406.15625-2.460937 1.355468-4.09375 3.835937-4.371094 6.628906-4.480468 34.050781-20.523437 65.53125-45.441406 89.164062-5.066406-7.253906-11.585937-13.375-19.140625-17.976562-2.21875-1.367188-4.941406-1.644532-7.390625-.753906-2.449218.890624-4.355468 2.851562-5.179687 5.324218-7.78125 23.339844-49.886719 27.367188-73.25 26.933594-.421875-4.507812-2.132813-8.800781-4.921875-12.367188-10.582032-13.550781-33.894532-13.941406-36.523438-13.941406-2.265625.003906-4.4375.902344-6.042968 2.5-6.3125 5.765625-9.269532 14.335938-7.859376 22.765625-74.425781-6.65625-80.757812-66.507812-80.996093-69.167969-.21875-2.613281-1.621094-4.976562-3.808594-6.421874-2.183594-1.441407-4.914063-1.796876-7.398437-.96875-5.273438 1.683593-10.101563 4.535156-14.121094 8.34375-5.972656-45.941407 11.777344-100.375 11.945312-101.023438.863282-2.601562.425782-5.457031-1.175781-7.679688-1.601563-2.222656-4.171875-3.539062-6.914063-3.542968-7.308593.042968-14.53125 1.566406-21.238281 4.472656zm6.828125 136.421875c1.445313 3.84375 5.421875 6.113281 9.46875 5.398437 4.042969-.710937 7.007813-4.203124 7.050782-8.308593.214843-4.605469 1.992187-9 5.035156-12.460938 4.636718 16.183594 13.316406 30.914063 25.222656 42.8125-6.117188 4.753907-12.390625 9.738281-18.898438 15.136719-17 14.167969-31.480468 40.226562-7.871093 84.839844l-.160157.113281c-2.246093 1.601563-3.574218 4.1875-3.574218 6.945313-.175782 8.589843.597656 17.175781 2.300781 25.597656h-51.285156c-9.828125-8.050782-17.105469-18.789063-20.9375-30.90625 33.039062-16.214844 35.785156-38.9375 35.785156-45.890625 0-12.171875-14.625-20.105469-50.0625-26.890625-.570313-8.386719-.902344-16.917969-1-25.601563 9.773437 3.585938 20.046875 5.601563 30.449219 5.976563 5.59375.179687 11.148437-.972656 16.210937-3.355469 6.449219-3.28125 11.097657-9.269531 12.679688-16.332031 4.269531-17.117188-6.464844-37.007813-31.632813-59.152344 10.007813-7.78125 21.449219-13.515625 33.675782-16.871094-1.40625 19.953125 1.15625 39.988282 7.542968 58.949219zm0 0"/><path d="m204.800781 213.335938c4.894531-.019532 9.765625-.644532 14.507813-1.859376 6.925781 9.191407 16.914062 15.601563 28.160156 18.070313v21.335937c-10.085938 4.761719-36.113281 13.890626-52.90625-8.535156-2.828125-3.769531-8.179688-4.535156-11.949219-1.707031s-4.535156 8.175781-1.707031 11.949219c5.984375 8.257812 14.308594 14.535156 23.894531 18.011718v19.535157c0 28.273437 22.921875 51.199219 51.199219 51.199219s51.199219-22.925782 51.199219-51.199219v-19.535157c9.589843-3.476562 17.914062-9.753906 23.894531-18.011718 2.828125-3.773438 2.0625-9.121094-1.707031-11.949219s-9.117188-2.0625-11.945313 1.707031c-16.683594 22.253906-42.796875 13.191406-52.90625 8.472656v-21.273437c11.238282-2.457031 21.222656-8.851563 28.160156-18.03125 29.816407 7.519531 60.46875-8.828125 70.835938-37.773437 10.371094-28.949219-2.929688-61.042969-30.738281-74.164063-27.808594-13.125-61.039063-2.992187-76.792969 23.414063-14.804688-24.808594-45.242188-35.46875-72.292969-25.3125-27.046875 10.15625-42.949219 38.214843-37.765625 66.640624 5.183594 28.421876 29.96875 49.058594 58.859375 49.015626zm84.078125 60.40625c.410156 0 .855469-.050782 1.253906-.058594v16.453125c0 18.847656-15.28125 34.132812-34.132812 34.132812s-34.132812-15.285156-34.132812-34.132812v-16.453125c.417968 0 .855468.058594 1.253906.058594 11.429687-.171876 22.667968-2.925782 32.878906-8.054688 10.214844 5.128906 21.453125 7.882812 32.878906 8.054688zm-32.878906-60.40625c-10.722656-.332032-20.433594-6.421876-25.394531-15.933594 4.074219-.855469 8.230469-1.234375 12.390625-1.132813h.46875 7.988281 9.097656 8.011719.402344c4.171875-.109375 8.34375.261719 12.429687 1.109375-4.953125 9.519532-14.664062 15.621094-25.394531 15.957032zm51.199219-102.402344c16.378906-.144532 31.390625 9.089844 38.644531 23.773437 7.25 14.683594 5.457031 32.222657-4.617188 45.136719-10.070312 12.910156-26.644531 18.917969-42.652343 15.460938-.144531-3.613282-1.632813-7.042969-4.171875-9.617188-5.953125-4.640625-13.417969-6.890625-20.941406-6.316406-5.742188-7.367188-8.878907-16.429688-8.925782-25.769532.027344-23.550781 19.113282-42.636718 42.664063-42.667968zm-102.398438 0c23.550781.03125 42.636719 19.117187 42.667969 42.667968-.039062 9.335938-3.164062 18.398438-8.894531 25.769532-7.523438-.578125-14.988281 1.675781-20.9375 6.316406-2.554688 2.566406-4.054688 5.996094-4.207031 9.617188-16.007813 3.457031-32.582032-2.550782-42.65625-15.460938-10.070313-12.914062-11.863282-30.453125-4.613282-45.136719 7.25-14.683593 22.265625-23.917969 38.640625-23.773437zm0 0"/><path d="m204.800781 179.203125c14.136719 0 25.601563-11.464844 25.601563-25.601563 0-14.136718-11.464844-25.601562-25.601563-25.601562s-25.601562 11.464844-25.601562 25.601562c0 14.136719 11.464843 25.601563 25.601562 25.601563zm0-34.136719c4.714844 0 8.535157 3.824219 8.535157 8.535156 0 4.710938-3.820313 8.535157-8.535157 8.535157-4.710937 0-8.535156-3.824219-8.535156-8.535157 0-4.710937 3.824219-8.535156 8.535156-8.535156zm0 0"/><path d="m307.199219 179.203125c14.140625 0 25.601562-11.464844 25.601562-25.601563 0-14.136718-11.460937-25.601562-25.601562-25.601562-14.136719 0-25.597657 11.464844-25.597657 25.601562 0 14.136719 11.460938 25.601563 25.597657 25.601563zm0-34.136719c4.714843 0 8.535156 3.824219 8.535156 8.535156 0 4.710938-3.820313 8.535157-8.535156 8.535157-4.710938 0-8.53125-3.824219-8.53125-8.535157 0-4.710937 3.820312-8.535156 8.53125-8.535156zm0 0"/></svg>