<svg height="504pt" viewBox="0 0 504.10486 504" width="504pt" xmlns="http://www.w3.org/2000/svg"><path d="m495.675781 302.214844c0 134.464844-108.949219 193.050781-243.410156 193.050781-2.855469 0-5.625 0-8.394531-.085937-130.601563-2.433594-235.015625-61.355469-235.015625-192.964844.59375-41.808594 9.644531-83.066406 26.605469-121.285156l111.632812-139.078126c28.707031-19.523437 62.128906-30.976562 96.777344-33.152343 2.769531-.167969 5.625-.253907 8.394531-.253907 37.515625.527344 74.042969 12.117188 105 33.324219l111.632813 138.742188c17.046874 38.34375 26.15625 79.746093 26.777343 121.703125zm0 0" fill="#ff9701"/><path d="m470.492188 302.214844c0 131.609375-102.550782 190.53125-230.816407 192.964844-128.269531-2.433594-230.820312-61.355469-230.820312-192.964844.574219-41.761719 9.457031-82.988282 26.128906-121.285156l109.644531-139.078126c28.078125-19.484374 60.9375-30.945312 95.046875-33.152343 34.035157 2.179687 66.828125 13.617187 94.84375 33.070312l109.679688 138.742188c16.757812 38.417969 25.699219 79.792969 26.292969 121.703125zm0 0" fill="#fdc008"/><path d="m185.117188 75.59375-47.171876 50.277344c-22.074218-58.503906-83.261718-95.519532-128-117.425782 133.457032.335938 175.171876 67.148438 175.171876 67.148438zm0 0" fill="#f0c419"/><path d="m130.390625 133.929688-59.59375 63.621093c-3.777344 4.042969-9.292969 5.984375-14.769531 5.203125-3.980469-.515625-7.609375-2.523437-10.15625-5.625-35.167969-43.644531-37.773438-137.988281-37.351563-174.164062.082031-9.0625.335938-14.519532.335938-14.519532h1.089843c41.882813 20.480469 98.121094 54.222657 123.300782 106.429688 3.09375 6.328125 1.957031 13.910156-2.855469 19.054688zm0 0" fill="#e81e63"/><path d="m494.582031 8.445312c-44.820312 21.90625-106.175781 59.089844-128.167969 117.761719l-47.421874-50.613281s41.800781-66.894531 175.589843-67.148438zm0 0" fill="#f0c419"/><path d="m458.238281 197.128906c-2.464843 3.027344-5.960937 5.03125-9.820312 5.625-5.585938.867188-11.242188-1.078125-15.105469-5.203125l-.085938-.085937-59.257812-63.285156c-4.769531-5.019532-5.972656-12.453126-3.019531-18.71875 20.5625-43.140626 62.363281-73.691407 99.878906-94.59375 8.226563-4.617188 16.199219-8.726563 23.753906-12.421876h.671875s.335938 5.625.335938 14.941407c.421875 36.511719-2.265625 130.265625-37.351563 173.742187zm0 0" fill="#ac1457"/><path d="m433.480469 197.128906c-.085938.085938-.167969.253906-.253907.335938l-59.257812-63.285156c-4.769531-5.019532-5.972656-12.453126-3.019531-18.71875 20.5625-43.140626 62.363281-73.691407 99.878906-94.59375v2.519531c.421875 36.511719-2.265625 130.265625-37.347656 173.742187zm0 0" fill="#e81e63"/><path d="m252.265625 117.5625c-2.808594-.019531-5.617187.179688-8.394531.585938-51.703125 6.460937-92.328125 72.519531-92.328125 125.3125 0 52.796874 40.625 73.445312 92.328125 75.375 2.769531.082031 5.539062.167968 8.394531.167968 55.648437 0 100.71875-19.894531 100.71875-75.542968 0-55.648438-45.070313-125.898438-100.71875-125.898438zm0 0" fill="#fff"/><path d="m319.410156 335.875c0 14.015625-17.371094 30.972656-41.964844 38.1875-5.449218 1.632812-11.042968 2.726562-16.703124 3.273438-2.769532.253906-5.625.421874-8.476563.421874-2.855469 0-5.707031-.167968-8.476563-.421874-5.664062-.546876-11.257812-1.640626-16.703124-3.273438-24.59375-7.214844-41.96875-24.171875-41.96875-38.1875 0-18.550781 30.046874-16.789062 67.148437-16.789062 37.097656 0 67.144531-1.761719 67.144531 16.789062zm0 0" fill="#e81e63"/><path d="m327.804688 235.070312c0 41.71875-33.820313 75.539063-75.539063 75.539063-41.722656 0-75.542969-33.820313-75.542969-75.539063 0-41.722656 33.820313-75.542968 75.542969-75.542968 41.71875 0 75.539063 33.820312 75.539063 75.542968zm0 0" fill="#e81e63"/><path d="m302.625 235.070312c0 27.8125-22.546875 50.359376-50.359375 50.359376-27.816406 0-50.363281-22.546876-50.363281-50.359376 0-27.816406 22.546875-50.363281 50.363281-50.363281 27.8125 0 50.359375 22.546875 50.359375 50.363281zm0 0" fill="#37474f"/><path d="m252.265625 201.496094c0 18.542968-15.03125 33.574218-33.574219 33.574218-18.542968 0-33.574218-15.03125-33.574218-33.574218 0-18.542969 15.03125-33.574219 33.574218-33.574219 18.542969 0 33.574219 15.03125 33.574219 33.574219zm0 0" fill="#fff"/><path d="m.460938 302.214844c-.160157 21.515625 2.929687 42.933594 9.175781 63.523437-2.257813 1.980469-4.535157 3.902344-6.714844 6.085938-2.183594 2.105469-3.058594 5.226562-2.289063 8.160156.765626 2.9375 3.058594 5.226563 5.992188 5.996094 2.9375.769531 6.054688-.105469 8.164062-2.289063.351563-.351562.730469-.628906 1.082032-.972656 5.820312 13.8125 13.441406 26.792969 22.664062 38.609375-15.539062 18.28125-25.753906 40.476563-29.539062 64.167969-.363282 2.195312.15625 4.445312 1.449218 6.257812 1.292969 1.8125 3.253907 3.035156 5.453126 3.402344.445312.074219.898437.113281 1.351562.109375 4.09375-.003906 7.589844-2.96875 8.265625-7.007813 3.203125-19.832031 11.554687-38.476562 24.222656-54.070312 42.890625 44.753906 112.273438 69.472656 202.527344 69.472656s159.675781-24.726562 202.550781-69.507812c12.652344 15.613281 20.992188 34.265625 24.1875 54.105468.675782 4.042969 4.175782 7.007813 8.277344 7.007813.464844.003906.925781-.039063 1.382812-.117187 2.199219-.367188 4.160157-1.589844 5.453126-3.402344 1.292968-1.8125 1.816406-4.0625 1.449218-6.257813-3.785156-23.691406-14-45.886719-29.539062-64.167969 9.222656-11.816406 16.84375-24.800781 22.664062-38.609374.351563.34375.730469.621093 1.082032.972656 3.292968 3.179687 8.527343 3.136718 11.765624-.101563 3.238282-3.238281 3.285157-8.472656.101563-11.765625-2.179687-2.183594-4.457031-4.105468-6.714844-6.085937 6.230469-20.589844 9.3125-42.003907 9.140625-63.515625-.585937-41.769532-9.414062-83.015625-25.976562-121.367188 30.828125-63.035156 25.835937-167.425781 25.550781-172.847656-.238281-4.460938-3.925781-7.953125-8.394531-7.9492188h-1.15625c-64.574219.2031248-108.421875 15.4804688-136.90625 31.8281248-31.230469-20.382812-67.628906-31.425781-104.917969-31.8281248-37.375.4374998-73.851563 11.5195308-105.152344 31.9453128-28.40625-16.355469-72.175781-31.667969-136.671875-31.9453128h-.09375c-.503906 0-.980468 0-1.492187 0-4.46875-.0039062-8.15625 3.4882808-8.394531 7.9492188-.277344 5.480469-5.304688 110.339844 25.785156 173.351562-16.457032 38.203126-25.21875 79.273438-25.785156 120.863282zm16.441406-280.828125c68.40625 35.429687 107.117187 75.8125 118.0625 123.242187.882812 3.808594 4.273437 6.507813 8.183594 6.503906.640624.003907 1.277343-.070312 1.898437-.214843 2.171875-.5 4.054687-1.84375 5.234375-3.734375 1.179688-1.886719 1.5625-4.167969 1.058594-6.339844-10.824219-46.785156-45.046875-86.839844-104.058594-121.796875 97.226562 10.84375 130.375 60.433594 130.71875 60.996094 2.457031 3.9375 7.640625 5.140625 11.582031 2.683593 3.941407-2.457031 5.144531-7.640624 2.6875-11.582031-8.027343-11.355469-18.015625-21.183593-29.496093-29.03125 54.90625-33.382812 123.824218-33.4375 178.78125-.144531-11.5625 7.871094-21.621094 17.753906-29.695313 29.175781-2.46875 3.941407-1.273437 9.132813 2.667969 11.601563 3.941406 2.464844 9.132812 1.269531 11.597656-2.671875.363281-.5625 33.625-50.359375 131.257812-61.085938-59.074218 34.96875-93.367187 75.070313-104.1875 121.863281-.503906 2.171876-.121093 4.453126 1.058594 6.34375 1.183594 1.886719 3.066406 3.230469 5.238282 3.730469.617187.140625 1.25.210938 1.886718.207031 3.90625 0 7.296875-2.695312 8.175782-6.503906 10.910156-47.328125 49.519531-87.652344 117.640624-123.03125.386719 30.394532-1.199218 108.277344-25.230468 154.441406-.375.519532-.691406 1.085938-.9375 1.675782-4.996094 9.910156-12.171875 18.5625-20.984375 25.308594-3.773438 2.691406-4.648438 7.933593-1.957031 11.707031 2.695312 3.773437 7.9375 4.648437 11.710937 1.957031 6.75-4.96875 12.664063-10.988281 17.515625-17.828125 12.792969 32.980469 19.554688 67.988281 19.96875 103.355469.101562 17.660156-2.183594 35.253906-6.800781 52.300781-33.347657-20.75-72.480469-30.238281-111.632813-27.070313-2.980468.332032-5.558594 2.226563-6.761718 4.972657-1.203126 2.746093-.851563 5.925781.921874 8.34375 1.777344 2.414062 4.707032 3.703125 7.6875 3.371093.636719-.066406 58.4375-5.875 104.230469 27.136719-5.269531 13.371094-12.367187 25.945313-21.09375 37.367188-28.367187-24.480469-62.78125-40.914063-99.65625-47.582031-4.585937-.660157-8.839843 2.527343-9.5 7.117187-.65625 4.589844 2.527344 8.84375 7.117188 9.5 33.808593 6.046875 65.335937 21.160156 91.222656 43.730469-39.871094 42.144531-105.28125 65.46875-190.75 65.46875-85.472656 0-150.832031-23.308594-190.707031-65.46875 25.894531-22.527344 57.402344-37.640625 91.183594-43.730469 4.589843-.660156 7.773437-4.914063 7.113281-9.503906-.660157-4.589844-4.914063-7.773438-9.503907-7.113281-36.875 6.667968-71.285156 23.101562-99.65625 47.582031-8.71875-11.421875-15.8125-23.992188-21.082031-37.359375 45.691407-32.886719 103.574219-27.226563 104.226563-27.144532 4.609375.507813 8.757812-2.816406 9.265625-7.421874.503906-4.609376-2.816407-8.757813-7.425781-9.265626-39.152344-3.183593-78.289063 6.304688-111.632813 27.070313-4.617187-17.046875-6.902344-34.640625-6.796875-52.300781.402344-35.226563 7.128906-70.09375 19.847656-102.945313 4.792969 6.6875 10.613282 12.578125 17.242188 17.453125 3.773437 2.691406 9.015625 1.816406 11.707031-1.957031 2.695313-3.773437 1.820313-9.015625-1.953125-11.710937-8.691406-6.628907-15.78125-15.121094-20.757812-24.851563-.277344-.714844-.652344-1.386719-1.117188-1.996094-24.132812-46.257812-25.710938-124.535156-25.316406-154.820312zm0 0"/><path d="m189.683594 316.300781c-2.566406 1.140625-4.921875 2.703125-6.96875 4.625-3.9375 3.949219-6.101563 9.328125-5.992188 14.90625 0 21.714844 28.738282 46.703125 67.148438 49.949219v29.746094c-5.875 6.0625-23.8125 22.5625-41.378906 20.890625-10.140626-.980469-19.179688-8.300781-26.859376-21.761719-2.355468-3.90625-7.394531-5.214844-11.351562-2.953125s-5.386719 7.269531-3.21875 11.277344c10.566406 18.464843 23.988281 28.640625 39.902344 30.160156 1.359375.125 2.703125.183594 4.035156.183594 20.144531 0 38.132812-13.960938 47.28125-22.527344 9.132812 8.550781 27.109375 22.5 47.261719 22.5 1.335937 0 2.6875-.058594 4.039062-.183594 15.949219-1.519531 29.378907-11.65625 39.902344-30.15625 1.574219-2.609375 1.609375-5.863281.097656-8.507812-1.515625-2.644531-4.34375-4.257813-7.386719-4.222657-3.046874.039063-5.832031 1.722657-7.28125 4.402344-7.699218 13.429688-16.738281 20.78125-26.859374 21.765625-17.667969 1.796875-35.519532-14.824219-41.398438-20.867187v-29.746094c38.410156-3.246094 67.148438-28.234375 67.148438-49.949219.109374-5.578125-2.050782-10.957031-5.992188-14.90625-2.046875-1.921875-4.402344-3.484375-6.964844-4.625 29.578125-11.722656 48.328125-41.070312 46.53125-72.839843 0-60.824219-48.679687-134.292969-109.113281-134.292969s-109.117187 73.46875-109.117187 134.292969c-1.796876 31.769531 16.953124 61.117187 46.535156 72.839843zm87.761718 48.976563v-4.308594c0-4.632812-3.757812-8.390625-8.394531-8.390625s-8.394531 3.757813-8.394531 8.390625v7.910156c-5.574219.648438-11.207031.648438-16.785156 0v-7.910156c0-4.632812-3.757813-8.390625-8.394532-8.390625-4.632812 0-8.390624 3.757813-8.390624 8.390625v4.308594c-20.53125-6.859375-33.574219-20.808594-33.574219-29.445313-.128907-1.113281.257812-2.222656 1.046875-3.011719 4.910156-4.894531 22.453125-5.421874 41.0625-5.421874h25.558594c21.300781-.070313 43.207031-.167969 48.789062 5.402343.792969.792969 1.179688 1.902344 1.050781 3.015625 0 8.652344-13.042969 22.636719-33.574219 29.460938zm-25.179687-239.324219c49.722656 0 92.328125 64.628906 92.328125 117.507813 0 55.5-50.203125 67.148437-92.328125 67.148437-42.128906 0-92.328125-11.648437-92.328125-67.148437 0-52.878907 42.605469-117.507813 92.328125-117.507813zm0 0"/><path d="m252.265625 293.824219c32.449219 0 58.753906-26.304688 58.753906-58.753907 0-32.449218-26.304687-58.753906-58.753906-58.753906s-58.753906 26.304688-58.753906 58.753906c.035156 32.433594 26.320312 58.714844 58.753906 58.753907zm0-100.722657c23.175781 0 41.964844 18.789063 41.964844 41.96875 0 23.175782-18.789063 41.964844-41.964844 41.964844-23.179687 0-41.96875-18.789062-41.96875-41.964844.027344-23.167968 18.800781-41.941406 41.96875-41.96875zm0 0"/></svg>