<svg height="512pt" viewBox="0 0 512 512.00775" width="512pt" xmlns="http://www.w3.org/2000/svg"><path d="m165.753906 358.40625v.171875l-40.871094 57.257813c-9.191406 12.902343-23.136718 21.621093-38.757812 24.230468-15.625 2.609375-31.644531-1.105468-44.527344-10.320312l-8.109375-5.71875c-26.792969-19.1875-33.011719-56.429688-13.910156-83.285156l156.503906-219.21875zm0 0" fill="#3f51b4"/><path d="m478.417969 424.027344-8.109375 5.71875c-26.839844 19.144531-64.117188 12.917968-83.285156-13.910156l-40.871094-57.257813v-.171875l-8.621094-198.65625-1.707031-38.226562 156.503906 219.21875c19.101563 26.855468 12.878906 64.097656-13.910156 83.285156zm0 0" fill="#283592"/><path d="m452.816406 424.027344-8.105468 5.71875c-6.523438 4.734375-13.964844 8.050781-21.847657 9.726562-14.488281-3.097656-27.28125-11.535156-35.839843-23.636718l-40.871094-57.257813v-.171875l-8.621094-198.65625 129.195312 180.992188c19.101563 26.855468 12.882813 64.097656-13.910156 83.285156zm0 0" fill="#3f51b4"/><path d="m349.820312 443.742188v34.132812c0 14.136719-11.460937 25.597656-25.601562 25.597656h-17.066406c-14.136719 0-25.597656-11.460937-25.597656-25.597656v-8.535156c0-14.136719-11.464844-25.597656-25.601563-25.597656-1.433594-.03125-2.867187.109374-4.265625.425781-5.242188.839843-10.082031 3.320312-13.824219 7.082031-4.808593 4.792969-7.511719 11.300781-7.511719 18.089844v8.535156c0 14.136719-11.460937 25.597656-25.597656 25.597656h-17.066406c-14.140625 0-25.601562-11.460937-25.601562-25.597656v-34.132812l1.109374-25.601563 15.957032-366.933594v-24.660156c-.132813-8.101563 5.242187-15.265625 13.058594-17.410156.800781-.257813 1.632812-.429688 2.472656-.511719 5.042968-.507812 10.039062 1.3125 13.566406 4.949219 3.242188 3.164062 5.058594 7.503906 5.035156 12.035156 0 14.136719 11.460938 25.597656 25.601563 25.597656h32.683593c14.449219.425781 26.535157-10.894531 27.050782-25.34375-.105469-4.617187 1.71875-9.070312 5.035156-12.289062 2.117188-2.179688 4.808594-3.714844 7.761719-4.4375 1.386719-.410157 2.824219-.613281 4.269531-.59375 4.527344-.027344 8.871094 1.792969 12.03125 5.03125 3.242188 3.164062 5.058594 7.503906 5.035156 12.035156v25.597656l15.957032 366.933594zm0 0" fill="#285680"/><path d="m341.285156 443.742188v34.132812c0 14.136719-11.460937 25.597656-25.597656 25.597656h-8.535156c-14.136719 0-25.597656-11.460937-25.597656-25.597656v-8.535156c0-14.136719-11.464844-25.597656-25.601563-25.597656-1.433594-.03125-2.867187.109374-4.265625.425781-1.402344-.316407-2.832031-.457031-4.269531-.425781-14.136719 0-25.597657 11.460937-25.597657 25.597656v8.535156c0 14.136719-11.460937 25.597656-25.601562 25.597656h-8.53125c-14.140625 0-25.601562-11.460937-25.601562-25.597656v-34.132812l1.109374-25.601563 15.957032-366.933594v-24.660156c-.132813-8.101563 5.242187-15.265625 13.058594-17.410156 2.863281.757812 5.460937 2.296875 7.507812 4.4375 3.242188 3.164062 5.058594 7.503906 5.035156 12.035156 0 14.136719 11.460938 25.597656 25.597656 25.597656h41.21875c14.449219.425781 26.535157-10.894531 27.050782-25.34375-.105469-4.617187 1.71875-9.070312 5.035156-12.289062 2.117188-2.179688 4.808594-3.714844 7.761719-4.4375 2.957031.722656 5.648437 2.257812 7.765625 4.4375 3.242187 3.164062 5.058594 7.503906 5.035156 12.035156v25.597656l15.957031 366.933594zm0 0" fill="#2295f2"/><path d="m298.621094 187.742188c0 18.847656-19.109375 25.597656-42.667969 25.597656-23.5625 0-42.667969-6.75-42.667969-25.597656 1.640625-22.851563 19.816406-41.03125 42.667969-42.667969 22.851563 1.636719 41.027344 19.816406 42.667969 42.667969zm0 0" fill="#ac1457"/><path d="m307.152344 332.808594c0-42.417969-22.921875-76.800782-51.199219-76.800782s-51.199219 34.382813-51.199219 76.800782c0 42.414062 22.921875 76.800781 51.199219 76.800781s51.199219-34.386719 51.199219-76.800781zm0 0" fill="#00bbd3"/><path d="m295.890625 198.578125c-5.976563 10.667969-21.675781 14.761719-39.9375 14.761719s-33.960937-4.09375-39.9375-14.761719c8.953125-13.0625 24.136719-20.425781 39.9375-19.371094 15.800781-1.054687 30.984375 6.308594 39.9375 19.371094zm0 0" fill="#f34335"/><path d="m380.078125 420.796875c10.496094 14.792969 26.476563 24.769531 44.375 27.707031 3.734375.617188 7.511719.925782 11.296875.929688 14.15625.007812 27.957031-4.441406 39.441406-12.714844l8.15625-5.753906c30.582032-21.949219 37.683594-64.484375 15.890625-95.179688l-155.015625-217.164062-2.9375-67.414063v-25.597656c.050782-6.761719-2.640625-13.25-7.457031-17.988281-10.066406-9.703125-25.980469-9.773438-36.128906-.15625-5 4.855468-7.757813 11.570312-7.613281 18.535156.019531 4.097656-1.628907 8.023438-4.566407 10.878906-3.714843 3.6875-8.726562 5.769532-13.960937 5.796875h-32.671875c-9.425781 0-17.066407-7.640625-17.066407-17.066406.050782-6.761719-2.640624-13.25-7.457031-17.988281-5.316406-5.4375-12.796875-8.199219-20.371093-7.519532-13.441407 1.484376-23.558594 12.9375-23.371094 26.460938v24.277344l-2.9375 67.78125-155.050782 217.171875c-21.800781 30.714843-14.671874 73.269531 15.941407 95.207031l8.046875 5.683594c11.503906 8.289062 25.324218 12.746094 39.5 12.75 3.785156 0 7.5625-.3125 11.296875-.929688 17.902343-2.9375 33.878906-12.914062 44.375-27.707031l24.191406-33.894531-1.332031 30.8125v.058594l-1.109375 25.601562.011719.367188v34.132812c0 18.851562 15.28125 34.132812 34.132812 34.132812h17.066406c18.851563 0 34.132813-15.28125 34.132813-34.132812v-8.535156c0-9.425782 7.640625-17.066406 17.066406-17.066406s17.066406 7.640624 17.066406 17.066406v8.535156c0 18.851562 15.28125 34.132812 34.132813 34.132812h17.066406c18.851562 0 34.132812-15.28125 34.132812-34.132812v-34.5l-1.109374-25.601562-1.339844-30.832032zm105.300781-75.09375c5.789063 8.128906 9.054688 17.78125 9.386719 27.757813l-30.429687-14.25c-4.269532-2-9.351563-.15625-11.347657 4.113281-2 4.269531-.15625 9.351562 4.113281 11.347656l35.183594 16.46875c-2.828125 8.871094-8.035156 16.796875-15.054687 22.914063l-19.011719-19.011719c-3.347656-3.234375-8.671875-3.1875-11.960938.101562-3.292968 3.292969-3.339843 8.613281-.105468 11.964844l17.066406 17.066406c-10.621094 6.925781-23.460938 9.601563-35.96875 7.492188-.21875 0-.433594-.128907-.65625-.171875v-30.421875c0-4.710938-3.820312-8.53125-8.53125-8.53125-4.714844 0-8.535156 3.820312-8.535156 8.53125v24.039062c-6.128906-3.605469-11.4375-8.453125-15.582032-14.234375l-39.441406-55.246094-8.949218-205.753906zm-367.445312 65.175781c-4.140625 5.78125-9.449219 10.628906-15.582032 14.234375v-24.039062c0-4.710938-3.820312-8.53125-8.53125-8.53125-4.714843 0-8.535156 3.820312-8.535156 8.53125v30.414062c-.21875.042969-.433594.136719-.65625.167969-12.5 2.101562-25.335937-.570312-35.960937-7.492188l17.070312-17.066406c3.230469-3.347656 3.1875-8.667968-.105469-11.960937-3.292968-3.292969-8.613281-3.335938-11.960937-.105469l-19.03125 19.023438c-7.019531-6.121094-12.226563-14.050782-15.0625-22.921876l35.175781-16.460937c4.269532-1.996094 6.113282-7.078125 4.113282-11.347656s-7.078126-6.113281-11.347657-4.113281l-30.414062 14.242187c.332031-9.972656 3.597656-19.625 9.386719-27.75l139.859374-195.824219-8.96875 205.746094zm223.351562 66.996094c0 9.425781-7.640625 17.066406-17.066406 17.066406h-17.066406c-9.425782 0-17.066406-7.640625-17.066406-17.066406v-8.535156c0-18.851563-15.28125-34.132813-34.132813-34.132813s-34.132813 15.28125-34.132813 34.132813v8.535156c0 9.425781-7.640624 17.066406-17.066406 17.066406h-17.066406c-9.425781 0-17.066406-7.640625-17.066406-17.066406v-33.765625l17.066406-392.902344v-24.644531c-.191406-4.664062 3.128906-8.738281 7.738281-9.488281 2.546875-.238281 5.066407.703125 6.828125 2.558593 1.621094 1.5625 2.523438 3.722657 2.5 5.976563 0 18.851563 15.28125 34.132813 34.132813 34.132813h32.671875c9.8125-.011719 19.210937-3.929688 26.121094-10.890626 6.148437-6.105468 9.5625-14.4375 9.472656-23.097656-.046875-2.351562.902344-4.609375 2.613281-6.222656 1.609375-1.574219 3.777344-2.445312 6.03125-2.414062 2.25.027343 4.398437.953124 5.964844 2.570312 1.59375 1.554688 2.480469 3.695312 2.457031 5.921875v25.964844l17.066406 392.347656zm0 0"/><path d="m234.152344 118.039062c3.917968 2.617188 9.21875 1.558594 11.832031-2.363281 2.617187-3.917969 1.558594-9.21875-2.363281-11.835937l-25.597656-17.066406c-3.921876-2.613282-9.222657-1.554688-11.835938 2.363281-2.617188 3.921875-1.558594 9.222656 2.363281 11.835937zm0 0"/><path d="m273.019531 119.472656c1.683594 0 3.328125-.5 4.726563-1.433594l25.601562-17.066406c2.535156-1.691406 3.976563-4.605468 3.78125-7.648437-.199218-3.042969-2.003906-5.75-4.738281-7.101563-2.734375-1.351562-5.980469-1.140625-8.515625.550782l-25.601562 17.066406c-3.128907 2.089844-4.523438 5.980468-3.429688 9.578125 1.09375 3.601562 4.414062 6.0625 8.175781 6.054687zm0 0"/><path d="m255.953125 221.875c46.214844 0 51.199219-23.894531 51.199219-34.132812-1.722656-27.53125-23.667969-49.476563-51.199219-51.199219-27.53125 1.722656-49.476563 23.667969-51.199219 51.199219 0 10.238281 4.984375 34.132812 51.199219 34.132812zm-28.917969-23.773438c7.972656-7.003906 18.3125-10.707031 28.917969-10.359374 10.605469-.347657 20.945313 3.355468 28.917969 10.359374-8.734375 5.121094-18.820313 7.460938-28.917969 6.707032-10.097656.753906-20.183594-1.585938-28.917969-6.707032zm28.917969-44.492187c15.027344 1.300781 27.820313 11.453125 32.511719 25.785156-20.113282-11.625-44.910156-11.625-65.023438 0 4.691406-14.332031 17.484375-24.484375 32.511719-25.785156zm0 0"/><path d="m255.953125 247.472656c-33.492187 0-59.734375 37.488282-59.734375 85.335938 0 47.84375 26.242188 85.332031 59.734375 85.332031s59.734375-37.488281 59.734375-85.332031c0-47.847656-26.242188-85.335938-59.734375-85.335938zm0 153.601563c-23.125 0-42.667969-31.265625-42.667969-68.265625s19.542969-68.265625 42.667969-68.265625 42.667969 31.265625 42.667969 68.265625-19.542969 68.265625-42.667969 68.265625zm0 0"/></svg>