<svg height="512pt" viewBox="0 0 512 512.16303" width="512pt" xmlns="http://www.w3.org/2000/svg"><path d="m474.878906 207.949219c-1.765625-1.09375-3.589844-2.089844-5.460937-2.984375 0 0 .597656 2.300781 1.449219 6.570312.425781 1.875.855468 4.007813 1.367187 6.570313 10.75 57.683593 37.289063 285.523437-216.152344 285.523437-2.8125 0-5.546875 0-8.277343-.085937h-.511719c-1.449219 0-2.984375-.082031-4.4375-.167969-274.601563-8.875-200.105469-298.410156-200.105469-298.410156-3.816406 1.929687-7.496094 4.125-11.007812 6.570312-3.15625 2.132813-6.144532 4.351563-8.875 6.570313-4.96875 3.894531-9.726563 8.050781-14.25 12.457031.003906-5.132812.316406-10.261719.9375-15.359375.257812-2.390625.683593-4.863281 1.109374-7.167969 4.742188-24.339844 15.609376-47.074218 31.574219-66.046875l41.8125-76.628906c11.359375-4.074219 22.957031-7.433594 34.730469-10.070313l57.515625-19.882812 3.328125-1.109375c23.132812-.882813 46.191406 3.132813 67.667969 11.777344 1.539062.765625 2.816406 1.449219 3.925781 1.960937v.085938c1.714844.933594 3.34375 2.019531 4.863281 3.242187 0 0 12.289063-12.289062 52.824219-16.042969 2.472656-.257812 5.117188-.425781 7.847656-.597656 4.867188-.253906 10.15625-.425781 15.789063-.425781l60.84375 20.992187c11.851562 2.714844 23.316406 6.902344 34.132812 12.457032l42.410157 74.242187c21.179687 24.707031 33.070312 56.035157 33.621093 88.574219-5.679687-5.519531-11.722656-10.652344-18.089843-15.359375-3.371094-2.640625-6.90625-5.0625-10.582032-7.253906zm0 0" fill="#f47c00"/><path d="m470.867188 211.535156c-3.460938-2.476562-7.113282-4.671875-10.921876-6.570312 0 0 1.195313 4.777344 2.816407 13.140625-6.152344-5.058594-12.816407-9.464844-19.882813-13.140625 0 0 74.410156 289.449218-200.023437 298.410156-274.601563-8.875-200.105469-298.410156-200.105469-298.410156-3.816406 1.929687-7.496094 4.125-11.007812 6.570312.9375-4.269531 1.535156-6.570312 1.535156-6.570312-7.066406 3.675781-13.730469 8.082031-19.882813 13.140625 1.621094-8.363281 2.816407-13.140625 2.816407-13.140625-1.875.9375-3.667969 1.960937-5.546876 3.070312 4.742188-24.339844 15.609376-47.074218 31.574219-66.046875l41.8125-76.628906c11.359375-4.074219 22.957031-7.433594 34.730469-10.070313l57.515625-19.882812c39.851563 3.839844 53.25 15.957031 53.25 15.957031 2.488281-2.152343 5.277344-3.933593 8.277344-5.289062 3.140625 1.378906 6.09375 3.15625 8.789062 5.289062 1.402344-1.257812 2.949219-2.34375 4.605469-3.242187 1.714844.933594 3.34375 2.019531 4.863281 3.242187 0 0 12.289063-12.289062 52.824219-16.042969l57.941406 19.96875c11.851563 2.714844 23.316406 6.902344 34.132813 12.457032l42.410156 74.242187c15.9375 18.949219 26.773437 41.652344 31.488281 65.960938.425782 2.390625.851563 4.777343 1.109375 7.253906-1.636719-1.320313-3.347656-2.542969-5.121093-3.667969zm0 0" fill="#ffb201"/><g fill="#f47c00"><path d="m176.117188 113.230469c5.09375-2.035157 8.902343-6.382813 10.253906-11.699219 1.351562-5.3125.078125-10.953125-3.425782-15.171875-6.511718-7.160156-8.703124-17.25-5.742187-26.464844 8.71875-25.597656 0-51.199219-34.878906-51.199219-32.921875 0-34.71875 68.445313 9.148437 104.824219 4.789063 3.914063 11.316406 4.933594 17.066406 2.664063zm0 0"/><path d="m103.183594 151.519531c4.65625-3.167969 7.445312-8.429687 7.464844-14.058593.015624-5.628907-2.746094-10.90625-7.378907-14.101563-11.960937-6.941406-18.914062-20.09375-17.921875-33.886719 3.621094-33.5625-13.582031-62.566406-55.304687-53.46875-39.753907 8.617188-23.046875 94.335938 40.679687 126.632813 5.597656 2.867187 12.308594 2.476562 17.535156-1.023438zm0 0"/><path d="m336.050781 113.230469c-5.09375-2.035157-8.90625-6.382813-10.253906-11.699219-1.351563-5.3125-.078125-10.953125 3.425781-15.171875 6.511719-7.160156 8.703125-17.25 5.742188-26.464844-8.71875-25.597656 0-51.199219 34.875-51.199219 32.921875 0 34.765625 68.445313-9.144532 104.824219-4.789062 3.914063-11.316406 4.933594-17.066406 2.664063zm0 0"/></g><path d="m441.425781 162.636719c-4.789062 2.386719-10.402343 2.480469-15.273437.257812-.773438-.363281-1.515625-.789062-2.21875-1.28125l-14.933594-10.070312c-4.691406-3.160157-7.507812-8.441407-7.527344-14.097657-.015625-5.65625 2.769532-10.957031 7.441406-14.144531 11.972657-6.925781 18.933594-20.085937 17.921876-33.878906-2.21875-20.566406 3.414062-39.507813 17.75-48.8125 11.347656-6.632813 24.929687-8.300781 37.546874-4.605469 39.765626 8.617188 23.039063 94.292969-40.707031 126.632813zm0 0" fill="#d74315"/><path d="m426.152344 162.894531c-.773438-.363281-1.515625-.789062-2.21875-1.28125l-14.933594-10.070312c-4.691406-3.160157-7.507812-8.441407-7.527344-14.097657-.015625-5.65625 2.769532-10.957031 7.441406-14.144531 11.972657-6.925781 18.933594-20.085937 17.921876-33.878906-2.21875-20.566406 3.414062-39.507813 17.75-48.8125 4.019531.199219 8.015624.738281 11.945312 1.621094 37.546875 8.195312 24.746094 84.910156-30.378906 120.664062zm0 0" fill="#f47c00"/><path d="m170.578125 269.21875-6.910156-21.84375c-9.117188-15.730469-25.9375-25.390625-44.117188-25.34375-2.863281-.007812-5.71875.25-8.535156.765625-24.625 4.140625-42.65625 25.460937-42.65625 50.433594 0 24.96875 18.03125 46.289062 42.65625 50.429687 2.816406.519532 5.671875.777344 8.535156.769532 28.277344 0 51.199219-22.921876 51.199219-51.199219 0-1.367188-.085938-2.730469-.171875-4.011719zm0 0" fill="#fff"/><path d="m392.617188 222.03125c-2.863282-.003906-5.71875.253906-8.535157.765625-14.941406 2.449219-28.003906 11.46875-35.582031 24.578125l-6.914062 21.84375c-.082032 1.28125-.167969 2.644531-.167969 4.011719-.011719 24.976562 18.03125 46.304687 42.664062 50.429687 2.816407.519532 5.671875.777344 8.535157.769532 28.277343 0 51.199218-22.921876 51.199218-51.199219 0-28.277344-22.921875-51.199219-51.199218-51.199219zm0 0" fill="#fff"/><path d="m256.082031 136.695312c-2.898437 0-5.714843.171876-8.53125.425782-37.980469 3.441406-70.097656 29.535156-81.242187 66.003906-11.144532 36.472656.898437 76.058594 30.46875 100.140625 1.449218 1.28125 2.988281 2.390625 4.523437 3.5 14.984375-4.710937 30.546875-7.324219 46.25-7.765625 2.816407-.085938 5.632813-.171875 8.53125-.171875 14.203125-.070313 28.367188 1.417969 42.242188 4.4375 4.4375 1.027344 8.617187 2.21875 12.542969 3.5 33.078124-23.789063 47.027343-66.203125 34.535156-104.984375-12.492188-38.78125-48.574219-65.074219-89.320313-65.085938zm0 0" fill="#fff"/><path d="m315.816406 230.5625c0 32.992188-26.742187 59.734375-59.734375 59.734375-32.988281 0-59.730469-26.742187-59.730469-59.734375 0-32.988281 26.742188-59.734375 59.730469-59.734375 32.992188 0 59.734375 26.746094 59.734375 59.734375zm0 0" fill="#f34335"/><path d="m290.21875 230.5625c0 18.851562-15.285156 34.132812-34.136719 34.132812-18.851562 0-34.132812-15.28125-34.132812-34.132812s15.28125-34.132812 34.132812-34.132812c18.851563 0 34.136719 15.28125 34.136719 34.132812zm0 0" fill="#37474f"/><path d="m153.683594 273.230469c0 18.851562-15.28125 34.132812-34.132813 34.132812-18.851562 0-34.132812-15.28125-34.132812-34.132812 0-18.851563 15.28125-34.132813 34.132812-34.132813 18.851563 0 34.132813 15.28125 34.132813 34.132813zm0 0" fill="#f34335"/><path d="m426.75 273.230469c0 18.851562-15.28125 34.132812-34.132812 34.132812-18.851563 0-34.132813-15.28125-34.132813-34.132812 0-18.851563 15.28125-34.132813 34.132813-34.132813 18.851562 0 34.132812 15.28125 34.132812 34.132813zm0 0" fill="#f34335"/><path d="m239.015625 196.429688c0 9.425781-7.640625 17.066406-17.066406 17.066406s-17.066407-7.640625-17.066407-17.066406c0-9.425782 7.640626-17.066407 17.066407-17.066407s17.066406 7.640625 17.066406 17.066407zm0 0" fill="#fff"/><path d="m119.550781 256.164062c0 9.425782-7.640625 17.066407-17.066406 17.066407s-17.066406-7.640625-17.066406-17.066407c0-9.425781 7.640625-17.066406 17.066406-17.066406s17.066406 7.640625 17.066406 17.066406zm0 0" fill="#fff"/><path d="m136.617188 273.230469c0 9.425781-7.640626 17.066406-17.066407 17.066406s-17.066406-7.640625-17.066406-17.066406 7.640625-17.066407 17.066406-17.066407 17.066407 7.640626 17.066407 17.066407zm0 0" fill="#37474f"/><path d="m392.617188 256.164062c0 9.425782-7.640626 17.066407-17.066407 17.066407s-17.066406-7.640625-17.066406-17.066407c0-9.425781 7.640625-17.066406 17.066406-17.066406s17.066407 7.640625 17.066407 17.066406zm0 0" fill="#fff"/><path d="m409.683594 273.230469c0 9.425781-7.640625 17.066406-17.066406 17.066406-9.425782 0-17.066407-7.640625-17.066407-17.066406s7.640625-17.066407 17.066407-17.066407c9.425781 0 17.066406 7.640626 17.066406 17.066407zm0 0" fill="#37474f"/><path d="m5.347656 238.449219c3.191406 1.320312 6.863282.589843 9.300782-1.851563 4.964843-4.820312 10.203124-9.347656 15.695312-13.5625-7.246094 42.496094-16.511719 142.507813 38.671875 213.675782 38.820313 50.066406 101.734375 75.453124 187.066406 75.453124 85.335938 0 148.25-25.386718 187.070313-75.453124 55.175781-71.167969 45.917968-171.160157 38.671875-213.664063 5.492187 4.207031 10.730469 8.734375 15.691406 13.558594 2.441406 2.441406 6.113281 3.167969 9.304687 1.847656 3.1875-1.324219 5.265626-4.4375 5.261719-7.890625-.339843-31.941406-11.242187-62.875-31.007812-87.96875 21.648437-24.03125 32.714843-54.351562 30.796875-78.378906-1.578125-19.679688-11.734375-33.058594-27.949219-36.574219-25.503906-5.554687-40.839844 2.261719-49.21875 9.777344-5.507813 5.105469-9.746094 11.425781-12.375 18.460937-6.449219-2.789062-13.085937-5.136718-19.855469-7.023437.546875-7.773438-.242187-15.585938-2.328125-23.09375-2.933593-14.53125-15.484375-25.136719-30.304687-25.597657-15.082032-1.289062-29.800782 5.128907-39.113282 17.066407-1.882812 2.671875-3.40625 5.578125-4.53125 8.644531-40.457031.851562-61.152343 9.582031-70.265624 15.113281-9.25-5.34375-30.199219-13.960937-69.972657-15.082031-1.121093-3.074219-2.636719-5.992188-4.515625-8.675781-9.3125-11.9375-24.03125-18.355469-39.117187-17.066407-14.816407.460938-27.367188 11.066407-30.300781 25.597657-2.082032 7.476562-2.875 15.25-2.335938 22.988281-5.976562 1.511719-13.355469 3.5-20.378906 5.777344-2.648438-6.488282-6.695313-12.316406-11.851563-17.066406-8.371093-7.566407-23.699219-15.375-49.214843-9.820313-16.210938 3.515625-26.367188 16.894531-27.945313 36.574219-1.929687 24.027344 9.148437 54.355468 30.804687 78.386718-19.734374 25.109376-30.636718 56.027344-31.0195308 87.960938 0 3.453125 2.0781248 6.5625 5.2656248 7.886719zm38.007813-83.882813c10.101562 8.59375 21.550781 15.464844 33.886719 20.332032 2.839843 1.117187 6.054687.632812 8.441406-1.269532 2.382812-1.902344 3.570312-4.929687 3.117187-7.945312s-2.484375-5.558594-5.320312-6.671875c-46.59375-18.277344-68.371094-66.007813-66.167969-93.433594-.585938-9.582031 5.40625-18.339844 14.550781-21.261719 11.652344-3.824218 24.441407-1.652344 34.183594 5.800782 9.480469 10.375 13.496094 24.617187 10.835937 38.417968-4.367187 40.429688 46.796876 53.945313 48.980469 54.511719 4.570313 1.164063 9.21875-1.597656 10.382813-6.167969 1.164062-4.566406-1.597656-9.214844-6.164063-10.378906-.394531-.09375-39.023437-10.242188-36.234375-36.132812.703125-6.429688.636719-12.921876-.195312-19.335938 6.261718-2.0625 12.925781-3.914062 18.628906-5.367188 6.109375 25.023438 21.40625 46.835938 42.851562 61.109376 1.378907.910156 3 1.394531 4.652344 1.390624 3.773438 0 7.097656-2.480468 8.175782-6.097656 1.078124-3.617187-.347657-7.515625-3.507813-9.578125-33.007813-21.539062-42.148437-61.441406-36.046875-81.921875 1.785156-6.074218 5.652344-13.335937 13.917969-13.335937 9.503906-.835938 18.851562 2.832031 25.242187 9.914062 5.238282 9.191407 5.8125 20.320313 1.554688 30.003907-11.007813 32.339843 28.789062 52.25 30.488281 53.078124 4.210937 1.957032 9.210937.1875 11.257813-3.980468 2.042968-4.167969.382812-9.203125-3.738282-11.335938-.28125-.148437-28.023437-14.125-21.847656-32.265625 2.195312-6.320312 3.390625-12.941406 3.542969-19.628906 45.789062 1.871094 61.480469 14.601563 61.542969 14.644531 1.550781 1.390625 3.566406 2.148438 5.648437 2.132813 2.207031.007812 4.339844-.808594 5.972656-2.292969.152344-.136719 14.789063-12.945312 61.371094-14.507812.152344 6.6875 1.347656 13.308593 3.542969 19.625 6.175781 18.144531-21.5625 32.121093-21.847656 32.265624-4.238282 2.078126-5.996094 7.199219-3.917969 11.4375 2.074219 4.242188 7.195312 6 11.4375 3.921876 1.707031-.851563 41.496093-20.734376 30.488281-53.078126-4.257812-9.683593-3.683594-20.808593 1.554688-30 6.386718-7.085937 15.722656-10.761718 25.222656-9.933593 8.246094 0 12.136718 7.261719 13.945312 13.355469 6.101563 20.476562-3.039062 60.363281-36.046875 81.917968-3.140625 2.070313-4.554687 5.957032-3.480469 9.5625 1.074219 3.609375 4.386719 6.085938 8.148438 6.097656 1.65625.003907 3.273438-.480468 4.652344-1.390624 21.398437-14.242188 36.675781-35.992188 42.8125-60.953126 6.300781 1.894532 12.460937 4.234376 18.429687 7.003907-.605469 5.832031-.59375 11.714843.042969 17.542969 2.773438 25.730468-35.839844 36.039062-36.238281 36.140624-4.566407 1.167969-7.324219 5.8125-6.160157 10.378907 1.167969 4.570312 5.816407 7.324219 10.382813 6.160156 2.183594-.566406 53.351563-14.082031 48.980469-54.511719-2.660156-13.789062 1.347656-28.027344 10.8125-38.402344 9.742187-7.453124 22.53125-9.621093 34.183594-5.800781 9.128906 2.941407 15.097656 11.695313 14.507812 21.265625 2.203125 27.425782-19.574219 75.152344-66.167969 93.429688-4.386719 1.722656-6.546875 6.675781-4.824219 11.0625 1.722657 4.390625 6.675782 6.550781 11.0625 4.828125 12.34375-4.875 23.796876-11.75 33.902344-20.351563 12.386719 16.433594 20.785156 35.527344 24.523438 55.765625-6.257813-4.960937-12.976563-9.316406-20.058594-13.007812-2.992188-1.496094-6.582031-1.109375-9.183594.992187-2.601562 2.105469-3.738281 5.53125-2.902344 8.769532.351563 1.339843 33.648438 135.265624-31.570312 219.230468-35.398438 45.636719-93.78125 68.78125-173.511719 68.78125-79.726562 0-138.109375-23.144531-173.523437-68.78125-65.1875-83.964844-31.890625-217.890625-31.574219-219.230468.835937-3.238282-.296875-6.664063-2.898437-8.769532-2.601563-2.101562-6.191407-2.488281-9.183594-.992187-7.082032 3.6875-13.792969 8.039062-20.046875 12.996093 3.761719-20.222656 12.144531-39.308593 24.5-55.753906zm0 0"/><path d="m119.550781 332.964844c25.097657-.03125 47.503907-15.75 56.070313-39.339844 5.917968 7.644531 12.898437 14.40625 20.730468 20.078125.1875.136719.410157.152344.597657.273437.496093.289063 1.023437.523438 1.570312.707032.503907.191406 1.027344.335937 1.558594.4375.507813.054687 1.019531.070312 1.527344.042968.597656-.011718 1.1875-.085937 1.769531-.222656.210938-.050781.425781 0 .636719-.078125 34.050781-9.675781 70.125-9.675781 104.175781 0 .871094.292969 1.78125.445313 2.695312.445313.289063-.027344.574219-.074219.855469-.136719 1.480469-.054687 2.902344-.566406 4.078125-1.46875 7.824219-5.671875 14.800782-12.433594 20.710938-20.078125 8.695312 24.191406 31.863281 40.132812 57.566406 39.601562 25.699219-.527343 48.195312-17.40625 55.886719-41.9375 7.691406-24.527343-1.136719-51.226562-21.933594-66.339843-20.796875-15.109375-48.917969-15.253907-69.871094-.359375-3.128906-54.09375-47.90625-96.359375-102.09375-96.359375-54.183593 0-98.960937 42.265625-102.089843 96.359375-21.03125-14.90625-49.257813-14.625-69.988282.695312-20.730468 15.324219-29.28125 42.226563-21.199218 66.707032 8.082031 24.476562 30.964843 41.003906 56.746093 40.972656zm273.066407-102.402344c23.5625 0 42.667968 19.101562 42.667968 42.667969 0 23.5625-19.105468 42.664062-42.667968 42.664062s-42.667969-19.101562-42.667969-42.664062c0-.855469.0625-1.648438.113281-2.449219 2.707031-6.320312 4.777344-12.894531 6.175781-19.628906 7.675781-12.765625 21.480469-20.582032 36.378907-20.589844zm-136.535157-85.332031c36.332031-.050781 68.699219 22.9375 80.617188 57.261719 11.914062 34.320312.753906 72.425781-27.792969 94.894531-34.648438-8.933594-70.996094-8.933594-105.644531 0-28.546875-22.46875-39.707031-60.574219-27.792969-94.894531 11.914062-34.324219 44.285156-57.3125 80.613281-57.261719zm-136.53125 85.332031c14.890625.003906 28.695313 7.808594 36.378907 20.566406 1.398437 6.730469 3.46875 13.304688 6.175781 19.625.050781.804688.113281 1.613282.113281 2.449219 0 23.566406-19.105469 42.667969-42.667969 42.667969-23.566406 0-42.667969-19.101563-42.667969-42.667969 0-23.5625 19.101563-42.664063 42.667969-42.664063zm0 0"/><path d="m256.082031 273.230469c23.566407 0 42.667969-19.101563 42.667969-42.667969 0-23.5625-19.101562-42.667969-42.667969-42.667969-23.5625 0-42.664062 19.105469-42.664062 42.667969.027343 23.554688 19.113281 42.640625 42.664062 42.667969zm0-68.265625c14.140625 0 25.601563 11.460937 25.601563 25.597656 0 14.140625-11.460938 25.601562-25.601563 25.601562-14.136719 0-25.597656-11.460937-25.597656-25.601562 0-14.136719 11.460937-25.597656 25.597656-25.597656zm0 0"/><path d="m388.886719 368.359375c-3.359375-3.375-7.980469-5.183594-12.738281-4.992187-4.757813.191406-9.21875 2.367187-12.296876 6-8.148437 9.582031-34.953124 31.863281-107.769531 31.863281-72.8125 0-99.617187-22.28125-107.765625-31.863281-3.078125-3.632813-7.535156-5.808594-12.292968-6-4.757813-.191407-9.375 1.617187-12.734376 4.992187l-9.773437 9.769531c-3.230469 3.347656-3.1875 8.671875.105469 11.964844 3.292968 3.289062 8.613281 3.335938 11.960937.101562l9.738281-9.777343c12.023438 14.148437 43.699219 37.878906 120.761719 37.878906 77.066407 0 108.742188-23.730469 120.730469-37.863281l9.769531 9.761718c3.351563 3.234376 8.671875 3.1875 11.964844-.101562 3.289063-3.292969 3.335937-8.617188.101563-11.964844zm0 0"/><path d="m298.75 435.363281c-3.117188 0-5.984375 1.695313-7.484375 4.429688-2.011719 1.046875-10.035156 4.101562-35.183594 4.101562-25.144531 0-33.167969-3.054687-35.179687-4.101562-1.875-3.421875-5.828125-5.136719-9.605469-4.167969-3.773437.96875-6.414063 4.371094-6.414063 8.269531 0 15.292969 29.21875 17.070313 51.199219 17.070313 21.984375 0 51.203125-1.777344 51.203125-17.070313 0-4.710937-3.820312-8.53125-8.535156-8.53125zm0 0"/><path d="m119.550781 298.828125c14.136719 0 25.597657-11.460937 25.597657-25.597656 0-14.140625-11.460938-25.601563-25.597657-25.601563-14.140625 0-25.601562 11.460938-25.601562 25.601563 0 14.136719 11.460937 25.597656 25.601562 25.597656zm0-34.132813c4.710938 0 8.53125 3.820313 8.53125 8.535157 0 4.710937-3.820312 8.53125-8.53125 8.53125-4.714843 0-8.535156-3.820313-8.535156-8.53125 0-4.714844 3.820313-8.535157 8.535156-8.535157zm0 0"/><path d="m392.617188 298.828125c14.136718 0 25.601562-11.460937 25.601562-25.597656 0-14.140625-11.464844-25.601563-25.601562-25.601563-14.136719 0-25.601563 11.460938-25.601563 25.601563 0 14.136719 11.464844 25.597656 25.601563 25.597656zm0-34.132813c4.710937 0 8.53125 3.820313 8.53125 8.535157 0 4.710937-3.820313 8.53125-8.53125 8.53125-4.714844 0-8.535157-3.820313-8.535157-8.53125 0-4.714844 3.820313-8.535157 8.535157-8.535157zm0 0"/></svg>