<svg height="512pt" viewBox="0 0 512.11189 512" width="512pt" xmlns="http://www.w3.org/2000/svg"><path d="m503.464844 332.886719c0 122.539062-110.761719 170.667969-247.464844 170.667969-2.902344 0-5.71875 0-8.535156-.085938-132.777344-1.960938-238.929688-50.601562-238.929688-170.582031 0-57.257813 24.148438-120.660157 64-171.859375l90.878906-76.203125c15.871094-8.242188 32.617188-14.679688 49.917969-19.199219 2.816407-.769531 5.632813-1.449219 8.535157-2.046875 2.902343-.597656 5.546874-1.109375 8.363281-1.621094 5.714843-.855469 11.433593-1.539062 17.234375-1.878906 2.816406-.171875 5.632812-.257813 8.535156-.257813s5.71875.085938 8.535156.257813c5.800782.339844 11.519532 1.023437 17.234375 1.878906 2.816407.511719 5.546875 1.023438 8.363281 1.621094 2.816407.597656 5.71875 1.277344 8.535157 2.046875 17.300781 4.519531 34.046875 10.957031 49.917969 19.199219l90.878906 76.203125c39.851562 51.199218 64 114.601562 64 171.859375zm0 0" fill="#1566bf"/><path d="m477.867188 332.886719c0 119.980469-104.261719 168.621093-234.667969 170.582031-130.40625-1.960938-234.664063-50.601562-234.664063-170.582031 0-57.257813 23.710938-120.660157 62.855469-171.859375l89.257813-76.203125c15.5625-8.230469 32.011718-14.671875 49.023437-19.199219 2.773437-.769531 5.539063-1.449219 8.390625-2.046875 2.847656-.597656 5.441406-1.109375 8.207031-1.621094 5.617188-.855469 11.230469-1.539062 16.929688-1.878906 5.699219.339844 11.316406 1.023437 16.929687 1.878906 2.765625.511719 5.445313 1.023438 8.210938 1.621094s5.613281 1.277344 8.386718 2.046875c17.015626 4.527344 33.460938 10.96875 49.023438 19.199219l89.261719 76.203125c39.140625 51.199218 62.855469 114.601562 62.855469 171.859375zm0 0" fill="#2295f2"/><path d="m170.667969 153.6875c-11.886719-.050781-23.640625 2.453125-34.476563 7.339844-2.304687-9.898438-21.84375-79.105469-109.824218-133.546875l-.765626-1.792969s43.261719 18.519531 108.882813 2.988281c42.582031 48.296875 36.183594 125.011719 36.183594 125.011719zm0 0" fill="#00bbd3"/><path d="m136.191406 161.027344c-11.472656 5.023437-21.675781 12.542968-29.867187 22.015625-9.714844-9.476563-21.195313-16.957031-33.789063-22.015625-13.882812-5.683594-29.085937-7.339844-43.863281-4.777344 11.519531-23.894531 23.464844-70.914062-2.304687-128.769531 87.980468 54.441406 107.519531 123.648437 109.824218 133.546875zm0 0" fill="#00bbd3"/><path d="m484.097656 155.566406.253906.851563c-9.042968-1.683594-18.308593-1.800781-27.390624-.339844-4.925782.792969-9.757813 2.078125-14.421876 3.839844-1.023437.339843-2.046874.683593-3.074218 1.109375-12.59375 5.058594-24.074219 12.539062-33.789063 22.015625-2.550781-2.988281-5.347656-5.757813-8.363281-8.277344-6.410156-5.667969-13.667969-10.304687-21.503906-13.738281 1.960937-8.535156 16.894531-61.609375 77.992187-110.933594 10.132813-8.1875 20.765625-15.742188 31.832031-22.613281-28.160156 63.148437-13.570312 106.753906-1.535156 128.085937zm0 0" fill="#00828e"/><path d="m459.519531 161.199219c-5.597656-1.046875-11.289062-1.476563-16.980469-1.28125-9.578124.277343-19.03125 2.269531-27.90625 5.886719-6.050781 2.414062-11.851562 5.414062-17.320312 8.960937-6.410156-5.667969-13.667969-10.304687-21.503906-13.738281 1.960937-8.535156 16.894531-61.609375 77.992187-110.933594-17.066406 49.835938-7.082031 85.761719 3.160157 105.984375.765624 1.535156 1.535156 2.902344 2.304687 4.265625zm0 0" fill="#00bbd3"/><path d="m486.398438 25.6875-.765626 1.792969c-87.980468 54.441406-107.519531 123.648437-109.824218 133.546875-10.835938-4.886719-22.589844-7.390625-34.476563-7.339844 0 0-6.398437-76.714844 36.183594-125.011719 65.621094 15.53125 108.882813-2.988281 108.882813-2.988281zm0 0" fill="#00bbd3"/><path d="m170.667969 153.6875c-2.816407 0-5.632813.171875-8.363281.429688h-.34375c-43.605469 4.375-76.808594 41.078124-76.808594 84.90625 0 43.828124 33.203125 80.527343 76.808594 84.90625h.34375c2.730468.253906 5.546874.425781 8.363281.425781 47.128906 0 85.332031-38.207031 85.332031-85.332031 0-47.128907-38.203125-85.335938-85.332031-85.335938zm0 0" fill="#fff"/><path d="m341.332031 153.6875c-2.816406 0-5.628906.171875-8.363281.429688h-.339844c-43.609375 4.375-76.808594 41.078124-76.808594 84.90625 0 43.828124 33.199219 80.527343 76.808594 84.90625h.339844c2.734375.253906 5.546875.425781 8.363281.425781 47.128907 0 85.335938-38.207031 85.335938-85.332031 0-47.128907-38.207031-85.335938-85.335938-85.335938zm0 0" fill="#fff"/><path d="m230.398438 239.023438c0 32.988281-26.742188 59.730468-59.730469 59.730468-32.992188 0-59.734375-26.742187-59.734375-59.730468 0-32.992188 26.742187-59.734376 59.734375-59.734376 32.988281 0 59.730469 26.742188 59.730469 59.734376zm0 0" fill="#e81e63"/><path d="m401.066406 239.023438c0 32.988281-26.742187 59.730468-59.734375 59.730468-32.988281 0-59.730469-26.742187-59.730469-59.730468 0-32.992188 26.742188-59.734376 59.730469-59.734376 32.992188 0 59.734375 26.742188 59.734375 59.734376zm0 0" fill="#e81e63"/><path d="m204.800781 239.023438c0 18.851562-15.28125 34.132812-34.132812 34.132812-18.851563 0-34.132813-15.28125-34.132813-34.132812 0-18.851563 15.28125-34.136719 34.132813-34.136719 18.851562 0 34.132812 15.285156 34.132812 34.136719zm0 0" fill="#37474f"/><path d="m375.464844 239.023438c0 18.851562-15.28125 34.132812-34.132813 34.132812-18.851562 0-34.132812-15.28125-34.132812-34.132812 0-18.851563 15.28125-34.136719 34.132812-34.136719 18.851563 0 34.132813 15.285156 34.132813 34.136719zm0 0" fill="#37474f"/><path d="m256 375.554688v25.601562h-51.199219v-25.601562c-.03125-12.488282 9.007813-23.152344 21.332031-25.171876 1.398438-.316406 2.832032-.457031 4.265626-.425781 14.140624 0 25.601562 11.460938 25.601562 25.597657zm0 0" fill="#f9eab0"/><path d="m247.464844 375.554688v25.601562h-34.132813v-25.601562c-.003906-10.851563 6.835938-20.53125 17.066407-24.148438 10.234374 3.617188 17.074218 13.296875 17.066406 24.148438zm0 0" fill="#f5efca"/><path d="m247.464844 374.105469v25.597656h-34.132813v-25.597656c-.003906-10.855469 6.835938-20.53125 17.066407-24.148438 10.234374 3.617188 17.074218 13.292969 17.066406 24.148438zm0 0" fill="#ffebb2"/><path d="m281.601562 349.957031c14.136719 0 25.597657 11.460938 25.597657 25.597657v25.601562h-51.199219v-25.601562c0-14.136719 11.460938-25.597657 25.601562-25.597657zm0 0" fill="#f9eab0"/><path d="m298.667969 374.105469v25.597656h-34.132813v-25.597656c-.007812-10.855469 6.832032-20.53125 17.066406-24.148438 10.230469 3.617188 17.070313 13.292969 17.066407 24.148438zm0 0" fill="#ffebb2"/><path d="m145.066406 204.886719c0 14.140625-11.460937 25.601562-25.601562 25.601562-14.136719 0-25.597656-11.460937-25.597656-25.601562 0-14.136719 11.460937-25.597657 25.597656-25.597657 14.140625 0 25.601562 11.460938 25.601562 25.597657zm0 0" fill="#fff"/><path d="m315.734375 204.886719c0 14.140625-11.460937 25.601562-25.601563 25.601562-14.136718 0-25.597656-11.460937-25.597656-25.601562 0-14.136719 11.460938-25.597657 25.597656-25.597657 14.140626 0 25.601563 11.460938 25.601563 25.597657zm0 0" fill="#fff"/><path d="m11.894531 170.0625c14.621094-6.527344 30.976563-8.082031 46.566407-4.425781-37.265626 51.625-58.460938 111.964843-58.460938 167.25 0 113.886719 93.3125 179.203125 256 179.203125s256-65.316406 256-179.203125c0-55.292969-21.195312-115.648438-58.480469-167.3125 9.644531-2.300781 19.660157-2.554688 29.40625-.75 5.910157 1.085937 11.671875 2.84375 17.179688 5.238281 2.808593 1.253906 6.078125.898438 8.550781-.933594 2.472656-1.832031 3.769531-4.855468 3.390625-7.910156s-2.371094-5.667969-5.21875-6.839844c-5.335937-2.253906-10.867187-4.027344-16.519531-5.296875-10.429688-19.722656-22.265625-59.070312 2.132812-115.738281 5.121094-3.132812 10.1875-6.066406 15.042969-8.660156 4.078125-2.261719 5.589844-7.375 3.394531-11.484375-2.195312-4.113281-7.285156-5.703125-11.429687-3.570313-4.328125 2.3125-8.808594 4.898438-13.324219 7.601563-1.046875.007812-2.085938.207031-3.0625.597656-28.339844 9.328125-58.59375 11.257813-87.890625 5.609375 3.308594-2.761719 6.800781-5.292969 10.453125-7.578125 4.003906-2.5 5.226562-7.769531 2.730469-11.777344-2.5-4.003906-7.769531-5.226562-11.777344-2.730469-25.628906 16.796876-44.523437 42.089844-53.359375 71.433594-16.363281-7.808594-33.566406-13.707031-51.277344-17.589844-11.773437-2.5625-23.789062-3.878906-35.839844-3.921874l-.101562.015624h-.09375c-12.035156.046876-24.03125 1.363282-35.789062 3.925782-17.71875 3.875-34.933594 9.777344-51.300782 17.585937-8.839844-29.335937-27.734375-54.621093-53.359375-71.414062-2.59375-1.617188-5.847656-1.726563-8.542969-.292969-2.695312 1.4375-4.421874 4.203125-4.523437 7.253906-.105469 3.054688 1.429687 5.929688 4.019531 7.542969 3.652344 2.289063 7.144532 4.820313 10.453125 7.578125-29.296875 5.648438-59.546875 3.726562-87.894531-5.589844-.980469-.398437-2.03125-.613281-3.09375-.621094-4.515625-2.707031-8.996094-5.289062-13.3125-7.59375-4.105469-1.90625-8.980469-.277343-11.117188 3.710938-2.132812 3.984375-.789062 8.945312 3.070313 11.308594 4.84375 2.558594 9.90625 5.519531 15.027344 8.652344 17.082031 36.3125 18.246093 78.101562 3.207031 115.308593-6.023438 1.367188-11.910156 3.285157-17.578125 5.734375-4.261719 1.898438-6.207031 6.871094-4.371094 11.15625 1.839844 4.289063 6.78125 6.304688 11.09375 4.527344zm158.773438-7.839844c42.414062 0 76.796875 34.382813 76.796875 76.800782 0 42.414062-34.382813 76.796874-76.796875 76.796874-42.417969 0-76.800781-34.382812-76.800781-76.796874.046874-42.398438 34.402343-76.753907 76.800781-76.800782zm-64.726563 8.984375c-9.050781-7.609375-19.265625-13.71875-30.25-18.097656-10.742187-4.359375-22.226562-6.59375-33.816406-6.589844 10.644531-31.347656 11.21875-65.242187 1.644531-96.9375 57.371094 42.667969 76.9375 89.414063 82.5 106.898438-7.316406 3.996093-14.066406 8.949219-20.078125 14.726562zm150.058594 323.816407c-71.84375 0-238.933594-15.804688-238.933594-162.136719 0-52.402344 21.710938-112.21875 58.242188-161.277344 6.945312 3.371094 13.460937 7.5625 19.410156 12.484375-20.996094 28.945312-23.703125 67.3125-6.972656 98.917969 16.726562 31.609375 49.976562 50.945312 85.71875 49.859375 35.742187-1.085938 67.757812-22.40625 82.535156-54.972656 14.757812 32.597656 46.78125 53.957031 82.550781 55.054687 35.765625 1.097656 69.039063-18.257813 85.769531-49.886719 16.726563-31.632812 13.996094-70.027344-7.039062-98.972656 5.949219-4.921875 12.46875-9.113281 19.410156-12.484375 36.53125 49.058594 58.242188 108.875 58.242188 161.277344 0 146.332031-167.089844 162.136719-238.933594 162.136719zm85.332031-332.800782c42.417969 0 76.800781 34.382813 76.800781 76.800782 0 42.414062-34.382812 76.796874-76.800781 76.796874-42.414062 0-76.796875-34.382812-76.796875-76.796874.046875-42.398438 34.402344-76.753907 76.796875-76.800782zm129.058594-15.53125c-11.3125-.082031-22.539063 1.980469-33.082031 6.085938h-.121094c-.28125.101562-.5625.160156-.851562.269531-10.996094 4.386719-21.222657 10.503906-30.285157 18.117187-6.015625-5.777343-12.769531-10.734374-20.089843-14.734374 5.558593-17.453126 25.074218-64.085938 82.253906-106.667969-10.589844 31.574219-9.820313 65.859375 2.175781 96.929687zm-20.683594-104.304687c-36.15625 27.511719-63.71875 64.761719-79.460937 107.375-6.710938-2.175781-13.644532-3.582031-20.667969-4.1875-.230469-19.082031 2.070313-71.03125 31.246094-107.519531 22.601562 4.996093 45.835937 6.457031 68.882812 4.332031zm-236.375 32.105469v19.464843c0 4.710938 3.820313 8.53125 8.535157 8.53125 4.710937 0 8.53125-3.820312 8.53125-8.53125v-23.128906c5.648437-.980469 11.347656-1.644531 17.066406-1.988281v42.183594c0 4.710937 3.824218 8.53125 8.535156 8.53125s8.535156-3.820313 8.535156-8.53125v-42.183594c5.71875.34375 11.417969 1.007812 17.066406 1.988281v23.128906c0 4.710938 3.820313 8.53125 8.53125 8.53125 4.714844 0 8.535157-3.820312 8.535157-8.53125v-19.464843c13.695312 3.746093 27.015625 8.757812 39.789062 14.964843-4.261719 18.40625-6.269531 37.261719-5.972656 56.152344-33.402344 3.21875-62.554687 24.003906-76.484375 54.535156-13.925781-30.519531-43.058594-51.304687-76.449219-54.535156.292969-18.890625-1.710937-37.746094-5.972656-56.152344 12.761719-6.203125 26.070313-11.210937 39.753906-14.964843zm-82.15625-36.445313c29.175781 36.503906 31.476563 88.445313 31.246094 107.519531-7.023437.605469-13.957031 2.007813-20.667969 4.1875-15.742187-42.613281-43.308594-79.855468-79.460937-107.367187 23.046875 2.125 46.285156.660156 68.882812-4.339844zm0 0"/><path d="m170.667969 281.6875c23.5625 0 42.664062-19.101562 42.664062-42.664062 0-23.566407-19.101562-42.667969-42.664062-42.667969-23.566407 0-42.667969 19.101562-42.667969 42.667969.027344 23.550781 19.113281 42.636718 42.667969 42.664062zm0-68.265625c14.136719 0 25.597656 11.460937 25.597656 25.601563 0 14.136718-11.460937 25.597656-25.597656 25.597656-14.140625 0-25.601563-11.460938-25.601563-25.597656 0-14.140626 11.460938-25.601563 25.601563-25.601563zm0 0"/><path d="m341.332031 281.6875c23.566407 0 42.667969-19.101562 42.667969-42.664062 0-23.566407-19.101562-42.667969-42.667969-42.667969-23.5625 0-42.664062 19.101562-42.664062 42.667969.027343 23.550781 19.113281 42.636718 42.664062 42.664062zm0-68.265625c14.140625 0 25.601563 11.460937 25.601563 25.601563 0 14.136718-11.460938 25.597656-25.601563 25.597656-14.136719 0-25.597656-11.460938-25.597656-25.597656 0-14.140626 11.460937-25.601563 25.597656-25.601563zm0 0"/><path d="m418.132812 341.421875c-4.710937 0-8.53125 3.820313-8.53125 8.535156-.03125 23.550781-19.117187 42.636719-42.667968 42.664063h-51.199219v-17.066406c.0625-14.234376-8.75-27-22.082031-31.984376-13.332032-4.988281-28.359375-1.136718-37.652344 9.644532-9.292969-10.78125-24.320312-14.632813-37.652344-9.644532-13.332031 4.984376-22.144531 17.75-22.082031 31.984376v17.066406h-51.199219c-23.550781-.027344-42.636718-19.113282-42.667968-42.664063 0-4.714843-3.820313-8.535156-8.53125-8.535156-4.714844 0-8.535157 3.820313-8.535157 8.535156.039063 32.972657 26.761719 59.695313 59.734375 59.730469h221.867188c32.972656-.035156 59.695312-26.757812 59.734375-59.730469 0-4.714843-3.820313-8.535156-8.535157-8.535156zm-204.800781 34.132813c0-9.425782 7.640625-17.066407 17.066407-17.066407 9.425781 0 17.066406 7.640625 17.066406 17.066407v17.066406h-34.132813zm51.203125 17.066406v-17.066406c0-9.425782 7.640625-17.066407 17.066406-17.066407 9.425782 0 17.066407 7.640625 17.066407 17.066407v17.066406zm0 0"/><path d="m303.429688 427.609375c-15.125 5.753906-31.261719 8.367187-47.429688 7.679687-16.164062.671876-32.292969-1.941406-47.417969-7.679687-4.214843-2.054687-9.296875-.328125-11.382812 3.871094-2.085938 4.199219-.394531 9.292969 3.785156 11.410156 17.453125 7.046875 36.210937 10.273437 55.015625 9.464844 18.796875.832031 37.554688-2.371094 55.015625-9.386719 4.222656-2.09375 5.945313-7.214844 3.851563-11.4375s-7.214844-5.949219-11.4375-3.855469zm0 0"/></svg>