<svg height="512pt" viewBox="0 0 512 512.00328" width="512pt" xmlns="http://www.w3.org/2000/svg"><path d="m256.535156 503.46875c-2.5625 0-5.121094 0-7.679687-.167969-133.816407-3.84375-240.300781-113.429687-240.300781-247.296875-.191407-61.601562 13.796874-122.421875 40.875-177.75 3.328124-6.484375 6.398437-12.03125 9.046874-16.46875 1.003907-1.714844 3.054688-2.507812 4.949219-1.917968 1.894531.59375 3.132813 2.414062 2.984375 4.390624-.539062 11.277344-.167968 22.578126 1.109375 33.792969.636719 6.191407 1.75 12.328125 3.328125 18.347657.585938 1.804687 2.296875 3.007812 4.191406 2.949218 1.898438-.058594 3.53125-1.367187 4-3.207031 9.644532-42.949219 36.976563-79.828125 75.265626-101.546875 3.414062-1.960938 6.910156-3.839844 10.582031-5.628906 1.273437-.597656 2.757812-.539063 3.976562.15625 1.222657.695312 2.03125 1.941406 2.167969 3.339844.894531 14.636718 3.328125 29.136718 7.253906 43.265624 1.15625 3.746094 2.792969 7.332032 4.863282 10.667969.855468 1.246094 2.304687 1.945313 3.816406 1.839844 1.507812-.105469 2.847656-1 3.519531-2.355469 4.4375-9.214844 14.082031-34.472656 28.929687-48.894531 3.367188-3.394531 7.328126-6.144531 11.691407-8.105469 1.484375-.628906 3.199219-.363281 4.425781.683594 1.230469 1.046875 1.761719 2.699219 1.375 4.265625-2.816406 12.457031-5.886719 38.226563 10.753906 44.457031 2.667969 1.015625 5.507813 1.507813 8.363282 1.453125 24.0625 0 22.699218-27.480469 19.796874-42.753906-.257812-1.109375-.425781-2.21875-.683593-3.15625-.386719-1.566406.148437-3.21875 1.375-4.265625 1.226562-1.046875 2.941406-1.3125 4.425781-.683594 16.984375 7.335938 29.015625 31.316406 36.011719 46.761719 1.878906 4.179687 3.414062 7.765625 4.609375 10.238281.671875 1.355469 2.011718 2.25 3.523437 2.355469 1.507813.105469 2.960938-.59375 3.816407-1.839844 8.191406-12.289062 11.007812-40.707031 11.945312-51.882812.085938-.769531.085938-1.453125.171875-2.050781.132813-1.398438.941406-2.644532 2.164063-3.339844 1.222656-.695313 2.707031-.753906 3.976562-.15625 37.589844 17.8125 66.566406 49.828125 80.554688 89 2.121093 5.949218 3.886718 12.019531 5.292968 18.175781.472656 1.839844 2.101563 3.148437 4 3.207031 1.898438.058594 3.605469-1.144531 4.191406-2.949218 3.007813-12.464844 4.554688-25.238282 4.609376-38.058594.167968-5.460938.085937-10.324219-.171876-14.082032-.148437-1.976562 1.089844-3.796874 2.984376-4.390624 1.894531-.589844 3.949218.203124 4.953124 1.917968 29.539063 52.625 46.425782 111.40625 49.320313 171.691406 7.9375 143.871094-102.230469 269.652344-246.355469 269.992188zm0 0" fill="#2e7d32"/><path d="m244.570312 503.300781c-132.59375-5.0625-237.144531-114.613281-236.015624-247.296875-.210938-61.523437 13.515624-122.292968 40.148437-177.75.027344 12.84375 1.515625 25.640625 4.4375 38.144532.535156 1.84375 2.25 3.089843 4.167969 3.03125 1.917968-.0625 3.550781-1.414063 3.964844-3.289063 1.332031-6.136719 3.066406-12.179687 5.199218-18.089844.621094 6.191407 1.714844 12.324219 3.265625 18.347657.503907 1.847656 2.210938 3.109374 4.125 3.046874 1.914063-.058593 3.539063-1.425781 3.921875-3.304687 9.324219-42.710937 36.144532-79.550781 73.925782-101.546875.921874 11.179688 3.769531 39.511719 11.734374 51.800781.835938 1.253907 2.285157 1.960938 3.789063 1.855469 1.507813-.105469 2.839844-1.007812 3.496094-2.371094 1.179687-2.386718 2.5625-5.972656 4.53125-10.152344 1.136719 3.742188 2.742187 7.328126 4.78125 10.667969.820312 1.25 2.253906 1.957031 3.75 1.851563 1.492187-.105469 2.8125-1.011719 3.449219-2.367188 4.363281-9.214844 13.832031-34.472656 28.417968-48.894531-2.851562 15.273437-4.191406 42.753906 19.445313 42.753906 2.832031.046875 5.648437-.445312 8.296875-1.453125 2.617187 1.015625 5.410156 1.511719 8.214844 1.453125 23.628906 0 22.289062-27.480469 19.441406-42.753906 14.582031 14.421875 23.96875 39.679687 28.328125 48.894531.660156 1.363282 1.996093 2.265625 3.5 2.371094 1.507812.105469 2.957031-.601562 3.796875-1.855469 2.0625-3.363281 3.675781-6.976562 4.804687-10.753906 1.84375 4.179687 3.355469 7.765625 4.53125 10.238281.636719 1.355469 1.957031 2.261719 3.453125 2.367188 1.492188.105468 2.925782-.601563 3.75-1.851563 8.046875-12.289062 10.820313-40.707031 11.742188-51.882812 37.769531 22.042969 64.578125 58.90625 73.914062 101.628906.417969 1.875 2.050782 3.226563 3.96875 3.289063 1.917969.058593 3.632813-1.1875 4.164063-3.03125 1.515625-6.0625 2.605469-12.21875 3.269531-18.433594 2.085938 5.953125 3.820312 12.023437 5.195312 18.175781.386719 1.878906 2.007813 3.246094 3.921876 3.304687 1.914062.0625 3.621093-1.199218 4.125-3.046874 2.960937-12.472657 4.476562-25.242188 4.523437-38.058594 23.28125 48.59375 36.703125 101.324218 39.484375 155.136718 7.585938 140.796876-95.925781 264.277344-232.960938 269.824219zm0 0" fill="#4cae50"/><path d="m153.621094 119.46875c-2.851563 0-5.699219.171875-8.53125.511719-24.664063 2.726562-46.480469 17.214843-58.5625 38.886719-12.082032 21.667968-12.929688 47.847656-2.28125 70.257812.851562 1.789062 1.792968 3.582031 2.816406 5.289062 11.023438-4.847656 22.648438-8.207031 34.558594-9.984374 7.769531-1.226563 15.605468-1.996094 23.46875-2.304688 2.816406-.167969 5.632812-.253906 8.53125-.253906 10.71875-.046875 21.425781.808594 32 2.558594 6.871094 1.085937 13.660156 2.652343 20.308594 4.695312 4.863281 1.445312 9.625 3.214844 14.253906 5.289062 6.738281-11.582031 10.269531-24.746093 10.238281-38.144531 0-42.414062-34.382813-76.800781-76.800781-76.800781zm0 0" fill="#f4f4f4"/><path d="m358.421875 119.46875c-2.851563 0-5.703125.171875-8.53125.511719-24.664063 2.726562-46.480469 17.214843-58.5625 38.886719-12.082031 21.667968-12.929687 47.847656-2.28125 70.257812.851563 1.789062 1.792969 3.582031 2.816406 5.289062 18.386719-7.742187 38.078125-11.910156 58.027344-12.289062 2.8125-.167969 5.628906-.253906 8.53125-.253906 17.699219-.167969 35.324219 2.277344 52.308594 7.253906 4.863281 1.445312 9.621093 3.214844 14.25 5.289062 6.738281-11.582031 10.273437-24.746093 10.242187-38.144531 0-42.414062-34.386718-76.800781-76.800781-76.800781zm0 0" fill="#f4f4f4"/><path d="m204.820312 197.71875c.015626 12.453125-4.539062 24.476562-12.796874 33.792969-12.691407-2.101563-25.539063-3.128907-38.402344-3.070313-3.480469 0-6.824219.101563-10.238282.304688-9.433593.371094-18.835937 1.292968-28.160156 2.765625-15.070312-17.089844-17.035156-42.082031-4.820312-61.316407 12.214844-19.234374 35.671875-28.078124 57.546875-21.703124 21.875 6.378906 36.90625 26.441406 36.871093 49.226562zm0 0" fill="#00bbd3"/><path d="m409.621094 197.71875c.015625 12.453125-4.539063 24.476562-12.800782 33.792969-12.6875-2.101563-25.535156-3.128907-38.398437-3.070313-3.480469 0-6.828125.101563-10.238281.304688-9.433594.371094-18.835938 1.292968-28.160156 2.765625-15.074219-17.089844-17.035157-42.082031-4.820313-61.316407 12.214844-19.234374 35.671875-28.078124 57.546875-21.703124 21.875 6.378906 36.90625 26.441406 36.871094 49.226562zm0 0" fill="#00bbd3"/><path d="m179.222656 196.269531c0 14.140625-11.460937 25.601563-25.601562 25.601563-14.136719 0-25.597656-11.460938-25.597656-25.601563 0-14.136719 11.460937-25.597656 25.597656-25.597656 14.140625 0 25.601562 11.460937 25.601562 25.597656zm0 0" fill="#37474f"/><path d="m384.023438 196.269531c0 14.140625-11.460938 25.601563-25.601563 25.601563-14.136719 0-25.601563-11.460938-25.601563-25.601563 0-14.136719 11.464844-25.597656 25.601563-25.597656 14.140625 0 25.601563 11.460937 25.601563 25.597656zm0 0" fill="#37474f"/><path d="m324.289062 256.855469c0 9.300781-13.738281 24.917969-34.132812 34.132812-5.351562 2.488281-10.960938 4.375-16.726562 5.632813-11.445313 2.730468-23.371094 2.730468-34.816407 0-5.765625-1.257813-11.375-3.144532-16.722656-5.632813-20.398437-9.214843-34.136719-24.832031-34.136719-34.132812 0-13.824219 30.550782-8.277344 68.269532-8.277344 37.714843 0 68.265624-5.546875 68.265624 8.277344zm0 0" fill="#e81e63"/><path d="m256.074219 469.335938h-.101563c-37.359375 0-65.527344-30.191407-58.644531-62.855469l15.53125-73.675781h86.324219l15.53125 73.675781c6.886718 32.664062-21.28125 62.855469-58.640625 62.855469zm0 0" fill="#e81e63"/><path d="m145.089844 162.136719c0 14.136719-11.460938 25.601562-25.601563 25.601562-14.136719 0-25.597656-11.464843-25.597656-25.601562s11.460937-25.601563 25.597656-25.601563c14.140625 0 25.601563 11.464844 25.601563 25.601563zm0 0" fill="#f4f4f4"/><path d="m349.890625 162.136719c0 14.136719-11.464844 25.601562-25.601563 25.601562-14.140624 0-25.601562-11.464843-25.601562-25.601562s11.460938-25.601563 25.601562-25.601563c14.136719 0 25.601563 11.464844 25.601563 25.601563zm0 0" fill="#f4f4f4"/><path d="m256.023438 512.003906h.554687c69.148437-.070312 135.171875-28.839844 182.304687-79.4375 50.421876-53.816406 76.628907-125.917968 72.535157-199.550781-2.804688-61.710937-20.125-121.886719-50.554688-175.644531-3.042969-5.007813-9.097656-7.308594-14.699219-5.585938-5.601562 1.722656-9.320312 7.03125-9.023437 12.882813.453125 9.039062.167969 18.101562-.851563 27.09375-9.832031-27.425781-32.625-64.621094-85.332031-90.453125-3.804687-1.867188-8.289062-1.730469-11.972656.367187-3.683594 2.097657-6.089844 5.878907-6.425781 10.101563-.71875 11.699218-3.097656 23.238281-7.066406 34.261718-8.738282-16.835937-21.792969-36.648437-41.15625-44.984374-4.402344-1.921876-9.511719-1.175782-13.183594 1.917968-3.746094 3.082032-5.425782 8.015625-4.34375 12.742188 3.199218 14.113281 2.558594 26.65625-1.707032 31.9375-5.140624 4.734375-13.050781 4.734375-18.191406 0-4.269531-5.28125-4.890625-17.824219-1.707031-31.949219 1.085937-4.714844-.582031-9.644531-4.3125-12.730469-3.675781-3.082031-8.777344-3.824218-13.183594-1.929687-19.359375 8.339843-32.425781 28.160156-41.136719 44.988281-3.976562-11.015625-6.351562-22.542969-7.058593-34.234375-.347657-4.226563-2.757813-8.003906-6.4375-10.105469-3.683594-2.097656-8.164063-2.246094-11.976563-.390625-52.726562 25.839844-75.519531 63.035157-85.332031 90.453125-1.019531-9-1.304687-18.066406-.855469-27.109375.367188-5.867187-3.371094-11.207031-9.011718-12.871093-5.625-1.734376-11.710938.589843-14.746094 5.632812-34.199219 60.554688-51.835938 129.054688-51.1289065 198.597656 0 67.894532 26.9687505 133.007813 74.9804685 181.019532 48.007813 48.007812 113.121094 74.980468 181.019532 74.980468zm-198.222657-431.257812c.378907 11.15625 1.957031 22.238281 4.710938 33.058594 1.585937 5.636718 6.773437 9.492187 12.628906 9.386718 5.914063-.117187 10.964844-4.292968 12.195313-10.078125 4.898437-22.902343 21.246093-64.855469 75.773437-93.714843 1.085937 15.175781 5.496094 29.925781 12.921875 43.207031 2.570312 3.789062 6.953125 5.945312 11.527344 5.664062 4.597656-.324219 8.664062-3.09375 10.648437-7.253906 6.457031-15.285156 16.273438-28.917969 28.726563-39.882813-2.730469 12.792969-.34375 26.144532 6.644531 37.203126 5.488281 6.675781 13.8125 10.359374 22.445313 9.933593 8.636718.417969 16.960937-3.277343 22.441406-9.964843 6.988281-11.058594 9.375-24.414063 6.648437-37.207032 12.453125 10.964844 22.265625 24.597656 28.714844 39.886719 1.984375 4.164063 6.054687 6.945313 10.65625 7.285156 4.5625.273438 8.9375-1.855469 11.539063-5.613281 7.417968-13.277344 11.824218-28.027344 12.910156-43.195312 54.519531 28.859374 70.878906 70.824218 75.777344 93.703124 1.238281 5.785157 6.304687 9.949219 12.21875 10.050782 5.851562.097656 11.035156-3.753906 12.628906-9.386719 2.75-10.804687 4.328125-21.878906 4.710937-33.023437 23.625 47.808593 37.269531 99.921874 40.105469 153.175781 3.84375 68.949219-20.683594 136.46875-67.882812 186.878906-43.933594 47.175781-105.476563 74-169.941407 74.078125h-.527343c-131.960938 0-238.933594-106.976562-238.933594-238.933594-.132813-60.777344 13.800781-120.761718 40.710937-175.257812zm0 0"/><path d="m128.023438 341.335938h74.316406l-13.355469 63.386718c-3.589844 16.96875.8125 34.648438 11.945313 47.949219 13.589843 16.292969 33.828124 25.558594 55.042968 25.199219h.101563c21.210937.359375 41.445312-8.90625 55.03125-25.199219 11.132812-13.300781 15.539062-30.980469 11.945312-47.949219l-13.34375-63.386718h74.316407c28.265624-.027344 51.171874-22.933594 51.199218-51.199219 0-4.714844-3.820312-8.535157-8.535156-8.535157-4.710938 0-8.53125 3.820313-8.53125 8.535157 0 18.851562-15.28125 34.132812-34.132812 34.132812h-256c-18.851563 0-34.132813-15.28125-34.132813-34.132812 0-4.714844-3.824219-8.535157-8.535156-8.535157-4.714844 0-8.535157 3.820313-8.535157 8.535157.03125 28.265625 22.9375 51.171875 51.203126 51.199219zm119.464843 0v59.734374c0 4.710938 3.820313 8.53125 8.535157 8.53125 4.710937 0 8.53125-3.820312 8.53125-8.53125v-59.734374h27.707031l14.105469 66.902343c2.480468 11.941407-.664063 24.359375-8.53125 33.679688-10.414063 12.199219-25.722657 19.125-41.761719 18.886719h-.101563c-16.039062.238281-31.351562-6.6875-41.765625-18.886719-7.863281-9.320313-11.011719-21.738281-8.53125-33.679688l14.105469-66.902343zm0 0"/><path d="m79.304688 237.964844.078124.117187c.128907.222657.203126.453125.332032.675781.261718.332032.546875.640626.851562.929688.339844.464844.722656.898438 1.144532 1.289062.433593.332032.898437.617188 1.390624.851563.453126.273437.929688.5 1.425782.683594 1.050781.230469 2.125.359375 3.199218.382812.582032-.074219 1.15625-.210937 1.707032-.40625.402344-.0625.796875-.15625 1.1875-.273437 19.957031-8.253906 41.410156-12.273438 63-11.8125 18.699218-.246094 37.304687 2.65625 55.039062 8.585937-8.785156-.882812-17.59375 1.488281-24.746094 6.671875-3.050781 2.917969-4.75 6.972656-4.691406 11.195313 0 19.414062 35.148438 50.347656 76.800782 50.347656 41.648437 0 76.796874-30.898437 76.796874-50.347656.074219-4.230469-1.625-8.300781-4.683593-11.230469-7.152344-5.179688-15.957031-7.554688-24.746094-6.671875 17.734375-5.917969 36.335937-8.808594 55.03125-8.550781 21.589844-.476563 43.046875 3.53125 63.011719 11.769531.125.058594.261718 0 .390625.085937.996093.429688 2.066406.664063 3.148437.691407.769532-.007813 1.53125-.117188 2.269532-.328125.246093-.082032.488281-.179688.726562-.289063.476562-.164062.9375-.375 1.375-.621093.261719-.167969.511719-.355469.75-.554688.367188-.257812.714844-.542969 1.039062-.855469.234376-.273437.449219-.554687.648438-.851562.179688-.25.402344-.453125.566406-.726563.160156-.273437.195313-.425781.3125-.628906l.078125-.121094v-.070312c7.21875-12.6875 11.015625-27.035156 11.015625-41.632813 0-47.128906-38.203125-85.332031-85.332031-85.332031s-85.332031 38.203125-85.332031 85.332031c-.003906 14.59375 3.785156 28.9375 11 41.625v.070313l.058594.074218c.128906.222657.203124.453126.332031.675782.128906.222656.359375.359375.503906.570312l-3.703125.128906c-15.597656.5625-34.988281.5625-50.550781 0l-3.644531-.128906c.136718-.203125.316406-.355468.441406-.570312.128906-.214844.199218-.425782.316406-.632813l.078125-.117187v-.070313c7.222656-12.683593 11.027344-27.027343 11.035156-41.625 0-47.128906-38.207031-85.332031-85.335937-85.332031s-85.332032 38.203125-85.332032 85.332031c-.003906 14.59375 3.785157 28.9375 11 41.625zm57.25-41.695313c0-9.425781 7.640624-17.066406 17.066406-17.066406 9.425781 0 17.066406 7.640625 17.066406 17.066406s-7.640625 17.066407-17.066406 17.066407c-9.425782 0-17.066406-7.640626-17.066406-17.066407zm179.199218 60.585938h8.535156zm25.601563-60.585938c0-9.425781 7.640625-17.066406 17.066406-17.066406s17.066406 7.640625 17.066406 17.066406-7.640625 17.066407-17.066406 17.066407-17.066406-7.640626-17.066406-17.066407zm17.066406-68.265625c37.683594.042969 68.222656 30.582032 68.265625 68.265625-.015625 9.382813-1.988281 18.660157-5.792969 27.238281-11.039062-4.003906-22.484375-6.78125-34.132812-8.277343 9.539062-14.238281 7.042969-33.347657-5.839844-44.652344-12.882813-11.308594-32.152344-11.308594-45.035156 0-12.878907 11.304687-15.378907 30.414063-5.839844 44.652344-11.644531 1.496093-23.09375 4.273437-34.132813 8.277343-3.789062-8.578124-5.753906-17.855468-5.757812-27.238281.042969-37.683593 30.582031-68.222656 68.265625-68.265625zm-76.5 128.46875c11.257813-1.132812 22.617187-.753906 33.773437 1.125-.851562 5.199219-10.546874 16.214844-25.546874 23.964844-.160157-4.605469-3.941407-8.257812-8.550782-8.246094-4.609375.011719-8.375 3.679688-8.507812 8.285156v6.410157c-11.203125 2.832031-22.933594 2.832031-34.132813 0v-6.410157c.007813-3.046874-1.613281-5.867187-4.25-7.398437s-5.890625-1.539063-8.53125-.023437c-2.644531 1.519531-4.28125 4.332031-4.285156 7.382812-14.988281-7.765625-24.679687-18.773438-25.542969-23.964844 11.15625-1.882812 22.511719-2.261718 33.765625-1.125 16.011719.582032 35.808594.582032 51.808594 0zm-128.300781-128.46875c37.6875.042969 68.226562 30.582032 68.269531 68.265625-.019531 9.382813-1.992187 18.660157-5.796875 27.238281-11.039062-4.003906-22.484375-6.78125-34.132812-8.277343 9.542968-14.238281 7.042968-33.347657-5.839844-44.652344-12.882813-11.308594-32.152344-11.308594-45.03125 0-12.882813 11.304687-15.382813 30.414063-5.839844 44.652344-11.648438 1.496093-23.097656 4.273437-34.132812 8.277343-3.792969-8.578124-5.753907-17.855468-5.761719-27.238281.042969-37.683593 30.582031-68.222656 68.265625-68.265625zm0 0"/></svg>