<svg height="512pt" viewBox="0 0 512.20927 512" width="512pt" xmlns="http://www.w3.org/2000/svg"><path d="m503.675781 315.839844c0 136.703125-110.761719 187.730468-247.464843 187.730468-2.902344 0-5.71875 0-8.535157-.082031-132.777343-2.136719-238.933593-53.847656-238.933593-187.648437 1.371093-57.554688 17.121093-113.851563 45.824218-163.757813l18.347656-29.523437c6.824219-9.898438 14.078126-19.371094 21.675782-28.332032l31.484375-31.914062c25.058593-22.566406 54.996093-39.035156 87.46875-48.128906 5.566406-1.46875 11.203125-2.636719 16.894531-3.496094 5.707031-.941406 11.460938-1.539062 17.238281-1.792969 2.816407-.171875 5.71875-.257812 8.535157-.257812 2.8125 0 5.714843.085937 8.53125.257812 5.777343.253907 11.53125.851563 17.238281 1.792969 5.691406.859375 11.332031 2.027344 16.894531 3.496094 32.476562 9.09375 62.410156 25.5625 87.46875 48.128906l31.488281 31.914062c7.59375 8.960938 14.847657 18.433594 21.671875 28.332032l18.347656 29.523437c28.703126 49.90625 44.457032 106.203125 45.824219 163.757813zm0 0" fill="#c42828"/><path d="m478.074219 315.839844c0 133.800781-104.257813 185.511718-234.664063 187.648437-130.40625-2.136719-234.667968-53.847656-234.667968-187.648437 1.320312-57.453125 16.777343-113.699219 45.003906-163.757813l18.023437-29.523437c6.699219-9.898438 13.824219-19.371094 21.28125-28.332032l30.890625-31.914062c24.515625-22.507812 53.941406-38.988281 85.941406-48.128906 5.464844-1.464844 11.003907-2.632813 16.597657-3.496094 5.601562-.941406 11.253906-1.539062 16.929687-1.792969 5.671875.253907 11.328125.851563 16.929688 1.792969 5.589844.863281 11.132812 2.03125 16.597656 3.496094 32 9.140625 61.425781 25.621094 85.9375 48.128906l30.925781 31.914062c7.457031 8.960938 14.582031 18.433594 21.28125 28.332032l18.023438 29.523437c28.214843 50.0625 43.660156 106.304688 44.96875 163.757813zm0 0" fill="#f34335"/><path d="m136.273438 69.582031c-17.574219-10.011719-29.269532-27.859375-31.429688-47.972656-.300781-1.808594-1.722656-3.222656-3.53125-3.511719-1.8125-.289062-3.601562.609375-4.453125 2.230469-9.992187 19.03125-23.433594 57.789063 9.964844 88.515625 3.492187 3.097656 8.105469 4.621094 12.753906 4.203125s8.921875-2.734375 11.804687-6.402344l9.4375-11.820312c3.101563-3.828125 4.378907-8.8125 3.507813-13.660157-.875-4.847656-3.816406-9.074218-8.054687-11.582031zm0 0" fill="#fdc008"/><path d="m405.628906 108.820312c-3.367187 3.011719-7.804687 4.542969-12.3125 4.253907-4.507812-.289063-8.710937-2.375-11.667968-5.789063-.167969-.257812-.425782-.429687-.597657-.683594l-9.472656-11.777343c-3.097656-3.835938-4.371094-8.832031-3.488281-13.683594.886718-4.855469 3.84375-9.078125 8.097656-11.574219 9.75-5.527344 17.804688-13.613281 23.296875-23.382812 4.269531-7.589844 7.023437-15.933594 8.105469-24.574219.269531-1.820313 1.683594-3.253906 3.5-3.546875s3.609375.625 4.4375 2.265625c9.984375 19.03125 23.464844 57.773437-9.898438 88.492187zm0 0" fill="#ff9701"/><path d="m381.648438 107.285156c-.167969-.257812-.425782-.429687-.597657-.683594l-9.472656-11.777343c-3.097656-3.835938-4.371094-8.832031-3.488281-13.683594.886718-4.855469 3.84375-9.078125 8.097656-11.574219 9.75-5.527344 17.804688-13.613281 23.296875-23.382812 5.601563 22.09375-1.226563 45.488281-17.835937 61.101562zm0 0" fill="#fdc008"/><path d="m77.007812 170.773438-51.199218-42.667969 18.601562-24.578125 28.503906 19.03125 21.160157 14.078125zm0 0" fill="#f34335"/><path d="m435.410156 170.773438 51.199219-42.667969-18.601563-24.578125-28.503906 19.03125-21.160156 14.078125zm0 0" fill="#f34335"/><path d="m256.210938 213.4375c0 42.417969-34.386719 76.800781-76.800782 76.800781-2.851562.003907-5.703125-.167969-8.535156-.511719-38.730469-4.496093-67.945312-37.296874-67.945312-76.289062 0-38.988281 29.214843-71.792969 67.945312-76.285156 2.832031-.34375 5.683594-.515625 8.535156-.515625 42.414063 0 76.800782 34.386719 76.800782 76.800781zm0 0" fill="#e6e7e8"/><path d="m239.144531 213.4375c0-42.132812-30.566406-76.285156-68.269531-76.285156s-68.265625 34.152344-68.265625 76.285156 30.5625 76.289062 68.265625 76.289062 68.269531-34.15625 68.269531-76.289062zm0 0" fill="#fff"/><path d="m409.808594 213.4375c0 42.417969-34.382813 76.800781-76.800782 76.800781-2.851562.003907-5.699218-.167969-8.53125-.511719-38.730468-4.496093-67.949218-37.296874-67.949218-76.289062 0-38.988281 29.21875-71.792969 67.949218-76.285156 2.832032-.34375 5.679688-.515625 8.53125-.515625 42.417969 0 76.800782 34.386719 76.800782 76.800781zm0 0" fill="#e6e7e8"/><path d="m392.742188 213.4375c0-42.132812-30.5625-76.285156-68.265626-76.285156-37.703124 0-68.265624 34.152344-68.265624 76.285156s30.5625 76.289062 68.265624 76.289062c37.703126 0 68.265626-34.15625 68.265626-76.289062zm0 0" fill="#fff"/><path d="m230.609375 213.4375c0 28.277344-22.921875 51.199219-51.199219 51.199219s-51.199218-22.921875-51.199218-51.199219 22.921874-51.199219 51.199218-51.199219 51.199219 22.921875 51.199219 51.199219zm0 0" fill="#8ac24a"/><path d="m384.210938 213.4375c0 28.277344-22.925782 51.199219-51.203126 51.199219-28.277343 0-51.199218-22.921875-51.199218-51.199219s22.921875-51.199219 51.199218-51.199219c28.277344 0 51.203126 22.921875 51.203126 51.199219zm0 0" fill="#8ac24a"/><path d="m213.542969 213.4375c0 18.851562-15.28125 34.132812-34.132813 34.132812-18.851562 0-34.132812-15.28125-34.132812-34.132812s15.28125-34.132812 34.132812-34.132812c18.851563 0 34.132813 15.28125 34.132813 34.132812zm0 0" fill="#37474f"/><path d="m367.144531 213.4375c0 18.851562-15.285156 34.132812-34.136719 34.132812-18.851562 0-34.132812-15.28125-34.132812-34.132812s15.28125-34.132812 34.132812-34.132812c18.851563 0 34.136719 15.28125 34.136719 34.132812zm0 0" fill="#37474f"/><path d="m205.007812 324.371094h51.203126v8.535156c0 14.136719-11.464844 25.597656-25.601563 25.597656s-25.601563-11.460937-25.601563-25.597656zm0 0" fill="#f5efca"/><path d="m256.210938 324.371094h51.199218v8.535156c0 14.136719-11.460937 25.597656-25.601562 25.597656-14.136719 0-25.597656-11.460937-25.597656-25.597656zm0 0" fill="#f5efca"/><path d="m162.34375 179.304688c0 14.140624-11.460938 25.601562-25.601562 25.601562-14.136719 0-25.597657-11.460938-25.597657-25.601562 0-14.136719 11.460938-25.597657 25.597657-25.597657 14.140624 0 25.601562 11.460938 25.601562 25.597657zm0 0" fill="#fff"/><path d="m315.941406 179.304688c0 14.140624-11.460937 25.601562-25.597656 25.601562-14.140625 0-25.601562-11.460938-25.601562-25.601562 0-14.136719 11.460937-25.597657 25.601562-25.597657 14.136719 0 25.597656 11.460938 25.597656 25.597657zm0 0" fill="#fff"/><path d="m487.035156 138.867188 10.164063 11.851562c3.113281 3.371094 8.332031 3.675781 11.816406.691406 3.488281-2.984375 3.988281-8.191406 1.136719-11.785156l-51.199219-59.734375c-1.941406-2.449219-5.066406-3.636719-8.148437-3.105469-3.078126.535156-5.617188 2.710938-6.621094 5.671875-1 2.960938-.304688 6.234375 1.816406 8.527344l9.25 10.796875-13.652344 9.113281c-4.375-6.042969-8.890625-11.90625-13.542968-17.589843 2.898437-5.675782 4.976562-11.734376 6.167968-17.996094 6.851563-36.804688-17.894531-70.382813-18.953125-71.789063-2.203125-2.9375-6.039062-4.136719-9.523437-2.976562-3.484375 1.160156-5.835938 4.421875-5.835938 8.09375.699219 15.351562-4.359375 30.410156-14.183594 42.226562-40.386718-33.109375-84.980468-50.757812-129.515624-50.757812-44.539063 0-89.210938 17.679687-129.632813 50.851562-9.777344-11.875-14.792969-26.957031-14.070313-42.320312 0-3.671875-2.351562-6.933594-5.835937-8.09375-3.484375-1.160157-7.320313.039062-9.523437 2.976562-1.058594 1.40625-25.8125 34.984375-18.9375 71.789063 1.195312 6.261718 3.273437 12.320312 6.171874 17.996094-4.671874 5.691406-9.183593 11.554687-13.542968 17.589843l-13.652344-9.113281 9.230469-10.796875c2.121093-2.292969 2.820312-5.566406 1.816406-8.527344-1.003906-2.960937-3.542969-5.136719-6.621094-5.671875-3.078125-.53125-6.207031.65625-8.148437 3.105469l-51.199219 59.734375c-2.121094 2.296875-2.816406 5.566406-1.816406 8.527344 1.003906 2.960937 3.542969 5.136718 6.625 5.671875 3.078125.535156 6.203125-.65625 8.144531-3.105469l10.164062-11.851562 18.441407 15.359374c-27.410157 49.542969-42.375 105.003907-43.613281 161.613282 0 126.566406 90.914062 196.265625 256 196.265625 165.085937 0 256-69.699219 256-196.265625-1.242188-56.605469-16.210938-112.0625-43.617188-161.605469zm8.109375 176.972656c0 155.910156-149.703125 179.199218-238.933593 179.199218-89.234376 0-238.933594-23.289062-238.933594-179.199218 1.171875-52.609375 14.867187-104.179688 39.953125-150.433594l14.316406 11.945312c3.625 3.015626 9.007813 2.523438 12.023437-1.101562 3.015626-3.625 2.523438-9.007812-1.101562-12.023438l-45.976562-38.324218 9.488281-11.09375 22.019531 14.679687.066406.066407.136719.070312 21.144531 14.085938c2.535156 1.800781 5.847656 2.078124 8.648438.722656 2.796875-1.351563 4.640625-4.117188 4.808594-7.222656.167968-3.101563-1.363282-6.050782-4-7.699219l-13.75-9.144531c3.023437-4.164063 6.121093-8.246094 9.292968-12.238282 6.421875 7.300782 13.898438 13.597656 22.1875 18.679688 2.59375 1.617187 5.847656 1.726562 8.542969.289062s4.417969-4.199218 4.523437-7.253906c.101563-3.050781-1.429687-5.925781-4.019531-7.542969-15.464843-8.34375-26.597656-22.933593-30.558593-40.054687-1.90625-12.3125-.429688-24.90625 4.265624-36.445313 3.675782 12.277344 10.679688 23.292969 20.242188 31.828125.058594.078125.078125.179688.136719.246094.316406.289062.65625.550781 1.015625.785156 9.519531 8.167969 20.894531 13.886719 33.125 16.660156 4.578125.632813 8.832031-2.488281 9.59375-7.050781.757812-4.558593-2.25-8.894531-6.785156-9.777343-5.84375-1.222657-11.445313-3.410157-16.570313-6.46875 21.617187-17.773438 46.625-30.964844 73.496094-38.785157v11c0 4.714844 3.820312 8.535157 8.53125 8.535157 4.714843 0 8.535156-3.820313 8.535156-8.535157v-14.746093c5.652344-.933594 11.347656-1.558594 17.066406-1.875v33.6875c0 4.714843 3.820313 8.535156 8.535157 8.535156 4.710937 0 8.53125-3.820313 8.53125-8.535156v-33.6875c5.71875.316406 11.417968.941406 17.066406 1.875v14.746093c0 4.714844 3.820312 8.535157 8.535156 8.535157 4.710938 0 8.53125-3.820313 8.53125-8.535157v-11c26.832031 7.800781 51.800781 20.96875 73.386719 38.707031-5.109375 3.066407-10.683594 5.28125-16.503907 6.554688-4.523437.90625-7.503906 5.242188-6.734374 9.792969.769531 4.546875 5.015624 7.660156 9.585937 7.027343 12.320313-2.789062 23.769531-8.5625 33.339844-16.8125.246093-.230468.570312-.332031.800781-.597656.0625-.066406.078125-.160156.136719-.238281 9.605469-8.546875 16.644531-19.589844 20.335937-31.90625 4.6875 11.527344 6.164063 24.113281 4.265625 36.410156-3.933593 17.167969-15.074219 31.800781-30.574219 40.160157-2.589843 1.617187-4.125 4.492187-4.019531 7.542968.101563 3.050782 1.828125 5.816406 4.523438 7.253906 2.695312 1.4375 5.949219 1.324219 8.542969-.289062 8.289062-5.082031 15.765624-11.378906 22.183593-18.679688 3.175781 3.980469 6.273438 8.058594 9.292969 12.234376l-13.746094 9.164062c-3.925781 2.613281-4.992187 7.910156-2.378906 11.835938 2.609375 3.925781 7.910156 4.992187 11.835938 2.382812l21.152343-14.097656.136719-.066406.066406-.070313 22.019532-14.675781 9.480468 11.09375-45.988281 38.3125c-3.625 3.023437-4.113281 8.410156-1.089844 12.03125 3.019531 3.625 8.40625 4.113281 12.03125 1.09375l14.308594-11.945313c25.046875 46.25 38.714844 97.796875 39.878906 150.382813zm0 0"/><path d="m333.007812 128.105469c-32.765624.046875-62.609374 18.847656-76.796874 48.382812-17.246094-35.898437-57.035157-55.097656-95.867188-46.253906-38.835938 8.84375-66.386719 43.375-66.386719 83.203125s27.550781 74.359375 66.386719 83.203125c38.832031 8.84375 78.621094-10.351563 95.867188-46.253906 18.304687 38.027343 61.667968 56.953125 101.996093 44.507812 40.328125-12.441406 65.492188-52.507812 59.1875-94.238281-6.304687-41.730469-42.179687-72.578125-84.386719-72.550781zm-153.597656 153.601562c-37.703125 0-68.265625-30.566406-68.265625-68.269531s30.5625-68.265625 68.265625-68.265625 68.265625 30.5625 68.265625 68.265625c-.042969 37.6875-30.582031 68.226562-68.265625 68.269531zm153.597656 0c-37.703124 0-68.265624-30.566406-68.265624-68.269531s30.5625-68.265625 68.265624-68.265625c37.703126 0 68.269532 30.5625 68.269532 68.265625-.042969 37.6875-30.582032 68.226562-68.269532 68.269531zm0 0"/><path d="m179.410156 170.773438c-23.566406 0-42.667968 19.101562-42.667968 42.664062 0 23.566406 19.101562 42.667969 42.667968 42.667969 23.5625 0 42.664063-19.101563 42.664063-42.667969-.027344-23.550781-19.113281-42.636719-42.664063-42.664062zm0 68.265624c-14.140625 0-25.601562-11.460937-25.601562-25.601562 0-14.136719 11.460937-25.597656 25.601562-25.597656 14.136719 0 25.597656 11.460937 25.597656 25.597656 0 14.140625-11.460937 25.601562-25.597656 25.601562zm0 0"/><path d="m333.007812 170.773438c-23.5625 0-42.664062 19.101562-42.664062 42.664062 0 23.566406 19.101562 42.667969 42.664062 42.667969 23.566407 0 42.667969-19.101563 42.667969-42.667969-.027343-23.550781-19.113281-42.636719-42.667969-42.664062zm0 68.265624c-14.136718 0-25.597656-11.460937-25.597656-25.601562 0-14.136719 11.460938-25.597656 25.597656-25.597656 14.140626 0 25.601563 11.460937 25.601563 25.597656 0 14.140625-11.460937 25.601562-25.601563 25.601562zm0 0"/><path d="m358.609375 315.839844h-204.800781c-32.972656.035156-59.695313 26.757812-59.734375 59.730468 0 4.714844 3.820312 8.535157 8.535156 8.535157 4.710937 0 8.535156-3.820313 8.535156-8.535157.027344-23.550781 19.113281-42.636718 42.664063-42.664062h42.667968c-.0625 14.234375 8.75 27 22.082032 31.984375 13.332031 4.984375 28.359375 1.136719 37.652344-9.644531 9.292968 10.78125 24.316406 14.628906 37.648437 9.644531s22.144531-17.75 22.082031-31.984375h42.667969c23.550781.027344 42.636719 19.113281 42.667969 42.664062 0 4.714844 3.820312 8.535157 8.53125 8.535157 4.714844 0 8.535156-3.820313 8.535156-8.535157-.039062-32.972656-26.761719-59.695312-59.734375-59.730468zm-128 34.132812c-9.425781 0-17.066406-7.640625-17.066406-17.066406h34.132812c0 9.425781-7.640625 17.066406-17.066406 17.066406zm51.199219 0c-9.425782 0-17.066406-7.640625-17.066406-17.066406h34.132812c0 9.425781-7.640625 17.066406-17.066406 17.066406zm0 0"/><path d="m295.0625 385c-12.269531 5.246094-25.511719 7.851562-38.851562 7.636719-13.351563.15625-26.589844-2.460938-38.878907-7.679688-4.222656-2.097656-9.34375-.378906-11.445312 3.839844-2.097657 4.222656-.378907 9.34375 3.839843 11.445313 14.640626 6.4375 30.492188 9.664062 46.484376 9.464843 15.984374.222657 31.832031-2.980469 46.480468-9.386719 4.21875-2.109374 5.929688-7.234374 3.820313-11.453124-2.105469-4.21875-7.230469-5.929688-11.449219-3.824219zm0 0"/></svg>