<svg height="511pt" viewBox="0 -34 511.98274 511" width="511pt" xmlns="http://www.w3.org/2000/svg"><path d="m469.332031 256.492188c0 117.84375-95.488281 179.199218-213.332031 179.199218-2.816406 0-5.71875 0-8.535156-.171875-113.917969-2.816406-204.800782-64-204.800782-179.027343.335938-33.199219 7.148438-66.011719 20.054688-96.597657l72.105469-101.972656c31.003906-28.375 70.644531-45.503906 112.554687-48.640625h.171875c2.816407-.171875 5.632813-.257812 8.449219-.257812 44.988281 1.042968 88.058594 18.421874 121.171875 48.898437l72.105469 101.972656c12.910156 30.585938 19.722656 63.398438 20.054687 96.597657zm0 0" fill="#9d9c24"/><path d="m443.734375 256.492188c0 115.027343-88.988281 176.210937-200.535156 179.027343-111.546875-2.816406-200.535157-64-200.535157-179.027343.320313-33.15625 6.980469-65.945313 19.628907-96.597657l70.605469-101.972656c30.136718-28.28125 69.011718-45.4375 110.214843-48.640625h.171875c41.199219 3.207031 80.074219 20.363281 110.207032 48.640625l70.613281 101.972656c12.648437 30.652344 19.308593 63.441407 19.628906 96.597657zm0 0" fill="#ccdb39"/><path d="m162.132812 94.359375-25.601562 34.132813c-28.585938-45.738282-89.511719-69.972657-115.371094-75.433594-1.996094-5.480469-4.277344-10.851563-6.824218-16.097656-1.234376-2.546876-1.136719-5.542969.261718-8.007813 1.394532-2.464844 3.914063-4.085937 6.734375-4.339844 109.125-9.453125 140.800781 69.746094 140.800781 69.746094zm0 0" fill="#ccdb39"/><path d="m136.53125 128.492188-13.429688 17.917968c-8.5625 11.328125-22.152343 17.710938-36.335937 17.066406-62.753906-2.679687-68.847656-46.179687-61.167969-69.117187 2.878906-13.894531 1.328125-28.339844-4.4375-41.300781 25.859375 5.460937 86.785156 29.695312 115.371094 75.433594zm0 0" fill="#e81e63"/><path d="m326.65625 145.8125c-3.890625 2.507812-8.003906 4.652344-12.289062 6.402344-5.585938 2.332031-11.351563 4.21875-17.238282 5.632812-13.464844 3.253906-27.277344 4.859375-41.128906 4.777344-2.902344 0-5.71875-.085938-8.535156-.257812-10.992188-.367188-21.917969-1.882813-32.597656-4.519532-10.445313-2.332031-20.425782-6.398437-29.523438-12.035156-1.769531 2-3.367188 4.140625-4.777344 6.402344-6.824218 10.746094-10.273437 23.285156-9.902344 36.011718 0 44.199219 33.625 65.535157 76.632813 68.007813h.339844c2.730469.171875 5.546875.257813 8.363281.257813 47.101562 0 85.332031-21.164063 85.332031-68.265626.546875-15.472656-4.683593-30.589843-14.675781-42.414062zm0 0" fill="#f4f4f4"/><path d="m497.699219 36.960938c-2.550781 5.246093-4.828125 10.617187-6.828125 16.097656-25.890625 5.460937-86.820313 29.695312-115.40625 75.433594l-25.597656-34.132813s31.675781-79.199219 140.796874-69.746094c2.828126.246094 5.355469 1.863281 6.761719 4.328125 1.402344 2.464844 1.503907 5.464844.273438 8.019532zm0 0" fill="#ccdb39"/><path d="m486.398438 94.359375c7.679687 22.953125 1.621093 66.472656-61.183594 69.117187-3.582032.160157-7.167969-.15625-10.667969-.9375-10.253906-2.03125-19.398437-7.773437-25.683594-16.128906l-13.398437-17.917968c21.675781-34.730469 62.039062-57.003907 91.476562-68.183594 7.777344-2.996094 15.765625-5.421875 23.894532-7.25-5.761719 12.960937-7.316407 27.40625-4.4375 41.300781zm0 0" fill="#ac1457"/><path d="m414.546875 162.539062c-10.253906-2.03125-19.398437-7.773437-25.683594-16.128906l-13.398437-17.917968c21.675781-34.730469 62.039062-57.003907 91.476562-68.183594-4.023437 10.898437-4.738281 22.746094-2.046875 34.050781 7.253907 21.589844 2.304688 61.269531-50.347656 68.179687zm0 0" fill="#e81e63"/><path d="m307.199219 188.226562c0 28.273438-22.921875 51.199219-51.199219 51.199219s-51.199219-22.925781-51.199219-51.199219c-.066406-10.957031 3.472657-21.632812 10.066407-30.378906 27.050781 6.371094 55.210937 6.371094 82.261718 0 6.597656 8.746094 10.136719 19.421875 10.070313 30.378906zm0 0" fill="#fdc008"/><path d="m281.597656 188.226562c0 14.136719-11.460937 25.597657-25.597656 25.597657-14.140625 0-25.601562-11.460938-25.601562-25.597657 0-14.140624 11.460937-25.601562 25.601562-25.601562 14.136719 0 25.597656 11.460938 25.597656 25.601562zm0 0" fill="#37474f"/><path d="m213.332031 350.359375c0-14.140625-22.921875-25.601563-51.199219-25.601563-28.277343 0-51.199218 11.460938-51.199218 25.601563 0 14.136719 22.921875 25.597656 51.199218 25.597656 28.277344 0 51.199219-11.460937 51.199219-25.597656zm0 0" fill="#f4f4f4"/><path d="m196.265625 350.359375c0-14.140625-15.28125-25.601563-34.132813-25.601563-18.851562 0-34.132812 11.460938-34.132812 25.601563 0 14.136719 15.28125 25.597656 34.132812 25.597656 18.851563 0 34.132813-11.460937 34.132813-25.597656zm0 0" fill="#f34335"/><path d="m179.199219 350.359375c0-14.140625-7.640625-25.601563-17.066407-25.601563-9.425781 0-17.066406 11.460938-17.066406 25.601563 0 14.136719 7.640625 25.597656 17.066406 25.597656 9.425782 0 17.066407-11.460937 17.066407-25.597656zm0 0" fill="#37474f"/><path d="m426.664062 316.226562c0-14.140624-22.921874-25.601562-51.199218-25.601562s-51.199219 11.460938-51.199219 25.601562c0 14.136719 22.921875 25.597657 51.199219 25.597657s51.199218-11.460938 51.199218-25.597657zm0 0" fill="#f4f4f4"/><path d="m409.597656 316.226562c0-14.140624-15.28125-25.601562-34.132812-25.601562-18.851563 0-34.132813 11.460938-34.132813 25.601562 0 14.136719 15.28125 25.597657 34.132813 25.597657 18.851562 0 34.132812-11.460938 34.132812-25.597657zm0 0" fill="#fdc008"/><path d="m392.53125 316.226562c0-14.140624-7.640625-25.601562-17.066406-25.601562-9.425782 0-17.066406 11.460938-17.066406 25.601562 0 14.136719 7.640624 25.597657 17.066406 25.597657 9.425781 0 17.066406-11.460938 17.066406-25.597657zm0 0" fill="#37474f"/><path d="m307.199219 94.359375c0-14.140625-22.921875-25.601563-51.199219-25.601563s-51.199219 11.460938-51.199219 25.601563c0 14.136719 22.921875 25.597656 51.199219 25.597656s51.199219-11.460937 51.199219-25.597656zm0 0" fill="#f4f4f4"/><path d="m290.132812 94.359375c0-14.140625-15.28125-25.601563-34.132812-25.601563s-34.132812 11.460938-34.132812 25.601563c0 14.136719 15.28125 25.597656 34.132812 25.597656s34.132812-11.460937 34.132812-25.597656zm0 0" fill="#f34335"/><path d="m273.066406 94.359375c0-14.140625-7.640625-25.601563-17.066406-25.601563s-17.066406 11.460938-17.066406 25.601563c0 14.136719 7.640625 25.597656 17.066406 25.597656s17.066406-11.460937 17.066406-25.597656zm0 0" fill="#37474f"/><g fill="#f4f4f4"><path d="m145.066406 256.492188c0 7.933593-10.839844 14.589843-25.601562 16.46875-5.660156.796874-11.40625.796874-17.066406 0-14.761719-1.878907-25.597657-8.535157-25.597657-16.46875 0-7.9375 10.835938-14.59375 25.597657-16.46875 5.660156-.796876 11.40625-.796876 17.066406 0 14.761718 1.875 25.601562 8.53125 25.601562 16.46875zm0 0"/><path d="m315.734375 375.957031c0 7.9375-10.839844 14.59375-25.601563 16.46875-5.660156.796875-11.40625.796875-17.066406 0-14.761718-1.875-25.601562-8.53125-25.601562-16.46875 0-7.082031 8.535156-13.054687 20.824218-15.613281h.082032c1.546875-.375 3.113281-.660156 4.695312-.855469.761719-.128906 1.53125-.210937 2.304688-.253906 2.066406-.246094 4.144531-.363281 6.226562-.34375 2.855469-.023437 5.710938.179687 8.535156.597656 14.761719 1.878907 25.601563 8.535157 25.601563 16.46875zm0 0"/><path d="m290.132812 307.691406c0 7.9375-10.835937 14.59375-25.601562 16.46875-5.660156.796875-11.40625.796875-17.066406 0-14.761719-1.875-25.597656-8.53125-25.597656-16.46875s10.835937-14.59375 25.597656-16.46875c5.660156-.796875 11.40625-.796875 17.066406 0 14.765625 1.875 25.601562 8.53125 25.601562 16.46875zm0 0"/><path d="m435.199219 230.890625c0 7.9375-10.835938 14.59375-25.601563 16.46875-5.660156.796875-11.402344.796875-17.066406 0-14.761719-1.875-25.597656-8.53125-25.597656-16.46875 0-7.933594 10.835937-14.589844 25.597656-16.46875 5.664062-.796875 11.40625-.796875 17.066406 0 14.765625 1.878906 25.601563 8.535156 25.601563 16.46875zm0 0"/></g><path d="m128 256.492188c0 9.425781-7.640625 17.066406-17.066406 17.066406-9.425782 0-17.066406-7.640625-17.066406-17.066406 0-9.425782 7.640624-17.066407 17.066406-17.066407 9.425781 0 17.066406 7.640625 17.066406 17.066407zm0 0" fill="#fdc008"/><path d="m273.066406 307.691406c0 9.425782-7.640625 17.066406-17.066406 17.066406s-17.066406-7.640624-17.066406-17.066406c0-9.425781 7.640625-17.066406 17.066406-17.066406s17.066406 7.640625 17.066406 17.066406zm0 0" fill="#f34335"/><path d="m298.664062 375.957031c0 9.425781-7.640624 17.066407-17.066406 17.066407-9.425781 0-17.066406-7.640626-17.066406-17.066407s7.640625-17.066406 17.066406-17.066406c9.425782 0 17.066406 7.640625 17.066406 17.066406zm0 0" fill="#fdc008"/><path d="m418.132812 230.890625c0 9.425781-7.640624 17.066406-17.066406 17.066406-9.425781 0-17.066406-7.640625-17.066406-17.066406s7.640625-17.066406 17.066406-17.066406c9.425782 0 17.066406 7.640625 17.066406 17.066406zm0 0" fill="#f34335"/><path d="m119.464844 256.492188c0-9.425782-3.820313-17.066407-8.53125-17.066407-4.714844 0-8.535156 7.640625-8.535156 17.066407 0 9.425781 3.820312 17.066406 8.535156 17.066406 4.710937 0 8.53125-7.640625 8.53125-17.066406zm0 0" fill="#2c2f38"/><path d="m264.53125 307.691406c0-9.425781-3.820312-17.066406-8.53125-17.066406-4.714844 0-8.535156 7.640625-8.535156 17.066406 0 9.425782 3.820312 17.066406 8.535156 17.066406 4.710938 0 8.53125-7.640624 8.53125-17.066406zm0 0" fill="#2c2f38"/><path d="m290.132812 375.957031c0-9.425781-3.820312-17.066406-8.535156-17.066406-4.710937 0-8.53125 7.640625-8.53125 17.066406s3.820313 17.066407 8.53125 17.066407c4.714844 0 8.535156-7.640626 8.535156-17.066407zm0 0" fill="#2c2f38"/><path d="m409.597656 230.890625c0-9.425781-3.820312-17.066406-8.53125-17.066406-4.714844 0-8.535156 7.640625-8.535156 17.066406s3.820312 17.066406 8.535156 17.066406c4.710938 0 8.53125-7.640625 8.53125-17.066406zm0 0" fill="#2c2f38"/><path d="m230.398438 188.226562c0 9.421876-7.640626 17.066407-17.066407 17.066407s-17.066406-7.644531-17.066406-17.066407c0-9.425781 7.640625-17.070312 17.066406-17.070312s17.066407 7.644531 17.066407 17.070312zm0 0" fill="#f4f4f4"/><path d="m511.144531 22.421875c-1.226562-2.578125-3.660156-4.371094-6.484375-4.777344-61.953125-8.832031-102.398437 9.027344-127.480468 29.34375-33.71875-29.179687-76.59375-45.632812-121.179688-46.496093-44.582031.867187-87.457031 17.316406-121.175781 46.496093-25.101563-20.324219-65.550781-38.183593-127.503907-29.34375-2.828124.40625-5.269531 2.203125-6.496093 4.785157-1.226563 2.582031-1.078125 5.605468.394531 8.054687 6.554688 10.96875 22.265625 43.230469 16.289062 61.175781-6.375 18.789063-2.949218 39.519532 9.132813 55.253906 6.660156 8.03125 15.269531 14.21875 25.003906 17.972657-11.269531 29.242187-17.203125 60.269531-17.511719 91.605469 0 114.039062 87.089844 187.734374 221.867188 187.734374 134.773438 0 221.867188-73.695312 221.867188-187.734374-.3125-31.335938-6.242188-62.363282-17.511719-91.605469 9.734375-3.753907 18.34375-9.941407 25.003906-17.972657 12.082031-15.734374 15.507813-36.464843 9.128906-55.253906-5.972656-17.917968 9.746094-50.226562 16.289063-61.183594 1.464844-2.453124 1.601562-5.476562.367187-8.054687zm-39.117187 113.84375c-12.082032 15.078125-36.316406 21.238281-70.109375 17.867187-4.699219-.46875-8.894531 2.957032-9.363281 7.660157-.472657 4.699219 2.957031 8.894531 7.65625 9.363281 6.691406.667969 12.894531.972656 18.671874.972656 8.421876.0625 16.824219-.699218 25.097657-2.277344 10.796875 27.625 16.496093 56.980469 16.820312 86.640626 0 103.671874-80.394531 170.664062-204.800781 170.664062-124.410156 0-204.800781-66.992188-204.800781-170.664062.316406-29.675782 6.015625-59.042969 16.820312-86.683594 8.269531 1.578125 16.675781 2.339844 25.09375 2.28125 5.777344 0 11.949219-.308594 18.671875-.972656 4.691406-.472657 8.109375-4.65625 7.636719-9.347657-.46875-4.6875-4.652344-8.105469-9.34375-7.636719-33.800781 3.363282-58.027344-2.796874-70.109375-17.867187-8.40625-11.261719-10.753906-25.929687-6.28125-39.253906 2.859375-10.445313 2.859375-21.460938 0-31.90625 32.464844 9.671875 60.34375 30.742187 78.507812 59.332031 2.496094 4.007812 7.769532 5.230469 11.777344 2.730469 4.003906-2.496094 5.226563-7.769531 2.730469-11.773438-22.601563-35.332031-58.207031-60.34375-99.105469-69.625-1.871094-4.703125-3.824218-9.027343-5.597656-12.648437 53.007812-4.648438 86.304688 12.476562 106.296875 30.242187 0 .054688.050781.121094.09375.171875.171875.195313.417969.28125.605469.460938 10.621094 9.332031 19.203125 20.75 25.21875 33.542968 1.75 4.378907 6.71875 6.503907 11.097656 4.75 4.375-1.753906 6.5-6.722656 4.746094-11.097656-5.628906-12.039062-13.261719-23.039062-22.578125-32.519531 30.375-25.765625 68.695312-40.285156 108.519531-41.113281 39.820312.828125 78.144531 15.347656 108.515625 41.113281-9.316406 9.480469-16.953125 20.476563-22.578125 32.519531-1.753906 4.375.371094 9.347656 4.746094 11.101563 4.375 1.757812 9.34375-.367188 11.101562-4.742188 5.992188-12.789062 14.558594-24.203125 25.164063-33.527343.207031-.199219.46875-.273438.65625-.488282.0625-.066406.070312-.152344.128906-.222656 19.992187-17.757812 53.28125-34.847656 106.265625-30.191406-1.773438 3.621094-3.730469 7.945312-5.597656 12.648437-40.910156 9.292969-76.511719 34.320313-99.105469 69.664063-2.5 4.007812-1.277344 9.28125 2.730469 11.777344 4.003906 2.5 9.277344 1.277343 11.777344-2.730469 18.164062-28.589844 46.042968-49.660157 78.503906-59.332031-2.855469 10.445312-2.855469 21.460937 0 31.90625 4.460937 13.308593 2.113281 27.960937-6.28125 39.210937zm0 0"/><path d="m162.132812 316.226562c-34.046874 0-59.734374 14.675782-59.734374 34.132813 0 19.453125 25.6875 34.132813 59.734374 34.132813 34.046876 0 59.734376-14.679688 59.734376-34.132813 0-19.457031-25.6875-34.132813-59.734376-34.132813zm8.53125 34.132813c0 10.417969-5.050781 17.066406-8.53125 17.066406-3.480468 0-8.535156-6.648437-8.535156-17.066406 0-10.421875 5.054688-17.066406 8.535156-17.066406 3.480469 0 8.53125 6.644531 8.53125 17.066406zm-51.199218 0c0-4.53125 7.136718-10.351563 19.242187-13.894531-2.898437 9.035156-2.898437 18.75 0 27.785156-12.105469-3.542969-19.242187-9.359375-19.242187-13.890625zm66.089844 13.890625c2.902343-9.035156 2.902343-18.75 0-27.785156 12.109374 3.542968 19.246093 9.363281 19.246093 13.894531s-7.136719 10.347656-19.246093 13.890625zm0 0"/><path d="m375.464844 282.089844c-34.046875 0-59.730469 14.679687-59.730469 34.136718 0 19.453126 25.683594 34.132813 59.730469 34.132813 34.050781 0 59.734375-14.679687 59.734375-34.132813 0-19.457031-25.683594-34.136718-59.734375-34.136718zm8.535156 34.136718c0 10.417969-5.050781 17.066407-8.535156 17.066407-3.480469 0-8.53125-6.648438-8.53125-17.066407 0-10.421874 5.050781-17.070312 8.53125-17.070312 3.484375 0 8.535156 6.648438 8.535156 17.070312zm-51.199219 0c0-4.53125 7.132813-10.351562 19.242188-13.894531-2.902344 9.035157-2.902344 18.75 0 27.785157-12.109375-3.542969-19.242188-9.359376-19.242188-13.890626zm66.089844 13.890626c2.902344-9.035157 2.902344-18.75 0-27.785157 12.109375 3.542969 19.242187 9.363281 19.242187 13.894531s-7.132812 10.347657-19.242187 13.890626zm0 0"/><path d="m256 128.492188c34.046875 0 59.734375-14.679688 59.734375-34.132813 0-19.457031-25.6875-34.132813-59.734375-34.132813-34.050781 0-59.734375 14.675782-59.734375 34.132813 0 19.453125 25.683594 34.132813 59.734375 34.132813zm-8.535156-34.132813c0-10.421875 5.050781-17.066406 8.535156-17.066406 3.480469 0 8.53125 6.644531 8.53125 17.066406 0 10.417969-5.050781 17.066406-8.53125 17.066406-3.484375 0-8.535156-6.648437-8.535156-17.066406zm51.199218 0c0 4.53125-7.132812 10.347656-19.242187 13.890625 2.902344-9.035156 2.902344-18.75 0-27.785156 12.109375 3.542968 19.242187 9.363281 19.242187 13.894531zm-66.089843-13.894531c-2.902344 9.035156-2.902344 18.75 0 27.785156-12.109375-3.542969-19.242188-9.359375-19.242188-13.890625s7.132813-10.351563 19.242188-13.894531zm0 0"/><path d="m153.597656 256.492188c0-14.59375-18.335937-25.601563-42.664062-25.601563s-42.667969 11.007813-42.667969 25.601563c0 14.589843 18.339844 25.597656 42.667969 25.597656s42.664062-11.007813 42.664062-25.597656zm-17.066406 0c0 1.707031-6.039062 6.195312-17.066406 7.859374v-15.71875c11.027344 1.664063 17.066406 6.152344 17.066406 7.859376zm-51.199219 0c0-1.707032 6.042969-6.195313 17.066407-7.859376v15.71875c-11.023438-1.664062-17.066407-6.152343-17.066407-7.859374zm0 0"/><path d="m281.597656 350.359375c-24.328125 0-42.664062 11.007813-42.664062 25.597656 0 14.59375 18.335937 25.601563 42.664062 25.601563s42.667969-11.007813 42.667969-25.601563c0-14.589843-18.339844-25.597656-42.667969-25.597656zm-25.597656 25.597656c0-1.707031 6.039062-6.195312 17.066406-7.859375v15.71875c-11.027344-1.664062-17.066406-6.152344-17.066406-7.859375zm34.132812 7.859375v-15.71875c11.023438 1.707032 17.066407 6.136719 17.066407 7.859375 0 1.726563-6.042969 6.195313-17.066407 7.859375zm0 0"/><path d="m213.332031 307.691406c0 14.59375 18.339844 25.601563 42.667969 25.601563s42.664062-11.007813 42.664062-25.601563-18.335937-25.601562-42.664062-25.601562-42.667969 11.007812-42.667969 25.601562zm17.066407 0c0-1.707031 6.042968-6.195312 17.066406-7.859375v15.71875c-11.023438-1.664062-17.066406-6.152343-17.066406-7.859375zm51.199218 0c0 1.707032-6.039062 6.195313-17.066406 7.859375v-15.71875c11.027344 1.664063 17.066406 6.152344 17.066406 7.859375zm0 0"/><path d="m358.398438 230.890625c0 14.59375 18.339843 25.601563 42.667968 25.601563s42.667969-11.007813 42.667969-25.601563c0-14.589844-18.339844-25.597656-42.667969-25.597656s-42.667968 11.007812-42.667968 25.597656zm68.265624 0c0 1.707031-6.039062 6.195313-17.066406 7.859375v-15.71875c11.027344 1.664062 17.066406 6.152344 17.066406 7.859375zm-34.132812-7.859375v15.71875c-11.023438-1.707031-17.066406-6.136719-17.066406-7.859375s6.042968-6.195313 17.066406-7.859375zm0 0"/><path d="m256 265.023438c57.898438 0 93.867188-29.421876 93.867188-76.796876.554687-17.535156-5.425782-34.648437-16.777344-48.019531-2.804688-3.195312-7.535156-3.839843-11.09375-1.511719-20.195313 11.023438-43.007813 16.34375-65.996094 15.394532-22.972656.953125-45.769531-4.355469-65.953125-15.359375-3.558594-2.332031-8.289063-1.6875-11.09375 1.511719-11.359375 13.355468-17.355469 30.457031-16.820313 47.984374 0 47.375 35.96875 76.796876 93.867188 76.796876zm17.066406-76.796876c0 9.421876-7.640625 17.066407-17.066406 17.066407s-17.066406-7.644531-17.066406-17.066407c0-9.425781 7.640625-17.070312 17.066406-17.070312s17.066406 7.644531 17.066406 17.070312zm-85.480468-31.242187c12.664062 6.148437 26.226562 10.230469 40.175781 12.089844-9.660157 14.226562-7.230469 33.414062 5.667969 44.785156 12.898437 11.371094 32.242187 11.371094 45.140624 0 12.898438-11.371094 15.324219-30.558594 5.664063-44.785156 13.953125-1.859375 27.515625-5.941407 40.175781-12.089844 5.777344 9.375 8.691406 20.234375 8.390625 31.242187 0 55.421876-58.789062 59.730469-76.800781 59.730469-18.015625 0-76.800781-4.308593-76.800781-59.730469-.300781-11.007812 2.613281-21.867187 8.386719-31.242187zm0 0"/></svg>