<svg height="512pt" viewBox="0 0 512 512.05842" width="512pt" xmlns="http://www.w3.org/2000/svg"><path d="m469.386719 503.523438h-426.667969c-10.347656-.007813-20.136719-4.714844-26.605469-12.796876-6.46875-8.078124-8.925781-18.65625-6.671875-28.757812l57.511719-233.300781 22.019531-89.429688 5.714844-23.042969c9.515625-42.929687 47.589844-73.480468 91.5625-73.46875h139.605469c43.972656-.011718 82.046875 30.539063 91.5625 73.46875l5.71875 23.042969 22.015625 89.429688 57.515625 233.300781c2.25 10.101562-.203125 20.679688-6.675781 28.757812-6.46875 8.082032-16.253907 12.789063-26.605469 12.796876zm0 0" fill="#6a1b99"/><path d="m444.410156 503.523438h-402.296875c-10.269531-.117188-19.933593-4.882813-26.28125-12.957032-6.347656-8.074218-8.699219-18.589844-6.390625-28.597656l56.488282-233.300781 21.625-89.429688 5.613281-23.042969c8.949219-42.597656 46.390625-73.191406 89.917969-73.46875h120.320312c43.53125.269532 80.976562 30.867188 89.921875 73.46875l5.617187 23.042969 21.621094 89.429688 56.5 233.300781c2.308594 10.003906-.039062 20.515625-6.386718 28.589844-6.34375 8.074218-16.003907 12.839844-26.269532 12.964844zm0 0" fill="#9c27af"/><path d="m119.519531 185.742188c.089844 11.519531-4.414062 22.597656-12.519531 30.785156-8.105469 8.183594-19.140625 12.800781-30.660156 12.820312-23.914063 1.210938-46.359375-11.578125-57.511719-32.765625-2.761719-5.425781-4.882813-11.152343-6.316406-17.066406-2.789063-11.246094-4.109375-22.804687-3.925781-34.390625 0-3.242188.085937-6.398438.257812-9.472656v-.085938c.082031-5.707031.480469-11.402344 1.195312-17.066406 10.066407-93.011719 72.105469-109.140625 75.261719-109.824219-10.277343 27.300781-16.011719 56.097657-16.980469 85.25 0 25.941407 18.945313 45.566407 33.792969 57.003907 10.898438 8.265624 17.332031 21.132812 17.40625 34.8125zm0 0" fill="#fdc008"/><path d="m503.519531 145.125c.1875 11.558594-1.132812 23.089844-3.925781 34.304688v.085937c-1.433594 5.914063-3.550781 11.640625-6.3125 17.066406-11.15625 21.1875-33.597656 33.976563-57.515625 32.765625-3.75.085938-7.492187-.402344-11.09375-1.449218-19-5.175782-32.160156-22.460938-32.085937-42.15625.078124-13.679688 6.511718-26.546876 17.410156-34.8125 14.847656-11.4375 33.789062-31.0625 33.789062-57.003907-.554687-23.105469-4.316406-46.023437-11.175781-68.097656-2.988281-9.8125-5.460937-16.210937-5.804687-17.152344 3.160156.683594 65.195312 16.8125 75.265624 109.824219.710938 5.664062 1.109376 11.359375 1.195313 17.066406.167969 3.074219.253906 6.316406.253906 9.558594zm0 0" fill="#ff9701"/><path d="m477.921875 145.125c.183594 11.558594-1.136719 23.089844-3.925781 34.304688v.085937c-1.433594 5.914063-3.554688 11.640625-6.316406 17.066406-8.394532 16.804688-24.433594 28.484375-43.007813 31.316407-19-5.175782-32.160156-22.460938-32.085937-42.15625.078124-13.679688 6.511718-26.546876 17.410156-34.8125 14.847656-11.4375 33.789062-31.0625 33.789062-57.003907-.554687-23.105469-4.316406-46.023437-11.175781-68.097656 18.175781 15.105469 38.484375 42.839844 43.859375 92.671875.714844 5.664062 1.113281 11.359375 1.195312 17.066406.171876 3.074219.257813 6.316406.257813 9.558594zm0 0" fill="#fdc008"/><path d="m187.785156 136.589844c-2.851562 0-5.699218.171875-8.53125.515625-34.21875 4.210937-59.921875 33.277343-59.921875 67.753906 0 34.472656 25.703125 63.539063 59.921875 67.753906 2.832032.34375 5.679688.515625 8.53125.511719 37.703125 0 68.269532-30.5625 68.269532-68.265625s-30.566407-68.269531-68.269532-68.269531zm0 0" fill="#fff"/><path d="m324.320312 136.589844c-2.851562 0-5.703124.171875-8.535156.515625-34.214844 4.210937-59.917968 33.277343-59.917968 67.753906 0 34.472656 25.703124 63.539063 59.917968 67.753906 2.832032.34375 5.683594.515625 8.535156.511719 37.703126 0 68.265626-30.5625 68.265626-68.265625s-30.5625-68.269531-68.265626-68.269531zm0 0" fill="#fff"/><path d="m221.921875 204.859375c0 18.851563-15.285156 34.132813-34.136719 34.132813-18.847656 0-34.132812-15.28125-34.132812-34.132813s15.285156-34.132813 34.132812-34.132813c18.851563 0 34.136719 15.28125 34.136719 34.132813zm0 0" fill="#fdc008"/><path d="m358.453125 204.859375c0 18.851563-15.28125 34.132813-34.132813 34.132813-18.851562 0-34.132812-15.28125-34.132812-34.132813s15.28125-34.132813 34.132812-34.132813c18.851563 0 34.132813 15.28125 34.132813 34.132813zm0 0" fill="#fdc008"/><path d="m204.855469 204.859375c0 9.425781-7.644531 17.066406-17.070313 17.066406-9.425781 0-17.066406-7.640625-17.066406-17.066406s7.640625-17.066406 17.066406-17.066406c9.425782 0 17.070313 7.640625 17.070313 17.066406zm0 0" fill="#37474f"/><path d="m341.386719 204.859375c0 9.425781-7.640625 17.066406-17.066407 17.066406-9.425781 0-17.066406-7.640625-17.066406-17.066406s7.640625-17.066406 17.066406-17.066406c9.425782 0 17.066407 7.640625 17.066407 17.066406zm0 0" fill="#37474f"/><path d="m256.054688 307.257812v25.601563c0 14.136719-11.460938 25.597656-25.601563 25.597656-14.136719 0-25.597656-11.460937-25.597656-25.597656v-18.089844c16.570312-5.160156 33.84375-7.695312 51.199219-7.511719zm0 0" fill="#ffebb2"/><path d="m307.253906 314.769531v18.089844c0 14.136719-11.460937 25.597656-25.601562 25.597656-14.136719 0-25.597656-11.460937-25.597656-25.597656v-25.601563c17.351562-.183593 34.628906 2.351563 51.199218 7.511719zm0 0" fill="#ffebb2"/><path d="m187.785156 179.257812c0 9.425782-7.640625 17.066407-17.066406 17.066407s-17.066406-7.640625-17.066406-17.066407c0-9.425781 7.640625-17.066406 17.066406-17.066406s17.066406 7.640625 17.066406 17.066406zm0 0" fill="#fff"/><path d="m324.320312 179.257812c0 9.425782-7.640624 17.066407-17.066406 17.066407-9.425781 0-17.066406-7.640625-17.066406-17.066407 0-9.425781 7.640625-17.066406 17.066406-17.066406 9.425782 0 17.066406 7.640625 17.066406 17.066406zm0 0" fill="#fff"/><path d="m428.570312.253906c-3.089843-.6875-6.308593.390625-8.359374 2.800782-2.050782 2.414062-2.597657 5.765624-1.417969 8.703124 9.9375 26.304688 15.496093 54.0625 16.460937 82.167969-.171875 9.324219-2.964844 18.414063-8.054687 26.230469l-1.441407-5.792969c-10.582031-46.71875-52-79.957031-99.902343-80.171875h-59.867188c.996094-3.496094 2.691407-6.757812 4.980469-9.582031 4.917969-5.3125 12.003906-8.070313 19.21875-7.484375 4.710938 0 8.53125-3.820312 8.53125-8.535156 0-4.710938-3.820312-8.5312502-8.53125-8.5312502-12.25-.6601558-24.125 4.3164062-32.238281 13.5156252-3.082031 3.71875-5.5 7.941406-7.152344 12.476562-8.640625-12.21875-21.054687-21.261719-35.335937-25.738281-4.558594-1.105469-9.152344 1.671875-10.292969 6.21875-1.140625 4.550781 1.605469 9.164062 6.144531 10.335938 9.644531 3.203124 18.101562 9.242187 24.261719 17.324218h-49.324219c-47.820312.195313-89.195312 33.328125-99.839844 79.949219l-1.492187 6.015625c-5.09375-7.816406-7.886719-16.90625-8.0625-26.230469.960937-28.105469 6.523437-55.863281 16.457031-82.167969 1.179688-2.9375.632812-6.289062-1.417969-8.703124-2.050781-2.410157-5.269531-3.488282-8.359375-2.800782-3.40625.761719-83.4804685 19.996094-83.4804685 144.871094-.2890625 15.0625 1.9687505 30.0625 6.6796875 44.375.089844.328125.199219.652344.324219.972656 7.265625 22.738282 26.109375 39.871094 49.433594 44.945313l-55.371094 224.679687c-2.839844 12.632813.21875 25.871094 8.3125 35.980469 8.089844 10.105469 20.339844 15.988281 33.285156 15.980469h426.667969c12.972656-.011719 25.234375-5.925782 33.324219-16.066406 8.085937-10.144532 11.121093-23.414063 8.242187-36.0625l-55.339844-224.480469c23.324219-5.0625 42.171875-22.195313 49.425781-44.933594.136719-.324219.246094-.652344.332032-.992187 4.714844-14.316407 6.972656-29.328126 6.683594-44.398438 0-124.875-80.078126-144.109375-83.484376-144.871094zm-242.320312 51.003906h58.566406c1.203125 3.339844 2.164063 6.761719 2.875 10.242188.140625.523438.339844 1.03125.589844 1.515625.117188.398437.269531.789063.449219 1.164063.339843.507812.734375.976562 1.179687 1.398437.222656.296875.460938.582031.714844.851563.535156.386718 1.105469.710937 1.707031.972656.277344.175781.5625.332031.855469.46875.921875.316406 1.890625.46875 2.867188.453125.472656.003906.949218-.039063 1.414062-.117188h.265625c.5-.152343.984375-.351562 1.441406-.597656.539063-.167969 1.058594-.386719 1.554688-.65625.445312-.351563.851562-.75 1.210937-1.1875.402344-.339844.773438-.710937 1.109375-1.117187.28125-.484376.511719-.992188.691407-1.519532.25-.46875.457031-.960937.613281-1.46875.082031-.566406.101562-1.136718.0625-1.707031.066406-.515625.082031-1.035156.050781-1.550781-.3125-2.371094-.492188-4.753906-.539062-7.144532h61.925781c39.984375.195313 74.527343 27.992188 83.277343 67.003907l4.539063 18.277343c-2.960937 2.800782-5.972656 5.394532-8.882813 7.628907-6.734374 5.152343-12.132812 11.839843-15.753906 19.507812-14.734375-23.242187-40.800781-36.796875-68.289062-35.515625-27.488282 1.28125-52.179688 17.203125-64.691406 41.710938-12.519532-24.503906-37.214844-40.417969-64.703126-41.691406-27.488281-1.273438-53.550781 12.285156-68.28125 35.53125-3.617187-7.667969-9.019531-14.355469-15.753906-19.507813-3.085937-2.390625-6.050781-4.9375-8.882812-7.628906l4.582031-18.5c8.804687-38.933594 43.316406-66.640625 83.234375-66.816407zm197.804688 153.601563c0 32.988281-26.746094 59.730469-59.734376 59.730469-32.988281 0-59.734374-26.742188-59.734374-59.730469 0-32.992187 26.746093-59.734375 59.734374-59.734375 32.972657.039062 59.695313 26.757812 59.734376 59.734375zm-196.269532-59.734375c32.992188 0 59.734375 26.742188 59.734375 59.734375 0 32.988281-26.742187 59.730469-59.734375 59.730469-32.988281 0-59.730468-26.742188-59.730468-59.730469.035156-32.976563 26.757812-59.695313 59.730468-59.734375zm-158.835937 51.796875c17.878906.746094 35.042969-7.082031 46.199219-21.078125 2.828124-3.769531 2.0625-9.117188-1.707032-11.945312-3.769531-2.828126-9.121094-2.0625-11.949218 1.707031-8.054688 10.734375-21.535157 15.417969-40.0625 14.035156-3.046876-11.246094-4.5-22.863281-4.308594-34.515625 0-2.78125.136718-5.367188.210937-8.03125 3.488281.414062 6.996094.617188 10.507813.617188 5.386718-.019532 10.769531-.421876 16.101562-1.203126 4.664063-.675781 7.902344-5.003906 7.226563-9.667968-.671875-4.667969-5.003907-7.902344-9.667969-7.230469-7.625 1.195313-15.375 1.339844-23.039062.425781 6.269531-59.730468 34.449218-85.605468 52.785156-96.246094-7.089844 22.726563-10.945313 46.335938-11.460938 70.136719 0 29.132813 20.199219 50.765625 37.140625 63.777344 8.816407 6.632813 14.023438 17.011719 14.0625 28.050781-.023437 9.507813-3.832031 18.613282-10.582031 25.308594-6.363281 6.277344-14.957031 9.773438-23.894531 9.726562-18.988281 1.15625-37.140625-7.953124-47.5625-23.867187zm465.398437 266.914063c1.683594 7.574218-.160156 15.503906-5.011718 21.5625-4.851563 6.054687-12.1875 9.585937-19.949219 9.59375h-426.667969c-7.726562-.011719-15.039062-3.511719-19.890625-9.527344s-6.726563-13.902344-5.101563-21.457032l55.773438-226.261718c.914062 0 1.859375.101562 2.730469.109375h.734375c13.28125 0 26.023437-5.273438 35.421875-14.660157.246093-.238281.46875-.519531.707031-.765624 7.335938 31.332031 33.453125 54.753906 65.398438 58.644531 31.941406 3.890625 62.917968-12.574219 77.5625-41.230469 14.640624 28.65625 45.617187 45.121094 77.558593 41.234375 31.945313-3.890625 58.0625-27.308594 65.398438-58.640625.238281.246094.460937.527344.710937.769531 9.398438 9.382813 22.136719 14.65625 35.421875 14.660157h.730469c.855469 0 1.820312-.078126 2.730469-.113282zm-58.71875-243.046876c-8.949218.101563-17.5625-3.402343-23.894531-9.726562-6.761719-6.691406-10.582031-15.796875-10.613281-25.308594.039062-11.039062 5.242187-21.417968 14.0625-28.050781 16.945312-13.011719 37.136718-34.644531 37.136718-63.777344-.496093-23.796875-4.34375-47.40625-11.425781-70.128906 18.347657 10.652344 46.515625 36.550781 52.785157 96.238281-7.660157.914063-15.414063.769532-23.039063-.425781-4.664063-.671875-8.992187 2.5625-9.667969 7.230469-.671875 4.664062 2.5625 8.992187 7.226563 9.667968 5.332031.78125 10.714843 1.183594 16.105469 1.203126 3.507812 0 7.015624-.203126 10.503906-.617188.074218 2.664062.210937 5.257812.210937 8.03125.199219 11.648438-1.234375 23.269531-4.265625 34.515625-18.558594 1.382813-32.023437-3.308594-40.105468-14.035156-2.828126-3.769531-8.175782-4.535157-11.949219-1.707031-3.769531 2.828124-4.53125 8.175781-1.703125 11.945312 11.15625 13.992188 28.316406 21.824219 46.199218 21.078125-10.421874 15.917969-28.578124 25.027344-47.566406 23.867187zm0 0"/><path d="m187.785156 230.457031c14.140625 0 25.601563-11.460937 25.601563-25.597656 0-14.140625-11.460938-25.601563-25.601563-25.601563-14.136718 0-25.597656 11.460938-25.597656 25.601563 0 14.136719 11.460938 25.597656 25.597656 25.597656zm0-34.132812c4.714844 0 8.535156 3.820312 8.535156 8.535156 0 4.710937-3.820312 8.53125-8.535156 8.53125-4.710937 0-8.53125-3.820313-8.53125-8.53125 0-4.714844 3.820313-8.535156 8.53125-8.535156zm0 0"/><path d="m324.320312 179.257812c-14.136718 0-25.601562 11.460938-25.601562 25.601563 0 14.136719 11.464844 25.597656 25.601562 25.597656 14.136719 0 25.601563-11.460937 25.601563-25.597656 0-14.140625-11.464844-25.601563-25.601563-25.601563zm0 34.132813c-4.710937 0-8.535156-3.820313-8.535156-8.53125 0-4.714844 3.824219-8.535156 8.535156-8.535156 4.710938 0 8.535157 3.820312 8.535157 8.535156 0 4.710937-3.824219 8.53125-8.535157 8.53125zm0 0"/><path d="m309.863281 306.644531c-17.417969-5.414062-35.570312-8.085937-53.808593-7.917969-4.84375 0-9.601563.164063-14.277344.492188-13.429688.882812-26.703125 3.375-39.535156 7.425781-100.421876 32.238281-108.246094 152.507813-108.320313 153.734375-.132813 2.265625.644531 4.488282 2.15625 6.179688s3.632813 2.710937 5.898437 2.832031h.476563c4.53125.007813 8.28125-3.527344 8.535156-8.054687.050781-1.058594 6.5625-100.460938 85.332031-134.210938v5.734375c-.0625 14.234375 8.75 27 22.082032 31.984375 13.332031 4.984375 28.359375 1.136719 37.652344-9.644531 9.292968 10.78125 24.320312 14.628906 37.652343 9.644531s22.144531-17.75 22.078125-31.984375v-5.734375c78.578125 33.695312 85.292969 133.117188 85.335938 134.21875.304687 4.695312 4.320312 8.277344 9.019531 8.046875 2.261719-.125 4.382813-1.144531 5.890625-2.835937 1.511719-1.691407 2.285156-3.910157 2.15625-6.175782-.085938-1.226562-7.902344-121.546875-108.324219-153.734375zm-79.410156 43.28125c-9.425781 0-17.066406-7.640625-17.066406-17.066406v-11.589844c.65625-.179687 1.304687-.367187 1.972656-.535156 4.265625-1.101563 8.710937-2.050781 13.257813-2.773437.546874-.09375 1.058593-.222657 1.605468-.300782 5.0625-.757812 10.308594-1.21875 15.640625-1.519531.546875 0 1.109375 0 1.65625-.050781v16.769531c0 9.425781-7.640625 17.066406-17.066406 17.066406zm51.199219 0c-9.425782 0-17.066406-7.640625-17.066406-17.066406v-16.769531c.546874 0 1.109374 0 1.65625.050781 5.34375.300781 10.582031.761719 15.640624 1.519531.546876.078125 1.058594.207032 1.597657.289063 4.554687.734375 8.976562 1.707031 13.285156 2.785156.65625.167969 1.296875.355469 1.953125.535156v11.589844c0 9.425781-7.640625 17.066406-17.066406 17.066406zm0 0"/><path d="m273.121094 384.058594h-34.132813c-4.714843 0-8.535156 3.820312-8.535156 8.53125 0 4.714844 3.820313 8.535156 8.535156 8.535156h34.132813c4.710937 0 8.53125-3.820312 8.53125-8.535156 0-4.710938-3.820313-8.53125-8.53125-8.53125zm0 0"/></svg>