<svg height="512pt" viewBox="0 0 512 512.05335" width="512pt" xmlns="http://www.w3.org/2000/svg"><path d="m486.335938 230.429688c0 52.90625-43.007813 111.105468-91.902344 160.085937l-52.992188 48.46875c-33.28125 27.988281-62.976562 49.152344-76.96875 58.796875-5.464844 3.753906-8.535156 5.714844-8.535156 5.714844s-3.070312-1.960938-8.535156-5.714844c-13.992188-9.644531-43.6875-30.808594-76.96875-58.796875l-52.992188-48.46875c-48.894531-48.980469-91.902344-107.179687-91.902344-160.085937 0-119.808594 98.558594-217.429688 221.863282-221.695313 2.816406-.085937 5.632812-.171875 8.535156-.171875 127.230469 0 230.398438 99.328125 230.398438 221.867188zm0 0" fill="#c42828"/><path d="m460.738281 230.429688c0 52.90625-42.179687 111.105468-90.136719 160.085937l-51.96875 48.46875c-32.640624 27.988281-61.773437 49.152344-75.496093 58.796875-13.722657-9.644531-42.855469-30.808594-75.492188-58.796875l-51.96875-48.46875c-47.957031-48.980469-90.136719-107.179687-90.136719-160.085937 1.023438-120.425782 97.210938-218.425782 217.597657-221.695313 120.386719 3.269531 216.574219 101.269531 217.601562 221.695313zm0 0" fill="#f34335"/><path d="m149.765625 373.3125c-2.792969-3.726562-8.0625-4.527344-11.835937-1.792969-7.632813 5.402344-14.519532 11.789063-20.480469 18.996094-17.253907 21-29.867188 55.277344 7.3125 100.164063 2.027343 2.484374 5.277343 3.621093 8.410156 2.945312s5.621094-3.046875 6.449219-6.144531c4.058594-15.789063 12.867187-38.878907 30.820312-48.496094 3.347656-1.78125 6.941406-3.046875 10.667969-3.753906 2.851563-.582031 5.203125-2.589844 6.226563-5.316407 1.023437-2.722656.578124-5.78125-1.183594-8.097656zm0 0" fill="#f34335"/><path d="m387.09375 490.695312c-2.03125 2.480469-5.285156 3.609376-8.414062 2.925782-3.132813-.6875-5.617188-3.066406-6.433594-6.167969-.597656-2.472656-1.363282-5.035156-2.21875-7.765625-4.777344-14.847656-13.398438-32.511719-28.585938-40.703125-3.355468-1.753906-6.949218-3.019531-10.667968-3.753906-2.855469-.566407-5.21875-2.570313-6.242188-5.296875-1.023438-2.730469-.566406-5.792969 1.207031-8.101563l32.085938-42.835937 4.269531-5.71875c2.839844-3.664063 8.0625-4.453125 11.859375-1.792969 7.625 5.425781 14.511719 11.824219 20.480469 19.03125 17.238281 20.992187 29.867187 55.296875-7.339844 100.179687zm0 0" fill="#c42828"/><path d="m370.027344 479.6875c-4.777344-14.847656-13.398438-32.511719-28.585938-40.703125-3.355468-1.753906-6.949218-3.019531-10.667968-3.753906-2.855469-.566407-5.21875-2.570313-6.242188-5.296875-1.023438-2.730469-.566406-5.792969 1.207031-8.101563l32.085938-42.835937c4.0625 3.5 7.804687 7.355468 11.179687 11.519531 15.785156 19.199219 27.734375 49.664063 1.023438 89.171875zm0 0" fill="#f34335"/><path d="m153.539062 128.03125c-2.816406 0-5.632812.167969-8.363281.425781h-.34375c-43.605469 4.378907-76.808593 41.078125-76.808593 84.90625s33.203124 80.53125 76.808593 84.90625h.34375c2.730469.257813 5.546875.425781 8.363281.425781 47.125 0 85.332032-38.203124 85.332032-85.332031 0-47.128906-38.207032-85.332031-85.332032-85.332031zm0 0" fill="#fff"/><path d="m358.335938 128.03125c-2.816407 0-5.628907.167969-8.359376.425781h-.34375c-43.609374 4.378907-76.808593 41.078125-76.808593 84.90625s33.199219 80.53125 76.808593 84.90625h.34375c2.730469.257813 5.542969.425781 8.359376.425781 47.128906 0 85.335937-38.203124 85.335937-85.332031 0-47.128906-38.207031-85.332031-85.335937-85.332031zm0 0" fill="#fff"/><path d="m204.738281 213.363281c0-47.128906-22.925781-85.332031-51.199219-85.332031-28.277343 0-51.203124 38.203125-51.203124 85.332031 0 47.128907 22.925781 85.332031 51.203124 85.332031 28.273438 0 51.199219-38.203124 51.199219-85.332031zm0 0" fill="#ff9701"/><path d="m179.136719 213.363281c0-47.128906-11.460938-85.332031-25.597657-85.332031-14.140624 0-25.601562 38.203125-25.601562 85.332031 0 47.128907 11.460938 85.332031 25.601562 85.332031 14.136719 0 25.597657-38.203124 25.597657-85.332031zm0 0" fill="#37474f"/><path d="m409.539062 213.363281c0-47.128906-22.925781-85.332031-51.203124-85.332031-28.277344 0-51.199219 38.203125-51.199219 85.332031 0 47.128907 22.921875 85.332031 51.199219 85.332031 28.277343 0 51.203124-38.203124 51.203124-85.332031zm0 0" fill="#ff9701"/><path d="m383.9375 213.363281c0-47.128906-11.460938-85.332031-25.601562-85.332031-14.136719 0-25.597657 38.203125-25.597657 85.332031 0 47.128907 11.460938 85.332031 25.597657 85.332031 14.140624 0 25.601562-38.203124 25.601562-85.332031zm0 0" fill="#37474f"/><path d="m290.070312 42.695312c0 18.851563-15.28125 34.136719-34.132812 34.136719s-34.132812-15.285156-34.132812-34.136719c0-18.851562 15.28125-34.132812 34.132812-34.132812s34.132812 15.28125 34.132812 34.132812zm0 0" fill="#ff9701"/><path d="m127.9375 179.230469c0 14.136719-11.460938 25.601562-25.601562 25.601562-14.136719 0-25.597657-11.464843-25.597657-25.601562s11.460938-25.601563 25.597657-25.601563c14.140624 0 25.601562 11.464844 25.601562 25.601563zm0 0" fill="#fff"/><path d="m332.738281 179.230469c0 14.136719-11.460937 25.601562-25.601562 25.601562-14.136719 0-25.597657-11.464843-25.597657-25.601562s11.460938-25.601563 25.597657-25.601563c14.140625 0 25.601562 11.464844 25.601562 25.601563zm0 0" fill="#fff"/><path d="m153.539062 119.496094c-51.84375 0-93.867187 42.027344-93.867187 93.867187 0 51.839844 42.023437 93.867188 93.867187 93.867188 51.839844 0 93.863282-42.027344 93.863282-93.867188-.058594-51.816406-42.050782-93.804687-93.863282-93.867187zm.167969 170.667968h-.085937c-4.761719-1.425781-17.148438-27-17.148438-76.800781s12.378906-75.347656 16.894532-76.800781h.085937c4.761719 1.425781 17.152344 27 17.152344 76.800781s-12.382813 75.351563-16.898438 76.800781zm-76.96875-76.800781c.050781-33.84375 22.222657-63.675781 54.613281-73.488281-8.582031 23.523438-12.636718 48.457031-11.949218 73.488281-.6875 25.03125 3.367187 49.964844 11.949218 73.488281-32.390624-9.8125-54.5625-39.644531-54.613281-73.488281zm99.027344 73.488281c8.570313-23.523437 12.609375-48.460937 11.90625-73.488281.703125-25.027343-3.335937-49.960937-11.90625-73.488281 32.367187 9.824219 54.496094 39.664062 54.496094 73.488281s-22.128907 63.664063-54.496094 73.488281zm0 0"/><path d="m264.472656 213.363281c0 51.839844 42.023438 93.867188 93.863282 93.867188 51.84375 0 93.867187-42.027344 93.867187-93.867188 0-51.839843-42.023437-93.867187-93.867187-93.867187-51.8125.0625-93.804688 42.050781-93.863282 93.867187zm94.035156 76.800781h-.085937c-4.761719-1.425781-17.152344-27-17.152344-76.800781s12.382813-75.347656 16.898438-76.800781h.085937c4.761719 1.425781 17.148438 27 17.148438 76.800781s-12.378906 75.351563-16.894532 76.800781zm-76.96875-76.800781c.050782-33.84375 22.222657-63.675781 54.613282-73.488281-8.582032 23.523438-12.636719 48.457031-11.949219 73.488281-.6875 25.03125 3.367187 49.964844 11.949219 73.488281-32.390625-9.8125-54.5625-39.644531-54.613282-73.488281zm153.597657 0c-.050781 33.84375-22.222657 63.675781-54.613281 73.488281 8.582031-23.523437 12.636718-48.457031 11.949218-73.488281.6875-25.03125-3.367187-49.964843-11.949218-73.488281 32.390624 9.8125 54.5625 39.644531 54.613281 73.488281zm0 0"/><path d="m407.0625 5.148438c-14.292969 3.949218-27.1875 11.839843-37.214844 22.769531-71.382812-37.222657-156.453125-37.222657-227.839844 0-10.019531-10.925781-22.90625-18.816407-37.195312-22.769531-30.636719-7.898438-65 5.523437-102.136719 39.820312-3.378906 3.214844-3.546875 8.550781-.378906 11.972656 3.167969 3.425782 8.5 3.671875 11.96875.550782 32.605469-30.0625 61.617187-42.101563 86.21875-35.8125 9.878906 2.734374 18.890625 7.945312 26.191406 15.136718-67.636719 41.175782-109.132812 114.433594-109.671875 193.613282 0 46.140624 29.996094 100.226562 89.183594 160.835937-16.050781 23.261719-28.84375 65.179687 24.25 118.265625 2.324219 2.316406 5.769531 3.09375 8.863281 2 3.09375-1.089844 5.289063-3.859375 5.644531-7.121094 0-.410156 4.648438-39.132812 24.839844-54.878906 26.101563 21.730469 53.296875 42.117188 81.476563 61.074219.277343.148437.5625.285156.851562.402343.292969.144532.554688.28125.855469.398438 1.878906.785156 3.992188.785156 5.871094 0 .304687-.117188.570312-.253906.851562-.398438.292969-.117187.578125-.253906.855469-.402343 28.214844-18.945313 55.441406-39.316407 81.578125-61.039063 20.1875 15.742188 24.796875 54.46875 24.839844 54.878906.355468 3.261719 2.550781 6.03125 5.644531 7.121094 3.09375 1.09375 6.539063.3125 8.863281-2.003906 53.09375-53.085938 40.300782-95 24.25-118.261719 59.152344-60.644531 89.148438-114.730469 89.148438-160.871093-.542969-79.191407-42.050782-152.457032-109.695313-193.636719 7.292969-7.164063 16.285157-12.359375 26.136719-15.097657 24.667969-6.304687 53.691406 5.703126 86.296875 35.839844 3.46875 3.121094 8.800781 2.875 11.96875-.550781s3-8.757813-.378906-11.976563c-37.136719-34.328124-71.5-47.714843-102.136719-39.859374zm-125.523438 37.546874c0 14.140626-11.464843 25.601563-25.601562 25.601563s-25.601562-11.460937-25.601562-25.601563c0-14.136718 11.464843-25.597656 25.601562-25.597656s25.601562 11.460938 25.601562 25.597656zm196.265626 187.734376c0 40.628906-28.765626 91.570312-83.140626 147.628906-7.042968-7.21875-15.015624-13.46875-23.707031-18.585938-2.675781-1.460937-5.929687-1.382812-8.53125.203125-2.601562 1.589844-4.160156 4.445313-4.085937 7.492188.074218 3.050781 1.765625 5.828125 4.445312 7.289062 9.519532 5.65625 17.996094 12.917969 25.042969 21.460938 22.109375 26.921875 19.628906 56.925781-7.320313 89.351562-4.472656-17.253906-14.34375-42.726562-35.054687-53.820312h-.085937c-9.5625-5-20.53125-6.625-31.128907-4.617188-4.585937.847657-7.640625 5.214844-6.867187 9.808594.773437 4.597656 5.089844 7.722656 9.699218 7.019531 1.972657-.328125 3.972657-.5 5.972657-.511718-24.34375 19.730468-45.601563 35.117187-58.570313 44.179687v-52.097656c0-4.714844-3.824218-8.535157-8.535156-8.535157s-8.535156 3.820313-8.535156 8.535157v52.054687c-12.960938-9.054687-34.207032-24.433594-58.546875-44.203125 2.003906.019531 4 .191407 5.976562.519531 3.027344.558594 6.125-.558593 8.097657-2.921874 1.972656-2.367188 2.519531-5.609376 1.429687-8.492188s-3.652344-4.949219-6.695313-5.414062c-10.578124-2.003907-21.523437-.386719-31.070312 4.589843l-.144531.0625c-20.710938 11.09375-30.585938 36.5625-35.054688 53.820313-26.949219-32.429688-29.433593-62.433594-7.324219-89.355469 7.074219-8.527344 15.546876-15.785156 25.054688-21.46875 4.09375-2.28125 5.578125-7.433594 3.332031-11.542969-2.246093-4.113281-7.386719-5.644531-11.515625-3.433594-8.699218 5.125-16.679687 11.382813-23.730468 18.613282-54.375-56.058594-83.140626-107-83.140626-147.628906.5625-74.285157 40.039063-142.839844 104.003907-180.617188 6.601562 9.15625 11.953125 19.152344 15.90625 29.722656 1.492187 4.476563 6.332031 6.898438 10.808593 5.40625 4.476563-1.492187 6.898438-6.332031 5.40625-10.808594-4.222656-11.59375-9.960937-22.578124-17.066406-32.664062 21.027344-10.613281 43.582032-17.875 66.847656-21.53125-11.402343 17.859375-7.976562 41.378906 8.050782 55.238281s39.792968 13.859375 55.820312 0c16.023438-13.859375 19.453125-37.378906 8.050782-55.238281 23.265624 3.65625 45.820312 10.917969 66.847656 21.53125-7.105469 10.085938-12.84375 21.070312-17.066406 32.664062-.960938 2.898438-.308594 6.085938 1.71875 8.371094 2.027343 2.28125 5.117187 3.308594 8.105468 2.695313 2.992188-.613281 5.425782-2.777344 6.390625-5.671875 3.929688-10.578125 9.265625-20.578125 15.871094-29.730469 63.984375 37.773437 103.472656 106.332031 104.039063 180.632813zm0 0"/><path d="m255.9375 290.164062c-4.710938 0-8.535156 3.820313-8.535156 8.53125v34.136719c0 4.710938 3.824218 8.53125 8.535156 8.53125s8.535156-3.820312 8.535156-8.53125v-34.136719c0-4.710937-3.824218-8.53125-8.535156-8.53125zm0 0"/></svg>