<svg height="512pt" viewBox="0 0 512 512" width="512pt" xmlns="http://www.w3.org/2000/svg"><path d="m145.40625 255.019531c-8.019531-11.777343-21.160156-16.128906-51.539062-16.128906-42.667969 0-34.132813-68.265625 25.597656-51.199219 28.179687 7.144532 51.539062 26.792969 63.40625 53.332032zm0 0" fill="#2295f2"/><path d="m418.132812 238.890625c-30.378906 0-43.519531 4.351563-51.539062 16.128906l-13.742188-5.121093-23.722656-8.875c11.867188-26.539063 35.226563-46.1875 63.40625-53.332032 2.828125-.804687 5.707032-1.429687 8.617188-1.878906 51.882812-8.449219 57.515625 53.078125 16.980468 53.078125zm0 0" fill="#1566bf"/><path d="m400.042969 238.890625c-25.429688 0-38.828125 3.070313-47.191407 11.007813l-23.722656-8.875c11.867188-26.539063 35.226563-46.1875 63.40625-53.332032 2.828125-.804687 5.707032-1.429687 8.617188-1.878906 34.472656 6.65625 34.046875 53.078125-1.109375 53.078125zm0 0" fill="#2295f2"/><path d="m503.464844 417.152344c0 75.433594-110.761719 86.269531-247.464844 86.269531-2.902344 0-5.71875 0-8.535156-.082031-132.777344-.429688-238.929688-12.375-238.929688-86.1875 0-70.570313 97.191406-172.886719 221.863282-185.515625v-56.40625c3.628906-2.855469 7.816406-4.921875 12.289062-6.058594 12.972656-3.242187 25.941406 2.5625 38.914062 6.058594v56.40625c124.671876 12.628906 221.863282 114.945312 221.863282 185.515625zm0 0" fill="#1566bf"/><path d="m477.867188 417.152344c0 73.8125-104.261719 85.757812-234.667969 86.1875-130.40625-.429688-234.664063-12.375-234.664063-86.1875 0-70.570313 95.460938-172.886719 217.90625-185.515625v-56.40625c3.546875-2.851563 7.660156-4.914063 12.066406-6.058594 7.125 1.367187 14.328126 4.097656 21.453126 6.058594v56.40625c122.441406 12.628906 217.90625 114.945312 217.90625 185.515625zm0 0" fill="#2295f2"/><path d="m401.066406 359.464844c0 6.371094-.457031 12.730468-1.363281 19.03125-2.84375 23.523437-14.566406 45.074218-32.769531 60.246094-4.886719 4.105468-10.175782 7.707031-15.785156 10.75-11.15625 6.042968-23.066407 10.574218-35.414063 13.484374-5.292969 1.277344-10.921875 2.386719-16.898437 3.242188-11.355469 1.734375-22.816407 2.703125-34.300782 2.902344-2.734375.167968-5.632812.167968-8.535156.167968s-5.800781 0-8.535156-.167968c-1.449219 0-2.898438-.085938-4.265625-.171875-10.058594-.28125-20.089844-1.195313-30.035157-2.730469-5.976562-.855469-11.605468-1.964844-16.898437-3.242188-12.347656-2.910156-24.257813-7.441406-35.414063-13.484374-5.609374-3.042969-10.898437-6.644532-15.785156-10.75-20.742187-17.65625-33.046875-43.261719-33.878906-70.488282-.398438-6.507812-.371094-13.035156.085938-19.539062.605468-8.148438 1.773437-16.246094 3.5-24.234375.171874-1.109375.425781-2.132813.683593-3.15625.664063-2.859375 2.773438-5.167969 5.558594-6.089844s5.851563-.328125 8.09375 1.566406c5.222656 4.148438 10.855469 7.75 16.8125 10.75 5.234375 2.683594 10.652344 4.992188 16.210937 6.914063 11.164063 4.003906 22.636719 7.085937 34.304688 9.214844 1.363281.339843 2.730469.597656 4.097656.851562 4.433594.769531 8.703125 1.453125 12.796875 1.964844 11.777344 1.621094 22.273438 2.472656 29.867188 2.902344 1.535156.085937 2.988281.085937 4.265625.167968 5.378906.257813 8.535156.257813 8.535156.257813s3.15625 0 8.535156-.257813c7.679688-.253906 19.964844-1.109375 34.132813-3.070312 5.375-.769532 11.09375-1.621094 16.894531-2.816406 11.667969-2.128907 23.140625-5.210938 34.304688-9.214844 5.558593-1.921875 10.976562-4.230469 16.210937-6.914063 1.964844-1.023437 3.84375-2.046875 5.632813-3.15625 3.914062-2.242187 7.652343-4.78125 11.179687-7.59375 2.242187-1.894531 5.308594-2.488281 8.09375-1.566406s4.894531 3.230469 5.558594 6.089844c2.972656 12.496093 4.492187 25.296875 4.523437 38.140625zm0 0" fill="#ced7db"/><path d="m375.464844 359.464844c.003906 6.371094-.453125 12.730468-1.363282 19.03125-2.84375 23.523437-14.566406 45.074218-32.769531 60.246094-4.886719 4.105468-10.175781 7.707031-15.785156 10.75-11.15625 6.042968-23.066406 10.574218-35.414063 13.484374-5.289062 1.277344-10.921874 2.386719-16.894531 3.242188-9.945312 1.535156-19.980469 2.449219-30.039062 2.730469-10.058594-.28125-20.089844-1.195313-30.035157-2.730469-5.976562-.855469-11.605468-1.964844-16.898437-3.242188-12.347656-2.910156-24.257813-7.441406-35.414063-13.484374-5.609374-3.042969-10.898437-6.644532-15.785156-10.75-20.742187-17.65625-33.046875-43.261719-33.878906-70.488282-.398438-6.507812-.371094-13.035156.085938-19.539062.605468-8.148438 1.773437-16.246094 3.5-24.234375 1.792968 1.109375 3.667968 2.132812 5.546874 3.070312 5.234376 2.683594 10.652344 4.992188 16.214844 6.914063 11.160156 4.003906 22.636719 7.085937 34.300782 9.214844 1.367187.339843 2.730468.597656 4.097656.851562 4.4375.769531 8.703125 1.453125 12.800781 1.964844 14.164063 1.960937 26.453125 2.816406 34.132813 3.070312 5.375.257813 8.53125.257813 8.53125.257813s3.160156 0 8.535156-.257813c1.28125-.082031 2.730468-.082031 4.265625-.167968 1.535156.085937 2.988281.085937 4.265625.167968 5.378906.257813 8.535156.257813 8.535156.257813s3.15625 0 8.535156-.257813c7.679688-.253906 19.964844-1.109375 34.132813-3.070312 5.375-.769532 11.09375-1.621094 16.894531-2.816406 11.667969-2.128907 23.140625-5.210938 34.304688-9.214844 5.558593-1.921875 10.976562-4.230469 16.210937-6.914063 1.964844-1.023437 3.84375-2.046875 5.632813-3.15625 2.492187 11.523438 3.75 23.28125 3.753906 35.070313zm0 0" fill="#fff"/><path d="m281.601562 175.230469c40.152344-12.636719 65.074219-52.683594 58.683594-94.289063-6.394531-41.605468-42.191406-72.324218-84.285156-72.324218s-77.890625 30.71875-84.285156 72.324218c-6.390625 41.605469 18.53125 81.652344 58.683594 94.289063zm0 0" fill="#2295f2"/><path d="m304.296875 45.523438c-12.785156-12.839844-30.175781-20.027344-48.296875-19.964844-2.855469-.019532-5.707031.183594-8.535156.597656-15.054688 1.792969-29.066406 8.617188-39.761719 19.367188-26.625 26.695312-26.625 69.902343 0 96.597656 10.695313 10.753906 24.707031 17.578125 39.761719 19.371094 2.828125.414062 5.679687.613281 8.535156.597656 27.628906.023437 52.546875-16.609375 63.121094-42.132813 10.574218-25.523437 4.722656-54.90625-14.824219-74.433593zm0 0" fill="#fff"/><path d="m307.199219 93.824219c0 28.277343-22.921875 51.199219-51.199219 51.199219s-51.199219-22.921876-51.199219-51.199219c0-28.277344 22.921875-51.199219 51.199219-51.199219s51.199219 22.921875 51.199219 51.199219zm0 0" fill="#fdc008"/><path d="m247.464844 68.222656c0 9.425782-7.640625 17.066406-17.066406 17.066406-9.425782 0-17.066407-7.640624-17.066407-17.066406 0-9.425781 7.640625-17.066406 17.066407-17.066406 9.425781 0 17.066406 7.640625 17.066406 17.066406zm0 0" fill="#fff"/><path d="m273.066406 93.824219c0 9.425781-7.640625 17.066406-17.066406 17.066406s-17.066406-7.640625-17.066406-17.066406 7.640625-17.066407 17.066406-17.066407 17.066406 7.640626 17.066406 17.066407zm0 0" fill="#37474f"/><path d="m256 511.957031c123.863281 0 256-7.320312 256-94.804687 0-55.714844-53.171875-125.117188-130.421875-164.402344 11.625-4.519531 24.125-6.34375 36.554687-5.328125 13.570313.808594 26.28125-6.660156 32.179688-18.90625 5.578125-12.695313 3.285156-27.472656-5.871094-37.882813-11.683594-13.601562-31.453125-17.652343-54.253906-11.144531-28.027344 7.320313-51.769531 25.917969-65.589844 51.371094-11.328125-3.015625-22.839844-5.296875-34.464844-6.824219v-42.941406c29.511719-11.472656 51.230469-37.078125 57.734376-68.066406 6.503906-30.988282-3.085938-63.164063-25.496094-85.53125-26.839844-26.839844-67.203125-34.875-102.273438-20.355469-35.070312 14.515625-57.945312 48.726563-57.964844 86.683594-.078124 38.652343 23.675782 73.351562 59.734376 87.269531v42.941406c-11.625 1.527344-23.136719 3.808594-34.464844 6.824219-13.820313-25.453125-37.5625-44.050781-65.589844-51.371094-22.808594-6.519531-42.582031-2.457031-54.253906 11.144531-9.15625 10.410157-11.449219 25.1875-5.871094 37.882813 5.898438 12.246094 18.609375 19.714844 32.179688 18.90625 12.429687-1.015625 24.929687.808594 36.554687 5.328125-77.25 39.285156-130.421875 108.6875-130.421875 164.402344 0 87.484375 132.136719 94.804687 256 94.804687zm138.878906-316.066406c16.121094-4.597656 29.476563-2.472656 36.601563 5.855469 4.769531 5.367187 6.058593 12.988281 3.320312 19.625-3.203125 6.113281-9.800781 9.667968-16.667969 8.984375-24.960937 0-42.417968 2.492187-53.980468 14.21875-7.394532-3.1875-14.988282-6.070313-22.777344-8.652344 11.792969-19.9375 31.050781-34.34375 53.503906-40.03125zm-215.679687-102.066406c.003906-39.398438 29.820312-72.40625 69.015625-76.398438 39.199218-3.996093 75.058594 22.320313 83.007812 60.910157 7.945313 38.589843-14.597656 76.933593-52.183594 88.753906-14.96875 4.789062-31.058593 4.789062-46.027343 0-32-10.070313-53.777344-39.71875-53.8125-73.265625zm-85.332031 136.53125c-6.863282.6875-13.457032-2.859375-16.667969-8.96875-2.738281-6.636719-1.449219-14.257813 3.320312-19.625 7.136719-8.320313 20.480469-10.460938 36.601563-5.855469 22.464844 5.671875 41.742187 20.074219 53.546875 40.015625-7.765625 2.582031-15.359375 5.464844-22.777344 8.652344-11.605469-11.726563-29.0625-14.21875-54.023437-14.21875zm53.957031 32.847656c.253906-.085937.492187-.238281.75-.351563 12.121093-5.574218 24.636719-10.238281 37.453125-13.953124.101562 0 .203125 0 .304687-.066407l.070313-.050781c14.675781-4.214844 29.695312-7.109375 44.886718-8.652344 4.375-.441406 7.699219-4.136718 7.679688-8.535156v-45.421875c11.277344 2.125 22.855469 2.125 34.132812 0v45.464844c-.023437 4.398437 3.300782 8.09375 7.679688 8.535156 15.1875 1.539063 30.210938 4.4375 44.886719 8.652344l.066406.050781c.101563.042969.214844 0 .316406.066406 12.800781 3.714844 25.308594 8.378906 37.417969 13.953125.257812.109375.496094.265625.75.351563 79.046875 36.554687 130.714844 106.511718 130.714844 153.90625 0 64.519531-95.515625 77.738281-238.933594 77.738281s-238.933594-13.21875-238.933594-77.738281c0-47.394532 51.667969-117.351563 130.757813-153.949219zm0 0"/><path d="m298.238281 136.0625c20.152344-20.148438 23.265625-51.726562 7.433594-75.421875-15.828125-23.695313-46.195313-32.910156-72.523437-22.003906-26.328126 10.902343-41.289063 38.886719-35.730469 66.835937 5.558593 27.949219 30.085937 48.082032 58.582031 48.085938 15.839844-.007813 31.03125-6.300782 42.238281-17.496094zm-72.414062-72.414062c16.664062-16.65625 43.679687-16.65625 60.339843.007812 16.660157 16.660156 16.660157 43.675781 0 60.335938-16.660156 16.664062-43.675781 16.664062-60.339843.003906-8.066407-7.964844-12.605469-18.832032-12.605469-30.171875 0-11.339844 4.539062-22.207031 12.605469-30.175781zm0 0"/><path d="m281.601562 93.824219c0-14.140625-11.464843-25.601563-25.601562-25.601563s-25.601562 11.460938-25.601562 25.601563c0 14.136719 11.464843 25.597656 25.601562 25.597656s25.601562-11.460937 25.601562-25.597656zm-34.136718 0c0-4.714844 3.824218-8.535157 8.535156-8.535157s8.535156 3.820313 8.535156 8.535157c0 4.710937-3.824218 8.53125-8.535156 8.53125s-8.535156-3.820313-8.535156-8.53125zm0 0"/><path d="m238.933594 315.691406c4.710937 0 8.53125-3.820312 8.53125-8.535156 0-4.710938-3.820313-8.53125-8.53125-8.53125-.476563.03125-.953125-.023438-1.410156-.164062-1.171876-4.726563-.828126-9.703126.984374-14.222657.960938-2.898437.300782-6.085937-1.726562-8.367187-2.027344-2.277344-5.117188-3.304688-8.105469-2.6875-2.988281.617187-5.421875 2.78125-6.382812 5.675781-1.050781 3.160156-5.972657 19.429687 1.367187 29.5625 3.539063 4.839844 9.28125 7.574219 15.273438 7.269531zm0 0"/><path d="m270.933594 315.691406c5.988281.300782 11.726562-2.433594 15.265625-7.269531 7.304687-10.132813 2.414062-26.402344 1.367187-29.5625-.960937-2.894531-3.394531-5.058594-6.382812-5.675781-2.988282-.617188-6.078125.410156-8.105469 2.6875-2.027344 2.28125-2.6875 5.46875-1.726563 8.367187 1.792969 4.507813 2.152344 9.460938 1.03125 14.179688-.460937.175781-.957031.246093-1.449218.207031-4.714844 0-8.535156 3.820312-8.535156 8.53125 0 4.714844 3.820312 8.535156 8.535156 8.535156zm0 0"/><path d="m400.539062 304.203125c-1.128906-3.101563-3.941406-5.273437-7.226562-5.582031-3.28125-.308594-6.453125 1.304687-8.136719 4.140625-.195312.394531-25.921875 38.527343-129.175781 38.527343-102.945312 0-128.777344-37.859374-129.269531-38.613281-1.714844-2.777343-4.863281-4.332031-8.113281-4.007812-3.246094.324219-6.023438 2.476562-7.15625 5.535156-1.058594 2.867187-25.429688 70.71875 10.019531 121.558594 24.089843 34.542969 69.351562 52.0625 134.519531 52.0625s110.429688-17.519531 134.519531-52.054688c35.449219-50.847656 11.078125-118.699219 10.019531-121.566406zm-12.171874 19.628906c3.105468 13.308594 4.464843 26.964844 4.046874 40.625-6.511718 3.621094-15.136718 8.039063-25.480468 12.519531v-39.542968c7.644531-3.703125 14.835937-8.277344 21.433594-13.628906zm-72.632813 29.644531c11.601563-2.019531 23.015625-4.988281 34.132813-8.875v39.097657c-11.160157 4.101562-22.558594 7.519531-34.132813 10.242187zm-17.066406 43.929688c-11.289063 1.902344-22.691407 3.042969-34.132813 3.414062v-42.609374c12.414063-.246094 23.78125-1.023438 34.132813-2.234376zm-51.203125 3.320312c-11.46875-.46875-22.882813-1.859374-34.132813-4.164062v-40.585938c10.351563 1.210938 21.71875 1.988282 34.132813 2.234376zm-51.199219-8.347656c-11.71875-3.398437-23.136719-7.769531-34.132813-13.0625v-34.714844c11.117188 3.886719 22.53125 6.855469 34.132813 8.875zm-34.132813 5.804688c11.058594 4.816406 22.46875 8.785156 34.132813 11.859375v44.066406c-11.996094-2.972656-23.496094-7.679687-34.132813-13.976563zm51.199219 15.820312c11.265625 2.132813 22.675781 3.414063 34.132813 3.839844v42.664062c-11.425782-.210937-22.828125-1.175781-34.132813-2.882812zm51.203125 3.882813c11.429688-.363281 22.828125-1.425781 34.132813-3.183594v42.898437c-11.304688 1.699219-22.707031 2.65625-34.132813 2.875zm51.199219-6.425781c11.550781-2.546876 22.945313-5.746094 34.132813-9.582032v38.269532c-10.632813 6.304687-22.132813 11.011718-34.132813 13.976562zm-170.667969-74.027344v33c-8.84375-5.101563-17.339844-10.789063-25.429687-17.015625.445312-9.964844 1.789062-19.871094 4.011719-29.59375 6.59375 5.339843 13.78125 9.90625 21.417968 13.609375zm-9.53125 78.652344c-8.265625-12.226563-13.421875-26.289063-15.019531-40.960938 7.898437 5.398438 16.09375 10.339844 24.550781 14.804688v37.335937c-3.507812-3.429687-6.699218-7.171875-9.53125-11.179687zm240.980469-.085938c-2.84375 4.023438-6.050781 7.78125-9.582031 11.222656v-31.761718c8.636718-3.507813 16.308594-7.066407 22.886718-10.367188-2.375 11.070312-6.894531 21.570312-13.304687 30.90625zm0 0"/></svg>