<svg height="512pt" viewBox="0 0 512 512.00071" width="512pt" xmlns="http://www.w3.org/2000/svg"><path d="m486.136719 503.46875h-460.285157c-5.035156.035156-9.828124-2.140625-13.113281-5.953125-3.285156-3.8125-4.730469-8.875-3.957031-13.84375l65.792969-398.335937 14.25-63.40625c1.046875-4.546876 3.917969-8.464844 7.9375-10.835938.933593-.601562 1.9375-1.089844 2.988281-1.449219h.082031c1.871094-.753906 3.875-1.128906 5.890625-1.109375 14.566406-.097656 28.574219 5.609375 38.933594 15.851563 10.355469 10.246093 16.214844 24.191406 16.277344 38.761719.015625 5.898437 2.378906 11.546874 6.570312 15.699218 4.261719 4.171875 9.992188 6.503906 15.957032 6.488282h145.066406c5.933594.050781 11.640625-2.257813 15.867187-6.417969 4.230469-4.164063 6.625-9.839844 6.660157-15.769531-.019532-14.527344 5.792968-28.453126 16.128906-38.65625 6.324218-6.167969 14.011718-10.761719 22.441406-13.398438 1.785156-.613281 3.609375-1.097656 5.460938-1.449219h.085937c3.648437-.757812 7.367187-1.128906 11.09375-1.109375 8.070313-.03125 15.085937 5.53125 16.894531 13.394532l14.253906 63.40625 65.789063 398.335937c.777344 4.96875-.667969 10.03125-3.953125 13.84375s-8.082031 5.988281-13.113281 5.953125zm0 0" fill="#c42828"/><path d="m460.539062 503.46875h-434.6875c-5.035156.035156-9.828124-2.140625-13.113281-5.953125-3.285156-3.8125-4.730469-8.875-3.957031-13.84375l65.792969-398.335937 14.25-63.40625c1.046875-4.546876 3.917969-8.464844 7.9375-10.835938 22.886719 7.007812 38.53125 28.117188 38.570312 52.054688.015625 5.898437 2.378907 11.546874 6.570313 15.699218 4.261718 4.171875 9.992187 6.503906 15.957031 6.488282h170.667969c5.933594.050781 11.640625-2.257813 15.867187-6.417969 4.230469-4.164063 6.625-9.839844 6.660157-15.769531-.019532-14.527344 5.792968-28.453126 16.128906-38.65625 6.324218-6.167969 14.011718-10.761719 22.441406-13.398438 4.019531 2.371094 6.890625 6.289062 7.9375 10.835938l14.25 63.40625 65.792969 398.335937c.773437 4.96875-.671875 10.03125-3.957031 13.84375-3.285157 3.8125-8.078126 5.988281-13.109376 5.953125zm0 0" fill="#f34335"/><path d="m162.128906 136.535156c-2.855468-.003906-5.703125.167969-8.535156.511719-34.214844 4.214844-59.921875 33.277344-59.921875 67.753906 0 34.476563 25.707031 63.539063 59.921875 67.753907 2.832031.34375 5.679688.515624 8.535156.511718 37.699219 0 68.265625-30.5625 68.265625-68.265625s-30.566406-68.265625-68.265625-68.265625zm0 0" fill="#f4f4f4"/><path d="m349.859375 136.535156c-2.851563-.003906-5.699219.167969-8.53125.511719-34.21875 4.214844-59.921875 33.277344-59.921875 67.753906 0 34.476563 25.703125 63.539063 59.921875 67.753907 2.832031.34375 5.679687.515624 8.53125.511718 37.703125 0 68.269531-30.5625 68.269531-68.265625s-30.566406-68.265625-68.269531-68.265625zm0 0" fill="#f4f4f4"/><path d="m204.792969 204.800781c0 23.5625-19.101563 42.667969-42.664063 42.667969-23.566406 0-42.667968-19.105469-42.667968-42.667969s19.101562-42.667969 42.667968-42.667969c23.5625 0 42.664063 19.105469 42.664063 42.667969zm0 0" fill="#02a8f3"/><path d="m392.527344 204.800781c0 23.5625-19.101563 42.667969-42.667969 42.667969-23.5625 0-42.664063-19.105469-42.664063-42.667969s19.101563-42.667969 42.664063-42.667969c23.566406 0 42.667969 19.105469 42.667969 42.667969zm0 0" fill="#02a8f3"/><path d="m187.726562 204.800781c0 14.136719-11.460937 25.601563-25.597656 25.601563-14.140625 0-25.601562-11.464844-25.601562-25.601563s11.460937-25.601562 25.601562-25.601562c14.136719 0 25.597656 11.464843 25.597656 25.601562zm0 0" fill="#37474f"/><path d="m375.460938 204.800781c0 14.136719-11.460938 25.601563-25.601563 25.601563-14.136719 0-25.597656-11.464844-25.597656-25.601563s11.460937-25.601562 25.597656-25.601562c14.140625 0 25.601563 11.464843 25.601563 25.601562zm0 0" fill="#37474f"/><path d="m407.714844 420.183594c-1.191406 1.535156-2.472656 3.070312-3.839844 4.519531-3.054688 3.433594-6.394531 6.601563-9.984375 9.472656-.820313.757813-1.707031 1.441407-2.644531 2.050781-22.183594 15.679688-47.941406 25.566407-74.921875 28.753907-.632813.074219-1.257813.1875-1.878907.34375-4.863281.683593-9.980468 1.363281-15.273437 1.875-.679687.101562-1.363281.15625-2.046875.171875-27.359375 2.617187-54.902344 2.617187-82.261719 0-.6875-.015625-1.371093-.070313-2.046875-.171875-5.292968-.511719-10.410156-1.191407-15.277344-1.875-.617187-.15625-1.242187-.269531-1.875-.34375-26.980468-3.1875-52.738281-13.074219-74.921874-28.753907-.9375-.609374-1.824219-1.292968-2.648438-2.050781-3.585938-2.871093-6.929688-6.039062-9.984375-9.472656-1.363281-1.449219-2.644531-2.984375-3.839844-4.519531-37.714843-47.703125-7.421875-112.984375-7.421875-112.984375s1.960938 9.730469 20.308594 19.882812c5.101562 2.761719 10.410156 5.128907 15.871094 7.085938 11.703125 4.164062 23.753906 7.277343 36.011718 9.300781 3.753907.679688 7.765626 1.277344 11.945313 1.875 1.964844.257812 4.011719.511719 6.058594.855469 3.5.425781 7.253906.765625 11.09375 1.109375 14.167969 1.449218 30.292969 2.304687 48.640625 2.472656 2.988281.085938 6.058594.085938 9.214844.085938 3.160156 0 6.230468 0 9.21875-.085938 18.34375-.167969 34.472656-1.023438 48.640624-2.472656 3.839844-.34375 7.59375-.683594 11.089844-1.109375 2.050782-.34375 4.097656-.597657 6.058594-.855469 4.183594-.597656 8.195312-1.195312 11.949219-1.875 12.253906-2.023438 24.308593-5.136719 36.011719-9.300781 5.460937-1.957031 10.765624-4.324219 15.871093-7.085938 18.347657-10.152343 20.308594-19.882812 20.308594-19.882812s30.292969 65.28125-7.425781 112.984375zm0 0" fill="#ffebb2"/><path d="m145.058594 179.199219c0 14.140625-11.460938 25.601562-25.597656 25.601562-14.140626 0-25.601563-11.460937-25.601563-25.601562 0-14.136719 11.460937-25.597657 25.601563-25.597657 14.136718 0 25.597656 11.460938 25.597656 25.597657zm0 0" fill="#f4f4f4"/><path d="m332.792969 179.199219c0 14.140625-11.460938 25.601562-25.597657 25.601562-14.140624 0-25.601562-11.460937-25.601562-25.601562 0-14.136719 11.460938-25.597657 25.601562-25.597657 14.136719 0 25.597657 11.460938 25.597657 25.597657zm0 0" fill="#f4f4f4"/><path d="m486.179688 512c7.601562.011719 14.824218-3.320312 19.746093-9.113281 4.851563-5.695313 6.945313-13.242188 5.71875-20.625l-65.921875-398.796875-14.257812-63.453125c-2.667969-11.742188-13.125-20.058594-25.164063-20.011719-35.042969-.144531-63.59375 28.105469-63.8125 63.148438-.089843 7.621093-6.335937 13.734374-13.960937 13.652343h-145.066406c-7.613282.066407-13.847657-6.039062-13.933594-13.652343-.222656-35.054688-28.785156-63.308594-63.839844-63.148438-12.054688-.0429688-22.523438 8.300781-25.164062 20.0625l-14.355469 63.878906-65.824219 398.320313c-1.226562 7.382812.867188 14.929687 5.71875 20.625 4.921875 5.792969 12.144531 9.125 19.746094 9.113281zm-469-26.957031 65.707031-397.839844 14.25-63.359375c.902343-3.984375 4.453125-6.800781 8.535156-6.777344 25.617187-.152344 46.527344 20.460938 46.746094 46.082032.097656 17.050781 13.992187 30.800781 31.042969 30.71875h145.066406c17.035156.058593 30.902344-13.683594 31-30.71875.21875-25.628907 21.144531-46.246094 46.773437-46.082032 4.070313-.03125 7.617188 2.765625 8.53125 6.734375l14.167969 62.925781 65.824219 398.316407c.425781 2.445312-.269531 4.953125-1.894531 6.828125-1.679688 1.96875-4.144532 3.097656-6.730469 3.089844h-460.390625c-2.589844.007812-5.050782-1.121094-6.734375-3.089844-1.625-1.875-2.320313-4.382813-1.894531-6.828125zm0 0"/><path d="m162.128906 281.601562c42.414063 0 76.796875-34.386718 76.796875-76.800781 0-42.414062-34.382812-76.800781-76.796875-76.800781-42.417968 0-76.800781 34.386719-76.800781 76.800781.046875 42.394531 34.402344 76.753907 76.800781 76.800781zm0-136.535156c32.988282 0 59.730469 26.746094 59.730469 59.734375s-26.742187 59.734375-59.730469 59.734375c-32.992187 0-59.734375-26.746094-59.734375-59.734375.035157-32.972656 26.757813-59.695312 59.734375-59.734375zm0 0"/><path d="m349.859375 281.601562c42.417969 0 76.800781-34.386718 76.800781-76.800781 0-42.414062-34.382812-76.800781-76.800781-76.800781-42.414063 0-76.800781 34.386719-76.800781 76.800781.050781 42.394531 34.40625 76.753907 76.800781 76.800781zm0-136.535156c32.992187 0 59.734375 26.746094 59.734375 59.734375s-26.742188 59.734375-59.734375 59.734375c-32.988281 0-59.730469-26.746094-59.730469-59.734375.035156-32.972656 26.757813-59.695312 59.730469-59.734375zm0 0"/><path d="m162.128906 238.933594c18.847656 0 34.132813-15.28125 34.132813-34.132813 0-18.851562-15.285157-34.132812-34.132813-34.132812-18.851562 0-34.136718 15.28125-34.136718 34.132812 0 18.851563 15.285156 34.132813 34.136718 34.132813zm0-51.199219c9.425782 0 17.066406 7.640625 17.066406 17.066406s-7.640624 17.066407-17.066406 17.066407c-9.425781 0-17.070312-7.640626-17.070312-17.066407s7.644531-17.066406 17.070312-17.066406zm0 0"/><path d="m349.859375 238.933594c18.851563 0 34.132813-15.28125 34.132813-34.132813 0-18.851562-15.28125-34.132812-34.132813-34.132812s-34.132813 15.28125-34.132813 34.132812c0 18.851563 15.28125 34.132813 34.132813 34.132813zm0-51.199219c9.425781 0 17.066406 7.640625 17.066406 17.066406s-7.640625 17.066407-17.066406 17.066407-17.066406-7.640626-17.066406-17.066407 7.640625-17.066406 17.066406-17.066406zm0 0"/><path d="m72.996094 305.765625c5.394531-2.707031 11.355468-4.089844 17.390625-4.027344-.5.566407-.925781 1.195313-1.261719 1.871094-1.195312 2.558594-29.089844 63.957031 2.933594 114.167969 19.703125 30.878906 57.320312 49.917968 111.96875 56.957031.117187 0 .210937.0625.332031.0625h.109375c17.09375 2.109375 34.300781 3.136719 51.523438 3.070313 17.222656.0625 34.433593-.964844 51.527343-3.082032h.109375c.121094 0 .214844-.058594.332032-.058594 54.613281-7.039062 92.261718-26.078124 111.964843-56.960937 32.027344-50.207031 4.132813-111.582031 2.9375-114.164063-.351562-.71875-.800781-1.382812-1.339843-1.972656 6.105468-.082031 12.140624 1.355469 17.554687 4.179688 3.929687 2.5 9.136719 1.382812 11.699219-2.507813s1.53125-9.117187-2.3125-11.742187c-1.230469-.851563-30.644532-19.71875-77.398438 8.320312-2.671875 1.542969-4.304687 4.40625-4.269531 7.492188.035156 3.082031 1.730469 5.910156 4.441406 7.390625 2.707031 1.476562 6 1.378906 8.617188-.257813 8.574219-5.332031 17.976562-9.207031 27.816406-11.46875-.445313.796875-.757813 1.664063-.929687 2.5625 0 .167969-3.242188 8.761719-22.644532 17.484375-.546875.175781-1.074218.410157-1.570312.699219-20.574219 8.804688-58.179688 17.554688-126.535156 17.554688-68.5625 0-106.195313-8.859376-126.71875-17.761719-.1875-.117188-.410157-.160157-.605469-.261719-20.179688-8.902344-23.40625-17.75-23.425781-17.75-.171876-.855469-.472657-1.679688-.894532-2.441406 9.832032 2.222656 19.222656 6.074218 27.785156 11.394531 4.03125 2.324219 9.179688.988281 11.578126-3 2.394531-3.988281 1.15625-9.160156-2.789063-11.628906-46.753906-28.039063-76.160156-9.136719-77.398437-8.320313-2.535157 1.691406-3.976563 4.609375-3.78125 7.652344.199218 3.042969 2.003906 5.75 4.738281 7.101562 2.734375 1.347657 5.980469 1.140626 8.515625-.554687zm275.542968 45.226563c10.714844-1.984376 21.269532-4.765626 31.570313-8.320313l8.210937 61.355469zm37.546876 78.507812c-20.371094 14.328125-43.925782 23.480469-68.625 26.667969l12.628906-101.292969zm-83.441407 7.550781-33.789062-78.769531c16.296875-.28125 30.855469-1.09375 43.902343-2.3125zm-103.449219-81.066406c13.046876 1.222656 27.605469 2.03125 43.90625 2.3125l-33.792968 78.773437zm-4.640624 100.148437c-24.699219-3.183593-48.25-12.335937-68.617188-26.667968l55.988281-74.621094zm-70.828126-52.121093 8.210938-61.355469c10.300781 3.554688 20.855469 6.335938 31.570312 8.320312zm94.71875 55.175781 37.546876-87.671875 37.617187 87.671875c-11.75 1.050781-24.253906 1.613281-37.617187 1.613281-13.363282 0-25.863282-.5625-37.613282-1.613281zm194.007813-134.066406c5.570313 19.054687 11.484375 53.699218-6.410156 82.628906l-9.625-71.988281c5.761719-2.871094 11.148437-6.445313 16.035156-10.640625zm-296.882813 10.597656-9.625 71.996094c-17.921874-28.929688-11.949218-63.574219-6.410156-82.628906 4.882813 4.195312 10.269532 7.765624 16.035156 10.632812zm0 0"/></svg>