<svg height="512pt" viewBox="0 0 512.17993 512" width="512pt" xmlns="http://www.w3.org/2000/svg"><path d="m503.476562 332.921875c0 122.539063-110.761718 170.667969-247.464843 170.667969-2.902344 0-5.71875 0-8.535157-.085938-132.777343-1.960937-238.929687-50.601562-238.929687-170.582031 0-57.257813 24.148437-120.660156 64-171.859375l90.878906-76.203125c15.871094-8.242187 32.617188-14.683594 49.917969-19.199219 2.816406-.769531 5.632812-1.453125 8.535156-2.050781s5.546875-1.109375 8.363282-1.621094c5.714843-.851562 11.433593-1.535156 17.234374-1.875 2.816407-.171875 5.632813-.257812 8.535157-.257812 2.902343 0 5.71875.085937 8.535156.257812 5.800781.339844 11.519531 1.023438 17.234375 1.875 2.816406.511719 5.546875 1.023438 8.363281 1.621094 2.816407.597656 5.71875 1.28125 8.535157 2.050781 17.300781 4.515625 34.046874 10.957032 49.917968 19.199219l90.878906 76.203125c39.851563 51.199219 64 114.601562 64 171.859375zm0 0" fill="#ac1457"/><path d="m477.878906 332.921875c0 119.980469-104.261718 168.621094-234.667968 170.582031-130.40625-1.960937-234.664063-50.601562-234.664063-170.582031 0-57.257813 23.710937-120.660156 62.855469-171.859375l89.257812-76.203125c15.5625-8.230469 32.011719-14.671875 49.023438-19.199219 2.773437-.769531 5.539062-1.453125 8.390625-2.050781 2.847656-.597656 5.441406-1.109375 8.207031-1.621094 5.617188-.851562 11.230469-1.535156 16.929688-1.875 5.699218.339844 11.316406 1.023438 16.929687 1.875 2.765625.511719 5.445313 1.023438 8.210937 1.621094 2.765626.597656 5.613282 1.28125 8.386719 2.050781 17.015625 4.527344 33.460938 10.96875 49.023438 19.199219l89.261719 76.203125c39.140624 51.199219 62.855468 114.601562 62.855468 171.859375zm0 0" fill="#e81e63"/><path d="m170.679688 153.722656c-11.886719-.050781-23.640626 2.453125-34.476563 7.339844-2.304687-9.898438-21.84375-79.105469-109.824219-133.546875l-.765625-1.792969s43.261719 18.515625 108.882813 2.988282c42.582031 48.296874 36.183594 125.011718 36.183594 125.011718zm0 0" fill="#ff5722"/><path d="m136.203125 161.0625c-11.472656 5.019531-21.675781 12.542969-29.867187 22.015625-9.714844-9.480469-21.195313-16.957031-33.789063-22.015625-13.882813-5.683594-29.085937-7.339844-43.863281-4.78125 11.519531-23.890625 23.46875-70.910156-2.304688-128.765625 87.980469 54.441406 107.519532 123.648437 109.824219 133.546875zm0 0" fill="#ff5722"/><path d="m484.109375 155.601562.253906.851563c-8.246093-1.535156-16.683593-1.765625-25.003906-.683594h-.082031c-.675782.15625-1.359375.269531-2.050782.34375-6.085937.96875-12.039062 2.628907-17.75 4.949219-12.59375 5.058594-24.074218 12.535156-33.789062 22.015625-3.480469-4.003906-7.335938-7.664063-11.519531-10.921875-5.59375-4.503906-11.765625-8.234375-18.347657-11.09375 1.960938-8.449219 16.554688-60.417969 75.945313-109.3125v-.085938c10.753906-8.78125 22.070313-16.847656 33.878906-24.148437-28.160156 63.144531-13.570312 106.75-1.535156 128.085937zm0 0" fill="#d74315"/><path d="m459.53125 156.453125c-.761719-.15625-1.53125-.269531-2.304688-.339844-14.378906-2.25-29.097656-.539062-42.582031 4.949219-7.242187 2.867188-14.117187 6.59375-20.476562 11.09375-5.59375-4.503906-11.765625-8.234375-18.347657-11.09375 1.960938-8.449219 16.554688-60.417969 75.945313-109.3125-15.273437 50.175781-2.902344 85.332031 7.511719 103.851562v.167969h.082031zm0 0" fill="#ff5722"/><path d="m486.410156 25.722656-.765625 1.792969c-87.980469 54.441406-107.519531 123.648437-109.824219 133.546875-10.835937-4.886719-22.589843-7.390625-34.476562-7.339844 0 0-6.398438-76.714844 36.183594-125.011718 65.621094 15.527343 108.882812-2.988282 108.882812-2.988282zm0 0" fill="#ff5722"/><path d="m255.585938 247.332031h.851562l-.425781.257813zm0 0" fill="#fff"/><path d="m393.824219 171.8125-10.410157 5.71875-53.589843 29.4375-9.554688 5.292969-63.832031 35.070312c3.957031 40.539063 36.011719 72.628907 76.542969 76.628907h.171875c2.644531.257812 5.460937.429687 8.191406.429687 36.410156-.027344 68.792969-23.148437 80.636719-57.578125s.535156-72.582031-28.15625-95zm0 0" fill="#f4f4f4"/><path d="m238.945312 238.203125-18.261718-10.070313-28.929688-15.871093-9.554687-5.292969-11.519531-6.3125-17.578126-9.644531-34.902343-19.199219c-20.734375 16.152344-32.855469 40.960938-32.855469 67.242188 0 2.816406.171875 5.546874.429688 8.277343.167968 1.621094.339843 3.160157.59375 4.695313.085937 1.109375.34375 2.21875.515624 3.242187.339844 1.707031.765626 3.414063 1.191407 5.121094.171875.851563.429687 1.707031.683593 2.558594.597657 1.878906 1.195313 3.667969 1.792969 5.460937.132813.441406.304688.871094.511719 1.28125.769531 1.960938 1.621094 3.925782 2.472656 5.800782l.257813.511718c.9375 1.878906 1.878906 3.757813 2.902343 5.546875 1.695313 2.960938 3.578126 5.808594 5.632813 8.535157 1.023437 1.363281 2.046875 2.730468 3.15625 4.011718 3.078125 3.675782 6.476563 7.074219 10.152344 10.152344 1.28125 1.109375 2.648437 2.132812 4.011719 3.15625 2.75 2.132812 5.660156 4.042969 8.703124 5.71875 1.367188.769531 2.730469 1.535156 4.183594 2.21875 4.390625 2.257812 8.992188 4.085938 13.738282 5.460938.980468.335937 1.976562.621093 2.984374.855468 4.34375 1.117188 8.765626 1.890625 13.230469 2.300782 2.644531.257812 5.460938.429687 8.191407.429687 43.910156-.015625 80.644531-33.351563 84.90625-77.058594zm0 0" fill="#f4f4f4"/><path d="m221.878906 239.054688c.023438 25.976562-19.40625 47.851562-45.203125 50.894531s-49.78125-13.714844-55.804687-38.980469c-6.019532-25.265625 7.832031-51.039062 32.230468-59.957031l67.582032 37.121093c.789062 3.585938 1.191406 7.25 1.195312 10.921876zm0 0" fill="#f34335"/><path d="m290.144531 239.054688c-.023437 25.976562 19.40625 47.851562 45.203125 50.894531s49.78125-13.714844 55.804688-38.980469c6.019531-25.265625-7.832032-51.039062-32.230469-59.957031l-67.582031 37.121093c-.789063 3.585938-1.191406 7.25-1.195313 10.921876zm0 0" fill="#f34335"/><path d="m204.8125 239.054688c0 18.851562-15.28125 34.132812-34.132812 34.132812-18.851563 0-34.132813-15.28125-34.132813-34.132812 0-18.851563 15.28125-34.132813 34.132813-34.132813 3.929687-.019531 7.835937.671875 11.519531 2.046875l9.554687 5.292969c8.253906 6.441406 13.070313 16.328125 13.058594 26.792969zm0 0" fill="#37474f"/><path d="m375.476562 239.054688c.027344 15.964843-11.015624 29.816406-26.585937 33.34375-15.570313 3.527343-31.503906-4.203126-38.367187-18.621094-6.859376-14.414063-2.8125-31.65625 9.746093-41.515625l9.554688-5.292969c3.683593-1.375 7.589843-2.066406 11.519531-2.046875 9.054688 0 17.734375 3.597656 24.136719 10 6.402343 6.398437 9.996093 15.082031 9.996093 24.132813zm0 0" fill="#37474f"/><path d="m196.277344 358.523438h119.46875c9.425781 0 17.066406 7.640624 17.066406 17.066406v68.265625c0 9.425781-7.640625 17.066406-17.066406 17.066406h-119.46875c-9.425782 0-17.066406-7.640625-17.066406-17.066406v-68.265625c0-9.425782 7.640624-17.066406 17.066406-17.066406zm0 0" fill="#ac1457"/><path d="m323 360.144531-32.855469 41.042969-17.066406-8.53125-17.066406 8.53125-17.066407-8.53125-17.066406 8.53125-32.855468-41.042969c2.273437-1.058593 4.75-1.613281 7.253906-1.621093h119.46875c2.503906.007812 4.980468.5625 7.253906 1.621093zm0 0" fill="#ffebb2"/><path d="m153.613281 273.1875c0 9.425781-7.640625 17.070312-17.066406 17.070312s-17.070313-7.644531-17.070313-17.070312c0-9.421875 7.644532-17.066406 17.070313-17.066406s17.066406 7.644531 17.066406 17.066406zm0 0" fill="#f4f4f4"/><path d="m324.277344 273.1875c0 9.425781-7.640625 17.070312-17.066406 17.070312-9.425782 0-17.066407-7.644531-17.066407-17.070312 0-9.421875 7.640625-17.066406 17.066407-17.066406 9.425781 0 17.066406 7.644531 17.066406 17.066406zm0 0" fill="#f4f4f4"/><path d="m482.007812 164.707031c6.234376 1.027344 12.308594 2.839844 18.089844 5.382813 2.8125 1.285156 6.101563.949218 8.59375-.878906 2.496094-1.832032 3.804688-4.863282 3.421875-7.933594-.378906-3.070313-2.390625-5.691406-5.253906-6.855469-5.640625-2.402344-11.503906-4.25-17.503906-5.511719-8.191407-18.773437-20.171875-61.117187 3.113281-115.542968 5.121094-3.121094 10.171875-6.066407 15.027344-8.652344 4.078125-2.257813 5.589844-7.371094 3.394531-11.484375s-7.285156-5.699219-11.429687-3.566407c-4.320313 2.304688-8.800782 4.886719-13.3125 7.59375-1.0625.007813-2.117188.21875-3.097657.621094-28.363281 9.417969-58.679687 11.339844-88.003906 5.574219 3.355469-2.738281 6.882813-5.261719 10.554687-7.5625 4.003907-2.496094 5.226563-7.769531 2.730469-11.773437-2.5-4.007813-7.769531-5.230469-11.777343-2.730469-25.441407 16.269531-44.445313 40.875-53.757813 69.605469-26.984375-12.660157-56.382813-19.335938-86.1875-19.574219-.179687.015625-.375-.09375-.597656-.09375-.222657 0-.417969.109375-.632813.125-29.800781.238281-59.203125 6.917969-86.183594 19.578125-9.304687-28.726563-28.296874-53.332032-53.726562-69.609375-4.007812-2.496094-9.277344-1.273438-11.777344 2.734375-2.496094 4.003906-1.273437 9.277344 2.730469 11.773437 3.671875 2.296875 7.191406 4.824219 10.546875 7.5625-29.328125 5.664063-59.621094 3.734375-87.996094-5.609375-.984375-.402344-2.039062-.613281-3.105468-.621094-4.511719-2.707031-8.984376-5.289062-13.304688-7.59375-4.144531-2.132812-9.234375-.546874-11.429688 3.566407-2.195312 4.113281-.683593 9.226562 3.394532 11.484375 4.84375 2.5625 9.90625 5.523437 15.027344 8.652344 17.121093 36.394531 18.25 78.289062 3.113281 115.550781-6.011719 1.261719-11.882813 3.101562-17.535157 5.503906-2.800781 1.21875-4.734374 3.839844-5.0781245 6.875-.3437495 3.03125.9570315 6.019531 3.4140625 7.832031 2.453125 1.8125 5.691406 2.179688 8.488281.960938 5.824219-2.5625 11.949219-4.375 18.230469-5.402344 9.40625-1.640625 19.054688-1.328125 28.335938.914062-37.304688 51.667969-58.5117192 112.023438-58.5117192 167.320313 0 113.886719 93.3125002 179.199219 256.0000002 179.199219s256-65.3125 256-179.199219c0-55.296875-21.195313-115.644531-58.46875-167.3125 9.328125-2.222656 19.011719-2.53125 28.464843-.902344zm-350.445312-126.703125c35.703125 43.261719 30.683594 105.675782 30.582031 106.417969-.210937 2.265625.488281 4.523437 1.949219 6.269531s3.558594 2.839844 5.824219 3.03125h.769531c4.421875.015625 8.121094-3.351562 8.523438-7.757812 1.222656-19.597656-.503907-39.265625-5.121094-58.351563 12.566406-6.011719 25.71875-10.699219 39.253906-13.984375v20.359375c0 4.714844 3.820312 8.535157 8.535156 8.535157 4.710938 0 8.53125-3.820313 8.53125-8.535157v-23.59375c5.683594-.808593 11.375-1.363281 17.066406-1.628906v42.289063c0 4.714843 3.824219 8.535156 8.535157 8.535156 4.710937 0 8.535156-3.820313 8.535156-8.535156v-42.289063c5.691406.265625 11.382813.851563 17.066406 1.628906v23.59375c0 4.714844 3.820313 8.535157 8.53125 8.535157 4.714844 0 8.535157-3.820313 8.535157-8.535157v-20.359375c13.535156 3.285156 26.691406 7.972656 39.253906 13.984375-4.617188 19.085938-6.34375 38.753907-5.121094 58.351563.402344 4.410156 4.105469 7.777344 8.53125 7.757812h.777344c2.265625-.195312 4.363281-1.289062 5.816406-3.039062 1.457031-1.75 2.15625-4.003906 1.941406-6.269532-.070312-.742187-5.179687-63.148437 30.589844-106.421874 22.328125 4.984374 45.28125 6.523437 68.070312 4.558593-53.1875 40.054688-68.570312 73.992188-72.804687 92.160157-1.070313 4.589843 1.785156 9.179687 6.375 10.246093 4.589844 1.070313 9.179687-1.78125 10.246094-6.371093 3.945312-16.929688 19.382812-49.707032 76.390625-89.667969-9.804688 31.933593-9.296875 66.148437 1.453125 97.78125-11.246094-.054688-22.402344 2.019531-32.878907 6.109375h-.101562c-.285156.113281-.574219.171875-.855469.28125-10.992187 4.382812-21.210937 10.496094-30.265625 18.109375-2.230468-2.117188-4.515625-4.191407-6.964844-6.109375-.277343-.152344-.5625-.289063-.851562-.410156-1.085938-.871094-2.460938-1.308594-3.851562-1.21875-.503907-.082032-1.015626-.117188-1.527344-.105469-.953125.128906-1.875.417969-2.730469.855469-.144531.066406-.296875.058593-.433594.136718l-63.667969 34.984375c-3.464843 1.347657-6.738281 3.148438-9.738281 5.351563l-60.320312 33.144531-60.253907-33.117187c-2.996093-2.203126-6.269531-4.003907-9.738281-5.351563l-63.675781-34.988281c-.1875-.101563-.390625-.09375-.585938-.1875-.808593-.398438-1.671874-.671875-2.5625-.800782-.660156-.03125-1.320312.015626-1.96875.144532-.433593.007812-.863281.042968-1.289062.109375-.894531.28125-1.738281.699219-2.5 1.246093-.144531.105469-.324219.128907-.46875.242188-2.449219 1.917969-4.738281 3.984375-6.957031 6.097656-9.042969-7.597656-19.246094-13.707031-30.214844-18.089844-.308594-.125-.605469-.179687-.914063-.296874h-.09375c-10.496093-4.128907-21.683593-6.21875-32.964843-6.160157 10.753906-31.613281 11.277343-65.808593 1.503906-97.734375 56.992187 39.945313 72.429687 72.722656 76.371094 89.652344 1.070312 4.589844 5.660156 7.445312 10.25 6.375 4.589843-1.070312 7.445312-5.660156 6.375-10.25-4.269531-18.175781-19.628907-52.121094-72.816407-92.160156 22.785157 1.957031 45.734376.421875 68.054688-4.554688zm-12.238281 144.160156 33.367187 18.347657c-19.15625 8.957031-28.84375 30.609375-22.757812 50.859375 6.089844 20.253906 26.109375 32.972656 47.027344 29.886718 20.921874-3.089843 36.410156-21.054687 36.382812-42.203124-.0625-1.84375-.246094-3.683594-.554688-5.503907l33.519532 18.433594c-5.585938 33.195313-32.148438 58.878906-65.515625 63.335937-33.363281 4.460938-65.742188-13.339843-79.851563-43.902343s-6.65625-66.753907 18.382813-89.253907zm67.226562 36.964844c10.761719 8.507813 13.207031 23.84375 5.621094 35.273438-7.585937 11.429687-22.667969 15.132812-34.683594 8.515625-12.019531-6.613281-16.957031-21.335938-11.355469-33.859375 5.597657-12.523438 19.863282-18.664063 32.804688-14.117188zm146.5-4.171875c2.660157-.960937 5.464844-1.46875 8.292969-1.5 12.660156-.148437 23.570312 8.878907 25.796875 21.339844s-4.882813 24.707031-16.808594 28.953125c-11.921875 4.246094-25.171875-.75-31.324219-11.8125-6.148437-11.0625-3.402343-24.953125 6.5-32.839844zm8.292969 66.765625c20.003906.042969 37.34375-13.84375 41.667969-33.375 4.328125-19.53125-5.527344-39.4375-23.679688-47.84375l33.367188-18.339844c24.96875 22.507813 32.371093 58.652344 18.265625 89.164063-14.105469 30.515625-46.4375 48.285156-79.761719 43.84375-33.320313-4.441406-59.867187-30.0625-65.488281-63.203125l33.519531-18.425781c-.308594 1.824219-.492187 3.664062-.554687 5.511719.027343 23.554687 19.113281 42.640624 42.664062 42.667968zm-85.332031 213.332032c-71.84375 0-238.933594-15.800782-238.933594-162.132813 0-52.402344 21.710937-112.222656 58.242187-161.277344 6.945313 3.371094 13.460938 7.566407 19.410157 12.492188-20.972657 28.941406-23.671875 67.289062-6.960938 98.886719 16.710938 31.59375 49.929688 50.945312 85.65625 49.894531 35.726563-1.046875 67.753907-22.308594 82.585938-54.832031 14.8125 32.558593 46.847656 53.855468 82.601562 54.914062 35.75 1.0625 68.992188-18.304688 85.703125-49.925781 16.714844-31.621094 13.988282-69.996094-7.023437-98.9375 5.949219-4.921875 12.46875-9.117188 19.410156-12.492188 36.53125 49.054688 58.242187 108.875 58.242187 161.277344 0 146.332031-167.089843 162.132813-238.933593 162.132813zm0 0"/><path d="m315.746094 349.988281h-119.46875c-14.136719 0-25.597656 11.460938-25.597656 25.601563v68.265625c0 14.140625 11.460937 25.601562 25.597656 25.601562h119.46875c14.136718 0 25.597656-11.460937 25.597656-25.601562v-68.265625c0-14.140625-11.460938-25.601563-25.597656-25.601563zm-59.734375 41.660157-13.253907-6.628907c-2.398437-1.199219-5.226562-1.199219-7.628906 0l-10.902344 5.453125-18.742187-23.417968h101.054687l-18.773437 23.417968-10.90625-5.453125c-2.402344-1.199219-5.226563-1.199219-7.628906 0zm68.265625 52.207031c0 4.714843-3.820313 8.535156-8.53125 8.535156h-119.46875c-4.710938 0-8.53125-3.820313-8.53125-8.535156v-68.265625c.03125-.921875.214844-1.835938.546875-2.695313l26.921875 33.628907c2.511718 3.140624 6.878906 4.101562 10.476562 2.304687l13.253906-6.632813 13.253907 6.632813c.117187.050781.246093 0 .363281.082031 1.082031.511719 2.253906.789063 3.449219.8125 1.179687-.027344 2.34375-.300781 3.414062-.800781.117188-.050781.246094 0 .367188-.085937l13.285156-6.640626 13.253906 6.632813c3.597657 1.796875 7.964844.835937 10.476563-2.304687l26.921875-33.628907c.332031.859375.515625 1.773438.546875 2.695313zm0 0"/></svg>