<svg height="512pt" viewBox="-18 0 512 512.01779" width="512pt" xmlns="http://www.w3.org/2000/svg"><path d="m214.003906 430.183594c.34375 4.09375.511719 8.277344.511719 12.542968 0 33.535157-11.433594 60.757813-25.597656 60.757813-14.167969 0-25.601563-27.222656-25.601563-60.757813-.070312-11.136718 1.304688-22.238281 4.097656-33.023437zm0 0" fill="#fdc008"/><path d="m122.785156 151.226562c-5.402344-4.097656-11.109375-7.777343-17.066406-11.007812-29.441406-16.210938-58.882812-19.199219-65.621094-6.824219-6.742187 12.371094 11.519532 35.496094 40.957032 51.710938 9.289062 5.210937 19.214843 9.199219 29.527343 11.863281zm0 0" fill="#fdc008"/><path d="m427.9375 195.175781c-7.023438 4.59375-14.484375 8.480469-22.273438 11.605469l-2.476562-9.984375-9.726562-39.9375c2.132812-1.621094 4.4375-3.15625 6.742187-4.691406 11.226563-7.511719 23.671875-13.027344 36.777344-16.300781 13.398437-3.15625 23.980469-1.707032 28.160156 4.78125 7.679687 11.859374-8.960937 36.265624-37.203125 54.527343zm0 0" fill="#f47c00"/><path d="m405.835938 195.175781c-.855469.597657-1.792969 1.109375-2.648438 1.621094l-9.726562-39.9375c2.132812-1.621094 4.4375-3.15625 6.742187-4.691406 11.226563-7.511719 23.671875-13.027344 36.777344-16.300781 2.464843.929687 4.582031 2.597656 6.058593 4.78125 7.679688 11.859374-8.960937 36.265624-37.203124 54.527343zm0 0" fill="#fdc008"/><path d="m351.050781 442.726562c0 33.535157-11.433593 60.757813-25.601562 60.757813-5.34375-.488281-10.117188-3.542969-12.796875-8.191406-9.269532-15.914063-13.714844-34.175781-12.800782-52.566407 0-4.265624.167969-8.449218.511719-12.542968l23.210938-10.15625 23.378906-10.324219c2.792969 10.785156 4.167969 21.886719 4.097656 33.023437zm0 0" fill="#f47c00"/><path d="m325.449219 442.726562c.914062 18.390626-3.53125 36.652344-12.796875 52.566407-9.269532-15.914063-13.714844-34.175781-12.800782-52.566407 0-4.265624.167969-8.449218.511719-12.542968l23.210938-10.15625c1.257812 7.5 1.886719 15.09375 1.875 22.699218zm0 0" fill="#fdc008"/><path d="m162.378906 406.035156c-9.472656 26.707032-21.84375 49.832032-37.804687 59.988282-9.292969 6.070312-20.128907 9.355468-31.230469 9.472656-13.8125-.132813-27.09375-5.359375-37.289062-14.679688-22.699219-20.050781-42.414063-52.394531-19.542969-100.777344 8.277343-17.578124 8.363281-27.734374 5.972656-31.0625-3.261719-3.957031-8.492187-5.710937-13.480469-4.519531-6.214844 1.164063-12.5625-1.199219-16.5-6.144531-3.933594-4.945312-4.816406-11.660156-2.289062-17.453125 2.527344-5.796875 8.046875-9.71875 14.351562-10.195313 17.351563-2.804687 34.839844 4.183594 45.480469 18.175782 11.4375 15.699218 10.496094 37.800781-2.730469 65.792968-15.273437 32.339844-1.792968 48.980469 11.351563 60.585938 7.515625 7.277344 19.175781 8.105469 27.648437 1.960938 10.75-6.824219 20.648438-30.546876 28.839844-59.050782zm0 0" fill="#fdc008"/><path d="m410.785156 264.550781c0 117.84375-68.78125 170.667969-153.601562 170.667969-2.816406 0-5.71875-.085938-8.53125-.171875-80.8125-3.5-145.070313-56.574219-145.070313-170.496094.601563-53.941406 13.007813-107.101562 36.355469-155.734375l55.550781-75.261718c14.871094-13.296876 33.390625-21.828126 53.164063-24.492188 5.667968-.683594 11.394531-.683594 17.066406 0 19.769531 2.664062 38.289062 11.195312 53.160156 24.492188l55.554688 75.261718c23.34375 48.632813 35.753906 101.792969 36.351562 155.734375zm0 0" fill="#f47c00"/><path d="m385.183594 264.550781c0 113.921875-62.371094 166.996094-140.800782 170.496094-78.429687-3.5-140.800781-56.574219-140.800781-170.496094.558594-53.828125 12.585938-106.921875 35.289063-155.734375l53.910156-75.261718c14.304688-13.234376 32.308594-21.777344 51.601562-24.492188 19.296876 2.714844 37.300782 11.257812 51.601563 24.492188l53.914063 75.261718c22.699218 48.8125 34.730468 101.90625 35.285156 155.734375zm0 0" fill="#fdc008"/><path d="m223.050781 59.75-35.925781 31.402344c-22.101562-34.386719-56.0625-66.898438-76.203125-75.007813.597656-4.777343 1.195313-7.59375 1.195313-7.59375 76.800781 0 110.933593 51.199219 110.933593 51.199219zm0 0" fill="#f0c419"/><path d="m181.484375 96.09375-21.9375 19.21875c-2.804687 2.535156-6.960937 2.886719-10.148437.851562-42.769532-28.558593-40.960938-80.640624-38.476563-100 18.917969 7.609376 50.03125 36.761719 72.054687 68.777344 2.371094 3.566406 1.734376 8.335938-1.492187 11.152344zm0 0" fill="#e81e63"/><path d="m403.445312 16.144531c-20.140624 8.109375-54.101562 40.621094-76.203124 75.007813l-35.925782-31.402344s34.132813-51.199219 110.933594-51.199219c0 0 .597656 2.816407 1.195312 7.59375zm0 0" fill="#f0c419"/><path d="m364.960938 116.15625c-3.203126 1.988281-7.332032 1.644531-10.15625-.851562l-3.667969-3.160157-18.261719-16.042969c-3.265625-2.808593-3.890625-7.625-1.449219-11.175781 14.871094-21.78125 32.9375-41.199219 53.585938-57.601562 5.617187-4.535157 11.816406-8.296875 18.433593-11.179688 2.472657 19.371094 4.265626 71.425781-38.484374 100.011719zm0 0" fill="#ac1457"/><path d="m351.136719 112.144531-18.261719-16.042969c-3.265625-2.808593-3.890625-7.625-1.449219-11.175781 14.871094-21.78125 32.9375-41.199219 53.585938-57.601562 1.027343 22.527343-2.816407 60.417969-33.875 84.820312zm0 0" fill="#e81e63"/><path d="m325.449219 162.152344c.03125 19.328125-8.160157 37.757812-22.527344 50.6875-4.226563-1.660156-8.558594-3.027344-12.96875-4.097656 17.507813-18.730469 23.046875-45.695313 14.335937-69.808594-8.710937-24.117188-30.199218-41.320313-55.636718-44.539063 2.828125-.339843 5.679687-.511719 8.53125-.511719 37.703125 0 68.265625 30.566407 68.265625 68.269532zm0 0" fill="#e6e7e8"/><path d="m308.382812 162.152344c.050782 17.316406-6.546874 33.992187-18.429687 46.589844-10.71875-2.65625-21.726563-3.972657-32.769531-3.925782-2.902344 0-5.71875.085938-8.53125.34375-12.734375.558594-25.292969 3.152344-37.207032 7.679688-1.449218-1.28125-2.816406-2.648438-4.097656-4.097656-17.507812-18.730469-23.046875-45.695313-14.335937-69.808594 8.710937-24.117188 30.199219-41.320313 55.640625-44.539063 34.140625 4.304688 59.742187 33.34375 59.730468 67.757813zm0 0" fill="#fff"/><path d="m299.851562 162.152344c0 23.5625-19.101562 42.664062-42.667968 42.664062-23.5625 0-42.667969-19.101562-42.667969-42.664062 0-23.566406 19.105469-42.667969 42.667969-42.667969 23.566406 0 42.667968 19.101563 42.667968 42.667969zm0 0" fill="#e81e63"/><path d="m282.785156 162.152344c0 14.136718-11.460937 25.597656-25.601562 25.597656-14.136719 0-25.601563-11.460938-25.601563-25.597656 0-14.140625 11.464844-25.601563 25.601563-25.601563 14.140625 0 25.601562 11.460938 25.601562 25.601563zm0 0" fill="#37474f"/><path d="m291.316406 248.449219c0 9.386719-15.28125 22.757812-34.132812 22.757812-18.851563 0-34.132813-13.335937-34.132813-22.757812s15.28125-11.375 34.132813-11.375c18.851562 0 34.132812 1.945312 34.132812 11.375zm0 0" fill="#e81e63"/><path d="m248.652344 136.550781c0 9.425781-7.644532 17.066407-17.070313 17.066407-9.421875 0-17.066406-7.640626-17.066406-17.066407s7.644531-17.066406 17.066406-17.066406c9.425781 0 17.070313 7.640625 17.070313 17.066406zm0 0" fill="#fff"/><path d="m257.183594 85.351562c-31.65625.011719-60.0625 19.445313-71.542969 48.945313s-3.683594 63.023437 19.636719 84.429687l.082031.085938c.128906.121094.242187.246094.367187.367188.339844.234374.691407.441406 1.058594.621093.480469.363281 1 .667969 1.546875.914063.519531.183594 1.054688.304687 1.601563.367187.519531.128907 1.054687.203125 1.589844.222657.605468-.03125 1.207031-.132813 1.789062-.300782.40625-.039062.808594-.105468 1.203125-.203125 27.609375-9.75 57.726563-9.75 85.335937 0 .984376.375 2.027344.570313 3.078126.570313.949218-.011719 1.886718-.179688 2.773437-.503906.273437-.09375.511719-.246094.777344-.363282.609375-.289062 1.183593-.644531 1.707031-1.070312.136719-.109375.289062-.144532.417969-.253906 23.597656-21.285157 31.648437-54.910157 20.25-84.574219-11.398438-29.667969-39.890625-49.246094-71.671875-49.253907zm43.410156 117.757813c-28.28125-8.726563-58.539062-8.726563-86.820312 0-22.359376-23.65625-21.664063-60.863281 1.570312-83.664063 23.234375-22.800781 60.445312-22.800781 83.679688 0 23.234374 22.800782 23.929687 60.007813 1.570312 83.664063zm0 0"/><path d="m257.183594 128.019531c-18.851563 0-34.132813 15.28125-34.132813 34.132813 0 18.851562 15.28125 34.132812 34.132813 34.132812 18.851562 0 34.132812-15.28125 34.132812-34.132812 0-18.851563-15.28125-34.132813-34.132812-34.132813zm0 51.199219c-9.425782 0-17.066406-7.640625-17.066406-17.066406 0-9.425782 7.640624-17.066406 17.066406-17.066406 9.425781 0 17.066406 7.640624 17.066406 17.066406 0 9.425781-7.640625 17.066406-17.066406 17.066406zm0 0"/><path d="m310.234375 291.5c-4.925781 7.3125-12.195313 12.730469-20.617187 15.359375-11.542969 2.390625-20.707032-8.34375-23.890626-12.6875v-15.191406c19.515626-3.414063 34.132813-18.117188 34.132813-30.53125 0-19.910157-28.816406-19.910157-42.667969-19.910157-13.847656 0-42.664062 0-42.664062 19.910157 0 12.414062 14.617187 27.09375 34.132812 30.53125v15.191406c-3.199218 4.332031-12.410156 15.007813-23.894531 12.695313-8.402344-2.640626-15.660156-8.054688-20.582031-15.359376-2.925782-3.703124-8.296875-4.335937-12.003906-1.414062-3.703126 2.925781-4.335938 8.300781-1.410157 12.003906 7.324219 10.558594 18.160157 18.179688 30.574219 21.496094 2.261719.46875 4.566406.703125 6.878906.707031 11.132813-.492187 21.589844-5.496093 28.960938-13.855469 7.363281 8.355469 17.8125 13.351563 28.9375 13.839844 2.292968-.003906 4.578125-.238281 6.824218-.699218 12.445313-3.300782 23.308594-10.917969 30.652344-21.488282 1.917969-2.386718 2.410156-5.613281 1.289063-8.460937-1.117188-2.847657-3.675781-4.878907-6.699219-5.324219-3.027344-.445312-6.0625.765625-7.953125 3.167969zm-78.941406-42.308594c.546875-.589844 4.371093-3.558594 25.890625-3.558594 19.074218 0 24.242187 2.328126 25.558594 3.277344-5.304688 8.972656-15.144532 14.273438-25.558594 13.761719-10.410156.410156-20.257813-4.71875-25.890625-13.480469zm0 0"/><path d="m467.105469 170.324219c12.253906-17.96875 8.53125-29.207031 5.238281-34.3125-11.820312-18.257813-45.730469-10.1875-74.292969 7.492187-3.925781-11.238281-8.445312-22.132812-13.335937-32.707031 39.328125-40.488281 26.070312-103.371094 25.871094-104.097656-.867188-3.90625-4.332032-6.683594-8.335938-6.6796878-29.308594-.4492192-58.125 7.5507808-83.011719 23.0390628-17.351562-14.109375-38.847656-22.144532-61.199219-22.871094-.546874-.2304688-1.164062-.2304688-1.707031 0-22.355469.726562-43.851562 8.761719-61.203125 22.871094-24.886718-15.488282-53.703125-23.488282-83.011718-23.0390628-4-.0039062-7.46875 2.7734378-8.335938 6.6796878-.15625.726562-13.457031 63.609375 25.914062 104.105469-4.074218 8.789062-7.808593 17.820312-11.210937 27.085937-2.773437-1.757813-5.632813-3.480469-8.652344-5.121094-23.742187-13.105469-47.992187-18.40625-63.234375-13.984375-5.898437 1.4375-10.949218 5.226563-13.976562 10.488282-2.9375 5.324218-5.847656 16.792968 7.679687 33.832031 10.207031 12.078125 22.640625 22.082031 36.625 29.457031 7.597657 4.234375 15.582031 7.730469 23.84375 10.445312-3.71875 20.304688-5.628906 40.902344-5.71875 61.542969 0 49.679688 11.84375 87.332031 30.789063 114.976563-11.589844 38.921875-20.667969 48.265625-24.097656 50.449218-5.277344 4.050782-12.734376 3.550782-17.425782-1.160156-11.84375-10.453125-22.308594-22.960937-9.285156-50.542968 14.660156-31.027344 15.300781-56.070313 1.902344-74.476563-12.5-16.460937-33.015625-24.753906-53.445313-21.597656-9.394531.777343-17.597656 6.660156-21.355469 15.304687-3.757812 8.644532-2.460937 18.65625 3.375 26.058594 5.835938 7.402344 15.269532 10.996094 24.554688 9.359375 3.273438-.394531 4.5625.160156 5.160156.679687-.109375 8.03125-2.328125 15.890626-6.433594 22.792969-20.003906 42.335938-12.527343 80.648438 21.613282 110.824219 11.742187 10.722656 27.042968 16.710938 42.941406 16.808594 12.730469-.132813 25.160156-3.878906 35.839844-10.800782 10.773437-7.589843 19.554687-17.667968 25.601562-29.371093.28125 34.027343 11.945313 68.164062 34.132813 68.164062 22.40625 0 34.132812-34.859375 34.132812-69.292969 0-.714843-.078125-1.398437-.085937-2.105468 22.621094 4.175781 45.816406 4.175781 68.4375 0 0 .707031-.085938 1.390625-.085938 2.105468 0 34.433594 11.726563 69.292969 34.132813 69.292969 22.410156 0 34.132812-34.859375 34.132812-69.292969.019531-10.007812-1.03125-19.992187-3.128906-29.78125 36.726563-27.347656 62.863281-74.597656 62.863281-148.394531-.101562-17.636719-1.550781-35.242187-4.335937-52.660156 6.085937-2.753906 11.964843-5.945313 17.589843-9.546875 13.460938-8.355469 25.1875-19.226562 34.535157-32.019531zm-381.886719 7.304687c-12.003906-6.3125-22.710938-14.835937-31.554688-25.121094-5.820312-7.347656-7.246093-12.917968-6.074218-15.035156.964844-1.179687 2.304687-1.992187 3.796875-2.304687 8.652343-2.558594 28.039062.316406 50.234375 12.535156 4.035156 2.21875 7.679687 4.550781 11.179687 6.929687-3.277343 10.378907-6.1875 20.882813-8.585937 31.496094-6.578125-2.277344-12.949219-5.121094-19.039063-8.5zm34.835938 281.183594c-18.113282 12.203125-42.230469 10.386719-58.308594-4.394531-28.65625-25.308594-34.375-54.988281-17.476563-90.742188 8.609375-18.261719 10.453125-32.351562 5.121094-39.773437-5.015625-6.566406-13.363281-9.648438-21.4375-7.914063-2.25.296875-4.527344-.316406-6.324219-1.703125-3.707031-2.878906-4.417968-8.203125-1.585937-11.949218 1.402343-1.816407 3.480469-2.992188 5.757812-3.257813 14.242188-2.425781 28.648438 3.261719 37.394531 14.753906 9.429688 12.953125 8.242188 32.167969-3.550781 57.121094-17.363281 36.761719-1.953125 57.054687 13.382813 70.597656 10.375 9.792969 26.203125 10.964844 37.902344 2.796875 9.847656-6.253906 18.980468-22.355468 27.777343-48.808594 4.253907 4.628907 8.816407 8.964844 13.652344 12.976563-9.71875 25.566406-20.820313 42.964844-32.347656 50.296875zm85.929687-16.085938c0 32.425782-11.09375 52.222657-17.066406 52.222657-5.972657 0-17.066407-19.828125-17.066407-52.222657.003907-6.617187.523438-13.226562 1.550782-19.761718 10.234375 5.726562 21.078125 10.28125 32.335937 13.574218.082031 2.09375.246094 4.082032.246094 6.1875zm136.53125 0c0 32.425782-11.089844 52.222657-17.066406 52.222657-5.972657 0-17.066407-19.828125-17.066407-52.222657 0-2.105468.164063-4.128906.25-6.1875 11.253907-3.292968 22.097657-7.847656 32.332032-13.574218 1.027344 6.535156 1.546875 13.144531 1.550781 19.761718zm-85.332031-16.042968c-90.835938 0-145.066406-60.585938-145.066406-162.132813.585937-49.117187 11.207031-97.597656 31.207031-142.464843 2.347656 1.640624 4.617187 3.3125 7.226562 4.804687 4.089844 2.335937 9.300781.914063 11.640625-3.171875 2.335938-4.09375.914063-9.304688-3.175781-11.640625-36.847656-21.0625-41.496094-59.972656-40.636719-83.105469 22.679688 12.140625 41.617188 30.246094 54.761719 52.359375 1.558594 2.5 4.296875 4.019531 7.242187 4.019531 3.101563-.003906 5.953126-1.683593 7.457032-4.394531 1.503906-2.710937 1.417968-6.023437-.21875-8.652343-13.136719-21.617188-31.089844-39.90625-52.464844-53.4375 20.054688 2.855468 39.171875 10.324218 55.851562 21.820312.246094.1875.503907.359375.769532.519531 9.296875 6.367188 17.46875 14.238281 24.171875 23.296875 2.621093 3.917969 7.921875 4.972656 11.839843 2.351563 3.921876-2.621094 4.972657-7.921875 2.351563-11.839844-5.84375-8.039063-12.730469-15.265625-20.480469-21.496094 11.5-8.386719 24.894532-13.800781 38.992188-15.761719v24.925782c0 4.714844 3.820312 8.535156 8.53125 8.535156 4.714844 0 8.535156-3.820312 8.535156-8.535156v-24.925782c14.101562 1.957032 27.5 7.371094 39.003906 15.761719-7.746094 6.230469-14.632812 13.457031-20.480468 21.496094-2.324219 3.898437-1.191407 8.929687 2.578124 11.457031 3.769532 2.527344 8.859376 1.660156 11.578126-1.96875 6.671874-9.003906 14.789062-16.835937 24.023437-23.183594.050781 0 .09375-.078124.144531-.105468 16.859375-11.800782 36.269532-19.457032 56.644532-22.347656-21.375 13.53125-39.328126 31.820312-52.464844 53.4375-2.492188 4.003906-1.265625 9.273437 2.742187 11.765624 4.003907 2.492188 9.273438 1.265626 11.765625-2.738281 13.121094-22.0625 32-40.136719 54.613282-52.285156.71875 23.179687-4.078126 62.210937-40.507813 83.03125-3.355469 1.917969-5 5.855469-4.011719 9.59375.992188 3.734375 4.371094 6.339844 8.234375 6.347656 1.5.007813 2.972657-.378906 4.269531-1.128906 2.609376-1.492187 4.878907-3.164063 7.226563-4.804687 19.988281 44.871093 30.597656 93.347656 31.171875 142.464843 0 101.546875-54.230469 162.132813-145.066406 162.132813zm154.691406-232.105469c-2.328125-11.496094-5.117188-22.9375-8.480469-34.21875.484375-.324219.957031-.675781 1.441407-1 27.195312-17.585937 49.867187-19.105469 53.136718-14.054687 1.296875 2 .28125 7.679687-5.015625 15.421874-8.078125 10.890626-18.140625 20.15625-29.664062 27.304688-3.6875 2.378906-7.5 4.5625-11.417969 6.546875zm0 0"/></svg>