<svg height="512pt" viewBox="0 0 512.08239 512" width="512pt" xmlns="http://www.w3.org/2000/svg"><path d="m502.894531 132.945312c-.222656 1.730469-1.480469 3.152344-3.175781 3.585938-1.691406.429688-3.476562-.210938-4.503906-1.621094-4.851563-5.351562-10.746094-9.648437-17.324219-12.632812-31.210937-13.246094-64.738281-20.179688-98.644531-20.394532v-50.003906c33.910156-.171875 67.445312-7.105468 98.644531-20.394531 6.59375-2.953125 12.496094-7.257813 17.324219-12.628906 1.027344-1.414063 2.8125-2.054688 4.503906-1.621094 1.695312.429687 2.953125 1.851563 3.175781 3.582031 1.878907 13.824219.425781 44.800782-21.757812 56.066406 22.269531 10.835938 23.722656 42.066407 21.757812 56.0625zm0 0" fill="#c42828"/><path d="m477.890625 122.277344c-31.210937-13.246094-64.738281-20.179688-98.644531-20.394532v-50.003906c33.910156-.171875 67.445312-7.105468 98.644531-20.394531-.253906 15.359375-4.863281 36.523437-22.355469 45.398437 17.664063 8.617188 22.1875 29.949219 22.355469 45.394532zm0 0" fill="#f34335"/><path d="m128.027344 392.613281c-12.769532-32.542969-44.804688-53.375-79.730469-51.847656-1.378906.027344-2.6875-.617187-3.507813-1.726563-.824218-1.109374-1.058593-2.546874-.628906-3.863281 6.921875-21.542969 24.136719-38.21875 45.890625-44.449219 2.179688-.625 3.457031-2.878906 2.878907-5.070312-7.527344-27.015625-30.609376-21.671875-42.71875-16.773438-1.507813.597657-3.226563.289063-4.433594-.796874-1.203125-1.085938-1.691406-2.761719-1.25-4.324219 6.964844-25.503907 22.144531-47.996094 43.1875-64 1.25-.972657 1.867187-2.554688 1.601562-4.121094-.261718-1.5625-1.363281-2.855469-2.863281-3.363281-15.148437-5.113282-31.816406-2.855469-45.058594 6.101562-1.394531.941406-3.214843.976563-4.644531.085938-1.425781-.890625-2.199219-2.539063-1.96875-4.207032 4.574219-35.242187 33.050781-56.679687 45.152344-64.296874 1.238281-.785157 1.988281-2.144532 1.988281-3.613282 0-1.464844-.75-2.828125-1.988281-3.609375-12.308594-6.824219-29.253906-2.371093-38.699219 1.09375-1.488281.527344-3.144531.203125-4.320313-.847656-1.171874-1.050781-1.679687-2.660156-1.320312-4.195313 4.507812-27.472656 26.710938-48.613281 54.375-51.761718 1.136719-.167969 2.160156-.777344 2.847656-1.699219s.980469-2.082031.8125-3.21875c-2.433594-20.480469-20.753906-30.71875-32.503906-35.214844-1.644531-.59375-2.765625-2.128906-2.820312-3.878906-.054688-1.746094.960937-3.351563 2.5625-4.050781 40.601562-18.089844 86.488281-8.53125 110.421874-1.03125zm0 0" fill="#e81e63"/><path d="m503.492188 443.816406c0 15.839844-6.292969 31.035156-17.496094 42.238282-11.203125 11.199218-26.394532 17.492187-42.238282 17.492187h-281.597656c56.53125-.054687 102.34375-45.867187 102.398438-102.398437v-17.066407h179.199218c15.84375 0 31.035157 6.292969 42.238282 17.496094s17.496094 26.394531 17.496094 42.238281zm0 0" fill="#558a30"/><path d="m409.625 324.347656c0 1.707032-.085938 3.414063-.253906 5.121094-2.621094 30.894531-28.472656 54.628906-59.480469 54.613281h-85.332031v-119.46875h85.332031c2.714844-.015625 5.425781.183594 8.109375.597657 26.355469 3.574218 47.148438 24.191406 50.941406 50.519531.488282 2.847656.714844 5.730469.683594 8.617187zm0 0" fill="#558a30"/><path d="m477.890625 443.816406c0 15.839844-6.292969 31.035156-17.492187 42.238282-11.203126 11.199218-26.398438 17.492187-42.238282 17.492187h-256c56.53125-.054687 102.34375-45.867187 102.398438-102.398437v-17.066407h153.601562c32.988282 0 59.730469 26.742188 59.730469 59.734375zm0 0" fill="#8ac24a"/><path d="m384.027344 324.347656c0 1.707032-.085938 3.414063-.257813 5.121094-2.621093 30.894531-28.472656 54.628906-59.476562 54.613281h-59.734375v-119.46875h59.734375c2.714843-.015625 5.425781.183594 8.105469.597657 26.359374 3.574218 47.148437 24.191406 50.945312 50.519531.484375 2.847656.710938 5.730469.683594 8.617187zm0 0" fill="#8ac24a"/><path d="m383.878906 81.394531c-3.164062 36.417969-33.890625 64.226563-70.441406 63.753907h-23.277344c-14.140625 0-25.601562 11.460937-25.601562 25.601562v230.398438c-.054688 56.53125-45.867188 102.34375-102.398438 102.398437h-91.402344c-16.453124.160156-32.285156-6.269531-43.96875-17.851563-11.683593-11.585937-18.25-27.363281-18.230468-43.816406 1.046875-32.230468 27.484375-57.8125 59.734375-57.796875h17.066406c23.5625 0 42.667969-19.101562 42.667969-42.667969v-247.464843c0-47.128907 38.203125-85.335938 85.332031-85.335938h102.398437c18.890626 0 36.9375 7.828125 49.847657 21.617188 12.90625 13.792969 19.523437 32.316406 18.273437 51.164062zm0 0" fill="#ccdb39"/><path d="m264.558594 192.421875v76.117187c-9.339844 8.484376-21.515625 13.171876-34.132813 13.144532-28.277343 0-51.199219-22.925782-51.199219-51.203125 0-28.277344 22.921876-51.199219 51.199219-51.199219 12.617188-.027344 24.792969 4.660156 34.132813 13.140625zm0 0" fill="#e81e63"/><path d="m409.625 426.75c0 23.5625-19.101562 42.664062-42.667969 42.664062-23.5625 0-42.664062-19.101562-42.664062-42.664062 0-23.566406 19.101562-42.667969 42.664062-42.667969 23.566407 0 42.667969 19.101563 42.667969 42.667969zm0 0" fill="#e81e63"/><path d="m409.625 324.347656c0 1.707032-.085938 3.414063-.253906 5.121094-9.386719 3.984375-19.882813 4.496094-29.613282 1.449219h-.085937c-17.742187-5.621094-29.792969-22.09375-29.78125-40.703125-.027344-6.132813 1.316406-12.199219 3.925781-17.75 1.125-2.5625 2.527344-4.996094 4.183594-7.253906 29.589844 4 51.660156 29.277343 51.625 59.136718zm0 0" fill="#ac1457"/><path d="m384.027344 324.347656c0 1.707032-.085938 3.414063-.257813 5.121094-1.28125.511719-2.644531 1.023438-4.011719 1.449219h-.085937c-17.742187-5.621094-29.792969-22.09375-29.78125-40.703125-.027344-6.132813 1.316406-12.199219 3.925781-17.75 18.703125 10.566406 30.253906 30.402344 30.210938 51.882812zm0 0" fill="#e81e63"/><path d="m220.699219 485.117188c-17.132813 12.058593-37.589844 18.5-58.539063 18.429687h-24.746094c-.589843-2.804687-.875-5.664063-.855468-8.53125.0625-21.589844 16.242187-39.726563 37.679687-42.25 21.441407-2.519531 41.386719 11.367187 46.460938 32.351563zm0 0" fill="#e81e63"/><path d="m271.128906 72.53125-3.242187-2.5625-10.410157-8.105469h-.085937l-22.273437-17.324219c-18.679688 5.675782-31.136719 23.296876-30.25 42.804688.886718 19.503906 14.886718 35.925781 34.007812 39.882812h.167969c2.777343.589844 5.609375.875 8.449219.855469 22.847656-.027343 41.621093-18.046875 42.582031-40.875zm0 0" fill="#fff"/><path d="m273.09375 85.414062c0 14.140626-11.464844 25.601563-25.601562 25.601563-14.136719 0-25.601563-11.460937-25.601563-25.601563 0-14.136718 11.464844-25.597656 25.601563-25.597656 3.40625-.023437 6.78125.675782 9.898437 2.046875h.085937l10.410157 8.105469c3.378906 4.441406 5.207031 9.867188 5.207031 15.445312zm0 0" fill="#00bbd3"/><path d="m238.957031 72.613281c0 7.070313-5.730469 12.800781-12.796875 12.800781-7.070312 0-12.800781-5.730468-12.800781-12.800781 0-7.066406 5.730469-12.796875 12.800781-12.796875 7.066406 0 12.796875 5.730469 12.796875 12.796875zm0 0" fill="#fff"/><path d="m68.292969 512.082031h375.464843c37.703126 0 68.269532-30.5625 68.269532-68.265625s-30.566406-68.269531-68.269532-68.269531h-48.808593c1.082031-.953125 2.183593-1.894531 3.226562-2.925781 11.34375-11.335938 18.320313-26.320313 19.683594-42.300782.203125-1.984374.304687-3.976562.300781-5.972656 0-2.125-.105468-4.265625-.292968-6.3125-2.964844-31.496094-27.164063-56.832031-58.484376-61.246094h-.25c-3.054687-.476562-6.144531-.710937-9.242187-.707031h-76.796875v-85.332031c0-9.425781 7.640625-17.066406 17.066406-17.066406h25.597656c29.347657-.042969 56.105469-16.800782 68.949219-43.1875 34.441407.929687 89.984375 12.722656 103.894531 29.789062 2.488282 3.0625 6.21875 4.847656 10.164063 4.863282 1.171875-.003907 2.335937-.164063 3.464844-.476563 4.886719-1.347656 8.484375-5.5 9.121093-10.53125 2.097657-15.222656.476563-41.703125-15.640624-57.34375 16.066406-15.8125 17.722656-42.113281 15.65625-57.175781-.621094-5.039063-4.222657-9.203125-9.121094-10.546875-5.019532-1.390625-10.386719.335937-13.652344 4.394531-13.875 17.070312-69.359375 29.015625-103.910156 29.792969-12.84375-26.375-39.589844-43.132813-68.925782-43.1796878h-102.398437c-14.078125.015625-27.96875 3.2265628-40.628906 9.3867188-28.160157-8.628906-80.910157-18.773438-125.753907 6.996094-3.078124 1.769531-4.738281 5.261718-4.167968 8.765625.566406 3.503906 3.246094 6.292969 6.726562 6.996093 1.324219.273438 29.371094 6.316407 34.902344 27.117188-17.015625 3.3125-51.601562 16.214844-58.710938 66.230469-.445312 3.140625.890626 6.273437 3.472657 8.125 2.578125 1.855469 5.972656 2.121093 8.808593.695312 9.238282-4.5625 19.453126-6.796875 29.753907-6.5-16.585938 12.21875-42.136719 37.339844-42.136719 76.058594 0 3.453125 2.085938 6.566406 5.28125 7.886719 3.191406 1.316406 6.867188.578125 9.304688-1.871094 9.644531-8.785156 22.609374-12.984375 35.574218-11.519531-21.789062 18.738281-36.445312 44.421875-41.507812 72.710937-.539063 3.277344.871094 6.574219 3.617187 8.445313 2.75 1.867187 6.332031 1.972656 9.183594.265625 4.726563-2.816406 18.996094-9.214844 28.246094-5.117188 3.777343 1.90625 6.65625 5.210938 8.03125 9.214844-25.066407 8.445312-43.746094 29.59375-49.035157 55.507812-.535156 2.710938.273438 5.511719 2.167969 7.519532 1.917969 1.980468 4.660157 2.929687 7.390625 2.558594 24.296875-2.386719 48.222656 7.308593 64 25.941406h-39.585937c-37.71875 0-68.292969 30.578125-68.292969 68.292968 0 37.71875 30.574219 68.292969 68.292969 68.292969zm76.800781-17.066406c.011719-16.1875 11.390625-30.140625 27.242188-33.40625 15.855468-3.265625 31.824218 5.050781 38.234374 19.914063-14.585937 8.875-31.339843 13.546874-48.410156 13.492187zm349.863281-51.199219c0 28.277344-22.921875 51.199219-51.199219 51.199219h-222.640624c1.484374-.949219 2.992187-1.871094 4.445312-2.894531l.117188-.09375.121093-.085938c29.640625-20.726562 47.296875-54.621094 47.292969-90.792968v-8.535157h55.804688c-18.445313 20.5-17.34375 51.929688 2.496093 71.085938 19.839844 19.152343 51.289063 19.152343 71.128907 0 19.839843-19.15625 20.941406-50.585938 2.496093-71.085938h38.738281c28.265626.03125 51.171876 22.9375 51.199219 51.203125zm-130.746093-168.449218c1.253906.367187 2.484374.785156 3.695312 1.238281 1.550781.585937 3.070312 1.25 4.558594 1.988281 1.140625.5625 2.277344 1.140625 3.367187 1.789062 1.425781.855469 2.785157 1.785157 4.113281 2.757813 1.007813.734375 2.015626 1.460937 2.960938 2.269531 1.273438 1.101563 2.488281 2.265625 3.636719 3.492188.851562.851562 1.707031 1.707031 2.476562 2.609375 1.109375 1.367187 2.148438 2.792969 3.113281 4.265625.632813.921875 1.320313 1.800781 1.886719 2.773437 1 1.765625 1.894531 3.589844 2.667969 5.460938.359375.804687.804688 1.554687 1.109375 2.375 1.042969 2.746093 1.847656 5.578125 2.398437 8.464843.101563.570313.09375 1.175782.179688 1.757813.355469 2.210937.5625 4.441406.625 6.679687-2.761719.699219-5.59375 1.054688-8.441406 1.058594-18.851563 0-34.132813-15.28125-34.132813-34.132812-.015625-5.335938 1.234375-10.601563 3.652344-15.359375.707031.195312 1.46875.308593 2.132813.511719zm28.347656 66.046874c1.851562-.003906 3.703125-.105468 5.546875-.304687-6.972657 20.664063-26.402344 34.542969-48.214844 34.4375l-76.796875.003906v-102.402343h71.25c-5.601562 15.664062-3.226562 33.074218 6.371094 46.660156 9.59375 13.589844 25.210937 21.648437 41.84375 21.605468zm8.535156 85.335938c0 18.851562-15.285156 34.132812-34.136719 34.132812-18.847656 0-34.132812-15.28125-34.132812-34.132812s15.285156-34.136719 34.132812-34.136719c18.851563 0 34.136719 15.285157 34.136719 34.136719zm-145.066406-162.210938c-7.359375 5.597657-16.355469 8.621094-25.601563 8.609376-23.5625 0-42.667969-19.101563-42.667969-42.667969 0-23.5625 19.105469-42.664063 42.667969-42.664063 9.246094-.015625 18.242188 3.011719 25.601563 8.609375zm238.929687-233.636718c-.160156 12.640625-3.539062 31.226562-17.660156 38.359375-2.902344 1.457031-4.726563 4.433593-4.703125 7.679687.019531 3.25 1.882812 6.203125 4.804688 7.621094 14.128906 6.878906 17.433593 25.597656 17.542968 38.332031-23.039062-17.988281-72.320312-27.667969-104.269531-29.296875 2.515625-11 2.515625-22.429687 0-33.433594 31.976563-1.664062 81.246094-11.28125 104.285156-29.261718zm-440.796875 301.476562c7.703125-17.265625 23.015625-29.953125 41.414063-34.304687 4.617187-.925781 7.609375-5.417969 6.6875-10.035157-1.355469-12.417968-8.914063-23.300781-20.078125-28.910156-8.660156-3.371094-18.210938-3.699218-27.082032-.921875 8.207032-22.585937 23.320313-42.015625 43.195313-55.527343 2.660156-1.605469 4.242187-4.527344 4.121094-7.636719-.117188-3.105469-1.917969-5.898438-4.695313-7.296875-16.4375-8.535156-35.902344-8.964844-52.699218-1.160156 9.386718-34.132813 43.773437-51.992188 44.167968-52.199219 2.449219-1.226563 4.15625-3.554688 4.597656-6.257813.4375-2.703125-.445312-5.453125-2.378906-7.394531-12.859375-12.929687-32.007812-11.09375-45.433594-7.40625 6.273438-21.574219 25.484376-36.832031 47.914063-38.058594 4.714844 0 8.535156-3.820312 8.535156-8.535156-.582031-18.832031-11.753906-35.714844-28.859375-43.613281 25.957032-7.597656 53.492188-8.015625 79.667969-1.203125-21.390625 17.808593-33.753906 44.199219-33.742187 72.03125v268.839843c-16.675782-18.675781-40.300782-29.675781-65.332032-30.410156zm-22.074218 75.230469c9.582031-9.632813 22.621093-15.03125 36.207031-14.996094h50.234375c.316406.667969.65625 1.273438.964844 1.964844v15.105469c0 4.710937 3.820312 8.53125 8.535156 8.53125 4.710937 0 8.53125-3.820313 8.53125-8.53125v-315.734375c.046875-42.398438 34.40625-76.753907 76.800781-76.800781h102.398437c32.992188 0 59.734376 26.742187 59.734376 59.734374 0 32.988282-26.742188 59.730469-59.734376 59.730469h-25.597656c-18.851562 0-34.132812 15.285157-34.132812 34.136719v5.816406c-25.105469-11.972656-55.152344-5.035156-72.464844 16.730469-17.316406 21.765625-17.316406 52.601563 0 74.371094 17.3125 21.765625 47.359375 28.703125 72.464844 16.726562v116.753907c.003906 26.832031-11.492188 52.375-31.574219 70.167968-10.867187-20.917968-34.636719-31.6875-57.53125-26.0625s-38.964844 26.1875-38.894531 49.761719h-59.734375c-20.710938 0-39.382813-12.472656-47.308594-31.605469-7.925781-19.132812-3.542969-41.160156 11.101563-55.800781zm0 0"/><path d="m247.492188 136.613281c27.457031.058594 50.042968-21.617187 51.105468-49.054687 0-.242188-.09375-.445313-.101562-.683594-.035156-.578125-.128906-1.148438-.273438-1.707031-.117187-.519531-.289062-1.023438-.503906-1.511719-.503906-.988281-1.167969-1.886719-1.960938-2.660156-.171874-.164063-.257812-.375-.445312-.523438l-54.960938-42.664062c-.1875-.144532-.417968-.179688-.617187-.308594-.5-.320312-1.035156-.582031-1.59375-.785156-.476563-.203125-.96875-.359375-1.476563-.460938-.535156-.085937-1.074218-.121094-1.613281-.101562-.574219-.007813-1.144531.046875-1.707031.160156-.230469.054688-.460938 0-.699219.070312-24.34375 7.316407-39.632812 31.390626-35.910156 56.535157 3.726563 25.144531 25.335937 43.75 50.757813 43.695312zm-13.789063-82.371093 47.273437 36.695312c-2.855468 17.503906-18.675781 29.882812-36.355468 28.4375-17.679688-1.441406-31.285156-16.222656-31.261719-33.960938.082031-13.480468 8.035156-25.667968 20.34375-31.171874zm0 0"/><path d="m256.027344 85.414062c0 4.714844-3.820313 8.535157-8.535156 8.535157-4.710938 0-8.535157-3.820313-8.535157-8.535157 0-4.710937 3.824219-8.53125 8.535157-8.53125 4.714843 0 8.535156 3.820313 8.535156 8.53125zm0 0"/></svg>