<svg height="512pt" viewBox="0 0 512.00433 512" width="512pt" xmlns="http://www.w3.org/2000/svg"><path d="m139.179688 119.472656-77.480469 85.757813c-8.011719-3.761719-15.429688-8.675781-22.015625-14.589844-4.460938-4.121094-8.546875-8.632813-12.203125-13.484375-12.378907-16.675781-19.023438-36.914062-18.945313-57.683594v-1.023437c.066406-6.511719.78125-13 2.132813-19.371094v-.085937c3.824219-20.835938 14.375-39.839844 30.039062-54.101563 2.238281-2.003906 5.363281-2.695313 8.238281-1.824219 2.878907.871094 5.089844 3.179688 5.839844 6.089844 10.582032 38.570312 44.289063 69.546875 84.394532 70.316406zm0 0" fill="#fdc008"/><path d="m503.46875 118.449219v1.023437c.082031 20.769532-6.566406 41.007813-18.945312 57.683594-3.65625 4.851562-7.738282 9.363281-12.199219 13.484375-6.589844 5.914063-14.007813 10.828125-22.019531 14.589844l-77.480469-85.757813c40.105469-.769531 73.8125-31.746094 84.394531-70.316406.75-2.910156 2.964844-5.21875 5.839844-6.089844 2.878906-.871094 6-.179687 8.238281 1.824219 15.664063 14.261719 26.214844 33.265625 30.039063 54.101563v.085937c1.351562 6.371094 2.066406 12.859375 2.132812 19.371094zm0 0" fill="#fdc008"/><path d="m503.46875 366.9375c0 102.742188-84.136719 130.132812-196.265625 135.425781-5.632813.253907-11.351563.511719-17.066406.597657-8.363281.253906-16.898438.425781-25.601563.425781-2.816406.085937-5.632812.085937-8.53125.085937-2.902344 0-5.71875 0-8.535156-.085937-8.617188-.085938-17.152344-.171875-25.601562-.425781-5.714844-.171876-11.433594-.34375-17.066407-.683594-112.125-5.289063-196.265625-32.597656-196.265625-135.339844 0-49.832031 19.796875-109.480469 53.164063-161.707031 20.539062-32.949219 46.777343-61.988281 77.480469-85.757813 13.917968-10.578125 28.972656-19.5625 44.886718-26.796875 3.414063-1.535156 6.828125-2.898437 10.324219-4.179687l86.445313-6.316406 13.140624-.9375c118.699219 27.648437 209.492188 178.945312 209.492188 285.695312zm0 0" fill="#ac1457"/><path d="m477.867188 366.9375c0 97.453125-74.339844 127.0625-176 134.316406-5.527344.425782-11.089844.765625-16.757813 1.023438-8.21875.425781-16.597656.683594-25.148437.851562-5.527344.171875-11.144532.257813-16.757813.257813-8.464844-.085938-16.84375-.171875-25.140625-.425781-5.613281-.171876-11.238281-.34375-16.765625-.683594-110.125-5.289063-192.761719-32.597656-192.761719-135.339844 0-49.832031 19.449219-109.480469 52.214844-161.707031 20.097656-32.859375 45.863281-61.898438 76.101562-85.757813 13.632813-10.558594 28.410157-19.546875 44.058594-26.796875 3.351563-1.535156 6.699219-2.898437 10.136719-4.179687l84.898437-6.316406c114.679688 30.039062 201.921876 179.203124 201.921876 284.757812zm0 0" fill="#e81e63"/><path d="m170.667969 162.140625c-2.851563-.003906-5.699219.167969-8.53125.511719-24.867188 3.316406-45.910157 20.003906-54.804688 43.460937s-4.207031 49.902344 12.207031 68.875c16.417969 18.96875 41.914063 27.40625 66.40625 21.976563l20.5625-22.613282 31.832032-34.984374c.414062-2.96875.613281-5.964844.597656-8.960938 0-37.703125-30.566406-68.265625-68.269531-68.265625zm0 0" fill="#f3f3f3"/><path d="m213.335938 230.40625c0 23.5625-19.101563 42.664062-42.667969 42.664062-23.5625 0-42.664063-19.101562-42.664063-42.664062 0-23.566406 19.101563-42.667969 42.664063-42.667969 23.566406 0 42.667969 19.101563 42.667969 42.667969zm0 0" fill="#8ac24a"/><path d="m341.335938 162.140625c-2.851563-.003906-5.703126.167969-8.535157.511719-34.140625 4.300781-59.742187 33.339844-59.730469 67.753906-.019531 2.996094.179688 5.992188.597657 8.960938l52.394531 57.597656c2.21875.511718 4.4375.855468 6.738281 1.195312 2.832031.34375 5.683594.515625 8.535157.511719 37.703124 0 68.265624-30.5625 68.265624-68.265625s-30.5625-68.265625-68.265624-68.265625zm0 0" fill="#f3f3f3"/><path d="m384.003906 230.40625c0 23.5625-19.105468 42.664062-42.667968 42.664062s-42.667969-19.101562-42.667969-42.664062c0-23.566406 19.105469-42.667969 42.667969-42.667969s42.667968 19.101563 42.667968 42.667969zm0 0" fill="#8ac24a"/><path d="m162.136719 392.539062h59.730469v25.601563c0 9.421875-7.640626 17.066406-17.066407 17.066406h-25.597656c-9.425781 0-17.066406-7.644531-17.066406-17.066406zm0 0" fill="#f9eab0"/><path d="m170.667969 392.539062h42.667969v25.601563c0 9.421875-7.640626 17.066406-17.066407 17.066406h-8.535156c-9.425781 0-17.066406-7.644531-17.066406-17.066406zm0 0" fill="#ffebb2"/><path d="m219.214844 117.679688c-20.230469-14.363282-32.351563-37.550782-32.605469-62.359376-.042969-1.828124 1.082031-3.480468 2.796875-4.109374 1.714844-.628907 3.640625-.097657 4.789062 1.324218 7.082032 9.5 16.664063 16.851563 27.671876 21.234375 3.011718 1.050781 6.359374.335938 8.675781-1.855469 2.320312-2.191406 3.222656-5.492187 2.34375-8.558593-3.160157-11.78125-3.011719-29.925781 16.210937-48.699219 1.203125-1.179688 2.984375-1.542969 4.550782-.925781 1.570312.613281 2.628906 2.09375 2.703124 3.777343.3125 6.085938 1.007813 12.148438 2.082032 18.148438.558594 3.105469 2.78125 5.648438 5.78125 6.617188s6.289062.203124 8.554687-1.992188c9.464844-10.277344 24.269531-13.695312 37.28125-8.601562 1.320313.453124 2.335938 1.519531 2.71875 2.859374.382813 1.339844.089844 2.785157-.789062 3.867188-8.363281 10.09375-26.605469 36.480469-13.199219 61.355469 1.441406 2.460937 1.546875 5.484375.269531 8.039062-1.273437 2.550781-3.75 4.289063-6.585937 4.613281l-67.539063 6.757813c-2.023437.222656-4.054687-.308594-5.710937-1.492187zm0 0" fill="#ac1457"/><path d="m332.800781 273.070312c-.59375 11.320313-4.511719 22.214844-11.261719 31.320313-9.53125 14.011719-22.933593 24.953125-38.570312 31.488281-17.242188 7.28125-36.691406 7.28125-53.933594 0-15.636718-6.535156-29.039062-17.476562-38.570312-31.488281-.082032-.085937 0-.085937 0-.085937-6.746094-9.074219-10.667969-19.941407-11.261719-31.234376 0-28.242187 34.386719-34.132812 76.800781-34.132812 42.410156 0 76.796875 5.890625 76.796875 34.132812zm0 0" fill="#ac1457"/><path d="m321.539062 304.390625c-9.53125 14.011719-22.933593 24.953125-38.570312 31.488281-6.285156-4.785156-9.949219-12.242187-9.898438-20.140625-.03125-11.890625 8.144532-22.226562 19.722657-24.9375 11.578125-2.710937 23.492187 2.921875 28.746093 13.589844zm0 0" fill="#37474f"/><path d="m238.9375 315.738281c.050781 7.898438-3.617188 15.355469-9.902344 20.140625-15.636718-6.535156-29.039062-17.476562-38.570312-31.488281-.082032-.085937 0-.085937 0-.085937 5.324218-10.585938 17.21875-16.132813 28.75-13.414063 11.53125 2.722656 19.6875 13 19.722656 24.847656zm0 0" fill="#37474f"/><path d="m162.136719 204.804688c0 9.425781-7.640625 17.066406-17.066407 17.066406-9.425781 0-17.066406-7.640625-17.066406-17.066406 0-9.425782 7.640625-17.066407 17.066406-17.066407 9.425782 0 17.066407 7.640625 17.066407 17.066407zm0 0" fill="#f3f3f3"/><path d="m332.800781 204.804688c0 9.425781-7.640625 17.066406-17.066406 17.066406s-17.066406-7.640625-17.066406-17.066406c0-9.425782 7.640625-17.066407 17.066406-17.066407s17.066406 7.640625 17.066406 17.066407zm0 0" fill="#f3f3f3"/><path d="m187.734375 230.40625c0 9.425781-7.640625 17.066406-17.066406 17.066406s-17.066407-7.640625-17.066407-17.066406 7.640626-17.066406 17.066407-17.066406 17.066406 7.640625 17.066406 17.066406zm0 0" fill="#37474f"/><path d="m358.402344 230.40625c0 9.425781-7.640625 17.066406-17.066406 17.066406-9.425782 0-17.066407-7.640625-17.066407-17.066406s7.640625-17.066406 17.066407-17.066406c9.425781 0 17.066406 7.640625 17.066406 17.066406zm0 0" fill="#37474f"/><path d="m256.003906 512.003906c132.964844 0 256-17.578125 256-145.066406 0-49.757812-18.425781-107.347656-49.496094-158.617188 30.9375-18.886718 49.71875-52.601562 49.496094-88.847656.152344-30.734375-12.558594-60.128906-35.054687-81.066406-4.457031-3.933594-10.632813-5.28125-16.324219-3.558594s-10.082031 6.269532-11.605469 12.015625c-8.523437 34.773438-38.070312 60.382813-73.703125 63.871094-21.691406-16.261719-46.164062-28.4375-72.21875-35.925781 2.898438-13.066406 9.363282-25.070313 18.679688-34.679688 1.933594-1.941406 2.816406-4.691406 2.375-7.394531s-2.152344-5.03125-4.601563-6.257813c-17.21875-9.996093-39.046875-6.898437-52.804687 7.492188-1.480469-8.394531-2.21875-16.90625-2.210938-25.429688 0-3.28125-1.878906-6.273437-4.835937-7.695312s-6.46875-1.019531-9.03125 1.03125c-29.738281 23.789062-30.128907 48.316406-25.890625 63.835938-12.496094-5.445313-22.824219-14.890626-29.363282-26.851563-1.648437-3.308594-5.242187-5.175781-8.898437-4.628906s-6.542969 3.386719-7.152344 7.035156c-2.566406 14.292969-1.304687 29.015625 3.660157 42.664063-.800782.34375-1.609376.617187-2.40625.972656-15.496094 7.058594-30.203126 15.734375-43.875 25.882812-35.648438-3.460937-65.222657-29.0625-73.753907-63.847656-1.503906-5.761719-5.890625-10.332031-11.585937-12.070312-5.695313-1.738282-11.886719-.398438-16.355469 3.539062-22.488281 20.941406-35.195313 50.335938-35.04296875 81.066406-.24609425 36.382813 18.66796875 70.210938 49.78906275 89.054688-31.613281 52.171875-49.78906275 109.40625-49.78906275 158.410156 0 127.488281 123.03124975 145.066406 255.99999975 145.066406zm209.695313-460.730468c12.390625 11.367187 21.257812 26.054687 25.542969 42.316406-6.226563-3.007813-12.636719-5.613282-19.191407-7.808594-4.480469-1.496094-9.324219.917969-10.820312 5.394531-1.5 4.476563.914062 9.320313 5.390625 10.820313 9.816406 3.261718 19.234375 7.617187 28.074218 12.988281.078126 1.507813.242188 3.011719.242188 4.523437-.003906 17.191407-5.03125 34.011719-14.457031 48.390626-7.414063-17.011719-17.820313-32.554688-30.71875-45.890626-3.351563-3.234374-8.671875-3.1875-11.964844.101563-3.289063 3.292969-3.335937 8.613281-.101563 11.964844 13.304688 13.976562 23.703126 30.457031 30.589844 48.484375-4.550781 4.332031-9.589844 8.117187-15.019531 11.28125-16.847656-25.449219-37.007813-48.546875-59.953125-68.675782 35.5-10.09375 63.027344-38.191406 72.386719-73.890624zm-278.144531 49.1875c.964843-.4375 1.957031-.777344 2.921874-1.179688 6.902344 11.011719 16.113282 20.398438 26.996094 27.503906 4.03125 2.410156 9.25 1.117188 11.683594-2.902344 2.433594-4.023437 1.152344-9.261718-2.867188-11.707031-10.046874-6.683593-18.261718-15.777343-23.894531-26.453125 0-.058594 0-.109375 0-.171875 0-.058593-.210937-.296875-.289062-.46875-2.855469-5.566406-4.867188-11.53125-5.972657-17.6875 11.386719 11.328125 26.742188 17.765625 42.804688 17.945313 3.210938-.015625 6.144531-1.835938 7.585938-4.707032 1.441406-2.871093 1.148437-6.3125-.761719-8.894531-9.09375-13.515625-7.953125-31.453125 2.773437-43.710937.375 10.5 3.828125 20.660156 9.933594 29.210937 1.941406 1.933594 4.691406 2.820313 7.394531 2.378907 2.703125-.4375 5.03125-2.148438 6.257813-4.597657 5.160156-11.117187 16.714844-17.828125 28.929687-16.800781-14.507812 19.789062-26.453125 52.230469.066407 78.753906 3.347656 3.234375 8.671874 3.1875 11.964843-.105468 3.289063-3.289063 3.335938-8.613282.101563-11.960938-3.386719-3.324219-6.09375-7.269531-7.976563-11.621094 106.230469 34.070313 189.730469 173.539063 189.730469 273.652344 0 93.015625-73.234375 121.277344-187.734375 126.867188v-24.464844c0-4.714844-3.820313-8.535156-8.535156-8.535156-4.710938 0-8.53125 3.820312-8.53125 8.535156v25.113281c-8.335938.238281-16.867188.386719-25.601563.441406v-42.621093c0-4.714844-3.820312-8.535157-8.53125-8.535157-4.714844 0-8.535156 3.820313-8.535156 8.535157v42.664062c-8.722656-.050781-17.253906-.199219-25.601562-.441406v-25.15625c0-4.714844-3.820313-8.535156-8.53125-8.535156-4.714844 0-8.535157 3.820312-8.535157 8.535156v24.464844c-114.5-5.589844-187.730469-33.851563-187.730469-126.867188 0-47.589844 19.371094-106.324219 51.832032-157.132812 20-32.078126 45.535156-60.351563 75.414062-83.507813 13.40625-10.195313 27.910156-18.863281 43.238282-25.835937zm-143.84375 82.0625c6.886718-18.027344 17.285156-34.507813 30.589843-48.484376 3.234375-3.347656 3.1875-8.671874-.101562-11.960937-3.292969-3.292969-8.613281-3.339844-11.964844-.105469-12.898437 13.335938-23.304687 28.878906-30.71875 45.890625-9.425781-14.378906-14.445313-31.199219-14.445313-48.390625 0-1.511718.160157-3.011718.238282-4.523437 8.839844-5.371094 18.257812-9.726563 28.074218-12.988281 2.894532-.96875 5.054688-3.410157 5.664063-6.402344.609375-2.992188-.425781-6.082032-2.714844-8.105469-2.285156-2.023437-5.480469-2.675781-8.375-1.703125-6.554687 2.1875-12.960937 4.792969-19.183593 7.796875 4.292968-16.261719 13.246093-30.914063 25.761718-42.152344 9.269532 35.664063 36.765625 63.730469 72.234375 73.726563-22.894531 20.179687-43.003906 43.304687-59.808593 68.777344-5.515626-3.175782-10.632813-6.992188-15.25-11.375zm0 0"/><path d="m93.867188 230.40625c.054687 42.394531 34.40625 76.746094 76.800781 76.800781 3.699219-.023437 7.386719-.308593 11.042969-.855469.433593.691407.769531 1.410157 1.230468 2.101563.144532.253906.296875.511719.460938.75 1.296875 1.902344 2.667968 3.769531 4.113281 5.589844 10.105469 12.753906 23.28125 22.734375 38.296875 29.011719 19.292969 8.113281 41.042969 8.113281 60.339844 0 17.167968-7.191407 31.890625-19.191407 42.390625-34.558594.632812-.921875 1.101562-1.878906 1.707031-2.816406 3.671875.523437 7.378906.78125 11.085938.777343 42.414062 0 76.800781-34.386719 76.800781-76.800781 0-42.417969-34.386719-76.800781-76.800781-76.800781-42.414063 0-76.800782 34.382812-76.800782 76.800781v.050781c-3.089844 0-5.972656-.050781-8.53125-.050781-2.5625 0-5.445312 0-8.535156.050781v-.050781c0-42.417969-34.382812-76.800781-76.800781-76.800781-42.414063 0-76.800781 34.382812-76.800781 76.800781zm76.800781 8.53125c-4.710938 0-8.53125-3.820312-8.53125-8.53125 0-4.714844 3.820312-8.535156 8.53125-8.535156 4.714843 0 8.535156 3.820312 8.535156 8.535156 0 4.710938-3.820313 8.53125-8.535156 8.53125zm56.636719 86.5625c-1.058594-.527344-2.132813-.996094-3.164063-1.578125-1.035156-.578125-1.828125-1.015625-2.714844-1.5625-2.53125-1.566406-4.96875-3.277344-7.304687-5.117187-.316406-.25-.65625-.453126-.972656-.710938-2.625-2.15625-5.113282-4.472656-7.449219-6.9375-.65625-.691406-1.265625-1.433594-1.894531-2.140625-1-1.117187-1.886719-2.3125-2.816407-3.480469 3.203125-3.402344 7.675781-5.320312 12.347657-5.300781 9.425781 0 17.066406 7.640625 17.066406 17.066406.007812 3.496094-1.074219 6.910157-3.097656 9.761719zm54.296874-9.761719c0-9.425781 7.640626-17.066406 17.066407-17.066406 4.671875-.019531 9.136719 1.902344 12.332031 5.308594-.800781 1.015625-1.5625 2.074219-2.421875 3.054687-.675781.769532-1.332031 1.550782-2.042969 2.304688-2.34375 2.515625-4.847656 4.875-7.5 7.066406l-.136718.101562c-2.617188 2.109376-5.371094 4.046876-8.242188 5.800782-.851562.539062-1.707031 1.007812-2.558594 1.503906-1.101562.621094-2.246094 1.117188-3.363281 1.707031-2.039063-2.855469-3.136719-6.273437-3.132813-9.78125zm51.199219-85.332031c0-4.714844 3.820313-8.535156 8.535157-8.535156 4.710937 0 8.53125 3.820312 8.53125 8.535156 0 4.710938-3.820313 8.53125-8.53125 8.53125-4.714844 0-8.535157-3.820312-8.535157-8.53125zm-51.199219 0c0-32.992188 26.746094-59.734375 59.734376-59.734375 32.988281 0 59.734374 26.742187 59.734374 59.734375 0 32.988281-26.746093 59.734375-59.734374 59.734375-1.023438 0-2.023438-.121094-3.039063-.171875 1.914063-5.433594 2.941406-11.136719 3.039063-16.898438.085937-6.128906-1.457032-12.175781-4.472657-17.515624 10.605469 1.878906 21.253907-3.078126 26.640625-12.402344 5.386719-9.328125 4.359375-21.027344-2.566406-29.273438-6.929688-8.246094-18.277344-11.273437-28.394531-7.574218-10.113281 3.695312-16.832031 13.332031-16.808594 24.101562.027344 2.984375.582031 5.9375 1.640625 8.730469-11.414062-4.570313-23.496094-7.25-35.773438-7.929688 0-.273437 0-.519531 0-.800781zm42.667969 42.664062c-.246093 5.628907-1.640625 11.144532-4.097656 16.214844-12.519531-10.257812-30.53125-10.28125-43.082031-.0625-12.550782 10.21875-16.175782 27.859375-8.671875 42.199219-8.183594 1.75-16.648438 1.75-24.832031 0 7.429687-14.347656 3.78125-31.9375-8.742188-42.148437-12.523438-10.207032-30.488281-10.238282-43.046875-.074219-2.457031-5.035157-3.839844-10.527344-4.0625-16.128907 0-11.945312 7.757813-25.597656 68.269531-25.597656 60.507813 0 68.265625 13.652344 68.265625 25.597656zm-153.601562-102.398437c32.976562.039063 59.695312 26.757813 59.734375 59.734375v.800781c-12.265625.679688-24.335938 3.355469-35.738282 7.929688 1.042969-2.792969 1.585938-5.75 1.605469-8.730469.152344-10.980469-6.613281-20.871094-16.90625-24.699219-10.289062-3.832031-21.875-.777343-28.941406 7.628907-7.0625 8.40625-8.074219 20.347656-2.527344 29.824218 5.550781 9.476563 16.457031 14.4375 27.246094 12.394532-3.015625 5.339843-4.558594 11.386718-4.472656 17.515624.089843 5.761719 1.113281 11.46875 3.03125 16.898438-1.015625.050781-2.015625.171875-3.03125.171875-32.988281 0-59.730469-26.746094-59.730469-59.734375 0-32.992188 26.742188-59.734375 59.730469-59.734375zm0 0"/><path d="m384.003906 384.003906h-256c-23.554687-.027344-42.640625-19.113281-42.667968-42.664062 0-4.714844-3.820313-8.535156-8.535157-8.535156-4.710937 0-8.53125 3.820312-8.53125 8.535156.035157 32.972656 26.757813 59.695312 59.734375 59.730468h25.597656v17.070313c0 14.136719 11.460938 25.597656 25.601563 25.597656h25.597656c14.140625 0 25.601563-11.460937 25.601563-25.597656v-17.070313h153.601562c32.972656-.035156 59.695313-26.757812 59.730469-59.730468 0-4.714844-3.820313-8.535156-8.53125-8.535156-4.714844 0-8.535156 3.820312-8.535156 8.535156-.027344 23.550781-19.113281 42.636718-42.664063 42.664062zm-170.667968 34.136719c0 4.710937-3.820313 8.53125-8.535157 8.53125h-25.597656c-4.714844 0-8.535156-3.820313-8.535156-8.53125v-17.070313h42.667969zm0 0"/></svg>